<svg xmlns="http://www.w3.org/2000/svg" xmlns:xlink="http://www.w3.org/1999/xlink" contentStyleType="text/css" data-diagram-type="CLASS" height="639px" preserveAspectRatio="none" style="width:1111px;height:639px;background:#FFFFFF;" version="1.1" viewBox="0 0 1111 639" width="1111px" zoomAndPan="magnify">
  <title>High-level namespace dependencies in clang-uml</title>
  <defs>
    <style type="text/css">a:hover { text-decoration: underline; }</style>
  </defs>
  <g>
    <text fill="#000000" font-family="sans-serif" font-size="14" font-weight="bold" lengthAdjust="spacing" textLength="344.2588" x="376.5556" y="24.9659">High-level namespace dependencies in clang-uml</text>
    <a href="namespaceclanguml.html" target="_top" title="clanguml" xlink:actuate="onRequest" xlink:href="namespaceclanguml.html" xlink:show="new" xlink:title="clanguml" xlink:type="simple">
      <path d="M56.87,46.6699 L123.0678,46.6699 A3.75,3.75 0 0 1 125.5678,49.1699 L132.5678,71.7378 L1101.87,71.7378 A2.5,2.5 0 0 1 1104.37,74.2378 L1104.37,630.1699 A2.5,2.5 0 0 1 1101.87,632.6699 L56.87,632.6699 A2.5,2.5 0 0 1 54.37,630.1699 L54.37,49.1699 A2.5,2.5 0 0 1 56.87,46.6699 " fill="transparent" style="stroke:#000000;stroke-width:1.5;"/>
      <line style="stroke:#000000;stroke-width:1.5;" x1="54.37" x2="132.5678" y1="71.7378" y2="71.7378"/>
      <text fill="#000000" font-family="sans-serif" font-size="14" font-weight="bold" lengthAdjust="spacing" textLength="65.1978" x="58.37" y="63.6358">clanguml</text>
    </a>
    <a href="namespaceclanguml_1_1common.html" target="_top" title="common" xlink:actuate="onRequest" xlink:href="namespaceclanguml_1_1common.html" xlink:show="new" xlink:title="common" xlink:type="simple">
      <path d="M496.87,354.6699 L559.0918,354.6699 A3.75,3.75 0 0 1 561.5918,357.1699 L568.5918,379.7378 L755.87,379.7378 A2.5,2.5 0 0 1 758.37,382.2378 L758.37,598.1699 A2.5,2.5 0 0 1 755.87,600.6699 L496.87,600.6699 A2.5,2.5 0 0 1 494.37,598.1699 L494.37,357.1699 A2.5,2.5 0 0 1 496.87,354.6699 " fill="transparent" style="stroke:#000000;stroke-width:1.5;"/>
      <line style="stroke:#000000;stroke-width:1.5;" x1="494.37" x2="568.5918" y1="379.7378" y2="379.7378"/>
      <text fill="#000000" font-family="sans-serif" font-size="14" font-weight="bold" lengthAdjust="spacing" textLength="61.2218" x="498.37" y="371.6358">common</text>
    </a>
    <a href="namespaceclanguml_1_1class__diagram.html" target="_top" title="class_diagram" xlink:actuate="onRequest" xlink:href="namespaceclanguml_1_1class__diagram.html" xlink:show="new" xlink:title="class_diagram" xlink:type="simple">
      <path d="M853.87,210.6699 L953.4716,210.6699 A3.75,3.75 0 0 1 955.9716,213.1699 L962.9716,235.7378 L1077.87,235.7378 A2.5,2.5 0 0 1 1080.37,238.2378 L1080.37,472.1699 A2.5,2.5 0 0 1 1077.87,474.6699 L853.87,474.6699 A2.5,2.5 0 0 1 851.37,472.1699 L851.37,213.1699 A2.5,2.5 0 0 1 853.87,210.6699 " fill="transparent" style="stroke:#000000;stroke-width:1.5;"/>
      <line style="stroke:#000000;stroke-width:1.5;" x1="851.37" x2="962.9716" y1="235.7378" y2="235.7378"/>
      <text fill="#000000" font-family="sans-serif" font-size="14" font-weight="bold" lengthAdjust="spacing" textLength="98.6016" x="855.37" y="227.6358">class_diagram</text>
    </a>
    <a href="namespaceclanguml_1_1include__diagram.html" target="_top" title="include_diagram" xlink:actuate="onRequest" xlink:href="namespaceclanguml_1_1include__diagram.html" xlink:show="new" xlink:title="include_diagram" xlink:type="simple">
      <path d="M600.87,92.6699 L717.9016,92.6699 A3.75,3.75 0 0 1 720.4016,95.1699 L727.4016,117.7378 L824.87,117.7378 A2.5,2.5 0 0 1 827.37,120.2378 L827.37,320.1699 A2.5,2.5 0 0 1 824.87,322.6699 L600.87,322.6699 A2.5,2.5 0 0 1 598.37,320.1699 L598.37,95.1699 A2.5,2.5 0 0 1 600.87,92.6699 " fill="transparent" style="stroke:#000000;stroke-width:1.5;"/>
      <line style="stroke:#000000;stroke-width:1.5;" x1="598.37" x2="727.4016" y1="117.7378" y2="117.7378"/>
      <text fill="#000000" font-family="sans-serif" font-size="14" font-weight="bold" lengthAdjust="spacing" textLength="116.0316" x="602.37" y="109.6358">include_diagram</text>
    </a>
    <a href="namespaceclanguml_1_1sequence__diagram.html" target="_top" title="sequence_diagram" xlink:actuate="onRequest" xlink:href="namespaceclanguml_1_1sequence__diagram.html" xlink:show="new" xlink:title="sequence_diagram" xlink:type="simple">
      <path d="M94.87,210.6699 L226.8675,210.6699 A3.75,3.75 0 0 1 229.3675,213.1699 L236.3675,235.7378 L318.87,235.7378 A2.5,2.5 0 0 1 321.37,238.2378 L321.37,472.1699 A2.5,2.5 0 0 1 318.87,474.6699 L94.87,474.6699 A2.5,2.5 0 0 1 92.37,472.1699 L92.37,213.1699 A2.5,2.5 0 0 1 94.87,210.6699 " fill="transparent" style="stroke:#000000;stroke-width:1.5;"/>
      <line style="stroke:#000000;stroke-width:1.5;" x1="92.37" x2="236.3675" y1="235.7378" y2="235.7378"/>
      <text fill="#000000" font-family="sans-serif" font-size="14" font-weight="bold" lengthAdjust="spacing" textLength="130.9975" x="96.37" y="227.6358">sequence_diagram</text>
    </a>
    <a href="namespaceclanguml_1_1package__diagram.html" target="_top" title="package_diagram" xlink:actuate="onRequest" xlink:href="namespaceclanguml_1_1package__diagram.html" xlink:show="new" xlink:title="package_diagram" xlink:type="simple">
      <path d="M347.87,92.6699 L472.4195,92.6699 A3.75,3.75 0 0 1 474.9195,95.1699 L481.9195,117.7378 L571.87,117.7378 A2.5,2.5 0 0 1 574.37,120.2378 L574.37,320.1699 A2.5,2.5 0 0 1 571.87,322.6699 L347.87,322.6699 A2.5,2.5 0 0 1 345.37,320.1699 L345.37,95.1699 A2.5,2.5 0 0 1 347.87,92.6699 " fill="transparent" style="stroke:#000000;stroke-width:1.5;"/>
      <line style="stroke:#000000;stroke-width:1.5;" x1="345.37" x2="481.9195" y1="117.7378" y2="117.7378"/>
      <text fill="#000000" font-family="sans-serif" font-size="14" font-weight="bold" lengthAdjust="spacing" textLength="123.5495" x="349.37" y="109.6358">package_diagram</text>
    </a>
    <a href="namespaceclanguml_1_1common_1_1model.html" target="_top" title="model" xlink:actuate="onRequest" xlink:href="namespaceclanguml_1_1common_1_1model.html" xlink:show="new" xlink:title="model" xlink:type="simple">
      <path d="M656.87,518.6699 L701.6898,518.6699 A3.75,3.75 0 0 1 704.1898,521.1699 L711.1898,543.7378 L715.6898,543.7378 A2.5,2.5 0 0 1 718.1898,546.2378 L718.1898,574.3057 A2.5,2.5 0 0 1 715.6898,576.8057 L656.87,576.8057 A2.5,2.5 0 0 1 654.37,574.3057 L654.37,521.1699 A2.5,2.5 0 0 1 656.87,518.6699 " fill="#F1F1F1" style="stroke:#181818;stroke-width:0.5;"/>
      <line style="stroke:#181818;stroke-width:0.5;" x1="654.37" x2="711.1898" y1="543.7378" y2="543.7378"/>
      <text fill="#000000" font-family="sans-serif" font-size="14" font-weight="bold" lengthAdjust="spacing" textLength="43.8198" x="658.37" y="535.6358">model</text>
    </a>
    <a href="namespaceclanguml_1_1common_1_1visitor.html" target="_top" title="visitor" xlink:actuate="onRequest" xlink:href="namespaceclanguml_1_1common_1_1visitor.html" xlink:show="new" xlink:title="visitor" xlink:type="simple">
      <path d="M540.37,400.6699 L585.9318,400.6699 A3.75,3.75 0 0 1 588.4318,403.1699 L595.4318,425.7378 L599.9318,425.7378 A2.5,2.5 0 0 1 602.4318,428.2378 L602.4318,456.3057 A2.5,2.5 0 0 1 599.9318,458.8057 L540.37,458.8057 A2.5,2.5 0 0 1 537.87,456.3057 L537.87,403.1699 A2.5,2.5 0 0 1 540.37,400.6699 " fill="#F1F1F1" style="stroke:#181818;stroke-width:0.5;"/>
      <line style="stroke:#181818;stroke-width:0.5;" x1="537.87" x2="595.4318" y1="425.7378" y2="425.7378"/>
      <text fill="#000000" font-family="sans-serif" font-size="14" font-weight="bold" lengthAdjust="spacing" textLength="44.5618" x="541.87" y="417.6358">visitor</text>
    </a>
    <a href="namespaceclanguml_1_1common_1_1generators.html" target="_top" title="generators" xlink:actuate="onRequest" xlink:href="namespaceclanguml_1_1common_1_1generators.html" xlink:show="new" xlink:title="generators" xlink:type="simple">
      <path d="M640.37,400.6699 L718.8457,400.6699 A3.75,3.75 0 0 1 721.3457,403.1699 L728.3457,425.7378 L732.8457,425.7378 A2.5,2.5 0 0 1 735.3457,428.2378 L735.3457,456.3057 A2.5,2.5 0 0 1 732.8457,458.8057 L640.37,458.8057 A2.5,2.5 0 0 1 637.87,456.3057 L637.87,403.1699 A2.5,2.5 0 0 1 640.37,400.6699 " fill="#F1F1F1" style="stroke:#181818;stroke-width:0.5;"/>
      <line style="stroke:#181818;stroke-width:0.5;" x1="637.87" x2="728.3457" y1="425.7378" y2="425.7378"/>
      <text fill="#000000" font-family="sans-serif" font-size="14" font-weight="bold" lengthAdjust="spacing" textLength="77.4757" x="641.87" y="417.6358">generators</text>
    </a>
    <a href="namespaceclanguml_1_1config.html" target="_top" title="config" xlink:actuate="onRequest" xlink:href="namespaceclanguml_1_1config.html" xlink:show="new" xlink:title="config" xlink:type="simple">
      <path d="M408.87,518.6699 L453.4798,518.6699 A3.75,3.75 0 0 1 455.9798,521.1699 L462.9798,543.7378 L467.4798,543.7378 A2.5,2.5 0 0 1 469.9798,546.2378 L469.9798,574.3057 A2.5,2.5 0 0 1 467.4798,576.8057 L408.87,576.8057 A2.5,2.5 0 0 1 406.37,574.3057 L406.37,521.1699 A2.5,2.5 0 0 1 408.87,518.6699 " fill="#F1F1F1" style="stroke:#181818;stroke-width:0.5;"/>
      <line style="stroke:#181818;stroke-width:0.5;" x1="406.37" x2="462.9798" y1="543.7378" y2="543.7378"/>
      <text fill="#000000" font-family="sans-serif" font-size="14" font-weight="bold" lengthAdjust="spacing" textLength="43.6098" x="410.37" y="535.6358">config</text>
    </a>
    <a href="namespaceclanguml_1_1class__diagram_1_1model.html" target="_top" title="model" xlink:actuate="onRequest" xlink:href="namespaceclanguml_1_1class__diagram_1_1model.html" xlink:show="new" xlink:title="model" xlink:type="simple">
      <path d="M920.87,400.6699 L965.6898,400.6699 A3.75,3.75 0 0 1 968.1898,403.1699 L975.1898,425.7378 L979.6898,425.7378 A2.5,2.5 0 0 1 982.1898,428.2378 L982.1898,456.3057 A2.5,2.5 0 0 1 979.6898,458.8057 L920.87,458.8057 A2.5,2.5 0 0 1 918.37,456.3057 L918.37,403.1699 A2.5,2.5 0 0 1 920.87,400.6699 " fill="#F1F1F1" style="stroke:#181818;stroke-width:0.5;"/>
      <line style="stroke:#181818;stroke-width:0.5;" x1="918.37" x2="975.1898" y1="425.7378" y2="425.7378"/>
      <text fill="#000000" font-family="sans-serif" font-size="14" font-weight="bold" lengthAdjust="spacing" textLength="43.8198" x="922.37" y="417.6358">model</text>
    </a>
    <a href="namespaceclanguml_1_1class__diagram_1_1visitor.html" target="_top" title="visitor" xlink:actuate="onRequest" xlink:href="namespaceclanguml_1_1class__diagram_1_1visitor.html" xlink:show="new" xlink:title="visitor" xlink:type="simple">
      <path d="M870.37,248.6699 L915.9318,248.6699 A3.75,3.75 0 0 1 918.4318,251.1699 L925.4318,273.7378 L929.9318,273.7378 A2.5,2.5 0 0 1 932.4318,276.2378 L932.4318,304.3057 A2.5,2.5 0 0 1 929.9318,306.8057 L870.37,306.8057 A2.5,2.5 0 0 1 867.87,304.3057 L867.87,251.1699 A2.5,2.5 0 0 1 870.37,248.6699 " fill="#F1F1F1" style="stroke:#181818;stroke-width:0.5;"/>
      <line style="stroke:#181818;stroke-width:0.5;" x1="867.87" x2="925.4318" y1="273.7378" y2="273.7378"/>
      <text fill="#000000" font-family="sans-serif" font-size="14" font-weight="bold" lengthAdjust="spacing" textLength="44.5618" x="871.87" y="265.6358">visitor</text>
    </a>
    <a href="namespaceclanguml_1_1class__diagram_1_1generators.html" target="_top" title="generators" xlink:actuate="onRequest" xlink:href="namespaceclanguml_1_1class__diagram_1_1generators.html" xlink:show="new" xlink:title="generators" xlink:type="simple">
      <path d="M970.37,248.6699 L1048.8457,248.6699 A3.75,3.75 0 0 1 1051.3457,251.1699 L1058.3457,273.7378 L1062.8457,273.7378 A2.5,2.5 0 0 1 1065.3457,276.2378 L1065.3457,304.3057 A2.5,2.5 0 0 1 1062.8457,306.8057 L970.37,306.8057 A2.5,2.5 0 0 1 967.87,304.3057 L967.87,251.1699 A2.5,2.5 0 0 1 970.37,248.6699 " fill="#F1F1F1" style="stroke:#181818;stroke-width:0.5;"/>
      <line style="stroke:#181818;stroke-width:0.5;" x1="967.87" x2="1058.3457" y1="273.7378" y2="273.7378"/>
      <text fill="#000000" font-family="sans-serif" font-size="14" font-weight="bold" lengthAdjust="spacing" textLength="77.4757" x="971.87" y="265.6358">generators</text>
    </a>
    <a href="namespaceclanguml_1_1include__diagram_1_1model.html" target="_top" title="model" xlink:actuate="onRequest" xlink:href="namespaceclanguml_1_1include__diagram_1_1model.html" xlink:show="new" xlink:title="model" xlink:type="simple">
      <path d="M748.87,248.6699 L793.6898,248.6699 A3.75,3.75 0 0 1 796.1898,251.1699 L803.1898,273.7378 L807.6898,273.7378 A2.5,2.5 0 0 1 810.1898,276.2378 L810.1898,304.3057 A2.5,2.5 0 0 1 807.6898,306.8057 L748.87,306.8057 A2.5,2.5 0 0 1 746.37,304.3057 L746.37,251.1699 A2.5,2.5 0 0 1 748.87,248.6699 " fill="#F1F1F1" style="stroke:#181818;stroke-width:0.5;"/>
      <line style="stroke:#181818;stroke-width:0.5;" x1="746.37" x2="803.1898" y1="273.7378" y2="273.7378"/>
      <text fill="#000000" font-family="sans-serif" font-size="14" font-weight="bold" lengthAdjust="spacing" textLength="43.8198" x="750.37" y="265.6358">model</text>
    </a>
    <a href="namespaceclanguml_1_1include__diagram_1_1visitor.html" target="_top" title="visitor" xlink:actuate="onRequest" xlink:href="namespaceclanguml_1_1include__diagram_1_1visitor.html" xlink:show="new" xlink:title="visitor" xlink:type="simple">
      <path d="M748.37,130.6699 L793.9318,130.6699 A3.75,3.75 0 0 1 796.4318,133.1699 L803.4318,155.7378 L807.9318,155.7378 A2.5,2.5 0 0 1 810.4318,158.2378 L810.4318,186.3057 A2.5,2.5 0 0 1 807.9318,188.8057 L748.37,188.8057 A2.5,2.5 0 0 1 745.87,186.3057 L745.87,133.1699 A2.5,2.5 0 0 1 748.37,130.6699 " fill="#F1F1F1" style="stroke:#181818;stroke-width:0.5;"/>
      <line style="stroke:#181818;stroke-width:0.5;" x1="745.87" x2="803.4318" y1="155.7378" y2="155.7378"/>
      <text fill="#000000" font-family="sans-serif" font-size="14" font-weight="bold" lengthAdjust="spacing" textLength="44.5618" x="749.87" y="147.6358">visitor</text>
    </a>
    <a href="namespaceclanguml_1_1include__diagram_1_1generators.html" target="_top" title="generators" xlink:actuate="onRequest" xlink:href="namespaceclanguml_1_1include__diagram_1_1generators.html" xlink:show="new" xlink:title="generators" xlink:type="simple">
      <path d="M616.37,130.6699 L694.8457,130.6699 A3.75,3.75 0 0 1 697.3457,133.1699 L704.3457,155.7378 L708.8457,155.7378 A2.5,2.5 0 0 1 711.3457,158.2378 L711.3457,186.3057 A2.5,2.5 0 0 1 708.8457,188.8057 L616.37,188.8057 A2.5,2.5 0 0 1 613.87,186.3057 L613.87,133.1699 A2.5,2.5 0 0 1 616.37,130.6699 " fill="#F1F1F1" style="stroke:#181818;stroke-width:0.5;"/>
      <line style="stroke:#181818;stroke-width:0.5;" x1="613.87" x2="704.3457" y1="155.7378" y2="155.7378"/>
      <text fill="#000000" font-family="sans-serif" font-size="14" font-weight="bold" lengthAdjust="spacing" textLength="77.4757" x="617.87" y="147.6358">generators</text>
    </a>
    <a href="namespaceclanguml_1_1sequence__diagram_1_1model.html" target="_top" title="model" xlink:actuate="onRequest" xlink:href="namespaceclanguml_1_1sequence__diagram_1_1model.html" xlink:show="new" xlink:title="model" xlink:type="simple">
      <path d="M243.87,400.6699 L288.6898,400.6699 A3.75,3.75 0 0 1 291.1898,403.1699 L298.1898,425.7378 L302.6898,425.7378 A2.5,2.5 0 0 1 305.1898,428.2378 L305.1898,456.3057 A2.5,2.5 0 0 1 302.6898,458.8057 L243.87,458.8057 A2.5,2.5 0 0 1 241.37,456.3057 L241.37,403.1699 A2.5,2.5 0 0 1 243.87,400.6699 " fill="#F1F1F1" style="stroke:#181818;stroke-width:0.5;"/>
      <line style="stroke:#181818;stroke-width:0.5;" x1="241.37" x2="298.1898" y1="425.7378" y2="425.7378"/>
      <text fill="#000000" font-family="sans-serif" font-size="14" font-weight="bold" lengthAdjust="spacing" textLength="43.8198" x="245.37" y="417.6358">model</text>
    </a>
    <a href="namespaceclanguml_1_1sequence__diagram_1_1visitor.html" target="_top" title="visitor" xlink:actuate="onRequest" xlink:href="namespaceclanguml_1_1sequence__diagram_1_1visitor.html" xlink:show="new" xlink:title="visitor" xlink:type="simple">
      <path d="M242.37,248.6699 L287.9318,248.6699 A3.75,3.75 0 0 1 290.4318,251.1699 L297.4318,273.7378 L301.9318,273.7378 A2.5,2.5 0 0 1 304.4318,276.2378 L304.4318,304.3057 A2.5,2.5 0 0 1 301.9318,306.8057 L242.37,306.8057 A2.5,2.5 0 0 1 239.87,304.3057 L239.87,251.1699 A2.5,2.5 0 0 1 242.37,248.6699 " fill="#F1F1F1" style="stroke:#181818;stroke-width:0.5;"/>
      <line style="stroke:#181818;stroke-width:0.5;" x1="239.87" x2="297.4318" y1="273.7378" y2="273.7378"/>
      <text fill="#000000" font-family="sans-serif" font-size="14" font-weight="bold" lengthAdjust="spacing" textLength="44.5618" x="243.87" y="265.6358">visitor</text>
    </a>
    <a href="namespaceclanguml_1_1sequence__diagram_1_1generators.html" target="_top" title="generators" xlink:actuate="onRequest" xlink:href="namespaceclanguml_1_1sequence__diagram_1_1generators.html" xlink:show="new" xlink:title="generators" xlink:type="simple">
      <path d="M110.37,248.6699 L188.8457,248.6699 A3.75,3.75 0 0 1 191.3457,251.1699 L198.3457,273.7378 L202.8457,273.7378 A2.5,2.5 0 0 1 205.3457,276.2378 L205.3457,304.3057 A2.5,2.5 0 0 1 202.8457,306.8057 L110.37,306.8057 A2.5,2.5 0 0 1 107.87,304.3057 L107.87,251.1699 A2.5,2.5 0 0 1 110.37,248.6699 " fill="#F1F1F1" style="stroke:#181818;stroke-width:0.5;"/>
      <line style="stroke:#181818;stroke-width:0.5;" x1="107.87" x2="198.3457" y1="273.7378" y2="273.7378"/>
      <text fill="#000000" font-family="sans-serif" font-size="14" font-weight="bold" lengthAdjust="spacing" textLength="77.4757" x="111.87" y="265.6358">generators</text>
    </a>
    <a href="namespaceclanguml_1_1package__diagram_1_1model.html" target="_top" title="model" xlink:actuate="onRequest" xlink:href="namespaceclanguml_1_1package__diagram_1_1model.html" xlink:show="new" xlink:title="model" xlink:type="simple">
      <path d="M409.87,248.6699 L454.6898,248.6699 A3.75,3.75 0 0 1 457.1898,251.1699 L464.1898,273.7378 L468.6898,273.7378 A2.5,2.5 0 0 1 471.1898,276.2378 L471.1898,304.3057 A2.5,2.5 0 0 1 468.6898,306.8057 L409.87,306.8057 A2.5,2.5 0 0 1 407.37,304.3057 L407.37,251.1699 A2.5,2.5 0 0 1 409.87,248.6699 " fill="#F1F1F1" style="stroke:#181818;stroke-width:0.5;"/>
      <line style="stroke:#181818;stroke-width:0.5;" x1="407.37" x2="464.1898" y1="273.7378" y2="273.7378"/>
      <text fill="#000000" font-family="sans-serif" font-size="14" font-weight="bold" lengthAdjust="spacing" textLength="43.8198" x="411.37" y="265.6358">model</text>
    </a>
    <a href="namespaceclanguml_1_1package__diagram_1_1visitor.html" target="_top" title="visitor" xlink:actuate="onRequest" xlink:href="namespaceclanguml_1_1package__diagram_1_1visitor.html" xlink:show="new" xlink:title="visitor" xlink:type="simple">
      <path d="M495.37,130.6699 L540.9318,130.6699 A3.75,3.75 0 0 1 543.4318,133.1699 L550.4318,155.7378 L554.9318,155.7378 A2.5,2.5 0 0 1 557.4318,158.2378 L557.4318,186.3057 A2.5,2.5 0 0 1 554.9318,188.8057 L495.37,188.8057 A2.5,2.5 0 0 1 492.87,186.3057 L492.87,133.1699 A2.5,2.5 0 0 1 495.37,130.6699 " fill="#F1F1F1" style="stroke:#181818;stroke-width:0.5;"/>
      <line style="stroke:#181818;stroke-width:0.5;" x1="492.87" x2="550.4318" y1="155.7378" y2="155.7378"/>
      <text fill="#000000" font-family="sans-serif" font-size="14" font-weight="bold" lengthAdjust="spacing" textLength="44.5618" x="496.87" y="147.6358">visitor</text>
    </a>
    <a href="namespaceclanguml_1_1package__diagram_1_1generators.html" target="_top" title="generators" xlink:actuate="onRequest" xlink:href="namespaceclanguml_1_1package__diagram_1_1generators.html" xlink:show="new" xlink:title="generators" xlink:type="simple">
      <path d="M363.37,130.6699 L441.8457,130.6699 A3.75,3.75 0 0 1 444.3457,133.1699 L451.3457,155.7378 L455.8457,155.7378 A2.5,2.5 0 0 1 458.3457,158.2378 L458.3457,186.3057 A2.5,2.5 0 0 1 455.8457,188.8057 L363.37,188.8057 A2.5,2.5 0 0 1 360.87,186.3057 L360.87,133.1699 A2.5,2.5 0 0 1 363.37,130.6699 " fill="#F1F1F1" style="stroke:#181818;stroke-width:0.5;"/>
      <line style="stroke:#181818;stroke-width:0.5;" x1="360.87" x2="451.3457" y1="155.7378" y2="155.7378"/>
      <text fill="#000000" font-family="sans-serif" font-size="14" font-weight="bold" lengthAdjust="spacing" textLength="77.4757" x="364.87" y="147.6358">generators</text>
    </a>
    <a href="" target="_top" title="" xlink:actuate="onRequest" xlink:href="" xlink:show="new" xlink:title="" xlink:type="simple">
      <path codeLine="46" d="M494.2872,434.3493 C494.1436,434.5217 494.0035,434.6994 493.8667,434.8823 C493.5932,435.2482 493.3331,435.635 493.0855,436.0415 C491.1041,439.293 489.9144,443.8036 488.9513,448.9574 C487.025,459.2649 486.005,472.1449 481.37,482.6699 C475.47,496.0499 469.5762,503.9423 460.3862,514.1423 " fill="transparent" id="C_0002532840279361781187-to-C_0000891115944470323979" style="stroke:#181818;stroke-width:1;stroke-dasharray:7.0,7.0;"/>
      <polygon fill="#181818" points="456.37,518.5999,465.366,514.591,459.7168,514.8852,459.4226,509.236,456.37,518.5999" style="stroke:#181818;stroke-width:1;"/>
    </a>
    <a href="" target="_top" title="" xlink:actuate="onRequest" xlink:href="" xlink:show="new" xlink:title="" xlink:type="simple">
      <path codeLine="53" d="M470.71,533.3599 C475.1325,530.4474 479.6256,527.1211 484.0206,523.4455 C486.2181,521.6077 488.3911,519.6826 490.5184,517.6781 C491.5821,516.6759 492.6344,515.6538 493.6726,514.613 C493.8024,514.4828 493.9319,514.3524 494.0613,514.2217 C494.1259,514.1564 489.9787,518.3642 490.0432,518.2987 " fill="transparent" id="C_0000891115944470323979-to-C_0002532840279361781187" style="stroke:#181818;stroke-width:1;stroke-dasharray:7.0,7.0;"/>
      <polygon fill="#181818" points="494.2551,514.0255,485.0885,517.6273,490.7452,517.5865,490.786,523.2432,494.2551,514.0255" style="stroke:#181818;stroke-width:1;"/>
    </a>
    <a href="" target="_top" title="" xlink:actuate="onRequest" xlink:href="" xlink:show="new" xlink:title="" xlink:type="simple">
      <path codeLine="47" d="M653.95,547.6699 C592.91,547.6699 537.87,547.6699 476.82,547.6699 " fill="transparent" id="C_0000669774451444102653-to-C_0000891115944470323979" style="stroke:#181818;stroke-width:1;stroke-dasharray:7.0,7.0;"/>
      <polygon fill="#181818" points="470.82,547.6699,479.82,551.6699,475.82,547.6699,479.82,543.6699,470.82,547.6699" style="stroke:#181818;stroke-width:1;"/>
    </a>
    <a href="" target="_top" title="" xlink:actuate="onRequest" xlink:href="" xlink:show="new" xlink:title="" xlink:type="simple">
      <path codeLine="54" d="M470.82,547.6699 C531.87,547.6699 586.91,547.6699 647.95,547.6699 " fill="transparent" id="C_0000891115944470323979-to-C_0000669774451444102653" style="stroke:#181818;stroke-width:1;stroke-dasharray:7.0,7.0;"/>
      <polygon fill="#181818" points="653.95,547.6699,644.95,543.6699,648.95,547.6699,644.95,551.6699,653.95,547.6699" style="stroke:#181818;stroke-width:1;"/>
    </a>
    <a href="" target="_top" title="" xlink:actuate="onRequest" xlink:href="" xlink:show="new" xlink:title="" xlink:type="simple">
      <path codeLine="48" d="M718.55,543.0299 C764.61,535.8399 847.63,517.4099 909.37,482.6699 C920.79,476.2399 927.7246,471.5896 936.2546,462.9496 " fill="transparent" id="C_0000669774451444102653-to-C_0007176993879715460962" style="stroke:#181818;stroke-width:1;stroke-dasharray:7.0,7.0;"/>
      <polygon fill="#181818" points="940.47,458.6799,931.3005,462.2743,936.9572,462.238,936.9934,467.8947,940.47,458.6799" style="stroke:#181818;stroke-width:1;"/>
    </a>
    <a href="" target="_top" title="" xlink:actuate="onRequest" xlink:href="" xlink:show="new" xlink:title="" xlink:type="simple">
      <path codeLine="55" d="M918.33,449.4799 C905.04,460.4899 889.96,473.8999 874.37,482.6699 C823.35,511.3699 763.6476,527.5532 724.4976,536.8532 " fill="transparent" id="C_0007176993879715460962-to-C_0000669774451444102653" style="stroke:#181818;stroke-width:1;stroke-dasharray:7.0,7.0;"/>
      <polygon fill="#181818" points="718.66,538.2399,728.3408,540.0516,723.5246,537.0843,726.4919,532.2681,718.66,538.2399" style="stroke:#181818;stroke-width:1;"/>
    </a>
    <a href="" target="_top" title="" xlink:actuate="onRequest" xlink:href="" xlink:show="new" xlink:title="" xlink:type="simple">
      <path codeLine="49" d="M668.81,518.8499 C668.66,518.7899 668.52,518.7299 668.37,518.6699 C538.74,465.7199 484.43,536.9999 355.37,482.6699 C337.29,475.0599 324.9258,464.4348 310.2158,452.7348 " fill="transparent" id="C_0000669774451444102653-to-C_0017655759046645114118" style="stroke:#181818;stroke-width:1;stroke-dasharray:7.0,7.0;"/>
      <polygon fill="#181818" points="305.52,448.9999,310.0737,457.7328,309.4332,452.1123,315.0536,451.4718,305.52,448.9999" style="stroke:#181818;stroke-width:1;"/>
    </a>
    <a href="" target="_top" title="" xlink:actuate="onRequest" xlink:href="" xlink:show="new" xlink:title="" xlink:type="simple">
      <path codeLine="71" d="M285.02,458.8799 C294.52,467.9699 307.17,477.1199 320.37,482.6699 C449.43,536.9999 503.74,465.7199 633.37,518.6699 C640.55,521.5999 642.6024,522.948 649.4124,527.738 " fill="transparent" id="C_0017655759046645114118-to-C_0000669774451444102653" style="stroke:#181818;stroke-width:1;stroke-dasharray:7.0,7.0;"/>
      <polygon fill="#181818" points="654.32,531.1899,649.2599,522.7403,650.2303,528.3133,644.6574,529.2838,654.32,531.1899" style="stroke:#181818;stroke-width:1;"/>
    </a>
    <a href="" target="_top" title="" xlink:actuate="onRequest" xlink:href="" xlink:show="new" xlink:title="" xlink:type="simple">
      <path codeLine="50" d="M597.18,458.9099 C604.63,466.6699 612.77,475.0399 620.37,482.6699 C632.19,494.5499 641.101,503.285 652.591,514.365 " fill="transparent" id="C_0016474478155368192384-to-C_0000669774451444102653" style="stroke:#181818;stroke-width:1;stroke-dasharray:7.0,7.0;"/>
      <polygon fill="#181818" points="656.91,518.5299,653.2081,509.4032,653.3108,515.0592,647.6549,515.1619,656.91,518.5299" style="stroke:#181818;stroke-width:1;"/>
    </a>
    <a href="" target="_top" title="" xlink:actuate="onRequest" xlink:href="" xlink:show="new" xlink:title="" xlink:type="simple">
      <path codeLine="51" d="M553.66,458.8999 C548.1,467.0699 541.5,475.6699 534.37,482.6699 C515.37,501.3399 495.3781,514.8589 475.5781,526.4489 " fill="transparent" id="C_0016474478155368192384-to-C_0000891115944470323979" style="stroke:#181818;stroke-width:1;stroke-dasharray:7.0,7.0;"/>
      <polygon fill="#181818" points="470.4,529.4799,480.1879,528.3854,474.7151,526.954,476.1465,521.4813,470.4,529.4799" style="stroke:#181818;stroke-width:1;"/>
    </a>
    <a href="" target="_top" title="" xlink:actuate="onRequest" xlink:href="" xlink:show="new" xlink:title="" xlink:type="simple">
      <path codeLine="52" d="M686.37,458.7499 C686.37,476.8499 686.37,494.3099 686.37,512.4499 " fill="transparent" id="C_0009021568372907770570-to-C_0000669774451444102653" style="stroke:#181818;stroke-width:1;stroke-dasharray:7.0,7.0;"/>
      <polygon fill="#181818" points="686.37,518.4499,690.37,509.4499,686.37,513.4499,682.37,509.4499,686.37,518.4499" style="stroke:#181818;stroke-width:1;"/>
    </a>
    <a href="" target="_top" title="" xlink:actuate="onRequest" xlink:href="" xlink:show="new" xlink:title="" xlink:type="simple">
      <path codeLine="56" d="M938.52,400.2899 C928.82,379.9399 913.13,353.8799 891.37,338.6699 C884.83,334.0999 881.8,335.5599 873.87,334.6699 C836.88,330.4999 575.86,330.4999 538.87,334.6699 C530.94,335.5599 526.96,332.9799 521.37,338.6699 C517.9225,342.1836 515.0267,346.1518 512.6001,350.4161 C511.9935,351.4822 511.4162,352.5668 510.8669,353.6675 C510.7296,353.9426 513.2033,348.8159 513.0695,349.093 " fill="transparent" id="C_0007176993879715460962-to-C_0002532840279361781187" style="stroke:#181818;stroke-width:1;stroke-dasharray:7.0,7.0;"/>
      <polygon fill="#181818" points="510.4602,354.4959,517.9761,348.1311,512.6346,349.9935,510.7722,344.652,510.4602,354.4959" style="stroke:#181818;stroke-width:1;"/>
    </a>
    <a href="" target="_top" title="" xlink:actuate="onRequest" xlink:href="" xlink:show="new" xlink:title="" xlink:type="simple">
      <path codeLine="57" d="M869.6,306.7499 C857.36,316.1799 842.57,325.5899 827.37,330.6699 C811.24,336.0599 534.44,327.7899 521.37,338.6699 C517.505,341.8886 514.3034,345.6779 511.6606,349.8484 C510.9998,350.8911 510.374,351.9576 509.7815,353.0449 C509.6334,353.3167 509.4874,353.5899 509.3434,353.8643 C509.2714,354.0015 511.9468,348.8047 511.8758,348.9426 " fill="transparent" id="C_0014897743554774430622-to-C_0002532840279361781187" style="stroke:#181818;stroke-width:1;stroke-dasharray:7.0,7.0;"/>
      <polygon fill="#181818" points="509.1289,354.2768,516.8054,348.1067,511.418,349.8316,509.6931,344.4441,509.1289,354.2768" style="stroke:#181818;stroke-width:1;"/>
    </a>
    <a href="" target="_top" title="" xlink:actuate="onRequest" xlink:href="" xlink:show="new" xlink:title="" xlink:type="simple">
      <path codeLine="58" d="M909.77,306.8799 C918.71,333.6999 930.1814,368.1182 939.1114,394.8882 " fill="transparent" id="C_0014897743554774430622-to-C_0007176993879715460962" style="stroke:#181818;stroke-width:1;stroke-dasharray:7.0,7.0;"/>
      <polygon fill="#181818" points="941.01,400.5799,941.9565,390.7766,939.4278,395.8368,934.3676,393.3081,941.01,400.5799" style="stroke:#181818;stroke-width:1;"/>
    </a>
    <a href="" target="_top" title="" xlink:actuate="onRequest" xlink:href="" xlink:show="new" xlink:title="" xlink:type="simple">
      <path codeLine="59" d="M887.45,306.7199 C863.07,359.3299 811.53,468.7499 798.37,482.6699 C775.98,506.3399 748.3606,521.3833 723.9406,532.0233 " fill="transparent" id="C_0014897743554774430622-to-C_0000669774451444102653" style="stroke:#181818;stroke-width:1;stroke-dasharray:7.0,7.0;"/>
      <polygon fill="#181818" points="718.44,534.4199,728.2886,534.492,723.0238,532.4227,725.0931,527.1579,718.44,534.4199" style="stroke:#181818;stroke-width:1;"/>
    </a>
    <a href="" target="_top" title="" xlink:actuate="onRequest" xlink:href="" xlink:show="new" xlink:title="" xlink:type="simple">
      <path codeLine="60" d="M869.21,306.9199 C857.03,316.2499 842.39,325.5499 827.37,330.6699 C805.58,338.0999 639.98,326.6199 620.37,338.6699 C598.14,352.3399 586.9428,374.0131 579.7628,394.9931 " fill="transparent" id="C_0014897743554774430622-to-C_0016474478155368192384" style="stroke:#181818;stroke-width:1;stroke-dasharray:7.0,7.0;"/>
      <polygon fill="#181818" points="577.82,400.6699,584.5187,393.4499,579.439,395.9393,576.9496,390.8596,577.82,400.6699" style="stroke:#181818;stroke-width:1;"/>
    </a>
    <a href="" target="_top" title="" xlink:actuate="onRequest" xlink:href="" xlink:show="new" xlink:title="" xlink:type="simple">
      <path codeLine="61" d="M869.61,306.7699 C857.36,316.1999 842.58,325.6099 827.37,330.6699 C809.39,336.6499 501.06,326.6999 486.37,338.6699 C458.79,361.1399 446.1463,460.9367 441.2663,512.4067 " fill="transparent" id="C_0014897743554774430622-to-C_0000891115944470323979" style="stroke:#181818;stroke-width:1;stroke-dasharray:7.0,7.0;"/>
      <polygon fill="#181818" points="440.7,518.3799,445.5316,509.7976,441.1719,513.4022,437.5674,509.0425,440.7,518.3799" style="stroke:#181818;stroke-width:1;"/>
    </a>
    <a href="" target="_top" title="" xlink:actuate="onRequest" xlink:href="" xlink:show="new" xlink:title="" xlink:type="simple">
      <path codeLine="62" d="M987.26,306.7899 C976.45,315.7599 963.59,324.8499 950.37,330.6699 C930.17,339.5599 918.6,324.8799 901.37,338.6699 C847.5,381.7799 892.05,433.7799 843.37,482.6699 C808.99,517.1899 759.3184,532.5701 724.3384,540.0201 " fill="transparent" id="C_0009622476828277248866-to-C_0000669774451444102653" style="stroke:#181818;stroke-width:1;stroke-dasharray:7.0,7.0;"/>
      <polygon fill="#181818" points="718.47,541.2699,728.1058,543.3074,723.3603,540.2284,726.4393,535.4829,718.47,541.2699" style="stroke:#181818;stroke-width:1;"/>
    </a>
    <a href="" target="_top" title="" xlink:actuate="onRequest" xlink:href="" xlink:show="new" xlink:title="" xlink:type="simple">
      <path codeLine="63" d="M1003.95,306.8799 C992.15,333.6999 976.9266,368.3181 965.1466,395.0881 " fill="transparent" id="C_0009622476828277248866-to-C_0007176993879715460962" style="stroke:#181818;stroke-width:1;stroke-dasharray:7.0,7.0;"/>
      <polygon fill="#181818" points="962.73,400.5799,970.0162,393.9533,964.7439,396.0034,962.6938,390.7311,962.73,400.5799" style="stroke:#181818;stroke-width:1;"/>
    </a>
    <a href="" target="_top" title="" xlink:actuate="onRequest" xlink:href="" xlink:show="new" xlink:title="" xlink:type="simple">
      <path codeLine="64" d="M988.17,306.8599 C977.25,316.0599 964.08,325.2899 950.37,330.6699 C909.28,346.7999 893.67,326.0499 851.37,338.6699 C805.72,352.2899 763.495,376.3712 731.325,397.3612 " fill="transparent" id="C_0009622476828277248866-to-C_0009021568372907770570" style="stroke:#181818;stroke-width:1;stroke-dasharray:7.0,7.0;"/>
      <polygon fill="#181818" points="726.3,400.6399,736.0232,399.0719,730.4875,397.9077,731.6517,392.3719,726.3,400.6399" style="stroke:#181818;stroke-width:1;"/>
    </a>
    <a href="" target="_top" title="" xlink:actuate="onRequest" xlink:href="" xlink:show="new" xlink:title="" xlink:type="simple">
      <path codeLine="65" d="M746.25,298.1199 C725.18,309.8099 696.59,323.7299 669.37,330.6699 C653.41,334.7399 533.88,327.9599 521.37,338.6699 C517.55,341.9424 514.3823,345.7722 511.7643,349.9727 C511.1098,351.0228 510.4897,352.0961 509.9023,353.1896 C509.7554,353.463 509.6106,353.7377 509.4678,354.0135 C509.3965,354.1515 512.0432,348.9405 511.9728,349.079 " fill="transparent" id="C_0004362631048833985714-to-C_0002532840279361781187" style="stroke:#181818;stroke-width:1;stroke-dasharray:7.0,7.0;"/>
      <polygon fill="#181818" points="509.2552,354.4282,516.8978,348.2161,511.5199,349.9705,509.7655,344.5926,509.2552,354.4282" style="stroke:#181818;stroke-width:1;"/>
    </a>
    <a href="" target="_top" title="" xlink:actuate="onRequest" xlink:href="" xlink:show="new" xlink:title="" xlink:type="simple">
      <path codeLine="66" d="M786.59,306.6899 C797.01,347.9199 810.26,426.1599 780.37,482.6699 C767.45,507.0999 745.9652,521.3872 724.2452,531.6472 " fill="transparent" id="C_0004362631048833985714-to-C_0000669774451444102653" style="stroke:#181818;stroke-width:1;stroke-dasharray:7.0,7.0;"/>
      <polygon fill="#181818" points="718.82,534.2099,728.6662,533.9826,723.341,532.0743,725.2493,526.749,718.82,534.2099" style="stroke:#181818;stroke-width:1;"/>
    </a>
    <a href="" target="_top" title="" xlink:actuate="onRequest" xlink:href="" xlink:show="new" xlink:title="" xlink:type="simple">
      <path codeLine="67" d="M778.37,188.7499 C778.37,206.8499 778.37,224.3099 778.37,242.4499 " fill="transparent" id="C_0002398062589073292507-to-C_0004362631048833985714" style="stroke:#181818;stroke-width:1;stroke-dasharray:7.0,7.0;"/>
      <polygon fill="#181818" points="778.37,248.4499,782.37,239.4499,778.37,243.4499,774.37,239.4499,778.37,248.4499" style="stroke:#181818;stroke-width:1;"/>
    </a>
    <a href="" target="_top" title="" xlink:actuate="onRequest" xlink:href="" xlink:show="new" xlink:title="" xlink:type="simple">
      <path codeLine="68" d="M745.76,180.9899 C740.11,183.8999 734.18,186.6099 728.37,188.6699 C693.94,200.8799 677.28,181.6899 647.37,202.6699 C593.76,240.2799 630.02,296.1499 574.37,330.6699 C561.32,338.7699 446.91,327.4999 436.37,338.6699 C390.64,387.1299 409.8991,468.1094 425.3291,512.7294 " fill="transparent" id="C_0002398062589073292507-to-C_0000891115944470323979" style="stroke:#181818;stroke-width:1;stroke-dasharray:7.0,7.0;"/>
      <polygon fill="#181818" points="427.29,518.3999,428.129,508.5868,425.6559,513.6745,420.5683,511.2014,427.29,518.3999" style="stroke:#181818;stroke-width:1;"/>
    </a>
    <a href="" target="_top" title="" xlink:actuate="onRequest" xlink:href="" xlink:show="new" xlink:title="" xlink:type="simple">
      <path codeLine="69" d="M745.68,180.7499 C740.04,183.6899 734.13,186.4699 728.37,188.6699 C701.57,198.8999 684.17,181.0099 665.37,202.6699 C646.66,224.2099 675.73,310.6799 655.37,330.6699 C634.08,351.5699 543.97,319.1999 521.37,338.6699 C517.5587,341.9536 514.3978,345.7919 511.7848,349.9986 C511.1316,351.0502 510.5126,352.1249 509.9263,353.2197 C509.7797,353.4934 509.6351,353.7683 509.4926,354.0445 C509.4213,354.1826 512.0622,348.9687 511.9919,349.1073 " fill="transparent" id="C_0002398062589073292507-to-C_0002532840279361781187" style="stroke:#181818;stroke-width:1;stroke-dasharray:7.0,7.0;"/>
      <polygon fill="#181818" points="509.2803,354.4596,516.9159,348.2389,511.54,349.9994,509.7795,344.6234,509.2803,354.4596" style="stroke:#181818;stroke-width:1;"/>
    </a>
    <a href="" target="_top" title="" xlink:actuate="onRequest" xlink:href="" xlink:show="new" xlink:title="" xlink:type="simple">
      <path codeLine="70" d="M745.62,185.3099 C739.77,190.6299 734.05,196.5199 729.37,202.6699 C691.33,252.6799 719.49,292.7899 669.37,330.6699 C651.76,343.9699 638.42,325.9799 620.37,338.6699 C599.31,353.4699 588.1875,374.4674 580.6775,394.9274 " fill="transparent" id="C_0002398062589073292507-to-C_0016474478155368192384" style="stroke:#181818;stroke-width:1;stroke-dasharray:7.0,7.0;"/>
      <polygon fill="#181818" points="578.61,400.5599,585.4662,393.4894,580.3329,395.8661,577.9562,390.7328,578.61,400.5599" style="stroke:#181818;stroke-width:1;"/>
    </a>
    <a href="" target="_top" title="" xlink:actuate="onRequest" xlink:href="" xlink:show="new" xlink:title="" xlink:type="simple">
      <path codeLine="72" d="M305.57,429.6699 C338.305,429.6699 371.04,429.6699 403.775,429.6699 C420.1425,429.6699 436.51,429.6699 452.8775,429.6699 C461.0613,429.6699 469.245,429.6699 477.4288,429.6699 C481.5206,429.6699 485.6125,429.6699 489.7044,429.6699 C490.7273,429.6699 491.7503,429.6699 492.7733,429.6699 C493.2848,429.6699 487.7963,429.6699 488.3077,429.6699 " fill="transparent" id="C_0017655759046645114118-to-C_0002532840279361781187" style="stroke:#181818;stroke-width:1;stroke-dasharray:7.0,7.0;"/>
      <polygon fill="#181818" points="494.3077,429.6699,485.3077,425.6699,489.3077,429.6699,485.3077,433.6699,494.3077,429.6699" style="stroke:#181818;stroke-width:1;"/>
    </a>
    <a href="" target="_top" title="" xlink:actuate="onRequest" xlink:href="" xlink:show="new" xlink:title="" xlink:type="simple">
      <path codeLine="73" d="M305.68,458.1499 C315.65,466.2899 326.79,475.0599 337.37,482.6699 C359.78,498.7899 381.0433,512.3227 401.2233,524.5927 " fill="transparent" id="C_0017655759046645114118-to-C_0000891115944470323979" style="stroke:#181818;stroke-width:1;stroke-dasharray:7.0,7.0;"/>
      <polygon fill="#181818" points="406.35,527.7099,400.7381,519.6163,402.0777,525.1122,396.5818,526.4519,406.35,527.7099" style="stroke:#181818;stroke-width:1;"/>
    </a>
    <a href="" target="_top" title="" xlink:actuate="onRequest" xlink:href="" xlink:show="new" xlink:title="" xlink:type="simple">
      <path codeLine="74" d="M305.14,302.6599 C317.62,311.6199 332.04,321.7699 345.37,330.6699 C379.045,353.1449 417.605,377.2374 448.0825,395.9099 C463.3213,405.2461 476.5394,413.2274 486.1159,418.974 C488.5101,420.4106 490.6766,421.7076 492.5902,422.8511 C493.0686,423.137 493.5312,423.4133 493.9776,423.6798 C494.0892,423.7464 489.0477,420.7374 489.1573,420.8028 " fill="transparent" id="C_0002812166065521257903-to-C_0002532840279361781187" style="stroke:#181818;stroke-width:1;stroke-dasharray:7.0,7.0;"/>
      <polygon fill="#181818" points="494.3094,423.8779,488.6313,415.8305,490.016,421.3153,484.5312,422.7,494.3094,423.8779" style="stroke:#181818;stroke-width:1;"/>
    </a>
    <a href="" target="_top" title="" xlink:actuate="onRequest" xlink:href="" xlink:show="new" xlink:title="" xlink:type="simple">
      <path codeLine="75" d="M272.56,306.8799 C272.74,333.6999 272.9597,367.81 273.1397,394.58 " fill="transparent" id="C_0002812166065521257903-to-C_0017655759046645114118" style="stroke:#181818;stroke-width:1;stroke-dasharray:7.0,7.0;"/>
      <polygon fill="#181818" points="273.18,400.5799,277.1194,391.5532,273.1464,395.58,269.1196,391.607,273.18,400.5799" style="stroke:#181818;stroke-width:1;"/>
    </a>
    <a href="" target="_top" title="" xlink:actuate="onRequest" xlink:href="" xlink:show="new" xlink:title="" xlink:type="simple">
      <path codeLine="76" d="M296.94,306.6899 C305.47,316.6599 314.99,328.0399 323.37,338.6699 C372.39,400.8899 360.87,441.2199 428.37,482.6699 C513.54,534.9799 558.73,478.7399 650.37,518.6699 C651.68,519.2399 647.6553,517.1044 648.9453,517.7744 " fill="transparent" id="C_0002812166065521257903-to-C_0000669774451444102653" style="stroke:#181818;stroke-width:1;stroke-dasharray:7.0,7.0;"/>
      <polygon fill="#181818" points="654.27,520.5399,648.1267,512.8419,649.8328,518.2353,644.4393,519.9414,654.27,520.5399" style="stroke:#181818;stroke-width:1;"/>
    </a>
    <a href="" target="_top" title="" xlink:actuate="onRequest" xlink:href="" xlink:show="new" xlink:title="" xlink:type="simple">
      <path codeLine="77" d="M303.54,306.8899 C315.72,316.2199 330.36,325.5199 345.37,330.6699 C365.25,337.4899 517.22,326.5199 534.37,338.6699 C554.28,352.7699 562.0635,373.8766 566.0335,394.6466 " fill="transparent" id="C_0002812166065521257903-to-C_0016474478155368192384" style="stroke:#181818;stroke-width:1;stroke-dasharray:7.0,7.0;"/>
      <polygon fill="#181818" points="567.16,400.5399,569.3992,390.949,566.2213,395.6288,561.5414,392.4509,567.16,400.5399" style="stroke:#181818;stroke-width:1;"/>
    </a>
    <a href="" target="_top" title="" xlink:actuate="onRequest" xlink:href="" xlink:show="new" xlink:title="" xlink:type="simple">
      <path codeLine="78" d="M243.51,306.7299 C235.77,316.0799 228.43,327.0899 224.37,338.6699 C203.18,399.0599 186.14,431.3399 224.37,482.6699 C246.2,511.9799 345.9901,531.8527 400.2101,540.8027 " fill="transparent" id="C_0002812166065521257903-to-C_0000891115944470323979" style="stroke:#181818;stroke-width:1;stroke-dasharray:7.0,7.0;"/>
      <polygon fill="#181818" points="406.13,541.7799,397.9016,536.3675,401.1968,540.9656,396.5987,544.2607,406.13,541.7799" style="stroke:#181818;stroke-width:1;"/>
    </a>
    <a href="" target="_top" title="" xlink:actuate="onRequest" xlink:href="" xlink:show="new" xlink:title="" xlink:type="simple">
      <path codeLine="79" d="M451.22,306.8799 C460.2,328.2699 472.73,358.1074 483.14,382.8949 C485.7425,389.0918 488.2125,394.973 490.4614,400.3278 C491.5859,403.0051 492.655,405.5508 493.6579,407.9386 C493.7832,408.2371 493.9075,408.5331 494.0308,408.8265 C494.0924,408.9733 491.8304,403.5875 491.8915,403.7329 " fill="transparent" id="C_0012558484942253952660-to-C_0002532840279361781187" style="stroke:#181818;stroke-width:1;stroke-dasharray:7.0,7.0;"/>
      <polygon fill="#181818" points="494.2149,409.2649,494.4178,399.4181,492.2788,404.6549,487.0419,402.5159,494.2149,409.2649" style="stroke:#181818;stroke-width:1;"/>
    </a>
    <a href="" target="_top" title="" xlink:actuate="onRequest" xlink:href="" xlink:show="new" xlink:title="" xlink:type="simple">
      <path codeLine="80" d="M437.15,306.8399 C435.35,350.8199 438.84,435.6299 486.37,482.6699 C539.41,535.1599 582.81,486.9799 650.37,518.6699 C651.66,519.2799 647.7129,517.002 648.9829,517.712 " fill="transparent" id="C_0012558484942253952660-to-C_0000669774451444102653" style="stroke:#181818;stroke-width:1;stroke-dasharray:7.0,7.0;"/>
      <polygon fill="#181818" points="654.22,520.6399,648.3162,512.7567,649.8557,518.2,644.4124,519.7396,654.22,520.6399" style="stroke:#181818;stroke-width:1;"/>
    </a>
    <a href="" target="_top" title="" xlink:actuate="onRequest" xlink:href="" xlink:show="new" xlink:title="" xlink:type="simple">
      <path codeLine="81" d="M504.55,188.7499 C491.13,206.8499 477.3136,225.4902 463.8636,243.6302 " fill="transparent" id="C_0001471162262834345471-to-C_0012558484942253952660" style="stroke:#181818;stroke-width:1;stroke-dasharray:7.0,7.0;"/>
      <polygon fill="#181818" points="460.29,248.4499,468.8635,243.6027,463.268,244.4335,462.4373,238.838,460.29,248.4499" style="stroke:#181818;stroke-width:1;"/>
    </a>
    <a href="" target="_top" title="" xlink:actuate="onRequest" xlink:href="" xlink:show="new" xlink:title="" xlink:type="simple">
      <path codeLine="82" d="M492.7,181.7999 C487.11,184.5799 481.21,187.0299 475.37,188.6699 C454.87,194.4199 107.15,187.3399 92.37,202.6699 C6,292.2599 12.78,387.0099 92.37,482.6699 C132.22,530.5699 322.2744,542.5408 400.2744,545.5208 " fill="transparent" id="C_0001471162262834345471-to-C_0000891115944470323979" style="stroke:#181818;stroke-width:1;stroke-dasharray:7.0,7.0;"/>
      <polygon fill="#181818" points="406.27,545.7499,397.4293,541.4092,401.2736,545.559,397.1239,549.4034,406.27,545.7499" style="stroke:#181818;stroke-width:1;"/>
    </a>
    <a href="" target="_top" title="" xlink:actuate="onRequest" xlink:href="" xlink:show="new" xlink:title="" xlink:type="simple">
      <path codeLine="83" d="M522.95,188.8399 C520.045,222.7099 515.015,281.3374 510.655,332.1474 C510.11,338.4986 509.5755,344.7278 509.0569,350.7711 C508.992,351.5265 508.9275,352.279 508.8631,353.0285 C508.831,353.4032 509.3119,347.7992 509.2799,348.1724 " fill="transparent" id="C_0001471162262834345471-to-C_0002532840279361781187" style="stroke:#181818;stroke-width:1;stroke-dasharray:7.0,7.0;"/>
      <polygon fill="#181818" points="508.7669,354.1504,513.5217,345.5254,509.1944,349.1688,505.551,344.8414,508.7669,354.1504" style="stroke:#181818;stroke-width:1;"/>
    </a>
    <a href="" target="_top" title="" xlink:actuate="onRequest" xlink:href="" xlink:show="new" xlink:title="" xlink:type="simple">
      <path codeLine="84" d="M543.79,188.6899 C546.49,193.2799 549.12,198.0399 551.37,202.6699 C577.9,257.1599 549.59,294.6999 598.37,330.6699 C612.16,340.8399 740.57,326.2399 752.37,338.6699 C774.4,361.8799 764.84,453.1999 752.37,482.6699 C745.34,499.2799 736.2688,509.8581 723.1688,520.7781 " fill="transparent" id="C_0001471162262834345471-to-C_0000669774451444102653" style="stroke:#181818;stroke-width:1;stroke-dasharray:7.0,7.0;"/>
      <polygon fill="#181818" points="718.56,524.6199,728.0343,521.9297,722.4006,521.4184,722.9119,515.7847,718.56,524.6199" style="stroke:#181818;stroke-width:1;"/>
    </a>
    <a href="" target="_top" title="" xlink:actuate="onRequest" xlink:href="" xlink:show="new" xlink:title="" xlink:type="simple">
      <path codeLine="85" d="M530.1,188.8399 C538.74,240.3199 555.9971,343.0626 564.6371,394.5526 " fill="transparent" id="C_0001471162262834345471-to-C_0016474478155368192384" style="stroke:#181818;stroke-width:1;stroke-dasharray:7.0,7.0;"/>
      <polygon fill="#181818" points="565.63,400.4699,568.0855,390.932,564.8026,395.5388,560.1958,392.2559,565.63,400.4699" style="stroke:#181818;stroke-width:1;"/>
    </a>
  </g>
</svg>
