<?xml version="1.0" encoding="UTF-8" standalone="no"?><svg xmlns="http://www.w3.org/2000/svg" xmlns:xlink="http://www.w3.org/1999/xlink" contentScriptType="application/ecmascript" contentStyleType="text/css" height="521px" preserveAspectRatio="none" style="width:1455px;height:521px;" version="1.1" viewBox="0 0 1455 521" width="1455px" zoomAndPan="magnify"><defs><filter height="300%" id="fh9lucta6afqc" width="300%" x="-1" y="-1"><feGaussianBlur result="blurOut" stdDeviation="2.0"/><feColorMatrix in="blurOut" result="blurOut2" type="matrix" values="0 0 0 0 0 0 0 0 0 0 0 0 0 0 0 0 0 0 .4 0"/><feOffset dx="4.0" dy="4.0" in="blurOut2" result="blurOut3"/><feBlend in="SourceGraphic" in2="blurOut3" mode="normal"/></filter></defs><g><text fill="#000000" font-family="sans-serif" font-size="18" lengthAdjust="spacingAndGlyphs" textLength="256" x="605.5" y="16.708">clang-uml top level packages</text><!--MD5=[f200405694b678c37ccdd2cd776f9c73]
cluster C_0002174271399507040339--><a href="namespaceclanguml.html" target="_top" title="clanguml" xlink:actuate="onRequest" xlink:href="namespaceclanguml.html" xlink:show="new" xlink:title="clanguml" xlink:type="simple"><polygon fill="#FFFFFF" filter="url(#fh9lucta6afqc)" points="22,45.2331,98,45.2331,105,67.53,1433,67.53,1433,509.9531,22,509.9531,22,45.2331" style="stroke: #000000; stroke-width: 1.5;"/><line style="stroke: #000000; stroke-width: 1.5;" x1="22" x2="105" y1="67.53" y2="67.53"/><text fill="#000000" font-family="sans-serif" font-size="14" font-weight="bold" lengthAdjust="spacingAndGlyphs" textLength="70" x="26" y="60.2282">clanguml</text></a><!--MD5=[7ba9c127878a642fef3f451151dda753]
cluster C_0000316605034920222648--><a href="namespaceclanguml_1_1common.html" target="_top" title="common" xlink:actuate="onRequest" xlink:href="namespaceclanguml_1_1common.html" xlink:show="new" xlink:title="common" xlink:type="simple"><polygon fill="#FFFFFF" filter="url(#fh9lucta6afqc)" points="592,200.2331,665,200.2331,672,222.53,853,222.53,853,477.9531,592,477.9531,592,200.2331" style="stroke: #000000; stroke-width: 1.5;"/><line style="stroke: #000000; stroke-width: 1.5;" x1="592" x2="672" y1="222.53" y2="222.53"/><text fill="#000000" font-family="sans-serif" font-size="14" font-weight="bold" lengthAdjust="spacingAndGlyphs" textLength="67" x="596" y="215.2282">common</text></a><!--MD5=[09e992b259734a9820adb2642bf347d2]
cluster C_0002240167036201725606--><a href="namespaceclanguml_1_1class__diagram.html" target="_top" title="class_diagram" xlink:actuate="onRequest" xlink:href="namespaceclanguml_1_1class__diagram.html" xlink:show="new" xlink:title="class_diagram" xlink:type="simple"><polygon fill="#FFFFFF" filter="url(#fh9lucta6afqc)" points="1164,88.2331,1280,88.2331,1287,110.53,1409,110.53,1409,312.2331,1164,312.2331,1164,88.2331" style="stroke: #000000; stroke-width: 1.5;"/><line style="stroke: #000000; stroke-width: 1.5;" x1="1164" x2="1287" y1="110.53" y2="110.53"/><text fill="#000000" font-family="sans-serif" font-size="14" font-weight="bold" lengthAdjust="spacingAndGlyphs" textLength="110" x="1168" y="103.2282">class_diagram</text></a><!--MD5=[afa88a3fa4a9d7982361c47c6e3d506f]
cluster C_0002289677368446195616--><a href="namespaceclanguml_1_1include__diagram.html" target="_top" title="include_diagram" xlink:actuate="onRequest" xlink:href="namespaceclanguml_1_1include__diagram.html" xlink:show="new" xlink:title="include_diagram" xlink:type="simple"><polygon fill="#FFFFFF" filter="url(#fh9lucta6afqc)" points="895,88.2331,1028,88.2331,1035,110.53,1140,110.53,1140,312.2331,895,312.2331,895,88.2331" style="stroke: #000000; stroke-width: 1.5;"/><line style="stroke: #000000; stroke-width: 1.5;" x1="895" x2="1035" y1="110.53" y2="110.53"/><text fill="#000000" font-family="sans-serif" font-size="14" font-weight="bold" lengthAdjust="spacingAndGlyphs" textLength="127" x="899" y="103.2282">include_diagram</text></a><!--MD5=[d6d4256b649a06bde52dfa9851b6c77d]
cluster C_0001176715616702819073--><a href="namespaceclanguml_1_1package__diagram.html" target="_top" title="package_diagram" xlink:actuate="onRequest" xlink:href="namespaceclanguml_1_1package__diagram.html" xlink:show="new" xlink:title="package_diagram" xlink:type="simple"><polygon fill="#FFFFFF" filter="url(#fh9lucta6afqc)" points="315,88.2331,457,88.2331,464,110.53,560,110.53,560,312.2331,315,312.2331,315,88.2331" style="stroke: #000000; stroke-width: 1.5;"/><line style="stroke: #000000; stroke-width: 1.5;" x1="315" x2="464" y1="110.53" y2="110.53"/><text fill="#000000" font-family="sans-serif" font-size="14" font-weight="bold" lengthAdjust="spacingAndGlyphs" textLength="136" x="319" y="103.2282">package_diagram</text></a><!--MD5=[2319765f5fef5e41f5b55adb85cd73ea]
cluster C_0001521862840957629236--><a href="namespaceclanguml_1_1sequence__diagram.html" target="_top" title="sequence_diagram" xlink:actuate="onRequest" xlink:href="namespaceclanguml_1_1sequence__diagram.html" xlink:show="new" xlink:title="sequence_diagram" xlink:type="simple"><polygon fill="#FFFFFF" filter="url(#fh9lucta6afqc)" points="46,88.2331,200,88.2331,207,110.53,291,110.53,291,312.2331,46,312.2331,46,88.2331" style="stroke: #000000; stroke-width: 1.5;"/><line style="stroke: #000000; stroke-width: 1.5;" x1="46" x2="207" y1="110.53" y2="110.53"/><text fill="#000000" font-family="sans-serif" font-size="14" font-weight="bold" lengthAdjust="spacingAndGlyphs" textLength="148" x="50" y="103.2282">sequence_diagram</text></a><a href="namespaceclanguml_1_1common_1_1model.html" target="_top" title="model" xlink:actuate="onRequest" xlink:href="namespaceclanguml_1_1common_1_1model.html" xlink:show="new" xlink:title="model" xlink:type="simple"><polygon fill="#FFFFFF" filter="url(#fh9lucta6afqc)" points="760,356.2331,814,356.2331,821,378.53,828,378.53,828,408.8269,760,408.8269,760,356.2331" style="stroke: #000000; stroke-width: 1.5;"/><line style="stroke: #000000; stroke-width: 1.5;" x1="760" x2="821" y1="378.53" y2="378.53"/><text fill="#000000" font-family="sans-serif" font-size="14" font-weight="bold" lengthAdjust="spacingAndGlyphs" textLength="48" x="764" y="371.2282">model</text></a><a href="namespaceclanguml_1_1common_1_1visitor.html" target="_top" title="visitor" xlink:actuate="onRequest" xlink:href="namespaceclanguml_1_1common_1_1visitor.html" xlink:show="new" xlink:title="visitor" xlink:type="simple"><polygon fill="#FFFFFF" filter="url(#fh9lucta6afqc)" points="759.5,243.2331,814.5,243.2331,821.5,265.53,828.5,265.53,828.5,295.8269,759.5,295.8269,759.5,243.2331" style="stroke: #000000; stroke-width: 1.5;"/><line style="stroke: #000000; stroke-width: 1.5;" x1="759.5" x2="821.5" y1="265.53" y2="265.53"/><text fill="#000000" font-family="sans-serif" font-size="14" font-weight="bold" lengthAdjust="spacingAndGlyphs" textLength="49" x="763.5" y="258.2282">visitor</text></a><a href="namespaceclanguml_1_1common_1_1generators.html" target="_top" title="generators" xlink:actuate="onRequest" xlink:href="namespaceclanguml_1_1common_1_1generators.html" xlink:show="new" xlink:title="generators" xlink:type="simple"><polygon fill="#FFFFFF" filter="url(#fh9lucta6afqc)" points="616,243.2331,710,243.2331,717,265.53,724,265.53,724,295.8269,616,295.8269,616,243.2331" style="stroke: #000000; stroke-width: 1.5;"/><line style="stroke: #000000; stroke-width: 1.5;" x1="616" x2="717" y1="265.53" y2="265.53"/><text fill="#000000" font-family="sans-serif" font-size="14" font-weight="bold" lengthAdjust="spacingAndGlyphs" textLength="88" x="620" y="258.2282">generators</text></a><a href="namespaceclanguml_1_1class__diagram_1_1model.html" target="_top" title="model" xlink:actuate="onRequest" xlink:href="namespaceclanguml_1_1class__diagram_1_1model.html" xlink:show="new" xlink:title="model" xlink:type="simple"><polygon fill="#FFFFFF" filter="url(#fh9lucta6afqc)" points="1193,243.2331,1247,243.2331,1254,265.53,1261,265.53,1261,295.8269,1193,295.8269,1193,243.2331" style="stroke: #000000; stroke-width: 1.5;"/><line style="stroke: #000000; stroke-width: 1.5;" x1="1193" x2="1254" y1="265.53" y2="265.53"/><text fill="#000000" font-family="sans-serif" font-size="14" font-weight="bold" lengthAdjust="spacingAndGlyphs" textLength="48" x="1197" y="258.2282">model</text></a><a href="namespaceclanguml_1_1class__diagram_1_1visitor.html" target="_top" title="visitor" xlink:actuate="onRequest" xlink:href="namespaceclanguml_1_1class__diagram_1_1visitor.html" xlink:show="new" xlink:title="visitor" xlink:type="simple"><polygon fill="#FFFFFF" filter="url(#fh9lucta6afqc)" points="1323.5,123.2331,1378.5,123.2331,1385.5,145.53,1392.5,145.53,1392.5,175.8269,1323.5,175.8269,1323.5,123.2331" style="stroke: #000000; stroke-width: 1.5;"/><line style="stroke: #000000; stroke-width: 1.5;" x1="1323.5" x2="1385.5" y1="145.53" y2="145.53"/><text fill="#000000" font-family="sans-serif" font-size="14" font-weight="bold" lengthAdjust="spacingAndGlyphs" textLength="49" x="1327.5" y="138.2282">visitor</text></a><a href="namespaceclanguml_1_1class__diagram_1_1generators.html" target="_top" title="generators" xlink:actuate="onRequest" xlink:href="namespaceclanguml_1_1class__diagram_1_1generators.html" xlink:show="new" xlink:title="generators" xlink:type="simple"><polygon fill="#FFFFFF" filter="url(#fh9lucta6afqc)" points="1180,123.2331,1274,123.2331,1281,145.53,1288,145.53,1288,175.8269,1180,175.8269,1180,123.2331" style="stroke: #000000; stroke-width: 1.5;"/><line style="stroke: #000000; stroke-width: 1.5;" x1="1180" x2="1281" y1="145.53" y2="145.53"/><text fill="#000000" font-family="sans-serif" font-size="14" font-weight="bold" lengthAdjust="spacingAndGlyphs" textLength="88" x="1184" y="138.2282">generators</text></a><a href="namespaceclanguml_1_1config.html" target="_top" title="config" xlink:actuate="onRequest" xlink:href="namespaceclanguml_1_1config.html" xlink:show="new" xlink:title="config" xlink:type="simple"><polygon fill="#FFFFFF" filter="url(#fh9lucta6afqc)" points="877.5,356.2331,932.5,356.2331,939.5,378.53,946.5,378.53,946.5,408.8269,877.5,408.8269,877.5,356.2331" style="stroke: #000000; stroke-width: 1.5;"/><line style="stroke: #000000; stroke-width: 1.5;" x1="877.5" x2="939.5" y1="378.53" y2="378.53"/><text fill="#000000" font-family="sans-serif" font-size="14" font-weight="bold" lengthAdjust="spacingAndGlyphs" textLength="49" x="881.5" y="371.2282">config</text></a><a href="namespaceclanguml_1_1include__diagram_1_1model.html" target="_top" title="model" xlink:actuate="onRequest" xlink:href="namespaceclanguml_1_1include__diagram_1_1model.html" xlink:show="new" xlink:title="model" xlink:type="simple"><polygon fill="#FFFFFF" filter="url(#fh9lucta6afqc)" points="951,243.2331,1005,243.2331,1012,265.53,1019,265.53,1019,295.8269,951,295.8269,951,243.2331" style="stroke: #000000; stroke-width: 1.5;"/><line style="stroke: #000000; stroke-width: 1.5;" x1="951" x2="1012" y1="265.53" y2="265.53"/><text fill="#000000" font-family="sans-serif" font-size="14" font-weight="bold" lengthAdjust="spacingAndGlyphs" textLength="48" x="955" y="258.2282">model</text></a><a href="namespaceclanguml_1_1include__diagram_1_1visitor.html" target="_top" title="visitor" xlink:actuate="onRequest" xlink:href="namespaceclanguml_1_1include__diagram_1_1visitor.html" xlink:show="new" xlink:title="visitor" xlink:type="simple"><polygon fill="#FFFFFF" filter="url(#fh9lucta6afqc)" points="1054.5,123.2331,1109.5,123.2331,1116.5,145.53,1123.5,145.53,1123.5,175.8269,1054.5,175.8269,1054.5,123.2331" style="stroke: #000000; stroke-width: 1.5;"/><line style="stroke: #000000; stroke-width: 1.5;" x1="1054.5" x2="1116.5" y1="145.53" y2="145.53"/><text fill="#000000" font-family="sans-serif" font-size="14" font-weight="bold" lengthAdjust="spacingAndGlyphs" textLength="49" x="1058.5" y="138.2282">visitor</text></a><a href="namespaceclanguml_1_1include__diagram_1_1generators.html" target="_top" title="generators" xlink:actuate="onRequest" xlink:href="namespaceclanguml_1_1include__diagram_1_1generators.html" xlink:show="new" xlink:title="generators" xlink:type="simple"><polygon fill="#FFFFFF" filter="url(#fh9lucta6afqc)" points="911,123.2331,1005,123.2331,1012,145.53,1019,145.53,1019,175.8269,911,175.8269,911,123.2331" style="stroke: #000000; stroke-width: 1.5;"/><line style="stroke: #000000; stroke-width: 1.5;" x1="911" x2="1012" y1="145.53" y2="145.53"/><text fill="#000000" font-family="sans-serif" font-size="14" font-weight="bold" lengthAdjust="spacingAndGlyphs" textLength="88" x="915" y="138.2282">generators</text></a><a href="namespaceclanguml_1_1package__diagram_1_1model.html" target="_top" title="model" xlink:actuate="onRequest" xlink:href="namespaceclanguml_1_1package__diagram_1_1model.html" xlink:show="new" xlink:title="model" xlink:type="simple"><polygon fill="#FFFFFF" filter="url(#fh9lucta6afqc)" points="476,243.2331,530,243.2331,537,265.53,544,265.53,544,295.8269,476,295.8269,476,243.2331" style="stroke: #000000; stroke-width: 1.5;"/><line style="stroke: #000000; stroke-width: 1.5;" x1="476" x2="537" y1="265.53" y2="265.53"/><text fill="#000000" font-family="sans-serif" font-size="14" font-weight="bold" lengthAdjust="spacingAndGlyphs" textLength="48" x="480" y="258.2282">model</text></a><a href="namespaceclanguml_1_1package__diagram_1_1visitor.html" target="_top" title="visitor" xlink:actuate="onRequest" xlink:href="namespaceclanguml_1_1package__diagram_1_1visitor.html" xlink:show="new" xlink:title="visitor" xlink:type="simple"><polygon fill="#FFFFFF" filter="url(#fh9lucta6afqc)" points="474.5,123.2331,529.5,123.2331,536.5,145.53,543.5,145.53,543.5,175.8269,474.5,175.8269,474.5,123.2331" style="stroke: #000000; stroke-width: 1.5;"/><line style="stroke: #000000; stroke-width: 1.5;" x1="474.5" x2="536.5" y1="145.53" y2="145.53"/><text fill="#000000" font-family="sans-serif" font-size="14" font-weight="bold" lengthAdjust="spacingAndGlyphs" textLength="49" x="478.5" y="138.2282">visitor</text></a><a href="namespaceclanguml_1_1package__diagram_1_1generators.html" target="_top" title="generators" xlink:actuate="onRequest" xlink:href="namespaceclanguml_1_1package__diagram_1_1generators.html" xlink:show="new" xlink:title="generators" xlink:type="simple"><polygon fill="#FFFFFF" filter="url(#fh9lucta6afqc)" points="331,123.2331,425,123.2331,432,145.53,439,145.53,439,175.8269,331,175.8269,331,123.2331" style="stroke: #000000; stroke-width: 1.5;"/><line style="stroke: #000000; stroke-width: 1.5;" x1="331" x2="432" y1="145.53" y2="145.53"/><text fill="#000000" font-family="sans-serif" font-size="14" font-weight="bold" lengthAdjust="spacingAndGlyphs" textLength="88" x="335" y="138.2282">generators</text></a><a href="namespaceclanguml_1_1sequence__diagram_1_1model.html" target="_top" title="model" xlink:actuate="onRequest" xlink:href="namespaceclanguml_1_1sequence__diagram_1_1model.html" xlink:show="new" xlink:title="model" xlink:type="simple"><polygon fill="#FFFFFF" filter="url(#fh9lucta6afqc)" points="157,243.2331,211,243.2331,218,265.53,225,265.53,225,295.8269,157,295.8269,157,243.2331" style="stroke: #000000; stroke-width: 1.5;"/><line style="stroke: #000000; stroke-width: 1.5;" x1="157" x2="218" y1="265.53" y2="265.53"/><text fill="#000000" font-family="sans-serif" font-size="14" font-weight="bold" lengthAdjust="spacingAndGlyphs" textLength="48" x="161" y="258.2282">model</text></a><a href="namespaceclanguml_1_1sequence__diagram_1_1visitor.html" target="_top" title="visitor" xlink:actuate="onRequest" xlink:href="namespaceclanguml_1_1sequence__diagram_1_1visitor.html" xlink:show="new" xlink:title="visitor" xlink:type="simple"><polygon fill="#FFFFFF" filter="url(#fh9lucta6afqc)" points="205.5,123.2331,260.5,123.2331,267.5,145.53,274.5,145.53,274.5,175.8269,205.5,175.8269,205.5,123.2331" style="stroke: #000000; stroke-width: 1.5;"/><line style="stroke: #000000; stroke-width: 1.5;" x1="205.5" x2="267.5" y1="145.53" y2="145.53"/><text fill="#000000" font-family="sans-serif" font-size="14" font-weight="bold" lengthAdjust="spacingAndGlyphs" textLength="49" x="209.5" y="138.2282">visitor</text></a><a href="namespaceclanguml_1_1sequence__diagram_1_1generators.html" target="_top" title="generators" xlink:actuate="onRequest" xlink:href="namespaceclanguml_1_1sequence__diagram_1_1generators.html" xlink:show="new" xlink:title="generators" xlink:type="simple"><polygon fill="#FFFFFF" filter="url(#fh9lucta6afqc)" points="62,123.2331,156,123.2331,163,145.53,170,145.53,170,175.8269,62,175.8269,62,123.2331" style="stroke: #000000; stroke-width: 1.5;"/><line style="stroke: #000000; stroke-width: 1.5;" x1="62" x2="163" y1="145.53" y2="145.53"/><text fill="#000000" font-family="sans-serif" font-size="14" font-weight="bold" lengthAdjust="spacingAndGlyphs" textLength="88" x="66" y="138.2282">generators</text></a><!--MD5=[ba2da6be234357b66b2e2f80a3af6860]
link C_0000316605034920222648 to C_0000083721806430512831--><path d="M819.52,469.2031 C829.6,468.2231 825,438.2931 815.87,414.1331 " fill="none" id="C_0000316605034920222648-&gt;C_0000083721806430512831" style="stroke: #A80036; stroke-width: 1.0; stroke-dasharray: 7.0,7.0;"/><polygon fill="#A80036" points="813.99,409.3831,813.6186,419.225,815.847,414.0255,821.0464,416.2539,813.99,409.3831" style="stroke: #A80036; stroke-width: 1.0;"/><!--MD5=[ef4738b47d95db08613fbcac412a7a33]
link C_0000083721806430512831 to C_0000316605034920222648--><path d="M789.7,409.3831 C794.07,434.3731 807.96,468.6931 818.75,469.2231 " fill="none" id="C_0000083721806430512831-&gt;C_0000316605034920222648" style="stroke: #A80036; stroke-width: 1.0; stroke-dasharray: 7.0,7.0;"/><polygon fill="#A80036" points="818.75,469.2231,809.9571,464.7864,813.756,468.9778,809.5646,472.7768,818.75,469.2231" style="stroke: #A80036; stroke-width: 1.0;"/><!--MD5=[0dce90b5182043ee1f405b30ed9b7e73]
link C_0000083721806430512831 to C_0000897124234964432620--><path d="M828.19,367.6231 C835.4,363.2631 842.68,358.8931 850,356.2331 C990.29,305.1531 1046.17,377.6231 1184,320.2331 C1195.36,315.5031 1206.29,307.9531 1214.9,300.1731 " fill="none" id="C_0000083721806430512831-&gt;C_0000897124234964432620" style="stroke: #A80036; stroke-width: 1.0; stroke-dasharray: 7.0,7.0;"/><polygon fill="#A80036" points="1218.92,296.3331,1209.638,299.6261,1215.2929,299.7746,1215.1444,305.4295,1218.92,296.3331" style="stroke: #A80036; stroke-width: 1.0;"/><!--MD5=[be795358792d041ee51d11b0d0c57c97]
link C_0000897124234964432620 to C_0000083721806430512831--><path d="M1192.77,291.2031 C1179.65,301.7231 1164.74,313.6831 1149,320.2331 C1012.78,376.9531 956.61,306.8331 819.47,354.6431 " fill="none" id="C_0000897124234964432620-&gt;C_0000083721806430512831" style="stroke: #A80036; stroke-width: 1.0; stroke-dasharray: 7.0,7.0;"/><polygon fill="#A80036" points="814.55,356.4031,824.372,357.1298,819.2564,354.7151,821.6712,349.5995,814.55,356.4031" style="stroke: #A80036; stroke-width: 1.0;"/><!--MD5=[c4a22cd14a2c08fffb2173e9b6c3e42c]
link C_0000083721806430512831 to C_0000111389493058790497--><path d="M828.11,382.7331 C842.7,382.7331 857.29,382.7331 871.89,382.7331 " fill="none" id="C_0000083721806430512831-&gt;C_0000111389493058790497" style="stroke: #A80036; stroke-width: 1.0; stroke-dasharray: 7.0,7.0;"/><polygon fill="#A80036" points="877.26,382.7331,868.26,378.7331,872.26,382.7331,868.26,386.7331,877.26,382.7331" style="stroke: #A80036; stroke-width: 1.0;"/><!--MD5=[8f601ca51e095f03f9c3f1d6478a8a00]
link C_0000111389493058790497 to C_0000083721806430512831--><path d="M877.26,382.7331 C862.67,382.7331 848.08,382.7331 833.49,382.7331 " fill="none" id="C_0000111389493058790497-&gt;C_0000083721806430512831" style="stroke: #A80036; stroke-width: 1.0; stroke-dasharray: 7.0,7.0;"/><polygon fill="#A80036" points="828.11,382.7331,837.11,386.7331,833.11,382.7331,837.11,378.7331,828.11,382.7331" style="stroke: #A80036; stroke-width: 1.0;"/><!--MD5=[afe42d899e23f341bd05918f4301571a]
link C_0002059309769421024048 to C_0000111389493058790497--><path d="M812.33,296.4031 C818.51,304.3831 825.71,312.9831 833,320.2331 C845.29,332.4531 859.98,344.4731 873.35,354.6131 " fill="none" id="C_0002059309769421024048-&gt;C_0000111389493058790497" style="stroke: #A80036; stroke-width: 1.0; stroke-dasharray: 7.0,7.0;"/><polygon fill="#A80036" points="877.45,357.6931,872.6845,349.074,873.462,354.6771,867.8589,355.4547,877.45,357.6931" style="stroke: #A80036; stroke-width: 1.0;"/><!--MD5=[2ac810ab3bacb361eaa965529f28133f]
link C_0002059309769421024048 to C_0000083721806430512831--><path d="M794,296.4731 C794,312.7331 794,333.8131 794,350.9431 " fill="none" id="C_0002059309769421024048-&gt;C_0000083721806430512831" style="stroke: #A80036; stroke-width: 1.0; stroke-dasharray: 7.0,7.0;"/><polygon fill="#A80036" points="794,356.1231,798.0257,347.1346,794.0143,351.1231,790.0257,347.1117,794,356.1231" style="stroke: #A80036; stroke-width: 1.0;"/><!--MD5=[2fdec463d6ea5a74acddbf321b88e96f]
link C_0000897124234964432620 to C_0000316605034920222648--><path d="M1196.86,296.4131 C1187.19,304.3131 1176.32,312.8631 1166,320.2331 C1094.35,371.4031 1079.11,390.9631 998,425.2331 C960.86,440.9281 916.9175,451.8331 881.8663,458.8606 C873.1034,460.6175 864.8963,462.132 857.4901,463.4185 C856.5644,463.5793 855.6511,463.7365 854.7508,463.8902 C854.3007,463.9671 853.8538,464.0431 853.4102,464.1181 " fill="none" id="C_0000897124234964432620-&gt;C_0000316605034920222648" style="stroke: #A80036; stroke-width: 1.0; stroke-dasharray: 7.0,7.0;"/><polygon fill="#A80036" points="853.4102,464.1181,862.9516,466.5599,858.3401,463.2836,861.6164,458.6721,853.4102,464.1181" style="stroke: #A80036; stroke-width: 1.0;"/><!--MD5=[986523af660b4cc3bd1f979a80d6b906]
link C_0001862217944346803827 to C_0000897124234964432620--><path d="M1323.29,169.3031 C1317.61,171.8931 1311.72,174.3131 1306,176.2331 C1288.4,182.1531 1279.55,172.6931 1265,184.2331 C1248.3,197.4831 1238.7,219.6631 1233.33,237.9731 " fill="none" id="C_0001862217944346803827-&gt;C_0000897124234964432620" style="stroke: #A80036; stroke-width: 1.0; stroke-dasharray: 7.0,7.0;"/><polygon fill="#A80036" points="1231.93,243.0231,1238.1952,235.424,1233.2697,238.2059,1230.4877,233.2804,1231.93,243.0231" style="stroke: #A80036; stroke-width: 1.0;"/><!--MD5=[7995531c1332a87871b0ccb0493c695c]
link C_0001862217944346803827 to C_0000111389493058790497--><path d="M1346.4,176.4131 C1325.21,223.2231 1282.11,317.8731 1279,320.2331 C1228.01,359.0231 1035.72,374.6231 951.7,379.6831 " fill="none" id="C_0001862217944346803827-&gt;C_0000111389493058790497" style="stroke: #A80036; stroke-width: 1.0; stroke-dasharray: 7.0,7.0;"/><polygon fill="#A80036" points="946.57,379.9831,955.794,383.4353,951.561,379.6828,955.3135,375.4498,946.57,379.9831" style="stroke: #A80036; stroke-width: 1.0;"/><!--MD5=[fe6c659b1d9551b23d6b7b46d3ddf306]
link C_0001862217944346803827 to C_0002059309769421024048--><path d="M1323.26,170.3131 C1317.64,172.7331 1311.77,174.8331 1306,176.2331 C1261.61,186.9831 937.78,168.2231 895,184.2331 C865.09,195.4231 837.75,219.5631 819.08,239.1831 " fill="none" id="C_0001862217944346803827-&gt;C_0002059309769421024048" style="stroke: #A80036; stroke-width: 1.0; stroke-dasharray: 7.0,7.0;"/><polygon fill="#A80036" points="815.46,243.0431,824.5331,239.2119,818.8792,239.395,818.6961,233.7411,815.46,243.0431" style="stroke: #A80036; stroke-width: 1.0;"/><!--MD5=[94cd7daeef8576610aa0eefb9af041b2]
link C_0001862217944346803827 to C_0000083721806430512831--><path d="M1323.49,169.9731 C1317.79,172.4731 1311.83,174.6931 1306,176.2331 C1292.01,179.9331 1187.19,175.0531 1176,184.2331 C1127.65,223.8731 1187.25,279.2731 1140,320.2331 C1089.15,364.3131 905.53,333.8731 833.42,355.9931 " fill="none" id="C_0001862217944346803827-&gt;C_0000083721806430512831" style="stroke: #A80036; stroke-width: 1.0; stroke-dasharray: 7.0,7.0;"/><polygon fill="#A80036" points="828.43,357.6831,838.2364,358.5964,833.1677,356.0849,835.6792,351.0161,828.43,357.6831" style="stroke: #A80036; stroke-width: 1.0;"/><!--MD5=[18ca2bdf7722de89f506b3164a26946d]
link C_0001862217944346803827 to C_0000316605034920222648--><path d="M1364.22,176.3131 C1371.36,212.2431 1378.39,277.9831 1347,320.2331 C1310.93,368.7831 1180.7025,405.8331 1058.6163,430.8444 C997.5731,443.35 938.5653,452.8459 894.3802,459.2648 C883.3339,460.8696 873.214,462.282 864.2203,463.501 C861.9719,463.8058 859.7939,464.0985 857.6894,464.379 C856.6371,464.5193 855.6032,464.6566 854.5881,464.7908 C854.0806,464.8579 853.5777,464.9243 853.0796,464.9899 " fill="none" id="C_0001862217944346803827-&gt;C_0000316605034920222648" style="stroke: #A80036; stroke-width: 1.0; stroke-dasharray: 7.0,7.0;"/><polygon fill="#A80036" points="853.0796,464.9899,862.5248,467.7805,858.0368,464.337,861.4803,459.849,853.0796,464.9899" style="stroke: #A80036; stroke-width: 1.0;"/><!--MD5=[355fb263a9bcc3f17860aeaab8269b2c]
link C_0000111389493058790497 to C_0000316605034920222648--><path d="M884.1,409.3831 C877.465,415.4831 870.2256,422.1387 863.0637,428.7231 C861.2733,430.3692 859.4877,432.0109 857.7175,433.6383 C856.8325,434.4519 855.9513,435.2621 855.0753,436.0674 C854.6373,436.4701 854.2006,436.8716 853.7654,437.2717 C853.5478,437.4718 853.3305,437.6715 853.1137,437.8709 " fill="none" id="C_0000111389493058790497-&gt;C_0000316605034920222648" style="stroke: #A80036; stroke-width: 1.0; stroke-dasharray: 7.0,7.0;"/><polygon fill="#A80036" points="853.1137,437.8709,862.4464,434.7243,856.7945,434.4869,857.0319,428.835,853.1137,437.8709" style="stroke: #A80036; stroke-width: 1.0;"/><!--MD5=[f6cbfd97ae39c76c6d11a0244ead3fe7]
link C_0000545328881104248214 to C_0000316605034920222648--><path d="M992.35,296.2931 C1000.28,329.7431 1008.19,388.4331 979,425.2331 C967.72,439.4531 928.785,450.3331 892.15,457.7169 C882.9913,459.5628 873.9763,461.1902 865.573,462.5967 C861.3714,463.2999 857.3228,463.9479 853.4856,464.5404 " fill="none" id="C_0000545328881104248214-&gt;C_0000316605034920222648" style="stroke: #A80036; stroke-width: 1.0; stroke-dasharray: 7.0,7.0;"/><polygon fill="#A80036" points="853.4856,464.5404,862.9906,467.1202,858.427,463.7774,861.7699,459.2139,853.4856,464.5404" style="stroke: #A80036; stroke-width: 1.0;"/><!--MD5=[3b6106ace947b6aeef04bdce20fc5abe]
link C_0000545328881104248214 to C_0000083721806430512831--><path d="M950.82,288.8031 C920.54,305.0431 875.2,329.9231 832.67,355.8531 " fill="none" id="C_0000545328881104248214-&gt;C_0000083721806430512831" style="stroke: #A80036; stroke-width: 1.0; stroke-dasharray: 7.0,7.0;"/><polygon fill="#A80036" points="828.3,358.5331,838.0625,357.232,832.5607,355.9166,833.8761,350.4148,828.3,358.5331" style="stroke: #A80036; stroke-width: 1.0;"/><!--MD5=[e886a6702b1218b8a9a59fd2c3aacce5]
link C_0000299757823634161563 to C_0000545328881104248214--><path d="M1066.43,176.3331 C1050.08,194.8931 1027.93,220.0231 1010.87,239.3831 " fill="none" id="C_0000299757823634161563-&gt;C_0000545328881104248214" style="stroke: #A80036; stroke-width: 1.0; stroke-dasharray: 7.0,7.0;"/><polygon fill="#A80036" points="1007.52,243.1831,1016.4724,239.0777,1010.8267,239.4327,1010.4717,233.787,1007.52,243.1831" style="stroke: #A80036; stroke-width: 1.0;"/><!--MD5=[c9f0ecfcf20f6128fd9201f1675e5614]
link C_0000299757823634161563 to C_0000111389493058790497--><path d="M1054.46,169.8931 C1048.77,172.3931 1042.82,174.6431 1037,176.2331 C1014.85,182.2831 950.5,168.2731 934,184.2331 C889.44,227.3331 896.59,307.2331 904.82,351.0431 " fill="none" id="C_0000299757823634161563-&gt;C_0000111389493058790497" style="stroke: #A80036; stroke-width: 1.0; stroke-dasharray: 7.0,7.0;"/><polygon fill="#A80036" points="905.83,356.2031,908.0356,346.6044,904.8741,351.2953,900.1832,348.1338,905.83,356.2031" style="stroke: #A80036; stroke-width: 1.0;"/><!--MD5=[c1eebb66b2db6d00482c390e2b3c10db]
link C_0000299757823634161563 to C_0002059309769421024048--><path d="M1054.49,170.0031 C1048.79,172.4931 1042.84,174.7031 1037,176.2331 C1006.43,184.2431 924.39,172.6131 895,184.2331 C865.5,195.8931 838.31,219.7431 819.59,239.1331 " fill="none" id="C_0000299757823634161563-&gt;C_0002059309769421024048" style="stroke: #A80036; stroke-width: 1.0; stroke-dasharray: 7.0,7.0;"/><polygon fill="#A80036" points="815.96,242.9431,825.0638,239.1854,819.4086,239.3228,819.2713,233.6676,815.96,242.9431" style="stroke: #A80036; stroke-width: 1.0;"/><!--MD5=[f8ec71451627ad7317ba4562f649716b]
link C_0001569810617781744082 to C_0000316605034920222648--><path d="M517.56,296.3631 C523.405,313.8331 532.81,338.0381 546.3562,361.8819 C553.1294,373.8038 560.9378,385.6353 569.8542,396.4895 C574.3124,401.9166 579.0476,407.0994 584.0689,411.927 C586.5795,414.3408 589.1617,416.6657 591.8165,418.888 " fill="none" id="C_0001569810617781744082-&gt;C_0000316605034920222648" style="stroke: #A80036; stroke-width: 1.0; stroke-dasharray: 7.0,7.0;"/><polygon fill="#A80036" points="591.8165,418.888,587.4828,410.0439,587.9825,415.6786,582.3477,416.1783,591.8165,418.888" style="stroke: #A80036; stroke-width: 1.0;"/><!--MD5=[818001e0f9322d92b1de659e76f4af3c]
link C_0001569810617781744082 to C_0000083721806430512831--><path d="M536.54,296.2631 C546.67,304.8931 558.75,313.9331 571,320.2331 C631.17,351.2031 708.75,368.0531 754.74,375.9431 " fill="none" id="C_0001569810617781744082-&gt;C_0000083721806430512831" style="stroke: #A80036; stroke-width: 1.0; stroke-dasharray: 7.0,7.0;"/><polygon fill="#A80036" points="759.92,376.8231,751.7077,371.3864,754.9892,375.9942,750.3814,379.2757,759.92,376.8231" style="stroke: #A80036; stroke-width: 1.0;"/><!--MD5=[a34f379144e9ccdcbba1ffde200dca2e]
link C_0000183895282854293183 to C_0001569810617781744082--><path d="M509.22,176.3331 C509.37,194.4331 509.58,218.7631 509.74,237.9231 " fill="none" id="C_0000183895282854293183-&gt;C_0001569810617781744082" style="stroke: #A80036; stroke-width: 1.0; stroke-dasharray: 7.0,7.0;"/><polygon fill="#A80036" points="509.78,243.1831,513.7027,234.1492,509.7371,238.1833,505.703,234.2177,509.78,243.1831" style="stroke: #A80036; stroke-width: 1.0;"/><!--MD5=[40c53b4924977ae8d1d0ddde147587d3]
link C_0000183895282854293183 to C_0000111389493058790497--><path d="M543.55,152.0831 C624.57,155.5331 821.74,165.7431 845,184.2331 C858.46,194.9231 888.81,298.4031 903.59,351.1531 " fill="none" id="C_0000183895282854293183-&gt;C_0000111389493058790497" style="stroke: #A80036; stroke-width: 1.0; stroke-dasharray: 7.0,7.0;"/><polygon fill="#A80036" points="904.97,356.0931,906.4048,346.3493,903.6266,351.277,898.699,348.4988,904.97,356.0931" style="stroke: #A80036; stroke-width: 1.0;"/><!--MD5=[61fa8295436377539aad259cfc0d2222]
link C_0000183895282854293183 to C_0000083721806430512831--><path d="M543.74,167.4431 C550.59,172.0731 557.15,177.6631 562,184.2331 C599.23,234.6131 555.6,275.0631 599,320.2331 C640.12,363.0331 710.71,376.1631 754.74,380.1131 " fill="none" id="C_0000183895282854293183-&gt;C_0000083721806430512831" style="stroke: #A80036; stroke-width: 1.0; stroke-dasharray: 7.0,7.0;"/><polygon fill="#A80036" points="759.97,380.5531,751.3321,375.8216,754.9872,380.1391,750.6697,383.7941,759.97,380.5531" style="stroke: #A80036; stroke-width: 1.0;"/><!--MD5=[8befd17b8e2d40ca5a0f4237541b457b]
link C_0000183895282854293183 to C_0002059309769421024048--><path d="M543.69,152.1531 C600.46,155.0531 710.06,163.2631 742,184.2331 C761.38,196.9531 774.76,219.6631 783.08,238.3331 " fill="none" id="C_0000183895282854293183-&gt;C_0002059309769421024048" style="stroke: #A80036; stroke-width: 1.0; stroke-dasharray: 7.0,7.0;"/><polygon fill="#A80036" points="785.09,242.9831,785.1955,233.1348,783.1084,238.3926,777.8506,236.3054,785.09,242.9831" style="stroke: #A80036; stroke-width: 1.0;"/><!--MD5=[2d8cecd3f53b8446a6d4eeac26559a55]
link C_0002206969880830639264 to C_0000083721806430512831--><path d="M215.85,296.3031 C226.16,305.3731 238.8,314.6931 252,320.2331 C343.12,358.4731 645.85,375.2331 754.64,380.1231 " fill="none" id="C_0002206969880830639264-&gt;C_0000083721806430512831" style="stroke: #A80036; stroke-width: 1.0; stroke-dasharray: 7.0,7.0;"/><polygon fill="#A80036" points="759.67,380.3531,750.8626,375.9451,754.6752,380.1241,750.4963,383.9368,759.67,380.3531" style="stroke: #A80036; stroke-width: 1.0;"/><!--MD5=[092ad7fc3ac1761b7b84112e4e558371]
link C_0002206969880830639264 to C_0000316605034920222648--><path d="M209.98,296.3331 C217.33,304.8631 226.32,313.8231 236,320.2331 C291.3125,356.8556 355.055,384.4775 419.6422,405.3106 C451.9358,415.7272 484.4405,424.4466 516.2083,431.7452 C532.0922,435.3946 547.7918,438.6887 563.1887,441.6623 C570.8872,443.149 578.5099,444.5557 586.0421,445.8865 C587.9252,446.2191 589.8026,446.5471 591.6741,446.8704 " fill="none" id="C_0002206969880830639264-&gt;C_0000316605034920222648" style="stroke: #A80036; stroke-width: 1.0; stroke-dasharray: 7.0,7.0;"/><polygon fill="#A80036" points="591.6741,446.8704,583.4863,441.3968,586.7471,446.0193,582.1246,449.28,591.6741,446.8704" style="stroke: #A80036; stroke-width: 1.0;"/><!--MD5=[e88230400ea873f6a58e0a36bed1a1dd]
link C_0000351520758190157237 to C_0000316605034920222648--><path d="M205.22,169.1731 C199.26,171.8431 193.04,174.3231 187,176.2331 C176.69,179.5031 145.99,175.9831 139,184.2331 C99.93,230.3531 110.36,267.0031 139,320.2331 C179.12,394.8131 217.99,397.4731 298,425.2331 C325.2275,434.6806 371.0031,442.1487 424.4502,448.0381 C451.1737,450.9828 479.815,453.5328 509.0147,455.7382 C523.6145,456.8409 538.3539,457.8574 553.0629,458.7941 C560.4174,459.2624 567.7643,459.7108 575.0823,460.1399 C578.7414,460.3545 582.3932,460.5643 586.0351,460.7694 C587.8561,460.8719 589.6746,460.9733 591.4903,461.0735 " fill="none" id="C_0000351520758190157237-&gt;C_0000316605034920222648" style="stroke: #A80036; stroke-width: 1.0; stroke-dasharray: 7.0,7.0;"/><polygon fill="#A80036" points="591.4903,461.0735,582.7244,456.5836,586.4979,460.798,582.2836,464.5715,591.4903,461.0735" style="stroke: #A80036; stroke-width: 1.0;"/><!--MD5=[bce4cb2e9fa0dfe9ce0cde195e5d0062]
link C_0000351520758190157237 to C_0002206969880830639264--><path d="M229.37,176.3331 C221.79,194.5831 211.58,219.1831 203.59,238.4131 " fill="none" id="C_0000351520758190157237-&gt;C_0002206969880830639264" style="stroke: #A80036; stroke-width: 1.0; stroke-dasharray: 7.0,7.0;"/><polygon fill="#A80036" points="201.61,243.1831,208.746,236.3951,203.5209,238.5627,201.3533,233.3376,201.61,243.1831" style="stroke: #A80036; stroke-width: 1.0;"/><!--MD5=[99f0c3811d42f1c03075795e14627421]
link C_0000351520758190157237 to C_0000111389493058790497--><path d="M259.31,176.2631 C260.99,178.9031 262.59,181.5831 264,184.2331 C294.39,241.1831 263.22,281.6831 315,320.2331 C409.69,390.7231 729.69,330.9631 845,356.2331 C854.13,358.2331 863.67,361.2531 872.59,364.5231 " fill="none" id="C_0000351520758190157237-&gt;C_0000111389493058790497" style="stroke: #A80036; stroke-width: 1.0; stroke-dasharray: 7.0,7.0;"/><polygon fill="#A80036" points="877.48,366.3631,870.4575,359.4577,872.7984,364.6075,867.6485,366.9483,877.48,366.3631" style="stroke: #A80036; stroke-width: 1.0;"/><!--MD5=[70b67a87ec0f1413a096c6190b33b0f2]
link C_0000351520758190157237 to C_0000083721806430512831--><path d="M243.1,176.2831 C248.8,222.4131 260.86,315.2731 266,320.2331 C301.1,354.0831 638.15,373.9631 754.63,379.8631 " fill="none" id="C_0000351520758190157237-&gt;C_0000083721806430512831" style="stroke: #A80036; stroke-width: 1.0; stroke-dasharray: 7.0,7.0;"/><polygon fill="#A80036" points="759.68,380.1131,750.8847,375.6812,754.6859,379.8706,750.4965,383.6718,759.68,380.1131" style="stroke: #A80036; stroke-width: 1.0;"/><!--MD5=[e0f50984c2c2abe5a6eea2c0f9df723a]
link C_0000351520758190157237 to C_0002059309769421024048--><path d="M274.52,164.9631 C287.05,169.4531 301.45,173.8631 315,176.2331 C338.37,180.3231 721.4,172.4631 742,184.2331 C762.41,195.8931 775.83,219.1231 783.92,238.2831 " fill="none" id="C_0000351520758190157237-&gt;C_0002059309769421024048" style="stroke: #A80036; stroke-width: 1.0; stroke-dasharray: 7.0,7.0;"/><polygon fill="#A80036" points="785.86,243.0531,786.1687,233.2091,783.9735,238.4227,778.76,236.2275,785.86,243.0531" style="stroke: #A80036; stroke-width: 1.0;"/><!--MD5=[5b9fa5721cdd281d57d1eed0694536a1]
@startuml
title clang-uml top level packages
package [clanguml] as C_0002174271399507040339 [[namespaceclanguml.html{clanguml}]] {
package [common] as C_0000316605034920222648 [[namespaceclanguml_1_1common.html{common}]] {
package [model] as C_0000083721806430512831 [[namespaceclanguml_1_1common_1_1model.html{model}]] {
}
package [visitor] as C_0002059309769421024048 [[namespaceclanguml_1_1common_1_1visitor.html{visitor}]] {
}
package [generators] as C_0001127696046613471321 [[namespaceclanguml_1_1common_1_1generators.html{generators}]] {
}
}
package [class_diagram] as C_0002240167036201725606 [[namespaceclanguml_1_1class__diagram.html{class_diagram}]] {
package [model] as C_0000897124234964432620 [[namespaceclanguml_1_1class__diagram_1_1model.html{model}]] {
}
package [visitor] as C_0001862217944346803827 [[namespaceclanguml_1_1class__diagram_1_1visitor.html{visitor}]] {
}
package [generators] as C_0001202809603534656108 [[namespaceclanguml_1_1class__diagram_1_1generators.html{generators}]] {
}
}
package [config] as C_0000111389493058790497 [[namespaceclanguml_1_1config.html{config}]] {
}
package [include_diagram] as C_0002289677368446195616 [[namespaceclanguml_1_1include__diagram.html{include_diagram}]] {
package [model] as C_0000545328881104248214 [[namespaceclanguml_1_1include__diagram_1_1model.html{model}]] {
}
package [visitor] as C_0000299757823634161563 [[namespaceclanguml_1_1include__diagram_1_1visitor.html{visitor}]] {
}
package [generators] as C_0001148912745423261924 [[namespaceclanguml_1_1include__diagram_1_1generators.html{generators}]] {
}
}
package [package_diagram] as C_0001176715616702819073 [[namespaceclanguml_1_1package__diagram.html{package_diagram}]] {
package [model] as C_0001569810617781744082 [[namespaceclanguml_1_1package__diagram_1_1model.html{model}]] {
}
package [visitor] as C_0000183895282854293183 [[namespaceclanguml_1_1package__diagram_1_1visitor.html{visitor}]] {
}
package [generators] as C_0000377372199728063954 [[namespaceclanguml_1_1package__diagram_1_1generators.html{generators}]] {
}
}
package [sequence_diagram] as C_0001521862840957629236 [[namespaceclanguml_1_1sequence__diagram.html{sequence_diagram}]] {
package [model] as C_0002206969880830639264 [[namespaceclanguml_1_1sequence__diagram_1_1model.html{model}]] {
}
package [visitor] as C_0000351520758190157237 [[namespaceclanguml_1_1sequence__diagram_1_1visitor.html{visitor}]] {
}
package [generators] as C_0001816110126439728844 [[namespaceclanguml_1_1sequence__diagram_1_1generators.html{generators}]] {
}
}
}
C_0000316605034920222648 ..> C_0000083721806430512831
C_0000083721806430512831 ..> C_0000316605034920222648
C_0000083721806430512831 ..> C_0000897124234964432620
C_0000083721806430512831 ..> C_0000111389493058790497
C_0002059309769421024048 ..> C_0000111389493058790497
C_0002059309769421024048 ..> C_0000083721806430512831
C_0000897124234964432620 ..> C_0000083721806430512831
C_0000897124234964432620 ..> C_0000316605034920222648
C_0001862217944346803827 ..> C_0000897124234964432620
C_0001862217944346803827 ..> C_0000111389493058790497
C_0001862217944346803827 ..> C_0002059309769421024048
C_0001862217944346803827 ..> C_0000083721806430512831
C_0001862217944346803827 ..> C_0000316605034920222648
C_0000111389493058790497 ..> C_0000083721806430512831
C_0000111389493058790497 ..> C_0000316605034920222648
C_0000545328881104248214 ..> C_0000316605034920222648
C_0000545328881104248214 ..> C_0000083721806430512831
C_0000299757823634161563 ..> C_0000545328881104248214
C_0000299757823634161563 ..> C_0000111389493058790497
C_0000299757823634161563 ..> C_0002059309769421024048
C_0001569810617781744082 ..> C_0000316605034920222648
C_0001569810617781744082 ..> C_0000083721806430512831
C_0000183895282854293183 ..> C_0001569810617781744082
C_0000183895282854293183 ..> C_0000111389493058790497
C_0000183895282854293183 ..> C_0000083721806430512831
C_0000183895282854293183 ..> C_0002059309769421024048
C_0002206969880830639264 ..> C_0000083721806430512831
C_0002206969880830639264 ..> C_0000316605034920222648
C_0000351520758190157237 ..> C_0000316605034920222648
C_0000351520758190157237 ..> C_0002206969880830639264
C_0000351520758190157237 ..> C_0000111389493058790497
C_0000351520758190157237 ..> C_0000083721806430512831
C_0000351520758190157237 ..> C_0002059309769421024048

@enduml

PlantUML version 1.2020.02(Sun Mar 01 11:22:07 CET 2020)
(GPL source distribution)
Java Runtime: OpenJDK Runtime Environment
JVM: OpenJDK 64-Bit Server VM
Java Version: 11.0.19+7-post-Ubuntu-0ubuntu122.04.1
Operating System: Linux
Default Encoding: UTF-8
Language: en
Country: US
--></g></svg>