<svg xmlns="http://www.w3.org/2000/svg" xmlns:xlink="http://www.w3.org/1999/xlink" contentScriptType="application/ecmascript" contentStyleType="text/css" height="613px" preserveAspectRatio="none" style="width:1362px;height:613px;" version="1.1" viewBox="0 0 1362 613" width="1362px" zoomAndPan="magnify">
  <defs>
    <filter height="300%" id="f1cy3tp7w004hd" width="300%" x="-1" y="-1">
      <feGaussianBlur result="blurOut" stdDeviation="2.0"/>
      <feColorMatrix in="blurOut" result="blurOut2" type="matrix" values="0 0 0 0 0 0 0 0 0 0 0 0 0 0 0 0 0 0 .4 0"/>
      <feOffset dx="4.0" dy="4.0" in="blurOut2" result="blurOut3"/>
      <feBlend in="SourceGraphic" in2="blurOut3" mode="normal"/>
    </filter>
    <style type="text/css">a:hover { text-decoration: underline; }</style>
  </defs>
  <g>
    <text fill="#000000" font-family="sans-serif" font-size="18" lengthAdjust="spacingAndGlyphs" textLength="436" x="456" y="16.708">High-level namespace dependencies in clang-uml</text>
    <a href="namespaceclanguml.html" target="_top" title="clanguml" xlink:actuate="onRequest" xlink:href="namespaceclanguml.html" xlink:show="new" xlink:title="clanguml" xlink:type="simple">
      <polygon fill="#FFFFFF" filter="url(#f1cy3tp7w004hd)" points="22,44.9531,98,44.9531,105,67.25,1310,67.25,1310,601.9531,22,601.9531,22,44.9531" style="stroke: #000000; stroke-width: 1.5;"/>
      <line style="stroke: #000000; stroke-width: 1.5;" x1="22" x2="105" y1="67.25" y2="67.25"/>
      <text fill="#000000" font-family="sans-serif" font-size="14" font-weight="bold" lengthAdjust="spacingAndGlyphs" textLength="70" x="26" y="59.9482">clanguml</text>
    </a>
    <a href="namespaceclanguml_1_1common.html" target="_top" title="common" xlink:actuate="onRequest" xlink:href="namespaceclanguml_1_1common.html" xlink:show="new" xlink:title="common" xlink:type="simple">
      <polygon fill="#FFFFFF" filter="url(#f1cy3tp7w004hd)" points="592,336.9531,665,336.9531,672,359.25,872,359.25,872,569.9531,592,569.9531,592,336.9531" style="stroke: #000000; stroke-width: 1.5;"/>
      <line style="stroke: #000000; stroke-width: 1.5;" x1="592" x2="672" y1="359.25" y2="359.25"/>
      <text fill="#000000" font-family="sans-serif" font-size="14" font-weight="bold" lengthAdjust="spacingAndGlyphs" textLength="67" x="596" y="351.9482">common</text>
    </a>
    <a href="namespaceclanguml_1_1class__diagram.html" target="_top" title="class_diagram" xlink:actuate="onRequest" xlink:href="namespaceclanguml_1_1class__diagram.html" xlink:show="new" xlink:title="class_diagram" xlink:type="simple">
      <polygon fill="#FFFFFF" filter="url(#f1cy3tp7w004hd)" points="315,200.9531,431,200.9531,438,223.25,560,223.25,560,448.9531,315,448.9531,315,200.9531" style="stroke: #000000; stroke-width: 1.5;"/>
      <line style="stroke: #000000; stroke-width: 1.5;" x1="315" x2="438" y1="223.25" y2="223.25"/>
      <text fill="#000000" font-family="sans-serif" font-size="14" font-weight="bold" lengthAdjust="spacingAndGlyphs" textLength="110" x="319" y="215.9482">class_diagram</text>
    </a>
    <a href="namespaceclanguml_1_1include__diagram.html" target="_top" title="include_diagram" xlink:actuate="onRequest" xlink:href="namespaceclanguml_1_1include__diagram.html" xlink:show="new" xlink:title="include_diagram" xlink:type="simple">
      <polygon fill="#FFFFFF" filter="url(#f1cy3tp7w004hd)" points="46,87.9531,179,87.9531,186,110.25,291,110.25,291,304.9531,46,304.9531,46,87.9531" style="stroke: #000000; stroke-width: 1.5;"/>
      <line style="stroke: #000000; stroke-width: 1.5;" x1="46" x2="186" y1="110.25" y2="110.25"/>
      <text fill="#000000" font-family="sans-serif" font-size="14" font-weight="bold" lengthAdjust="spacingAndGlyphs" textLength="127" x="50" y="102.9482">include_diagram</text>
    </a>
    <a href="namespaceclanguml_1_1sequence__diagram.html" target="_top" title="sequence_diagram" xlink:actuate="onRequest" xlink:href="namespaceclanguml_1_1sequence__diagram.html" xlink:show="new" xlink:title="sequence_diagram" xlink:type="simple">
      <polygon fill="#FFFFFF" filter="url(#f1cy3tp7w004hd)" points="1028,200.9531,1182,200.9531,1189,223.25,1273,223.25,1273,448.9531,1028,448.9531,1028,200.9531" style="stroke: #000000; stroke-width: 1.5;"/>
      <line style="stroke: #000000; stroke-width: 1.5;" x1="1028" x2="1189" y1="223.25" y2="223.25"/>
      <text fill="#000000" font-family="sans-serif" font-size="14" font-weight="bold" lengthAdjust="spacingAndGlyphs" textLength="148" x="1032" y="215.9482">sequence_diagram</text>
    </a>
    <a href="namespaceclanguml_1_1package__diagram.html" target="_top" title="package_diagram" xlink:actuate="onRequest" xlink:href="namespaceclanguml_1_1package__diagram.html" xlink:show="new" xlink:title="package_diagram" xlink:type="simple">
      <polygon fill="#FFFFFF" filter="url(#f1cy3tp7w004hd)" points="752,87.9531,894,87.9531,901,110.25,997,110.25,997,304.9531,752,304.9531,752,87.9531" style="stroke: #000000; stroke-width: 1.5;"/>
      <line style="stroke: #000000; stroke-width: 1.5;" x1="752" x2="901" y1="110.25" y2="110.25"/>
      <text fill="#000000" font-family="sans-serif" font-size="14" font-weight="bold" lengthAdjust="spacingAndGlyphs" textLength="136" x="756" y="102.9482">package_diagram</text>
    </a>
    <a href="namespaceclanguml_1_1common_1_1generators.html" target="_top" title="generators" xlink:actuate="onRequest" xlink:href="namespaceclanguml_1_1common_1_1generators.html" xlink:show="new" xlink:title="generators" xlink:type="simple">
      <polygon fill="#FFFFFF" filter="url(#f1cy3tp7w004hd)" points="721,379.9531,815,379.9531,822,402.25,829,402.25,829,432.5469,721,432.5469,721,379.9531" style="stroke: #000000; stroke-width: 1.5;"/>
      <line style="stroke: #000000; stroke-width: 1.5;" x1="721" x2="822" y1="402.25" y2="402.25"/>
      <text fill="#000000" font-family="sans-serif" font-size="14" font-weight="bold" lengthAdjust="spacingAndGlyphs" textLength="88" x="725" y="394.9482">generators</text>
    </a>
    <a href="namespaceclanguml_1_1common_1_1model.html" target="_top" title="model" xlink:actuate="onRequest" xlink:href="namespaceclanguml_1_1common_1_1model.html" xlink:show="new" xlink:title="model" xlink:type="simple">
      <polygon fill="#FFFFFF" filter="url(#f1cy3tp7w004hd)" points="617,492.9531,671,492.9531,678,515.25,685,515.25,685,545.5469,617,545.5469,617,492.9531" style="stroke: #000000; stroke-width: 1.5;"/>
      <line style="stroke: #000000; stroke-width: 1.5;" x1="617" x2="678" y1="515.25" y2="515.25"/>
      <text fill="#000000" font-family="sans-serif" font-size="14" font-weight="bold" lengthAdjust="spacingAndGlyphs" textLength="48" x="621" y="507.9482">model</text>
    </a>
    <a href="namespaceclanguml_1_1common_1_1visitor.html" target="_top" title="visitor" xlink:actuate="onRequest" xlink:href="namespaceclanguml_1_1common_1_1visitor.html" xlink:show="new" xlink:title="visitor" xlink:type="simple">
      <polygon fill="#FFFFFF" filter="url(#f1cy3tp7w004hd)" points="616.5,379.9531,671.5,379.9531,678.5,402.25,685.5,402.25,685.5,432.5469,616.5,432.5469,616.5,379.9531" style="stroke: #000000; stroke-width: 1.5;"/>
      <line style="stroke: #000000; stroke-width: 1.5;" x1="616.5" x2="678.5" y1="402.25" y2="402.25"/>
      <text fill="#000000" font-family="sans-serif" font-size="14" font-weight="bold" lengthAdjust="spacingAndGlyphs" textLength="49" x="620.5" y="394.9482">visitor</text>
    </a>
    <a href="namespaceclanguml_1_1class__diagram_1_1model.html" target="_top" title="model" xlink:actuate="onRequest" xlink:href="namespaceclanguml_1_1class__diagram_1_1model.html" xlink:show="new" xlink:title="model" xlink:type="simple">
      <polygon fill="#FFFFFF" filter="url(#f1cy3tp7w004hd)" points="439,379.9531,493,379.9531,500,402.25,507,402.25,507,432.5469,439,432.5469,439,379.9531" style="stroke: #000000; stroke-width: 1.5;"/>
      <line style="stroke: #000000; stroke-width: 1.5;" x1="439" x2="500" y1="402.25" y2="402.25"/>
      <text fill="#000000" font-family="sans-serif" font-size="14" font-weight="bold" lengthAdjust="spacingAndGlyphs" textLength="48" x="443" y="394.9482">model</text>
    </a>
    <a href="namespaceclanguml_1_1class__diagram_1_1visitor.html" target="_top" title="visitor" xlink:actuate="onRequest" xlink:href="namespaceclanguml_1_1class__diagram_1_1visitor.html" xlink:show="new" xlink:title="visitor" xlink:type="simple">
      <polygon fill="#FFFFFF" filter="url(#f1cy3tp7w004hd)" points="474.5,235.9531,529.5,235.9531,536.5,258.25,543.5,258.25,543.5,288.5469,474.5,288.5469,474.5,235.9531" style="stroke: #000000; stroke-width: 1.5;"/>
      <line style="stroke: #000000; stroke-width: 1.5;" x1="474.5" x2="536.5" y1="258.25" y2="258.25"/>
      <text fill="#000000" font-family="sans-serif" font-size="14" font-weight="bold" lengthAdjust="spacingAndGlyphs" textLength="49" x="478.5" y="250.9482">visitor</text>
    </a>
    <a href="namespaceclanguml_1_1class__diagram_1_1generators.html" target="_top" title="generators" xlink:actuate="onRequest" xlink:href="namespaceclanguml_1_1class__diagram_1_1generators.html" xlink:show="new" xlink:title="generators" xlink:type="simple">
      <polygon fill="#FFFFFF" filter="url(#f1cy3tp7w004hd)" points="331,235.9531,425,235.9531,432,258.25,439,258.25,439,288.5469,331,288.5469,331,235.9531" style="stroke: #000000; stroke-width: 1.5;"/>
      <line style="stroke: #000000; stroke-width: 1.5;" x1="331" x2="432" y1="258.25" y2="258.25"/>
      <text fill="#000000" font-family="sans-serif" font-size="14" font-weight="bold" lengthAdjust="spacingAndGlyphs" textLength="88" x="335" y="250.9482">generators</text>
    </a>
    <a href="namespaceclanguml_1_1config.html" target="_top" title="config" xlink:actuate="onRequest" xlink:href="namespaceclanguml_1_1config.html" xlink:show="new" xlink:title="config" xlink:type="simple">
      <polygon fill="#FFFFFF" filter="url(#f1cy3tp7w004hd)" points="896.5,492.9531,951.5,492.9531,958.5,515.25,965.5,515.25,965.5,545.5469,896.5,545.5469,896.5,492.9531" style="stroke: #000000; stroke-width: 1.5;"/>
      <line style="stroke: #000000; stroke-width: 1.5;" x1="896.5" x2="958.5" y1="515.25" y2="515.25"/>
      <text fill="#000000" font-family="sans-serif" font-size="14" font-weight="bold" lengthAdjust="spacingAndGlyphs" textLength="49" x="900.5" y="507.9482">config</text>
    </a>
    <a href="namespaceclanguml_1_1include__diagram_1_1model.html" target="_top" title="model" xlink:actuate="onRequest" xlink:href="namespaceclanguml_1_1include__diagram_1_1model.html" xlink:show="new" xlink:title="model" xlink:type="simple">
      <polygon fill="#FFFFFF" filter="url(#f1cy3tp7w004hd)" points="207,235.9531,261,235.9531,268,258.25,275,258.25,275,288.5469,207,288.5469,207,235.9531" style="stroke: #000000; stroke-width: 1.5;"/>
      <line style="stroke: #000000; stroke-width: 1.5;" x1="207" x2="268" y1="258.25" y2="258.25"/>
      <text fill="#000000" font-family="sans-serif" font-size="14" font-weight="bold" lengthAdjust="spacingAndGlyphs" textLength="48" x="211" y="250.9482">model</text>
    </a>
    <a href="namespaceclanguml_1_1include__diagram_1_1visitor.html" target="_top" title="visitor" xlink:actuate="onRequest" xlink:href="namespaceclanguml_1_1include__diagram_1_1visitor.html" xlink:show="new" xlink:title="visitor" xlink:type="simple">
      <polygon fill="#FFFFFF" filter="url(#f1cy3tp7w004hd)" points="205.5,122.9531,260.5,122.9531,267.5,145.25,274.5,145.25,274.5,175.5469,205.5,175.5469,205.5,122.9531" style="stroke: #000000; stroke-width: 1.5;"/>
      <line style="stroke: #000000; stroke-width: 1.5;" x1="205.5" x2="267.5" y1="145.25" y2="145.25"/>
      <text fill="#000000" font-family="sans-serif" font-size="14" font-weight="bold" lengthAdjust="spacingAndGlyphs" textLength="49" x="209.5" y="137.9482">visitor</text>
    </a>
    <a href="namespaceclanguml_1_1include__diagram_1_1generators.html" target="_top" title="generators" xlink:actuate="onRequest" xlink:href="namespaceclanguml_1_1include__diagram_1_1generators.html" xlink:show="new" xlink:title="generators" xlink:type="simple">
      <polygon fill="#FFFFFF" filter="url(#f1cy3tp7w004hd)" points="62,122.9531,156,122.9531,163,145.25,170,145.25,170,175.5469,62,175.5469,62,122.9531" style="stroke: #000000; stroke-width: 1.5;"/>
      <line style="stroke: #000000; stroke-width: 1.5;" x1="62" x2="163" y1="145.25" y2="145.25"/>
      <text fill="#000000" font-family="sans-serif" font-size="14" font-weight="bold" lengthAdjust="spacingAndGlyphs" textLength="88" x="66" y="137.9482">generators</text>
    </a>
    <a href="namespaceclanguml_1_1sequence__diagram_1_1model.html" target="_top" title="model" xlink:actuate="onRequest" xlink:href="namespaceclanguml_1_1sequence__diagram_1_1model.html" xlink:show="new" xlink:title="model" xlink:type="simple">
      <polygon fill="#FFFFFF" filter="url(#f1cy3tp7w004hd)" points="1047,379.9531,1101,379.9531,1108,402.25,1115,402.25,1115,432.5469,1047,432.5469,1047,379.9531" style="stroke: #000000; stroke-width: 1.5;"/>
      <line style="stroke: #000000; stroke-width: 1.5;" x1="1047" x2="1108" y1="402.25" y2="402.25"/>
      <text fill="#000000" font-family="sans-serif" font-size="14" font-weight="bold" lengthAdjust="spacingAndGlyphs" textLength="48" x="1051" y="394.9482">model</text>
    </a>
    <a href="namespaceclanguml_1_1sequence__diagram_1_1visitor.html" target="_top" title="visitor" xlink:actuate="onRequest" xlink:href="namespaceclanguml_1_1sequence__diagram_1_1visitor.html" xlink:show="new" xlink:title="visitor" xlink:type="simple">
      <polygon fill="#FFFFFF" filter="url(#f1cy3tp7w004hd)" points="1187.5,235.9531,1242.5,235.9531,1249.5,258.25,1256.5,258.25,1256.5,288.5469,1187.5,288.5469,1187.5,235.9531" style="stroke: #000000; stroke-width: 1.5;"/>
      <line style="stroke: #000000; stroke-width: 1.5;" x1="1187.5" x2="1249.5" y1="258.25" y2="258.25"/>
      <text fill="#000000" font-family="sans-serif" font-size="14" font-weight="bold" lengthAdjust="spacingAndGlyphs" textLength="49" x="1191.5" y="250.9482">visitor</text>
    </a>
    <a href="namespaceclanguml_1_1sequence__diagram_1_1generators.html" target="_top" title="generators" xlink:actuate="onRequest" xlink:href="namespaceclanguml_1_1sequence__diagram_1_1generators.html" xlink:show="new" xlink:title="generators" xlink:type="simple">
      <polygon fill="#FFFFFF" filter="url(#f1cy3tp7w004hd)" points="1044,235.9531,1138,235.9531,1145,258.25,1152,258.25,1152,288.5469,1044,288.5469,1044,235.9531" style="stroke: #000000; stroke-width: 1.5;"/>
      <line style="stroke: #000000; stroke-width: 1.5;" x1="1044" x2="1145" y1="258.25" y2="258.25"/>
      <text fill="#000000" font-family="sans-serif" font-size="14" font-weight="bold" lengthAdjust="spacingAndGlyphs" textLength="88" x="1048" y="250.9482">generators</text>
    </a>
    <a href="namespaceclanguml_1_1package__diagram_1_1model.html" target="_top" title="model" xlink:actuate="onRequest" xlink:href="namespaceclanguml_1_1package__diagram_1_1model.html" xlink:show="new" xlink:title="model" xlink:type="simple">
      <polygon fill="#FFFFFF" filter="url(#f1cy3tp7w004hd)" points="903,235.9531,957,235.9531,964,258.25,971,258.25,971,288.5469,903,288.5469,903,235.9531" style="stroke: #000000; stroke-width: 1.5;"/>
      <line style="stroke: #000000; stroke-width: 1.5;" x1="903" x2="964" y1="258.25" y2="258.25"/>
      <text fill="#000000" font-family="sans-serif" font-size="14" font-weight="bold" lengthAdjust="spacingAndGlyphs" textLength="48" x="907" y="250.9482">model</text>
    </a>
    <a href="namespaceclanguml_1_1package__diagram_1_1visitor.html" target="_top" title="visitor" xlink:actuate="onRequest" xlink:href="namespaceclanguml_1_1package__diagram_1_1visitor.html" xlink:show="new" xlink:title="visitor" xlink:type="simple">
      <polygon fill="#FFFFFF" filter="url(#f1cy3tp7w004hd)" points="911.5,122.9531,966.5,122.9531,973.5,145.25,980.5,145.25,980.5,175.5469,911.5,175.5469,911.5,122.9531" style="stroke: #000000; stroke-width: 1.5;"/>
      <line style="stroke: #000000; stroke-width: 1.5;" x1="911.5" x2="973.5" y1="145.25" y2="145.25"/>
      <text fill="#000000" font-family="sans-serif" font-size="14" font-weight="bold" lengthAdjust="spacingAndGlyphs" textLength="49" x="915.5" y="137.9482">visitor</text>
    </a>
    <a href="namespaceclanguml_1_1package__diagram_1_1generators.html" target="_top" title="generators" xlink:actuate="onRequest" xlink:href="namespaceclanguml_1_1package__diagram_1_1generators.html" xlink:show="new" xlink:title="generators" xlink:type="simple">
      <polygon fill="#FFFFFF" filter="url(#f1cy3tp7w004hd)" points="768,122.9531,862,122.9531,869,145.25,876,145.25,876,175.5469,768,175.5469,768,122.9531" style="stroke: #000000; stroke-width: 1.5;"/>
      <line style="stroke: #000000; stroke-width: 1.5;" x1="768" x2="869" y1="145.25" y2="145.25"/>
      <text fill="#000000" font-family="sans-serif" font-size="14" font-weight="bold" lengthAdjust="spacingAndGlyphs" textLength="88" x="772" y="137.9482">generators</text>
    </a>
    <path d="M872.157,485.6132 C872.215,485.6699 872.2731,485.7264 872.3312,485.783 C872.4474,485.896 872.5639,486.0088 872.6805,486.1213 C873.1469,486.5716 873.6164,487.0182 874.0887,487.461 C875.9777,489.2325 877.9109,490.9441 879.8731,492.5917 C883.7975,495.8869 887.8375,498.9256 891.87,501.6731 " fill="none" id="C_0002532840279361781187-&gt;C_0000891115944470323979" style="stroke: #A80036; stroke-width: 1.0; stroke-dasharray: 7.0,7.0;"/>
    <polygon fill="#A80036" points="896.41,504.6431,891.0746,496.3646,892.2279,501.9026,886.6899,503.0559,896.41,504.6431" style="stroke: #A80036; stroke-width: 1.0;"/>
    <path d="M913.19,492.8831 C903.31,482.9531 892.43,470.6531 886,456.9531 C881.345,447.0431 880.325,434.7831 878.2813,424.9444 C877.2594,420.025 875.9816,415.7109 873.8655,412.5986 C873.3364,411.8205 872.755,411.1175 872.1121,410.499 " fill="none" id="C_0000891115944470323979-&gt;C_0002532840279361781187" style="stroke: #A80036; stroke-width: 1.0; stroke-dasharray: 7.0,7.0;"/>
    <polygon fill="#A80036" points="872.1121,410.499,875.8244,419.6214,875.7152,413.9656,881.371,413.8564,872.1121,410.499" style="stroke: #A80036; stroke-width: 1.0;"/>
    <path d="M616.84,494.5231 C597.19,483.9131 572.88,470.7231 552,456.9531 C538.5,448.0531 524.41,436.7731 511.4,427.2331 " fill="none" id="C_0000669774451444102653-&gt;C_0007176993879715460962" style="stroke: #A80036; stroke-width: 1.0; stroke-dasharray: 7.0,7.0;"/>
    <polygon fill="#A80036" points="507.02,424.0731,511.9763,432.584,511.0741,426.9995,516.6586,426.0973,507.02,424.0731" style="stroke: #A80036; stroke-width: 1.0;"/>
    <path d="M486.07,433.1031 C494.99,441.1631 506.18,449.8231 517,456.9531 C546.97,476.7131 584.01,495.2931 612.16,506.7531 " fill="none" id="C_0007176993879715460962-&gt;C_0000669774451444102653" style="stroke: #A80036; stroke-width: 1.0; stroke-dasharray: 7.0,7.0;"/>
    <polygon fill="#A80036" points="616.95,508.6631,610.0793,501.6067,612.3076,506.8062,607.1081,509.0345,616.95,508.6631" style="stroke: #A80036; stroke-width: 1.0;"/>
    <path d="M685.21,504.4031 C692.42,500.0431 699.7,495.6731 707,492.9531 C830.37,447.0131 875.04,495.2031 1001,456.9531 C1018.19,451.7331 1036.01,443.6431 1050.76,435.5131 " fill="none" id="C_0000669774451444102653-&gt;C_0017655759046645114118" style="stroke: #A80036; stroke-width: 1.0; stroke-dasharray: 7.0,7.0;"/>
    <polygon fill="#A80036" points="1055.23,432.9931,1045.4258,433.9299,1050.8748,435.4492,1049.3555,440.8982,1055.23,432.9931" style="stroke: #A80036; stroke-width: 1.0;"/>
    <path d="M1046.8,420.7031 C1023.85,432.2431 994.09,448.4231 966,456.9531 C841.76,494.6731 796.6,448.3231 676.59,491.2831 " fill="none" id="C_0017655759046645114118-&gt;C_0000669774451444102653" style="stroke: #A80036; stroke-width: 1.0; stroke-dasharray: 7.0,7.0;"/>
    <polygon fill="#A80036" points="671.55,493.1231,681.3758,493.797,676.2473,491.4098,678.6345,486.2813,671.55,493.1231" style="stroke: #A80036; stroke-width: 1.0;"/>
    <path d="M685.18,519.4531 C753.81,519.4531 822.44,519.4531 891.07,519.4531 " fill="none" id="C_0000669774451444102653-&gt;C_0000891115944470323979" style="stroke: #A80036; stroke-width: 1.0; stroke-dasharray: 7.0,7.0;"/>
    <polygon fill="#A80036" points="896.43,519.4531,887.43,515.4531,891.43,519.4531,887.43,523.4531,896.43,519.4531" style="stroke: #A80036; stroke-width: 1.0;"/>
    <path d="M896.43,519.4531 C827.8,519.4531 759.17,519.4531 690.54,519.4531 " fill="none" id="C_0000891115944470323979-&gt;C_0000669774451444102653" style="stroke: #A80036; stroke-width: 1.0; stroke-dasharray: 7.0,7.0;"/>
    <polygon fill="#A80036" points="685.18,519.4531,694.18,523.4531,690.18,519.4531,694.18,515.4531,685.18,519.4531" style="stroke: #A80036; stroke-width: 1.0;"/>
    <path d="M651,433.1931 C651,449.4531 651,470.5331 651,487.6631 " fill="none" id="C_0016474478155368192384-&gt;C_0000669774451444102653" style="stroke: #A80036; stroke-width: 1.0; stroke-dasharray: 7.0,7.0;"/>
    <polygon fill="#A80036" points="651,492.8431,655.0257,483.8546,651.0143,487.8431,647.0257,483.8317,651,492.8431" style="stroke: #A80036; stroke-width: 1.0;"/>
    <path d="M672.73,432.9731 C681.35,441.7031 691.87,450.8031 703,456.9531 C760,488.4231 782.22,475.6931 845,492.9531 C860.24,497.1431 876.92,502.0231 891.5,506.3831 " fill="none" id="C_0016474478155368192384-&gt;C_0000891115944470323979" style="stroke: #A80036; stroke-width: 1.0; stroke-dasharray: 7.0,7.0;"/>
    <polygon fill="#A80036" points="896.36,507.8431,888.8749,501.442,891.5677,506.4169,886.5929,509.1097,896.36,507.8431" style="stroke: #A80036; stroke-width: 1.0;"/>
    <path d="M499.43,379.9031 C526.43,355.4631 570.88,322.2131 617.5,316.9531 C663.87,311.7231 781.13,311.7231 827.5,316.9531 C835.43,317.8431 839.38,315.2931 845,320.9531 C848.2163,324.1881 850.9397,327.8391 853.2416,331.764 C853.8171,332.7453 854.3663,333.7436 854.8902,334.7569 C855.1522,335.2635 855.4078,335.7739 855.6573,336.2877 C855.7197,336.4162 855.7816,336.5448 855.8432,336.6737 " fill="none" id="C_0007176993879715460962-&gt;C_0002532840279361781187" style="stroke: #A80036; stroke-width: 1.0; stroke-dasharray: 7.0,7.0;"/>
    <polygon fill="#A80036" points="855.8432,336.6737,855.5709,326.8286,853.687,332.1626,848.3531,330.2786,855.8432,336.6737" style="stroke: #A80036; stroke-width: 1.0;"/>
    <path d="M534.72,289.1731 C559.24,313.6931 596.15,350.6031 621.78,376.2331 " fill="none" id="C_0014897743554774430622-&gt;C_0016474478155368192384" style="stroke: #A80036; stroke-width: 1.0; stroke-dasharray: 7.0,7.0;"/>
    <polygon fill="#A80036" points="625.48,379.9331,621.9445,370.7407,621.9445,376.3976,616.2876,376.3976,625.48,379.9331" style="stroke: #A80036; stroke-width: 1.0;"/>
    <path d="M543.62,279.2031 C571.04,290.8531 610.65,305.8731 647,312.9531 C668.61,317.1631 828.09,306.8531 845,320.9531 C848.6375,323.9869 851.6675,327.5534 854.1844,331.4758 C854.8137,332.4563 855.4108,333.4592 855.9774,334.4814 C856.2607,334.9926 856.5363,335.5086 856.8045,336.0291 C856.9386,336.2894 857.0708,336.5508 857.2012,336.8133 " fill="none" id="C_0014897743554774430622-&gt;C_0002532840279361781187" style="stroke: #A80036; stroke-width: 1.0; stroke-dasharray: 7.0,7.0;"/>
    <polygon fill="#A80036" points="857.2012,336.8133,856.7799,326.9734,854.9769,332.3353,849.6151,330.5323,857.2012,336.8133" style="stroke: #A80036; stroke-width: 1.0;"/>
    <path d="M502.48,289.1731 C496.36,313.2931 487.21,349.3931 480.73,374.9631 " fill="none" id="C_0014897743554774430622-&gt;C_0007176993879715460962" style="stroke: #A80036; stroke-width: 1.0; stroke-dasharray: 7.0,7.0;"/>
    <polygon fill="#A80036" points="479.47,379.9331,485.5548,372.1888,480.6961,375.0858,477.7991,370.227,479.47,379.9331" style="stroke: #A80036; stroke-width: 1.0;"/>
    <path d="M516.31,289.1631 C530.47,338.5131 561.14,442.9231 571,456.9531 C581.87,472.4131 597.78,485.7631 612.55,496.0331 " fill="none" id="C_0014897743554774430622-&gt;C_0000669774451444102653" style="stroke: #A80036; stroke-width: 1.0; stroke-dasharray: 7.0,7.0;"/>
    <polygon fill="#A80036" points="616.69,498.8531,611.493,490.4871,612.554,496.0435,606.9976,497.1046,616.69,498.8531" style="stroke: #A80036; stroke-width: 1.0;"/>
    <path d="M522.3,289.1631 C528.49,298.3731 536.76,307.7531 547,312.9531 C563.5,321.3331 865.51,309.4431 880,320.9531 C930.21,360.8131 934.91,443.0531 933.36,487.8131 " fill="none" id="C_0014897743554774430622-&gt;C_0000891115944470323979" style="stroke: #A80036; stroke-width: 1.0; stroke-dasharray: 7.0,7.0;"/>
    <polygon fill="#A80036" points="933.15,492.8131,937.5317,483.9927,933.3641,487.8177,929.539,483.6501,933.15,492.8131" style="stroke: #A80036; stroke-width: 1.0;"/>
    <path d="M270.62,288.9731 C283.4,298.3931 299.06,307.9831 315,312.9531 C329.06,317.3331 833.57,311.6631 845,320.9531 C848.6763,323.9406 851.7355,327.4723 854.2738,331.3691 C854.9084,332.3433 855.5105,333.3403 856.0815,334.3574 C856.367,334.8659 856.6447,335.3794 856.9149,335.8976 C857.0499,336.1566 857.1831,336.4169 857.3144,336.6783 " fill="none" id="C_0004362631048833985714-&gt;C_0002532840279361781187" style="stroke: #A80036; stroke-width: 1.0; stroke-dasharray: 7.0,7.0;"/>
    <polygon fill="#A80036" points="857.3144,336.6783,856.8482,326.8404,855.0698,332.2105,849.6997,330.432,857.3144,336.6783" style="stroke: #A80036; stroke-width: 1.0;"/>
    <path d="M242.99,289.0131 C247.71,330.9831 263.41,414.0831 315,456.9531 C359.74,494.1331 533.25,510.4431 611.88,516.0431 " fill="none" id="C_0004362631048833985714-&gt;C_0000669774451444102653" style="stroke: #A80036; stroke-width: 1.0; stroke-dasharray: 7.0,7.0;"/>
    <polygon fill="#A80036" points="616.92,516.3931,608.2156,511.7851,611.9318,516.0501,607.6668,519.7662,616.92,516.3931" style="stroke: #A80036; stroke-width: 1.0;"/>
    <path d="M240.23,176.1931 C240.38,192.4531 240.57,213.5331 240.72,230.6631 " fill="none" id="C_0002398062589073292507-&gt;C_0004362631048833985714" style="stroke: #A80036; stroke-width: 1.0; stroke-dasharray: 7.0,7.0;"/>
    <polygon fill="#A80036" points="240.77,235.8431,244.6927,226.8092,240.7271,230.8433,236.693,226.8777,240.77,235.8431" style="stroke: #A80036; stroke-width: 1.0;"/>
    <path d="M274.58,150.9731 C360.02,152.7431 578.84,160.4231 643,192.9531 C707.26,225.5331 686.84,282.1931 752,312.9531 C768.5,320.7431 902.93,308.2331 916,320.9531 C960.37,364.1431 949.74,444.2831 939.54,488.0231 " fill="none" id="C_0002398062589073292507-&gt;C_0000891115944470323979" style="stroke: #A80036; stroke-width: 1.0; stroke-dasharray: 7.0,7.0;"/>
    <polygon fill="#A80036" points="938.36,492.9231,944.3368,485.0951,939.5187,488.0592,936.5546,483.2411,938.36,492.9231" style="stroke: #A80036; stroke-width: 1.0;"/>
    <path d="M274.71,150.2631 C355.58,150.4631 553.67,154.9331 606,192.9531 C653.46,227.4331 612.32,280.2031 661,312.9531 C677.98,324.3731 829.3,307.8231 845,320.9531 C848.6338,323.9919 851.6609,327.5622 854.1758,331.4872 C854.8045,332.4685 855.4012,333.4719 855.9674,334.4948 C856.2505,335.0062 856.5259,335.5225 856.7939,336.0433 C856.9279,336.3037 857.06,336.5652 857.1903,336.8278 " fill="none" id="C_0002398062589073292507-&gt;C_0002532840279361781187" style="stroke: #A80036; stroke-width: 1.0; stroke-dasharray: 7.0,7.0;"/>
    <polygon fill="#A80036" points="857.1903,336.8278,856.7734,326.9878,854.968,332.3488,849.607,330.5434,857.1903,336.8278" style="stroke: #A80036; stroke-width: 1.0;"/>
    <path d="M274.75,150.8431 C348.12,152.3131 515.75,159.3731 560,192.9531 C618.76,237.5431 640.05,327.6431 647.39,374.9231 " fill="none" id="C_0002398062589073292507-&gt;C_0016474478155368192384" style="stroke: #A80036; stroke-width: 1.0; stroke-dasharray: 7.0,7.0;"/>
    <polygon fill="#A80036" points="648.14,379.9131,650.758,370.4186,647.3969,374.9687,642.8468,371.6076,648.14,379.9131" style="stroke: #A80036; stroke-width: 1.0;"/>
    <path d="M1046.74,406.4531 C1016.355,406.4531 985.9675,406.4531 955.58,406.4531 C940.3863,406.4531 925.1925,406.4531 909.9991,406.4531 C902.4023,406.4531 894.8057,406.4531 887.2092,406.4531 C883.4109,406.4531 879.6127,406.4531 875.8145,406.4531 C874.8649,406.4531 873.9154,406.4531 872.9658,406.4531 C872.7285,406.4531 872.4911,406.4531 872.2537,406.4531 " fill="none" id="C_0017655759046645114118-&gt;C_0002532840279361781187" style="stroke: #A80036; stroke-width: 1.0; stroke-dasharray: 7.0,7.0;"/>
    <polygon fill="#A80036" points="872.2537,406.4531,881.2537,410.4531,877.2537,406.4531,881.2537,402.4531,872.2537,406.4531" style="stroke: #A80036; stroke-width: 1.0;"/>
    <path d="M1064.46,433.1031 C1058.36,441.3431 1050.98,450.1131 1043,456.9531 C1021.31,475.5631 993.08,491.0231 970.4,501.7831 " fill="none" id="C_0017655759046645114118-&gt;C_0000891115944470323979" style="stroke: #A80036; stroke-width: 1.0; stroke-dasharray: 7.0,7.0;"/>
    <polygon fill="#A80036" points="965.64,504.0031,975.4872,503.8202,970.1706,501.8879,972.1028,496.5713,965.64,504.0031" style="stroke: #A80036; stroke-width: 1.0;"/>
    <path d="M1201.67,288.9631 C1192.73,298.2631 1181.43,307.7631 1169,312.9531 C1127.13,330.4231 1007.33,304.6331 965,320.9531 C938.12,331.3131 913.2325,351.9456 894.8875,370.2281 C885.715,379.3694 878.1781,387.9231 872.8456,394.3116 C872.679,394.5112 872.5145,394.7087 872.3522,394.9041 C872.271,395.0018 872.1904,395.0989 872.1103,395.1955 " fill="none" id="C_0002812166065521257903-&gt;C_0002532840279361781187" style="stroke: #A80036; stroke-width: 1.0; stroke-dasharray: 7.0,7.0;"/>
    <polygon fill="#A80036" points="872.1103,395.1955,880.9336,390.8194,875.3013,391.3461,874.7746,385.7138,872.1103,395.1955" style="stroke: #A80036; stroke-width: 1.0;"/>
    <path d="M1200.57,288.9931 C1191.71,297.9531 1180.76,307.2031 1169,312.9531 C1148.78,322.8431 1136.87,307.2731 1119,320.9531 C1102.07,333.9131 1092.49,356.1031 1087.18,374.4931 " fill="none" id="C_0002812166065521257903-&gt;C_0017655759046645114118" style="stroke: #A80036; stroke-width: 1.0; stroke-dasharray: 7.0,7.0;"/>
    <polygon fill="#A80036" points="1085.79,379.5631,1092.0133,371.9296,1087.1032,374.7386,1084.2941,369.8285,1085.79,379.5631" style="stroke: #A80036; stroke-width: 1.0;"/>
    <path d="M1201.37,289.1131 C1192.47,298.3131 1181.27,307.7031 1169,312.9531 C1140.35,325.2031 1056.79,306.8531 1029,320.9531 C959.17,356.3831 984.98,418.0931 917,456.9531 C829.41,507.0131 785.96,457.2031 689.92,492.7931 " fill="none" id="C_0002812166065521257903-&gt;C_0000669774451444102653" style="stroke: #A80036; stroke-width: 1.0; stroke-dasharray: 7.0,7.0;"/>
    <polygon fill="#A80036" points="685.01,494.6631,694.845,495.1859,689.6804,492.8778,691.9885,487.7132,685.01,494.6631" style="stroke: #A80036; stroke-width: 1.0;"/>
    <path d="M1201.73,289.1031 C1192.8,298.4231 1181.49,307.9031 1169,312.9531 C1145,322.6631 725.49,308.1331 703,320.9531 C682.58,332.5931 669.16,355.8231 661.07,374.9931 " fill="none" id="C_0002812166065521257903-&gt;C_0016474478155368192384" style="stroke: #A80036; stroke-width: 1.0; stroke-dasharray: 7.0,7.0;"/>
    <polygon fill="#A80036" points="659.13,379.7631,666.2227,372.9298,661.0115,375.1306,658.8107,369.9194,659.13,379.7631" style="stroke: #A80036; stroke-width: 1.0;"/>
    <path d="M1217.08,289.1331 C1207.81,330.5031 1183.84,411.8331 1132,456.9531 C1086.15,496.8631 1014.86,510.8731 970.65,515.7931 " fill="none" id="C_0002812166065521257903-&gt;C_0000891115944470323979" style="stroke: #A80036; stroke-width: 1.0; stroke-dasharray: 7.0,7.0;"/>
    <polygon fill="#A80036" points="965.67,516.3231,975.0338,519.3758,970.6435,515.8086,974.2106,511.4183,965.67,516.3231" style="stroke: #A80036; stroke-width: 1.0;"/>
    <path d="M923.78,289.1731 C913.425,309.3131 898.7825,337.7956 886.5813,361.5306 C883.5309,367.4644 880.6332,373.1014 877.9932,378.2372 C876.6732,380.8051 875.4176,383.2477 874.2396,385.5394 C873.6506,386.6852 873.081,387.7933 872.5324,388.8605 C872.3952,389.1274 872.2594,389.3916 872.1249,389.6532 " fill="none" id="C_0012558484942253952660-&gt;C_0002532840279361781187" style="stroke: #A80036; stroke-width: 1.0; stroke-dasharray: 7.0,7.0;"/>
    <polygon fill="#A80036" points="872.1249,389.6532,879.7969,383.4775,874.4107,385.2063,872.6819,379.8201,872.1249,389.6532" style="stroke: #A80036; stroke-width: 1.0;"/>
    <path d="M937.38,289.1431 C936.51,330.9131 928.31,413.2531 880,456.9531 C817.19,513.7731 770.78,462.3131 689.91,492.7931 " fill="none" id="C_0012558484942253952660-&gt;C_0000669774451444102653" style="stroke: #A80036; stroke-width: 1.0; stroke-dasharray: 7.0,7.0;"/>
    <polygon fill="#A80036" points="685.03,494.7231,694.8693,495.1571,689.6841,492.8957,691.9455,487.7106,685.03,494.7231" style="stroke: #A80036; stroke-width: 1.0;"/>
    <path d="M943.91,176.1931 C942.59,192.4531 940.89,213.5331 939.5,230.6631 " fill="none" id="C_0001471162262834345471-&gt;C_0012558484942253952660" style="stroke: #A80036; stroke-width: 1.0; stroke-dasharray: 7.0,7.0;"/>
    <polygon fill="#A80036" points="939.08,235.8431,943.7889,227.1929,939.481,230.8592,935.8147,226.5513,939.08,235.8431" style="stroke: #A80036; stroke-width: 1.0;"/>
    <path d="M980.67,152.4131 C1060.88,157.2931 1253.9,171.2031 1273,192.9531 C1350.44,281.1031 1348.27,366.9431 1273,456.9531 C1234.85,502.5731 1052.59,514.4031 970.84,517.4331 " fill="none" id="C_0001471162262834345471-&gt;C_0000891115944470323979" style="stroke: #A80036; stroke-width: 1.0; stroke-dasharray: 7.0,7.0;"/>
    <polygon fill="#A80036" points="965.6,517.6131,974.7427,521.2753,970.5965,517.427,974.4449,513.2809,965.6,517.6131" style="stroke: #A80036; stroke-width: 1.0;"/>
    <path d="M911.33,167.1931 C901.2,173.7931 891.2,182.3731 885,192.9531 C861.37,233.2481 855.9125,285.3556 856.4637,327.8869 C856.4982,330.5451 856.5561,333.1659 856.6346,335.744 C856.6444,336.0663 856.6545,336.3879 856.6649,336.7088 " fill="none" id="C_0001471162262834345471-&gt;C_0002532840279361781187" style="stroke: #A80036; stroke-width: 1.0; stroke-dasharray: 7.0,7.0;"/>
    <polygon fill="#A80036" points="856.6649,336.7088,860.3702,327.5836,856.5024,331.7115,852.3745,327.8436,856.6649,336.7088" style="stroke: #A80036; stroke-width: 1.0;"/>
    <path d="M911.33,169.2931 C905.36,171.9031 899.1,174.2731 893,175.9531 C812.13,198.2731 779.23,153.8631 705,192.9531 C639.64,227.3631 624.04,251.4631 599,320.9531 C578.51,377.8231 578.22,400.1931 599,456.9531 C603.25,468.5531 610.76,479.4731 618.78,488.8031 " fill="none" id="C_0001471162262834345471-&gt;C_0000669774451444102653" style="stroke: #A80036; stroke-width: 1.0; stroke-dasharray: 7.0,7.0;"/>
    <polygon fill="#A80036" points="622.23,492.7031,619.2404,483.319,618.9082,488.9661,613.2611,488.6339,622.23,492.7031" style="stroke: #A80036; stroke-width: 1.0;"/>
    <path d="M911.4,167.5831 C905.31,170.4631 899,173.3531 893,175.9531 C873.76,184.2831 866.94,182.1031 849,192.9531 C775.17,237.6331 758.68,255.0231 703,320.9531 C688.98,337.5531 676.15,358.3131 666.74,375.0931 " fill="none" id="C_0001471162262834345471-&gt;C_0016474478155368192384" style="stroke: #A80036; stroke-width: 1.0; stroke-dasharray: 7.0,7.0;"/>
    <polygon fill="#A80036" points="664.18,379.7231,672.0474,373.7983,666.6082,375.3523,665.0542,369.9131,664.18,379.7231" style="stroke: #A80036; stroke-width: 1.0;"/>
  </g>
</svg>
