<svg xmlns="http://www.w3.org/2000/svg" xmlns:xlink="http://www.w3.org/1999/xlink" contentScriptType="application/ecmascript" contentStyleType="text/css" height="613px" preserveAspectRatio="none" style="width:1187px;height:613px;" version="1.1" viewBox="0 0 1187 613" width="1187px" zoomAndPan="magnify">
  <defs>
    <filter height="300%" id="f1vcticjw81w38" width="300%" x="-1" y="-1">
      <feGaussianBlur result="blurOut" stdDeviation="2.0"/>
      <feColorMatrix in="blurOut" result="blurOut2" type="matrix" values="0 0 0 0 0 0 0 0 0 0 0 0 0 0 0 0 0 0 .4 0"/>
      <feOffset dx="4.0" dy="4.0" in="blurOut2" result="blurOut3"/>
      <feBlend in="SourceGraphic" in2="blurOut3" mode="normal"/>
    </filter>
    <style type="text/css">a:hover { text-decoration: underline; }</style>
  </defs>
  <g>
    <text fill="#000000" font-family="sans-serif" font-size="18" lengthAdjust="spacingAndGlyphs" textLength="436" x="368.5" y="16.708">High-level namespace dependencies in clang-uml</text>
    <a href="namespaceclanguml.html" target="_top" title="clanguml" xlink:actuate="onRequest" xlink:href="namespaceclanguml.html" xlink:show="new" xlink:title="clanguml" xlink:type="simple">
      <polygon fill="#FFFFFF" filter="url(#f1vcticjw81w38)" points="22,44.9531,98,44.9531,105,67.25,1135,67.25,1135,601.9531,22,601.9531,22,44.9531" style="stroke: #000000; stroke-width: 1.5;"/>
      <line style="stroke: #000000; stroke-width: 1.5;" x1="22" x2="105" y1="67.25" y2="67.25"/>
      <text fill="#000000" font-family="sans-serif" font-size="14" font-weight="bold" lengthAdjust="spacingAndGlyphs" textLength="70" x="26" y="59.9482">clanguml</text>
    </a>
    <a href="namespaceclanguml_1_1common.html" target="_top" title="common" xlink:actuate="onRequest" xlink:href="namespaceclanguml_1_1common.html" xlink:show="new" xlink:title="common" xlink:type="simple">
      <polygon fill="#FFFFFF" filter="url(#f1vcticjw81w38)" points="454,336.9531,527,336.9531,534,359.25,734,359.25,734,569.9531,454,569.9531,454,336.9531" style="stroke: #000000; stroke-width: 1.5;"/>
      <line style="stroke: #000000; stroke-width: 1.5;" x1="454" x2="534" y1="359.25" y2="359.25"/>
      <text fill="#000000" font-family="sans-serif" font-size="14" font-weight="bold" lengthAdjust="spacingAndGlyphs" textLength="67" x="458" y="351.9482">common</text>
    </a>
    <a href="namespaceclanguml_1_1class__diagram.html" target="_top" title="class_diagram" xlink:actuate="onRequest" xlink:href="namespaceclanguml_1_1class__diagram.html" xlink:show="new" xlink:title="class_diagram" xlink:type="simple">
      <polygon fill="#FFFFFF" filter="url(#f1vcticjw81w38)" points="46,200.9531,162,200.9531,169,223.25,291,223.25,291,448.9531,46,448.9531,46,200.9531" style="stroke: #000000; stroke-width: 1.5;"/>
      <line style="stroke: #000000; stroke-width: 1.5;" x1="46" x2="169" y1="223.25" y2="223.25"/>
      <text fill="#000000" font-family="sans-serif" font-size="14" font-weight="bold" lengthAdjust="spacingAndGlyphs" textLength="110" x="50" y="215.9482">class_diagram</text>
    </a>
    <a href="namespaceclanguml_1_1include__diagram.html" target="_top" title="include_diagram" xlink:actuate="onRequest" xlink:href="namespaceclanguml_1_1include__diagram.html" xlink:show="new" xlink:title="include_diagram" xlink:type="simple">
      <polygon fill="#FFFFFF" filter="url(#f1vcticjw81w38)" points="315,87.9531,448,87.9531,455,110.25,560,110.25,560,304.9531,315,304.9531,315,87.9531" style="stroke: #000000; stroke-width: 1.5;"/>
      <line style="stroke: #000000; stroke-width: 1.5;" x1="315" x2="455" y1="110.25" y2="110.25"/>
      <text fill="#000000" font-family="sans-serif" font-size="14" font-weight="bold" lengthAdjust="spacingAndGlyphs" textLength="127" x="319" y="102.9482">include_diagram</text>
    </a>
    <a href="namespaceclanguml_1_1sequence__diagram.html" target="_top" title="sequence_diagram" xlink:actuate="onRequest" xlink:href="namespaceclanguml_1_1sequence__diagram.html" xlink:show="new" xlink:title="sequence_diagram" xlink:type="simple">
      <polygon fill="#FFFFFF" filter="url(#f1vcticjw81w38)" points="853,200.9531,1007,200.9531,1014,223.25,1098,223.25,1098,448.9531,853,448.9531,853,200.9531" style="stroke: #000000; stroke-width: 1.5;"/>
      <line style="stroke: #000000; stroke-width: 1.5;" x1="853" x2="1014" y1="223.25" y2="223.25"/>
      <text fill="#000000" font-family="sans-serif" font-size="14" font-weight="bold" lengthAdjust="spacingAndGlyphs" textLength="148" x="857" y="215.9482">sequence_diagram</text>
    </a>
    <a href="namespaceclanguml_1_1package__diagram.html" target="_top" title="package_diagram" xlink:actuate="onRequest" xlink:href="namespaceclanguml_1_1package__diagram.html" xlink:show="new" xlink:title="package_diagram" xlink:type="simple">
      <polygon fill="#FFFFFF" filter="url(#f1vcticjw81w38)" points="584,87.9531,726,87.9531,733,110.25,829,110.25,829,304.9531,584,304.9531,584,87.9531" style="stroke: #000000; stroke-width: 1.5;"/>
      <line style="stroke: #000000; stroke-width: 1.5;" x1="584" x2="733" y1="110.25" y2="110.25"/>
      <text fill="#000000" font-family="sans-serif" font-size="14" font-weight="bold" lengthAdjust="spacingAndGlyphs" textLength="136" x="588" y="102.9482">package_diagram</text>
    </a>
    <a href="namespaceclanguml_1_1common_1_1generators.html" target="_top" title="generators" xlink:actuate="onRequest" xlink:href="namespaceclanguml_1_1common_1_1generators.html" xlink:show="new" xlink:title="generators" xlink:type="simple">
      <polygon fill="#FFFFFF" filter="url(#f1vcticjw81w38)" points="583,379.9531,677,379.9531,684,402.25,691,402.25,691,432.5469,583,432.5469,583,379.9531" style="stroke: #000000; stroke-width: 1.5;"/>
      <line style="stroke: #000000; stroke-width: 1.5;" x1="583" x2="684" y1="402.25" y2="402.25"/>
      <text fill="#000000" font-family="sans-serif" font-size="14" font-weight="bold" lengthAdjust="spacingAndGlyphs" textLength="88" x="587" y="394.9482">generators</text>
    </a>
    <a href="namespaceclanguml_1_1common_1_1model.html" target="_top" title="model" xlink:actuate="onRequest" xlink:href="namespaceclanguml_1_1common_1_1model.html" xlink:show="new" xlink:title="model" xlink:type="simple">
      <polygon fill="#FFFFFF" filter="url(#f1vcticjw81w38)" points="478,492.9531,532,492.9531,539,515.25,546,515.25,546,545.5469,478,545.5469,478,492.9531" style="stroke: #000000; stroke-width: 1.5;"/>
      <line style="stroke: #000000; stroke-width: 1.5;" x1="478" x2="539" y1="515.25" y2="515.25"/>
      <text fill="#000000" font-family="sans-serif" font-size="14" font-weight="bold" lengthAdjust="spacingAndGlyphs" textLength="48" x="482" y="507.9482">model</text>
    </a>
    <a href="namespaceclanguml_1_1common_1_1visitor.html" target="_top" title="visitor" xlink:actuate="onRequest" xlink:href="namespaceclanguml_1_1common_1_1visitor.html" xlink:show="new" xlink:title="visitor" xlink:type="simple">
      <polygon fill="#FFFFFF" filter="url(#f1vcticjw81w38)" points="478.5,379.9531,533.5,379.9531,540.5,402.25,547.5,402.25,547.5,432.5469,478.5,432.5469,478.5,379.9531" style="stroke: #000000; stroke-width: 1.5;"/>
      <line style="stroke: #000000; stroke-width: 1.5;" x1="478.5" x2="540.5" y1="402.25" y2="402.25"/>
      <text fill="#000000" font-family="sans-serif" font-size="14" font-weight="bold" lengthAdjust="spacingAndGlyphs" textLength="49" x="482.5" y="394.9482">visitor</text>
    </a>
    <a href="namespaceclanguml_1_1class__diagram_1_1model.html" target="_top" title="model" xlink:actuate="onRequest" xlink:href="namespaceclanguml_1_1class__diagram_1_1model.html" xlink:show="new" xlink:title="model" xlink:type="simple">
      <polygon fill="#FFFFFF" filter="url(#f1vcticjw81w38)" points="207,379.9531,261,379.9531,268,402.25,275,402.25,275,432.5469,207,432.5469,207,379.9531" style="stroke: #000000; stroke-width: 1.5;"/>
      <line style="stroke: #000000; stroke-width: 1.5;" x1="207" x2="268" y1="402.25" y2="402.25"/>
      <text fill="#000000" font-family="sans-serif" font-size="14" font-weight="bold" lengthAdjust="spacingAndGlyphs" textLength="48" x="211" y="394.9482">model</text>
    </a>
    <a href="namespaceclanguml_1_1class__diagram_1_1visitor.html" target="_top" title="visitor" xlink:actuate="onRequest" xlink:href="namespaceclanguml_1_1class__diagram_1_1visitor.html" xlink:show="new" xlink:title="visitor" xlink:type="simple">
      <polygon fill="#FFFFFF" filter="url(#f1vcticjw81w38)" points="205.5,235.9531,260.5,235.9531,267.5,258.25,274.5,258.25,274.5,288.5469,205.5,288.5469,205.5,235.9531" style="stroke: #000000; stroke-width: 1.5;"/>
      <line style="stroke: #000000; stroke-width: 1.5;" x1="205.5" x2="267.5" y1="258.25" y2="258.25"/>
      <text fill="#000000" font-family="sans-serif" font-size="14" font-weight="bold" lengthAdjust="spacingAndGlyphs" textLength="49" x="209.5" y="250.9482">visitor</text>
    </a>
    <a href="namespaceclanguml_1_1class__diagram_1_1generators.html" target="_top" title="generators" xlink:actuate="onRequest" xlink:href="namespaceclanguml_1_1class__diagram_1_1generators.html" xlink:show="new" xlink:title="generators" xlink:type="simple">
      <polygon fill="#FFFFFF" filter="url(#f1vcticjw81w38)" points="62,235.9531,156,235.9531,163,258.25,170,258.25,170,288.5469,62,288.5469,62,235.9531" style="stroke: #000000; stroke-width: 1.5;"/>
      <line style="stroke: #000000; stroke-width: 1.5;" x1="62" x2="163" y1="258.25" y2="258.25"/>
      <text fill="#000000" font-family="sans-serif" font-size="14" font-weight="bold" lengthAdjust="spacingAndGlyphs" textLength="88" x="66" y="250.9482">generators</text>
    </a>
    <a href="namespaceclanguml_1_1config.html" target="_top" title="config" xlink:actuate="onRequest" xlink:href="namespaceclanguml_1_1config.html" xlink:show="new" xlink:title="config" xlink:type="simple">
      <polygon fill="#FFFFFF" filter="url(#f1vcticjw81w38)" points="758.5,492.9531,813.5,492.9531,820.5,515.25,827.5,515.25,827.5,545.5469,758.5,545.5469,758.5,492.9531" style="stroke: #000000; stroke-width: 1.5;"/>
      <line style="stroke: #000000; stroke-width: 1.5;" x1="758.5" x2="820.5" y1="515.25" y2="515.25"/>
      <text fill="#000000" font-family="sans-serif" font-size="14" font-weight="bold" lengthAdjust="spacingAndGlyphs" textLength="49" x="762.5" y="507.9482">config</text>
    </a>
    <a href="namespaceclanguml_1_1include__diagram_1_1model.html" target="_top" title="model" xlink:actuate="onRequest" xlink:href="namespaceclanguml_1_1include__diagram_1_1model.html" xlink:show="new" xlink:title="model" xlink:type="simple">
      <polygon fill="#FFFFFF" filter="url(#f1vcticjw81w38)" points="409,235.9531,463,235.9531,470,258.25,477,258.25,477,288.5469,409,288.5469,409,235.9531" style="stroke: #000000; stroke-width: 1.5;"/>
      <line style="stroke: #000000; stroke-width: 1.5;" x1="409" x2="470" y1="258.25" y2="258.25"/>
      <text fill="#000000" font-family="sans-serif" font-size="14" font-weight="bold" lengthAdjust="spacingAndGlyphs" textLength="48" x="413" y="250.9482">model</text>
    </a>
    <a href="namespaceclanguml_1_1include__diagram_1_1visitor.html" target="_top" title="visitor" xlink:actuate="onRequest" xlink:href="namespaceclanguml_1_1include__diagram_1_1visitor.html" xlink:show="new" xlink:title="visitor" xlink:type="simple">
      <polygon fill="#FFFFFF" filter="url(#f1vcticjw81w38)" points="474.5,122.9531,529.5,122.9531,536.5,145.25,543.5,145.25,543.5,175.5469,474.5,175.5469,474.5,122.9531" style="stroke: #000000; stroke-width: 1.5;"/>
      <line style="stroke: #000000; stroke-width: 1.5;" x1="474.5" x2="536.5" y1="145.25" y2="145.25"/>
      <text fill="#000000" font-family="sans-serif" font-size="14" font-weight="bold" lengthAdjust="spacingAndGlyphs" textLength="49" x="478.5" y="137.9482">visitor</text>
    </a>
    <a href="namespaceclanguml_1_1include__diagram_1_1generators.html" target="_top" title="generators" xlink:actuate="onRequest" xlink:href="namespaceclanguml_1_1include__diagram_1_1generators.html" xlink:show="new" xlink:title="generators" xlink:type="simple">
      <polygon fill="#FFFFFF" filter="url(#f1vcticjw81w38)" points="331,122.9531,425,122.9531,432,145.25,439,145.25,439,175.5469,331,175.5469,331,122.9531" style="stroke: #000000; stroke-width: 1.5;"/>
      <line style="stroke: #000000; stroke-width: 1.5;" x1="331" x2="432" y1="145.25" y2="145.25"/>
      <text fill="#000000" font-family="sans-serif" font-size="14" font-weight="bold" lengthAdjust="spacingAndGlyphs" textLength="88" x="335" y="137.9482">generators</text>
    </a>
    <a href="namespaceclanguml_1_1sequence__diagram_1_1model.html" target="_top" title="model" xlink:actuate="onRequest" xlink:href="namespaceclanguml_1_1sequence__diagram_1_1model.html" xlink:show="new" xlink:title="model" xlink:type="simple">
      <polygon fill="#FFFFFF" filter="url(#f1vcticjw81w38)" points="872,379.9531,926,379.9531,933,402.25,940,402.25,940,432.5469,872,432.5469,872,379.9531" style="stroke: #000000; stroke-width: 1.5;"/>
      <line style="stroke: #000000; stroke-width: 1.5;" x1="872" x2="933" y1="402.25" y2="402.25"/>
      <text fill="#000000" font-family="sans-serif" font-size="14" font-weight="bold" lengthAdjust="spacingAndGlyphs" textLength="48" x="876" y="394.9482">model</text>
    </a>
    <a href="namespaceclanguml_1_1sequence__diagram_1_1visitor.html" target="_top" title="visitor" xlink:actuate="onRequest" xlink:href="namespaceclanguml_1_1sequence__diagram_1_1visitor.html" xlink:show="new" xlink:title="visitor" xlink:type="simple">
      <polygon fill="#FFFFFF" filter="url(#f1vcticjw81w38)" points="1012.5,235.9531,1067.5,235.9531,1074.5,258.25,1081.5,258.25,1081.5,288.5469,1012.5,288.5469,1012.5,235.9531" style="stroke: #000000; stroke-width: 1.5;"/>
      <line style="stroke: #000000; stroke-width: 1.5;" x1="1012.5" x2="1074.5" y1="258.25" y2="258.25"/>
      <text fill="#000000" font-family="sans-serif" font-size="14" font-weight="bold" lengthAdjust="spacingAndGlyphs" textLength="49" x="1016.5" y="250.9482">visitor</text>
    </a>
    <a href="namespaceclanguml_1_1sequence__diagram_1_1generators.html" target="_top" title="generators" xlink:actuate="onRequest" xlink:href="namespaceclanguml_1_1sequence__diagram_1_1generators.html" xlink:show="new" xlink:title="generators" xlink:type="simple">
      <polygon fill="#FFFFFF" filter="url(#f1vcticjw81w38)" points="869,235.9531,963,235.9531,970,258.25,977,258.25,977,288.5469,869,288.5469,869,235.9531" style="stroke: #000000; stroke-width: 1.5;"/>
      <line style="stroke: #000000; stroke-width: 1.5;" x1="869" x2="970" y1="258.25" y2="258.25"/>
      <text fill="#000000" font-family="sans-serif" font-size="14" font-weight="bold" lengthAdjust="spacingAndGlyphs" textLength="88" x="873" y="250.9482">generators</text>
    </a>
    <a href="namespaceclanguml_1_1package__diagram_1_1model.html" target="_top" title="model" xlink:actuate="onRequest" xlink:href="namespaceclanguml_1_1package__diagram_1_1model.html" xlink:show="new" xlink:title="model" xlink:type="simple">
      <polygon fill="#FFFFFF" filter="url(#f1vcticjw81w38)" points="674,235.9531,728,235.9531,735,258.25,742,258.25,742,288.5469,674,288.5469,674,235.9531" style="stroke: #000000; stroke-width: 1.5;"/>
      <line style="stroke: #000000; stroke-width: 1.5;" x1="674" x2="735" y1="258.25" y2="258.25"/>
      <text fill="#000000" font-family="sans-serif" font-size="14" font-weight="bold" lengthAdjust="spacingAndGlyphs" textLength="48" x="678" y="250.9482">model</text>
    </a>
    <a href="namespaceclanguml_1_1package__diagram_1_1visitor.html" target="_top" title="visitor" xlink:actuate="onRequest" xlink:href="namespaceclanguml_1_1package__diagram_1_1visitor.html" xlink:show="new" xlink:title="visitor" xlink:type="simple">
      <polygon fill="#FFFFFF" filter="url(#f1vcticjw81w38)" points="743.5,122.9531,798.5,122.9531,805.5,145.25,812.5,145.25,812.5,175.5469,743.5,175.5469,743.5,122.9531" style="stroke: #000000; stroke-width: 1.5;"/>
      <line style="stroke: #000000; stroke-width: 1.5;" x1="743.5" x2="805.5" y1="145.25" y2="145.25"/>
      <text fill="#000000" font-family="sans-serif" font-size="14" font-weight="bold" lengthAdjust="spacingAndGlyphs" textLength="49" x="747.5" y="137.9482">visitor</text>
    </a>
    <a href="namespaceclanguml_1_1package__diagram_1_1generators.html" target="_top" title="generators" xlink:actuate="onRequest" xlink:href="namespaceclanguml_1_1package__diagram_1_1generators.html" xlink:show="new" xlink:title="generators" xlink:type="simple">
      <polygon fill="#FFFFFF" filter="url(#f1vcticjw81w38)" points="600,122.9531,694,122.9531,701,145.25,708,145.25,708,175.5469,600,175.5469,600,122.9531" style="stroke: #000000; stroke-width: 1.5;"/>
      <line style="stroke: #000000; stroke-width: 1.5;" x1="600" x2="701" y1="145.25" y2="145.25"/>
      <text fill="#000000" font-family="sans-serif" font-size="14" font-weight="bold" lengthAdjust="spacingAndGlyphs" textLength="88" x="604" y="137.9482">generators</text>
    </a>
    <path d="M734.157,485.6132 C734.215,485.6699 734.2731,485.7264 734.3312,485.783 C734.4474,485.896 734.5639,486.0088 734.6805,486.1213 C735.1469,486.5716 735.6164,487.0182 736.0887,487.461 C737.9777,489.2325 739.9109,490.9441 741.8731,492.5917 C745.7975,495.8869 749.8375,498.9256 753.87,501.6731 " fill="none" id="C_0000316605034920222648-&gt;C_0000111389493058790497" style="stroke: #A80036; stroke-width: 1.0; stroke-dasharray: 7.0,7.0;"/>
    <polygon fill="#A80036" points="758.41,504.6431,753.0746,496.3646,754.2279,501.9026,748.6899,503.0559,758.41,504.6431" style="stroke: #A80036; stroke-width: 1.0;"/>
    <path d="M775.19,492.8831 C765.31,482.9531 754.43,470.6531 748,456.9531 C743.345,447.0431 742.325,434.7831 740.2813,424.9444 C739.2594,420.025 737.9816,415.7109 735.8655,412.5986 C735.3364,411.8205 734.755,411.1175 734.1121,410.499 " fill="none" id="C_0000111389493058790497-&gt;C_0000316605034920222648" style="stroke: #A80036; stroke-width: 1.0; stroke-dasharray: 7.0,7.0;"/>
    <polygon fill="#A80036" points="734.1121,410.499,737.8244,419.6214,737.7152,413.9656,743.371,413.8564,734.1121,410.499" style="stroke: #A80036; stroke-width: 1.0;"/>
    <path d="M477.85,508.0331 C440.03,498.0631 379.31,480.9931 330,456.9531 C312.84,448.5831 295.22,436.3331 279.63,426.1131 " fill="none" id="C_0000083721806430512831-&gt;C_0000897124234964432620" style="stroke: #A80036; stroke-width: 1.0; stroke-dasharray: 7.0,7.0;"/>
    <polygon fill="#A80036" points="275.29,423.2831,280.6778,431.5276,279.4894,425.997,285.02,424.8086,275.29,423.2831" style="stroke: #A80036; stroke-width: 1.0;"/>
    <path d="M257.25,433.1131 C267.98,441.5531 281.63,450.4331 295,456.9531 C353.17,485.3131 427.22,503.9831 472.62,512.7131 " fill="none" id="C_0000897124234964432620-&gt;C_0000083721806430512831" style="stroke: #A80036; stroke-width: 1.0; stroke-dasharray: 7.0,7.0;"/>
    <polygon fill="#A80036" points="477.74,513.6831,469.6392,508.0817,472.8269,512.7548,468.1538,515.9426,477.74,513.6831" style="stroke: #A80036; stroke-width: 1.0;"/>
    <path d="M546.24,504.4731 C553.45,500.1231 560.73,495.7331 568,492.9531 C676.16,451.6431 715.5,491.5231 826,456.9531 C842.98,451.6431 860.61,443.6231 875.28,435.5731 " fill="none" id="C_0000083721806430512831-&gt;C_0002206969880830639264" style="stroke: #A80036; stroke-width: 1.0; stroke-dasharray: 7.0,7.0;"/>
    <polygon fill="#A80036" points="879.73,433.0831,869.9222,433.9817,875.3653,435.5222,873.8248,440.9653,879.73,433.0831" style="stroke: #A80036; stroke-width: 1.0;"/>
    <path d="M871.77,420.5931 C848.79,432.0531 819.02,448.1931 791,456.9531 C682.12,491.0131 642.33,452.7931 537.28,491.3531 " fill="none" id="C_0002206969880830639264-&gt;C_0000083721806430512831" style="stroke: #A80036; stroke-width: 1.0; stroke-dasharray: 7.0,7.0;"/>
    <polygon fill="#A80036" points="532.55,493.1231,542.3815,493.7083,537.2316,491.3675,539.5725,486.2177,532.55,493.1231" style="stroke: #A80036; stroke-width: 1.0;"/>
    <path d="M546.03,519.4531 C614.98,519.4531 683.93,519.4531 752.88,519.4531 " fill="none" id="C_0000083721806430512831-&gt;C_0000111389493058790497" style="stroke: #A80036; stroke-width: 1.0; stroke-dasharray: 7.0,7.0;"/>
    <polygon fill="#A80036" points="758.27,519.4531,749.27,515.4531,753.27,519.4531,749.27,523.4531,758.27,519.4531" style="stroke: #A80036; stroke-width: 1.0;"/>
    <path d="M758.27,519.4531 C689.32,519.4531 620.37,519.4531 551.42,519.4531 " fill="none" id="C_0000111389493058790497-&gt;C_0000083721806430512831" style="stroke: #A80036; stroke-width: 1.0; stroke-dasharray: 7.0,7.0;"/>
    <polygon fill="#A80036" points="546.03,519.4531,555.03,523.4531,551.03,519.4531,555.03,515.4531,546.03,519.4531" style="stroke: #A80036; stroke-width: 1.0;"/>
    <path d="M534.73,432.9731 C543.35,441.7031 553.87,450.8031 565,456.9531 C622,488.4231 644.22,475.6931 707,492.9531 C722.24,497.1431 738.92,502.0231 753.5,506.3831 " fill="none" id="C_0002059309769421024048-&gt;C_0000111389493058790497" style="stroke: #A80036; stroke-width: 1.0; stroke-dasharray: 7.0,7.0;"/>
    <polygon fill="#A80036" points="758.36,507.8431,750.8749,501.442,753.5677,506.4169,748.5929,509.1097,758.36,507.8431" style="stroke: #A80036; stroke-width: 1.0;"/>
    <path d="M512.77,433.1931 C512.62,449.4531 512.43,470.5331 512.28,487.6631 " fill="none" id="C_0002059309769421024048-&gt;C_0000083721806430512831" style="stroke: #A80036; stroke-width: 1.0; stroke-dasharray: 7.0,7.0;"/>
    <polygon fill="#A80036" points="512.23,492.8431,516.307,483.8777,512.2729,487.8433,508.3073,483.8092,512.23,492.8431" style="stroke: #A80036; stroke-width: 1.0;"/>
    <path d="M275.2,387.4431 C320.33,363.8231 403.03,325.5831 479.5,316.9531 C525.87,311.7231 643.13,311.7231 689.5,316.9531 C697.43,317.8431 701.38,315.2931 707,320.9531 C710.2163,324.1881 712.9397,327.8391 715.2416,331.764 C715.8171,332.7453 716.3663,333.7436 716.8902,334.7569 C717.1522,335.2635 717.4078,335.7739 717.6573,336.2877 C717.7197,336.4162 717.7816,336.5448 717.8432,336.6737 " fill="none" id="C_0000897124234964432620-&gt;C_0000316605034920222648" style="stroke: #A80036; stroke-width: 1.0; stroke-dasharray: 7.0,7.0;"/>
    <polygon fill="#A80036" points="717.8432,336.6737,717.5709,326.8286,715.687,332.1626,710.3531,330.2786,717.8432,336.6737" style="stroke: #A80036; stroke-width: 1.0;"/>
    <path d="M240.18,289.1731 C240.35,313.1931 240.6,349.0931 240.78,374.6431 " fill="none" id="C_0001862217944346803827-&gt;C_0000897124234964432620" style="stroke: #A80036; stroke-width: 1.0; stroke-dasharray: 7.0,7.0;"/>
    <polygon fill="#A80036" points="240.82,379.9331,244.7427,370.8992,240.7771,374.9333,236.743,370.9677,240.82,379.9331" style="stroke: #A80036; stroke-width: 1.0;"/>
    <path d="M270.44,289.2131 C283.34,298.5431 299.06,308.0031 315,312.9531 C337.66,319.9931 723.38,306.2531 742,320.9531 C792.31,360.6831 796.97,442.9831 795.39,487.7731 " fill="none" id="C_0001862217944346803827-&gt;C_0000111389493058790497" style="stroke: #A80036; stroke-width: 1.0; stroke-dasharray: 7.0,7.0;"/>
    <polygon fill="#A80036" points="795.18,492.7831,799.5628,483.9632,795.3947,487.7877,791.5702,483.6197,795.18,492.7831" style="stroke: #A80036; stroke-width: 1.0;"/>
    <path d="M274.82,287.9631 C287.25,296.3031 301.52,305.4131 315,312.9531 C343.79,329.0631 424.82,365.9631 473.84,387.9831 " fill="none" id="C_0001862217944346803827-&gt;C_0002059309769421024048" style="stroke: #A80036; stroke-width: 1.0; stroke-dasharray: 7.0,7.0;"/>
    <polygon fill="#A80036" points="478.48,390.0631,471.9036,382.7316,473.9175,388.0178,468.6312,390.0317,478.48,390.0631" style="stroke: #A80036; stroke-width: 1.0;"/>
    <path d="M265.35,289.0431 C274.27,298.6531 284.04,309.9331 292,320.9531 C332.65,377.2731 317.28,410.5831 369,456.9531 C398.8,483.6631 441.97,500.0531 473.07,509.1231 " fill="none" id="C_0001862217944346803827-&gt;C_0000083721806430512831" style="stroke: #A80036; stroke-width: 1.0; stroke-dasharray: 7.0,7.0;"/>
    <polygon fill="#A80036" points="477.96,510.5131,470.4052,504.1945,473.1524,509.1395,468.2074,511.8867,477.96,510.5131" style="stroke: #A80036; stroke-width: 1.0;"/>
    <path d="M270.45,289.1931 C283.34,298.5231 299.06,307.9931 315,312.9531 C335.8,319.4331 690.13,307.1731 707,320.9531 C710.6675,323.9494 713.7202,327.4877 716.2538,331.3892 C716.8871,332.3646 717.4881,333.3627 718.0581,334.3807 C718.3431,334.8897 718.6204,335.4037 718.8901,335.9223 C719.025,336.1816 719.1579,336.4421 719.2891,336.7037 " fill="none" id="C_0001862217944346803827-&gt;C_0000316605034920222648" style="stroke: #A80036; stroke-width: 1.0; stroke-dasharray: 7.0,7.0;"/>
    <polygon fill="#A80036" points="719.2891,336.7037,718.8322,326.8654,717.0486,332.2337,711.6803,330.4501,719.2891,336.7037" style="stroke: #A80036; stroke-width: 1.0;"/>
    <path d="M456.34,289.1031 C462.52,298.3031 470.79,307.6931 481,312.9531 C503.34,324.4631 687.66,304.9131 707,320.9531 C710.645,323.9769 713.6806,327.5359 716.2017,331.4528 C716.8319,332.432 717.43,333.4336 717.9974,334.4547 C718.2811,334.9653 718.5572,335.4808 718.8257,336.0008 C718.96,336.2609 719.0924,336.522 719.223,336.7843 " fill="none" id="C_0000545328881104248214-&gt;C_0000316605034920222648" style="stroke: #A80036; stroke-width: 1.0; stroke-dasharray: 7.0,7.0;"/>
    <polygon fill="#A80036" points="719.223,336.7843,718.7928,326.9448,716.9946,332.3083,711.6312,330.5101,719.223,336.7843" style="stroke: #A80036; stroke-width: 1.0;"/>
    <path d="M415.74,289.0931 C407.81,298.2931 400.16,309.2931 396,320.9531 C375.69,377.8831 364.84,405.1631 396,456.9531 C412.59,484.5331 446.18,500.4031 472.96,509.0831 " fill="none" id="C_0000545328881104248214-&gt;C_0000083721806430512831" style="stroke: #A80036; stroke-width: 1.0; stroke-dasharray: 7.0,7.0;"/>
    <polygon fill="#A80036" points="477.87,510.6231,470.4661,504.1283,473.0961,509.1366,468.0877,511.7666,477.87,510.6231" style="stroke: #A80036; stroke-width: 1.0;"/>
    <path d="M493.69,176.1931 C483.86,192.7331 471.06,214.2631 460.78,231.5531 " fill="none" id="C_0000299757823634161563-&gt;C_0000545328881104248214" style="stroke: #A80036; stroke-width: 1.0; stroke-dasharray: 7.0,7.0;"/>
    <polygon fill="#A80036" points="458.22,235.8431,466.2665,230.1639,460.7819,231.5494,459.3965,226.0648,458.22,235.8431" style="stroke: #A80036; stroke-width: 1.0;"/>
    <path d="M517.15,175.9831 C530.97,217.5331 559.86,296.7931 584,312.9531 C601.93,324.9531 762.48,305.9631 778,320.9531 C822.53,363.9731 811.84,444.1831 801.58,487.9831 " fill="none" id="C_0000299757823634161563-&gt;C_0000111389493058790497" style="stroke: #A80036; stroke-width: 1.0; stroke-dasharray: 7.0,7.0;"/>
    <polygon fill="#A80036" points="800.4,492.8831,806.3986,485.0718,801.5723,488.0225,798.6216,483.1962,800.4,492.8831" style="stroke: #A80036; stroke-width: 1.0;"/>
    <path d="M509.41,176.3031 C510.15,223.6831 511.73,324.1831 512.52,374.8731 " fill="none" id="C_0000299757823634161563-&gt;C_0002059309769421024048" style="stroke: #A80036; stroke-width: 1.0; stroke-dasharray: 7.0,7.0;"/>
    <polygon fill="#A80036" points="512.6,379.9131,516.471,370.8569,512.5286,374.9136,508.4718,370.9712,512.6,379.9131" style="stroke: #A80036; stroke-width: 1.0;"/>
    <path d="M871.68,406.4531 C847.52,406.4531 823.3575,406.4531 799.1937,406.4531 C787.1119,406.4531 775.0297,406.4531 762.9473,406.4531 C756.9062,406.4531 750.865,406.4531 744.8237,406.4531 C741.8031,406.4531 738.7825,406.4531 735.7619,406.4531 C735.3843,406.4531 735.0067,406.4531 734.6291,406.4531 C734.4404,406.4531 734.2516,406.4531 734.0628,406.4531 " fill="none" id="C_0002206969880830639264-&gt;C_0000316605034920222648" style="stroke: #A80036; stroke-width: 1.0; stroke-dasharray: 7.0,7.0;"/>
    <polygon fill="#A80036" points="734.0628,406.4531,743.0628,410.4531,739.0628,406.4531,743.0628,402.4531,734.0628,406.4531" style="stroke: #A80036; stroke-width: 1.0;"/>
    <path d="M888.12,433.0431 C882.09,441.0231 875.08,449.6331 868,456.9531 C856.95,468.3631 843.86,479.7131 831.73,489.5031 " fill="none" id="C_0002206969880830639264-&gt;C_0000111389493058790497" style="stroke: #A80036; stroke-width: 1.0; stroke-dasharray: 7.0,7.0;"/>
    <polygon fill="#A80036" points="827.66,492.7631,837.1832,490.2516,831.5602,489.6344,832.1773,484.0113,827.66,492.7631" style="stroke: #A80036; stroke-width: 1.0;"/>
    <path d="M1026.67,288.9631 C1017.73,298.2631 1006.43,307.7631 994,312.9531 C952.13,330.4231 830.22,299.9631 790,320.9531 C769.44,331.6781 753.615,352.3156 742.845,370.5094 C740.1525,375.0578 737.7759,379.4535 735.7203,383.5034 C735.2064,384.5159 734.7126,385.5068 734.2388,386.473 C734.1796,386.5938 734.1207,386.7142 734.0622,386.8342 " fill="none" id="C_0000351520758190157237-&gt;C_0000316605034920222648" style="stroke: #A80036; stroke-width: 1.0; stroke-dasharray: 7.0,7.0;"/>
    <polygon fill="#A80036" points="734.0622,386.8342,741.605,380.5013,736.2557,382.341,734.4159,376.9917,734.0622,386.8342" style="stroke: #A80036; stroke-width: 1.0;"/>
    <path d="M1025.57,288.9931 C1016.71,297.9531 1005.76,307.2031 994,312.9531 C973.78,322.8431 961.87,307.2731 944,320.9531 C927.07,333.9131 917.49,356.1031 912.18,374.4931 " fill="none" id="C_0000351520758190157237-&gt;C_0002206969880830639264" style="stroke: #A80036; stroke-width: 1.0; stroke-dasharray: 7.0,7.0;"/>
    <polygon fill="#A80036" points="910.79,379.5631,917.0133,371.9296,912.1032,374.7386,909.2941,369.8285,910.79,379.5631" style="stroke: #A80036; stroke-width: 1.0;"/>
    <path d="M1041.68,289.1031 C1031.89,330.0631 1007.29,410.3731 957,456.9531 C922.34,489.0531 869.35,504.8431 833.04,512.2931 " fill="none" id="C_0000351520758190157237-&gt;C_0000111389493058790497" style="stroke: #A80036; stroke-width: 1.0; stroke-dasharray: 7.0,7.0;"/>
    <polygon fill="#A80036" points="827.81,513.3331,837.416,515.5066,832.7145,512.3608,835.8603,507.6593,827.81,513.3331" style="stroke: #A80036; stroke-width: 1.0;"/>
    <path d="M1026.37,289.1131 C1017.47,298.3131 1006.27,307.7031 994,312.9531 C965.35,325.2031 881.79,306.8531 854,320.9531 C784.17,356.3831 809.42,417.1231 742,456.9531 C668.71,500.2531 631.82,461.6631 550.92,492.7731 " fill="none" id="C_0000351520758190157237-&gt;C_0000083721806430512831" style="stroke: #A80036; stroke-width: 1.0; stroke-dasharray: 7.0,7.0;"/>
    <polygon fill="#A80036" points="546.03,494.7131,555.8708,495.1106,550.6773,492.8685,552.9194,487.675,546.03,494.7131" style="stroke: #A80036; stroke-width: 1.0;"/>
    <path d="M1026.73,289.0931 C1017.79,298.4131 1006.49,307.8931 994,312.9531 C971.91,321.9031 585.7,309.1331 565,320.9531 C544.59,332.6131 531.17,355.8431 523.08,375.0031 " fill="none" id="C_0000351520758190157237-&gt;C_0002059309769421024048" style="stroke: #A80036; stroke-width: 1.0; stroke-dasharray: 7.0,7.0;"/>
    <polygon fill="#A80036" points="521.14,379.7731,528.24,372.9475,523.0265,375.1427,520.8313,369.9291,521.14,379.7731" style="stroke: #A80036; stroke-width: 1.0;"/>
    <path d="M711.26,289.1731 C712.5375,299.2431 714.0788,311.3988 715.6766,324.0037 C716.076,327.155 716.479,330.3343 716.8823,333.5162 C716.9831,334.3117 717.084,335.1073 717.1848,335.9027 C717.21,336.1015 717.2352,336.3003 717.2604,336.4991 " fill="none" id="C_0001569810617781744082-&gt;C_0000316605034920222648" style="stroke: #A80036; stroke-width: 1.0; stroke-dasharray: 7.0,7.0;"/>
    <polygon fill="#A80036" points="717.2604,336.4991,720.097,327.0676,716.6317,331.5388,712.1605,328.0735,717.2604,336.4991" style="stroke: #A80036; stroke-width: 1.0;"/>
    <path d="M673.56,284.2231 C654.14,294.8331 629.02,306.7731 605,312.9531 C589.48,316.9431 472.01,309.3131 461,320.9531 C419.46,364.8631 440.49,400.0931 461,456.9531 C465.2,468.6031 472.67,479.6031 480.62,488.9931 " fill="none" id="C_0001569810617781744082-&gt;C_0000083721806430512831" style="stroke: #A80036; stroke-width: 1.0; stroke-dasharray: 7.0,7.0;"/>
    <polygon fill="#A80036" points="484.05,492.9131,481.154,483.4997,480.7656,489.1432,475.1221,488.7548,484.05,492.9131" style="stroke: #A80036; stroke-width: 1.0;"/>
    <path d="M761.76,176.1931 C751.34,192.7331 737.76,214.2631 726.86,231.5531 " fill="none" id="C_0000183895282854293183-&gt;C_0001569810617781744082" style="stroke: #A80036; stroke-width: 1.0; stroke-dasharray: 7.0,7.0;"/>
    <polygon fill="#A80036" points="724.15,235.8431,732.3386,230.3707,726.8205,231.616,725.5752,226.0979,724.15,235.8431" style="stroke: #A80036; stroke-width: 1.0;"/>
    <path d="M812.51,152.5031 C891.36,157.5431 1079.37,171.6931 1098,192.9531 C1175.31,281.2131 1172.32,366.1531 1098,456.9531 C1064.92,497.3631 907.81,511.8131 832.91,516.4631 " fill="none" id="C_0000183895282854293183-&gt;C_0000111389493058790497" style="stroke: #A80036; stroke-width: 1.0; stroke-dasharray: 7.0,7.0;"/>
    <polygon fill="#A80036" points="827.66,516.7831,836.8834,520.2369,832.651,516.4837,836.4043,512.2513,827.66,516.7831" style="stroke: #A80036; stroke-width: 1.0;"/>
    <path d="M743.37,168.3731 C737.34,171.1331 731.05,173.7731 725,175.9531 C695.28,186.6331 682.61,175.9431 656,192.9531 C598.45,229.7431 620.62,281.4931 560,312.9531 C547.16,319.6231 439.91,310.4131 430,320.9531 C388.59,364.9831 402.97,402.8931 430,456.9531 C439.17,475.2831 456.68,489.5731 473.18,499.7431 " fill="none" id="C_0000183895282854293183-&gt;C_0000083721806430512831" style="stroke: #A80036; stroke-width: 1.0; stroke-dasharray: 7.0,7.0;"/>
    <polygon fill="#A80036" points="477.8,502.4931,472.1208,494.4466,473.5062,499.9312,468.0217,501.3166,477.8,502.4931" style="stroke: #A80036; stroke-width: 1.0;"/>
    <path d="M783.94,176.0231 C790.68,212.3431 796.38,278.2831 759,312.9531 C743.18,327.6231 583.61,310.0431 565,320.9531 C544.72,332.8331 531.29,356.0531 523.17,375.1531 " fill="none" id="C_0000183895282854293183-&gt;C_0002059309769421024048" style="stroke: #A80036; stroke-width: 1.0; stroke-dasharray: 7.0,7.0;"/>
    <polygon fill="#A80036" points="521.21,379.9131,528.31,373.0875,523.0965,375.2827,520.9013,370.0691,521.21,379.9131" style="stroke: #A80036; stroke-width: 1.0;"/>
  </g>
</svg>
