<svg xmlns="http://www.w3.org/2000/svg" xmlns:xlink="http://www.w3.org/1999/xlink" contentScriptType="application/ecmascript" contentStyleType="text/css" height="613px" preserveAspectRatio="none" style="width:1234px;height:613px;" version="1.1" viewBox="0 0 1234 613" width="1234px" zoomAndPan="magnify">
  <defs>
    <filter height="300%" id="f14j12d1zeqz8g" width="300%" x="-1" y="-1">
      <feGaussianBlur result="blurOut" stdDeviation="2.0"/>
      <feColorMatrix in="blurOut" result="blurOut2" type="matrix" values="0 0 0 0 0 0 0 0 0 0 0 0 0 0 0 0 0 0 .4 0"/>
      <feOffset dx="4.0" dy="4.0" in="blurOut2" result="blurOut3"/>
      <feBlend in="SourceGraphic" in2="blurOut3" mode="normal"/>
    </filter>
    <style type="text/css">a:hover { text-decoration: underline; }</style>
  </defs>
  <g>
    <text fill="#000000" font-family="sans-serif" font-size="18" lengthAdjust="spacingAndGlyphs" textLength="436" x="392" y="16.708">High-level namespace dependencies in clang-uml</text>
    <a href="namespaceclanguml.html" target="_top" title="clanguml" xlink:actuate="onRequest" xlink:href="namespaceclanguml.html" xlink:show="new" xlink:title="clanguml" xlink:type="simple">
      <polygon fill="#FFFFFF" filter="url(#f14j12d1zeqz8g)" points="22,44.9531,98,44.9531,105,67.25,1182,67.25,1182,601.9531,22,601.9531,22,44.9531" style="stroke: #000000; stroke-width: 1.5;"/>
      <line style="stroke: #000000; stroke-width: 1.5;" x1="22" x2="105" y1="67.25" y2="67.25"/>
      <text fill="#000000" font-family="sans-serif" font-size="14" font-weight="bold" lengthAdjust="spacingAndGlyphs" textLength="70" x="26" y="59.9482">clanguml</text>
    </a>
    <a href="namespaceclanguml_1_1common.html" target="_top" title="common" xlink:actuate="onRequest" xlink:href="namespaceclanguml_1_1common.html" xlink:show="new" xlink:title="common" xlink:type="simple">
      <polygon fill="#FFFFFF" filter="url(#f14j12d1zeqz8g)" points="491,336.9531,564,336.9531,571,359.25,771,359.25,771,569.9531,491,569.9531,491,336.9531" style="stroke: #000000; stroke-width: 1.5;"/>
      <line style="stroke: #000000; stroke-width: 1.5;" x1="491" x2="571" y1="359.25" y2="359.25"/>
      <text fill="#000000" font-family="sans-serif" font-size="14" font-weight="bold" lengthAdjust="spacingAndGlyphs" textLength="67" x="495" y="351.9482">common</text>
    </a>
    <a href="namespaceclanguml_1_1class__diagram.html" target="_top" title="class_diagram" xlink:actuate="onRequest" xlink:href="namespaceclanguml_1_1class__diagram.html" xlink:show="new" xlink:title="class_diagram" xlink:type="simple">
      <polygon fill="#FFFFFF" filter="url(#f14j12d1zeqz8g)" points="46,200.9531,162,200.9531,169,223.25,291,223.25,291,448.9531,46,448.9531,46,200.9531" style="stroke: #000000; stroke-width: 1.5;"/>
      <line style="stroke: #000000; stroke-width: 1.5;" x1="46" x2="169" y1="223.25" y2="223.25"/>
      <text fill="#000000" font-family="sans-serif" font-size="14" font-weight="bold" lengthAdjust="spacingAndGlyphs" textLength="110" x="50" y="215.9482">class_diagram</text>
    </a>
    <a href="namespaceclanguml_1_1include__diagram.html" target="_top" title="include_diagram" xlink:actuate="onRequest" xlink:href="namespaceclanguml_1_1include__diagram.html" xlink:show="new" xlink:title="include_diagram" xlink:type="simple">
      <polygon fill="#FFFFFF" filter="url(#f14j12d1zeqz8g)" points="315,87.9531,448,87.9531,455,110.25,560,110.25,560,304.9531,315,304.9531,315,87.9531" style="stroke: #000000; stroke-width: 1.5;"/>
      <line style="stroke: #000000; stroke-width: 1.5;" x1="315" x2="455" y1="110.25" y2="110.25"/>
      <text fill="#000000" font-family="sans-serif" font-size="14" font-weight="bold" lengthAdjust="spacingAndGlyphs" textLength="127" x="319" y="102.9482">include_diagram</text>
    </a>
    <a href="namespaceclanguml_1_1sequence__diagram.html" target="_top" title="sequence_diagram" xlink:actuate="onRequest" xlink:href="namespaceclanguml_1_1sequence__diagram.html" xlink:show="new" xlink:title="sequence_diagram" xlink:type="simple">
      <polygon fill="#FFFFFF" filter="url(#f14j12d1zeqz8g)" points="900,200.9531,1054,200.9531,1061,223.25,1145,223.25,1145,448.9531,900,448.9531,900,200.9531" style="stroke: #000000; stroke-width: 1.5;"/>
      <line style="stroke: #000000; stroke-width: 1.5;" x1="900" x2="1061" y1="223.25" y2="223.25"/>
      <text fill="#000000" font-family="sans-serif" font-size="14" font-weight="bold" lengthAdjust="spacingAndGlyphs" textLength="148" x="904" y="215.9482">sequence_diagram</text>
    </a>
    <a href="namespaceclanguml_1_1package__diagram.html" target="_top" title="package_diagram" xlink:actuate="onRequest" xlink:href="namespaceclanguml_1_1package__diagram.html" xlink:show="new" xlink:title="package_diagram" xlink:type="simple">
      <polygon fill="#FFFFFF" filter="url(#f14j12d1zeqz8g)" points="631,87.9531,773,87.9531,780,110.25,876,110.25,876,304.9531,631,304.9531,631,87.9531" style="stroke: #000000; stroke-width: 1.5;"/>
      <line style="stroke: #000000; stroke-width: 1.5;" x1="631" x2="780" y1="110.25" y2="110.25"/>
      <text fill="#000000" font-family="sans-serif" font-size="14" font-weight="bold" lengthAdjust="spacingAndGlyphs" textLength="136" x="635" y="102.9482">package_diagram</text>
    </a>
    <a href="namespaceclanguml_1_1common_1_1generators.html" target="_top" title="generators" xlink:actuate="onRequest" xlink:href="namespaceclanguml_1_1common_1_1generators.html" xlink:show="new" xlink:title="generators" xlink:type="simple">
      <polygon fill="#FFFFFF" filter="url(#f14j12d1zeqz8g)" points="620,379.9531,714,379.9531,721,402.25,728,402.25,728,432.5469,620,432.5469,620,379.9531" style="stroke: #000000; stroke-width: 1.5;"/>
      <line style="stroke: #000000; stroke-width: 1.5;" x1="620" x2="721" y1="402.25" y2="402.25"/>
      <text fill="#000000" font-family="sans-serif" font-size="14" font-weight="bold" lengthAdjust="spacingAndGlyphs" textLength="88" x="624" y="394.9482">generators</text>
    </a>
    <a href="namespaceclanguml_1_1common_1_1model.html" target="_top" title="model" xlink:actuate="onRequest" xlink:href="namespaceclanguml_1_1common_1_1model.html" xlink:show="new" xlink:title="model" xlink:type="simple">
      <polygon fill="#FFFFFF" filter="url(#f14j12d1zeqz8g)" points="516,492.9531,570,492.9531,577,515.25,584,515.25,584,545.5469,516,545.5469,516,492.9531" style="stroke: #000000; stroke-width: 1.5;"/>
      <line style="stroke: #000000; stroke-width: 1.5;" x1="516" x2="577" y1="515.25" y2="515.25"/>
      <text fill="#000000" font-family="sans-serif" font-size="14" font-weight="bold" lengthAdjust="spacingAndGlyphs" textLength="48" x="520" y="507.9482">model</text>
    </a>
    <a href="namespaceclanguml_1_1common_1_1visitor.html" target="_top" title="visitor" xlink:actuate="onRequest" xlink:href="namespaceclanguml_1_1common_1_1visitor.html" xlink:show="new" xlink:title="visitor" xlink:type="simple">
      <polygon fill="#FFFFFF" filter="url(#f14j12d1zeqz8g)" points="515.5,379.9531,570.5,379.9531,577.5,402.25,584.5,402.25,584.5,432.5469,515.5,432.5469,515.5,379.9531" style="stroke: #000000; stroke-width: 1.5;"/>
      <line style="stroke: #000000; stroke-width: 1.5;" x1="515.5" x2="577.5" y1="402.25" y2="402.25"/>
      <text fill="#000000" font-family="sans-serif" font-size="14" font-weight="bold" lengthAdjust="spacingAndGlyphs" textLength="49" x="519.5" y="394.9482">visitor</text>
    </a>
    <a href="namespaceclanguml_1_1class__diagram_1_1model.html" target="_top" title="model" xlink:actuate="onRequest" xlink:href="namespaceclanguml_1_1class__diagram_1_1model.html" xlink:show="new" xlink:title="model" xlink:type="simple">
      <polygon fill="#FFFFFF" filter="url(#f14j12d1zeqz8g)" points="207,379.9531,261,379.9531,268,402.25,275,402.25,275,432.5469,207,432.5469,207,379.9531" style="stroke: #000000; stroke-width: 1.5;"/>
      <line style="stroke: #000000; stroke-width: 1.5;" x1="207" x2="268" y1="402.25" y2="402.25"/>
      <text fill="#000000" font-family="sans-serif" font-size="14" font-weight="bold" lengthAdjust="spacingAndGlyphs" textLength="48" x="211" y="394.9482">model</text>
    </a>
    <a href="namespaceclanguml_1_1class__diagram_1_1visitor.html" target="_top" title="visitor" xlink:actuate="onRequest" xlink:href="namespaceclanguml_1_1class__diagram_1_1visitor.html" xlink:show="new" xlink:title="visitor" xlink:type="simple">
      <polygon fill="#FFFFFF" filter="url(#f14j12d1zeqz8g)" points="205.5,235.9531,260.5,235.9531,267.5,258.25,274.5,258.25,274.5,288.5469,205.5,288.5469,205.5,235.9531" style="stroke: #000000; stroke-width: 1.5;"/>
      <line style="stroke: #000000; stroke-width: 1.5;" x1="205.5" x2="267.5" y1="258.25" y2="258.25"/>
      <text fill="#000000" font-family="sans-serif" font-size="14" font-weight="bold" lengthAdjust="spacingAndGlyphs" textLength="49" x="209.5" y="250.9482">visitor</text>
    </a>
    <a href="namespaceclanguml_1_1class__diagram_1_1generators.html" target="_top" title="generators" xlink:actuate="onRequest" xlink:href="namespaceclanguml_1_1class__diagram_1_1generators.html" xlink:show="new" xlink:title="generators" xlink:type="simple">
      <polygon fill="#FFFFFF" filter="url(#f14j12d1zeqz8g)" points="62,235.9531,156,235.9531,163,258.25,170,258.25,170,288.5469,62,288.5469,62,235.9531" style="stroke: #000000; stroke-width: 1.5;"/>
      <line style="stroke: #000000; stroke-width: 1.5;" x1="62" x2="163" y1="258.25" y2="258.25"/>
      <text fill="#000000" font-family="sans-serif" font-size="14" font-weight="bold" lengthAdjust="spacingAndGlyphs" textLength="88" x="66" y="250.9482">generators</text>
    </a>
    <a href="namespaceclanguml_1_1config.html" target="_top" title="config" xlink:actuate="onRequest" xlink:href="namespaceclanguml_1_1config.html" xlink:show="new" xlink:title="config" xlink:type="simple">
      <polygon fill="#FFFFFF" filter="url(#f14j12d1zeqz8g)" points="816.5,492.9531,871.5,492.9531,878.5,515.25,885.5,515.25,885.5,545.5469,816.5,545.5469,816.5,492.9531" style="stroke: #000000; stroke-width: 1.5;"/>
      <line style="stroke: #000000; stroke-width: 1.5;" x1="816.5" x2="878.5" y1="515.25" y2="515.25"/>
      <text fill="#000000" font-family="sans-serif" font-size="14" font-weight="bold" lengthAdjust="spacingAndGlyphs" textLength="49" x="820.5" y="507.9482">config</text>
    </a>
    <a href="namespaceclanguml_1_1include__diagram_1_1model.html" target="_top" title="model" xlink:actuate="onRequest" xlink:href="namespaceclanguml_1_1include__diagram_1_1model.html" xlink:show="new" xlink:title="model" xlink:type="simple">
      <polygon fill="#FFFFFF" filter="url(#f14j12d1zeqz8g)" points="436,235.9531,490,235.9531,497,258.25,504,258.25,504,288.5469,436,288.5469,436,235.9531" style="stroke: #000000; stroke-width: 1.5;"/>
      <line style="stroke: #000000; stroke-width: 1.5;" x1="436" x2="497" y1="258.25" y2="258.25"/>
      <text fill="#000000" font-family="sans-serif" font-size="14" font-weight="bold" lengthAdjust="spacingAndGlyphs" textLength="48" x="440" y="250.9482">model</text>
    </a>
    <a href="namespaceclanguml_1_1include__diagram_1_1visitor.html" target="_top" title="visitor" xlink:actuate="onRequest" xlink:href="namespaceclanguml_1_1include__diagram_1_1visitor.html" xlink:show="new" xlink:title="visitor" xlink:type="simple">
      <polygon fill="#FFFFFF" filter="url(#f14j12d1zeqz8g)" points="474.5,122.9531,529.5,122.9531,536.5,145.25,543.5,145.25,543.5,175.5469,474.5,175.5469,474.5,122.9531" style="stroke: #000000; stroke-width: 1.5;"/>
      <line style="stroke: #000000; stroke-width: 1.5;" x1="474.5" x2="536.5" y1="145.25" y2="145.25"/>
      <text fill="#000000" font-family="sans-serif" font-size="14" font-weight="bold" lengthAdjust="spacingAndGlyphs" textLength="49" x="478.5" y="137.9482">visitor</text>
    </a>
    <a href="namespaceclanguml_1_1include__diagram_1_1generators.html" target="_top" title="generators" xlink:actuate="onRequest" xlink:href="namespaceclanguml_1_1include__diagram_1_1generators.html" xlink:show="new" xlink:title="generators" xlink:type="simple">
      <polygon fill="#FFFFFF" filter="url(#f14j12d1zeqz8g)" points="331,122.9531,425,122.9531,432,145.25,439,145.25,439,175.5469,331,175.5469,331,122.9531" style="stroke: #000000; stroke-width: 1.5;"/>
      <line style="stroke: #000000; stroke-width: 1.5;" x1="331" x2="432" y1="145.25" y2="145.25"/>
      <text fill="#000000" font-family="sans-serif" font-size="14" font-weight="bold" lengthAdjust="spacingAndGlyphs" textLength="88" x="335" y="137.9482">generators</text>
    </a>
    <a href="namespaceclanguml_1_1sequence__diagram_1_1model.html" target="_top" title="model" xlink:actuate="onRequest" xlink:href="namespaceclanguml_1_1sequence__diagram_1_1model.html" xlink:show="new" xlink:title="model" xlink:type="simple">
      <polygon fill="#FFFFFF" filter="url(#f14j12d1zeqz8g)" points="946,379.9531,1000,379.9531,1007,402.25,1014,402.25,1014,432.5469,946,432.5469,946,379.9531" style="stroke: #000000; stroke-width: 1.5;"/>
      <line style="stroke: #000000; stroke-width: 1.5;" x1="946" x2="1007" y1="402.25" y2="402.25"/>
      <text fill="#000000" font-family="sans-serif" font-size="14" font-weight="bold" lengthAdjust="spacingAndGlyphs" textLength="48" x="950" y="394.9482">model</text>
    </a>
    <a href="namespaceclanguml_1_1sequence__diagram_1_1visitor.html" target="_top" title="visitor" xlink:actuate="onRequest" xlink:href="namespaceclanguml_1_1sequence__diagram_1_1visitor.html" xlink:show="new" xlink:title="visitor" xlink:type="simple">
      <polygon fill="#FFFFFF" filter="url(#f14j12d1zeqz8g)" points="1059.5,235.9531,1114.5,235.9531,1121.5,258.25,1128.5,258.25,1128.5,288.5469,1059.5,288.5469,1059.5,235.9531" style="stroke: #000000; stroke-width: 1.5;"/>
      <line style="stroke: #000000; stroke-width: 1.5;" x1="1059.5" x2="1121.5" y1="258.25" y2="258.25"/>
      <text fill="#000000" font-family="sans-serif" font-size="14" font-weight="bold" lengthAdjust="spacingAndGlyphs" textLength="49" x="1063.5" y="250.9482">visitor</text>
    </a>
    <a href="namespaceclanguml_1_1sequence__diagram_1_1generators.html" target="_top" title="generators" xlink:actuate="onRequest" xlink:href="namespaceclanguml_1_1sequence__diagram_1_1generators.html" xlink:show="new" xlink:title="generators" xlink:type="simple">
      <polygon fill="#FFFFFF" filter="url(#f14j12d1zeqz8g)" points="916,235.9531,1010,235.9531,1017,258.25,1024,258.25,1024,288.5469,916,288.5469,916,235.9531" style="stroke: #000000; stroke-width: 1.5;"/>
      <line style="stroke: #000000; stroke-width: 1.5;" x1="916" x2="1017" y1="258.25" y2="258.25"/>
      <text fill="#000000" font-family="sans-serif" font-size="14" font-weight="bold" lengthAdjust="spacingAndGlyphs" textLength="88" x="920" y="250.9482">generators</text>
    </a>
    <a href="namespaceclanguml_1_1package__diagram_1_1model.html" target="_top" title="model" xlink:actuate="onRequest" xlink:href="namespaceclanguml_1_1package__diagram_1_1model.html" xlink:show="new" xlink:title="model" xlink:type="simple">
      <polygon fill="#FFFFFF" filter="url(#f14j12d1zeqz8g)" points="791,235.9531,845,235.9531,852,258.25,859,258.25,859,288.5469,791,288.5469,791,235.9531" style="stroke: #000000; stroke-width: 1.5;"/>
      <line style="stroke: #000000; stroke-width: 1.5;" x1="791" x2="852" y1="258.25" y2="258.25"/>
      <text fill="#000000" font-family="sans-serif" font-size="14" font-weight="bold" lengthAdjust="spacingAndGlyphs" textLength="48" x="795" y="250.9482">model</text>
    </a>
    <a href="namespaceclanguml_1_1package__diagram_1_1visitor.html" target="_top" title="visitor" xlink:actuate="onRequest" xlink:href="namespaceclanguml_1_1package__diagram_1_1visitor.html" xlink:show="new" xlink:title="visitor" xlink:type="simple">
      <polygon fill="#FFFFFF" filter="url(#f14j12d1zeqz8g)" points="790.5,122.9531,845.5,122.9531,852.5,145.25,859.5,145.25,859.5,175.5469,790.5,175.5469,790.5,122.9531" style="stroke: #000000; stroke-width: 1.5;"/>
      <line style="stroke: #000000; stroke-width: 1.5;" x1="790.5" x2="852.5" y1="145.25" y2="145.25"/>
      <text fill="#000000" font-family="sans-serif" font-size="14" font-weight="bold" lengthAdjust="spacingAndGlyphs" textLength="49" x="794.5" y="137.9482">visitor</text>
    </a>
    <a href="namespaceclanguml_1_1package__diagram_1_1generators.html" target="_top" title="generators" xlink:actuate="onRequest" xlink:href="namespaceclanguml_1_1package__diagram_1_1generators.html" xlink:show="new" xlink:title="generators" xlink:type="simple">
      <polygon fill="#FFFFFF" filter="url(#f14j12d1zeqz8g)" points="647,122.9531,741,122.9531,748,145.25,755,145.25,755,175.5469,647,175.5469,647,122.9531" style="stroke: #000000; stroke-width: 1.5;"/>
      <line style="stroke: #000000; stroke-width: 1.5;" x1="647" x2="748" y1="145.25" y2="145.25"/>
      <text fill="#000000" font-family="sans-serif" font-size="14" font-weight="bold" lengthAdjust="spacingAndGlyphs" textLength="88" x="651" y="137.9482">generators</text>
    </a>
    <path d="M515.68,506.2731 C477.2,495.1431 414.74,477.3531 362,456.9531 C334.42,446.2831 304.03,431.2531 279.91,420.5631 " fill="none" id="C_0000083721806430512831-&gt;C_0000897124234964432620" style="stroke: #A80036; stroke-width: 1.0; stroke-dasharray: 7.0,7.0;"/>
    <polygon fill="#A80036" points="275.17,418.4831,281.8121,425.7551,279.7508,420.4872,285.0187,418.4259,275.17,418.4831" style="stroke: #A80036; stroke-width: 1.0;"/>
    <path d="M274,432.9831 C289.92,441.2231 309.05,450.0131 327,456.9531 C389.3,481.0531 465.18,501.5131 511.01,511.6431 " fill="none" id="C_0000897124234964432620-&gt;C_0000083721806430512831" style="stroke: #A80036; stroke-width: 1.0; stroke-dasharray: 7.0,7.0;"/>
    <polygon fill="#A80036" points="515.9,512.7131,507.9495,506.9003,511.0131,511.6557,506.2576,514.7193,515.9,512.7131" style="stroke: #A80036; stroke-width: 1.0;"/>
    <path d="M584.19,504.3531 C591.4,499.9831 598.69,495.6231 606,492.9531 C745.02,442.2531 800.42,513.9031 937,456.9531 C948.36,452.2131 959.29,444.6731 967.89,436.8831 " fill="none" id="C_0000083721806430512831-&gt;C_0002206969880830639264" style="stroke: #A80036; stroke-width: 1.0; stroke-dasharray: 7.0,7.0;"/>
    <polygon fill="#A80036" points="971.92,433.0531,962.638,436.3461,968.2929,436.4946,968.1444,442.1495,971.92,433.0531" style="stroke: #A80036; stroke-width: 1.0;"/>
    <path d="M945.77,427.9231 C932.65,438.4331 917.74,450.3931 902,456.9531 C767.02,513.2331 711.33,443.9131 575.42,491.3831 " fill="none" id="C_0002206969880830639264-&gt;C_0000083721806430512831" style="stroke: #A80036; stroke-width: 1.0; stroke-dasharray: 7.0,7.0;"/>
    <polygon fill="#A80036" points="570.55,493.1231,580.372,493.8498,575.2564,491.4351,577.6712,486.3195,570.55,493.1231" style="stroke: #A80036; stroke-width: 1.0;"/>
    <path d="M584.1,519.4531 C659.7,519.4531 735.29,519.4531 810.89,519.4531 " fill="none" id="C_0000083721806430512831-&gt;C_0000111389493058790497" style="stroke: #A80036; stroke-width: 1.0; stroke-dasharray: 7.0,7.0;"/>
    <polygon fill="#A80036" points="816.33,519.4531,807.33,515.4531,811.33,519.4531,807.33,523.4531,816.33,519.4531" style="stroke: #A80036; stroke-width: 1.0;"/>
    <path d="M816.33,519.4531 C740.74,519.4531 665.14,519.4531 589.54,519.4531 " fill="none" id="C_0000111389493058790497-&gt;C_0000083721806430512831" style="stroke: #A80036; stroke-width: 1.0; stroke-dasharray: 7.0,7.0;"/>
    <polygon fill="#A80036" points="584.1,519.4531,593.1,523.4531,589.1,519.4531,593.1,515.4531,584.1,519.4531" style="stroke: #A80036; stroke-width: 1.0;"/>
    <path d="M571.71,433.0031 C580.33,441.7431 590.85,450.8431 602,456.9531 C606.64,459.5031 741.97,492.2431 811.13,508.8831 " fill="none" id="C_0002059309769421024048-&gt;C_0000111389493058790497" style="stroke: #A80036; stroke-width: 1.0; stroke-dasharray: 7.0,7.0;"/>
    <polygon fill="#A80036" points="816.39,510.1531,808.5747,504.1598,811.5286,508.9841,806.7042,511.938,816.39,510.1531" style="stroke: #A80036; stroke-width: 1.0;"/>
    <path d="M550,433.1931 C550,449.4531 550,470.5331 550,487.6631 " fill="none" id="C_0002059309769421024048-&gt;C_0000083721806430512831" style="stroke: #A80036; stroke-width: 1.0; stroke-dasharray: 7.0,7.0;"/>
    <polygon fill="#A80036" points="550,492.8431,554.0257,483.8546,550.0143,487.8431,546.0257,483.8317,550,492.8431" style="stroke: #A80036; stroke-width: 1.0;"/>
    <path d="M275.22,390.3431 C326.33,367.4531 426.3,327.1331 516.5,316.9531 C562.87,311.7231 680.13,311.7231 726.5,316.9531 C734.43,317.8431 738.38,315.2931 744,320.9531 C747.2163,324.1881 749.9397,327.8391 752.2416,331.764 C752.8171,332.7453 753.3663,333.7436 753.8902,334.7569 C754.1522,335.2635 754.4078,335.7739 754.6573,336.2877 C754.7197,336.4162 754.7816,336.5448 754.8432,336.6737 " fill="none" id="C_0000897124234964432620-&gt;C_0000316605034920222648" style="stroke: #A80036; stroke-width: 1.0; stroke-dasharray: 7.0,7.0;"/>
    <polygon fill="#A80036" points="754.8432,336.6737,754.5709,326.8286,752.687,332.1626,747.3531,330.2786,754.8432,336.6737" style="stroke: #A80036; stroke-width: 1.0;"/>
    <path d="M240.18,289.1731 C240.35,313.1931 240.6,349.0931 240.78,374.6431 " fill="none" id="C_0001862217944346803827-&gt;C_0000897124234964432620" style="stroke: #A80036; stroke-width: 1.0; stroke-dasharray: 7.0,7.0;"/>
    <polygon fill="#A80036" points="240.82,379.9331,244.7427,370.8992,240.7771,374.9333,236.743,370.9677,240.82,379.9331" style="stroke: #A80036; stroke-width: 1.0;"/>
    <path d="M270.08,288.9631 C283.04,298.3831 298.9,307.9731 315,312.9531 C339.63,320.5831 758.01,305.9931 779,320.9531 C832.94,359.4031 846.59,442.6131 849.96,487.7831 " fill="none" id="C_0001862217944346803827-&gt;C_0000111389493058790497" style="stroke: #A80036; stroke-width: 1.0; stroke-dasharray: 7.0,7.0;"/>
    <polygon fill="#A80036" points="850.31,492.8331,853.6831,483.5799,849.967,487.8449,845.702,484.1288,850.31,492.8331" style="stroke: #A80036; stroke-width: 1.0;"/>
    <path d="M272.33,289.0431 C284.99,297.8831 300.05,307.0531 315,312.9531 C334.71,320.7331 341.73,314.7831 362,320.9531 C415.46,337.2231 473.65,365.0831 510.91,384.3431 " fill="none" id="C_0001862217944346803827-&gt;C_0002059309769421024048" style="stroke: #A80036; stroke-width: 1.0; stroke-dasharray: 7.0,7.0;"/>
    <polygon fill="#A80036" points="515.35,386.6431,509.2065,378.9452,510.9127,384.3386,505.5193,386.0448,515.35,386.6431" style="stroke: #A80036; stroke-width: 1.0;"/>
    <path d="M263.79,289.1731 C300.6,328.1531 374.59,403.3331 446,456.9531 C466.43,472.2931 490.96,486.9531 511.06,498.1131 " fill="none" id="C_0001862217944346803827-&gt;C_0000083721806430512831" style="stroke: #A80036; stroke-width: 1.0; stroke-dasharray: 7.0,7.0;"/>
    <polygon fill="#A80036" points="515.54,500.5831,509.5955,492.7306,511.1632,498.1658,505.7279,499.7335,515.54,500.5831" style="stroke: #A80036; stroke-width: 1.0;"/>
    <path d="M270.44,289.2131 C283.34,298.5431 299.06,308.0031 315,312.9531 C337.77,320.0231 725.53,305.8831 744,320.9531 C747.67,323.9469 750.7245,327.4833 753.2595,331.3835 C753.8932,332.3585 754.4945,333.3563 755.0648,334.374 C755.3499,334.8829 755.6273,335.3968 755.8972,335.9152 C756.0321,336.1745 756.1651,336.4349 756.2963,336.6964 " fill="none" id="C_0001862217944346803827-&gt;C_0000316605034920222648" style="stroke: #A80036; stroke-width: 1.0; stroke-dasharray: 7.0,7.0;"/>
    <polygon fill="#A80036" points="756.2963,336.6964,755.8368,326.8583,754.0546,332.2271,748.6858,330.4449,756.2963,336.6964" style="stroke: #A80036; stroke-width: 1.0;"/>
    <path d="M816.18,502.1131 C807.245,496.9581 797.705,490.5981 789.0213,483.0619 C784.6794,479.2938 780.5516,475.2316 776.8205,470.8789 C774.9549,468.7026 773.1886,466.4536 771.5442,464.1325 C771.4414,463.9874 771.3391,463.8421 771.2373,463.6965 C771.1864,463.6236 771.1356,463.5508 771.085,463.4778 " fill="none" id="C_0000111389493058790497-&gt;C_0000316605034920222648" style="stroke: #A80036; stroke-width: 1.0; stroke-dasharray: 7.0,7.0;"/>
    <polygon fill="#A80036" points="771.085,463.4778,772.933,473.1517,773.9369,467.5847,779.504,468.5886,771.085,463.4778" style="stroke: #A80036; stroke-width: 1.0;"/>
    <path d="M483.33,289.1131 C489.52,298.3131 497.79,307.7031 508,312.9531 C531.33,324.9531 723.79,304.2131 744,320.9531 C747.6475,323.9744 750.685,327.5316 753.2074,331.4471 C753.838,332.4259 754.4364,333.4272 755.0041,334.4481 C755.288,334.9585 755.5641,335.4739 755.8328,335.9938 C755.9671,336.2537 756.0996,336.5148 756.2302,336.777 " fill="none" id="C_0000545328881104248214-&gt;C_0000316605034920222648" style="stroke: #A80036; stroke-width: 1.0; stroke-dasharray: 7.0,7.0;"/>
    <polygon fill="#A80036" points="756.2302,336.777,755.7974,326.9377,754.0007,332.3016,748.6367,330.5049,756.2302,336.777" style="stroke: #A80036; stroke-width: 1.0;"/>
    <path d="M463.15,289.1831 C454.32,327.8531 443.06,402.2531 470,456.9531 C478.77,474.7631 495.46,488.8631 511.33,499.0431 " fill="none" id="C_0000545328881104248214-&gt;C_0000083721806430512831" style="stroke: #A80036; stroke-width: 1.0; stroke-dasharray: 7.0,7.0;"/>
    <polygon fill="#A80036" points="515.78,501.8031,510.2557,493.6495,511.536,499.1596,506.0259,500.4399,515.78,501.8031" style="stroke: #A80036; stroke-width: 1.0;"/>
    <path d="M499.95,176.1931 C494.2,192.5931 486.71,213.8931 480.66,231.1131 " fill="none" id="C_0000299757823634161563-&gt;C_0000545328881104248214" style="stroke: #A80036; stroke-width: 1.0; stroke-dasharray: 7.0,7.0;"/>
    <polygon fill="#A80036" points="479,235.8431,485.7583,228.6789,480.6581,231.1261,478.211,226.0259,479,235.8431" style="stroke: #A80036; stroke-width: 1.0;"/>
    <path d="M527.88,176.1831 C561.2,221.5031 627.27,310.9931 631,312.9531 C649.8,322.8431 806.22,306.7331 822,320.9531 C868.39,362.7531 863.84,443.5431 857.08,487.7431 " fill="none" id="C_0000299757823634161563-&gt;C_0000111389493058790497" style="stroke: #A80036; stroke-width: 1.0; stroke-dasharray: 7.0,7.0;"/>
    <polygon fill="#A80036" points="856.25,492.9431,861.6133,484.6827,857.0349,488.0051,853.7125,483.4268,856.25,492.9431" style="stroke: #A80036; stroke-width: 1.0;"/>
    <path d="M516.94,176.3831 C518.43,181.8231 519.87,187.5531 521,192.9531 C534.33,256.9231 543.01,333.0531 547.15,374.6031 " fill="none" id="C_0000299757823634161563-&gt;C_0002059309769421024048" style="stroke: #A80036; stroke-width: 1.0; stroke-dasharray: 7.0,7.0;"/>
    <polygon fill="#A80036" points="547.66,379.7431,550.7393,370.388,547.1597,374.7682,542.7794,371.1886,547.66,379.7431" style="stroke: #A80036; stroke-width: 1.0;"/>
    <path d="M945.74,406.4531 C915.355,406.4531 884.9675,406.4531 854.58,406.4531 C839.3863,406.4531 824.1925,406.4531 808.9991,406.4531 C801.4023,406.4531 793.8057,406.4531 786.2092,406.4531 C782.4109,406.4531 778.6127,406.4531 774.8145,406.4531 C773.8649,406.4531 772.9154,406.4531 771.9658,406.4531 C771.7285,406.4531 771.4911,406.4531 771.2537,406.4531 " fill="none" id="C_0002206969880830639264-&gt;C_0000316605034920222648" style="stroke: #A80036; stroke-width: 1.0; stroke-dasharray: 7.0,7.0;"/>
    <polygon fill="#A80036" points="771.2537,406.4531,780.2537,410.4531,776.2537,406.4531,780.2537,402.4531,771.2537,406.4531" style="stroke: #A80036; stroke-width: 1.0;"/>
    <path d="M950.08,433.1931 C930.54,450.0131 904.99,471.9931 884.74,489.4231 " fill="none" id="C_0002206969880830639264-&gt;C_0000111389493058790497" style="stroke: #A80036; stroke-width: 1.0; stroke-dasharray: 7.0,7.0;"/>
    <polygon fill="#A80036" points="880.76,492.8431,890.1912,490.0055,884.5502,489.5821,884.9736,483.9411,880.76,492.8431" style="stroke: #A80036; stroke-width: 1.0;"/>
    <path d="M1073.37,289.1131 C1064.47,298.3231 1053.27,307.7031 1041,312.9531 C1012.14,325.2931 929.94,311.5431 900,320.9531 C866.41,331.5181 832.6975,352.1531 807.12,370.3856 C794.3313,379.5019 783.5763,388.0175 775.8872,394.3734 C774.9261,395.1679 774.0128,395.9287 773.1495,396.6526 C772.7179,397.0146 772.2987,397.3674 771.8923,397.7106 C771.689,397.8822 771.489,398.0514 771.2922,398.2182 " fill="none" id="C_0000351520758190157237-&gt;C_0000316605034920222648" style="stroke: #A80036; stroke-width: 1.0; stroke-dasharray: 7.0,7.0;"/>
    <polygon fill="#A80036" points="771.2922,398.2182,780.7446,395.452,775.107,394.9859,775.573,389.3483,771.2922,398.2182" style="stroke: #A80036; stroke-width: 1.0;"/>
    <path d="M1070.69,289.2031 C1062.02,297.6531 1051.67,306.5131 1041,312.9531 C1031.73,318.5431 1025.98,313.6431 1018,320.9531 C1002.49,335.1531 992.92,356.8831 987.25,374.7531 " fill="none" id="C_0000351520758190157237-&gt;C_0002206969880830639264" style="stroke: #A80036; stroke-width: 1.0; stroke-dasharray: 7.0,7.0;"/>
    <polygon fill="#A80036" points="985.76,379.6731,992.208,372.2285,987.2164,374.8899,984.5549,369.8983,985.76,379.6731" style="stroke: #A80036; stroke-width: 1.0;"/>
    <path d="M1092.74,289.1031 C1089.35,330.0831 1076.88,410.4031 1031,456.9531 C993.51,494.9931 931.54,509.5131 890.99,515.0531 " fill="none" id="C_0000351520758190157237-&gt;C_0000111389493058790497" style="stroke: #A80036; stroke-width: 1.0; stroke-dasharray: 7.0,7.0;"/>
    <polygon fill="#A80036" points="885.66,515.7431,895.0997,518.5525,890.6185,515.1001,894.0708,510.6189,885.66,515.7431" style="stroke: #A80036; stroke-width: 1.0;"/>
    <path d="M1073.34,289.0331 C1064.42,298.2231 1053.23,307.6231 1041,312.9531 C1017.92,323.0131 950.47,309.6031 928,320.9531 C857.08,356.7631 881.26,418.0331 812,456.9531 C725.56,505.5331 683.24,457.6431 588.84,492.8231 " fill="none" id="C_0000351520758190157237-&gt;C_0000083721806430512831" style="stroke: #A80036; stroke-width: 1.0; stroke-dasharray: 7.0,7.0;"/>
    <polygon fill="#A80036" points="584.01,494.6731,593.8463,495.1697,588.6756,492.8754,590.9699,487.7047,584.01,494.6731" style="stroke: #A80036; stroke-width: 1.0;"/>
    <path d="M1073.73,289.1031 C1064.79,298.4231 1053.49,307.8931 1041,312.9531 C1018.39,322.1131 623.18,308.8631 602,320.9531 C581.59,332.6031 568.16,355.8331 560.08,375.0031 " fill="none" id="C_0000351520758190157237-&gt;C_0002059309769421024048" style="stroke: #A80036; stroke-width: 1.0; stroke-dasharray: 7.0,7.0;"/>
    <polygon fill="#A80036" points="558.13,379.7731,565.23,372.9475,560.0165,375.1427,557.8213,369.9291,558.13,379.7731" style="stroke: #A80036; stroke-width: 1.0;"/>
    <path d="M813.77,289.1731 C804.975,309.3131 792.5375,337.7956 782.1737,361.5306 C779.5828,367.4644 777.1215,373.1014 774.8791,378.2372 C773.7579,380.8051 772.6914,383.2477 771.6908,385.5394 C771.5658,385.8258 771.4417,386.1099 771.3187,386.3916 C771.2572,386.5325 771.196,386.6727 771.135,386.8124 " fill="none" id="C_0001569810617781744082-&gt;C_0000316605034920222648" style="stroke: #A80036; stroke-width: 1.0; stroke-dasharray: 7.0,7.0;"/>
    <polygon fill="#A80036" points="771.135,386.8124,778.402,380.1647,773.1357,382.2301,771.0704,376.9637,771.135,386.8124" style="stroke: #A80036; stroke-width: 1.0;"/>
    <path d="M826.99,289.0031 C828.7,330.5631 825.47,412.6231 779,456.9531 C717.72,515.4131 669.84,462.3731 588.91,492.8031 " fill="none" id="C_0001569810617781744082-&gt;C_0000083721806430512831" style="stroke: #A80036; stroke-width: 1.0; stroke-dasharray: 7.0,7.0;"/>
    <polygon fill="#A80036" points="584.03,494.7231,593.8697,495.1468,588.6822,492.8909,590.9381,487.7033,584.03,494.7231" style="stroke: #A80036; stroke-width: 1.0;"/>
    <path d="M825,176.1931 C825,192.4531 825,213.5331 825,230.6631 " fill="none" id="C_0000183895282854293183-&gt;C_0001569810617781744082" style="stroke: #A80036; stroke-width: 1.0; stroke-dasharray: 7.0,7.0;"/>
    <polygon fill="#A80036" points="825,235.8431,829.0257,226.8546,825.0143,230.8431,821.0257,226.8317,825,235.8431" style="stroke: #A80036; stroke-width: 1.0;"/>
    <path d="M859.51,152.5031 C938.36,157.5431 1126.37,171.6931 1145,192.9531 C1222.31,281.2131 1218.99,365.8831 1145,456.9531 C1113.41,495.8331 963.63,510.9931 890.86,516.1431 " fill="none" id="C_0000183895282854293183-&gt;C_0000111389493058790497" style="stroke: #A80036; stroke-width: 1.0; stroke-dasharray: 7.0,7.0;"/>
    <polygon fill="#A80036" points="885.76,516.4931,895.0228,519.8399,890.7472,516.1359,894.4512,511.8603,885.76,516.4931" style="stroke: #A80036; stroke-width: 1.0;"/>
    <path d="M790.32,169.2331 C784.34,171.8531 778.09,174.2331 772,175.9531 C736.1,186.0831 634.54,170.1831 605,192.9531 C559.89,227.7331 604.64,277.5731 560,312.9531 C538.23,330.2131 516.35,300.0831 498,320.9531 C458.09,366.3431 477.22,400.1931 498,456.9531 C502.25,468.5531 509.76,479.4731 517.78,488.8031 " fill="none" id="C_0000183895282854293183-&gt;C_0000083721806430512831" style="stroke: #A80036; stroke-width: 1.0; stroke-dasharray: 7.0,7.0;"/>
    <polygon fill="#A80036" points="521.23,492.7031,518.2404,483.319,517.9082,488.9661,512.2611,488.6339,521.23,492.7031" style="stroke: #A80036; stroke-width: 1.0;"/>
    <path d="M790.13,171.3531 C743.35,200.5931 659.51,257.3131 602,320.9531 C587.33,337.1931 574.41,358.1231 565.12,375.0931 " fill="none" id="C_0000183895282854293183-&gt;C_0002059309769421024048" style="stroke: #A80036; stroke-width: 1.0; stroke-dasharray: 7.0,7.0;"/>
    <polygon fill="#A80036" points="562.6,379.7631,570.4062,373.7579,564.9833,375.3677,563.3735,369.9447,562.6,379.7631" style="stroke: #A80036; stroke-width: 1.0;"/>
  </g>
</svg>
