<svg xmlns="http://www.w3.org/2000/svg" xmlns:xlink="http://www.w3.org/1999/xlink" contentStyleType="text/css" height="607px" preserveAspectRatio="none" style="width:1323px;height:607px;background:#FFFFFF;" version="1.1" viewBox="0 0 1323 607" width="1323px" zoomAndPan="magnify">
  <defs>
    <style type="text/css">a:hover { text-decoration: underline; }</style>
  </defs>
  <g>
    <text fill="#000000" font-family="sans-serif" font-size="14" font-weight="bold" lengthAdjust="spacing" textLength="390.4893" x="459.4004" y="22.9951">High-level namespace dependencies in clang-uml</text>
    <g id="cluster_C_0017394171196056322719">
      <a href="namespaceclanguml.html" target="_top" title="clanguml" xlink:actuate="onRequest" xlink:href="namespaceclanguml.html" xlink:show="new" xlink:title="clanguml" xlink:type="simple">
        <path d="M8.5,43.2969 L81.3867,43.2969 A3.75,3.75 0 0 1 83.8867,45.7969 L90.8867,65.5938 L1273.5,65.5938 A2.5,2.5 0 0 1 1276,68.0938 L1276,597.7969 A2.5,2.5 0 0 1 1273.5,600.2969 L8.5,600.2969 A2.5,2.5 0 0 1 6,597.7969 L6,45.7969 A2.5,2.5 0 0 1 8.5,43.2969 " fill="none" style="stroke:#000000;stroke-width:1.5;"/>
        <line style="stroke:#000000;stroke-width:1.5;" x1="6" x2="90.8867" y1="65.5938" y2="65.5938"/>
        <text fill="#000000" font-family="sans-serif" font-size="14" font-weight="bold" lengthAdjust="spacing" textLength="71.8867" x="10" y="58.292">clanguml</text>
      </a>
    </g>
    <g id="cluster_C_0002532840279361781187">
      <a href="namespaceclanguml_1_1common.html" target="_top" title="common" xlink:actuate="onRequest" xlink:href="namespaceclanguml_1_1common.html" xlink:show="new" xlink:title="common" xlink:type="simple">
        <path d="M578.5,335.2969 L646.1777,335.2969 A3.75,3.75 0 0 1 648.6777,337.7969 L655.6777,357.5938 L852.5,357.5938 A2.5,2.5 0 0 1 855,360.0938 L855,565.7969 A2.5,2.5 0 0 1 852.5,568.2969 L578.5,568.2969 A2.5,2.5 0 0 1 576,565.7969 L576,337.7969 A2.5,2.5 0 0 1 578.5,335.2969 " fill="none" style="stroke:#000000;stroke-width:1.5;"/>
        <line style="stroke:#000000;stroke-width:1.5;" x1="576" x2="655.6777" y1="357.5938" y2="357.5938"/>
        <text fill="#000000" font-family="sans-serif" font-size="14" font-weight="bold" lengthAdjust="spacing" textLength="66.6777" x="580" y="350.292">common</text>
      </a>
    </g>
    <g id="cluster_C_0017921336289613804855">
      <a href="namespaceclanguml_1_1class__diagram.html" target="_top" title="class_diagram" xlink:actuate="onRequest" xlink:href="namespaceclanguml_1_1class__diagram.html" xlink:show="new" xlink:title="class_diagram" xlink:type="simple">
        <path d="M300.5,199.2969 L412.9395,199.2969 A3.75,3.75 0 0 1 415.4395,201.7969 L422.4395,221.5938 L539.5,221.5938 A2.5,2.5 0 0 1 542,224.0938 L542,444.7969 A2.5,2.5 0 0 1 539.5,447.2969 L300.5,447.2969 A2.5,2.5 0 0 1 298,444.7969 L298,201.7969 A2.5,2.5 0 0 1 300.5,199.2969 " fill="none" style="stroke:#000000;stroke-width:1.5;"/>
        <line style="stroke:#000000;stroke-width:1.5;" x1="298" x2="422.4395" y1="221.5938" y2="221.5938"/>
        <text fill="#000000" font-family="sans-serif" font-size="14" font-weight="bold" lengthAdjust="spacing" textLength="111.4395" x="302" y="214.292">class_diagram</text>
      </a>
    </g>
    <g id="cluster_C_0018317418947569564933">
      <a href="namespaceclanguml_1_1include__diagram.html" target="_top" title="include_diagram" xlink:actuate="onRequest" xlink:href="namespaceclanguml_1_1include__diagram.html" xlink:show="new" xlink:title="include_diagram" xlink:type="simple">
        <path d="M32.5,86.2969 L163.0752,86.2969 A3.75,3.75 0 0 1 165.5752,88.7969 L172.5752,108.5938 L271.5,108.5938 A2.5,2.5 0 0 1 274,111.0938 L274,300.7969 A2.5,2.5 0 0 1 271.5,303.2969 L32.5,303.2969 A2.5,2.5 0 0 1 30,300.7969 L30,88.7969 A2.5,2.5 0 0 1 32.5,86.2969 " fill="none" style="stroke:#000000;stroke-width:1.5;"/>
        <line style="stroke:#000000;stroke-width:1.5;" x1="30" x2="172.5752" y1="108.5938" y2="108.5938"/>
        <text fill="#000000" font-family="sans-serif" font-size="14" font-weight="bold" lengthAdjust="spacing" textLength="129.5752" x="34" y="101.292">include_diagram</text>
      </a>
    </g>
    <g id="cluster_C_0012174902727661033893">
      <a href="namespaceclanguml_1_1sequence__diagram.html" target="_top" title="sequence_diagram" xlink:actuate="onRequest" xlink:href="namespaceclanguml_1_1sequence__diagram.html" xlink:show="new" xlink:title="sequence_diagram" xlink:type="simple">
        <path d="M997.5,199.2969 L1145.8008,199.2969 A3.75,3.75 0 0 1 1148.3008,201.7969 L1155.3008,221.5938 L1236.5,221.5938 A2.5,2.5 0 0 1 1239,224.0938 L1239,444.7969 A2.5,2.5 0 0 1 1236.5,447.2969 L997.5,447.2969 A2.5,2.5 0 0 1 995,444.7969 L995,201.7969 A2.5,2.5 0 0 1 997.5,199.2969 " fill="none" style="stroke:#000000;stroke-width:1.5;"/>
        <line style="stroke:#000000;stroke-width:1.5;" x1="995" x2="1155.3008" y1="221.5938" y2="221.5938"/>
        <text fill="#000000" font-family="sans-serif" font-size="14" font-weight="bold" lengthAdjust="spacing" textLength="147.3008" x="999" y="214.292">sequence_diagram</text>
      </a>
    </g>
    <g id="cluster_C_0009413724933622552589">
      <a href="namespaceclanguml_1_1package__diagram.html" target="_top" title="package_diagram" xlink:actuate="onRequest" xlink:href="namespaceclanguml_1_1package__diagram.html" xlink:show="new" xlink:title="package_diagram" xlink:type="simple">
        <path d="M729.5,86.2969 L868.7705,86.2969 A3.75,3.75 0 0 1 871.2705,88.7969 L878.2705,108.5938 L968.5,108.5938 A2.5,2.5 0 0 1 971,111.0938 L971,300.7969 A2.5,2.5 0 0 1 968.5,303.2969 L729.5,303.2969 A2.5,2.5 0 0 1 727,300.7969 L727,88.7969 A2.5,2.5 0 0 1 729.5,86.2969 " fill="none" style="stroke:#000000;stroke-width:1.5;"/>
        <line style="stroke:#000000;stroke-width:1.5;" x1="727" x2="878.2705" y1="108.5938" y2="108.5938"/>
        <text fill="#000000" font-family="sans-serif" font-size="14" font-weight="bold" lengthAdjust="spacing" textLength="138.2705" x="731" y="101.292">package_diagram</text>
      </a>
    </g>
    <a href="namespaceclanguml_1_1common_1_1model.html" target="_top" title="model" xlink:actuate="onRequest" xlink:href="namespaceclanguml_1_1common_1_1model.html" xlink:show="new" xlink:title="model" xlink:type="simple">
      <path d="M683,491.2969 L732.5215,491.2969 A3.75,3.75 0 0 1 735.0215,493.7969 L742.0215,513.5938 L746.5215,513.5938 A2.5,2.5 0 0 1 749.0215,516.0938 L749.0215,541.3906 A2.5,2.5 0 0 1 746.5215,543.8906 L683,543.8906 A2.5,2.5 0 0 1 680.5,541.3906 L680.5,493.7969 A2.5,2.5 0 0 1 683,491.2969 " fill="#F1F1F1" style="stroke:#181818;stroke-width:0.5;"/>
      <line style="stroke:#181818;stroke-width:0.5;" x1="680.5" x2="742.0215" y1="513.5938" y2="513.5938"/>
      <text fill="#000000" font-family="sans-serif" font-size="14" font-weight="bold" lengthAdjust="spacing" textLength="48.5215" x="684.5" y="506.292">model</text>
    </a>
    <a href="namespaceclanguml_1_1common_1_1visitor.html" target="_top" title="visitor" xlink:actuate="onRequest" xlink:href="namespaceclanguml_1_1common_1_1visitor.html" xlink:show="new" xlink:title="visitor" xlink:type="simple">
      <path d="M744.5,378.2969 L795.7715,378.2969 A3.75,3.75 0 0 1 798.2715,380.7969 L805.2715,400.5938 L809.7715,400.5938 A2.5,2.5 0 0 1 812.2715,403.0938 L812.2715,428.3906 A2.5,2.5 0 0 1 809.7715,430.8906 L744.5,430.8906 A2.5,2.5 0 0 1 742,428.3906 L742,380.7969 A2.5,2.5 0 0 1 744.5,378.2969 " fill="#F1F1F1" style="stroke:#181818;stroke-width:0.5;"/>
      <line style="stroke:#181818;stroke-width:0.5;" x1="742" x2="805.2715" y1="400.5938" y2="400.5938"/>
      <text fill="#000000" font-family="sans-serif" font-size="14" font-weight="bold" lengthAdjust="spacing" textLength="50.2715" x="746" y="393.292">visitor</text>
    </a>
    <a href="namespaceclanguml_1_1common_1_1generators.html" target="_top" title="generators" xlink:actuate="onRequest" xlink:href="namespaceclanguml_1_1common_1_1generators.html" xlink:show="new" xlink:title="generators" xlink:type="simple">
      <path d="M602,378.2969 L689.8779,378.2969 A3.75,3.75 0 0 1 692.3779,380.7969 L699.3779,400.5938 L703.8779,400.5938 A2.5,2.5 0 0 1 706.3779,403.0938 L706.3779,428.3906 A2.5,2.5 0 0 1 703.8779,430.8906 L602,430.8906 A2.5,2.5 0 0 1 599.5,428.3906 L599.5,380.7969 A2.5,2.5 0 0 1 602,378.2969 " fill="#F1F1F1" style="stroke:#181818;stroke-width:0.5;"/>
      <line style="stroke:#181818;stroke-width:0.5;" x1="599.5" x2="699.3779" y1="400.5938" y2="400.5938"/>
      <text fill="#000000" font-family="sans-serif" font-size="14" font-weight="bold" lengthAdjust="spacing" textLength="86.8779" x="603.5" y="393.292">generators</text>
    </a>
    <a href="namespaceclanguml_1_1config.html" target="_top" title="config" xlink:actuate="onRequest" xlink:href="namespaceclanguml_1_1config.html" xlink:show="new" xlink:title="config" xlink:type="simple">
      <path d="M888,491.2969 L937.7949,491.2969 A3.75,3.75 0 0 1 940.2949,493.7969 L947.2949,513.5938 L951.7949,513.5938 A2.5,2.5 0 0 1 954.2949,516.0938 L954.2949,541.3906 A2.5,2.5 0 0 1 951.7949,543.8906 L888,543.8906 A2.5,2.5 0 0 1 885.5,541.3906 L885.5,493.7969 A2.5,2.5 0 0 1 888,491.2969 " fill="#F1F1F1" style="stroke:#181818;stroke-width:0.5;"/>
      <line style="stroke:#181818;stroke-width:0.5;" x1="885.5" x2="947.2949" y1="513.5938" y2="513.5938"/>
      <text fill="#000000" font-family="sans-serif" font-size="14" font-weight="bold" lengthAdjust="spacing" textLength="48.7949" x="889.5" y="506.292">config</text>
    </a>
    <a href="namespaceclanguml_1_1class__diagram_1_1model.html" target="_top" title="model" xlink:actuate="onRequest" xlink:href="namespaceclanguml_1_1class__diagram_1_1model.html" xlink:show="new" xlink:title="model" xlink:type="simple">
      <path d="M423,378.2969 L472.5215,378.2969 A3.75,3.75 0 0 1 475.0215,380.7969 L482.0215,400.5938 L486.5215,400.5938 A2.5,2.5 0 0 1 489.0215,403.0938 L489.0215,428.3906 A2.5,2.5 0 0 1 486.5215,430.8906 L423,430.8906 A2.5,2.5 0 0 1 420.5,428.3906 L420.5,380.7969 A2.5,2.5 0 0 1 423,378.2969 " fill="#F1F1F1" style="stroke:#181818;stroke-width:0.5;"/>
      <line style="stroke:#181818;stroke-width:0.5;" x1="420.5" x2="482.0215" y1="400.5938" y2="400.5938"/>
      <text fill="#000000" font-family="sans-serif" font-size="14" font-weight="bold" lengthAdjust="spacing" textLength="48.5215" x="424.5" y="393.292">model</text>
    </a>
    <a href="namespaceclanguml_1_1class__diagram_1_1visitor.html" target="_top" title="visitor" xlink:actuate="onRequest" xlink:href="namespaceclanguml_1_1class__diagram_1_1visitor.html" xlink:show="new" xlink:title="visitor" xlink:type="simple">
      <path d="M458.5,234.2969 L509.7715,234.2969 A3.75,3.75 0 0 1 512.2715,236.7969 L519.2715,256.5938 L523.7715,256.5938 A2.5,2.5 0 0 1 526.2715,259.0938 L526.2715,284.3906 A2.5,2.5 0 0 1 523.7715,286.8906 L458.5,286.8906 A2.5,2.5 0 0 1 456,284.3906 L456,236.7969 A2.5,2.5 0 0 1 458.5,234.2969 " fill="#F1F1F1" style="stroke:#181818;stroke-width:0.5;"/>
      <line style="stroke:#181818;stroke-width:0.5;" x1="456" x2="519.2715" y1="256.5938" y2="256.5938"/>
      <text fill="#000000" font-family="sans-serif" font-size="14" font-weight="bold" lengthAdjust="spacing" textLength="50.2715" x="460" y="249.292">visitor</text>
    </a>
    <a href="namespaceclanguml_1_1class__diagram_1_1generators.html" target="_top" title="generators" xlink:actuate="onRequest" xlink:href="namespaceclanguml_1_1class__diagram_1_1generators.html" xlink:show="new" xlink:title="generators" xlink:type="simple">
      <path d="M316,234.2969 L403.8779,234.2969 A3.75,3.75 0 0 1 406.3779,236.7969 L413.3779,256.5938 L417.8779,256.5938 A2.5,2.5 0 0 1 420.3779,259.0938 L420.3779,284.3906 A2.5,2.5 0 0 1 417.8779,286.8906 L316,286.8906 A2.5,2.5 0 0 1 313.5,284.3906 L313.5,236.7969 A2.5,2.5 0 0 1 316,234.2969 " fill="#F1F1F1" style="stroke:#181818;stroke-width:0.5;"/>
      <line style="stroke:#181818;stroke-width:0.5;" x1="313.5" x2="413.3779" y1="256.5938" y2="256.5938"/>
      <text fill="#000000" font-family="sans-serif" font-size="14" font-weight="bold" lengthAdjust="spacing" textLength="86.8779" x="317.5" y="249.292">generators</text>
    </a>
    <a href="namespaceclanguml_1_1include__diagram_1_1model.html" target="_top" title="model" xlink:actuate="onRequest" xlink:href="namespaceclanguml_1_1include__diagram_1_1model.html" xlink:show="new" xlink:title="model" xlink:type="simple">
      <path d="M191,234.2969 L240.5215,234.2969 A3.75,3.75 0 0 1 243.0215,236.7969 L250.0215,256.5938 L254.5215,256.5938 A2.5,2.5 0 0 1 257.0215,259.0938 L257.0215,284.3906 A2.5,2.5 0 0 1 254.5215,286.8906 L191,286.8906 A2.5,2.5 0 0 1 188.5,284.3906 L188.5,236.7969 A2.5,2.5 0 0 1 191,234.2969 " fill="#F1F1F1" style="stroke:#181818;stroke-width:0.5;"/>
      <line style="stroke:#181818;stroke-width:0.5;" x1="188.5" x2="250.0215" y1="256.5938" y2="256.5938"/>
      <text fill="#000000" font-family="sans-serif" font-size="14" font-weight="bold" lengthAdjust="spacing" textLength="48.5215" x="192.5" y="249.292">model</text>
    </a>
    <a href="namespaceclanguml_1_1include__diagram_1_1visitor.html" target="_top" title="visitor" xlink:actuate="onRequest" xlink:href="namespaceclanguml_1_1include__diagram_1_1visitor.html" xlink:show="new" xlink:title="visitor" xlink:type="simple">
      <path d="M190.5,121.2969 L241.7715,121.2969 A3.75,3.75 0 0 1 244.2715,123.7969 L251.2715,143.5938 L255.7715,143.5938 A2.5,2.5 0 0 1 258.2715,146.0938 L258.2715,171.3906 A2.5,2.5 0 0 1 255.7715,173.8906 L190.5,173.8906 A2.5,2.5 0 0 1 188,171.3906 L188,123.7969 A2.5,2.5 0 0 1 190.5,121.2969 " fill="#F1F1F1" style="stroke:#181818;stroke-width:0.5;"/>
      <line style="stroke:#181818;stroke-width:0.5;" x1="188" x2="251.2715" y1="143.5938" y2="143.5938"/>
      <text fill="#000000" font-family="sans-serif" font-size="14" font-weight="bold" lengthAdjust="spacing" textLength="50.2715" x="192" y="136.292">visitor</text>
    </a>
    <a href="namespaceclanguml_1_1include__diagram_1_1generators.html" target="_top" title="generators" xlink:actuate="onRequest" xlink:href="namespaceclanguml_1_1include__diagram_1_1generators.html" xlink:show="new" xlink:title="generators" xlink:type="simple">
      <path d="M48,121.2969 L135.8779,121.2969 A3.75,3.75 0 0 1 138.3779,123.7969 L145.3779,143.5938 L149.8779,143.5938 A2.5,2.5 0 0 1 152.3779,146.0938 L152.3779,171.3906 A2.5,2.5 0 0 1 149.8779,173.8906 L48,173.8906 A2.5,2.5 0 0 1 45.5,171.3906 L45.5,123.7969 A2.5,2.5 0 0 1 48,121.2969 " fill="#F1F1F1" style="stroke:#181818;stroke-width:0.5;"/>
      <line style="stroke:#181818;stroke-width:0.5;" x1="45.5" x2="145.3779" y1="143.5938" y2="143.5938"/>
      <text fill="#000000" font-family="sans-serif" font-size="14" font-weight="bold" lengthAdjust="spacing" textLength="86.8779" x="49.5" y="136.292">generators</text>
    </a>
    <a href="namespaceclanguml_1_1sequence__diagram_1_1model.html" target="_top" title="model" xlink:actuate="onRequest" xlink:href="namespaceclanguml_1_1sequence__diagram_1_1model.html" xlink:show="new" xlink:title="model" xlink:type="simple">
      <path d="M1033,378.2969 L1082.5215,378.2969 A3.75,3.75 0 0 1 1085.0215,380.7969 L1092.0215,400.5938 L1096.5215,400.5938 A2.5,2.5 0 0 1 1099.0215,403.0938 L1099.0215,428.3906 A2.5,2.5 0 0 1 1096.5215,430.8906 L1033,430.8906 A2.5,2.5 0 0 1 1030.5,428.3906 L1030.5,380.7969 A2.5,2.5 0 0 1 1033,378.2969 " fill="#F1F1F1" style="stroke:#181818;stroke-width:0.5;"/>
      <line style="stroke:#181818;stroke-width:0.5;" x1="1030.5" x2="1092.0215" y1="400.5938" y2="400.5938"/>
      <text fill="#000000" font-family="sans-serif" font-size="14" font-weight="bold" lengthAdjust="spacing" textLength="48.5215" x="1034.5" y="393.292">model</text>
    </a>
    <a href="namespaceclanguml_1_1sequence__diagram_1_1visitor.html" target="_top" title="visitor" xlink:actuate="onRequest" xlink:href="namespaceclanguml_1_1sequence__diagram_1_1visitor.html" xlink:show="new" xlink:title="visitor" xlink:type="simple">
      <path d="M1155.5,234.2969 L1206.7715,234.2969 A3.75,3.75 0 0 1 1209.2715,236.7969 L1216.2715,256.5938 L1220.7715,256.5938 A2.5,2.5 0 0 1 1223.2715,259.0938 L1223.2715,284.3906 A2.5,2.5 0 0 1 1220.7715,286.8906 L1155.5,286.8906 A2.5,2.5 0 0 1 1153,284.3906 L1153,236.7969 A2.5,2.5 0 0 1 1155.5,234.2969 " fill="#F1F1F1" style="stroke:#181818;stroke-width:0.5;"/>
      <line style="stroke:#181818;stroke-width:0.5;" x1="1153" x2="1216.2715" y1="256.5938" y2="256.5938"/>
      <text fill="#000000" font-family="sans-serif" font-size="14" font-weight="bold" lengthAdjust="spacing" textLength="50.2715" x="1157" y="249.292">visitor</text>
    </a>
    <a href="namespaceclanguml_1_1sequence__diagram_1_1generators.html" target="_top" title="generators" xlink:actuate="onRequest" xlink:href="namespaceclanguml_1_1sequence__diagram_1_1generators.html" xlink:show="new" xlink:title="generators" xlink:type="simple">
      <path d="M1013,234.2969 L1100.8779,234.2969 A3.75,3.75 0 0 1 1103.3779,236.7969 L1110.3779,256.5938 L1114.8779,256.5938 A2.5,2.5 0 0 1 1117.3779,259.0938 L1117.3779,284.3906 A2.5,2.5 0 0 1 1114.8779,286.8906 L1013,286.8906 A2.5,2.5 0 0 1 1010.5,284.3906 L1010.5,236.7969 A2.5,2.5 0 0 1 1013,234.2969 " fill="#F1F1F1" style="stroke:#181818;stroke-width:0.5;"/>
      <line style="stroke:#181818;stroke-width:0.5;" x1="1010.5" x2="1110.3779" y1="256.5938" y2="256.5938"/>
      <text fill="#000000" font-family="sans-serif" font-size="14" font-weight="bold" lengthAdjust="spacing" textLength="86.8779" x="1014.5" y="249.292">generators</text>
    </a>
    <a href="namespaceclanguml_1_1package__diagram_1_1model.html" target="_top" title="model" xlink:actuate="onRequest" xlink:href="namespaceclanguml_1_1package__diagram_1_1model.html" xlink:show="new" xlink:title="model" xlink:type="simple">
      <path d="M886,234.2969 L935.5215,234.2969 A3.75,3.75 0 0 1 938.0215,236.7969 L945.0215,256.5938 L949.5215,256.5938 A2.5,2.5 0 0 1 952.0215,259.0938 L952.0215,284.3906 A2.5,2.5 0 0 1 949.5215,286.8906 L886,286.8906 A2.5,2.5 0 0 1 883.5,284.3906 L883.5,236.7969 A2.5,2.5 0 0 1 886,234.2969 " fill="#F1F1F1" style="stroke:#181818;stroke-width:0.5;"/>
      <line style="stroke:#181818;stroke-width:0.5;" x1="883.5" x2="945.0215" y1="256.5938" y2="256.5938"/>
      <text fill="#000000" font-family="sans-serif" font-size="14" font-weight="bold" lengthAdjust="spacing" textLength="48.5215" x="887.5" y="249.292">model</text>
    </a>
    <a href="namespaceclanguml_1_1package__diagram_1_1visitor.html" target="_top" title="visitor" xlink:actuate="onRequest" xlink:href="namespaceclanguml_1_1package__diagram_1_1visitor.html" xlink:show="new" xlink:title="visitor" xlink:type="simple">
      <path d="M887.5,121.2969 L938.7715,121.2969 A3.75,3.75 0 0 1 941.2715,123.7969 L948.2715,143.5938 L952.7715,143.5938 A2.5,2.5 0 0 1 955.2715,146.0938 L955.2715,171.3906 A2.5,2.5 0 0 1 952.7715,173.8906 L887.5,173.8906 A2.5,2.5 0 0 1 885,171.3906 L885,123.7969 A2.5,2.5 0 0 1 887.5,121.2969 " fill="#F1F1F1" style="stroke:#181818;stroke-width:0.5;"/>
      <line style="stroke:#181818;stroke-width:0.5;" x1="885" x2="948.2715" y1="143.5938" y2="143.5938"/>
      <text fill="#000000" font-family="sans-serif" font-size="14" font-weight="bold" lengthAdjust="spacing" textLength="50.2715" x="889" y="136.292">visitor</text>
    </a>
    <a href="namespaceclanguml_1_1package__diagram_1_1generators.html" target="_top" title="generators" xlink:actuate="onRequest" xlink:href="namespaceclanguml_1_1package__diagram_1_1generators.html" xlink:show="new" xlink:title="generators" xlink:type="simple">
      <path d="M745,121.2969 L832.8779,121.2969 A3.75,3.75 0 0 1 835.3779,123.7969 L842.3779,143.5938 L846.8779,143.5938 A2.5,2.5 0 0 1 849.3779,146.0938 L849.3779,171.3906 A2.5,2.5 0 0 1 846.8779,173.8906 L745,173.8906 A2.5,2.5 0 0 1 742.5,171.3906 L742.5,123.7969 A2.5,2.5 0 0 1 745,121.2969 " fill="#F1F1F1" style="stroke:#181818;stroke-width:0.5;"/>
      <line style="stroke:#181818;stroke-width:0.5;" x1="742.5" x2="842.3779" y1="143.5938" y2="143.5938"/>
      <text fill="#000000" font-family="sans-serif" font-size="14" font-weight="bold" lengthAdjust="spacing" textLength="86.8779" x="746.5" y="136.292">generators</text>
    </a>
    <g id="link_C_0002532840279361781187_C_0000891115944470323979">
      <path codeLine="46" d="M855.1217,482.6857 C855.2624,482.8175 855.4033,482.949 855.5445,483.0801 C855.8269,483.3424 856.1104,483.6034 856.395,483.8631 C865.5025,492.1744 870.4681,496.2706 880.1981,501.6456 " fill="none" id="C_0002532840279361781187-to-C_0000891115944470323979" style="stroke:#181818;stroke-width:1.0;stroke-dasharray:7.0,7.0;"/>
      <polygon fill="#181818" points="885.45,504.5469,879.5063,496.6937,881.0734,502.1292,875.6379,503.6963,885.45,504.5469" style="stroke:#181818;stroke-width:1.0;"/>
    </g>
    <g id="link_C_0000891115944470323979_C_0002532840279361781187">
      <path codeLine="54" d="M898.26,491.2169 C887.52,481.4369 875.93,469.2369 869,455.2969 C864.12,445.4919 863.0975,433.2319 861.1088,423.3669 C860.1144,418.4344 858.8784,414.1006 856.798,410.9719 C856.2779,410.1897 859.9913,413.6813 859.3562,413.0592 " fill="none" id="C_0000891115944470323979-to-C_0002532840279361781187" style="stroke:#181818;stroke-width:1.0;stroke-dasharray:7.0,7.0;"/>
      <polygon fill="#181818" points="855.0698,408.8607,858.7003,418.016,858.6418,412.3595,864.2983,412.3009,855.0698,408.8607" style="stroke:#181818;stroke-width:1.0;"/>
    </g>
    <g id="link_C_0000669774451444102653_C_0000891115944470323979">
      <path codeLine="47" d="M749.83,517.7969 C795.03,517.7969 834.23,517.7969 879.44,517.7969 " fill="none" id="C_0000669774451444102653-to-C_0000891115944470323979" style="stroke:#181818;stroke-width:1.0;stroke-dasharray:7.0,7.0;"/>
      <polygon fill="#181818" points="885.44,517.7969,876.44,513.7969,880.44,517.7969,876.44,521.7969,885.44,517.7969" style="stroke:#181818;stroke-width:1.0;"/>
    </g>
    <g id="link_C_0000891115944470323979_C_0000669774451444102653">
      <path codeLine="53" d="M885.44,517.7969 C840.23,517.7969 801.03,517.7969 755.83,517.7969 " fill="none" id="C_0000891115944470323979-to-C_0000669774451444102653" style="stroke:#181818;stroke-width:1.0;stroke-dasharray:7.0,7.0;"/>
      <polygon fill="#181818" points="749.83,517.7969,758.83,521.7969,754.83,517.7969,758.83,513.7969,749.83,517.7969" style="stroke:#181818;stroke-width:1.0;"/>
    </g>
    <g id="link_C_0000669774451444102653_C_0007176993879715460962">
      <path codeLine="48" d="M680.19,506.9069 C642.48,497.3569 582.7,480.5869 535,455.2969 C519.3,446.9769 508.4974,438.0436 494.5574,427.6936 " fill="none" id="C_0000669774451444102653-to-C_0007176993879715460962" style="stroke:#181818;stroke-width:1.0;stroke-dasharray:7.0,7.0;"/>
      <polygon fill="#181818" points="489.74,424.1169,494.5816,432.6936,493.7545,427.0975,499.3505,426.2704,489.74,424.1169" style="stroke:#181818;stroke-width:1.0;"/>
    </g>
    <g id="link_C_0007176993879715460962_C_0000669774451444102653">
      <path codeLine="55" d="M466.47,431.3469 C475.71,439.8769 487.83,448.8469 500,455.2969 C558.68,486.4069 629.7079,503.5935 674.4779,511.3435 " fill="none" id="C_0007176993879715460962-to-C_0000669774451444102653" style="stroke:#181818;stroke-width:1.0;stroke-dasharray:7.0,7.0;"/>
      <polygon fill="#181818" points="680.39,512.3669,672.2042,506.8904,675.4633,511.514,670.8396,514.7731,680.39,512.3669" style="stroke:#181818;stroke-width:1.0;"/>
    </g>
    <g id="link_C_0000669774451444102653_C_0017655759046645114118">
      <path codeLine="49" d="M749.68,502.5769 C756.76,498.3069 763.88,494.0369 771,491.2969 C875.78,451.0169 917.97,499.8769 1021,455.2969 C1034.15,449.6069 1042.5349,444.5562 1051.7749,435.5862 " fill="none" id="C_0000669774451444102653-to-C_0017655759046645114118" style="stroke:#181818;stroke-width:1.0;stroke-dasharray:7.0,7.0;"/>
      <polygon fill="#181818" points="1056.08,431.4069,1046.8362,434.8057,1052.4924,434.8896,1052.4086,440.5458,1056.08,431.4069" style="stroke:#181818;stroke-width:1.0;"/>
    </g>
    <g id="link_C_0017655759046645114118_C_0000669774451444102653">
      <path codeLine="68" d="M1030.3,426.0469 C1016.95,436.4969 1001.8,448.4569 986,455.2969 C882.97,499.8769 840.78,451.0169 736,491.2969 C735.85,491.3569 741.2149,489.0434 741.0749,489.1034 " fill="none" id="C_0017655759046645114118-to-C_0000669774451444102653" style="stroke:#181818;stroke-width:1.0;stroke-dasharray:7.0,7.0;"/>
      <polygon fill="#181818" points="735.56,491.4669,745.408,491.5982,740.1557,489.4973,742.2566,484.245,735.56,491.4669" style="stroke:#181818;stroke-width:1.0;"/>
    </g>
    <g id="link_C_0016474478155368192384_C_0000669774451444102653">
      <path codeLine="50" d="M762.62,431.5369 C752.6,449.4769 742.2263,468.0488 732.2263,485.9488 " fill="none" id="C_0016474478155368192384-to-C_0000669774451444102653" style="stroke:#181818;stroke-width:1.0;stroke-dasharray:7.0,7.0;"/>
      <polygon fill="#181818" points="729.3,491.1869,737.1814,485.2807,731.7386,486.8219,730.1974,481.379,729.3,491.1869" style="stroke:#181818;stroke-width:1.0;"/>
    </g>
    <g id="link_C_0016474478155368192384_C_0000891115944470323979">
      <path codeLine="51" d="M794.4,431.5269 C800.63,439.6869 808.1,448.3769 816,455.2969 C836.84,473.5269 858.5121,486.5477 879.7721,497.5577 " fill="none" id="C_0016474478155368192384-to-C_0000891115944470323979" style="stroke:#181818;stroke-width:1.0;stroke-dasharray:7.0,7.0;"/>
      <polygon fill="#181818" points="885.1,500.3169,878.9476,492.6261,880.6601,498.0175,875.2686,499.73,885.1,500.3169" style="stroke:#181818;stroke-width:1.0;"/>
    </g>
    <g id="link_C_0009021568372907770570_C_0000669774451444102653">
      <path codeLine="52" d="M667.38,431.5369 C677.4,449.4769 687.7737,468.0488 697.7737,485.9488 " fill="none" id="C_0009021568372907770570-to-C_0000669774451444102653" style="stroke:#181818;stroke-width:1.0;stroke-dasharray:7.0,7.0;"/>
      <polygon fill="#181818" points="700.7,491.1869,699.8026,481.379,698.2614,486.8219,692.8186,485.2807,700.7,491.1869" style="stroke:#181818;stroke-width:1.0;"/>
    </g>
    <g id="link_C_0007176993879715460962_C_0002532840279361781187">
      <path codeLine="56" d="M481.88,378.2769 C509.3,353.8469 554.41,320.6069 601.5,315.2969 C647.65,310.0869 764.35,310.0869 810.5,315.2969 C818.43,316.1869 822.38,313.6369 828,319.2969 C831.2163,322.5319 833.9397,326.1828 836.2416,330.1078 C836.8171,331.089 837.3663,332.0874 837.8902,333.1007 C838.1522,333.6073 838.4078,334.1177 838.6573,334.6315 C838.7197,334.7599 836.1942,329.4752 836.2558,329.6041 " fill="none" id="C_0007176993879715460962-to-C_0002532840279361781187" style="stroke:#181818;stroke-width:1.0;stroke-dasharray:7.0,7.0;"/>
      <polygon fill="#181818" points="838.8432,335.0175,838.5709,325.1724,836.687,330.5063,831.3531,328.6224,838.8432,335.0175" style="stroke:#181818;stroke-width:1.0;"/>
    </g>
    <g id="link_C_0014897743554774430622_C_0016474478155368192384">
      <path codeLine="57" d="M515.54,287.3069 C526.11,296.5969 539.21,306.0969 553,311.2969 C588.6,324.7069 691.15,300.1069 724,319.2969 C746.13,332.2269 758.1226,352.8918 766.2126,372.7118 " fill="none" id="C_0014897743554774430622-to-C_0016474478155368192384" style="stroke:#181818;stroke-width:1.0;stroke-dasharray:7.0,7.0;"/>
      <polygon fill="#181818" points="768.48,378.2669,768.7822,368.4227,766.5905,373.6377,761.3755,371.4459,768.48,378.2669" style="stroke:#181818;stroke-width:1.0;"/>
    </g>
    <g id="link_C_0014897743554774430622_C_0002532840279361781187">
      <path codeLine="58" d="M526.21,278.0369 C553.17,289.6169 591.62,304.3269 627,311.2969 C648.93,315.6169 810.83,304.9869 828,319.2969 C831.6388,322.3294 834.6697,325.895 837.1873,329.8166 C837.8167,330.7971 838.414,331.7997 838.9807,332.8219 C839.2641,333.3329 839.5398,333.8489 839.8081,334.3693 C839.9422,334.6296 837.4045,329.5177 837.5349,329.7802 " fill="none" id="C_0014897743554774430622-to-C_0002532840279361781187" style="stroke:#181818;stroke-width:1.0;stroke-dasharray:7.0,7.0;"/>
      <polygon fill="#181818" points="840.2048,335.1534,839.7822,325.3136,837.9799,330.6757,832.6178,328.8735,840.2048,335.1534" style="stroke:#181818;stroke-width:1.0;"/>
    </g>
    <g id="link_C_0014897743554774430622_C_0007176993879715460962">
      <path codeLine="59" d="M484.48,287.5169 C477.96,313.2469 469.4549,346.791 462.9449,372.461 " fill="none" id="C_0014897743554774430622-to-C_0007176993879715460962" style="stroke:#181818;stroke-width:1.0;stroke-dasharray:7.0,7.0;"/>
      <polygon fill="#181818" points="461.47,378.2769,467.5597,370.5363,462.6991,373.4303,459.8051,368.5698,461.47,378.2769" style="stroke:#181818;stroke-width:1.0;"/>
    </g>
    <g id="link_C_0014897743554774430622_C_0000669774451444102653">
      <path codeLine="60" d="M498,287.3969 C511.79,337.0769 542.13,442.8169 554,455.2969 C587.71,490.7469 638.1311,504.9551 674.4311,511.3551 " fill="none" id="C_0014897743554774430622-to-C_0000669774451444102653" style="stroke:#181818;stroke-width:1.0;stroke-dasharray:7.0,7.0;"/>
      <polygon fill="#181818" points="680.34,512.3969,672.1712,506.895,675.4159,511.5287,670.7822,514.7734,680.34,512.3969" style="stroke:#181818;stroke-width:1.0;"/>
    </g>
    <g id="link_C_0014897743554774430622_C_0000891115944470323979">
      <path codeLine="61" d="M504.79,287.5269 C511.16,296.7269 519.63,306.1069 530,311.2969 C546.55,319.5769 848.35,307.9969 863,319.2969 C916.13,360.2669 922.0597,441.5775 921.4097,485.0675 " fill="none" id="C_0014897743554774430622-to-C_0000891115944470323979" style="stroke:#181818;stroke-width:1.0;stroke-dasharray:7.0,7.0;"/>
      <polygon fill="#181818" points="921.32,491.0669,925.4541,482.1277,921.3947,486.0674,917.4549,482.0081,921.32,491.0669" style="stroke:#181818;stroke-width:1.0;"/>
    </g>
    <g id="link_C_0004362631048833985714_C_0002532840279361781187">
      <path codeLine="62" d="M253.07,287.3169 C266.04,296.7469 281.9,306.3269 298,311.2969 C312.07,315.6369 816.57,310.0069 828,319.2969 C831.6763,322.2844 834.7355,325.8161 837.2738,329.7129 C837.9084,330.6871 838.5105,331.6841 839.0815,332.7011 C839.367,333.2096 839.6447,333.7231 839.9149,334.2413 C840.0499,334.5004 837.4895,329.3993 837.6208,329.6606 " fill="none" id="C_0004362631048833985714-to-C_0002532840279361781187" style="stroke:#181818;stroke-width:1.0;stroke-dasharray:7.0,7.0;"/>
      <polygon fill="#181818" points="840.3144,335.022,839.8482,325.1842,838.0698,330.5542,832.6997,328.7757,840.3144,335.022" style="stroke:#181818;stroke-width:1.0;"/>
    </g>
    <g id="link_C_0004362631048833985714_C_0000669774451444102653">
      <path codeLine="63" d="M224.97,287.5669 C229.68,329.8369 245.49,413.3769 298,455.2969 C356.91,502.3269 585.0325,513.3141 674.2325,515.8841 " fill="none" id="C_0004362631048833985714-to-C_0000669774451444102653" style="stroke:#181818;stroke-width:1.0;stroke-dasharray:7.0,7.0;"/>
      <polygon fill="#181818" points="680.23,516.0569,671.3489,511.7993,675.2321,515.9129,671.1185,519.796,680.23,516.0569" style="stroke:#181818;stroke-width:1.0;"/>
    </g>
    <g id="link_C_0002398062589073292507_C_0004362631048833985714">
      <path codeLine="64" d="M223,174.5369 C223,192.4769 223,210.2869 223,228.1869 " fill="none" id="C_0002398062589073292507-to-C_0004362631048833985714" style="stroke:#181818;stroke-width:1.0;stroke-dasharray:7.0,7.0;"/>
      <polygon fill="#181818" points="223,234.1869,227,225.1869,223,229.1869,219,225.1869,223,234.1869" style="stroke:#181818;stroke-width:1.0;"/>
    </g>
    <g id="link_C_0002398062589073292507_C_0000891115944470323979">
      <path codeLine="65" d="M258.06,149.1469 C344.14,150.5269 563.47,157.3769 627,191.2969 C688.24,223.9969 664.82,280.4169 727,311.2969 C744.33,319.9069 886.98,305.9569 901,319.2969 C947.67,363.6969 937.6113,442.7619 928.0813,485.3119 " fill="none" id="C_0002398062589073292507-to-C_0000891115944470323979" style="stroke:#181818;stroke-width:1.0;stroke-dasharray:7.0,7.0;"/>
      <polygon fill="#181818" points="926.77,491.1669,932.6403,483.2587,927.8628,486.2878,924.8337,481.5102,926.77,491.1669" style="stroke:#181818;stroke-width:1.0;"/>
    </g>
    <g id="link_C_0002398062589073292507_C_0002532840279361781187">
      <path codeLine="66" d="M258.02,148.3469 C340.12,147.9769 541.97,151.2669 594,191.2969 C639.4,226.2269 594.39,278.0069 641,311.2969 C657.92,323.3869 812.04,305.9569 828,319.2969 C831.6338,322.3344 834.6609,325.9038 837.1758,329.8281 C837.8045,330.8092 838.4012,331.8125 838.9674,332.8352 C839.2505,333.3466 839.5259,333.8628 839.7939,334.3835 C839.9279,334.6438 837.3931,329.5306 837.5233,329.7932 " fill="none" id="C_0002398062589073292507-to-C_0002532840279361781187" style="stroke:#181818;stroke-width:1.0;stroke-dasharray:7.0,7.0;"/>
      <polygon fill="#181818" points="840.1903,335.1679,839.773,325.3279,837.9678,330.689,832.6067,328.8839,840.1903,335.1679" style="stroke:#181818;stroke-width:1.0;"/>
    </g>
    <g id="link_C_0002398062589073292507_C_0016474478155368192384">
      <path codeLine="67" d="M258.24,149.9869 C330.97,152.9869 494.84,162.8069 542,191.2969 C597.94,225.0969 570.23,278.9169 627,311.2969 C664.57,332.7269 687.04,296.8169 724,319.2969 C745.75,332.5269 757.6917,352.8887 765.8817,372.5387 " fill="none" id="C_0002398062589073292507-to-C_0016474478155368192384" style="stroke:#181818;stroke-width:1.0;stroke-dasharray:7.0,7.0;"/>
      <polygon fill="#181818" points="768.19,378.0769,768.4197,368.2307,766.2664,373.4617,761.0354,371.3084,768.19,378.0769" style="stroke:#181818;stroke-width:1.0;"/>
    </g>
    <g id="link_C_0017655759046645114118_C_0002532840279361781187">
      <path codeLine="69" d="M1030.15,404.7969 C999.695,404.7969 969.2425,404.7969 938.79,404.7969 C923.5638,404.7969 908.3375,404.7969 893.1109,404.7969 C885.4977,404.7969 877.8843,404.7969 870.2708,404.7969 C866.4641,404.7969 862.6573,404.7969 858.8505,404.7969 C857.8988,404.7969 856.9471,404.7969 855.9954,404.7969 C855.7575,404.7969 861.5196,404.7969 861.2816,404.7969 " fill="none" id="C_0017655759046645114118-to-C_0002532840279361781187" style="stroke:#181818;stroke-width:1.0;stroke-dasharray:7.0,7.0;"/>
      <polygon fill="#181818" points="855.2816,404.7969,864.2816,408.7969,860.2816,404.7969,864.2816,400.7969,855.2816,404.7969" style="stroke:#181818;stroke-width:1.0;"/>
    </g>
    <g id="link_C_0017655759046645114118_C_0000891115944470323979">
      <path codeLine="70" d="M1033.31,431.4569 C1023.64,439.1869 1012.93,447.6569 1003,455.2969 C987.22,467.4369 974.3527,477.0509 959.3627,488.0809 " fill="none" id="C_0017655759046645114118-to-C_0000891115944470323979" style="stroke:#181818;stroke-width:1.0;stroke-dasharray:7.0,7.0;"/>
      <polygon fill="#181818" points="954.53,491.6369,964.1497,489.5247,958.5572,488.6735,959.4084,483.0811,954.53,491.6369" style="stroke:#181818;stroke-width:1.0;"/>
    </g>
    <g id="link_C_0002812166065521257903_C_0002532840279361781187">
      <path codeLine="71" d="M1167.38,287.4869 C1158.48,296.6869 1147.28,306.0669 1135,311.2969 C1104.28,324.3669 1016.88,309.3869 985,319.2969 C951.2,329.8019 917.2425,350.4369 891.47,368.6844 C878.5838,377.8081 867.7438,386.335 859.9928,392.7003 C859.0239,393.496 858.1033,394.2579 857.233,394.9829 C856.7979,395.3455 856.3753,395.6988 855.9656,396.0425 C855.7607,396.2144 855.559,396.3838 855.3606,396.5509 C855.2614,396.6344 859.7501,392.8496 859.6525,392.9319 " fill="none" id="C_0002812166065521257903-to-C_0002532840279361781187" style="stroke:#181818;stroke-width:1.0;stroke-dasharray:7.0,7.0;"/>
      <polygon fill="#181818" points="855.0654,396.7996,864.5245,394.0561,858.888,393.5765,859.3676,387.94,855.0654,396.7996" style="stroke:#181818;stroke-width:1.0;"/>
    </g>
    <g id="link_C_0002812166065521257903_C_0017655759046645114118">
      <path codeLine="72" d="M1165.78,287.3269 C1156.99,296.0569 1146.28,305.1569 1135,311.2969 C1122.12,318.2969 1114.24,309.8869 1103,319.2969 C1085.23,334.1569 1077.0144,353.2498 1071.8344,372.1698 " fill="none" id="C_0002812166065521257903-to-C_0017655759046645114118" style="stroke:#181818;stroke-width:1.0;stroke-dasharray:7.0,7.0;"/>
      <polygon fill="#181818" points="1070.25,377.9569,1076.4846,370.3326,1071.5703,373.1344,1068.7686,368.2201,1070.25,377.9569" style="stroke:#181818;stroke-width:1.0;"/>
    </g>
    <g id="link_C_0002812166065521257903_C_0000669774451444102653">
      <path codeLine="73" d="M1167.35,287.4069 C1158.44,296.5969 1147.25,305.9969 1135,311.2969 C1110.06,322.0869 1037.23,307.0069 1013,319.2969 C942.66,354.9669 965.93,413.5669 899,455.2969 C842.29,490.6569 814.12,464.2669 753,491.2969 C751.84,491.8069 756.0366,489.6736 754.8766,490.2536 " fill="none" id="C_0002812166065521257903-to-C_0000669774451444102653" style="stroke:#181818;stroke-width:1.0;stroke-dasharray:7.0,7.0;"/>
      <polygon fill="#181818" points="749.51,492.9369,759.3487,492.4897,753.9821,490.7008,755.771,485.3342,749.51,492.9369" style="stroke:#181818;stroke-width:1.0;"/>
    </g>
    <g id="link_C_0002812166065521257903_C_0016474478155368192384">
      <path codeLine="74" d="M1167.71,287.3969 C1158.77,296.7169 1147.47,306.1969 1135,311.2969 C1102.18,324.7169 845.62,299.8169 816,319.2969 C796.16,332.3469 787.6709,352.45 782.8309,372.16 " fill="none" id="C_0002812166065521257903-to-C_0016474478155368192384" style="stroke:#181818;stroke-width:1.0;stroke-dasharray:7.0,7.0;"/>
      <polygon fill="#181818" points="781.4,377.9869,787.4309,370.2004,782.5924,373.1311,779.6617,368.2926,781.4,377.9869" style="stroke:#181818;stroke-width:1.0;"/>
    </g>
    <g id="link_C_0002812166065521257903_C_0000891115944470323979">
      <path codeLine="75" d="M1185.75,287.3269 C1180.76,328.4869 1165.07,409.5269 1117,455.2969 C1072.11,498.0369 1003.8949,510.5487 960.5149,514.5287 " fill="none" id="C_0002812166065521257903-to-C_0000891115944470323979" style="stroke:#181818;stroke-width:1.0;stroke-dasharray:7.0,7.0;"/>
      <polygon fill="#181818" points="954.54,515.0769,963.8678,518.2379,959.5191,514.6201,963.1369,510.2713,954.54,515.0769" style="stroke:#181818;stroke-width:1.0;"/>
    </g>
    <g id="link_C_0012558484942253952660_C_0002532840279361781187">
      <path codeLine="76" d="M895.38,287.4169 C887.8,296.9469 879.82,308.1569 874,319.2969 C869.58,327.7619 865.7175,337.0831 862.4017,346.3494 C860.7438,350.9825 859.2226,355.6019 857.8367,360.0936 C857.1438,362.3395 856.4847,364.5534 855.8593,366.7212 C855.7029,367.2631 855.5486,367.8022 855.3965,368.3382 C855.3204,368.6061 855.2448,368.8733 855.1698,369.1397 C855.1323,369.2729 856.7155,363.6289 856.6782,363.7617 " fill="none" id="C_0012558484942253952660-to-C_0002532840279361781187" style="stroke:#181818;stroke-width:1.0;stroke-dasharray:7.0,7.0;"/>
      <polygon fill="#181818" points="855.0577,369.5387,861.3399,361.9536,856.4081,364.7246,853.6372,359.7928,855.0577,369.5387" style="stroke:#181818;stroke-width:1.0;"/>
    </g>
    <g id="link_C_0012558484942253952660_C_0000669774451444102653">
      <path codeLine="77" d="M917.99,287.4469 C916.56,328.4069 907.78,408.7169 863,455.2969 C827.35,492.3769 799.24,468.7569 753,491.2969 C751.86,491.8569 755.9914,489.5895 754.8414,490.2095 " fill="none" id="C_0012558484942253952660-to-C_0000669774451444102653" style="stroke:#181818;stroke-width:1.0;stroke-dasharray:7.0,7.0;"/>
      <polygon fill="#181818" points="749.56,493.0569,759.3803,492.3068,753.9611,490.6841,755.5838,485.265,749.56,493.0569" style="stroke:#181818;stroke-width:1.0;"/>
    </g>
    <g id="link_C_0001471162262834345471_C_0012558484942253952660">
      <path codeLine="78" d="M919.54,174.5369 C919.21,192.4769 918.8872,210.2878 918.5672,228.1878 " fill="none" id="C_0001471162262834345471-to-C_0012558484942253952660" style="stroke:#181818;stroke-width:1.0;stroke-dasharray:7.0,7.0;"/>
      <polygon fill="#181818" points="918.46,234.1869,922.6202,225.2598,918.5494,229.1877,914.6215,225.1168,918.46,234.1869" style="stroke:#181818;stroke-width:1.0;"/>
    </g>
    <g id="link_C_0001471162262834345471_C_0000891115944470323979">
      <path codeLine="79" d="M955.24,147.9569 C1030.36,146.9969 1202.42,149.5269 1239,191.2969 C1316.29,279.5769 1313.7,364.8169 1239,455.2969 C1203.18,498.6769 1035.4528,511.5026 960.5128,515.1826 " fill="none" id="C_0001471162262834345471-to-C_0000891115944470323979" style="stroke:#181818;stroke-width:1.0;stroke-dasharray:7.0,7.0;"/>
      <polygon fill="#181818" points="954.52,515.4769,963.7054,519.0306,959.514,515.2316,963.313,511.0403,954.52,515.4769" style="stroke:#181818;stroke-width:1.0;"/>
    </g>
    <g id="link_C_0001471162262834345471_C_0002532840279361781187">
      <path codeLine="80" d="M884.97,169.5369 C877.53,175.6069 870.55,182.9069 866,191.2969 C843.765,232.3319 838.815,284.4519 839.5213,326.8044 C839.5654,329.4514 839.4318,326.0636 839.5173,328.6292 " fill="none" id="C_0001471162262834345471-to-C_0002532840279361781187" style="stroke:#181818;stroke-width:1.0;stroke-dasharray:7.0,7.0;"/>
      <polygon fill="#181818" points="839.7171,334.6259,843.4152,325.4977,839.5506,329.6287,835.4196,325.7641,839.7171,334.6259" style="stroke:#181818;stroke-width:1.0;"/>
    </g>
    <g id="link_C_0001471162262834345471_C_0000669774451444102653">
      <path codeLine="81" d="M884.9,167.2669 C879.03,169.8969 872.92,172.3569 867,174.2969 C827.9,187.1069 814.15,175.8869 776,191.2969 C680.22,229.9869 630.96,228.3369 582,319.2969 C553.35,372.5169 549.44,404.3669 582,455.2969 C603.51,488.9469 642.7995,503.1706 674.5095,510.1306 " fill="none" id="C_0001471162262834345471-to-C_0000669774451444102653" style="stroke:#181818;stroke-width:1.0;stroke-dasharray:7.0,7.0;"/>
      <polygon fill="#181818" points="680.37,511.4169,672.4368,505.5804,675.4863,510.3449,670.7217,513.3944,680.37,511.4169" style="stroke:#181818;stroke-width:1.0;"/>
    </g>
    <g id="link_C_0001471162262834345471_C_0016474478155368192384">
      <path codeLine="82" d="M884.78,165.7569 C860.34,177.5369 832.12,191.1469 832,191.2969 C786.68,246.5369 778.4159,328.8595 777.1459,372.1595 " fill="none" id="C_0001471162262834345471-to-C_0016474478155368192384" style="stroke:#181818;stroke-width:1.0;stroke-dasharray:7.0,7.0;"/>
      <polygon fill="#181818" points="776.97,378.1569,781.2321,369.278,777.1166,373.159,773.2356,369.0435,776.97,378.1569" style="stroke:#181818;stroke-width:1.0;"/>
    </g>
  </g>
</svg>
