<svg xmlns="http://www.w3.org/2000/svg" xmlns:xlink="http://www.w3.org/1999/xlink" contentStyleType="text/css" data-diagram-type="CLASS" height="1998px" preserveAspectRatio="none" style="width:1756px;height:1998px;background:#FFFFFF;" version="1.1" viewBox="0 0 1756 1998" width="1756px" zoomAndPan="magnify">
  <title>Translation unit AST visitors</title>
  <defs>
    <style type="text/css">a:hover { text-decoration: underline; }</style>
  </defs>
  <g>
    <text fill="#000000" font-family="sans-serif" font-size="14" font-weight="bold" lengthAdjust="spacing" textLength="196.6713" x="772.9144" y="24.9659">Translation unit AST visitors</text>
    <g id="cluster_C_0017394171196056322719">
      <path d="M8.5,46.6699 L74.6978,46.6699 A3.75,3.75 0 0 1 77.1978,49.1699 L84.1978,71.7378 L1747,71.7378 A2.5,2.5 0 0 1 1749.5,74.2378 L1749.5,1989.1699 A2.5,2.5 0 0 1 1747,1991.6699 L8.5,1991.6699 A2.5,2.5 0 0 1 6,1989.1699 L6,49.1699 A2.5,2.5 0 0 1 8.5,46.6699 " fill="transparent" style="stroke:#000000;stroke-width:1.5;"/>
      <line style="stroke:#000000;stroke-width:1.5;" x1="6" x2="84.1978" y1="71.7378" y2="71.7378"/>
      <text fill="#000000" font-family="sans-serif" font-size="14" font-weight="bold" lengthAdjust="spacing" textLength="65.1978" x="10" y="63.6358">clanguml</text>
    </g>
    <g id="cluster_C_0002532840279361781187">
      <path d="M32.5,1254.6699 L94.7218,1254.6699 A3.75,3.75 0 0 1 97.2218,1257.1699 L104.2218,1279.7378 L1232,1279.7378 A2.5,2.5 0 0 1 1234.5,1282.2378 L1234.5,1965.1699 A2.5,2.5 0 0 1 1232,1967.6699 L32.5,1967.6699 A2.5,2.5 0 0 1 30,1965.1699 L30,1257.1699 A2.5,2.5 0 0 1 32.5,1254.6699 " fill="transparent" style="stroke:#000000;stroke-width:1.5;"/>
      <line style="stroke:#000000;stroke-width:1.5;" x1="30" x2="104.2218" y1="1279.7378" y2="1279.7378"/>
      <text fill="#000000" font-family="sans-serif" font-size="14" font-weight="bold" lengthAdjust="spacing" textLength="61.2218" x="34" y="1271.6358">common</text>
    </g>
    <g id="cluster_C_0000669774451444102653">
      <path d="M329,1300.6699 L373.8198,1300.6699 A3.75,3.75 0 0 1 376.3198,1303.1699 L383.3198,1325.7378 L443,1325.7378 A2.5,2.5 0 0 1 445.5,1328.2378 L445.5,1400.1699 A2.5,2.5 0 0 1 443,1402.6699 L329,1402.6699 A2.5,2.5 0 0 1 326.5,1400.1699 L326.5,1303.1699 A2.5,2.5 0 0 1 329,1300.6699 " fill="transparent" style="stroke:#000000;stroke-width:1.5;"/>
      <line style="stroke:#000000;stroke-width:1.5;" x1="326.5" x2="383.3198" y1="1325.7378" y2="1325.7378"/>
      <text fill="#000000" font-family="sans-serif" font-size="14" font-weight="bold" lengthAdjust="spacing" textLength="43.8198" x="330.5" y="1317.6358">model</text>
    </g>
    <g id="cluster_C_0016474478155368192384">
      <path d="M56.5,1426.6699 L102.0618,1426.6699 A3.75,3.75 0 0 1 104.5618,1429.1699 L111.5618,1451.7378 L1208,1451.7378 A2.5,2.5 0 0 1 1210.5,1454.2378 L1210.5,1941.1699 A2.5,2.5 0 0 1 1208,1943.6699 L56.5,1943.6699 A2.5,2.5 0 0 1 54,1941.1699 L54,1429.1699 A2.5,2.5 0 0 1 56.5,1426.6699 " fill="transparent" style="stroke:#000000;stroke-width:1.5;"/>
      <line style="stroke:#000000;stroke-width:1.5;" x1="54" x2="111.5618" y1="1451.7378" y2="1451.7378"/>
      <text fill="#000000" font-family="sans-serif" font-size="14" font-weight="bold" lengthAdjust="spacing" textLength="44.5618" x="58" y="1443.6358">visitor</text>
    </g>
    <g id="cluster_C_0017921336289613804855">
      <path d="M924.5,932.6699 L1024.1016,932.6699 A3.75,3.75 0 0 1 1026.6016,935.1699 L1033.6016,957.7378 L1181.5,957.7378 A2.5,2.5 0 0 1 1184,960.2378 L1184,1228.1699 A2.5,2.5 0 0 1 1181.5,1230.6699 L924.5,1230.6699 A2.5,2.5 0 0 1 922,1228.1699 L922,935.1699 A2.5,2.5 0 0 1 924.5,932.6699 " fill="transparent" style="stroke:#000000;stroke-width:1.5;"/>
      <line style="stroke:#000000;stroke-width:1.5;" x1="922" x2="1033.6016" y1="957.7378" y2="957.7378"/>
      <text fill="#000000" font-family="sans-serif" font-size="14" font-weight="bold" lengthAdjust="spacing" textLength="98.6016" x="926" y="949.6358">class_diagram</text>
    </g>
    <g id="cluster_C_0007176993879715460962">
      <path d="M996,1104.6699 L1040.8198,1104.6699 A3.75,3.75 0 0 1 1043.3198,1107.1699 L1050.3198,1129.7378 L1110,1129.7378 A2.5,2.5 0 0 1 1112.5,1132.2378 L1112.5,1204.1699 A2.5,2.5 0 0 1 1110,1206.6699 L996,1206.6699 A2.5,2.5 0 0 1 993.5,1204.1699 L993.5,1107.1699 A2.5,2.5 0 0 1 996,1104.6699 " fill="transparent" style="stroke:#000000;stroke-width:1.5;"/>
      <line style="stroke:#000000;stroke-width:1.5;" x1="993.5" x2="1050.3198" y1="1129.7378" y2="1129.7378"/>
      <text fill="#000000" font-family="sans-serif" font-size="14" font-weight="bold" lengthAdjust="spacing" textLength="43.8198" x="997.5" y="1121.6358">model</text>
    </g>
    <g id="cluster_C_0014897743554774430622">
      <path d="M948.5,978.6699 L994.0618,978.6699 A3.75,3.75 0 0 1 996.5618,981.1699 L1003.5618,1003.7378 L1157.5,1003.7378 A2.5,2.5 0 0 1 1160,1006.2378 L1160,1078.1699 A2.5,2.5 0 0 1 1157.5,1080.6699 L948.5,1080.6699 A2.5,2.5 0 0 1 946,1078.1699 L946,981.1699 A2.5,2.5 0 0 1 948.5,978.6699 " fill="transparent" style="stroke:#000000;stroke-width:1.5;"/>
      <line style="stroke:#000000;stroke-width:1.5;" x1="946" x2="1003.5618" y1="1003.7378" y2="1003.7378"/>
      <text fill="#000000" font-family="sans-serif" font-size="14" font-weight="bold" lengthAdjust="spacing" textLength="44.5618" x="950" y="995.6358">visitor</text>
    </g>
    <g id="cluster_C_0018317418947569564933">
      <path d="M873.5,414.6699 L990.5316,414.6699 A3.75,3.75 0 0 1 993.0316,417.1699 L1000.0316,439.7378 L1723,439.7378 A2.5,2.5 0 0 1 1725.5,442.2378 L1725.5,584.1699 A2.5,2.5 0 0 1 1723,586.6699 L873.5,586.6699 A2.5,2.5 0 0 1 871,584.1699 L871,417.1699 A2.5,2.5 0 0 1 873.5,414.6699 " fill="transparent" style="stroke:#000000;stroke-width:1.5;"/>
      <line style="stroke:#000000;stroke-width:1.5;" x1="871" x2="1000.0316" y1="439.7378" y2="439.7378"/>
      <text fill="#000000" font-family="sans-serif" font-size="14" font-weight="bold" lengthAdjust="spacing" textLength="116.0316" x="875" y="431.6358">include_diagram</text>
    </g>
    <g id="cluster_C_0004362631048833985714">
      <path d="M1585,460.6699 L1629.8198,460.6699 A3.75,3.75 0 0 1 1632.3198,463.1699 L1639.3198,485.7378 L1699,485.7378 A2.5,2.5 0 0 1 1701.5,488.2378 L1701.5,560.1699 A2.5,2.5 0 0 1 1699,562.6699 L1585,562.6699 A2.5,2.5 0 0 1 1582.5,560.1699 L1582.5,463.1699 A2.5,2.5 0 0 1 1585,460.6699 " fill="transparent" style="stroke:#000000;stroke-width:1.5;"/>
      <line style="stroke:#000000;stroke-width:1.5;" x1="1582.5" x2="1639.3198" y1="485.7378" y2="485.7378"/>
      <text fill="#000000" font-family="sans-serif" font-size="14" font-weight="bold" lengthAdjust="spacing" textLength="43.8198" x="1586.5" y="477.6358">model</text>
    </g>
    <g id="cluster_C_0002398062589073292507">
      <path d="M897.5,460.6699 L943.0618,460.6699 A3.75,3.75 0 0 1 945.5618,463.1699 L952.5618,485.7378 L1477,485.7378 A2.5,2.5 0 0 1 1479.5,488.2378 L1479.5,560.1699 A2.5,2.5 0 0 1 1477,562.6699 L897.5,562.6699 A2.5,2.5 0 0 1 895,560.1699 L895,463.1699 A2.5,2.5 0 0 1 897.5,460.6699 " fill="transparent" style="stroke:#000000;stroke-width:1.5;"/>
      <line style="stroke:#000000;stroke-width:1.5;" x1="895" x2="952.5618" y1="485.7378" y2="485.7378"/>
      <text fill="#000000" font-family="sans-serif" font-size="14" font-weight="bold" lengthAdjust="spacing" textLength="44.5618" x="899" y="477.6358">visitor</text>
    </g>
    <g id="cluster_C_0009413724933622552589">
      <path d="M924.5,610.6699 L1049.0495,610.6699 A3.75,3.75 0 0 1 1051.5495,613.1699 L1058.5495,635.7378 L1181.5,635.7378 A2.5,2.5 0 0 1 1184,638.2378 L1184,906.1699 A2.5,2.5 0 0 1 1181.5,908.6699 L924.5,908.6699 A2.5,2.5 0 0 1 922,906.1699 L922,613.1699 A2.5,2.5 0 0 1 924.5,610.6699 " fill="transparent" style="stroke:#000000;stroke-width:1.5;"/>
      <line style="stroke:#000000;stroke-width:1.5;" x1="922" x2="1058.5495" y1="635.7378" y2="635.7378"/>
      <text fill="#000000" font-family="sans-serif" font-size="14" font-weight="bold" lengthAdjust="spacing" textLength="123.5495" x="926" y="627.6358">package_diagram</text>
    </g>
    <g id="cluster_C_0012558484942253952660">
      <path d="M996,782.6699 L1040.8198,782.6699 A3.75,3.75 0 0 1 1043.3198,785.1699 L1050.3198,807.7378 L1110,807.7378 A2.5,2.5 0 0 1 1112.5,810.2378 L1112.5,882.1699 A2.5,2.5 0 0 1 1110,884.6699 L996,884.6699 A2.5,2.5 0 0 1 993.5,882.1699 L993.5,785.1699 A2.5,2.5 0 0 1 996,782.6699 " fill="transparent" style="stroke:#000000;stroke-width:1.5;"/>
      <line style="stroke:#000000;stroke-width:1.5;" x1="993.5" x2="1050.3198" y1="807.7378" y2="807.7378"/>
      <text fill="#000000" font-family="sans-serif" font-size="14" font-weight="bold" lengthAdjust="spacing" textLength="43.8198" x="997.5" y="799.6358">model</text>
    </g>
    <g id="cluster_C_0001471162262834345471">
      <path d="M948.5,656.6699 L994.0618,656.6699 A3.75,3.75 0 0 1 996.5618,659.1699 L1003.5618,681.7378 L1157.5,681.7378 A2.5,2.5 0 0 1 1160,684.2378 L1160,756.1699 A2.5,2.5 0 0 1 1157.5,758.6699 L948.5,758.6699 A2.5,2.5 0 0 1 946,756.1699 L946,659.1699 A2.5,2.5 0 0 1 948.5,656.6699 " fill="transparent" style="stroke:#000000;stroke-width:1.5;"/>
      <line style="stroke:#000000;stroke-width:1.5;" x1="946" x2="1003.5618" y1="681.7378" y2="681.7378"/>
      <text fill="#000000" font-family="sans-serif" font-size="14" font-weight="bold" lengthAdjust="spacing" textLength="44.5618" x="950" y="673.6358">visitor</text>
    </g>
    <g id="cluster_C_0012174902727661033893">
      <path d="M924.5,92.6699 L1056.4975,92.6699 A3.75,3.75 0 0 1 1058.9975,95.1699 L1065.9975,117.7378 L1181.5,117.7378 A2.5,2.5 0 0 1 1184,120.2378 L1184,388.1699 A2.5,2.5 0 0 1 1181.5,390.6699 L924.5,390.6699 A2.5,2.5 0 0 1 922,388.1699 L922,95.1699 A2.5,2.5 0 0 1 924.5,92.6699 " fill="transparent" style="stroke:#000000;stroke-width:1.5;"/>
      <line style="stroke:#000000;stroke-width:1.5;" x1="922" x2="1065.9975" y1="117.7378" y2="117.7378"/>
      <text fill="#000000" font-family="sans-serif" font-size="14" font-weight="bold" lengthAdjust="spacing" textLength="130.9975" x="926" y="109.6358">sequence_diagram</text>
    </g>
    <g id="cluster_C_0017655759046645114118">
      <path d="M996,264.6699 L1040.8198,264.6699 A3.75,3.75 0 0 1 1043.3198,267.1699 L1050.3198,289.7378 L1110,289.7378 A2.5,2.5 0 0 1 1112.5,292.2378 L1112.5,364.1699 A2.5,2.5 0 0 1 1110,366.6699 L996,366.6699 A2.5,2.5 0 0 1 993.5,364.1699 L993.5,267.1699 A2.5,2.5 0 0 1 996,264.6699 " fill="transparent" style="stroke:#000000;stroke-width:1.5;"/>
      <line style="stroke:#000000;stroke-width:1.5;" x1="993.5" x2="1050.3198" y1="289.7378" y2="289.7378"/>
      <text fill="#000000" font-family="sans-serif" font-size="14" font-weight="bold" lengthAdjust="spacing" textLength="43.8198" x="997.5" y="281.6358">model</text>
    </g>
    <g id="cluster_C_0002812166065521257903">
      <path d="M948.5,138.6699 L994.0618,138.6699 A3.75,3.75 0 0 1 996.5618,141.1699 L1003.5618,163.7378 L1157.5,163.7378 A2.5,2.5 0 0 1 1160,166.2378 L1160,238.1699 A2.5,2.5 0 0 1 1157.5,240.6699 L948.5,240.6699 A2.5,2.5 0 0 1 946,238.1699 L946,141.1699 A2.5,2.5 0 0 1 948.5,138.6699 " fill="transparent" style="stroke:#000000;stroke-width:1.5;"/>
      <line style="stroke:#000000;stroke-width:1.5;" x1="946" x2="1003.5618" y1="163.7378" y2="163.7378"/>
      <text fill="#000000" font-family="sans-serif" font-size="14" font-weight="bold" lengthAdjust="spacing" textLength="44.5618" x="950" y="155.6358">visitor</text>
    </g>
    <a href="classclanguml_1_1common_1_1model_1_1diagram.html" target="_top" title="Base class for all diagram models" xlink:actuate="onRequest" xlink:href="classclanguml_1_1common_1_1model_1_1diagram.html" xlink:show="new" xlink:title="Base class for all diagram models" xlink:type="simple">
      <g id="elem_C_0001576551882566686996">
        <rect codeLine="7" fill="#F1F1F1" height="48" id="C_0001576551882566686996" rx="2.5" ry="2.5" style="stroke:#181818;stroke-width:0.5;" width="87.4118" x="342.5" y="1338.6699"/>
        <ellipse cx="357.5" cy="1354.6699" fill="#ADD1B2" rx="11" ry="11" style="stroke:#181818;stroke-width:1;"/>
        <path d="M360.4688,1360.3105 Q359.8906,1360.6074 359.25,1360.748 Q358.6094,1360.9043 357.9063,1360.9043 Q355.4063,1360.9043 354.0781,1359.2636 Q352.7656,1357.6074 352.7656,1354.4824 Q352.7656,1351.3574 354.0781,1349.7011 Q355.4063,1348.0449 357.9063,1348.0449 Q358.6094,1348.0449 359.25,1348.2011 Q359.9063,1348.3574 360.4688,1348.6543 L360.4688,1351.373 Q359.8438,1350.7949 359.25,1350.5293 Q358.6563,1350.248 358.0313,1350.248 Q356.6875,1350.248 356,1351.3261 Q355.3125,1352.3886 355.3125,1354.4824 Q355.3125,1356.5761 356,1357.6543 Q356.6875,1358.7168 358.0313,1358.7168 Q358.6563,1358.7168 359.25,1358.4511 Q359.8438,1358.1699 360.4688,1357.5918 L360.4688,1360.3105 Z " fill="#000000"/>
        <text fill="#000000" font-family="sans-serif" font-size="14" lengthAdjust="spacing" textLength="55.4118" x="371.5" y="1360.1019">diagram</text>
        <line style="stroke:#181818;stroke-width:0.5;" x1="343.5" x2="428.9118" y1="1370.6699" y2="1370.6699"/>
        <line style="stroke:#181818;stroke-width:0.5;" x1="343.5" x2="428.9118" y1="1378.6699" y2="1378.6699"/>
      </g>
    </a>
    <a href="classclanguml_1_1common_1_1visitor_1_1translation__unit__visitor.html" target="_top" title="Diagram translation unit visitor base class" xlink:actuate="onRequest" xlink:href="classclanguml_1_1common_1_1visitor_1_1translation__unit__visitor.html" xlink:show="new" xlink:title="Diagram translation unit visitor base class" xlink:type="simple">
      <g id="elem_C_0014290992758498762286">
        <rect codeLine="13" fill="#F1F1F1" height="48" id="C_0014290992758498762286" rx="2.5" ry="2.5" style="stroke:#181818;stroke-width:0.5;" width="282.7121" x="911.5" y="1671.6699"/>
        <ellipse cx="926.5" cy="1687.6699" fill="#ADD1B2" rx="11" ry="11" style="stroke:#181818;stroke-width:1;"/>
        <path d="M929.4688,1693.3105 Q928.8906,1693.6074 928.25,1693.748 Q927.6094,1693.9043 926.9063,1693.9043 Q924.4063,1693.9043 923.0781,1692.2636 Q921.7656,1690.6074 921.7656,1687.4824 Q921.7656,1684.3574 923.0781,1682.7011 Q924.4063,1681.0449 926.9063,1681.0449 Q927.6094,1681.0449 928.25,1681.2011 Q928.9063,1681.3574 929.4688,1681.6543 L929.4688,1684.373 Q928.8438,1683.7949 928.25,1683.5293 Q927.6563,1683.248 927.0313,1683.248 Q925.6875,1683.248 925,1684.3261 Q924.3125,1685.3886 924.3125,1687.4824 Q924.3125,1689.5761 925,1690.6543 Q925.6875,1691.7168 927.0313,1691.7168 Q927.6563,1691.7168 928.25,1691.4511 Q928.8438,1691.1699 929.4688,1690.5918 L929.4688,1693.3105 Z " fill="#000000"/>
        <text fill="#000000" font-family="sans-serif" font-size="14" lengthAdjust="spacing" textLength="150.0514" x="940.5" y="1693.1019">translation_unit_visitor</text>
        <rect fill="#FFFFFF" height="18.3441" style="stroke:#181818;stroke-width:1;stroke-dasharray:2.0,2.0;" width="98.6607" x="1098.5514" y="1668.6699"/>
        <text fill="#000000" font-family="sans-serif" font-size="12" font-style="italic" lengthAdjust="spacing" textLength="96.6607" x="1099.5514" y="1682.498">ConfigT,DiagramT</text>
        <line style="stroke:#181818;stroke-width:0.5;" x1="912.5" x2="1193.2121" y1="1703.6699" y2="1703.6699"/>
        <line style="stroke:#181818;stroke-width:0.5;" x1="912.5" x2="1193.2121" y1="1711.6699" y2="1711.6699"/>
      </g>
    </a>
    <a href="classclanguml_1_1common_1_1visitor_1_1template__builder.html" target="_top" title="template_builder" xlink:actuate="onRequest" xlink:href="classclanguml_1_1common_1_1visitor_1_1template__builder.html" xlink:show="new" xlink:title="template_builder" xlink:type="simple">
      <g id="elem_C_0006928801289515998382">
        <rect codeLine="17" fill="#F1F1F1" height="48" id="C_0006928801289515998382" rx="2.5" ry="2.5" style="stroke:#181818;stroke-width:0.5;" width="446.4856" x="163" y="1796.6699"/>
        <ellipse cx="178" cy="1812.6699" fill="#ADD1B2" rx="11" ry="11" style="stroke:#181818;stroke-width:1;"/>
        <path d="M180.9688,1818.3105 Q180.3906,1818.6074 179.75,1818.748 Q179.1094,1818.9043 178.4063,1818.9043 Q175.9063,1818.9043 174.5781,1817.2636 Q173.2656,1815.6074 173.2656,1812.4824 Q173.2656,1809.3574 174.5781,1807.7011 Q175.9063,1806.0449 178.4063,1806.0449 Q179.1094,1806.0449 179.75,1806.2011 Q180.4063,1806.3574 180.9688,1806.6543 L180.9688,1809.373 Q180.3438,1808.7949 179.75,1808.5293 Q179.1563,1808.248 178.5313,1808.248 Q177.1875,1808.248 176.5,1809.3261 Q175.8125,1810.3886 175.8125,1812.4824 Q175.8125,1814.5761 176.5,1815.6543 Q177.1875,1816.7168 178.5313,1816.7168 Q179.1563,1816.7168 179.75,1816.4511 Q180.3438,1816.1699 180.9688,1815.5918 L180.9688,1818.3105 Z " fill="#000000"/>
        <text fill="#000000" font-family="sans-serif" font-size="14" lengthAdjust="spacing" textLength="112.0556" x="192" y="1818.1019">template_builder</text>
        <rect fill="#FFFFFF" height="18.3441" style="stroke:#181818;stroke-width:1;stroke-dasharray:2.0,2.0;" width="300.43" x="312.0556" y="1793.6699"/>
        <text fill="#000000" font-family="sans-serif" font-size="12" font-style="italic" lengthAdjust="spacing" textLength="298.43" x="313.0556" y="1807.498">clanguml::class_diagram::visitor::translation_unit_visitor</text>
        <line style="stroke:#181818;stroke-width:0.5;" x1="164" x2="608.4856" y1="1828.6699" y2="1828.6699"/>
        <line style="stroke:#181818;stroke-width:0.5;" x1="164" x2="608.4856" y1="1836.6699" y2="1836.6699"/>
      </g>
    </a>
    <a href="classclanguml_1_1common_1_1visitor_1_1translation__unit__visitor.html" target="_top" title="translation_unit_visitor" xlink:actuate="onRequest" xlink:href="classclanguml_1_1common_1_1visitor_1_1translation__unit__visitor.html" xlink:show="new" xlink:title="translation_unit_visitor" xlink:type="simple">
      <g id="elem_C_0005184632287329019882">
        <rect codeLine="21" fill="#F1F1F1" height="48" id="C_0005184632287329019882" rx="2.5" ry="2.5" style="stroke:#181818;stroke-width:0.5;" width="584.3223" x="94" y="1879.6699"/>
        <ellipse cx="109" cy="1895.6699" fill="#ADD1B2" rx="11" ry="11" style="stroke:#181818;stroke-width:1;"/>
        <path d="M111.9688,1901.3105 Q111.3906,1901.6074 110.75,1901.748 Q110.1094,1901.9043 109.4063,1901.9043 Q106.9063,1901.9043 105.5781,1900.2636 Q104.2656,1898.6074 104.2656,1895.4824 Q104.2656,1892.3574 105.5781,1890.7011 Q106.9063,1889.0449 109.4063,1889.0449 Q110.1094,1889.0449 110.75,1889.2011 Q111.4063,1889.3574 111.9688,1889.6543 L111.9688,1892.373 Q111.3438,1891.7949 110.75,1891.5293 Q110.1563,1891.248 109.5313,1891.248 Q108.1875,1891.248 107.5,1892.3261 Q106.8125,1893.3886 106.8125,1895.4824 Q106.8125,1897.5761 107.5,1898.6543 Q108.1875,1899.7168 109.5313,1899.7168 Q110.1563,1899.7168 110.75,1899.4511 Q111.3438,1899.1699 111.9688,1898.5918 L111.9688,1901.3105 Z " fill="#000000"/>
        <text fill="#000000" font-family="sans-serif" font-size="14" lengthAdjust="spacing" textLength="150.0514" x="123" y="1901.1019">translation_unit_visitor</text>
        <rect fill="#FFFFFF" height="18.3441" style="stroke:#181818;stroke-width:1;stroke-dasharray:2.0,2.0;" width="400.2708" x="281.0514" y="1876.6699"/>
        <text fill="#000000" font-family="sans-serif" font-size="12" font-style="italic" lengthAdjust="spacing" textLength="398.2708" x="282.0514" y="1890.498">clanguml::config::class_diagram,clanguml::class_diagram::model::diagram</text>
        <line style="stroke:#181818;stroke-width:0.5;" x1="95" x2="677.3223" y1="1911.6699" y2="1911.6699"/>
        <line style="stroke:#181818;stroke-width:0.5;" x1="95" x2="677.3223" y1="1919.6699" y2="1919.6699"/>
      </g>
    </a>
    <a href="classclanguml_1_1common_1_1visitor_1_1translation__unit__visitor.html" target="_top" title="translation_unit_visitor" xlink:actuate="onRequest" xlink:href="classclanguml_1_1common_1_1visitor_1_1translation__unit__visitor.html" xlink:show="new" xlink:title="translation_unit_visitor" xlink:type="simple">
      <g id="elem_C_0010797356058171728853">
        <rect codeLine="25" fill="#F1F1F1" height="48" id="C_0010797356058171728853" rx="2.5" ry="2.5" style="stroke:#181818;stroke-width:0.5;" width="609.8104" x="81" y="1630.6699"/>
        <ellipse cx="96" cy="1646.6699" fill="#ADD1B2" rx="11" ry="11" style="stroke:#181818;stroke-width:1;"/>
        <path d="M98.9688,1652.3105 Q98.3906,1652.6074 97.75,1652.748 Q97.1094,1652.9043 96.4063,1652.9043 Q93.9063,1652.9043 92.5781,1651.2636 Q91.2656,1649.6074 91.2656,1646.4824 Q91.2656,1643.3574 92.5781,1641.7011 Q93.9063,1640.0449 96.4063,1640.0449 Q97.1094,1640.0449 97.75,1640.2011 Q98.4063,1640.3574 98.9688,1640.6543 L98.9688,1643.373 Q98.3438,1642.7949 97.75,1642.5293 Q97.1563,1642.248 96.5313,1642.248 Q95.1875,1642.248 94.5,1643.3261 Q93.8125,1644.3886 93.8125,1646.4824 Q93.8125,1648.5761 94.5,1649.6543 Q95.1875,1650.7168 96.5313,1650.7168 Q97.1563,1650.7168 97.75,1650.4511 Q98.3438,1650.1699 98.9688,1649.5918 L98.9688,1652.3105 Z " fill="#000000"/>
        <text fill="#000000" font-family="sans-serif" font-size="14" lengthAdjust="spacing" textLength="150.0514" x="110" y="1652.1019">translation_unit_visitor</text>
        <rect fill="#FFFFFF" height="18.3441" style="stroke:#181818;stroke-width:1;stroke-dasharray:2.0,2.0;" width="425.759" x="268.0514" y="1627.6699"/>
        <text fill="#000000" font-family="sans-serif" font-size="12" font-style="italic" lengthAdjust="spacing" textLength="423.759" x="269.0514" y="1641.498">clanguml::config::include_diagram,clanguml::include_diagram::model::diagram</text>
        <line style="stroke:#181818;stroke-width:0.5;" x1="82" x2="689.8104" y1="1662.6699" y2="1662.6699"/>
        <line style="stroke:#181818;stroke-width:0.5;" x1="82" x2="689.8104" y1="1670.6699" y2="1670.6699"/>
      </g>
    </a>
    <a href="classclanguml_1_1common_1_1visitor_1_1translation__unit__visitor.html" target="_top" title="translation_unit_visitor" xlink:actuate="onRequest" xlink:href="classclanguml_1_1common_1_1visitor_1_1translation__unit__visitor.html" xlink:show="new" xlink:title="translation_unit_visitor" xlink:type="simple">
      <g id="elem_C_0000788514013195129993">
        <rect codeLine="29" fill="#F1F1F1" height="48" id="C_0000788514013195129993" rx="2.5" ry="2.5" style="stroke:#181818;stroke-width:0.5;" width="622.6745" x="74.5" y="1713.6699"/>
        <ellipse cx="89.5" cy="1729.6699" fill="#ADD1B2" rx="11" ry="11" style="stroke:#181818;stroke-width:1;"/>
        <path d="M92.4688,1735.3105 Q91.8906,1735.6074 91.25,1735.748 Q90.6094,1735.9043 89.9063,1735.9043 Q87.4063,1735.9043 86.0781,1734.2636 Q84.7656,1732.6074 84.7656,1729.4824 Q84.7656,1726.3574 86.0781,1724.7011 Q87.4063,1723.0449 89.9063,1723.0449 Q90.6094,1723.0449 91.25,1723.2011 Q91.9063,1723.3574 92.4688,1723.6543 L92.4688,1726.373 Q91.8438,1725.7949 91.25,1725.5293 Q90.6563,1725.248 90.0313,1725.248 Q88.6875,1725.248 88,1726.3261 Q87.3125,1727.3886 87.3125,1729.4824 Q87.3125,1731.5761 88,1732.6543 Q88.6875,1733.7168 90.0313,1733.7168 Q90.6563,1733.7168 91.25,1733.4511 Q91.8438,1733.1699 92.4688,1732.5918 L92.4688,1735.3105 Z " fill="#000000"/>
        <text fill="#000000" font-family="sans-serif" font-size="14" lengthAdjust="spacing" textLength="150.0514" x="103.5" y="1735.1019">translation_unit_visitor</text>
        <rect fill="#FFFFFF" height="18.3441" style="stroke:#181818;stroke-width:1;stroke-dasharray:2.0,2.0;" width="438.623" x="261.5514" y="1710.6699"/>
        <text fill="#000000" font-family="sans-serif" font-size="12" font-style="italic" lengthAdjust="spacing" textLength="436.623" x="262.5514" y="1724.498">clanguml::config::package_diagram,clanguml::package_diagram::model::diagram</text>
        <line style="stroke:#181818;stroke-width:0.5;" x1="75.5" x2="696.1745" y1="1745.6699" y2="1745.6699"/>
        <line style="stroke:#181818;stroke-width:0.5;" x1="75.5" x2="696.1745" y1="1753.6699" y2="1753.6699"/>
      </g>
    </a>
    <a href="classclanguml_1_1common_1_1visitor_1_1template__builder.html" target="_top" title="template_builder" xlink:actuate="onRequest" xlink:href="classclanguml_1_1common_1_1visitor_1_1template__builder.html" xlink:show="new" xlink:title="template_builder" xlink:type="simple">
      <g id="elem_C_0016589185193012457922">
        <rect codeLine="33" fill="#F1F1F1" height="48" id="C_0016589185193012457922" rx="2.5" ry="2.5" style="stroke:#181818;stroke-width:0.5;" width="470.1978" x="151" y="1464.6699"/>
        <ellipse cx="166" cy="1480.6699" fill="#ADD1B2" rx="11" ry="11" style="stroke:#181818;stroke-width:1;"/>
        <path d="M168.9688,1486.3105 Q168.3906,1486.6074 167.75,1486.748 Q167.1094,1486.9043 166.4063,1486.9043 Q163.9063,1486.9043 162.5781,1485.2636 Q161.2656,1483.6074 161.2656,1480.4824 Q161.2656,1477.3574 162.5781,1475.7011 Q163.9063,1474.0449 166.4063,1474.0449 Q167.1094,1474.0449 167.75,1474.2011 Q168.4063,1474.3574 168.9688,1474.6543 L168.9688,1477.373 Q168.3438,1476.7949 167.75,1476.5293 Q167.1563,1476.248 166.5313,1476.248 Q165.1875,1476.248 164.5,1477.3261 Q163.8125,1478.3886 163.8125,1480.4824 Q163.8125,1482.5761 164.5,1483.6543 Q165.1875,1484.7168 166.5313,1484.7168 Q167.1563,1484.7168 167.75,1484.4511 Q168.3438,1484.1699 168.9688,1483.5918 L168.9688,1486.3105 Z " fill="#000000"/>
        <text fill="#000000" font-family="sans-serif" font-size="14" lengthAdjust="spacing" textLength="112.0556" x="180" y="1486.1019">template_builder</text>
        <rect fill="#FFFFFF" height="18.3441" style="stroke:#181818;stroke-width:1;stroke-dasharray:2.0,2.0;" width="324.1422" x="300.0556" y="1461.6699"/>
        <text fill="#000000" font-family="sans-serif" font-size="12" font-style="italic" lengthAdjust="spacing" textLength="322.1422" x="301.0556" y="1475.498">clanguml::sequence_diagram::visitor::translation_unit_visitor</text>
        <line style="stroke:#181818;stroke-width:0.5;" x1="152" x2="620.1978" y1="1496.6699" y2="1496.6699"/>
        <line style="stroke:#181818;stroke-width:0.5;" x1="152" x2="620.1978" y1="1504.6699" y2="1504.6699"/>
      </g>
    </a>
    <a href="classclanguml_1_1common_1_1visitor_1_1translation__unit__visitor.html" target="_top" title="translation_unit_visitor" xlink:actuate="onRequest" xlink:href="classclanguml_1_1common_1_1visitor_1_1translation__unit__visitor.html" xlink:show="new" xlink:title="translation_unit_visitor" xlink:type="simple">
      <g id="elem_C_0000336264923250556599">
        <rect codeLine="37" fill="#F1F1F1" height="48" id="C_0000336264923250556599" rx="2.5" ry="2.5" style="stroke:#181818;stroke-width:0.5;" width="631.7465" x="70" y="1547.6699"/>
        <ellipse cx="85" cy="1563.6699" fill="#ADD1B2" rx="11" ry="11" style="stroke:#181818;stroke-width:1;"/>
        <path d="M87.9688,1569.3105 Q87.3906,1569.6074 86.75,1569.748 Q86.1094,1569.9043 85.4063,1569.9043 Q82.9063,1569.9043 81.5781,1568.2636 Q80.2656,1566.6074 80.2656,1563.4824 Q80.2656,1560.3574 81.5781,1558.7011 Q82.9063,1557.0449 85.4063,1557.0449 Q86.1094,1557.0449 86.75,1557.2011 Q87.4063,1557.3574 87.9688,1557.6543 L87.9688,1560.373 Q87.3438,1559.7949 86.75,1559.5293 Q86.1563,1559.248 85.5313,1559.248 Q84.1875,1559.248 83.5,1560.3261 Q82.8125,1561.3886 82.8125,1563.4824 Q82.8125,1565.5761 83.5,1566.6543 Q84.1875,1567.7168 85.5313,1567.7168 Q86.1563,1567.7168 86.75,1567.4511 Q87.3438,1567.1699 87.9688,1566.5918 L87.9688,1569.3105 Z " fill="#000000"/>
        <text fill="#000000" font-family="sans-serif" font-size="14" lengthAdjust="spacing" textLength="150.0514" x="99" y="1569.1019">translation_unit_visitor</text>
        <rect fill="#FFFFFF" height="18.3441" style="stroke:#181818;stroke-width:1;stroke-dasharray:2.0,2.0;" width="447.6951" x="257.0514" y="1544.6699"/>
        <text fill="#000000" font-family="sans-serif" font-size="12" font-style="italic" lengthAdjust="spacing" textLength="445.6951" x="258.0514" y="1558.498">clanguml::config::sequence_diagram,clanguml::sequence_diagram::model::diagram</text>
        <line style="stroke:#181818;stroke-width:0.5;" x1="71" x2="700.7465" y1="1579.6699" y2="1579.6699"/>
        <line style="stroke:#181818;stroke-width:0.5;" x1="71" x2="700.7465" y1="1587.6699" y2="1587.6699"/>
      </g>
    </a>
    <a href="classclanguml_1_1class__diagram_1_1model_1_1diagram.html" target="_top" title="Class representing a class diagram." xlink:actuate="onRequest" xlink:href="classclanguml_1_1class__diagram_1_1model_1_1diagram.html" xlink:show="new" xlink:title="Class representing a class diagram." xlink:type="simple">
      <g id="elem_C_0007315456613526221498">
        <rect codeLine="45" fill="#F1F1F1" height="48" id="C_0007315456613526221498" rx="2.5" ry="2.5" style="stroke:#181818;stroke-width:0.5;" width="87.4118" x="1009.5" y="1142.6699"/>
        <ellipse cx="1024.5" cy="1158.6699" fill="#ADD1B2" rx="11" ry="11" style="stroke:#181818;stroke-width:1;"/>
        <path d="M1027.4688,1164.3105 Q1026.8906,1164.6074 1026.25,1164.748 Q1025.6094,1164.9043 1024.9063,1164.9043 Q1022.4063,1164.9043 1021.0781,1163.2636 Q1019.7656,1161.6074 1019.7656,1158.4824 Q1019.7656,1155.3574 1021.0781,1153.7011 Q1022.4063,1152.0449 1024.9063,1152.0449 Q1025.6094,1152.0449 1026.25,1152.2011 Q1026.9063,1152.3574 1027.4688,1152.6543 L1027.4688,1155.373 Q1026.8438,1154.7949 1026.25,1154.5293 Q1025.6563,1154.248 1025.0313,1154.248 Q1023.6875,1154.248 1023,1155.3261 Q1022.3125,1156.3886 1022.3125,1158.4824 Q1022.3125,1160.5761 1023,1161.6543 Q1023.6875,1162.7168 1025.0313,1162.7168 Q1025.6563,1162.7168 1026.25,1162.4511 Q1026.8438,1162.1699 1027.4688,1161.5918 L1027.4688,1164.3105 Z " fill="#000000"/>
        <text fill="#000000" font-family="sans-serif" font-size="14" lengthAdjust="spacing" textLength="55.4118" x="1038.5" y="1164.1019">diagram</text>
        <line style="stroke:#181818;stroke-width:0.5;" x1="1010.5" x2="1095.9118" y1="1174.6699" y2="1174.6699"/>
        <line style="stroke:#181818;stroke-width:0.5;" x1="1010.5" x2="1095.9118" y1="1182.6699" y2="1182.6699"/>
      </g>
    </a>
    <a href="classclanguml_1_1class__diagram_1_1visitor_1_1translation__unit__visitor.html" target="_top" title="Class diagram translation unit visitor" xlink:actuate="onRequest" xlink:href="classclanguml_1_1class__diagram_1_1visitor_1_1translation__unit__visitor.html" xlink:show="new" xlink:title="Class diagram translation unit visitor" xlink:type="simple">
      <g id="elem_C_0013934086101141939615">
        <rect codeLine="51" fill="#F1F1F1" height="48" id="C_0013934086101141939615" rx="2.5" ry="2.5" style="stroke:#181818;stroke-width:0.5;" width="182.0514" x="962" y="1016.6699"/>
        <ellipse cx="977" cy="1032.6699" fill="#ADD1B2" rx="11" ry="11" style="stroke:#181818;stroke-width:1;"/>
        <path d="M979.9688,1038.3105 Q979.3906,1038.6074 978.75,1038.748 Q978.1094,1038.9043 977.4063,1038.9043 Q974.9063,1038.9043 973.5781,1037.2636 Q972.2656,1035.6074 972.2656,1032.4824 Q972.2656,1029.3574 973.5781,1027.7011 Q974.9063,1026.0449 977.4063,1026.0449 Q978.1094,1026.0449 978.75,1026.2011 Q979.4063,1026.3574 979.9688,1026.6543 L979.9688,1029.373 Q979.3438,1028.7949 978.75,1028.5293 Q978.1563,1028.248 977.5313,1028.248 Q976.1875,1028.248 975.5,1029.3261 Q974.8125,1030.3886 974.8125,1032.4824 Q974.8125,1034.5761 975.5,1035.6543 Q976.1875,1036.7168 977.5313,1036.7168 Q978.1563,1036.7168 978.75,1036.4511 Q979.3438,1036.1699 979.9688,1035.5918 L979.9688,1038.3105 Z " fill="#000000"/>
        <text fill="#000000" font-family="sans-serif" font-size="14" lengthAdjust="spacing" textLength="150.0514" x="991" y="1038.1019">translation_unit_visitor</text>
        <line style="stroke:#181818;stroke-width:0.5;" x1="963" x2="1143.0514" y1="1048.6699" y2="1048.6699"/>
        <line style="stroke:#181818;stroke-width:0.5;" x1="963" x2="1143.0514" y1="1056.6699" y2="1056.6699"/>
      </g>
    </a>
    <a href="classclanguml_1_1include__diagram_1_1model_1_1diagram.html" target="_top" title="Class representing an include diagram model." xlink:actuate="onRequest" xlink:href="classclanguml_1_1include__diagram_1_1model_1_1diagram.html" xlink:show="new" xlink:title="Class representing an include diagram model." xlink:type="simple">
      <g id="elem_C_0002467043186855586999">
        <rect codeLine="59" fill="#F1F1F1" height="48" id="C_0002467043186855586999" rx="2.5" ry="2.5" style="stroke:#181818;stroke-width:0.5;" width="87.4118" x="1598.5" y="498.6699"/>
        <ellipse cx="1613.5" cy="514.6699" fill="#ADD1B2" rx="11" ry="11" style="stroke:#181818;stroke-width:1;"/>
        <path d="M1616.4688,520.3105 Q1615.8906,520.6074 1615.25,520.748 Q1614.6094,520.9043 1613.9063,520.9043 Q1611.4063,520.9043 1610.0781,519.2636 Q1608.7656,517.6074 1608.7656,514.4824 Q1608.7656,511.3574 1610.0781,509.7011 Q1611.4063,508.0449 1613.9063,508.0449 Q1614.6094,508.0449 1615.25,508.2011 Q1615.9063,508.3574 1616.4688,508.6543 L1616.4688,511.373 Q1615.8438,510.7949 1615.25,510.5293 Q1614.6563,510.248 1614.0313,510.248 Q1612.6875,510.248 1612,511.3261 Q1611.3125,512.3886 1611.3125,514.4824 Q1611.3125,516.5761 1612,517.6543 Q1612.6875,518.7168 1614.0313,518.7168 Q1614.6563,518.7168 1615.25,518.4511 Q1615.8438,518.1699 1616.4688,517.5918 L1616.4688,520.3105 Z " fill="#000000"/>
        <text fill="#000000" font-family="sans-serif" font-size="14" lengthAdjust="spacing" textLength="55.4118" x="1627.5" y="520.1019">diagram</text>
        <line style="stroke:#181818;stroke-width:0.5;" x1="1599.5" x2="1684.9118" y1="530.6699" y2="530.6699"/>
        <line style="stroke:#181818;stroke-width:0.5;" x1="1599.5" x2="1684.9118" y1="538.6699" y2="538.6699"/>
      </g>
    </a>
    <a href="classclanguml_1_1include__diagram_1_1visitor_1_1translation__unit__visitor.html" target="_top" title="Include diagram translation unit visitor wrapper" xlink:actuate="onRequest" xlink:href="classclanguml_1_1include__diagram_1_1visitor_1_1translation__unit__visitor.html" xlink:show="new" xlink:title="Include diagram translation unit visitor wrapper" xlink:type="simple">
      <g id="elem_C_0015659136776023822053">
        <rect codeLine="65" fill="#F1F1F1" height="48" id="C_0015659136776023822053" rx="2.5" ry="2.5" style="stroke:#181818;stroke-width:0.5;" width="182.0514" x="1281.5" y="498.6699"/>
        <ellipse cx="1296.5" cy="514.6699" fill="#ADD1B2" rx="11" ry="11" style="stroke:#181818;stroke-width:1;"/>
        <path d="M1299.4688,520.3105 Q1298.8906,520.6074 1298.25,520.748 Q1297.6094,520.9043 1296.9063,520.9043 Q1294.4063,520.9043 1293.0781,519.2636 Q1291.7656,517.6074 1291.7656,514.4824 Q1291.7656,511.3574 1293.0781,509.7011 Q1294.4063,508.0449 1296.9063,508.0449 Q1297.6094,508.0449 1298.25,508.2011 Q1298.9063,508.3574 1299.4688,508.6543 L1299.4688,511.373 Q1298.8438,510.7949 1298.25,510.5293 Q1297.6563,510.248 1297.0313,510.248 Q1295.6875,510.248 1295,511.3261 Q1294.3125,512.3886 1294.3125,514.4824 Q1294.3125,516.5761 1295,517.6543 Q1295.6875,518.7168 1297.0313,518.7168 Q1297.6563,518.7168 1298.25,518.4511 Q1298.8438,518.1699 1299.4688,517.5918 L1299.4688,520.3105 Z " fill="#000000"/>
        <text fill="#000000" font-family="sans-serif" font-size="14" lengthAdjust="spacing" textLength="150.0514" x="1310.5" y="520.1019">translation_unit_visitor</text>
        <line style="stroke:#181818;stroke-width:0.5;" x1="1282.5" x2="1462.5514" y1="530.6699" y2="530.6699"/>
        <line style="stroke:#181818;stroke-width:0.5;" x1="1282.5" x2="1462.5514" y1="538.6699" y2="538.6699"/>
      </g>
    </a>
    <a href="classclanguml_1_1include__diagram_1_1visitor_1_1translation__unit__visitor_1_1include__visitor.html" target="_top" title="translation_unit_visitor::include_visitor" xlink:actuate="onRequest" xlink:href="classclanguml_1_1include__diagram_1_1visitor_1_1translation__unit__visitor_1_1include__visitor.html" xlink:show="new" xlink:title="translation_unit_visitor::include_visitor" xlink:type="simple">
      <g id="elem_C_0000567484436108945460">
        <rect codeLine="69" fill="#F1F1F1" height="48" id="C_0000567484436108945460" rx="2.5" ry="2.5" style="stroke:#181818;stroke-width:0.5;" width="283.873" x="911" y="498.6699"/>
        <ellipse cx="926" cy="514.6699" fill="#ADD1B2" rx="11" ry="11" style="stroke:#181818;stroke-width:1;"/>
        <path d="M928.9688,520.3105 Q928.3906,520.6074 927.75,520.748 Q927.1094,520.9043 926.4063,520.9043 Q923.9063,520.9043 922.5781,519.2636 Q921.2656,517.6074 921.2656,514.4824 Q921.2656,511.3574 922.5781,509.7011 Q923.9063,508.0449 926.4063,508.0449 Q927.1094,508.0449 927.75,508.2011 Q928.4063,508.3574 928.9688,508.6543 L928.9688,511.373 Q928.3438,510.7949 927.75,510.5293 Q927.1563,510.248 926.5313,510.248 Q925.1875,510.248 924.5,511.3261 Q923.8125,512.3886 923.8125,514.4824 Q923.8125,516.5761 924.5,517.6543 Q925.1875,518.7168 926.5313,518.7168 Q927.1563,518.7168 927.75,518.4511 Q928.3438,518.1699 928.9688,517.5918 L928.9688,520.3105 Z " fill="#000000"/>
        <text fill="#000000" font-family="sans-serif" font-size="14" lengthAdjust="spacing" textLength="251.873" x="940" y="520.1019">translation_unit_visitor::include_visitor</text>
        <line style="stroke:#181818;stroke-width:0.5;" x1="912" x2="1193.873" y1="530.6699" y2="530.6699"/>
        <line style="stroke:#181818;stroke-width:0.5;" x1="912" x2="1193.873" y1="538.6699" y2="538.6699"/>
      </g>
    </a>
    <a href="classclanguml_1_1package__diagram_1_1model_1_1diagram.html" target="_top" title="Package diagram model." xlink:actuate="onRequest" xlink:href="classclanguml_1_1package__diagram_1_1model_1_1diagram.html" xlink:show="new" xlink:title="Package diagram model." xlink:type="simple">
      <g id="elem_C_0001188296008369339829">
        <rect codeLine="77" fill="#F1F1F1" height="48" id="C_0001188296008369339829" rx="2.5" ry="2.5" style="stroke:#181818;stroke-width:0.5;" width="87.4118" x="1009.5" y="820.6699"/>
        <ellipse cx="1024.5" cy="836.6699" fill="#ADD1B2" rx="11" ry="11" style="stroke:#181818;stroke-width:1;"/>
        <path d="M1027.4688,842.3105 Q1026.8906,842.6074 1026.25,842.748 Q1025.6094,842.9043 1024.9063,842.9043 Q1022.4063,842.9043 1021.0781,841.2636 Q1019.7656,839.6074 1019.7656,836.4824 Q1019.7656,833.3574 1021.0781,831.7011 Q1022.4063,830.0449 1024.9063,830.0449 Q1025.6094,830.0449 1026.25,830.2011 Q1026.9063,830.3574 1027.4688,830.6543 L1027.4688,833.373 Q1026.8438,832.7949 1026.25,832.5293 Q1025.6563,832.248 1025.0313,832.248 Q1023.6875,832.248 1023,833.3261 Q1022.3125,834.3886 1022.3125,836.4824 Q1022.3125,838.5761 1023,839.6543 Q1023.6875,840.7168 1025.0313,840.7168 Q1025.6563,840.7168 1026.25,840.4511 Q1026.8438,840.1699 1027.4688,839.5918 L1027.4688,842.3105 Z " fill="#000000"/>
        <text fill="#000000" font-family="sans-serif" font-size="14" lengthAdjust="spacing" textLength="55.4118" x="1038.5" y="842.1019">diagram</text>
        <line style="stroke:#181818;stroke-width:0.5;" x1="1010.5" x2="1095.9118" y1="852.6699" y2="852.6699"/>
        <line style="stroke:#181818;stroke-width:0.5;" x1="1010.5" x2="1095.9118" y1="860.6699" y2="860.6699"/>
      </g>
    </a>
    <a href="classclanguml_1_1package__diagram_1_1visitor_1_1translation__unit__visitor.html" target="_top" title="Package diagram translation unit visitor" xlink:actuate="onRequest" xlink:href="classclanguml_1_1package__diagram_1_1visitor_1_1translation__unit__visitor.html" xlink:show="new" xlink:title="Package diagram translation unit visitor" xlink:type="simple">
      <g id="elem_C_0010290736275922634760">
        <rect codeLine="83" fill="#F1F1F1" height="48" id="C_0010290736275922634760" rx="2.5" ry="2.5" style="stroke:#181818;stroke-width:0.5;" width="182.0514" x="962" y="694.6699"/>
        <ellipse cx="977" cy="710.6699" fill="#ADD1B2" rx="11" ry="11" style="stroke:#181818;stroke-width:1;"/>
        <path d="M979.9688,716.3105 Q979.3906,716.6074 978.75,716.748 Q978.1094,716.9043 977.4063,716.9043 Q974.9063,716.9043 973.5781,715.2636 Q972.2656,713.6074 972.2656,710.4824 Q972.2656,707.3574 973.5781,705.7011 Q974.9063,704.0449 977.4063,704.0449 Q978.1094,704.0449 978.75,704.2011 Q979.4063,704.3574 979.9688,704.6543 L979.9688,707.373 Q979.3438,706.7949 978.75,706.5293 Q978.1563,706.248 977.5313,706.248 Q976.1875,706.248 975.5,707.3261 Q974.8125,708.3886 974.8125,710.4824 Q974.8125,712.5761 975.5,713.6543 Q976.1875,714.7168 977.5313,714.7168 Q978.1563,714.7168 978.75,714.4511 Q979.3438,714.1699 979.9688,713.5918 L979.9688,716.3105 Z " fill="#000000"/>
        <text fill="#000000" font-family="sans-serif" font-size="14" lengthAdjust="spacing" textLength="150.0514" x="991" y="716.1019">translation_unit_visitor</text>
        <line style="stroke:#181818;stroke-width:0.5;" x1="963" x2="1143.0514" y1="726.6699" y2="726.6699"/>
        <line style="stroke:#181818;stroke-width:0.5;" x1="963" x2="1143.0514" y1="734.6699" y2="734.6699"/>
      </g>
    </a>
    <a href="classclanguml_1_1sequence__diagram_1_1model_1_1diagram.html" target="_top" title="Model of a sequence diagram" xlink:actuate="onRequest" xlink:href="classclanguml_1_1sequence__diagram_1_1model_1_1diagram.html" xlink:show="new" xlink:title="Model of a sequence diagram" xlink:type="simple">
      <g id="elem_C_0007392356576284087808">
        <rect codeLine="91" fill="#F1F1F1" height="48" id="C_0007392356576284087808" rx="2.5" ry="2.5" style="stroke:#181818;stroke-width:0.5;" width="87.4118" x="1009.5" y="302.6699"/>
        <ellipse cx="1024.5" cy="318.6699" fill="#ADD1B2" rx="11" ry="11" style="stroke:#181818;stroke-width:1;"/>
        <path d="M1027.4688,324.3105 Q1026.8906,324.6074 1026.25,324.748 Q1025.6094,324.9043 1024.9063,324.9043 Q1022.4063,324.9043 1021.0781,323.2636 Q1019.7656,321.6074 1019.7656,318.4824 Q1019.7656,315.3574 1021.0781,313.7011 Q1022.4063,312.0449 1024.9063,312.0449 Q1025.6094,312.0449 1026.25,312.2011 Q1026.9063,312.3574 1027.4688,312.6543 L1027.4688,315.373 Q1026.8438,314.7949 1026.25,314.5293 Q1025.6563,314.248 1025.0313,314.248 Q1023.6875,314.248 1023,315.3261 Q1022.3125,316.3886 1022.3125,318.4824 Q1022.3125,320.5761 1023,321.6543 Q1023.6875,322.7168 1025.0313,322.7168 Q1025.6563,322.7168 1026.25,322.4511 Q1026.8438,322.1699 1027.4688,321.5918 L1027.4688,324.3105 Z " fill="#000000"/>
        <text fill="#000000" font-family="sans-serif" font-size="14" lengthAdjust="spacing" textLength="55.4118" x="1038.5" y="324.1019">diagram</text>
        <line style="stroke:#181818;stroke-width:0.5;" x1="1010.5" x2="1095.9118" y1="334.6699" y2="334.6699"/>
        <line style="stroke:#181818;stroke-width:0.5;" x1="1010.5" x2="1095.9118" y1="342.6699" y2="342.6699"/>
      </g>
    </a>
    <a href="classclanguml_1_1sequence__diagram_1_1visitor_1_1translation__unit__visitor.html" target="_top" title="Sequence diagram translation unit visitor" xlink:actuate="onRequest" xlink:href="classclanguml_1_1sequence__diagram_1_1visitor_1_1translation__unit__visitor.html" xlink:show="new" xlink:title="Sequence diagram translation unit visitor" xlink:type="simple">
      <g id="elem_C_0009834819563374321482">
        <rect codeLine="97" fill="#F1F1F1" height="48" id="C_0009834819563374321482" rx="2.5" ry="2.5" style="stroke:#181818;stroke-width:0.5;" width="182.0514" x="962" y="176.6699"/>
        <ellipse cx="977" cy="192.6699" fill="#ADD1B2" rx="11" ry="11" style="stroke:#181818;stroke-width:1;"/>
        <path d="M979.9688,198.3105 Q979.3906,198.6074 978.75,198.748 Q978.1094,198.9043 977.4063,198.9043 Q974.9063,198.9043 973.5781,197.2636 Q972.2656,195.6074 972.2656,192.4824 Q972.2656,189.3574 973.5781,187.7011 Q974.9063,186.0449 977.4063,186.0449 Q978.1094,186.0449 978.75,186.2011 Q979.4063,186.3574 979.9688,186.6543 L979.9688,189.373 Q979.3438,188.7949 978.75,188.5293 Q978.1563,188.248 977.5313,188.248 Q976.1875,188.248 975.5,189.3261 Q974.8125,190.3886 974.8125,192.4824 Q974.8125,194.5761 975.5,195.6543 Q976.1875,196.7168 977.5313,196.7168 Q978.1563,196.7168 978.75,196.4511 Q979.3438,196.1699 979.9688,195.5918 L979.9688,198.3105 Z " fill="#000000"/>
        <text fill="#000000" font-family="sans-serif" font-size="14" lengthAdjust="spacing" textLength="150.0514" x="991" y="198.1019">translation_unit_visitor</text>
        <line style="stroke:#181818;stroke-width:0.5;" x1="963" x2="1143.0514" y1="208.6699" y2="208.6699"/>
        <line style="stroke:#181818;stroke-width:0.5;" x1="963" x2="1143.0514" y1="216.6699" y2="216.6699"/>
      </g>
    </a>
    <g id="link_C_0005184632287329019882_C_0014290992758498762286">
      <path codeLine="103" d="M631.51,1879.6299 C655.55,1874.9399 679.39,1869.3499 702,1862.6699 C820.64,1827.6099 933.7749,1765.9657 996.9349,1728.8157 " fill="transparent" id="C_0005184632287329019882-to-C_0014290992758498762286" style="stroke:#181818;stroke-width:1;stroke-dasharray:7.0,7.0;"/>
      <polygon fill="transparent" points="1012.45,1719.6899,993.8929,1723.644,999.9768,1733.9874,1012.45,1719.6899" style="stroke:#181818;stroke-width:1;"/>
    </g>
    <g id="link_C_0010797356058171728853_C_0014290992758498762286">
      <path codeLine="104" d="M691.28,1673.4299 C768.06,1678.1599 828.8942,1681.9105 893.1842,1685.8805 " fill="transparent" id="C_0010797356058171728853-to-C_0014290992758498762286" style="stroke:#181818;stroke-width:1;stroke-dasharray:7.0,7.0;"/>
      <polygon fill="transparent" points="911.15,1686.9899,893.554,1679.8919,892.8144,1691.8691,911.15,1686.9899" style="stroke:#181818;stroke-width:1;"/>
    </g>
    <g id="link_C_0000788514013195129993_C_0014290992758498762286">
      <path codeLine="105" d="M697.6,1718.0499 C772.37,1713.3299 830.6558,1709.6549 893.1758,1705.7049 " fill="transparent" id="C_0000788514013195129993-to-C_0014290992758498762286" style="stroke:#181818;stroke-width:1;stroke-dasharray:7.0,7.0;"/>
      <polygon fill="transparent" points="911.14,1704.5699,892.7975,1699.7168,893.5541,1711.6929,911.14,1704.5699" style="stroke:#181818;stroke-width:1;"/>
    </g>
    <g id="link_C_0000336264923250556599_C_0014290992758498762286">
      <path codeLine="106" d="M589.53,1595.6999 C627.03,1600.9899 665.78,1607.0299 702,1613.6699 C790.4,1629.8799 872.6417,1649.3776 942.9517,1667.1976 " fill="transparent" id="C_0000336264923250556599-to-C_0014290992758498762286" style="stroke:#181818;stroke-width:1;stroke-dasharray:7.0,7.0;"/>
      <polygon fill="transparent" points="960.4,1671.6199,944.4258,1661.3815,941.4776,1673.0137,960.4,1671.6199" style="stroke:#181818;stroke-width:1;"/>
    </g>
    <g id="link_C_0001576551882566686996_C_0007315456613526221498">
      <path codeLine="107" d="M446.8757,1345.021 C566.8457,1309.661 889.25,1214.6399 1009.32,1179.2499 " fill="transparent" id="C_0001576551882566686996-backto-C_0007315456613526221498" style="stroke:#181818;stroke-width:1;"/>
      <polygon fill="transparent" points="429.61,1350.1099,448.572,1350.7762,445.1794,1339.2658,429.61,1350.1099" style="stroke:#181818;stroke-width:1;"/>
    </g>
    <a href="" target="_top" title="template_builder_" xlink:actuate="onRequest" xlink:href="" xlink:show="new" xlink:title="template_builder_" xlink:type="simple">
      <path codeLine="108" d="M950.5582,1063.7206 C913.7082,1076.3506 885.8,1093.1299 863,1126.6699 C853.06,1141.2999 860.02,1268.7099 855,1285.6699 C824.06,1390.1199 765.84,1394.1299 732,1497.6699 C712.42,1557.5699 746.04,1734.5899 702,1779.6699 C676.86,1805.4099 644.06,1820.6899 609.16,1829.1799 " fill="transparent" id="C_0013934086101141939615-backto-C_0006928801289515998382" style="stroke:#181818;stroke-width:1;"/>
      <polygon fill="transparent" points="961.91,1059.8299,954.9372,1057.9913,950.5582,1063.7206,957.531,1065.5592,961.91,1059.8299" style="stroke:#181818;stroke-width:1;"/>
      <rect fill="transparent" height="6" style="stroke:#C82930;stroke-width:1;" width="6" x="735" y="1274.0229"/>
      <text fill="#000000" font-family="sans-serif" font-size="13" lengthAdjust="spacing" textLength="109.8241" x="745" y="1281.5669">template_builder_</text>
    </a>
    <g id="link_C_0005184632287329019882_C_0013934086101141939615">
      <path codeLine="109" d="M691.4374,1871.0556 C700.6574,1866.0756 693.66,1869.0099 702,1862.6699 C736.69,1836.3199 845.87,1544.2699 855,1501.6699 C859.37,1481.2899 851.54,1144.0699 863,1126.6699 C885.41,1092.6499 924.86,1071.9099 961.94,1059.3499 " fill="transparent" id="C_0005184632287329019882-backto-C_0013934086101141939615" style="stroke:#181818;stroke-width:1;"/>
      <polygon fill="transparent" points="675.6,1879.6099,694.2889,1876.3348,688.586,1865.7765,675.6,1879.6099" style="stroke:#181818;stroke-width:1;"/>
    </g>
    <g id="link_C_0001576551882566686996_C_0002467043186855586999">
      <path codeLine="110" d="M447.5269,1358.2079 C601.2869,1346.3679 1107.94,1301.0799 1242.5,1206.6699 C1491.98,1031.6299 1608.26,646.6099 1634.91,546.7199 " fill="transparent" id="C_0001576551882566686996-backto-C_0002467043186855586999" style="stroke:#181818;stroke-width:1;"/>
      <polygon fill="transparent" points="429.58,1359.5899,447.9875,1364.1902,447.0662,1352.2256,429.58,1359.5899" style="stroke:#181818;stroke-width:1;"/>
    </g>
    <a href="" target="_top" title="diagram_" xlink:actuate="onRequest" xlink:href="" xlink:show="new" xlink:title="diagram_" xlink:type="simple">
      <path codeLine="111" d="M1463.69,522.6699 C1509.19,522.6699 1556.25,522.6699 1592.38,522.6699 " fill="transparent" id="C_0015659136776023822053-to-C_0002467043186855586999" style="stroke:#181818;stroke-width:1;"/>
      <polygon fill="#181818" points="1598.38,522.6699,1589.38,518.6699,1593.38,522.6699,1589.38,526.6699,1598.38,522.6699" style="stroke:#181818;stroke-width:1;"/>
      <rect fill="transparent" height="6" style="stroke:#C82930;stroke-width:1;" width="6" x="1498.5" y="511.0229"/>
      <text fill="#000000" font-family="sans-serif" font-size="13" lengthAdjust="spacing" textLength="57.226" x="1508.5" y="518.5669">diagram_</text>
    </a>
    <g id="link_C_0000567484436108945460_C_0015659136776023822053">
      <path codeLine="112" d="M1195.11,522.6699 C1224.42,522.6699 1238.55,522.6699 1265.42,522.6699 " fill="transparent" id="C_0000567484436108945460-to-C_0015659136776023822053" style="stroke:#181818;stroke-width:1;"/>
      <ellipse cx="1273.42" cy="522.6699" fill="#FFFFFF" rx="8" ry="8" style="stroke:#181818;stroke-width:1;"/>
      <line style="stroke:#181818;stroke-width:1;" x1="1265.42" x2="1281.42" y1="522.6699" y2="522.6699"/>
      <line style="stroke:#181818;stroke-width:1;" x1="1273.42" x2="1273.42" y1="514.6699" y2="530.6699"/>
    </g>
    <g id="link_C_0010797356058171728853_C_0000567484436108945460">
      <path codeLine="113" d="M697.4564,1619.6653 C704.1464,1614.6153 696.11,1619.8699 702,1613.6699 C760.8,1551.7799 704.24,1311.3999 732,1230.6699 C764.23,1136.9499 825.42,1139.2599 855,1044.6699 C867.14,1005.8499 845.26,715.2699 863,678.6699 C892.41,617.9899 957.85,572.6499 1003.44,546.9099 " fill="transparent" id="C_0010797356058171728853-backto-C_0000567484436108945460" style="stroke:#181818;stroke-width:1;"/>
      <polygon fill="transparent" points="683.09,1630.5099,701.0713,1624.4541,693.8416,1614.8765,683.09,1630.5099" style="stroke:#181818;stroke-width:1;"/>
    </g>
    <g id="link_C_0001576551882566686996_C_0001188296008369339829">
      <path codeLine="114" d="M404.1878,1321.9056 C438.0578,1243.4956 549.15,1011.8499 732,899.6699 C819.57,845.9399 944.64,840.8399 1009.43,842.3599 " fill="transparent" id="C_0001576551882566686996-backto-C_0001188296008369339829" style="stroke:#181818;stroke-width:1;"/>
      <polygon fill="transparent" points="397.05,1338.4299,409.6959,1324.2849,398.6797,1319.5264,397.05,1338.4299" style="stroke:#181818;stroke-width:1;"/>
    </g>
    <g id="link_C_0000788514013195129993_C_0010290736275922634760">
      <path codeLine="115" d="M697.4979,1702.6977 C704.1779,1697.6277 696.14,1702.8899 702,1696.6699 C768.26,1626.2799 674.47,1340.3599 732,1262.6699 C766.83,1215.6399 821.35,1263.5499 855,1215.6699 C868.13,1196.9899 850.45,823.7499 863,804.6699 C885.38,770.6299 924.83,749.8899 961.91,737.3299 " fill="transparent" id="C_0000788514013195129993-backto-C_0010290736275922634760" style="stroke:#181818;stroke-width:1;"/>
      <polygon fill="transparent" points="683.16,1713.5799,701.1254,1707.477,693.8705,1697.9183,683.16,1713.5799" style="stroke:#181818;stroke-width:1;"/>
    </g>
    <g id="link_C_0001576551882566686996_C_0007392356576284087808">
      <path codeLine="116" d="M402.4182,1321.7592 C443.5782,1213.7192 616.12,782.8299 863,482.6699 C907.86,428.1199 974.01,378.7199 1014.98,350.7299 " fill="transparent" id="C_0001576551882566686996-backto-C_0007392356576284087808" style="stroke:#181818;stroke-width:1;"/>
      <polygon fill="transparent" points="396.01,1338.5799,408.0251,1323.8953,396.8113,1319.6232,396.01,1338.5799" style="stroke:#181818;stroke-width:1;"/>
    </g>
    <a href="" target="_top" title="template_builder_" xlink:actuate="onRequest" xlink:href="" xlink:show="new" xlink:title="template_builder_" xlink:type="simple">
      <path codeLine="117" d="M950.5999,225.986 C914.6699,238.926 887.41,255.1899 863,286.6699 C658.35,550.6299 774.44,695.3699 732,1026.6699 C726.67,1068.2399 728.74,1370.3999 702,1402.6699 C678.04,1431.5899 645.38,1451.2999 610.14,1464.6299 " fill="transparent" id="C_0009834819563374321482-backto-C_0016589185193012457922" style="stroke:#181818;stroke-width:1;"/>
      <polygon fill="transparent" points="961.89,221.9199,954.8896,220.1896,950.5999,225.986,957.6003,227.7163,961.89,221.9199" style="stroke:#181818;stroke-width:1;"/>
      <rect fill="transparent" height="6" style="stroke:#C82930;stroke-width:1;" width="6" x="735" y="291.0229"/>
      <text fill="#000000" font-family="sans-serif" font-size="13" lengthAdjust="spacing" textLength="109.8241" x="745" y="298.5669">template_builder_</text>
    </a>
    <g id="link_C_0000336264923250556599_C_0009834819563374321482">
      <path codeLine="118" d="M697.4683,1536.6713 C704.1483,1531.6113 696.12,1536.8799 702,1530.6699 C763.58,1465.6099 690.14,1207.8699 732,1128.6699 C764.66,1066.8799 824.32,1093.4699 855,1030.6699 C864.07,1012.0999 851.72,303.9899 863,286.6699 C885.23,252.5299 924.66,231.7799 961.77,219.2399 " fill="transparent" id="C_0000336264923250556599-backto-C_0009834819563374321482" style="stroke:#181818;stroke-width:1;"/>
      <polygon fill="transparent" points="683.12,1547.5399,701.0912,1541.454,693.8454,1531.8885,683.12,1547.5399" style="stroke:#181818;stroke-width:1;"/>
    </g>
  </g>
</svg>
