<svg xmlns="http://www.w3.org/2000/svg" xmlns:xlink="http://www.w3.org/1999/xlink" contentScriptType="application/ecmascript" contentStyleType="text/css" height="2173px" preserveAspectRatio="none" style="width:1841px;height:2173px;" version="1.1" viewBox="0 0 1841 2173" width="1841px" zoomAndPan="magnify">
  <defs>
    <filter height="300%" id="f1p489t3t6b82t" width="300%" x="-1" y="-1">
      <feGaussianBlur result="blurOut" stdDeviation="2.0"/>
      <feColorMatrix in="blurOut" result="blurOut2" type="matrix" values="0 0 0 0 0 0 0 0 0 0 0 0 0 0 0 0 0 0 .4 0"/>
      <feOffset dx="4.0" dy="4.0" in="blurOut2" result="blurOut3"/>
      <feBlend in="SourceGraphic" in2="blurOut3" mode="normal"/>
    </filter>
    <style type="text/css">a:hover { text-decoration: underline; }</style>
  </defs>
  <g>
    <text fill="#000000" font-family="sans-serif" font-size="18" lengthAdjust="spacingAndGlyphs" textLength="248" x="803" y="16.708">Translation unit AST visitors</text>
    <polygon fill="#FFFFFF" filter="url(#f1p489t3t6b82t)" points="22,44.9531,98,44.9531,105,67.25,1819.5,67.25,1819.5,2161.9531,22,2161.9531,22,44.9531" style="stroke: #000000; stroke-width: 1.5;"/>
    <line style="stroke: #000000; stroke-width: 1.5;" x1="22" x2="105" y1="67.25" y2="67.25"/>
    <text fill="#000000" font-family="sans-serif" font-size="14" font-weight="bold" lengthAdjust="spacingAndGlyphs" textLength="70" x="26" y="59.9482">clanguml</text>
    <polygon fill="#FFFFFF" filter="url(#f1p489t3t6b82t)" points="46,1216.9531,119,1216.9531,126,1239.25,1314.5,1239.25,1314.5,1985.9531,46,1985.9531,46,1216.9531" style="stroke: #000000; stroke-width: 1.5;"/>
    <line style="stroke: #000000; stroke-width: 1.5;" x1="46" x2="126" y1="1239.25" y2="1239.25"/>
    <text fill="#000000" font-family="sans-serif" font-size="14" font-weight="bold" lengthAdjust="spacingAndGlyphs" textLength="67" x="50" y="1231.9482">common</text>
    <polygon fill="#FFFFFF" filter="url(#f1p489t3t6b82t)" points="376.5,1259.9531,430.5,1259.9531,437.5,1282.25,491.5,1282.25,491.5,1358.9531,376.5,1358.9531,376.5,1259.9531" style="stroke: #000000; stroke-width: 1.5;"/>
    <line style="stroke: #000000; stroke-width: 1.5;" x1="376.5" x2="437.5" y1="1282.25" y2="1282.25"/>
    <text fill="#000000" font-family="sans-serif" font-size="14" font-weight="bold" lengthAdjust="spacingAndGlyphs" textLength="48" x="380.5" y="1274.9482">model</text>
    <polygon fill="#FFFFFF" filter="url(#f1p489t3t6b82t)" points="70,1382.9531,125,1382.9531,132,1405.25,1290.5,1405.25,1290.5,1896.9531,70,1896.9531,70,1382.9531" style="stroke: #000000; stroke-width: 1.5;"/>
    <line style="stroke: #000000; stroke-width: 1.5;" x1="70" x2="132" y1="1405.25" y2="1405.25"/>
    <text fill="#000000" font-family="sans-serif" font-size="14" font-weight="bold" lengthAdjust="spacingAndGlyphs" textLength="49" x="74" y="1397.9482">visitor</text>
    <polygon fill="#FFFFFF" filter="url(#f1p489t3t6b82t)" points="1005,903.9531,1121,903.9531,1128,926.25,1258,926.25,1258,1192.9531,1005,1192.9531,1005,903.9531" style="stroke: #000000; stroke-width: 1.5;"/>
    <line style="stroke: #000000; stroke-width: 1.5;" x1="1005" x2="1128" y1="926.25" y2="926.25"/>
    <text fill="#000000" font-family="sans-serif" font-size="14" font-weight="bold" lengthAdjust="spacingAndGlyphs" textLength="110" x="1009" y="918.9482">class_diagram</text>
    <polygon fill="#FFFFFF" filter="url(#f1p489t3t6b82t)" points="1074,1069.9531,1128,1069.9531,1135,1092.25,1189,1092.25,1189,1168.9531,1074,1168.9531,1074,1069.9531" style="stroke: #000000; stroke-width: 1.5;"/>
    <line style="stroke: #000000; stroke-width: 1.5;" x1="1074" x2="1135" y1="1092.25" y2="1092.25"/>
    <text fill="#000000" font-family="sans-serif" font-size="14" font-weight="bold" lengthAdjust="spacingAndGlyphs" textLength="48" x="1078" y="1084.9482">model</text>
    <polygon fill="#FFFFFF" filter="url(#f1p489t3t6b82t)" points="1029,946.9531,1084,946.9531,1091,969.25,1234,969.25,1234,1045.9531,1029,1045.9531,1029,946.9531" style="stroke: #000000; stroke-width: 1.5;"/>
    <line style="stroke: #000000; stroke-width: 1.5;" x1="1029" x2="1091" y1="969.25" y2="969.25"/>
    <text fill="#000000" font-family="sans-serif" font-size="14" font-weight="bold" lengthAdjust="spacingAndGlyphs" textLength="49" x="1033" y="961.9482">visitor</text>
    <polygon fill="#FFFFFF" filter="url(#f1p489t3t6b82t)" points="957,400.9531,1090,400.9531,1097,423.25,1795.5,423.25,1795.5,566.9531,957,566.9531,957,400.9531" style="stroke: #000000; stroke-width: 1.5;"/>
    <line style="stroke: #000000; stroke-width: 1.5;" x1="957" x2="1097" y1="423.25" y2="423.25"/>
    <text fill="#000000" font-family="sans-serif" font-size="14" font-weight="bold" lengthAdjust="spacingAndGlyphs" textLength="127" x="961" y="415.9482">include_diagram</text>
    <polygon fill="#FFFFFF" filter="url(#f1p489t3t6b82t)" points="1656.5,443.9531,1710.5,443.9531,1717.5,466.25,1771.5,466.25,1771.5,542.9531,1656.5,542.9531,1656.5,443.9531" style="stroke: #000000; stroke-width: 1.5;"/>
    <line style="stroke: #000000; stroke-width: 1.5;" x1="1656.5" x2="1717.5" y1="466.25" y2="466.25"/>
    <text fill="#000000" font-family="sans-serif" font-size="14" font-weight="bold" lengthAdjust="spacingAndGlyphs" textLength="48" x="1660.5" y="458.9482">model</text>
    <polygon fill="#FFFFFF" filter="url(#f1p489t3t6b82t)" points="981,443.9531,1036,443.9531,1043,466.25,1550.5,466.25,1550.5,542.9531,981,542.9531,981,443.9531" style="stroke: #000000; stroke-width: 1.5;"/>
    <line style="stroke: #000000; stroke-width: 1.5;" x1="981" x2="1043" y1="466.25" y2="466.25"/>
    <text fill="#000000" font-family="sans-serif" font-size="14" font-weight="bold" lengthAdjust="spacingAndGlyphs" textLength="49" x="985" y="458.9482">visitor</text>
    <polygon fill="#FFFFFF" filter="url(#f1p489t3t6b82t)" points="1005,590.9531,1147,590.9531,1154,613.25,1258,613.25,1258,879.9531,1005,879.9531,1005,590.9531" style="stroke: #000000; stroke-width: 1.5;"/>
    <line style="stroke: #000000; stroke-width: 1.5;" x1="1005" x2="1154" y1="613.25" y2="613.25"/>
    <text fill="#000000" font-family="sans-serif" font-size="14" font-weight="bold" lengthAdjust="spacingAndGlyphs" textLength="136" x="1009" y="605.9482">package_diagram</text>
    <polygon fill="#FFFFFF" filter="url(#f1p489t3t6b82t)" points="1074,756.9531,1128,756.9531,1135,779.25,1189,779.25,1189,855.9531,1074,855.9531,1074,756.9531" style="stroke: #000000; stroke-width: 1.5;"/>
    <line style="stroke: #000000; stroke-width: 1.5;" x1="1074" x2="1135" y1="779.25" y2="779.25"/>
    <text fill="#000000" font-family="sans-serif" font-size="14" font-weight="bold" lengthAdjust="spacingAndGlyphs" textLength="48" x="1078" y="771.9482">model</text>
    <polygon fill="#FFFFFF" filter="url(#f1p489t3t6b82t)" points="1029,633.9531,1084,633.9531,1091,656.25,1234,656.25,1234,732.9531,1029,732.9531,1029,633.9531" style="stroke: #000000; stroke-width: 1.5;"/>
    <line style="stroke: #000000; stroke-width: 1.5;" x1="1029" x2="1091" y1="656.25" y2="656.25"/>
    <text fill="#000000" font-family="sans-serif" font-size="14" font-weight="bold" lengthAdjust="spacingAndGlyphs" textLength="49" x="1033" y="648.9482">visitor</text>
    <polygon fill="#FFFFFF" filter="url(#f1p489t3t6b82t)" points="1005,87.9531,1159,87.9531,1166,110.25,1258,110.25,1258,376.9531,1005,376.9531,1005,87.9531" style="stroke: #000000; stroke-width: 1.5;"/>
    <line style="stroke: #000000; stroke-width: 1.5;" x1="1005" x2="1166" y1="110.25" y2="110.25"/>
    <text fill="#000000" font-family="sans-serif" font-size="14" font-weight="bold" lengthAdjust="spacingAndGlyphs" textLength="148" x="1009" y="102.9482">sequence_diagram</text>
    <polygon fill="#FFFFFF" filter="url(#f1p489t3t6b82t)" points="1074,253.9531,1128,253.9531,1135,276.25,1189,276.25,1189,352.9531,1074,352.9531,1074,253.9531" style="stroke: #000000; stroke-width: 1.5;"/>
    <line style="stroke: #000000; stroke-width: 1.5;" x1="1074" x2="1135" y1="276.25" y2="276.25"/>
    <text fill="#000000" font-family="sans-serif" font-size="14" font-weight="bold" lengthAdjust="spacingAndGlyphs" textLength="48" x="1078" y="268.9482">model</text>
    <polygon fill="#FFFFFF" filter="url(#f1p489t3t6b82t)" points="1029,130.9531,1084,130.9531,1091,153.25,1234,153.25,1234,229.9531,1029,229.9531,1029,130.9531" style="stroke: #000000; stroke-width: 1.5;"/>
    <line style="stroke: #000000; stroke-width: 1.5;" x1="1029" x2="1091" y1="153.25" y2="153.25"/>
    <text fill="#000000" font-family="sans-serif" font-size="14" font-weight="bold" lengthAdjust="spacingAndGlyphs" textLength="49" x="1033" y="145.9482">visitor</text>
    <a href="classclanguml_1_1common_1_1model_1_1diagram.html" target="_top" title="Base class for all diagram models" xlink:actuate="onRequest" xlink:href="classclanguml_1_1common_1_1model_1_1diagram.html" xlink:show="new" xlink:title="Base class for all diagram models" xlink:type="simple">
      <rect fill="#FEFECE" filter="url(#f1p489t3t6b82t)" height="48" id="C_0000197068985320835874" style="stroke: #A80036; stroke-width: 1.5;" width="83" x="392.5" y="1294.9531"/>
      <ellipse cx="407.5" cy="1310.9531" fill="#ADD1B2" rx="11" ry="11" style="stroke: #A80036; stroke-width: 1.0;"/>
      <path d="M410.4688,1316.5938 Q409.8906,1316.8906 409.25,1317.0313 Q408.6094,1317.1875 407.9063,1317.1875 Q405.4063,1317.1875 404.0781,1315.5469 Q402.7656,1313.8906 402.7656,1310.7656 Q402.7656,1307.6406 404.0781,1305.9844 Q405.4063,1304.3281 407.9063,1304.3281 Q408.6094,1304.3281 409.25,1304.4844 Q409.9063,1304.6406 410.4688,1304.9375 L410.4688,1307.6563 Q409.8438,1307.0781 409.25,1306.8125 Q408.6563,1306.5313 408.0313,1306.5313 Q406.6875,1306.5313 406,1307.6094 Q405.3125,1308.6719 405.3125,1310.7656 Q405.3125,1312.8594 406,1313.9375 Q406.6875,1315 408.0313,1315 Q408.6563,1315 409.25,1314.7344 Q409.8438,1314.4531 410.4688,1313.875 L410.4688,1316.5938 Z "/>
      <text fill="#000000" font-family="sans-serif" font-size="12" lengthAdjust="spacingAndGlyphs" textLength="51" x="421.5" y="1315.1074">diagram</text>
      <line style="stroke: #A80036; stroke-width: 1.5;" x1="393.5" x2="474.5" y1="1326.9531" y2="1326.9531"/>
      <line style="stroke: #A80036; stroke-width: 1.5;" x1="393.5" x2="474.5" y1="1334.9531" y2="1334.9531"/>
    </a>
    <a href="classclanguml_1_1common_1_1visitor_1_1translation__unit__visitor.html" target="_top" title="Diagram translation unit visitor base class" xlink:actuate="onRequest" xlink:href="classclanguml_1_1common_1_1visitor_1_1translation__unit__visitor.html" xlink:show="new" xlink:title="Diagram translation unit visitor base class" xlink:type="simple">
      <rect fill="#FEFECE" filter="url(#f1p489t3t6b82t)" height="48" id="C_0001786374094812345285" style="stroke: #A80036; stroke-width: 1.5;" width="286" x="988.5" y="1624.9531"/>
      <ellipse cx="1003.5" cy="1640.9531" fill="#ADD1B2" rx="11" ry="11" style="stroke: #A80036; stroke-width: 1.0;"/>
      <path d="M1006.4688,1646.5938 Q1005.8906,1646.8906 1005.25,1647.0313 Q1004.6094,1647.1875 1003.9063,1647.1875 Q1001.4063,1647.1875 1000.0781,1645.5469 Q998.7656,1643.8906 998.7656,1640.7656 Q998.7656,1637.6406 1000.0781,1635.9844 Q1001.4063,1634.3281 1003.9063,1634.3281 Q1004.6094,1634.3281 1005.25,1634.4844 Q1005.9063,1634.6406 1006.4688,1634.9375 L1006.4688,1637.6563 Q1005.8438,1637.0781 1005.25,1636.8125 Q1004.6563,1636.5313 1004.0313,1636.5313 Q1002.6875,1636.5313 1002,1637.6094 Q1001.3125,1638.6719 1001.3125,1640.7656 Q1001.3125,1642.8594 1002,1643.9375 Q1002.6875,1645 1004.0313,1645 Q1004.6563,1645 1005.25,1644.7344 Q1005.8438,1644.4531 1006.4688,1643.875 L1006.4688,1646.5938 Z "/>
      <text fill="#000000" font-family="sans-serif" font-size="12" lengthAdjust="spacingAndGlyphs" textLength="141" x="1017.5" y="1645.1074">translation_unit_visitor</text>
      <rect fill="#FFFFFF" height="15.9688" style="stroke: #000000; stroke-width: 1.0; stroke-dasharray: 2.0,2.0;" width="111" x="1166.5" y="1621.9531"/>
      <text fill="#000000" font-family="sans-serif" font-size="12" font-style="italic" lengthAdjust="spacingAndGlyphs" textLength="109" x="1167.5" y="1634.0918">ConfigT,DiagramT</text>
      <line style="stroke: #A80036; stroke-width: 1.5;" x1="989.5" x2="1273.5" y1="1656.9531" y2="1656.9531"/>
      <line style="stroke: #A80036; stroke-width: 1.5;" x1="989.5" x2="1273.5" y1="1664.9531" y2="1664.9531"/>
    </a>
    <a href="classclanguml_1_1common_1_1visitor_1_1template__builder.html" target="_top" title="template_builder" xlink:actuate="onRequest" xlink:href="classclanguml_1_1common_1_1visitor_1_1template__builder.html" xlink:show="new" xlink:title="template_builder" xlink:type="simple">
      <rect fill="#FEFECE" filter="url(#f1p489t3t6b82t)" height="48" id="C_0000866100161189499797" style="stroke: #A80036; stroke-width: 1.5;" width="483" x="192.5" y="1749.9531"/>
      <ellipse cx="207.5" cy="1765.9531" fill="#ADD1B2" rx="11" ry="11" style="stroke: #A80036; stroke-width: 1.0;"/>
      <path d="M210.4688,1771.5938 Q209.8906,1771.8906 209.25,1772.0313 Q208.6094,1772.1875 207.9063,1772.1875 Q205.4063,1772.1875 204.0781,1770.5469 Q202.7656,1768.8906 202.7656,1765.7656 Q202.7656,1762.6406 204.0781,1760.9844 Q205.4063,1759.3281 207.9063,1759.3281 Q208.6094,1759.3281 209.25,1759.4844 Q209.9063,1759.6406 210.4688,1759.9375 L210.4688,1762.6563 Q209.8438,1762.0781 209.25,1761.8125 Q208.6563,1761.5313 208.0313,1761.5313 Q206.6875,1761.5313 206,1762.6094 Q205.3125,1763.6719 205.3125,1765.7656 Q205.3125,1767.8594 206,1768.9375 Q206.6875,1770 208.0313,1770 Q208.6563,1770 209.25,1769.7344 Q209.8438,1769.4531 210.4688,1768.875 L210.4688,1771.5938 Z "/>
      <text fill="#000000" font-family="sans-serif" font-size="12" lengthAdjust="spacingAndGlyphs" textLength="105" x="221.5" y="1770.1074">template_builder</text>
      <rect fill="#FFFFFF" height="15.9688" style="stroke: #000000; stroke-width: 1.0; stroke-dasharray: 2.0,2.0;" width="344" x="334.5" y="1746.9531"/>
      <text fill="#000000" font-family="sans-serif" font-size="12" font-style="italic" lengthAdjust="spacingAndGlyphs" textLength="342" x="335.5" y="1759.0918">clanguml::class_diagram::visitor::translation_unit_visitor</text>
      <line style="stroke: #A80036; stroke-width: 1.5;" x1="193.5" x2="674.5" y1="1781.9531" y2="1781.9531"/>
      <line style="stroke: #A80036; stroke-width: 1.5;" x1="193.5" x2="674.5" y1="1789.9531" y2="1789.9531"/>
    </a>
    <a href="classclanguml_1_1common_1_1visitor_1_1translation__unit__visitor.html" target="_top" title="translation_unit_visitor" xlink:actuate="onRequest" xlink:href="classclanguml_1_1common_1_1visitor_1_1translation__unit__visitor.html" xlink:show="new" xlink:title="translation_unit_visitor" xlink:type="simple">
      <rect fill="#FEFECE" filter="url(#f1p489t3t6b82t)" height="48" id="C_0000648079035916127485" style="stroke: #A80036; stroke-width: 1.5;" width="634" x="117" y="1832.9531"/>
      <ellipse cx="132" cy="1848.9531" fill="#ADD1B2" rx="11" ry="11" style="stroke: #A80036; stroke-width: 1.0;"/>
      <path d="M134.9688,1854.5938 Q134.3906,1854.8906 133.75,1855.0313 Q133.1094,1855.1875 132.4063,1855.1875 Q129.9063,1855.1875 128.5781,1853.5469 Q127.2656,1851.8906 127.2656,1848.7656 Q127.2656,1845.6406 128.5781,1843.9844 Q129.9063,1842.3281 132.4063,1842.3281 Q133.1094,1842.3281 133.75,1842.4844 Q134.4063,1842.6406 134.9688,1842.9375 L134.9688,1845.6563 Q134.3438,1845.0781 133.75,1844.8125 Q133.1563,1844.5313 132.5313,1844.5313 Q131.1875,1844.5313 130.5,1845.6094 Q129.8125,1846.6719 129.8125,1848.7656 Q129.8125,1850.8594 130.5,1851.9375 Q131.1875,1853 132.5313,1853 Q133.1563,1853 133.75,1852.7344 Q134.3438,1852.4531 134.9688,1851.875 L134.9688,1854.5938 Z "/>
      <text fill="#000000" font-family="sans-serif" font-size="12" lengthAdjust="spacingAndGlyphs" textLength="141" x="146" y="1853.1074">translation_unit_visitor</text>
      <rect fill="#FFFFFF" height="15.9688" style="stroke: #000000; stroke-width: 1.0; stroke-dasharray: 2.0,2.0;" width="459" x="295" y="1829.9531"/>
      <text fill="#000000" font-family="sans-serif" font-size="12" font-style="italic" lengthAdjust="spacingAndGlyphs" textLength="457" x="296" y="1842.0918">clanguml::config::class_diagram,clanguml::class_diagram::model::diagram</text>
      <line style="stroke: #A80036; stroke-width: 1.5;" x1="118" x2="750" y1="1864.9531" y2="1864.9531"/>
      <line style="stroke: #A80036; stroke-width: 1.5;" x1="118" x2="750" y1="1872.9531" y2="1872.9531"/>
    </a>
    <a href="classclanguml_1_1common_1_1visitor_1_1translation__unit__visitor.html" target="_top" title="translation_unit_visitor" xlink:actuate="onRequest" xlink:href="classclanguml_1_1common_1_1visitor_1_1translation__unit__visitor.html" xlink:show="new" xlink:title="translation_unit_visitor" xlink:type="simple">
      <rect fill="#FEFECE" filter="url(#f1p489t3t6b82t)" height="48" id="C_0001349669507271466106" style="stroke: #A80036; stroke-width: 1.5;" width="664" x="102" y="1583.9531"/>
      <ellipse cx="117" cy="1599.9531" fill="#ADD1B2" rx="11" ry="11" style="stroke: #A80036; stroke-width: 1.0;"/>
      <path d="M119.9688,1605.5938 Q119.3906,1605.8906 118.75,1606.0313 Q118.1094,1606.1875 117.4063,1606.1875 Q114.9063,1606.1875 113.5781,1604.5469 Q112.2656,1602.8906 112.2656,1599.7656 Q112.2656,1596.6406 113.5781,1594.9844 Q114.9063,1593.3281 117.4063,1593.3281 Q118.1094,1593.3281 118.75,1593.4844 Q119.4063,1593.6406 119.9688,1593.9375 L119.9688,1596.6563 Q119.3438,1596.0781 118.75,1595.8125 Q118.1563,1595.5313 117.5313,1595.5313 Q116.1875,1595.5313 115.5,1596.6094 Q114.8125,1597.6719 114.8125,1599.7656 Q114.8125,1601.8594 115.5,1602.9375 Q116.1875,1604 117.5313,1604 Q118.1563,1604 118.75,1603.7344 Q119.3438,1603.4531 119.9688,1602.875 L119.9688,1605.5938 Z "/>
      <text fill="#000000" font-family="sans-serif" font-size="12" lengthAdjust="spacingAndGlyphs" textLength="141" x="131" y="1604.1074">translation_unit_visitor</text>
      <rect fill="#FFFFFF" height="15.9688" style="stroke: #000000; stroke-width: 1.0; stroke-dasharray: 2.0,2.0;" width="489" x="280" y="1580.9531"/>
      <text fill="#000000" font-family="sans-serif" font-size="12" font-style="italic" lengthAdjust="spacingAndGlyphs" textLength="487" x="281" y="1593.0918">clanguml::config::include_diagram,clanguml::include_diagram::model::diagram</text>
      <line style="stroke: #A80036; stroke-width: 1.5;" x1="103" x2="765" y1="1615.9531" y2="1615.9531"/>
      <line style="stroke: #A80036; stroke-width: 1.5;" x1="103" x2="765" y1="1623.9531" y2="1623.9531"/>
    </a>
    <a href="classclanguml_1_1common_1_1visitor_1_1translation__unit__visitor.html" target="_top" title="translation_unit_visitor" xlink:actuate="onRequest" xlink:href="classclanguml_1_1common_1_1visitor_1_1translation__unit__visitor.html" xlink:show="new" xlink:title="translation_unit_visitor" xlink:type="simple">
      <rect fill="#FEFECE" filter="url(#f1p489t3t6b82t)" height="48" id="C_0000098564251649391249" style="stroke: #A80036; stroke-width: 1.5;" width="682" x="93" y="1666.9531"/>
      <ellipse cx="108" cy="1682.9531" fill="#ADD1B2" rx="11" ry="11" style="stroke: #A80036; stroke-width: 1.0;"/>
      <path d="M110.9688,1688.5938 Q110.3906,1688.8906 109.75,1689.0313 Q109.1094,1689.1875 108.4063,1689.1875 Q105.9063,1689.1875 104.5781,1687.5469 Q103.2656,1685.8906 103.2656,1682.7656 Q103.2656,1679.6406 104.5781,1677.9844 Q105.9063,1676.3281 108.4063,1676.3281 Q109.1094,1676.3281 109.75,1676.4844 Q110.4063,1676.6406 110.9688,1676.9375 L110.9688,1679.6563 Q110.3438,1679.0781 109.75,1678.8125 Q109.1563,1678.5313 108.5313,1678.5313 Q107.1875,1678.5313 106.5,1679.6094 Q105.8125,1680.6719 105.8125,1682.7656 Q105.8125,1684.8594 106.5,1685.9375 Q107.1875,1687 108.5313,1687 Q109.1563,1687 109.75,1686.7344 Q110.3438,1686.4531 110.9688,1685.875 L110.9688,1688.5938 Z "/>
      <text fill="#000000" font-family="sans-serif" font-size="12" lengthAdjust="spacingAndGlyphs" textLength="141" x="122" y="1687.1074">translation_unit_visitor</text>
      <rect fill="#FFFFFF" height="15.9688" style="stroke: #000000; stroke-width: 1.0; stroke-dasharray: 2.0,2.0;" width="507" x="271" y="1663.9531"/>
      <text fill="#000000" font-family="sans-serif" font-size="12" font-style="italic" lengthAdjust="spacingAndGlyphs" textLength="505" x="272" y="1676.0918">clanguml::config::package_diagram,clanguml::package_diagram::model::diagram</text>
      <line style="stroke: #A80036; stroke-width: 1.5;" x1="94" x2="774" y1="1698.9531" y2="1698.9531"/>
      <line style="stroke: #A80036; stroke-width: 1.5;" x1="94" x2="774" y1="1706.9531" y2="1706.9531"/>
    </a>
    <a href="classclanguml_1_1common_1_1visitor_1_1template__builder.html" target="_top" title="template_builder" xlink:actuate="onRequest" xlink:href="classclanguml_1_1common_1_1visitor_1_1template__builder.html" xlink:show="new" xlink:title="template_builder" xlink:type="simple">
      <rect fill="#FEFECE" filter="url(#f1p489t3t6b82t)" height="48" id="C_0002073648149126557240" style="stroke: #A80036; stroke-width: 1.5;" width="514" x="177" y="1417.9531"/>
      <ellipse cx="192" cy="1433.9531" fill="#ADD1B2" rx="11" ry="11" style="stroke: #A80036; stroke-width: 1.0;"/>
      <path d="M194.9688,1439.5938 Q194.3906,1439.8906 193.75,1440.0313 Q193.1094,1440.1875 192.4063,1440.1875 Q189.9063,1440.1875 188.5781,1438.5469 Q187.2656,1436.8906 187.2656,1433.7656 Q187.2656,1430.6406 188.5781,1428.9844 Q189.9063,1427.3281 192.4063,1427.3281 Q193.1094,1427.3281 193.75,1427.4844 Q194.4063,1427.6406 194.9688,1427.9375 L194.9688,1430.6563 Q194.3438,1430.0781 193.75,1429.8125 Q193.1563,1429.5313 192.5313,1429.5313 Q191.1875,1429.5313 190.5,1430.6094 Q189.8125,1431.6719 189.8125,1433.7656 Q189.8125,1435.8594 190.5,1436.9375 Q191.1875,1438 192.5313,1438 Q193.1563,1438 193.75,1437.7344 Q194.3438,1437.4531 194.9688,1436.875 L194.9688,1439.5938 Z "/>
      <text fill="#000000" font-family="sans-serif" font-size="12" lengthAdjust="spacingAndGlyphs" textLength="105" x="206" y="1438.1074">template_builder</text>
      <rect fill="#FFFFFF" height="15.9688" style="stroke: #000000; stroke-width: 1.0; stroke-dasharray: 2.0,2.0;" width="375" x="319" y="1414.9531"/>
      <text fill="#000000" font-family="sans-serif" font-size="12" font-style="italic" lengthAdjust="spacingAndGlyphs" textLength="373" x="320" y="1427.0918">clanguml::sequence_diagram::visitor::translation_unit_visitor</text>
      <line style="stroke: #A80036; stroke-width: 1.5;" x1="178" x2="690" y1="1449.9531" y2="1449.9531"/>
      <line style="stroke: #A80036; stroke-width: 1.5;" x1="178" x2="690" y1="1457.9531" y2="1457.9531"/>
    </a>
    <a href="classclanguml_1_1common_1_1visitor_1_1translation__unit__visitor.html" target="_top" title="translation_unit_visitor" xlink:actuate="onRequest" xlink:href="classclanguml_1_1common_1_1visitor_1_1translation__unit__visitor.html" xlink:show="new" xlink:title="translation_unit_visitor" xlink:type="simple">
      <rect fill="#FEFECE" filter="url(#f1p489t3t6b82t)" height="48" id="C_0000042033115406319574" style="stroke: #A80036; stroke-width: 1.5;" width="696" x="86" y="1500.9531"/>
      <ellipse cx="101" cy="1516.9531" fill="#ADD1B2" rx="11" ry="11" style="stroke: #A80036; stroke-width: 1.0;"/>
      <path d="M103.9688,1522.5938 Q103.3906,1522.8906 102.75,1523.0313 Q102.1094,1523.1875 101.4063,1523.1875 Q98.9063,1523.1875 97.5781,1521.5469 Q96.2656,1519.8906 96.2656,1516.7656 Q96.2656,1513.6406 97.5781,1511.9844 Q98.9063,1510.3281 101.4063,1510.3281 Q102.1094,1510.3281 102.75,1510.4844 Q103.4063,1510.6406 103.9688,1510.9375 L103.9688,1513.6563 Q103.3438,1513.0781 102.75,1512.8125 Q102.1563,1512.5313 101.5313,1512.5313 Q100.1875,1512.5313 99.5,1513.6094 Q98.8125,1514.6719 98.8125,1516.7656 Q98.8125,1518.8594 99.5,1519.9375 Q100.1875,1521 101.5313,1521 Q102.1563,1521 102.75,1520.7344 Q103.3438,1520.4531 103.9688,1519.875 L103.9688,1522.5938 Z "/>
      <text fill="#000000" font-family="sans-serif" font-size="12" lengthAdjust="spacingAndGlyphs" textLength="141" x="115" y="1521.1074">translation_unit_visitor</text>
      <rect fill="#FFFFFF" height="15.9688" style="stroke: #000000; stroke-width: 1.0; stroke-dasharray: 2.0,2.0;" width="521" x="264" y="1497.9531"/>
      <text fill="#000000" font-family="sans-serif" font-size="12" font-style="italic" lengthAdjust="spacingAndGlyphs" textLength="519" x="265" y="1510.0918">clanguml::config::sequence_diagram,clanguml::sequence_diagram::model::diagram</text>
      <line style="stroke: #A80036; stroke-width: 1.5;" x1="87" x2="781" y1="1532.9531" y2="1532.9531"/>
      <line style="stroke: #A80036; stroke-width: 1.5;" x1="87" x2="781" y1="1540.9531" y2="1540.9531"/>
    </a>
    <polygon fill="#FFFFFF" filter="url(#f1p489t3t6b82t)" points="380,1916.4531,474,1916.4531,481,1938.75,488,1938.75,488,1969.0469,380,1969.0469,380,1916.4531" style="stroke: #000000; stroke-width: 1.5;"/>
    <line style="stroke: #000000; stroke-width: 1.5;" x1="380" x2="481" y1="1938.75" y2="1938.75"/>
    <text fill="#000000" font-family="sans-serif" font-size="14" font-weight="bold" lengthAdjust="spacingAndGlyphs" textLength="88" x="384" y="1931.4482">generators</text>
    <a href="classclanguml_1_1class__diagram_1_1model_1_1diagram.html" target="_top" title="Class representing a class diagram." xlink:actuate="onRequest" xlink:href="classclanguml_1_1class__diagram_1_1model_1_1diagram.html" xlink:show="new" xlink:title="Class representing a class diagram." xlink:type="simple">
      <rect fill="#FEFECE" filter="url(#f1p489t3t6b82t)" height="48" id="C_0000914432076690777687" style="stroke: #A80036; stroke-width: 1.5;" width="83" x="1090" y="1104.9531"/>
      <ellipse cx="1105" cy="1120.9531" fill="#ADD1B2" rx="11" ry="11" style="stroke: #A80036; stroke-width: 1.0;"/>
      <path d="M1107.9688,1126.5938 Q1107.3906,1126.8906 1106.75,1127.0313 Q1106.1094,1127.1875 1105.4063,1127.1875 Q1102.9063,1127.1875 1101.5781,1125.5469 Q1100.2656,1123.8906 1100.2656,1120.7656 Q1100.2656,1117.6406 1101.5781,1115.9844 Q1102.9063,1114.3281 1105.4063,1114.3281 Q1106.1094,1114.3281 1106.75,1114.4844 Q1107.4063,1114.6406 1107.9688,1114.9375 L1107.9688,1117.6563 Q1107.3438,1117.0781 1106.75,1116.8125 Q1106.1563,1116.5313 1105.5313,1116.5313 Q1104.1875,1116.5313 1103.5,1117.6094 Q1102.8125,1118.6719 1102.8125,1120.7656 Q1102.8125,1122.8594 1103.5,1123.9375 Q1104.1875,1125 1105.5313,1125 Q1106.1563,1125 1106.75,1124.7344 Q1107.3438,1124.4531 1107.9688,1123.875 L1107.9688,1126.5938 Z "/>
      <text fill="#000000" font-family="sans-serif" font-size="12" lengthAdjust="spacingAndGlyphs" textLength="51" x="1119" y="1125.1074">diagram</text>
      <line style="stroke: #A80036; stroke-width: 1.5;" x1="1091" x2="1172" y1="1136.9531" y2="1136.9531"/>
      <line style="stroke: #A80036; stroke-width: 1.5;" x1="1091" x2="1172" y1="1144.9531" y2="1144.9531"/>
    </a>
    <a href="classclanguml_1_1class__diagram_1_1visitor_1_1translation__unit__visitor.html" target="_top" title="Class diagram translation unit visitor" xlink:actuate="onRequest" xlink:href="classclanguml_1_1class__diagram_1_1visitor_1_1translation__unit__visitor.html" xlink:show="new" xlink:title="Class diagram translation unit visitor" xlink:type="simple">
      <rect fill="#FEFECE" filter="url(#f1p489t3t6b82t)" height="48" id="C_0001741760762642742451" style="stroke: #A80036; stroke-width: 1.5;" width="173" x="1045" y="981.9531"/>
      <ellipse cx="1060" cy="997.9531" fill="#ADD1B2" rx="11" ry="11" style="stroke: #A80036; stroke-width: 1.0;"/>
      <path d="M1062.9688,1003.5938 Q1062.3906,1003.8906 1061.75,1004.0313 Q1061.1094,1004.1875 1060.4063,1004.1875 Q1057.9063,1004.1875 1056.5781,1002.5469 Q1055.2656,1000.8906 1055.2656,997.7656 Q1055.2656,994.6406 1056.5781,992.9844 Q1057.9063,991.3281 1060.4063,991.3281 Q1061.1094,991.3281 1061.75,991.4844 Q1062.4063,991.6406 1062.9688,991.9375 L1062.9688,994.6563 Q1062.3438,994.0781 1061.75,993.8125 Q1061.1563,993.5313 1060.5313,993.5313 Q1059.1875,993.5313 1058.5,994.6094 Q1057.8125,995.6719 1057.8125,997.7656 Q1057.8125,999.8594 1058.5,1000.9375 Q1059.1875,1002 1060.5313,1002 Q1061.1563,1002 1061.75,1001.7344 Q1062.3438,1001.4531 1062.9688,1000.875 L1062.9688,1003.5938 Z "/>
      <text fill="#000000" font-family="sans-serif" font-size="12" lengthAdjust="spacingAndGlyphs" textLength="141" x="1074" y="1002.1074">translation_unit_visitor</text>
      <line style="stroke: #A80036; stroke-width: 1.5;" x1="1046" x2="1217" y1="1013.9531" y2="1013.9531"/>
      <line style="stroke: #A80036; stroke-width: 1.5;" x1="1046" x2="1217" y1="1021.9531" y2="1021.9531"/>
    </a>
    <polygon fill="#FFFFFF" filter="url(#f1p489t3t6b82t)" points="399.5,2004.4531,454.5,2004.4531,461.5,2026.75,468.5,2026.75,468.5,2057.0469,399.5,2057.0469,399.5,2004.4531" style="stroke: #000000; stroke-width: 1.5;"/>
    <line style="stroke: #000000; stroke-width: 1.5;" x1="399.5" x2="461.5" y1="2026.75" y2="2026.75"/>
    <text fill="#000000" font-family="sans-serif" font-size="14" font-weight="bold" lengthAdjust="spacingAndGlyphs" textLength="49" x="403.5" y="2019.4482">config</text>
    <polygon fill="#FFFFFF" filter="url(#f1p489t3t6b82t)" points="415.5,2092.4531,438.5,2092.4531,445.5,2114.75,452.5,2114.75,452.5,2145.0469,415.5,2145.0469,415.5,2092.4531" style="stroke: #000000; stroke-width: 1.5;"/>
    <line style="stroke: #000000; stroke-width: 1.5;" x1="415.5" x2="445.5" y1="2114.75" y2="2114.75"/>
    <text fill="#000000" font-family="sans-serif" font-size="14" font-weight="bold" lengthAdjust="spacingAndGlyphs" textLength="17" x="419.5" y="2107.4482">cli</text>
    <a href="classclanguml_1_1include__diagram_1_1model_1_1diagram.html" target="_top" title="Class representing an include diagram model." xlink:actuate="onRequest" xlink:href="classclanguml_1_1include__diagram_1_1model_1_1diagram.html" xlink:show="new" xlink:title="Class representing an include diagram model." xlink:type="simple">
      <rect fill="#FEFECE" filter="url(#f1p489t3t6b82t)" height="48" id="C_0000308380398356948374" style="stroke: #A80036; stroke-width: 1.5;" width="83" x="1672.5" y="478.9531"/>
      <ellipse cx="1687.5" cy="494.9531" fill="#ADD1B2" rx="11" ry="11" style="stroke: #A80036; stroke-width: 1.0;"/>
      <path d="M1690.4688,500.5938 Q1689.8906,500.8906 1689.25,501.0313 Q1688.6094,501.1875 1687.9063,501.1875 Q1685.4063,501.1875 1684.0781,499.5469 Q1682.7656,497.8906 1682.7656,494.7656 Q1682.7656,491.6406 1684.0781,489.9844 Q1685.4063,488.3281 1687.9063,488.3281 Q1688.6094,488.3281 1689.25,488.4844 Q1689.9063,488.6406 1690.4688,488.9375 L1690.4688,491.6563 Q1689.8438,491.0781 1689.25,490.8125 Q1688.6563,490.5313 1688.0313,490.5313 Q1686.6875,490.5313 1686,491.6094 Q1685.3125,492.6719 1685.3125,494.7656 Q1685.3125,496.8594 1686,497.9375 Q1686.6875,499 1688.0313,499 Q1688.6563,499 1689.25,498.7344 Q1689.8438,498.4531 1690.4688,497.875 L1690.4688,500.5938 Z "/>
      <text fill="#000000" font-family="sans-serif" font-size="12" lengthAdjust="spacingAndGlyphs" textLength="51" x="1701.5" y="499.1074">diagram</text>
      <line style="stroke: #A80036; stroke-width: 1.5;" x1="1673.5" x2="1754.5" y1="510.9531" y2="510.9531"/>
      <line style="stroke: #A80036; stroke-width: 1.5;" x1="1673.5" x2="1754.5" y1="518.9531" y2="518.9531"/>
    </a>
    <a href="classclanguml_1_1include__diagram_1_1visitor_1_1translation__unit__visitor.html" target="_top" title="Include diagram translation unit visitor wrapper" xlink:actuate="onRequest" xlink:href="classclanguml_1_1include__diagram_1_1visitor_1_1translation__unit__visitor.html" xlink:show="new" xlink:title="Include diagram translation unit visitor wrapper" xlink:type="simple">
      <rect fill="#FEFECE" filter="url(#f1p489t3t6b82t)" height="48" id="C_0001957392097002977756" style="stroke: #A80036; stroke-width: 1.5;" width="173" x="1361.5" y="478.9531"/>
      <ellipse cx="1376.5" cy="494.9531" fill="#ADD1B2" rx="11" ry="11" style="stroke: #A80036; stroke-width: 1.0;"/>
      <path d="M1379.4688,500.5938 Q1378.8906,500.8906 1378.25,501.0313 Q1377.6094,501.1875 1376.9063,501.1875 Q1374.4063,501.1875 1373.0781,499.5469 Q1371.7656,497.8906 1371.7656,494.7656 Q1371.7656,491.6406 1373.0781,489.9844 Q1374.4063,488.3281 1376.9063,488.3281 Q1377.6094,488.3281 1378.25,488.4844 Q1378.9063,488.6406 1379.4688,488.9375 L1379.4688,491.6563 Q1378.8438,491.0781 1378.25,490.8125 Q1377.6563,490.5313 1377.0313,490.5313 Q1375.6875,490.5313 1375,491.6094 Q1374.3125,492.6719 1374.3125,494.7656 Q1374.3125,496.8594 1375,497.9375 Q1375.6875,499 1377.0313,499 Q1377.6563,499 1378.25,498.7344 Q1378.8438,498.4531 1379.4688,497.875 L1379.4688,500.5938 Z "/>
      <text fill="#000000" font-family="sans-serif" font-size="12" lengthAdjust="spacingAndGlyphs" textLength="141" x="1390.5" y="499.1074">translation_unit_visitor</text>
      <line style="stroke: #A80036; stroke-width: 1.5;" x1="1362.5" x2="1533.5" y1="510.9531" y2="510.9531"/>
      <line style="stroke: #A80036; stroke-width: 1.5;" x1="1362.5" x2="1533.5" y1="518.9531" y2="518.9531"/>
    </a>
    <a href="classclanguml_1_1include__diagram_1_1visitor_1_1translation__unit__visitor_1_1include__visitor.html" target="_top" title="translation_unit_visitor##include_visitor" xlink:actuate="onRequest" xlink:href="classclanguml_1_1include__diagram_1_1visitor_1_1translation__unit__visitor_1_1include__visitor.html" xlink:show="new" xlink:title="translation_unit_visitor##include_visitor" xlink:type="simple">
      <rect fill="#FEFECE" filter="url(#f1p489t3t6b82t)" height="48" id="C_0000070935554513618182" style="stroke: #A80036; stroke-width: 1.5;" width="269" x="997" y="478.9531"/>
      <ellipse cx="1012" cy="494.9531" fill="#ADD1B2" rx="11" ry="11" style="stroke: #A80036; stroke-width: 1.0;"/>
      <path d="M1014.9688,500.5938 Q1014.3906,500.8906 1013.75,501.0313 Q1013.1094,501.1875 1012.4063,501.1875 Q1009.9063,501.1875 1008.5781,499.5469 Q1007.2656,497.8906 1007.2656,494.7656 Q1007.2656,491.6406 1008.5781,489.9844 Q1009.9063,488.3281 1012.4063,488.3281 Q1013.1094,488.3281 1013.75,488.4844 Q1014.4063,488.6406 1014.9688,488.9375 L1014.9688,491.6563 Q1014.3438,491.0781 1013.75,490.8125 Q1013.1563,490.5313 1012.5313,490.5313 Q1011.1875,490.5313 1010.5,491.6094 Q1009.8125,492.6719 1009.8125,494.7656 Q1009.8125,496.8594 1010.5,497.9375 Q1011.1875,499 1012.5313,499 Q1013.1563,499 1013.75,498.7344 Q1014.3438,498.4531 1014.9688,497.875 L1014.9688,500.5938 Z "/>
      <text fill="#000000" font-family="sans-serif" font-size="12" lengthAdjust="spacingAndGlyphs" textLength="237" x="1026" y="499.1074">translation_unit_visitor::include_visitor</text>
      <line style="stroke: #A80036; stroke-width: 1.5;" x1="998" x2="1265" y1="510.9531" y2="510.9531"/>
      <line style="stroke: #A80036; stroke-width: 1.5;" x1="998" x2="1265" y1="518.9531" y2="518.9531"/>
    </a>
    <a href="classclanguml_1_1package__diagram_1_1model_1_1diagram.html" target="_top" title="Package diagram model." xlink:actuate="onRequest" xlink:href="classclanguml_1_1package__diagram_1_1model_1_1diagram.html" xlink:show="new" xlink:title="Package diagram model." xlink:type="simple">
      <rect fill="#FEFECE" filter="url(#f1p489t3t6b82t)" height="48" id="C_0000148537001046167478" style="stroke: #A80036; stroke-width: 1.5;" width="83" x="1090" y="791.9531"/>
      <ellipse cx="1105" cy="807.9531" fill="#ADD1B2" rx="11" ry="11" style="stroke: #A80036; stroke-width: 1.0;"/>
      <path d="M1107.9688,813.5938 Q1107.3906,813.8906 1106.75,814.0313 Q1106.1094,814.1875 1105.4063,814.1875 Q1102.9063,814.1875 1101.5781,812.5469 Q1100.2656,810.8906 1100.2656,807.7656 Q1100.2656,804.6406 1101.5781,802.9844 Q1102.9063,801.3281 1105.4063,801.3281 Q1106.1094,801.3281 1106.75,801.4844 Q1107.4063,801.6406 1107.9688,801.9375 L1107.9688,804.6563 Q1107.3438,804.0781 1106.75,803.8125 Q1106.1563,803.5313 1105.5313,803.5313 Q1104.1875,803.5313 1103.5,804.6094 Q1102.8125,805.6719 1102.8125,807.7656 Q1102.8125,809.8594 1103.5,810.9375 Q1104.1875,812 1105.5313,812 Q1106.1563,812 1106.75,811.7344 Q1107.3438,811.4531 1107.9688,810.875 L1107.9688,813.5938 Z "/>
      <text fill="#000000" font-family="sans-serif" font-size="12" lengthAdjust="spacingAndGlyphs" textLength="51" x="1119" y="812.1074">diagram</text>
      <line style="stroke: #A80036; stroke-width: 1.5;" x1="1091" x2="1172" y1="823.9531" y2="823.9531"/>
      <line style="stroke: #A80036; stroke-width: 1.5;" x1="1091" x2="1172" y1="831.9531" y2="831.9531"/>
    </a>
    <a href="classclanguml_1_1package__diagram_1_1visitor_1_1translation__unit__visitor.html" target="_top" title="Package diagram translation unit visitor" xlink:actuate="onRequest" xlink:href="classclanguml_1_1package__diagram_1_1visitor_1_1translation__unit__visitor.html" xlink:show="new" xlink:title="Package diagram translation unit visitor" xlink:type="simple">
      <rect fill="#FEFECE" filter="url(#f1p489t3t6b82t)" height="48" id="C_0001286342034490329345" style="stroke: #A80036; stroke-width: 1.5;" width="173" x="1045" y="668.9531"/>
      <ellipse cx="1060" cy="684.9531" fill="#ADD1B2" rx="11" ry="11" style="stroke: #A80036; stroke-width: 1.0;"/>
      <path d="M1062.9688,690.5938 Q1062.3906,690.8906 1061.75,691.0313 Q1061.1094,691.1875 1060.4063,691.1875 Q1057.9063,691.1875 1056.5781,689.5469 Q1055.2656,687.8906 1055.2656,684.7656 Q1055.2656,681.6406 1056.5781,679.9844 Q1057.9063,678.3281 1060.4063,678.3281 Q1061.1094,678.3281 1061.75,678.4844 Q1062.4063,678.6406 1062.9688,678.9375 L1062.9688,681.6563 Q1062.3438,681.0781 1061.75,680.8125 Q1061.1563,680.5313 1060.5313,680.5313 Q1059.1875,680.5313 1058.5,681.6094 Q1057.8125,682.6719 1057.8125,684.7656 Q1057.8125,686.8594 1058.5,687.9375 Q1059.1875,689 1060.5313,689 Q1061.1563,689 1061.75,688.7344 Q1062.3438,688.4531 1062.9688,687.875 L1062.9688,690.5938 Z "/>
      <text fill="#000000" font-family="sans-serif" font-size="12" lengthAdjust="spacingAndGlyphs" textLength="141" x="1074" y="689.1074">translation_unit_visitor</text>
      <line style="stroke: #A80036; stroke-width: 1.5;" x1="1046" x2="1217" y1="700.9531" y2="700.9531"/>
      <line style="stroke: #A80036; stroke-width: 1.5;" x1="1046" x2="1217" y1="708.9531" y2="708.9531"/>
    </a>
    <a href="classclanguml_1_1sequence__diagram_1_1model_1_1diagram.html" target="_top" title="Model of a sequence diagram" xlink:actuate="onRequest" xlink:href="classclanguml_1_1sequence__diagram_1_1model_1_1diagram.html" xlink:show="new" xlink:title="Model of a sequence diagram" xlink:type="simple">
      <rect fill="#FEFECE" filter="url(#f1p489t3t6b82t)" height="48" id="C_0000924044572035510976" style="stroke: #A80036; stroke-width: 1.5;" width="83" x="1090" y="288.9531"/>
      <ellipse cx="1105" cy="304.9531" fill="#ADD1B2" rx="11" ry="11" style="stroke: #A80036; stroke-width: 1.0;"/>
      <path d="M1107.9688,310.5938 Q1107.3906,310.8906 1106.75,311.0313 Q1106.1094,311.1875 1105.4063,311.1875 Q1102.9063,311.1875 1101.5781,309.5469 Q1100.2656,307.8906 1100.2656,304.7656 Q1100.2656,301.6406 1101.5781,299.9844 Q1102.9063,298.3281 1105.4063,298.3281 Q1106.1094,298.3281 1106.75,298.4844 Q1107.4063,298.6406 1107.9688,298.9375 L1107.9688,301.6563 Q1107.3438,301.0781 1106.75,300.8125 Q1106.1563,300.5313 1105.5313,300.5313 Q1104.1875,300.5313 1103.5,301.6094 Q1102.8125,302.6719 1102.8125,304.7656 Q1102.8125,306.8594 1103.5,307.9375 Q1104.1875,309 1105.5313,309 Q1106.1563,309 1106.75,308.7344 Q1107.3438,308.4531 1107.9688,307.875 L1107.9688,310.5938 Z "/>
      <text fill="#000000" font-family="sans-serif" font-size="12" lengthAdjust="spacingAndGlyphs" textLength="51" x="1119" y="309.1074">diagram</text>
      <line style="stroke: #A80036; stroke-width: 1.5;" x1="1091" x2="1172" y1="320.9531" y2="320.9531"/>
      <line style="stroke: #A80036; stroke-width: 1.5;" x1="1091" x2="1172" y1="328.9531" y2="328.9531"/>
    </a>
    <a href="classclanguml_1_1sequence__diagram_1_1visitor_1_1translation__unit__visitor.html" target="_top" title="Sequence diagram translation unit visitor" xlink:actuate="onRequest" xlink:href="classclanguml_1_1sequence__diagram_1_1visitor_1_1translation__unit__visitor.html" xlink:show="new" xlink:title="Sequence diagram translation unit visitor" xlink:type="simple">
      <rect fill="#FEFECE" filter="url(#f1p489t3t6b82t)" height="48" id="C_0001229352445421790185" style="stroke: #A80036; stroke-width: 1.5;" width="173" x="1045" y="165.9531"/>
      <ellipse cx="1060" cy="181.9531" fill="#ADD1B2" rx="11" ry="11" style="stroke: #A80036; stroke-width: 1.0;"/>
      <path d="M1062.9688,187.5938 Q1062.3906,187.8906 1061.75,188.0313 Q1061.1094,188.1875 1060.4063,188.1875 Q1057.9063,188.1875 1056.5781,186.5469 Q1055.2656,184.8906 1055.2656,181.7656 Q1055.2656,178.6406 1056.5781,176.9844 Q1057.9063,175.3281 1060.4063,175.3281 Q1061.1094,175.3281 1061.75,175.4844 Q1062.4063,175.6406 1062.9688,175.9375 L1062.9688,178.6563 Q1062.3438,178.0781 1061.75,177.8125 Q1061.1563,177.5313 1060.5313,177.5313 Q1059.1875,177.5313 1058.5,178.6094 Q1057.8125,179.6719 1057.8125,181.7656 Q1057.8125,183.8594 1058.5,184.9375 Q1059.1875,186 1060.5313,186 Q1061.1563,186 1061.75,185.7344 Q1062.3438,185.4531 1062.9688,184.875 L1062.9688,187.5938 Z "/>
      <text fill="#000000" font-family="sans-serif" font-size="12" lengthAdjust="spacingAndGlyphs" textLength="141" x="1074" y="186.1074">translation_unit_visitor</text>
      <line style="stroke: #A80036; stroke-width: 1.5;" x1="1046" x2="1217" y1="197.9531" y2="197.9531"/>
      <line style="stroke: #A80036; stroke-width: 1.5;" x1="1046" x2="1217" y1="205.9531" y2="205.9531"/>
    </a>
    <path d="M710.39,1832.9031 C734.81,1828.2131 758.99,1822.6231 782,1815.9531 C890.37,1784.5231 1006.77,1722.3131 1073.87,1683.3231 " fill="none" id="C_0000648079035916127485-&gt;C_0001786374094812345285" style="stroke: #A80036; stroke-width: 1.0; stroke-dasharray: 7.0,7.0;"/>
    <polygon fill="none" points="1070.65,1677.1031,1091.44,1672.9931,1077.75,1689.1631,1070.65,1677.1031" style="stroke: #A80036; stroke-width: 1.0;"/>
    <path d="M766.2,1627.4731 C836.49,1631.6231 907.67,1635.8131 968.25,1639.3931 " fill="none" id="C_0001349669507271466106-&gt;C_0001786374094812345285" style="stroke: #A80036; stroke-width: 1.0; stroke-dasharray: 7.0,7.0;"/>
    <polygon fill="none" points="968.81,1632.4131,988.37,1640.5731,967.99,1646.3831,968.81,1632.4131" style="stroke: #A80036; stroke-width: 1.0;"/>
    <path d="M775.11,1670.4131 C842.44,1666.3531 910.16,1662.2631 968.15,1658.7531 " fill="none" id="C_0000098564251649391249-&gt;C_0001786374094812345285" style="stroke: #A80036; stroke-width: 1.0; stroke-dasharray: 7.0,7.0;"/>
    <polygon fill="none" points="967.86,1651.7631,988.25,1657.5431,968.7,1665.7331,967.86,1651.7631" style="stroke: #A80036; stroke-width: 1.0;"/>
    <path d="M663.72,1548.9931 C703.27,1554.1931 743.91,1560.1931 782,1566.9531 C862.63,1581.2731 952.56,1602.5731 1020.88,1619.8731 " fill="none" id="C_0000042033115406319574-&gt;C_0001786374094812345285" style="stroke: #A80036; stroke-width: 1.0; stroke-dasharray: 7.0,7.0;"/>
    <polygon fill="none" points="1022.8,1613.1431,1040.45,1624.8731,1019.34,1626.7031,1022.8,1613.1431" style="stroke: #A80036; stroke-width: 1.0;"/>
    <path d="M495.37,1302.4631 C634.01,1264.5831 972.25,1172.1831 1089.6,1140.1231 " fill="none" id="C_0000197068985320835874&lt;-C_0000914432076690777687" style="stroke: #A80036; stroke-width: 1.0;"/>
    <polygon fill="none" points="496.79,1309.3331,475.65,1307.8431,493.1,1295.8231,496.79,1309.3331" style="stroke: #A80036; stroke-width: 1.0;"/>
    <path d="M1032.33,1028.8531 C1000.56,1041.2831 968.51,1060.2431 949,1088.9531 C939.37,1103.1231 946.12,1226.6031 941,1242.9531 C908.49,1346.7631 847.31,1348.0631 812,1450.9531 C791.55,1510.5631 826.3,1688.1331 782,1732.9531 C753.21,1762.0731 715.49,1778.6931 675.53,1787.3731 " fill="none" id="C_0001741760762642742451&lt;-C_0000866100161189499797" style="stroke: #A80036; stroke-width: 1.0;"/>
    <polygon fill="#FFFFFF" points="1044.94,1024.2431,1037.9306,1022.5495,1033.6714,1028.3684,1040.6808,1030.062,1044.94,1024.2431" style="stroke: #A80036; stroke-width: 1.0;"/>
    <rect fill="none" height="6" style="stroke: #C82930; stroke-width: 1.0;" width="6" x="815" y="1232.0195"/>
    <text fill="#000000" font-family="sans-serif" font-size="13" lengthAdjust="spacingAndGlyphs" textLength="115" x="825" y="1239.02">template_builder_</text>
    <path d="M768.87,1824.9231 C773.35,1822.0931 777.73,1819.1131 782,1815.9531 C799.62,1802.9231 936.25,1476.3431 941,1454.9531 C945.41,1435.0931 937.82,1105.9431 949,1088.9531 C970.71,1055.9531 1009.08,1035.8831 1044.96,1023.7731 " fill="none" id="C_0000648079035916127485&lt;-C_0001741760762642742451" style="stroke: #A80036; stroke-width: 1.0;"/>
    <polygon fill="none" points="771.95,1831.2231,751.11,1835.0531,765.01,1819.0631,771.95,1831.2231" style="stroke: #A80036; stroke-width: 1.0;"/>
    <path d="M495.81,1315.3031 C673.35,1303.6531 1187,1262.4431 1322.5,1168.9531 C1566.59,1000.5431 1680.45,625.7731 1706.86,527.1231 " fill="none" id="C_0000197068985320835874&lt;-C_0000308380398356948374" style="stroke: #A80036; stroke-width: 1.0;"/>
    <polygon fill="none" points="496.04,1322.3031,475.64,1316.5931,495.15,1308.3331,496.04,1322.3031" style="stroke: #A80036; stroke-width: 1.0;"/>
    <path d="M1534.71,502.9531 C1578.77,502.9531 1630.7,502.9531 1667.12,502.9531 " fill="none" id="C_0001957392097002977756-&gt;C_0000308380398356948374" style="stroke: #A80036; stroke-width: 1.0;"/>
    <polygon fill="#A80036" points="1672.37,502.9531,1663.37,498.9531,1667.37,502.9531,1663.37,506.9531,1672.37,502.9531" style="stroke: #A80036; stroke-width: 1.0;"/>
    <rect fill="none" height="6" style="stroke: #C82930; stroke-width: 1.0;" width="6" x="1569.5" y="492.0195"/>
    <text fill="#000000" font-family="sans-serif" font-size="13" lengthAdjust="spacingAndGlyphs" textLength="60" x="1579.5" y="499.02">diagram_</text>
    <path d="M1266.33,502.9531 C1293.04,502.9531 1320.67,502.9531 1346.05,502.9531 " fill="none" id="C_0000070935554513618182-&gt;C_0001957392097002977756" style="stroke: #A80036; stroke-width: 1.0;"/>
    <ellipse cx="1353.11" cy="502.9531" fill="#FFFFFF" rx="8" ry="8" style="stroke: #A80036; stroke-width: 1.0;"/>
    <line style="stroke: #A80036; stroke-width: 1.0;" x1="1345.11" x2="1361.11" y1="502.9531" y2="502.9531"/>
    <line style="stroke: #A80036; stroke-width: 1.0;" x1="1353.11" x2="1353.11" y1="494.9531" y2="510.9531"/>
    <path d="M778.36,1570.6131 C779.59,1569.4131 780.8,1568.1931 782,1566.9531 C840.13,1506.5631 783.3,1269.7131 812,1190.9531 C845.82,1098.1331 909.85,1103.6931 941,1009.9531 C953.51,972.3031 931.7,688.6531 949,652.9531 C976.99,595.2031 1038.91,551.8631 1082.62,526.9931 " fill="none" id="C_0001349669507271466106&lt;-C_0000070935554513618182" style="stroke: #A80036; stroke-width: 1.0;"/>
    <polygon fill="none" points="782.92,1575.9331,763.21,1583.7131,773.76,1565.3331,782.92,1575.9331" style="stroke: #A80036; stroke-width: 1.0;"/>
    <path d="M456.47,1277.0831 C505.63,1185.9331 635.81,969.6431 812,868.9531 C901.31,817.9131 1026.23,812.8131 1089.82,814.0131 " fill="none" id="C_0000197068985320835874&lt;-C_0000148537001046167478" style="stroke: #A80036; stroke-width: 1.0;"/>
    <polygon fill="none" points="462.64,1280.3931,447.1,1294.7931,450.27,1273.8431,462.64,1280.3931" style="stroke: #A80036; stroke-width: 1.0;"/>
    <path d="M778.38,1653.6331 C779.6,1652.4231 780.81,1651.2031 782,1649.9531 C847.79,1580.9431 754.1,1297.7031 812,1221.9531 C848.87,1173.7131 905.35,1226.1031 941,1176.9531 C954.08,1158.9131 936.77,794.5831 949,775.9531 C970.68,742.9331 1009.04,722.8631 1044.93,710.7531 " fill="none" id="C_0000098564251649391249&lt;-C_0001286342034490329345" style="stroke: #A80036; stroke-width: 1.0;"/>
    <polygon fill="none" points="782.96,1658.9231,763.29,1666.7831,773.77,1648.3631,782.96,1658.9231" style="stroke: #A80036; stroke-width: 1.0;"/>
    <path d="M454.17,1276.3131 C514.28,1145.4231 709.43,741.4231 949,462.9531 C992.99,411.8231 1055.67,364.2931 1094.68,336.9531 " fill="none" id="C_0000197068985320835874&lt;-C_0000924044572035510976" style="stroke: #A80036; stroke-width: 1.0;"/>
    <polygon fill="none" points="460.35,1279.6131,445.69,1294.9131,447.61,1273.8131,460.35,1279.6131" style="stroke: #A80036; stroke-width: 1.0;"/>
    <path d="M1032.37,215.2431 C1001.46,227.8131 969.95,246.2331 949,272.9531 C748.25,528.9231 855.76,669.6031 812,991.9531 C806.5,1032.4931 808.63,1327.8931 782,1358.9531 C757.81,1387.1631 725.9,1406.7131 691.21,1420.1131 " fill="none" id="C_0001229352445421790185&lt;-C_0002073648149126557240" style="stroke: #A80036; stroke-width: 1.0;"/>
    <polygon fill="#FFFFFF" points="1044.62,210.5431,1037.5855,208.957,1033.4158,214.8403,1040.4503,216.4264,1044.62,210.5431" style="stroke: #A80036; stroke-width: 1.0;"/>
    <rect fill="none" height="6" style="stroke: #C82930; stroke-width: 1.0;" width="6" x="815" y="278.0195"/>
    <text fill="#000000" font-family="sans-serif" font-size="13" lengthAdjust="spacingAndGlyphs" textLength="115" x="825" y="285.02">template_builder_</text>
    <path d="M778.37,1487.6231 C779.59,1486.4231 780.81,1485.1931 782,1483.9531 C842.49,1420.9131 769.83,1168.4731 812,1091.9531 C846.5,1029.3631 908.57,1059.6331 941,995.9531 C959.23,960.1631 927.1,306.6331 949,272.9531 C970.53,239.8331 1008.88,219.7531 1044.79,207.6631 " fill="none" id="C_0000042033115406319574&lt;-C_0001229352445421790185" style="stroke: #A80036; stroke-width: 1.0;"/>
    <polygon fill="none" points="782.93,1492.9231,763.24,1500.7331,773.76,1482.3431,782.93,1492.9231" style="stroke: #A80036; stroke-width: 1.0;"/>
  </g>
</svg>
