<?xml version="1.0" encoding="UTF-8" standalone="no"?><svg xmlns="http://www.w3.org/2000/svg" xmlns:xlink="http://www.w3.org/1999/xlink" contentScriptType="application/ecmascript" contentStyleType="text/css" height="808px" preserveAspectRatio="none" style="width:1326px;height:808px;" version="1.1" viewBox="0 0 1326 808" width="1326px" zoomAndPan="magnify"><defs><filter height="300%" id="fztpatwgz3sjh" width="300%" x="-1" y="-1"><feGaussianBlur result="blurOut" stdDeviation="2.0"/><feColorMatrix in="blurOut" result="blurOut2" type="matrix" values="0 0 0 0 0 0 0 0 0 0 0 0 0 0 0 0 0 0 .4 0"/><feOffset dx="4.0" dy="4.0" in="blurOut2" result="blurOut3"/><feBlend in="SourceGraphic" in2="blurOut3" mode="normal"/></filter></defs><g><text fill="#000000" font-family="sans-serif" font-size="18" lengthAdjust="spacingAndGlyphs" textLength="406" x="466" y="16.708">clang-uml top level architecture - AST visitors</text><!--MD5=[f200405694b678c37ccdd2cd776f9c73]
cluster C_0002174271399507040339--><polygon fill="#FFFFFF" filter="url(#fztpatwgz3sjh)" points="22,44.9531,98,44.9531,105,67.25,1304,67.25,1304,796.9531,22,796.9531,22,44.9531" style="stroke: #000000; stroke-width: 1.5;"/><line style="stroke: #000000; stroke-width: 1.5;" x1="22" x2="105" y1="67.25" y2="67.25"/><text fill="#000000" font-family="sans-serif" font-size="14" font-weight="bold" lengthAdjust="spacingAndGlyphs" textLength="70" x="26" y="59.9482">clanguml</text><!--MD5=[7ba9c127878a642fef3f451151dda753]
cluster C_0000316605034920222648--><polygon fill="#FFFFFF" filter="url(#fztpatwgz3sjh)" points="429,87.9531,502,87.9531,509,110.25,823,110.25,823,253.9531,429,253.9531,429,87.9531" style="stroke: #000000; stroke-width: 1.5;"/><line style="stroke: #000000; stroke-width: 1.5;" x1="429" x2="509" y1="110.25" y2="110.25"/><text fill="#000000" font-family="sans-serif" font-size="14" font-weight="bold" lengthAdjust="spacingAndGlyphs" textLength="67" x="433" y="102.9482">common</text><!--MD5=[f7110622f5be760311cd0491b75bf8f9]
cluster C_0000083721806430512831--><polygon fill="#FFFFFF" filter="url(#fztpatwgz3sjh)" points="453,130.9531,507,130.9531,514,153.25,569,153.25,569,229.9531,453,229.9531,453,130.9531" style="stroke: #000000; stroke-width: 1.5;"/><line style="stroke: #000000; stroke-width: 1.5;" x1="453" x2="514" y1="153.25" y2="153.25"/><text fill="#000000" font-family="sans-serif" font-size="14" font-weight="bold" lengthAdjust="spacingAndGlyphs" textLength="48" x="457" y="145.9482">model</text><!--MD5=[e4feaaeab498ea22d61a37cc9ff215c8]
cluster C_0002059309769421024048--><polygon fill="#FFFFFF" filter="url(#fztpatwgz3sjh)" points="593,130.9531,648,130.9531,655,153.25,799,153.25,799,229.9531,593,229.9531,593,130.9531" style="stroke: #000000; stroke-width: 1.5;"/><line style="stroke: #000000; stroke-width: 1.5;" x1="593" x2="655" y1="153.25" y2="153.25"/><text fill="#000000" font-family="sans-serif" font-size="14" font-weight="bold" lengthAdjust="spacingAndGlyphs" textLength="49" x="597" y="145.9482">visitor</text><!--MD5=[09e992b259734a9820adb2642bf347d2]
cluster C_0002240167036201725606--><polygon fill="#FFFFFF" filter="url(#fztpatwgz3sjh)" points="72,286.9531,188,286.9531,195,309.25,326,309.25,326,600.9531,72,600.9531,72,286.9531" style="stroke: #000000; stroke-width: 1.5;"/><line style="stroke: #000000; stroke-width: 1.5;" x1="72" x2="195" y1="309.25" y2="309.25"/><text fill="#000000" font-family="sans-serif" font-size="14" font-weight="bold" lengthAdjust="spacingAndGlyphs" textLength="110" x="76" y="301.9482">class_diagram</text><!--MD5=[5d123d1ba3dda692cf099252127394e7]
cluster C_0000897124234964432620--><polygon fill="#FFFFFF" filter="url(#fztpatwgz3sjh)" points="118,477.9531,172,477.9531,179,500.25,234,500.25,234,576.9531,118,576.9531,118,477.9531" style="stroke: #000000; stroke-width: 1.5;"/><line style="stroke: #000000; stroke-width: 1.5;" x1="118" x2="179" y1="500.25" y2="500.25"/><text fill="#000000" font-family="sans-serif" font-size="14" font-weight="bold" lengthAdjust="spacingAndGlyphs" textLength="48" x="122" y="492.9482">model</text><!--MD5=[664588b23c38cd2f42231bf1d48f4389]
cluster C_0001862217944346803827--><polygon fill="#FFFFFF" filter="url(#fztpatwgz3sjh)" points="96,329.9531,151,329.9531,158,352.25,302,352.25,302,428.9531,96,428.9531,96,329.9531" style="stroke: #000000; stroke-width: 1.5;"/><line style="stroke: #000000; stroke-width: 1.5;" x1="96" x2="158" y1="352.25" y2="352.25"/><text fill="#000000" font-family="sans-serif" font-size="14" font-weight="bold" lengthAdjust="spacingAndGlyphs" textLength="49" x="100" y="344.9482">visitor</text><!--MD5=[2319765f5fef5e41f5b55adb85cd73ea]
cluster C_0001521862840957629236--><polygon fill="#FFFFFF" filter="url(#fztpatwgz3sjh)" points="350,286.9531,504,286.9531,511,309.25,604,309.25,604,600.9531,350,600.9531,350,286.9531" style="stroke: #000000; stroke-width: 1.5;"/><line style="stroke: #000000; stroke-width: 1.5;" x1="350" x2="511" y1="309.25" y2="309.25"/><text fill="#000000" font-family="sans-serif" font-size="14" font-weight="bold" lengthAdjust="spacingAndGlyphs" textLength="148" x="354" y="301.9482">sequence_diagram</text><!--MD5=[aff6d1ed1f9fc56ba8376cf20ecae299]
cluster C_0002206969880830639264--><polygon fill="#FFFFFF" filter="url(#fztpatwgz3sjh)" points="452,477.9531,506,477.9531,513,500.25,568,500.25,568,576.9531,452,576.9531,452,477.9531" style="stroke: #000000; stroke-width: 1.5;"/><line style="stroke: #000000; stroke-width: 1.5;" x1="452" x2="513" y1="500.25" y2="500.25"/><text fill="#000000" font-family="sans-serif" font-size="14" font-weight="bold" lengthAdjust="spacingAndGlyphs" textLength="48" x="456" y="492.9482">model</text><!--MD5=[e72bd8bf0ef94924298264e684ff9faa]
cluster C_0000351520758190157237--><polygon fill="#FFFFFF" filter="url(#fztpatwgz3sjh)" points="374,329.9531,429,329.9531,436,352.25,580,352.25,580,428.9531,374,428.9531,374,329.9531" style="stroke: #000000; stroke-width: 1.5;"/><line style="stroke: #000000; stroke-width: 1.5;" x1="374" x2="436" y1="352.25" y2="352.25"/><text fill="#000000" font-family="sans-serif" font-size="14" font-weight="bold" lengthAdjust="spacingAndGlyphs" textLength="49" x="378" y="344.9482">visitor</text><!--MD5=[afa88a3fa4a9d7982361c47c6e3d506f]
cluster C_0002289677368446195616--><polygon fill="#FFFFFF" filter="url(#fztpatwgz3sjh)" points="628,286.9531,761,286.9531,768,309.25,1002,309.25,1002,772.9531,628,772.9531,628,286.9531" style="stroke: #000000; stroke-width: 1.5;"/><line style="stroke: #000000; stroke-width: 1.5;" x1="628" x2="768" y1="309.25" y2="309.25"/><text fill="#000000" font-family="sans-serif" font-size="14" font-weight="bold" lengthAdjust="spacingAndGlyphs" textLength="127" x="632" y="301.9482">include_diagram</text><!--MD5=[ffb2de9a6db4f2cf1c371e7db43e3510]
cluster C_0000545328881104248214--><polygon fill="#FFFFFF" filter="url(#fztpatwgz3sjh)" points="697,649.9531,751,649.9531,758,672.25,813,672.25,813,748.9531,697,748.9531,697,649.9531" style="stroke: #000000; stroke-width: 1.5;"/><line style="stroke: #000000; stroke-width: 1.5;" x1="697" x2="758" y1="672.25" y2="672.25"/><text fill="#000000" font-family="sans-serif" font-size="14" font-weight="bold" lengthAdjust="spacingAndGlyphs" textLength="48" x="701" y="664.9482">model</text><!--MD5=[b41f7cf2d171725340527ddacb5f30c2]
cluster C_0000299757823634161563--><polygon fill="#FFFFFF" filter="url(#fztpatwgz3sjh)" points="652,329.9531,707,329.9531,714,352.25,954,352.25,954,576.9531,652,576.9531,652,329.9531" style="stroke: #000000; stroke-width: 1.5;"/><line style="stroke: #000000; stroke-width: 1.5;" x1="652" x2="714" y1="352.25" y2="352.25"/><text fill="#000000" font-family="sans-serif" font-size="14" font-weight="bold" lengthAdjust="spacingAndGlyphs" textLength="49" x="656" y="344.9482">visitor</text><!--MD5=[d6d4256b649a06bde52dfa9851b6c77d]
cluster C_0001176715616702819073--><polygon fill="#FFFFFF" filter="url(#fztpatwgz3sjh)" points="1026,286.9531,1168,286.9531,1175,309.25,1280,309.25,1280,600.9531,1026,600.9531,1026,286.9531" style="stroke: #000000; stroke-width: 1.5;"/><line style="stroke: #000000; stroke-width: 1.5;" x1="1026" x2="1175" y1="309.25" y2="309.25"/><text fill="#000000" font-family="sans-serif" font-size="14" font-weight="bold" lengthAdjust="spacingAndGlyphs" textLength="136" x="1030" y="301.9482">package_diagram</text><!--MD5=[3026c650b7ecec9f8331301aa821625e]
cluster C_0001569810617781744082--><polygon fill="#FFFFFF" filter="url(#fztpatwgz3sjh)" points="1072,477.9531,1126,477.9531,1133,500.25,1188,500.25,1188,576.9531,1072,576.9531,1072,477.9531" style="stroke: #000000; stroke-width: 1.5;"/><line style="stroke: #000000; stroke-width: 1.5;" x1="1072" x2="1133" y1="500.25" y2="500.25"/><text fill="#000000" font-family="sans-serif" font-size="14" font-weight="bold" lengthAdjust="spacingAndGlyphs" textLength="48" x="1076" y="492.9482">model</text><!--MD5=[b998247e8a28a111c6facfc1f9b9fe7a]
cluster C_0000183895282854293183--><polygon fill="#FFFFFF" filter="url(#fztpatwgz3sjh)" points="1050,329.9531,1105,329.9531,1112,352.25,1256,352.25,1256,428.9531,1050,428.9531,1050,329.9531" style="stroke: #000000; stroke-width: 1.5;"/><line style="stroke: #000000; stroke-width: 1.5;" x1="1050" x2="1112" y1="352.25" y2="352.25"/><text fill="#000000" font-family="sans-serif" font-size="14" font-weight="bold" lengthAdjust="spacingAndGlyphs" textLength="49" x="1054" y="344.9482">visitor</text><!--MD5=[ff9e0a0bc9f03396ed80b26723707697]
class C_0000197068985320835874--><a href="classclanguml_1_1common_1_1model_1_1diagram.html" target="_top" title="Base class for all diagram models" xlink:actuate="onRequest" xlink:href="classclanguml_1_1common_1_1model_1_1diagram.html" xlink:show="new" xlink:title="Base class for all diagram models" xlink:type="simple"><rect fill="#FEFECE" filter="url(#fztpatwgz3sjh)" height="48" id="C_0000197068985320835874" style="stroke: #A80036; stroke-width: 1.5;" width="83" x="469.5" y="165.9531"/><ellipse cx="484.5" cy="181.9531" fill="#ADD1B2" rx="11" ry="11" style="stroke: #A80036; stroke-width: 1.0;"/><path d="M487.4688,187.5938 Q486.8906,187.8906 486.25,188.0313 Q485.6094,188.1875 484.9063,188.1875 Q482.4063,188.1875 481.0781,186.5469 Q479.7656,184.8906 479.7656,181.7656 Q479.7656,178.6406 481.0781,176.9844 Q482.4063,175.3281 484.9063,175.3281 Q485.6094,175.3281 486.25,175.4844 Q486.9063,175.6406 487.4688,175.9375 L487.4688,178.6563 Q486.8438,178.0781 486.25,177.8125 Q485.6563,177.5313 485.0313,177.5313 Q483.6875,177.5313 483,178.6094 Q482.3125,179.6719 482.3125,181.7656 Q482.3125,183.8594 483,184.9375 Q483.6875,186 485.0313,186 Q485.6563,186 486.25,185.7344 Q486.8438,185.4531 487.4688,184.875 L487.4688,187.5938 Z "/><text fill="#000000" font-family="sans-serif" font-size="12" lengthAdjust="spacingAndGlyphs" textLength="51" x="498.5" y="186.1074">diagram</text><line style="stroke: #A80036; stroke-width: 1.5;" x1="470.5" x2="551.5" y1="197.9531" y2="197.9531"/><line style="stroke: #A80036; stroke-width: 1.5;" x1="470.5" x2="551.5" y1="205.9531" y2="205.9531"/></a><!--MD5=[3b16415d4f3a25988a0607b7683a591b]
class C_0000116368705153207296--><a href="classclanguml_1_1common_1_1visitor_1_1translation__unit__visitor.html" target="_top" title="Diagram translation unit visitor base class" xlink:actuate="onRequest" xlink:href="classclanguml_1_1common_1_1visitor_1_1translation__unit__visitor.html" xlink:show="new" xlink:title="Diagram translation unit visitor base class" xlink:type="simple"><rect fill="#FEFECE" filter="url(#fztpatwgz3sjh)" height="48" id="C_0000116368705153207296" style="stroke: #A80036; stroke-width: 1.5;" width="173" x="609.5" y="165.9531"/><ellipse cx="624.5" cy="181.9531" fill="#ADD1B2" rx="11" ry="11" style="stroke: #A80036; stroke-width: 1.0;"/><path d="M627.4688,187.5938 Q626.8906,187.8906 626.25,188.0313 Q625.6094,188.1875 624.9063,188.1875 Q622.4063,188.1875 621.0781,186.5469 Q619.7656,184.8906 619.7656,181.7656 Q619.7656,178.6406 621.0781,176.9844 Q622.4063,175.3281 624.9063,175.3281 Q625.6094,175.3281 626.25,175.4844 Q626.9063,175.6406 627.4688,175.9375 L627.4688,178.6563 Q626.8438,178.0781 626.25,177.8125 Q625.6563,177.5313 625.0313,177.5313 Q623.6875,177.5313 623,178.6094 Q622.3125,179.6719 622.3125,181.7656 Q622.3125,183.8594 623,184.9375 Q623.6875,186 625.0313,186 Q625.6563,186 626.25,185.7344 Q626.8438,185.4531 627.4688,184.875 L627.4688,187.5938 Z "/><text fill="#000000" font-family="sans-serif" font-size="12" lengthAdjust="spacingAndGlyphs" textLength="141" x="638.5" y="186.1074">translation_unit_visitor</text><line style="stroke: #A80036; stroke-width: 1.5;" x1="610.5" x2="781.5" y1="197.9531" y2="197.9531"/><line style="stroke: #A80036; stroke-width: 1.5;" x1="610.5" x2="781.5" y1="205.9531" y2="205.9531"/></a><!--MD5=[01d3c478a0ba4034ff864e8146f50cf4]
class C_0000914432076690777687--><a href="classclanguml_1_1class__diagram_1_1model_1_1diagram.html" target="_top" title="diagram" xlink:actuate="onRequest" xlink:href="classclanguml_1_1class__diagram_1_1model_1_1diagram.html" xlink:show="new" xlink:title="diagram" xlink:type="simple"><rect fill="#FEFECE" filter="url(#fztpatwgz3sjh)" height="48" id="C_0000914432076690777687" style="stroke: #A80036; stroke-width: 1.5;" width="83" x="134.5" y="512.9531"/><ellipse cx="149.5" cy="528.9531" fill="#ADD1B2" rx="11" ry="11" style="stroke: #A80036; stroke-width: 1.0;"/><path d="M152.4688,534.5938 Q151.8906,534.8906 151.25,535.0313 Q150.6094,535.1875 149.9063,535.1875 Q147.4063,535.1875 146.0781,533.5469 Q144.7656,531.8906 144.7656,528.7656 Q144.7656,525.6406 146.0781,523.9844 Q147.4063,522.3281 149.9063,522.3281 Q150.6094,522.3281 151.25,522.4844 Q151.9063,522.6406 152.4688,522.9375 L152.4688,525.6563 Q151.8438,525.0781 151.25,524.8125 Q150.6563,524.5313 150.0313,524.5313 Q148.6875,524.5313 148,525.6094 Q147.3125,526.6719 147.3125,528.7656 Q147.3125,530.8594 148,531.9375 Q148.6875,533 150.0313,533 Q150.6563,533 151.25,532.7344 Q151.8438,532.4531 152.4688,531.875 L152.4688,534.5938 Z "/><text fill="#000000" font-family="sans-serif" font-size="12" lengthAdjust="spacingAndGlyphs" textLength="51" x="163.5" y="533.1074">diagram</text><line style="stroke: #A80036; stroke-width: 1.5;" x1="135.5" x2="216.5" y1="544.9531" y2="544.9531"/><line style="stroke: #A80036; stroke-width: 1.5;" x1="135.5" x2="216.5" y1="552.9531" y2="552.9531"/></a><!--MD5=[d58e65628cc72400a01353a5690b2494]
class C_0001741760762642742451--><a href="classclanguml_1_1class__diagram_1_1visitor_1_1translation__unit__visitor.html" target="_top" title="Class diagram translation unit visitor" xlink:actuate="onRequest" xlink:href="classclanguml_1_1class__diagram_1_1visitor_1_1translation__unit__visitor.html" xlink:show="new" xlink:title="Class diagram translation unit visitor" xlink:type="simple"><rect fill="#FEFECE" filter="url(#fztpatwgz3sjh)" height="48" id="C_0001741760762642742451" style="stroke: #A80036; stroke-width: 1.5;" width="173" x="112.5" y="364.9531"/><ellipse cx="127.5" cy="380.9531" fill="#ADD1B2" rx="11" ry="11" style="stroke: #A80036; stroke-width: 1.0;"/><path d="M130.4688,386.5938 Q129.8906,386.8906 129.25,387.0313 Q128.6094,387.1875 127.9063,387.1875 Q125.4063,387.1875 124.0781,385.5469 Q122.7656,383.8906 122.7656,380.7656 Q122.7656,377.6406 124.0781,375.9844 Q125.4063,374.3281 127.9063,374.3281 Q128.6094,374.3281 129.25,374.4844 Q129.9063,374.6406 130.4688,374.9375 L130.4688,377.6563 Q129.8438,377.0781 129.25,376.8125 Q128.6563,376.5313 128.0313,376.5313 Q126.6875,376.5313 126,377.6094 Q125.3125,378.6719 125.3125,380.7656 Q125.3125,382.8594 126,383.9375 Q126.6875,385 128.0313,385 Q128.6563,385 129.25,384.7344 Q129.8438,384.4531 130.4688,383.875 L130.4688,386.5938 Z "/><text fill="#000000" font-family="sans-serif" font-size="12" lengthAdjust="spacingAndGlyphs" textLength="141" x="141.5" y="385.1074">translation_unit_visitor</text><line style="stroke: #A80036; stroke-width: 1.5;" x1="113.5" x2="284.5" y1="396.9531" y2="396.9531"/><line style="stroke: #A80036; stroke-width: 1.5;" x1="113.5" x2="284.5" y1="404.9531" y2="404.9531"/></a><!--MD5=[4ac8ef68b016624e17a7e7cc10156a8f]
class C_0000924044572035510976--><a href="classclanguml_1_1sequence__diagram_1_1model_1_1diagram.html" target="_top" title="diagram" xlink:actuate="onRequest" xlink:href="classclanguml_1_1sequence__diagram_1_1model_1_1diagram.html" xlink:show="new" xlink:title="diagram" xlink:type="simple"><rect fill="#FEFECE" filter="url(#fztpatwgz3sjh)" height="48" id="C_0000924044572035510976" style="stroke: #A80036; stroke-width: 1.5;" width="83" x="468.5" y="512.9531"/><ellipse cx="483.5" cy="528.9531" fill="#ADD1B2" rx="11" ry="11" style="stroke: #A80036; stroke-width: 1.0;"/><path d="M486.4688,534.5938 Q485.8906,534.8906 485.25,535.0313 Q484.6094,535.1875 483.9063,535.1875 Q481.4063,535.1875 480.0781,533.5469 Q478.7656,531.8906 478.7656,528.7656 Q478.7656,525.6406 480.0781,523.9844 Q481.4063,522.3281 483.9063,522.3281 Q484.6094,522.3281 485.25,522.4844 Q485.9063,522.6406 486.4688,522.9375 L486.4688,525.6563 Q485.8438,525.0781 485.25,524.8125 Q484.6563,524.5313 484.0313,524.5313 Q482.6875,524.5313 482,525.6094 Q481.3125,526.6719 481.3125,528.7656 Q481.3125,530.8594 482,531.9375 Q482.6875,533 484.0313,533 Q484.6563,533 485.25,532.7344 Q485.8438,532.4531 486.4688,531.875 L486.4688,534.5938 Z "/><text fill="#000000" font-family="sans-serif" font-size="12" lengthAdjust="spacingAndGlyphs" textLength="51" x="497.5" y="533.1074">diagram</text><line style="stroke: #A80036; stroke-width: 1.5;" x1="469.5" x2="550.5" y1="544.9531" y2="544.9531"/><line style="stroke: #A80036; stroke-width: 1.5;" x1="469.5" x2="550.5" y1="552.9531" y2="552.9531"/></a><!--MD5=[606f57e5163c27e3242bb4d4ad91ec98]
class C_0001229352445421790185--><a href="classclanguml_1_1sequence__diagram_1_1visitor_1_1translation__unit__visitor.html" target="_top" title="translation_unit_visitor" xlink:actuate="onRequest" xlink:href="classclanguml_1_1sequence__diagram_1_1visitor_1_1translation__unit__visitor.html" xlink:show="new" xlink:title="translation_unit_visitor" xlink:type="simple"><rect fill="#FEFECE" filter="url(#fztpatwgz3sjh)" height="48" id="C_0001229352445421790185" style="stroke: #A80036; stroke-width: 1.5;" width="173" x="390.5" y="364.9531"/><ellipse cx="405.5" cy="380.9531" fill="#ADD1B2" rx="11" ry="11" style="stroke: #A80036; stroke-width: 1.0;"/><path d="M408.4688,386.5938 Q407.8906,386.8906 407.25,387.0313 Q406.6094,387.1875 405.9063,387.1875 Q403.4063,387.1875 402.0781,385.5469 Q400.7656,383.8906 400.7656,380.7656 Q400.7656,377.6406 402.0781,375.9844 Q403.4063,374.3281 405.9063,374.3281 Q406.6094,374.3281 407.25,374.4844 Q407.9063,374.6406 408.4688,374.9375 L408.4688,377.6563 Q407.8438,377.0781 407.25,376.8125 Q406.6563,376.5313 406.0313,376.5313 Q404.6875,376.5313 404,377.6094 Q403.3125,378.6719 403.3125,380.7656 Q403.3125,382.8594 404,383.9375 Q404.6875,385 406.0313,385 Q406.6563,385 407.25,384.7344 Q407.8438,384.4531 408.4688,383.875 L408.4688,386.5938 Z "/><text fill="#000000" font-family="sans-serif" font-size="12" lengthAdjust="spacingAndGlyphs" textLength="141" x="419.5" y="385.1074">translation_unit_visitor</text><line style="stroke: #A80036; stroke-width: 1.5;" x1="391.5" x2="562.5" y1="396.9531" y2="396.9531"/><line style="stroke: #A80036; stroke-width: 1.5;" x1="391.5" x2="562.5" y1="404.9531" y2="404.9531"/></a><!--MD5=[283c62a9da2b1dcea75ea2262aa5b77f]
class C_0000308380398356948374--><a href="classclanguml_1_1include__diagram_1_1model_1_1diagram.html" target="_top" title="diagram" xlink:actuate="onRequest" xlink:href="classclanguml_1_1include__diagram_1_1model_1_1diagram.html" xlink:show="new" xlink:title="diagram" xlink:type="simple"><rect fill="#FEFECE" filter="url(#fztpatwgz3sjh)" height="48" id="C_0000308380398356948374" style="stroke: #A80036; stroke-width: 1.5;" width="83" x="713.5" y="684.9531"/><ellipse cx="728.5" cy="700.9531" fill="#ADD1B2" rx="11" ry="11" style="stroke: #A80036; stroke-width: 1.0;"/><path d="M731.4688,706.5938 Q730.8906,706.8906 730.25,707.0313 Q729.6094,707.1875 728.9063,707.1875 Q726.4063,707.1875 725.0781,705.5469 Q723.7656,703.8906 723.7656,700.7656 Q723.7656,697.6406 725.0781,695.9844 Q726.4063,694.3281 728.9063,694.3281 Q729.6094,694.3281 730.25,694.4844 Q730.9063,694.6406 731.4688,694.9375 L731.4688,697.6563 Q730.8438,697.0781 730.25,696.8125 Q729.6563,696.5313 729.0313,696.5313 Q727.6875,696.5313 727,697.6094 Q726.3125,698.6719 726.3125,700.7656 Q726.3125,702.8594 727,703.9375 Q727.6875,705 729.0313,705 Q729.6563,705 730.25,704.7344 Q730.8438,704.4531 731.4688,703.875 L731.4688,706.5938 Z "/><text fill="#000000" font-family="sans-serif" font-size="12" lengthAdjust="spacingAndGlyphs" textLength="51" x="742.5" y="705.1074">diagram</text><line style="stroke: #A80036; stroke-width: 1.5;" x1="714.5" x2="795.5" y1="716.9531" y2="716.9531"/><line style="stroke: #A80036; stroke-width: 1.5;" x1="714.5" x2="795.5" y1="724.9531" y2="724.9531"/></a><!--MD5=[37a74b96d183078571d35a7c5077c25f]
class C_0001957392097002977756--><a href="classclanguml_1_1include__diagram_1_1visitor_1_1translation__unit__visitor.html" target="_top" title="translation_unit_visitor" xlink:actuate="onRequest" xlink:href="classclanguml_1_1include__diagram_1_1visitor_1_1translation__unit__visitor.html" xlink:show="new" xlink:title="translation_unit_visitor" xlink:type="simple"><rect fill="#FEFECE" filter="url(#fztpatwgz3sjh)" height="48" id="C_0001957392097002977756" style="stroke: #A80036; stroke-width: 1.5;" width="173" x="668.5" y="512.9531"/><ellipse cx="683.5" cy="528.9531" fill="#ADD1B2" rx="11" ry="11" style="stroke: #A80036; stroke-width: 1.0;"/><path d="M686.4688,534.5938 Q685.8906,534.8906 685.25,535.0313 Q684.6094,535.1875 683.9063,535.1875 Q681.4063,535.1875 680.0781,533.5469 Q678.7656,531.8906 678.7656,528.7656 Q678.7656,525.6406 680.0781,523.9844 Q681.4063,522.3281 683.9063,522.3281 Q684.6094,522.3281 685.25,522.4844 Q685.9063,522.6406 686.4688,522.9375 L686.4688,525.6563 Q685.8438,525.0781 685.25,524.8125 Q684.6563,524.5313 684.0313,524.5313 Q682.6875,524.5313 682,525.6094 Q681.3125,526.6719 681.3125,528.7656 Q681.3125,530.8594 682,531.9375 Q682.6875,533 684.0313,533 Q684.6563,533 685.25,532.7344 Q685.8438,532.4531 686.4688,531.875 L686.4688,534.5938 Z "/><text fill="#000000" font-family="sans-serif" font-size="12" lengthAdjust="spacingAndGlyphs" textLength="141" x="697.5" y="533.1074">translation_unit_visitor</text><line style="stroke: #A80036; stroke-width: 1.5;" x1="669.5" x2="840.5" y1="544.9531" y2="544.9531"/><line style="stroke: #A80036; stroke-width: 1.5;" x1="669.5" x2="840.5" y1="552.9531" y2="552.9531"/></a><!--MD5=[ed7ebb35f72ad551b118420696c94983]
class C_0000070935554513618182--><a href="classclanguml_1_1include__diagram_1_1visitor_1_1translation__unit__visitor##include__visitor.html" target="_top" title="translation_unit_visitor##include_visitor" xlink:actuate="onRequest" xlink:href="classclanguml_1_1include__diagram_1_1visitor_1_1translation__unit__visitor##include__visitor.html" xlink:show="new" xlink:title="translation_unit_visitor##include_visitor" xlink:type="simple"><rect fill="#FEFECE" filter="url(#fztpatwgz3sjh)" height="48" id="C_0000070935554513618182" style="stroke: #A80036; stroke-width: 1.5;" width="269" x="668.5" y="364.9531"/><ellipse cx="683.5" cy="380.9531" fill="#ADD1B2" rx="11" ry="11" style="stroke: #A80036; stroke-width: 1.0;"/><path d="M686.4688,386.5938 Q685.8906,386.8906 685.25,387.0313 Q684.6094,387.1875 683.9063,387.1875 Q681.4063,387.1875 680.0781,385.5469 Q678.7656,383.8906 678.7656,380.7656 Q678.7656,377.6406 680.0781,375.9844 Q681.4063,374.3281 683.9063,374.3281 Q684.6094,374.3281 685.25,374.4844 Q685.9063,374.6406 686.4688,374.9375 L686.4688,377.6563 Q685.8438,377.0781 685.25,376.8125 Q684.6563,376.5313 684.0313,376.5313 Q682.6875,376.5313 682,377.6094 Q681.3125,378.6719 681.3125,380.7656 Q681.3125,382.8594 682,383.9375 Q682.6875,385 684.0313,385 Q684.6563,385 685.25,384.7344 Q685.8438,384.4531 686.4688,383.875 L686.4688,386.5938 Z "/><text fill="#000000" font-family="sans-serif" font-size="12" lengthAdjust="spacingAndGlyphs" textLength="237" x="697.5" y="385.1074">translation_unit_visitor::include_visitor</text><line style="stroke: #A80036; stroke-width: 1.5;" x1="669.5" x2="936.5" y1="396.9531" y2="396.9531"/><line style="stroke: #A80036; stroke-width: 1.5;" x1="669.5" x2="936.5" y1="404.9531" y2="404.9531"/></a><!--MD5=[bc315e7d0960eeae67e337de181c1bce]
class C_0000148537001046167478--><a href="classclanguml_1_1package__diagram_1_1model_1_1diagram.html" target="_top" title="diagram" xlink:actuate="onRequest" xlink:href="classclanguml_1_1package__diagram_1_1model_1_1diagram.html" xlink:show="new" xlink:title="diagram" xlink:type="simple"><rect fill="#FEFECE" filter="url(#fztpatwgz3sjh)" height="48" id="C_0000148537001046167478" style="stroke: #A80036; stroke-width: 1.5;" width="83" x="1088.5" y="512.9531"/><ellipse cx="1103.5" cy="528.9531" fill="#ADD1B2" rx="11" ry="11" style="stroke: #A80036; stroke-width: 1.0;"/><path d="M1106.4688,534.5938 Q1105.8906,534.8906 1105.25,535.0313 Q1104.6094,535.1875 1103.9063,535.1875 Q1101.4063,535.1875 1100.0781,533.5469 Q1098.7656,531.8906 1098.7656,528.7656 Q1098.7656,525.6406 1100.0781,523.9844 Q1101.4063,522.3281 1103.9063,522.3281 Q1104.6094,522.3281 1105.25,522.4844 Q1105.9063,522.6406 1106.4688,522.9375 L1106.4688,525.6563 Q1105.8438,525.0781 1105.25,524.8125 Q1104.6563,524.5313 1104.0313,524.5313 Q1102.6875,524.5313 1102,525.6094 Q1101.3125,526.6719 1101.3125,528.7656 Q1101.3125,530.8594 1102,531.9375 Q1102.6875,533 1104.0313,533 Q1104.6563,533 1105.25,532.7344 Q1105.8438,532.4531 1106.4688,531.875 L1106.4688,534.5938 Z "/><text fill="#000000" font-family="sans-serif" font-size="12" lengthAdjust="spacingAndGlyphs" textLength="51" x="1117.5" y="533.1074">diagram</text><line style="stroke: #A80036; stroke-width: 1.5;" x1="1089.5" x2="1170.5" y1="544.9531" y2="544.9531"/><line style="stroke: #A80036; stroke-width: 1.5;" x1="1089.5" x2="1170.5" y1="552.9531" y2="552.9531"/></a><!--MD5=[1c4a1c0cdb56163955f04d6fa224487e]
class C_0001286342034490329345--><a href="classclanguml_1_1package__diagram_1_1visitor_1_1translation__unit__visitor.html" target="_top" title="translation_unit_visitor" xlink:actuate="onRequest" xlink:href="classclanguml_1_1package__diagram_1_1visitor_1_1translation__unit__visitor.html" xlink:show="new" xlink:title="translation_unit_visitor" xlink:type="simple"><rect fill="#FEFECE" filter="url(#fztpatwgz3sjh)" height="48" id="C_0001286342034490329345" style="stroke: #A80036; stroke-width: 1.5;" width="173" x="1066.5" y="364.9531"/><ellipse cx="1081.5" cy="380.9531" fill="#ADD1B2" rx="11" ry="11" style="stroke: #A80036; stroke-width: 1.0;"/><path d="M1084.4688,386.5938 Q1083.8906,386.8906 1083.25,387.0313 Q1082.6094,387.1875 1081.9063,387.1875 Q1079.4063,387.1875 1078.0781,385.5469 Q1076.7656,383.8906 1076.7656,380.7656 Q1076.7656,377.6406 1078.0781,375.9844 Q1079.4063,374.3281 1081.9063,374.3281 Q1082.6094,374.3281 1083.25,374.4844 Q1083.9063,374.6406 1084.4688,374.9375 L1084.4688,377.6563 Q1083.8438,377.0781 1083.25,376.8125 Q1082.6563,376.5313 1082.0313,376.5313 Q1080.6875,376.5313 1080,377.6094 Q1079.3125,378.6719 1079.3125,380.7656 Q1079.3125,382.8594 1080,383.9375 Q1080.6875,385 1082.0313,385 Q1082.6563,385 1083.25,384.7344 Q1083.8438,384.4531 1084.4688,383.875 L1084.4688,386.5938 Z "/><text fill="#000000" font-family="sans-serif" font-size="12" lengthAdjust="spacingAndGlyphs" textLength="141" x="1095.5" y="385.1074">translation_unit_visitor</text><line style="stroke: #A80036; stroke-width: 1.5;" x1="1067.5" x2="1238.5" y1="396.9531" y2="396.9531"/><line style="stroke: #A80036; stroke-width: 1.5;" x1="1067.5" x2="1238.5" y1="404.9531" y2="404.9531"/></a><!--MD5=[0aa646b37725dc55b8a82c6eac2e4aae]
reverse link C_0000197068985320835874 to C_0000914432076690777687--><path d="M449.18,194.8031 C344.58,202.7431 139.75,224.9431 96,278.9531 C51.79,333.5131 72.59,370.7431 96,436.9531 C106.61,466.9531 130.59,494.5331 149.55,512.9131 " fill="none" id="C_0000197068985320835874&lt;-C_0000914432076690777687" style="stroke: #A80036; stroke-width: 1.0;"/><polygon fill="none" points="448.84,187.8031,469.29,193.3531,449.84,201.7731,448.84,187.8031" style="stroke: #A80036; stroke-width: 1.0;"/><!--MD5=[41d9130a46c25429cae146b9252ca148]
link C_0001741760762642742451 to C_0000914432076690777687--><path d="M195.36,413.0831 C191.3,438.8231 184.75,480.4031 180.41,507.9531 " fill="none" id="C_0001741760762642742451-&gt;C_0000914432076690777687" style="stroke: #A80036; stroke-width: 1.0;"/><polygon fill="#A80036" points="179.63,512.9231,184.997,504.6651,180.4172,507.9855,177.0968,503.4056,179.63,512.9231" style="stroke: #A80036; stroke-width: 1.0;"/><rect fill="none" height="6" style="stroke: #C82930; stroke-width: 1.0;" width="6" x="193" y="451.0195"/><text fill="#000000" font-family="sans-serif" font-size="13" lengthAdjust="spacingAndGlyphs" textLength="60" x="203" y="458.02">diagram_</text><!--MD5=[aa09034a95e448eeca4db39db9ddd476]
reverse link C_0000116368705153207296 to C_0001741760762642742451--><path d="M646.83,224.8731 C624.14,238.7931 596.24,253.5731 569,261.9531 C485.85,287.5231 456.52,251.4231 374,278.9531 C316.96,297.9831 259.42,338.9831 226.6,364.9131 " fill="none" id="C_0000116368705153207296&lt;-C_0001741760762642742451" style="stroke: #A80036; stroke-width: 1.0;"/><polygon fill="none" points="643.17,218.9031,663.79,214.0331,650.71,230.7031,643.17,218.9031" style="stroke: #A80036; stroke-width: 1.0;"/><!--MD5=[200170a1e068a1e5ab0bc25f74c55d33]
reverse link C_0000197068985320835874 to C_0000924044572035510976--><path d="M549.75,228.9131 C561.86,243.3231 573.69,260.6831 580,278.9531 C602.92,345.3331 588.25,367.2131 580,436.9531 C578.66,448.3031 579.22,451.7831 574,461.9531 C564.23,480.9931 548.57,499.2131 535.19,512.8131 " fill="none" id="C_0000197068985320835874&lt;-C_0000924044572035510976" style="stroke: #A80036; stroke-width: 1.0;"/><polygon fill="none" points="544.49,233.5431,536.24,214.0231,554.86,224.1331,544.49,233.5431" style="stroke: #A80036; stroke-width: 1.0;"/><!--MD5=[0ff4455d6d223c5222b4f941ac47cbce]
link C_0001229352445421790185 to C_0000924044572035510976--><path d="M482.23,413.0831 C488.05,438.8231 497.44,480.4031 503.67,507.9531 " fill="none" id="C_0001229352445421790185-&gt;C_0000924044572035510976" style="stroke: #A80036; stroke-width: 1.0;"/><polygon fill="#A80036" points="504.8,512.9231,506.7194,503.2631,503.6987,508.0459,498.9159,505.0252,504.8,512.9231" style="stroke: #A80036; stroke-width: 1.0;"/><rect fill="none" height="6" style="stroke: #C82930; stroke-width: 1.0;" width="6" x="495" y="451.0195"/><text fill="#000000" font-family="sans-serif" font-size="13" lengthAdjust="spacingAndGlyphs" textLength="60" x="505" y="458.02">diagram_</text><!--MD5=[65ae147be13adc6403579893f0883414]
reverse link C_0000116368705153207296 to C_0001229352445421790185--><path d="M655.09,227.7531 C610.37,267.9831 540.12,331.1731 502.61,364.9131 " fill="none" id="C_0000116368705153207296&lt;-C_0001229352445421790185" style="stroke: #A80036; stroke-width: 1.0;"/><polygon fill="none" points="650.47,222.4931,670.02,214.3231,659.83,232.9031,650.47,222.4931" style="stroke: #A80036; stroke-width: 1.0;"/><!--MD5=[fbf3fd3adcd40d873bb8db103a536fc0]
reverse link C_0000197068985320835874 to C_0000308380398356948374--><path d="M449.36,193.3831 C337.54,199.2631 108.49,218.5631 62,278.9531 C-28.74,396.8331 4.71,512.5331 118,608.9531 C208.45,685.9331 586.8,703.3131 713.47,707.0131 " fill="none" id="C_0000197068985320835874&lt;-C_0000308380398356948374" style="stroke: #A80036; stroke-width: 1.0;"/><polygon fill="none" points="449.12,186.3831,469.44,192.4031,449.8,200.3731,449.12,186.3831" style="stroke: #A80036; stroke-width: 1.0;"/><!--MD5=[d07385a5bdd980a9dab5cc8399436ac8]
link C_0001957392097002977756 to C_0000308380398356948374--><path d="M755,561.2331 C755,592.1331 755,646.6531 755,679.8231 " fill="none" id="C_0001957392097002977756-&gt;C_0000308380398356948374" style="stroke: #A80036; stroke-width: 1.0;"/><polygon fill="#A80036" points="755,684.9531,759,675.9531,755,679.9531,751,675.9531,755,684.9531" style="stroke: #A80036; stroke-width: 1.0;"/><rect fill="none" height="6" style="stroke: #C82930; stroke-width: 1.0;" width="6" x="758" y="623.0195"/><text fill="#000000" font-family="sans-serif" font-size="13" lengthAdjust="spacingAndGlyphs" textLength="60" x="768" y="630.02">diagram_</text><!--MD5=[df5a9039d3a8d6ff82b19c2d7c253a5c]
link C_0000070935554513618182 to C_0001957392097002977756--><path d="M795.39,413.0831 C787.85,436.0431 776.15,471.6131 767.29,498.5831 " fill="none" id="C_0000070935554513618182-&gt;C_0001957392097002977756" style="stroke: #A80036; stroke-width: 1.0;"/><ellipse cx="765.0701" cy="505.3238" fill="#FFFFFF" rx="8" ry="8" style="stroke: #A80036; stroke-width: 1.0;"/><line style="stroke: #A80036; stroke-width: 1.0;" x1="767.5702" x2="762.57" y1="497.7245" y2="512.9231"/><line style="stroke: #A80036; stroke-width: 1.0;" x1="772.6694" x2="757.4708" y1="507.8239" y2="502.8237"/><!--MD5=[bc1a9c6fca854df30c83a08c45fd9ecf]
link C_0000070935554513618182 to C_0000308380398356948374--><path d="M824.95,413.0531 C837.59,428.0031 852.27,448.6131 859,469.9531 C877.57,528.8731 880.81,551.1531 859,608.9531 C847.48,639.4931 820.54,664.6831 796.97,682.0131 " fill="none" id="C_0000070935554513618182-&gt;C_0000308380398356948374" style="stroke: #A80036; stroke-width: 1.0;"/><polygon fill="#A80036" points="792.91,684.9431,802.5452,682.9028,796.9592,682.0099,797.8521,676.424,792.91,684.9431" style="stroke: #A80036; stroke-width: 1.0;"/><rect fill="none" height="6" style="stroke: #C82930; stroke-width: 1.0;" width="6" x="877" y="534.5195"/><text fill="#000000" font-family="sans-serif" font-size="13" lengthAdjust="spacingAndGlyphs" textLength="60" x="887" y="541.52">diagram_</text><!--MD5=[3fcc2379025a5b1219b70b236391a931]
reverse link C_0000116368705153207296 to C_0000070935554513618182--><path d="M718.33,232.0631 C740.22,272.3731 772.8,332.3631 790.49,364.9131 " fill="none" id="C_0000116368705153207296&lt;-C_0000070935554513618182" style="stroke: #A80036; stroke-width: 1.0;"/><polygon fill="none" points="712.09,235.2431,708.69,214.3231,724.39,228.5631,712.09,235.2431" style="stroke: #A80036; stroke-width: 1.0;"/><!--MD5=[d3df50313eac67d25f4285ef55f7c15c]
reverse link C_0000197068985320835874 to C_0000148537001046167478--><path d="M543.92,228.3931 C557.67,241.4431 574.71,254.6431 593,261.9531 C667.57,291.7631 884.95,237.9431 954,278.9531 C1024.65,320.9131 1002.74,369.7331 1050,436.9531 C1068.94,463.8831 1092.93,493.0031 1109.68,512.6431 " fill="none" id="C_0000197068985320835874&lt;-C_0000148537001046167478" style="stroke: #A80036; stroke-width: 1.0;"/><polygon fill="none" points="538.87,233.2431,529.89,214.0531,548.88,223.4631,538.87,233.2431" style="stroke: #A80036; stroke-width: 1.0;"/><!--MD5=[85fdea5f42d7163448d9e3a0e210ae96]
link C_0001286342034490329345 to C_0000148537001046167478--><path d="M1149.36,413.0831 C1145.3,438.8231 1138.75,480.4031 1134.41,507.9531 " fill="none" id="C_0001286342034490329345-&gt;C_0000148537001046167478" style="stroke: #A80036; stroke-width: 1.0;"/><polygon fill="#A80036" points="1133.63,512.9231,1138.997,504.6651,1134.4172,507.9855,1131.0968,503.4056,1133.63,512.9231" style="stroke: #A80036; stroke-width: 1.0;"/><rect fill="none" height="6" style="stroke: #C82930; stroke-width: 1.0;" width="6" x="1147" y="451.0195"/><text fill="#000000" font-family="sans-serif" font-size="13" lengthAdjust="spacingAndGlyphs" textLength="60" x="1157" y="458.02">diagram_</text><!--MD5=[2553026d6ba0a1a3f395dde5d2e40503]
reverse link C_0000116368705153207296 to C_0001286342034490329345--><path d="M802.66,206.4031 C870.12,219.2131 957.57,241.5531 1028,278.9531 C1069.96,301.2331 1109.76,340.0731 1132.75,364.8731 " fill="none" id="C_0000116368705153207296&lt;-C_0001286342034490329345" style="stroke: #A80036; stroke-width: 1.0;"/><polygon fill="none" points="801.28,213.2731,782.85,202.8131,803.78,199.4931,801.28,213.2731" style="stroke: #A80036; stroke-width: 1.0;"/><!--MD5=[35d89e0db677945a64e9bfeb4ebf7e6c]
@startuml
title clang-uml top level architecture - AST visitors
package [clanguml] as C_0002174271399507040339 {
package [common] as C_0000316605034920222648 {
package [model] as C_0000083721806430512831 {
class "diagram" as C_0000197068985320835874
class C_0000197068985320835874 [[classclanguml_1_1common_1_1model_1_1diagram.html{Base class for all diagram models}]] {
__
}
}
package [visitor] as C_0002059309769421024048 {
class "translation_unit_visitor" as C_0000116368705153207296
class C_0000116368705153207296 [[classclanguml_1_1common_1_1visitor_1_1translation__unit__visitor.html{Diagram translation unit visitor base class}]] {
__
}
}
}
package [class_diagram] as C_0002240167036201725606 {
package [model] as C_0000897124234964432620 {
class "diagram" as C_0000914432076690777687
class C_0000914432076690777687 [[classclanguml_1_1class__diagram_1_1model_1_1diagram.html{diagram}]] {
__
}
}
package [visitor] as C_0001862217944346803827 {
class "translation_unit_visitor" as C_0001741760762642742451
class C_0001741760762642742451 [[classclanguml_1_1class__diagram_1_1visitor_1_1translation__unit__visitor.html{Class diagram translation unit visitor}]] {
__
}
}
}
package [sequence_diagram] as C_0001521862840957629236 {
package [model] as C_0002206969880830639264 {
class "diagram" as C_0000924044572035510976
class C_0000924044572035510976 [[classclanguml_1_1sequence__diagram_1_1model_1_1diagram.html{diagram}]] {
__
}
}
package [visitor] as C_0000351520758190157237 {
class "translation_unit_visitor" as C_0001229352445421790185
class C_0001229352445421790185 [[classclanguml_1_1sequence__diagram_1_1visitor_1_1translation__unit__visitor.html{translation_unit_visitor}]] {
__
}
}
}
package [include_diagram] as C_0002289677368446195616 {
package [model] as C_0000545328881104248214 {
class "diagram" as C_0000308380398356948374
class C_0000308380398356948374 [[classclanguml_1_1include__diagram_1_1model_1_1diagram.html{diagram}]] {
__
}
}
package [visitor] as C_0000299757823634161563 {
class "translation_unit_visitor" as C_0001957392097002977756
class C_0001957392097002977756 [[classclanguml_1_1include__diagram_1_1visitor_1_1translation__unit__visitor.html{translation_unit_visitor}]] {
__
}
class "translation_unit_visitor::include_visitor" as C_0000070935554513618182
class C_0000070935554513618182 [[classclanguml_1_1include__diagram_1_1visitor_1_1translation__unit__visitor##include__visitor.html{translation_unit_visitor##include_visitor}]] {
__
}
}
}
package [package_diagram] as C_0001176715616702819073 {
package [model] as C_0001569810617781744082 {
class "diagram" as C_0000148537001046167478
class C_0000148537001046167478 [[classclanguml_1_1package__diagram_1_1model_1_1diagram.html{diagram}]] {
__
}
}
package [visitor] as C_0000183895282854293183 {
class "translation_unit_visitor" as C_0001286342034490329345
class C_0001286342034490329345 [[classclanguml_1_1package__diagram_1_1visitor_1_1translation__unit__visitor.html{translation_unit_visitor}]] {
__
}
}
}
}
C_0000197068985320835874 <|- - C_0000914432076690777687
C_0001741760762642742451 - -> C_0000914432076690777687 : -diagram_
C_0000116368705153207296 <|- - C_0001741760762642742451
C_0000197068985320835874 <|- - C_0000924044572035510976
C_0001229352445421790185 - -> C_0000924044572035510976 : -diagram_
C_0000116368705153207296 <|- - C_0001229352445421790185
C_0000197068985320835874 <|- - C_0000308380398356948374
C_0001957392097002977756 - -> C_0000308380398356948374 : -diagram_
C_0000070935554513618182 - -+ C_0001957392097002977756
C_0000070935554513618182 - -> C_0000308380398356948374 : -diagram_
C_0000116368705153207296 <|- - C_0000070935554513618182
C_0000197068985320835874 <|- - C_0000148537001046167478
C_0001286342034490329345 - -> C_0000148537001046167478 : -diagram_
C_0000116368705153207296 <|- - C_0001286342034490329345

@enduml

PlantUML version 1.2020.02(Sun Mar 01 11:22:07 CET 2020)
(GPL source distribution)
Java Runtime: OpenJDK Runtime Environment
JVM: OpenJDK 64-Bit Server VM
Java Version: 11.0.19+7-post-Ubuntu-0ubuntu122.04.1
Operating System: Linux
Default Encoding: UTF-8
Language: en
Country: US
--></g></svg>