<svg xmlns="http://www.w3.org/2000/svg" xmlns:xlink="http://www.w3.org/1999/xlink" contentStyleType="text/css" height="604px" preserveAspectRatio="none" style="width:2260px;height:604px;background:#FFFFFF;" version="1.1" viewBox="0 0 2260 604" width="2260px" zoomAndPan="magnify">
  <defs>
    <style type="text/css">a:hover { text-decoration: underline; }</style>
  </defs>
  <g>
    <text fill="#000000" font-family="sans-serif" font-size="14" font-weight="bold" lengthAdjust="spacing" textLength="192.2266" x="1026.8867" y="22.9951">Class diagram TU visitor</text>
    <g id="cluster_C_0017394171196056322719">
      <path d="M580.5,173.2969 L653.3867,173.2969 A3.75,3.75 0 0 1 655.8867,175.7969 L662.8867,195.5938 L2250.5,195.5938 A2.5,2.5 0 0 1 2253,198.0938 L2253,594.7969 A2.5,2.5 0 0 1 2250.5,597.2969 L580.5,597.2969 A2.5,2.5 0 0 1 578,594.7969 L578,175.7969 A2.5,2.5 0 0 1 580.5,173.2969 " fill="none" style="stroke:#000000;stroke-width:1.5;"/>
      <line style="stroke:#000000;stroke-width:1.5;" x1="578" x2="662.8867" y1="195.5938" y2="195.5938"/>
      <text fill="#000000" font-family="sans-serif" font-size="14" font-weight="bold" lengthAdjust="spacing" textLength="71.8867" x="582" y="188.292">clanguml</text>
    </g>
    <g id="cluster_C_0002532840279361781187">
      <path d="M900.5,407.2969 L968.1777,407.2969 A3.75,3.75 0 0 1 970.6777,409.7969 L977.6777,429.5938 L2226.5,429.5938 A2.5,2.5 0 0 1 2229,432.0938 L2229,570.7969 A2.5,2.5 0 0 1 2226.5,573.2969 L900.5,573.2969 A2.5,2.5 0 0 1 898,570.7969 L898,409.7969 A2.5,2.5 0 0 1 900.5,407.2969 " fill="none" style="stroke:#000000;stroke-width:1.5;"/>
      <line style="stroke:#000000;stroke-width:1.5;" x1="898" x2="977.6777" y1="429.5938" y2="429.5938"/>
      <text fill="#000000" font-family="sans-serif" font-size="14" font-weight="bold" lengthAdjust="spacing" textLength="66.6777" x="902" y="422.292">common</text>
    </g>
    <g id="cluster_C_0016474478155368192384">
      <path d="M1001.5,450.2969 L1052.7715,450.2969 A3.75,3.75 0 0 1 1055.2715,452.7969 L1062.2715,472.5938 L2202.5,472.5938 A2.5,2.5 0 0 1 2205,475.0938 L2205,546.7969 A2.5,2.5 0 0 1 2202.5,549.2969 L1001.5,549.2969 A2.5,2.5 0 0 1 999,546.7969 L999,452.7969 A2.5,2.5 0 0 1 1001.5,450.2969 " fill="none" style="stroke:#000000;stroke-width:1.5;"/>
      <line style="stroke:#000000;stroke-width:1.5;" x1="999" x2="1062.2715" y1="472.5938" y2="472.5938"/>
      <text fill="#000000" font-family="sans-serif" font-size="14" font-weight="bold" lengthAdjust="spacing" textLength="50.2715" x="1003" y="465.292">visitor</text>
    </g>
    <g id="cluster_C_0017921336289613804855">
      <path d="M604.5,216.2969 L716.9395,216.2969 A3.75,3.75 0 0 1 719.4395,218.7969 L726.4395,238.5938 L871.5,238.5938 A2.5,2.5 0 0 1 874,241.0938 L874,570.7969 A2.5,2.5 0 0 1 871.5,573.2969 L604.5,573.2969 A2.5,2.5 0 0 1 602,570.7969 L602,218.7969 A2.5,2.5 0 0 1 604.5,216.2969 " fill="none" style="stroke:#000000;stroke-width:1.5;"/>
      <line style="stroke:#000000;stroke-width:1.5;" x1="602" x2="726.4395" y1="238.5938" y2="238.5938"/>
      <text fill="#000000" font-family="sans-serif" font-size="14" font-weight="bold" lengthAdjust="spacing" textLength="111.4395" x="606" y="231.292">class_diagram</text>
    </g>
    <g id="cluster_C_0007176993879715460962">
      <path d="M650.5,450.2969 L700.0215,450.2969 A3.75,3.75 0 0 1 702.5215,452.7969 L709.5215,472.5938 L751.5,472.5938 A2.5,2.5 0 0 1 754,475.0938 L754,546.7969 A2.5,2.5 0 0 1 751.5,549.2969 L650.5,549.2969 A2.5,2.5 0 0 1 648,546.7969 L648,452.7969 A2.5,2.5 0 0 1 650.5,450.2969 " fill="none" style="stroke:#000000;stroke-width:1.5;"/>
      <line style="stroke:#000000;stroke-width:1.5;" x1="648" x2="709.5215" y1="472.5938" y2="472.5938"/>
      <text fill="#000000" font-family="sans-serif" font-size="14" font-weight="bold" lengthAdjust="spacing" textLength="48.5215" x="652" y="465.292">model</text>
    </g>
    <g id="cluster_C_0014897743554774430622">
      <path d="M628.5,259.2969 L679.7715,259.2969 A3.75,3.75 0 0 1 682.2715,261.7969 L689.2715,281.5938 L847.5,281.5938 A2.5,2.5 0 0 1 850,284.0938 L850,355.7969 A2.5,2.5 0 0 1 847.5,358.2969 L628.5,358.2969 A2.5,2.5 0 0 1 626,355.7969 L626,261.7969 A2.5,2.5 0 0 1 628.5,259.2969 " fill="none" style="stroke:#000000;stroke-width:1.5;"/>
      <line style="stroke:#000000;stroke-width:1.5;" x1="626" x2="689.2715" y1="281.5938" y2="281.5938"/>
      <text fill="#000000" font-family="sans-serif" font-size="14" font-weight="bold" lengthAdjust="spacing" textLength="50.2715" x="630" y="274.292">visitor</text>
    </g>
    <g id="cluster_C_0004091562305438647185">
      <path d="M8.5,43.2969 L52.0332,43.2969 A3.75,3.75 0 0 1 54.5332,45.7969 L61.5332,65.5938 L551.5,65.5938 A2.5,2.5 0 0 1 554,68.0938 L554,355.7969 A2.5,2.5 0 0 1 551.5,358.2969 L8.5,358.2969 A2.5,2.5 0 0 1 6,355.7969 L6,45.7969 A2.5,2.5 0 0 1 8.5,43.2969 " fill="none" style="stroke:#000000;stroke-width:1.5;"/>
      <line style="stroke:#000000;stroke-width:1.5;" x1="6" x2="61.5332" y1="65.5938" y2="65.5938"/>
      <text fill="#000000" font-family="sans-serif" font-size="14" font-weight="bold" lengthAdjust="spacing" textLength="42.5332" x="10" y="58.292">clang</text>
    </g>
    <a href="classclanguml_1_1common_1_1eid__t.html" target="_top" title="Universal class for representing all kinds of Id's in the diagram         model." xlink:actuate="onRequest" xlink:href="classclanguml_1_1common_1_1eid__t.html" xlink:show="new" xlink:title="Universal class for representing all kinds of Id's in the diagram         model." xlink:type="simple">
      <g id="elem_C_0018226056604939607262">
        <rect codeLine="5" fill="#F1F1F1" height="48" id="C_0018226056604939607262" rx="2.5" ry="2.5" style="stroke:#181818;stroke-width:0.5;" width="65.8789" x="914" y="485.2969"/>
        <ellipse cx="929" cy="501.2969" fill="#ADD1B2" rx="11" ry="11" style="stroke:#181818;stroke-width:1.0;"/>
        <path d="M931.9688,506.9375 Q931.3906,507.2344 930.75,507.375 Q930.1094,507.5313 929.4063,507.5313 Q926.9063,507.5313 925.5781,505.8906 Q924.2656,504.2344 924.2656,501.1094 Q924.2656,497.9844 925.5781,496.3281 Q926.9063,494.6719 929.4063,494.6719 Q930.1094,494.6719 930.75,494.8281 Q931.4063,494.9844 931.9688,495.2813 L931.9688,498 Q931.3438,497.4219 930.75,497.1563 Q930.1563,496.875 929.5313,496.875 Q928.1875,496.875 927.5,497.9531 Q926.8125,499.0156 926.8125,501.1094 Q926.8125,503.2031 927.5,504.2813 Q928.1875,505.3438 929.5313,505.3438 Q930.1563,505.3438 930.75,505.0781 Q931.3438,504.7969 931.9688,504.2188 L931.9688,506.9375 Z " fill="#000000"/>
        <text fill="#000000" font-family="sans-serif" font-size="14" lengthAdjust="spacing" textLength="33.8789" x="943" y="506.1436">eid_t</text>
        <line style="stroke:#181818;stroke-width:0.5;" x1="915" x2="978.8789" y1="517.2969" y2="517.2969"/>
        <line style="stroke:#181818;stroke-width:0.5;" x1="915" x2="978.8789" y1="525.2969" y2="525.2969"/>
      </g>
    </a>
    <a href="classclanguml_1_1common_1_1visitor_1_1template__builder.html" target="_top" title="template_builder" xlink:actuate="onRequest" xlink:href="classclanguml_1_1common_1_1visitor_1_1template__builder.html" xlink:show="new" xlink:title="template_builder" xlink:type="simple">
      <g id="elem_C_0006928801289515998382">
        <rect codeLine="10" fill="#F1F1F1" height="48" id="C_0006928801289515998382" rx="2.5" ry="2.5" style="stroke:#181818;stroke-width:0.5;" width="493.8525" x="1015" y="485.2969"/>
        <ellipse cx="1030" cy="501.2969" fill="#ADD1B2" rx="11" ry="11" style="stroke:#181818;stroke-width:1.0;"/>
        <path d="M1032.9688,506.9375 Q1032.3906,507.2344 1031.75,507.375 Q1031.1094,507.5313 1030.4063,507.5313 Q1027.9063,507.5313 1026.5781,505.8906 Q1025.2656,504.2344 1025.2656,501.1094 Q1025.2656,497.9844 1026.5781,496.3281 Q1027.9063,494.6719 1030.4063,494.6719 Q1031.1094,494.6719 1031.75,494.8281 Q1032.4063,494.9844 1032.9688,495.2813 L1032.9688,498 Q1032.3438,497.4219 1031.75,497.1563 Q1031.1563,496.875 1030.5313,496.875 Q1029.1875,496.875 1028.5,497.9531 Q1027.8125,499.0156 1027.8125,501.1094 Q1027.8125,503.2031 1028.5,504.2813 Q1029.1875,505.3438 1030.5313,505.3438 Q1031.1563,505.3438 1031.75,505.0781 Q1032.3438,504.7969 1032.9688,504.2188 L1032.9688,506.9375 Z " fill="#000000"/>
        <text fill="#000000" font-family="sans-serif" font-size="14" lengthAdjust="spacing" textLength="118.9932" x="1044" y="506.1436">template_builder</text>
        <rect fill="#FFFFFF" height="15.9688" style="stroke:#181818;stroke-width:1.0;stroke-dasharray:2.0,2.0;" width="340.8594" x="1170.9932" y="482.2969"/>
        <text fill="#000000" font-family="sans-serif" font-size="12" font-style="italic" lengthAdjust="spacing" textLength="338.8594" x="1171.9932" y="494.4355">clanguml::class_diagram::visitor::translation_unit_visitor</text>
        <line style="stroke:#181818;stroke-width:0.5;" x1="1016" x2="1507.8525" y1="517.2969" y2="517.2969"/>
        <line style="stroke:#181818;stroke-width:0.5;" x1="1016" x2="1507.8525" y1="525.2969" y2="525.2969"/>
      </g>
    </a>
    <a href="classclanguml_1_1common_1_1visitor_1_1translation__unit__visitor.html" target="_top" title="translation_unit_visitor" xlink:actuate="onRequest" xlink:href="classclanguml_1_1common_1_1visitor_1_1translation__unit__visitor.html" xlink:show="new" xlink:title="translation_unit_visitor" xlink:type="simple">
      <g id="elem_C_0005184632287329019882">
        <rect codeLine="14" fill="#F1F1F1" height="48" id="C_0005184632287329019882" rx="2.5" ry="2.5" style="stroke:#181818;stroke-width:0.5;" width="645.4482" x="1544.5" y="485.2969"/>
        <ellipse cx="1559.5" cy="501.2969" fill="#ADD1B2" rx="11" ry="11" style="stroke:#181818;stroke-width:1.0;"/>
        <path d="M1562.4688,506.9375 Q1561.8906,507.2344 1561.25,507.375 Q1560.6094,507.5313 1559.9063,507.5313 Q1557.4063,507.5313 1556.0781,505.8906 Q1554.7656,504.2344 1554.7656,501.1094 Q1554.7656,497.9844 1556.0781,496.3281 Q1557.4063,494.6719 1559.9063,494.6719 Q1560.6094,494.6719 1561.25,494.8281 Q1561.9063,494.9844 1562.4688,495.2813 L1562.4688,498 Q1561.8438,497.4219 1561.25,497.1563 Q1560.6563,496.875 1560.0313,496.875 Q1558.6875,496.875 1558,497.9531 Q1557.3125,499.0156 1557.3125,501.1094 Q1557.3125,503.2031 1558,504.2813 Q1558.6875,505.3438 1560.0313,505.3438 Q1560.6563,505.3438 1561.25,505.0781 Q1561.8438,504.7969 1562.4688,504.2188 L1562.4688,506.9375 Z " fill="#000000"/>
        <text fill="#000000" font-family="sans-serif" font-size="14" lengthAdjust="spacing" textLength="159.5713" x="1573.5" y="506.1436">translation_unit_visitor</text>
        <rect fill="#FFFFFF" height="15.9688" style="stroke:#181818;stroke-width:1.0;stroke-dasharray:2.0,2.0;" width="451.877" x="1741.0713" y="482.2969"/>
        <text fill="#000000" font-family="sans-serif" font-size="12" font-style="italic" lengthAdjust="spacing" textLength="449.877" x="1742.0713" y="494.4355">clanguml::config::class_diagram,clanguml::class_diagram::model::diagram</text>
        <line style="stroke:#181818;stroke-width:0.5;" x1="1545.5" x2="2188.9482" y1="517.2969" y2="517.2969"/>
        <line style="stroke:#181818;stroke-width:0.5;" x1="1545.5" x2="2188.9482" y1="525.2969" y2="525.2969"/>
      </g>
    </a>
    <a href="classclanguml_1_1class__diagram_1_1model_1_1class__.html" target="_top" title="Diagram element representing a class or class template." xlink:actuate="onRequest" xlink:href="classclanguml_1_1class__diagram_1_1model_1_1class__.html" xlink:show="new" xlink:title="Diagram element representing a class or class template." xlink:type="simple">
      <g id="elem_C_0010336274859733225462">
        <rect codeLine="22" fill="#F1F1F1" height="48" id="C_0010336274859733225462" rx="2.5" ry="2.5" style="stroke:#181818;stroke-width:0.5;" width="73.7539" x="664" y="485.2969"/>
        <ellipse cx="679" cy="501.2969" fill="#ADD1B2" rx="11" ry="11" style="stroke:#181818;stroke-width:1.0;"/>
        <path d="M681.9688,506.9375 Q681.3906,507.2344 680.75,507.375 Q680.1094,507.5313 679.4063,507.5313 Q676.9063,507.5313 675.5781,505.8906 Q674.2656,504.2344 674.2656,501.1094 Q674.2656,497.9844 675.5781,496.3281 Q676.9063,494.6719 679.4063,494.6719 Q680.1094,494.6719 680.75,494.8281 Q681.4063,494.9844 681.9688,495.2813 L681.9688,498 Q681.3438,497.4219 680.75,497.1563 Q680.1563,496.875 679.5313,496.875 Q678.1875,496.875 677.5,497.9531 Q676.8125,499.0156 676.8125,501.1094 Q676.8125,503.2031 677.5,504.2813 Q678.1875,505.3438 679.5313,505.3438 Q680.1563,505.3438 680.75,505.0781 Q681.3438,504.7969 681.9688,504.2188 L681.9688,506.9375 Z " fill="#000000"/>
        <text fill="#000000" font-family="sans-serif" font-size="14" lengthAdjust="spacing" textLength="41.7539" x="693" y="506.1436">class_</text>
        <line style="stroke:#181818;stroke-width:0.5;" x1="665" x2="736.7539" y1="517.2969" y2="517.2969"/>
        <line style="stroke:#181818;stroke-width:0.5;" x1="665" x2="736.7539" y1="525.2969" y2="525.2969"/>
      </g>
    </a>
    <a href="classclanguml_1_1class__diagram_1_1visitor_1_1translation__unit__visitor.html" target="_top" title="Class diagram translation unit visitor" xlink:actuate="onRequest" xlink:href="classclanguml_1_1class__diagram_1_1visitor_1_1translation__unit__visitor.html" xlink:show="new" xlink:title="Class diagram translation unit visitor" xlink:type="simple">
      <g id="elem_C_0013934086101141939615">
        <rect codeLine="28" fill="#F1F1F1" height="48" id="C_0013934086101141939615" rx="2.5" ry="2.5" style="stroke:#181818;stroke-width:0.5;" width="191.5713" x="642" y="294.2969"/>
        <ellipse cx="657" cy="310.2969" fill="#ADD1B2" rx="11" ry="11" style="stroke:#181818;stroke-width:1.0;"/>
        <path d="M659.9688,315.9375 Q659.3906,316.2344 658.75,316.375 Q658.1094,316.5313 657.4063,316.5313 Q654.9063,316.5313 653.5781,314.8906 Q652.2656,313.2344 652.2656,310.1094 Q652.2656,306.9844 653.5781,305.3281 Q654.9063,303.6719 657.4063,303.6719 Q658.1094,303.6719 658.75,303.8281 Q659.4063,303.9844 659.9688,304.2813 L659.9688,307 Q659.3438,306.4219 658.75,306.1563 Q658.1563,305.875 657.5313,305.875 Q656.1875,305.875 655.5,306.9531 Q654.8125,308.0156 654.8125,310.1094 Q654.8125,312.2031 655.5,313.2813 Q656.1875,314.3438 657.5313,314.3438 Q658.1563,314.3438 658.75,314.0781 Q659.3438,313.7969 659.9688,313.2188 L659.9688,315.9375 Z " fill="#000000"/>
        <text fill="#000000" font-family="sans-serif" font-size="14" lengthAdjust="spacing" textLength="159.5713" x="671" y="315.1436">translation_unit_visitor</text>
        <line style="stroke:#181818;stroke-width:0.5;" x1="643" x2="832.5713" y1="326.2969" y2="326.2969"/>
        <line style="stroke:#181818;stroke-width:0.5;" x1="643" x2="832.5713" y1="334.2969" y2="334.2969"/>
      </g>
    </a>
    <g id="elem_C_0015863240072594960404">
      <rect codeLine="36" fill="#F1F1F1" height="48" id="C_0015863240072594960404" rx="2.5" ry="2.5" style="stroke:#181818;stroke-width:0.5;" width="223.2178" x="168.5" y="294.2969"/>
      <ellipse cx="183.5" cy="310.2969" fill="#ADD1B2" rx="11" ry="11" style="stroke:#181818;stroke-width:1.0;"/>
      <path d="M186.4688,315.9375 Q185.8906,316.2344 185.25,316.375 Q184.6094,316.5313 183.9063,316.5313 Q181.4063,316.5313 180.0781,314.8906 Q178.7656,313.2344 178.7656,310.1094 Q178.7656,306.9844 180.0781,305.3281 Q181.4063,303.6719 183.9063,303.6719 Q184.6094,303.6719 185.25,303.8281 Q185.9063,303.9844 186.4688,304.2813 L186.4688,307 Q185.8438,306.4219 185.25,306.1563 Q184.6563,305.875 184.0313,305.875 Q182.6875,305.875 182,306.9531 Q181.3125,308.0156 181.3125,310.1094 Q181.3125,312.2031 182,313.2813 Q182.6875,314.3438 184.0313,314.3438 Q184.6563,314.3438 185.25,314.0781 Q185.8438,313.7969 186.4688,313.2188 L186.4688,315.9375 Z " fill="#000000"/>
      <text fill="#000000" font-family="sans-serif" font-size="14" lengthAdjust="spacing" textLength="140.2256" x="197.5" y="315.1436">RecursiveASTVisitor</text>
      <rect fill="#FFFFFF" height="15.9688" style="stroke:#181818;stroke-width:1.0;stroke-dasharray:2.0,2.0;" width="48.9922" x="345.7256" y="291.2969"/>
      <text fill="#000000" font-family="sans-serif" font-size="12" font-style="italic" lengthAdjust="spacing" textLength="46.9922" x="346.7256" y="303.4355">Derived</text>
      <line style="stroke:#181818;stroke-width:0.5;" x1="169.5" x2="390.7178" y1="326.2969" y2="326.2969"/>
      <line style="stroke:#181818;stroke-width:0.5;" x1="169.5" x2="390.7178" y1="334.2969" y2="334.2969"/>
    </g>
    <a href="classclang_1_1RecursiveASTVisitor.html" target="_top" title="RecursiveASTVisitor" xlink:actuate="onRequest" xlink:href="classclang_1_1RecursiveASTVisitor.html" xlink:show="new" xlink:title="RecursiveASTVisitor" xlink:type="simple">
      <g id="elem_C_0011265253827398874958">
        <rect codeLine="40" fill="#F1F1F1" height="48" id="C_0011265253827398874958" rx="2.5" ry="2.5" style="stroke:#181818;stroke-width:0.5;" width="515.085" x="22.5" y="78.2969"/>
        <ellipse cx="37.5" cy="94.2969" fill="#ADD1B2" rx="11" ry="11" style="stroke:#181818;stroke-width:1.0;"/>
        <path d="M40.4688,99.9375 Q39.8906,100.2344 39.25,100.375 Q38.6094,100.5313 37.9063,100.5313 Q35.4063,100.5313 34.0781,98.8906 Q32.7656,97.2344 32.7656,94.1094 Q32.7656,90.9844 34.0781,89.3281 Q35.4063,87.6719 37.9063,87.6719 Q38.6094,87.6719 39.25,87.8281 Q39.9063,87.9844 40.4688,88.2813 L40.4688,91 Q39.8438,90.4219 39.25,90.1563 Q38.6563,89.875 38.0313,89.875 Q36.6875,89.875 36,90.9531 Q35.3125,92.0156 35.3125,94.1094 Q35.3125,96.2031 36,97.2813 Q36.6875,98.3438 38.0313,98.3438 Q38.6563,98.3438 39.25,98.0781 Q39.8438,97.7969 40.4688,97.2188 L40.4688,99.9375 Z " fill="#000000"/>
        <text fill="#000000" font-family="sans-serif" font-size="14" lengthAdjust="spacing" textLength="140.2256" x="51.5" y="99.1436">RecursiveASTVisitor</text>
        <rect fill="#FFFFFF" height="15.9688" style="stroke:#181818;stroke-width:1.0;stroke-dasharray:2.0,2.0;" width="340.8594" x="199.7256" y="75.2969"/>
        <text fill="#000000" font-family="sans-serif" font-size="12" font-style="italic" lengthAdjust="spacing" textLength="338.8594" x="200.7256" y="87.4355">clanguml::class_diagram::visitor::translation_unit_visitor</text>
        <line style="stroke:#181818;stroke-width:0.5;" x1="23.5" x2="536.585" y1="110.2969" y2="110.2969"/>
        <line style="stroke:#181818;stroke-width:0.5;" x1="23.5" x2="536.585" y1="118.2969" y2="118.2969"/>
      </g>
    </a>
    <g id="link_C_0013934086101141939615_C_0006928801289515998382">
      <path codeLine="44" d="M846.062,326.2753 C911.832,332.7653 988.05,345.2969 1061,374.2969 C1129.59,401.5569 1198.87,454.6769 1235.48,485.2069 " fill="none" id="C_0013934086101141939615-backto-C_0006928801289515998382" style="stroke:#181818;stroke-width:1.0;"/>
      <polygon fill="none" points="834.12,325.0969,839.6982,329.6667,846.062,326.2753,840.4838,321.7054,834.12,325.0969" style="stroke:#181818;stroke-width:1.0;"/>
      <rect fill="none" height="6" style="stroke:#C82930;stroke-width:1.0;" width="6" x="1099" y="380.3633"/>
      <text fill="#000000" font-family="sans-serif" font-size="13" lengthAdjust="spacing" textLength="116.9937" x="1109" y="387.3638">template_builder_</text>
    </g>
    <g id="link_C_0013934086101141939615_C_0018226056604939607262">
      <path codeLine="45" d="M841.7516,347.001 C860.6216,354.841 868.14,360.6269 883,374.2969 C916.01,404.6769 933.71,455.6569 941.67,485.2069 " fill="none" id="C_0013934086101141939615-backto-C_0018226056604939607262" style="stroke:#181818;stroke-width:1.0;"/>
      <polygon fill="none" points="830.67,342.3969,834.6761,348.3928,841.7516,347.001,837.7455,341.0051,830.67,342.3969" style="stroke:#181818;stroke-width:1.0;"/>
      <rect fill="none" height="6" style="stroke:#C82930;stroke-width:1.0;" width="6" x="899" y="380.3633"/>
      <text fill="#000000" font-family="sans-serif" font-size="13" lengthAdjust="spacing" textLength="143.0317" x="909" y="387.3638">forward_declarations_</text>
    </g>
    <g id="link_C_0013934086101141939615_C_0010336274859733225462">
      <path codeLine="46" d="M727.0913,353.8946 C724.1413,363.6646 724.36,363.7169 722,374.2969 C713.45,412.6769 707.12,458.0069 703.75,484.8869 " fill="none" id="C_0013934086101141939615-backto-C_0010336274859733225462" style="stroke:#181818;stroke-width:1.0;"/>
      <polygon fill="none" points="730.56,342.4069,724.9964,346.9945,727.0913,353.8946,732.6549,349.307,730.56,342.4069" style="stroke:#181818;stroke-width:1.0;"/>
      <rect fill="none" height="6" style="stroke:#C82930;stroke-width:1.0;" width="6" x="725" y="380.3633"/>
      <text fill="#000000" font-family="sans-serif" font-size="13" lengthAdjust="spacing" textLength="143.0317" x="735" y="387.3638">forward_declarations_</text>
    </g>
    <g id="link_C_0011265253827398874958_C_0013934086101141939615">
      <path codeLine="47" d="M457.5898,130.4867 C496.1098,139.5667 518.76,147.9869 554,165.2969 C621.13,198.2669 685.07,260.3069 716.94,294.0369 " fill="none" id="C_0011265253827398874958-backto-C_0013934086101141939615" style="stroke:#181818;stroke-width:1.0;"/>
      <polygon fill="none" points="440.07,126.3569,456.2132,136.3266,458.9664,124.6467,440.07,126.3569" style="stroke:#181818;stroke-width:1.0;"/>
    </g>
    <g id="link_C_0005184632287329019882_C_0013934086101141939615">
      <path codeLine="48" d="M1791.2856,478.9113 C1724.2856,453.6713 1627.88,420.3369 1527,399.2969 C1280.52,347.8869 983.56,329.0969 834.02,322.5669 " fill="none" id="C_0005184632287329019882-backto-C_0013934086101141939615" style="stroke:#181818;stroke-width:1.0;"/>
      <polygon fill="none" points="1808.13,485.2569,1793.4008,473.2965,1789.1704,484.5261,1808.13,485.2569" style="stroke:#181818;stroke-width:1.0;"/>
    </g>
    <g id="link_C_0011265253827398874958_C_0015863240072594960404">
      <path codeLine="49" d="M280,126.6069 C280,167.7669 280,234.8769 280,276.0169 " fill="none" id="C_0011265253827398874958-to-C_0015863240072594960404" style="stroke:#181818;stroke-width:1.0;stroke-dasharray:7.0,7.0;"/>
      <polygon fill="none" points="280,294.0169,286,276.0169,274,276.0169,280,294.0169" style="stroke:#181818;stroke-width:1.0;"/>
    </g>
  </g>
</svg>
