<svg xmlns="http://www.w3.org/2000/svg" xmlns:xlink="http://www.w3.org/1999/xlink" contentStyleType="text/css" height="627px" preserveAspectRatio="none" style="width:2087px;height:627px;background:#FFFFFF;" version="1.1" viewBox="0 0 2087 627" width="2087px" zoomAndPan="magnify">
  <title>Class diagram TU visitor</title>
  <defs>
    <style type="text/css">a:hover { text-decoration: underline; }</style>
  </defs>
  <g>
    <text fill="#000000" font-family="sans-serif" font-size="14" font-weight="bold" lengthAdjust="spacing" textLength="168.7414" x="952.1293" y="24.9659">Class diagram TU visitor</text>
    <g id="cluster_C_0017394171196056322719">
      <path d="M528.5,179.6699 L594.6978,179.6699 A3.75,3.75 0 0 1 597.1978,182.1699 L604.1978,204.7378 L2077.5,204.7378 A2.5,2.5 0 0 1 2080,207.2378 L2080,618.1699 A2.5,2.5 0 0 1 2077.5,620.6699 L528.5,620.6699 A2.5,2.5 0 0 1 526,618.1699 L526,182.1699 A2.5,2.5 0 0 1 528.5,179.6699 " fill="none" style="stroke:#000000;stroke-width:1.5;"/>
      <line style="stroke:#000000;stroke-width:1.5;" x1="526" x2="604.1978" y1="204.7378" y2="204.7378"/>
      <text fill="#000000" font-family="sans-serif" font-size="14" font-weight="bold" lengthAdjust="spacing" textLength="65.1978" x="530" y="196.6358">clanguml</text>
    </g>
    <g id="cluster_C_0002532840279361781187">
      <path d="M838.5,424.6699 L900.7218,424.6699 A3.75,3.75 0 0 1 903.2218,427.1699 L910.2218,449.7378 L2053.5,449.7378 A2.5,2.5 0 0 1 2056,452.2378 L2056,594.1699 A2.5,2.5 0 0 1 2053.5,596.6699 L838.5,596.6699 A2.5,2.5 0 0 1 836,594.1699 L836,427.1699 A2.5,2.5 0 0 1 838.5,424.6699 " fill="none" style="stroke:#000000;stroke-width:1.5;"/>
      <line style="stroke:#000000;stroke-width:1.5;" x1="836" x2="910.2218" y1="449.7378" y2="449.7378"/>
      <text fill="#000000" font-family="sans-serif" font-size="14" font-weight="bold" lengthAdjust="spacing" textLength="61.2218" x="840" y="441.6358">common</text>
    </g>
    <g id="cluster_C_0016474478155368192384">
      <path d="M937.5,470.6699 L983.0618,470.6699 A3.75,3.75 0 0 1 985.5618,473.1699 L992.5618,495.7378 L2029.5,495.7378 A2.5,2.5 0 0 1 2032,498.2378 L2032,570.1699 A2.5,2.5 0 0 1 2029.5,572.6699 L937.5,572.6699 A2.5,2.5 0 0 1 935,570.1699 L935,473.1699 A2.5,2.5 0 0 1 937.5,470.6699 " fill="none" style="stroke:#000000;stroke-width:1.5;"/>
      <line style="stroke:#000000;stroke-width:1.5;" x1="935" x2="992.5618" y1="495.7378" y2="495.7378"/>
      <text fill="#000000" font-family="sans-serif" font-size="14" font-weight="bold" lengthAdjust="spacing" textLength="44.5618" x="939" y="487.6358">visitor</text>
    </g>
    <g id="cluster_C_0017921336289613804855">
      <path d="M552.5,225.6699 L652.1016,225.6699 A3.75,3.75 0 0 1 654.6016,228.1699 L661.6016,250.7378 L809.5,250.7378 A2.5,2.5 0 0 1 812,253.2378 L812,594.1699 A2.5,2.5 0 0 1 809.5,596.6699 L552.5,596.6699 A2.5,2.5 0 0 1 550,594.1699 L550,228.1699 A2.5,2.5 0 0 1 552.5,225.6699 " fill="none" style="stroke:#000000;stroke-width:1.5;"/>
      <line style="stroke:#000000;stroke-width:1.5;" x1="550" x2="661.6016" y1="250.7378" y2="250.7378"/>
      <text fill="#000000" font-family="sans-serif" font-size="14" font-weight="bold" lengthAdjust="spacing" textLength="98.6016" x="554" y="242.6358">class_diagram</text>
    </g>
    <g id="cluster_C_0007176993879715460962">
      <path d="M598.5,470.6699 L643.3198,470.6699 A3.75,3.75 0 0 1 645.8198,473.1699 L652.8198,495.7378 L695.5,495.7378 A2.5,2.5 0 0 1 698,498.2378 L698,570.1699 A2.5,2.5 0 0 1 695.5,572.6699 L598.5,572.6699 A2.5,2.5 0 0 1 596,570.1699 L596,473.1699 A2.5,2.5 0 0 1 598.5,470.6699 " fill="none" style="stroke:#000000;stroke-width:1.5;"/>
      <line style="stroke:#000000;stroke-width:1.5;" x1="596" x2="652.8198" y1="495.7378" y2="495.7378"/>
      <text fill="#000000" font-family="sans-serif" font-size="14" font-weight="bold" lengthAdjust="spacing" textLength="43.8198" x="600" y="487.6358">model</text>
    </g>
    <g id="cluster_C_0014897743554774430622">
      <path d="M576.5,271.6699 L622.0618,271.6699 A3.75,3.75 0 0 1 624.5618,274.1699 L631.5618,296.7378 L785.5,296.7378 A2.5,2.5 0 0 1 788,299.2378 L788,371.1699 A2.5,2.5 0 0 1 785.5,373.6699 L576.5,373.6699 A2.5,2.5 0 0 1 574,371.1699 L574,274.1699 A2.5,2.5 0 0 1 576.5,271.6699 " fill="none" style="stroke:#000000;stroke-width:1.5;"/>
      <line style="stroke:#000000;stroke-width:1.5;" x1="574" x2="631.5618" y1="296.7378" y2="296.7378"/>
      <text fill="#000000" font-family="sans-serif" font-size="14" font-weight="bold" lengthAdjust="spacing" textLength="44.5618" x="578" y="288.6358">visitor</text>
    </g>
    <g id="cluster_C_0004091562305438647185">
      <path d="M8.5,46.6699 L47.4819,46.6699 A3.75,3.75 0 0 1 49.9819,49.1699 L56.9819,71.7378 L499.5,71.7378 A2.5,2.5 0 0 1 502,74.2378 L502,371.1699 A2.5,2.5 0 0 1 499.5,373.6699 L8.5,373.6699 A2.5,2.5 0 0 1 6,371.1699 L6,49.1699 A2.5,2.5 0 0 1 8.5,46.6699 " fill="none" style="stroke:#000000;stroke-width:1.5;"/>
      <line style="stroke:#000000;stroke-width:1.5;" x1="6" x2="56.9819" y1="71.7378" y2="71.7378"/>
      <text fill="#000000" font-family="sans-serif" font-size="14" font-weight="bold" lengthAdjust="spacing" textLength="37.9819" x="10" y="63.6358">clang</text>
    </g>
    <a href="classclanguml_1_1common_1_1eid__t.html" target="_top" title="Universal class for representing all kinds of Id's in the diagram         model." xlink:actuate="onRequest" xlink:href="classclanguml_1_1common_1_1eid__t.html" xlink:show="new" xlink:title="Universal class for representing all kinds of Id's in the diagram         model." xlink:type="simple">
      <g id="elem_C_0018226056604939607262">
        <rect codeLine="5" fill="#F1F1F1" height="48" id="C_0018226056604939607262" rx="2.5" ry="2.5" style="stroke:#181818;stroke-width:0.5;" width="63.3879" x="852.5" y="508.6699"/>
        <ellipse cx="867.5" cy="524.6699" fill="#ADD1B2" rx="11" ry="11" style="stroke:#181818;stroke-width:1.0;"/>
        <path d="M870.4688,530.3105 Q869.8906,530.6074 869.25,530.748 Q868.6094,530.9043 867.9063,530.9043 Q865.4063,530.9043 864.0781,529.2636 Q862.7656,527.6074 862.7656,524.4824 Q862.7656,521.3574 864.0781,519.7011 Q865.4063,518.0449 867.9063,518.0449 Q868.6094,518.0449 869.25,518.2011 Q869.9063,518.3574 870.4688,518.6543 L870.4688,521.373 Q869.8438,520.7949 869.25,520.5293 Q868.6563,520.248 868.0313,520.248 Q866.6875,520.248 866,521.3261 Q865.3125,522.3886 865.3125,524.4824 Q865.3125,526.5761 866,527.6543 Q866.6875,528.7168 868.0313,528.7168 Q868.6563,528.7168 869.25,528.4511 Q869.8438,528.1699 870.4688,527.5918 L870.4688,530.3105 Z " fill="#000000"/>
        <text fill="#000000" font-family="sans-serif" font-size="14" lengthAdjust="spacing" textLength="31.3879" x="881.5" y="530.1019">eid_t</text>
        <line style="stroke:#181818;stroke-width:0.5;" x1="853.5" x2="914.8879" y1="540.6699" y2="540.6699"/>
        <line style="stroke:#181818;stroke-width:0.5;" x1="853.5" x2="914.8879" y1="548.6699" y2="548.6699"/>
      </g>
    </a>
    <a href="classclanguml_1_1common_1_1visitor_1_1template__builder.html" target="_top" title="template_builder" xlink:actuate="onRequest" xlink:href="classclanguml_1_1common_1_1visitor_1_1template__builder.html" xlink:show="new" xlink:title="template_builder" xlink:type="simple">
      <g id="elem_C_0006928801289515998382">
        <rect codeLine="10" fill="#F1F1F1" height="48" id="C_0006928801289515998382" rx="2.5" ry="2.5" style="stroke:#181818;stroke-width:0.5;" width="446.4856" x="951" y="508.6699"/>
        <ellipse cx="966" cy="524.6699" fill="#ADD1B2" rx="11" ry="11" style="stroke:#181818;stroke-width:1.0;"/>
        <path d="M968.9688,530.3105 Q968.3906,530.6074 967.75,530.748 Q967.1094,530.9043 966.4063,530.9043 Q963.9063,530.9043 962.5781,529.2636 Q961.2656,527.6074 961.2656,524.4824 Q961.2656,521.3574 962.5781,519.7011 Q963.9063,518.0449 966.4063,518.0449 Q967.1094,518.0449 967.75,518.2011 Q968.4063,518.3574 968.9688,518.6543 L968.9688,521.373 Q968.3438,520.7949 967.75,520.5293 Q967.1563,520.248 966.5313,520.248 Q965.1875,520.248 964.5,521.3261 Q963.8125,522.3886 963.8125,524.4824 Q963.8125,526.5761 964.5,527.6543 Q965.1875,528.7168 966.5313,528.7168 Q967.1563,528.7168 967.75,528.4511 Q968.3438,528.1699 968.9688,527.5918 L968.9688,530.3105 Z " fill="#000000"/>
        <text fill="#000000" font-family="sans-serif" font-size="14" lengthAdjust="spacing" textLength="112.0556" x="980" y="530.1019">template_builder</text>
        <rect fill="#FFFFFF" height="18.3441" style="stroke:#181818;stroke-width:1.0;stroke-dasharray:2.0,2.0;" width="300.43" x="1100.0556" y="505.6699"/>
        <text fill="#000000" font-family="sans-serif" font-size="12" font-style="italic" lengthAdjust="spacing" textLength="298.43" x="1101.0556" y="519.498">clanguml::class_diagram::visitor::translation_unit_visitor</text>
        <line style="stroke:#181818;stroke-width:0.5;" x1="952" x2="1396.4856" y1="540.6699" y2="540.6699"/>
        <line style="stroke:#181818;stroke-width:0.5;" x1="952" x2="1396.4856" y1="548.6699" y2="548.6699"/>
      </g>
    </a>
    <a href="classclanguml_1_1common_1_1visitor_1_1translation__unit__visitor.html" target="_top" title="translation_unit_visitor" xlink:actuate="onRequest" xlink:href="classclanguml_1_1common_1_1visitor_1_1translation__unit__visitor.html" xlink:show="new" xlink:title="translation_unit_visitor" xlink:type="simple">
      <g id="elem_C_0005184632287329019882">
        <rect codeLine="14" fill="#F1F1F1" height="48" id="C_0005184632287329019882" rx="2.5" ry="2.5" style="stroke:#181818;stroke-width:0.5;" width="584.3223" x="1432" y="508.6699"/>
        <ellipse cx="1447" cy="524.6699" fill="#ADD1B2" rx="11" ry="11" style="stroke:#181818;stroke-width:1.0;"/>
        <path d="M1449.9688,530.3105 Q1449.3906,530.6074 1448.75,530.748 Q1448.1094,530.9043 1447.4063,530.9043 Q1444.9063,530.9043 1443.5781,529.2636 Q1442.2656,527.6074 1442.2656,524.4824 Q1442.2656,521.3574 1443.5781,519.7011 Q1444.9063,518.0449 1447.4063,518.0449 Q1448.1094,518.0449 1448.75,518.2011 Q1449.4063,518.3574 1449.9688,518.6543 L1449.9688,521.373 Q1449.3438,520.7949 1448.75,520.5293 Q1448.1563,520.248 1447.5313,520.248 Q1446.1875,520.248 1445.5,521.3261 Q1444.8125,522.3886 1444.8125,524.4824 Q1444.8125,526.5761 1445.5,527.6543 Q1446.1875,528.7168 1447.5313,528.7168 Q1448.1563,528.7168 1448.75,528.4511 Q1449.3438,528.1699 1449.9688,527.5918 L1449.9688,530.3105 Z " fill="#000000"/>
        <text fill="#000000" font-family="sans-serif" font-size="14" lengthAdjust="spacing" textLength="150.0514" x="1461" y="530.1019">translation_unit_visitor</text>
        <rect fill="#FFFFFF" height="18.3441" style="stroke:#181818;stroke-width:1.0;stroke-dasharray:2.0,2.0;" width="400.2708" x="1619.0514" y="505.6699"/>
        <text fill="#000000" font-family="sans-serif" font-size="12" font-style="italic" lengthAdjust="spacing" textLength="398.2708" x="1620.0514" y="519.498">clanguml::config::class_diagram,clanguml::class_diagram::model::diagram</text>
        <line style="stroke:#181818;stroke-width:0.5;" x1="1433" x2="2015.3223" y1="540.6699" y2="540.6699"/>
        <line style="stroke:#181818;stroke-width:0.5;" x1="1433" x2="2015.3223" y1="548.6699" y2="548.6699"/>
      </g>
    </a>
    <a href="classclanguml_1_1class__diagram_1_1model_1_1class__.html" target="_top" title="Diagram element representing a class or class template." xlink:actuate="onRequest" xlink:href="classclanguml_1_1class__diagram_1_1model_1_1class__.html" xlink:show="new" xlink:title="Diagram element representing a class or class template." xlink:type="simple">
      <g id="elem_C_0010336274859733225462">
        <rect codeLine="22" fill="#F1F1F1" height="48" id="C_0010336274859733225462" rx="2.5" ry="2.5" style="stroke:#181818;stroke-width:0.5;" width="69.8139" x="612" y="508.6699"/>
        <ellipse cx="627" cy="524.6699" fill="#ADD1B2" rx="11" ry="11" style="stroke:#181818;stroke-width:1.0;"/>
        <path d="M629.9688,530.3105 Q629.3906,530.6074 628.75,530.748 Q628.1094,530.9043 627.4063,530.9043 Q624.9063,530.9043 623.5781,529.2636 Q622.2656,527.6074 622.2656,524.4824 Q622.2656,521.3574 623.5781,519.7011 Q624.9063,518.0449 627.4063,518.0449 Q628.1094,518.0449 628.75,518.2011 Q629.4063,518.3574 629.9688,518.6543 L629.9688,521.373 Q629.3438,520.7949 628.75,520.5293 Q628.1563,520.248 627.5313,520.248 Q626.1875,520.248 625.5,521.3261 Q624.8125,522.3886 624.8125,524.4824 Q624.8125,526.5761 625.5,527.6543 Q626.1875,528.7168 627.5313,528.7168 Q628.1563,528.7168 628.75,528.4511 Q629.3438,528.1699 629.9688,527.5918 L629.9688,530.3105 Z " fill="#000000"/>
        <text fill="#000000" font-family="sans-serif" font-size="14" lengthAdjust="spacing" textLength="37.8139" x="641" y="530.1019">class_</text>
        <line style="stroke:#181818;stroke-width:0.5;" x1="613" x2="680.8139" y1="540.6699" y2="540.6699"/>
        <line style="stroke:#181818;stroke-width:0.5;" x1="613" x2="680.8139" y1="548.6699" y2="548.6699"/>
      </g>
    </a>
    <a href="classclanguml_1_1class__diagram_1_1visitor_1_1translation__unit__visitor.html" target="_top" title="Class diagram translation unit visitor" xlink:actuate="onRequest" xlink:href="classclanguml_1_1class__diagram_1_1visitor_1_1translation__unit__visitor.html" xlink:show="new" xlink:title="Class diagram translation unit visitor" xlink:type="simple">
      <g id="elem_C_0013934086101141939615">
        <rect codeLine="28" fill="#F1F1F1" height="48" id="C_0013934086101141939615" rx="2.5" ry="2.5" style="stroke:#181818;stroke-width:0.5;" width="182.0514" x="590" y="309.6699"/>
        <ellipse cx="605" cy="325.6699" fill="#ADD1B2" rx="11" ry="11" style="stroke:#181818;stroke-width:1.0;"/>
        <path d="M607.9688,331.3105 Q607.3906,331.6074 606.75,331.748 Q606.1094,331.9043 605.4063,331.9043 Q602.9063,331.9043 601.5781,330.2636 Q600.2656,328.6074 600.2656,325.4824 Q600.2656,322.3574 601.5781,320.7011 Q602.9063,319.0449 605.4063,319.0449 Q606.1094,319.0449 606.75,319.2011 Q607.4063,319.3574 607.9688,319.6543 L607.9688,322.373 Q607.3438,321.7949 606.75,321.5293 Q606.1563,321.248 605.5313,321.248 Q604.1875,321.248 603.5,322.3261 Q602.8125,323.3886 602.8125,325.4824 Q602.8125,327.5761 603.5,328.6543 Q604.1875,329.7168 605.5313,329.7168 Q606.1563,329.7168 606.75,329.4511 Q607.3438,329.1699 607.9688,328.5918 L607.9688,331.3105 Z " fill="#000000"/>
        <text fill="#000000" font-family="sans-serif" font-size="14" lengthAdjust="spacing" textLength="150.0514" x="619" y="331.1019">translation_unit_visitor</text>
        <line style="stroke:#181818;stroke-width:0.5;" x1="591" x2="771.0514" y1="341.6699" y2="341.6699"/>
        <line style="stroke:#181818;stroke-width:0.5;" x1="591" x2="771.0514" y1="349.6699" y2="349.6699"/>
      </g>
    </a>
    <g id="elem_C_0015863240072594960404">
      <rect codeLine="36" fill="#F1F1F1" height="48" id="C_0015863240072594960404" rx="2.5" ry="2.5" style="stroke:#181818;stroke-width:0.5;" width="205.5398" x="151" y="309.6699"/>
      <ellipse cx="166" cy="325.6699" fill="#ADD1B2" rx="11" ry="11" style="stroke:#181818;stroke-width:1.0;"/>
      <path d="M168.9688,331.3105 Q168.3906,331.6074 167.75,331.748 Q167.1094,331.9043 166.4063,331.9043 Q163.9063,331.9043 162.5781,330.2636 Q161.2656,328.6074 161.2656,325.4824 Q161.2656,322.3574 162.5781,320.7011 Q163.9063,319.0449 166.4063,319.0449 Q167.1094,319.0449 167.75,319.2011 Q168.4063,319.3574 168.9688,319.6543 L168.9688,322.373 Q168.3438,321.7949 167.75,321.5293 Q167.1563,321.248 166.5313,321.248 Q165.1875,321.248 164.5,322.3261 Q163.8125,323.3886 163.8125,325.4824 Q163.8125,327.5761 164.5,328.6543 Q165.1875,329.7168 166.5313,329.7168 Q167.1563,329.7168 167.75,329.4511 Q168.3438,329.1699 168.9688,328.5918 L168.9688,331.3105 Z " fill="#000000"/>
      <text fill="#000000" font-family="sans-serif" font-size="14" lengthAdjust="spacing" textLength="129.1355" x="180" y="331.1019">RecursiveASTVisitor</text>
      <rect fill="#FFFFFF" height="18.3441" style="stroke:#181818;stroke-width:1.0;stroke-dasharray:2.0,2.0;" width="42.4043" x="317.1355" y="306.6699"/>
      <text fill="#000000" font-family="sans-serif" font-size="12" font-style="italic" lengthAdjust="spacing" textLength="40.4043" x="318.1355" y="320.498">Derived</text>
      <line style="stroke:#181818;stroke-width:0.5;" x1="152" x2="355.5398" y1="341.6699" y2="341.6699"/>
      <line style="stroke:#181818;stroke-width:0.5;" x1="152" x2="355.5398" y1="349.6699" y2="349.6699"/>
    </g>
    <a href="classclang_1_1RecursiveASTVisitor.html" target="_top" title="RecursiveASTVisitor" xlink:actuate="onRequest" xlink:href="classclang_1_1RecursiveASTVisitor.html" xlink:show="new" xlink:title="RecursiveASTVisitor" xlink:type="simple">
      <g id="elem_C_0011265253827398874958">
        <rect codeLine="40" fill="#F1F1F1" height="48" id="C_0011265253827398874958" rx="2.5" ry="2.5" style="stroke:#181818;stroke-width:0.5;" width="463.5655" x="22" y="84.6699"/>
        <ellipse cx="37" cy="100.6699" fill="#ADD1B2" rx="11" ry="11" style="stroke:#181818;stroke-width:1.0;"/>
        <path d="M39.9688,106.3105 Q39.3906,106.6074 38.75,106.748 Q38.1094,106.9043 37.4063,106.9043 Q34.9063,106.9043 33.5781,105.2636 Q32.2656,103.6074 32.2656,100.4824 Q32.2656,97.3574 33.5781,95.7011 Q34.9063,94.0449 37.4063,94.0449 Q38.1094,94.0449 38.75,94.2011 Q39.4063,94.3574 39.9688,94.6543 L39.9688,97.373 Q39.3438,96.7949 38.75,96.5293 Q38.1563,96.248 37.5313,96.248 Q36.1875,96.248 35.5,97.3261 Q34.8125,98.3886 34.8125,100.4824 Q34.8125,102.5761 35.5,103.6543 Q36.1875,104.7168 37.5313,104.7168 Q38.1563,104.7168 38.75,104.4511 Q39.3438,104.1699 39.9688,103.5918 L39.9688,106.3105 Z " fill="#000000"/>
        <text fill="#000000" font-family="sans-serif" font-size="14" lengthAdjust="spacing" textLength="129.1355" x="51" y="106.1019">RecursiveASTVisitor</text>
        <rect fill="#FFFFFF" height="18.3441" style="stroke:#181818;stroke-width:1.0;stroke-dasharray:2.0,2.0;" width="300.43" x="188.1355" y="81.6699"/>
        <text fill="#000000" font-family="sans-serif" font-size="12" font-style="italic" lengthAdjust="spacing" textLength="298.43" x="189.1355" y="95.498">clanguml::class_diagram::visitor::translation_unit_visitor</text>
        <line style="stroke:#181818;stroke-width:0.5;" x1="23" x2="484.5655" y1="116.6699" y2="116.6699"/>
        <line style="stroke:#181818;stroke-width:0.5;" x1="23" x2="484.5655" y1="124.6699" y2="124.6699"/>
      </g>
    </a>
    <g id="link_C_0013934086101141939615_C_0006928801289515998382">
      <path codeLine="44" d="M784.0824,339.9376 C848.4524,345.6876 923.5,358.1099 994,389.6699 C1058.85,418.6999 1120.78,476.2899 1152.33,508.4899 " fill="none" id="C_0013934086101141939615-backto-C_0006928801289515998382" style="stroke:#181818;stroke-width:1.0;"/>
      <polygon fill="none" points="772.13,338.8699,777.7503,343.3879,784.0824,339.9376,778.4621,335.4196,772.13,338.8699" style="stroke:#181818;stroke-width:1.0;"/>
      <rect fill="none" height="6" style="stroke:#C82930;stroke-width:1.0;" width="6" x="1030" y="397.0229"/>
      <text fill="#000000" font-family="sans-serif" font-size="13" lengthAdjust="spacing" textLength="109.8241" x="1040" y="404.5669">template_builder_</text>
    </g>
    <g id="link_C_0013934086101141939615_C_0018226056604939607262">
      <path codeLine="45" d="M781.4388,362.5291 C799.7688,370.3891 806.76,376.0299 821,389.6699 C855.38,422.5899 872.3,477.6199 879.49,508.6199 " fill="none" id="C_0013934086101141939615-backto-C_0018226056604939607262" style="stroke:#181818;stroke-width:1.0;"/>
      <polygon fill="none" points="770.41,357.7999,774.348,363.8408,781.4388,362.5291,777.5008,356.4882,770.41,357.7999" style="stroke:#181818;stroke-width:1.0;"/>
      <rect fill="none" height="6" style="stroke:#C82930;stroke-width:1.0;" width="6" x="840" y="397.0229"/>
      <text fill="#000000" font-family="sans-serif" font-size="13" lengthAdjust="spacing" textLength="135.1741" x="850" y="404.5669">forward_declarations_</text>
    </g>
    <g id="link_C_0013934086101141939615_C_0010336274859733225462">
      <path codeLine="46" d="M672.2113,369.5169 C669.8213,379.2969 670.01,379.1699 668,389.6699 C660.02,431.2799 653.38,480.2399 649.82,508.4499 " fill="none" id="C_0013934086101141939615-backto-C_0010336274859733225462" style="stroke:#181818;stroke-width:1.0;"/>
      <polygon fill="none" points="675.06,357.8599,669.75,362.7388,672.2113,369.5169,677.5213,364.6379,675.06,357.8599" style="stroke:#181818;stroke-width:1.0;"/>
      <rect fill="none" height="6" style="stroke:#C82930;stroke-width:1.0;" width="6" x="671" y="397.0229"/>
      <text fill="#000000" font-family="sans-serif" font-size="13" lengthAdjust="spacing" textLength="135.1741" x="681" y="404.5669">forward_declarations_</text>
    </g>
    <g id="link_C_0011265253827398874958_C_0013934086101141939615">
      <path codeLine="47" d="M413.9011,137.1805 C449.6411,146.3005 469.57,154.4299 502,171.6699 C569.53,207.5799 631.98,274.4199 662.11,309.6199 " fill="none" id="C_0011265253827398874958-backto-C_0013934086101141939615" style="stroke:#181818;stroke-width:1.0;"/>
      <polygon fill="none" points="396.46,132.7299,412.4176,142.9942,415.3846,131.3668,396.46,132.7299" style="stroke:#181818;stroke-width:1.0;"/>
    </g>
    <g id="link_C_0005184632287329019882_C_0013934086101141939615">
      <path codeLine="49" d="M1657.337,501.3419 C1597.167,474.7419 1509.11,439.0799 1415,416.6699 C1187.67,362.5399 912.01,343.9199 772.05,337.6899 " fill="none" id="C_0005184632287329019882-backto-C_0013934086101141939615" style="stroke:#181818;stroke-width:1.0;"/>
      <polygon fill="none" points="1673.8,508.6199,1659.763,495.8542,1654.911,506.8296,1673.8,508.6199" style="stroke:#181818;stroke-width:1.0;"/>
    </g>
    <g id="link_C_0011265253827398874958_C_0015863240072594960404">
      <path codeLine="51" d="M254,132.6899 C254,175.4299 254,248.5499 254,291.4399 " fill="none" id="C_0011265253827398874958-to-C_0015863240072594960404" style="stroke:#181818;stroke-width:1.0;stroke-dasharray:7.0,7.0;"/>
      <polygon fill="none" points="254,309.4399,260,291.4399,248,291.4399,254,309.4399" style="stroke:#181818;stroke-width:1.0;"/>
    </g>
  </g>
</svg>
