<svg xmlns="http://www.w3.org/2000/svg" xmlns:xlink="http://www.w3.org/1999/xlink" contentStyleType="text/css" data-diagram-type="CLASS" height="780px" preserveAspectRatio="none" style="width:2009px;height:780px;background:#FFFFFF;" version="1.1" viewBox="0 0 2009 780" width="2009px" zoomAndPan="magnify">
  <title>Class diagram TU visitor</title>
  <defs>
    <style type="text/css">a:hover { text-decoration: underline; }</style>
  </defs>
  <g>
    <text fill="#000000" font-family="sans-serif" font-size="14" font-weight="bold" lengthAdjust="spacing" textLength="168.7414" x="913.1293" y="24.9659">Class diagram TU visitor</text>
    <g id="cluster_C_0017394171196056322719">
      <path d="M8.5,46.6699 L74.6978,46.6699 A3.75,3.75 0 0 1 77.1978,49.1699 L84.1978,71.7378 L1196.5,71.7378 A2.5,2.5 0 0 1 1199,74.2378 L1199,660.1699 A2.5,2.5 0 0 1 1196.5,662.6699 L8.5,662.6699 A2.5,2.5 0 0 1 6,660.1699 L6,49.1699 A2.5,2.5 0 0 1 8.5,46.6699 " fill="transparent" style="stroke:#000000;stroke-width:1.5;"/>
      <line style="stroke:#000000;stroke-width:1.5;" x1="6" x2="84.1978" y1="71.7378" y2="71.7378"/>
      <text fill="#000000" font-family="sans-serif" font-size="14" font-weight="bold" lengthAdjust="spacing" textLength="65.1978" x="10" y="63.6358">clanguml</text>
    </g>
    <g id="cluster_C_0002532840279361781187">
      <path d="M32.5,92.6699 L94.7218,92.6699 A3.75,3.75 0 0 1 97.2218,95.1699 L104.2218,117.7378 L1172.5,117.7378 A2.5,2.5 0 0 1 1175,120.2378 L1175,262.1699 A2.5,2.5 0 0 1 1172.5,264.6699 L32.5,264.6699 A2.5,2.5 0 0 1 30,262.1699 L30,95.1699 A2.5,2.5 0 0 1 32.5,92.6699 " fill="transparent" style="stroke:#000000;stroke-width:1.5;"/>
      <line style="stroke:#000000;stroke-width:1.5;" x1="30" x2="104.2218" y1="117.7378" y2="117.7378"/>
      <text fill="#000000" font-family="sans-serif" font-size="14" font-weight="bold" lengthAdjust="spacing" textLength="61.2218" x="34" y="109.6358">common</text>
    </g>
    <g id="cluster_C_0016474478155368192384">
      <path d="M56.5,138.6699 L102.0618,138.6699 A3.75,3.75 0 0 1 104.5618,141.1699 L111.5618,163.7378 L1148.5,163.7378 A2.5,2.5 0 0 1 1151,166.2378 L1151,238.1699 A2.5,2.5 0 0 1 1148.5,240.6699 L56.5,240.6699 A2.5,2.5 0 0 1 54,238.1699 L54,141.1699 A2.5,2.5 0 0 1 56.5,138.6699 " fill="transparent" style="stroke:#000000;stroke-width:1.5;"/>
      <line style="stroke:#000000;stroke-width:1.5;" x1="54" x2="111.5618" y1="163.7378" y2="163.7378"/>
      <text fill="#000000" font-family="sans-serif" font-size="14" font-weight="bold" lengthAdjust="spacing" textLength="44.5618" x="58" y="155.6358">visitor</text>
    </g>
    <g id="cluster_C_0017921336289613804855">
      <path d="M485.5,315.6699 L585.1016,315.6699 A3.75,3.75 0 0 1 587.6016,318.1699 L594.6016,340.7378 L1172.5,340.7378 A2.5,2.5 0 0 1 1175,343.2378 L1175,636.1699 A2.5,2.5 0 0 1 1172.5,638.6699 L485.5,638.6699 A2.5,2.5 0 0 1 483,636.1699 L483,318.1699 A2.5,2.5 0 0 1 485.5,315.6699 " fill="transparent" style="stroke:#000000;stroke-width:1.5;"/>
      <line style="stroke:#000000;stroke-width:1.5;" x1="483" x2="594.6016" y1="340.7378" y2="340.7378"/>
      <text fill="#000000" font-family="sans-serif" font-size="14" font-weight="bold" lengthAdjust="spacing" textLength="98.6016" x="487" y="332.6358">class_diagram</text>
    </g>
    <g id="cluster_C_0014897743554774430622">
      <path d="M509.5,361.6699 L555.0618,361.6699 A3.75,3.75 0 0 1 557.5618,364.1699 L564.5618,386.7378 L1148.5,386.7378 A2.5,2.5 0 0 1 1151,389.2378 L1151,612.1699 A2.5,2.5 0 0 1 1148.5,614.6699 L509.5,614.6699 A2.5,2.5 0 0 1 507,612.1699 L507,364.1699 A2.5,2.5 0 0 1 509.5,361.6699 " fill="transparent" style="stroke:#000000;stroke-width:1.5;"/>
      <line style="stroke:#000000;stroke-width:1.5;" x1="507" x2="564.5618" y1="386.7378" y2="386.7378"/>
      <text fill="#000000" font-family="sans-serif" font-size="14" font-weight="bold" lengthAdjust="spacing" textLength="44.5618" x="511" y="378.6358">visitor</text>
    </g>
    <g id="cluster_C_0004091562305438647185">
      <path d="M1225.5,512.6699 L1264.4819,512.6699 A3.75,3.75 0 0 1 1266.9819,515.1699 L1273.9819,537.7378 L1999.5,537.7378 A2.5,2.5 0 0 1 2002,540.2378 L2002,771.1699 A2.5,2.5 0 0 1 1999.5,773.6699 L1225.5,773.6699 A2.5,2.5 0 0 1 1223,771.1699 L1223,515.1699 A2.5,2.5 0 0 1 1225.5,512.6699 " fill="transparent" style="stroke:#000000;stroke-width:1.5;"/>
      <line style="stroke:#000000;stroke-width:1.5;" x1="1223" x2="1273.9819" y1="537.7378" y2="537.7378"/>
      <text fill="#000000" font-family="sans-serif" font-size="14" font-weight="bold" lengthAdjust="spacing" textLength="37.9819" x="1227" y="529.6358">clang</text>
    </g>
    <a href="classclanguml_1_1common_1_1visitor_1_1template__builder.html" target="_top" title="template_builder" xlink:actuate="onRequest" xlink:href="classclanguml_1_1common_1_1visitor_1_1template__builder.html" xlink:show="new" xlink:title="template_builder" xlink:type="simple">
      <g id="elem_C_0006928801289515998382">
        <rect codeLine="6" fill="#F1F1F1" height="48" id="C_0006928801289515998382" rx="2.5" ry="2.5" style="stroke:#181818;stroke-width:0.5;" width="446.4856" x="689" y="176.6699"/>
        <ellipse cx="704" cy="192.6699" fill="#ADD1B2" rx="11" ry="11" style="stroke:#181818;stroke-width:1;"/>
        <path d="M706.9688,198.3105 Q706.3906,198.6074 705.75,198.748 Q705.1094,198.9043 704.4063,198.9043 Q701.9063,198.9043 700.5781,197.2636 Q699.2656,195.6074 699.2656,192.4824 Q699.2656,189.3574 700.5781,187.7011 Q701.9063,186.0449 704.4063,186.0449 Q705.1094,186.0449 705.75,186.2011 Q706.4063,186.3574 706.9688,186.6543 L706.9688,189.373 Q706.3438,188.7949 705.75,188.5293 Q705.1563,188.248 704.5313,188.248 Q703.1875,188.248 702.5,189.3261 Q701.8125,190.3886 701.8125,192.4824 Q701.8125,194.5761 702.5,195.6543 Q703.1875,196.7168 704.5313,196.7168 Q705.1563,196.7168 705.75,196.4511 Q706.3438,196.1699 706.9688,195.5918 L706.9688,198.3105 Z " fill="#000000"/>
        <text fill="#000000" font-family="sans-serif" font-size="14" lengthAdjust="spacing" textLength="112.0556" x="718" y="198.1019">template_builder</text>
        <rect fill="#FFFFFF" height="18.3441" style="stroke:#181818;stroke-width:1;stroke-dasharray:2.0,2.0;" width="300.43" x="838.0556" y="173.6699"/>
        <text fill="#000000" font-family="sans-serif" font-size="12" font-style="italic" lengthAdjust="spacing" textLength="298.43" x="839.0556" y="187.498">clanguml::class_diagram::visitor::translation_unit_visitor</text>
        <line style="stroke:#181818;stroke-width:0.5;" x1="690" x2="1134.4856" y1="208.6699" y2="208.6699"/>
        <line style="stroke:#181818;stroke-width:0.5;" x1="690" x2="1134.4856" y1="216.6699" y2="216.6699"/>
      </g>
    </a>
    <a href="classclanguml_1_1common_1_1visitor_1_1translation__unit__visitor.html" target="_top" title="translation_unit_visitor" xlink:actuate="onRequest" xlink:href="classclanguml_1_1common_1_1visitor_1_1translation__unit__visitor.html" xlink:show="new" xlink:title="translation_unit_visitor" xlink:type="simple">
      <g id="elem_C_0005184632287329019882">
        <rect codeLine="10" fill="#F1F1F1" height="48" id="C_0005184632287329019882" rx="2.5" ry="2.5" style="stroke:#181818;stroke-width:0.5;" width="584.3223" x="70" y="176.6699"/>
        <ellipse cx="85" cy="192.6699" fill="#ADD1B2" rx="11" ry="11" style="stroke:#181818;stroke-width:1;"/>
        <path d="M87.9688,198.3105 Q87.3906,198.6074 86.75,198.748 Q86.1094,198.9043 85.4063,198.9043 Q82.9063,198.9043 81.5781,197.2636 Q80.2656,195.6074 80.2656,192.4824 Q80.2656,189.3574 81.5781,187.7011 Q82.9063,186.0449 85.4063,186.0449 Q86.1094,186.0449 86.75,186.2011 Q87.4063,186.3574 87.9688,186.6543 L87.9688,189.373 Q87.3438,188.7949 86.75,188.5293 Q86.1563,188.248 85.5313,188.248 Q84.1875,188.248 83.5,189.3261 Q82.8125,190.3886 82.8125,192.4824 Q82.8125,194.5761 83.5,195.6543 Q84.1875,196.7168 85.5313,196.7168 Q86.1563,196.7168 86.75,196.4511 Q87.3438,196.1699 87.9688,195.5918 L87.9688,198.3105 Z " fill="#000000"/>
        <text fill="#000000" font-family="sans-serif" font-size="14" lengthAdjust="spacing" textLength="150.0514" x="99" y="198.1019">translation_unit_visitor</text>
        <rect fill="#FFFFFF" height="18.3441" style="stroke:#181818;stroke-width:1;stroke-dasharray:2.0,2.0;" width="400.2708" x="257.0514" y="173.6699"/>
        <text fill="#000000" font-family="sans-serif" font-size="12" font-style="italic" lengthAdjust="spacing" textLength="398.2708" x="258.0514" y="187.498">clanguml::config::class_diagram,clanguml::class_diagram::model::diagram</text>
        <line style="stroke:#181818;stroke-width:0.5;" x1="71" x2="653.3223" y1="208.6699" y2="208.6699"/>
        <line style="stroke:#181818;stroke-width:0.5;" x1="71" x2="653.3223" y1="216.6699" y2="216.6699"/>
      </g>
    </a>
    <a href="classclanguml_1_1class__diagram_1_1visitor_1_1forward__declarations__t.html" target="_top" title="forward_declarations_t" xlink:actuate="onRequest" xlink:href="classclanguml_1_1class__diagram_1_1visitor_1_1forward__declarations__t.html" xlink:show="new" xlink:title="forward_declarations_t" xlink:type="simple">
      <g id="elem_C_0002640037786747292483">
        <rect codeLine="18" fill="#F1F1F1" height="48" id="C_0002640037786747292483" rx="2.5" ry="2.5" style="stroke:#181818;stroke-width:0.5;" width="611.0084" x="523.5" y="550.6699"/>
        <ellipse cx="538.5" cy="566.6699" fill="#ADD1B2" rx="11" ry="11" style="stroke:#181818;stroke-width:1;"/>
        <path d="M541.4688,572.3105 Q540.8906,572.6074 540.25,572.748 Q539.6094,572.9043 538.9063,572.9043 Q536.4063,572.9043 535.0781,571.2636 Q533.7656,569.6074 533.7656,566.4824 Q533.7656,563.3574 535.0781,561.7011 Q536.4063,560.0449 538.9063,560.0449 Q539.6094,560.0449 540.25,560.2011 Q540.9063,560.3574 541.4688,560.6543 L541.4688,563.373 Q540.8438,562.7949 540.25,562.5293 Q539.6563,562.248 539.0313,562.248 Q537.6875,562.248 537,563.3261 Q536.3125,564.3886 536.3125,566.4824 Q536.3125,568.5761 537,569.6543 Q537.6875,570.7168 539.0313,570.7168 Q539.6563,570.7168 540.25,570.4511 Q540.8438,570.1699 541.4688,569.5918 L541.4688,572.3105 Z " fill="#000000"/>
        <text fill="#000000" font-family="sans-serif" font-size="14" lengthAdjust="spacing" textLength="150.6254" x="552.5" y="572.1019">forward_declarations_t</text>
        <rect fill="#FFFFFF" height="18.3441" style="stroke:#181818;stroke-width:1;stroke-dasharray:2.0,2.0;" width="426.3829" x="711.1254" y="547.6699"/>
        <text fill="#000000" font-family="sans-serif" font-size="12" font-style="italic" lengthAdjust="spacing" textLength="424.3829" x="712.1254" y="561.498">clanguml::class_diagram::model::class_,clanguml::class_diagram::model::enum_</text>
        <line style="stroke:#181818;stroke-width:0.5;" x1="524.5" x2="1133.5084" y1="582.6699" y2="582.6699"/>
        <line style="stroke:#181818;stroke-width:0.5;" x1="524.5" x2="1133.5084" y1="590.6699" y2="590.6699"/>
      </g>
    </a>
    <a href="classclanguml_1_1class__diagram_1_1visitor_1_1translation__unit__visitor.html" target="_top" title="Class diagram translation unit visitor" xlink:actuate="onRequest" xlink:href="classclanguml_1_1class__diagram_1_1visitor_1_1translation__unit__visitor.html" xlink:show="new" xlink:title="Class diagram translation unit visitor" xlink:type="simple">
      <g id="elem_C_0013934086101141939615">
        <rect codeLine="22" fill="#F1F1F1" height="48" id="C_0013934086101141939615" rx="2.5" ry="2.5" style="stroke:#181818;stroke-width:0.5;" width="182.0514" x="933" y="399.6699"/>
        <ellipse cx="948" cy="415.6699" fill="#ADD1B2" rx="11" ry="11" style="stroke:#181818;stroke-width:1;"/>
        <path d="M950.9688,421.3105 Q950.3906,421.6074 949.75,421.748 Q949.1094,421.9043 948.4063,421.9043 Q945.9063,421.9043 944.5781,420.2636 Q943.2656,418.6074 943.2656,415.4824 Q943.2656,412.3574 944.5781,410.7011 Q945.9063,409.0449 948.4063,409.0449 Q949.1094,409.0449 949.75,409.2011 Q950.4063,409.3574 950.9688,409.6543 L950.9688,412.373 Q950.3438,411.7949 949.75,411.5293 Q949.1563,411.248 948.5313,411.248 Q947.1875,411.248 946.5,412.3261 Q945.8125,413.3886 945.8125,415.4824 Q945.8125,417.5761 946.5,418.6543 Q947.1875,419.7168 948.5313,419.7168 Q949.1563,419.7168 949.75,419.4511 Q950.3438,419.1699 950.9688,418.5918 L950.9688,421.3105 Z " fill="#000000"/>
        <text fill="#000000" font-family="sans-serif" font-size="14" lengthAdjust="spacing" textLength="150.0514" x="962" y="421.1019">translation_unit_visitor</text>
        <line style="stroke:#181818;stroke-width:0.5;" x1="934" x2="1114.0514" y1="431.6699" y2="431.6699"/>
        <line style="stroke:#181818;stroke-width:0.5;" x1="934" x2="1114.0514" y1="439.6699" y2="439.6699"/>
      </g>
    </a>
    <g id="elem_C_0015575070709788530059">
      <rect codeLine="30" fill="#F1F1F1" height="48" id="C_0015575070709788530059" rx="2.5" ry="2.5" style="stroke:#181818;stroke-width:0.5;" width="113.1997" x="1239.5" y="550.6699"/>
      <ellipse cx="1254.5" cy="566.6699" fill="#ADD1B2" rx="11" ry="11" style="stroke:#181818;stroke-width:1;"/>
      <path d="M1257.4688,572.3105 Q1256.8906,572.6074 1256.25,572.748 Q1255.6094,572.9043 1254.9063,572.9043 Q1252.4063,572.9043 1251.0781,571.2636 Q1249.7656,569.6074 1249.7656,566.4824 Q1249.7656,563.3574 1251.0781,561.7011 Q1252.4063,560.0449 1254.9063,560.0449 Q1255.6094,560.0449 1256.25,560.2011 Q1256.9063,560.3574 1257.4688,560.6543 L1257.4688,563.373 Q1256.8438,562.7949 1256.25,562.5293 Q1255.6563,562.248 1255.0313,562.248 Q1253.6875,562.248 1253,563.3261 Q1252.3125,564.3886 1252.3125,566.4824 Q1252.3125,568.5761 1253,569.6543 Q1253.6875,570.7168 1255.0313,570.7168 Q1255.6563,570.7168 1256.25,570.4511 Q1256.8438,570.1699 1257.4688,569.5918 L1257.4688,572.3105 Z " fill="#000000"/>
      <text fill="#000000" font-family="sans-serif" font-size="14" lengthAdjust="spacing" textLength="81.1997" x="1268.5" y="572.1019">TypedefDecl</text>
      <line style="stroke:#181818;stroke-width:0.5;" x1="1240.5" x2="1351.6997" y1="582.6699" y2="582.6699"/>
      <line style="stroke:#181818;stroke-width:0.5;" x1="1240.5" x2="1351.6997" y1="590.6699" y2="590.6699"/>
    </g>
    <g id="elem_C_0014260023443016199669">
      <rect codeLine="34" fill="#F1F1F1" height="48" id="C_0014260023443016199669" rx="2.5" ry="2.5" style="stroke:#181818;stroke-width:0.5;" width="98.6257" x="1387.5" y="550.6699"/>
      <ellipse cx="1402.5" cy="566.6699" fill="#ADD1B2" rx="11" ry="11" style="stroke:#181818;stroke-width:1;"/>
      <path d="M1405.4688,572.3105 Q1404.8906,572.6074 1404.25,572.748 Q1403.6094,572.9043 1402.9063,572.9043 Q1400.4063,572.9043 1399.0781,571.2636 Q1397.7656,569.6074 1397.7656,566.4824 Q1397.7656,563.3574 1399.0781,561.7011 Q1400.4063,560.0449 1402.9063,560.0449 Q1403.6094,560.0449 1404.25,560.2011 Q1404.9063,560.3574 1405.4688,560.6543 L1405.4688,563.373 Q1404.8438,562.7949 1404.25,562.5293 Q1403.6563,562.248 1403.0313,562.248 Q1401.6875,562.248 1401,563.3261 Q1400.3125,564.3886 1400.3125,566.4824 Q1400.3125,568.5761 1401,569.6543 Q1401.6875,570.7168 1403.0313,570.7168 Q1403.6563,570.7168 1404.25,570.4511 Q1404.8438,570.1699 1405.4688,569.5918 L1405.4688,572.3105 Z " fill="#000000"/>
      <text fill="#000000" font-family="sans-serif" font-size="14" lengthAdjust="spacing" textLength="66.6257" x="1416.5" y="572.1019">EnumDecl</text>
      <line style="stroke:#181818;stroke-width:0.5;" x1="1388.5" x2="1485.1257" y1="582.6699" y2="582.6699"/>
      <line style="stroke:#181818;stroke-width:0.5;" x1="1388.5" x2="1485.1257" y1="590.6699" y2="590.6699"/>
    </g>
    <g id="elem_C_0015863240072594960404">
      <rect codeLine="38" fill="#F1F1F1" height="48" id="C_0015863240072594960404" rx="2.5" ry="2.5" style="stroke:#181818;stroke-width:0.5;" width="205.5398" x="1651" y="709.6699"/>
      <ellipse cx="1666" cy="725.6699" fill="#ADD1B2" rx="11" ry="11" style="stroke:#181818;stroke-width:1;"/>
      <path d="M1668.9688,731.3105 Q1668.3906,731.6074 1667.75,731.748 Q1667.1094,731.9043 1666.4063,731.9043 Q1663.9063,731.9043 1662.5781,730.2636 Q1661.2656,728.6074 1661.2656,725.4824 Q1661.2656,722.3574 1662.5781,720.7011 Q1663.9063,719.0449 1666.4063,719.0449 Q1667.1094,719.0449 1667.75,719.2011 Q1668.4063,719.3574 1668.9688,719.6543 L1668.9688,722.373 Q1668.3438,721.7949 1667.75,721.5293 Q1667.1563,721.248 1666.5313,721.248 Q1665.1875,721.248 1664.5,722.3261 Q1663.8125,723.3886 1663.8125,725.4824 Q1663.8125,727.5761 1664.5,728.6543 Q1665.1875,729.7168 1666.5313,729.7168 Q1667.1563,729.7168 1667.75,729.4511 Q1668.3438,729.1699 1668.9688,728.5918 L1668.9688,731.3105 Z " fill="#000000"/>
      <text fill="#000000" font-family="sans-serif" font-size="14" lengthAdjust="spacing" textLength="129.1355" x="1680" y="731.1019">RecursiveASTVisitor</text>
      <rect fill="#FFFFFF" height="18.3441" style="stroke:#181818;stroke-width:1;stroke-dasharray:2.0,2.0;" width="42.4043" x="1817.1355" y="706.6699"/>
      <text fill="#000000" font-family="sans-serif" font-size="12" font-style="italic" lengthAdjust="spacing" textLength="40.4043" x="1818.1355" y="720.498">Derived</text>
      <line style="stroke:#181818;stroke-width:0.5;" x1="1652" x2="1855.5398" y1="741.6699" y2="741.6699"/>
      <line style="stroke:#181818;stroke-width:0.5;" x1="1652" x2="1855.5398" y1="749.6699" y2="749.6699"/>
    </g>
    <a href="classclang_1_1RecursiveASTVisitor.html" target="_top" title="RecursiveASTVisitor" xlink:actuate="onRequest" xlink:href="classclang_1_1RecursiveASTVisitor.html" xlink:show="new" xlink:title="RecursiveASTVisitor" xlink:type="simple">
      <g id="elem_C_0011265253827398874958">
        <rect codeLine="42" fill="#F1F1F1" height="48" id="C_0011265253827398874958" rx="2.5" ry="2.5" style="stroke:#181818;stroke-width:0.5;" width="463.5655" x="1522" y="550.6699"/>
        <ellipse cx="1537" cy="566.6699" fill="#ADD1B2" rx="11" ry="11" style="stroke:#181818;stroke-width:1;"/>
        <path d="M1539.9688,572.3105 Q1539.3906,572.6074 1538.75,572.748 Q1538.1094,572.9043 1537.4063,572.9043 Q1534.9063,572.9043 1533.5781,571.2636 Q1532.2656,569.6074 1532.2656,566.4824 Q1532.2656,563.3574 1533.5781,561.7011 Q1534.9063,560.0449 1537.4063,560.0449 Q1538.1094,560.0449 1538.75,560.2011 Q1539.4063,560.3574 1539.9688,560.6543 L1539.9688,563.373 Q1539.3438,562.7949 1538.75,562.5293 Q1538.1563,562.248 1537.5313,562.248 Q1536.1875,562.248 1535.5,563.3261 Q1534.8125,564.3886 1534.8125,566.4824 Q1534.8125,568.5761 1535.5,569.6543 Q1536.1875,570.7168 1537.5313,570.7168 Q1538.1563,570.7168 1538.75,570.4511 Q1539.3438,570.1699 1539.9688,569.5918 L1539.9688,572.3105 Z " fill="#000000"/>
        <text fill="#000000" font-family="sans-serif" font-size="14" lengthAdjust="spacing" textLength="129.1355" x="1551" y="572.1019">RecursiveASTVisitor</text>
        <rect fill="#FFFFFF" height="18.3441" style="stroke:#181818;stroke-width:1;stroke-dasharray:2.0,2.0;" width="300.43" x="1688.1355" y="547.6699"/>
        <text fill="#000000" font-family="sans-serif" font-size="12" font-style="italic" lengthAdjust="spacing" textLength="298.43" x="1689.1355" y="561.498">clanguml::class_diagram::visitor::translation_unit_visitor</text>
        <line style="stroke:#181818;stroke-width:0.5;" x1="1523" x2="1984.5655" y1="582.6699" y2="582.6699"/>
        <line style="stroke:#181818;stroke-width:0.5;" x1="1523" x2="1984.5655" y1="590.6699" y2="590.6699"/>
      </g>
    </a>
    <a href="" target="_top" title="template_builder_" xlink:actuate="onRequest" xlink:href="" xlink:show="new" xlink:title="template_builder_" xlink:type="simple">
      <path codeLine="46" d="M1006.795,388.7162 C985.275,346.2562 945.28,267.3499 923.77,224.8999 " fill="transparent" id="C_0013934086101141939615-backto-C_0006928801289515998382" style="stroke:#181818;stroke-width:1;"/>
      <polygon fill="transparent" points="1012.22,399.4199,1013.0754,392.2597,1006.795,388.7162,1005.9396,395.8764,1012.22,399.4199" style="stroke:#181818;stroke-width:1;"/>
      <rect fill="transparent" height="6" style="stroke:#C82930;stroke-width:1;" width="6" x="964" y="288.0229"/>
      <text fill="#000000" font-family="sans-serif" font-size="13" lengthAdjust="spacing" textLength="109.8241" x="974" y="295.5669">template_builder_</text>
    </a>
    <a href="" target="_top" title="forward_declarations_" xlink:actuate="onRequest" xlink:href="" xlink:show="new" xlink:title="forward_declarations_" xlink:type="simple">
      <path codeLine="47" d="M925.2241,452.3195 C906.9641,459.8395 899.87,465.0599 885,477.6699 C861.9,497.2699 846.07,528.9299 837.28,550.4999 " fill="transparent" id="C_0013934086101141939615-backto-C_0002640037786747292483" style="stroke:#181818;stroke-width:1;"/>
      <polygon fill="transparent" points="936.32,447.7499,929.2489,446.3361,925.2241,452.3195,932.2953,453.7333,936.32,447.7499" style="stroke:#181818;stroke-width:1;"/>
      <rect fill="transparent" height="6" style="stroke:#C82930;stroke-width:1;" width="6" x="888" y="485.0229"/>
      <text fill="#000000" font-family="sans-serif" font-size="13" lengthAdjust="spacing" textLength="135.1741" x="898" y="492.5669">forward_declarations_</text>
    </a>
    <a href="" target="_top" title="typedef_enum_decls_" xlink:actuate="onRequest" xlink:href="" xlink:show="new" xlink:title="typedef_enum_decls_" xlink:type="simple">
      <path codeLine="48" d="M1115.22,428.0999 C1189.4,434.8099 1293.88,453.5199 1370,504.6699 C1388.71,517.2399 1402.4356,531.167 1414.9056,545.847 " fill="transparent" id="C_0013934086101141939615-to-C_0014260023443016199669" style="stroke:#181818;stroke-width:1;"/>
      <polygon fill="#181818" points="1418.79,550.4199,1416.0119,540.971,1415.553,546.6092,1409.9148,546.1502,1418.79,550.4199" style="stroke:#181818;stroke-width:1;"/>
      <rect fill="transparent" height="6" style="stroke:#C82930;stroke-width:1;" width="6" x="1356" y="485.0229"/>
      <text fill="#000000" font-family="sans-serif" font-size="13" lengthAdjust="spacing" textLength="130.4681" x="1366" y="492.5669">typedef_enum_decls_</text>
    </a>
    <a href="" target="_top" title="typedef_enum_decls_" xlink:actuate="onRequest" xlink:href="" xlink:show="new" xlink:title="typedef_enum_decls_" xlink:type="simple">
      <path codeLine="49" d="M1066.2,447.7899 C1117.23,475.7399 1197.3578,519.6374 1248.4378,547.6174 " fill="transparent" id="C_0013934086101141939615-to-C_0015575070709788530059" style="stroke:#181818;stroke-width:1;"/>
      <polygon fill="#181818" points="1253.7,550.4999,1247.7283,542.668,1249.3148,548.0978,1243.885,549.6843,1253.7,550.4999" style="stroke:#181818;stroke-width:1;"/>
      <rect fill="transparent" height="6" style="stroke:#C82930;stroke-width:1;" width="6" x="1154" y="485.0229"/>
      <text fill="#000000" font-family="sans-serif" font-size="13" lengthAdjust="spacing" textLength="130.4681" x="1164" y="492.5669">typedef_enum_decls_</text>
    </a>
    <g id="link_C_0011265253827398874958_C_0013934086101141939615">
      <path codeLine="50" d="M1688.7444,543.0512 C1639.3944,520.6912 1576.8,495.1499 1505,477.6699 C1371.74,445.2199 1212.84,432.5999 1115.19,427.7199 " fill="transparent" id="C_0011265253827398874958-backto-C_0013934086101141939615" style="stroke:#181818;stroke-width:1;"/>
      <polygon fill="transparent" points="1705.14,550.4799,1691.2207,537.586,1686.2682,548.5164,1705.14,550.4799" style="stroke:#181818;stroke-width:1;"/>
    </g>
    <g id="link_C_0005184632287329019882_C_0013934086101141939615">
      <path codeLine="51" d="M448.044,230.3989 C575.044,272.7889 827.43,357.0499 954.69,399.5299 " fill="transparent" id="C_0005184632287329019882-backto-C_0013934086101141939615" style="stroke:#181818;stroke-width:1;"/>
      <polygon fill="transparent" points="430.97,224.6999,446.1444,236.0902,449.9437,224.7075,430.97,224.6999" style="stroke:#181818;stroke-width:1;"/>
    </g>
    <g id="link_C_0011265253827398874958_C_0015863240072594960404">
      <path codeLine="52" d="M1754,598.8399 C1754,628.5999 1754,661.9699 1754,691.6599 " fill="transparent" id="C_0011265253827398874958-to-C_0015863240072594960404" style="stroke:#181818;stroke-width:1;stroke-dasharray:7.0,7.0;"/>
      <polygon fill="transparent" points="1754,709.6599,1760,691.6599,1748,691.6599,1754,709.6599" style="stroke:#181818;stroke-width:1;"/>
    </g>
  </g>
</svg>
