<svg xmlns="http://www.w3.org/2000/svg" xmlns:xlink="http://www.w3.org/1999/xlink" contentStyleType="text/css" data-diagram-type="CLASS" height="605px" preserveAspectRatio="none" style="width:2371px;height:605px;background:#FFFFFF;" version="1.1" viewBox="0 0 2371 605" width="2371px" zoomAndPan="magnify">
  <title>Class diagram TU visitor</title>
  <defs>
    <style type="text/css">a:hover { text-decoration: underline; }</style>
  </defs>
  <g>
    <text fill="#000000" font-family="sans-serif" font-size="14" font-weight="bold" lengthAdjust="spacing" textLength="168.7414" x="1094.1293" y="24.9659">Class diagram TU visitor</text>
    <g id="cluster_C_0017394171196056322719">
      <path d="M8.5,46.6699 L74.6978,46.6699 A3.75,3.75 0 0 1 77.1978,49.1699 L84.1978,71.7378 L1557.5,71.7378 A2.5,2.5 0 0 1 1560,74.2378 L1560,485.1699 A2.5,2.5 0 0 1 1557.5,487.6699 L8.5,487.6699 A2.5,2.5 0 0 1 6,485.1699 L6,49.1699 A2.5,2.5 0 0 1 8.5,46.6699 " fill="transparent" style="stroke:#000000;stroke-width:1.5;"/>
      <line style="stroke:#000000;stroke-width:1.5;" x1="6" x2="84.1978" y1="71.7378" y2="71.7378"/>
      <text fill="#000000" font-family="sans-serif" font-size="14" font-weight="bold" lengthAdjust="spacing" textLength="65.1978" x="10" y="63.6358">clanguml</text>
    </g>
    <g id="cluster_C_0002532840279361781187">
      <path d="M318.5,291.6699 L380.7218,291.6699 A3.75,3.75 0 0 1 383.2218,294.1699 L390.2218,316.7378 L1533.5,316.7378 A2.5,2.5 0 0 1 1536,319.2378 L1536,461.1699 A2.5,2.5 0 0 1 1533.5,463.6699 L318.5,463.6699 A2.5,2.5 0 0 1 316,461.1699 L316,294.1699 A2.5,2.5 0 0 1 318.5,291.6699 " fill="transparent" style="stroke:#000000;stroke-width:1.5;"/>
      <line style="stroke:#000000;stroke-width:1.5;" x1="316" x2="390.2218" y1="316.7378" y2="316.7378"/>
      <text fill="#000000" font-family="sans-serif" font-size="14" font-weight="bold" lengthAdjust="spacing" textLength="61.2218" x="320" y="308.6358">common</text>
    </g>
    <g id="cluster_C_0016474478155368192384">
      <path d="M417.5,337.6699 L463.0618,337.6699 A3.75,3.75 0 0 1 465.5618,340.1699 L472.5618,362.7378 L1509.5,362.7378 A2.5,2.5 0 0 1 1512,365.2378 L1512,437.1699 A2.5,2.5 0 0 1 1509.5,439.6699 L417.5,439.6699 A2.5,2.5 0 0 1 415,437.1699 L415,340.1699 A2.5,2.5 0 0 1 417.5,337.6699 " fill="transparent" style="stroke:#000000;stroke-width:1.5;"/>
      <line style="stroke:#000000;stroke-width:1.5;" x1="415" x2="472.5618" y1="362.7378" y2="362.7378"/>
      <text fill="#000000" font-family="sans-serif" font-size="14" font-weight="bold" lengthAdjust="spacing" textLength="44.5618" x="419" y="354.6358">visitor</text>
    </g>
    <g id="cluster_C_0017921336289613804855">
      <path d="M32.5,92.6699 L132.1016,92.6699 A3.75,3.75 0 0 1 134.6016,95.1699 L141.6016,117.7378 L289.5,117.7378 A2.5,2.5 0 0 1 292,120.2378 L292,461.1699 A2.5,2.5 0 0 1 289.5,463.6699 L32.5,463.6699 A2.5,2.5 0 0 1 30,461.1699 L30,95.1699 A2.5,2.5 0 0 1 32.5,92.6699 " fill="transparent" style="stroke:#000000;stroke-width:1.5;"/>
      <line style="stroke:#000000;stroke-width:1.5;" x1="30" x2="141.6016" y1="117.7378" y2="117.7378"/>
      <text fill="#000000" font-family="sans-serif" font-size="14" font-weight="bold" lengthAdjust="spacing" textLength="98.6016" x="34" y="109.6358">class_diagram</text>
    </g>
    <g id="cluster_C_0007176993879715460962">
      <path d="M78.5,337.6699 L123.3198,337.6699 A3.75,3.75 0 0 1 125.8198,340.1699 L132.8198,362.7378 L175.5,362.7378 A2.5,2.5 0 0 1 178,365.2378 L178,437.1699 A2.5,2.5 0 0 1 175.5,439.6699 L78.5,439.6699 A2.5,2.5 0 0 1 76,437.1699 L76,340.1699 A2.5,2.5 0 0 1 78.5,337.6699 " fill="transparent" style="stroke:#000000;stroke-width:1.5;"/>
      <line style="stroke:#000000;stroke-width:1.5;" x1="76" x2="132.8198" y1="362.7378" y2="362.7378"/>
      <text fill="#000000" font-family="sans-serif" font-size="14" font-weight="bold" lengthAdjust="spacing" textLength="43.8198" x="80" y="354.6358">model</text>
    </g>
    <g id="cluster_C_0014897743554774430622">
      <path d="M56.5,138.6699 L102.0618,138.6699 A3.75,3.75 0 0 1 104.5618,141.1699 L111.5618,163.7378 L265.5,163.7378 A2.5,2.5 0 0 1 268,166.2378 L268,238.1699 A2.5,2.5 0 0 1 265.5,240.6699 L56.5,240.6699 A2.5,2.5 0 0 1 54,238.1699 L54,141.1699 A2.5,2.5 0 0 1 56.5,138.6699 " fill="transparent" style="stroke:#000000;stroke-width:1.5;"/>
      <line style="stroke:#000000;stroke-width:1.5;" x1="54" x2="111.5618" y1="163.7378" y2="163.7378"/>
      <text fill="#000000" font-family="sans-serif" font-size="14" font-weight="bold" lengthAdjust="spacing" textLength="44.5618" x="58" y="155.6358">visitor</text>
    </g>
    <g id="cluster_C_0004091562305438647185">
      <path d="M1586.5,337.6699 L1625.4819,337.6699 A3.75,3.75 0 0 1 1627.9819,340.1699 L1634.9819,362.7378 L2361.5,362.7378 A2.5,2.5 0 0 1 2364,365.2378 L2364,596.1699 A2.5,2.5 0 0 1 2361.5,598.6699 L1586.5,598.6699 A2.5,2.5 0 0 1 1584,596.1699 L1584,340.1699 A2.5,2.5 0 0 1 1586.5,337.6699 " fill="transparent" style="stroke:#000000;stroke-width:1.5;"/>
      <line style="stroke:#000000;stroke-width:1.5;" x1="1584" x2="1634.9819" y1="362.7378" y2="362.7378"/>
      <text fill="#000000" font-family="sans-serif" font-size="14" font-weight="bold" lengthAdjust="spacing" textLength="37.9819" x="1588" y="354.6358">clang</text>
    </g>
    <a href="classclanguml_1_1common_1_1eid__t.html" target="_top" title="Universal class for representing all kinds of Id's in the diagram         model." xlink:actuate="onRequest" xlink:href="classclanguml_1_1common_1_1eid__t.html" xlink:show="new" xlink:title="Universal class for representing all kinds of Id's in the diagram         model." xlink:type="simple">
      <g id="elem_C_0018226056604939607262">
        <rect codeLine="5" fill="#F1F1F1" height="48" id="C_0018226056604939607262" rx="2.5" ry="2.5" style="stroke:#181818;stroke-width:0.5;" width="63.3879" x="332.5" y="375.6699"/>
        <ellipse cx="347.5" cy="391.6699" fill="#ADD1B2" rx="11" ry="11" style="stroke:#181818;stroke-width:1;"/>
        <path d="M350.4688,397.3105 Q349.8906,397.6074 349.25,397.748 Q348.6094,397.9043 347.9063,397.9043 Q345.4063,397.9043 344.0781,396.2636 Q342.7656,394.6074 342.7656,391.4824 Q342.7656,388.3574 344.0781,386.7011 Q345.4063,385.0449 347.9063,385.0449 Q348.6094,385.0449 349.25,385.2011 Q349.9063,385.3574 350.4688,385.6543 L350.4688,388.373 Q349.8438,387.7949 349.25,387.5293 Q348.6563,387.248 348.0313,387.248 Q346.6875,387.248 346,388.3261 Q345.3125,389.3886 345.3125,391.4824 Q345.3125,393.5761 346,394.6543 Q346.6875,395.7168 348.0313,395.7168 Q348.6563,395.7168 349.25,395.4511 Q349.8438,395.1699 350.4688,394.5918 L350.4688,397.3105 Z " fill="#000000"/>
        <text fill="#000000" font-family="sans-serif" font-size="14" lengthAdjust="spacing" textLength="31.3879" x="361.5" y="397.1019">eid_t</text>
        <line style="stroke:#181818;stroke-width:0.5;" x1="333.5" x2="394.8879" y1="407.6699" y2="407.6699"/>
        <line style="stroke:#181818;stroke-width:0.5;" x1="333.5" x2="394.8879" y1="415.6699" y2="415.6699"/>
      </g>
    </a>
    <a href="classclanguml_1_1common_1_1visitor_1_1template__builder.html" target="_top" title="template_builder" xlink:actuate="onRequest" xlink:href="classclanguml_1_1common_1_1visitor_1_1template__builder.html" xlink:show="new" xlink:title="template_builder" xlink:type="simple">
      <g id="elem_C_0006928801289515998382">
        <rect codeLine="10" fill="#F1F1F1" height="48" id="C_0006928801289515998382" rx="2.5" ry="2.5" style="stroke:#181818;stroke-width:0.5;" width="446.4856" x="431" y="375.6699"/>
        <ellipse cx="446" cy="391.6699" fill="#ADD1B2" rx="11" ry="11" style="stroke:#181818;stroke-width:1;"/>
        <path d="M448.9688,397.3105 Q448.3906,397.6074 447.75,397.748 Q447.1094,397.9043 446.4063,397.9043 Q443.9063,397.9043 442.5781,396.2636 Q441.2656,394.6074 441.2656,391.4824 Q441.2656,388.3574 442.5781,386.7011 Q443.9063,385.0449 446.4063,385.0449 Q447.1094,385.0449 447.75,385.2011 Q448.4063,385.3574 448.9688,385.6543 L448.9688,388.373 Q448.3438,387.7949 447.75,387.5293 Q447.1563,387.248 446.5313,387.248 Q445.1875,387.248 444.5,388.3261 Q443.8125,389.3886 443.8125,391.4824 Q443.8125,393.5761 444.5,394.6543 Q445.1875,395.7168 446.5313,395.7168 Q447.1563,395.7168 447.75,395.4511 Q448.3438,395.1699 448.9688,394.5918 L448.9688,397.3105 Z " fill="#000000"/>
        <text fill="#000000" font-family="sans-serif" font-size="14" lengthAdjust="spacing" textLength="112.0556" x="460" y="397.1019">template_builder</text>
        <rect fill="#FFFFFF" height="18.3441" style="stroke:#181818;stroke-width:1;stroke-dasharray:2.0,2.0;" width="300.43" x="580.0556" y="372.6699"/>
        <text fill="#000000" font-family="sans-serif" font-size="12" font-style="italic" lengthAdjust="spacing" textLength="298.43" x="581.0556" y="386.498">clanguml::class_diagram::visitor::translation_unit_visitor</text>
        <line style="stroke:#181818;stroke-width:0.5;" x1="432" x2="876.4856" y1="407.6699" y2="407.6699"/>
        <line style="stroke:#181818;stroke-width:0.5;" x1="432" x2="876.4856" y1="415.6699" y2="415.6699"/>
      </g>
    </a>
    <a href="classclanguml_1_1common_1_1visitor_1_1translation__unit__visitor.html" target="_top" title="translation_unit_visitor" xlink:actuate="onRequest" xlink:href="classclanguml_1_1common_1_1visitor_1_1translation__unit__visitor.html" xlink:show="new" xlink:title="translation_unit_visitor" xlink:type="simple">
      <g id="elem_C_0005184632287329019882">
        <rect codeLine="14" fill="#F1F1F1" height="48" id="C_0005184632287329019882" rx="2.5" ry="2.5" style="stroke:#181818;stroke-width:0.5;" width="584.3223" x="912" y="375.6699"/>
        <ellipse cx="927" cy="391.6699" fill="#ADD1B2" rx="11" ry="11" style="stroke:#181818;stroke-width:1;"/>
        <path d="M929.9688,397.3105 Q929.3906,397.6074 928.75,397.748 Q928.1094,397.9043 927.4063,397.9043 Q924.9063,397.9043 923.5781,396.2636 Q922.2656,394.6074 922.2656,391.4824 Q922.2656,388.3574 923.5781,386.7011 Q924.9063,385.0449 927.4063,385.0449 Q928.1094,385.0449 928.75,385.2011 Q929.4063,385.3574 929.9688,385.6543 L929.9688,388.373 Q929.3438,387.7949 928.75,387.5293 Q928.1563,387.248 927.5313,387.248 Q926.1875,387.248 925.5,388.3261 Q924.8125,389.3886 924.8125,391.4824 Q924.8125,393.5761 925.5,394.6543 Q926.1875,395.7168 927.5313,395.7168 Q928.1563,395.7168 928.75,395.4511 Q929.3438,395.1699 929.9688,394.5918 L929.9688,397.3105 Z " fill="#000000"/>
        <text fill="#000000" font-family="sans-serif" font-size="14" lengthAdjust="spacing" textLength="150.0514" x="941" y="397.1019">translation_unit_visitor</text>
        <rect fill="#FFFFFF" height="18.3441" style="stroke:#181818;stroke-width:1;stroke-dasharray:2.0,2.0;" width="400.2708" x="1099.0514" y="372.6699"/>
        <text fill="#000000" font-family="sans-serif" font-size="12" font-style="italic" lengthAdjust="spacing" textLength="398.2708" x="1100.0514" y="386.498">clanguml::config::class_diagram,clanguml::class_diagram::model::diagram</text>
        <line style="stroke:#181818;stroke-width:0.5;" x1="913" x2="1495.3223" y1="407.6699" y2="407.6699"/>
        <line style="stroke:#181818;stroke-width:0.5;" x1="913" x2="1495.3223" y1="415.6699" y2="415.6699"/>
      </g>
    </a>
    <a href="classclanguml_1_1class__diagram_1_1model_1_1class__.html" target="_top" title="Diagram element representing a class or class template." xlink:actuate="onRequest" xlink:href="classclanguml_1_1class__diagram_1_1model_1_1class__.html" xlink:show="new" xlink:title="Diagram element representing a class or class template." xlink:type="simple">
      <g id="elem_C_0010336274859733225462">
        <rect codeLine="22" fill="#F1F1F1" height="48" id="C_0010336274859733225462" rx="2.5" ry="2.5" style="stroke:#181818;stroke-width:0.5;" width="69.8139" x="92" y="375.6699"/>
        <ellipse cx="107" cy="391.6699" fill="#ADD1B2" rx="11" ry="11" style="stroke:#181818;stroke-width:1;"/>
        <path d="M109.9688,397.3105 Q109.3906,397.6074 108.75,397.748 Q108.1094,397.9043 107.4063,397.9043 Q104.9063,397.9043 103.5781,396.2636 Q102.2656,394.6074 102.2656,391.4824 Q102.2656,388.3574 103.5781,386.7011 Q104.9063,385.0449 107.4063,385.0449 Q108.1094,385.0449 108.75,385.2011 Q109.4063,385.3574 109.9688,385.6543 L109.9688,388.373 Q109.3438,387.7949 108.75,387.5293 Q108.1563,387.248 107.5313,387.248 Q106.1875,387.248 105.5,388.3261 Q104.8125,389.3886 104.8125,391.4824 Q104.8125,393.5761 105.5,394.6543 Q106.1875,395.7168 107.5313,395.7168 Q108.1563,395.7168 108.75,395.4511 Q109.3438,395.1699 109.9688,394.5918 L109.9688,397.3105 Z " fill="#000000"/>
        <text fill="#000000" font-family="sans-serif" font-size="14" lengthAdjust="spacing" textLength="37.8139" x="121" y="397.1019">class_</text>
        <line style="stroke:#181818;stroke-width:0.5;" x1="93" x2="160.8139" y1="407.6699" y2="407.6699"/>
        <line style="stroke:#181818;stroke-width:0.5;" x1="93" x2="160.8139" y1="415.6699" y2="415.6699"/>
      </g>
    </a>
    <a href="classclanguml_1_1class__diagram_1_1visitor_1_1translation__unit__visitor.html" target="_top" title="Class diagram translation unit visitor" xlink:actuate="onRequest" xlink:href="classclanguml_1_1class__diagram_1_1visitor_1_1translation__unit__visitor.html" xlink:show="new" xlink:title="Class diagram translation unit visitor" xlink:type="simple">
      <g id="elem_C_0013934086101141939615">
        <rect codeLine="28" fill="#F1F1F1" height="48" id="C_0013934086101141939615" rx="2.5" ry="2.5" style="stroke:#181818;stroke-width:0.5;" width="182.0514" x="70" y="176.6699"/>
        <ellipse cx="85" cy="192.6699" fill="#ADD1B2" rx="11" ry="11" style="stroke:#181818;stroke-width:1;"/>
        <path d="M87.9688,198.3105 Q87.3906,198.6074 86.75,198.748 Q86.1094,198.9043 85.4063,198.9043 Q82.9063,198.9043 81.5781,197.2636 Q80.2656,195.6074 80.2656,192.4824 Q80.2656,189.3574 81.5781,187.7011 Q82.9063,186.0449 85.4063,186.0449 Q86.1094,186.0449 86.75,186.2011 Q87.4063,186.3574 87.9688,186.6543 L87.9688,189.373 Q87.3438,188.7949 86.75,188.5293 Q86.1563,188.248 85.5313,188.248 Q84.1875,188.248 83.5,189.3261 Q82.8125,190.3886 82.8125,192.4824 Q82.8125,194.5761 83.5,195.6543 Q84.1875,196.7168 85.5313,196.7168 Q86.1563,196.7168 86.75,196.4511 Q87.3438,196.1699 87.9688,195.5918 L87.9688,198.3105 Z " fill="#000000"/>
        <text fill="#000000" font-family="sans-serif" font-size="14" lengthAdjust="spacing" textLength="150.0514" x="99" y="198.1019">translation_unit_visitor</text>
        <line style="stroke:#181818;stroke-width:0.5;" x1="71" x2="251.0514" y1="208.6699" y2="208.6699"/>
        <line style="stroke:#181818;stroke-width:0.5;" x1="71" x2="251.0514" y1="216.6699" y2="216.6699"/>
      </g>
    </a>
    <g id="elem_C_0015575070709788530059">
      <rect codeLine="36" fill="#F1F1F1" height="48" id="C_0015575070709788530059" rx="2.5" ry="2.5" style="stroke:#181818;stroke-width:0.5;" width="113.1997" x="2234.5" y="375.6699"/>
      <ellipse cx="2249.5" cy="391.6699" fill="#ADD1B2" rx="11" ry="11" style="stroke:#181818;stroke-width:1;"/>
      <path d="M2252.4688,397.3105 Q2251.8906,397.6074 2251.25,397.748 Q2250.6094,397.9043 2249.9063,397.9043 Q2247.4063,397.9043 2246.0781,396.2636 Q2244.7656,394.6074 2244.7656,391.4824 Q2244.7656,388.3574 2246.0781,386.7011 Q2247.4063,385.0449 2249.9063,385.0449 Q2250.6094,385.0449 2251.25,385.2011 Q2251.9063,385.3574 2252.4688,385.6543 L2252.4688,388.373 Q2251.8438,387.7949 2251.25,387.5293 Q2250.6563,387.248 2250.0313,387.248 Q2248.6875,387.248 2248,388.3261 Q2247.3125,389.3886 2247.3125,391.4824 Q2247.3125,393.5761 2248,394.6543 Q2248.6875,395.7168 2250.0313,395.7168 Q2250.6563,395.7168 2251.25,395.4511 Q2251.8438,395.1699 2252.4688,394.5918 L2252.4688,397.3105 Z " fill="#000000"/>
      <text fill="#000000" font-family="sans-serif" font-size="14" lengthAdjust="spacing" textLength="81.1997" x="2263.5" y="397.1019">TypedefDecl</text>
      <line style="stroke:#181818;stroke-width:0.5;" x1="2235.5" x2="2346.6997" y1="407.6699" y2="407.6699"/>
      <line style="stroke:#181818;stroke-width:0.5;" x1="2235.5" x2="2346.6997" y1="415.6699" y2="415.6699"/>
    </g>
    <g id="elem_C_0014260023443016199669">
      <rect codeLine="40" fill="#F1F1F1" height="48" id="C_0014260023443016199669" rx="2.5" ry="2.5" style="stroke:#181818;stroke-width:0.5;" width="98.6257" x="1600.5" y="375.6699"/>
      <ellipse cx="1615.5" cy="391.6699" fill="#ADD1B2" rx="11" ry="11" style="stroke:#181818;stroke-width:1;"/>
      <path d="M1618.4688,397.3105 Q1617.8906,397.6074 1617.25,397.748 Q1616.6094,397.9043 1615.9063,397.9043 Q1613.4063,397.9043 1612.0781,396.2636 Q1610.7656,394.6074 1610.7656,391.4824 Q1610.7656,388.3574 1612.0781,386.7011 Q1613.4063,385.0449 1615.9063,385.0449 Q1616.6094,385.0449 1617.25,385.2011 Q1617.9063,385.3574 1618.4688,385.6543 L1618.4688,388.373 Q1617.8438,387.7949 1617.25,387.5293 Q1616.6563,387.248 1616.0313,387.248 Q1614.6875,387.248 1614,388.3261 Q1613.3125,389.3886 1613.3125,391.4824 Q1613.3125,393.5761 1614,394.6543 Q1614.6875,395.7168 1616.0313,395.7168 Q1616.6563,395.7168 1617.25,395.4511 Q1617.8438,395.1699 1618.4688,394.5918 L1618.4688,397.3105 Z " fill="#000000"/>
      <text fill="#000000" font-family="sans-serif" font-size="14" lengthAdjust="spacing" textLength="66.6257" x="1629.5" y="397.1019">EnumDecl</text>
      <line style="stroke:#181818;stroke-width:0.5;" x1="1601.5" x2="1698.1257" y1="407.6699" y2="407.6699"/>
      <line style="stroke:#181818;stroke-width:0.5;" x1="1601.5" x2="1698.1257" y1="415.6699" y2="415.6699"/>
    </g>
    <g id="elem_C_0015863240072594960404">
      <rect codeLine="44" fill="#F1F1F1" height="48" id="C_0015863240072594960404" rx="2.5" ry="2.5" style="stroke:#181818;stroke-width:0.5;" width="205.5398" x="1864" y="534.6699"/>
      <ellipse cx="1879" cy="550.6699" fill="#ADD1B2" rx="11" ry="11" style="stroke:#181818;stroke-width:1;"/>
      <path d="M1881.9688,556.3105 Q1881.3906,556.6074 1880.75,556.748 Q1880.1094,556.9043 1879.4063,556.9043 Q1876.9063,556.9043 1875.5781,555.2636 Q1874.2656,553.6074 1874.2656,550.4824 Q1874.2656,547.3574 1875.5781,545.7011 Q1876.9063,544.0449 1879.4063,544.0449 Q1880.1094,544.0449 1880.75,544.2011 Q1881.4063,544.3574 1881.9688,544.6543 L1881.9688,547.373 Q1881.3438,546.7949 1880.75,546.5293 Q1880.1563,546.248 1879.5313,546.248 Q1878.1875,546.248 1877.5,547.3261 Q1876.8125,548.3886 1876.8125,550.4824 Q1876.8125,552.5761 1877.5,553.6543 Q1878.1875,554.7168 1879.5313,554.7168 Q1880.1563,554.7168 1880.75,554.4511 Q1881.3438,554.1699 1881.9688,553.5918 L1881.9688,556.3105 Z " fill="#000000"/>
      <text fill="#000000" font-family="sans-serif" font-size="14" lengthAdjust="spacing" textLength="129.1355" x="1893" y="556.1019">RecursiveASTVisitor</text>
      <rect fill="#FFFFFF" height="18.3441" style="stroke:#181818;stroke-width:1;stroke-dasharray:2.0,2.0;" width="42.4043" x="2030.1355" y="531.6699"/>
      <text fill="#000000" font-family="sans-serif" font-size="12" font-style="italic" lengthAdjust="spacing" textLength="40.4043" x="2031.1355" y="545.498">Derived</text>
      <line style="stroke:#181818;stroke-width:0.5;" x1="1865" x2="2068.5398" y1="566.6699" y2="566.6699"/>
      <line style="stroke:#181818;stroke-width:0.5;" x1="1865" x2="2068.5398" y1="574.6699" y2="574.6699"/>
    </g>
    <a href="classclang_1_1RecursiveASTVisitor.html" target="_top" title="RecursiveASTVisitor" xlink:actuate="onRequest" xlink:href="classclang_1_1RecursiveASTVisitor.html" xlink:show="new" xlink:title="RecursiveASTVisitor" xlink:type="simple">
      <g id="elem_C_0011265253827398874958">
        <rect codeLine="48" fill="#F1F1F1" height="48" id="C_0011265253827398874958" rx="2.5" ry="2.5" style="stroke:#181818;stroke-width:0.5;" width="463.5655" x="1735" y="375.6699"/>
        <ellipse cx="1750" cy="391.6699" fill="#ADD1B2" rx="11" ry="11" style="stroke:#181818;stroke-width:1;"/>
        <path d="M1752.9688,397.3105 Q1752.3906,397.6074 1751.75,397.748 Q1751.1094,397.9043 1750.4063,397.9043 Q1747.9063,397.9043 1746.5781,396.2636 Q1745.2656,394.6074 1745.2656,391.4824 Q1745.2656,388.3574 1746.5781,386.7011 Q1747.9063,385.0449 1750.4063,385.0449 Q1751.1094,385.0449 1751.75,385.2011 Q1752.4063,385.3574 1752.9688,385.6543 L1752.9688,388.373 Q1752.3438,387.7949 1751.75,387.5293 Q1751.1563,387.248 1750.5313,387.248 Q1749.1875,387.248 1748.5,388.3261 Q1747.8125,389.3886 1747.8125,391.4824 Q1747.8125,393.5761 1748.5,394.6543 Q1749.1875,395.7168 1750.5313,395.7168 Q1751.1563,395.7168 1751.75,395.4511 Q1752.3438,395.1699 1752.9688,394.5918 L1752.9688,397.3105 Z " fill="#000000"/>
        <text fill="#000000" font-family="sans-serif" font-size="14" lengthAdjust="spacing" textLength="129.1355" x="1764" y="397.1019">RecursiveASTVisitor</text>
        <rect fill="#FFFFFF" height="18.3441" style="stroke:#181818;stroke-width:1;stroke-dasharray:2.0,2.0;" width="300.43" x="1901.1355" y="372.6699"/>
        <text fill="#000000" font-family="sans-serif" font-size="12" font-style="italic" lengthAdjust="spacing" textLength="298.43" x="1902.1355" y="386.498">clanguml::class_diagram::visitor::translation_unit_visitor</text>
        <line style="stroke:#181818;stroke-width:0.5;" x1="1736" x2="2197.5655" y1="407.6699" y2="407.6699"/>
        <line style="stroke:#181818;stroke-width:0.5;" x1="1736" x2="2197.5655" y1="415.6699" y2="415.6699"/>
      </g>
    </a>
    <a href="" target="_top" title="template_builder_" xlink:actuate="onRequest" xlink:href="" xlink:show="new" xlink:title="template_builder_" xlink:type="simple">
      <path codeLine="52" d="M264.0539,206.7806 C328.6739,212.4606 404.19,224.8799 475,256.6699 C539.59,285.6699 601.14,343.2699 632.48,375.4799 " fill="transparent" id="C_0013934086101141939615-backto-C_0006928801289515998382" style="stroke:#181818;stroke-width:1;"/>
      <polygon fill="transparent" points="252.1,205.7299,257.7267,210.2399,264.0539,206.7806,258.4272,202.2706,252.1,205.7299" style="stroke:#181818;stroke-width:1;"/>
      <rect fill="transparent" height="6" style="stroke:#C82930;stroke-width:1;" width="6" x="511" y="264.0229"/>
      <text fill="#000000" font-family="sans-serif" font-size="13" lengthAdjust="spacing" textLength="109.8241" x="521" y="271.5669">template_builder_</text>
    </a>
    <a href="" target="_top" title="forward_declarations_" xlink:actuate="onRequest" xlink:href="" xlink:show="new" xlink:title="forward_declarations_" xlink:type="simple">
      <path codeLine="53" d="M261.4388,229.5291 C279.7688,237.3891 286.76,243.0299 301,256.6699 C335.38,289.5899 352.3,344.6199 359.49,375.6199 " fill="transparent" id="C_0013934086101141939615-backto-C_0018226056604939607262" style="stroke:#181818;stroke-width:1;"/>
      <polygon fill="transparent" points="250.41,224.7999,254.348,230.8408,261.4388,229.5291,257.5008,223.4882,250.41,224.7999" style="stroke:#181818;stroke-width:1;"/>
      <rect fill="transparent" height="6" style="stroke:#C82930;stroke-width:1;" width="6" x="321" y="264.0229"/>
      <text fill="#000000" font-family="sans-serif" font-size="13" lengthAdjust="spacing" textLength="135.1741" x="331" y="271.5669">forward_declarations_</text>
    </a>
    <a href="" target="_top" title="forward_declarations_" xlink:actuate="onRequest" xlink:href="" xlink:show="new" xlink:title="forward_declarations_" xlink:type="simple">
      <path codeLine="54" d="M152.2113,236.5169 C149.8213,246.2969 150.01,246.1699 148,256.6699 C140.02,298.2799 133.38,347.2399 129.82,375.4499 " fill="transparent" id="C_0013934086101141939615-backto-C_0010336274859733225462" style="stroke:#181818;stroke-width:1;"/>
      <polygon fill="transparent" points="155.06,224.8599,149.75,229.7388,152.2113,236.5169,157.5213,231.6379,155.06,224.8599" style="stroke:#181818;stroke-width:1;"/>
      <rect fill="transparent" height="6" style="stroke:#C82930;stroke-width:1;" width="6" x="151" y="264.0229"/>
      <text fill="#000000" font-family="sans-serif" font-size="13" lengthAdjust="spacing" textLength="135.1741" x="161" y="271.5669">forward_declarations_</text>
    </a>
    <a href="" target="_top" title="typedef_enum_decls_" xlink:actuate="onRequest" xlink:href="" xlink:show="new" xlink:title="typedef_enum_decls_" xlink:type="simple">
      <path codeLine="55" d="M252.2,203.9099 C536.66,211.3699 1395.62,237.4999 1512,283.6699 C1561.57,303.3399 1602.5122,343.548 1626.8822,371.068 " fill="transparent" id="C_0013934086101141939615-to-C_0014260023443016199669" style="stroke:#181818;stroke-width:1;"/>
      <polygon fill="#181818" points="1630.86,375.5599,1627.888,366.1702,1627.5452,371.8166,1621.8987,371.4739,1630.86,375.5599" style="stroke:#181818;stroke-width:1;"/>
      <rect fill="transparent" height="6" style="stroke:#C82930;stroke-width:1;" width="6" x="1478" y="264.0229"/>
      <text fill="#000000" font-family="sans-serif" font-size="13" lengthAdjust="spacing" textLength="130.4681" x="1488" y="271.5669">typedef_enum_decls_</text>
    </a>
    <a href="" target="_top" title="typedef_enum_decls_" xlink:actuate="onRequest" xlink:href="" xlink:show="new" xlink:title="typedef_enum_decls_" xlink:type="simple">
      <path codeLine="56" d="M252.05,204.4499 C489.22,211.7899 1145.62,232.8099 1692,256.6699 C1925.42,266.8599 2014.85,166.5299 2217,283.6699 C2251.92,303.9099 2270.9876,342.364 2281.2676,369.694 " fill="transparent" id="C_0013934086101141939615-to-C_0015575070709788530059" style="stroke:#181818;stroke-width:1;"/>
      <polygon fill="#181818" points="2283.38,375.3099,2283.9554,365.4779,2281.6197,370.63,2276.4675,368.2944,2283.38,375.3099" style="stroke:#181818;stroke-width:1;"/>
      <rect fill="transparent" height="6" style="stroke:#C82930;stroke-width:1;" width="6" x="2196" y="264.0229"/>
      <text fill="#000000" font-family="sans-serif" font-size="13" lengthAdjust="spacing" textLength="130.4681" x="2206" y="271.5669">typedef_enum_decls_</text>
    </a>
    <g id="link_C_0011265253827398874958_C_0013934086101141939615">
      <path codeLine="57" d="M1912.8801,366.6346 C1851.6601,331.5746 1742.8,275.8899 1627,256.6699 C1360.67,212.4699 530.08,203.7599 252.43,202.0699 " fill="transparent" id="C_0011265253827398874958-backto-C_0013934086101141939615" style="stroke:#181818;stroke-width:1;"/>
      <polygon fill="transparent" points="1928.5,375.5799,1915.8619,361.4279,1909.8983,371.8412,1928.5,375.5799" style="stroke:#181818;stroke-width:1;"/>
    </g>
    <g id="link_C_0005184632287329019882_C_0013934086101141939615">
      <path codeLine="58" d="M1137.1566,368.3654 C1076.7766,341.7754 988.38,306.0999 894,283.6699 C667.11,229.7499 392.06,211.0499 252.21,204.7399 " fill="transparent" id="C_0005184632287329019882-backto-C_0013934086101141939615" style="stroke:#181818;stroke-width:1;"/>
      <polygon fill="transparent" points="1153.63,375.6199,1139.5748,362.8743,1134.7385,373.8565,1153.63,375.6199" style="stroke:#181818;stroke-width:1;"/>
    </g>
    <g id="link_C_0011265253827398874958_C_0015863240072594960404">
      <path codeLine="59" d="M1967,423.8399 C1967,453.5999 1967,486.9699 1967,516.6599 " fill="transparent" id="C_0011265253827398874958-to-C_0015863240072594960404" style="stroke:#181818;stroke-width:1;stroke-dasharray:7.0,7.0;"/>
      <polygon fill="transparent" points="1967,534.6599,1973,516.6599,1961,516.6599,1967,534.6599" style="stroke:#181818;stroke-width:1;"/>
    </g>
  </g>
</svg>
