<svg xmlns="http://www.w3.org/2000/svg" xmlns:xlink="http://www.w3.org/1999/xlink" contentStyleType="text/css" height="2001px" preserveAspectRatio="none" style="width:2816px;height:2001px;background:#FFFFFF;" version="1.1" viewBox="0 0 2816 2001" width="2816px" zoomAndPan="magnify">
  <title>PlantUML diagram generator sequence diagram</title>
  <defs>
    <style type="text/css">a:hover { text-decoration: underline; }</style>
  </defs>
  <g>
    <text fill="#000000" font-family="sans-serif" font-size="14" font-weight="bold" lengthAdjust="spacing" textLength="378.957" x="1220.0601" y="27.9951">PlantUML diagram generator sequence diagram</text>
    <rect fill="#FFFFFF" height="1843.3359" style="stroke:#181818;stroke-width:1.0;" width="10" x="511.5151" y="104.7266"/>
    <rect fill="#FFFFFF" height="48.1328" style="stroke:#181818;stroke-width:1.0;" width="10" x="516.5151" y="443.7891"/>
    <rect fill="#FFFFFF" height="1066.8125" style="stroke:#181818;stroke-width:1.0;" width="10" x="516.5151" y="579.3203"/>
    <rect fill="#FFFFFF" height="28" style="stroke:#181818;stroke-width:1.0;" width="10" x="516.5151" y="1675.2656"/>
    <rect fill="#FFFFFF" height="58.1328" style="stroke:#181818;stroke-width:1.0;" width="10" x="516.5151" y="1797.6641"/>
    <rect fill="#FFFFFF" height="48.1328" style="stroke:#181818;stroke-width:1.0;" width="10" x="516.5151" y="1899.9297"/>
    <rect fill="#FFFFFF" height="14" style="stroke:#181818;stroke-width:1.0;" width="10" x="1418.7695" y="133.8594"/>
    <rect fill="#FFFFFF" height="14" style="stroke:#181818;stroke-width:1.0;" width="10" x="1418.7695" y="176.9922"/>
    <rect fill="#FFFFFF" height="112.2656" style="stroke:#181818;stroke-width:1.0;" width="10" x="1418.7695" y="220.125"/>
    <rect fill="#FFFFFF" height="25" style="stroke:#181818;stroke-width:1.0;" width="10" x="1423.7695" y="257.2578"/>
    <rect fill="#FFFFFF" height="14" style="stroke:#181818;stroke-width:1.0;" width="10" x="1418.7695" y="477.9219"/>
    <rect fill="#FFFFFF" height="14" style="stroke:#181818;stroke-width:1.0;" width="10" x="1418.7695" y="613.4531"/>
    <rect fill="#FFFFFF" height="14" style="stroke:#181818;stroke-width:1.0;" width="10" x="1418.7695" y="656.5859"/>
    <rect fill="#FFFFFF" height="14" style="stroke:#181818;stroke-width:1.0;" width="10" x="1418.7695" y="798.25"/>
    <rect fill="#FFFFFF" height="14" style="stroke:#181818;stroke-width:1.0;" width="10" x="1418.7695" y="841.3828"/>
    <rect fill="#FFFFFF" height="14" style="stroke:#181818;stroke-width:1.0;" width="10" x="1418.7695" y="1934.0625"/>
    <rect fill="#FFFFFF" height="14" style="stroke:#181818;stroke-width:1.0;" width="10" x="2013.7104" y="318.3906"/>
    <rect fill="#FFFFFF" height="14" style="stroke:#181818;stroke-width:1.0;" width="10" x="2013.7104" y="385.6563"/>
    <rect fill="#FFFFFF" height="14" style="stroke:#181818;stroke-width:1.0;" width="10" x="2013.7104" y="1349.5781"/>
    <rect fill="#FFFFFF" height="230.3984" style="stroke:#181818;stroke-width:1.0;" width="10" x="2299.4243" y="908.6484"/>
    <rect fill="#FFFFFF" height="28" style="stroke:#181818;stroke-width:1.0;" width="10" x="2304.4243" y="945.7813"/>
    <rect fill="#FFFFFF" height="28" style="stroke:#181818;stroke-width:1.0;" width="10" x="2304.4243" y="1017.9141"/>
    <rect fill="#FFFFFF" height="28" style="stroke:#181818;stroke-width:1.0;" width="10" x="2304.4243" y="1090.0469"/>
    <rect fill="#FFFFFF" height="152.2656" style="stroke:#181818;stroke-width:1.0;" width="10" x="2299.4243" y="1168.1797"/>
    <rect fill="#FFFFFF" height="94.1328" style="stroke:#181818;stroke-width:1.0;" width="10" x="2304.4243" y="1205.3125"/>
    <rect fill="#FFFFFF" height="25" style="stroke:#181818;stroke-width:1.0;" width="10" x="2309.4243" y="1247.4453"/>
    <rect fill="#FFFFFF" height="74.1328" style="stroke:#181818;stroke-width:1.0;" width="10" x="2299.4243" y="1461.9766"/>
    <rect fill="#FFFFFF" height="14" style="stroke:#181818;stroke-width:1.0;" width="10" x="2598.0068" y="1416.8438"/>
    <rect fill="none" height="60.2656" style="stroke:#000000;stroke-width:1.5;" width="2142.9121" x="40" y="347.3906"/>
    <rect fill="none" height="953.5469" style="stroke:#000000;stroke-width:1.5;" width="2800.0771" x="10" y="685.5859"/>
    <rect fill="none" height="922.4141" style="stroke:#000000;stroke-width:1.5;" width="2780.0771" x="20" y="709.7188"/>
    <rect fill="none" height="680.7266" style="stroke:#000000;stroke-width:1.5;" width="2760.0771" x="30" y="870.3828"/>
    <rect fill="none" height="165.5313" style="stroke:#000000;stroke-width:1.5;" width="2740.0771" x="40" y="1378.5781"/>
    <line style="stroke:#181818;stroke-width:0.5;stroke-dasharray:5.0,5.0;" x1="516" x2="516" y1="73.5938" y2="1966.0625"/>
    <line style="stroke:#181818;stroke-width:0.5;stroke-dasharray:5.0,5.0;" x1="1423.0303" x2="1423.0303" y1="73.5938" y2="1966.0625"/>
    <line style="stroke:#181818;stroke-width:0.5;stroke-dasharray:5.0,5.0;" x1="2018.5088" x2="2018.5088" y1="73.5938" y2="1966.0625"/>
    <line style="stroke:#181818;stroke-width:0.5;stroke-dasharray:5.0,5.0;" x1="2303.9121" x2="2303.9121" y1="73.5938" y2="1966.0625"/>
    <line style="stroke:#181818;stroke-width:0.5;stroke-dasharray:5.0,5.0;" x1="2602.9365" x2="2602.9365" y1="73.5938" y2="1966.0625"/>
    <a href="" target="_top" title="generator" xlink:actuate="onRequest" xlink:href="" xlink:show="new" xlink:title="generator" xlink:type="simple">
      <rect fill="#E2E2F0" height="30.2969" rx="2.5" ry="2.5" style="stroke:#181818;stroke-width:0.5;" width="933.0303" x="50" y="42.2969"/>
      <text fill="#000000" font-family="sans-serif" font-size="14" lengthAdjust="spacing" textLength="919.0303" x="57" y="62.292">clanguml::common::generators::plantuml::generator&lt;clanguml::config::class_diagram,clanguml::class_diagram::model::diagram&gt;</text>
      <rect fill="#E2E2F0" height="30.2969" rx="2.5" ry="2.5" style="stroke:#181818;stroke-width:0.5;" width="933.0303" x="50" y="1965.0625"/>
      <text fill="#000000" font-family="sans-serif" font-size="14" lengthAdjust="spacing" textLength="919.0303" x="57" y="1985.0576">clanguml::common::generators::plantuml::generator&lt;clanguml::config::class_diagram,clanguml::class_diagram::model::diagram&gt;</text>
    </a>
    <a href="" target="_top" title="generator" xlink:actuate="onRequest" xlink:href="" xlink:show="new" xlink:title="generator" xlink:type="simple">
      <rect fill="#E2E2F0" height="30.2969" rx="2.5" ry="2.5" style="stroke:#181818;stroke-width:0.5;" width="861.4785" x="993.0303" y="42.2969"/>
      <text fill="#000000" font-family="sans-serif" font-size="14" lengthAdjust="spacing" textLength="847.4785" x="1000.0303" y="62.292">clanguml::common::generators::generator&lt;clanguml::config::class_diagram,clanguml::class_diagram::model::diagram&gt;</text>
      <rect fill="#E2E2F0" height="30.2969" rx="2.5" ry="2.5" style="stroke:#181818;stroke-width:0.5;" width="861.4785" x="993.0303" y="1965.0625"/>
      <text fill="#000000" font-family="sans-serif" font-size="14" lengthAdjust="spacing" textLength="847.4785" x="1000.0303" y="1985.0576">clanguml::common::generators::generator&lt;clanguml::config::class_diagram,clanguml::class_diagram::model::diagram&gt;</text>
    </a>
    <a href="" target="_top" title="Class representing a class diagram." xlink:actuate="onRequest" xlink:href="" xlink:show="new" xlink:title="Class representing a class diagram." xlink:type="simple">
      <rect fill="#E2E2F0" height="30.2969" rx="2.5" ry="2.5" style="stroke:#181818;stroke-width:0.5;" width="308.4033" x="1864.5088" y="42.2969"/>
      <text fill="#000000" font-family="sans-serif" font-size="14" lengthAdjust="spacing" textLength="294.4033" x="1871.5088" y="62.292">clanguml::class_diagram::model::diagram</text>
      <rect fill="#E2E2F0" height="30.2969" rx="2.5" ry="2.5" style="stroke:#181818;stroke-width:0.5;" width="308.4033" x="1864.5088" y="1965.0625"/>
      <text fill="#000000" font-family="sans-serif" font-size="14" lengthAdjust="spacing" textLength="294.4033" x="1871.5088" y="1985.0576">clanguml::class_diagram::model::diagram</text>
    </a>
    <a href="" target="_top" title="Diagram path" xlink:actuate="onRequest" xlink:href="" xlink:show="new" xlink:title="Diagram path" xlink:type="simple">
      <rect fill="#E2E2F0" height="30.2969" rx="2.5" ry="2.5" style="stroke:#181818;stroke-width:0.5;" width="243.0244" x="2182.9121" y="42.2969"/>
      <text fill="#000000" font-family="sans-serif" font-size="14" lengthAdjust="spacing" textLength="229.0244" x="2189.9121" y="62.292">clanguml::common::model::path</text>
      <rect fill="#E2E2F0" height="30.2969" rx="2.5" ry="2.5" style="stroke:#181818;stroke-width:0.5;" width="243.0244" x="2182.9121" y="1965.0625"/>
      <text fill="#000000" font-family="sans-serif" font-size="14" lengthAdjust="spacing" textLength="229.0244" x="2189.9121" y="1985.0576">clanguml::common::model::path</text>
    </a>
    <a href="" target="_top" title="Base class for standalone diagram elements." xlink:actuate="onRequest" xlink:href="" xlink:show="new" xlink:title="Base class for standalone diagram elements." xlink:type="simple">
      <rect fill="#E2E2F0" height="30.2969" rx="2.5" ry="2.5" style="stroke:#181818;stroke-width:0.5;" width="334.1406" x="2435.9365" y="42.2969"/>
      <text fill="#000000" font-family="sans-serif" font-size="14" lengthAdjust="spacing" textLength="320.1406" x="2442.9365" y="62.292">clanguml::common::model::diagram_element</text>
      <rect fill="#E2E2F0" height="30.2969" rx="2.5" ry="2.5" style="stroke:#181818;stroke-width:0.5;" width="334.1406" x="2435.9365" y="1965.0625"/>
      <text fill="#000000" font-family="sans-serif" font-size="14" lengthAdjust="spacing" textLength="320.1406" x="2442.9365" y="1985.0576">clanguml::common::model::diagram_element</text>
    </a>
    <rect fill="#FFFFFF" height="1843.3359" style="stroke:#181818;stroke-width:1.0;" width="10" x="511.5151" y="104.7266"/>
    <rect fill="#FFFFFF" height="48.1328" style="stroke:#181818;stroke-width:1.0;" width="10" x="516.5151" y="443.7891"/>
    <rect fill="#FFFFFF" height="1066.8125" style="stroke:#181818;stroke-width:1.0;" width="10" x="516.5151" y="579.3203"/>
    <rect fill="#FFFFFF" height="28" style="stroke:#181818;stroke-width:1.0;" width="10" x="516.5151" y="1675.2656"/>
    <rect fill="#FFFFFF" height="58.1328" style="stroke:#181818;stroke-width:1.0;" width="10" x="516.5151" y="1797.6641"/>
    <rect fill="#FFFFFF" height="48.1328" style="stroke:#181818;stroke-width:1.0;" width="10" x="516.5151" y="1899.9297"/>
    <rect fill="#FFFFFF" height="14" style="stroke:#181818;stroke-width:1.0;" width="10" x="1418.7695" y="133.8594"/>
    <rect fill="#FFFFFF" height="14" style="stroke:#181818;stroke-width:1.0;" width="10" x="1418.7695" y="176.9922"/>
    <rect fill="#FFFFFF" height="112.2656" style="stroke:#181818;stroke-width:1.0;" width="10" x="1418.7695" y="220.125"/>
    <rect fill="#FFFFFF" height="25" style="stroke:#181818;stroke-width:1.0;" width="10" x="1423.7695" y="257.2578"/>
    <rect fill="#FFFFFF" height="14" style="stroke:#181818;stroke-width:1.0;" width="10" x="1418.7695" y="477.9219"/>
    <rect fill="#FFFFFF" height="14" style="stroke:#181818;stroke-width:1.0;" width="10" x="1418.7695" y="613.4531"/>
    <rect fill="#FFFFFF" height="14" style="stroke:#181818;stroke-width:1.0;" width="10" x="1418.7695" y="656.5859"/>
    <rect fill="#FFFFFF" height="14" style="stroke:#181818;stroke-width:1.0;" width="10" x="1418.7695" y="798.25"/>
    <rect fill="#FFFFFF" height="14" style="stroke:#181818;stroke-width:1.0;" width="10" x="1418.7695" y="841.3828"/>
    <rect fill="#FFFFFF" height="14" style="stroke:#181818;stroke-width:1.0;" width="10" x="1418.7695" y="1934.0625"/>
    <rect fill="#FFFFFF" height="14" style="stroke:#181818;stroke-width:1.0;" width="10" x="2013.7104" y="318.3906"/>
    <rect fill="#FFFFFF" height="14" style="stroke:#181818;stroke-width:1.0;" width="10" x="2013.7104" y="385.6563"/>
    <rect fill="#FFFFFF" height="14" style="stroke:#181818;stroke-width:1.0;" width="10" x="2013.7104" y="1349.5781"/>
    <rect fill="#FFFFFF" height="230.3984" style="stroke:#181818;stroke-width:1.0;" width="10" x="2299.4243" y="908.6484"/>
    <rect fill="#FFFFFF" height="28" style="stroke:#181818;stroke-width:1.0;" width="10" x="2304.4243" y="945.7813"/>
    <rect fill="#FFFFFF" height="28" style="stroke:#181818;stroke-width:1.0;" width="10" x="2304.4243" y="1017.9141"/>
    <rect fill="#FFFFFF" height="28" style="stroke:#181818;stroke-width:1.0;" width="10" x="2304.4243" y="1090.0469"/>
    <rect fill="#FFFFFF" height="152.2656" style="stroke:#181818;stroke-width:1.0;" width="10" x="2299.4243" y="1168.1797"/>
    <rect fill="#FFFFFF" height="94.1328" style="stroke:#181818;stroke-width:1.0;" width="10" x="2304.4243" y="1205.3125"/>
    <rect fill="#FFFFFF" height="25" style="stroke:#181818;stroke-width:1.0;" width="10" x="2309.4243" y="1247.4453"/>
    <rect fill="#FFFFFF" height="74.1328" style="stroke:#181818;stroke-width:1.0;" width="10" x="2299.4243" y="1461.9766"/>
    <rect fill="#FFFFFF" height="14" style="stroke:#181818;stroke-width:1.0;" width="10" x="2598.0068" y="1416.8438"/>
    <polygon fill="#181818" points="499.5151,100.7266,509.5151,104.7266,499.5151,108.7266,503.5151,104.7266" style="stroke:#181818;stroke-width:1.0;"/>
    <line style="stroke:#181818;stroke-width:1.0;" x1="0" x2="505.5151" y1="104.7266" y2="104.7266"/>
    <text fill="#000000" font-family="sans-serif" font-size="13" lengthAdjust="spacing" textLength="205.3276" x="7" y="99.6606">generate(std::ostream &amp;) const</text>
    <a href="" target="_top" title="" xlink:actuate="onRequest" xlink:href="" xlink:show="new" xlink:title="" xlink:type="simple">
      <polygon fill="#181818" points="1406.7695,129.8594,1416.7695,133.8594,1406.7695,137.8594,1410.7695,133.8594" style="stroke:#181818;stroke-width:1.0;"/>
      <line style="stroke:#181818;stroke-width:1.0;" x1="521.5151" x2="1412.7695" y1="133.8594" y2="133.8594"/>
      <text fill="#000000" font-family="sans-serif" font-size="13" lengthAdjust="spacing" textLength="89.2671" x="528.5151" y="128.7935">config() const</text>
    </a>
    <polygon fill="#181818" points="532.5151,143.8594,522.5151,147.8594,532.5151,151.8594,528.5151,147.8594" style="stroke:#181818;stroke-width:1.0;"/>
    <line style="stroke:#181818;stroke-width:1.0;stroke-dasharray:2.0,2.0;" x1="526.5151" x2="1422.7695" y1="147.8594" y2="147.8594"/>
    <a href="" target="_top" title="" xlink:actuate="onRequest" xlink:href="" xlink:show="new" xlink:title="" xlink:type="simple">
      <polygon fill="#181818" points="1406.7695,172.9922,1416.7695,176.9922,1406.7695,180.9922,1410.7695,176.9922" style="stroke:#181818;stroke-width:1.0;"/>
      <line style="stroke:#181818;stroke-width:1.0;" x1="521.5151" x2="1412.7695" y1="176.9922" y2="176.9922"/>
      <text fill="#000000" font-family="sans-serif" font-size="13" lengthAdjust="spacing" textLength="89.9653" x="528.5151" y="171.9263">model() const</text>
    </a>
    <polygon fill="#181818" points="532.5151,186.9922,522.5151,190.9922,532.5151,194.9922,528.5151,190.9922" style="stroke:#181818;stroke-width:1.0;"/>
    <line style="stroke:#181818;stroke-width:1.0;stroke-dasharray:2.0,2.0;" x1="526.5151" x2="1422.7695" y1="190.9922" y2="190.9922"/>
    <a href="" target="_top" title="" xlink:actuate="onRequest" xlink:href="" xlink:show="new" xlink:title="" xlink:type="simple">
      <polygon fill="#181818" points="1406.7695,216.125,1416.7695,220.125,1406.7695,224.125,1410.7695,220.125" style="stroke:#181818;stroke-width:1.0;"/>
      <line style="stroke:#181818;stroke-width:1.0;" x1="521.5151" x2="1412.7695" y1="220.125" y2="220.125"/>
      <text fill="#000000" font-family="sans-serif" font-size="13" lengthAdjust="spacing" textLength="151.0171" x="528.5151" y="215.0591">update_context() const</text>
    </a>
    <a href="" target="_top" title="" xlink:actuate="onRequest" xlink:href="" xlink:show="new" xlink:title="" xlink:type="simple">
      <line style="stroke:#181818;stroke-width:1.0;" x1="1428.7695" x2="1475.7695" y1="244.2578" y2="244.2578"/>
      <line style="stroke:#181818;stroke-width:1.0;" x1="1475.7695" x2="1475.7695" y1="244.2578" y2="257.2578"/>
      <line style="stroke:#181818;stroke-width:1.0;" x1="1434.7695" x2="1475.7695" y1="257.2578" y2="257.2578"/>
      <polygon fill="#181818" points="1444.7695,253.2578,1434.7695,257.2578,1444.7695,261.2578,1440.7695,257.2578" style="stroke:#181818;stroke-width:1.0;"/>
      <text fill="#000000" font-family="sans-serif" font-size="13" lengthAdjust="spacing" textLength="89.9653" x="1440.7695" y="239.1919">model() const</text>
    </a>
    <line style="stroke:#181818;stroke-width:1.0;stroke-dasharray:2.0,2.0;" x1="1433.7695" x2="1475.7695" y1="281.2578" y2="281.2578"/>
    <line style="stroke:#181818;stroke-width:1.0;stroke-dasharray:2.0,2.0;" x1="1475.7695" x2="1475.7695" y1="281.2578" y2="294.2578"/>
    <line style="stroke:#181818;stroke-width:1.0;stroke-dasharray:2.0,2.0;" x1="1428.7695" x2="1475.7695" y1="294.2578" y2="294.2578"/>
    <polygon fill="#181818" points="1438.7695,290.2578,1428.7695,294.2578,1438.7695,298.2578,1434.7695,294.2578" style="stroke:#181818;stroke-width:1.0;"/>
    <a href="" target="_top" title="" xlink:actuate="onRequest" xlink:href="" xlink:show="new" xlink:title="" xlink:type="simple">
      <polygon fill="#181818" points="2001.7104,314.3906,2011.7104,318.3906,2001.7104,322.3906,2005.7104,318.3906" style="stroke:#181818;stroke-width:1.0;"/>
      <line style="stroke:#181818;stroke-width:1.0;" x1="1428.7695" x2="2007.7104" y1="318.3906" y2="318.3906"/>
      <text fill="#000000" font-family="sans-serif" font-size="13" lengthAdjust="spacing" textLength="98.7124" x="1435.7695" y="313.3247">context() const</text>
    </a>
    <polygon fill="#181818" points="1434.7695,328.3906,1424.7695,332.3906,1434.7695,336.3906,1430.7695,332.3906" style="stroke:#181818;stroke-width:1.0;"/>
    <line style="stroke:#181818;stroke-width:1.0;stroke-dasharray:2.0,2.0;" x1="1428.7695" x2="2017.7104" y1="332.3906" y2="332.3906"/>
    <path d="M40,347.3906 L104.4429,347.3906 L104.4429,354.5234 L94.4429,364.5234 L40,364.5234 L40,347.3906 " fill="#EEEEEE" style="stroke:#000000;stroke-width:1.5;"/>
    <rect fill="none" height="60.2656" style="stroke:#000000;stroke-width:1.5;" width="2142.9121" x="40" y="347.3906"/>
    <text fill="#000000" font-family="sans-serif" font-size="13" font-weight="bold" lengthAdjust="spacing" textLength="19.4429" x="55" y="360.4575">alt</text>
    <text fill="#000000" font-family="sans-serif" font-size="11" font-weight="bold" lengthAdjust="spacing" textLength="749.4932" x="119.4429" y="359.6011">[!config.allow_empty_diagrams() &amp;&amp; model.is_empty() &amp;&amp; config.puml().before.empty() &amp;&amp; config.puml().after.empty()]</text>
    <a href="" target="_top" title="" xlink:actuate="onRequest" xlink:href="" xlink:show="new" xlink:title="" xlink:type="simple">
      <polygon fill="#181818" points="2001.7104,381.6563,2011.7104,385.6563,2001.7104,389.6563,2005.7104,385.6563" style="stroke:#181818;stroke-width:1.0;"/>
      <line style="stroke:#181818;stroke-width:1.0;" x1="521.5151" x2="2007.7104" y1="385.6563" y2="385.6563"/>
      <text fill="#000000" font-family="sans-serif" font-size="13" font-weight="bold" lengthAdjust="spacing" textLength="5.9414" x="528.5151" y="380.5903">[</text>
      <text fill="#000000" font-family="sans-serif" font-size="13" lengthAdjust="spacing" textLength="108.0752" x="534.4565" y="380.5903">is_empty() const</text>
      <text fill="#000000" font-family="sans-serif" font-size="13" font-weight="bold" lengthAdjust="spacing" textLength="5.9414" x="642.5317" y="380.5903">]</text>
    </a>
    <polygon fill="#181818" points="532.5151,395.6563,522.5151,399.6563,532.5151,403.6563,528.5151,399.6563" style="stroke:#181818;stroke-width:1.0;"/>
    <line style="stroke:#181818;stroke-width:1.0;stroke-dasharray:2.0,2.0;" x1="526.5151" x2="2017.7104" y1="399.6563" y2="399.6563"/>
    <a href="" target="_top" title="" xlink:actuate="onRequest" xlink:href="" xlink:show="new" xlink:title="" xlink:type="simple">
      <line style="stroke:#181818;stroke-width:1.0;" x1="521.5151" x2="568.5151" y1="430.7891" y2="430.7891"/>
      <line style="stroke:#181818;stroke-width:1.0;" x1="568.5151" x2="568.5151" y1="430.7891" y2="443.7891"/>
      <line style="stroke:#181818;stroke-width:1.0;" x1="527.5151" x2="568.5151" y1="443.7891" y2="443.7891"/>
      <polygon fill="#181818" points="537.5151,439.7891,527.5151,443.7891,537.5151,447.7891,533.5151,443.7891" style="stroke:#181818;stroke-width:1.0;"/>
      <text fill="#000000" font-family="sans-serif" font-size="13" lengthAdjust="spacing" textLength="237.2437" x="533.5151" y="425.7231">generate_title(std::ostream &amp;) const</text>
    </a>
    <a href="" target="_top" title="" xlink:actuate="onRequest" xlink:href="" xlink:show="new" xlink:title="" xlink:type="simple">
      <polygon fill="#181818" points="1406.7695,473.9219,1416.7695,477.9219,1406.7695,481.9219,1410.7695,477.9219" style="stroke:#181818;stroke-width:1.0;"/>
      <line style="stroke:#181818;stroke-width:1.0;" x1="526.5151" x2="1412.7695" y1="477.9219" y2="477.9219"/>
      <text fill="#000000" font-family="sans-serif" font-size="13" lengthAdjust="spacing" textLength="89.2671" x="533.5151" y="472.856">config() const</text>
    </a>
    <polygon fill="#181818" points="532.5151,487.9219,522.5151,491.9219,532.5151,495.9219,528.5151,491.9219" style="stroke:#181818;stroke-width:1.0;"/>
    <line style="stroke:#181818;stroke-width:1.0;stroke-dasharray:2.0,2.0;" x1="526.5151" x2="1422.7695" y1="491.9219" y2="491.9219"/>
    <path d="M405,504.9219 L405,544.9219 L626,544.9219 L626,514.9219 L616,504.9219 L405,504.9219 " fill="#FEFFDD" style="stroke:#181818;stroke-width:0.5;"/>
    <path d="M616,504.9219 L616,514.9219 L626,514.9219 L616,504.9219 " fill="#FEFFDD" style="stroke:#181818;stroke-width:0.5;"/>
    <text fill="#000000" font-family="sans-serif" font-size="13" lengthAdjust="spacing" textLength="193.2354" x="411" y="521.9888">Generate PlantUML directives</text>
    <text fill="#000000" font-family="sans-serif" font-size="13" lengthAdjust="spacing" textLength="200.6938" x="411" y="537.1216">before auto generated content</text>
    <a href="" target="_top" title="" xlink:actuate="onRequest" xlink:href="" xlink:show="new" xlink:title="" xlink:type="simple">
      <line style="stroke:#181818;stroke-width:1.0;" x1="521.5151" x2="568.5151" y1="566.3203" y2="566.3203"/>
      <line style="stroke:#181818;stroke-width:1.0;" x1="568.5151" x2="568.5151" y1="566.3203" y2="579.3203"/>
      <line style="stroke:#181818;stroke-width:1.0;" x1="527.5151" x2="568.5151" y1="579.3203" y2="579.3203"/>
      <polygon fill="#181818" points="537.5151,575.3203,527.5151,579.3203,537.5151,583.3203,533.5151,579.3203" style="stroke:#181818;stroke-width:1.0;"/>
      <text fill="#000000" font-family="sans-serif" font-size="13" lengthAdjust="spacing" textLength="555.3818" x="533.5151" y="561.2544">generate_plantuml_directives(std::ostream &amp;,const std::vector&lt;std::string&gt; &amp;) const</text>
    </a>
    <a href="" target="_top" title="" xlink:actuate="onRequest" xlink:href="" xlink:show="new" xlink:title="" xlink:type="simple">
      <polygon fill="#181818" points="1406.7695,609.4531,1416.7695,613.4531,1406.7695,617.4531,1410.7695,613.4531" style="stroke:#181818;stroke-width:1.0;"/>
      <line style="stroke:#181818;stroke-width:1.0;" x1="526.5151" x2="1412.7695" y1="613.4531" y2="613.4531"/>
      <text fill="#000000" font-family="sans-serif" font-size="13" lengthAdjust="spacing" textLength="89.2671" x="533.5151" y="608.3872">config() const</text>
    </a>
    <polygon fill="#181818" points="537.5151,623.4531,527.5151,627.4531,537.5151,631.4531,533.5151,627.4531" style="stroke:#181818;stroke-width:1.0;"/>
    <line style="stroke:#181818;stroke-width:1.0;stroke-dasharray:2.0,2.0;" x1="531.5151" x2="1422.7695" y1="627.4531" y2="627.4531"/>
    <a href="" target="_top" title="" xlink:actuate="onRequest" xlink:href="" xlink:show="new" xlink:title="" xlink:type="simple">
      <polygon fill="#181818" points="1406.7695,652.5859,1416.7695,656.5859,1406.7695,660.5859,1410.7695,656.5859" style="stroke:#181818;stroke-width:1.0;"/>
      <line style="stroke:#181818;stroke-width:1.0;" x1="526.5151" x2="1412.7695" y1="656.5859" y2="656.5859"/>
      <text fill="#000000" font-family="sans-serif" font-size="13" lengthAdjust="spacing" textLength="89.9653" x="533.5151" y="651.52">model() const</text>
    </a>
    <polygon fill="#181818" points="537.5151,666.5859,527.5151,670.5859,537.5151,674.5859,533.5151,670.5859" style="stroke:#181818;stroke-width:1.0;"/>
    <line style="stroke:#181818;stroke-width:1.0;stroke-dasharray:2.0,2.0;" x1="531.5151" x2="1422.7695" y1="670.5859" y2="670.5859"/>
    <path d="M10,685.5859 L86.624,685.5859 L86.624,692.7188 L76.624,702.7188 L10,702.7188 L10,685.5859 " fill="#EEEEEE" style="stroke:#000000;stroke-width:1.5;"/>
    <rect fill="none" height="953.5469" style="stroke:#000000;stroke-width:1.5;" width="2800.0771" x="10" y="685.5859"/>
    <text fill="#000000" font-family="sans-serif" font-size="13" font-weight="bold" lengthAdjust="spacing" textLength="31.624" x="25" y="698.6528">loop</text>
    <text fill="#000000" font-family="sans-serif" font-size="11" font-weight="bold" lengthAdjust="spacing" textLength="71.312" x="101.624" y="697.7964">[directives]</text>
    <path d="M20,709.7188 L86.0996,709.7188 L86.0996,716.8516 L76.0996,726.8516 L20,726.8516 L20,709.7188 " fill="#EEEEEE" style="stroke:#000000;stroke-width:1.5;"/>
    <rect fill="none" height="922.4141" style="stroke:#000000;stroke-width:1.5;" width="2780.0771" x="20" y="709.7188"/>
    <text fill="#000000" font-family="sans-serif" font-size="13" font-weight="bold" lengthAdjust="spacing" textLength="21.0996" x="35" y="722.7856">try</text>
    <path d="M423,731.8516 L423,771.8516 L608,771.8516 L608,741.8516 L598,731.8516 L423,731.8516 " fill="#FEFFDD" style="stroke:#181818;stroke-width:0.5;"/>
    <path d="M598,731.8516 L598,741.8516 L608,741.8516 L598,731.8516 " fill="#FEFFDD" style="stroke:#181818;stroke-width:0.5;"/>
    <text fill="#000000" font-family="sans-serif" font-size="13" lengthAdjust="spacing" textLength="164.9312" x="429" y="748.9185">Render the directive with</text>
    <text fill="#000000" font-family="sans-serif" font-size="13" lengthAdjust="spacing" textLength="136.6904" x="429" y="764.0513">template engine first</text>
    <a href="" target="_top" title="" xlink:actuate="onRequest" xlink:href="" xlink:show="new" xlink:title="" xlink:type="simple">
      <polygon fill="#181818" points="1406.7695,794.25,1416.7695,798.25,1406.7695,802.25,1410.7695,798.25" style="stroke:#181818;stroke-width:1.0;"/>
      <line style="stroke:#181818;stroke-width:1.0;" x1="526.5151" x2="1412.7695" y1="798.25" y2="798.25"/>
      <text fill="#000000" font-family="sans-serif" font-size="13" lengthAdjust="spacing" textLength="73.417" x="533.5151" y="793.1841">env() const</text>
    </a>
    <polygon fill="#181818" points="537.5151,808.25,527.5151,812.25,537.5151,816.25,533.5151,812.25" style="stroke:#181818;stroke-width:1.0;"/>
    <line style="stroke:#181818;stroke-width:1.0;stroke-dasharray:2.0,2.0;" x1="531.5151" x2="1422.7695" y1="812.25" y2="812.25"/>
    <a href="" target="_top" title="" xlink:actuate="onRequest" xlink:href="" xlink:show="new" xlink:title="" xlink:type="simple">
      <polygon fill="#181818" points="1406.7695,837.3828,1416.7695,841.3828,1406.7695,845.3828,1410.7695,841.3828" style="stroke:#181818;stroke-width:1.0;"/>
      <line style="stroke:#181818;stroke-width:1.0;" x1="526.5151" x2="1412.7695" y1="841.3828" y2="841.3828"/>
      <text fill="#000000" font-family="sans-serif" font-size="13" lengthAdjust="spacing" textLength="98.7124" x="533.5151" y="836.3169">context() const</text>
    </a>
    <polygon fill="#181818" points="537.5151,851.3828,527.5151,855.3828,537.5151,859.3828,533.5151,855.3828" style="stroke:#181818;stroke-width:1.0;"/>
    <line style="stroke:#181818;stroke-width:1.0;stroke-dasharray:2.0,2.0;" x1="531.5151" x2="1422.7695" y1="855.3828" y2="855.3828"/>
    <path d="M30,870.3828 L106.624,870.3828 L106.624,877.5156 L96.624,887.5156 L30,887.5156 L30,870.3828 " fill="#EEEEEE" style="stroke:#000000;stroke-width:1.5;"/>
    <rect fill="none" height="680.7266" style="stroke:#000000;stroke-width:1.5;" width="2760.0771" x="30" y="870.3828"/>
    <text fill="#000000" font-family="sans-serif" font-size="13" font-weight="bold" lengthAdjust="spacing" textLength="31.624" x="45" y="883.4497">loop</text>
    <text fill="#000000" font-family="sans-serif" font-size="11" font-weight="bold" lengthAdjust="spacing" textLength="300.083" x="121.624" y="882.5933">[util::find_element_alias(directive, alias_match)]</text>
    <a href="" target="_top" title="" xlink:actuate="onRequest" xlink:href="" xlink:show="new" xlink:title="" xlink:type="simple">
      <polygon fill="#181818" points="2287.4243,904.6484,2297.4243,908.6484,2287.4243,912.6484,2291.4243,908.6484" style="stroke:#181818;stroke-width:1.0;"/>
      <line style="stroke:#181818;stroke-width:1.0;" x1="526.5151" x2="2293.4243" y1="908.6484" y2="908.6484"/>
      <text fill="#000000" font-family="sans-serif" font-size="13" lengthAdjust="spacing" textLength="229.5884" x="533.5151" y="903.5825">operator|(const std::string &amp;) const</text>
    </a>
    <a href="" target="_top" title="" xlink:actuate="onRequest" xlink:href="" xlink:show="new" xlink:title="" xlink:type="simple">
      <line style="stroke:#181818;stroke-width:1.0;" x1="2314.4243" x2="2356.4243" y1="937.7813" y2="937.7813"/>
      <line style="stroke:#181818;stroke-width:1.0;" x1="2356.4243" x2="2356.4243" y1="937.7813" y2="950.7813"/>
      <line style="stroke:#181818;stroke-width:1.0;" x1="2315.4243" x2="2356.4243" y1="950.7813" y2="950.7813"/>
      <polygon fill="#181818" points="2325.4243,946.7813,2315.4243,950.7813,2325.4243,954.7813,2321.4243,950.7813" style="stroke:#181818;stroke-width:1.0;"/>
      <text fill="#000000" font-family="sans-serif" font-size="13" lengthAdjust="spacing" textLength="122.8652" x="2321.4243" y="932.7153">path(const path &amp;)</text>
    </a>
    <a href="" target="_top" title="" xlink:actuate="onRequest" xlink:href="" xlink:show="new" xlink:title="" xlink:type="simple">
      <line style="stroke:#181818;stroke-width:1.0;" x1="2314.4243" x2="2356.4243" y1="1009.9141" y2="1009.9141"/>
      <line style="stroke:#181818;stroke-width:1.0;" x1="2356.4243" x2="2356.4243" y1="1009.9141" y2="1022.9141"/>
      <line style="stroke:#181818;stroke-width:1.0;" x1="2315.4243" x2="2356.4243" y1="1022.9141" y2="1022.9141"/>
      <polygon fill="#181818" points="2325.4243,1018.9141,2315.4243,1022.9141,2325.4243,1026.9141,2321.4243,1022.9141" style="stroke:#181818;stroke-width:1.0;"/>
      <text fill="#000000" font-family="sans-serif" font-size="13" lengthAdjust="spacing" textLength="178.915" x="2321.4243" y="1004.8481">append(const std::string &amp;)</text>
    </a>
    <a href="" target="_top" title="" xlink:actuate="onRequest" xlink:href="" xlink:show="new" xlink:title="" xlink:type="simple">
      <line style="stroke:#181818;stroke-width:1.0;" x1="2314.4243" x2="2356.4243" y1="1082.0469" y2="1082.0469"/>
      <line style="stroke:#181818;stroke-width:1.0;" x1="2356.4243" x2="2356.4243" y1="1082.0469" y2="1095.0469"/>
      <line style="stroke:#181818;stroke-width:1.0;" x1="2315.4243" x2="2356.4243" y1="1095.0469" y2="1095.0469"/>
      <polygon fill="#181818" points="2325.4243,1091.0469,2315.4243,1095.0469,2325.4243,1099.0469,2321.4243,1095.0469" style="stroke:#181818;stroke-width:1.0;"/>
      <text fill="#000000" font-family="sans-serif" font-size="13" lengthAdjust="spacing" textLength="93.6597" x="2321.4243" y="1076.981">path(path &amp;&amp;)</text>
    </a>
    <polygon fill="#181818" points="537.5151,1135.0469,527.5151,1139.0469,537.5151,1143.0469,533.5151,1139.0469" style="stroke:#181818;stroke-width:1.0;"/>
    <line style="stroke:#181818;stroke-width:1.0;stroke-dasharray:2.0,2.0;" x1="531.5151" x2="2303.4243" y1="1139.0469" y2="1139.0469"/>
    <a href="" target="_top" title="" xlink:actuate="onRequest" xlink:href="" xlink:show="new" xlink:title="" xlink:type="simple">
      <polygon fill="#181818" points="2287.4243,1164.1797,2297.4243,1168.1797,2287.4243,1172.1797,2291.4243,1168.1797" style="stroke:#181818;stroke-width:1.0;"/>
      <line style="stroke:#181818;stroke-width:1.0;" x1="526.5151" x2="2293.4243" y1="1168.1797" y2="1168.1797"/>
      <text fill="#000000" font-family="sans-serif" font-size="13" lengthAdjust="spacing" textLength="106.355" x="533.5151" y="1163.1138">to_string() const</text>
    </a>
    <a href="" target="_top" title="" xlink:actuate="onRequest" xlink:href="" xlink:show="new" xlink:title="" xlink:type="simple">
      <line style="stroke:#181818;stroke-width:1.0;" x1="2309.4243" x2="2356.4243" y1="1192.3125" y2="1192.3125"/>
      <line style="stroke:#181818;stroke-width:1.0;" x1="2356.4243" x2="2356.4243" y1="1192.3125" y2="1205.3125"/>
      <line style="stroke:#181818;stroke-width:1.0;" x1="2315.4243" x2="2356.4243" y1="1205.3125" y2="1205.3125"/>
      <polygon fill="#181818" points="2325.4243,1201.3125,2315.4243,1205.3125,2325.4243,1209.3125,2321.4243,1205.3125" style="stroke:#181818;stroke-width:1.0;"/>
      <text fill="#000000" font-family="sans-serif" font-size="13" lengthAdjust="spacing" textLength="112.1821" x="2321.4243" y="1187.2466">separator() const</text>
    </a>
    <a href="" target="_top" title="" xlink:actuate="onRequest" xlink:href="" xlink:show="new" xlink:title="" xlink:type="simple">
      <line style="stroke:#181818;stroke-width:1.0;" x1="2314.4243" x2="2361.4243" y1="1234.4453" y2="1234.4453"/>
      <line style="stroke:#181818;stroke-width:1.0;" x1="2361.4243" x2="2361.4243" y1="1234.4453" y2="1247.4453"/>
      <line style="stroke:#181818;stroke-width:1.0;" x1="2320.4243" x2="2361.4243" y1="1247.4453" y2="1247.4453"/>
      <polygon fill="#181818" points="2330.4243,1243.4453,2320.4243,1247.4453,2330.4243,1251.4453,2326.4243,1247.4453" style="stroke:#181818;stroke-width:1.0;"/>
      <text fill="#000000" font-family="sans-serif" font-size="13" lengthAdjust="spacing" text-decoration="underline" textLength="137.9346" x="2326.4243" y="1229.3794">separator(path_type)</text>
    </a>
    <line style="stroke:#181818;stroke-width:1.0;stroke-dasharray:2.0,2.0;" x1="2319.4243" x2="2361.4243" y1="1271.4453" y2="1271.4453"/>
    <line style="stroke:#181818;stroke-width:1.0;stroke-dasharray:2.0,2.0;" x1="2361.4243" x2="2361.4243" y1="1271.4453" y2="1284.4453"/>
    <line style="stroke:#181818;stroke-width:1.0;stroke-dasharray:2.0,2.0;" x1="2314.4243" x2="2361.4243" y1="1284.4453" y2="1284.4453"/>
    <polygon fill="#181818" points="2324.4243,1280.4453,2314.4243,1284.4453,2324.4243,1288.4453,2320.4243,1284.4453" style="stroke:#181818;stroke-width:1.0;"/>
    <line style="stroke:#181818;stroke-width:1.0;stroke-dasharray:2.0,2.0;" x1="2314.4243" x2="2356.4243" y1="1298.4453" y2="1298.4453"/>
    <line style="stroke:#181818;stroke-width:1.0;stroke-dasharray:2.0,2.0;" x1="2356.4243" x2="2356.4243" y1="1298.4453" y2="1311.4453"/>
    <line style="stroke:#181818;stroke-width:1.0;stroke-dasharray:2.0,2.0;" x1="2309.4243" x2="2356.4243" y1="1311.4453" y2="1311.4453"/>
    <polygon fill="#181818" points="2319.4243,1307.4453,2309.4243,1311.4453,2319.4243,1315.4453,2315.4243,1311.4453" style="stroke:#181818;stroke-width:1.0;"/>
    <polygon fill="#181818" points="537.5151,1316.4453,527.5151,1320.4453,537.5151,1324.4453,533.5151,1320.4453" style="stroke:#181818;stroke-width:1.0;"/>
    <line style="stroke:#181818;stroke-width:1.0;stroke-dasharray:2.0,2.0;" x1="531.5151" x2="2303.4243" y1="1320.4453" y2="1320.4453"/>
    <a href="" target="_top" title="" xlink:actuate="onRequest" xlink:href="" xlink:show="new" xlink:title="" xlink:type="simple">
      <polygon fill="#181818" points="2001.7104,1345.5781,2011.7104,1349.5781,2001.7104,1353.5781,2005.7104,1349.5781" style="stroke:#181818;stroke-width:1.0;"/>
      <line style="stroke:#181818;stroke-width:1.0;" x1="526.5151" x2="2007.7104" y1="1349.5781" y2="1349.5781"/>
      <text fill="#000000" font-family="sans-serif" font-size="13" lengthAdjust="spacing" textLength="190.6455" x="533.5151" y="1344.5122">get(const std::string &amp;) const</text>
    </a>
    <polygon fill="#181818" points="537.5151,1359.5781,527.5151,1363.5781,537.5151,1367.5781,533.5151,1363.5781" style="stroke:#181818;stroke-width:1.0;"/>
    <line style="stroke:#181818;stroke-width:1.0;stroke-dasharray:2.0,2.0;" x1="531.5151" x2="2017.7104" y1="1363.5781" y2="1363.5781"/>
    <path d="M40,1378.5781 L104.4429,1378.5781 L104.4429,1385.7109 L94.4429,1395.7109 L40,1395.7109 L40,1378.5781 " fill="#EEEEEE" style="stroke:#000000;stroke-width:1.5;"/>
    <rect fill="none" height="165.5313" style="stroke:#000000;stroke-width:1.5;" width="2740.0771" x="40" y="1378.5781"/>
    <text fill="#000000" font-family="sans-serif" font-size="13" font-weight="bold" lengthAdjust="spacing" textLength="19.4429" x="55" y="1391.645">alt</text>
    <text fill="#000000" font-family="sans-serif" font-size="11" font-weight="bold" lengthAdjust="spacing" textLength="86.9473" x="119.4429" y="1390.7886">[element_opt]</text>
    <a href="" target="_top" title="" xlink:actuate="onRequest" xlink:href="" xlink:show="new" xlink:title="" xlink:type="simple">
      <polygon fill="#181818" points="2586.0068,1412.8438,2596.0068,1416.8438,2586.0068,1420.8438,2590.0068,1416.8438" style="stroke:#181818;stroke-width:1.0;"/>
      <line style="stroke:#181818;stroke-width:1.0;" x1="526.5151" x2="2592.0068" y1="1416.8438" y2="1416.8438"/>
      <text fill="#000000" font-family="sans-serif" font-size="13" lengthAdjust="spacing" textLength="79.4155" x="533.5151" y="1411.7778">alias() const</text>
    </a>
    <polygon fill="#181818" points="537.5151,1426.8438,527.5151,1430.8438,537.5151,1434.8438,533.5151,1430.8438" style="stroke:#181818;stroke-width:1.0;"/>
    <line style="stroke:#181818;stroke-width:1.0;stroke-dasharray:2.0,2.0;" x1="531.5151" x2="2602.0068" y1="1430.8438" y2="1430.8438"/>
    <line style="stroke:#000000;stroke-width:1.0;stroke-dasharray:2.0,2.0;" x1="40" x2="2780.0771" y1="1439.8438" y2="1439.8438"/>
    <a href="" target="_top" title="" xlink:actuate="onRequest" xlink:href="" xlink:show="new" xlink:title="" xlink:type="simple">
      <polygon fill="#181818" points="2287.4243,1457.9766,2297.4243,1461.9766,2287.4243,1465.9766,2291.4243,1461.9766" style="stroke:#181818;stroke-width:1.0;"/>
      <line style="stroke:#181818;stroke-width:1.0;" x1="526.5151" x2="2293.4243" y1="1461.9766" y2="1461.9766"/>
      <text fill="#000000" font-family="sans-serif" font-size="13" lengthAdjust="spacing" textLength="106.355" x="533.5151" y="1456.9106">to_string() const</text>
    </a>
    <polygon fill="#FEFFDD" points="2299,1474.9766,2309,1474.9766,2319,1485.9766,2309,1497.9766,2299,1497.9766,2289,1485.9766,2299,1474.9766" style="stroke:#181818;stroke-width:0.5;"/>
    <text fill="#000000" font-family="sans-serif" font-size="13" lengthAdjust="spacing" textLength="6.5" x="2301" y="1491.0435">*</text>
    <polygon fill="#181818" points="537.5151,1532.1094,527.5151,1536.1094,537.5151,1540.1094,533.5151,1536.1094" style="stroke:#181818;stroke-width:1.0;"/>
    <line style="stroke:#181818;stroke-width:1.0;stroke-dasharray:2.0,2.0;" x1="531.5151" x2="2303.4243" y1="1536.1094" y2="1536.1094"/>
    <line style="stroke:#000000;stroke-width:1.0;stroke-dasharray:2.0,2.0;" x1="20" x2="2800.0771" y1="1559.1094" y2="1559.1094"/>
    <text fill="#000000" font-family="sans-serif" font-size="11" font-weight="bold" lengthAdjust="spacing" textLength="277.1914" x="25" y="1569.3198">[const clanguml::error::uml_alias_missing &amp;]</text>
    <line style="stroke:#000000;stroke-width:1.0;stroke-dasharray:2.0,2.0;" x1="20" x2="2800.0771" y1="1573.9141" y2="1573.9141"/>
    <text fill="#000000" font-family="sans-serif" font-size="11" font-weight="bold" lengthAdjust="spacing" textLength="198.6392" x="25" y="1584.1245">[const inja::json::parse_error &amp;]</text>
    <line style="stroke:#000000;stroke-width:1.0;stroke-dasharray:2.0,2.0;" x1="20" x2="2800.0771" y1="1588.7188" y2="1588.7188"/>
    <text fill="#000000" font-family="sans-serif" font-size="11" font-weight="bold" lengthAdjust="spacing" textLength="187.9453" x="25" y="1598.9292">[const inja::json::exception &amp;]</text>
    <line style="stroke:#000000;stroke-width:1.0;stroke-dasharray:2.0,2.0;" x1="20" x2="2800.0771" y1="1603.5234" y2="1603.5234"/>
    <text fill="#000000" font-family="sans-serif" font-size="11" font-weight="bold" lengthAdjust="spacing" textLength="161.6055" x="25" y="1613.7339">[const std::regex_error &amp;]</text>
    <line style="stroke:#000000;stroke-width:1.0;stroke-dasharray:2.0,2.0;" x1="20" x2="2800.0771" y1="1618.3281" y2="1618.3281"/>
    <text fill="#000000" font-family="sans-serif" font-size="11" font-weight="bold" lengthAdjust="spacing" textLength="150.3262" x="25" y="1628.5386">[const std::exception &amp;]</text>
    <a href="" target="_top" title="" xlink:actuate="onRequest" xlink:href="" xlink:show="new" xlink:title="" xlink:type="simple">
      <line style="stroke:#181818;stroke-width:1.0;" x1="526.5151" x2="568.5151" y1="1667.2656" y2="1667.2656"/>
      <line style="stroke:#181818;stroke-width:1.0;" x1="568.5151" x2="568.5151" y1="1667.2656" y2="1680.2656"/>
      <line style="stroke:#181818;stroke-width:1.0;" x1="527.5151" x2="568.5151" y1="1680.2656" y2="1680.2656"/>
      <polygon fill="#181818" points="537.5151,1676.2656,527.5151,1680.2656,537.5151,1684.2656,533.5151,1680.2656" style="stroke:#181818;stroke-width:1.0;"/>
      <text fill="#000000" font-family="sans-serif" font-size="13" lengthAdjust="spacing" textLength="265.8843" x="533.5151" y="1662.1997">generate_diagram(std::ostream &amp;) const</text>
    </a>
    <path d="M409,1723.2656 L409,1763.2656 L623,1763.2656 L623,1733.2656 L613,1723.2656 L409,1723.2656 " fill="#FEFFDD" style="stroke:#181818;stroke-width:0.5;"/>
    <path d="M613,1723.2656 L613,1733.2656 L623,1733.2656 L613,1723.2656 " fill="#FEFFDD" style="stroke:#181818;stroke-width:0.5;"/>
    <text fill="#000000" font-family="sans-serif" font-size="13" lengthAdjust="spacing" textLength="193.2354" x="415" y="1740.3325">Generate PlantUML directives</text>
    <text fill="#000000" font-family="sans-serif" font-size="13" lengthAdjust="spacing" textLength="189.5537" x="415" y="1755.4653">after auto generated content</text>
    <a href="" target="_top" title="" xlink:actuate="onRequest" xlink:href="" xlink:show="new" xlink:title="" xlink:type="simple">
      <line style="stroke:#181818;stroke-width:1.0;" x1="521.5151" x2="568.5151" y1="1784.6641" y2="1784.6641"/>
      <line style="stroke:#181818;stroke-width:1.0;" x1="568.5151" x2="568.5151" y1="1784.6641" y2="1797.6641"/>
      <line style="stroke:#181818;stroke-width:1.0;" x1="527.5151" x2="568.5151" y1="1797.6641" y2="1797.6641"/>
      <polygon fill="#181818" points="537.5151,1793.6641,527.5151,1797.6641,537.5151,1801.6641,533.5151,1797.6641" style="stroke:#181818;stroke-width:1.0;"/>
      <text fill="#000000" font-family="sans-serif" font-size="13" lengthAdjust="spacing" textLength="555.3818" x="533.5151" y="1779.5981">generate_plantuml_directives(std::ostream &amp;,const std::vector&lt;std::string&gt; &amp;) const</text>
    </a>
    <polygon fill="#FEFFDD" points="511,1815.6641,521,1815.6641,531,1826.6641,521,1838.6641,511,1838.6641,501,1826.6641,511,1815.6641" style="stroke:#181818;stroke-width:0.5;"/>
    <text fill="#000000" font-family="sans-serif" font-size="13" lengthAdjust="spacing" textLength="6.5" x="513" y="1831.731">*</text>
    <a href="" target="_top" title="" xlink:actuate="onRequest" xlink:href="" xlink:show="new" xlink:title="" xlink:type="simple">
      <line style="stroke:#181818;stroke-width:1.0;" x1="521.5151" x2="568.5151" y1="1886.9297" y2="1886.9297"/>
      <line style="stroke:#181818;stroke-width:1.0;" x1="568.5151" x2="568.5151" y1="1886.9297" y2="1899.9297"/>
      <line style="stroke:#181818;stroke-width:1.0;" x1="527.5151" x2="568.5151" y1="1899.9297" y2="1899.9297"/>
      <polygon fill="#181818" points="537.5151,1895.9297,527.5151,1899.9297,537.5151,1903.9297,533.5151,1899.9297" style="stroke:#181818;stroke-width:1.0;"/>
      <text fill="#000000" font-family="sans-serif" font-size="13" lengthAdjust="spacing" textLength="274.8345" x="533.5151" y="1881.8638">generate_metadata(std::ostream &amp;) const</text>
    </a>
    <a href="" target="_top" title="" xlink:actuate="onRequest" xlink:href="" xlink:show="new" xlink:title="" xlink:type="simple">
      <polygon fill="#181818" points="1406.7695,1930.0625,1416.7695,1934.0625,1406.7695,1938.0625,1410.7695,1934.0625" style="stroke:#181818;stroke-width:1.0;"/>
      <line style="stroke:#181818;stroke-width:1.0;" x1="526.5151" x2="1412.7695" y1="1934.0625" y2="1934.0625"/>
      <text fill="#000000" font-family="sans-serif" font-size="13" lengthAdjust="spacing" textLength="89.2671" x="533.5151" y="1928.9966">config() const</text>
    </a>
    <polygon fill="#181818" points="527.5151,1944.0625,517.5151,1948.0625,527.5151,1952.0625,523.5151,1948.0625" style="stroke:#181818;stroke-width:1.0;"/>
    <line style="stroke:#181818;stroke-width:1.0;stroke-dasharray:2.0,2.0;" x1="521.5151" x2="1422.7695" y1="1948.0625" y2="1948.0625"/>
  </g>
</svg>
