<svg xmlns="http://www.w3.org/2000/svg" xmlns:xlink="http://www.w3.org/1999/xlink" contentScriptType="application/ecmascript" contentStyleType="text/css" height="321px" preserveAspectRatio="none" style="width:1401px;height:321px;" version="1.1" viewBox="0 0 1401 321" width="1401px" zoomAndPan="magnify">
  <defs>
    <filter height="300%" id="f8wmfafki97fs" width="300%" x="-1" y="-1">
      <feGaussianBlur result="blurOut" stdDeviation="2.0"/>
      <feColorMatrix in="blurOut" result="blurOut2" type="matrix" values="0 0 0 0 0 0 0 0 0 0 0 0 0 0 0 0 0 0 .4 0"/>
      <feOffset dx="4.0" dy="4.0" in="blurOut2" result="blurOut3"/>
      <feBlend in="SourceGraphic" in2="blurOut3" mode="normal"/>
    </filter>
    <style type="text/css">a:hover { text-decoration: underline; }</style>
  </defs>
  <g>
    <text fill="#000000" font-family="sans-serif" font-size="18" lengthAdjust="spacingAndGlyphs" textLength="215" x="595" y="16.708">Class diagram TU visitor</text>
    <a href="classclanguml_1_1common_1_1visitor_1_1template__builder.html" target="_top" title="template_builder" xlink:actuate="onRequest" xlink:href="classclanguml_1_1common_1_1visitor_1_1template__builder.html" xlink:show="new" xlink:title="template_builder" xlink:type="simple">
      <rect fill="#FEFECE" filter="url(#f8wmfafki97fs)" height="48" id="C_0000866100161189499797" style="stroke: #A80036; stroke-width: 1.5;" width="653" x="11.5" y="262.9531"/>
      <ellipse cx="26.5" cy="278.9531" fill="#ADD1B2" rx="11" ry="11" style="stroke: #A80036; stroke-width: 1.0;"/>
      <path d="M29.4688,284.5938 Q28.8906,284.8906 28.25,285.0313 Q27.6094,285.1875 26.9063,285.1875 Q24.4063,285.1875 23.0781,283.5469 Q21.7656,281.8906 21.7656,278.7656 Q21.7656,275.6406 23.0781,273.9844 Q24.4063,272.3281 26.9063,272.3281 Q27.6094,272.3281 28.25,272.4844 Q28.9063,272.6406 29.4688,272.9375 L29.4688,275.6563 Q28.8438,275.0781 28.25,274.8125 Q27.6563,274.5313 27.0313,274.5313 Q25.6875,274.5313 25,275.6094 Q24.3125,276.6719 24.3125,278.7656 Q24.3125,280.8594 25,281.9375 Q25.6875,283 27.0313,283 Q27.6563,283 28.25,282.7344 Q28.8438,282.4531 29.4688,281.875 L29.4688,284.5938 Z "/>
      <text fill="#000000" font-family="sans-serif" font-size="12" lengthAdjust="spacingAndGlyphs" textLength="275" x="40.5" y="283.1074">clanguml::common::visitor::template_builder</text>
      <rect fill="#FFFFFF" height="15.9688" style="stroke: #000000; stroke-width: 1.0; stroke-dasharray: 2.0,2.0;" width="344" x="323.5" y="259.9531"/>
      <text fill="#000000" font-family="sans-serif" font-size="12" font-style="italic" lengthAdjust="spacingAndGlyphs" textLength="342" x="324.5" y="272.0918">clanguml::class_diagram::visitor::translation_unit_visitor</text>
      <line style="stroke: #A80036; stroke-width: 1.5;" x1="12.5" x2="663.5" y1="294.9531" y2="294.9531"/>
      <line style="stroke: #A80036; stroke-width: 1.5;" x1="12.5" x2="663.5" y1="302.9531" y2="302.9531"/>
    </a>
    <a href="classclanguml_1_1common_1_1visitor_1_1translation__unit__visitor.html" target="_top" title="translation_unit_visitor" xlink:actuate="onRequest" xlink:href="classclanguml_1_1common_1_1visitor_1_1translation__unit__visitor.html" xlink:show="new" xlink:title="translation_unit_visitor" xlink:type="simple">
      <rect fill="#FEFECE" filter="url(#f8wmfafki97fs)" height="48" id="C_0000648079035916127485" style="stroke: #A80036; stroke-width: 1.5;" width="804" x="6" y="28.9531"/>
      <ellipse cx="21" cy="44.9531" fill="#ADD1B2" rx="11" ry="11" style="stroke: #A80036; stroke-width: 1.0;"/>
      <path d="M23.9688,50.5938 Q23.3906,50.8906 22.75,51.0313 Q22.1094,51.1875 21.4063,51.1875 Q18.9063,51.1875 17.5781,49.5469 Q16.2656,47.8906 16.2656,44.7656 Q16.2656,41.6406 17.5781,39.9844 Q18.9063,38.3281 21.4063,38.3281 Q22.1094,38.3281 22.75,38.4844 Q23.4063,38.6406 23.9688,38.9375 L23.9688,41.6563 Q23.3438,41.0781 22.75,40.8125 Q22.1563,40.5313 21.5313,40.5313 Q20.1875,40.5313 19.5,41.6094 Q18.8125,42.6719 18.8125,44.7656 Q18.8125,46.8594 19.5,47.9375 Q20.1875,49 21.5313,49 Q22.1563,49 22.75,48.7344 Q23.3438,48.4531 23.9688,47.875 L23.9688,50.5938 Z "/>
      <text fill="#000000" font-family="sans-serif" font-size="12" lengthAdjust="spacingAndGlyphs" textLength="311" x="35" y="49.1074">clanguml::common::visitor::translation_unit_visitor</text>
      <rect fill="#FFFFFF" height="15.9688" style="stroke: #000000; stroke-width: 1.0; stroke-dasharray: 2.0,2.0;" width="459" x="354" y="25.9531"/>
      <text fill="#000000" font-family="sans-serif" font-size="12" font-style="italic" lengthAdjust="spacingAndGlyphs" textLength="457" x="355" y="38.0918">clanguml::config::class_diagram,clanguml::class_diagram::model::diagram</text>
      <line style="stroke: #A80036; stroke-width: 1.5;" x1="7" x2="809" y1="60.9531" y2="60.9531"/>
      <line style="stroke: #A80036; stroke-width: 1.5;" x1="7" x2="809" y1="68.9531" y2="68.9531"/>
    </a>
    <a href="classclanguml_1_1class__diagram_1_1model_1_1class__.html" target="_top" title="Diagram element representing a class or class template." xlink:actuate="onRequest" xlink:href="classclanguml_1_1class__diagram_1_1model_1_1class__.html" xlink:show="new" xlink:title="Diagram element representing a class or class template." xlink:type="simple">
      <rect fill="#FEFECE" filter="url(#f8wmfafki97fs)" height="48" id="C_0001292034357466653182" style="stroke: #A80036; stroke-width: 1.5;" width="277" x="699.5" y="262.9531"/>
      <ellipse cx="714.5" cy="278.9531" fill="#ADD1B2" rx="11" ry="11" style="stroke: #A80036; stroke-width: 1.0;"/>
      <path d="M717.4688,284.5938 Q716.8906,284.8906 716.25,285.0313 Q715.6094,285.1875 714.9063,285.1875 Q712.4063,285.1875 711.0781,283.5469 Q709.7656,281.8906 709.7656,278.7656 Q709.7656,275.6406 711.0781,273.9844 Q712.4063,272.3281 714.9063,272.3281 Q715.6094,272.3281 716.25,272.4844 Q716.9063,272.6406 717.4688,272.9375 L717.4688,275.6563 Q716.8438,275.0781 716.25,274.8125 Q715.6563,274.5313 715.0313,274.5313 Q713.6875,274.5313 713,275.6094 Q712.3125,276.6719 712.3125,278.7656 Q712.3125,280.8594 713,281.9375 Q713.6875,283 715.0313,283 Q715.6563,283 716.25,282.7344 Q716.8438,282.4531 717.4688,281.875 L717.4688,284.5938 Z "/>
      <text fill="#000000" font-family="sans-serif" font-size="12" lengthAdjust="spacingAndGlyphs" textLength="245" x="728.5" y="283.1074">clanguml::class_diagram::model::class_</text>
      <line style="stroke: #A80036; stroke-width: 1.5;" x1="700.5" x2="975.5" y1="294.9531" y2="294.9531"/>
      <line style="stroke: #A80036; stroke-width: 1.5;" x1="700.5" x2="975.5" y1="302.9531" y2="302.9531"/>
    </a>
    <a href="classclanguml_1_1class__diagram_1_1visitor_1_1translation__unit__visitor.html" target="_top" title="Class diagram translation unit visitor" xlink:actuate="onRequest" xlink:href="classclanguml_1_1class__diagram_1_1visitor_1_1translation__unit__visitor.html" xlink:show="new" xlink:title="Class diagram translation unit visitor" xlink:type="simple">
      <rect fill="#FEFECE" filter="url(#f8wmfafki97fs)" height="48" id="C_0001741760762642742451" style="stroke: #A80036; stroke-width: 1.5;" width="379" x="398.5" y="137.9531"/>
      <ellipse cx="413.5" cy="153.9531" fill="#ADD1B2" rx="11" ry="11" style="stroke: #A80036; stroke-width: 1.0;"/>
      <path d="M416.4688,159.5938 Q415.8906,159.8906 415.25,160.0313 Q414.6094,160.1875 413.9063,160.1875 Q411.4063,160.1875 410.0781,158.5469 Q408.7656,156.8906 408.7656,153.7656 Q408.7656,150.6406 410.0781,148.9844 Q411.4063,147.3281 413.9063,147.3281 Q414.6094,147.3281 415.25,147.4844 Q415.9063,147.6406 416.4688,147.9375 L416.4688,150.6563 Q415.8438,150.0781 415.25,149.8125 Q414.6563,149.5313 414.0313,149.5313 Q412.6875,149.5313 412,150.6094 Q411.3125,151.6719 411.3125,153.7656 Q411.3125,155.8594 412,156.9375 Q412.6875,158 414.0313,158 Q414.6563,158 415.25,157.7344 Q415.8438,157.4531 416.4688,156.875 L416.4688,159.5938 Z "/>
      <text fill="#000000" font-family="sans-serif" font-size="12" lengthAdjust="spacingAndGlyphs" textLength="347" x="427.5" y="158.1074">clanguml::class_diagram::visitor::translation_unit_visitor</text>
      <line style="stroke: #A80036; stroke-width: 1.5;" x1="399.5" x2="776.5" y1="169.9531" y2="169.9531"/>
      <line style="stroke: #A80036; stroke-width: 1.5;" x1="399.5" x2="776.5" y1="177.9531" y2="177.9531"/>
    </a>
    <rect fill="#FEFECE" filter="url(#f8wmfafki97fs)" height="48" id="C_0001982905009074370050" style="stroke: #A80036; stroke-width: 1.5;" width="247" x="992.5" y="137.9531"/>
    <ellipse cx="1007.5" cy="153.9531" fill="#ADD1B2" rx="11" ry="11" style="stroke: #A80036; stroke-width: 1.0;"/>
    <path d="M1010.4688,159.5938 Q1009.8906,159.8906 1009.25,160.0313 Q1008.6094,160.1875 1007.9063,160.1875 Q1005.4063,160.1875 1004.0781,158.5469 Q1002.7656,156.8906 1002.7656,153.7656 Q1002.7656,150.6406 1004.0781,148.9844 Q1005.4063,147.3281 1007.9063,147.3281 Q1008.6094,147.3281 1009.25,147.4844 Q1009.9063,147.6406 1010.4688,147.9375 L1010.4688,150.6563 Q1009.8438,150.0781 1009.25,149.8125 Q1008.6563,149.5313 1008.0313,149.5313 Q1006.6875,149.5313 1006,150.6094 Q1005.3125,151.6719 1005.3125,153.7656 Q1005.3125,155.8594 1006,156.9375 Q1006.6875,158 1008.0313,158 Q1008.6563,158 1009.25,157.7344 Q1009.8438,157.4531 1010.4688,156.875 L1010.4688,159.5938 Z "/>
    <text fill="#000000" font-family="sans-serif" font-size="12" lengthAdjust="spacingAndGlyphs" textLength="164" x="1021.5" y="158.1074">clang::RecursiveASTVisitor</text>
    <rect fill="#FFFFFF" height="15.9688" style="stroke: #000000; stroke-width: 1.0; stroke-dasharray: 2.0,2.0;" width="49" x="1193.5" y="134.9531"/>
    <text fill="#000000" font-family="sans-serif" font-size="12" font-style="italic" lengthAdjust="spacingAndGlyphs" textLength="47" x="1194.5" y="147.0918">Derived</text>
    <line style="stroke: #A80036; stroke-width: 1.5;" x1="993.5" x2="1238.5" y1="169.9531" y2="169.9531"/>
    <line style="stroke: #A80036; stroke-width: 1.5;" x1="993.5" x2="1238.5" y1="177.9531" y2="177.9531"/>
    <a href="classclang_1_1RecursiveASTVisitor.html" target="_top" title="RecursiveASTVisitor" xlink:actuate="onRequest" xlink:href="classclang_1_1RecursiveASTVisitor.html" xlink:show="new" xlink:title="RecursiveASTVisitor" xlink:type="simple">
      <rect fill="#FEFECE" filter="url(#f8wmfafki97fs)" height="48" id="C_0001408156728424859369" style="stroke: #A80036; stroke-width: 1.5;" width="542" x="845" y="28.9531"/>
      <ellipse cx="860" cy="44.9531" fill="#ADD1B2" rx="11" ry="11" style="stroke: #A80036; stroke-width: 1.0;"/>
      <path d="M862.9688,50.5938 Q862.3906,50.8906 861.75,51.0313 Q861.1094,51.1875 860.4063,51.1875 Q857.9063,51.1875 856.5781,49.5469 Q855.2656,47.8906 855.2656,44.7656 Q855.2656,41.6406 856.5781,39.9844 Q857.9063,38.3281 860.4063,38.3281 Q861.1094,38.3281 861.75,38.4844 Q862.4063,38.6406 862.9688,38.9375 L862.9688,41.6563 Q862.3438,41.0781 861.75,40.8125 Q861.1563,40.5313 860.5313,40.5313 Q859.1875,40.5313 858.5,41.6094 Q857.8125,42.6719 857.8125,44.7656 Q857.8125,46.8594 858.5,47.9375 Q859.1875,49 860.5313,49 Q861.1563,49 861.75,48.7344 Q862.3438,48.4531 862.9688,47.875 L862.9688,50.5938 Z "/>
      <text fill="#000000" font-family="sans-serif" font-size="12" lengthAdjust="spacingAndGlyphs" textLength="164" x="874" y="49.1074">clang::RecursiveASTVisitor</text>
      <rect fill="#FFFFFF" height="15.9688" style="stroke: #000000; stroke-width: 1.0; stroke-dasharray: 2.0,2.0;" width="344" x="1046" y="25.9531"/>
      <text fill="#000000" font-family="sans-serif" font-size="12" font-style="italic" lengthAdjust="spacingAndGlyphs" textLength="342" x="1047" y="38.0918">clanguml::class_diagram::visitor::translation_unit_visitor</text>
      <line style="stroke: #A80036; stroke-width: 1.5;" x1="846" x2="1386" y1="60.9531" y2="60.9531"/>
      <line style="stroke: #A80036; stroke-width: 1.5;" x1="846" x2="1386" y1="68.9531" y2="68.9531"/>
    </a>
    <path d="M529.27,191.8431 C485.21,213.5231 425.69,242.8131 384.81,262.9231 " fill="none" id="C_0001741760762642742451&lt;-C_0000866100161189499797" style="stroke: #A80036; stroke-width: 1.0;"/>
    <polygon fill="#FFFFFF" points="540.98,186.0931,533.8304,185.153,530.2128,191.391,537.3624,192.3311,540.98,186.0931" style="stroke: #A80036; stroke-width: 1.0;"/>
    <rect fill="none" height="6" style="stroke: #C82930; stroke-width: 1.0;" width="6" x="481" y="222.0195"/>
    <text fill="#000000" font-family="sans-serif" font-size="13" lengthAdjust="spacingAndGlyphs" textLength="115" x="491" y="229.02">template_builder_</text>
    <path d="M646.73,191.8431 C690.79,213.5231 750.31,242.8131 791.19,262.9231 " fill="none" id="C_0001741760762642742451&lt;-C_0001292034357466653182" style="stroke: #A80036; stroke-width: 1.0;"/>
    <polygon fill="#FFFFFF" points="635.02,186.0931,638.6376,192.3311,645.7872,191.391,642.1696,185.153,635.02,186.0931" style="stroke: #A80036; stroke-width: 1.0;"/>
    <rect fill="none" height="6" style="stroke: #C82930; stroke-width: 1.0;" width="6" x="731" y="222.0195"/>
    <text fill="#000000" font-family="sans-serif" font-size="13" lengthAdjust="spacingAndGlyphs" textLength="139" x="741" y="229.02">forward_declarations_</text>
    <path d="M982.65,80.9731 C896.02,98.5331 784.3,121.1731 701.85,137.8831 " fill="none" id="C_0001408156728424859369&lt;-C_0001741760762642742451" style="stroke: #A80036; stroke-width: 1.0;"/>
    <polygon fill="none" points="981.41,74.0831,1002.41,76.9731,984.2,87.8031,981.41,74.0831" style="stroke: #A80036; stroke-width: 1.0;"/>
    <path d="M464.3,87.4231 C491.83,103.7831 524.27,123.0631 549.02,137.7831 " fill="none" id="C_0000648079035916127485&lt;-C_0001741760762642742451" style="stroke: #A80036; stroke-width: 1.0;"/>
    <polygon fill="none" points="460.67,93.4031,447.06,77.1731,467.83,81.3731,460.67,93.4031" style="stroke: #A80036; stroke-width: 1.0;"/>
    <path d="M1116,77.1731 C1116,88.9531 1116,103.6431 1116,117.4331 " fill="none" id="C_0001408156728424859369-&gt;C_0001982905009074370050" style="stroke: #A80036; stroke-width: 1.0; stroke-dasharray: 7.0,7.0;"/>
    <polygon fill="none" points="1123,117.7831,1116,137.7831,1109,117.7831,1123,117.7831" style="stroke: #A80036; stroke-width: 1.0;"/>
  </g>
</svg>
