<svg xmlns="http://www.w3.org/2000/svg" xmlns:xlink="http://www.w3.org/1999/xlink" contentScriptType="application/ecmascript" contentStyleType="text/css" height="652px" preserveAspectRatio="none" style="width:1881px;height:652px;" version="1.1" viewBox="0 0 1881 652" width="1881px" zoomAndPan="magnify">
  <defs>
    <filter height="300%" id="fsuucv0hhtqyn" width="300%" x="-1" y="-1">
      <feGaussianBlur result="blurOut" stdDeviation="2.0"/>
      <feColorMatrix in="blurOut" result="blurOut2" type="matrix" values="0 0 0 0 0 0 0 0 0 0 0 0 0 0 0 0 0 0 .4 0"/>
      <feOffset dx="4.0" dy="4.0" in="blurOut2" result="blurOut3"/>
      <feBlend in="SourceGraphic" in2="blurOut3" mode="normal"/>
    </filter>
    <style type="text/css">a:hover { text-decoration: underline; }</style>
  </defs>
  <g>
    <text fill="#000000" font-family="sans-serif" font-size="18" lengthAdjust="spacingAndGlyphs" textLength="215" x="839" y="16.708">Class diagram TU visitor</text>
    <polygon fill="#FFFFFF" filter="url(#fsuucv0hhtqyn)" points="22,44.9531,98,44.9531,105,67.25,1303,67.25,1303,640.9531,22,640.9531,22,44.9531" style="stroke: #000000; stroke-width: 1.5;"/>
    <line style="stroke: #000000; stroke-width: 1.5;" x1="22" x2="105" y1="67.25" y2="67.25"/>
    <text fill="#000000" font-family="sans-serif" font-size="14" font-weight="bold" lengthAdjust="spacingAndGlyphs" textLength="70" x="26" y="59.9482">clanguml</text>
    <polygon fill="#FFFFFF" filter="url(#fsuucv0hhtqyn)" points="46,87.9531,119,87.9531,126,110.25,1279,110.25,1279,253.9531,46,253.9531,46,87.9531" style="stroke: #000000; stroke-width: 1.5;"/>
    <line style="stroke: #000000; stroke-width: 1.5;" x1="46" x2="126" y1="110.25" y2="110.25"/>
    <text fill="#000000" font-family="sans-serif" font-size="14" font-weight="bold" lengthAdjust="spacingAndGlyphs" textLength="67" x="50" y="102.9482">common</text>
    <polygon fill="#FFFFFF" filter="url(#fsuucv0hhtqyn)" points="70,130.9531,125,130.9531,132,153.25,1255,153.25,1255,229.9531,70,229.9531,70,130.9531" style="stroke: #000000; stroke-width: 1.5;"/>
    <line style="stroke: #000000; stroke-width: 1.5;" x1="70" x2="132" y1="153.25" y2="153.25"/>
    <text fill="#000000" font-family="sans-serif" font-size="14" font-weight="bold" lengthAdjust="spacingAndGlyphs" textLength="49" x="74" y="145.9482">visitor</text>
    <polygon fill="#FFFFFF" filter="url(#fsuucv0hhtqyn)" points="870,302.9531,986,302.9531,993,325.25,1124,325.25,1124,616.9531,870,616.9531,870,302.9531" style="stroke: #000000; stroke-width: 1.5;"/>
    <line style="stroke: #000000; stroke-width: 1.5;" x1="870" x2="993" y1="325.25" y2="325.25"/>
    <text fill="#000000" font-family="sans-serif" font-size="14" font-weight="bold" lengthAdjust="spacingAndGlyphs" textLength="110" x="874" y="317.9482">class_diagram</text>
    <polygon fill="#FFFFFF" filter="url(#fsuucv0hhtqyn)" points="904,493.9531,958,493.9531,965,516.25,1006,516.25,1006,592.9531,904,592.9531,904,493.9531" style="stroke: #000000; stroke-width: 1.5;"/>
    <line style="stroke: #000000; stroke-width: 1.5;" x1="904" x2="965" y1="516.25" y2="516.25"/>
    <text fill="#000000" font-family="sans-serif" font-size="14" font-weight="bold" lengthAdjust="spacingAndGlyphs" textLength="48" x="908" y="508.9482">model</text>
    <polygon fill="#FFFFFF" filter="url(#fsuucv0hhtqyn)" points="894,345.9531,949,345.9531,956,368.25,1100,368.25,1100,444.9531,894,444.9531,894,345.9531" style="stroke: #000000; stroke-width: 1.5;"/>
    <line style="stroke: #000000; stroke-width: 1.5;" x1="894" x2="956" y1="368.25" y2="368.25"/>
    <text fill="#000000" font-family="sans-serif" font-size="14" font-weight="bold" lengthAdjust="spacingAndGlyphs" textLength="49" x="898" y="360.9482">visitor</text>
    <polygon fill="#FFFFFF" filter="url(#fsuucv0hhtqyn)" points="1327,130.9531,1375,130.9531,1382,153.25,1859,153.25,1859,444.9531,1327,444.9531,1327,130.9531" style="stroke: #000000; stroke-width: 1.5;"/>
    <line style="stroke: #000000; stroke-width: 1.5;" x1="1327" x2="1382" y1="153.25" y2="153.25"/>
    <text fill="#000000" font-family="sans-serif" font-size="14" font-weight="bold" lengthAdjust="spacingAndGlyphs" textLength="42" x="1331" y="145.9482">clang</text>
    <a href="classclanguml_1_1common_1_1visitor_1_1template__builder.html" target="_top" title="template_builder" xlink:actuate="onRequest" xlink:href="classclanguml_1_1common_1_1visitor_1_1template__builder.html" xlink:show="new" xlink:title="template_builder" xlink:type="simple">
      <rect fill="#FEFECE" filter="url(#fsuucv0hhtqyn)" height="48" id="C_0000866100161189499797" style="stroke: #A80036; stroke-width: 1.5;" width="483" x="755.5" y="165.9531"/>
      <ellipse cx="770.5" cy="181.9531" fill="#ADD1B2" rx="11" ry="11" style="stroke: #A80036; stroke-width: 1.0;"/>
      <path d="M773.4688,187.5938 Q772.8906,187.8906 772.25,188.0313 Q771.6094,188.1875 770.9063,188.1875 Q768.4063,188.1875 767.0781,186.5469 Q765.7656,184.8906 765.7656,181.7656 Q765.7656,178.6406 767.0781,176.9844 Q768.4063,175.3281 770.9063,175.3281 Q771.6094,175.3281 772.25,175.4844 Q772.9063,175.6406 773.4688,175.9375 L773.4688,178.6563 Q772.8438,178.0781 772.25,177.8125 Q771.6563,177.5313 771.0313,177.5313 Q769.6875,177.5313 769,178.6094 Q768.3125,179.6719 768.3125,181.7656 Q768.3125,183.8594 769,184.9375 Q769.6875,186 771.0313,186 Q771.6563,186 772.25,185.7344 Q772.8438,185.4531 773.4688,184.875 L773.4688,187.5938 Z "/>
      <text fill="#000000" font-family="sans-serif" font-size="12" lengthAdjust="spacingAndGlyphs" textLength="105" x="784.5" y="186.1074">template_builder</text>
      <rect fill="#FFFFFF" height="15.9688" style="stroke: #000000; stroke-width: 1.0; stroke-dasharray: 2.0,2.0;" width="344" x="897.5" y="162.9531"/>
      <text fill="#000000" font-family="sans-serif" font-size="12" font-style="italic" lengthAdjust="spacingAndGlyphs" textLength="342" x="898.5" y="175.0918">clanguml::class_diagram::visitor::translation_unit_visitor</text>
      <line style="stroke: #A80036; stroke-width: 1.5;" x1="756.5" x2="1237.5" y1="197.9531" y2="197.9531"/>
      <line style="stroke: #A80036; stroke-width: 1.5;" x1="756.5" x2="1237.5" y1="205.9531" y2="205.9531"/>
    </a>
    <a href="classclanguml_1_1common_1_1visitor_1_1translation__unit__visitor.html" target="_top" title="translation_unit_visitor" xlink:actuate="onRequest" xlink:href="classclanguml_1_1common_1_1visitor_1_1translation__unit__visitor.html" xlink:show="new" xlink:title="translation_unit_visitor" xlink:type="simple">
      <rect fill="#FEFECE" filter="url(#fsuucv0hhtqyn)" height="48" id="C_0000648079035916127485" style="stroke: #A80036; stroke-width: 1.5;" width="634" x="86" y="165.9531"/>
      <ellipse cx="101" cy="181.9531" fill="#ADD1B2" rx="11" ry="11" style="stroke: #A80036; stroke-width: 1.0;"/>
      <path d="M103.9688,187.5938 Q103.3906,187.8906 102.75,188.0313 Q102.1094,188.1875 101.4063,188.1875 Q98.9063,188.1875 97.5781,186.5469 Q96.2656,184.8906 96.2656,181.7656 Q96.2656,178.6406 97.5781,176.9844 Q98.9063,175.3281 101.4063,175.3281 Q102.1094,175.3281 102.75,175.4844 Q103.4063,175.6406 103.9688,175.9375 L103.9688,178.6563 Q103.3438,178.0781 102.75,177.8125 Q102.1563,177.5313 101.5313,177.5313 Q100.1875,177.5313 99.5,178.6094 Q98.8125,179.6719 98.8125,181.7656 Q98.8125,183.8594 99.5,184.9375 Q100.1875,186 101.5313,186 Q102.1563,186 102.75,185.7344 Q103.3438,185.4531 103.9688,184.875 L103.9688,187.5938 Z "/>
      <text fill="#000000" font-family="sans-serif" font-size="12" lengthAdjust="spacingAndGlyphs" textLength="141" x="115" y="186.1074">translation_unit_visitor</text>
      <rect fill="#FFFFFF" height="15.9688" style="stroke: #000000; stroke-width: 1.0; stroke-dasharray: 2.0,2.0;" width="459" x="264" y="162.9531"/>
      <text fill="#000000" font-family="sans-serif" font-size="12" font-style="italic" lengthAdjust="spacingAndGlyphs" textLength="457" x="265" y="175.0918">clanguml::config::class_diagram,clanguml::class_diagram::model::diagram</text>
      <line style="stroke: #A80036; stroke-width: 1.5;" x1="87" x2="719" y1="197.9531" y2="197.9531"/>
      <line style="stroke: #A80036; stroke-width: 1.5;" x1="87" x2="719" y1="205.9531" y2="205.9531"/>
    </a>
    <a href="classclanguml_1_1class__diagram_1_1model_1_1class__.html" target="_top" title="Diagram element representing a class or class template." xlink:actuate="onRequest" xlink:href="classclanguml_1_1class__diagram_1_1model_1_1class__.html" xlink:show="new" xlink:title="Diagram element representing a class or class template." xlink:type="simple">
      <rect fill="#FEFECE" filter="url(#fsuucv0hhtqyn)" height="48" id="C_0001292034357466653182" style="stroke: #A80036; stroke-width: 1.5;" width="70" x="920" y="528.9531"/>
      <ellipse cx="935" cy="544.9531" fill="#ADD1B2" rx="11" ry="11" style="stroke: #A80036; stroke-width: 1.0;"/>
      <path d="M937.9688,550.5938 Q937.3906,550.8906 936.75,551.0313 Q936.1094,551.1875 935.4063,551.1875 Q932.9063,551.1875 931.5781,549.5469 Q930.2656,547.8906 930.2656,544.7656 Q930.2656,541.6406 931.5781,539.9844 Q932.9063,538.3281 935.4063,538.3281 Q936.1094,538.3281 936.75,538.4844 Q937.4063,538.6406 937.9688,538.9375 L937.9688,541.6563 Q937.3438,541.0781 936.75,540.8125 Q936.1563,540.5313 935.5313,540.5313 Q934.1875,540.5313 933.5,541.6094 Q932.8125,542.6719 932.8125,544.7656 Q932.8125,546.8594 933.5,547.9375 Q934.1875,549 935.5313,549 Q936.1563,549 936.75,548.7344 Q937.3438,548.4531 937.9688,547.875 L937.9688,550.5938 Z "/>
      <text fill="#000000" font-family="sans-serif" font-size="12" lengthAdjust="spacingAndGlyphs" textLength="38" x="949" y="549.1074">class_</text>
      <line style="stroke: #A80036; stroke-width: 1.5;" x1="921" x2="989" y1="560.9531" y2="560.9531"/>
      <line style="stroke: #A80036; stroke-width: 1.5;" x1="921" x2="989" y1="568.9531" y2="568.9531"/>
    </a>
    <a href="classclanguml_1_1class__diagram_1_1visitor_1_1translation__unit__visitor.html" target="_top" title="Class diagram translation unit visitor" xlink:actuate="onRequest" xlink:href="classclanguml_1_1class__diagram_1_1visitor_1_1translation__unit__visitor.html" xlink:show="new" xlink:title="Class diagram translation unit visitor" xlink:type="simple">
      <rect fill="#FEFECE" filter="url(#fsuucv0hhtqyn)" height="48" id="C_0001741760762642742451" style="stroke: #A80036; stroke-width: 1.5;" width="173" x="910.5" y="380.9531"/>
      <ellipse cx="925.5" cy="396.9531" fill="#ADD1B2" rx="11" ry="11" style="stroke: #A80036; stroke-width: 1.0;"/>
      <path d="M928.4688,402.5938 Q927.8906,402.8906 927.25,403.0313 Q926.6094,403.1875 925.9063,403.1875 Q923.4063,403.1875 922.0781,401.5469 Q920.7656,399.8906 920.7656,396.7656 Q920.7656,393.6406 922.0781,391.9844 Q923.4063,390.3281 925.9063,390.3281 Q926.6094,390.3281 927.25,390.4844 Q927.9063,390.6406 928.4688,390.9375 L928.4688,393.6563 Q927.8438,393.0781 927.25,392.8125 Q926.6563,392.5313 926.0313,392.5313 Q924.6875,392.5313 924,393.6094 Q923.3125,394.6719 923.3125,396.7656 Q923.3125,398.8594 924,399.9375 Q924.6875,401 926.0313,401 Q926.6563,401 927.25,400.7344 Q927.8438,400.4531 928.4688,399.875 L928.4688,402.5938 Z "/>
      <text fill="#000000" font-family="sans-serif" font-size="12" lengthAdjust="spacingAndGlyphs" textLength="141" x="939.5" y="401.1074">translation_unit_visitor</text>
      <line style="stroke: #A80036; stroke-width: 1.5;" x1="911.5" x2="1082.5" y1="412.9531" y2="412.9531"/>
      <line style="stroke: #A80036; stroke-width: 1.5;" x1="911.5" x2="1082.5" y1="420.9531" y2="420.9531"/>
    </a>
    <rect fill="#FEFECE" filter="url(#fsuucv0hhtqyn)" height="48" id="C_0001982905009074370050" style="stroke: #A80036; stroke-width: 1.5;" width="205" x="1490.5" y="380.9531"/>
    <ellipse cx="1505.5" cy="396.9531" fill="#ADD1B2" rx="11" ry="11" style="stroke: #A80036; stroke-width: 1.0;"/>
    <path d="M1508.4688,402.5938 Q1507.8906,402.8906 1507.25,403.0313 Q1506.6094,403.1875 1505.9063,403.1875 Q1503.4063,403.1875 1502.0781,401.5469 Q1500.7656,399.8906 1500.7656,396.7656 Q1500.7656,393.6406 1502.0781,391.9844 Q1503.4063,390.3281 1505.9063,390.3281 Q1506.6094,390.3281 1507.25,390.4844 Q1507.9063,390.6406 1508.4688,390.9375 L1508.4688,393.6563 Q1507.8438,393.0781 1507.25,392.8125 Q1506.6563,392.5313 1506.0313,392.5313 Q1504.6875,392.5313 1504,393.6094 Q1503.3125,394.6719 1503.3125,396.7656 Q1503.3125,398.8594 1504,399.9375 Q1504.6875,401 1506.0313,401 Q1506.6563,401 1507.25,400.7344 Q1507.8438,400.4531 1508.4688,399.875 L1508.4688,402.5938 Z "/>
    <text fill="#000000" font-family="sans-serif" font-size="12" lengthAdjust="spacingAndGlyphs" textLength="122" x="1519.5" y="401.1074">RecursiveASTVisitor</text>
    <rect fill="#FFFFFF" height="15.9688" style="stroke: #000000; stroke-width: 1.0; stroke-dasharray: 2.0,2.0;" width="49" x="1649.5" y="377.9531"/>
    <text fill="#000000" font-family="sans-serif" font-size="12" font-style="italic" lengthAdjust="spacingAndGlyphs" textLength="47" x="1650.5" y="390.0918">Derived</text>
    <line style="stroke: #A80036; stroke-width: 1.5;" x1="1491.5" x2="1694.5" y1="412.9531" y2="412.9531"/>
    <line style="stroke: #A80036; stroke-width: 1.5;" x1="1491.5" x2="1694.5" y1="420.9531" y2="420.9531"/>
    <a href="classclang_1_1RecursiveASTVisitor.html" target="_top" title="RecursiveASTVisitor" xlink:actuate="onRequest" xlink:href="classclang_1_1RecursiveASTVisitor.html" xlink:show="new" xlink:title="RecursiveASTVisitor" xlink:type="simple">
      <rect fill="#FEFECE" filter="url(#fsuucv0hhtqyn)" height="48" id="C_0001408156728424859369" style="stroke: #A80036; stroke-width: 1.5;" width="500" x="1343" y="165.9531"/>
      <ellipse cx="1358" cy="181.9531" fill="#ADD1B2" rx="11" ry="11" style="stroke: #A80036; stroke-width: 1.0;"/>
      <path d="M1360.9688,187.5938 Q1360.3906,187.8906 1359.75,188.0313 Q1359.1094,188.1875 1358.4063,188.1875 Q1355.9063,188.1875 1354.5781,186.5469 Q1353.2656,184.8906 1353.2656,181.7656 Q1353.2656,178.6406 1354.5781,176.9844 Q1355.9063,175.3281 1358.4063,175.3281 Q1359.1094,175.3281 1359.75,175.4844 Q1360.4063,175.6406 1360.9688,175.9375 L1360.9688,178.6563 Q1360.3438,178.0781 1359.75,177.8125 Q1359.1563,177.5313 1358.5313,177.5313 Q1357.1875,177.5313 1356.5,178.6094 Q1355.8125,179.6719 1355.8125,181.7656 Q1355.8125,183.8594 1356.5,184.9375 Q1357.1875,186 1358.5313,186 Q1359.1563,186 1359.75,185.7344 Q1360.3438,185.4531 1360.9688,184.875 L1360.9688,187.5938 Z "/>
      <text fill="#000000" font-family="sans-serif" font-size="12" lengthAdjust="spacingAndGlyphs" textLength="122" x="1372" y="186.1074">RecursiveASTVisitor</text>
      <rect fill="#FFFFFF" height="15.9688" style="stroke: #000000; stroke-width: 1.0; stroke-dasharray: 2.0,2.0;" width="344" x="1502" y="162.9531"/>
      <text fill="#000000" font-family="sans-serif" font-size="12" font-style="italic" lengthAdjust="spacingAndGlyphs" textLength="342" x="1503" y="175.0918">clanguml::class_diagram::visitor::translation_unit_visitor</text>
      <line style="stroke: #A80036; stroke-width: 1.5;" x1="1344" x2="1842" y1="197.9531" y2="197.9531"/>
      <line style="stroke: #A80036; stroke-width: 1.5;" x1="1344" x2="1842" y1="205.9531" y2="205.9531"/>
    </a>
    <path d="M997,367.6131 C997,323.7031 997,251.1231 997,214.1531 " fill="none" id="C_0001741760762642742451&lt;-C_0000866100161189499797" style="stroke: #A80036; stroke-width: 1.0;"/>
    <polygon fill="#FFFFFF" points="997,380.7831,1001,374.7831,997,368.7831,993,374.7831,997,380.7831" style="stroke: #A80036; stroke-width: 1.0;"/>
    <rect fill="none" height="6" style="stroke: #C82930; stroke-width: 1.0;" width="6" x="1000" y="276.0195"/>
    <text fill="#000000" font-family="sans-serif" font-size="13" lengthAdjust="spacingAndGlyphs" textLength="115" x="1010" y="283.02">template_builder_</text>
    <path d="M986.75,441.5831 C978.92,468.7831 968.37,505.4731 961.62,528.9231 " fill="none" id="C_0001741760762642742451&lt;-C_0001292034357466653182" style="stroke: #A80036; stroke-width: 1.0;"/>
    <polygon fill="#FFFFFF" points="990.34,429.0831,984.8343,433.7401,987.0155,440.6134,992.5212,435.9564,990.34,429.0831" style="stroke: #A80036; stroke-width: 1.0;"/>
    <rect fill="none" height="6" style="stroke: #C82930; stroke-width: 1.0;" width="6" x="983" y="467.0195"/>
    <text fill="#000000" font-family="sans-serif" font-size="13" lengthAdjust="spacingAndGlyphs" textLength="139" x="993" y="474.02">forward_declarations_</text>
    <path d="M1509.24,220.8931 C1388.98,263.8631 1169.96,342.1431 1061.46,380.9131 " fill="none" id="C_0001408156728424859369&lt;-C_0001741760762642742451" style="stroke: #A80036; stroke-width: 1.0;"/>
    <polygon fill="none" points="1507.18,214.1931,1528.37,214.0531,1511.89,227.3731,1507.18,214.1931" style="stroke: #A80036; stroke-width: 1.0;"/>
    <path d="M486.48,220.8931 C606.34,263.8631 824.62,342.1431 932.76,380.9131 " fill="none" id="C_0000648079035916127485&lt;-C_0001741760762642742451" style="stroke: #A80036; stroke-width: 1.0;"/>
    <polygon fill="none" points="483.88,227.3931,467.42,214.0531,488.6,214.2131,483.88,227.3931" style="stroke: #A80036; stroke-width: 1.0;"/>
    <path d="M1593,214.1531 C1593,249.2031 1593,316.2631 1593,360.5431 " fill="none" id="C_0001408156728424859369-&gt;C_0001982905009074370050" style="stroke: #A80036; stroke-width: 1.0; stroke-dasharray: 7.0,7.0;"/>
    <polygon fill="none" points="1600,360.7831,1593,380.7831,1586,360.7831,1600,360.7831" style="stroke: #A80036; stroke-width: 1.0;"/>
  </g>
</svg>
