<svg xmlns="http://www.w3.org/2000/svg" xmlns:xlink="http://www.w3.org/1999/xlink" contentScriptType="application/ecmascript" contentStyleType="text/css" height="610px" preserveAspectRatio="none" style="width:2232px;height:610px;" version="1.1" viewBox="0 0 2232 610" width="2232px" zoomAndPan="magnify">
  <defs>
    <filter height="300%" id="fh1mt9u1ulhak" width="300%" x="-1" y="-1">
      <feGaussianBlur result="blurOut" stdDeviation="2.0"/>
      <feColorMatrix in="blurOut" result="blurOut2" type="matrix" values="0 0 0 0 0 0 0 0 0 0 0 0 0 0 0 0 0 0 .4 0"/>
      <feOffset dx="4.0" dy="4.0" in="blurOut2" result="blurOut3"/>
      <feBlend in="SourceGraphic" in2="blurOut3" mode="normal"/>
    </filter>
    <style type="text/css">a:hover { text-decoration: underline; }</style>
  </defs>
  <g>
    <text fill="#000000" font-family="sans-serif" font-size="18" lengthAdjust="spacingAndGlyphs" textLength="215" x="1014.5" y="16.708">Class diagram TU visitor</text>
    <polygon fill="#FFFFFF" filter="url(#fh1mt9u1ulhak)" points="578,174.9531,654,174.9531,661,197.25,2210,197.25,2210,598.9531,578,598.9531,578,174.9531" style="stroke: #000000; stroke-width: 1.5;"/>
    <line style="stroke: #000000; stroke-width: 1.5;" x1="578" x2="661" y1="197.25" y2="197.25"/>
    <text fill="#000000" font-family="sans-serif" font-size="14" font-weight="bold" lengthAdjust="spacingAndGlyphs" textLength="70" x="582" y="189.9482">clanguml</text>
    <polygon fill="#FFFFFF" filter="url(#fh1mt9u1ulhak)" points="880,408.9531,953,408.9531,960,431.25,2186,431.25,2186,574.9531,880,574.9531,880,408.9531" style="stroke: #000000; stroke-width: 1.5;"/>
    <line style="stroke: #000000; stroke-width: 1.5;" x1="880" x2="960" y1="431.25" y2="431.25"/>
    <text fill="#000000" font-family="sans-serif" font-size="14" font-weight="bold" lengthAdjust="spacingAndGlyphs" textLength="67" x="884" y="423.9482">common</text>
    <polygon fill="#FFFFFF" filter="url(#fh1mt9u1ulhak)" points="977,451.9531,1032,451.9531,1039,474.25,2162,474.25,2162,550.9531,977,550.9531,977,451.9531" style="stroke: #000000; stroke-width: 1.5;"/>
    <line style="stroke: #000000; stroke-width: 1.5;" x1="977" x2="1039" y1="474.25" y2="474.25"/>
    <text fill="#000000" font-family="sans-serif" font-size="14" font-weight="bold" lengthAdjust="spacingAndGlyphs" textLength="49" x="981" y="466.9482">visitor</text>
    <polygon fill="#FFFFFF" filter="url(#fh1mt9u1ulhak)" points="602,217.9531,718,217.9531,725,240.25,856,240.25,856,574.9531,602,574.9531,602,217.9531" style="stroke: #000000; stroke-width: 1.5;"/>
    <line style="stroke: #000000; stroke-width: 1.5;" x1="602" x2="725" y1="240.25" y2="240.25"/>
    <text fill="#000000" font-family="sans-serif" font-size="14" font-weight="bold" lengthAdjust="spacingAndGlyphs" textLength="110" x="606" y="232.9482">class_diagram</text>
    <polygon fill="#FFFFFF" filter="url(#fh1mt9u1ulhak)" points="636,451.9531,690,451.9531,697,474.25,738,474.25,738,550.9531,636,550.9531,636,451.9531" style="stroke: #000000; stroke-width: 1.5;"/>
    <line style="stroke: #000000; stroke-width: 1.5;" x1="636" x2="697" y1="474.25" y2="474.25"/>
    <text fill="#000000" font-family="sans-serif" font-size="14" font-weight="bold" lengthAdjust="spacingAndGlyphs" textLength="48" x="640" y="466.9482">model</text>
    <polygon fill="#FFFFFF" filter="url(#fh1mt9u1ulhak)" points="626,260.9531,681,260.9531,688,283.25,832,283.25,832,359.9531,626,359.9531,626,260.9531" style="stroke: #000000; stroke-width: 1.5;"/>
    <line style="stroke: #000000; stroke-width: 1.5;" x1="626" x2="688" y1="283.25" y2="283.25"/>
    <text fill="#000000" font-family="sans-serif" font-size="14" font-weight="bold" lengthAdjust="spacingAndGlyphs" textLength="49" x="630" y="275.9482">visitor</text>
    <polygon fill="#FFFFFF" filter="url(#fh1mt9u1ulhak)" points="22,44.9531,70,44.9531,77,67.25,554,67.25,554,359.9531,22,359.9531,22,44.9531" style="stroke: #000000; stroke-width: 1.5;"/>
    <line style="stroke: #000000; stroke-width: 1.5;" x1="22" x2="77" y1="67.25" y2="67.25"/>
    <text fill="#000000" font-family="sans-serif" font-size="14" font-weight="bold" lengthAdjust="spacingAndGlyphs" textLength="42" x="26" y="59.9482">clang</text>
    <a href="classclanguml_1_1common_1_1eid__t.html" target="_top" title="Universal class for representing all kinds of Id's in the diagram         model." xlink:actuate="onRequest" xlink:href="classclanguml_1_1common_1_1eid__t.html" xlink:show="new" xlink:title="Universal class for representing all kinds of Id's in the diagram         model." xlink:type="simple">
      <rect fill="#FEFECE" filter="url(#fh1mt9u1ulhak)" height="48" id="C_0018226056604939607262" style="stroke: #A80036; stroke-width: 1.5;" width="62" x="896" y="486.9531"/>
      <ellipse cx="911" cy="502.9531" fill="#ADD1B2" rx="11" ry="11" style="stroke: #A80036; stroke-width: 1.0;"/>
      <path d="M913.9688,508.5938 Q913.3906,508.8906 912.75,509.0313 Q912.1094,509.1875 911.4063,509.1875 Q908.9063,509.1875 907.5781,507.5469 Q906.2656,505.8906 906.2656,502.7656 Q906.2656,499.6406 907.5781,497.9844 Q908.9063,496.3281 911.4063,496.3281 Q912.1094,496.3281 912.75,496.4844 Q913.4063,496.6406 913.9688,496.9375 L913.9688,499.6563 Q913.3438,499.0781 912.75,498.8125 Q912.1563,498.5313 911.5313,498.5313 Q910.1875,498.5313 909.5,499.6094 Q908.8125,500.6719 908.8125,502.7656 Q908.8125,504.8594 909.5,505.9375 Q910.1875,507 911.5313,507 Q912.1563,507 912.75,506.7344 Q913.3438,506.4531 913.9688,505.875 L913.9688,508.5938 Z "/>
      <text fill="#000000" font-family="sans-serif" font-size="12" lengthAdjust="spacingAndGlyphs" textLength="30" x="925" y="507.1074">eid_t</text>
      <line style="stroke: #A80036; stroke-width: 1.5;" x1="897" x2="957" y1="518.9531" y2="518.9531"/>
      <line style="stroke: #A80036; stroke-width: 1.5;" x1="897" x2="957" y1="526.9531" y2="526.9531"/>
    </a>
    <a href="classclanguml_1_1common_1_1visitor_1_1template__builder.html" target="_top" title="template_builder" xlink:actuate="onRequest" xlink:href="classclanguml_1_1common_1_1visitor_1_1template__builder.html" xlink:show="new" xlink:title="template_builder" xlink:type="simple">
      <rect fill="#FEFECE" filter="url(#fh1mt9u1ulhak)" height="48" id="C_0006928801289515998382" style="stroke: #A80036; stroke-width: 1.5;" width="483" x="993.5" y="486.9531"/>
      <ellipse cx="1008.5" cy="502.9531" fill="#ADD1B2" rx="11" ry="11" style="stroke: #A80036; stroke-width: 1.0;"/>
      <path d="M1011.4688,508.5938 Q1010.8906,508.8906 1010.25,509.0313 Q1009.6094,509.1875 1008.9063,509.1875 Q1006.4063,509.1875 1005.0781,507.5469 Q1003.7656,505.8906 1003.7656,502.7656 Q1003.7656,499.6406 1005.0781,497.9844 Q1006.4063,496.3281 1008.9063,496.3281 Q1009.6094,496.3281 1010.25,496.4844 Q1010.9063,496.6406 1011.4688,496.9375 L1011.4688,499.6563 Q1010.8438,499.0781 1010.25,498.8125 Q1009.6563,498.5313 1009.0313,498.5313 Q1007.6875,498.5313 1007,499.6094 Q1006.3125,500.6719 1006.3125,502.7656 Q1006.3125,504.8594 1007,505.9375 Q1007.6875,507 1009.0313,507 Q1009.6563,507 1010.25,506.7344 Q1010.8438,506.4531 1011.4688,505.875 L1011.4688,508.5938 Z "/>
      <text fill="#000000" font-family="sans-serif" font-size="12" lengthAdjust="spacingAndGlyphs" textLength="105" x="1022.5" y="507.1074">template_builder</text>
      <rect fill="#FFFFFF" height="15.9688" style="stroke: #000000; stroke-width: 1.0; stroke-dasharray: 2.0,2.0;" width="344" x="1135.5" y="483.9531"/>
      <text fill="#000000" font-family="sans-serif" font-size="12" font-style="italic" lengthAdjust="spacingAndGlyphs" textLength="342" x="1136.5" y="496.0918">clanguml::class_diagram::visitor::translation_unit_visitor</text>
      <line style="stroke: #A80036; stroke-width: 1.5;" x1="994.5" x2="1475.5" y1="518.9531" y2="518.9531"/>
      <line style="stroke: #A80036; stroke-width: 1.5;" x1="994.5" x2="1475.5" y1="526.9531" y2="526.9531"/>
    </a>
    <a href="classclanguml_1_1common_1_1visitor_1_1translation__unit__visitor.html" target="_top" title="translation_unit_visitor" xlink:actuate="onRequest" xlink:href="classclanguml_1_1common_1_1visitor_1_1translation__unit__visitor.html" xlink:show="new" xlink:title="translation_unit_visitor" xlink:type="simple">
      <rect fill="#FEFECE" filter="url(#fh1mt9u1ulhak)" height="48" id="C_0005184632287329019882" style="stroke: #A80036; stroke-width: 1.5;" width="634" x="1512" y="486.9531"/>
      <ellipse cx="1527" cy="502.9531" fill="#ADD1B2" rx="11" ry="11" style="stroke: #A80036; stroke-width: 1.0;"/>
      <path d="M1529.9688,508.5938 Q1529.3906,508.8906 1528.75,509.0313 Q1528.1094,509.1875 1527.4063,509.1875 Q1524.9063,509.1875 1523.5781,507.5469 Q1522.2656,505.8906 1522.2656,502.7656 Q1522.2656,499.6406 1523.5781,497.9844 Q1524.9063,496.3281 1527.4063,496.3281 Q1528.1094,496.3281 1528.75,496.4844 Q1529.4063,496.6406 1529.9688,496.9375 L1529.9688,499.6563 Q1529.3438,499.0781 1528.75,498.8125 Q1528.1563,498.5313 1527.5313,498.5313 Q1526.1875,498.5313 1525.5,499.6094 Q1524.8125,500.6719 1524.8125,502.7656 Q1524.8125,504.8594 1525.5,505.9375 Q1526.1875,507 1527.5313,507 Q1528.1563,507 1528.75,506.7344 Q1529.3438,506.4531 1529.9688,505.875 L1529.9688,508.5938 Z "/>
      <text fill="#000000" font-family="sans-serif" font-size="12" lengthAdjust="spacingAndGlyphs" textLength="141" x="1541" y="507.1074">translation_unit_visitor</text>
      <rect fill="#FFFFFF" height="15.9688" style="stroke: #000000; stroke-width: 1.0; stroke-dasharray: 2.0,2.0;" width="459" x="1690" y="483.9531"/>
      <text fill="#000000" font-family="sans-serif" font-size="12" font-style="italic" lengthAdjust="spacingAndGlyphs" textLength="457" x="1691" y="496.0918">clanguml::config::class_diagram,clanguml::class_diagram::model::diagram</text>
      <line style="stroke: #A80036; stroke-width: 1.5;" x1="1513" x2="2145" y1="518.9531" y2="518.9531"/>
      <line style="stroke: #A80036; stroke-width: 1.5;" x1="1513" x2="2145" y1="526.9531" y2="526.9531"/>
    </a>
    <a href="classclanguml_1_1class__diagram_1_1model_1_1class__.html" target="_top" title="Diagram element representing a class or class template." xlink:actuate="onRequest" xlink:href="classclanguml_1_1class__diagram_1_1model_1_1class__.html" xlink:show="new" xlink:title="Diagram element representing a class or class template." xlink:type="simple">
      <rect fill="#FEFECE" filter="url(#fh1mt9u1ulhak)" height="48" id="C_0010336274859733225462" style="stroke: #A80036; stroke-width: 1.5;" width="70" x="652" y="486.9531"/>
      <ellipse cx="667" cy="502.9531" fill="#ADD1B2" rx="11" ry="11" style="stroke: #A80036; stroke-width: 1.0;"/>
      <path d="M669.9688,508.5938 Q669.3906,508.8906 668.75,509.0313 Q668.1094,509.1875 667.4063,509.1875 Q664.9063,509.1875 663.5781,507.5469 Q662.2656,505.8906 662.2656,502.7656 Q662.2656,499.6406 663.5781,497.9844 Q664.9063,496.3281 667.4063,496.3281 Q668.1094,496.3281 668.75,496.4844 Q669.4063,496.6406 669.9688,496.9375 L669.9688,499.6563 Q669.3438,499.0781 668.75,498.8125 Q668.1563,498.5313 667.5313,498.5313 Q666.1875,498.5313 665.5,499.6094 Q664.8125,500.6719 664.8125,502.7656 Q664.8125,504.8594 665.5,505.9375 Q666.1875,507 667.5313,507 Q668.1563,507 668.75,506.7344 Q669.3438,506.4531 669.9688,505.875 L669.9688,508.5938 Z "/>
      <text fill="#000000" font-family="sans-serif" font-size="12" lengthAdjust="spacingAndGlyphs" textLength="38" x="681" y="507.1074">class_</text>
      <line style="stroke: #A80036; stroke-width: 1.5;" x1="653" x2="721" y1="518.9531" y2="518.9531"/>
      <line style="stroke: #A80036; stroke-width: 1.5;" x1="653" x2="721" y1="526.9531" y2="526.9531"/>
    </a>
    <a href="classclanguml_1_1class__diagram_1_1visitor_1_1translation__unit__visitor.html" target="_top" title="Class diagram translation unit visitor" xlink:actuate="onRequest" xlink:href="classclanguml_1_1class__diagram_1_1visitor_1_1translation__unit__visitor.html" xlink:show="new" xlink:title="Class diagram translation unit visitor" xlink:type="simple">
      <rect fill="#FEFECE" filter="url(#fh1mt9u1ulhak)" height="48" id="C_0013934086101141939615" style="stroke: #A80036; stroke-width: 1.5;" width="173" x="642.5" y="295.9531"/>
      <ellipse cx="657.5" cy="311.9531" fill="#ADD1B2" rx="11" ry="11" style="stroke: #A80036; stroke-width: 1.0;"/>
      <path d="M660.4688,317.5938 Q659.8906,317.8906 659.25,318.0313 Q658.6094,318.1875 657.9063,318.1875 Q655.4063,318.1875 654.0781,316.5469 Q652.7656,314.8906 652.7656,311.7656 Q652.7656,308.6406 654.0781,306.9844 Q655.4063,305.3281 657.9063,305.3281 Q658.6094,305.3281 659.25,305.4844 Q659.9063,305.6406 660.4688,305.9375 L660.4688,308.6563 Q659.8438,308.0781 659.25,307.8125 Q658.6563,307.5313 658.0313,307.5313 Q656.6875,307.5313 656,308.6094 Q655.3125,309.6719 655.3125,311.7656 Q655.3125,313.8594 656,314.9375 Q656.6875,316 658.0313,316 Q658.6563,316 659.25,315.7344 Q659.8438,315.4531 660.4688,314.875 L660.4688,317.5938 Z "/>
      <text fill="#000000" font-family="sans-serif" font-size="12" lengthAdjust="spacingAndGlyphs" textLength="141" x="671.5" y="316.1074">translation_unit_visitor</text>
      <line style="stroke: #A80036; stroke-width: 1.5;" x1="643.5" x2="814.5" y1="327.9531" y2="327.9531"/>
      <line style="stroke: #A80036; stroke-width: 1.5;" x1="643.5" x2="814.5" y1="335.9531" y2="335.9531"/>
    </a>
    <rect fill="#FEFECE" filter="url(#fh1mt9u1ulhak)" height="48" id="C_0015863240072594960404" style="stroke: #A80036; stroke-width: 1.5;" width="205" x="185.5" y="295.9531"/>
    <ellipse cx="200.5" cy="311.9531" fill="#ADD1B2" rx="11" ry="11" style="stroke: #A80036; stroke-width: 1.0;"/>
    <path d="M203.4688,317.5938 Q202.8906,317.8906 202.25,318.0313 Q201.6094,318.1875 200.9063,318.1875 Q198.4063,318.1875 197.0781,316.5469 Q195.7656,314.8906 195.7656,311.7656 Q195.7656,308.6406 197.0781,306.9844 Q198.4063,305.3281 200.9063,305.3281 Q201.6094,305.3281 202.25,305.4844 Q202.9063,305.6406 203.4688,305.9375 L203.4688,308.6563 Q202.8438,308.0781 202.25,307.8125 Q201.6563,307.5313 201.0313,307.5313 Q199.6875,307.5313 199,308.6094 Q198.3125,309.6719 198.3125,311.7656 Q198.3125,313.8594 199,314.9375 Q199.6875,316 201.0313,316 Q201.6563,316 202.25,315.7344 Q202.8438,315.4531 203.4688,314.875 L203.4688,317.5938 Z "/>
    <text fill="#000000" font-family="sans-serif" font-size="12" lengthAdjust="spacingAndGlyphs" textLength="122" x="214.5" y="316.1074">RecursiveASTVisitor</text>
    <rect fill="#FFFFFF" height="15.9688" style="stroke: #000000; stroke-width: 1.0; stroke-dasharray: 2.0,2.0;" width="49" x="344.5" y="292.9531"/>
    <text fill="#000000" font-family="sans-serif" font-size="12" font-style="italic" lengthAdjust="spacingAndGlyphs" textLength="47" x="345.5" y="305.0918">Derived</text>
    <line style="stroke: #A80036; stroke-width: 1.5;" x1="186.5" x2="389.5" y1="327.9531" y2="327.9531"/>
    <line style="stroke: #A80036; stroke-width: 1.5;" x1="186.5" x2="389.5" y1="335.9531" y2="335.9531"/>
    <a href="classclang_1_1RecursiveASTVisitor.html" target="_top" title="RecursiveASTVisitor" xlink:actuate="onRequest" xlink:href="classclang_1_1RecursiveASTVisitor.html" xlink:show="new" xlink:title="RecursiveASTVisitor" xlink:type="simple">
      <rect fill="#FEFECE" filter="url(#fh1mt9u1ulhak)" height="48" id="C_0011265253827398874958" style="stroke: #A80036; stroke-width: 1.5;" width="500" x="38" y="79.9531"/>
      <ellipse cx="53" cy="95.9531" fill="#ADD1B2" rx="11" ry="11" style="stroke: #A80036; stroke-width: 1.0;"/>
      <path d="M55.9688,101.5938 Q55.3906,101.8906 54.75,102.0313 Q54.1094,102.1875 53.4063,102.1875 Q50.9063,102.1875 49.5781,100.5469 Q48.2656,98.8906 48.2656,95.7656 Q48.2656,92.6406 49.5781,90.9844 Q50.9063,89.3281 53.4063,89.3281 Q54.1094,89.3281 54.75,89.4844 Q55.4063,89.6406 55.9688,89.9375 L55.9688,92.6563 Q55.3438,92.0781 54.75,91.8125 Q54.1563,91.5313 53.5313,91.5313 Q52.1875,91.5313 51.5,92.6094 Q50.8125,93.6719 50.8125,95.7656 Q50.8125,97.8594 51.5,98.9375 Q52.1875,100 53.5313,100 Q54.1563,100 54.75,99.7344 Q55.3438,99.4531 55.9688,98.875 L55.9688,101.5938 Z "/>
      <text fill="#000000" font-family="sans-serif" font-size="12" lengthAdjust="spacingAndGlyphs" textLength="122" x="67" y="100.1074">RecursiveASTVisitor</text>
      <rect fill="#FFFFFF" height="15.9688" style="stroke: #000000; stroke-width: 1.0; stroke-dasharray: 2.0,2.0;" width="344" x="197" y="76.9531"/>
      <text fill="#000000" font-family="sans-serif" font-size="12" font-style="italic" lengthAdjust="spacingAndGlyphs" textLength="342" x="198" y="89.0918">clanguml::class_diagram::visitor::translation_unit_visitor</text>
      <line style="stroke: #A80036; stroke-width: 1.5;" x1="39" x2="537" y1="111.9531" y2="111.9531"/>
      <line style="stroke: #A80036; stroke-width: 1.5;" x1="39" x2="537" y1="119.9531" y2="119.9531"/>
    </a>
    <path d="M828.57,327.9831 C890.62,334.9331 971.1,348.7131 1038,375.9531 C1105.42,403.4131 1173.25,456.4531 1209.06,486.9231 " fill="none" id="C_0013934086101141939615&lt;-C_0006928801289515998382" style="stroke: #A80036; stroke-width: 1.0;"/>
    <polygon fill="#FFFFFF" points="815.62,326.6031,821.1646,331.2137,827.5531,327.869,822.0085,323.2584,815.62,326.6031" style="stroke: #A80036; stroke-width: 1.0;"/>
    <rect fill="none" height="6" style="stroke: #C82930; stroke-width: 1.0;" width="6" x="1076" y="382.0195"/>
    <text fill="#000000" font-family="sans-serif" font-size="13" lengthAdjust="spacingAndGlyphs" textLength="115" x="1086" y="389.02">template_builder_</text>
    <path d="M825.21,349.6031 C839.3,356.6631 852.81,365.3431 864,375.9531 C896.36,406.6531 913.79,457.2831 921.67,486.7331 " fill="none" id="C_0013934086101141939615&lt;-C_0018226056604939607262" style="stroke: #A80036; stroke-width: 1.0;"/>
    <polygon fill="#FFFFFF" points="813.27,344.0431,817.0217,350.2014,824.1492,349.1069,820.3976,342.9486,813.27,344.0431" style="stroke: #A80036; stroke-width: 1.0;"/>
    <rect fill="none" height="6" style="stroke: #C82930; stroke-width: 1.0;" width="6" x="880" y="382.0195"/>
    <text fill="#000000" font-family="sans-serif" font-size="13" lengthAdjust="spacingAndGlyphs" textLength="139" x="890" y="389.02">forward_declarations_</text>
    <path d="M713.45,356.3531 C711.02,362.7831 708.75,369.5031 707,375.9531 C696.68,414.0931 691.29,459.8831 688.81,486.8631 " fill="none" id="C_0013934086101141939615&lt;-C_0010336274859733225462" style="stroke: #A80036; stroke-width: 1.0;"/>
    <polygon fill="#FFFFFF" points="718.35,344.0931,712.4077,348.1784,713.8933,355.2348,719.8356,351.1495,718.35,344.0931" style="stroke: #A80036; stroke-width: 1.0;"/>
    <rect fill="none" height="6" style="stroke: #C82930; stroke-width: 1.0;" width="6" x="710" y="382.0195"/>
    <text fill="#000000" font-family="sans-serif" font-size="13" lengthAdjust="spacingAndGlyphs" textLength="139" x="720" y="389.02">forward_declarations_</text>
    <path d="M463.81,133.1431 C494.81,141.6631 526.07,152.6931 554,166.9531 C618.69,199.9831 679.16,262.0031 709.19,295.7031 " fill="none" id="C_0011265253827398874958&lt;-C_0013934086101141939615" style="stroke: #A80036; stroke-width: 1.0;"/>
    <polygon fill="none" points="461.66,139.8131,444.05,128.0231,465.17,126.2631,461.66,139.8131" style="stroke: #A80036; stroke-width: 1.0;"/>
    <path d="M1752.17,479.8331 C1685.07,454.7631 1584.52,420.1931 1494,400.9531 C1251.54,349.4331 958.48,330.5631 815.68,324.0831 " fill="none" id="C_0005184632287329019882&lt;-C_0013934086101141939615" style="stroke: #A80036; stroke-width: 1.0;"/>
    <polygon fill="none" points="1754.78,473.3331,1771.02,486.9531,1749.84,486.4331,1754.78,473.3331" style="stroke: #A80036; stroke-width: 1.0;"/>
    <path d="M288,128.2631 C288,163.5531 288,231.1531 288,275.6431 " fill="none" id="C_0011265253827398874958-&gt;C_0015863240072594960404" style="stroke: #A80036; stroke-width: 1.0; stroke-dasharray: 7.0,7.0;"/>
    <polygon fill="none" points="295,275.6731,288,295.6731,281,275.6731,295,275.6731" style="stroke: #A80036; stroke-width: 1.0;"/>
  </g>
</svg>
