<svg xmlns="http://www.w3.org/2000/svg" xmlns:xlink="http://www.w3.org/1999/xlink" contentStyleType="text/css" height="595px" preserveAspectRatio="none" style="width:2211px;height:595px;background:#FFFFFF;" version="1.1" viewBox="0 0 2211 595" width="2211px" zoomAndPan="magnify">
  <title>Common diagram model</title>
  <defs>
    <style type="text/css">a:hover { text-decoration: underline; }</style>
  </defs>
  <g>
    <text fill="#000000" font-family="sans-serif" font-size="14" font-weight="bold" lengthAdjust="spacing" textLength="173.0533" x="1012.0002" y="24.9659">Common diagram model</text>
    <a href="classclanguml_1_1common_1_1model_1_1source__location.html" target="_top" title="Base class of all diagram elements that have source location." xlink:actuate="onRequest" xlink:href="classclanguml_1_1common_1_1model_1_1source__location.html" xlink:show="new" xlink:title="Base class of all diagram elements that have source location." xlink:type="simple">
      <g id="elem_C_0007162092657467521843">
        <rect codeLine="3" fill="#F1F1F1" height="48" id="C_0007162092657467521843" rx="2.5" ry="2.5" style="stroke:#181818;stroke-width:0.5;" width="134.8856" x="554" y="50.0839"/>
        <ellipse cx="569" cy="66.0839" fill="#ADD1B2" rx="11" ry="11" style="stroke:#181818;stroke-width:1.0;"/>
        <path d="M571.9688,71.7246 Q571.3906,72.0214 570.75,72.1621 Q570.1094,72.3183 569.4063,72.3183 Q566.9063,72.3183 565.5781,70.6777 Q564.2656,69.0214 564.2656,65.8964 Q564.2656,62.7714 565.5781,61.1152 Q566.9063,59.4589 569.4063,59.4589 Q570.1094,59.4589 570.75,59.6152 Q571.4063,59.7714 571.9688,60.0683 L571.9688,62.7871 Q571.3438,62.2089 570.75,61.9433 Q570.1563,61.6621 569.5313,61.6621 Q568.1875,61.6621 567.5,62.7402 Q566.8125,63.8027 566.8125,65.8964 Q566.8125,67.9902 567.5,69.0683 Q568.1875,70.1308 569.5313,70.1308 Q570.1563,70.1308 570.75,69.8652 Q571.3438,69.5839 571.9688,69.0058 L571.9688,71.7246 Z " fill="#000000"/>
        <text fill="#000000" font-family="sans-serif" font-size="14" lengthAdjust="spacing" textLength="102.8856" x="583" y="71.5159">source_location</text>
        <line style="stroke:#181818;stroke-width:0.5;" x1="555" x2="687.8856" y1="82.0839" y2="82.0839"/>
        <line style="stroke:#181818;stroke-width:0.5;" x1="555" x2="687.8856" y1="90.0839" y2="90.0839"/>
      </g>
    </a>
    <a href="classclanguml_1_1common_1_1model_1_1path.html" target="_top" title="Diagram path" xlink:actuate="onRequest" xlink:href="classclanguml_1_1common_1_1model_1_1path.html" xlink:show="new" xlink:title="Diagram path" xlink:type="simple">
      <g id="elem_C_0006758698337325774198">
        <rect codeLine="7" fill="#F1F1F1" height="48" id="C_0006758698337325774198" rx="2.5" ry="2.5" style="stroke:#181818;stroke-width:0.5;" width="62.1699" x="628.5" y="413.0839"/>
        <ellipse cx="643.5" cy="429.0839" fill="#ADD1B2" rx="11" ry="11" style="stroke:#181818;stroke-width:1.0;"/>
        <path d="M646.4688,434.7246 Q645.8906,435.0214 645.25,435.1621 Q644.6094,435.3183 643.9063,435.3183 Q641.4063,435.3183 640.0781,433.6777 Q638.7656,432.0214 638.7656,428.8964 Q638.7656,425.7714 640.0781,424.1152 Q641.4063,422.4589 643.9063,422.4589 Q644.6094,422.4589 645.25,422.6152 Q645.9063,422.7714 646.4688,423.0683 L646.4688,425.7871 Q645.8438,425.2089 645.25,424.9433 Q644.6563,424.6621 644.0313,424.6621 Q642.6875,424.6621 642,425.7402 Q641.3125,426.8027 641.3125,428.8964 Q641.3125,430.9902 642,432.0683 Q642.6875,433.1308 644.0313,433.1308 Q644.6563,433.1308 645.25,432.8652 Q645.8438,432.5839 646.4688,432.0058 L646.4688,434.7246 Z " fill="#000000"/>
        <text fill="#000000" font-family="sans-serif" font-size="14" lengthAdjust="spacing" textLength="30.1699" x="657.5" y="434.5159">path</text>
        <line style="stroke:#181818;stroke-width:0.5;" x1="629.5" x2="689.6699" y1="445.0839" y2="445.0839"/>
        <line style="stroke:#181818;stroke-width:0.5;" x1="629.5" x2="689.6699" y1="453.0839" y2="453.0839"/>
      </g>
    </a>
    <a href="structclanguml_1_1common_1_1model_1_1ns__path__separator.html" target="_top" title="ns_path_separator" xlink:actuate="onRequest" xlink:href="structclanguml_1_1common_1_1model_1_1ns__path__separator.html" xlink:show="new" xlink:title="ns_path_separator" xlink:type="simple">
      <g id="elem_C_0010655386284821382926">
        <rect codeLine="11" fill="#F1F1F1" height="48" id="C_0010655386284821382926" rx="2.5" ry="2.5" style="stroke:#181818;stroke-width:0.5;" width="153.9676" x="147.5" y="50.0839"/>
        <ellipse cx="162.5" cy="66.0839" fill="#ADD1B2" rx="11" ry="11" style="stroke:#181818;stroke-width:1.0;"/>
        <path d="M165.4688,71.7246 Q164.8906,72.0214 164.25,72.1621 Q163.6094,72.3183 162.9063,72.3183 Q160.4063,72.3183 159.0781,70.6777 Q157.7656,69.0214 157.7656,65.8964 Q157.7656,62.7714 159.0781,61.1152 Q160.4063,59.4589 162.9063,59.4589 Q163.6094,59.4589 164.25,59.6152 Q164.9063,59.7714 165.4688,60.0683 L165.4688,62.7871 Q164.8438,62.2089 164.25,61.9433 Q163.6563,61.6621 163.0313,61.6621 Q161.6875,61.6621 161,62.7402 Q160.3125,63.8027 160.3125,65.8964 Q160.3125,67.9902 161,69.0683 Q161.6875,70.1308 163.0313,70.1308 Q163.6563,70.1308 164.25,69.8652 Q164.8438,69.5839 165.4688,69.0058 L165.4688,71.7246 Z " fill="#000000"/>
        <text fill="#000000" font-family="sans-serif" font-size="14" lengthAdjust="spacing" textLength="121.9676" x="176.5" y="71.5159">ns_path_separator</text>
        <line style="stroke:#181818;stroke-width:0.5;" x1="148.5" x2="300.4676" y1="82.0839" y2="82.0839"/>
        <line style="stroke:#181818;stroke-width:0.5;" x1="148.5" x2="300.4676" y1="90.0839" y2="90.0839"/>
      </g>
    </a>
    <a href="classclanguml_1_1common_1_1model_1_1decorated__element.html" target="_top" title="Base class for decorated diagram elements" xlink:actuate="onRequest" xlink:href="classclanguml_1_1common_1_1model_1_1decorated__element.html" xlink:show="new" xlink:title="Base class for decorated diagram elements" xlink:type="simple">
      <g id="elem_C_0008936819060997384951">
        <rect codeLine="15" fill="#F1F1F1" height="48" id="C_0008936819060997384951" rx="2.5" ry="2.5" style="stroke:#181818;stroke-width:0.5;" width="159.2035" x="724" y="50.0839"/>
        <ellipse cx="739" cy="66.0839" fill="#ADD1B2" rx="11" ry="11" style="stroke:#181818;stroke-width:1.0;"/>
        <path d="M741.9688,71.7246 Q741.3906,72.0214 740.75,72.1621 Q740.1094,72.3183 739.4063,72.3183 Q736.9063,72.3183 735.5781,70.6777 Q734.2656,69.0214 734.2656,65.8964 Q734.2656,62.7714 735.5781,61.1152 Q736.9063,59.4589 739.4063,59.4589 Q740.1094,59.4589 740.75,59.6152 Q741.4063,59.7714 741.9688,60.0683 L741.9688,62.7871 Q741.3438,62.2089 740.75,61.9433 Q740.1563,61.6621 739.5313,61.6621 Q738.1875,61.6621 737.5,62.7402 Q736.8125,63.8027 736.8125,65.8964 Q736.8125,67.9902 737.5,69.0683 Q738.1875,70.1308 739.5313,70.1308 Q740.1563,70.1308 740.75,69.8652 Q741.3438,69.5839 741.9688,69.0058 L741.9688,71.7246 Z " fill="#000000"/>
        <text fill="#000000" font-family="sans-serif" font-size="14" lengthAdjust="spacing" textLength="127.2035" x="753" y="71.5159">decorated_element</text>
        <line style="stroke:#181818;stroke-width:0.5;" x1="725" x2="882.2035" y1="82.0839" y2="82.0839"/>
        <line style="stroke:#181818;stroke-width:0.5;" x1="725" x2="882.2035" y1="90.0839" y2="90.0839"/>
      </g>
    </a>
    <a href="classclanguml_1_1common_1_1model_1_1stylable__element.html" target="_top" title="Diagram elements to which style can be applied." xlink:actuate="onRequest" xlink:href="classclanguml_1_1common_1_1model_1_1stylable__element.html" xlink:show="new" xlink:title="Diagram elements to which style can be applied." xlink:type="simple">
      <g id="elem_C_0016622768607835415521">
        <rect codeLine="19" fill="#F1F1F1" height="48" id="C_0016622768607835415521" rx="2.5" ry="2.5" style="stroke:#181818;stroke-width:0.5;" width="142.7956" x="551" y="159.0839"/>
        <ellipse cx="566" cy="175.0839" fill="#ADD1B2" rx="11" ry="11" style="stroke:#181818;stroke-width:1.0;"/>
        <path d="M568.9688,180.7246 Q568.3906,181.0214 567.75,181.1621 Q567.1094,181.3183 566.4063,181.3183 Q563.9063,181.3183 562.5781,179.6777 Q561.2656,178.0214 561.2656,174.8964 Q561.2656,171.7714 562.5781,170.1152 Q563.9063,168.4589 566.4063,168.4589 Q567.1094,168.4589 567.75,168.6152 Q568.4063,168.7714 568.9688,169.0683 L568.9688,171.7871 Q568.3438,171.2089 567.75,170.9433 Q567.1563,170.6621 566.5313,170.6621 Q565.1875,170.6621 564.5,171.7402 Q563.8125,172.8027 563.8125,174.8964 Q563.8125,176.9902 564.5,178.0683 Q565.1875,179.1308 566.5313,179.1308 Q567.1563,179.1308 567.75,178.8652 Q568.3438,178.5839 568.9688,178.0058 L568.9688,180.7246 Z " fill="#000000"/>
        <text fill="#000000" font-family="sans-serif" font-size="14" lengthAdjust="spacing" textLength="110.7956" x="580" y="180.5159">stylable_element</text>
        <line style="stroke:#181818;stroke-width:0.5;" x1="552" x2="692.7956" y1="191.0839" y2="191.0839"/>
        <line style="stroke:#181818;stroke-width:0.5;" x1="552" x2="692.7956" y1="199.0839" y2="199.0839"/>
      </g>
    </a>
    <a href="classclanguml_1_1common_1_1model_1_1relationship.html" target="_top" title="Class representing any relationship other than inheritance" xlink:actuate="onRequest" xlink:href="classclanguml_1_1common_1_1model_1_1relationship.html" xlink:show="new" xlink:title="Class representing any relationship other than inheritance" xlink:type="simple">
      <g id="elem_C_0016370694070378943411">
        <rect codeLine="23" fill="#F1F1F1" height="48" id="C_0016370694070378943411" rx="2.5" ry="2.5" style="stroke:#181818;stroke-width:0.5;" width="110.5117" x="476" y="286.0839"/>
        <ellipse cx="491" cy="302.0839" fill="#ADD1B2" rx="11" ry="11" style="stroke:#181818;stroke-width:1.0;"/>
        <path d="M493.9688,307.7246 Q493.3906,308.0214 492.75,308.1621 Q492.1094,308.3183 491.4063,308.3183 Q488.9063,308.3183 487.5781,306.6777 Q486.2656,305.0214 486.2656,301.8964 Q486.2656,298.7714 487.5781,297.1152 Q488.9063,295.4589 491.4063,295.4589 Q492.1094,295.4589 492.75,295.6152 Q493.4063,295.7714 493.9688,296.0683 L493.9688,298.7871 Q493.3438,298.2089 492.75,297.9433 Q492.1563,297.6621 491.5313,297.6621 Q490.1875,297.6621 489.5,298.7402 Q488.8125,299.8027 488.8125,301.8964 Q488.8125,303.9902 489.5,305.0683 Q490.1875,306.1308 491.5313,306.1308 Q492.1563,306.1308 492.75,305.8652 Q493.3438,305.5839 493.9688,305.0058 L493.9688,307.7246 Z " fill="#000000"/>
        <text fill="#000000" font-family="sans-serif" font-size="14" lengthAdjust="spacing" textLength="78.5117" x="505" y="307.5159">relationship</text>
        <line style="stroke:#181818;stroke-width:0.5;" x1="477" x2="585.5117" y1="318.0839" y2="318.0839"/>
        <line style="stroke:#181818;stroke-width:0.5;" x1="477" x2="585.5117" y1="326.0839" y2="326.0839"/>
      </g>
    </a>
    <a href="structclanguml_1_1common_1_1model_1_1full__name__tag__t.html" target="_top" title="full_name_tag_t" xlink:actuate="onRequest" xlink:href="structclanguml_1_1common_1_1model_1_1full__name__tag__t.html" xlink:show="new" xlink:title="full_name_tag_t" xlink:type="simple">
      <g id="elem_C_0008055211364012910024">
        <rect codeLine="27" fill="#F1F1F1" height="48" id="C_0008055211364012910024" rx="2.5" ry="2.5" style="stroke:#181818;stroke-width:0.5;" width="135.4036" x="337" y="50.0839"/>
        <ellipse cx="352" cy="66.0839" fill="#ADD1B2" rx="11" ry="11" style="stroke:#181818;stroke-width:1.0;"/>
        <path d="M354.9688,71.7246 Q354.3906,72.0214 353.75,72.1621 Q353.1094,72.3183 352.4063,72.3183 Q349.9063,72.3183 348.5781,70.6777 Q347.2656,69.0214 347.2656,65.8964 Q347.2656,62.7714 348.5781,61.1152 Q349.9063,59.4589 352.4063,59.4589 Q353.1094,59.4589 353.75,59.6152 Q354.4063,59.7714 354.9688,60.0683 L354.9688,62.7871 Q354.3438,62.2089 353.75,61.9433 Q353.1563,61.6621 352.5313,61.6621 Q351.1875,61.6621 350.5,62.7402 Q349.8125,63.8027 349.8125,65.8964 Q349.8125,67.9902 350.5,69.0683 Q351.1875,70.1308 352.5313,70.1308 Q353.1563,70.1308 353.75,69.8652 Q354.3438,69.5839 354.9688,69.0058 L354.9688,71.7246 Z " fill="#000000"/>
        <text fill="#000000" font-family="sans-serif" font-size="14" lengthAdjust="spacing" textLength="103.4036" x="366" y="71.5159">full_name_tag_t</text>
        <line style="stroke:#181818;stroke-width:0.5;" x1="338" x2="471.4036" y1="82.0839" y2="82.0839"/>
        <line style="stroke:#181818;stroke-width:0.5;" x1="338" x2="471.4036" y1="90.0839" y2="90.0839"/>
      </g>
    </a>
    <a href="structclanguml_1_1common_1_1model_1_1name__and__ns__tag.html" target="_top" title="name_and_ns_tag" xlink:actuate="onRequest" xlink:href="structclanguml_1_1common_1_1model_1_1name__and__ns__tag.html" xlink:show="new" xlink:title="name_and_ns_tag" xlink:type="simple">
      <g id="elem_C_0017789505560089675948">
        <rect codeLine="31" fill="#F1F1F1" height="48" id="C_0017789505560089675948" rx="2.5" ry="2.5" style="stroke:#181818;stroke-width:0.5;" width="150.1315" x="149.5" y="159.0839"/>
        <ellipse cx="164.5" cy="175.0839" fill="#ADD1B2" rx="11" ry="11" style="stroke:#181818;stroke-width:1.0;"/>
        <path d="M167.4688,180.7246 Q166.8906,181.0214 166.25,181.1621 Q165.6094,181.3183 164.9063,181.3183 Q162.4063,181.3183 161.0781,179.6777 Q159.7656,178.0214 159.7656,174.8964 Q159.7656,171.7714 161.0781,170.1152 Q162.4063,168.4589 164.9063,168.4589 Q165.6094,168.4589 166.25,168.6152 Q166.9063,168.7714 167.4688,169.0683 L167.4688,171.7871 Q166.8438,171.2089 166.25,170.9433 Q165.6563,170.6621 165.0313,170.6621 Q163.6875,170.6621 163,171.7402 Q162.3125,172.8027 162.3125,174.8964 Q162.3125,176.9902 163,178.0683 Q163.6875,179.1308 165.0313,179.1308 Q165.6563,179.1308 166.25,178.8652 Q166.8438,178.5839 167.4688,178.0058 L167.4688,180.7246 Z " fill="#000000"/>
        <text fill="#000000" font-family="sans-serif" font-size="14" lengthAdjust="spacing" textLength="118.1315" x="178.5" y="180.5159">name_and_ns_tag</text>
        <line style="stroke:#181818;stroke-width:0.5;" x1="150.5" x2="298.6315" y1="191.0839" y2="191.0839"/>
        <line style="stroke:#181818;stroke-width:0.5;" x1="150.5" x2="298.6315" y1="199.0839" y2="199.0839"/>
      </g>
    </a>
    <a href="classclanguml_1_1common_1_1model_1_1diagram__element.html" target="_top" title="Base class for standalone diagram elements." xlink:actuate="onRequest" xlink:href="classclanguml_1_1common_1_1model_1_1diagram__element.html" xlink:show="new" xlink:title="Base class for standalone diagram elements." xlink:type="simple">
      <g id="elem_C_0008588005715032923314">
        <rect codeLine="35" fill="#F1F1F1" height="48" id="C_0008588005715032923314" rx="2.5" ry="2.5" style="stroke:#181818;stroke-width:0.5;" width="147.7236" x="729.5" y="159.0839"/>
        <ellipse cx="744.5" cy="175.0839" fill="#ADD1B2" rx="11" ry="11" style="stroke:#181818;stroke-width:1.0;"/>
        <path d="M747.4688,180.7246 Q746.8906,181.0214 746.25,181.1621 Q745.6094,181.3183 744.9063,181.3183 Q742.4063,181.3183 741.0781,179.6777 Q739.7656,178.0214 739.7656,174.8964 Q739.7656,171.7714 741.0781,170.1152 Q742.4063,168.4589 744.9063,168.4589 Q745.6094,168.4589 746.25,168.6152 Q746.9063,168.7714 747.4688,169.0683 L747.4688,171.7871 Q746.8438,171.2089 746.25,170.9433 Q745.6563,170.6621 745.0313,170.6621 Q743.6875,170.6621 743,171.7402 Q742.3125,172.8027 742.3125,174.8964 Q742.3125,176.9902 743,178.0683 Q743.6875,179.1308 745.0313,179.1308 Q745.6563,179.1308 746.25,178.8652 Q746.8438,178.5839 747.4688,178.0058 L747.4688,180.7246 Z " fill="#000000"/>
        <text fill="#000000" font-family="sans-serif" font-size="14" lengthAdjust="spacing" textLength="115.7236" x="758.5" y="180.5159">diagram_element</text>
        <line style="stroke:#181818;stroke-width:0.5;" x1="730.5" x2="876.2236" y1="191.0839" y2="191.0839"/>
        <line style="stroke:#181818;stroke-width:0.5;" x1="730.5" x2="876.2236" y1="199.0839" y2="199.0839"/>
      </g>
    </a>
    <a href="structclanguml_1_1common_1_1model_1_1context.html" target="_top" title="context" xlink:actuate="onRequest" xlink:href="structclanguml_1_1common_1_1model_1_1context.html" xlink:show="new" xlink:title="context" xlink:type="simple">
      <g id="elem_C_0006767826637291167780">
        <rect codeLine="39" fill="#F1F1F1" height="48" id="C_0006767826637291167780" rx="2.5" ry="2.5" style="stroke:#181818;stroke-width:0.5;" width="81.2518" x="50" y="540.0839"/>
        <ellipse cx="65" cy="556.0839" fill="#ADD1B2" rx="11" ry="11" style="stroke:#181818;stroke-width:1.0;"/>
        <path d="M67.9688,561.7246 Q67.3906,562.0214 66.75,562.1621 Q66.1094,562.3183 65.4063,562.3183 Q62.9063,562.3183 61.5781,560.6777 Q60.2656,559.0214 60.2656,555.8964 Q60.2656,552.7714 61.5781,551.1152 Q62.9063,549.4589 65.4063,549.4589 Q66.1094,549.4589 66.75,549.6152 Q67.4063,549.7714 67.9688,550.0683 L67.9688,552.7871 Q67.3438,552.2089 66.75,551.9433 Q66.1563,551.6621 65.5313,551.6621 Q64.1875,551.6621 63.5,552.7402 Q62.8125,553.8027 62.8125,555.8964 Q62.8125,557.9902 63.5,559.0683 Q64.1875,560.1308 65.5313,560.1308 Q66.1563,560.1308 66.75,559.8652 Q67.3438,559.5839 67.9688,559.0058 L67.9688,561.7246 Z " fill="#000000"/>
        <text fill="#000000" font-family="sans-serif" font-size="14" lengthAdjust="spacing" textLength="49.2518" x="79" y="561.5159">context</text>
        <line style="stroke:#181818;stroke-width:0.5;" x1="51" x2="130.2518" y1="572.0839" y2="572.0839"/>
        <line style="stroke:#181818;stroke-width:0.5;" x1="51" x2="130.2518" y1="580.0839" y2="580.0839"/>
      </g>
    </a>
    <a href="classclanguml_1_1common_1_1model_1_1template__parameter.html" target="_top" title="Represents template parameter, template arguments or concept         constraints" xlink:actuate="onRequest" xlink:href="classclanguml_1_1common_1_1model_1_1template__parameter.html" xlink:show="new" xlink:title="Represents template parameter, template arguments or concept         constraints" xlink:type="simple">
      <g id="elem_C_0001425108501944636238">
        <rect codeLine="43" fill="#F1F1F1" height="48" id="C_0001425108501944636238" rx="2.5" ry="2.5" style="stroke:#181818;stroke-width:0.5;" width="167.0995" x="7" y="413.0839"/>
        <ellipse cx="22" cy="429.0839" fill="#ADD1B2" rx="11" ry="11" style="stroke:#181818;stroke-width:1.0;"/>
        <path d="M24.9688,434.7246 Q24.3906,435.0214 23.75,435.1621 Q23.1094,435.3183 22.4063,435.3183 Q19.9063,435.3183 18.5781,433.6777 Q17.2656,432.0214 17.2656,428.8964 Q17.2656,425.7714 18.5781,424.1152 Q19.9063,422.4589 22.4063,422.4589 Q23.1094,422.4589 23.75,422.6152 Q24.4063,422.7714 24.9688,423.0683 L24.9688,425.7871 Q24.3438,425.2089 23.75,424.9433 Q23.1563,424.6621 22.5313,424.6621 Q21.1875,424.6621 20.5,425.7402 Q19.8125,426.8027 19.8125,428.8964 Q19.8125,430.9902 20.5,432.0683 Q21.1875,433.1308 22.5313,433.1308 Q23.1563,433.1308 23.75,432.8652 Q24.3438,432.5839 24.9688,432.0058 L24.9688,434.7246 Z " fill="#000000"/>
        <text fill="#000000" font-family="sans-serif" font-size="14" lengthAdjust="spacing" textLength="135.0995" x="36" y="434.5159">template_parameter</text>
        <line style="stroke:#181818;stroke-width:0.5;" x1="8" x2="173.0995" y1="445.0839" y2="445.0839"/>
        <line style="stroke:#181818;stroke-width:0.5;" x1="8" x2="173.0995" y1="453.0839" y2="453.0839"/>
      </g>
    </a>
    <a href="classclanguml_1_1common_1_1model_1_1element.html" target="_top" title="Base class for any element qualified by namespace." xlink:actuate="onRequest" xlink:href="classclanguml_1_1common_1_1model_1_1element.html" xlink:show="new" xlink:title="Base class for any element qualified by namespace." xlink:type="simple">
      <g id="elem_C_0016556163051475263500">
        <rect codeLine="47" fill="#F1F1F1" height="48" id="C_0016556163051475263500" rx="2.5" ry="2.5" style="stroke:#181818;stroke-width:0.5;" width="86.0958" x="622.5" y="286.0839"/>
        <ellipse cx="637.5" cy="302.0839" fill="#ADD1B2" rx="11" ry="11" style="stroke:#181818;stroke-width:1.0;"/>
        <path d="M640.4688,307.7246 Q639.8906,308.0214 639.25,308.1621 Q638.6094,308.3183 637.9063,308.3183 Q635.4063,308.3183 634.0781,306.6777 Q632.7656,305.0214 632.7656,301.8964 Q632.7656,298.7714 634.0781,297.1152 Q635.4063,295.4589 637.9063,295.4589 Q638.6094,295.4589 639.25,295.6152 Q639.9063,295.7714 640.4688,296.0683 L640.4688,298.7871 Q639.8438,298.2089 639.25,297.9433 Q638.6563,297.6621 638.0313,297.6621 Q636.6875,297.6621 636,298.7402 Q635.3125,299.8027 635.3125,301.8964 Q635.3125,303.9902 636,305.0683 Q636.6875,306.1308 638.0313,306.1308 Q638.6563,306.1308 639.25,305.8652 Q639.8438,305.5839 640.4688,305.0058 L640.4688,307.7246 Z " fill="#000000"/>
        <text fill="#000000" font-family="sans-serif" font-size="14" lengthAdjust="spacing" textLength="54.0958" x="651.5" y="307.5159">element</text>
        <line style="stroke:#181818;stroke-width:0.5;" x1="623.5" x2="707.5958" y1="318.0839" y2="318.0839"/>
        <line style="stroke:#181818;stroke-width:0.5;" x1="623.5" x2="707.5958" y1="326.0839" y2="326.0839"/>
      </g>
    </a>
    <a href="classclanguml_1_1common_1_1model_1_1template__trait.html" target="_top" title="Common interface for template diagram elements." xlink:actuate="onRequest" xlink:href="classclanguml_1_1common_1_1model_1_1template__trait.html" xlink:show="new" xlink:title="Common interface for template diagram elements." xlink:type="simple">
      <g id="elem_C_0003717723700041732716">
        <rect codeLine="51" fill="#F1F1F1" height="48" id="C_0003717723700041732716" rx="2.5" ry="2.5" style="stroke:#181818;stroke-width:0.5;" width="124.6377" x="274" y="286.0839"/>
        <ellipse cx="289" cy="302.0839" fill="#ADD1B2" rx="11" ry="11" style="stroke:#181818;stroke-width:1.0;"/>
        <path d="M291.9688,307.7246 Q291.3906,308.0214 290.75,308.1621 Q290.1094,308.3183 289.4063,308.3183 Q286.9063,308.3183 285.5781,306.6777 Q284.2656,305.0214 284.2656,301.8964 Q284.2656,298.7714 285.5781,297.1152 Q286.9063,295.4589 289.4063,295.4589 Q290.1094,295.4589 290.75,295.6152 Q291.4063,295.7714 291.9688,296.0683 L291.9688,298.7871 Q291.3438,298.2089 290.75,297.9433 Q290.1563,297.6621 289.5313,297.6621 Q288.1875,297.6621 287.5,298.7402 Q286.8125,299.8027 286.8125,301.8964 Q286.8125,303.9902 287.5,305.0683 Q288.1875,306.1308 289.5313,306.1308 Q290.1563,306.1308 290.75,305.8652 Q291.3438,305.5839 291.9688,305.0058 L291.9688,307.7246 Z " fill="#000000"/>
        <text fill="#000000" font-family="sans-serif" font-size="14" lengthAdjust="spacing" textLength="92.6377" x="303" y="307.5159">template_trait</text>
        <line style="stroke:#181818;stroke-width:0.5;" x1="275" x2="397.6377" y1="318.0839" y2="318.0839"/>
        <line style="stroke:#181818;stroke-width:0.5;" x1="275" x2="397.6377" y1="326.0839" y2="326.0839"/>
      </g>
    </a>
    <a href="classclanguml_1_1common_1_1model_1_1template__element.html" target="_top" title="Base class for any element qualified by namespace." xlink:actuate="onRequest" xlink:href="classclanguml_1_1common_1_1model_1_1template__element.html" xlink:show="new" xlink:title="Base class for any element qualified by namespace." xlink:type="simple">
      <g id="elem_C_0013384831159811298387">
        <rect codeLine="55" fill="#F1F1F1" height="48" id="C_0013384831159811298387" rx="2.5" ry="2.5" style="stroke:#181818;stroke-width:0.5;" width="151.3775" x="363" y="413.0839"/>
        <ellipse cx="378" cy="429.0839" fill="#ADD1B2" rx="11" ry="11" style="stroke:#181818;stroke-width:1.0;"/>
        <path d="M380.9688,434.7246 Q380.3906,435.0214 379.75,435.1621 Q379.1094,435.3183 378.4063,435.3183 Q375.9063,435.3183 374.5781,433.6777 Q373.2656,432.0214 373.2656,428.8964 Q373.2656,425.7714 374.5781,424.1152 Q375.9063,422.4589 378.4063,422.4589 Q379.1094,422.4589 379.75,422.6152 Q380.4063,422.7714 380.9688,423.0683 L380.9688,425.7871 Q380.3438,425.2089 379.75,424.9433 Q379.1563,424.6621 378.5313,424.6621 Q377.1875,424.6621 376.5,425.7402 Q375.8125,426.8027 375.8125,428.8964 Q375.8125,430.9902 376.5,432.0683 Q377.1875,433.1308 378.5313,433.1308 Q379.1563,433.1308 379.75,432.8652 Q380.3438,432.5839 380.9688,432.0058 L380.9688,434.7246 Z " fill="#000000"/>
        <text fill="#000000" font-family="sans-serif" font-size="14" lengthAdjust="spacing" textLength="119.3775" x="392" y="434.5159">template_element</text>
        <line style="stroke:#181818;stroke-width:0.5;" x1="364" x2="513.3775" y1="445.0839" y2="445.0839"/>
        <line style="stroke:#181818;stroke-width:0.5;" x1="364" x2="513.3775" y1="453.0839" y2="453.0839"/>
      </g>
    </a>
    <a href="classclanguml_1_1common_1_1model_1_1nested__trait.html" target="_top" title="Base class for elements nested in the diagram." xlink:actuate="onRequest" xlink:href="classclanguml_1_1common_1_1model_1_1nested__trait.html" xlink:show="new" xlink:title="Base class for elements nested in the diagram." xlink:type="simple">
      <g id="elem_C_0007129669985754476498">
        <rect codeLine="59" fill="#F1F1F1" height="48" id="C_0007129669985754476498" rx="2.5" ry="2.5" style="stroke:#181818;stroke-width:0.5;" width="148.0219" x="1061.5" y="286.0839"/>
        <ellipse cx="1076.5" cy="302.0839" fill="#ADD1B2" rx="11" ry="11" style="stroke:#181818;stroke-width:1.0;"/>
        <path d="M1079.4688,307.7246 Q1078.8906,308.0214 1078.25,308.1621 Q1077.6094,308.3183 1076.9063,308.3183 Q1074.4063,308.3183 1073.0781,306.6777 Q1071.7656,305.0214 1071.7656,301.8964 Q1071.7656,298.7714 1073.0781,297.1152 Q1074.4063,295.4589 1076.9063,295.4589 Q1077.6094,295.4589 1078.25,295.6152 Q1078.9063,295.7714 1079.4688,296.0683 L1079.4688,298.7871 Q1078.8438,298.2089 1078.25,297.9433 Q1077.6563,297.6621 1077.0313,297.6621 Q1075.6875,297.6621 1075,298.7402 Q1074.3125,299.8027 1074.3125,301.8964 Q1074.3125,303.9902 1075,305.0683 Q1075.6875,306.1308 1077.0313,306.1308 Q1077.6563,306.1308 1078.25,305.8652 Q1078.8438,305.5839 1079.4688,305.0058 L1079.4688,307.7246 Z " fill="#000000"/>
        <text fill="#000000" font-family="sans-serif" font-size="14" lengthAdjust="spacing" textLength="78.3857" x="1090.5" y="307.5159">nested_trait</text>
        <rect fill="#FFFFFF" height="18.3441" style="stroke:#181818;stroke-width:1.0;stroke-dasharray:2.0,2.0;" width="35.6362" x="1176.8857" y="283.0839"/>
        <text fill="#000000" font-family="sans-serif" font-size="12" font-style="italic" lengthAdjust="spacing" textLength="33.6362" x="1177.8857" y="296.912">T,Path</text>
        <line style="stroke:#181818;stroke-width:0.5;" x1="1062.5" x2="1208.5219" y1="318.0839" y2="318.0839"/>
        <line style="stroke:#181818;stroke-width:0.5;" x1="1062.5" x2="1208.5219" y1="326.0839" y2="326.0839"/>
      </g>
    </a>
    <a href="structclanguml_1_1common_1_1model_1_1fs__path__sep.html" target="_top" title="fs_path_sep" xlink:actuate="onRequest" xlink:href="structclanguml_1_1common_1_1model_1_1fs__path__sep.html" xlink:show="new" xlink:title="fs_path_sep" xlink:type="simple">
      <g id="elem_C_0005122065303139962793">
        <rect codeLine="63" fill="#F1F1F1" height="48" id="C_0005122065303139962793" rx="2.5" ry="2.5" style="stroke:#181818;stroke-width:0.5;" width="109.3357" x="335" y="159.0839"/>
        <ellipse cx="350" cy="175.0839" fill="#ADD1B2" rx="11" ry="11" style="stroke:#181818;stroke-width:1.0;"/>
        <path d="M352.9688,180.7246 Q352.3906,181.0214 351.75,181.1621 Q351.1094,181.3183 350.4063,181.3183 Q347.9063,181.3183 346.5781,179.6777 Q345.2656,178.0214 345.2656,174.8964 Q345.2656,171.7714 346.5781,170.1152 Q347.9063,168.4589 350.4063,168.4589 Q351.1094,168.4589 351.75,168.6152 Q352.4063,168.7714 352.9688,169.0683 L352.9688,171.7871 Q352.3438,171.2089 351.75,170.9433 Q351.1563,170.6621 350.5313,170.6621 Q349.1875,170.6621 348.5,171.7402 Q347.8125,172.8027 347.8125,174.8964 Q347.8125,176.9902 348.5,178.0683 Q349.1875,179.1308 350.5313,179.1308 Q351.1563,179.1308 351.75,178.8652 Q352.3438,178.5839 352.9688,178.0058 L352.9688,180.7246 Z " fill="#000000"/>
        <text fill="#000000" font-family="sans-serif" font-size="14" lengthAdjust="spacing" textLength="77.3357" x="364" y="180.5159">fs_path_sep</text>
        <line style="stroke:#181818;stroke-width:0.5;" x1="336" x2="443.3357" y1="191.0839" y2="191.0839"/>
        <line style="stroke:#181818;stroke-width:0.5;" x1="336" x2="443.3357" y1="199.0839" y2="199.0839"/>
      </g>
    </a>
    <a href="classclanguml_1_1common_1_1model_1_1nested__trait.html" target="_top" title="nested_trait" xlink:actuate="onRequest" xlink:href="classclanguml_1_1common_1_1model_1_1nested__trait.html" xlink:show="new" xlink:title="nested_trait" xlink:type="simple">
      <g id="elem_C_0012891720332235399601">
        <rect codeLine="67" fill="#F1F1F1" height="48" id="C_0012891720332235399601" rx="2.5" ry="2.5" style="stroke:#181818;stroke-width:0.5;" width="255.1587" x="913" y="159.0839"/>
        <ellipse cx="928" cy="175.0839" fill="#ADD1B2" rx="11" ry="11" style="stroke:#181818;stroke-width:1.0;"/>
        <path d="M930.9688,180.7246 Q930.3906,181.0214 929.75,181.1621 Q929.1094,181.3183 928.4063,181.3183 Q925.9063,181.3183 924.5781,179.6777 Q923.2656,178.0214 923.2656,174.8964 Q923.2656,171.7714 924.5781,170.1152 Q925.9063,168.4589 928.4063,168.4589 Q929.1094,168.4589 929.75,168.6152 Q930.4063,168.7714 930.9688,169.0683 L930.9688,171.7871 Q930.3438,171.2089 929.75,170.9433 Q929.1563,170.6621 928.5313,170.6621 Q927.1875,170.6621 926.5,171.7402 Q925.8125,172.8027 925.8125,174.8964 Q925.8125,176.9902 926.5,178.0683 Q927.1875,179.1308 928.5313,179.1308 Q929.1563,179.1308 929.75,178.8652 Q930.3438,178.5839 930.9688,178.0058 L930.9688,180.7246 Z " fill="#000000"/>
        <text fill="#000000" font-family="sans-serif" font-size="14" lengthAdjust="spacing" textLength="78.3857" x="942" y="180.5159">nested_trait</text>
        <rect fill="#FFFFFF" height="18.3441" style="stroke:#181818;stroke-width:1.0;stroke-dasharray:2.0,2.0;" width="142.7729" x="1028.3857" y="156.0839"/>
        <text fill="#000000" font-family="sans-serif" font-size="12" font-style="italic" lengthAdjust="spacing" textLength="140.7729" x="1029.3857" y="169.912">source_file,filesystem_path</text>
        <line style="stroke:#181818;stroke-width:0.5;" x1="914" x2="1167.1587" y1="191.0839" y2="191.0839"/>
        <line style="stroke:#181818;stroke-width:0.5;" x1="914" x2="1167.1587" y1="199.0839" y2="199.0839"/>
      </g>
    </a>
    <a href="classclanguml_1_1common_1_1model_1_1source__file.html" target="_top" title="Diagram element representing some file or directory." xlink:actuate="onRequest" xlink:href="classclanguml_1_1common_1_1model_1_1source__file.html" xlink:show="new" xlink:title="Diagram element representing some file or directory." xlink:type="simple">
      <g id="elem_C_0006285717704576425038">
        <rect codeLine="71" fill="#F1F1F1" height="48" id="C_0006285717704576425038" rx="2.5" ry="2.5" style="stroke:#181818;stroke-width:0.5;" width="102.3777" x="820.5" y="286.0839"/>
        <ellipse cx="835.5" cy="302.0839" fill="#ADD1B2" rx="11" ry="11" style="stroke:#181818;stroke-width:1.0;"/>
        <path d="M838.4688,307.7246 Q837.8906,308.0214 837.25,308.1621 Q836.6094,308.3183 835.9063,308.3183 Q833.4063,308.3183 832.0781,306.6777 Q830.7656,305.0214 830.7656,301.8964 Q830.7656,298.7714 832.0781,297.1152 Q833.4063,295.4589 835.9063,295.4589 Q836.6094,295.4589 837.25,295.6152 Q837.9063,295.7714 838.4688,296.0683 L838.4688,298.7871 Q837.8438,298.2089 837.25,297.9433 Q836.6563,297.6621 836.0313,297.6621 Q834.6875,297.6621 834,298.7402 Q833.3125,299.8027 833.3125,301.8964 Q833.3125,303.9902 834,305.0683 Q834.6875,306.1308 836.0313,306.1308 Q836.6563,306.1308 837.25,305.8652 Q837.8438,305.5839 838.4688,305.0058 L838.4688,307.7246 Z " fill="#000000"/>
        <text fill="#000000" font-family="sans-serif" font-size="14" lengthAdjust="spacing" textLength="70.3777" x="849.5" y="307.5159">source_file</text>
        <line style="stroke:#181818;stroke-width:0.5;" x1="821.5" x2="921.8777" y1="318.0839" y2="318.0839"/>
        <line style="stroke:#181818;stroke-width:0.5;" x1="821.5" x2="921.8777" y1="326.0839" y2="326.0839"/>
      </g>
    </a>
    <a href="classclanguml_1_1common_1_1model_1_1diagram.html" target="_top" title="Base class for all diagram models" xlink:actuate="onRequest" xlink:href="classclanguml_1_1common_1_1model_1_1diagram.html" xlink:show="new" xlink:title="Base class for all diagram models" xlink:type="simple">
      <g id="elem_C_0001576551882566686996">
        <rect codeLine="75" fill="#F1F1F1" height="48" id="C_0001576551882566686996" rx="2.5" ry="2.5" style="stroke:#181818;stroke-width:0.5;" width="87.4118" x="1757" y="159.0839"/>
        <ellipse cx="1772" cy="175.0839" fill="#ADD1B2" rx="11" ry="11" style="stroke:#181818;stroke-width:1.0;"/>
        <path d="M1774.9688,180.7246 Q1774.3906,181.0214 1773.75,181.1621 Q1773.1094,181.3183 1772.4063,181.3183 Q1769.9063,181.3183 1768.5781,179.6777 Q1767.2656,178.0214 1767.2656,174.8964 Q1767.2656,171.7714 1768.5781,170.1152 Q1769.9063,168.4589 1772.4063,168.4589 Q1773.1094,168.4589 1773.75,168.6152 Q1774.4063,168.7714 1774.9688,169.0683 L1774.9688,171.7871 Q1774.3438,171.2089 1773.75,170.9433 Q1773.1563,170.6621 1772.5313,170.6621 Q1771.1875,170.6621 1770.5,171.7402 Q1769.8125,172.8027 1769.8125,174.8964 Q1769.8125,176.9902 1770.5,178.0683 Q1771.1875,179.1308 1772.5313,179.1308 Q1773.1563,179.1308 1773.75,178.8652 Q1774.3438,178.5839 1774.9688,178.0058 L1774.9688,180.7246 Z " fill="#000000"/>
        <text fill="#000000" font-family="sans-serif" font-size="14" lengthAdjust="spacing" textLength="55.4118" x="1786" y="180.5159">diagram</text>
        <line style="stroke:#181818;stroke-width:0.5;" x1="1758" x2="1843.4118" y1="191.0839" y2="191.0839"/>
        <line style="stroke:#181818;stroke-width:0.5;" x1="1758" x2="1843.4118" y1="199.0839" y2="199.0839"/>
      </g>
    </a>
    <a href="classclanguml_1_1common_1_1model_1_1element__view.html" target="_top" title="element_view" xlink:actuate="onRequest" xlink:href="classclanguml_1_1common_1_1model_1_1element__view.html" xlink:show="new" xlink:title="element_view" xlink:type="simple">
      <g id="elem_C_0014290881841292490213">
        <rect codeLine="79" fill="#F1F1F1" height="48" id="C_0014290881841292490213" rx="2.5" ry="2.5" style="stroke:#181818;stroke-width:0.5;" width="131.9477" x="1879.5" y="159.0839"/>
        <ellipse cx="1894.5" cy="175.0839" fill="#ADD1B2" rx="11" ry="11" style="stroke:#181818;stroke-width:1.0;"/>
        <path d="M1897.4688,180.7246 Q1896.8906,181.0214 1896.25,181.1621 Q1895.6094,181.3183 1894.9063,181.3183 Q1892.4063,181.3183 1891.0781,179.6777 Q1889.7656,178.0214 1889.7656,174.8964 Q1889.7656,171.7714 1891.0781,170.1152 Q1892.4063,168.4589 1894.9063,168.4589 Q1895.6094,168.4589 1896.25,168.6152 Q1896.9063,168.7714 1897.4688,169.0683 L1897.4688,171.7871 Q1896.8438,171.2089 1896.25,170.9433 Q1895.6563,170.6621 1895.0313,170.6621 Q1893.6875,170.6621 1893,171.7402 Q1892.3125,172.8027 1892.3125,174.8964 Q1892.3125,176.9902 1893,178.0683 Q1893.6875,179.1308 1895.0313,179.1308 Q1895.6563,179.1308 1896.25,178.8652 Q1896.8438,178.5839 1897.4688,178.0058 L1897.4688,180.7246 Z " fill="#000000"/>
        <text fill="#000000" font-family="sans-serif" font-size="14" lengthAdjust="spacing" textLength="89.9356" x="1908.5" y="180.5159">element_view</text>
        <rect fill="#FFFFFF" height="18.3441" style="stroke:#181818;stroke-width:1.0;stroke-dasharray:2.0,2.0;" width="8.012" x="2006.4356" y="156.0839"/>
        <text fill="#000000" font-family="sans-serif" font-size="12" font-style="italic" lengthAdjust="spacing" textLength="6.012" x="2007.4356" y="169.912">T</text>
        <line style="stroke:#181818;stroke-width:0.5;" x1="1880.5" x2="2010.4477" y1="191.0839" y2="191.0839"/>
        <line style="stroke:#181818;stroke-width:0.5;" x1="1880.5" x2="2010.4477" y1="199.0839" y2="199.0839"/>
      </g>
    </a>
    <a href="classclanguml_1_1common_1_1model_1_1element__view.html" target="_top" title="element_view" xlink:actuate="onRequest" xlink:href="classclanguml_1_1common_1_1model_1_1element__view.html" xlink:show="new" xlink:title="element_view" xlink:type="simple">
      <g id="elem_C_0016060342263910724057">
        <rect codeLine="83" fill="#F1F1F1" height="48" id="C_0016060342263910724057" rx="2.5" ry="2.5" style="stroke:#181818;stroke-width:0.5;" width="137.1317" x="2013" y="50.0839"/>
        <ellipse cx="2028" cy="66.0839" fill="#ADD1B2" rx="11" ry="11" style="stroke:#181818;stroke-width:1.0;"/>
        <path d="M2030.9688,71.7246 Q2030.3906,72.0214 2029.75,72.1621 Q2029.1094,72.3183 2028.4063,72.3183 Q2025.9063,72.3183 2024.5781,70.6777 Q2023.2656,69.0214 2023.2656,65.8964 Q2023.2656,62.7714 2024.5781,61.1152 Q2025.9063,59.4589 2028.4063,59.4589 Q2029.1094,59.4589 2029.75,59.6152 Q2030.4063,59.7714 2030.9688,60.0683 L2030.9688,62.7871 Q2030.3438,62.2089 2029.75,61.9433 Q2029.1563,61.6621 2028.5313,61.6621 Q2027.1875,61.6621 2026.5,62.7402 Q2025.8125,63.8027 2025.8125,65.8964 Q2025.8125,67.9902 2026.5,69.0683 Q2027.1875,70.1308 2028.5313,70.1308 Q2029.1563,70.1308 2029.75,69.8652 Q2030.3438,69.5839 2030.9688,69.0058 L2030.9688,71.7246 Z " fill="#000000"/>
        <text fill="#000000" font-family="sans-serif" font-size="14" lengthAdjust="spacing" textLength="89.9356" x="2042" y="71.5159">element_view</text>
        <rect fill="#FFFFFF" height="18.3441" style="stroke:#181818;stroke-width:1.0;stroke-dasharray:2.0,2.0;" width="13.1961" x="2139.9356" y="47.0839"/>
        <text fill="#000000" font-family="sans-serif" font-size="12" font-style="italic" lengthAdjust="spacing" textLength="11.1961" x="2140.9356" y="60.912">Ts</text>
        <line style="stroke:#181818;stroke-width:0.5;" x1="2014" x2="2149.1317" y1="82.0839" y2="82.0839"/>
        <line style="stroke:#181818;stroke-width:0.5;" x1="2014" x2="2149.1317" y1="90.0839" y2="90.0839"/>
      </g>
    </a>
    <a href="structclanguml_1_1common_1_1model_1_1element__views.html" target="_top" title="element_views" xlink:actuate="onRequest" xlink:href="structclanguml_1_1common_1_1model_1_1element__views.html" xlink:show="new" xlink:title="element_views" xlink:type="simple">
      <g id="elem_C_0000442317801108185645">
        <rect codeLine="87" fill="#F1F1F1" height="48" id="C_0000442317801108185645" rx="2.5" ry="2.5" style="stroke:#181818;stroke-width:0.5;" width="153.0537" x="2047" y="159.0839"/>
        <ellipse cx="2062" cy="175.0839" fill="#ADD1B2" rx="11" ry="11" style="stroke:#181818;stroke-width:1.0;"/>
        <path d="M2064.9688,180.7246 Q2064.3906,181.0214 2063.75,181.1621 Q2063.1094,181.3183 2062.4063,181.3183 Q2059.9063,181.3183 2058.5781,179.6777 Q2057.2656,178.0214 2057.2656,174.8964 Q2057.2656,171.7714 2058.5781,170.1152 Q2059.9063,168.4589 2062.4063,168.4589 Q2063.1094,168.4589 2063.75,168.6152 Q2064.4063,168.7714 2064.9688,169.0683 L2064.9688,171.7871 Q2064.3438,171.2089 2063.75,170.9433 Q2063.1563,170.6621 2062.5313,170.6621 Q2061.1875,170.6621 2060.5,171.7402 Q2059.8125,172.8027 2059.8125,174.8964 Q2059.8125,176.9902 2060.5,178.0683 Q2061.1875,179.1308 2062.5313,179.1308 Q2063.1563,179.1308 2063.75,178.8652 Q2064.3438,178.5839 2064.9688,178.0058 L2064.9688,180.7246 Z " fill="#000000"/>
        <text fill="#000000" font-family="sans-serif" font-size="14" lengthAdjust="spacing" textLength="96.6416" x="2076" y="180.5159">element_views</text>
        <rect fill="#FFFFFF" height="18.3441" style="stroke:#181818;stroke-width:1.0;stroke-dasharray:2.0,2.0;" width="22.4121" x="2180.6416" y="156.0839"/>
        <text fill="#000000" font-family="sans-serif" font-size="12" font-style="italic" lengthAdjust="spacing" textLength="20.4121" x="2181.6416" y="169.912">Ts...</text>
        <line style="stroke:#181818;stroke-width:0.5;" x1="2048" x2="2199.0537" y1="191.0839" y2="191.0839"/>
        <line style="stroke:#181818;stroke-width:0.5;" x1="2048" x2="2199.0537" y1="199.0839" y2="199.0839"/>
      </g>
    </a>
    <a href="classclanguml_1_1common_1_1model_1_1nested__trait.html" target="_top" title="nested_trait" xlink:actuate="onRequest" xlink:href="classclanguml_1_1common_1_1model_1_1nested__trait.html" xlink:show="new" xlink:title="nested_trait" xlink:type="simple">
      <g id="elem_C_0015066935078142509054">
        <rect codeLine="91" fill="#F1F1F1" height="48" id="C_0015066935078142509054" rx="2.5" ry="2.5" style="stroke:#181818;stroke-width:0.5;" width="184.6462" x="1203" y="159.0839"/>
        <ellipse cx="1218" cy="175.0839" fill="#ADD1B2" rx="11" ry="11" style="stroke:#181818;stroke-width:1.0;"/>
        <path d="M1220.9688,180.7246 Q1220.3906,181.0214 1219.75,181.1621 Q1219.1094,181.3183 1218.4063,181.3183 Q1215.9063,181.3183 1214.5781,179.6777 Q1213.2656,178.0214 1213.2656,174.8964 Q1213.2656,171.7714 1214.5781,170.1152 Q1215.9063,168.4589 1218.4063,168.4589 Q1219.1094,168.4589 1219.75,168.6152 Q1220.4063,168.7714 1220.9688,169.0683 L1220.9688,171.7871 Q1220.3438,171.2089 1219.75,170.9433 Q1219.1563,170.6621 1218.5313,170.6621 Q1217.1875,170.6621 1216.5,171.7402 Q1215.8125,172.8027 1215.8125,174.8964 Q1215.8125,176.9902 1216.5,178.0683 Q1217.1875,179.1308 1218.5313,179.1308 Q1219.1563,179.1308 1219.75,178.8652 Q1220.3438,178.5839 1220.9688,178.0058 L1220.9688,180.7246 Z " fill="#000000"/>
        <text fill="#000000" font-family="sans-serif" font-size="14" lengthAdjust="spacing" textLength="78.3857" x="1232" y="180.5159">nested_trait</text>
        <rect fill="#FFFFFF" height="18.3441" style="stroke:#181818;stroke-width:1.0;stroke-dasharray:2.0,2.0;" width="72.2605" x="1318.3857" y="156.0839"/>
        <text fill="#000000" font-family="sans-serif" font-size="12" font-style="italic" lengthAdjust="spacing" textLength="70.2605" x="1319.3857" y="169.912">element,path</text>
        <line style="stroke:#181818;stroke-width:0.5;" x1="1204" x2="1386.6462" y1="191.0839" y2="191.0839"/>
        <line style="stroke:#181818;stroke-width:0.5;" x1="1204" x2="1386.6462" y1="199.0839" y2="199.0839"/>
      </g>
    </a>
    <a href="classclanguml_1_1common_1_1model_1_1package.html" target="_top" title="Diagram element representing namespace or directory package" xlink:actuate="onRequest" xlink:href="classclanguml_1_1common_1_1model_1_1package.html" xlink:show="new" xlink:title="Diagram element representing namespace or directory package" xlink:type="simple">
      <g id="elem_C_0017146293478645494837">
        <rect codeLine="95" fill="#F1F1F1" height="48" id="C_0017146293478645494837" rx="2.5" ry="2.5" style="stroke:#181818;stroke-width:0.5;" width="87.0198" x="726" y="413.0839"/>
        <ellipse cx="741" cy="429.0839" fill="#ADD1B2" rx="11" ry="11" style="stroke:#181818;stroke-width:1.0;"/>
        <path d="M743.9688,434.7246 Q743.3906,435.0214 742.75,435.1621 Q742.1094,435.3183 741.4063,435.3183 Q738.9063,435.3183 737.5781,433.6777 Q736.2656,432.0214 736.2656,428.8964 Q736.2656,425.7714 737.5781,424.1152 Q738.9063,422.4589 741.4063,422.4589 Q742.1094,422.4589 742.75,422.6152 Q743.4063,422.7714 743.9688,423.0683 L743.9688,425.7871 Q743.3438,425.2089 742.75,424.9433 Q742.1563,424.6621 741.5313,424.6621 Q740.1875,424.6621 739.5,425.7402 Q738.8125,426.8027 738.8125,428.8964 Q738.8125,430.9902 739.5,432.0683 Q740.1875,433.1308 741.5313,433.1308 Q742.1563,433.1308 742.75,432.8652 Q743.3438,432.5839 743.9688,432.0058 L743.9688,434.7246 Z " fill="#000000"/>
        <text fill="#000000" font-family="sans-serif" font-size="14" lengthAdjust="spacing" textLength="55.0198" x="755" y="434.5159">package</text>
        <line style="stroke:#181818;stroke-width:0.5;" x1="727" x2="812.0198" y1="445.0839" y2="445.0839"/>
        <line style="stroke:#181818;stroke-width:0.5;" x1="727" x2="812.0198" y1="453.0839" y2="453.0839"/>
      </g>
    </a>
    <a href="classclanguml_1_1common_1_1model_1_1diagram__filter.html" target="_top" title="Composite of all diagrams filters." xlink:actuate="onRequest" xlink:href="classclanguml_1_1common_1_1model_1_1diagram__filter.html" xlink:show="new" xlink:title="Composite of all diagrams filters." xlink:type="simple">
      <g id="elem_C_0016433125554160293965">
        <rect codeLine="99" fill="#F1F1F1" height="48" id="C_0016433125554160293965" rx="2.5" ry="2.5" style="stroke:#181818;stroke-width:0.5;" width="124.3997" x="1650.5" y="286.0839"/>
        <ellipse cx="1665.5" cy="302.0839" fill="#ADD1B2" rx="11" ry="11" style="stroke:#181818;stroke-width:1.0;"/>
        <path d="M1668.4688,307.7246 Q1667.8906,308.0214 1667.25,308.1621 Q1666.6094,308.3183 1665.9063,308.3183 Q1663.4063,308.3183 1662.0781,306.6777 Q1660.7656,305.0214 1660.7656,301.8964 Q1660.7656,298.7714 1662.0781,297.1152 Q1663.4063,295.4589 1665.9063,295.4589 Q1666.6094,295.4589 1667.25,295.6152 Q1667.9063,295.7714 1668.4688,296.0683 L1668.4688,298.7871 Q1667.8438,298.2089 1667.25,297.9433 Q1666.6563,297.6621 1666.0313,297.6621 Q1664.6875,297.6621 1664,298.7402 Q1663.3125,299.8027 1663.3125,301.8964 Q1663.3125,303.9902 1664,305.0683 Q1664.6875,306.1308 1666.0313,306.1308 Q1666.6563,306.1308 1667.25,305.8652 Q1667.8438,305.5839 1668.4688,305.0058 L1668.4688,307.7246 Z " fill="#000000"/>
        <text fill="#000000" font-family="sans-serif" font-size="14" lengthAdjust="spacing" textLength="92.3997" x="1679.5" y="307.5159">diagram_filter</text>
        <line style="stroke:#181818;stroke-width:0.5;" x1="1651.5" x2="1773.8997" y1="318.0839" y2="318.0839"/>
        <line style="stroke:#181818;stroke-width:0.5;" x1="1651.5" x2="1773.8997" y1="326.0839" y2="326.0839"/>
      </g>
    </a>
    <a href="structclanguml_1_1common_1_1model_1_1diagram__filter_1_1private__constructor__tag__t.html" target="_top" title="diagram_filter##private_constructor_tag_t" xlink:actuate="onRequest" xlink:href="structclanguml_1_1common_1_1model_1_1diagram__filter_1_1private__constructor__tag__t.html" xlink:show="new" xlink:title="diagram_filter##private_constructor_tag_t" xlink:type="simple">
      <g id="elem_C_0004875546475450307527">
        <rect codeLine="103" fill="#F1F1F1" height="48" id="C_0004875546475450307527" rx="2.5" ry="2.5" style="stroke:#181818;stroke-width:0.5;" width="299.105" x="1423" y="159.0839"/>
        <ellipse cx="1438" cy="175.0839" fill="#ADD1B2" rx="11" ry="11" style="stroke:#181818;stroke-width:1.0;"/>
        <path d="M1440.9688,180.7246 Q1440.3906,181.0214 1439.75,181.1621 Q1439.1094,181.3183 1438.4063,181.3183 Q1435.9063,181.3183 1434.5781,179.6777 Q1433.2656,178.0214 1433.2656,174.8964 Q1433.2656,171.7714 1434.5781,170.1152 Q1435.9063,168.4589 1438.4063,168.4589 Q1439.1094,168.4589 1439.75,168.6152 Q1440.4063,168.7714 1440.9688,169.0683 L1440.9688,171.7871 Q1440.3438,171.2089 1439.75,170.9433 Q1439.1563,170.6621 1438.5313,170.6621 Q1437.1875,170.6621 1436.5,171.7402 Q1435.8125,172.8027 1435.8125,174.8964 Q1435.8125,176.9902 1436.5,178.0683 Q1437.1875,179.1308 1438.5313,179.1308 Q1439.1563,179.1308 1439.75,178.8652 Q1440.3438,178.5839 1440.9688,178.0058 L1440.9688,180.7246 Z " fill="#000000"/>
        <text fill="#000000" font-family="sans-serif" font-size="14" lengthAdjust="spacing" textLength="267.105" x="1452" y="180.5159">diagram_filter::private_constructor_tag_t</text>
        <line style="stroke:#181818;stroke-width:0.5;" x1="1424" x2="1721.105" y1="191.0839" y2="191.0839"/>
        <line style="stroke:#181818;stroke-width:0.5;" x1="1424" x2="1721.105" y1="199.0839" y2="199.0839"/>
      </g>
    </a>
    <a href="classclanguml_1_1common_1_1model_1_1diagram__filter__factory.html" target="_top" title="diagram_filter_factory" xlink:actuate="onRequest" xlink:href="classclanguml_1_1common_1_1model_1_1diagram__filter__factory.html" xlink:show="new" xlink:title="diagram_filter_factory" xlink:type="simple">
      <g id="elem_C_0011768847127831739904">
        <rect codeLine="107" fill="#F1F1F1" height="48" id="C_0011768847127831739904" rx="2.5" ry="2.5" style="stroke:#181818;stroke-width:0.5;" width="176.4515" x="1624.5" y="413.0839"/>
        <ellipse cx="1639.5" cy="429.0839" fill="#ADD1B2" rx="11" ry="11" style="stroke:#181818;stroke-width:1.0;"/>
        <path d="M1642.4688,434.7246 Q1641.8906,435.0214 1641.25,435.1621 Q1640.6094,435.3183 1639.9063,435.3183 Q1637.4063,435.3183 1636.0781,433.6777 Q1634.7656,432.0214 1634.7656,428.8964 Q1634.7656,425.7714 1636.0781,424.1152 Q1637.4063,422.4589 1639.9063,422.4589 Q1640.6094,422.4589 1641.25,422.6152 Q1641.9063,422.7714 1642.4688,423.0683 L1642.4688,425.7871 Q1641.8438,425.2089 1641.25,424.9433 Q1640.6563,424.6621 1640.0313,424.6621 Q1638.6875,424.6621 1638,425.7402 Q1637.3125,426.8027 1637.3125,428.8964 Q1637.3125,430.9902 1638,432.0683 Q1638.6875,433.1308 1640.0313,433.1308 Q1640.6563,433.1308 1641.25,432.8652 Q1641.8438,432.5839 1642.4688,432.0058 L1642.4688,434.7246 Z " fill="#000000"/>
        <text fill="#000000" font-family="sans-serif" font-size="14" lengthAdjust="spacing" textLength="144.4515" x="1653.5" y="434.5159">diagram_filter_factory</text>
        <line style="stroke:#181818;stroke-width:0.5;" x1="1625.5" x2="1799.9515" y1="445.0839" y2="445.0839"/>
        <line style="stroke:#181818;stroke-width:0.5;" x1="1625.5" x2="1799.9515" y1="453.0839" y2="453.0839"/>
      </g>
    </a>
    <g id="elem_GMN57">
      <path d="M1665,60.0839 L1665,87.79 A0,0 0 0 0 1665,87.79 L1796.5,87.79 L1800.5,158.6839 L1804.5,87.79 L1935.7822,87.79 A0,0 0 0 0 1935.7822,87.79 L1935.7822,70.0839 L1925.7822,60.0839 L1665,60.0839 A0,0 0 0 0 1665,60.0839 " fill="#FEFFDD" style="stroke:#181818;stroke-width:0.5;"/>
      <path d="M1925.7822,60.0839 L1925.7822,70.0839 L1935.7822,70.0839 L1925.7822,60.0839 " fill="#FEFFDD" style="stroke:#181818;stroke-width:0.5;"/>
      <text fill="#000000" font-family="sans-serif" font-size="13" lengthAdjust="spacing" textLength="249.7822" x="1671" y="78.981">Common class for specific diagram types</text>
    </g>
    <g id="link_C_0008936819060997384951_C_0016370694070378943411">
      <path codeLine="110" d="M706.3019,99.345 C630.9919,118.795 545.28,143.3039 533.5,159.0839 C505.85,196.1239 515.58,253.9139 524.15,285.8739 " fill="none" id="C_0008936819060997384951-backto-C_0016370694070378943411" style="stroke:#181818;stroke-width:1.0;"/>
      <polygon fill="none" points="723.73,94.8439,704.8015,93.5357,707.8022,105.1544,723.73,94.8439" style="stroke:#181818;stroke-width:1.0;"/>
    </g>
    <g id="link_C_0016622768607835415521_C_0016370694070378943411">
      <path codeLine="112" d="M595.0033,221.8542 C578.6533,244.3042 564.63,263.5839 548.31,285.9939 " fill="none" id="C_0016622768607835415521-backto-C_0016370694070378943411" style="stroke:#181818;stroke-width:1.0;"/>
      <polygon fill="none" points="605.6,207.3039,590.1532,218.3219,599.8534,225.3864,605.6,207.3039" style="stroke:#181818;stroke-width:1.0;"/>
    </g>
    <g id="link_C_0008588005715032923314_C_0016370694070378943411">
      <path codeLine="114" d="M742.387,212.1665 C693.577,234.6065 630.74,263.4739 581.87,285.9339 " fill="none" id="C_0008588005715032923314-backto-C_0016370694070378943411" style="stroke:#181818;stroke-width:1.0;"/>
      <polygon fill="none" points="753.29,207.1539,746.1677,206.0259,742.387,212.1665,749.5094,213.2945,753.29,207.1539" style="stroke:#181818;stroke-width:1.0;"/>
      <rect fill="none" height="6" style="stroke:#C82930;stroke-width:1.0;" width="6" x="687.5" y="244.4369"/>
      <text fill="#000000" font-family="sans-serif" font-size="13" lengthAdjust="spacing" textLength="84.9031" x="697.5" y="251.981">relationships_</text>
    </g>
    <g id="link_C_0008936819060997384951_C_0008588005715032923314">
      <path codeLine="115" d="M803.5,116.3039 C803.5,134.2439 803.5,140.9739 803.5,158.9139 " fill="none" id="C_0008936819060997384951-backto-C_0008588005715032923314" style="stroke:#181818;stroke-width:1.0;"/>
      <polygon fill="none" points="803.5,98.3039,797.5,116.3039,809.5,116.3039,803.5,98.3039" style="stroke:#181818;stroke-width:1.0;"/>
    </g>
    <g id="link_C_0007162092657467521843_C_0008588005715032923314">
      <path codeLine="117" d="M676.509,107.4232 C707.039,125.3632 733.58,140.9739 764.09,158.9139 " fill="none" id="C_0007162092657467521843-backto-C_0008588005715032923314" style="stroke:#181818;stroke-width:1.0;"/>
      <polygon fill="none" points="660.99,98.3039,673.4692,112.5962,679.5487,102.2502,660.99,98.3039" style="stroke:#181818;stroke-width:1.0;"/>
    </g>
    <g id="link_C_0001425108501944636238_C_0006767826637291167780">
      <path codeLine="119" d="M90.5,473.3039 C90.5,495.7539 90.5,517.5839 90.5,539.9939 " fill="none" id="C_0001425108501944636238-backto-C_0006767826637291167780" style="stroke:#181818;stroke-width:1.0;"/>
      <polygon fill="none" points="90.5,461.3039,86.5,467.3039,90.5,473.3039,94.5,467.3039,90.5,461.3039" style="stroke:#181818;stroke-width:1.0;"/>
      <rect fill="none" height="6" style="stroke:#C82930;stroke-width:1.0;" width="6" x="93.5" y="498.4369"/>
      <text fill="#000000" font-family="sans-serif" font-size="13" lengthAdjust="spacing" textLength="51.506" x="103.5" y="505.981">context_</text>
    </g>
    <g id="link_C_0001425108501944636238_C_0001425108501944636238">
      <path codeLine="120" d="M186.0882,426.1961 C206.1382,427.0861 209,430.3639 209,437.0839 C209,443.8039 194.15,447.6139 174.1,448.5039 " fill="none" id="C_0001425108501944636238-backto-C_0001425108501944636238" style="stroke:#181818;stroke-width:1.0;"/>
      <polygon fill="none" points="174.1,425.6639,179.9167,429.9261,186.0882,426.1961,180.2715,421.9339,174.1,425.6639" style="stroke:#181818;stroke-width:1.0;"/>
      <rect fill="none" height="6" style="stroke:#C82930;stroke-width:1.0;" width="6" x="217" y="434.9369"/>
      <text fill="#000000" font-family="sans-serif" font-size="13" lengthAdjust="spacing" textLength="112.7231" x="227" y="442.481">template_params_</text>
    </g>
    <g id="link_C_0016556163051475263500_C_0006758698337325774198">
      <path codeLine="121" d="M663.4243,346.2843 C662.8943,355.5443 662.98,354.3239 662.5,364.0839 C661.7,380.4539 660.93,398.9239 660.37,413.0539 " fill="none" id="C_0016556163051475263500-backto-C_0006758698337325774198" style="stroke:#181818;stroke-width:1.0;"/>
      <polygon fill="none" points="664.11,334.3039,659.7737,340.0656,663.4243,346.2843,667.7606,340.5227,664.11,334.3039" style="stroke:#181818;stroke-width:1.0;"/>
      <rect fill="none" height="6" style="stroke:#C82930;stroke-width:1.0;" width="6" x="665.5" y="371.4369"/>
      <text fill="#000000" font-family="sans-serif" font-size="13" lengthAdjust="spacing" textLength="20.033" x="675.5" y="378.981">ns_</text>
    </g>
    <g id="link_C_0016556163051475263500_C_0006758698337325774198">
      <path codeLine="122" d="M611.1646,331.6055 C570.0646,347.1355 525.59,363.9539 525.5,364.0839 C497.66,404.3939 580.52,424.0939 628.28,431.8839 " fill="none" id="C_0016556163051475263500-backto-C_0006758698337325774198-1" style="stroke:#181818;stroke-width:1.0;"/>
      <polygon fill="none" points="622.39,327.3639,615.3635,325.743,611.1646,331.6055,618.1912,333.2265,622.39,327.3639" style="stroke:#181818;stroke-width:1.0;"/>
      <rect fill="none" height="6" style="stroke:#C82930;stroke-width:1.0;" width="6" x="528.5" y="371.4369"/>
      <text fill="#000000" font-family="sans-serif" font-size="13" lengthAdjust="spacing" textLength="115.0891" x="538.5" y="378.981">using_namespace_</text>
    </g>
    <g id="link_C_0008588005715032923314_C_0016556163051475263500">
      <path codeLine="123" d="M825.7606,223.5369 C833.0906,238.6369 830.66,241.8739 820.5,256.0839 C795.28,291.3639 745.1,303.4239 708.65,307.4039 " fill="none" id="C_0008588005715032923314-backto-C_0016556163051475263500" style="stroke:#181818;stroke-width:1.0;"/>
      <polygon fill="none" points="817.9,207.3439,820.3629,226.1571,831.1582,220.9167,817.9,207.3439" style="stroke:#181818;stroke-width:1.0;"/>
    </g>
    <g id="link_C_0003717723700041732716_C_0001425108501944636238">
      <path codeLine="125" d="M280.393,339.5921 C236.253,362.0321 180.26,390.4739 136.06,412.9339 " fill="none" id="C_0003717723700041732716-backto-C_0001425108501944636238" style="stroke:#181818;stroke-width:1.0;"/>
      <polygon fill="none" points="291.09,334.1539,283.9288,333.3074,280.393,339.5921,287.5542,340.4387,291.09,334.1539" style="stroke:#181818;stroke-width:1.0;"/>
      <rect fill="none" height="6" style="stroke:#C82930;stroke-width:1.0;" width="6" x="231.5" y="371.4369"/>
      <text fill="#000000" font-family="sans-serif" font-size="13" lengthAdjust="spacing" textLength="66.8461" x="241.5" y="378.981">templates_</text>
    </g>
    <g id="link_C_0016556163051475263500_C_0013384831159811298387">
      <path codeLine="126" d="M605.3837,333.8971 C599.4237,336.0971 610.27,332.0539 604.5,334.0839 C563.92,348.3439 549.31,341.8439 512.5,364.0839 C491.17,376.9639 471.19,397.0839 457.38,412.7839 " fill="none" id="C_0016556163051475263500-backto-C_0013384831159811298387" style="stroke:#181818;stroke-width:1.0;"/>
      <polygon fill="none" points="622.27,327.6639,603.306,328.2684,607.4614,339.5259,622.27,327.6639" style="stroke:#181818;stroke-width:1.0;"/>
    </g>
    <g id="link_C_0003717723700041732716_C_0013384831159811298387">
      <path codeLine="128" d="M366.8303,348.2498 C385.1503,370.6998 401.37,390.5839 419.66,412.9939 " fill="none" id="C_0003717723700041732716-backto-C_0013384831159811298387" style="stroke:#181818;stroke-width:1.0;"/>
      <polygon fill="none" points="355.45,334.3039,362.1817,352.0433,371.479,344.4564,355.45,334.3039" style="stroke:#181818;stroke-width:1.0;"/>
    </g>
    <g id="link_C_0012891720332235399601_C_0007129669985754476498">
      <path codeLine="130" d="M1058.15,207.3039 C1075.21,229.7539 1090.0291,249.2525 1107.0591,271.6625 " fill="none" id="C_0012891720332235399601-to-C_0007129669985754476498" style="stroke:#181818;stroke-width:1.0;stroke-dasharray:7.0,7.0;"/>
      <polygon fill="none" points="1117.95,285.9939,1111.8363,268.0322,1102.282,275.2928,1117.95,285.9939" style="stroke:#181818;stroke-width:1.0;"/>
    </g>
    <g id="link_C_0006285717704576425038_C_0006758698337325774198">
      <path codeLine="131" d="M821.7826,340.398 C780.9526,364.468 728.28,395.5339 690.74,417.6639 " fill="none" id="C_0006285717704576425038-backto-C_0006758698337325774198" style="stroke:#181818;stroke-width:1.0;"/>
      <polygon fill="none" points="832.12,334.3039,824.9199,333.9052,821.7826,340.398,828.9827,340.7968,832.12,334.3039" style="stroke:#181818;stroke-width:1.0;"/>
      <rect fill="none" height="6" style="stroke:#C82930;stroke-width:1.0;" width="6" x="781.5" y="371.4369"/>
      <text fill="#000000" font-family="sans-serif" font-size="13" lengthAdjust="spacing" textLength="33.787" x="791.5" y="378.981">path_</text>
    </g>
    <g id="link_C_0008588005715032923314_C_0006285717704576425038">
      <path codeLine="132" d="M850.1705,219.1009 C859.6905,227.4109 855.53,225.7339 861.5,237.0839 C869.37,252.0539 871.74,271.0739 872.21,285.8139 " fill="none" id="C_0008588005715032923314-backto-C_0006285717704576425038" style="stroke:#181818;stroke-width:1.0;"/>
      <polygon fill="none" points="836.61,207.2639,846.2248,223.621,854.1161,214.5807,836.61,207.2639" style="stroke:#181818;stroke-width:1.0;"/>
    </g>
    <g id="link_C_0016622768607835415521_C_0006285717704576425038">
      <path codeLine="134" d="M647.9562,222.0112 C659.3362,237.9112 665.86,243.6339 685.5,256.0839 C688.45,257.9539 766.24,279.8139 820.28,294.8639 " fill="none" id="C_0016622768607835415521-backto-C_0006285717704576425038" style="stroke:#181818;stroke-width:1.0;"/>
      <polygon fill="none" points="637.48,207.3739,643.0771,225.5033,652.8353,218.5191,637.48,207.3739" style="stroke:#181818;stroke-width:1.0;"/>
    </g>
    <g id="link_C_0012891720332235399601_C_0006285717704576425038">
      <path codeLine="136" d="M994.6371,218.0061 C964.2771,240.4561 933.02,263.5839 902.72,285.9939 " fill="none" id="C_0012891720332235399601-backto-C_0006285717704576425038" style="stroke:#181818;stroke-width:1.0;"/>
      <polygon fill="none" points="1009.11,207.3039,991.0697,213.1818,998.2045,222.8304,1009.11,207.3039" style="stroke:#181818;stroke-width:1.0;"/>
    </g>
    <g id="link_C_0001576551882566686996_C_0016433125554160293965">
      <path codeLine="138" d="M1745.7857,203.4853 C1727.8357,211.7753 1719.8,219.1739 1709.5,237.0839 C1701.08,251.7239 1702.38,270.9439 1705.48,285.8439 " fill="none" id="C_0001576551882566686996-backto-C_0016433125554160293965" style="stroke:#181818;stroke-width:1.0;"/>
      <polygon fill="none" points="1756.68,198.4539,1749.5557,197.3382,1745.7857,203.4853,1752.91,204.6011,1756.68,198.4539" style="stroke:#181818;stroke-width:1.0;"/>
      <rect fill="none" height="6" style="stroke:#C82930;stroke-width:1.0;" width="6" x="1712.5" y="244.4369"/>
      <text fill="#000000" font-family="sans-serif" font-size="13" lengthAdjust="spacing" textLength="34.346" x="1722.5" y="251.981">filter_</text>
    </g>
    <g id="link_C_0016433125554160293965_C_0001576551882566686996">
      <path codeLine="149" d="M1736.28,285.9039 C1744.77,277.0039 1754.06,266.4739 1761.5,256.0839 C1772.51,240.7139 1779.9508,227.2574 1787.1108,212.7074 " fill="none" id="C_0016433125554160293965-to-C_0001576551882566686996" style="stroke:#181818;stroke-width:1.0;"/>
      <polygon fill="#181818" points="1789.76,207.3239,1782.1972,213.633,1787.5523,211.8102,1789.3752,217.1653,1789.76,207.3239" style="stroke:#181818;stroke-width:1.0;"/>
      <rect fill="none" height="6" style="stroke:#C82930;stroke-width:1.0;" width="6" x="1777.5" y="244.4369"/>
      <text fill="#000000" font-family="sans-serif" font-size="13" lengthAdjust="spacing" textLength="57.226" x="1787.5" y="251.981">diagram_</text>
    </g>
    <g id="link_C_0016060342263910724057_C_0014290881841292490213">
      <path codeLine="139" d="M2051.99,98.3039 C2029.18,116.2439 2011.896,129.8433 1989.096,147.7833 " fill="none" id="C_0016060342263910724057-to-C_0014290881841292490213" style="stroke:#181818;stroke-width:1.0;stroke-dasharray:7.0,7.0;"/>
      <polygon fill="none" points="1974.95,158.9139,1992.8062,152.4986,1985.3858,143.068,1974.95,158.9139" style="stroke:#181818;stroke-width:1.0;"/>
    </g>
    <g id="link_C_0016060342263910724057_C_0000442317801108185645">
      <path codeLine="140" d="M2097.1935,115.0568 C2104.2435,132.9968 2107.36,140.9739 2114.4,158.9139 " fill="none" id="C_0016060342263910724057-backto-C_0000442317801108185645" style="stroke:#181818;stroke-width:1.0;"/>
      <polygon fill="none" points="2090.61,98.3039,2091.6092,117.2513,2102.7778,112.8623,2090.61,98.3039" style="stroke:#181818;stroke-width:1.0;"/>
    </g>
    <g id="link_C_0015066935078142509054_C_0007129669985754476498">
      <path codeLine="142" d="M1265.78,207.3039 C1237.04,229.7539 1207.9354,252.5036 1179.2454,274.9136 " fill="none" id="C_0015066935078142509054-to-C_0007129669985754476498" style="stroke:#181818;stroke-width:1.0;stroke-dasharray:7.0,7.0;"/>
      <polygon fill="none" points="1165.06,285.9939,1182.9389,279.6421,1175.552,270.1851,1165.06,285.9939" style="stroke:#181818;stroke-width:1.0;"/>
    </g>
    <g id="link_C_0016556163051475263500_C_0017146293478645494837">
      <path codeLine="143" d="M696.333,348.1405 C715.013,370.5905 731.64,390.5839 750.29,412.9939 " fill="none" id="C_0016556163051475263500-backto-C_0017146293478645494837" style="stroke:#181818;stroke-width:1.0;"/>
      <polygon fill="none" points="684.82,334.3039,691.7208,351.9782,700.9452,344.3028,684.82,334.3039" style="stroke:#181818;stroke-width:1.0;"/>
    </g>
    <g id="link_C_0016622768607835415521_C_0017146293478645494837">
      <path codeLine="145" d="M633.7668,224.2437 C638.7268,239.8037 641.82,242.7339 655.5,256.0839 C679.73,279.7139 703.04,260.7639 725.5,286.0839 C757.56,322.2239 766.31,380.6239 768.66,412.8539 " fill="none" id="C_0016622768607835415521-backto-C_0017146293478645494837" style="stroke:#181818;stroke-width:1.0;"/>
      <polygon fill="none" points="628.3,207.0939,628.0502,226.066,639.4834,222.4215,628.3,207.0939" style="stroke:#181818;stroke-width:1.0;"/>
    </g>
    <g id="link_C_0015066935078142509054_C_0017146293478645494837">
      <path codeLine="147" d="M1287.7622,224.9358 C1280.7222,258.2858 1266.63,301.6539 1226.5,334.0839 C1162.56,385.7539 914.41,419.4439 813.02,431.3139 " fill="none" id="C_0015066935078142509054-backto-C_0017146293478645494837" style="stroke:#181818;stroke-width:1.0;"/>
      <polygon fill="none" points="1291.48,207.3239,1281.8916,223.6966,1293.6329,226.1751,1291.48,207.3239" style="stroke:#181818;stroke-width:1.0;"/>
    </g>
    <g id="link_C_0016433125554160293965_C_0011768847127831739904">
      <path codeLine="150" d="M1712.5,340.3039 C1712.5,362.7539 1712.5,390.5839 1712.5,412.9939 " fill="none" id="C_0016433125554160293965-backto-C_0011768847127831739904" style="stroke:#181818;stroke-width:1.0;stroke-dasharray:7.0,7.0;"/>
      <polygon fill="#181818" points="1712.5,334.3039,1708.5,343.3039,1712.5,339.3039,1716.5,343.3039,1712.5,334.3039" style="stroke:#181818;stroke-width:1.0;"/>
      <ellipse cx="1718.5" cy="374.4369" fill="none" rx="3" ry="3" style="stroke:#038048;stroke-width:1.0;"/>
      <text fill="#000000" font-family="sans-serif" font-size="13" lengthAdjust="spacing" textLength="49.79" x="1725.5" y="378.981">friend</text>
    </g>
    <g id="link_C_0004875546475450307527_C_0016433125554160293965">
      <path codeLine="151" d="M1598.5,207.3039 C1623.65,229.7539 1649.6069,252.9255 1674.6969,275.3355 " fill="none" id="C_0004875546475450307527-to-C_0016433125554160293965" style="stroke:#181818;stroke-width:1.0;"/>
      <ellipse cx="1680.6635" cy="280.6647" fill="#FFFFFF" rx="8" ry="8" style="stroke:#181818;stroke-width:1.0;"/>
      <line style="stroke:#181818;stroke-width:1.0;" x1="1674.6969" x2="1686.63" y1="275.3355" y2="285.9939"/>
      <line style="stroke:#181818;stroke-width:1.0;" x1="1685.9927" x2="1675.3343" y1="274.6982" y2="286.6313"/>
    </g>
  </g>
</svg>
