<svg xmlns="http://www.w3.org/2000/svg" xmlns:xlink="http://www.w3.org/1999/xlink" contentScriptType="application/ecmascript" contentStyleType="text/css" height="195px" preserveAspectRatio="none" style="width:610px;height:195px;" version="1.1" viewBox="0 0 610 195" width="610px" zoomAndPan="magnify">
  <defs>
    <filter height="300%" id="f1cq1ubyts3kev" width="300%" x="-1" y="-1">
      <feGaussianBlur result="blurOut" stdDeviation="2.0"/>
      <feColorMatrix in="blurOut" result="blurOut2" type="matrix" values="0 0 0 0 0 0 0 0 0 0 0 0 0 0 0 0 0 0 .4 0"/>
      <feOffset dx="4.0" dy="4.0" in="blurOut2" result="blurOut3"/>
      <feBlend in="SourceGraphic" in2="blurOut3" mode="normal"/>
    </filter>
    <style type="text/css">a:hover { text-decoration: underline; }</style>
  </defs>
  <g>
    <text fill="#000000" font-family="sans-serif" font-size="18" lengthAdjust="spacingAndGlyphs" textLength="284" x="166.5" y="16.708">Comment visitor class hierarchy</text>
    <a href="classclanguml_1_1common_1_1visitor_1_1comment_1_1comment__visitor.html" target="_top" title="Base class for comment visitors" xlink:actuate="onRequest" xlink:href="classclanguml_1_1common_1_1visitor_1_1comment_1_1comment__visitor.html" xlink:show="new" xlink:title="Base class for comment visitors" xlink:type="simple">
      <rect fill="#FEFECE" filter="url(#f1cq1ubyts3kev)" height="48" id="C_0000112824866232232463" style="stroke: #A80036; stroke-width: 1.5;" width="305" x="151" y="28.9531"/>
      <ellipse cx="166" cy="44.9531" fill="#ADD1B2" rx="11" ry="11" style="stroke: #A80036; stroke-width: 1.0;"/>
      <path d="M168.9688,50.5938 Q168.3906,50.8906 167.75,51.0313 Q167.1094,51.1875 166.4063,51.1875 Q163.9063,51.1875 162.5781,49.5469 Q161.2656,47.8906 161.2656,44.7656 Q161.2656,41.6406 162.5781,39.9844 Q163.9063,38.3281 166.4063,38.3281 Q167.1094,38.3281 167.75,38.4844 Q168.4063,38.6406 168.9688,38.9375 L168.9688,41.6563 Q168.3438,41.0781 167.75,40.8125 Q167.1563,40.5313 166.5313,40.5313 Q165.1875,40.5313 164.5,41.6094 Q163.8125,42.6719 163.8125,44.7656 Q163.8125,46.8594 164.5,47.9375 Q165.1875,49 166.5313,49 Q167.1563,49 167.75,48.7344 Q168.3438,48.4531 168.9688,47.875 L168.9688,50.5938 Z "/>
      <text fill="#000000" font-family="sans-serif" font-size="12" lengthAdjust="spacingAndGlyphs" textLength="273" x="180" y="49.1074">common::visitor::comment::comment_visitor</text>
      <line style="stroke: #A80036; stroke-width: 1.5;" x1="152" x2="455" y1="60.9531" y2="60.9531"/>
      <line style="stroke: #A80036; stroke-width: 1.5;" x1="152" x2="455" y1="68.9531" y2="68.9531"/>
    </a>
    <a href="classclanguml_1_1common_1_1visitor_1_1comment_1_1clang__visitor.html" target="_top" title="Uses Clang's comment parser to extract Doxygen-style comment blocks." xlink:actuate="onRequest" xlink:href="classclanguml_1_1common_1_1visitor_1_1comment_1_1clang__visitor.html" xlink:show="new" xlink:title="Uses Clang's comment parser to extract Doxygen-style comment blocks." xlink:type="simple">
      <rect fill="#FEFECE" filter="url(#f1cq1ubyts3kev)" height="48" id="C_0000311729333045621056" style="stroke: #A80036; stroke-width: 1.5;" width="281" x="6" y="136.9531"/>
      <ellipse cx="21" cy="152.9531" fill="#ADD1B2" rx="11" ry="11" style="stroke: #A80036; stroke-width: 1.0;"/>
      <path d="M23.9688,158.5938 Q23.3906,158.8906 22.75,159.0313 Q22.1094,159.1875 21.4063,159.1875 Q18.9063,159.1875 17.5781,157.5469 Q16.2656,155.8906 16.2656,152.7656 Q16.2656,149.6406 17.5781,147.9844 Q18.9063,146.3281 21.4063,146.3281 Q22.1094,146.3281 22.75,146.4844 Q23.4063,146.6406 23.9688,146.9375 L23.9688,149.6563 Q23.3438,149.0781 22.75,148.8125 Q22.1563,148.5313 21.5313,148.5313 Q20.1875,148.5313 19.5,149.6094 Q18.8125,150.6719 18.8125,152.7656 Q18.8125,154.8594 19.5,155.9375 Q20.1875,157 21.5313,157 Q22.1563,157 22.75,156.7344 Q23.3438,156.4531 23.9688,155.875 L23.9688,158.5938 Z "/>
      <text fill="#000000" font-family="sans-serif" font-size="12" lengthAdjust="spacingAndGlyphs" textLength="249" x="35" y="157.1074">common::visitor::comment::clang_visitor</text>
      <line style="stroke: #A80036; stroke-width: 1.5;" x1="7" x2="286" y1="168.9531" y2="168.9531"/>
      <line style="stroke: #A80036; stroke-width: 1.5;" x1="7" x2="286" y1="176.9531" y2="176.9531"/>
    </a>
    <a href="classclanguml_1_1common_1_1visitor_1_1comment_1_1plain__visitor.html" target="_top" title="Plain comment visitor which extracts raw and formatted comment." xlink:actuate="onRequest" xlink:href="classclanguml_1_1common_1_1visitor_1_1comment_1_1plain__visitor.html" xlink:show="new" xlink:title="Plain comment visitor which extracts raw and formatted comment." xlink:type="simple">
      <rect fill="#FEFECE" filter="url(#f1cq1ubyts3kev)" height="48" id="C_0000744033767562618314" style="stroke: #A80036; stroke-width: 1.5;" width="277" x="322" y="136.9531"/>
      <ellipse cx="337" cy="152.9531" fill="#ADD1B2" rx="11" ry="11" style="stroke: #A80036; stroke-width: 1.0;"/>
      <path d="M339.9688,158.5938 Q339.3906,158.8906 338.75,159.0313 Q338.1094,159.1875 337.4063,159.1875 Q334.9063,159.1875 333.5781,157.5469 Q332.2656,155.8906 332.2656,152.7656 Q332.2656,149.6406 333.5781,147.9844 Q334.9063,146.3281 337.4063,146.3281 Q338.1094,146.3281 338.75,146.4844 Q339.4063,146.6406 339.9688,146.9375 L339.9688,149.6563 Q339.3438,149.0781 338.75,148.8125 Q338.1563,148.5313 337.5313,148.5313 Q336.1875,148.5313 335.5,149.6094 Q334.8125,150.6719 334.8125,152.7656 Q334.8125,154.8594 335.5,155.9375 Q336.1875,157 337.5313,157 Q338.1563,157 338.75,156.7344 Q339.3438,156.4531 339.9688,155.875 L339.9688,158.5938 Z "/>
      <text fill="#000000" font-family="sans-serif" font-size="12" lengthAdjust="spacingAndGlyphs" textLength="245" x="351" y="157.1074">common::visitor::comment::plain_visitor</text>
      <line style="stroke: #A80036; stroke-width: 1.5;" x1="323" x2="598" y1="168.9531" y2="168.9531"/>
      <line style="stroke: #A80036; stroke-width: 1.5;" x1="323" x2="598" y1="176.9531" y2="176.9531"/>
    </a>
    <path d="M252.73,88.2331 C229.19,104.1231 201.83,122.6031 180.77,136.8131 " fill="none" id="C_0000112824866232232463&lt;-C_0000311729333045621056" style="stroke: #A80036; stroke-width: 1.0;"/>
    <polygon fill="none" points="248.94,82.3431,269.43,76.9531,256.77,93.9431,248.94,82.3431" style="stroke: #A80036; stroke-width: 1.0;"/>
    <path d="M354.27,88.2331 C377.81,104.1231 405.17,122.6031 426.23,136.8131 " fill="none" id="C_0000112824866232232463&lt;-C_0000744033767562618314" style="stroke: #A80036; stroke-width: 1.0;"/>
    <polygon fill="none" points="350.23,93.9431,337.57,76.9531,358.06,82.3431,350.23,93.9431" style="stroke: #A80036; stroke-width: 1.0;"/>
  </g>
</svg>
