<svg xmlns="http://www.w3.org/2000/svg" xmlns:xlink="http://www.w3.org/1999/xlink" contentStyleType="text/css" height="210px" preserveAspectRatio="none" style="width:642px;height:210px;background:#FFFFFF;" version="1.1" viewBox="0 0 642 210" width="642px" zoomAndPan="magnify">
  <title>Comment visitor class hierarchy</title>
  <defs>
    <style type="text/css">a:hover { text-decoration: underline; }</style>
  </defs>
  <g>
    <text fill="#000000" font-family="sans-serif" font-size="14" font-weight="bold" lengthAdjust="spacing" textLength="225.2171" x="201.8089" y="24.9659">Comment visitor class hierarchy</text>
    <a href="classclanguml_1_1common_1_1visitor_1_1comment_1_1comment__visitor.html" target="_top" title="Base class for comment visitors" xlink:actuate="onRequest" xlink:href="classclanguml_1_1common_1_1visitor_1_1comment_1_1comment__visitor.html" xlink:show="new" xlink:title="Base class for comment visitors" xlink:type="simple">
      <g id="elem_C_0000902598929857859706">
        <rect codeLine="3" fill="#F1F1F1" height="48" id="C_0000902598929857859706" rx="2.5" ry="2.5" style="stroke:#181818;stroke-width:0.5;" width="325.8589" x="157.5" y="47.0679"/>
        <ellipse cx="172.5" cy="63.0679" fill="#ADD1B2" rx="11" ry="11" style="stroke:#181818;stroke-width:1.0;"/>
        <path d="M175.4688,68.7085 Q174.8906,69.0054 174.25,69.146 Q173.6094,69.3023 172.9063,69.3023 Q170.4063,69.3023 169.0781,67.6617 Q167.7656,66.0054 167.7656,62.8804 Q167.7656,59.7554 169.0781,58.0992 Q170.4063,56.4429 172.9063,56.4429 Q173.6094,56.4429 174.25,56.5992 Q174.9063,56.7554 175.4688,57.0523 L175.4688,59.771 Q174.8438,59.1929 174.25,58.9273 Q173.6563,58.646 173.0313,58.646 Q171.6875,58.646 171,59.7242 Q170.3125,60.7867 170.3125,62.8804 Q170.3125,64.9742 171,66.0523 Q171.6875,67.1148 173.0313,67.1148 Q173.6563,67.1148 174.25,66.8492 Q174.8438,66.5679 175.4688,65.9898 L175.4688,68.7085 Z " fill="#000000"/>
        <text fill="#000000" font-family="sans-serif" font-size="14" lengthAdjust="spacing" textLength="293.8589" x="186.5" y="68.4999">common::visitor::comment::comment_visitor</text>
        <line style="stroke:#181818;stroke-width:0.5;" x1="158.5" x2="482.3589" y1="79.0679" y2="79.0679"/>
        <line style="stroke:#181818;stroke-width:0.5;" x1="158.5" x2="482.3589" y1="87.0679" y2="87.0679"/>
      </g>
    </a>
    <a href="classclanguml_1_1common_1_1visitor_1_1comment_1_1plain__visitor.html" target="_top" title="Plain comment visitor which extracts raw and formatted comment." xlink:actuate="onRequest" xlink:href="classclanguml_1_1common_1_1visitor_1_1comment_1_1plain__visitor.html" xlink:show="new" xlink:title="Plain comment visitor which extracts raw and formatted comment." xlink:type="simple">
      <g id="elem_C_0005952270140500946513">
        <rect codeLine="7" fill="#F1F1F1" height="48" id="C_0005952270140500946513" rx="2.5" ry="2.5" style="stroke:#181818;stroke-width:0.5;" width="295.227" x="7" y="155.0679"/>
        <ellipse cx="22" cy="171.0679" fill="#ADD1B2" rx="11" ry="11" style="stroke:#181818;stroke-width:1.0;"/>
        <path d="M24.9688,176.7085 Q24.3906,177.0054 23.75,177.146 Q23.1094,177.3023 22.4063,177.3023 Q19.9063,177.3023 18.5781,175.6617 Q17.2656,174.0054 17.2656,170.8804 Q17.2656,167.7554 18.5781,166.0992 Q19.9063,164.4429 22.4063,164.4429 Q23.1094,164.4429 23.75,164.5992 Q24.4063,164.7554 24.9688,165.0523 L24.9688,167.771 Q24.3438,167.1929 23.75,166.9273 Q23.1563,166.646 22.5313,166.646 Q21.1875,166.646 20.5,167.7242 Q19.8125,168.7867 19.8125,170.8804 Q19.8125,172.9742 20.5,174.0523 Q21.1875,175.1148 22.5313,175.1148 Q23.1563,175.1148 23.75,174.8492 Q24.3438,174.5679 24.9688,173.9898 L24.9688,176.7085 Z " fill="#000000"/>
        <text fill="#000000" font-family="sans-serif" font-size="14" lengthAdjust="spacing" textLength="263.227" x="36" y="176.4999">common::visitor::comment::plain_visitor</text>
        <line style="stroke:#181818;stroke-width:0.5;" x1="8" x2="301.227" y1="187.0679" y2="187.0679"/>
        <line style="stroke:#181818;stroke-width:0.5;" x1="8" x2="301.227" y1="195.0679" y2="195.0679"/>
      </g>
    </a>
    <a href="classclanguml_1_1common_1_1visitor_1_1comment_1_1clang__visitor.html" target="_top" title="Uses Clang's comment parser to extract Doxygen-style comment blocks." xlink:actuate="onRequest" xlink:href="classclanguml_1_1common_1_1visitor_1_1comment_1_1clang__visitor.html" xlink:show="new" xlink:title="Uses Clang's comment parser to extract Doxygen-style comment blocks." xlink:type="simple">
      <g id="elem_C_0002493834664364968455">
        <rect codeLine="11" fill="#F1F1F1" height="48" id="C_0002493834664364968455" rx="2.5" ry="2.5" style="stroke:#181818;stroke-width:0.5;" width="298.335" x="337.5" y="155.0679"/>
        <ellipse cx="352.5" cy="171.0679" fill="#ADD1B2" rx="11" ry="11" style="stroke:#181818;stroke-width:1.0;"/>
        <path d="M355.4688,176.7085 Q354.8906,177.0054 354.25,177.146 Q353.6094,177.3023 352.9063,177.3023 Q350.4063,177.3023 349.0781,175.6617 Q347.7656,174.0054 347.7656,170.8804 Q347.7656,167.7554 349.0781,166.0992 Q350.4063,164.4429 352.9063,164.4429 Q353.6094,164.4429 354.25,164.5992 Q354.9063,164.7554 355.4688,165.0523 L355.4688,167.771 Q354.8438,167.1929 354.25,166.9273 Q353.6563,166.646 353.0313,166.646 Q351.6875,166.646 351,167.7242 Q350.3125,168.7867 350.3125,170.8804 Q350.3125,172.9742 351,174.0523 Q351.6875,175.1148 353.0313,175.1148 Q353.6563,175.1148 354.25,174.8492 Q354.8438,174.5679 355.4688,173.9898 L355.4688,176.7085 Z " fill="#000000"/>
        <text fill="#000000" font-family="sans-serif" font-size="14" lengthAdjust="spacing" textLength="266.335" x="366.5" y="176.4999">common::visitor::comment::clang_visitor</text>
        <line style="stroke:#181818;stroke-width:0.5;" x1="338.5" x2="634.835" y1="187.0679" y2="187.0679"/>
        <line style="stroke:#181818;stroke-width:0.5;" x1="338.5" x2="634.835" y1="195.0679" y2="195.0679"/>
      </g>
    </a>
    <g id="link_C_0000902598929857859706_C_0005952270140500946513">
      <path codeLine="14" d="M269.3092,104.7554 C241.5592,122.4754 218.54,137.1779 190.74,154.9279 " fill="none" id="C_0000902598929857859706-backto-C_0005952270140500946513" style="stroke:#181818;stroke-width:1.0;"/>
      <polygon fill="none" points="284.48,95.0679,266.08,99.6984,272.5383,109.8123,284.48,95.0679" style="stroke:#181818;stroke-width:1.0;"/>
    </g>
    <g id="link_C_0000902598929857859706_C_0002493834664364968455">
      <path codeLine="16" d="M371.6908,104.7554 C399.4408,122.4754 422.46,137.1779 450.26,154.9279 " fill="none" id="C_0000902598929857859706-backto-C_0002493834664364968455" style="stroke:#181818;stroke-width:1.0;"/>
      <polygon fill="none" points="356.52,95.0679,368.4617,109.8123,374.92,99.6984,356.52,95.0679" style="stroke:#181818;stroke-width:1.0;"/>
    </g>
  </g>
</svg>
