<svg xmlns="http://www.w3.org/2000/svg" xmlns:xlink="http://www.w3.org/1999/xlink" contentScriptType="application/ecmascript" contentStyleType="text/css" height="462px" preserveAspectRatio="none" style="width:1393px;height:462px;" version="1.1" viewBox="0 0 1393 462" width="1393px" zoomAndPan="magnify">
  <defs>
    <filter height="300%" id="fu5w3pguwk3vq" width="300%" x="-1" y="-1">
      <feGaussianBlur result="blurOut" stdDeviation="2.0"/>
      <feColorMatrix in="blurOut" result="blurOut2" type="matrix" values="0 0 0 0 0 0 0 0 0 0 0 0 0 0 0 0 0 0 .4 0"/>
      <feOffset dx="4.0" dy="4.0" in="blurOut2" result="blurOut3"/>
      <feBlend in="SourceGraphic" in2="blurOut3" mode="normal"/>
    </filter>
    <style type="text/css">a:hover { text-decoration: underline; }</style>
  </defs>
  <g>
    <text fill="#000000" font-family="sans-serif" font-size="18" lengthAdjust="spacingAndGlyphs" textLength="219" x="590" y="16.708">Common diagram model</text>
    <a href="classclanguml_1_1common_1_1model_1_1decorated__element.html" target="_top" title="Base class for decorated diagram elements" xlink:actuate="onRequest" xlink:href="classclanguml_1_1common_1_1model_1_1decorated__element.html" xlink:show="new" xlink:title="Base class for decorated diagram elements" xlink:type="simple">
      <rect fill="#FEFECE" filter="url(#fu5w3pguwk3vq)" height="48" id="C_0001117102382624673118" style="stroke: #A80036; stroke-width: 1.5;" width="154" x="454" y="28.9531"/>
      <ellipse cx="469" cy="44.9531" fill="#ADD1B2" rx="11" ry="11" style="stroke: #A80036; stroke-width: 1.0;"/>
      <path d="M471.9688,50.5938 Q471.3906,50.8906 470.75,51.0313 Q470.1094,51.1875 469.4063,51.1875 Q466.9063,51.1875 465.5781,49.5469 Q464.2656,47.8906 464.2656,44.7656 Q464.2656,41.6406 465.5781,39.9844 Q466.9063,38.3281 469.4063,38.3281 Q470.1094,38.3281 470.75,38.4844 Q471.4063,38.6406 471.9688,38.9375 L471.9688,41.6563 Q471.3438,41.0781 470.75,40.8125 Q470.1563,40.5313 469.5313,40.5313 Q468.1875,40.5313 467.5,41.6094 Q466.8125,42.6719 466.8125,44.7656 Q466.8125,46.8594 467.5,47.9375 Q468.1875,49 469.5313,49 Q470.1563,49 470.75,48.7344 Q471.3438,48.4531 471.9688,47.875 L471.9688,50.5938 Z "/>
      <text fill="#000000" font-family="sans-serif" font-size="12" lengthAdjust="spacingAndGlyphs" textLength="122" x="483" y="49.1074">decorated_element</text>
      <line style="stroke: #A80036; stroke-width: 1.5;" x1="455" x2="607" y1="60.9531" y2="60.9531"/>
      <line style="stroke: #A80036; stroke-width: 1.5;" x1="455" x2="607" y1="68.9531" y2="68.9531"/>
    </a>
    <a href="classclanguml_1_1common_1_1model_1_1stylable__element.html" target="_top" title="Diagram elements to which style can be applied." xlink:actuate="onRequest" xlink:href="classclanguml_1_1common_1_1model_1_1stylable__element.html" xlink:show="new" xlink:title="Diagram elements to which style can be applied." xlink:type="simple">
      <rect fill="#FEFECE" filter="url(#fu5w3pguwk3vq)" height="48" id="C_0002077846075979426940" style="stroke: #A80036; stroke-width: 1.5;" width="137" x="331.5" y="153.9531"/>
      <ellipse cx="346.5" cy="169.9531" fill="#ADD1B2" rx="11" ry="11" style="stroke: #A80036; stroke-width: 1.0;"/>
      <path d="M349.4688,175.5938 Q348.8906,175.8906 348.25,176.0313 Q347.6094,176.1875 346.9063,176.1875 Q344.4063,176.1875 343.0781,174.5469 Q341.7656,172.8906 341.7656,169.7656 Q341.7656,166.6406 343.0781,164.9844 Q344.4063,163.3281 346.9063,163.3281 Q347.6094,163.3281 348.25,163.4844 Q348.9063,163.6406 349.4688,163.9375 L349.4688,166.6563 Q348.8438,166.0781 348.25,165.8125 Q347.6563,165.5313 347.0313,165.5313 Q345.6875,165.5313 345,166.6094 Q344.3125,167.6719 344.3125,169.7656 Q344.3125,171.8594 345,172.9375 Q345.6875,174 347.0313,174 Q347.6563,174 348.25,173.7344 Q348.8438,173.4531 349.4688,172.875 L349.4688,175.5938 Z "/>
      <text fill="#000000" font-family="sans-serif" font-size="12" lengthAdjust="spacingAndGlyphs" textLength="105" x="360.5" y="174.1074">stylable_element</text>
      <line style="stroke: #A80036; stroke-width: 1.5;" x1="332.5" x2="467.5" y1="185.9531" y2="185.9531"/>
      <line style="stroke: #A80036; stroke-width: 1.5;" x1="332.5" x2="467.5" y1="193.9531" y2="193.9531"/>
    </a>
    <a href="classclanguml_1_1common_1_1model_1_1path.html" target="_top" title="Diagram path" xlink:actuate="onRequest" xlink:href="classclanguml_1_1common_1_1model_1_1path.html" xlink:show="new" xlink:title="Diagram path" xlink:type="simple">
      <rect fill="#FEFECE" filter="url(#fu5w3pguwk3vq)" height="48" id="C_0000844837292165721774" style="stroke: #A80036; stroke-width: 1.5;" width="61" x="617.5" y="403.9531"/>
      <ellipse cx="632.5" cy="419.9531" fill="#ADD1B2" rx="11" ry="11" style="stroke: #A80036; stroke-width: 1.0;"/>
      <path d="M635.4688,425.5938 Q634.8906,425.8906 634.25,426.0313 Q633.6094,426.1875 632.9063,426.1875 Q630.4063,426.1875 629.0781,424.5469 Q627.7656,422.8906 627.7656,419.7656 Q627.7656,416.6406 629.0781,414.9844 Q630.4063,413.3281 632.9063,413.3281 Q633.6094,413.3281 634.25,413.4844 Q634.9063,413.6406 635.4688,413.9375 L635.4688,416.6563 Q634.8438,416.0781 634.25,415.8125 Q633.6563,415.5313 633.0313,415.5313 Q631.6875,415.5313 631,416.6094 Q630.3125,417.6719 630.3125,419.7656 Q630.3125,421.8594 631,422.9375 Q631.6875,424 633.0313,424 Q633.6563,424 634.25,423.7344 Q634.8438,423.4531 635.4688,422.875 L635.4688,425.5938 Z "/>
      <text fill="#000000" font-family="sans-serif" font-size="12" lengthAdjust="spacingAndGlyphs" textLength="29" x="646.5" y="424.1074">path</text>
      <line style="stroke: #A80036; stroke-width: 1.5;" x1="618.5" x2="677.5" y1="435.9531" y2="435.9531"/>
      <line style="stroke: #A80036; stroke-width: 1.5;" x1="618.5" x2="677.5" y1="443.9531" y2="443.9531"/>
    </a>
    <a href="structclanguml_1_1common_1_1model_1_1ns__path__separator.html" target="_top" title="ns_path_separator" xlink:actuate="onRequest" xlink:href="structclanguml_1_1common_1_1model_1_1ns__path__separator.html" xlink:show="new" xlink:title="ns_path_separator" xlink:type="simple">
      <rect fill="#FEFECE" filter="url(#fu5w3pguwk3vq)" height="48" id="C_0001331923285602672865" style="stroke: #A80036; stroke-width: 1.5;" width="150" x="6" y="28.9531"/>
      <ellipse cx="21" cy="44.9531" fill="#ADD1B2" rx="11" ry="11" style="stroke: #A80036; stroke-width: 1.0;"/>
      <path d="M23.9688,50.5938 Q23.3906,50.8906 22.75,51.0313 Q22.1094,51.1875 21.4063,51.1875 Q18.9063,51.1875 17.5781,49.5469 Q16.2656,47.8906 16.2656,44.7656 Q16.2656,41.6406 17.5781,39.9844 Q18.9063,38.3281 21.4063,38.3281 Q22.1094,38.3281 22.75,38.4844 Q23.4063,38.6406 23.9688,38.9375 L23.9688,41.6563 Q23.3438,41.0781 22.75,40.8125 Q22.1563,40.5313 21.5313,40.5313 Q20.1875,40.5313 19.5,41.6094 Q18.8125,42.6719 18.8125,44.7656 Q18.8125,46.8594 19.5,47.9375 Q20.1875,49 21.5313,49 Q22.1563,49 22.75,48.7344 Q23.3438,48.4531 23.9688,47.875 L23.9688,50.5938 Z "/>
      <text fill="#000000" font-family="sans-serif" font-size="12" lengthAdjust="spacingAndGlyphs" textLength="118" x="35" y="49.1074">ns_path_separator</text>
      <line style="stroke: #A80036; stroke-width: 1.5;" x1="7" x2="155" y1="60.9531" y2="60.9531"/>
      <line style="stroke: #A80036; stroke-width: 1.5;" x1="7" x2="155" y1="68.9531" y2="68.9531"/>
    </a>
    <a href="classclanguml_1_1common_1_1model_1_1relationship.html" target="_top" title="Class representing any relationship other than inheritance" xlink:actuate="onRequest" xlink:href="classclanguml_1_1common_1_1model_1_1relationship.html" xlink:show="new" xlink:title="Class representing any relationship other than inheritance" xlink:type="simple">
      <rect fill="#FEFECE" filter="url(#fu5w3pguwk3vq)" height="48" id="C_0002046336758797367926" style="stroke: #A80036; stroke-width: 1.5;" width="106" x="465" y="278.9531"/>
      <ellipse cx="480" cy="294.9531" fill="#ADD1B2" rx="11" ry="11" style="stroke: #A80036; stroke-width: 1.0;"/>
      <path d="M482.9688,300.5938 Q482.3906,300.8906 481.75,301.0313 Q481.1094,301.1875 480.4063,301.1875 Q477.9063,301.1875 476.5781,299.5469 Q475.2656,297.8906 475.2656,294.7656 Q475.2656,291.6406 476.5781,289.9844 Q477.9063,288.3281 480.4063,288.3281 Q481.1094,288.3281 481.75,288.4844 Q482.4063,288.6406 482.9688,288.9375 L482.9688,291.6563 Q482.3438,291.0781 481.75,290.8125 Q481.1563,290.5313 480.5313,290.5313 Q479.1875,290.5313 478.5,291.6094 Q477.8125,292.6719 477.8125,294.7656 Q477.8125,296.8594 478.5,297.9375 Q479.1875,299 480.5313,299 Q481.1563,299 481.75,298.7344 Q482.3438,298.4531 482.9688,297.875 L482.9688,300.5938 Z "/>
      <text fill="#000000" font-family="sans-serif" font-size="12" lengthAdjust="spacingAndGlyphs" textLength="74" x="494" y="299.1074">relationship</text>
      <line style="stroke: #A80036; stroke-width: 1.5;" x1="466" x2="570" y1="310.9531" y2="310.9531"/>
      <line style="stroke: #A80036; stroke-width: 1.5;" x1="466" x2="570" y1="318.9531" y2="318.9531"/>
    </a>
    <a href="classclanguml_1_1common_1_1model_1_1source__location.html" target="_top" title="Base class of all diagram elements that have source location." xlink:actuate="onRequest" xlink:href="classclanguml_1_1common_1_1model_1_1source__location.html" xlink:show="new" xlink:title="Base class of all diagram elements that have source location." xlink:type="simple">
      <rect fill="#FEFECE" filter="url(#fu5w3pguwk3vq)" height="48" id="C_0000895261582183440230" style="stroke: #A80036; stroke-width: 1.5;" width="131" x="650.5" y="28.9531"/>
      <ellipse cx="665.5" cy="44.9531" fill="#ADD1B2" rx="11" ry="11" style="stroke: #A80036; stroke-width: 1.0;"/>
      <path d="M668.4688,50.5938 Q667.8906,50.8906 667.25,51.0313 Q666.6094,51.1875 665.9063,51.1875 Q663.4063,51.1875 662.0781,49.5469 Q660.7656,47.8906 660.7656,44.7656 Q660.7656,41.6406 662.0781,39.9844 Q663.4063,38.3281 665.9063,38.3281 Q666.6094,38.3281 667.25,38.4844 Q667.9063,38.6406 668.4688,38.9375 L668.4688,41.6563 Q667.8438,41.0781 667.25,40.8125 Q666.6563,40.5313 666.0313,40.5313 Q664.6875,40.5313 664,41.6094 Q663.3125,42.6719 663.3125,44.7656 Q663.3125,46.8594 664,47.9375 Q664.6875,49 666.0313,49 Q666.6563,49 667.25,48.7344 Q667.8438,48.4531 668.4688,47.875 L668.4688,50.5938 Z "/>
      <text fill="#000000" font-family="sans-serif" font-size="12" lengthAdjust="spacingAndGlyphs" textLength="99" x="679.5" y="49.1074">source_location</text>
      <line style="stroke: #A80036; stroke-width: 1.5;" x1="651.5" x2="780.5" y1="60.9531" y2="60.9531"/>
      <line style="stroke: #A80036; stroke-width: 1.5;" x1="651.5" x2="780.5" y1="68.9531" y2="68.9531"/>
    </a>
    <a href="classclanguml_1_1common_1_1model_1_1diagram__element.html" target="_top" title="Base class for standalone diagram elements." xlink:actuate="onRequest" xlink:href="classclanguml_1_1common_1_1model_1_1diagram__element.html" xlink:show="new" xlink:title="Base class for standalone diagram elements." xlink:type="simple">
      <rect fill="#FEFECE" filter="url(#fu5w3pguwk3vq)" height="48" id="C_0001073500714379115414" style="stroke: #A80036; stroke-width: 1.5;" width="140" x="646" y="153.9531"/>
      <ellipse cx="661" cy="169.9531" fill="#ADD1B2" rx="11" ry="11" style="stroke: #A80036; stroke-width: 1.0;"/>
      <path d="M663.9688,175.5938 Q663.3906,175.8906 662.75,176.0313 Q662.1094,176.1875 661.4063,176.1875 Q658.9063,176.1875 657.5781,174.5469 Q656.2656,172.8906 656.2656,169.7656 Q656.2656,166.6406 657.5781,164.9844 Q658.9063,163.3281 661.4063,163.3281 Q662.1094,163.3281 662.75,163.4844 Q663.4063,163.6406 663.9688,163.9375 L663.9688,166.6563 Q663.3438,166.0781 662.75,165.8125 Q662.1563,165.5313 661.5313,165.5313 Q660.1875,165.5313 659.5,166.6094 Q658.8125,167.6719 658.8125,169.7656 Q658.8125,171.8594 659.5,172.9375 Q660.1875,174 661.5313,174 Q662.1563,174 662.75,173.7344 Q663.3438,173.4531 663.9688,172.875 L663.9688,175.5938 Z "/>
      <text fill="#000000" font-family="sans-serif" font-size="12" lengthAdjust="spacingAndGlyphs" textLength="108" x="675" y="174.1074">diagram_element</text>
      <line style="stroke: #A80036; stroke-width: 1.5;" x1="647" x2="785" y1="185.9531" y2="185.9531"/>
      <line style="stroke: #A80036; stroke-width: 1.5;" x1="647" x2="785" y1="193.9531" y2="193.9531"/>
    </a>
    <a href="classclanguml_1_1common_1_1model_1_1element.html" target="_top" title="Base class for any element qualified by namespace." xlink:actuate="onRequest" xlink:href="classclanguml_1_1common_1_1model_1_1element.html" xlink:show="new" xlink:title="Base class for any element qualified by namespace." xlink:type="simple">
      <rect fill="#FEFECE" filter="url(#fu5w3pguwk3vq)" height="48" id="C_0002069520381434407937" style="stroke: #A80036; stroke-width: 1.5;" width="83" x="606.5" y="278.9531"/>
      <ellipse cx="621.5" cy="294.9531" fill="#ADD1B2" rx="11" ry="11" style="stroke: #A80036; stroke-width: 1.0;"/>
      <path d="M624.4688,300.5938 Q623.8906,300.8906 623.25,301.0313 Q622.6094,301.1875 621.9063,301.1875 Q619.4063,301.1875 618.0781,299.5469 Q616.7656,297.8906 616.7656,294.7656 Q616.7656,291.6406 618.0781,289.9844 Q619.4063,288.3281 621.9063,288.3281 Q622.6094,288.3281 623.25,288.4844 Q623.9063,288.6406 624.4688,288.9375 L624.4688,291.6563 Q623.8438,291.0781 623.25,290.8125 Q622.6563,290.5313 622.0313,290.5313 Q620.6875,290.5313 620,291.6094 Q619.3125,292.6719 619.3125,294.7656 Q619.3125,296.8594 620,297.9375 Q620.6875,299 622.0313,299 Q622.6563,299 623.25,298.7344 Q623.8438,298.4531 624.4688,297.875 L624.4688,300.5938 Z "/>
      <text fill="#000000" font-family="sans-serif" font-size="12" lengthAdjust="spacingAndGlyphs" textLength="51" x="635.5" y="299.1074">element</text>
      <line style="stroke: #A80036; stroke-width: 1.5;" x1="607.5" x2="688.5" y1="310.9531" y2="310.9531"/>
      <line style="stroke: #A80036; stroke-width: 1.5;" x1="607.5" x2="688.5" y1="318.9531" y2="318.9531"/>
    </a>
    <a href="classclanguml_1_1common_1_1model_1_1nested__trait.html" target="_top" title="Base class for elements nested in the diagram." xlink:actuate="onRequest" xlink:href="classclanguml_1_1common_1_1model_1_1nested__trait.html" xlink:show="new" xlink:title="Base class for elements nested in the diagram." xlink:type="simple">
      <rect fill="#FEFECE" filter="url(#fu5w3pguwk3vq)" height="48" id="C_0000891208748219309562" style="stroke: #A80036; stroke-width: 1.5;" width="151" x="191.5" y="28.9531"/>
      <ellipse cx="206.5" cy="44.9531" fill="#ADD1B2" rx="11" ry="11" style="stroke: #A80036; stroke-width: 1.0;"/>
      <path d="M209.4688,50.5938 Q208.8906,50.8906 208.25,51.0313 Q207.6094,51.1875 206.9063,51.1875 Q204.4063,51.1875 203.0781,49.5469 Q201.7656,47.8906 201.7656,44.7656 Q201.7656,41.6406 203.0781,39.9844 Q204.4063,38.3281 206.9063,38.3281 Q207.6094,38.3281 208.25,38.4844 Q208.9063,38.6406 209.4688,38.9375 L209.4688,41.6563 Q208.8438,41.0781 208.25,40.8125 Q207.6563,40.5313 207.0313,40.5313 Q205.6875,40.5313 205,41.6094 Q204.3125,42.6719 204.3125,44.7656 Q204.3125,46.8594 205,47.9375 Q205.6875,49 207.0313,49 Q207.6563,49 208.25,48.7344 Q208.8438,48.4531 209.4688,47.875 L209.4688,50.5938 Z "/>
      <text fill="#000000" font-family="sans-serif" font-size="12" lengthAdjust="spacingAndGlyphs" textLength="76" x="220.5" y="49.1074">nested_trait</text>
      <rect fill="#FFFFFF" height="15.9688" style="stroke: #000000; stroke-width: 1.0; stroke-dasharray: 2.0,2.0;" width="41" x="304.5" y="25.9531"/>
      <text fill="#000000" font-family="sans-serif" font-size="12" font-style="italic" lengthAdjust="spacingAndGlyphs" textLength="39" x="305.5" y="38.0918">T,Path</text>
      <line style="stroke: #A80036; stroke-width: 1.5;" x1="192.5" x2="341.5" y1="60.9531" y2="60.9531"/>
      <line style="stroke: #A80036; stroke-width: 1.5;" x1="192.5" x2="341.5" y1="68.9531" y2="68.9531"/>
    </a>
    <a href="classclanguml_1_1common_1_1model_1_1package.html" target="_top" title="Diagram element representing namespace or directory package" xlink:actuate="onRequest" xlink:href="classclanguml_1_1common_1_1model_1_1package.html" xlink:show="new" xlink:title="Diagram element representing namespace or directory package" xlink:type="simple">
      <rect fill="#FEFECE" filter="url(#fu5w3pguwk3vq)" height="48" id="C_0002143286684830686854" style="stroke: #A80036; stroke-width: 1.5;" width="86" x="393" y="403.9531"/>
      <ellipse cx="408" cy="419.9531" fill="#ADD1B2" rx="11" ry="11" style="stroke: #A80036; stroke-width: 1.0;"/>
      <path d="M410.9688,425.5938 Q410.3906,425.8906 409.75,426.0313 Q409.1094,426.1875 408.4063,426.1875 Q405.9063,426.1875 404.5781,424.5469 Q403.2656,422.8906 403.2656,419.7656 Q403.2656,416.6406 404.5781,414.9844 Q405.9063,413.3281 408.4063,413.3281 Q409.1094,413.3281 409.75,413.4844 Q410.4063,413.6406 410.9688,413.9375 L410.9688,416.6563 Q410.3438,416.0781 409.75,415.8125 Q409.1563,415.5313 408.5313,415.5313 Q407.1875,415.5313 406.5,416.6094 Q405.8125,417.6719 405.8125,419.7656 Q405.8125,421.8594 406.5,422.9375 Q407.1875,424 408.5313,424 Q409.1563,424 409.75,423.7344 Q410.3438,423.4531 410.9688,422.875 L410.9688,425.5938 Z "/>
      <text fill="#000000" font-family="sans-serif" font-size="12" lengthAdjust="spacingAndGlyphs" textLength="54" x="422" y="424.1074">package</text>
      <line style="stroke: #A80036; stroke-width: 1.5;" x1="394" x2="478" y1="435.9531" y2="435.9531"/>
      <line style="stroke: #A80036; stroke-width: 1.5;" x1="394" x2="478" y1="443.9531" y2="443.9531"/>
    </a>
    <a href="structclanguml_1_1common_1_1model_1_1context.html" target="_top" title="context" xlink:actuate="onRequest" xlink:href="structclanguml_1_1common_1_1model_1_1context.html" xlink:show="new" xlink:title="context" xlink:type="simple">
      <rect fill="#FEFECE" filter="url(#fu5w3pguwk3vq)" height="48" id="C_0000845978329661395972" style="stroke: #A80036; stroke-width: 1.5;" width="79" x="879.5" y="278.9531"/>
      <ellipse cx="894.5" cy="294.9531" fill="#ADD1B2" rx="11" ry="11" style="stroke: #A80036; stroke-width: 1.0;"/>
      <path d="M897.4688,300.5938 Q896.8906,300.8906 896.25,301.0313 Q895.6094,301.1875 894.9063,301.1875 Q892.4063,301.1875 891.0781,299.5469 Q889.7656,297.8906 889.7656,294.7656 Q889.7656,291.6406 891.0781,289.9844 Q892.4063,288.3281 894.9063,288.3281 Q895.6094,288.3281 896.25,288.4844 Q896.9063,288.6406 897.4688,288.9375 L897.4688,291.6563 Q896.8438,291.0781 896.25,290.8125 Q895.6563,290.5313 895.0313,290.5313 Q893.6875,290.5313 893,291.6094 Q892.3125,292.6719 892.3125,294.7656 Q892.3125,296.8594 893,297.9375 Q893.6875,299 895.0313,299 Q895.6563,299 896.25,298.7344 Q896.8438,298.4531 897.4688,297.875 L897.4688,300.5938 Z "/>
      <text fill="#000000" font-family="sans-serif" font-size="12" lengthAdjust="spacingAndGlyphs" textLength="47" x="908.5" y="299.1074">context</text>
      <line style="stroke: #A80036; stroke-width: 1.5;" x1="880.5" x2="957.5" y1="310.9531" y2="310.9531"/>
      <line style="stroke: #A80036; stroke-width: 1.5;" x1="880.5" x2="957.5" y1="318.9531" y2="318.9531"/>
    </a>
    <a href="classclanguml_1_1common_1_1model_1_1template__parameter.html" target="_top" title="Represents template parameter, template arguments or concept         constraints" xlink:actuate="onRequest" xlink:href="classclanguml_1_1common_1_1model_1_1template__parameter.html" xlink:show="new" xlink:title="Represents template parameter, template arguments or concept         constraints" xlink:type="simple">
      <rect fill="#FEFECE" filter="url(#fu5w3pguwk3vq)" height="48" id="C_0000178138562743079529" style="stroke: #A80036; stroke-width: 1.5;" width="160" x="839" y="153.9531"/>
      <ellipse cx="854" cy="169.9531" fill="#ADD1B2" rx="11" ry="11" style="stroke: #A80036; stroke-width: 1.0;"/>
      <path d="M856.9688,175.5938 Q856.3906,175.8906 855.75,176.0313 Q855.1094,176.1875 854.4063,176.1875 Q851.9063,176.1875 850.5781,174.5469 Q849.2656,172.8906 849.2656,169.7656 Q849.2656,166.6406 850.5781,164.9844 Q851.9063,163.3281 854.4063,163.3281 Q855.1094,163.3281 855.75,163.4844 Q856.4063,163.6406 856.9688,163.9375 L856.9688,166.6563 Q856.3438,166.0781 855.75,165.8125 Q855.1563,165.5313 854.5313,165.5313 Q853.1875,165.5313 852.5,166.6094 Q851.8125,167.6719 851.8125,169.7656 Q851.8125,171.8594 852.5,172.9375 Q853.1875,174 854.5313,174 Q855.1563,174 855.75,173.7344 Q856.3438,173.4531 856.9688,172.875 L856.9688,175.5938 Z "/>
      <text fill="#000000" font-family="sans-serif" font-size="12" lengthAdjust="spacingAndGlyphs" textLength="128" x="868" y="174.1074">template_parameter</text>
      <line style="stroke: #A80036; stroke-width: 1.5;" x1="840" x2="998" y1="185.9531" y2="185.9531"/>
      <line style="stroke: #A80036; stroke-width: 1.5;" x1="840" x2="998" y1="193.9531" y2="193.9531"/>
    </a>
    <a href="structclanguml_1_1common_1_1model_1_1fs__path__sep.html" target="_top" title="fs_path_sep" xlink:actuate="onRequest" xlink:href="structclanguml_1_1common_1_1model_1_1fs__path__sep.html" xlink:show="new" xlink:title="fs_path_sep" xlink:type="simple">
      <rect fill="#FEFECE" filter="url(#fu5w3pguwk3vq)" height="48" id="C_0000640258162892495349" style="stroke: #A80036; stroke-width: 1.5;" width="107" x="27.5" y="153.9531"/>
      <ellipse cx="42.5" cy="169.9531" fill="#ADD1B2" rx="11" ry="11" style="stroke: #A80036; stroke-width: 1.0;"/>
      <path d="M45.4688,175.5938 Q44.8906,175.8906 44.25,176.0313 Q43.6094,176.1875 42.9063,176.1875 Q40.4063,176.1875 39.0781,174.5469 Q37.7656,172.8906 37.7656,169.7656 Q37.7656,166.6406 39.0781,164.9844 Q40.4063,163.3281 42.9063,163.3281 Q43.6094,163.3281 44.25,163.4844 Q44.9063,163.6406 45.4688,163.9375 L45.4688,166.6563 Q44.8438,166.0781 44.25,165.8125 Q43.6563,165.5313 43.0313,165.5313 Q41.6875,165.5313 41,166.6094 Q40.3125,167.6719 40.3125,169.7656 Q40.3125,171.8594 41,172.9375 Q41.6875,174 43.0313,174 Q43.6563,174 44.25,173.7344 Q44.8438,173.4531 45.4688,172.875 L45.4688,175.5938 Z "/>
      <text fill="#000000" font-family="sans-serif" font-size="12" lengthAdjust="spacingAndGlyphs" textLength="75" x="56.5" y="174.1074">fs_path_sep</text>
      <line style="stroke: #A80036; stroke-width: 1.5;" x1="28.5" x2="133.5" y1="185.9531" y2="185.9531"/>
      <line style="stroke: #A80036; stroke-width: 1.5;" x1="28.5" x2="133.5" y1="193.9531" y2="193.9531"/>
    </a>
    <a href="classclanguml_1_1common_1_1model_1_1source__file.html" target="_top" title="Diagram element representing some file or directory." xlink:actuate="onRequest" xlink:href="classclanguml_1_1common_1_1model_1_1source__file.html" xlink:show="new" xlink:title="Diagram element representing some file or directory." xlink:type="simple">
      <rect fill="#FEFECE" filter="url(#fu5w3pguwk3vq)" height="48" id="C_0000785714713072053129" style="stroke: #A80036; stroke-width: 1.5;" width="99" x="735.5" y="278.9531"/>
      <ellipse cx="750.5" cy="294.9531" fill="#ADD1B2" rx="11" ry="11" style="stroke: #A80036; stroke-width: 1.0;"/>
      <path d="M753.4688,300.5938 Q752.8906,300.8906 752.25,301.0313 Q751.6094,301.1875 750.9063,301.1875 Q748.4063,301.1875 747.0781,299.5469 Q745.7656,297.8906 745.7656,294.7656 Q745.7656,291.6406 747.0781,289.9844 Q748.4063,288.3281 750.9063,288.3281 Q751.6094,288.3281 752.25,288.4844 Q752.9063,288.6406 753.4688,288.9375 L753.4688,291.6563 Q752.8438,291.0781 752.25,290.8125 Q751.6563,290.5313 751.0313,290.5313 Q749.6875,290.5313 749,291.6094 Q748.3125,292.6719 748.3125,294.7656 Q748.3125,296.8594 749,297.9375 Q749.6875,299 751.0313,299 Q751.6563,299 752.25,298.7344 Q752.8438,298.4531 753.4688,297.875 L753.4688,300.5938 Z "/>
      <text fill="#000000" font-family="sans-serif" font-size="12" lengthAdjust="spacingAndGlyphs" textLength="67" x="764.5" y="299.1074">source_file</text>
      <line style="stroke: #A80036; stroke-width: 1.5;" x1="736.5" x2="833.5" y1="310.9531" y2="310.9531"/>
      <line style="stroke: #A80036; stroke-width: 1.5;" x1="736.5" x2="833.5" y1="318.9531" y2="318.9531"/>
    </a>
    <a href="classclanguml_1_1common_1_1model_1_1diagram.html" target="_top" title="Base class for all diagram models" xlink:actuate="onRequest" xlink:href="classclanguml_1_1common_1_1model_1_1diagram.html" xlink:show="new" xlink:title="Base class for all diagram models" xlink:type="simple">
      <rect fill="#FEFECE" filter="url(#fu5w3pguwk3vq)" height="48" id="C_0000197068985320835874" style="stroke: #A80036; stroke-width: 1.5;" width="83" x="1197.5" y="153.9531"/>
      <ellipse cx="1212.5" cy="169.9531" fill="#ADD1B2" rx="11" ry="11" style="stroke: #A80036; stroke-width: 1.0;"/>
      <path d="M1215.4688,175.5938 Q1214.8906,175.8906 1214.25,176.0313 Q1213.6094,176.1875 1212.9063,176.1875 Q1210.4063,176.1875 1209.0781,174.5469 Q1207.7656,172.8906 1207.7656,169.7656 Q1207.7656,166.6406 1209.0781,164.9844 Q1210.4063,163.3281 1212.9063,163.3281 Q1213.6094,163.3281 1214.25,163.4844 Q1214.9063,163.6406 1215.4688,163.9375 L1215.4688,166.6563 Q1214.8438,166.0781 1214.25,165.8125 Q1213.6563,165.5313 1213.0313,165.5313 Q1211.6875,165.5313 1211,166.6094 Q1210.3125,167.6719 1210.3125,169.7656 Q1210.3125,171.8594 1211,172.9375 Q1211.6875,174 1213.0313,174 Q1213.6563,174 1214.25,173.7344 Q1214.8438,173.4531 1215.4688,172.875 L1215.4688,175.5938 Z "/>
      <text fill="#000000" font-family="sans-serif" font-size="12" lengthAdjust="spacingAndGlyphs" textLength="51" x="1226.5" y="174.1074">diagram</text>
      <line style="stroke: #A80036; stroke-width: 1.5;" x1="1198.5" x2="1279.5" y1="185.9531" y2="185.9531"/>
      <line style="stroke: #A80036; stroke-width: 1.5;" x1="1198.5" x2="1279.5" y1="193.9531" y2="193.9531"/>
    </a>
    <a href="classclanguml_1_1common_1_1model_1_1template__trait.html" target="_top" title="Common interface for template diagram elements." xlink:actuate="onRequest" xlink:href="classclanguml_1_1common_1_1model_1_1template__trait.html" xlink:show="new" xlink:title="Common interface for template diagram elements." xlink:type="simple">
      <rect fill="#FEFECE" filter="url(#fu5w3pguwk3vq)" height="48" id="C_0000464715462505216589" style="stroke: #A80036; stroke-width: 1.5;" width="120" x="859" y="28.9531"/>
      <ellipse cx="874" cy="44.9531" fill="#ADD1B2" rx="11" ry="11" style="stroke: #A80036; stroke-width: 1.0;"/>
      <path d="M876.9688,50.5938 Q876.3906,50.8906 875.75,51.0313 Q875.1094,51.1875 874.4063,51.1875 Q871.9063,51.1875 870.5781,49.5469 Q869.2656,47.8906 869.2656,44.7656 Q869.2656,41.6406 870.5781,39.9844 Q871.9063,38.3281 874.4063,38.3281 Q875.1094,38.3281 875.75,38.4844 Q876.4063,38.6406 876.9688,38.9375 L876.9688,41.6563 Q876.3438,41.0781 875.75,40.8125 Q875.1563,40.5313 874.5313,40.5313 Q873.1875,40.5313 872.5,41.6094 Q871.8125,42.6719 871.8125,44.7656 Q871.8125,46.8594 872.5,47.9375 Q873.1875,49 874.5313,49 Q875.1563,49 875.75,48.7344 Q876.3438,48.4531 876.9688,47.875 L876.9688,50.5938 Z "/>
      <text fill="#000000" font-family="sans-serif" font-size="12" lengthAdjust="spacingAndGlyphs" textLength="88" x="888" y="49.1074">template_trait</text>
      <line style="stroke: #A80036; stroke-width: 1.5;" x1="860" x2="978" y1="60.9531" y2="60.9531"/>
      <line style="stroke: #A80036; stroke-width: 1.5;" x1="860" x2="978" y1="68.9531" y2="68.9531"/>
    </a>
    <a href="classclanguml_1_1common_1_1model_1_1element__view.html" target="_top" title="element_view" xlink:actuate="onRequest" xlink:href="classclanguml_1_1common_1_1model_1_1element__view.html" xlink:show="new" xlink:title="element_view" xlink:type="simple">
      <rect fill="#FEFECE" filter="url(#fu5w3pguwk3vq)" height="48" id="C_0001786360230161561276" style="stroke: #A80036; stroke-width: 1.5;" width="126" x="170" y="153.9531"/>
      <ellipse cx="185" cy="169.9531" fill="#ADD1B2" rx="11" ry="11" style="stroke: #A80036; stroke-width: 1.0;"/>
      <path d="M187.9688,175.5938 Q187.3906,175.8906 186.75,176.0313 Q186.1094,176.1875 185.4063,176.1875 Q182.9063,176.1875 181.5781,174.5469 Q180.2656,172.8906 180.2656,169.7656 Q180.2656,166.6406 181.5781,164.9844 Q182.9063,163.3281 185.4063,163.3281 Q186.1094,163.3281 186.75,163.4844 Q187.4063,163.6406 187.9688,163.9375 L187.9688,166.6563 Q187.3438,166.0781 186.75,165.8125 Q186.1563,165.5313 185.5313,165.5313 Q184.1875,165.5313 183.5,166.6094 Q182.8125,167.6719 182.8125,169.7656 Q182.8125,171.8594 183.5,172.9375 Q184.1875,174 185.5313,174 Q186.1563,174 186.75,173.7344 Q187.3438,173.4531 187.9688,172.875 L187.9688,175.5938 Z "/>
      <text fill="#000000" font-family="sans-serif" font-size="12" lengthAdjust="spacingAndGlyphs" textLength="83" x="199" y="174.1074">element_view</text>
      <rect fill="#FFFFFF" height="15.9688" style="stroke: #000000; stroke-width: 1.0; stroke-dasharray: 2.0,2.0;" width="9" x="290" y="150.9531"/>
      <text fill="#000000" font-family="sans-serif" font-size="12" font-style="italic" lengthAdjust="spacingAndGlyphs" textLength="7" x="291" y="163.0918">T</text>
      <line style="stroke: #A80036; stroke-width: 1.5;" x1="171" x2="295" y1="185.9531" y2="185.9531"/>
      <line style="stroke: #A80036; stroke-width: 1.5;" x1="171" x2="295" y1="193.9531" y2="193.9531"/>
    </a>
    <a href="classclanguml_1_1common_1_1model_1_1diagram__filter.html" target="_top" title="Composite of all diagrams filters." xlink:actuate="onRequest" xlink:href="classclanguml_1_1common_1_1model_1_1diagram__filter.html" xlink:show="new" xlink:title="Composite of all diagrams filters." xlink:type="simple">
      <rect fill="#FEFECE" filter="url(#fu5w3pguwk3vq)" height="48" id="C_0002054140694270036745" style="stroke: #A80036; stroke-width: 1.5;" width="117" x="1180.5" y="278.9531"/>
      <ellipse cx="1195.5" cy="294.9531" fill="#ADD1B2" rx="11" ry="11" style="stroke: #A80036; stroke-width: 1.0;"/>
      <path d="M1198.4688,300.5938 Q1197.8906,300.8906 1197.25,301.0313 Q1196.6094,301.1875 1195.9063,301.1875 Q1193.4063,301.1875 1192.0781,299.5469 Q1190.7656,297.8906 1190.7656,294.7656 Q1190.7656,291.6406 1192.0781,289.9844 Q1193.4063,288.3281 1195.9063,288.3281 Q1196.6094,288.3281 1197.25,288.4844 Q1197.9063,288.6406 1198.4688,288.9375 L1198.4688,291.6563 Q1197.8438,291.0781 1197.25,290.8125 Q1196.6563,290.5313 1196.0313,290.5313 Q1194.6875,290.5313 1194,291.6094 Q1193.3125,292.6719 1193.3125,294.7656 Q1193.3125,296.8594 1194,297.9375 Q1194.6875,299 1196.0313,299 Q1196.6563,299 1197.25,298.7344 Q1197.8438,298.4531 1198.4688,297.875 L1198.4688,300.5938 Z "/>
      <text fill="#000000" font-family="sans-serif" font-size="12" lengthAdjust="spacingAndGlyphs" textLength="85" x="1209.5" y="299.1074">diagram_filter</text>
      <line style="stroke: #A80036; stroke-width: 1.5;" x1="1181.5" x2="1296.5" y1="310.9531" y2="310.9531"/>
      <line style="stroke: #A80036; stroke-width: 1.5;" x1="1181.5" x2="1296.5" y1="318.9531" y2="318.9531"/>
    </a>
    <path d="M1097,40.4531 L1097,65.5859 A0,0 0 0 0 1097,65.5859 L1235,65.5859 L1239,153.7231 L1243,65.5859 L1381,65.5859 A0,0 0 0 0 1381,65.5859 L1381,50.4531 L1371,40.4531 L1097,40.4531 A0,0 0 0 0 1097,40.4531 " fill="#FBFB77" filter="url(#fu5w3pguwk3vq)" style="stroke: #A80036; stroke-width: 1.0;"/>
    <path d="M1371,40.4531 L1371,50.4531 L1381,50.4531 L1371,40.4531 " fill="#FBFB77" style="stroke: #A80036; stroke-width: 1.0;"/>
    <text fill="#000000" font-family="sans-serif" font-size="13" lengthAdjust="spacingAndGlyphs" textLength="263" x="1103" y="57.52">Common class for specific diagram types</text>
    <path d="M528.73,97.2631 C525.96,150.1031 521.38,237.4831 519.21,278.8631 " fill="none" id="C_0001117102382624673118&lt;-C_0002046336758797367926" style="stroke: #A80036; stroke-width: 1.0;"/>
    <polygon fill="none" points="521.74,96.8931,529.78,77.2831,535.72,97.6231,521.74,96.8931" style="stroke: #A80036; stroke-width: 1.0;"/>
    <path d="M436.17,216.6531 C455.68,236.9831 479.12,261.4231 495.9,278.9231 " fill="none" id="C_0002077846075979426940&lt;-C_0002046336758797367926" style="stroke: #A80036; stroke-width: 1.0;"/>
    <polygon fill="none" points="430.99,221.3631,422.19,202.0931,441.09,211.6731,430.99,221.3631" style="stroke: #A80036; stroke-width: 1.0;"/>
    <path d="M633.76,202.8931 C614.52,210.5131 594.77,220.1231 578,231.9531 C560.08,244.5931 544.16,263.7531 533.23,278.8331 " fill="none" id="C_0001073500714379115414&lt;-C_0002046336758797367926" style="stroke: #A80036; stroke-width: 1.0;"/>
    <polygon fill="#FFFFFF" points="645.96,198.2831,638.9344,196.6581,634.7322,202.5183,641.7578,204.1433,645.96,198.2831" style="stroke: #A80036; stroke-width: 1.0;"/>
    <rect fill="none" height="6" style="stroke: #C82930; stroke-width: 1.0;" width="6" x="581" y="238.0195"/>
    <text fill="#000000" font-family="sans-serif" font-size="13" lengthAdjust="spacingAndGlyphs" textLength="88" x="591" y="245.02">relationships_</text>
    <path d="M582.81,88.4031 C614.29,109.3331 653.62,135.4831 681.36,153.9231 " fill="none" id="C_0001117102382624673118&lt;-C_0001073500714379115414" style="stroke: #A80036; stroke-width: 1.0;"/>
    <polygon fill="none" points="578.58,93.9931,565.8,77.0931,586.33,82.3331,578.58,93.9931" style="stroke: #A80036; stroke-width: 1.0;"/>
    <path d="M716,97.1231 C716,116.2431 716,137.9731 716,153.9231 " fill="none" id="C_0000895261582183440230&lt;-C_0001073500714379115414" style="stroke: #A80036; stroke-width: 1.0;"/>
    <polygon fill="none" points="709,97.0931,716,77.0931,723,97.0931,709,97.0931" style="stroke: #A80036; stroke-width: 1.0;"/>
    <path d="M595.3,328.7231 C584.75,336.2431 575.06,345.5931 569,356.9531 C555.16,382.9031 589.73,403.8331 617.44,415.8331 " fill="none" id="C_0002069520381434407937&lt;-C_0000844837292165721774" style="stroke: #A80036; stroke-width: 1.0;"/>
    <polygon fill="#FFFFFF" points="606.49,321.5431,599.2801,321.4134,596.3873,328.0189,603.5972,328.1486,606.49,321.5431" style="stroke: #A80036; stroke-width: 1.0;"/>
    <rect fill="none" height="6" style="stroke: #C82930; stroke-width: 1.0;" width="6" x="572" y="363.0195"/>
    <text fill="#000000" font-family="sans-serif" font-size="13" lengthAdjust="spacingAndGlyphs" textLength="22" x="582" y="370.02">ns_</text>
    <path d="M645.47,340.0231 C644.97,350.9231 644.69,362.9231 645,373.9531 C645.28,383.7231 645.84,394.4831 646.4,403.7431 " fill="none" id="C_0002069520381434407937&lt;-C_0000844837292165721774-1" style="stroke: #A80036; stroke-width: 1.0;"/>
    <polygon fill="#FFFFFF" points="646.19,326.9631,641.8665,332.7344,645.5309,338.945,649.8544,333.1738,646.19,326.9631" style="stroke: #A80036; stroke-width: 1.0;"/>
    <rect fill="none" height="6" style="stroke: #C82930; stroke-width: 1.0;" width="6" x="648" y="363.0195"/>
    <text fill="#000000" font-family="sans-serif" font-size="13" lengthAdjust="spacingAndGlyphs" textLength="123" x="658" y="370.02">using_namespace_</text>
    <path d="M701.3,220.9731 C697.43,230.4031 692.94,240.2031 688,248.9531 C682.17,259.2931 674.55,269.8931 667.53,278.8731 " fill="none" id="C_0001073500714379115414&lt;-C_0002069520381434407937" style="stroke: #A80036; stroke-width: 1.0;"/>
    <polygon fill="none" points="694.85,218.2331,708.52,202.0431,707.94,223.2231,694.85,218.2331" style="stroke: #A80036; stroke-width: 1.0;"/>
    <path d="M590.63,337.2431 C554.23,358.3531 508.07,385.1431 475.7,403.9231 " fill="none" id="C_0002069520381434407937&lt;-C_0002143286684830686854" style="stroke: #A80036; stroke-width: 1.0;"/>
    <polygon fill="none" points="587.31,331.0731,608.12,327.0931,594.34,343.1831,587.31,331.0731" style="stroke: #A80036; stroke-width: 1.0;"/>
    <path d="M406.29,222.2631 C413.96,275.1031 426.64,362.4831 432.65,403.8631 " fill="none" id="C_0002077846075979426940&lt;-C_0002143286684830686854" style="stroke: #A80036; stroke-width: 1.0;"/>
    <polygon fill="none" points="399.33,223.0831,403.39,202.2831,413.19,221.0731,399.33,223.0831" style="stroke: #A80036; stroke-width: 1.0;"/>
    <path d="M919,215.1631 C919,235.7831 919,260.9931 919,278.9231 " fill="none" id="C_0000178138562743079529&lt;-C_0000845978329661395972" style="stroke: #A80036; stroke-width: 1.0;"/>
    <polygon fill="#FFFFFF" points="919,202.0931,915,208.0931,919,214.0931,923,208.0931,919,202.0931" style="stroke: #A80036; stroke-width: 1.0;"/>
    <rect fill="none" height="6" style="stroke: #C82930; stroke-width: 1.0;" width="6" x="922" y="238.0195"/>
    <text fill="#000000" font-family="sans-serif" font-size="13" lengthAdjust="spacingAndGlyphs" textLength="55" x="932" y="245.02">context_</text>
    <path d="M1012.17,167.5531 C1025.24,169.2431 1034,172.7131 1034,177.9531 C1034,184.7931 1019.06,188.6131 999.08,189.4231 " fill="none" id="C_0000178138562743079529&lt;-C_0000178138562743079529" style="stroke: #A80036; stroke-width: 1.0;"/>
    <polygon fill="#FFFFFF" points="999.08,166.4831,1004.7398,170.9516,1011.0413,167.4458,1005.3816,162.9774,999.08,166.4831" style="stroke: #A80036; stroke-width: 1.0;"/>
    <rect fill="none" height="6" style="stroke: #C82930; stroke-width: 1.0;" width="6" x="1042" y="175.5195"/>
    <text fill="#000000" font-family="sans-serif" font-size="13" lengthAdjust="spacingAndGlyphs" textLength="121" x="1052" y="182.52">template_params_</text>
    <path d="M793.4,340.1631 C794.15,351.8231 792.68,364.2331 786,373.9531 C761.94,408.9631 711.32,420.8531 678.53,424.8931 " fill="none" id="C_0000785714713072053129&lt;-C_0000844837292165721774" style="stroke: #A80036; stroke-width: 1.0;"/>
    <polygon fill="#FFFFFF" points="791.69,327.0231,788.5021,333.4913,793.2466,338.9217,796.4345,332.4536,791.69,327.0231" style="stroke: #A80036; stroke-width: 1.0;"/>
    <rect fill="none" height="6" style="stroke: #C82930; stroke-width: 1.0;" width="6" x="796" y="363.0195"/>
    <text fill="#000000" font-family="sans-serif" font-size="13" lengthAdjust="spacingAndGlyphs" textLength="36" x="806" y="370.02">path_</text>
    <path d="M738.84,219.6731 C749.89,239.3631 762.75,262.2831 772.08,278.9231 " fill="none" id="C_0001073500714379115414&lt;-C_0000785714713072053129" style="stroke: #A80036; stroke-width: 1.0;"/>
    <polygon fill="none" points="732.66,222.9531,728.98,202.0931,744.87,216.1031,732.66,222.9531" style="stroke: #A80036; stroke-width: 1.0;"/>
    <path d="M488.65,186.3731 C545.31,193.3531 619.44,206.6931 681,231.9531 C708.99,243.4431 737.24,263.0931 757.22,278.6531 " fill="none" id="C_0002077846075979426940&lt;-C_0000785714713072053129" style="stroke: #A80036; stroke-width: 1.0;"/>
    <polygon fill="none" points="487.69,193.3131,468.62,184.0831,489.28,179.4031,487.69,193.3131" style="stroke: #A80036; stroke-width: 1.0;"/>
    <path d="M1202.39,212.3631 C1197.74,218.4031 1193.68,225.0031 1191,231.9531 C1184.43,249.0031 1195.48,265.9631 1208.63,278.9131 " fill="none" id="C_0000197068985320835874&lt;-C_0002054140694270036745" style="stroke: #A80036; stroke-width: 1.0;"/>
    <polygon fill="#FFFFFF" points="1211.21,202.1531,1204.2597,204.0749,1203.3604,211.2297,1210.3107,209.3079,1211.21,202.1531" style="stroke: #A80036; stroke-width: 1.0;"/>
    <rect fill="none" height="6" style="stroke: #C82930; stroke-width: 1.0;" width="6" x="1194" y="238.0195"/>
    <text fill="#000000" font-family="sans-serif" font-size="13" lengthAdjust="spacingAndGlyphs" textLength="35" x="1204" y="245.02">filter_</text>
    <path d="M1241.66,278.7631 C1242.6,269.5031 1243.54,258.7431 1244,248.9531 C1244.64,235.3231 1243.76,220.2231 1242.58,207.5431 " fill="none" id="C_0002054140694270036745-&gt;C_0000197068985320835874" style="stroke: #A80036; stroke-width: 1.0;"/>
    <polygon fill="#A80036" points="1242.05,202.2731,1238.968,211.6273,1242.5489,207.2482,1246.9281,210.8291,1242.05,202.2731" style="stroke: #A80036; stroke-width: 1.0;"/>
    <rect fill="none" height="6" style="stroke: #C82930; stroke-width: 1.0;" width="6" x="1247" y="238.0195"/>
    <text fill="#000000" font-family="sans-serif" font-size="13" lengthAdjust="spacingAndGlyphs" textLength="60" x="1257" y="245.02">diagram_</text>
    <path d="M919,90.1631 C919,110.7831 919,135.9931 919,153.9231 " fill="none" id="C_0000464715462505216589&lt;-C_0000178138562743079529" style="stroke: #A80036; stroke-width: 1.0;"/>
    <polygon fill="#FFFFFF" points="919,77.0931,915,83.0931,919,89.0931,923,83.0931,919,77.0931" style="stroke: #A80036; stroke-width: 1.0;"/>
    <rect fill="none" height="6" style="stroke: #C82930; stroke-width: 1.0;" width="6" x="922" y="113.0195"/>
    <text fill="#000000" font-family="sans-serif" font-size="13" lengthAdjust="spacingAndGlyphs" textLength="72" x="932" y="120.02">templates_</text>
  </g>
</svg>
