<svg xmlns="http://www.w3.org/2000/svg" xmlns:xlink="http://www.w3.org/1999/xlink" contentScriptType="application/ecmascript" contentStyleType="text/css" height="571px" preserveAspectRatio="none" style="width:1551px;height:571px;" version="1.1" viewBox="0 0 1551 571" width="1551px" zoomAndPan="magnify">
  <defs>
    <filter height="300%" id="fpfhbnj8elcho" width="300%" x="-1" y="-1">
      <feGaussianBlur result="blurOut" stdDeviation="2.0"/>
      <feColorMatrix in="blurOut" result="blurOut2" type="matrix" values="0 0 0 0 0 0 0 0 0 0 0 0 0 0 0 0 0 0 .4 0"/>
      <feOffset dx="4.0" dy="4.0" in="blurOut2" result="blurOut3"/>
      <feBlend in="SourceGraphic" in2="blurOut3" mode="normal"/>
    </filter>
    <style type="text/css">a:hover { text-decoration: underline; }</style>
  </defs>
  <g>
    <text fill="#000000" font-family="sans-serif" font-size="18" lengthAdjust="spacingAndGlyphs" textLength="219" x="669" y="16.708">Common diagram model</text>
    <a href="classclanguml_1_1common_1_1model_1_1decorated__element.html" target="_top" title="Base class for decorated diagram elements" xlink:actuate="onRequest" xlink:href="classclanguml_1_1common_1_1model_1_1decorated__element.html" xlink:show="new" xlink:title="Base class for decorated diagram elements" xlink:type="simple">
      <rect fill="#FEFECE" filter="url(#fpfhbnj8elcho)" height="48" id="C_0008936819060997384951" style="stroke: #A80036; stroke-width: 1.5;" width="154" x="333" y="28.9531"/>
      <ellipse cx="348" cy="44.9531" fill="#ADD1B2" rx="11" ry="11" style="stroke: #A80036; stroke-width: 1.0;"/>
      <path d="M350.9688,50.5938 Q350.3906,50.8906 349.75,51.0313 Q349.1094,51.1875 348.4063,51.1875 Q345.9063,51.1875 344.5781,49.5469 Q343.2656,47.8906 343.2656,44.7656 Q343.2656,41.6406 344.5781,39.9844 Q345.9063,38.3281 348.4063,38.3281 Q349.1094,38.3281 349.75,38.4844 Q350.4063,38.6406 350.9688,38.9375 L350.9688,41.6563 Q350.3438,41.0781 349.75,40.8125 Q349.1563,40.5313 348.5313,40.5313 Q347.1875,40.5313 346.5,41.6094 Q345.8125,42.6719 345.8125,44.7656 Q345.8125,46.8594 346.5,47.9375 Q347.1875,49 348.5313,49 Q349.1563,49 349.75,48.7344 Q350.3438,48.4531 350.9688,47.875 L350.9688,50.5938 Z "/>
      <text fill="#000000" font-family="sans-serif" font-size="12" lengthAdjust="spacingAndGlyphs" textLength="122" x="362" y="49.1074">decorated_element</text>
      <line style="stroke: #A80036; stroke-width: 1.5;" x1="334" x2="486" y1="60.9531" y2="60.9531"/>
      <line style="stroke: #A80036; stroke-width: 1.5;" x1="334" x2="486" y1="68.9531" y2="68.9531"/>
    </a>
    <a href="classclanguml_1_1common_1_1model_1_1stylable__element.html" target="_top" title="Diagram elements to which style can be applied." xlink:actuate="onRequest" xlink:href="classclanguml_1_1common_1_1model_1_1stylable__element.html" xlink:show="new" xlink:title="Diagram elements to which style can be applied." xlink:type="simple">
      <rect fill="#FEFECE" filter="url(#fpfhbnj8elcho)" height="48" id="C_0016622768607835415521" style="stroke: #A80036; stroke-width: 1.5;" width="137" x="638.5" y="137.9531"/>
      <ellipse cx="653.5" cy="153.9531" fill="#ADD1B2" rx="11" ry="11" style="stroke: #A80036; stroke-width: 1.0;"/>
      <path d="M656.4688,159.5938 Q655.8906,159.8906 655.25,160.0313 Q654.6094,160.1875 653.9063,160.1875 Q651.4063,160.1875 650.0781,158.5469 Q648.7656,156.8906 648.7656,153.7656 Q648.7656,150.6406 650.0781,148.9844 Q651.4063,147.3281 653.9063,147.3281 Q654.6094,147.3281 655.25,147.4844 Q655.9063,147.6406 656.4688,147.9375 L656.4688,150.6563 Q655.8438,150.0781 655.25,149.8125 Q654.6563,149.5313 654.0313,149.5313 Q652.6875,149.5313 652,150.6094 Q651.3125,151.6719 651.3125,153.7656 Q651.3125,155.8594 652,156.9375 Q652.6875,158 654.0313,158 Q654.6563,158 655.25,157.7344 Q655.8438,157.4531 656.4688,156.875 L656.4688,159.5938 Z "/>
      <text fill="#000000" font-family="sans-serif" font-size="12" lengthAdjust="spacingAndGlyphs" textLength="105" x="667.5" y="158.1074">stylable_element</text>
      <line style="stroke: #A80036; stroke-width: 1.5;" x1="639.5" x2="774.5" y1="169.9531" y2="169.9531"/>
      <line style="stroke: #A80036; stroke-width: 1.5;" x1="639.5" x2="774.5" y1="177.9531" y2="177.9531"/>
    </a>
    <a href="classclanguml_1_1common_1_1model_1_1path.html" target="_top" title="Diagram path" xlink:actuate="onRequest" xlink:href="classclanguml_1_1common_1_1model_1_1path.html" xlink:show="new" xlink:title="Diagram path" xlink:type="simple">
      <rect fill="#FEFECE" filter="url(#fpfhbnj8elcho)" height="48" id="C_0006758698337325774198" style="stroke: #A80036; stroke-width: 1.5;" width="61" x="459.5" y="387.9531"/>
      <ellipse cx="474.5" cy="403.9531" fill="#ADD1B2" rx="11" ry="11" style="stroke: #A80036; stroke-width: 1.0;"/>
      <path d="M477.4688,409.5938 Q476.8906,409.8906 476.25,410.0313 Q475.6094,410.1875 474.9063,410.1875 Q472.4063,410.1875 471.0781,408.5469 Q469.7656,406.8906 469.7656,403.7656 Q469.7656,400.6406 471.0781,398.9844 Q472.4063,397.3281 474.9063,397.3281 Q475.6094,397.3281 476.25,397.4844 Q476.9063,397.6406 477.4688,397.9375 L477.4688,400.6563 Q476.8438,400.0781 476.25,399.8125 Q475.6563,399.5313 475.0313,399.5313 Q473.6875,399.5313 473,400.6094 Q472.3125,401.6719 472.3125,403.7656 Q472.3125,405.8594 473,406.9375 Q473.6875,408 475.0313,408 Q475.6563,408 476.25,407.7344 Q476.8438,407.4531 477.4688,406.875 L477.4688,409.5938 Z "/>
      <text fill="#000000" font-family="sans-serif" font-size="12" lengthAdjust="spacingAndGlyphs" textLength="29" x="488.5" y="408.1074">path</text>
      <line style="stroke: #A80036; stroke-width: 1.5;" x1="460.5" x2="519.5" y1="419.9531" y2="419.9531"/>
      <line style="stroke: #A80036; stroke-width: 1.5;" x1="460.5" x2="519.5" y1="427.9531" y2="427.9531"/>
    </a>
    <a href="structclanguml_1_1common_1_1model_1_1ns__path__separator.html" target="_top" title="ns_path_separator" xlink:actuate="onRequest" xlink:href="structclanguml_1_1common_1_1model_1_1ns__path__separator.html" xlink:show="new" xlink:title="ns_path_separator" xlink:type="simple">
      <rect fill="#FEFECE" filter="url(#fpfhbnj8elcho)" height="48" id="C_0010655386284821382926" style="stroke: #A80036; stroke-width: 1.5;" width="150" x="6" y="28.9531"/>
      <ellipse cx="21" cy="44.9531" fill="#ADD1B2" rx="11" ry="11" style="stroke: #A80036; stroke-width: 1.0;"/>
      <path d="M23.9688,50.5938 Q23.3906,50.8906 22.75,51.0313 Q22.1094,51.1875 21.4063,51.1875 Q18.9063,51.1875 17.5781,49.5469 Q16.2656,47.8906 16.2656,44.7656 Q16.2656,41.6406 17.5781,39.9844 Q18.9063,38.3281 21.4063,38.3281 Q22.1094,38.3281 22.75,38.4844 Q23.4063,38.6406 23.9688,38.9375 L23.9688,41.6563 Q23.3438,41.0781 22.75,40.8125 Q22.1563,40.5313 21.5313,40.5313 Q20.1875,40.5313 19.5,41.6094 Q18.8125,42.6719 18.8125,44.7656 Q18.8125,46.8594 19.5,47.9375 Q20.1875,49 21.5313,49 Q22.1563,49 22.75,48.7344 Q23.3438,48.4531 23.9688,47.875 L23.9688,50.5938 Z "/>
      <text fill="#000000" font-family="sans-serif" font-size="12" lengthAdjust="spacingAndGlyphs" textLength="118" x="35" y="49.1074">ns_path_separator</text>
      <line style="stroke: #A80036; stroke-width: 1.5;" x1="7" x2="155" y1="60.9531" y2="60.9531"/>
      <line style="stroke: #A80036; stroke-width: 1.5;" x1="7" x2="155" y1="68.9531" y2="68.9531"/>
    </a>
    <a href="classclanguml_1_1common_1_1model_1_1relationship.html" target="_top" title="Class representing any relationship other than inheritance" xlink:actuate="onRequest" xlink:href="classclanguml_1_1common_1_1model_1_1relationship.html" xlink:show="new" xlink:title="Class representing any relationship other than inheritance" xlink:type="simple">
      <rect fill="#FEFECE" filter="url(#fpfhbnj8elcho)" height="48" id="C_0016370694070378943411" style="stroke: #A80036; stroke-width: 1.5;" width="106" x="410" y="262.9531"/>
      <ellipse cx="425" cy="278.9531" fill="#ADD1B2" rx="11" ry="11" style="stroke: #A80036; stroke-width: 1.0;"/>
      <path d="M427.9688,284.5938 Q427.3906,284.8906 426.75,285.0313 Q426.1094,285.1875 425.4063,285.1875 Q422.9063,285.1875 421.5781,283.5469 Q420.2656,281.8906 420.2656,278.7656 Q420.2656,275.6406 421.5781,273.9844 Q422.9063,272.3281 425.4063,272.3281 Q426.1094,272.3281 426.75,272.4844 Q427.4063,272.6406 427.9688,272.9375 L427.9688,275.6563 Q427.3438,275.0781 426.75,274.8125 Q426.1563,274.5313 425.5313,274.5313 Q424.1875,274.5313 423.5,275.6094 Q422.8125,276.6719 422.8125,278.7656 Q422.8125,280.8594 423.5,281.9375 Q424.1875,283 425.5313,283 Q426.1563,283 426.75,282.7344 Q427.3438,282.4531 427.9688,281.875 L427.9688,284.5938 Z "/>
      <text fill="#000000" font-family="sans-serif" font-size="12" lengthAdjust="spacingAndGlyphs" textLength="74" x="439" y="283.1074">relationship</text>
      <line style="stroke: #A80036; stroke-width: 1.5;" x1="411" x2="515" y1="294.9531" y2="294.9531"/>
      <line style="stroke: #A80036; stroke-width: 1.5;" x1="411" x2="515" y1="302.9531" y2="302.9531"/>
    </a>
    <a href="classclanguml_1_1common_1_1model_1_1source__location.html" target="_top" title="Base class of all diagram elements that have source location." xlink:actuate="onRequest" xlink:href="classclanguml_1_1common_1_1model_1_1source__location.html" xlink:show="new" xlink:title="Base class of all diagram elements that have source location." xlink:type="simple">
      <rect fill="#FEFECE" filter="url(#fpfhbnj8elcho)" height="48" id="C_0007162092657467521843" style="stroke: #A80036; stroke-width: 1.5;" width="131" x="522.5" y="28.9531"/>
      <ellipse cx="537.5" cy="44.9531" fill="#ADD1B2" rx="11" ry="11" style="stroke: #A80036; stroke-width: 1.0;"/>
      <path d="M540.4688,50.5938 Q539.8906,50.8906 539.25,51.0313 Q538.6094,51.1875 537.9063,51.1875 Q535.4063,51.1875 534.0781,49.5469 Q532.7656,47.8906 532.7656,44.7656 Q532.7656,41.6406 534.0781,39.9844 Q535.4063,38.3281 537.9063,38.3281 Q538.6094,38.3281 539.25,38.4844 Q539.9063,38.6406 540.4688,38.9375 L540.4688,41.6563 Q539.8438,41.0781 539.25,40.8125 Q538.6563,40.5313 538.0313,40.5313 Q536.6875,40.5313 536,41.6094 Q535.3125,42.6719 535.3125,44.7656 Q535.3125,46.8594 536,47.9375 Q536.6875,49 538.0313,49 Q538.6563,49 539.25,48.7344 Q539.8438,48.4531 540.4688,47.875 L540.4688,50.5938 Z "/>
      <text fill="#000000" font-family="sans-serif" font-size="12" lengthAdjust="spacingAndGlyphs" textLength="99" x="551.5" y="49.1074">source_location</text>
      <line style="stroke: #A80036; stroke-width: 1.5;" x1="523.5" x2="652.5" y1="60.9531" y2="60.9531"/>
      <line style="stroke: #A80036; stroke-width: 1.5;" x1="523.5" x2="652.5" y1="68.9531" y2="68.9531"/>
    </a>
    <a href="classclanguml_1_1common_1_1model_1_1diagram__element.html" target="_top" title="Base class for standalone diagram elements." xlink:actuate="onRequest" xlink:href="classclanguml_1_1common_1_1model_1_1diagram__element.html" xlink:show="new" xlink:title="Base class for standalone diagram elements." xlink:type="simple">
      <rect fill="#FEFECE" filter="url(#fpfhbnj8elcho)" height="48" id="C_0008588005715032923314" style="stroke: #A80036; stroke-width: 1.5;" width="140" x="463" y="137.9531"/>
      <ellipse cx="478" cy="153.9531" fill="#ADD1B2" rx="11" ry="11" style="stroke: #A80036; stroke-width: 1.0;"/>
      <path d="M480.9688,159.5938 Q480.3906,159.8906 479.75,160.0313 Q479.1094,160.1875 478.4063,160.1875 Q475.9063,160.1875 474.5781,158.5469 Q473.2656,156.8906 473.2656,153.7656 Q473.2656,150.6406 474.5781,148.9844 Q475.9063,147.3281 478.4063,147.3281 Q479.1094,147.3281 479.75,147.4844 Q480.4063,147.6406 480.9688,147.9375 L480.9688,150.6563 Q480.3438,150.0781 479.75,149.8125 Q479.1563,149.5313 478.5313,149.5313 Q477.1875,149.5313 476.5,150.6094 Q475.8125,151.6719 475.8125,153.7656 Q475.8125,155.8594 476.5,156.9375 Q477.1875,158 478.5313,158 Q479.1563,158 479.75,157.7344 Q480.3438,157.4531 480.9688,156.875 L480.9688,159.5938 Z "/>
      <text fill="#000000" font-family="sans-serif" font-size="12" lengthAdjust="spacingAndGlyphs" textLength="108" x="492" y="158.1074">diagram_element</text>
      <line style="stroke: #A80036; stroke-width: 1.5;" x1="464" x2="602" y1="169.9531" y2="169.9531"/>
      <line style="stroke: #A80036; stroke-width: 1.5;" x1="464" x2="602" y1="177.9531" y2="177.9531"/>
    </a>
    <a href="classclanguml_1_1common_1_1model_1_1element.html" target="_top" title="Base class for any element qualified by namespace." xlink:actuate="onRequest" xlink:href="classclanguml_1_1common_1_1model_1_1element.html" xlink:show="new" xlink:title="Base class for any element qualified by namespace." xlink:type="simple">
      <rect fill="#FEFECE" filter="url(#fpfhbnj8elcho)" height="48" id="C_0016556163051475263500" style="stroke: #A80036; stroke-width: 1.5;" width="83" x="551.5" y="262.9531"/>
      <ellipse cx="566.5" cy="278.9531" fill="#ADD1B2" rx="11" ry="11" style="stroke: #A80036; stroke-width: 1.0;"/>
      <path d="M569.4688,284.5938 Q568.8906,284.8906 568.25,285.0313 Q567.6094,285.1875 566.9063,285.1875 Q564.4063,285.1875 563.0781,283.5469 Q561.7656,281.8906 561.7656,278.7656 Q561.7656,275.6406 563.0781,273.9844 Q564.4063,272.3281 566.9063,272.3281 Q567.6094,272.3281 568.25,272.4844 Q568.9063,272.6406 569.4688,272.9375 L569.4688,275.6563 Q568.8438,275.0781 568.25,274.8125 Q567.6563,274.5313 567.0313,274.5313 Q565.6875,274.5313 565,275.6094 Q564.3125,276.6719 564.3125,278.7656 Q564.3125,280.8594 565,281.9375 Q565.6875,283 567.0313,283 Q567.6563,283 568.25,282.7344 Q568.8438,282.4531 569.4688,281.875 L569.4688,284.5938 Z "/>
      <text fill="#000000" font-family="sans-serif" font-size="12" lengthAdjust="spacingAndGlyphs" textLength="51" x="580.5" y="283.1074">element</text>
      <line style="stroke: #A80036; stroke-width: 1.5;" x1="552.5" x2="633.5" y1="294.9531" y2="294.9531"/>
      <line style="stroke: #A80036; stroke-width: 1.5;" x1="552.5" x2="633.5" y1="302.9531" y2="302.9531"/>
    </a>
    <a href="classclanguml_1_1common_1_1model_1_1nested__trait.html" target="_top" title="Base class for elements nested in the diagram." xlink:actuate="onRequest" xlink:href="classclanguml_1_1common_1_1model_1_1nested__trait.html" xlink:show="new" xlink:title="Base class for elements nested in the diagram." xlink:type="simple">
      <rect fill="#FEFECE" filter="url(#fpfhbnj8elcho)" height="48" id="C_0007129669985754476498" style="stroke: #A80036; stroke-width: 1.5;" width="151" x="875.5" y="262.9531"/>
      <ellipse cx="890.5" cy="278.9531" fill="#ADD1B2" rx="11" ry="11" style="stroke: #A80036; stroke-width: 1.0;"/>
      <path d="M893.4688,284.5938 Q892.8906,284.8906 892.25,285.0313 Q891.6094,285.1875 890.9063,285.1875 Q888.4063,285.1875 887.0781,283.5469 Q885.7656,281.8906 885.7656,278.7656 Q885.7656,275.6406 887.0781,273.9844 Q888.4063,272.3281 890.9063,272.3281 Q891.6094,272.3281 892.25,272.4844 Q892.9063,272.6406 893.4688,272.9375 L893.4688,275.6563 Q892.8438,275.0781 892.25,274.8125 Q891.6563,274.5313 891.0313,274.5313 Q889.6875,274.5313 889,275.6094 Q888.3125,276.6719 888.3125,278.7656 Q888.3125,280.8594 889,281.9375 Q889.6875,283 891.0313,283 Q891.6563,283 892.25,282.7344 Q892.8438,282.4531 893.4688,281.875 L893.4688,284.5938 Z "/>
      <text fill="#000000" font-family="sans-serif" font-size="12" lengthAdjust="spacingAndGlyphs" textLength="76" x="904.5" y="283.1074">nested_trait</text>
      <rect fill="#FFFFFF" height="15.9688" style="stroke: #000000; stroke-width: 1.0; stroke-dasharray: 2.0,2.0;" width="41" x="988.5" y="259.9531"/>
      <text fill="#000000" font-family="sans-serif" font-size="12" font-style="italic" lengthAdjust="spacingAndGlyphs" textLength="39" x="989.5" y="272.0918">T,Path</text>
      <line style="stroke: #A80036; stroke-width: 1.5;" x1="876.5" x2="1025.5" y1="294.9531" y2="294.9531"/>
      <line style="stroke: #A80036; stroke-width: 1.5;" x1="876.5" x2="1025.5" y1="302.9531" y2="302.9531"/>
    </a>
    <a href="classclanguml_1_1common_1_1model_1_1nested__trait.html" target="_top" title="nested_trait" xlink:actuate="onRequest" xlink:href="classclanguml_1_1common_1_1model_1_1nested__trait.html" xlink:show="new" xlink:title="nested_trait" xlink:type="simple">
      <rect fill="#FEFECE" filter="url(#fpfhbnj8elcho)" height="48" id="C_0015066935078142509054" style="stroke: #A80036; stroke-width: 1.5;" width="196" x="1124" y="137.9531"/>
      <ellipse cx="1139" cy="153.9531" fill="#ADD1B2" rx="11" ry="11" style="stroke: #A80036; stroke-width: 1.0;"/>
      <path d="M1141.9688,159.5938 Q1141.3906,159.8906 1140.75,160.0313 Q1140.1094,160.1875 1139.4063,160.1875 Q1136.9063,160.1875 1135.5781,158.5469 Q1134.2656,156.8906 1134.2656,153.7656 Q1134.2656,150.6406 1135.5781,148.9844 Q1136.9063,147.3281 1139.4063,147.3281 Q1140.1094,147.3281 1140.75,147.4844 Q1141.4063,147.6406 1141.9688,147.9375 L1141.9688,150.6563 Q1141.3438,150.0781 1140.75,149.8125 Q1140.1563,149.5313 1139.5313,149.5313 Q1138.1875,149.5313 1137.5,150.6094 Q1136.8125,151.6719 1136.8125,153.7656 Q1136.8125,155.8594 1137.5,156.9375 Q1138.1875,158 1139.5313,158 Q1140.1563,158 1140.75,157.7344 Q1141.3438,157.4531 1141.9688,156.875 L1141.9688,159.5938 Z "/>
      <text fill="#000000" font-family="sans-serif" font-size="12" lengthAdjust="spacingAndGlyphs" textLength="76" x="1153" y="158.1074">nested_trait</text>
      <rect fill="#FFFFFF" height="15.9688" style="stroke: #000000; stroke-width: 1.0; stroke-dasharray: 2.0,2.0;" width="86" x="1237" y="134.9531"/>
      <text fill="#000000" font-family="sans-serif" font-size="12" font-style="italic" lengthAdjust="spacingAndGlyphs" textLength="84" x="1238" y="147.0918">element,path</text>
      <line style="stroke: #A80036; stroke-width: 1.5;" x1="1125" x2="1319" y1="169.9531" y2="169.9531"/>
      <line style="stroke: #A80036; stroke-width: 1.5;" x1="1125" x2="1319" y1="177.9531" y2="177.9531"/>
    </a>
    <a href="classclanguml_1_1common_1_1model_1_1package.html" target="_top" title="Diagram element representing namespace or directory package" xlink:actuate="onRequest" xlink:href="classclanguml_1_1common_1_1model_1_1package.html" xlink:show="new" xlink:title="Diagram element representing namespace or directory package" xlink:type="simple">
      <rect fill="#FEFECE" filter="url(#fpfhbnj8elcho)" height="48" id="C_0017146293478645494837" style="stroke: #A80036; stroke-width: 1.5;" width="86" x="779" y="387.9531"/>
      <ellipse cx="794" cy="403.9531" fill="#ADD1B2" rx="11" ry="11" style="stroke: #A80036; stroke-width: 1.0;"/>
      <path d="M796.9688,409.5938 Q796.3906,409.8906 795.75,410.0313 Q795.1094,410.1875 794.4063,410.1875 Q791.9063,410.1875 790.5781,408.5469 Q789.2656,406.8906 789.2656,403.7656 Q789.2656,400.6406 790.5781,398.9844 Q791.9063,397.3281 794.4063,397.3281 Q795.1094,397.3281 795.75,397.4844 Q796.4063,397.6406 796.9688,397.9375 L796.9688,400.6563 Q796.3438,400.0781 795.75,399.8125 Q795.1563,399.5313 794.5313,399.5313 Q793.1875,399.5313 792.5,400.6094 Q791.8125,401.6719 791.8125,403.7656 Q791.8125,405.8594 792.5,406.9375 Q793.1875,408 794.5313,408 Q795.1563,408 795.75,407.7344 Q796.3438,407.4531 796.9688,406.875 L796.9688,409.5938 Z "/>
      <text fill="#000000" font-family="sans-serif" font-size="12" lengthAdjust="spacingAndGlyphs" textLength="54" x="808" y="408.1074">package</text>
      <line style="stroke: #A80036; stroke-width: 1.5;" x1="780" x2="864" y1="419.9531" y2="419.9531"/>
      <line style="stroke: #A80036; stroke-width: 1.5;" x1="780" x2="864" y1="427.9531" y2="427.9531"/>
    </a>
    <a href="structclanguml_1_1common_1_1model_1_1context.html" target="_top" title="context" xlink:actuate="onRequest" xlink:href="structclanguml_1_1common_1_1model_1_1context.html" xlink:show="new" xlink:title="context" xlink:type="simple">
      <rect fill="#FEFECE" filter="url(#fpfhbnj8elcho)" height="48" id="C_0006767826637291167780" style="stroke: #A80036; stroke-width: 1.5;" width="79" x="1153.5" y="512.9531"/>
      <ellipse cx="1168.5" cy="528.9531" fill="#ADD1B2" rx="11" ry="11" style="stroke: #A80036; stroke-width: 1.0;"/>
      <path d="M1171.4688,534.5938 Q1170.8906,534.8906 1170.25,535.0313 Q1169.6094,535.1875 1168.9063,535.1875 Q1166.4063,535.1875 1165.0781,533.5469 Q1163.7656,531.8906 1163.7656,528.7656 Q1163.7656,525.6406 1165.0781,523.9844 Q1166.4063,522.3281 1168.9063,522.3281 Q1169.6094,522.3281 1170.25,522.4844 Q1170.9063,522.6406 1171.4688,522.9375 L1171.4688,525.6563 Q1170.8438,525.0781 1170.25,524.8125 Q1169.6563,524.5313 1169.0313,524.5313 Q1167.6875,524.5313 1167,525.6094 Q1166.3125,526.6719 1166.3125,528.7656 Q1166.3125,530.8594 1167,531.9375 Q1167.6875,533 1169.0313,533 Q1169.6563,533 1170.25,532.7344 Q1170.8438,532.4531 1171.4688,531.875 L1171.4688,534.5938 Z "/>
      <text fill="#000000" font-family="sans-serif" font-size="12" lengthAdjust="spacingAndGlyphs" textLength="47" x="1182.5" y="533.1074">context</text>
      <line style="stroke: #A80036; stroke-width: 1.5;" x1="1154.5" x2="1231.5" y1="544.9531" y2="544.9531"/>
      <line style="stroke: #A80036; stroke-width: 1.5;" x1="1154.5" x2="1231.5" y1="552.9531" y2="552.9531"/>
    </a>
    <a href="classclanguml_1_1common_1_1model_1_1template__parameter.html" target="_top" title="Represents template parameter, template arguments or concept         constraints" xlink:actuate="onRequest" xlink:href="classclanguml_1_1common_1_1model_1_1template__parameter.html" xlink:show="new" xlink:title="Represents template parameter, template arguments or concept         constraints" xlink:type="simple">
      <rect fill="#FEFECE" filter="url(#fpfhbnj8elcho)" height="48" id="C_0001425108501944636238" style="stroke: #A80036; stroke-width: 1.5;" width="160" x="1113" y="387.9531"/>
      <ellipse cx="1128" cy="403.9531" fill="#ADD1B2" rx="11" ry="11" style="stroke: #A80036; stroke-width: 1.0;"/>
      <path d="M1130.9688,409.5938 Q1130.3906,409.8906 1129.75,410.0313 Q1129.1094,410.1875 1128.4063,410.1875 Q1125.9063,410.1875 1124.5781,408.5469 Q1123.2656,406.8906 1123.2656,403.7656 Q1123.2656,400.6406 1124.5781,398.9844 Q1125.9063,397.3281 1128.4063,397.3281 Q1129.1094,397.3281 1129.75,397.4844 Q1130.4063,397.6406 1130.9688,397.9375 L1130.9688,400.6563 Q1130.3438,400.0781 1129.75,399.8125 Q1129.1563,399.5313 1128.5313,399.5313 Q1127.1875,399.5313 1126.5,400.6094 Q1125.8125,401.6719 1125.8125,403.7656 Q1125.8125,405.8594 1126.5,406.9375 Q1127.1875,408 1128.5313,408 Q1129.1563,408 1129.75,407.7344 Q1130.3438,407.4531 1130.9688,406.875 L1130.9688,409.5938 Z "/>
      <text fill="#000000" font-family="sans-serif" font-size="12" lengthAdjust="spacingAndGlyphs" textLength="128" x="1142" y="408.1074">template_parameter</text>
      <line style="stroke: #A80036; stroke-width: 1.5;" x1="1114" x2="1272" y1="419.9531" y2="419.9531"/>
      <line style="stroke: #A80036; stroke-width: 1.5;" x1="1114" x2="1272" y1="427.9531" y2="427.9531"/>
    </a>
    <a href="classclanguml_1_1common_1_1model_1_1template__trait.html" target="_top" title="Common interface for template diagram elements." xlink:actuate="onRequest" xlink:href="classclanguml_1_1common_1_1model_1_1template__trait.html" xlink:show="new" xlink:title="Common interface for template diagram elements." xlink:type="simple">
      <rect fill="#FEFECE" filter="url(#fpfhbnj8elcho)" height="48" id="C_0003717723700041732716" style="stroke: #A80036; stroke-width: 1.5;" width="120" x="1133" y="262.9531"/>
      <ellipse cx="1148" cy="278.9531" fill="#ADD1B2" rx="11" ry="11" style="stroke: #A80036; stroke-width: 1.0;"/>
      <path d="M1150.9688,284.5938 Q1150.3906,284.8906 1149.75,285.0313 Q1149.1094,285.1875 1148.4063,285.1875 Q1145.9063,285.1875 1144.5781,283.5469 Q1143.2656,281.8906 1143.2656,278.7656 Q1143.2656,275.6406 1144.5781,273.9844 Q1145.9063,272.3281 1148.4063,272.3281 Q1149.1094,272.3281 1149.75,272.4844 Q1150.4063,272.6406 1150.9688,272.9375 L1150.9688,275.6563 Q1150.3438,275.0781 1149.75,274.8125 Q1149.1563,274.5313 1148.5313,274.5313 Q1147.1875,274.5313 1146.5,275.6094 Q1145.8125,276.6719 1145.8125,278.7656 Q1145.8125,280.8594 1146.5,281.9375 Q1147.1875,283 1148.5313,283 Q1149.1563,283 1149.75,282.7344 Q1150.3438,282.4531 1150.9688,281.875 L1150.9688,284.5938 Z "/>
      <text fill="#000000" font-family="sans-serif" font-size="12" lengthAdjust="spacingAndGlyphs" textLength="88" x="1162" y="283.1074">template_trait</text>
      <line style="stroke: #A80036; stroke-width: 1.5;" x1="1134" x2="1252" y1="294.9531" y2="294.9531"/>
      <line style="stroke: #A80036; stroke-width: 1.5;" x1="1134" x2="1252" y1="302.9531" y2="302.9531"/>
    </a>
    <a href="classclanguml_1_1common_1_1model_1_1template__element.html" target="_top" title="Base class for any element qualified by namespace." xlink:actuate="onRequest" xlink:href="classclanguml_1_1common_1_1model_1_1template__element.html" xlink:show="new" xlink:title="Base class for any element qualified by namespace." xlink:type="simple">
      <rect fill="#FEFECE" filter="url(#fpfhbnj8elcho)" height="48" id="C_0013384831159811298387" style="stroke: #A80036; stroke-width: 1.5;" width="145" x="916.5" y="387.9531"/>
      <ellipse cx="931.5" cy="403.9531" fill="#ADD1B2" rx="11" ry="11" style="stroke: #A80036; stroke-width: 1.0;"/>
      <path d="M934.4688,409.5938 Q933.8906,409.8906 933.25,410.0313 Q932.6094,410.1875 931.9063,410.1875 Q929.4063,410.1875 928.0781,408.5469 Q926.7656,406.8906 926.7656,403.7656 Q926.7656,400.6406 928.0781,398.9844 Q929.4063,397.3281 931.9063,397.3281 Q932.6094,397.3281 933.25,397.4844 Q933.9063,397.6406 934.4688,397.9375 L934.4688,400.6563 Q933.8438,400.0781 933.25,399.8125 Q932.6563,399.5313 932.0313,399.5313 Q930.6875,399.5313 930,400.6094 Q929.3125,401.6719 929.3125,403.7656 Q929.3125,405.8594 930,406.9375 Q930.6875,408 932.0313,408 Q932.6563,408 933.25,407.7344 Q933.8438,407.4531 934.4688,406.875 L934.4688,409.5938 Z "/>
      <text fill="#000000" font-family="sans-serif" font-size="12" lengthAdjust="spacingAndGlyphs" textLength="113" x="945.5" y="408.1074">template_element</text>
      <line style="stroke: #A80036; stroke-width: 1.5;" x1="917.5" x2="1060.5" y1="419.9531" y2="419.9531"/>
      <line style="stroke: #A80036; stroke-width: 1.5;" x1="917.5" x2="1060.5" y1="427.9531" y2="427.9531"/>
    </a>
    <a href="structclanguml_1_1common_1_1model_1_1fs__path__sep.html" target="_top" title="fs_path_sep" xlink:actuate="onRequest" xlink:href="structclanguml_1_1common_1_1model_1_1fs__path__sep.html" xlink:show="new" xlink:title="fs_path_sep" xlink:type="simple">
      <rect fill="#FEFECE" filter="url(#fpfhbnj8elcho)" height="48" id="C_0005122065303139962793" style="stroke: #A80036; stroke-width: 1.5;" width="107" x="190.5" y="28.9531"/>
      <ellipse cx="205.5" cy="44.9531" fill="#ADD1B2" rx="11" ry="11" style="stroke: #A80036; stroke-width: 1.0;"/>
      <path d="M208.4688,50.5938 Q207.8906,50.8906 207.25,51.0313 Q206.6094,51.1875 205.9063,51.1875 Q203.4063,51.1875 202.0781,49.5469 Q200.7656,47.8906 200.7656,44.7656 Q200.7656,41.6406 202.0781,39.9844 Q203.4063,38.3281 205.9063,38.3281 Q206.6094,38.3281 207.25,38.4844 Q207.9063,38.6406 208.4688,38.9375 L208.4688,41.6563 Q207.8438,41.0781 207.25,40.8125 Q206.6563,40.5313 206.0313,40.5313 Q204.6875,40.5313 204,41.6094 Q203.3125,42.6719 203.3125,44.7656 Q203.3125,46.8594 204,47.9375 Q204.6875,49 206.0313,49 Q206.6563,49 207.25,48.7344 Q207.8438,48.4531 208.4688,47.875 L208.4688,50.5938 Z "/>
      <text fill="#000000" font-family="sans-serif" font-size="12" lengthAdjust="spacingAndGlyphs" textLength="75" x="219.5" y="49.1074">fs_path_sep</text>
      <line style="stroke: #A80036; stroke-width: 1.5;" x1="191.5" x2="296.5" y1="60.9531" y2="60.9531"/>
      <line style="stroke: #A80036; stroke-width: 1.5;" x1="191.5" x2="296.5" y1="68.9531" y2="68.9531"/>
    </a>
    <a href="classclanguml_1_1common_1_1model_1_1nested__trait.html" target="_top" title="nested_trait" xlink:actuate="onRequest" xlink:href="classclanguml_1_1common_1_1model_1_1nested__trait.html" xlink:show="new" xlink:title="nested_trait" xlink:type="simple">
      <rect fill="#FEFECE" filter="url(#fpfhbnj8elcho)" height="48" id="C_0012891720332235399601" style="stroke: #A80036; stroke-width: 1.5;" width="278" x="811" y="137.9531"/>
      <ellipse cx="826" cy="153.9531" fill="#ADD1B2" rx="11" ry="11" style="stroke: #A80036; stroke-width: 1.0;"/>
      <path d="M828.9688,159.5938 Q828.3906,159.8906 827.75,160.0313 Q827.1094,160.1875 826.4063,160.1875 Q823.9063,160.1875 822.5781,158.5469 Q821.2656,156.8906 821.2656,153.7656 Q821.2656,150.6406 822.5781,148.9844 Q823.9063,147.3281 826.4063,147.3281 Q827.1094,147.3281 827.75,147.4844 Q828.4063,147.6406 828.9688,147.9375 L828.9688,150.6563 Q828.3438,150.0781 827.75,149.8125 Q827.1563,149.5313 826.5313,149.5313 Q825.1875,149.5313 824.5,150.6094 Q823.8125,151.6719 823.8125,153.7656 Q823.8125,155.8594 824.5,156.9375 Q825.1875,158 826.5313,158 Q827.1563,158 827.75,157.7344 Q828.3438,157.4531 828.9688,156.875 L828.9688,159.5938 Z "/>
      <text fill="#000000" font-family="sans-serif" font-size="12" lengthAdjust="spacingAndGlyphs" textLength="76" x="840" y="158.1074">nested_trait</text>
      <rect fill="#FFFFFF" height="15.9688" style="stroke: #000000; stroke-width: 1.0; stroke-dasharray: 2.0,2.0;" width="168" x="924" y="134.9531"/>
      <text fill="#000000" font-family="sans-serif" font-size="12" font-style="italic" lengthAdjust="spacingAndGlyphs" textLength="166" x="925" y="147.0918">source_file,filesystem_path</text>
      <line style="stroke: #A80036; stroke-width: 1.5;" x1="812" x2="1088" y1="169.9531" y2="169.9531"/>
      <line style="stroke: #A80036; stroke-width: 1.5;" x1="812" x2="1088" y1="177.9531" y2="177.9531"/>
    </a>
    <a href="classclanguml_1_1common_1_1model_1_1source__file.html" target="_top" title="Diagram element representing some file or directory." xlink:actuate="onRequest" xlink:href="classclanguml_1_1common_1_1model_1_1source__file.html" xlink:show="new" xlink:title="Diagram element representing some file or directory." xlink:type="simple">
      <rect fill="#FEFECE" filter="url(#fpfhbnj8elcho)" height="48" id="C_0006285717704576425038" style="stroke: #A80036; stroke-width: 1.5;" width="99" x="669.5" y="262.9531"/>
      <ellipse cx="684.5" cy="278.9531" fill="#ADD1B2" rx="11" ry="11" style="stroke: #A80036; stroke-width: 1.0;"/>
      <path d="M687.4688,284.5938 Q686.8906,284.8906 686.25,285.0313 Q685.6094,285.1875 684.9063,285.1875 Q682.4063,285.1875 681.0781,283.5469 Q679.7656,281.8906 679.7656,278.7656 Q679.7656,275.6406 681.0781,273.9844 Q682.4063,272.3281 684.9063,272.3281 Q685.6094,272.3281 686.25,272.4844 Q686.9063,272.6406 687.4688,272.9375 L687.4688,275.6563 Q686.8438,275.0781 686.25,274.8125 Q685.6563,274.5313 685.0313,274.5313 Q683.6875,274.5313 683,275.6094 Q682.3125,276.6719 682.3125,278.7656 Q682.3125,280.8594 683,281.9375 Q683.6875,283 685.0313,283 Q685.6563,283 686.25,282.7344 Q686.8438,282.4531 687.4688,281.875 L687.4688,284.5938 Z "/>
      <text fill="#000000" font-family="sans-serif" font-size="12" lengthAdjust="spacingAndGlyphs" textLength="67" x="698.5" y="283.1074">source_file</text>
      <line style="stroke: #A80036; stroke-width: 1.5;" x1="670.5" x2="767.5" y1="294.9531" y2="294.9531"/>
      <line style="stroke: #A80036; stroke-width: 1.5;" x1="670.5" x2="767.5" y1="302.9531" y2="302.9531"/>
    </a>
    <a href="classclanguml_1_1common_1_1model_1_1diagram.html" target="_top" title="Base class for all diagram models" xlink:actuate="onRequest" xlink:href="classclanguml_1_1common_1_1model_1_1diagram.html" xlink:show="new" xlink:title="Base class for all diagram models" xlink:type="simple">
      <rect fill="#FEFECE" filter="url(#fpfhbnj8elcho)" height="48" id="C_0001576551882566686996" style="stroke: #A80036; stroke-width: 1.5;" width="83" x="1355.5" y="137.9531"/>
      <ellipse cx="1370.5" cy="153.9531" fill="#ADD1B2" rx="11" ry="11" style="stroke: #A80036; stroke-width: 1.0;"/>
      <path d="M1373.4688,159.5938 Q1372.8906,159.8906 1372.25,160.0313 Q1371.6094,160.1875 1370.9063,160.1875 Q1368.4063,160.1875 1367.0781,158.5469 Q1365.7656,156.8906 1365.7656,153.7656 Q1365.7656,150.6406 1367.0781,148.9844 Q1368.4063,147.3281 1370.9063,147.3281 Q1371.6094,147.3281 1372.25,147.4844 Q1372.9063,147.6406 1373.4688,147.9375 L1373.4688,150.6563 Q1372.8438,150.0781 1372.25,149.8125 Q1371.6563,149.5313 1371.0313,149.5313 Q1369.6875,149.5313 1369,150.6094 Q1368.3125,151.6719 1368.3125,153.7656 Q1368.3125,155.8594 1369,156.9375 Q1369.6875,158 1371.0313,158 Q1371.6563,158 1372.25,157.7344 Q1372.8438,157.4531 1373.4688,156.875 L1373.4688,159.5938 Z "/>
      <text fill="#000000" font-family="sans-serif" font-size="12" lengthAdjust="spacingAndGlyphs" textLength="51" x="1384.5" y="158.1074">diagram</text>
      <line style="stroke: #A80036; stroke-width: 1.5;" x1="1356.5" x2="1437.5" y1="169.9531" y2="169.9531"/>
      <line style="stroke: #A80036; stroke-width: 1.5;" x1="1356.5" x2="1437.5" y1="177.9531" y2="177.9531"/>
    </a>
    <a href="classclanguml_1_1common_1_1model_1_1element__view.html" target="_top" title="element_view" xlink:actuate="onRequest" xlink:href="classclanguml_1_1common_1_1model_1_1element__view.html" xlink:show="new" xlink:title="element_view" xlink:type="simple">
      <rect fill="#FEFECE" filter="url(#fpfhbnj8elcho)" height="48" id="C_0014290881841292490213" style="stroke: #A80036; stroke-width: 1.5;" width="126" x="18" y="137.9531"/>
      <ellipse cx="33" cy="153.9531" fill="#ADD1B2" rx="11" ry="11" style="stroke: #A80036; stroke-width: 1.0;"/>
      <path d="M35.9688,159.5938 Q35.3906,159.8906 34.75,160.0313 Q34.1094,160.1875 33.4063,160.1875 Q30.9063,160.1875 29.5781,158.5469 Q28.2656,156.8906 28.2656,153.7656 Q28.2656,150.6406 29.5781,148.9844 Q30.9063,147.3281 33.4063,147.3281 Q34.1094,147.3281 34.75,147.4844 Q35.4063,147.6406 35.9688,147.9375 L35.9688,150.6563 Q35.3438,150.0781 34.75,149.8125 Q34.1563,149.5313 33.5313,149.5313 Q32.1875,149.5313 31.5,150.6094 Q30.8125,151.6719 30.8125,153.7656 Q30.8125,155.8594 31.5,156.9375 Q32.1875,158 33.5313,158 Q34.1563,158 34.75,157.7344 Q35.3438,157.4531 35.9688,156.875 L35.9688,159.5938 Z "/>
      <text fill="#000000" font-family="sans-serif" font-size="12" lengthAdjust="spacingAndGlyphs" textLength="83" x="47" y="158.1074">element_view</text>
      <rect fill="#FFFFFF" height="15.9688" style="stroke: #000000; stroke-width: 1.0; stroke-dasharray: 2.0,2.0;" width="9" x="138" y="134.9531"/>
      <text fill="#000000" font-family="sans-serif" font-size="12" font-style="italic" lengthAdjust="spacingAndGlyphs" textLength="7" x="139" y="147.0918">T</text>
      <line style="stroke: #A80036; stroke-width: 1.5;" x1="19" x2="143" y1="169.9531" y2="169.9531"/>
      <line style="stroke: #A80036; stroke-width: 1.5;" x1="19" x2="143" y1="177.9531" y2="177.9531"/>
    </a>
    <a href="classclanguml_1_1common_1_1model_1_1diagram__filter.html" target="_top" title="Composite of all diagrams filters." xlink:actuate="onRequest" xlink:href="classclanguml_1_1common_1_1model_1_1diagram__filter.html" xlink:show="new" xlink:title="Composite of all diagrams filters." xlink:type="simple">
      <rect fill="#FEFECE" filter="url(#fpfhbnj8elcho)" height="48" id="C_0016433125554160293965" style="stroke: #A80036; stroke-width: 1.5;" width="117" x="1357.5" y="262.9531"/>
      <ellipse cx="1372.5" cy="278.9531" fill="#ADD1B2" rx="11" ry="11" style="stroke: #A80036; stroke-width: 1.0;"/>
      <path d="M1375.4688,284.5938 Q1374.8906,284.8906 1374.25,285.0313 Q1373.6094,285.1875 1372.9063,285.1875 Q1370.4063,285.1875 1369.0781,283.5469 Q1367.7656,281.8906 1367.7656,278.7656 Q1367.7656,275.6406 1369.0781,273.9844 Q1370.4063,272.3281 1372.9063,272.3281 Q1373.6094,272.3281 1374.25,272.4844 Q1374.9063,272.6406 1375.4688,272.9375 L1375.4688,275.6563 Q1374.8438,275.0781 1374.25,274.8125 Q1373.6563,274.5313 1373.0313,274.5313 Q1371.6875,274.5313 1371,275.6094 Q1370.3125,276.6719 1370.3125,278.7656 Q1370.3125,280.8594 1371,281.9375 Q1371.6875,283 1373.0313,283 Q1373.6563,283 1374.25,282.7344 Q1374.8438,282.4531 1375.4688,281.875 L1375.4688,284.5938 Z "/>
      <text fill="#000000" font-family="sans-serif" font-size="12" lengthAdjust="spacingAndGlyphs" textLength="85" x="1386.5" y="283.1074">diagram_filter</text>
      <line style="stroke: #A80036; stroke-width: 1.5;" x1="1358.5" x2="1473.5" y1="294.9531" y2="294.9531"/>
      <line style="stroke: #A80036; stroke-width: 1.5;" x1="1358.5" x2="1473.5" y1="302.9531" y2="302.9531"/>
    </a>
    <path d="M1255,40.4531 L1255,65.5859 A0,0 0 0 0 1255,65.5859 L1393,65.5859 L1397,137.7831 L1401,65.5859 L1539,65.5859 A0,0 0 0 0 1539,65.5859 L1539,50.4531 L1529,40.4531 L1255,40.4531 A0,0 0 0 0 1255,40.4531 " fill="#FBFB77" filter="url(#fpfhbnj8elcho)" style="stroke: #A80036; stroke-width: 1.0;"/>
    <path d="M1529,40.4531 L1529,50.4531 L1539,50.4531 L1529,40.4531 " fill="#FBFB77" style="stroke: #A80036; stroke-width: 1.0;"/>
    <text fill="#000000" font-family="sans-serif" font-size="13" lengthAdjust="spacingAndGlyphs" textLength="263" x="1261" y="57.52">Common class for specific diagram types</text>
    <path d="M418.81,96.9231 C426.39,133.2531 437.84,186.6431 449,232.9531 C451.36,242.7631 454.17,253.5331 456.65,262.7931 " fill="none" id="C_0008936819060997384951&lt;-C_0016370694070378943411" style="stroke: #A80036; stroke-width: 1.0;"/>
    <polygon fill="none" points="411.93,98.2031,414.73,77.2031,425.64,95.3631,411.93,98.2031" style="stroke: #A80036; stroke-width: 1.0;"/>
    <path d="M644.62,195.3731 C621.54,207.2931 595.12,220.8231 571,232.9531 C551.22,242.8931 529.3,253.6931 510.41,262.9331 " fill="none" id="C_0016622768607835415521&lt;-C_0016370694070378943411" style="stroke: #A80036; stroke-width: 1.0;"/>
    <polygon fill="none" points="641.72,188.9931,662.7,186.0231,648.15,201.4331,641.72,188.9931" style="stroke: #A80036; stroke-width: 1.0;"/>
    <path d="M477.86,194.4631 C471.07,200.6931 465.09,207.8531 461,215.9531 C453.76,230.2731 454.52,248.4331 456.95,262.6731 " fill="none" id="C_0008588005715032923314&lt;-C_0016370694070378943411" style="stroke: #A80036; stroke-width: 1.0;"/>
    <polygon fill="#FFFFFF" points="488.26,185.9931,481.0812,186.6745,478.9491,193.5632,486.1279,192.8818,488.26,185.9931" style="stroke: #A80036; stroke-width: 1.0;"/>
    <rect fill="none" height="6" style="stroke: #C82930; stroke-width: 1.0;" width="6" x="464" y="222.0195"/>
    <text fill="#000000" font-family="sans-serif" font-size="13" lengthAdjust="spacingAndGlyphs" textLength="88" x="474" y="229.02">relationships_</text>
    <path d="M452,90.4931 C470.01,106.1531 490.5,123.9831 506.36,137.7831 " fill="none" id="C_0008936819060997384951&lt;-C_0008588005715032923314" style="stroke: #A80036; stroke-width: 1.0;"/>
    <polygon fill="none" points="447.18,95.5831,436.69,77.1731,456.37,85.0131,447.18,95.5831" style="stroke: #A80036; stroke-width: 1.0;"/>
    <path d="M566.86,95.0831 C559.42,109.5531 551.32,125.3131 544.91,137.7831 " fill="none" id="C_0007162092657467521843&lt;-C_0008588005715032923314" style="stroke: #A80036; stroke-width: 1.0;"/>
    <polygon fill="none" points="560.7,91.7531,576.07,77.1731,573.15,98.1631,560.7,91.7531" style="stroke: #A80036; stroke-width: 1.0;"/>
    <path d="M538.94,309.0331 C536.94,309.6931 534.96,310.3431 533,310.9531 C479.72,327.6431 445.45,297.0031 411,340.9531 C392.52,364.5331 429.87,386.5431 459.27,399.3731 " fill="none" id="C_0016556163051475263500&lt;-C_0006758698337325774198" style="stroke: #A80036; stroke-width: 1.0;"/>
    <polygon fill="#FFFFFF" points="551.27,304.7131,544.2848,302.9223,539.9451,308.6814,546.9303,310.4722,551.27,304.7131" style="stroke: #A80036; stroke-width: 1.0;"/>
    <rect fill="none" height="6" style="stroke: #C82930; stroke-width: 1.0;" width="6" x="414" y="347.0195"/>
    <text fill="#000000" font-family="sans-serif" font-size="13" lengthAdjust="spacingAndGlyphs" textLength="22" x="424" y="354.02">ns_</text>
    <path d="M539.02,308.7031 C516.17,318.6831 493.35,330.6831 487,340.9531 C478.43,354.8231 479.65,373.3431 482.77,387.8631 " fill="none" id="C_0016556163051475263500&lt;-C_0006758698337325774198-1" style="stroke: #A80036; stroke-width: 1.0;"/>
    <polygon fill="#FFFFFF" points="551.24,303.5431,544.1556,302.1974,540.1886,308.2192,547.273,309.565,551.24,303.5431" style="stroke: #A80036; stroke-width: 1.0;"/>
    <rect fill="none" height="6" style="stroke: #C82930; stroke-width: 1.0;" width="6" x="490" y="347.0195"/>
    <text fill="#000000" font-family="sans-serif" font-size="13" lengthAdjust="spacingAndGlyphs" textLength="123" x="500" y="354.02">using_namespace_</text>
    <path d="M563.62,202.9131 C566.3,207.2031 568.82,211.5931 571,215.9531 C578.46,230.8831 584.04,248.8631 587.72,262.8631 " fill="none" id="C_0008588005715032923314&lt;-C_0016556163051475263500" style="stroke: #A80036; stroke-width: 1.0;"/>
    <polygon fill="none" points="557.69,206.6431,552.11,186.2031,569.22,198.7031,557.69,206.6431" style="stroke: #A80036; stroke-width: 1.0;"/>
    <path d="M1132.07,186.0331 C1106.26,194.0631 1078.49,204.0831 1054,215.9531 C1034.15,225.5731 1013.77,238.6331 996.43,250.8731 " fill="none" id="C_0015066935078142509054-&gt;C_0007129669985754476498" style="stroke: #A80036; stroke-width: 1.0; stroke-dasharray: 7.0,7.0;"/>
    <polygon fill="none" points="1000.52,256.5531,980.24,262.6831,992.27,245.2431,1000.52,256.5531" style="stroke: #A80036; stroke-width: 1.0;"/>
    <path d="M629.11,325.2231 C641.84,336.8631 656.79,348.9931 672,357.9531 C705.55,377.7231 747.65,391.7931 778.7,400.4431 " fill="none" id="C_0016556163051475263500&lt;-C_0017146293478645494837" style="stroke: #A80036; stroke-width: 1.0;"/>
    <polygon fill="none" points="623.89,329.9131,614.32,311.0031,633.59,319.8131,623.89,329.9131" style="stroke: #A80036; stroke-width: 1.0;"/>
    <path d="M743.57,201.1531 C758.67,218.7631 775.14,240.6831 786,262.9531 C806.16,304.3131 815.55,357.8231 819.49,387.8531 " fill="none" id="C_0016622768607835415521&lt;-C_0017146293478645494837" style="stroke: #A80036; stroke-width: 1.0;"/>
    <polygon fill="none" points="738.14,205.5731,730.02,186.0031,748.57,196.2431,738.14,205.5731" style="stroke: #A80036; stroke-width: 1.0;"/>
    <path d="M1183.64,200.1231 C1149.1,232.2531 1095.93,278.5031 1044,310.9531 C985.39,347.5731 911.09,378.2031 865.05,395.5631 " fill="none" id="C_0015066935078142509054&lt;-C_0017146293478645494837" style="stroke: #A80036; stroke-width: 1.0;"/>
    <polygon fill="none" points="1179.22,194.6731,1198.57,186.0331,1188.83,204.8531,1179.22,194.6731" style="stroke: #A80036; stroke-width: 1.0;"/>
    <path d="M1193,449.1631 C1193,469.7831 1193,494.9931 1193,512.9231 " fill="none" id="C_0001425108501944636238&lt;-C_0006767826637291167780" style="stroke: #A80036; stroke-width: 1.0;"/>
    <polygon fill="#FFFFFF" points="1193,436.0931,1189,442.0931,1193,448.0931,1197,442.0931,1193,436.0931" style="stroke: #A80036; stroke-width: 1.0;"/>
    <rect fill="none" height="6" style="stroke: #C82930; stroke-width: 1.0;" width="6" x="1196" y="472.0195"/>
    <text fill="#000000" font-family="sans-serif" font-size="13" lengthAdjust="spacingAndGlyphs" textLength="55" x="1206" y="479.02">context_</text>
    <path d="M1286.17,401.5531 C1299.24,403.2431 1308,406.7131 1308,411.9531 C1308,418.7931 1293.06,422.6131 1273.08,423.4231 " fill="none" id="C_0001425108501944636238&lt;-C_0001425108501944636238" style="stroke: #A80036; stroke-width: 1.0;"/>
    <polygon fill="#FFFFFF" points="1273.08,400.4831,1278.7398,404.9516,1285.0413,401.4458,1279.3816,396.9774,1273.08,400.4831" style="stroke: #A80036; stroke-width: 1.0;"/>
    <rect fill="none" height="6" style="stroke: #C82930; stroke-width: 1.0;" width="6" x="1316" y="409.5195"/>
    <text fill="#000000" font-family="sans-serif" font-size="13" lengthAdjust="spacingAndGlyphs" textLength="121" x="1326" y="416.52">template_params_</text>
    <path d="M1193,324.1631 C1193,344.7831 1193,369.9931 1193,387.9231 " fill="none" id="C_0003717723700041732716&lt;-C_0001425108501944636238" style="stroke: #A80036; stroke-width: 1.0;"/>
    <polygon fill="#FFFFFF" points="1193,311.0931,1189,317.0931,1193,323.0931,1197,317.0931,1193,311.0931" style="stroke: #A80036; stroke-width: 1.0;"/>
    <rect fill="none" height="6" style="stroke: #C82930; stroke-width: 1.0;" width="6" x="1196" y="347.0195"/>
    <text fill="#000000" font-family="sans-serif" font-size="13" lengthAdjust="spacingAndGlyphs" textLength="72" x="1206" y="354.02">templates_</text>
    <path d="M642.17,321.9331 C663.16,335.0031 688.45,348.9431 713,357.9531 C784.61,384.2431 807.14,373.2731 882,387.9531 C893.09,390.1331 904.81,392.5331 916.26,394.9531 " fill="none" id="C_0016556163051475263500&lt;-C_0013384831159811298387" style="stroke: #A80036; stroke-width: 1.0;"/>
    <polygon fill="none" points="638.32,327.7731,625.31,311.0431,645.91,316.0131,638.32,327.7731" style="stroke: #A80036; stroke-width: 1.0;"/>
    <path d="M1152.24,324.2631 C1138.16,335.8431 1121.9,348.1731 1106,357.9531 C1087.77,369.1731 1066.75,379.4231 1047.61,387.8631 " fill="none" id="C_0003717723700041732716&lt;-C_0013384831159811298387" style="stroke: #A80036; stroke-width: 1.0;"/>
    <polygon fill="none" points="1147.85,318.8131,1167.63,311.2231,1156.9,329.4931,1147.85,318.8131" style="stroke: #A80036; stroke-width: 1.0;"/>
    <path d="M950.19,186.0931 C950.32,202.0631 950.49,223.7931 950.65,242.9031 " fill="none" id="C_0012891720332235399601-&gt;C_0007129669985754476498" style="stroke: #A80036; stroke-width: 1.0; stroke-dasharray: 7.0,7.0;"/>
    <polygon fill="none" points="957.65,242.8631,950.81,262.9231,943.65,242.9831,957.65,242.8631" style="stroke: #A80036; stroke-width: 1.0;"/>
    <path d="M684.68,319.8231 C669.37,332.8631 650.62,347.3531 632,357.9531 C595.87,378.5131 550.24,393.8831 520.61,402.6431 " fill="none" id="C_0006285717704576425038&lt;-C_0006758698337325774198" style="stroke: #A80036; stroke-width: 1.0;"/>
    <polygon fill="#FFFFFF" points="694.68,311.0831,687.5296,312.0165,685.6409,318.9758,692.7914,318.0425,694.68,311.0831" style="stroke: #A80036; stroke-width: 1.0;"/>
    <rect fill="none" height="6" style="stroke: #C82930; stroke-width: 1.0;" width="6" x="661" y="347.0195"/>
    <text fill="#000000" font-family="sans-serif" font-size="13" lengthAdjust="spacingAndGlyphs" textLength="36" x="671" y="354.02">path_</text>
    <path d="M585.09,197.4031 C616.74,218.3331 656.29,244.4831 684.17,262.9231 " fill="none" id="C_0008588005715032923314&lt;-C_0006285717704576425038" style="stroke: #A80036; stroke-width: 1.0;"/>
    <polygon fill="none" points="580.81,202.9631,567.99,186.0931,588.53,191.2831,580.81,202.9631" style="stroke: #A80036; stroke-width: 1.0;"/>
    <path d="M711.21,206.1231 C713.08,225.2431 715.2,246.9731 716.75,262.9231 " fill="none" id="C_0016622768607835415521&lt;-C_0006285717704576425038" style="stroke: #A80036; stroke-width: 1.0;"/>
    <polygon fill="none" points="704.23,206.6731,709.26,186.0931,718.17,205.3131,704.23,206.6731" style="stroke: #A80036; stroke-width: 1.0;"/>
    <path d="M888.84,195.5231 C848.98,216.7431 797.93,243.9231 762.25,262.9231 " fill="none" id="C_0012891720332235399601&lt;-C_0006285717704576425038" style="stroke: #A80036; stroke-width: 1.0;"/>
    <polygon fill="none" points="885.61,189.3131,906.55,186.0931,892.19,201.6631,885.61,189.3131" style="stroke: #A80036; stroke-width: 1.0;"/>
    <path d="M1356.88,195.9931 C1348.01,207.2731 1342.86,220.2631 1349,232.9531 C1354.75,244.8331 1364.6,254.8631 1375,262.8831 " fill="none" id="C_0001576551882566686996&lt;-C_0016433125554160293965" style="stroke: #A80036; stroke-width: 1.0;"/>
    <polygon fill="#FFFFFF" points="1365.85,186.1631,1358.8498,187.8945,1357.7556,195.0221,1364.7558,193.2907,1365.85,186.1631" style="stroke: #A80036; stroke-width: 1.0;"/>
    <rect fill="none" height="6" style="stroke: #C82930; stroke-width: 1.0;" width="6" x="1352" y="222.0195"/>
    <text fill="#000000" font-family="sans-serif" font-size="13" lengthAdjust="spacingAndGlyphs" textLength="35" x="1362" y="229.02">filter_</text>
    <path d="M1412.44,262.9231 C1409.3,242.5931 1404.72,212.9031 1401.36,191.1531 " fill="none" id="C_0016433125554160293965-&gt;C_0001576551882566686996" style="stroke: #A80036; stroke-width: 1.0;"/>
    <polygon fill="#A80036" points="1400.57,186.0931,1397.9788,195.595,1401.3271,191.0355,1405.8866,194.3837,1400.57,186.0931" style="stroke: #A80036; stroke-width: 1.0;"/>
    <rect fill="none" height="6" style="stroke: #C82930; stroke-width: 1.0;" width="6" x="1410" y="222.0195"/>
    <text fill="#000000" font-family="sans-serif" font-size="13" lengthAdjust="spacingAndGlyphs" textLength="60" x="1420" y="229.02">diagram_</text>
  </g>
</svg>
