<?xml version="1.0" encoding="UTF-8" standalone="no"?><svg xmlns="http://www.w3.org/2000/svg" xmlns:xlink="http://www.w3.org/1999/xlink" contentScriptType="application/ecmascript" contentStyleType="text/css" height="175px" preserveAspectRatio="none" style="width:610px;height:175px;" version="1.1" viewBox="0 0 610 175" width="610px" zoomAndPan="magnify"><defs><filter height="300%" id="f1c7x13ghenbxq" width="300%" x="-1" y="-1"><feGaussianBlur result="blurOut" stdDeviation="2.0"/><feColorMatrix in="blurOut" result="blurOut2" type="matrix" values="0 0 0 0 0 0 0 0 0 0 0 0 0 0 0 0 0 0 .4 0"/><feOffset dx="4.0" dy="4.0" in="blurOut2" result="blurOut3"/><feBlend in="SourceGraphic" in2="blurOut3" mode="normal"/></filter></defs><g><!--MD5=[0ad0f9a3fcbb583af4be36f32f3b8406]
class C_0000112824866232232463--><a href="classclanguml_1_1common_1_1visitor_1_1comment_1_1comment__visitor.html" target="_top" title="Base class for comment visitors" xlink:actuate="onRequest" xlink:href="classclanguml_1_1common_1_1visitor_1_1comment_1_1comment__visitor.html" xlink:show="new" xlink:title="Base class for comment visitors" xlink:type="simple"><rect fill="#FEFECE" filter="url(#f1c7x13ghenbxq)" height="48" id="C_0000112824866232232463" style="stroke: #A80036; stroke-width: 1.5;" width="305" x="149" y="8"/><ellipse cx="164" cy="24" fill="#ADD1B2" rx="11" ry="11" style="stroke: #A80036; stroke-width: 1.0;"/><path d="M166.9688,29.6406 Q166.3906,29.9375 165.75,30.0781 Q165.1094,30.2344 164.4063,30.2344 Q161.9063,30.2344 160.5781,28.5938 Q159.2656,26.9375 159.2656,23.8125 Q159.2656,20.6875 160.5781,19.0313 Q161.9063,17.375 164.4063,17.375 Q165.1094,17.375 165.75,17.5313 Q166.4063,17.6875 166.9688,17.9844 L166.9688,20.7031 Q166.3438,20.125 165.75,19.8594 Q165.1563,19.5781 164.5313,19.5781 Q163.1875,19.5781 162.5,20.6563 Q161.8125,21.7188 161.8125,23.8125 Q161.8125,25.9063 162.5,26.9844 Q163.1875,28.0469 164.5313,28.0469 Q165.1563,28.0469 165.75,27.7813 Q166.3438,27.5 166.9688,26.9219 L166.9688,29.6406 Z "/><text fill="#000000" font-family="sans-serif" font-size="12" lengthAdjust="spacingAndGlyphs" textLength="273" x="178" y="28.1543">common::visitor::comment::comment_visitor</text><line style="stroke: #A80036; stroke-width: 1.5;" x1="150" x2="453" y1="40" y2="40"/><line style="stroke: #A80036; stroke-width: 1.5;" x1="150" x2="453" y1="48" y2="48"/></a><!--MD5=[020112f98eb6fb1dd2529c3dd14d0b2f]
class C_0000744033767562618314--><a href="classclanguml_1_1common_1_1visitor_1_1comment_1_1plain__visitor.html" target="_top" title="Plain comment visitor which extracts raw and formatted comment." xlink:actuate="onRequest" xlink:href="classclanguml_1_1common_1_1visitor_1_1comment_1_1plain__visitor.html" xlink:show="new" xlink:title="Plain comment visitor which extracts raw and formatted comment." xlink:type="simple"><rect fill="#FEFECE" filter="url(#f1c7x13ghenbxq)" height="48" id="C_0000744033767562618314" style="stroke: #A80036; stroke-width: 1.5;" width="277" x="6" y="116"/><ellipse cx="21" cy="132" fill="#ADD1B2" rx="11" ry="11" style="stroke: #A80036; stroke-width: 1.0;"/><path d="M23.9688,137.6406 Q23.3906,137.9375 22.75,138.0781 Q22.1094,138.2344 21.4063,138.2344 Q18.9063,138.2344 17.5781,136.5938 Q16.2656,134.9375 16.2656,131.8125 Q16.2656,128.6875 17.5781,127.0313 Q18.9063,125.375 21.4063,125.375 Q22.1094,125.375 22.75,125.5313 Q23.4063,125.6875 23.9688,125.9844 L23.9688,128.7031 Q23.3438,128.125 22.75,127.8594 Q22.1563,127.5781 21.5313,127.5781 Q20.1875,127.5781 19.5,128.6563 Q18.8125,129.7188 18.8125,131.8125 Q18.8125,133.9063 19.5,134.9844 Q20.1875,136.0469 21.5313,136.0469 Q22.1563,136.0469 22.75,135.7813 Q23.3438,135.5 23.9688,134.9219 L23.9688,137.6406 Z "/><text fill="#000000" font-family="sans-serif" font-size="12" lengthAdjust="spacingAndGlyphs" textLength="245" x="35" y="136.1543">common::visitor::comment::plain_visitor</text><line style="stroke: #A80036; stroke-width: 1.5;" x1="7" x2="282" y1="148" y2="148"/><line style="stroke: #A80036; stroke-width: 1.5;" x1="7" x2="282" y1="156" y2="156"/></a><!--MD5=[07f7a0818a2eecef237f0adc7fcf66a1]
class C_0000311729333045621056--><a href="classclanguml_1_1common_1_1visitor_1_1comment_1_1clang__visitor.html" target="_top" title="Uses Clang's comment parser to extract Doxygen-style comment blocks." xlink:actuate="onRequest" xlink:href="classclanguml_1_1common_1_1visitor_1_1comment_1_1clang__visitor.html" xlink:show="new" xlink:title="Uses Clang's comment parser to extract Doxygen-style comment blocks." xlink:type="simple"><rect fill="#FEFECE" filter="url(#f1c7x13ghenbxq)" height="48" id="C_0000311729333045621056" style="stroke: #A80036; stroke-width: 1.5;" width="281" x="318" y="116"/><ellipse cx="333" cy="132" fill="#ADD1B2" rx="11" ry="11" style="stroke: #A80036; stroke-width: 1.0;"/><path d="M335.9688,137.6406 Q335.3906,137.9375 334.75,138.0781 Q334.1094,138.2344 333.4063,138.2344 Q330.9063,138.2344 329.5781,136.5938 Q328.2656,134.9375 328.2656,131.8125 Q328.2656,128.6875 329.5781,127.0313 Q330.9063,125.375 333.4063,125.375 Q334.1094,125.375 334.75,125.5313 Q335.4063,125.6875 335.9688,125.9844 L335.9688,128.7031 Q335.3438,128.125 334.75,127.8594 Q334.1563,127.5781 333.5313,127.5781 Q332.1875,127.5781 331.5,128.6563 Q330.8125,129.7188 330.8125,131.8125 Q330.8125,133.9063 331.5,134.9844 Q332.1875,136.0469 333.5313,136.0469 Q334.1563,136.0469 334.75,135.7813 Q335.3438,135.5 335.9688,134.9219 L335.9688,137.6406 Z "/><text fill="#000000" font-family="sans-serif" font-size="12" lengthAdjust="spacingAndGlyphs" textLength="249" x="347" y="136.1543">common::visitor::comment::clang_visitor</text><line style="stroke: #A80036; stroke-width: 1.5;" x1="319" x2="598" y1="148" y2="148"/><line style="stroke: #A80036; stroke-width: 1.5;" x1="319" x2="598" y1="156" y2="156"/></a><!--MD5=[fca0da2b20f19519f1395966c890074b]
reverse link C_0000112824866232232463 to C_0000744033767562618314--><path d="M250.73,67.28 C227.19,83.17 199.83,101.65 178.77,115.86 " fill="none" id="C_0000112824866232232463&lt;-C_0000744033767562618314" style="stroke: #A80036; stroke-width: 1.0;"/><polygon fill="none" points="246.94,61.39,267.43,56,254.77,72.99,246.94,61.39" style="stroke: #A80036; stroke-width: 1.0;"/><!--MD5=[7d40092015e3bb91a5cfd031352ae350]
reverse link C_0000112824866232232463 to C_0000311729333045621056--><path d="M352.27,67.28 C375.81,83.17 403.17,101.65 424.23,115.86 " fill="none" id="C_0000112824866232232463&lt;-C_0000311729333045621056" style="stroke: #A80036; stroke-width: 1.0;"/><polygon fill="none" points="348.23,72.99,335.57,56,356.06,61.39,348.23,72.99" style="stroke: #A80036; stroke-width: 1.0;"/><!--MD5=[a099d63025a2dd8bfdb359a753f195d3]
@startuml
class "common::visitor::comment::comment_visitor" as C_0000112824866232232463
class C_0000112824866232232463 [[classclanguml_1_1common_1_1visitor_1_1comment_1_1comment__visitor.html{Base class for comment visitors}]] {
__
}
class "common::visitor::comment::plain_visitor" as C_0000744033767562618314
class C_0000744033767562618314 [[classclanguml_1_1common_1_1visitor_1_1comment_1_1plain__visitor.html{Plain comment visitor which extracts raw and formatted comment.}]] {
__
}
class "common::visitor::comment::clang_visitor" as C_0000311729333045621056
class C_0000311729333045621056 [[classclanguml_1_1common_1_1visitor_1_1comment_1_1clang__visitor.html{Uses Clang's comment parser to extract Doxygen-style comment blocks.}]] {
__
}
C_0000112824866232232463 <|- - C_0000744033767562618314
C_0000112824866232232463 <|- - C_0000311729333045621056

@enduml

PlantUML version 1.2020.02(Sun Mar 01 11:22:07 CET 2020)
(GPL source distribution)
Java Runtime: OpenJDK Runtime Environment
JVM: OpenJDK 64-Bit Server VM
Java Version: 11.0.19+7-post-Ubuntu-0ubuntu122.04.1
Operating System: Linux
Default Encoding: UTF-8
Language: en
Country: US
--></g></svg>