<?xml version="1.0" encoding="UTF-8" standalone="no"?><svg xmlns="http://www.w3.org/2000/svg" xmlns:xlink="http://www.w3.org/1999/xlink" contentScriptType="application/ecmascript" contentStyleType="text/css" height="488px" preserveAspectRatio="none" style="width:938px;height:488px;" version="1.1" viewBox="0 0 938 488" width="938px" zoomAndPan="magnify"><defs><filter height="300%" id="f1ihlpm0yt46lx" width="300%" x="-1" y="-1"><feGaussianBlur result="blurOut" stdDeviation="2.0"/><feColorMatrix in="blurOut" result="blurOut2" type="matrix" values="0 0 0 0 0 0 0 0 0 0 0 0 0 0 0 0 0 0 .4 0"/><feOffset dx="4.0" dy="4.0" in="blurOut2" result="blurOut3"/><feBlend in="SourceGraphic" in2="blurOut3" mode="normal"/></filter></defs><g><!--MD5=[256668ac94c26a805ac7cbe6202e97cf]
class C_0001157011696030393919--><a href="structclang_1_1tooling_1_1CompileCommand.html" target="_top" title="CompileCommand" xlink:actuate="onRequest" xlink:href="structclang_1_1tooling_1_1CompileCommand.html" xlink:show="new" xlink:title="CompileCommand" xlink:type="simple"><rect fill="#FEFECE" filter="url(#f1ihlpm0yt46lx)" height="137.6328" id="C_0001157011696030393919" style="stroke: #A80036; stroke-width: 1.5;" width="911" x="6" y="340"/><ellipse cx="355.25" cy="356" fill="#ADD1B2" rx="11" ry="11" style="stroke: #A80036; stroke-width: 1.0;"/><path d="M358.2188,361.6406 Q357.6406,361.9375 357,362.0781 Q356.3594,362.2344 355.6563,362.2344 Q353.1563,362.2344 351.8281,360.5938 Q350.5156,358.9375 350.5156,355.8125 Q350.5156,352.6875 351.8281,351.0313 Q353.1563,349.375 355.6563,349.375 Q356.3594,349.375 357,349.5313 Q357.6563,349.6875 358.2188,349.9844 L358.2188,352.7031 Q357.5938,352.125 357,351.8594 Q356.4063,351.5781 355.7813,351.5781 Q354.4375,351.5781 353.75,352.6563 Q353.0625,353.7188 353.0625,355.8125 Q353.0625,357.9063 353.75,358.9844 Q354.4375,360.0469 355.7813,360.0469 Q356.4063,360.0469 357,359.7813 Q357.5938,359.5 358.2188,358.9219 L358.2188,361.6406 Z "/><text fill="#000000" font-family="sans-serif" font-size="12" lengthAdjust="spacingAndGlyphs" textLength="204" x="375.75" y="360.1543">clang::tooling::CompileCommand</text><line style="stroke: #A80036; stroke-width: 1.5;" x1="7" x2="916" y1="372" y2="372"/><ellipse cx="17" cy="383" fill="#84BE84" rx="3" ry="3" style="stroke: #038048; stroke-width: 1.0;"/><text fill="#000000" font-family="sans-serif" font-size="11" lengthAdjust="spacingAndGlyphs" textLength="203" x="26" y="386.2104">CompileCommand() = default : void</text><ellipse cx="17" cy="395.8047" fill="#84BE84" rx="3" ry="3" style="stroke: #038048; stroke-width: 1.0;"/><text fill="#000000" font-family="sans-serif" font-size="11" lengthAdjust="spacingAndGlyphs" textLength="885" x="26" y="399.0151">CompileCommand(const llvm::Twine &amp; Directory, const llvm::Twine &amp; Filename, std::vector&lt;std::string&gt; CommandLine, const llvm::Twine &amp; Output) : void</text><line style="stroke: #A80036; stroke-width: 1.5;" x1="7" x2="916" y1="405.6094" y2="405.6094"/></a><a href="" target="_top" title="CommandLine" xlink:actuate="onRequest" xlink:href="" xlink:show="new" xlink:title="CommandLine" xlink:type="simple"><rect fill="#FEFECE" height="10" style="stroke: none; stroke-width: 1.0;" width="20" x="12" y="411.6094"/><ellipse cx="17" cy="416.6094" fill="none" rx="3" ry="3" style="stroke: #038048; stroke-width: 1.0;"/></a><a href="" target="_top" title="CommandLine" xlink:actuate="onRequest" xlink:href="" xlink:show="new" xlink:title="CommandLine" xlink:type="simple"><text fill="#000000" font-family="sans-serif" font-size="11" lengthAdjust="spacingAndGlyphs" textLength="231" x="26" y="419.8198">CommandLine : std::vector&lt;std::string&gt;</text></a><a href="" target="_top" title="Directory" xlink:actuate="onRequest" xlink:href="" xlink:show="new" xlink:title="Directory" xlink:type="simple"><rect fill="#FEFECE" height="10" style="stroke: none; stroke-width: 1.0;" width="20" x="12" y="424.4141"/><ellipse cx="17" cy="429.4141" fill="none" rx="3" ry="3" style="stroke: #038048; stroke-width: 1.0;"/></a><a href="" target="_top" title="Directory" xlink:actuate="onRequest" xlink:href="" xlink:show="new" xlink:title="Directory" xlink:type="simple"><text fill="#000000" font-family="sans-serif" font-size="11" lengthAdjust="spacingAndGlyphs" textLength="122" x="26" y="432.6245">Directory : std::string</text></a><a href="" target="_top" title="Filename" xlink:actuate="onRequest" xlink:href="" xlink:show="new" xlink:title="Filename" xlink:type="simple"><rect fill="#FEFECE" height="10" style="stroke: none; stroke-width: 1.0;" width="20" x="12" y="437.2188"/><ellipse cx="17" cy="442.2188" fill="none" rx="3" ry="3" style="stroke: #038048; stroke-width: 1.0;"/></a><a href="" target="_top" title="Filename" xlink:actuate="onRequest" xlink:href="" xlink:show="new" xlink:title="Filename" xlink:type="simple"><text fill="#000000" font-family="sans-serif" font-size="11" lengthAdjust="spacingAndGlyphs" textLength="122" x="26" y="445.4292">Filename : std::string</text></a><a href="" target="_top" title="Heuristic" xlink:actuate="onRequest" xlink:href="" xlink:show="new" xlink:title="Heuristic" xlink:type="simple"><rect fill="#FEFECE" height="10" style="stroke: none; stroke-width: 1.0;" width="20" x="12" y="450.0234"/><ellipse cx="17" cy="455.0234" fill="none" rx="3" ry="3" style="stroke: #038048; stroke-width: 1.0;"/></a><a href="" target="_top" title="Heuristic" xlink:actuate="onRequest" xlink:href="" xlink:show="new" xlink:title="Heuristic" xlink:type="simple"><text fill="#000000" font-family="sans-serif" font-size="11" lengthAdjust="spacingAndGlyphs" textLength="121" x="26" y="458.2339">Heuristic : std::string</text></a><a href="" target="_top" title="Output" xlink:actuate="onRequest" xlink:href="" xlink:show="new" xlink:title="Output" xlink:type="simple"><rect fill="#FEFECE" height="10" style="stroke: none; stroke-width: 1.0;" width="20" x="12" y="462.8281"/><ellipse cx="17" cy="467.8281" fill="none" rx="3" ry="3" style="stroke: #038048; stroke-width: 1.0;"/></a><a href="" target="_top" title="Output" xlink:actuate="onRequest" xlink:href="" xlink:show="new" xlink:title="Output" xlink:type="simple"><text fill="#000000" font-family="sans-serif" font-size="11" lengthAdjust="spacingAndGlyphs" textLength="109" x="26" y="471.0386">Output : std::string</text></a><!--MD5=[f14933ee95df791c69bffc037a09a02a]
class C_0001617832303729071872--><a href="classclang_1_1tooling_1_1CompilationDatabase.html" target="_top" title="CompilationDatabase" xlink:actuate="onRequest" xlink:href="classclang_1_1tooling_1_1CompilationDatabase.html" xlink:show="new" xlink:title="CompilationDatabase" xlink:type="simple"><rect fill="#FEFECE" filter="url(#f1ihlpm0yt46lx)" height="145.6328" id="C_0001617832303729071872" style="stroke: #A80036; stroke-width: 1.5;" width="720" x="207.5" y="8"/><ellipse cx="450.25" cy="24" fill="#A9DCDF" rx="11" ry="11" style="stroke: #A80036; stroke-width: 1.0;"/><path d="M450.3594,19.3438 L449.2031,24.4219 L451.5313,24.4219 L450.3594,19.3438 Z M448.875,17.1094 L451.8594,17.1094 L455.2188,29.5 L452.7656,29.5 L452,26.4375 L448.7188,26.4375 L447.9688,29.5 L445.5313,29.5 L448.875,17.1094 Z "/><text fill="#000000" font-family="sans-serif" font-size="12" font-style="italic" lengthAdjust="spacingAndGlyphs" textLength="226" x="470.75" y="28.1543">clang::tooling::CompilationDatabase</text><line style="stroke: #A80036; stroke-width: 1.5;" x1="208.5" x2="926.5" y1="40" y2="40"/><ellipse cx="218.5" cy="51" fill="#84BE84" rx="3" ry="3" style="stroke: #038048; stroke-width: 1.0;"/><text fill="#000000" font-family="sans-serif" font-size="11" lengthAdjust="spacingAndGlyphs" textLength="173" x="227.5" y="54.2104">~CompilationDatabase() : void</text><line style="stroke: #A80036; stroke-width: 1.0; stroke-dasharray: 1.0,2.0;" x1="208.5" x2="926.5" y1="60.8047" y2="60.8047"/><ellipse cx="218.5" cy="71.8047" fill="#84BE84" rx="3" ry="3" style="stroke: #038048; stroke-width: 1.0;"/><text fill="#000000" font-family="sans-serif" font-size="11" lengthAdjust="spacingAndGlyphs" text-decoration="underline" textLength="694" x="227.5" y="75.0151">autoDetectFromDirectory(llvm::StringRef SourceDir, std::string &amp; ErrorMessage) : std::unique_ptr&lt;CompilationDatabase&gt;</text><ellipse cx="218.5" cy="84.6094" fill="#84BE84" rx="3" ry="3" style="stroke: #038048; stroke-width: 1.0;"/><text fill="#000000" font-family="sans-serif" font-size="11" lengthAdjust="spacingAndGlyphs" text-decoration="underline" textLength="686" x="227.5" y="87.8198">autoDetectFromSource(llvm::StringRef SourceFile, std::string &amp; ErrorMessage) : std::unique_ptr&lt;CompilationDatabase&gt;</text><ellipse cx="218.5" cy="97.4141" fill="#84BE84" rx="3" ry="3" style="stroke: #038048; stroke-width: 1.0;"/><text fill="#000000" font-family="sans-serif" font-size="11" lengthAdjust="spacingAndGlyphs" textLength="380" x="227.5" y="100.6245">getAllCompileCommands() const : std::vector&lt;CompileCommand&gt;</text><ellipse cx="218.5" cy="110.2188" fill="#84BE84" rx="3" ry="3" style="stroke: #038048; stroke-width: 1.0;"/><text fill="#000000" font-family="sans-serif" font-size="11" lengthAdjust="spacingAndGlyphs" textLength="250" x="227.5" y="113.4292">getAllFiles() const : std::vector&lt;std::string&gt;</text><ellipse cx="218.5" cy="123.0234" fill="#84BE84" rx="3" ry="3" style="stroke: #038048; stroke-width: 1.0;"/><text fill="#000000" font-family="sans-serif" font-size="11" font-style="italic" lengthAdjust="spacingAndGlyphs" textLength="521" x="227.5" y="126.2339">getCompileCommands(llvm::StringRef FilePath) const = 0 : std::vector&lt;CompileCommand&gt;</text><ellipse cx="218.5" cy="135.8281" fill="#84BE84" rx="3" ry="3" style="stroke: #038048; stroke-width: 1.0;"/><text fill="#000000" font-family="sans-serif" font-size="11" lengthAdjust="spacingAndGlyphs" text-decoration="underline" textLength="680" x="227.5" y="139.0386">loadFromDirectory(llvm::StringRef BuildDirectory, std::string &amp; ErrorMessage) : std::unique_ptr&lt;CompilationDatabase&gt;</text><line style="stroke: #A80036; stroke-width: 1.5;" x1="208.5" x2="926.5" y1="145.6328" y2="145.6328"/></a><!--MD5=[52a343bc64c98179ef0ff2316d2ecdd2]
class C_0000597104457503221480--><rect fill="#FEFECE" filter="url(#f1ihlpm0yt46lx)" height="48" id="C_0000597104457503221480" style="stroke: #A80036; stroke-width: 1.5;" width="222" x="494.5" y="231"/><ellipse cx="509.5" cy="247" fill="#ADD1B2" rx="11" ry="11" style="stroke: #A80036; stroke-width: 1.0;"/><path d="M512.4688,252.6406 Q511.8906,252.9375 511.25,253.0781 Q510.6094,253.2344 509.9063,253.2344 Q507.4063,253.2344 506.0781,251.5938 Q504.7656,249.9375 504.7656,246.8125 Q504.7656,243.6875 506.0781,242.0313 Q507.4063,240.375 509.9063,240.375 Q510.6094,240.375 511.25,240.5313 Q511.9063,240.6875 512.4688,240.9844 L512.4688,243.7031 Q511.8438,243.125 511.25,242.8594 Q510.6563,242.5781 510.0313,242.5781 Q508.6875,242.5781 508,243.6563 Q507.3125,244.7188 507.3125,246.8125 Q507.3125,248.9063 508,249.9844 Q508.6875,251.0469 510.0313,251.0469 Q510.6563,251.0469 511.25,250.7813 Q511.8438,250.5 512.4688,249.9219 L512.4688,252.6406 Z "/><text fill="#000000" font-family="sans-serif" font-size="12" lengthAdjust="spacingAndGlyphs" textLength="190" x="523.5" y="251.1543">C_0000597104457503221480</text><line style="stroke: #A80036; stroke-width: 1.5;" x1="495.5" x2="715.5" y1="263" y2="263"/><line style="stroke: #A80036; stroke-width: 1.5;" x1="495.5" x2="715.5" y1="271" y2="271"/><!--MD5=[f68d91660e4b4521276ad56bbaa644c3]
link C_0000597104457503221480 to C_0001617832303729071872--><path d="M609.95,230.7 C608.79,212.27 604.15,185.42 598.09,159.59 " fill="none" id="C_0000597104457503221480-&gt;C_0001617832303729071872" style="stroke: #A80036; stroke-width: 1.0; stroke-dasharray: 7.0,7.0;"/><polygon fill="#A80036" points="596.86,154.44,595.0546,164.122,598.0187,159.3039,602.8368,162.268,596.86,154.44" style="stroke: #A80036; stroke-width: 1.0;"/><!--MD5=[13a2008f8a9c18613bc83c49f77b5087]
reverse link C_0000597104457503221480 to C_0001617832303729071872--><path d="M606.6,217.7 C606.36,206.79 605.52,194.84 603.5,184 C601.68,174.22 599.07,164.11 596.08,154.24 " fill="none" id="C_0000597104457503221480&lt;-C_0001617832303729071872" style="stroke: #A80036; stroke-width: 1.0;"/><polygon fill="#FFFFFF" points="606.63,230.79,610.6102,224.7768,606.5904,218.7901,602.6102,224.8032,606.63,230.79" style="stroke: #A80036; stroke-width: 1.0;"/><rect fill="none" height="6" style="stroke: #C82930; stroke-width: 1.0;" width="6" x="608.5" y="190.0664"/><text fill="#000000" font-family="sans-serif" font-size="13" lengthAdjust="spacingAndGlyphs" textLength="38" x="618.5" y="197.0669">base_</text><!--MD5=[037a53850ce481d0bd7b6622c9cf4ed3]
reverse link C_0001617832303729071872 to C_0000597104457503221480--><path d="M575.14,174.17 C579.99,195.19 585.74,215.73 591.29,230.7 " fill="none" id="C_0001617832303729071872&lt;-C_0000597104457503221480" style="stroke: #A80036; stroke-width: 1.0;"/><polygon fill="none" points="568.26,175.47,570.9,154.44,581.95,172.52,568.26,175.47" style="stroke: #A80036; stroke-width: 1.0;"/><!--MD5=[9f639a1261a05bf2c0b9ebc168fd5027]
link C_0000597104457503221480 to C_0001157011696030393919--><path d="M583.63,279.09 C569.11,294.41 549.2,315.43 529.66,336.05 " fill="none" id="C_0000597104457503221480-&gt;C_0001157011696030393919" style="stroke: #A80036; stroke-width: 1.0; stroke-dasharray: 7.0,7.0;"/><polygon fill="#A80036" points="526.02,339.9,535.1085,336.1055,529.454,336.2657,529.2937,330.6111,526.02,339.9" style="stroke: #A80036; stroke-width: 1.0;"/><!--MD5=[135ed79c992a5700a1063e030de32688]
link C_0001617832303729071872 to C_0001157011696030393919--><path d="M514.91,154.19 C500.37,177.62 486.21,204.44 477.5,231 C466.69,263.98 462.29,302.15 460.75,334.58 " fill="none" id="C_0001617832303729071872-&gt;C_0001157011696030393919" style="stroke: #A80036; stroke-width: 1.0; stroke-dasharray: 7.0,7.0;"/><polygon fill="#A80036" points="460.53,339.73,464.9117,330.9095,460.7441,334.7346,456.919,330.567,460.53,339.73" style="stroke: #A80036; stroke-width: 1.0;"/><!--MD5=[60c0df02a7887683e9fda2a0d991d778]
@startuml
class "clang::tooling::CompileCommand" as C_0001157011696030393919
class C_0001157011696030393919 [[structclang_1_1tooling_1_1CompileCommand.html{CompileCommand}]] {
+CompileCommand() = default : void
+CompileCommand(const llvm::Twine & Directory, const llvm::Twine & Filename, std::vector<std::string> CommandLine, const llvm::Twine & Output) : void
__
+CommandLine : std::vector<std::string> [[[{CommandLine}]]]
+Directory : std::string [[[{Directory}]]]
+Filename : std::string [[[{Filename}]]]
+Heuristic : std::string [[[{Heuristic}]]]
+Output : std::string [[[{Output}]]]
}
abstract "clang::tooling::CompilationDatabase" as C_0001617832303729071872
abstract C_0001617832303729071872 [[classclang_1_1tooling_1_1CompilationDatabase.html{CompilationDatabase}]] {
+~CompilationDatabase() : void
..
{static} +autoDetectFromDirectory(llvm::StringRef SourceDir, std::string & ErrorMessage) : std::unique_ptr<CompilationDatabase>
{static} +autoDetectFromSource(llvm::StringRef SourceFile, std::string & ErrorMessage) : std::unique_ptr<CompilationDatabase>
+getAllCompileCommands() const : std::vector<CompileCommand>
+getAllFiles() const : std::vector<std::string>
{abstract} +getCompileCommands(llvm::StringRef FilePath) const = 0 : std::vector<CompileCommand>
{static} +loadFromDirectory(llvm::StringRef BuildDirectory, std::string & ErrorMessage) : std::unique_ptr<CompilationDatabase>
__
}
C_0000597104457503221480 ..> C_0001617832303729071872
C_0000597104457503221480 ..> C_0001157011696030393919
C_0000597104457503221480 o- - C_0001617832303729071872 : -base_
C_0001617832303729071872 <|- - C_0000597104457503221480
C_0001617832303729071872 ..> C_0001157011696030393919

@enduml

PlantUML version 1.2020.02(Sun Mar 01 11:22:07 CET 2020)
(GPL source distribution)
Java Runtime: OpenJDK Runtime Environment
JVM: OpenJDK 64-Bit Server VM
Java Version: 11.0.19+7-post-Ubuntu-0ubuntu122.04.1
Operating System: Linux
Default Encoding: UTF-8
Language: en
Country: US
--></g></svg>