<?xml version="1.0" encoding="UTF-8" standalone="no"?><svg xmlns="http://www.w3.org/2000/svg" xmlns:xlink="http://www.w3.org/1999/xlink" contentScriptType="application/ecmascript" contentStyleType="text/css" height="776px" preserveAspectRatio="none" style="width:1520px;height:776px;" version="1.1" viewBox="0 0 1520 776" width="1520px" zoomAndPan="magnify"><defs><filter height="300%" id="f9x2p7ys6z24e" width="300%" x="-1" y="-1"><feGaussianBlur result="blurOut" stdDeviation="2.0"/><feColorMatrix in="blurOut" result="blurOut2" type="matrix" values="0 0 0 0 0 0 0 0 0 0 0 0 0 0 0 0 0 0 .4 0"/><feOffset dx="4.0" dy="4.0" in="blurOut2" result="blurOut3"/><feBlend in="SourceGraphic" in2="blurOut3" mode="normal"/></filter></defs><g><!--MD5=[7ba9c127878a642fef3f451151dda753]
cluster C_0000316605034920222648--><polygon fill="#FFFFFF" filter="url(#f9x2p7ys6z24e)" points="22,24,95,24,102,46.2969,383,46.2969,383,548,22,548,22,24" style="stroke: #000000; stroke-width: 1.5;"/><line style="stroke: #000000; stroke-width: 1.5;" x1="22" x2="102" y1="46.2969" y2="46.2969"/><text fill="#000000" font-family="sans-serif" font-size="14" font-weight="bold" lengthAdjust="spacingAndGlyphs" textLength="67" x="26" y="38.9951">common</text><!--MD5=[f7110622f5be760311cd0491b75bf8f9]
cluster C_0000083721806430512831--><polygon fill="#FFFFFF" filter="url(#f9x2p7ys6z24e)" points="46,67,100,67,107,89.2969,359,89.2969,359,524,46,524,46,67" style="stroke: #000000; stroke-width: 1.5;"/><line style="stroke: #000000; stroke-width: 1.5;" x1="46" x2="107" y1="89.2969" y2="89.2969"/><text fill="#000000" font-family="sans-serif" font-size="14" font-weight="bold" lengthAdjust="spacingAndGlyphs" textLength="48" x="50" y="81.9951">model</text><!--MD5=[09e992b259734a9820adb2642bf347d2]
cluster C_0002240167036201725606--><polygon fill="#FFFFFF" filter="url(#f9x2p7ys6z24e)" points="772,382,888,382,895,404.2969,1498,404.2969,1498,656,772,656,772,382" style="stroke: #000000; stroke-width: 1.5;"/><line style="stroke: #000000; stroke-width: 1.5;" x1="772" x2="895" y1="404.2969" y2="404.2969"/><text fill="#000000" font-family="sans-serif" font-size="14" font-weight="bold" lengthAdjust="spacingAndGlyphs" textLength="110" x="776" y="396.9951">class_diagram</text><!--MD5=[5d123d1ba3dda692cf099252127394e7]
cluster C_0000897124234964432620--><polygon fill="#FFFFFF" filter="url(#f9x2p7ys6z24e)" points="796,425,850,425,857,447.2969,1474,447.2969,1474,632,796,632,796,425" style="stroke: #000000; stroke-width: 1.5;"/><line style="stroke: #000000; stroke-width: 1.5;" x1="796" x2="857" y1="447.2969" y2="447.2969"/><text fill="#000000" font-family="sans-serif" font-size="14" font-weight="bold" lengthAdjust="spacingAndGlyphs" textLength="48" x="800" y="439.9951">model</text><!--MD5=[2319765f5fef5e41f5b55adb85cd73ea]
cluster C_0001521862840957629236--><polygon fill="#FFFFFF" filter="url(#f9x2p7ys6z24e)" points="407,382,561,382,568,404.2969,748,404.2969,748,764,407,764,407,382" style="stroke: #000000; stroke-width: 1.5;"/><line style="stroke: #000000; stroke-width: 1.5;" x1="407" x2="568" y1="404.2969" y2="404.2969"/><text fill="#000000" font-family="sans-serif" font-size="14" font-weight="bold" lengthAdjust="spacingAndGlyphs" textLength="148" x="411" y="396.9951">sequence_diagram</text><!--MD5=[aff6d1ed1f9fc56ba8376cf20ecae299]
cluster C_0002206969880830639264--><polygon fill="#FFFFFF" filter="url(#f9x2p7ys6z24e)" points="431,425,485,425,492,447.2969,724,447.2969,724,740,431,740,431,425" style="stroke: #000000; stroke-width: 1.5;"/><line style="stroke: #000000; stroke-width: 1.5;" x1="431" x2="492" y1="447.2969" y2="447.2969"/><text fill="#000000" font-family="sans-serif" font-size="14" font-weight="bold" lengthAdjust="spacingAndGlyphs" textLength="48" x="435" y="439.9951">model</text><!--MD5=[b75d17d3ee67ca210c766132488de4b0]
class C_0001117102382624673118--><a href="classclanguml_1_1common_1_1model_1_1decorated__element.html" target="_top" title="Base class for decorated diagram elements" xlink:actuate="onRequest" xlink:href="classclanguml_1_1common_1_1model_1_1decorated__element.html" xlink:show="new" xlink:title="Base class for decorated diagram elements" xlink:type="simple"><rect fill="#FEFECE" filter="url(#f9x2p7ys6z24e)" height="48" id="C_0001117102382624673118" style="stroke: #A80036; stroke-width: 1.5;" width="154" x="189" y="102"/><ellipse cx="204" cy="118" fill="#ADD1B2" rx="11" ry="11" style="stroke: #A80036; stroke-width: 1.0;"/><path d="M206.9688,123.6406 Q206.3906,123.9375 205.75,124.0781 Q205.1094,124.2344 204.4063,124.2344 Q201.9063,124.2344 200.5781,122.5938 Q199.2656,120.9375 199.2656,117.8125 Q199.2656,114.6875 200.5781,113.0313 Q201.9063,111.375 204.4063,111.375 Q205.1094,111.375 205.75,111.5313 Q206.4063,111.6875 206.9688,111.9844 L206.9688,114.7031 Q206.3438,114.125 205.75,113.8594 Q205.1563,113.5781 204.5313,113.5781 Q203.1875,113.5781 202.5,114.6563 Q201.8125,115.7188 201.8125,117.8125 Q201.8125,119.9063 202.5,120.9844 Q203.1875,122.0469 204.5313,122.0469 Q205.1563,122.0469 205.75,121.7813 Q206.3438,121.5 206.9688,120.9219 L206.9688,123.6406 Z "/><text fill="#000000" font-family="sans-serif" font-size="12" lengthAdjust="spacingAndGlyphs" textLength="122" x="218" y="122.1543">decorated_element</text><line style="stroke: #A80036; stroke-width: 1.5;" x1="190" x2="342" y1="134" y2="134"/><line style="stroke: #A80036; stroke-width: 1.5;" x1="190" x2="342" y1="142" y2="142"/></a><!--MD5=[e8deacb898fc3c022fd97c095b285f76]
class C_0002046336758797367926--><a href="classclanguml_1_1common_1_1model_1_1relationship.html" target="_top" title="Class representing any relationship other than inheritance" xlink:actuate="onRequest" xlink:href="classclanguml_1_1common_1_1model_1_1relationship.html" xlink:show="new" xlink:title="Class representing any relationship other than inheritance" xlink:type="simple"><rect fill="#FEFECE" filter="url(#f9x2p7ys6z24e)" height="48" id="C_0002046336758797367926" style="stroke: #A80036; stroke-width: 1.5;" width="106" x="62" y="210"/><ellipse cx="77" cy="226" fill="#ADD1B2" rx="11" ry="11" style="stroke: #A80036; stroke-width: 1.0;"/><path d="M79.9688,231.6406 Q79.3906,231.9375 78.75,232.0781 Q78.1094,232.2344 77.4063,232.2344 Q74.9063,232.2344 73.5781,230.5938 Q72.2656,228.9375 72.2656,225.8125 Q72.2656,222.6875 73.5781,221.0313 Q74.9063,219.375 77.4063,219.375 Q78.1094,219.375 78.75,219.5313 Q79.4063,219.6875 79.9688,219.9844 L79.9688,222.7031 Q79.3438,222.125 78.75,221.8594 Q78.1563,221.5781 77.5313,221.5781 Q76.1875,221.5781 75.5,222.6563 Q74.8125,223.7188 74.8125,225.8125 Q74.8125,227.9063 75.5,228.9844 Q76.1875,230.0469 77.5313,230.0469 Q78.1563,230.0469 78.75,229.7813 Q79.3438,229.5 79.9688,228.9219 L79.9688,231.6406 Z "/><text fill="#000000" font-family="sans-serif" font-size="12" lengthAdjust="spacingAndGlyphs" textLength="74" x="91" y="230.1543">relationship</text><line style="stroke: #A80036; stroke-width: 1.5;" x1="63" x2="167" y1="242" y2="242"/><line style="stroke: #A80036; stroke-width: 1.5;" x1="63" x2="167" y1="250" y2="250"/></a><!--MD5=[c7954e9554acd525dcb4b1b7d8febda3]
class C_0001073500714379115414--><a href="classclanguml_1_1common_1_1model_1_1diagram__element.html" target="_top" title="Base class for standalone diagram elements." xlink:actuate="onRequest" xlink:href="classclanguml_1_1common_1_1model_1_1diagram__element.html" xlink:show="new" xlink:title="Base class for standalone diagram elements." xlink:type="simple"><rect fill="#FEFECE" filter="url(#f9x2p7ys6z24e)" height="48" id="C_0001073500714379115414" style="stroke: #A80036; stroke-width: 1.5;" width="140" x="203" y="210"/><ellipse cx="218" cy="226" fill="#ADD1B2" rx="11" ry="11" style="stroke: #A80036; stroke-width: 1.0;"/><path d="M220.9688,231.6406 Q220.3906,231.9375 219.75,232.0781 Q219.1094,232.2344 218.4063,232.2344 Q215.9063,232.2344 214.5781,230.5938 Q213.2656,228.9375 213.2656,225.8125 Q213.2656,222.6875 214.5781,221.0313 Q215.9063,219.375 218.4063,219.375 Q219.1094,219.375 219.75,219.5313 Q220.4063,219.6875 220.9688,219.9844 L220.9688,222.7031 Q220.3438,222.125 219.75,221.8594 Q219.1563,221.5781 218.5313,221.5781 Q217.1875,221.5781 216.5,222.6563 Q215.8125,223.7188 215.8125,225.8125 Q215.8125,227.9063 216.5,228.9844 Q217.1875,230.0469 218.5313,230.0469 Q219.1563,230.0469 219.75,229.7813 Q220.3438,229.5 220.9688,228.9219 L220.9688,231.6406 Z "/><text fill="#000000" font-family="sans-serif" font-size="12" lengthAdjust="spacingAndGlyphs" textLength="108" x="232" y="230.1543">diagram_element</text><line style="stroke: #A80036; stroke-width: 1.5;" x1="204" x2="342" y1="242" y2="242"/><line style="stroke: #A80036; stroke-width: 1.5;" x1="204" x2="342" y1="250" y2="250"/></a><!--MD5=[61ee72164152887ec594509a8c6f7a5a]
class C_0002069520381434407937--><a href="classclanguml_1_1common_1_1model_1_1element.html" target="_top" title="Base class for any element qualified by namespace." xlink:actuate="onRequest" xlink:href="classclanguml_1_1common_1_1model_1_1element.html" xlink:show="new" xlink:title="Base class for any element qualified by namespace." xlink:type="simple"><rect fill="#FEFECE" filter="url(#f9x2p7ys6z24e)" height="48" id="C_0002069520381434407937" style="stroke: #A80036; stroke-width: 1.5;" width="83" x="125.5" y="318"/><ellipse cx="140.5" cy="334" fill="#ADD1B2" rx="11" ry="11" style="stroke: #A80036; stroke-width: 1.0;"/><path d="M143.4688,339.6406 Q142.8906,339.9375 142.25,340.0781 Q141.6094,340.2344 140.9063,340.2344 Q138.4063,340.2344 137.0781,338.5938 Q135.7656,336.9375 135.7656,333.8125 Q135.7656,330.6875 137.0781,329.0313 Q138.4063,327.375 140.9063,327.375 Q141.6094,327.375 142.25,327.5313 Q142.9063,327.6875 143.4688,327.9844 L143.4688,330.7031 Q142.8438,330.125 142.25,329.8594 Q141.6563,329.5781 141.0313,329.5781 Q139.6875,329.5781 139,330.6563 Q138.3125,331.7188 138.3125,333.8125 Q138.3125,335.9063 139,336.9844 Q139.6875,338.0469 141.0313,338.0469 Q141.6563,338.0469 142.25,337.7813 Q142.8438,337.5 143.4688,336.9219 L143.4688,339.6406 Z "/><text fill="#000000" font-family="sans-serif" font-size="12" lengthAdjust="spacingAndGlyphs" textLength="51" x="154.5" y="338.1543">element</text><line style="stroke: #A80036; stroke-width: 1.5;" x1="126.5" x2="207.5" y1="350" y2="350"/><line style="stroke: #A80036; stroke-width: 1.5;" x1="126.5" x2="207.5" y1="358" y2="358"/></a><!--MD5=[41fe75f5c358e82f7c3b024ae1be5ac2]
class C_0002143286684830686854--><a href="classclanguml_1_1common_1_1model_1_1package.html" target="_top" title="Diagram element representing namespace or directory package" xlink:actuate="onRequest" xlink:href="classclanguml_1_1common_1_1model_1_1package.html" xlink:show="new" xlink:title="Diagram element representing namespace or directory package" xlink:type="simple"><rect fill="#FEFECE" filter="url(#f9x2p7ys6z24e)" height="48" id="C_0002143286684830686854" style="stroke: #A80036; stroke-width: 1.5;" width="86" x="124" y="460"/><ellipse cx="139" cy="476" fill="#ADD1B2" rx="11" ry="11" style="stroke: #A80036; stroke-width: 1.0;"/><path d="M141.9688,481.6406 Q141.3906,481.9375 140.75,482.0781 Q140.1094,482.2344 139.4063,482.2344 Q136.9063,482.2344 135.5781,480.5938 Q134.2656,478.9375 134.2656,475.8125 Q134.2656,472.6875 135.5781,471.0313 Q136.9063,469.375 139.4063,469.375 Q140.1094,469.375 140.75,469.5313 Q141.4063,469.6875 141.9688,469.9844 L141.9688,472.7031 Q141.3438,472.125 140.75,471.8594 Q140.1563,471.5781 139.5313,471.5781 Q138.1875,471.5781 137.5,472.6563 Q136.8125,473.7188 136.8125,475.8125 Q136.8125,477.9063 137.5,478.9844 Q138.1875,480.0469 139.5313,480.0469 Q140.1563,480.0469 140.75,479.7813 Q141.3438,479.5 141.9688,478.9219 L141.9688,481.6406 Z "/><text fill="#000000" font-family="sans-serif" font-size="12" lengthAdjust="spacingAndGlyphs" textLength="54" x="153" y="480.1543">package</text><line style="stroke: #A80036; stroke-width: 1.5;" x1="125" x2="209" y1="492" y2="492"/><line style="stroke: #A80036; stroke-width: 1.5;" x1="125" x2="209" y1="500" y2="500"/></a><!--MD5=[525da812764c4fe64f23950e964f77cd]
class C_0000785714713072053129--><a href="classclanguml_1_1common_1_1model_1_1source__file.html" target="_top" title="Diagram element representing some file or directory." xlink:actuate="onRequest" xlink:href="classclanguml_1_1common_1_1model_1_1source__file.html" xlink:show="new" xlink:title="Diagram element representing some file or directory." xlink:type="simple"><rect fill="#FEFECE" filter="url(#f9x2p7ys6z24e)" height="48" id="C_0000785714713072053129" style="stroke: #A80036; stroke-width: 1.5;" width="99" x="243.5" y="318"/><ellipse cx="258.5" cy="334" fill="#ADD1B2" rx="11" ry="11" style="stroke: #A80036; stroke-width: 1.0;"/><path d="M261.4688,339.6406 Q260.8906,339.9375 260.25,340.0781 Q259.6094,340.2344 258.9063,340.2344 Q256.4063,340.2344 255.0781,338.5938 Q253.7656,336.9375 253.7656,333.8125 Q253.7656,330.6875 255.0781,329.0313 Q256.4063,327.375 258.9063,327.375 Q259.6094,327.375 260.25,327.5313 Q260.9063,327.6875 261.4688,327.9844 L261.4688,330.7031 Q260.8438,330.125 260.25,329.8594 Q259.6563,329.5781 259.0313,329.5781 Q257.6875,329.5781 257,330.6563 Q256.3125,331.7188 256.3125,333.8125 Q256.3125,335.9063 257,336.9844 Q257.6875,338.0469 259.0313,338.0469 Q259.6563,338.0469 260.25,337.7813 Q260.8438,337.5 261.4688,336.9219 L261.4688,339.6406 Z "/><text fill="#000000" font-family="sans-serif" font-size="12" lengthAdjust="spacingAndGlyphs" textLength="67" x="272.5" y="338.1543">source_file</text><line style="stroke: #A80036; stroke-width: 1.5;" x1="244.5" x2="341.5" y1="350" y2="350"/><line style="stroke: #A80036; stroke-width: 1.5;" x1="244.5" x2="341.5" y1="358" y2="358"/></a><!--MD5=[b486570858fa145169115e7c774ba114]
class C_0000605866861866358037--><a href="classclanguml_1_1class__diagram_1_1model_1_1class__element.html" target="_top" title="Base class for class elements (e.g. member or method)." xlink:actuate="onRequest" xlink:href="classclanguml_1_1class__diagram_1_1model_1_1class__element.html" xlink:show="new" xlink:title="Base class for class elements (e.g. member or method)." xlink:type="simple"><rect fill="#FEFECE" filter="url(#f9x2p7ys6z24e)" height="48" id="C_0000605866861866358037" style="stroke: #A80036; stroke-width: 1.5;" width="121" x="1149.5" y="460"/><ellipse cx="1164.5" cy="476" fill="#ADD1B2" rx="11" ry="11" style="stroke: #A80036; stroke-width: 1.0;"/><path d="M1167.4688,481.6406 Q1166.8906,481.9375 1166.25,482.0781 Q1165.6094,482.2344 1164.9063,482.2344 Q1162.4063,482.2344 1161.0781,480.5938 Q1159.7656,478.9375 1159.7656,475.8125 Q1159.7656,472.6875 1161.0781,471.0313 Q1162.4063,469.375 1164.9063,469.375 Q1165.6094,469.375 1166.25,469.5313 Q1166.9063,469.6875 1167.4688,469.9844 L1167.4688,472.7031 Q1166.8438,472.125 1166.25,471.8594 Q1165.6563,471.5781 1165.0313,471.5781 Q1163.6875,471.5781 1163,472.6563 Q1162.3125,473.7188 1162.3125,475.8125 Q1162.3125,477.9063 1163,478.9844 Q1163.6875,480.0469 1165.0313,480.0469 Q1165.6563,480.0469 1166.25,479.7813 Q1166.8438,479.5 1167.4688,478.9219 L1167.4688,481.6406 Z "/><text fill="#000000" font-family="sans-serif" font-size="12" lengthAdjust="spacingAndGlyphs" textLength="89" x="1178.5" y="480.1543">class_element</text><line style="stroke: #A80036; stroke-width: 1.5;" x1="1150.5" x2="1269.5" y1="492" y2="492"/><line style="stroke: #A80036; stroke-width: 1.5;" x1="1150.5" x2="1269.5" y1="500" y2="500"/></a><!--MD5=[a2b7048e31aebc0ffeb4eb6e2a1be8d2]
class C_0001796282762108527255--><a href="classclanguml_1_1class__diagram_1_1model_1_1class__member.html" target="_top" title="Class member model." xlink:actuate="onRequest" xlink:href="classclanguml_1_1class__diagram_1_1model_1_1class__member.html" xlink:show="new" xlink:title="Class member model." xlink:type="simple"><rect fill="#FEFECE" filter="url(#f9x2p7ys6z24e)" height="48" id="C_0001796282762108527255" style="stroke: #A80036; stroke-width: 1.5;" width="121" x="1071.5" y="568"/><ellipse cx="1086.5" cy="584" fill="#ADD1B2" rx="11" ry="11" style="stroke: #A80036; stroke-width: 1.0;"/><path d="M1089.4688,589.6406 Q1088.8906,589.9375 1088.25,590.0781 Q1087.6094,590.2344 1086.9063,590.2344 Q1084.4063,590.2344 1083.0781,588.5938 Q1081.7656,586.9375 1081.7656,583.8125 Q1081.7656,580.6875 1083.0781,579.0313 Q1084.4063,577.375 1086.9063,577.375 Q1087.6094,577.375 1088.25,577.5313 Q1088.9063,577.6875 1089.4688,577.9844 L1089.4688,580.7031 Q1088.8438,580.125 1088.25,579.8594 Q1087.6563,579.5781 1087.0313,579.5781 Q1085.6875,579.5781 1085,580.6563 Q1084.3125,581.7188 1084.3125,583.8125 Q1084.3125,585.9063 1085,586.9844 Q1085.6875,588.0469 1087.0313,588.0469 Q1087.6563,588.0469 1088.25,587.7813 Q1088.8438,587.5 1089.4688,586.9219 L1089.4688,589.6406 Z "/><text fill="#000000" font-family="sans-serif" font-size="12" lengthAdjust="spacingAndGlyphs" textLength="89" x="1100.5" y="588.1543">class_member</text><line style="stroke: #A80036; stroke-width: 1.5;" x1="1072.5" x2="1191.5" y1="600" y2="600"/><line style="stroke: #A80036; stroke-width: 1.5;" x1="1072.5" x2="1191.5" y1="608" y2="608"/></a><!--MD5=[5992c67bed5fafc2309ff7d957956f6e]
class C_0000605669033368926050--><a href="classclanguml_1_1class__diagram_1_1model_1_1method__parameter.html" target="_top" title="Model of a method parameter." xlink:actuate="onRequest" xlink:href="classclanguml_1_1class__diagram_1_1model_1_1method__parameter.html" xlink:show="new" xlink:title="Model of a method parameter." xlink:type="simple"><rect fill="#FEFECE" filter="url(#f9x2p7ys6z24e)" height="48" id="C_0000605669033368926050" style="stroke: #A80036; stroke-width: 1.5;" width="152" x="1306" y="460"/><ellipse cx="1321" cy="476" fill="#ADD1B2" rx="11" ry="11" style="stroke: #A80036; stroke-width: 1.0;"/><path d="M1323.9688,481.6406 Q1323.3906,481.9375 1322.75,482.0781 Q1322.1094,482.2344 1321.4063,482.2344 Q1318.9063,482.2344 1317.5781,480.5938 Q1316.2656,478.9375 1316.2656,475.8125 Q1316.2656,472.6875 1317.5781,471.0313 Q1318.9063,469.375 1321.4063,469.375 Q1322.1094,469.375 1322.75,469.5313 Q1323.4063,469.6875 1323.9688,469.9844 L1323.9688,472.7031 Q1323.3438,472.125 1322.75,471.8594 Q1322.1563,471.5781 1321.5313,471.5781 Q1320.1875,471.5781 1319.5,472.6563 Q1318.8125,473.7188 1318.8125,475.8125 Q1318.8125,477.9063 1319.5,478.9844 Q1320.1875,480.0469 1321.5313,480.0469 Q1322.1563,480.0469 1322.75,479.7813 Q1323.3438,479.5 1323.9688,478.9219 L1323.9688,481.6406 Z "/><text fill="#000000" font-family="sans-serif" font-size="12" lengthAdjust="spacingAndGlyphs" textLength="120" x="1335" y="480.1543">method_parameter</text><line style="stroke: #A80036; stroke-width: 1.5;" x1="1307" x2="1457" y1="492" y2="492"/><line style="stroke: #A80036; stroke-width: 1.5;" x1="1307" x2="1457" y1="500" y2="500"/></a><!--MD5=[3fbd1476055f798f732379619b702fab]
class C_0000204145716468348671--><a href="classclanguml_1_1class__diagram_1_1model_1_1class__method.html" target="_top" title="Class method model." xlink:actuate="onRequest" xlink:href="classclanguml_1_1class__diagram_1_1model_1_1class__method.html" xlink:show="new" xlink:title="Class method model." xlink:type="simple"><rect fill="#FEFECE" filter="url(#f9x2p7ys6z24e)" height="48" id="C_0000204145716468348671" style="stroke: #A80036; stroke-width: 1.5;" width="118" x="1228" y="568"/><ellipse cx="1243" cy="584" fill="#ADD1B2" rx="11" ry="11" style="stroke: #A80036; stroke-width: 1.0;"/><path d="M1245.9688,589.6406 Q1245.3906,589.9375 1244.75,590.0781 Q1244.1094,590.2344 1243.4063,590.2344 Q1240.9063,590.2344 1239.5781,588.5938 Q1238.2656,586.9375 1238.2656,583.8125 Q1238.2656,580.6875 1239.5781,579.0313 Q1240.9063,577.375 1243.4063,577.375 Q1244.1094,577.375 1244.75,577.5313 Q1245.4063,577.6875 1245.9688,577.9844 L1245.9688,580.7031 Q1245.3438,580.125 1244.75,579.8594 Q1244.1563,579.5781 1243.5313,579.5781 Q1242.1875,579.5781 1241.5,580.6563 Q1240.8125,581.7188 1240.8125,583.8125 Q1240.8125,585.9063 1241.5,586.9844 Q1242.1875,588.0469 1243.5313,588.0469 Q1244.1563,588.0469 1244.75,587.7813 Q1245.3438,587.5 1245.9688,586.9219 L1245.9688,589.6406 Z "/><text fill="#000000" font-family="sans-serif" font-size="12" lengthAdjust="spacingAndGlyphs" textLength="86" x="1257" y="588.1543">class_method</text><line style="stroke: #A80036; stroke-width: 1.5;" x1="1229" x2="1345" y1="600" y2="600"/><line style="stroke: #A80036; stroke-width: 1.5;" x1="1229" x2="1345" y1="608" y2="608"/></a><!--MD5=[ae47341ca1a22ddcd7d0b4ea2daf1996]
class C_0001292034357466653182--><a href="classclanguml_1_1class__diagram_1_1model_1_1class__.html" target="_top" title="Diagram element representing a class or class template." xlink:actuate="onRequest" xlink:href="classclanguml_1_1class__diagram_1_1model_1_1class__.html" xlink:show="new" xlink:title="Diagram element representing a class or class template." xlink:type="simple"><rect fill="#FEFECE" filter="url(#f9x2p7ys6z24e)" height="48" id="C_0001292034357466653182" style="stroke: #A80036; stroke-width: 1.5;" width="70" x="936" y="460"/><ellipse cx="951" cy="476" fill="#ADD1B2" rx="11" ry="11" style="stroke: #A80036; stroke-width: 1.0;"/><path d="M953.9688,481.6406 Q953.3906,481.9375 952.75,482.0781 Q952.1094,482.2344 951.4063,482.2344 Q948.9063,482.2344 947.5781,480.5938 Q946.2656,478.9375 946.2656,475.8125 Q946.2656,472.6875 947.5781,471.0313 Q948.9063,469.375 951.4063,469.375 Q952.1094,469.375 952.75,469.5313 Q953.4063,469.6875 953.9688,469.9844 L953.9688,472.7031 Q953.3438,472.125 952.75,471.8594 Q952.1563,471.5781 951.5313,471.5781 Q950.1875,471.5781 949.5,472.6563 Q948.8125,473.7188 948.8125,475.8125 Q948.8125,477.9063 949.5,478.9844 Q950.1875,480.0469 951.5313,480.0469 Q952.1563,480.0469 952.75,479.7813 Q953.3438,479.5 953.9688,478.9219 L953.9688,481.6406 Z "/><text fill="#000000" font-family="sans-serif" font-size="12" lengthAdjust="spacingAndGlyphs" textLength="38" x="965" y="480.1543">class_</text><line style="stroke: #A80036; stroke-width: 1.5;" x1="937" x2="1005" y1="492" y2="492"/><line style="stroke: #A80036; stroke-width: 1.5;" x1="937" x2="1005" y1="500" y2="500"/></a><!--MD5=[dd3d40541e24383f89990969973b4760]
class C_0001374849051752224500--><a href="classclanguml_1_1class__diagram_1_1model_1_1concept__.html" target="_top" title="Model of C++ concept." xlink:actuate="onRequest" xlink:href="classclanguml_1_1class__diagram_1_1model_1_1concept__.html" xlink:show="new" xlink:title="Model of C++ concept." xlink:type="simple"><rect fill="#FEFECE" filter="url(#f9x2p7ys6z24e)" height="48" id="C_0001374849051752224500" style="stroke: #A80036; stroke-width: 1.5;" width="89" x="811.5" y="460"/><ellipse cx="826.5" cy="476" fill="#ADD1B2" rx="11" ry="11" style="stroke: #A80036; stroke-width: 1.0;"/><path d="M829.4688,481.6406 Q828.8906,481.9375 828.25,482.0781 Q827.6094,482.2344 826.9063,482.2344 Q824.4063,482.2344 823.0781,480.5938 Q821.7656,478.9375 821.7656,475.8125 Q821.7656,472.6875 823.0781,471.0313 Q824.4063,469.375 826.9063,469.375 Q827.6094,469.375 828.25,469.5313 Q828.9063,469.6875 829.4688,469.9844 L829.4688,472.7031 Q828.8438,472.125 828.25,471.8594 Q827.6563,471.5781 827.0313,471.5781 Q825.6875,471.5781 825,472.6563 Q824.3125,473.7188 824.3125,475.8125 Q824.3125,477.9063 825,478.9844 Q825.6875,480.0469 827.0313,480.0469 Q827.6563,480.0469 828.25,479.7813 Q828.8438,479.5 829.4688,478.9219 L829.4688,481.6406 Z "/><text fill="#000000" font-family="sans-serif" font-size="12" lengthAdjust="spacingAndGlyphs" textLength="57" x="840.5" y="480.1543">concept_</text><line style="stroke: #A80036; stroke-width: 1.5;" x1="812.5" x2="899.5" y1="492" y2="492"/><line style="stroke: #A80036; stroke-width: 1.5;" x1="812.5" x2="899.5" y1="500" y2="500"/></a><!--MD5=[ad7c1a05bec632e2a3018185b58507d2]
class C_0000724392977093650506--><a href="classclanguml_1_1class__diagram_1_1model_1_1enum__.html" target="_top" title="enum_" xlink:actuate="onRequest" xlink:href="classclanguml_1_1class__diagram_1_1model_1_1enum__.html" xlink:show="new" xlink:title="enum_" xlink:type="simple"><rect fill="#FEFECE" filter="url(#f9x2p7ys6z24e)" height="48" id="C_0000724392977093650506" style="stroke: #A80036; stroke-width: 1.5;" width="73" x="1041.5" y="460"/><ellipse cx="1056.5" cy="476" fill="#ADD1B2" rx="11" ry="11" style="stroke: #A80036; stroke-width: 1.0;"/><path d="M1059.4688,481.6406 Q1058.8906,481.9375 1058.25,482.0781 Q1057.6094,482.2344 1056.9063,482.2344 Q1054.4063,482.2344 1053.0781,480.5938 Q1051.7656,478.9375 1051.7656,475.8125 Q1051.7656,472.6875 1053.0781,471.0313 Q1054.4063,469.375 1056.9063,469.375 Q1057.6094,469.375 1058.25,469.5313 Q1058.9063,469.6875 1059.4688,469.9844 L1059.4688,472.7031 Q1058.8438,472.125 1058.25,471.8594 Q1057.6563,471.5781 1057.0313,471.5781 Q1055.6875,471.5781 1055,472.6563 Q1054.3125,473.7188 1054.3125,475.8125 Q1054.3125,477.9063 1055,478.9844 Q1055.6875,480.0469 1057.0313,480.0469 Q1057.6563,480.0469 1058.25,479.7813 Q1058.8438,479.5 1059.4688,478.9219 L1059.4688,481.6406 Z "/><text fill="#000000" font-family="sans-serif" font-size="12" lengthAdjust="spacingAndGlyphs" textLength="41" x="1070.5" y="480.1543">enum_</text><line style="stroke: #A80036; stroke-width: 1.5;" x1="1042.5" x2="1113.5" y1="492" y2="492"/><line style="stroke: #A80036; stroke-width: 1.5;" x1="1042.5" x2="1113.5" y1="500" y2="500"/></a><!--MD5=[505367997c2b7099e4ddff1763d1acb5]
class C_0001400215772842495226--><a href="structclanguml_1_1sequence__diagram_1_1model_1_1participant.html" target="_top" title="Base class for various types of sequence diagram participants" xlink:actuate="onRequest" xlink:href="structclanguml_1_1sequence__diagram_1_1model_1_1participant.html" xlink:show="new" xlink:title="Base class for various types of sequence diagram participants" xlink:type="simple"><rect fill="#FEFECE" filter="url(#f9x2p7ys6z24e)" height="48" id="C_0001400215772842495226" style="stroke: #A80036; stroke-width: 1.5;" width="100" x="447" y="460"/><ellipse cx="462" cy="476" fill="#ADD1B2" rx="11" ry="11" style="stroke: #A80036; stroke-width: 1.0;"/><path d="M464.9688,481.6406 Q464.3906,481.9375 463.75,482.0781 Q463.1094,482.2344 462.4063,482.2344 Q459.9063,482.2344 458.5781,480.5938 Q457.2656,478.9375 457.2656,475.8125 Q457.2656,472.6875 458.5781,471.0313 Q459.9063,469.375 462.4063,469.375 Q463.1094,469.375 463.75,469.5313 Q464.4063,469.6875 464.9688,469.9844 L464.9688,472.7031 Q464.3438,472.125 463.75,471.8594 Q463.1563,471.5781 462.5313,471.5781 Q461.1875,471.5781 460.5,472.6563 Q459.8125,473.7188 459.8125,475.8125 Q459.8125,477.9063 460.5,478.9844 Q461.1875,480.0469 462.5313,480.0469 Q463.1563,480.0469 463.75,479.7813 Q464.3438,479.5 464.9688,478.9219 L464.9688,481.6406 Z "/><text fill="#000000" font-family="sans-serif" font-size="12" lengthAdjust="spacingAndGlyphs" textLength="68" x="476" y="480.1543">participant</text><line style="stroke: #A80036; stroke-width: 1.5;" x1="448" x2="546" y1="492" y2="492"/><line style="stroke: #A80036; stroke-width: 1.5;" x1="448" x2="546" y1="500" y2="500"/></a><!--MD5=[b4d475f36669eac2ac4b1a7424da64db]
class C_0000885514871619471610--><a href="structclanguml_1_1sequence__diagram_1_1model_1_1class__.html" target="_top" title="Sequence diagram participant representing a class." xlink:actuate="onRequest" xlink:href="structclanguml_1_1sequence__diagram_1_1model_1_1class__.html" xlink:show="new" xlink:title="Sequence diagram participant representing a class." xlink:type="simple"><rect fill="#FEFECE" filter="url(#f9x2p7ys6z24e)" height="48" id="C_0000885514871619471610" style="stroke: #A80036; stroke-width: 1.5;" width="70" x="454" y="568"/><ellipse cx="469" cy="584" fill="#ADD1B2" rx="11" ry="11" style="stroke: #A80036; stroke-width: 1.0;"/><path d="M471.9688,589.6406 Q471.3906,589.9375 470.75,590.0781 Q470.1094,590.2344 469.4063,590.2344 Q466.9063,590.2344 465.5781,588.5938 Q464.2656,586.9375 464.2656,583.8125 Q464.2656,580.6875 465.5781,579.0313 Q466.9063,577.375 469.4063,577.375 Q470.1094,577.375 470.75,577.5313 Q471.4063,577.6875 471.9688,577.9844 L471.9688,580.7031 Q471.3438,580.125 470.75,579.8594 Q470.1563,579.5781 469.5313,579.5781 Q468.1875,579.5781 467.5,580.6563 Q466.8125,581.7188 466.8125,583.8125 Q466.8125,585.9063 467.5,586.9844 Q468.1875,588.0469 469.5313,588.0469 Q470.1563,588.0469 470.75,587.7813 Q471.3438,587.5 471.9688,586.9219 L471.9688,589.6406 Z "/><text fill="#000000" font-family="sans-serif" font-size="12" lengthAdjust="spacingAndGlyphs" textLength="38" x="483" y="588.1543">class_</text><line style="stroke: #A80036; stroke-width: 1.5;" x1="455" x2="523" y1="600" y2="600"/><line style="stroke: #A80036; stroke-width: 1.5;" x1="455" x2="523" y1="608" y2="608"/></a><!--MD5=[fea9086604aaaceeec1cf807579b2064]
class C_0000232638456031681828--><a href="structclanguml_1_1sequence__diagram_1_1model_1_1function.html" target="_top" title="Participant mode representing a free function." xlink:actuate="onRequest" xlink:href="structclanguml_1_1sequence__diagram_1_1model_1_1function.html" xlink:show="new" xlink:title="Participant mode representing a free function." xlink:type="simple"><rect fill="#FEFECE" filter="url(#f9x2p7ys6z24e)" height="48" id="C_0000232638456031681828" style="stroke: #A80036; stroke-width: 1.5;" width="83" x="559.5" y="568"/><ellipse cx="574.5" cy="584" fill="#ADD1B2" rx="11" ry="11" style="stroke: #A80036; stroke-width: 1.0;"/><path d="M577.4688,589.6406 Q576.8906,589.9375 576.25,590.0781 Q575.6094,590.2344 574.9063,590.2344 Q572.4063,590.2344 571.0781,588.5938 Q569.7656,586.9375 569.7656,583.8125 Q569.7656,580.6875 571.0781,579.0313 Q572.4063,577.375 574.9063,577.375 Q575.6094,577.375 576.25,577.5313 Q576.9063,577.6875 577.4688,577.9844 L577.4688,580.7031 Q576.8438,580.125 576.25,579.8594 Q575.6563,579.5781 575.0313,579.5781 Q573.6875,579.5781 573,580.6563 Q572.3125,581.7188 572.3125,583.8125 Q572.3125,585.9063 573,586.9844 Q573.6875,588.0469 575.0313,588.0469 Q575.6563,588.0469 576.25,587.7813 Q576.8438,587.5 577.4688,586.9219 L577.4688,589.6406 Z "/><text fill="#000000" font-family="sans-serif" font-size="12" lengthAdjust="spacingAndGlyphs" textLength="51" x="588.5" y="588.1543">function</text><line style="stroke: #A80036; stroke-width: 1.5;" x1="560.5" x2="641.5" y1="600" y2="600"/><line style="stroke: #A80036; stroke-width: 1.5;" x1="560.5" x2="641.5" y1="608" y2="608"/></a><!--MD5=[78f12b5739bf72f527e2506c0e981f4b]
class C_0000817665972547784504--><a href="structclanguml_1_1sequence__diagram_1_1model_1_1method.html" target="_top" title="Participant model representing a method" xlink:actuate="onRequest" xlink:href="structclanguml_1_1sequence__diagram_1_1model_1_1method.html" xlink:show="new" xlink:title="Participant model representing a method" xlink:type="simple"><rect fill="#FEFECE" filter="url(#f9x2p7ys6z24e)" height="48" id="C_0000817665972547784504" style="stroke: #A80036; stroke-width: 1.5;" width="80" x="447" y="676"/><ellipse cx="462" cy="692" fill="#ADD1B2" rx="11" ry="11" style="stroke: #A80036; stroke-width: 1.0;"/><path d="M464.9688,697.6406 Q464.3906,697.9375 463.75,698.0781 Q463.1094,698.2344 462.4063,698.2344 Q459.9063,698.2344 458.5781,696.5938 Q457.2656,694.9375 457.2656,691.8125 Q457.2656,688.6875 458.5781,687.0313 Q459.9063,685.375 462.4063,685.375 Q463.1094,685.375 463.75,685.5313 Q464.4063,685.6875 464.9688,685.9844 L464.9688,688.7031 Q464.3438,688.125 463.75,687.8594 Q463.1563,687.5781 462.5313,687.5781 Q461.1875,687.5781 460.5,688.6563 Q459.8125,689.7188 459.8125,691.8125 Q459.8125,693.9063 460.5,694.9844 Q461.1875,696.0469 462.5313,696.0469 Q463.1563,696.0469 463.75,695.7813 Q464.3438,695.5 464.9688,694.9219 L464.9688,697.6406 Z "/><text fill="#000000" font-family="sans-serif" font-size="12" lengthAdjust="spacingAndGlyphs" textLength="48" x="476" y="696.1543">method</text><line style="stroke: #A80036; stroke-width: 1.5;" x1="448" x2="526" y1="708" y2="708"/><line style="stroke: #A80036; stroke-width: 1.5;" x1="448" x2="526" y1="716" y2="716"/></a><!--MD5=[32d760b788d79d5e0bfcc0697e979e7d]
class C_0002280191967493310558--><a href="structclanguml_1_1sequence__diagram_1_1model_1_1function__template.html" target="_top" title="Participant model representing a function template." xlink:actuate="onRequest" xlink:href="structclanguml_1_1sequence__diagram_1_1model_1_1function__template.html" xlink:show="new" xlink:title="Participant model representing a function template." xlink:type="simple"><rect fill="#FEFECE" filter="url(#f9x2p7ys6z24e)" height="48" id="C_0002280191967493310558" style="stroke: #A80036; stroke-width: 1.5;" width="145" x="562.5" y="676"/><ellipse cx="577.5" cy="692" fill="#ADD1B2" rx="11" ry="11" style="stroke: #A80036; stroke-width: 1.0;"/><path d="M580.4688,697.6406 Q579.8906,697.9375 579.25,698.0781 Q578.6094,698.2344 577.9063,698.2344 Q575.4063,698.2344 574.0781,696.5938 Q572.7656,694.9375 572.7656,691.8125 Q572.7656,688.6875 574.0781,687.0313 Q575.4063,685.375 577.9063,685.375 Q578.6094,685.375 579.25,685.5313 Q579.9063,685.6875 580.4688,685.9844 L580.4688,688.7031 Q579.8438,688.125 579.25,687.8594 Q578.6563,687.5781 578.0313,687.5781 Q576.6875,687.5781 576,688.6563 Q575.3125,689.7188 575.3125,691.8125 Q575.3125,693.9063 576,694.9844 Q576.6875,696.0469 578.0313,696.0469 Q578.6563,696.0469 579.25,695.7813 Q579.8438,695.5 580.4688,694.9219 L580.4688,697.6406 Z "/><text fill="#000000" font-family="sans-serif" font-size="12" lengthAdjust="spacingAndGlyphs" textLength="113" x="591.5" y="696.1543">function_template</text><line style="stroke: #A80036; stroke-width: 1.5;" x1="563.5" x2="706.5" y1="708" y2="708"/><line style="stroke: #A80036; stroke-width: 1.5;" x1="563.5" x2="706.5" y1="716" y2="716"/></a><!--MD5=[d938ea8dcef347175d1d053a93bab664]
class C_0002228653068706235818--><a href="classclanguml_1_1sequence__diagram_1_1model_1_1message.html" target="_top" title="Model of a sequence diagram message." xlink:actuate="onRequest" xlink:href="classclanguml_1_1sequence__diagram_1_1model_1_1message.html" xlink:show="new" xlink:title="Model of a sequence diagram message." xlink:type="simple"><rect fill="#FEFECE" filter="url(#f9x2p7ys6z24e)" height="48" id="C_0002228653068706235818" style="stroke: #A80036; stroke-width: 1.5;" width="89" x="582.5" y="460"/><ellipse cx="597.5" cy="476" fill="#ADD1B2" rx="11" ry="11" style="stroke: #A80036; stroke-width: 1.0;"/><path d="M600.4688,481.6406 Q599.8906,481.9375 599.25,482.0781 Q598.6094,482.2344 597.9063,482.2344 Q595.4063,482.2344 594.0781,480.5938 Q592.7656,478.9375 592.7656,475.8125 Q592.7656,472.6875 594.0781,471.0313 Q595.4063,469.375 597.9063,469.375 Q598.6094,469.375 599.25,469.5313 Q599.9063,469.6875 600.4688,469.9844 L600.4688,472.7031 Q599.8438,472.125 599.25,471.8594 Q598.6563,471.5781 598.0313,471.5781 Q596.6875,471.5781 596,472.6563 Q595.3125,473.7188 595.3125,475.8125 Q595.3125,477.9063 596,478.9844 Q596.6875,480.0469 598.0313,480.0469 Q598.6563,480.0469 599.25,479.7813 Q599.8438,479.5 600.4688,478.9219 L600.4688,481.6406 Z "/><text fill="#000000" font-family="sans-serif" font-size="12" lengthAdjust="spacingAndGlyphs" textLength="57" x="611.5" y="480.1543">message</text><line style="stroke: #A80036; stroke-width: 1.5;" x1="583.5" x2="670.5" y1="492" y2="492"/><line style="stroke: #A80036; stroke-width: 1.5;" x1="583.5" x2="670.5" y1="500" y2="500"/></a><!--MD5=[eec8df5c621e16efacc55aa1cc3fe68f]
reverse link C_0001117102382624673118 to C_0002046336758797367926--><path d="M216.84,161.51 C194.27,177.35 168.11,195.71 147.96,209.86 " fill="none" id="C_0001117102382624673118&lt;-C_0002046336758797367926" style="stroke: #A80036; stroke-width: 1.0;"/><polygon fill="none" points="212.84,155.76,233.24,150,220.89,167.22,212.84,155.76" style="stroke: #A80036; stroke-width: 1.0;"/><!--MD5=[51b77a83e925bfa56ce9003126dec6da]
reverse link C_0001117102382624673118 to C_0001073500714379115414--><path d="M268.84,170.02 C269.74,183.58 270.69,198.04 271.46,209.68 " fill="none" id="C_0001117102382624673118&lt;-C_0001073500714379115414" style="stroke: #A80036; stroke-width: 1.0;"/><polygon fill="none" points="261.85,170.42,267.52,150,275.82,169.5,261.85,170.42" style="stroke: #A80036; stroke-width: 1.0;"/><!--MD5=[4f2a77547d39d73bea822e52b2f0976b]
reverse link C_0001073500714379115414 to C_0002069520381434407937--><path d="M235.72,272.28 C220.61,287.39 203.62,304.38 190.32,317.68 " fill="none" id="C_0001073500714379115414&lt;-C_0002069520381434407937" style="stroke: #A80036; stroke-width: 1.0;"/><polygon fill="none" points="230.91,267.19,250,258,240.81,277.09,230.91,267.19" style="stroke: #A80036; stroke-width: 1.0;"/><!--MD5=[3b5b148458d09c1202603fe4c86398e5]
reverse link C_0002069520381434407937 to C_0002143286684830686854--><path d="M167,386.2 C167,410.5 167,439.88 167,459.85 " fill="none" id="C_0002069520381434407937&lt;-C_0002143286684830686854" style="stroke: #A80036; stroke-width: 1.0;"/><polygon fill="none" points="160,386.12,167,366.12,174,386.12,160,386.12" style="stroke: #A80036; stroke-width: 1.0;"/><!--MD5=[5ecb1d83165a712adbd5650cef34b86b]
reverse link C_0001073500714379115414 to C_0000785714713072053129--><path d="M281.12,278.02 C283.68,291.58 286.4,306.04 288.6,317.68 " fill="none" id="C_0001073500714379115414&lt;-C_0000785714713072053129" style="stroke: #A80036; stroke-width: 1.0;"/><polygon fill="none" points="274.17,278.95,277.34,258,287.93,276.36,274.17,278.95" style="stroke: #A80036; stroke-width: 1.0;"/><!--MD5=[0fe97a7a5a0fa9da8660a2a2ab9fd9eb]
reverse link C_0001117102382624673118 to C_0000605866861866358037--><path d="M363.35,133.94 C533.66,150.31 890.48,203.84 1132,374 C1163.39,396.11 1186.72,435 1199.34,459.86 " fill="none" id="C_0001117102382624673118&lt;-C_0000605866861866358037" style="stroke: #A80036; stroke-width: 1.0;"/><polygon fill="none" points="362.56,140.89,343.28,132.1,363.84,126.95,362.56,140.89" style="stroke: #A80036; stroke-width: 1.0;"/><!--MD5=[d8e4acfe1535dd965012bd96698e8da6]
reverse link C_0000605866861866358037 to C_0001796282762108527255--><path d="M1181.17,524.18 C1170.41,538.8 1158.54,554.93 1149.16,567.68 " fill="none" id="C_0000605866861866358037&lt;-C_0001796282762108527255" style="stroke: #A80036; stroke-width: 1.0;"/><polygon fill="none" points="1175.58,519.96,1193.08,508,1186.86,528.26,1175.58,519.96" style="stroke: #A80036; stroke-width: 1.0;"/><!--MD5=[1fd672dd170cf971b3d52d9ff5204cc3]
reverse link C_0001117102382624673118 to C_0000605669033368926050--><path d="M363.22,127.4 C556.96,132.81 997.48,168.65 1288,374 C1321.26,397.51 1350.27,435.27 1366.97,459.6 " fill="none" id="C_0001117102382624673118&lt;-C_0000605669033368926050" style="stroke: #A80036; stroke-width: 1.0;"/><polygon fill="none" points="362.87,134.39,343.04,126.92,363.2,120.4,362.87,134.39" style="stroke: #A80036; stroke-width: 1.0;"/><!--MD5=[319ad9cfab865c6a4b42924a2f265e34]
reverse link C_0000605866861866358037 to C_0000204145716468348671--><path d="M1238.81,524.66 C1249.34,539.15 1260.9,555.07 1270.06,567.68 " fill="none" id="C_0000605866861866358037&lt;-C_0000204145716468348671" style="stroke: #A80036; stroke-width: 1.0;"/><polygon fill="none" points="1232.8,528.3,1226.71,508,1244.13,520.07,1232.8,528.3" style="stroke: #A80036; stroke-width: 1.0;"/><!--MD5=[4018109609f1a98320137cbe86d3b254]
reverse link C_0002069520381434407937 to C_0001292034357466653182--><path d="M228.66,363.09 C345.97,368.81 903.06,364.53 918,374 C947.86,392.92 961.35,433.95 967.1,459.92 " fill="none" id="C_0002069520381434407937&lt;-C_0001292034357466653182" style="stroke: #A80036; stroke-width: 1.0;"/><polygon fill="none" points="227.99,370.06,208.67,361.36,229.2,356.11,227.99,370.06" style="stroke: #A80036; stroke-width: 1.0;"/><!--MD5=[cf69ebad9c135069927ecc8912486131]
reverse link C_0002069520381434407937 to C_0001374849051752224500--><path d="M228.81,363.58 C327.32,370.26 700.29,365.26 724,374 C771.13,391.37 813.56,433.31 836.96,459.81 " fill="none" id="C_0002069520381434407937&lt;-C_0001374849051752224500" style="stroke: #A80036; stroke-width: 1.0;"/><polygon fill="none" points="227.78,370.51,208.67,361.33,229.33,356.59,227.78,370.51" style="stroke: #A80036; stroke-width: 1.0;"/><!--MD5=[8c22089b7714b620a371fadcc922a5ed]
reverse link C_0002069520381434407937 to C_0000724392977093650506--><path d="M228.65,363.07 C356.13,369.13 1006.62,363.09 1024,374 C1054.05,392.86 1067.92,433.91 1073.9,459.9 " fill="none" id="C_0002069520381434407937&lt;-C_0000724392977093650506" style="stroke: #A80036; stroke-width: 1.0;"/><polygon fill="none" points="228,370.04,208.67,361.37,229.19,356.09,228,370.04" style="stroke: #A80036; stroke-width: 1.0;"/><!--MD5=[62dc895dac1d0c2011f0b281560d3968]
reverse link C_0002069520381434407937 to C_0001400215772842495226--><path d="M228.54,364.6 C274.36,370.32 335.01,364.85 359,374 C406.92,392.27 451.38,433.51 476.28,459.69 " fill="none" id="C_0002069520381434407937&lt;-C_0001400215772842495226" style="stroke: #A80036; stroke-width: 1.0;"/><polygon fill="none" points="227.2,371.47,208.72,361.1,229.64,357.69,227.2,371.47" style="stroke: #A80036; stroke-width: 1.0;"/><!--MD5=[b33f1614e5f0bf4794b27e69905bc927]
reverse link C_0001400215772842495226 to C_0000885514871619471610--><path d="M493.75,528.02 C492.73,541.58 491.64,556.04 490.76,567.68 " fill="none" id="C_0001400215772842495226&lt;-C_0000885514871619471610" style="stroke: #A80036; stroke-width: 1.0;"/><polygon fill="none" points="486.78,527.42,495.26,508,500.74,528.47,486.78,527.42" style="stroke: #A80036; stroke-width: 1.0;"/><!--MD5=[cff630a429a41d6509e30ee5071e7c05]
reverse link C_0001400215772842495226 to C_0000232638456031681828--><path d="M532.98,523.07 C543.25,533.79 554.5,545.42 565,556 C568.81,559.84 572.88,563.87 576.87,567.77 " fill="none" id="C_0001400215772842495226&lt;-C_0000232638456031681828" style="stroke: #A80036; stroke-width: 1.0;"/><polygon fill="none" points="527.57,527.53,518.84,508.22,537.71,517.88,527.57,527.53" style="stroke: #A80036; stroke-width: 1.0;"/><!--MD5=[aaa21626746a78046d7a511702c30bb7]
reverse link C_0000232638456031681828 to C_0000817665972547784504--><path d="M572.3,631.95 C563.25,642.95 552.78,654.5 542,664 C537.24,668.19 531.94,672.22 526.55,675.96 " fill="none" id="C_0000232638456031681828&lt;-C_0000817665972547784504" style="stroke: #A80036; stroke-width: 1.0;"/><polygon fill="none" points="566.95,627.42,584.8,616.01,577.96,636.06,566.95,627.42" style="stroke: #A80036; stroke-width: 1.0;"/><!--MD5=[ed3960d209e9f24c5c41aa336e94c692]
reverse link C_0000232638456031681828 to C_0002280191967493310558--><path d="M614.49,635.06 C618.93,648.89 623.7,663.76 627.52,675.68 " fill="none" id="C_0000232638456031681828&lt;-C_0002280191967493310558" style="stroke: #A80036; stroke-width: 1.0;"/><polygon fill="none" points="607.82,637.18,608.38,616,621.15,632.91,607.82,637.18" style="stroke: #A80036; stroke-width: 1.0;"/><!--MD5=[a67a2b87f33292a603fe6541cbf2f274]
reverse link C_0001073500714379115414 to C_0002228653068706235818--><path d="M362.24,261.5 C424.78,283.6 507.18,320.24 565,374 C590.99,398.16 609.02,435.74 618.69,459.86 " fill="none" id="C_0001073500714379115414&lt;-C_0002228653068706235818" style="stroke: #A80036; stroke-width: 1.0;"/><polygon fill="none" points="359.77,268.05,343.11,254.96,364.3,254.8,359.77,268.05" style="stroke: #A80036; stroke-width: 1.0;"/><!--MD5=[348e583f08d384d6e19e194ff54e71b4]
@startuml
package [common] as C_0000316605034920222648 {
package [model] as C_0000083721806430512831 {
class "decorated_element" as C_0001117102382624673118
class C_0001117102382624673118 [[classclanguml_1_1common_1_1model_1_1decorated__element.html{Base class for decorated diagram elements}]] {
__
}
class "relationship" as C_0002046336758797367926
class C_0002046336758797367926 [[classclanguml_1_1common_1_1model_1_1relationship.html{Class representing any relationship other than inheritance}]] {
__
}
class "diagram_element" as C_0001073500714379115414
class C_0001073500714379115414 [[classclanguml_1_1common_1_1model_1_1diagram__element.html{Base class for standalone diagram elements.}]] {
__
}
class "element" as C_0002069520381434407937
class C_0002069520381434407937 [[classclanguml_1_1common_1_1model_1_1element.html{Base class for any element qualified by namespace.}]] {
__
}
class "package" as C_0002143286684830686854
class C_0002143286684830686854 [[classclanguml_1_1common_1_1model_1_1package.html{Diagram element representing namespace or directory package}]] {
__
}
class "source_file" as C_0000785714713072053129
class C_0000785714713072053129 [[classclanguml_1_1common_1_1model_1_1source__file.html{Diagram element representing some file or directory.}]] {
__
}
}
}
package [class_diagram] as C_0002240167036201725606 {
package [model] as C_0000897124234964432620 {
class "class_element" as C_0000605866861866358037
class C_0000605866861866358037 [[classclanguml_1_1class__diagram_1_1model_1_1class__element.html{Base class for class elements (e.g. member or method).}]] {
__
}
class "class_member" as C_0001796282762108527255
class C_0001796282762108527255 [[classclanguml_1_1class__diagram_1_1model_1_1class__member.html{Class member model.}]] {
__
}
class "method_parameter" as C_0000605669033368926050
class C_0000605669033368926050 [[classclanguml_1_1class__diagram_1_1model_1_1method__parameter.html{Model of a method parameter.}]] {
__
}
class "class_method" as C_0000204145716468348671
class C_0000204145716468348671 [[classclanguml_1_1class__diagram_1_1model_1_1class__method.html{Class method model.}]] {
__
}
class "class_" as C_0001292034357466653182
class C_0001292034357466653182 [[classclanguml_1_1class__diagram_1_1model_1_1class__.html{Diagram element representing a class or class template.}]] {
__
}
class "concept_" as C_0001374849051752224500
class C_0001374849051752224500 [[classclanguml_1_1class__diagram_1_1model_1_1concept__.html{Model of C++ concept.}]] {
__
}
class "enum_" as C_0000724392977093650506
class C_0000724392977093650506 [[classclanguml_1_1class__diagram_1_1model_1_1enum__.html{enum_}]] {
__
}
}
}
package [sequence_diagram] as C_0001521862840957629236 {
package [model] as C_0002206969880830639264 {
class "participant" as C_0001400215772842495226
class C_0001400215772842495226 [[structclanguml_1_1sequence__diagram_1_1model_1_1participant.html{Base class for various types of sequence diagram participants}]] {
__
}
class "class_" as C_0000885514871619471610
class C_0000885514871619471610 [[structclanguml_1_1sequence__diagram_1_1model_1_1class__.html{Sequence diagram participant representing a class.}]] {
__
}
class "function" as C_0000232638456031681828
class C_0000232638456031681828 [[structclanguml_1_1sequence__diagram_1_1model_1_1function.html{Participant mode representing a free function.}]] {
__
}
class "method" as C_0000817665972547784504
class C_0000817665972547784504 [[structclanguml_1_1sequence__diagram_1_1model_1_1method.html{Participant model representing a method}]] {
__
}
class "function_template" as C_0002280191967493310558
class C_0002280191967493310558 [[structclanguml_1_1sequence__diagram_1_1model_1_1function__template.html{Participant model representing a function template.}]] {
__
}
class "message" as C_0002228653068706235818
class C_0002228653068706235818 [[classclanguml_1_1sequence__diagram_1_1model_1_1message.html{Model of a sequence diagram message.}]] {
__
}
}
}
C_0001117102382624673118 <|- - C_0002046336758797367926
C_0001117102382624673118 <|- - C_0001073500714379115414
C_0001073500714379115414 <|- - C_0002069520381434407937
C_0002069520381434407937 <|- - C_0002143286684830686854
C_0001073500714379115414 <|- - C_0000785714713072053129
C_0001117102382624673118 <|- - C_0000605866861866358037
C_0000605866861866358037 <|- - C_0001796282762108527255
C_0001117102382624673118 <|- - C_0000605669033368926050
C_0000605866861866358037 <|- - C_0000204145716468348671
C_0002069520381434407937 <|- - C_0001292034357466653182
C_0002069520381434407937 <|- - C_0001374849051752224500
C_0002069520381434407937 <|- - C_0000724392977093650506
C_0002069520381434407937 <|- - C_0001400215772842495226
C_0001400215772842495226 <|- - C_0000885514871619471610
C_0001400215772842495226 <|- - C_0000232638456031681828
C_0000232638456031681828 <|- - C_0000817665972547784504
C_0000232638456031681828 <|- - C_0002280191967493310558
C_0001073500714379115414 <|- - C_0002228653068706235818

@enduml

PlantUML version 1.2020.02(Sun Mar 01 11:22:07 CET 2020)
(GPL source distribution)
Java Runtime: OpenJDK Runtime Environment
JVM: OpenJDK 64-Bit Server VM
Java Version: 11.0.19+7-post-Ubuntu-0ubuntu122.04.1
Operating System: Linux
Default Encoding: UTF-8
Language: en
Country: US
--></g></svg>