<?xml version="1.0" encoding="UTF-8" standalone="no"?><svg xmlns="http://www.w3.org/2000/svg" xmlns:xlink="http://www.w3.org/1999/xlink" contentScriptType="application/ecmascript" contentStyleType="text/css" height="776px" preserveAspectRatio="none" style="width:1633px;height:776px;" version="1.1" viewBox="0 0 1633 776" width="1633px" zoomAndPan="magnify"><defs><filter height="300%" id="f1a0bcu0owf79i" width="300%" x="-1" y="-1"><feGaussianBlur result="blurOut" stdDeviation="2.0"/><feColorMatrix in="blurOut" result="blurOut2" type="matrix" values="0 0 0 0 0 0 0 0 0 0 0 0 0 0 0 0 0 0 .4 0"/><feOffset dx="4.0" dy="4.0" in="blurOut2" result="blurOut3"/><feBlend in="SourceGraphic" in2="blurOut3" mode="normal"/></filter></defs><g><!--MD5=[7ba9c127878a642fef3f451151dda753]
cluster C_0000316605034920222648--><polygon fill="#FFFFFF" filter="url(#f1a0bcu0owf79i)" points="22,24,95,24,102,46.2969,383,46.2969,383,548,22,548,22,24" style="stroke: #000000; stroke-width: 1.5;"/><line style="stroke: #000000; stroke-width: 1.5;" x1="22" x2="102" y1="46.2969" y2="46.2969"/><text fill="#000000" font-family="sans-serif" font-size="14" font-weight="bold" lengthAdjust="spacingAndGlyphs" textLength="67" x="26" y="38.9951">common</text><!--MD5=[f7110622f5be760311cd0491b75bf8f9]
cluster C_0000083721806430512831--><polygon fill="#FFFFFF" filter="url(#f1a0bcu0owf79i)" points="46,67,100,67,107,89.2969,359,89.2969,359,524,46,524,46,67" style="stroke: #000000; stroke-width: 1.5;"/><line style="stroke: #000000; stroke-width: 1.5;" x1="46" x2="107" y1="89.2969" y2="89.2969"/><text fill="#000000" font-family="sans-serif" font-size="14" font-weight="bold" lengthAdjust="spacingAndGlyphs" textLength="48" x="50" y="81.9951">model</text><!--MD5=[09e992b259734a9820adb2642bf347d2]
cluster C_0002240167036201725606--><polygon fill="#FFFFFF" filter="url(#f1a0bcu0owf79i)" points="885,382,1001,382,1008,404.2969,1611,404.2969,1611,656,885,656,885,382" style="stroke: #000000; stroke-width: 1.5;"/><line style="stroke: #000000; stroke-width: 1.5;" x1="885" x2="1008" y1="404.2969" y2="404.2969"/><text fill="#000000" font-family="sans-serif" font-size="14" font-weight="bold" lengthAdjust="spacingAndGlyphs" textLength="110" x="889" y="396.9951">class_diagram</text><!--MD5=[5d123d1ba3dda692cf099252127394e7]
cluster C_0000897124234964432620--><polygon fill="#FFFFFF" filter="url(#f1a0bcu0owf79i)" points="909,425,963,425,970,447.2969,1587,447.2969,1587,632,909,632,909,425" style="stroke: #000000; stroke-width: 1.5;"/><line style="stroke: #000000; stroke-width: 1.5;" x1="909" x2="970" y1="447.2969" y2="447.2969"/><text fill="#000000" font-family="sans-serif" font-size="14" font-weight="bold" lengthAdjust="spacingAndGlyphs" textLength="48" x="913" y="439.9951">model</text><!--MD5=[2319765f5fef5e41f5b55adb85cd73ea]
cluster C_0001521862840957629236--><polygon fill="#FFFFFF" filter="url(#f1a0bcu0owf79i)" points="407,382,561,382,568,404.2969,861,404.2969,861,764,407,764,407,382" style="stroke: #000000; stroke-width: 1.5;"/><line style="stroke: #000000; stroke-width: 1.5;" x1="407" x2="568" y1="404.2969" y2="404.2969"/><text fill="#000000" font-family="sans-serif" font-size="14" font-weight="bold" lengthAdjust="spacingAndGlyphs" textLength="148" x="411" y="396.9951">sequence_diagram</text><!--MD5=[aff6d1ed1f9fc56ba8376cf20ecae299]
cluster C_0002206969880830639264--><polygon fill="#FFFFFF" filter="url(#f1a0bcu0owf79i)" points="431,425,485,425,492,447.2969,837,447.2969,837,740,431,740,431,425" style="stroke: #000000; stroke-width: 1.5;"/><line style="stroke: #000000; stroke-width: 1.5;" x1="431" x2="492" y1="447.2969" y2="447.2969"/><text fill="#000000" font-family="sans-serif" font-size="14" font-weight="bold" lengthAdjust="spacingAndGlyphs" textLength="48" x="435" y="439.9951">model</text><!--MD5=[b75d17d3ee67ca210c766132488de4b0]
class C_0001117102382624673118--><a href="classclanguml_1_1common_1_1model_1_1decorated__element.html" target="_top" title="Base class for decorated diagram elements" xlink:actuate="onRequest" xlink:href="classclanguml_1_1common_1_1model_1_1decorated__element.html" xlink:show="new" xlink:title="Base class for decorated diagram elements" xlink:type="simple"><rect fill="#FEFECE" filter="url(#f1a0bcu0owf79i)" height="48" id="C_0001117102382624673118" style="stroke: #A80036; stroke-width: 1.5;" width="154" x="189" y="102"/><ellipse cx="204" cy="118" fill="#ADD1B2" rx="11" ry="11" style="stroke: #A80036; stroke-width: 1.0;"/><path d="M206.9688,123.6406 Q206.3906,123.9375 205.75,124.0781 Q205.1094,124.2344 204.4063,124.2344 Q201.9063,124.2344 200.5781,122.5938 Q199.2656,120.9375 199.2656,117.8125 Q199.2656,114.6875 200.5781,113.0313 Q201.9063,111.375 204.4063,111.375 Q205.1094,111.375 205.75,111.5313 Q206.4063,111.6875 206.9688,111.9844 L206.9688,114.7031 Q206.3438,114.125 205.75,113.8594 Q205.1563,113.5781 204.5313,113.5781 Q203.1875,113.5781 202.5,114.6563 Q201.8125,115.7188 201.8125,117.8125 Q201.8125,119.9063 202.5,120.9844 Q203.1875,122.0469 204.5313,122.0469 Q205.1563,122.0469 205.75,121.7813 Q206.3438,121.5 206.9688,120.9219 L206.9688,123.6406 Z "/><text fill="#000000" font-family="sans-serif" font-size="12" lengthAdjust="spacingAndGlyphs" textLength="122" x="218" y="122.1543">decorated_element</text><line style="stroke: #A80036; stroke-width: 1.5;" x1="190" x2="342" y1="134" y2="134"/><line style="stroke: #A80036; stroke-width: 1.5;" x1="190" x2="342" y1="142" y2="142"/></a><!--MD5=[e8deacb898fc3c022fd97c095b285f76]
class C_0002046336758797367926--><a href="classclanguml_1_1common_1_1model_1_1relationship.html" target="_top" title="Class representing any relationship other than inheritance" xlink:actuate="onRequest" xlink:href="classclanguml_1_1common_1_1model_1_1relationship.html" xlink:show="new" xlink:title="Class representing any relationship other than inheritance" xlink:type="simple"><rect fill="#FEFECE" filter="url(#f1a0bcu0owf79i)" height="48" id="C_0002046336758797367926" style="stroke: #A80036; stroke-width: 1.5;" width="106" x="62" y="210"/><ellipse cx="77" cy="226" fill="#ADD1B2" rx="11" ry="11" style="stroke: #A80036; stroke-width: 1.0;"/><path d="M79.9688,231.6406 Q79.3906,231.9375 78.75,232.0781 Q78.1094,232.2344 77.4063,232.2344 Q74.9063,232.2344 73.5781,230.5938 Q72.2656,228.9375 72.2656,225.8125 Q72.2656,222.6875 73.5781,221.0313 Q74.9063,219.375 77.4063,219.375 Q78.1094,219.375 78.75,219.5313 Q79.4063,219.6875 79.9688,219.9844 L79.9688,222.7031 Q79.3438,222.125 78.75,221.8594 Q78.1563,221.5781 77.5313,221.5781 Q76.1875,221.5781 75.5,222.6563 Q74.8125,223.7188 74.8125,225.8125 Q74.8125,227.9063 75.5,228.9844 Q76.1875,230.0469 77.5313,230.0469 Q78.1563,230.0469 78.75,229.7813 Q79.3438,229.5 79.9688,228.9219 L79.9688,231.6406 Z "/><text fill="#000000" font-family="sans-serif" font-size="12" lengthAdjust="spacingAndGlyphs" textLength="74" x="91" y="230.1543">relationship</text><line style="stroke: #A80036; stroke-width: 1.5;" x1="63" x2="167" y1="242" y2="242"/><line style="stroke: #A80036; stroke-width: 1.5;" x1="63" x2="167" y1="250" y2="250"/></a><!--MD5=[c7954e9554acd525dcb4b1b7d8febda3]
class C_0001073500714379115414--><a href="classclanguml_1_1common_1_1model_1_1diagram__element.html" target="_top" title="Base class for standalone diagram elements." xlink:actuate="onRequest" xlink:href="classclanguml_1_1common_1_1model_1_1diagram__element.html" xlink:show="new" xlink:title="Base class for standalone diagram elements." xlink:type="simple"><rect fill="#FEFECE" filter="url(#f1a0bcu0owf79i)" height="48" id="C_0001073500714379115414" style="stroke: #A80036; stroke-width: 1.5;" width="140" x="203" y="210"/><ellipse cx="218" cy="226" fill="#ADD1B2" rx="11" ry="11" style="stroke: #A80036; stroke-width: 1.0;"/><path d="M220.9688,231.6406 Q220.3906,231.9375 219.75,232.0781 Q219.1094,232.2344 218.4063,232.2344 Q215.9063,232.2344 214.5781,230.5938 Q213.2656,228.9375 213.2656,225.8125 Q213.2656,222.6875 214.5781,221.0313 Q215.9063,219.375 218.4063,219.375 Q219.1094,219.375 219.75,219.5313 Q220.4063,219.6875 220.9688,219.9844 L220.9688,222.7031 Q220.3438,222.125 219.75,221.8594 Q219.1563,221.5781 218.5313,221.5781 Q217.1875,221.5781 216.5,222.6563 Q215.8125,223.7188 215.8125,225.8125 Q215.8125,227.9063 216.5,228.9844 Q217.1875,230.0469 218.5313,230.0469 Q219.1563,230.0469 219.75,229.7813 Q220.3438,229.5 220.9688,228.9219 L220.9688,231.6406 Z "/><text fill="#000000" font-family="sans-serif" font-size="12" lengthAdjust="spacingAndGlyphs" textLength="108" x="232" y="230.1543">diagram_element</text><line style="stroke: #A80036; stroke-width: 1.5;" x1="204" x2="342" y1="242" y2="242"/><line style="stroke: #A80036; stroke-width: 1.5;" x1="204" x2="342" y1="250" y2="250"/></a><!--MD5=[61ee72164152887ec594509a8c6f7a5a]
class C_0002069520381434407937--><a href="classclanguml_1_1common_1_1model_1_1element.html" target="_top" title="Base class for any element qualified by namespace." xlink:actuate="onRequest" xlink:href="classclanguml_1_1common_1_1model_1_1element.html" xlink:show="new" xlink:title="Base class for any element qualified by namespace." xlink:type="simple"><rect fill="#FEFECE" filter="url(#f1a0bcu0owf79i)" height="48" id="C_0002069520381434407937" style="stroke: #A80036; stroke-width: 1.5;" width="83" x="125.5" y="318"/><ellipse cx="140.5" cy="334" fill="#ADD1B2" rx="11" ry="11" style="stroke: #A80036; stroke-width: 1.0;"/><path d="M143.4688,339.6406 Q142.8906,339.9375 142.25,340.0781 Q141.6094,340.2344 140.9063,340.2344 Q138.4063,340.2344 137.0781,338.5938 Q135.7656,336.9375 135.7656,333.8125 Q135.7656,330.6875 137.0781,329.0313 Q138.4063,327.375 140.9063,327.375 Q141.6094,327.375 142.25,327.5313 Q142.9063,327.6875 143.4688,327.9844 L143.4688,330.7031 Q142.8438,330.125 142.25,329.8594 Q141.6563,329.5781 141.0313,329.5781 Q139.6875,329.5781 139,330.6563 Q138.3125,331.7188 138.3125,333.8125 Q138.3125,335.9063 139,336.9844 Q139.6875,338.0469 141.0313,338.0469 Q141.6563,338.0469 142.25,337.7813 Q142.8438,337.5 143.4688,336.9219 L143.4688,339.6406 Z "/><text fill="#000000" font-family="sans-serif" font-size="12" lengthAdjust="spacingAndGlyphs" textLength="51" x="154.5" y="338.1543">element</text><line style="stroke: #A80036; stroke-width: 1.5;" x1="126.5" x2="207.5" y1="350" y2="350"/><line style="stroke: #A80036; stroke-width: 1.5;" x1="126.5" x2="207.5" y1="358" y2="358"/></a><!--MD5=[41fe75f5c358e82f7c3b024ae1be5ac2]
class C_0002143286684830686854--><a href="classclanguml_1_1common_1_1model_1_1package.html" target="_top" title="Diagram element representing namespace or directory package" xlink:actuate="onRequest" xlink:href="classclanguml_1_1common_1_1model_1_1package.html" xlink:show="new" xlink:title="Diagram element representing namespace or directory package" xlink:type="simple"><rect fill="#FEFECE" filter="url(#f1a0bcu0owf79i)" height="48" id="C_0002143286684830686854" style="stroke: #A80036; stroke-width: 1.5;" width="86" x="124" y="460"/><ellipse cx="139" cy="476" fill="#ADD1B2" rx="11" ry="11" style="stroke: #A80036; stroke-width: 1.0;"/><path d="M141.9688,481.6406 Q141.3906,481.9375 140.75,482.0781 Q140.1094,482.2344 139.4063,482.2344 Q136.9063,482.2344 135.5781,480.5938 Q134.2656,478.9375 134.2656,475.8125 Q134.2656,472.6875 135.5781,471.0313 Q136.9063,469.375 139.4063,469.375 Q140.1094,469.375 140.75,469.5313 Q141.4063,469.6875 141.9688,469.9844 L141.9688,472.7031 Q141.3438,472.125 140.75,471.8594 Q140.1563,471.5781 139.5313,471.5781 Q138.1875,471.5781 137.5,472.6563 Q136.8125,473.7188 136.8125,475.8125 Q136.8125,477.9063 137.5,478.9844 Q138.1875,480.0469 139.5313,480.0469 Q140.1563,480.0469 140.75,479.7813 Q141.3438,479.5 141.9688,478.9219 L141.9688,481.6406 Z "/><text fill="#000000" font-family="sans-serif" font-size="12" lengthAdjust="spacingAndGlyphs" textLength="54" x="153" y="480.1543">package</text><line style="stroke: #A80036; stroke-width: 1.5;" x1="125" x2="209" y1="492" y2="492"/><line style="stroke: #A80036; stroke-width: 1.5;" x1="125" x2="209" y1="500" y2="500"/></a><!--MD5=[525da812764c4fe64f23950e964f77cd]
class C_0000785714713072053129--><a href="classclanguml_1_1common_1_1model_1_1source__file.html" target="_top" title="Diagram element representing some file or directory." xlink:actuate="onRequest" xlink:href="classclanguml_1_1common_1_1model_1_1source__file.html" xlink:show="new" xlink:title="Diagram element representing some file or directory." xlink:type="simple"><rect fill="#FEFECE" filter="url(#f1a0bcu0owf79i)" height="48" id="C_0000785714713072053129" style="stroke: #A80036; stroke-width: 1.5;" width="99" x="243.5" y="318"/><ellipse cx="258.5" cy="334" fill="#ADD1B2" rx="11" ry="11" style="stroke: #A80036; stroke-width: 1.0;"/><path d="M261.4688,339.6406 Q260.8906,339.9375 260.25,340.0781 Q259.6094,340.2344 258.9063,340.2344 Q256.4063,340.2344 255.0781,338.5938 Q253.7656,336.9375 253.7656,333.8125 Q253.7656,330.6875 255.0781,329.0313 Q256.4063,327.375 258.9063,327.375 Q259.6094,327.375 260.25,327.5313 Q260.9063,327.6875 261.4688,327.9844 L261.4688,330.7031 Q260.8438,330.125 260.25,329.8594 Q259.6563,329.5781 259.0313,329.5781 Q257.6875,329.5781 257,330.6563 Q256.3125,331.7188 256.3125,333.8125 Q256.3125,335.9063 257,336.9844 Q257.6875,338.0469 259.0313,338.0469 Q259.6563,338.0469 260.25,337.7813 Q260.8438,337.5 261.4688,336.9219 L261.4688,339.6406 Z "/><text fill="#000000" font-family="sans-serif" font-size="12" lengthAdjust="spacingAndGlyphs" textLength="67" x="272.5" y="338.1543">source_file</text><line style="stroke: #A80036; stroke-width: 1.5;" x1="244.5" x2="341.5" y1="350" y2="350"/><line style="stroke: #A80036; stroke-width: 1.5;" x1="244.5" x2="341.5" y1="358" y2="358"/></a><!--MD5=[b486570858fa145169115e7c774ba114]
class C_0000605866861866358037--><a href="classclanguml_1_1class__diagram_1_1model_1_1class__element.html" target="_top" title="class_element" xlink:actuate="onRequest" xlink:href="classclanguml_1_1class__diagram_1_1model_1_1class__element.html" xlink:show="new" xlink:title="class_element" xlink:type="simple"><rect fill="#FEFECE" filter="url(#f1a0bcu0owf79i)" height="48" id="C_0000605866861866358037" style="stroke: #A80036; stroke-width: 1.5;" width="121" x="1262.5" y="460"/><ellipse cx="1277.5" cy="476" fill="#ADD1B2" rx="11" ry="11" style="stroke: #A80036; stroke-width: 1.0;"/><path d="M1280.4688,481.6406 Q1279.8906,481.9375 1279.25,482.0781 Q1278.6094,482.2344 1277.9063,482.2344 Q1275.4063,482.2344 1274.0781,480.5938 Q1272.7656,478.9375 1272.7656,475.8125 Q1272.7656,472.6875 1274.0781,471.0313 Q1275.4063,469.375 1277.9063,469.375 Q1278.6094,469.375 1279.25,469.5313 Q1279.9063,469.6875 1280.4688,469.9844 L1280.4688,472.7031 Q1279.8438,472.125 1279.25,471.8594 Q1278.6563,471.5781 1278.0313,471.5781 Q1276.6875,471.5781 1276,472.6563 Q1275.3125,473.7188 1275.3125,475.8125 Q1275.3125,477.9063 1276,478.9844 Q1276.6875,480.0469 1278.0313,480.0469 Q1278.6563,480.0469 1279.25,479.7813 Q1279.8438,479.5 1280.4688,478.9219 L1280.4688,481.6406 Z "/><text fill="#000000" font-family="sans-serif" font-size="12" lengthAdjust="spacingAndGlyphs" textLength="89" x="1291.5" y="480.1543">class_element</text><line style="stroke: #A80036; stroke-width: 1.5;" x1="1263.5" x2="1382.5" y1="492" y2="492"/><line style="stroke: #A80036; stroke-width: 1.5;" x1="1263.5" x2="1382.5" y1="500" y2="500"/></a><!--MD5=[a2b7048e31aebc0ffeb4eb6e2a1be8d2]
class C_0001796282762108527255--><a href="classclanguml_1_1class__diagram_1_1model_1_1class__member.html" target="_top" title="class_member" xlink:actuate="onRequest" xlink:href="classclanguml_1_1class__diagram_1_1model_1_1class__member.html" xlink:show="new" xlink:title="class_member" xlink:type="simple"><rect fill="#FEFECE" filter="url(#f1a0bcu0owf79i)" height="48" id="C_0001796282762108527255" style="stroke: #A80036; stroke-width: 1.5;" width="121" x="1184.5" y="568"/><ellipse cx="1199.5" cy="584" fill="#ADD1B2" rx="11" ry="11" style="stroke: #A80036; stroke-width: 1.0;"/><path d="M1202.4688,589.6406 Q1201.8906,589.9375 1201.25,590.0781 Q1200.6094,590.2344 1199.9063,590.2344 Q1197.4063,590.2344 1196.0781,588.5938 Q1194.7656,586.9375 1194.7656,583.8125 Q1194.7656,580.6875 1196.0781,579.0313 Q1197.4063,577.375 1199.9063,577.375 Q1200.6094,577.375 1201.25,577.5313 Q1201.9063,577.6875 1202.4688,577.9844 L1202.4688,580.7031 Q1201.8438,580.125 1201.25,579.8594 Q1200.6563,579.5781 1200.0313,579.5781 Q1198.6875,579.5781 1198,580.6563 Q1197.3125,581.7188 1197.3125,583.8125 Q1197.3125,585.9063 1198,586.9844 Q1198.6875,588.0469 1200.0313,588.0469 Q1200.6563,588.0469 1201.25,587.7813 Q1201.8438,587.5 1202.4688,586.9219 L1202.4688,589.6406 Z "/><text fill="#000000" font-family="sans-serif" font-size="12" lengthAdjust="spacingAndGlyphs" textLength="89" x="1213.5" y="588.1543">class_member</text><line style="stroke: #A80036; stroke-width: 1.5;" x1="1185.5" x2="1304.5" y1="600" y2="600"/><line style="stroke: #A80036; stroke-width: 1.5;" x1="1185.5" x2="1304.5" y1="608" y2="608"/></a><!--MD5=[5992c67bed5fafc2309ff7d957956f6e]
class C_0000605669033368926050--><a href="classclanguml_1_1class__diagram_1_1model_1_1method__parameter.html" target="_top" title="method_parameter" xlink:actuate="onRequest" xlink:href="classclanguml_1_1class__diagram_1_1model_1_1method__parameter.html" xlink:show="new" xlink:title="method_parameter" xlink:type="simple"><rect fill="#FEFECE" filter="url(#f1a0bcu0owf79i)" height="48" id="C_0000605669033368926050" style="stroke: #A80036; stroke-width: 1.5;" width="152" x="1419" y="460"/><ellipse cx="1434" cy="476" fill="#ADD1B2" rx="11" ry="11" style="stroke: #A80036; stroke-width: 1.0;"/><path d="M1436.9688,481.6406 Q1436.3906,481.9375 1435.75,482.0781 Q1435.1094,482.2344 1434.4063,482.2344 Q1431.9063,482.2344 1430.5781,480.5938 Q1429.2656,478.9375 1429.2656,475.8125 Q1429.2656,472.6875 1430.5781,471.0313 Q1431.9063,469.375 1434.4063,469.375 Q1435.1094,469.375 1435.75,469.5313 Q1436.4063,469.6875 1436.9688,469.9844 L1436.9688,472.7031 Q1436.3438,472.125 1435.75,471.8594 Q1435.1563,471.5781 1434.5313,471.5781 Q1433.1875,471.5781 1432.5,472.6563 Q1431.8125,473.7188 1431.8125,475.8125 Q1431.8125,477.9063 1432.5,478.9844 Q1433.1875,480.0469 1434.5313,480.0469 Q1435.1563,480.0469 1435.75,479.7813 Q1436.3438,479.5 1436.9688,478.9219 L1436.9688,481.6406 Z "/><text fill="#000000" font-family="sans-serif" font-size="12" lengthAdjust="spacingAndGlyphs" textLength="120" x="1448" y="480.1543">method_parameter</text><line style="stroke: #A80036; stroke-width: 1.5;" x1="1420" x2="1570" y1="492" y2="492"/><line style="stroke: #A80036; stroke-width: 1.5;" x1="1420" x2="1570" y1="500" y2="500"/></a><!--MD5=[3fbd1476055f798f732379619b702fab]
class C_0000204145716468348671--><a href="classclanguml_1_1class__diagram_1_1model_1_1class__method.html" target="_top" title="class_method" xlink:actuate="onRequest" xlink:href="classclanguml_1_1class__diagram_1_1model_1_1class__method.html" xlink:show="new" xlink:title="class_method" xlink:type="simple"><rect fill="#FEFECE" filter="url(#f1a0bcu0owf79i)" height="48" id="C_0000204145716468348671" style="stroke: #A80036; stroke-width: 1.5;" width="118" x="1341" y="568"/><ellipse cx="1356" cy="584" fill="#ADD1B2" rx="11" ry="11" style="stroke: #A80036; stroke-width: 1.0;"/><path d="M1358.9688,589.6406 Q1358.3906,589.9375 1357.75,590.0781 Q1357.1094,590.2344 1356.4063,590.2344 Q1353.9063,590.2344 1352.5781,588.5938 Q1351.2656,586.9375 1351.2656,583.8125 Q1351.2656,580.6875 1352.5781,579.0313 Q1353.9063,577.375 1356.4063,577.375 Q1357.1094,577.375 1357.75,577.5313 Q1358.4063,577.6875 1358.9688,577.9844 L1358.9688,580.7031 Q1358.3438,580.125 1357.75,579.8594 Q1357.1563,579.5781 1356.5313,579.5781 Q1355.1875,579.5781 1354.5,580.6563 Q1353.8125,581.7188 1353.8125,583.8125 Q1353.8125,585.9063 1354.5,586.9844 Q1355.1875,588.0469 1356.5313,588.0469 Q1357.1563,588.0469 1357.75,587.7813 Q1358.3438,587.5 1358.9688,586.9219 L1358.9688,589.6406 Z "/><text fill="#000000" font-family="sans-serif" font-size="12" lengthAdjust="spacingAndGlyphs" textLength="86" x="1370" y="588.1543">class_method</text><line style="stroke: #A80036; stroke-width: 1.5;" x1="1342" x2="1458" y1="600" y2="600"/><line style="stroke: #A80036; stroke-width: 1.5;" x1="1342" x2="1458" y1="608" y2="608"/></a><!--MD5=[ae47341ca1a22ddcd7d0b4ea2daf1996]
class C_0001292034357466653182--><a href="classclanguml_1_1class__diagram_1_1model_1_1class__.html" target="_top" title="Diagram element representing a class or class template." xlink:actuate="onRequest" xlink:href="classclanguml_1_1class__diagram_1_1model_1_1class__.html" xlink:show="new" xlink:title="Diagram element representing a class or class template." xlink:type="simple"><rect fill="#FEFECE" filter="url(#f1a0bcu0owf79i)" height="48" id="C_0001292034357466653182" style="stroke: #A80036; stroke-width: 1.5;" width="70" x="1049" y="460"/><ellipse cx="1064" cy="476" fill="#ADD1B2" rx="11" ry="11" style="stroke: #A80036; stroke-width: 1.0;"/><path d="M1066.9688,481.6406 Q1066.3906,481.9375 1065.75,482.0781 Q1065.1094,482.2344 1064.4063,482.2344 Q1061.9063,482.2344 1060.5781,480.5938 Q1059.2656,478.9375 1059.2656,475.8125 Q1059.2656,472.6875 1060.5781,471.0313 Q1061.9063,469.375 1064.4063,469.375 Q1065.1094,469.375 1065.75,469.5313 Q1066.4063,469.6875 1066.9688,469.9844 L1066.9688,472.7031 Q1066.3438,472.125 1065.75,471.8594 Q1065.1563,471.5781 1064.5313,471.5781 Q1063.1875,471.5781 1062.5,472.6563 Q1061.8125,473.7188 1061.8125,475.8125 Q1061.8125,477.9063 1062.5,478.9844 Q1063.1875,480.0469 1064.5313,480.0469 Q1065.1563,480.0469 1065.75,479.7813 Q1066.3438,479.5 1066.9688,478.9219 L1066.9688,481.6406 Z "/><text fill="#000000" font-family="sans-serif" font-size="12" lengthAdjust="spacingAndGlyphs" textLength="38" x="1078" y="480.1543">class_</text><line style="stroke: #A80036; stroke-width: 1.5;" x1="1050" x2="1118" y1="492" y2="492"/><line style="stroke: #A80036; stroke-width: 1.5;" x1="1050" x2="1118" y1="500" y2="500"/></a><!--MD5=[dd3d40541e24383f89990969973b4760]
class C_0001374849051752224500--><a href="classclanguml_1_1class__diagram_1_1model_1_1concept__.html" target="_top" title="concept_" xlink:actuate="onRequest" xlink:href="classclanguml_1_1class__diagram_1_1model_1_1concept__.html" xlink:show="new" xlink:title="concept_" xlink:type="simple"><rect fill="#FEFECE" filter="url(#f1a0bcu0owf79i)" height="48" id="C_0001374849051752224500" style="stroke: #A80036; stroke-width: 1.5;" width="89" x="924.5" y="460"/><ellipse cx="939.5" cy="476" fill="#ADD1B2" rx="11" ry="11" style="stroke: #A80036; stroke-width: 1.0;"/><path d="M942.4688,481.6406 Q941.8906,481.9375 941.25,482.0781 Q940.6094,482.2344 939.9063,482.2344 Q937.4063,482.2344 936.0781,480.5938 Q934.7656,478.9375 934.7656,475.8125 Q934.7656,472.6875 936.0781,471.0313 Q937.4063,469.375 939.9063,469.375 Q940.6094,469.375 941.25,469.5313 Q941.9063,469.6875 942.4688,469.9844 L942.4688,472.7031 Q941.8438,472.125 941.25,471.8594 Q940.6563,471.5781 940.0313,471.5781 Q938.6875,471.5781 938,472.6563 Q937.3125,473.7188 937.3125,475.8125 Q937.3125,477.9063 938,478.9844 Q938.6875,480.0469 940.0313,480.0469 Q940.6563,480.0469 941.25,479.7813 Q941.8438,479.5 942.4688,478.9219 L942.4688,481.6406 Z "/><text fill="#000000" font-family="sans-serif" font-size="12" lengthAdjust="spacingAndGlyphs" textLength="57" x="953.5" y="480.1543">concept_</text><line style="stroke: #A80036; stroke-width: 1.5;" x1="925.5" x2="1012.5" y1="492" y2="492"/><line style="stroke: #A80036; stroke-width: 1.5;" x1="925.5" x2="1012.5" y1="500" y2="500"/></a><!--MD5=[ad7c1a05bec632e2a3018185b58507d2]
class C_0000724392977093650506--><a href="classclanguml_1_1class__diagram_1_1model_1_1enum__.html" target="_top" title="enum_" xlink:actuate="onRequest" xlink:href="classclanguml_1_1class__diagram_1_1model_1_1enum__.html" xlink:show="new" xlink:title="enum_" xlink:type="simple"><rect fill="#FEFECE" filter="url(#f1a0bcu0owf79i)" height="48" id="C_0000724392977093650506" style="stroke: #A80036; stroke-width: 1.5;" width="73" x="1154.5" y="460"/><ellipse cx="1169.5" cy="476" fill="#ADD1B2" rx="11" ry="11" style="stroke: #A80036; stroke-width: 1.0;"/><path d="M1172.4688,481.6406 Q1171.8906,481.9375 1171.25,482.0781 Q1170.6094,482.2344 1169.9063,482.2344 Q1167.4063,482.2344 1166.0781,480.5938 Q1164.7656,478.9375 1164.7656,475.8125 Q1164.7656,472.6875 1166.0781,471.0313 Q1167.4063,469.375 1169.9063,469.375 Q1170.6094,469.375 1171.25,469.5313 Q1171.9063,469.6875 1172.4688,469.9844 L1172.4688,472.7031 Q1171.8438,472.125 1171.25,471.8594 Q1170.6563,471.5781 1170.0313,471.5781 Q1168.6875,471.5781 1168,472.6563 Q1167.3125,473.7188 1167.3125,475.8125 Q1167.3125,477.9063 1168,478.9844 Q1168.6875,480.0469 1170.0313,480.0469 Q1170.6563,480.0469 1171.25,479.7813 Q1171.8438,479.5 1172.4688,478.9219 L1172.4688,481.6406 Z "/><text fill="#000000" font-family="sans-serif" font-size="12" lengthAdjust="spacingAndGlyphs" textLength="41" x="1183.5" y="480.1543">enum_</text><line style="stroke: #A80036; stroke-width: 1.5;" x1="1155.5" x2="1226.5" y1="492" y2="492"/><line style="stroke: #A80036; stroke-width: 1.5;" x1="1155.5" x2="1226.5" y1="500" y2="500"/></a><!--MD5=[505367997c2b7099e4ddff1763d1acb5]
class C_0001400215772842495226--><a href="structclanguml_1_1sequence__diagram_1_1model_1_1participant.html" target="_top" title="participant" xlink:actuate="onRequest" xlink:href="structclanguml_1_1sequence__diagram_1_1model_1_1participant.html" xlink:show="new" xlink:title="participant" xlink:type="simple"><rect fill="#FEFECE" filter="url(#f1a0bcu0owf79i)" height="48" id="C_0001400215772842495226" style="stroke: #A80036; stroke-width: 1.5;" width="100" x="447" y="460"/><ellipse cx="462" cy="476" fill="#ADD1B2" rx="11" ry="11" style="stroke: #A80036; stroke-width: 1.0;"/><path d="M464.9688,481.6406 Q464.3906,481.9375 463.75,482.0781 Q463.1094,482.2344 462.4063,482.2344 Q459.9063,482.2344 458.5781,480.5938 Q457.2656,478.9375 457.2656,475.8125 Q457.2656,472.6875 458.5781,471.0313 Q459.9063,469.375 462.4063,469.375 Q463.1094,469.375 463.75,469.5313 Q464.4063,469.6875 464.9688,469.9844 L464.9688,472.7031 Q464.3438,472.125 463.75,471.8594 Q463.1563,471.5781 462.5313,471.5781 Q461.1875,471.5781 460.5,472.6563 Q459.8125,473.7188 459.8125,475.8125 Q459.8125,477.9063 460.5,478.9844 Q461.1875,480.0469 462.5313,480.0469 Q463.1563,480.0469 463.75,479.7813 Q464.3438,479.5 464.9688,478.9219 L464.9688,481.6406 Z "/><text fill="#000000" font-family="sans-serif" font-size="12" lengthAdjust="spacingAndGlyphs" textLength="68" x="476" y="480.1543">participant</text><line style="stroke: #A80036; stroke-width: 1.5;" x1="448" x2="546" y1="492" y2="492"/><line style="stroke: #A80036; stroke-width: 1.5;" x1="448" x2="546" y1="500" y2="500"/></a><!--MD5=[b4d475f36669eac2ac4b1a7424da64db]
class C_0000885514871619471610--><a href="structclanguml_1_1sequence__diagram_1_1model_1_1class__.html" target="_top" title="class_" xlink:actuate="onRequest" xlink:href="structclanguml_1_1sequence__diagram_1_1model_1_1class__.html" xlink:show="new" xlink:title="class_" xlink:type="simple"><rect fill="#FEFECE" filter="url(#f1a0bcu0owf79i)" height="48" id="C_0000885514871619471610" style="stroke: #A80036; stroke-width: 1.5;" width="70" x="456" y="568"/><ellipse cx="471" cy="584" fill="#ADD1B2" rx="11" ry="11" style="stroke: #A80036; stroke-width: 1.0;"/><path d="M473.9688,589.6406 Q473.3906,589.9375 472.75,590.0781 Q472.1094,590.2344 471.4063,590.2344 Q468.9063,590.2344 467.5781,588.5938 Q466.2656,586.9375 466.2656,583.8125 Q466.2656,580.6875 467.5781,579.0313 Q468.9063,577.375 471.4063,577.375 Q472.1094,577.375 472.75,577.5313 Q473.4063,577.6875 473.9688,577.9844 L473.9688,580.7031 Q473.3438,580.125 472.75,579.8594 Q472.1563,579.5781 471.5313,579.5781 Q470.1875,579.5781 469.5,580.6563 Q468.8125,581.7188 468.8125,583.8125 Q468.8125,585.9063 469.5,586.9844 Q470.1875,588.0469 471.5313,588.0469 Q472.1563,588.0469 472.75,587.7813 Q473.3438,587.5 473.9688,586.9219 L473.9688,589.6406 Z "/><text fill="#000000" font-family="sans-serif" font-size="12" lengthAdjust="spacingAndGlyphs" textLength="38" x="485" y="588.1543">class_</text><line style="stroke: #A80036; stroke-width: 1.5;" x1="457" x2="525" y1="600" y2="600"/><line style="stroke: #A80036; stroke-width: 1.5;" x1="457" x2="525" y1="608" y2="608"/></a><!--MD5=[de5a82e666bdb24735685a0a35a357d3]
class C_0001701531547288995691--><a href="structclanguml_1_1sequence__diagram_1_1model_1_1lambda.html" target="_top" title="lambda" xlink:actuate="onRequest" xlink:href="structclanguml_1_1sequence__diagram_1_1model_1_1lambda.html" xlink:show="new" xlink:title="lambda" xlink:type="simple"><rect fill="#FEFECE" filter="url(#f1a0bcu0owf79i)" height="48" id="C_0001701531547288995691" style="stroke: #A80036; stroke-width: 1.5;" width="78" x="447" y="676"/><ellipse cx="462" cy="692" fill="#ADD1B2" rx="11" ry="11" style="stroke: #A80036; stroke-width: 1.0;"/><path d="M464.9688,697.6406 Q464.3906,697.9375 463.75,698.0781 Q463.1094,698.2344 462.4063,698.2344 Q459.9063,698.2344 458.5781,696.5938 Q457.2656,694.9375 457.2656,691.8125 Q457.2656,688.6875 458.5781,687.0313 Q459.9063,685.375 462.4063,685.375 Q463.1094,685.375 463.75,685.5313 Q464.4063,685.6875 464.9688,685.9844 L464.9688,688.7031 Q464.3438,688.125 463.75,687.8594 Q463.1563,687.5781 462.5313,687.5781 Q461.1875,687.5781 460.5,688.6563 Q459.8125,689.7188 459.8125,691.8125 Q459.8125,693.9063 460.5,694.9844 Q461.1875,696.0469 462.5313,696.0469 Q463.1563,696.0469 463.75,695.7813 Q464.3438,695.5 464.9688,694.9219 L464.9688,697.6406 Z "/><text fill="#000000" font-family="sans-serif" font-size="12" lengthAdjust="spacingAndGlyphs" textLength="46" x="476" y="696.1543">lambda</text><line style="stroke: #A80036; stroke-width: 1.5;" x1="448" x2="524" y1="708" y2="708"/><line style="stroke: #A80036; stroke-width: 1.5;" x1="448" x2="524" y1="716" y2="716"/></a><!--MD5=[fea9086604aaaceeec1cf807579b2064]
class C_0000232638456031681828--><a href="structclanguml_1_1sequence__diagram_1_1model_1_1function.html" target="_top" title="function" xlink:actuate="onRequest" xlink:href="structclanguml_1_1sequence__diagram_1_1model_1_1function.html" xlink:show="new" xlink:title="function" xlink:type="simple"><rect fill="#FEFECE" filter="url(#f1a0bcu0owf79i)" height="48" id="C_0000232638456031681828" style="stroke: #A80036; stroke-width: 1.5;" width="83" x="591.5" y="568"/><ellipse cx="606.5" cy="584" fill="#ADD1B2" rx="11" ry="11" style="stroke: #A80036; stroke-width: 1.0;"/><path d="M609.4688,589.6406 Q608.8906,589.9375 608.25,590.0781 Q607.6094,590.2344 606.9063,590.2344 Q604.4063,590.2344 603.0781,588.5938 Q601.7656,586.9375 601.7656,583.8125 Q601.7656,580.6875 603.0781,579.0313 Q604.4063,577.375 606.9063,577.375 Q607.6094,577.375 608.25,577.5313 Q608.9063,577.6875 609.4688,577.9844 L609.4688,580.7031 Q608.8438,580.125 608.25,579.8594 Q607.6563,579.5781 607.0313,579.5781 Q605.6875,579.5781 605,580.6563 Q604.3125,581.7188 604.3125,583.8125 Q604.3125,585.9063 605,586.9844 Q605.6875,588.0469 607.0313,588.0469 Q607.6563,588.0469 608.25,587.7813 Q608.8438,587.5 609.4688,586.9219 L609.4688,589.6406 Z "/><text fill="#000000" font-family="sans-serif" font-size="12" lengthAdjust="spacingAndGlyphs" textLength="51" x="620.5" y="588.1543">function</text><line style="stroke: #A80036; stroke-width: 1.5;" x1="592.5" x2="673.5" y1="600" y2="600"/><line style="stroke: #A80036; stroke-width: 1.5;" x1="592.5" x2="673.5" y1="608" y2="608"/></a><!--MD5=[78f12b5739bf72f527e2506c0e981f4b]
class C_0000817665972547784504--><a href="structclanguml_1_1sequence__diagram_1_1model_1_1method.html" target="_top" title="method" xlink:actuate="onRequest" xlink:href="structclanguml_1_1sequence__diagram_1_1model_1_1method.html" xlink:show="new" xlink:title="method" xlink:type="simple"><rect fill="#FEFECE" filter="url(#f1a0bcu0owf79i)" height="48" id="C_0000817665972547784504" style="stroke: #A80036; stroke-width: 1.5;" width="80" x="741" y="676"/><ellipse cx="756" cy="692" fill="#ADD1B2" rx="11" ry="11" style="stroke: #A80036; stroke-width: 1.0;"/><path d="M758.9688,697.6406 Q758.3906,697.9375 757.75,698.0781 Q757.1094,698.2344 756.4063,698.2344 Q753.9063,698.2344 752.5781,696.5938 Q751.2656,694.9375 751.2656,691.8125 Q751.2656,688.6875 752.5781,687.0313 Q753.9063,685.375 756.4063,685.375 Q757.1094,685.375 757.75,685.5313 Q758.4063,685.6875 758.9688,685.9844 L758.9688,688.7031 Q758.3438,688.125 757.75,687.8594 Q757.1563,687.5781 756.5313,687.5781 Q755.1875,687.5781 754.5,688.6563 Q753.8125,689.7188 753.8125,691.8125 Q753.8125,693.9063 754.5,694.9844 Q755.1875,696.0469 756.5313,696.0469 Q757.1563,696.0469 757.75,695.7813 Q758.3438,695.5 758.9688,694.9219 L758.9688,697.6406 Z "/><text fill="#000000" font-family="sans-serif" font-size="12" lengthAdjust="spacingAndGlyphs" textLength="48" x="770" y="696.1543">method</text><line style="stroke: #A80036; stroke-width: 1.5;" x1="742" x2="820" y1="708" y2="708"/><line style="stroke: #A80036; stroke-width: 1.5;" x1="742" x2="820" y1="716" y2="716"/></a><!--MD5=[32d760b788d79d5e0bfcc0697e979e7d]
class C_0002280191967493310558--><a href="structclanguml_1_1sequence__diagram_1_1model_1_1function__template.html" target="_top" title="function_template" xlink:actuate="onRequest" xlink:href="structclanguml_1_1sequence__diagram_1_1model_1_1function__template.html" xlink:show="new" xlink:title="function_template" xlink:type="simple"><rect fill="#FEFECE" filter="url(#f1a0bcu0owf79i)" height="48" id="C_0002280191967493310558" style="stroke: #A80036; stroke-width: 1.5;" width="145" x="560.5" y="676"/><ellipse cx="575.5" cy="692" fill="#ADD1B2" rx="11" ry="11" style="stroke: #A80036; stroke-width: 1.0;"/><path d="M578.4688,697.6406 Q577.8906,697.9375 577.25,698.0781 Q576.6094,698.2344 575.9063,698.2344 Q573.4063,698.2344 572.0781,696.5938 Q570.7656,694.9375 570.7656,691.8125 Q570.7656,688.6875 572.0781,687.0313 Q573.4063,685.375 575.9063,685.375 Q576.6094,685.375 577.25,685.5313 Q577.9063,685.6875 578.4688,685.9844 L578.4688,688.7031 Q577.8438,688.125 577.25,687.8594 Q576.6563,687.5781 576.0313,687.5781 Q574.6875,687.5781 574,688.6563 Q573.3125,689.7188 573.3125,691.8125 Q573.3125,693.9063 574,694.9844 Q574.6875,696.0469 576.0313,696.0469 Q576.6563,696.0469 577.25,695.7813 Q577.8438,695.5 578.4688,694.9219 L578.4688,697.6406 Z "/><text fill="#000000" font-family="sans-serif" font-size="12" lengthAdjust="spacingAndGlyphs" textLength="113" x="589.5" y="696.1543">function_template</text><line style="stroke: #A80036; stroke-width: 1.5;" x1="561.5" x2="704.5" y1="708" y2="708"/><line style="stroke: #A80036; stroke-width: 1.5;" x1="561.5" x2="704.5" y1="716" y2="716"/></a><!--MD5=[d938ea8dcef347175d1d053a93bab664]
class C_0002228653068706235818--><a href="classclanguml_1_1sequence__diagram_1_1model_1_1message.html" target="_top" title="message" xlink:actuate="onRequest" xlink:href="classclanguml_1_1sequence__diagram_1_1model_1_1message.html" xlink:show="new" xlink:title="message" xlink:type="simple"><rect fill="#FEFECE" filter="url(#f1a0bcu0owf79i)" height="48" id="C_0002228653068706235818" style="stroke: #A80036; stroke-width: 1.5;" width="89" x="582.5" y="460"/><ellipse cx="597.5" cy="476" fill="#ADD1B2" rx="11" ry="11" style="stroke: #A80036; stroke-width: 1.0;"/><path d="M600.4688,481.6406 Q599.8906,481.9375 599.25,482.0781 Q598.6094,482.2344 597.9063,482.2344 Q595.4063,482.2344 594.0781,480.5938 Q592.7656,478.9375 592.7656,475.8125 Q592.7656,472.6875 594.0781,471.0313 Q595.4063,469.375 597.9063,469.375 Q598.6094,469.375 599.25,469.5313 Q599.9063,469.6875 600.4688,469.9844 L600.4688,472.7031 Q599.8438,472.125 599.25,471.8594 Q598.6563,471.5781 598.0313,471.5781 Q596.6875,471.5781 596,472.6563 Q595.3125,473.7188 595.3125,475.8125 Q595.3125,477.9063 596,478.9844 Q596.6875,480.0469 598.0313,480.0469 Q598.6563,480.0469 599.25,479.7813 Q599.8438,479.5 600.4688,478.9219 L600.4688,481.6406 Z "/><text fill="#000000" font-family="sans-serif" font-size="12" lengthAdjust="spacingAndGlyphs" textLength="57" x="611.5" y="480.1543">message</text><line style="stroke: #A80036; stroke-width: 1.5;" x1="583.5" x2="670.5" y1="492" y2="492"/><line style="stroke: #A80036; stroke-width: 1.5;" x1="583.5" x2="670.5" y1="500" y2="500"/></a><!--MD5=[eec8df5c621e16efacc55aa1cc3fe68f]
reverse link C_0001117102382624673118 to C_0002046336758797367926--><path d="M216.84,161.51 C194.27,177.35 168.11,195.71 147.96,209.86 " fill="none" id="C_0001117102382624673118&lt;-C_0002046336758797367926" style="stroke: #A80036; stroke-width: 1.0;"/><polygon fill="none" points="212.84,155.76,233.24,150,220.89,167.22,212.84,155.76" style="stroke: #A80036; stroke-width: 1.0;"/><!--MD5=[51b77a83e925bfa56ce9003126dec6da]
reverse link C_0001117102382624673118 to C_0001073500714379115414--><path d="M268.84,170.02 C269.74,183.58 270.69,198.04 271.46,209.68 " fill="none" id="C_0001117102382624673118&lt;-C_0001073500714379115414" style="stroke: #A80036; stroke-width: 1.0;"/><polygon fill="none" points="261.85,170.42,267.52,150,275.82,169.5,261.85,170.42" style="stroke: #A80036; stroke-width: 1.0;"/><!--MD5=[4f2a77547d39d73bea822e52b2f0976b]
reverse link C_0001073500714379115414 to C_0002069520381434407937--><path d="M235.72,272.28 C220.61,287.39 203.62,304.38 190.32,317.68 " fill="none" id="C_0001073500714379115414&lt;-C_0002069520381434407937" style="stroke: #A80036; stroke-width: 1.0;"/><polygon fill="none" points="230.91,267.19,250,258,240.81,277.09,230.91,267.19" style="stroke: #A80036; stroke-width: 1.0;"/><!--MD5=[3b5b148458d09c1202603fe4c86398e5]
reverse link C_0002069520381434407937 to C_0002143286684830686854--><path d="M167,386.2 C167,410.5 167,439.88 167,459.85 " fill="none" id="C_0002069520381434407937&lt;-C_0002143286684830686854" style="stroke: #A80036; stroke-width: 1.0;"/><polygon fill="none" points="160,386.12,167,366.12,174,386.12,160,386.12" style="stroke: #A80036; stroke-width: 1.0;"/><!--MD5=[5ecb1d83165a712adbd5650cef34b86b]
reverse link C_0001073500714379115414 to C_0000785714713072053129--><path d="M281.12,278.02 C283.68,291.58 286.4,306.04 288.6,317.68 " fill="none" id="C_0001073500714379115414&lt;-C_0000785714713072053129" style="stroke: #A80036; stroke-width: 1.0;"/><polygon fill="none" points="274.17,278.95,277.34,258,287.93,276.36,274.17,278.95" style="stroke: #A80036; stroke-width: 1.0;"/><!--MD5=[0fe97a7a5a0fa9da8660a2a2ab9fd9eb]
reverse link C_0001117102382624673118 to C_0000605866861866358037--><path d="M362.79,142.7 C580.21,179.32 1099.62,274.88 1245,374 C1276.72,395.63 1299.96,434.66 1312.46,459.67 " fill="none" id="C_0001117102382624673118&lt;-C_0000605866861866358037" style="stroke: #A80036; stroke-width: 1.0;"/><polygon fill="none" points="361.6,149.59,343.03,139.39,363.91,135.79,361.6,149.59" style="stroke: #A80036; stroke-width: 1.0;"/><!--MD5=[d8e4acfe1535dd965012bd96698e8da6]
reverse link C_0000605866861866358037 to C_0001796282762108527255--><path d="M1294.17,524.18 C1283.41,538.8 1271.54,554.93 1262.16,567.68 " fill="none" id="C_0000605866861866358037&lt;-C_0001796282762108527255" style="stroke: #A80036; stroke-width: 1.0;"/><polygon fill="none" points="1288.58,519.96,1306.08,508,1299.86,528.26,1288.58,519.96" style="stroke: #A80036; stroke-width: 1.0;"/><!--MD5=[1fd672dd170cf971b3d52d9ff5204cc3]
reverse link C_0001117102382624673118 to C_0000605669033368926050--><path d="M363.35,136.61 C479.02,149.03 677.46,173.48 845,210 C1096.73,264.87 1184.51,234.32 1401,374 C1435.65,396.35 1464.68,435.17 1480.94,459.95 " fill="none" id="C_0001117102382624673118&lt;-C_0000605669033368926050" style="stroke: #A80036; stroke-width: 1.0;"/><polygon fill="none" points="362.58,143.57,343.43,134.5,364.06,129.65,362.58,143.57" style="stroke: #A80036; stroke-width: 1.0;"/><!--MD5=[319ad9cfab865c6a4b42924a2f265e34]
reverse link C_0000605866861866358037 to C_0000204145716468348671--><path d="M1351.81,524.66 C1362.34,539.15 1373.9,555.07 1383.06,567.68 " fill="none" id="C_0000605866861866358037&lt;-C_0000204145716468348671" style="stroke: #A80036; stroke-width: 1.0;"/><polygon fill="none" points="1345.8,528.3,1339.71,508,1357.13,520.07,1345.8,528.3" style="stroke: #A80036; stroke-width: 1.0;"/><!--MD5=[4018109609f1a98320137cbe86d3b254]
reverse link C_0002069520381434407937 to C_0001292034357466653182--><path d="M228.79,363.08 C357.28,369.14 1013.5,362.93 1031,374 C1060.87,392.9 1074.36,433.94 1080.11,459.92 " fill="none" id="C_0002069520381434407937&lt;-C_0001292034357466653182" style="stroke: #A80036; stroke-width: 1.0;"/><polygon fill="none" points="228,370.03,208.67,361.37,229.19,356.08,228,370.03" style="stroke: #A80036; stroke-width: 1.0;"/><!--MD5=[cf69ebad9c135069927ecc8912486131]
reverse link C_0002069520381434407937 to C_0001374849051752224500--><path d="M228.77,363.57 C340.48,371.05 807.59,363.21 837,374 C884.15,391.3 926.58,433.26 949.96,459.78 " fill="none" id="C_0002069520381434407937&lt;-C_0001374849051752224500" style="stroke: #A80036; stroke-width: 1.0;"/><polygon fill="none" points="227.78,370.5,208.67,361.35,229.32,356.58,227.78,370.5" style="stroke: #A80036; stroke-width: 1.0;"/><!--MD5=[8c22089b7714b620a371fadcc922a5ed]
reverse link C_0002069520381434407937 to C_0000724392977093650506--><path d="M228.75,363.06 C366.71,369.48 1117.04,361.49 1137,374 C1167.06,392.84 1180.92,433.89 1186.9,459.89 " fill="none" id="C_0002069520381434407937&lt;-C_0000724392977093650506" style="stroke: #A80036; stroke-width: 1.0;"/><polygon fill="none" points="228.01,370.02,208.67,361.37,229.18,356.07,228.01,370.02" style="stroke: #A80036; stroke-width: 1.0;"/><!--MD5=[62dc895dac1d0c2011f0b281560d3968]
reverse link C_0002069520381434407937 to C_0001400215772842495226--><path d="M228.54,364.6 C274.36,370.32 335.01,364.85 359,374 C406.92,392.27 451.38,433.51 476.28,459.69 " fill="none" id="C_0002069520381434407937&lt;-C_0001400215772842495226" style="stroke: #A80036; stroke-width: 1.0;"/><polygon fill="none" points="227.2,371.47,208.72,361.1,229.64,357.69,227.2,371.47" style="stroke: #A80036; stroke-width: 1.0;"/><!--MD5=[b33f1614e5f0bf4794b27e69905bc927]
reverse link C_0001400215772842495226 to C_0000885514871619471610--><path d="M494.56,528.02 C493.8,541.58 492.98,556.04 492.32,567.68 " fill="none" id="C_0001400215772842495226&lt;-C_0000885514871619471610" style="stroke: #A80036; stroke-width: 1.0;"/><polygon fill="none" points="487.58,527.57,495.7,508,501.56,528.36,487.58,527.57" style="stroke: #A80036; stroke-width: 1.0;"/><!--MD5=[2c90ee8d9e33f78746e08a7fd0729082]
reverse link C_0000885514871619471610 to C_0001701531547288995691--><path d="M488.97,636.02 C488.33,649.58 487.65,664.04 487.1,675.68 " fill="none" id="C_0000885514871619471610&lt;-C_0001701531547288995691" style="stroke: #A80036; stroke-width: 1.0;"/><polygon fill="none" points="481.98,635.65,489.92,616,495.96,636.31,481.98,635.65" style="stroke: #A80036; stroke-width: 1.0;"/><!--MD5=[cff630a429a41d6509e30ee5071e7c05]
reverse link C_0001400215772842495226 to C_0000232638456031681828--><path d="M528.95,522.97 C539.69,534.41 552.21,546.45 565,556 C573.09,562.04 582.37,567.57 591.42,572.37 " fill="none" id="C_0001400215772842495226&lt;-C_0000232638456031681828" style="stroke: #A80036; stroke-width: 1.0;"/><polygon fill="none" points="523.7,527.59,515.55,508.02,534.12,518.24,523.7,527.59" style="stroke: #A80036; stroke-width: 1.0;"/><!--MD5=[aaa21626746a78046d7a511702c30bb7]
reverse link C_0000232638456031681828 to C_0000817665972547784504--><path d="M681.51,627.75 C703.56,643.53 729.04,661.78 748.69,675.86 " fill="none" id="C_0000232638456031681828&lt;-C_0000817665972547784504" style="stroke: #A80036; stroke-width: 1.0;"/><polygon fill="none" points="677.3,633.34,665.11,616,685.45,621.96,677.3,633.34" style="stroke: #A80036; stroke-width: 1.0;"/><!--MD5=[ed3960d209e9f24c5c41aa336e94c692]
reverse link C_0000232638456031681828 to C_0002280191967493310558--><path d="M633,636.02 C633,649.58 633,664.04 633,675.68 " fill="none" id="C_0000232638456031681828&lt;-C_0002280191967493310558" style="stroke: #A80036; stroke-width: 1.0;"/><polygon fill="none" points="626,636,633,616,640,636,626,636" style="stroke: #A80036; stroke-width: 1.0;"/><!--MD5=[a67a2b87f33292a603fe6541cbf2f274]
reverse link C_0001073500714379115414 to C_0002228653068706235818--><path d="M362.24,261.5 C424.78,283.6 507.18,320.24 565,374 C590.99,398.16 609.02,435.74 618.69,459.86 " fill="none" id="C_0001073500714379115414&lt;-C_0002228653068706235818" style="stroke: #A80036; stroke-width: 1.0;"/><polygon fill="none" points="359.77,268.05,343.11,254.96,364.3,254.8,359.77,268.05" style="stroke: #A80036; stroke-width: 1.0;"/><!--MD5=[4a70e08e5783dca909713610322979f0]
@startuml
package [common] as C_0000316605034920222648 {
package [model] as C_0000083721806430512831 {
class "decorated_element" as C_0001117102382624673118
class C_0001117102382624673118 [[classclanguml_1_1common_1_1model_1_1decorated__element.html{Base class for decorated diagram elements}]] {
__
}
class "relationship" as C_0002046336758797367926
class C_0002046336758797367926 [[classclanguml_1_1common_1_1model_1_1relationship.html{Class representing any relationship other than inheritance}]] {
__
}
class "diagram_element" as C_0001073500714379115414
class C_0001073500714379115414 [[classclanguml_1_1common_1_1model_1_1diagram__element.html{Base class for standalone diagram elements.}]] {
__
}
class "element" as C_0002069520381434407937
class C_0002069520381434407937 [[classclanguml_1_1common_1_1model_1_1element.html{Base class for any element qualified by namespace.}]] {
__
}
class "package" as C_0002143286684830686854
class C_0002143286684830686854 [[classclanguml_1_1common_1_1model_1_1package.html{Diagram element representing namespace or directory package}]] {
__
}
class "source_file" as C_0000785714713072053129
class C_0000785714713072053129 [[classclanguml_1_1common_1_1model_1_1source__file.html{Diagram element representing some file or directory.}]] {
__
}
}
}
package [class_diagram] as C_0002240167036201725606 {
package [model] as C_0000897124234964432620 {
class "class_element" as C_0000605866861866358037
class C_0000605866861866358037 [[classclanguml_1_1class__diagram_1_1model_1_1class__element.html{class_element}]] {
__
}
class "class_member" as C_0001796282762108527255
class C_0001796282762108527255 [[classclanguml_1_1class__diagram_1_1model_1_1class__member.html{class_member}]] {
__
}
class "method_parameter" as C_0000605669033368926050
class C_0000605669033368926050 [[classclanguml_1_1class__diagram_1_1model_1_1method__parameter.html{method_parameter}]] {
__
}
class "class_method" as C_0000204145716468348671
class C_0000204145716468348671 [[classclanguml_1_1class__diagram_1_1model_1_1class__method.html{class_method}]] {
__
}
class "class_" as C_0001292034357466653182
class C_0001292034357466653182 [[classclanguml_1_1class__diagram_1_1model_1_1class__.html{Diagram element representing a class or class template.}]] {
__
}
class "concept_" as C_0001374849051752224500
class C_0001374849051752224500 [[classclanguml_1_1class__diagram_1_1model_1_1concept__.html{concept_}]] {
__
}
class "enum_" as C_0000724392977093650506
class C_0000724392977093650506 [[classclanguml_1_1class__diagram_1_1model_1_1enum__.html{enum_}]] {
__
}
}
}
package [sequence_diagram] as C_0001521862840957629236 {
package [model] as C_0002206969880830639264 {
class "participant" as C_0001400215772842495226
class C_0001400215772842495226 [[structclanguml_1_1sequence__diagram_1_1model_1_1participant.html{participant}]] {
__
}
class "class_" as C_0000885514871619471610
class C_0000885514871619471610 [[structclanguml_1_1sequence__diagram_1_1model_1_1class__.html{class_}]] {
__
}
class "lambda" as C_0001701531547288995691
class C_0001701531547288995691 [[structclanguml_1_1sequence__diagram_1_1model_1_1lambda.html{lambda}]] {
__
}
class "function" as C_0000232638456031681828
class C_0000232638456031681828 [[structclanguml_1_1sequence__diagram_1_1model_1_1function.html{function}]] {
__
}
class "method" as C_0000817665972547784504
class C_0000817665972547784504 [[structclanguml_1_1sequence__diagram_1_1model_1_1method.html{method}]] {
__
}
class "function_template" as C_0002280191967493310558
class C_0002280191967493310558 [[structclanguml_1_1sequence__diagram_1_1model_1_1function__template.html{function_template}]] {
__
}
class "message" as C_0002228653068706235818
class C_0002228653068706235818 [[classclanguml_1_1sequence__diagram_1_1model_1_1message.html{message}]] {
__
}
}
}
C_0001117102382624673118 <|- - C_0002046336758797367926
C_0001117102382624673118 <|- - C_0001073500714379115414
C_0001073500714379115414 <|- - C_0002069520381434407937
C_0002069520381434407937 <|- - C_0002143286684830686854
C_0001073500714379115414 <|- - C_0000785714713072053129
C_0001117102382624673118 <|- - C_0000605866861866358037
C_0000605866861866358037 <|- - C_0001796282762108527255
C_0001117102382624673118 <|- - C_0000605669033368926050
C_0000605866861866358037 <|- - C_0000204145716468348671
C_0002069520381434407937 <|- - C_0001292034357466653182
C_0002069520381434407937 <|- - C_0001374849051752224500
C_0002069520381434407937 <|- - C_0000724392977093650506
C_0002069520381434407937 <|- - C_0001400215772842495226
C_0001400215772842495226 <|- - C_0000885514871619471610
C_0000885514871619471610 <|- - C_0001701531547288995691
C_0001400215772842495226 <|- - C_0000232638456031681828
C_0000232638456031681828 <|- - C_0000817665972547784504
C_0000232638456031681828 <|- - C_0002280191967493310558
C_0001073500714379115414 <|- - C_0002228653068706235818

@enduml

PlantUML version 1.2020.02(Sun Mar 01 11:22:07 CET 2020)
(GPL source distribution)
Java Runtime: OpenJDK Runtime Environment
JVM: OpenJDK 64-Bit Server VM
Java Version: 11.0.19+7-post-Ubuntu-0ubuntu122.04.1
Operating System: Linux
Default Encoding: UTF-8
Language: en
Country: US
--></g></svg>