<svg xmlns="http://www.w3.org/2000/svg" xmlns:xlink="http://www.w3.org/1999/xlink" contentScriptType="application/ecmascript" contentStyleType="text/css" height="796px" preserveAspectRatio="none" style="width:1520px;height:796px;" version="1.1" viewBox="0 0 1520 796" width="1520px" zoomAndPan="magnify">
  <defs>
    <filter height="300%" id="fjsmtt46tfazu" width="300%" x="-1" y="-1">
      <feGaussianBlur result="blurOut" stdDeviation="2.0"/>
      <feColorMatrix in="blurOut" result="blurOut2" type="matrix" values="0 0 0 0 0 0 0 0 0 0 0 0 0 0 0 0 0 0 .4 0"/>
      <feOffset dx="4.0" dy="4.0" in="blurOut2" result="blurOut3"/>
      <feBlend in="SourceGraphic" in2="blurOut3" mode="normal"/>
    </filter>
    <style type="text/css">a:hover { text-decoration: underline; }</style>
  </defs>
  <g>
    <text fill="#000000" font-family="sans-serif" font-size="18" lengthAdjust="spacingAndGlyphs" textLength="385" x="573.5" y="16.708">Decorated diagram element class hierarchy</text>
    <polygon fill="#FFFFFF" filter="url(#fjsmtt46tfazu)" points="22,44.9531,95,44.9531,102,67.25,383,67.25,383,568.9531,22,568.9531,22,44.9531" style="stroke: #000000; stroke-width: 1.5;"/>
    <line style="stroke: #000000; stroke-width: 1.5;" x1="22" x2="102" y1="67.25" y2="67.25"/>
    <text fill="#000000" font-family="sans-serif" font-size="14" font-weight="bold" lengthAdjust="spacingAndGlyphs" textLength="67" x="26" y="59.9482">common</text>
    <polygon fill="#FFFFFF" filter="url(#fjsmtt46tfazu)" points="46,87.9531,100,87.9531,107,110.25,359,110.25,359,544.9531,46,544.9531,46,87.9531" style="stroke: #000000; stroke-width: 1.5;"/>
    <line style="stroke: #000000; stroke-width: 1.5;" x1="46" x2="107" y1="110.25" y2="110.25"/>
    <text fill="#000000" font-family="sans-serif" font-size="14" font-weight="bold" lengthAdjust="spacingAndGlyphs" textLength="48" x="50" y="102.9482">model</text>
    <polygon fill="#FFFFFF" filter="url(#fjsmtt46tfazu)" points="772,402.9531,888,402.9531,895,425.25,1498,425.25,1498,676.9531,772,676.9531,772,402.9531" style="stroke: #000000; stroke-width: 1.5;"/>
    <line style="stroke: #000000; stroke-width: 1.5;" x1="772" x2="895" y1="425.25" y2="425.25"/>
    <text fill="#000000" font-family="sans-serif" font-size="14" font-weight="bold" lengthAdjust="spacingAndGlyphs" textLength="110" x="776" y="417.9482">class_diagram</text>
    <polygon fill="#FFFFFF" filter="url(#fjsmtt46tfazu)" points="796,445.9531,850,445.9531,857,468.25,1474,468.25,1474,652.9531,796,652.9531,796,445.9531" style="stroke: #000000; stroke-width: 1.5;"/>
    <line style="stroke: #000000; stroke-width: 1.5;" x1="796" x2="857" y1="468.25" y2="468.25"/>
    <text fill="#000000" font-family="sans-serif" font-size="14" font-weight="bold" lengthAdjust="spacingAndGlyphs" textLength="48" x="800" y="460.9482">model</text>
    <polygon fill="#FFFFFF" filter="url(#fjsmtt46tfazu)" points="407,402.9531,561,402.9531,568,425.25,748,425.25,748,784.9531,407,784.9531,407,402.9531" style="stroke: #000000; stroke-width: 1.5;"/>
    <line style="stroke: #000000; stroke-width: 1.5;" x1="407" x2="568" y1="425.25" y2="425.25"/>
    <text fill="#000000" font-family="sans-serif" font-size="14" font-weight="bold" lengthAdjust="spacingAndGlyphs" textLength="148" x="411" y="417.9482">sequence_diagram</text>
    <polygon fill="#FFFFFF" filter="url(#fjsmtt46tfazu)" points="431,445.9531,485,445.9531,492,468.25,724,468.25,724,760.9531,431,760.9531,431,445.9531" style="stroke: #000000; stroke-width: 1.5;"/>
    <line style="stroke: #000000; stroke-width: 1.5;" x1="431" x2="492" y1="468.25" y2="468.25"/>
    <text fill="#000000" font-family="sans-serif" font-size="14" font-weight="bold" lengthAdjust="spacingAndGlyphs" textLength="48" x="435" y="460.9482">model</text>
    <a href="classclanguml_1_1common_1_1model_1_1decorated__element.html" target="_top" title="Base class for decorated diagram elements" xlink:actuate="onRequest" xlink:href="classclanguml_1_1common_1_1model_1_1decorated__element.html" xlink:show="new" xlink:title="Base class for decorated diagram elements" xlink:type="simple">
      <rect fill="#FEFECE" filter="url(#fjsmtt46tfazu)" height="48" id="C_0001117102382624673118" style="stroke: #A80036; stroke-width: 1.5;" width="154" x="189" y="122.9531"/>
      <ellipse cx="204" cy="138.9531" fill="#ADD1B2" rx="11" ry="11" style="stroke: #A80036; stroke-width: 1.0;"/>
      <path d="M206.9688,144.5938 Q206.3906,144.8906 205.75,145.0313 Q205.1094,145.1875 204.4063,145.1875 Q201.9063,145.1875 200.5781,143.5469 Q199.2656,141.8906 199.2656,138.7656 Q199.2656,135.6406 200.5781,133.9844 Q201.9063,132.3281 204.4063,132.3281 Q205.1094,132.3281 205.75,132.4844 Q206.4063,132.6406 206.9688,132.9375 L206.9688,135.6563 Q206.3438,135.0781 205.75,134.8125 Q205.1563,134.5313 204.5313,134.5313 Q203.1875,134.5313 202.5,135.6094 Q201.8125,136.6719 201.8125,138.7656 Q201.8125,140.8594 202.5,141.9375 Q203.1875,143 204.5313,143 Q205.1563,143 205.75,142.7344 Q206.3438,142.4531 206.9688,141.875 L206.9688,144.5938 Z "/>
      <text fill="#000000" font-family="sans-serif" font-size="12" lengthAdjust="spacingAndGlyphs" textLength="122" x="218" y="143.1074">decorated_element</text>
      <line style="stroke: #A80036; stroke-width: 1.5;" x1="190" x2="342" y1="154.9531" y2="154.9531"/>
      <line style="stroke: #A80036; stroke-width: 1.5;" x1="190" x2="342" y1="162.9531" y2="162.9531"/>
    </a>
    <a href="classclanguml_1_1common_1_1model_1_1relationship.html" target="_top" title="Class representing any relationship other than inheritance" xlink:actuate="onRequest" xlink:href="classclanguml_1_1common_1_1model_1_1relationship.html" xlink:show="new" xlink:title="Class representing any relationship other than inheritance" xlink:type="simple">
      <rect fill="#FEFECE" filter="url(#fjsmtt46tfazu)" height="48" id="C_0002046336758797367926" style="stroke: #A80036; stroke-width: 1.5;" width="106" x="62" y="230.9531"/>
      <ellipse cx="77" cy="246.9531" fill="#ADD1B2" rx="11" ry="11" style="stroke: #A80036; stroke-width: 1.0;"/>
      <path d="M79.9688,252.5938 Q79.3906,252.8906 78.75,253.0313 Q78.1094,253.1875 77.4063,253.1875 Q74.9063,253.1875 73.5781,251.5469 Q72.2656,249.8906 72.2656,246.7656 Q72.2656,243.6406 73.5781,241.9844 Q74.9063,240.3281 77.4063,240.3281 Q78.1094,240.3281 78.75,240.4844 Q79.4063,240.6406 79.9688,240.9375 L79.9688,243.6563 Q79.3438,243.0781 78.75,242.8125 Q78.1563,242.5313 77.5313,242.5313 Q76.1875,242.5313 75.5,243.6094 Q74.8125,244.6719 74.8125,246.7656 Q74.8125,248.8594 75.5,249.9375 Q76.1875,251 77.5313,251 Q78.1563,251 78.75,250.7344 Q79.3438,250.4531 79.9688,249.875 L79.9688,252.5938 Z "/>
      <text fill="#000000" font-family="sans-serif" font-size="12" lengthAdjust="spacingAndGlyphs" textLength="74" x="91" y="251.1074">relationship</text>
      <line style="stroke: #A80036; stroke-width: 1.5;" x1="63" x2="167" y1="262.9531" y2="262.9531"/>
      <line style="stroke: #A80036; stroke-width: 1.5;" x1="63" x2="167" y1="270.9531" y2="270.9531"/>
    </a>
    <a href="classclanguml_1_1common_1_1model_1_1diagram__element.html" target="_top" title="Base class for standalone diagram elements." xlink:actuate="onRequest" xlink:href="classclanguml_1_1common_1_1model_1_1diagram__element.html" xlink:show="new" xlink:title="Base class for standalone diagram elements." xlink:type="simple">
      <rect fill="#FEFECE" filter="url(#fjsmtt46tfazu)" height="48" id="C_0001073500714379115414" style="stroke: #A80036; stroke-width: 1.5;" width="140" x="203" y="230.9531"/>
      <ellipse cx="218" cy="246.9531" fill="#ADD1B2" rx="11" ry="11" style="stroke: #A80036; stroke-width: 1.0;"/>
      <path d="M220.9688,252.5938 Q220.3906,252.8906 219.75,253.0313 Q219.1094,253.1875 218.4063,253.1875 Q215.9063,253.1875 214.5781,251.5469 Q213.2656,249.8906 213.2656,246.7656 Q213.2656,243.6406 214.5781,241.9844 Q215.9063,240.3281 218.4063,240.3281 Q219.1094,240.3281 219.75,240.4844 Q220.4063,240.6406 220.9688,240.9375 L220.9688,243.6563 Q220.3438,243.0781 219.75,242.8125 Q219.1563,242.5313 218.5313,242.5313 Q217.1875,242.5313 216.5,243.6094 Q215.8125,244.6719 215.8125,246.7656 Q215.8125,248.8594 216.5,249.9375 Q217.1875,251 218.5313,251 Q219.1563,251 219.75,250.7344 Q220.3438,250.4531 220.9688,249.875 L220.9688,252.5938 Z "/>
      <text fill="#000000" font-family="sans-serif" font-size="12" lengthAdjust="spacingAndGlyphs" textLength="108" x="232" y="251.1074">diagram_element</text>
      <line style="stroke: #A80036; stroke-width: 1.5;" x1="204" x2="342" y1="262.9531" y2="262.9531"/>
      <line style="stroke: #A80036; stroke-width: 1.5;" x1="204" x2="342" y1="270.9531" y2="270.9531"/>
    </a>
    <a href="classclanguml_1_1common_1_1model_1_1element.html" target="_top" title="Base class for any element qualified by namespace." xlink:actuate="onRequest" xlink:href="classclanguml_1_1common_1_1model_1_1element.html" xlink:show="new" xlink:title="Base class for any element qualified by namespace." xlink:type="simple">
      <rect fill="#FEFECE" filter="url(#fjsmtt46tfazu)" height="48" id="C_0002069520381434407937" style="stroke: #A80036; stroke-width: 1.5;" width="83" x="125.5" y="338.9531"/>
      <ellipse cx="140.5" cy="354.9531" fill="#ADD1B2" rx="11" ry="11" style="stroke: #A80036; stroke-width: 1.0;"/>
      <path d="M143.4688,360.5938 Q142.8906,360.8906 142.25,361.0313 Q141.6094,361.1875 140.9063,361.1875 Q138.4063,361.1875 137.0781,359.5469 Q135.7656,357.8906 135.7656,354.7656 Q135.7656,351.6406 137.0781,349.9844 Q138.4063,348.3281 140.9063,348.3281 Q141.6094,348.3281 142.25,348.4844 Q142.9063,348.6406 143.4688,348.9375 L143.4688,351.6563 Q142.8438,351.0781 142.25,350.8125 Q141.6563,350.5313 141.0313,350.5313 Q139.6875,350.5313 139,351.6094 Q138.3125,352.6719 138.3125,354.7656 Q138.3125,356.8594 139,357.9375 Q139.6875,359 141.0313,359 Q141.6563,359 142.25,358.7344 Q142.8438,358.4531 143.4688,357.875 L143.4688,360.5938 Z "/>
      <text fill="#000000" font-family="sans-serif" font-size="12" lengthAdjust="spacingAndGlyphs" textLength="51" x="154.5" y="359.1074">element</text>
      <line style="stroke: #A80036; stroke-width: 1.5;" x1="126.5" x2="207.5" y1="370.9531" y2="370.9531"/>
      <line style="stroke: #A80036; stroke-width: 1.5;" x1="126.5" x2="207.5" y1="378.9531" y2="378.9531"/>
    </a>
    <a href="classclanguml_1_1common_1_1model_1_1package.html" target="_top" title="Diagram element representing namespace or directory package" xlink:actuate="onRequest" xlink:href="classclanguml_1_1common_1_1model_1_1package.html" xlink:show="new" xlink:title="Diagram element representing namespace or directory package" xlink:type="simple">
      <rect fill="#FEFECE" filter="url(#fjsmtt46tfazu)" height="48" id="C_0002143286684830686854" style="stroke: #A80036; stroke-width: 1.5;" width="86" x="124" y="480.9531"/>
      <ellipse cx="139" cy="496.9531" fill="#ADD1B2" rx="11" ry="11" style="stroke: #A80036; stroke-width: 1.0;"/>
      <path d="M141.9688,502.5938 Q141.3906,502.8906 140.75,503.0313 Q140.1094,503.1875 139.4063,503.1875 Q136.9063,503.1875 135.5781,501.5469 Q134.2656,499.8906 134.2656,496.7656 Q134.2656,493.6406 135.5781,491.9844 Q136.9063,490.3281 139.4063,490.3281 Q140.1094,490.3281 140.75,490.4844 Q141.4063,490.6406 141.9688,490.9375 L141.9688,493.6563 Q141.3438,493.0781 140.75,492.8125 Q140.1563,492.5313 139.5313,492.5313 Q138.1875,492.5313 137.5,493.6094 Q136.8125,494.6719 136.8125,496.7656 Q136.8125,498.8594 137.5,499.9375 Q138.1875,501 139.5313,501 Q140.1563,501 140.75,500.7344 Q141.3438,500.4531 141.9688,499.875 L141.9688,502.5938 Z "/>
      <text fill="#000000" font-family="sans-serif" font-size="12" lengthAdjust="spacingAndGlyphs" textLength="54" x="153" y="501.1074">package</text>
      <line style="stroke: #A80036; stroke-width: 1.5;" x1="125" x2="209" y1="512.9531" y2="512.9531"/>
      <line style="stroke: #A80036; stroke-width: 1.5;" x1="125" x2="209" y1="520.9531" y2="520.9531"/>
    </a>
    <a href="classclanguml_1_1common_1_1model_1_1source__file.html" target="_top" title="Diagram element representing some file or directory." xlink:actuate="onRequest" xlink:href="classclanguml_1_1common_1_1model_1_1source__file.html" xlink:show="new" xlink:title="Diagram element representing some file or directory." xlink:type="simple">
      <rect fill="#FEFECE" filter="url(#fjsmtt46tfazu)" height="48" id="C_0000785714713072053129" style="stroke: #A80036; stroke-width: 1.5;" width="99" x="243.5" y="338.9531"/>
      <ellipse cx="258.5" cy="354.9531" fill="#ADD1B2" rx="11" ry="11" style="stroke: #A80036; stroke-width: 1.0;"/>
      <path d="M261.4688,360.5938 Q260.8906,360.8906 260.25,361.0313 Q259.6094,361.1875 258.9063,361.1875 Q256.4063,361.1875 255.0781,359.5469 Q253.7656,357.8906 253.7656,354.7656 Q253.7656,351.6406 255.0781,349.9844 Q256.4063,348.3281 258.9063,348.3281 Q259.6094,348.3281 260.25,348.4844 Q260.9063,348.6406 261.4688,348.9375 L261.4688,351.6563 Q260.8438,351.0781 260.25,350.8125 Q259.6563,350.5313 259.0313,350.5313 Q257.6875,350.5313 257,351.6094 Q256.3125,352.6719 256.3125,354.7656 Q256.3125,356.8594 257,357.9375 Q257.6875,359 259.0313,359 Q259.6563,359 260.25,358.7344 Q260.8438,358.4531 261.4688,357.875 L261.4688,360.5938 Z "/>
      <text fill="#000000" font-family="sans-serif" font-size="12" lengthAdjust="spacingAndGlyphs" textLength="67" x="272.5" y="359.1074">source_file</text>
      <line style="stroke: #A80036; stroke-width: 1.5;" x1="244.5" x2="341.5" y1="370.9531" y2="370.9531"/>
      <line style="stroke: #A80036; stroke-width: 1.5;" x1="244.5" x2="341.5" y1="378.9531" y2="378.9531"/>
    </a>
    <a href="classclanguml_1_1class__diagram_1_1model_1_1class__element.html" target="_top" title="Base class for class elements (e.g. member or method)." xlink:actuate="onRequest" xlink:href="classclanguml_1_1class__diagram_1_1model_1_1class__element.html" xlink:show="new" xlink:title="Base class for class elements (e.g. member or method)." xlink:type="simple">
      <rect fill="#FEFECE" filter="url(#fjsmtt46tfazu)" height="48" id="C_0000605866861866358037" style="stroke: #A80036; stroke-width: 1.5;" width="121" x="1149.5" y="480.9531"/>
      <ellipse cx="1164.5" cy="496.9531" fill="#ADD1B2" rx="11" ry="11" style="stroke: #A80036; stroke-width: 1.0;"/>
      <path d="M1167.4688,502.5938 Q1166.8906,502.8906 1166.25,503.0313 Q1165.6094,503.1875 1164.9063,503.1875 Q1162.4063,503.1875 1161.0781,501.5469 Q1159.7656,499.8906 1159.7656,496.7656 Q1159.7656,493.6406 1161.0781,491.9844 Q1162.4063,490.3281 1164.9063,490.3281 Q1165.6094,490.3281 1166.25,490.4844 Q1166.9063,490.6406 1167.4688,490.9375 L1167.4688,493.6563 Q1166.8438,493.0781 1166.25,492.8125 Q1165.6563,492.5313 1165.0313,492.5313 Q1163.6875,492.5313 1163,493.6094 Q1162.3125,494.6719 1162.3125,496.7656 Q1162.3125,498.8594 1163,499.9375 Q1163.6875,501 1165.0313,501 Q1165.6563,501 1166.25,500.7344 Q1166.8438,500.4531 1167.4688,499.875 L1167.4688,502.5938 Z "/>
      <text fill="#000000" font-family="sans-serif" font-size="12" lengthAdjust="spacingAndGlyphs" textLength="89" x="1178.5" y="501.1074">class_element</text>
      <line style="stroke: #A80036; stroke-width: 1.5;" x1="1150.5" x2="1269.5" y1="512.9531" y2="512.9531"/>
      <line style="stroke: #A80036; stroke-width: 1.5;" x1="1150.5" x2="1269.5" y1="520.9531" y2="520.9531"/>
    </a>
    <a href="classclanguml_1_1class__diagram_1_1model_1_1class__member.html" target="_top" title="Class member model." xlink:actuate="onRequest" xlink:href="classclanguml_1_1class__diagram_1_1model_1_1class__member.html" xlink:show="new" xlink:title="Class member model." xlink:type="simple">
      <rect fill="#FEFECE" filter="url(#fjsmtt46tfazu)" height="48" id="C_0001796282762108527255" style="stroke: #A80036; stroke-width: 1.5;" width="121" x="1071.5" y="588.9531"/>
      <ellipse cx="1086.5" cy="604.9531" fill="#ADD1B2" rx="11" ry="11" style="stroke: #A80036; stroke-width: 1.0;"/>
      <path d="M1089.4688,610.5938 Q1088.8906,610.8906 1088.25,611.0313 Q1087.6094,611.1875 1086.9063,611.1875 Q1084.4063,611.1875 1083.0781,609.5469 Q1081.7656,607.8906 1081.7656,604.7656 Q1081.7656,601.6406 1083.0781,599.9844 Q1084.4063,598.3281 1086.9063,598.3281 Q1087.6094,598.3281 1088.25,598.4844 Q1088.9063,598.6406 1089.4688,598.9375 L1089.4688,601.6563 Q1088.8438,601.0781 1088.25,600.8125 Q1087.6563,600.5313 1087.0313,600.5313 Q1085.6875,600.5313 1085,601.6094 Q1084.3125,602.6719 1084.3125,604.7656 Q1084.3125,606.8594 1085,607.9375 Q1085.6875,609 1087.0313,609 Q1087.6563,609 1088.25,608.7344 Q1088.8438,608.4531 1089.4688,607.875 L1089.4688,610.5938 Z "/>
      <text fill="#000000" font-family="sans-serif" font-size="12" lengthAdjust="spacingAndGlyphs" textLength="89" x="1100.5" y="609.1074">class_member</text>
      <line style="stroke: #A80036; stroke-width: 1.5;" x1="1072.5" x2="1191.5" y1="620.9531" y2="620.9531"/>
      <line style="stroke: #A80036; stroke-width: 1.5;" x1="1072.5" x2="1191.5" y1="628.9531" y2="628.9531"/>
    </a>
    <a href="classclanguml_1_1class__diagram_1_1model_1_1method__parameter.html" target="_top" title="Model of a method parameter." xlink:actuate="onRequest" xlink:href="classclanguml_1_1class__diagram_1_1model_1_1method__parameter.html" xlink:show="new" xlink:title="Model of a method parameter." xlink:type="simple">
      <rect fill="#FEFECE" filter="url(#fjsmtt46tfazu)" height="48" id="C_0000605669033368926050" style="stroke: #A80036; stroke-width: 1.5;" width="152" x="1306" y="480.9531"/>
      <ellipse cx="1321" cy="496.9531" fill="#ADD1B2" rx="11" ry="11" style="stroke: #A80036; stroke-width: 1.0;"/>
      <path d="M1323.9688,502.5938 Q1323.3906,502.8906 1322.75,503.0313 Q1322.1094,503.1875 1321.4063,503.1875 Q1318.9063,503.1875 1317.5781,501.5469 Q1316.2656,499.8906 1316.2656,496.7656 Q1316.2656,493.6406 1317.5781,491.9844 Q1318.9063,490.3281 1321.4063,490.3281 Q1322.1094,490.3281 1322.75,490.4844 Q1323.4063,490.6406 1323.9688,490.9375 L1323.9688,493.6563 Q1323.3438,493.0781 1322.75,492.8125 Q1322.1563,492.5313 1321.5313,492.5313 Q1320.1875,492.5313 1319.5,493.6094 Q1318.8125,494.6719 1318.8125,496.7656 Q1318.8125,498.8594 1319.5,499.9375 Q1320.1875,501 1321.5313,501 Q1322.1563,501 1322.75,500.7344 Q1323.3438,500.4531 1323.9688,499.875 L1323.9688,502.5938 Z "/>
      <text fill="#000000" font-family="sans-serif" font-size="12" lengthAdjust="spacingAndGlyphs" textLength="120" x="1335" y="501.1074">method_parameter</text>
      <line style="stroke: #A80036; stroke-width: 1.5;" x1="1307" x2="1457" y1="512.9531" y2="512.9531"/>
      <line style="stroke: #A80036; stroke-width: 1.5;" x1="1307" x2="1457" y1="520.9531" y2="520.9531"/>
    </a>
    <a href="classclanguml_1_1class__diagram_1_1model_1_1class__method.html" target="_top" title="Class method model." xlink:actuate="onRequest" xlink:href="classclanguml_1_1class__diagram_1_1model_1_1class__method.html" xlink:show="new" xlink:title="Class method model." xlink:type="simple">
      <rect fill="#FEFECE" filter="url(#fjsmtt46tfazu)" height="48" id="C_0000204145716468348671" style="stroke: #A80036; stroke-width: 1.5;" width="118" x="1228" y="588.9531"/>
      <ellipse cx="1243" cy="604.9531" fill="#ADD1B2" rx="11" ry="11" style="stroke: #A80036; stroke-width: 1.0;"/>
      <path d="M1245.9688,610.5938 Q1245.3906,610.8906 1244.75,611.0313 Q1244.1094,611.1875 1243.4063,611.1875 Q1240.9063,611.1875 1239.5781,609.5469 Q1238.2656,607.8906 1238.2656,604.7656 Q1238.2656,601.6406 1239.5781,599.9844 Q1240.9063,598.3281 1243.4063,598.3281 Q1244.1094,598.3281 1244.75,598.4844 Q1245.4063,598.6406 1245.9688,598.9375 L1245.9688,601.6563 Q1245.3438,601.0781 1244.75,600.8125 Q1244.1563,600.5313 1243.5313,600.5313 Q1242.1875,600.5313 1241.5,601.6094 Q1240.8125,602.6719 1240.8125,604.7656 Q1240.8125,606.8594 1241.5,607.9375 Q1242.1875,609 1243.5313,609 Q1244.1563,609 1244.75,608.7344 Q1245.3438,608.4531 1245.9688,607.875 L1245.9688,610.5938 Z "/>
      <text fill="#000000" font-family="sans-serif" font-size="12" lengthAdjust="spacingAndGlyphs" textLength="86" x="1257" y="609.1074">class_method</text>
      <line style="stroke: #A80036; stroke-width: 1.5;" x1="1229" x2="1345" y1="620.9531" y2="620.9531"/>
      <line style="stroke: #A80036; stroke-width: 1.5;" x1="1229" x2="1345" y1="628.9531" y2="628.9531"/>
    </a>
    <a href="classclanguml_1_1class__diagram_1_1model_1_1class__.html" target="_top" title="Diagram element representing a class or class template." xlink:actuate="onRequest" xlink:href="classclanguml_1_1class__diagram_1_1model_1_1class__.html" xlink:show="new" xlink:title="Diagram element representing a class or class template." xlink:type="simple">
      <rect fill="#FEFECE" filter="url(#fjsmtt46tfazu)" height="48" id="C_0001292034357466653182" style="stroke: #A80036; stroke-width: 1.5;" width="70" x="936" y="480.9531"/>
      <ellipse cx="951" cy="496.9531" fill="#ADD1B2" rx="11" ry="11" style="stroke: #A80036; stroke-width: 1.0;"/>
      <path d="M953.9688,502.5938 Q953.3906,502.8906 952.75,503.0313 Q952.1094,503.1875 951.4063,503.1875 Q948.9063,503.1875 947.5781,501.5469 Q946.2656,499.8906 946.2656,496.7656 Q946.2656,493.6406 947.5781,491.9844 Q948.9063,490.3281 951.4063,490.3281 Q952.1094,490.3281 952.75,490.4844 Q953.4063,490.6406 953.9688,490.9375 L953.9688,493.6563 Q953.3438,493.0781 952.75,492.8125 Q952.1563,492.5313 951.5313,492.5313 Q950.1875,492.5313 949.5,493.6094 Q948.8125,494.6719 948.8125,496.7656 Q948.8125,498.8594 949.5,499.9375 Q950.1875,501 951.5313,501 Q952.1563,501 952.75,500.7344 Q953.3438,500.4531 953.9688,499.875 L953.9688,502.5938 Z "/>
      <text fill="#000000" font-family="sans-serif" font-size="12" lengthAdjust="spacingAndGlyphs" textLength="38" x="965" y="501.1074">class_</text>
      <line style="stroke: #A80036; stroke-width: 1.5;" x1="937" x2="1005" y1="512.9531" y2="512.9531"/>
      <line style="stroke: #A80036; stroke-width: 1.5;" x1="937" x2="1005" y1="520.9531" y2="520.9531"/>
    </a>
    <a href="classclanguml_1_1class__diagram_1_1model_1_1concept__.html" target="_top" title="Model of C++ concept." xlink:actuate="onRequest" xlink:href="classclanguml_1_1class__diagram_1_1model_1_1concept__.html" xlink:show="new" xlink:title="Model of C++ concept." xlink:type="simple">
      <rect fill="#FEFECE" filter="url(#fjsmtt46tfazu)" height="48" id="C_0001374849051752224500" style="stroke: #A80036; stroke-width: 1.5;" width="89" x="811.5" y="480.9531"/>
      <ellipse cx="826.5" cy="496.9531" fill="#ADD1B2" rx="11" ry="11" style="stroke: #A80036; stroke-width: 1.0;"/>
      <path d="M829.4688,502.5938 Q828.8906,502.8906 828.25,503.0313 Q827.6094,503.1875 826.9063,503.1875 Q824.4063,503.1875 823.0781,501.5469 Q821.7656,499.8906 821.7656,496.7656 Q821.7656,493.6406 823.0781,491.9844 Q824.4063,490.3281 826.9063,490.3281 Q827.6094,490.3281 828.25,490.4844 Q828.9063,490.6406 829.4688,490.9375 L829.4688,493.6563 Q828.8438,493.0781 828.25,492.8125 Q827.6563,492.5313 827.0313,492.5313 Q825.6875,492.5313 825,493.6094 Q824.3125,494.6719 824.3125,496.7656 Q824.3125,498.8594 825,499.9375 Q825.6875,501 827.0313,501 Q827.6563,501 828.25,500.7344 Q828.8438,500.4531 829.4688,499.875 L829.4688,502.5938 Z "/>
      <text fill="#000000" font-family="sans-serif" font-size="12" lengthAdjust="spacingAndGlyphs" textLength="57" x="840.5" y="501.1074">concept_</text>
      <line style="stroke: #A80036; stroke-width: 1.5;" x1="812.5" x2="899.5" y1="512.9531" y2="512.9531"/>
      <line style="stroke: #A80036; stroke-width: 1.5;" x1="812.5" x2="899.5" y1="520.9531" y2="520.9531"/>
    </a>
    <a href="classclanguml_1_1class__diagram_1_1model_1_1enum__.html" target="_top" title="enum_" xlink:actuate="onRequest" xlink:href="classclanguml_1_1class__diagram_1_1model_1_1enum__.html" xlink:show="new" xlink:title="enum_" xlink:type="simple">
      <rect fill="#FEFECE" filter="url(#fjsmtt46tfazu)" height="48" id="C_0000724392977093650506" style="stroke: #A80036; stroke-width: 1.5;" width="73" x="1041.5" y="480.9531"/>
      <ellipse cx="1056.5" cy="496.9531" fill="#ADD1B2" rx="11" ry="11" style="stroke: #A80036; stroke-width: 1.0;"/>
      <path d="M1059.4688,502.5938 Q1058.8906,502.8906 1058.25,503.0313 Q1057.6094,503.1875 1056.9063,503.1875 Q1054.4063,503.1875 1053.0781,501.5469 Q1051.7656,499.8906 1051.7656,496.7656 Q1051.7656,493.6406 1053.0781,491.9844 Q1054.4063,490.3281 1056.9063,490.3281 Q1057.6094,490.3281 1058.25,490.4844 Q1058.9063,490.6406 1059.4688,490.9375 L1059.4688,493.6563 Q1058.8438,493.0781 1058.25,492.8125 Q1057.6563,492.5313 1057.0313,492.5313 Q1055.6875,492.5313 1055,493.6094 Q1054.3125,494.6719 1054.3125,496.7656 Q1054.3125,498.8594 1055,499.9375 Q1055.6875,501 1057.0313,501 Q1057.6563,501 1058.25,500.7344 Q1058.8438,500.4531 1059.4688,499.875 L1059.4688,502.5938 Z "/>
      <text fill="#000000" font-family="sans-serif" font-size="12" lengthAdjust="spacingAndGlyphs" textLength="41" x="1070.5" y="501.1074">enum_</text>
      <line style="stroke: #A80036; stroke-width: 1.5;" x1="1042.5" x2="1113.5" y1="512.9531" y2="512.9531"/>
      <line style="stroke: #A80036; stroke-width: 1.5;" x1="1042.5" x2="1113.5" y1="520.9531" y2="520.9531"/>
    </a>
    <a href="structclanguml_1_1sequence__diagram_1_1model_1_1participant.html" target="_top" title="Base class for various types of sequence diagram participants" xlink:actuate="onRequest" xlink:href="structclanguml_1_1sequence__diagram_1_1model_1_1participant.html" xlink:show="new" xlink:title="Base class for various types of sequence diagram participants" xlink:type="simple">
      <rect fill="#FEFECE" filter="url(#fjsmtt46tfazu)" height="48" id="C_0001400215772842495226" style="stroke: #A80036; stroke-width: 1.5;" width="100" x="447" y="480.9531"/>
      <ellipse cx="462" cy="496.9531" fill="#ADD1B2" rx="11" ry="11" style="stroke: #A80036; stroke-width: 1.0;"/>
      <path d="M464.9688,502.5938 Q464.3906,502.8906 463.75,503.0313 Q463.1094,503.1875 462.4063,503.1875 Q459.9063,503.1875 458.5781,501.5469 Q457.2656,499.8906 457.2656,496.7656 Q457.2656,493.6406 458.5781,491.9844 Q459.9063,490.3281 462.4063,490.3281 Q463.1094,490.3281 463.75,490.4844 Q464.4063,490.6406 464.9688,490.9375 L464.9688,493.6563 Q464.3438,493.0781 463.75,492.8125 Q463.1563,492.5313 462.5313,492.5313 Q461.1875,492.5313 460.5,493.6094 Q459.8125,494.6719 459.8125,496.7656 Q459.8125,498.8594 460.5,499.9375 Q461.1875,501 462.5313,501 Q463.1563,501 463.75,500.7344 Q464.3438,500.4531 464.9688,499.875 L464.9688,502.5938 Z "/>
      <text fill="#000000" font-family="sans-serif" font-size="12" lengthAdjust="spacingAndGlyphs" textLength="68" x="476" y="501.1074">participant</text>
      <line style="stroke: #A80036; stroke-width: 1.5;" x1="448" x2="546" y1="512.9531" y2="512.9531"/>
      <line style="stroke: #A80036; stroke-width: 1.5;" x1="448" x2="546" y1="520.9531" y2="520.9531"/>
    </a>
    <a href="structclanguml_1_1sequence__diagram_1_1model_1_1class__.html" target="_top" title="Sequence diagram participant representing a class." xlink:actuate="onRequest" xlink:href="structclanguml_1_1sequence__diagram_1_1model_1_1class__.html" xlink:show="new" xlink:title="Sequence diagram participant representing a class." xlink:type="simple">
      <rect fill="#FEFECE" filter="url(#fjsmtt46tfazu)" height="48" id="C_0000885514871619471610" style="stroke: #A80036; stroke-width: 1.5;" width="70" x="454" y="588.9531"/>
      <ellipse cx="469" cy="604.9531" fill="#ADD1B2" rx="11" ry="11" style="stroke: #A80036; stroke-width: 1.0;"/>
      <path d="M471.9688,610.5938 Q471.3906,610.8906 470.75,611.0313 Q470.1094,611.1875 469.4063,611.1875 Q466.9063,611.1875 465.5781,609.5469 Q464.2656,607.8906 464.2656,604.7656 Q464.2656,601.6406 465.5781,599.9844 Q466.9063,598.3281 469.4063,598.3281 Q470.1094,598.3281 470.75,598.4844 Q471.4063,598.6406 471.9688,598.9375 L471.9688,601.6563 Q471.3438,601.0781 470.75,600.8125 Q470.1563,600.5313 469.5313,600.5313 Q468.1875,600.5313 467.5,601.6094 Q466.8125,602.6719 466.8125,604.7656 Q466.8125,606.8594 467.5,607.9375 Q468.1875,609 469.5313,609 Q470.1563,609 470.75,608.7344 Q471.3438,608.4531 471.9688,607.875 L471.9688,610.5938 Z "/>
      <text fill="#000000" font-family="sans-serif" font-size="12" lengthAdjust="spacingAndGlyphs" textLength="38" x="483" y="609.1074">class_</text>
      <line style="stroke: #A80036; stroke-width: 1.5;" x1="455" x2="523" y1="620.9531" y2="620.9531"/>
      <line style="stroke: #A80036; stroke-width: 1.5;" x1="455" x2="523" y1="628.9531" y2="628.9531"/>
    </a>
    <a href="structclanguml_1_1sequence__diagram_1_1model_1_1function.html" target="_top" title="Participant mode representing a free function." xlink:actuate="onRequest" xlink:href="structclanguml_1_1sequence__diagram_1_1model_1_1function.html" xlink:show="new" xlink:title="Participant mode representing a free function." xlink:type="simple">
      <rect fill="#FEFECE" filter="url(#fjsmtt46tfazu)" height="48" id="C_0000232638456031681828" style="stroke: #A80036; stroke-width: 1.5;" width="83" x="559.5" y="588.9531"/>
      <ellipse cx="574.5" cy="604.9531" fill="#ADD1B2" rx="11" ry="11" style="stroke: #A80036; stroke-width: 1.0;"/>
      <path d="M577.4688,610.5938 Q576.8906,610.8906 576.25,611.0313 Q575.6094,611.1875 574.9063,611.1875 Q572.4063,611.1875 571.0781,609.5469 Q569.7656,607.8906 569.7656,604.7656 Q569.7656,601.6406 571.0781,599.9844 Q572.4063,598.3281 574.9063,598.3281 Q575.6094,598.3281 576.25,598.4844 Q576.9063,598.6406 577.4688,598.9375 L577.4688,601.6563 Q576.8438,601.0781 576.25,600.8125 Q575.6563,600.5313 575.0313,600.5313 Q573.6875,600.5313 573,601.6094 Q572.3125,602.6719 572.3125,604.7656 Q572.3125,606.8594 573,607.9375 Q573.6875,609 575.0313,609 Q575.6563,609 576.25,608.7344 Q576.8438,608.4531 577.4688,607.875 L577.4688,610.5938 Z "/>
      <text fill="#000000" font-family="sans-serif" font-size="12" lengthAdjust="spacingAndGlyphs" textLength="51" x="588.5" y="609.1074">function</text>
      <line style="stroke: #A80036; stroke-width: 1.5;" x1="560.5" x2="641.5" y1="620.9531" y2="620.9531"/>
      <line style="stroke: #A80036; stroke-width: 1.5;" x1="560.5" x2="641.5" y1="628.9531" y2="628.9531"/>
    </a>
    <a href="structclanguml_1_1sequence__diagram_1_1model_1_1method.html" target="_top" title="Participant model representing a method" xlink:actuate="onRequest" xlink:href="structclanguml_1_1sequence__diagram_1_1model_1_1method.html" xlink:show="new" xlink:title="Participant model representing a method" xlink:type="simple">
      <rect fill="#FEFECE" filter="url(#fjsmtt46tfazu)" height="48" id="C_0000817665972547784504" style="stroke: #A80036; stroke-width: 1.5;" width="80" x="447" y="696.9531"/>
      <ellipse cx="462" cy="712.9531" fill="#ADD1B2" rx="11" ry="11" style="stroke: #A80036; stroke-width: 1.0;"/>
      <path d="M464.9688,718.5938 Q464.3906,718.8906 463.75,719.0313 Q463.1094,719.1875 462.4063,719.1875 Q459.9063,719.1875 458.5781,717.5469 Q457.2656,715.8906 457.2656,712.7656 Q457.2656,709.6406 458.5781,707.9844 Q459.9063,706.3281 462.4063,706.3281 Q463.1094,706.3281 463.75,706.4844 Q464.4063,706.6406 464.9688,706.9375 L464.9688,709.6563 Q464.3438,709.0781 463.75,708.8125 Q463.1563,708.5313 462.5313,708.5313 Q461.1875,708.5313 460.5,709.6094 Q459.8125,710.6719 459.8125,712.7656 Q459.8125,714.8594 460.5,715.9375 Q461.1875,717 462.5313,717 Q463.1563,717 463.75,716.7344 Q464.3438,716.4531 464.9688,715.875 L464.9688,718.5938 Z "/>
      <text fill="#000000" font-family="sans-serif" font-size="12" lengthAdjust="spacingAndGlyphs" textLength="48" x="476" y="717.1074">method</text>
      <line style="stroke: #A80036; stroke-width: 1.5;" x1="448" x2="526" y1="728.9531" y2="728.9531"/>
      <line style="stroke: #A80036; stroke-width: 1.5;" x1="448" x2="526" y1="736.9531" y2="736.9531"/>
    </a>
    <a href="structclanguml_1_1sequence__diagram_1_1model_1_1function__template.html" target="_top" title="Participant model representing a function template." xlink:actuate="onRequest" xlink:href="structclanguml_1_1sequence__diagram_1_1model_1_1function__template.html" xlink:show="new" xlink:title="Participant model representing a function template." xlink:type="simple">
      <rect fill="#FEFECE" filter="url(#fjsmtt46tfazu)" height="48" id="C_0002280191967493310558" style="stroke: #A80036; stroke-width: 1.5;" width="145" x="562.5" y="696.9531"/>
      <ellipse cx="577.5" cy="712.9531" fill="#ADD1B2" rx="11" ry="11" style="stroke: #A80036; stroke-width: 1.0;"/>
      <path d="M580.4688,718.5938 Q579.8906,718.8906 579.25,719.0313 Q578.6094,719.1875 577.9063,719.1875 Q575.4063,719.1875 574.0781,717.5469 Q572.7656,715.8906 572.7656,712.7656 Q572.7656,709.6406 574.0781,707.9844 Q575.4063,706.3281 577.9063,706.3281 Q578.6094,706.3281 579.25,706.4844 Q579.9063,706.6406 580.4688,706.9375 L580.4688,709.6563 Q579.8438,709.0781 579.25,708.8125 Q578.6563,708.5313 578.0313,708.5313 Q576.6875,708.5313 576,709.6094 Q575.3125,710.6719 575.3125,712.7656 Q575.3125,714.8594 576,715.9375 Q576.6875,717 578.0313,717 Q578.6563,717 579.25,716.7344 Q579.8438,716.4531 580.4688,715.875 L580.4688,718.5938 Z "/>
      <text fill="#000000" font-family="sans-serif" font-size="12" lengthAdjust="spacingAndGlyphs" textLength="113" x="591.5" y="717.1074">function_template</text>
      <line style="stroke: #A80036; stroke-width: 1.5;" x1="563.5" x2="706.5" y1="728.9531" y2="728.9531"/>
      <line style="stroke: #A80036; stroke-width: 1.5;" x1="563.5" x2="706.5" y1="736.9531" y2="736.9531"/>
    </a>
    <a href="classclanguml_1_1sequence__diagram_1_1model_1_1message.html" target="_top" title="Model of a sequence diagram message." xlink:actuate="onRequest" xlink:href="classclanguml_1_1sequence__diagram_1_1model_1_1message.html" xlink:show="new" xlink:title="Model of a sequence diagram message." xlink:type="simple">
      <rect fill="#FEFECE" filter="url(#fjsmtt46tfazu)" height="48" id="C_0002228653068706235818" style="stroke: #A80036; stroke-width: 1.5;" width="89" x="582.5" y="480.9531"/>
      <ellipse cx="597.5" cy="496.9531" fill="#ADD1B2" rx="11" ry="11" style="stroke: #A80036; stroke-width: 1.0;"/>
      <path d="M600.4688,502.5938 Q599.8906,502.8906 599.25,503.0313 Q598.6094,503.1875 597.9063,503.1875 Q595.4063,503.1875 594.0781,501.5469 Q592.7656,499.8906 592.7656,496.7656 Q592.7656,493.6406 594.0781,491.9844 Q595.4063,490.3281 597.9063,490.3281 Q598.6094,490.3281 599.25,490.4844 Q599.9063,490.6406 600.4688,490.9375 L600.4688,493.6563 Q599.8438,493.0781 599.25,492.8125 Q598.6563,492.5313 598.0313,492.5313 Q596.6875,492.5313 596,493.6094 Q595.3125,494.6719 595.3125,496.7656 Q595.3125,498.8594 596,499.9375 Q596.6875,501 598.0313,501 Q598.6563,501 599.25,500.7344 Q599.8438,500.4531 600.4688,499.875 L600.4688,502.5938 Z "/>
      <text fill="#000000" font-family="sans-serif" font-size="12" lengthAdjust="spacingAndGlyphs" textLength="57" x="611.5" y="501.1074">message</text>
      <line style="stroke: #A80036; stroke-width: 1.5;" x1="583.5" x2="670.5" y1="512.9531" y2="512.9531"/>
      <line style="stroke: #A80036; stroke-width: 1.5;" x1="583.5" x2="670.5" y1="520.9531" y2="520.9531"/>
    </a>
    <path d="M216.84,182.4631 C194.27,198.3031 168.11,216.6631 147.96,230.8131 " fill="none" id="C_0001117102382624673118&lt;-C_0002046336758797367926" style="stroke: #A80036; stroke-width: 1.0;"/>
    <polygon fill="none" points="212.84,176.7131,233.24,170.9531,220.89,188.1731,212.84,176.7131" style="stroke: #A80036; stroke-width: 1.0;"/>
    <path d="M268.84,190.9731 C269.74,204.5331 270.69,218.9931 271.46,230.6331 " fill="none" id="C_0001117102382624673118&lt;-C_0001073500714379115414" style="stroke: #A80036; stroke-width: 1.0;"/>
    <polygon fill="none" points="261.85,191.3731,267.52,170.9531,275.82,190.4531,261.85,191.3731" style="stroke: #A80036; stroke-width: 1.0;"/>
    <path d="M235.72,293.2331 C220.61,308.3431 203.62,325.3331 190.32,338.6331 " fill="none" id="C_0001073500714379115414&lt;-C_0002069520381434407937" style="stroke: #A80036; stroke-width: 1.0;"/>
    <polygon fill="none" points="230.91,288.1431,250,278.9531,240.81,298.0431,230.91,288.1431" style="stroke: #A80036; stroke-width: 1.0;"/>
    <path d="M167,407.1531 C167,431.4531 167,460.8331 167,480.8031 " fill="none" id="C_0002069520381434407937&lt;-C_0002143286684830686854" style="stroke: #A80036; stroke-width: 1.0;"/>
    <polygon fill="none" points="160,407.0731,167,387.0731,174,407.0731,160,407.0731" style="stroke: #A80036; stroke-width: 1.0;"/>
    <path d="M281.12,298.9731 C283.68,312.5331 286.4,326.9931 288.6,338.6331 " fill="none" id="C_0001073500714379115414&lt;-C_0000785714713072053129" style="stroke: #A80036; stroke-width: 1.0;"/>
    <polygon fill="none" points="274.17,299.9031,277.34,278.9531,287.93,297.3131,274.17,299.9031" style="stroke: #A80036; stroke-width: 1.0;"/>
    <path d="M363.35,154.8931 C533.66,171.2631 890.48,224.7931 1132,394.9531 C1163.39,417.0631 1186.72,455.9531 1199.34,480.8131 " fill="none" id="C_0001117102382624673118&lt;-C_0000605866861866358037" style="stroke: #A80036; stroke-width: 1.0;"/>
    <polygon fill="none" points="362.56,161.8431,343.28,153.0531,363.84,147.9031,362.56,161.8431" style="stroke: #A80036; stroke-width: 1.0;"/>
    <path d="M1181.17,545.1331 C1170.41,559.7531 1158.54,575.8831 1149.16,588.6331 " fill="none" id="C_0000605866861866358037&lt;-C_0001796282762108527255" style="stroke: #A80036; stroke-width: 1.0;"/>
    <polygon fill="none" points="1175.58,540.9131,1193.08,528.9531,1186.86,549.2131,1175.58,540.9131" style="stroke: #A80036; stroke-width: 1.0;"/>
    <path d="M363.22,148.3531 C556.96,153.7631 997.48,189.6031 1288,394.9531 C1321.26,418.4631 1350.27,456.2231 1366.97,480.5531 " fill="none" id="C_0001117102382624673118&lt;-C_0000605669033368926050" style="stroke: #A80036; stroke-width: 1.0;"/>
    <polygon fill="none" points="362.87,155.3431,343.04,147.8731,363.2,141.3531,362.87,155.3431" style="stroke: #A80036; stroke-width: 1.0;"/>
    <path d="M1238.81,545.6131 C1249.34,560.1031 1260.9,576.0231 1270.06,588.6331 " fill="none" id="C_0000605866861866358037&lt;-C_0000204145716468348671" style="stroke: #A80036; stroke-width: 1.0;"/>
    <polygon fill="none" points="1232.8,549.2531,1226.71,528.9531,1244.13,541.0231,1232.8,549.2531" style="stroke: #A80036; stroke-width: 1.0;"/>
    <path d="M228.66,384.0431 C345.97,389.7631 903.06,385.4831 918,394.9531 C947.86,413.8731 961.35,454.9031 967.1,480.8731 " fill="none" id="C_0002069520381434407937&lt;-C_0001292034357466653182" style="stroke: #A80036; stroke-width: 1.0;"/>
    <polygon fill="none" points="227.99,391.0131,208.67,382.3131,229.2,377.0631,227.99,391.0131" style="stroke: #A80036; stroke-width: 1.0;"/>
    <path d="M228.81,384.5331 C327.32,391.2131 700.29,386.2131 724,394.9531 C771.13,412.3231 813.56,454.2631 836.96,480.7631 " fill="none" id="C_0002069520381434407937&lt;-C_0001374849051752224500" style="stroke: #A80036; stroke-width: 1.0;"/>
    <polygon fill="none" points="227.78,391.4631,208.67,382.2831,229.33,377.5431,227.78,391.4631" style="stroke: #A80036; stroke-width: 1.0;"/>
    <path d="M228.65,384.0231 C356.13,390.0831 1006.62,384.0431 1024,394.9531 C1054.05,413.8131 1067.92,454.8631 1073.9,480.8531 " fill="none" id="C_0002069520381434407937&lt;-C_0000724392977093650506" style="stroke: #A80036; stroke-width: 1.0;"/>
    <polygon fill="none" points="228,390.9931,208.67,382.3231,229.19,377.0431,228,390.9931" style="stroke: #A80036; stroke-width: 1.0;"/>
    <path d="M228.54,385.5531 C274.36,391.2731 335.01,385.8031 359,394.9531 C406.92,413.2231 451.38,454.4631 476.28,480.6431 " fill="none" id="C_0002069520381434407937&lt;-C_0001400215772842495226" style="stroke: #A80036; stroke-width: 1.0;"/>
    <polygon fill="none" points="227.2,392.4231,208.72,382.0531,229.64,378.6431,227.2,392.4231" style="stroke: #A80036; stroke-width: 1.0;"/>
    <path d="M493.75,548.9731 C492.73,562.5331 491.64,576.9931 490.76,588.6331 " fill="none" id="C_0001400215772842495226&lt;-C_0000885514871619471610" style="stroke: #A80036; stroke-width: 1.0;"/>
    <polygon fill="none" points="486.78,548.3731,495.26,528.9531,500.74,549.4231,486.78,548.3731" style="stroke: #A80036; stroke-width: 1.0;"/>
    <path d="M532.98,544.0231 C543.25,554.7431 554.5,566.3731 565,576.9531 C568.81,580.7931 572.88,584.8231 576.87,588.7231 " fill="none" id="C_0001400215772842495226&lt;-C_0000232638456031681828" style="stroke: #A80036; stroke-width: 1.0;"/>
    <polygon fill="none" points="527.57,548.4831,518.84,529.1731,537.71,538.8331,527.57,548.4831" style="stroke: #A80036; stroke-width: 1.0;"/>
    <path d="M572.3,652.9031 C563.25,663.9031 552.78,675.4531 542,684.9531 C537.24,689.1431 531.94,693.1731 526.55,696.9131 " fill="none" id="C_0000232638456031681828&lt;-C_0000817665972547784504" style="stroke: #A80036; stroke-width: 1.0;"/>
    <polygon fill="none" points="566.95,648.3731,584.8,636.9631,577.96,657.0131,566.95,648.3731" style="stroke: #A80036; stroke-width: 1.0;"/>
    <path d="M614.49,656.0131 C618.93,669.8431 623.7,684.7131 627.52,696.6331 " fill="none" id="C_0000232638456031681828&lt;-C_0002280191967493310558" style="stroke: #A80036; stroke-width: 1.0;"/>
    <polygon fill="none" points="607.82,658.1331,608.38,636.9531,621.15,653.8631,607.82,658.1331" style="stroke: #A80036; stroke-width: 1.0;"/>
    <path d="M362.24,282.4531 C424.78,304.5531 507.18,341.1931 565,394.9531 C590.99,419.1131 609.02,456.6931 618.69,480.8131 " fill="none" id="C_0001073500714379115414&lt;-C_0002228653068706235818" style="stroke: #A80036; stroke-width: 1.0;"/>
    <polygon fill="none" points="359.77,289.0031,343.11,275.9131,364.3,275.7531,359.77,289.0031" style="stroke: #A80036; stroke-width: 1.0;"/>
  </g>
</svg>
