<svg xmlns="http://www.w3.org/2000/svg" xmlns:xlink="http://www.w3.org/1999/xlink" contentStyleType="text/css" height="535px" preserveAspectRatio="none" style="width:2980px;height:535px;background:#FFFFFF;" version="1.1" viewBox="0 0 2980 535" width="2980px" zoomAndPan="magnify">
  <title>Diagram element decorators model</title>
  <defs>
    <style type="text/css">a:hover { text-decoration: underline; }</style>
  </defs>
  <g>
    <text fill="#000000" font-family="sans-serif" font-size="14" font-weight="bold" lengthAdjust="spacing" textLength="249.227" x="1358.5867" y="24.9659">Diagram element decorators model</text>
    <a href="structclanguml_1_1decorators_1_1decorator__toks.html" target="_top" title="decorator_toks" xlink:actuate="onRequest" xlink:href="structclanguml_1_1decorators_1_1decorator__toks.html" xlink:show="new" xlink:title="decorator_toks" xlink:type="simple">
      <g id="elem_C_0004258409881394706889">
        <rect codeLine="3" fill="#F1F1F1" height="124.2717" id="C_0004258409881394706889" rx="2.5" ry="2.5" style="stroke:#181818;stroke-width:0.5;" width="250.3632" x="7" y="258.0679"/>
        <ellipse cx="78.6518" cy="274.0679" fill="#ADD1B2" rx="11" ry="11" style="stroke:#181818;stroke-width:1.0;"/>
        <path d="M81.6205,279.7085 Q81.0424,280.0054 80.4018,280.146 Q79.7611,280.3023 79.058,280.3023 Q76.558,280.3023 75.2299,278.6617 Q73.9174,277.0054 73.9174,273.8804 Q73.9174,270.7554 75.2299,269.0992 Q76.558,267.4429 79.058,267.4429 Q79.7611,267.4429 80.4018,267.5992 Q81.058,267.7554 81.6205,268.0523 L81.6205,270.771 Q80.9955,270.1929 80.4018,269.9273 Q79.808,269.646 79.183,269.646 Q77.8393,269.646 77.1518,270.7242 Q76.4643,271.7867 76.4643,273.8804 Q76.4643,275.9742 77.1518,277.0523 Q77.8393,278.1148 79.183,278.1148 Q79.808,278.1148 80.4018,277.8492 Q80.9955,277.5679 81.6205,276.9898 L81.6205,279.7085 Z " fill="#000000"/>
        <text fill="#000000" font-family="sans-serif" font-size="14" lengthAdjust="spacing" textLength="98.5596" x="99.1518" y="279.4999">decorator_toks</text>
        <line style="stroke:#181818;stroke-width:0.5;" x1="8" x2="256.3632" y1="290.0679" y2="290.0679"/>
        <line style="stroke:#181818;stroke-width:0.5;" x1="8" x2="256.3632" y1="298.0679" y2="298.0679"/>
        <a href="" target="_top" title="diagrams" xlink:actuate="onRequest" xlink:href="" xlink:show="new" xlink:title="diagrams" xlink:type="simple">
          <rect fill="#F1F1F1" height="10" style="stroke:none;stroke-width:1.0;" width="20" x="13" y="308.1019"/>
          <ellipse cx="18" cy="313.1019" fill="none" rx="3" ry="3" style="stroke:#038048;stroke-width:1.0;"/>
        </a>
        <a href="" target="_top" title="diagrams" xlink:actuate="onRequest" xlink:href="" xlink:show="new" xlink:title="diagrams" xlink:type="simple">
          <text fill="#000000" font-family="sans-serif" font-size="14" lengthAdjust="spacing" textLength="224.3632" x="27" y="317.0339">diagrams : std::vector&lt;std::string&gt;</text>
        </a>
        <a href="" target="_top" title="label" xlink:actuate="onRequest" xlink:href="" xlink:show="new" xlink:title="label" xlink:type="simple">
          <rect fill="#F1F1F1" height="10" style="stroke:none;stroke-width:1.0;" width="20" x="13" y="327.1698"/>
          <ellipse cx="18" cy="332.1698" fill="none" rx="3" ry="3" style="stroke:#038048;stroke-width:1.0;"/>
        </a>
        <a href="" target="_top" title="label" xlink:actuate="onRequest" xlink:href="" xlink:show="new" xlink:title="label" xlink:type="simple">
          <text fill="#000000" font-family="sans-serif" font-size="14" lengthAdjust="spacing" textLength="108.9056" x="27" y="336.1018">label : std::string</text>
        </a>
        <a href="" target="_top" title="param" xlink:actuate="onRequest" xlink:href="" xlink:show="new" xlink:title="param" xlink:type="simple">
          <rect fill="#F1F1F1" height="10" style="stroke:none;stroke-width:1.0;" width="20" x="13" y="346.2377"/>
          <ellipse cx="18" cy="351.2377" fill="none" rx="3" ry="3" style="stroke:#038048;stroke-width:1.0;"/>
        </a>
        <a href="" target="_top" title="param" xlink:actuate="onRequest" xlink:href="" xlink:show="new" xlink:title="param" xlink:type="simple">
          <text fill="#000000" font-family="sans-serif" font-size="14" lengthAdjust="spacing" textLength="120.5116" x="27" y="355.1697">param : std::string</text>
        </a>
        <a href="" target="_top" title="text" xlink:actuate="onRequest" xlink:href="" xlink:show="new" xlink:title="text" xlink:type="simple">
          <rect fill="#F1F1F1" height="10" style="stroke:none;stroke-width:1.0;" width="20" x="13" y="365.3056"/>
          <ellipse cx="18" cy="370.3056" fill="none" rx="3" ry="3" style="stroke:#038048;stroke-width:1.0;"/>
        </a>
        <a href="" target="_top" title="text" xlink:actuate="onRequest" xlink:href="" xlink:show="new" xlink:title="text" xlink:type="simple">
          <text fill="#000000" font-family="sans-serif" font-size="14" lengthAdjust="spacing" textLength="102.7316" x="27" y="374.2376">text : std::string</text>
        </a>
      </g>
    </a>
    <a href="structclanguml_1_1decorators_1_1decorator.html" target="_top" title="Base class for clang-uml comment tags" xlink:actuate="onRequest" xlink:href="structclanguml_1_1decorators_1_1decorator.html" xlink:show="new" xlink:title="Base class for clang-uml comment tags" xlink:type="simple">
      <g id="elem_C_0008315850039397130669">
        <rect codeLine="11" fill="#F1F1F1" height="151.3396" id="C_0008315850039397130669" rx="2.5" ry="2.5" style="stroke:#181818;stroke-width:0.5;" width="474.1523" x="1739" y="47.0679"/>
        <ellipse cx="1939.5073" cy="63.0679" fill="#ADD1B2" rx="11" ry="11" style="stroke:#181818;stroke-width:1.0;"/>
        <path d="M1942.476,68.7085 Q1941.8979,69.0054 1941.2573,69.146 Q1940.6167,69.3023 1939.9135,69.3023 Q1937.4135,69.3023 1936.0854,67.6617 Q1934.7729,66.0054 1934.7729,62.8804 Q1934.7729,59.7554 1936.0854,58.0992 Q1937.4135,56.4429 1939.9135,56.4429 Q1940.6167,56.4429 1941.2573,56.5992 Q1941.9135,56.7554 1942.476,57.0523 L1942.476,59.771 Q1941.851,59.1929 1941.2573,58.9273 Q1940.6635,58.646 1940.0385,58.646 Q1938.6948,58.646 1938.0073,59.7242 Q1937.3198,60.7867 1937.3198,62.8804 Q1937.3198,64.9742 1938.0073,66.0523 Q1938.6948,67.1148 1940.0385,67.1148 Q1940.6635,67.1148 1941.2573,66.8492 Q1941.851,66.5679 1942.476,65.9898 L1942.476,68.7085 Z " fill="#000000"/>
        <text fill="#000000" font-family="sans-serif" font-size="14" lengthAdjust="spacing" textLength="64.6378" x="1960.0073" y="68.4999">decorator</text>
        <line style="stroke:#181818;stroke-width:0.5;" x1="1740" x2="2212.1523" y1="79.0679" y2="79.0679"/>
        <a href="" target="_top" title="~decorator" xlink:actuate="onRequest" xlink:href="" xlink:show="new" xlink:title="~decorator" xlink:type="simple">
          <rect fill="#F1F1F1" height="10" style="stroke:none;stroke-width:1.0;" width="20" x="1745" y="89.1019"/>
          <ellipse cx="1750" cy="94.1019" fill="#84BE84" rx="3" ry="3" style="stroke:#038048;stroke-width:1.0;"/>
        </a>
        <a href="" target="_top" title="~decorator" xlink:actuate="onRequest" xlink:href="" xlink:show="new" xlink:title="~decorator" xlink:type="simple">
          <text fill="#000000" font-family="sans-serif" font-size="14" lengthAdjust="spacing" textLength="181.6633" x="1759" y="98.0339">~decorator() = default : void</text>
        </a>
        <line style="stroke:#181818;stroke-width:1.0;stroke-dasharray:1.0,2.0;" x1="1740" x2="2212.1523" y1="106.1358" y2="106.1358"/>
        <a href="" target="_top" title="Check if decorator applies to a specific diagram." xlink:actuate="onRequest" xlink:href="" xlink:show="new" xlink:title="Check if decorator applies to a specific diagram." xlink:type="simple">
          <rect fill="#F1F1F1" height="10" style="stroke:none;stroke-width:1.0;" width="20" x="1745" y="116.1698"/>
          <ellipse cx="1750" cy="121.1698" fill="#84BE84" rx="3" ry="3" style="stroke:#038048;stroke-width:1.0;"/>
        </a>
        <a href="" target="_top" title="Check if decorator applies to a specific diagram." xlink:actuate="onRequest" xlink:href="" xlink:show="new" xlink:title="Check if decorator applies to a specific diagram." xlink:type="simple">
          <text fill="#000000" font-family="sans-serif" font-size="14" lengthAdjust="spacing" textLength="337.4127" x="1759" y="125.1018">applies_to_diagram(const std::string &amp; name) : bool</text>
        </a>
        <a href="" target="_top" title="Create decorator of specific type based on it's string         representation." xlink:actuate="onRequest" xlink:href="" xlink:show="new" xlink:title="Create decorator of specific type based on it's string         representation." xlink:type="simple">
          <rect fill="#F1F1F1" height="10" style="stroke:none;stroke-width:1.0;" width="20" x="1745" y="135.2377"/>
          <ellipse cx="1750" cy="140.2377" fill="#84BE84" rx="3" ry="3" style="stroke:#038048;stroke-width:1.0;"/>
        </a>
        <a href="" target="_top" title="Create decorator of specific type based on it's string         representation." xlink:actuate="onRequest" xlink:href="" xlink:show="new" xlink:title="Create decorator of specific type based on it's string         representation." xlink:type="simple">
          <text fill="#000000" font-family="sans-serif" font-size="14" lengthAdjust="spacing" text-decoration="underline" textLength="388.4005" x="1759" y="144.1697">from_string(std::string_view c) : std::shared_ptr&lt;decorator&gt;</text>
        </a>
        <a href="" target="_top" title="tokenize" xlink:actuate="onRequest" xlink:href="" xlink:show="new" xlink:title="tokenize" xlink:type="simple">
          <rect fill="#F1F1F1" height="10" style="stroke:none;stroke-width:1.0;" width="20" x="1745" y="154.3056"/>
          <polygon fill="#FFFF44" points="1750,154.3056,1754,158.3056,1750,162.3056,1746,158.3056" style="stroke:#B38D22;stroke-width:1.0;"/>
        </a>
        <a href="" target="_top" title="tokenize" xlink:actuate="onRequest" xlink:href="" xlink:show="new" xlink:title="tokenize" xlink:type="simple">
          <text fill="#000000" font-family="sans-serif" font-size="14" lengthAdjust="spacing" textLength="448.1523" x="1759" y="163.2376">tokenize(const std::string &amp; label, std::string_view c) : decorator_toks</text>
        </a>
        <line style="stroke:#181818;stroke-width:0.5;" x1="1740" x2="2212.1523" y1="171.3396" y2="171.3396"/>
        <a href="" target="_top" title="diagrams" xlink:actuate="onRequest" xlink:href="" xlink:show="new" xlink:title="diagrams" xlink:type="simple">
          <rect fill="#F1F1F1" height="10" style="stroke:none;stroke-width:1.0;" width="20" x="1745" y="181.3735"/>
          <ellipse cx="1750" cy="186.3735" fill="none" rx="3" ry="3" style="stroke:#038048;stroke-width:1.0;"/>
        </a>
        <a href="" target="_top" title="diagrams" xlink:actuate="onRequest" xlink:href="" xlink:show="new" xlink:title="diagrams" xlink:type="simple">
          <text fill="#000000" font-family="sans-serif" font-size="14" lengthAdjust="spacing" textLength="224.3632" x="1759" y="190.3055">diagrams : std::vector&lt;std::string&gt;</text>
        </a>
      </g>
    </a>
    <a href="structclanguml_1_1decorators_1_1note.html" target="_top" title="Represents a note diagram element" xlink:actuate="onRequest" xlink:href="structclanguml_1_1decorators_1_1note.html" xlink:show="new" xlink:title="Represents a note diagram element" xlink:type="simple">
      <g id="elem_C_0010778179862502434199">
        <rect codeLine="21" fill="#F1F1F1" height="124.2717" id="C_0010778179862502434199" rx="2.5" ry="2.5" style="stroke:#181818;stroke-width:0.5;" width="414.4005" x="292" y="258.0679"/>
        <ellipse cx="479.9143" cy="274.0679" fill="#ADD1B2" rx="11" ry="11" style="stroke:#181818;stroke-width:1.0;"/>
        <path d="M482.8831,279.7085 Q482.3049,280.0054 481.6643,280.146 Q481.0237,280.3023 480.3206,280.3023 Q477.8206,280.3023 476.4924,278.6617 Q475.1799,277.0054 475.1799,273.8804 Q475.1799,270.7554 476.4924,269.0992 Q477.8206,267.4429 480.3206,267.4429 Q481.0237,267.4429 481.6643,267.5992 Q482.3206,267.7554 482.8831,268.0523 L482.8831,270.771 Q482.2581,270.1929 481.6643,269.9273 Q481.0706,269.646 480.4456,269.646 Q479.1018,269.646 478.4143,270.7242 Q477.7268,271.7867 477.7268,273.8804 Q477.7268,275.9742 478.4143,277.0523 Q479.1018,278.1148 480.4456,278.1148 Q481.0706,278.1148 481.6643,277.8492 Q482.2581,277.5679 482.8831,276.9898 L482.8831,279.7085 Z " fill="#000000"/>
        <text fill="#000000" font-family="sans-serif" font-size="14" lengthAdjust="spacing" textLength="30.0719" x="500.4143" y="279.4999">note</text>
        <line style="stroke:#181818;stroke-width:0.5;" x1="293" x2="705.4005" y1="290.0679" y2="290.0679"/>
        <a href="" target="_top" title="from_string" xlink:actuate="onRequest" xlink:href="" xlink:show="new" xlink:title="from_string" xlink:type="simple">
          <rect fill="#F1F1F1" height="10" style="stroke:none;stroke-width:1.0;" width="20" x="298" y="300.1019"/>
          <ellipse cx="303" cy="305.1019" fill="#84BE84" rx="3" ry="3" style="stroke:#038048;stroke-width:1.0;"/>
        </a>
        <a href="" target="_top" title="from_string" xlink:actuate="onRequest" xlink:href="" xlink:show="new" xlink:title="from_string" xlink:type="simple">
          <text fill="#000000" font-family="sans-serif" font-size="14" lengthAdjust="spacing" text-decoration="underline" textLength="388.4005" x="312" y="309.0339">from_string(std::string_view c) : std::shared_ptr&lt;decorator&gt;</text>
        </a>
        <line style="stroke:#181818;stroke-width:0.5;" x1="293" x2="705.4005" y1="317.1358" y2="317.1358"/>
        <a href="" target="_top" title="label" xlink:actuate="onRequest" xlink:href="" xlink:show="new" xlink:title="label" xlink:type="simple">
          <rect fill="#F1F1F1" height="10" style="stroke:none;stroke-width:1.0;" width="20" x="298" y="327.1698"/>
          <ellipse cx="303" cy="332.1698" fill="none" rx="3" ry="3" style="stroke:#038048;stroke-width:1.0;"/>
        </a>
        <a href="" target="_top" title="label" xlink:actuate="onRequest" xlink:href="" xlink:show="new" xlink:title="label" xlink:type="simple">
          <text fill="#000000" font-family="sans-serif" font-size="14" lengthAdjust="spacing" text-decoration="underline" textLength="148.1474" x="312" y="336.1018">label : const std::string</text>
        </a>
        <a href="" target="_top" title="position" xlink:actuate="onRequest" xlink:href="" xlink:show="new" xlink:title="position" xlink:type="simple">
          <rect fill="#F1F1F1" height="10" style="stroke:none;stroke-width:1.0;" width="20" x="298" y="346.2377"/>
          <ellipse cx="303" cy="351.2377" fill="none" rx="3" ry="3" style="stroke:#038048;stroke-width:1.0;"/>
        </a>
        <a href="" target="_top" title="position" xlink:actuate="onRequest" xlink:href="" xlink:show="new" xlink:title="position" xlink:type="simple">
          <text fill="#000000" font-family="sans-serif" font-size="14" lengthAdjust="spacing" textLength="130.5075" x="312" y="355.1697">position : std::string</text>
        </a>
        <a href="" target="_top" title="text" xlink:actuate="onRequest" xlink:href="" xlink:show="new" xlink:title="text" xlink:type="simple">
          <rect fill="#F1F1F1" height="10" style="stroke:none;stroke-width:1.0;" width="20" x="298" y="365.3056"/>
          <ellipse cx="303" cy="370.3056" fill="none" rx="3" ry="3" style="stroke:#038048;stroke-width:1.0;"/>
        </a>
        <a href="" target="_top" title="text" xlink:actuate="onRequest" xlink:href="" xlink:show="new" xlink:title="text" xlink:type="simple">
          <text fill="#000000" font-family="sans-serif" font-size="14" lengthAdjust="spacing" textLength="102.7316" x="312" y="374.2376">text : std::string</text>
        </a>
      </g>
    </a>
    <a href="structclanguml_1_1decorators_1_1skip.html" target="_top" title="Whether a decorated element should be skipped from a diagram" xlink:actuate="onRequest" xlink:href="structclanguml_1_1decorators_1_1skip.html" xlink:show="new" xlink:title="Whether a decorated element should be skipped from a diagram" xlink:type="simple">
      <g id="elem_C_0011699799578039589457">
        <rect codeLine="29" fill="#F1F1F1" height="86.1358" id="C_0011699799578039589457" rx="2.5" ry="2.5" style="stroke:#181818;stroke-width:0.5;" width="414.4005" x="741" y="277.0679"/>
        <ellipse cx="930.7483" cy="293.0679" fill="#ADD1B2" rx="11" ry="11" style="stroke:#181818;stroke-width:1.0;"/>
        <path d="M933.7171,298.7085 Q933.1389,299.0054 932.4983,299.146 Q931.8577,299.3023 931.1546,299.3023 Q928.6546,299.3023 927.3264,297.6617 Q926.0139,296.0054 926.0139,292.8804 Q926.0139,289.7554 927.3264,288.0992 Q928.6546,286.4429 931.1546,286.4429 Q931.8577,286.4429 932.4983,286.5992 Q933.1546,286.7554 933.7171,287.0523 L933.7171,289.771 Q933.0921,289.1929 932.4983,288.9273 Q931.9046,288.646 931.2796,288.646 Q929.9358,288.646 929.2483,289.7242 Q928.5608,290.7867 928.5608,292.8804 Q928.5608,294.9742 929.2483,296.0523 Q929.9358,297.1148 931.2796,297.1148 Q931.9046,297.1148 932.4983,296.8492 Q933.0921,296.5679 933.7171,295.9898 L933.7171,298.7085 Z " fill="#000000"/>
        <text fill="#000000" font-family="sans-serif" font-size="14" lengthAdjust="spacing" textLength="26.4039" x="951.2483" y="298.4999">skip</text>
        <line style="stroke:#181818;stroke-width:0.5;" x1="742" x2="1154.4005" y1="309.0679" y2="309.0679"/>
        <a href="" target="_top" title="from_string" xlink:actuate="onRequest" xlink:href="" xlink:show="new" xlink:title="from_string" xlink:type="simple">
          <rect fill="#F1F1F1" height="10" style="stroke:none;stroke-width:1.0;" width="20" x="747" y="319.1019"/>
          <ellipse cx="752" cy="324.1019" fill="#84BE84" rx="3" ry="3" style="stroke:#038048;stroke-width:1.0;"/>
        </a>
        <a href="" target="_top" title="from_string" xlink:actuate="onRequest" xlink:href="" xlink:show="new" xlink:title="from_string" xlink:type="simple">
          <text fill="#000000" font-family="sans-serif" font-size="14" lengthAdjust="spacing" text-decoration="underline" textLength="388.4005" x="761" y="328.0339">from_string(std::string_view c) : std::shared_ptr&lt;decorator&gt;</text>
        </a>
        <line style="stroke:#181818;stroke-width:0.5;" x1="742" x2="1154.4005" y1="336.1358" y2="336.1358"/>
        <a href="" target="_top" title="label" xlink:actuate="onRequest" xlink:href="" xlink:show="new" xlink:title="label" xlink:type="simple">
          <rect fill="#F1F1F1" height="10" style="stroke:none;stroke-width:1.0;" width="20" x="747" y="346.1698"/>
          <ellipse cx="752" cy="351.1698" fill="none" rx="3" ry="3" style="stroke:#038048;stroke-width:1.0;"/>
        </a>
        <a href="" target="_top" title="label" xlink:actuate="onRequest" xlink:href="" xlink:show="new" xlink:title="label" xlink:type="simple">
          <text fill="#000000" font-family="sans-serif" font-size="14" lengthAdjust="spacing" text-decoration="underline" textLength="148.1474" x="761" y="355.1018">label : const std::string</text>
        </a>
      </g>
    </a>
    <a href="structclanguml_1_1decorators_1_1skip__relationship.html" target="_top" title="Whether a decorated relationships should be skipped from a diagram" xlink:actuate="onRequest" xlink:href="structclanguml_1_1decorators_1_1skip__relationship.html" xlink:show="new" xlink:title="Whether a decorated relationships should be skipped from a diagram" xlink:type="simple">
      <g id="elem_C_0005483423442928590005">
        <rect codeLine="35" fill="#F1F1F1" height="86.1358" id="C_0005483423442928590005" rx="2.5" ry="2.5" style="stroke:#181818;stroke-width:0.5;" width="414.4005" x="1190" y="277.0679"/>
        <ellipse cx="1337.3845" cy="293.0679" fill="#ADD1B2" rx="11" ry="11" style="stroke:#181818;stroke-width:1.0;"/>
        <path d="M1340.3532,298.7085 Q1339.7751,299.0054 1339.1345,299.146 Q1338.4938,299.3023 1337.7907,299.3023 Q1335.2907,299.3023 1333.9626,297.6617 Q1332.6501,296.0054 1332.6501,292.8804 Q1332.6501,289.7554 1333.9626,288.0992 Q1335.2907,286.4429 1337.7907,286.4429 Q1338.4938,286.4429 1339.1345,286.5992 Q1339.7907,286.7554 1340.3532,287.0523 L1340.3532,289.771 Q1339.7282,289.1929 1339.1345,288.9273 Q1338.5407,288.646 1337.9157,288.646 Q1336.572,288.646 1335.8845,289.7242 Q1335.197,290.7867 1335.197,292.8804 Q1335.197,294.9742 1335.8845,296.0523 Q1336.572,297.1148 1337.9157,297.1148 Q1338.5407,297.1148 1339.1345,296.8492 Q1339.7282,296.5679 1340.3532,295.9898 L1340.3532,298.7085 Z " fill="#000000"/>
        <text fill="#000000" font-family="sans-serif" font-size="14" lengthAdjust="spacing" textLength="111.1316" x="1357.8845" y="298.4999">skip_relationship</text>
        <line style="stroke:#181818;stroke-width:0.5;" x1="1191" x2="1603.4005" y1="309.0679" y2="309.0679"/>
        <a href="" target="_top" title="from_string" xlink:actuate="onRequest" xlink:href="" xlink:show="new" xlink:title="from_string" xlink:type="simple">
          <rect fill="#F1F1F1" height="10" style="stroke:none;stroke-width:1.0;" width="20" x="1196" y="319.1019"/>
          <ellipse cx="1201" cy="324.1019" fill="#84BE84" rx="3" ry="3" style="stroke:#038048;stroke-width:1.0;"/>
        </a>
        <a href="" target="_top" title="from_string" xlink:actuate="onRequest" xlink:href="" xlink:show="new" xlink:title="from_string" xlink:type="simple">
          <text fill="#000000" font-family="sans-serif" font-size="14" lengthAdjust="spacing" text-decoration="underline" textLength="388.4005" x="1210" y="328.0339">from_string(std::string_view c) : std::shared_ptr&lt;decorator&gt;</text>
        </a>
        <line style="stroke:#181818;stroke-width:0.5;" x1="1191" x2="1603.4005" y1="336.1358" y2="336.1358"/>
        <a href="" target="_top" title="label" xlink:actuate="onRequest" xlink:href="" xlink:show="new" xlink:title="label" xlink:type="simple">
          <rect fill="#F1F1F1" height="10" style="stroke:none;stroke-width:1.0;" width="20" x="1196" y="346.1698"/>
          <ellipse cx="1201" cy="351.1698" fill="none" rx="3" ry="3" style="stroke:#038048;stroke-width:1.0;"/>
        </a>
        <a href="" target="_top" title="label" xlink:actuate="onRequest" xlink:href="" xlink:show="new" xlink:title="label" xlink:type="simple">
          <text fill="#000000" font-family="sans-serif" font-size="14" lengthAdjust="spacing" text-decoration="underline" textLength="148.1474" x="1210" y="355.1018">label : const std::string</text>
        </a>
      </g>
    </a>
    <a href="structclanguml_1_1decorators_1_1style.html" target="_top" title="Apply specific style to a decorated diagram element" xlink:actuate="onRequest" xlink:href="structclanguml_1_1decorators_1_1style.html" xlink:show="new" xlink:title="Apply specific style to a decorated diagram element" xlink:type="simple">
      <g id="elem_C_0000930157982943964440">
        <rect codeLine="41" fill="#F1F1F1" height="105.2038" id="C_0000930157982943964440" rx="2.5" ry="2.5" style="stroke:#181818;stroke-width:0.5;" width="414.4005" x="1639" y="267.5679"/>
        <ellipse cx="1826.7463" cy="283.5679" fill="#ADD1B2" rx="11" ry="11" style="stroke:#181818;stroke-width:1.0;"/>
        <path d="M1829.7151,289.2085 Q1829.1369,289.5054 1828.4963,289.646 Q1827.8557,289.8023 1827.1526,289.8023 Q1824.6526,289.8023 1823.3244,288.1617 Q1822.0119,286.5054 1822.0119,283.3804 Q1822.0119,280.2554 1823.3244,278.5992 Q1824.6526,276.9429 1827.1526,276.9429 Q1827.8557,276.9429 1828.4963,277.0992 Q1829.1526,277.2554 1829.7151,277.5523 L1829.7151,280.271 Q1829.0901,279.6929 1828.4963,279.4273 Q1827.9026,279.146 1827.2776,279.146 Q1825.9338,279.146 1825.2463,280.2242 Q1824.5588,281.2867 1824.5588,283.3804 Q1824.5588,285.4742 1825.2463,286.5523 Q1825.9338,287.6148 1827.2776,287.6148 Q1827.9026,287.6148 1828.4963,287.3492 Q1829.0901,287.0679 1829.7151,286.4898 L1829.7151,289.2085 Z " fill="#000000"/>
        <text fill="#000000" font-family="sans-serif" font-size="14" lengthAdjust="spacing" textLength="30.4079" x="1847.2463" y="288.9999">style</text>
        <line style="stroke:#181818;stroke-width:0.5;" x1="1640" x2="2052.4005" y1="299.5679" y2="299.5679"/>
        <a href="" target="_top" title="from_string" xlink:actuate="onRequest" xlink:href="" xlink:show="new" xlink:title="from_string" xlink:type="simple">
          <rect fill="#F1F1F1" height="10" style="stroke:none;stroke-width:1.0;" width="20" x="1645" y="309.6019"/>
          <ellipse cx="1650" cy="314.6019" fill="#84BE84" rx="3" ry="3" style="stroke:#038048;stroke-width:1.0;"/>
        </a>
        <a href="" target="_top" title="from_string" xlink:actuate="onRequest" xlink:href="" xlink:show="new" xlink:title="from_string" xlink:type="simple">
          <text fill="#000000" font-family="sans-serif" font-size="14" lengthAdjust="spacing" text-decoration="underline" textLength="388.4005" x="1659" y="318.5339">from_string(std::string_view c) : std::shared_ptr&lt;decorator&gt;</text>
        </a>
        <line style="stroke:#181818;stroke-width:0.5;" x1="1640" x2="2052.4005" y1="326.6358" y2="326.6358"/>
        <a href="" target="_top" title="label" xlink:actuate="onRequest" xlink:href="" xlink:show="new" xlink:title="label" xlink:type="simple">
          <rect fill="#F1F1F1" height="10" style="stroke:none;stroke-width:1.0;" width="20" x="1645" y="336.6698"/>
          <ellipse cx="1650" cy="341.6698" fill="none" rx="3" ry="3" style="stroke:#038048;stroke-width:1.0;"/>
        </a>
        <a href="" target="_top" title="label" xlink:actuate="onRequest" xlink:href="" xlink:show="new" xlink:title="label" xlink:type="simple">
          <text fill="#000000" font-family="sans-serif" font-size="14" lengthAdjust="spacing" text-decoration="underline" textLength="148.1474" x="1659" y="345.6018">label : const std::string</text>
        </a>
        <a href="" target="_top" title="spec" xlink:actuate="onRequest" xlink:href="" xlink:show="new" xlink:title="spec" xlink:type="simple">
          <rect fill="#F1F1F1" height="10" style="stroke:none;stroke-width:1.0;" width="20" x="1645" y="355.7377"/>
          <ellipse cx="1650" cy="360.7377" fill="none" rx="3" ry="3" style="stroke:#038048;stroke-width:1.0;"/>
        </a>
        <a href="" target="_top" title="spec" xlink:actuate="onRequest" xlink:href="" xlink:show="new" xlink:title="spec" xlink:type="simple">
          <text fill="#000000" font-family="sans-serif" font-size="14" lengthAdjust="spacing" textLength="107.2536" x="1659" y="364.6697">spec : std::string</text>
        </a>
      </g>
    </a>
    <a href="structclanguml_1_1decorators_1_1relationship.html" target="_top" title="Base class for decorators overriding default relationship types" xlink:actuate="onRequest" xlink:href="structclanguml_1_1decorators_1_1relationship.html" xlink:show="new" xlink:title="Base class for decorators overriding default relationship types" xlink:type="simple">
      <g id="elem_C_0012610210265153062981">
        <rect codeLine="48" fill="#F1F1F1" height="67.0679" id="C_0012610210265153062981" rx="2.5" ry="2.5" style="stroke:#181818;stroke-width:0.5;" width="175.7014" x="2159" y="286.5679"/>
        <ellipse cx="2203.3449" cy="302.5679" fill="#ADD1B2" rx="11" ry="11" style="stroke:#181818;stroke-width:1.0;"/>
        <path d="M2206.3136,308.2085 Q2205.7355,308.5054 2205.0949,308.646 Q2204.4542,308.8023 2203.7511,308.8023 Q2201.2511,308.8023 2199.923,307.1617 Q2198.6105,305.5054 2198.6105,302.3804 Q2198.6105,299.2554 2199.923,297.5992 Q2201.2511,295.9429 2203.7511,295.9429 Q2204.4542,295.9429 2205.0949,296.0992 Q2205.7511,296.2554 2206.3136,296.5523 L2206.3136,299.271 Q2205.6886,298.6929 2205.0949,298.4273 Q2204.5011,298.146 2203.8761,298.146 Q2202.5324,298.146 2201.8449,299.2242 Q2201.1574,300.2867 2201.1574,302.3804 Q2201.1574,304.4742 2201.8449,305.5523 Q2202.5324,306.6148 2203.8761,306.6148 Q2204.5011,306.6148 2205.0949,306.3492 Q2205.6886,306.0679 2206.3136,305.4898 L2206.3136,308.2085 Z " fill="#000000"/>
        <text fill="#000000" font-family="sans-serif" font-size="14" lengthAdjust="spacing" textLength="78.5117" x="2223.8449" y="307.9999">relationship</text>
        <line style="stroke:#181818;stroke-width:0.5;" x1="2160" x2="2333.7014" y1="318.5679" y2="318.5679"/>
        <line style="stroke:#181818;stroke-width:0.5;" x1="2160" x2="2333.7014" y1="326.5679" y2="326.5679"/>
        <a href="" target="_top" title="multiplicity" xlink:actuate="onRequest" xlink:href="" xlink:show="new" xlink:title="multiplicity" xlink:type="simple">
          <rect fill="#F1F1F1" height="10" style="stroke:none;stroke-width:1.0;" width="20" x="2165" y="336.6019"/>
          <ellipse cx="2170" cy="341.6019" fill="none" rx="3" ry="3" style="stroke:#038048;stroke-width:1.0;"/>
        </a>
        <a href="" target="_top" title="multiplicity" xlink:actuate="onRequest" xlink:href="" xlink:show="new" xlink:title="multiplicity" xlink:type="simple">
          <text fill="#000000" font-family="sans-serif" font-size="14" lengthAdjust="spacing" textLength="149.7014" x="2179" y="345.5339">multiplicity : std::string</text>
        </a>
      </g>
    </a>
    <a href="structclanguml_1_1decorators_1_1aggregation.html" target="_top" title="Make a member an aggregation relationship" xlink:actuate="onRequest" xlink:href="structclanguml_1_1decorators_1_1aggregation.html" xlink:show="new" xlink:title="Make a member an aggregation relationship" xlink:type="simple">
      <g id="elem_C_0001407839604537107907">
        <rect codeLine="53" fill="#F1F1F1" height="86.1358" id="C_0001407839604537107907" rx="2.5" ry="2.5" style="stroke:#181818;stroke-width:0.5;" width="414.4005" x="1661" y="442.0679"/>
        <ellipse cx="1823.4484" cy="458.0679" fill="#ADD1B2" rx="11" ry="11" style="stroke:#181818;stroke-width:1.0;"/>
        <path d="M1826.4172,463.7085 Q1825.839,464.0054 1825.1984,464.146 Q1824.5578,464.3023 1823.8547,464.3023 Q1821.3547,464.3023 1820.0265,462.6617 Q1818.714,461.0054 1818.714,457.8804 Q1818.714,454.7554 1820.0265,453.0992 Q1821.3547,451.4429 1823.8547,451.4429 Q1824.5578,451.4429 1825.1984,451.5992 Q1825.8547,451.7554 1826.4172,452.0523 L1826.4172,454.771 Q1825.7922,454.1929 1825.1984,453.9273 Q1824.6047,453.646 1823.9797,453.646 Q1822.6359,453.646 1821.9484,454.7242 Q1821.2609,455.7867 1821.2609,457.8804 Q1821.2609,459.9742 1821.9484,461.0523 Q1822.6359,462.1148 1823.9797,462.1148 Q1824.6047,462.1148 1825.1984,461.8492 Q1825.7922,461.5679 1826.4172,460.9898 L1826.4172,463.7085 Z " fill="#000000"/>
        <text fill="#000000" font-family="sans-serif" font-size="14" lengthAdjust="spacing" textLength="81.0037" x="1843.9484" y="463.4999">aggregation</text>
        <line style="stroke:#181818;stroke-width:0.5;" x1="1662" x2="2074.4005" y1="474.0679" y2="474.0679"/>
        <a href="" target="_top" title="from_string" xlink:actuate="onRequest" xlink:href="" xlink:show="new" xlink:title="from_string" xlink:type="simple">
          <rect fill="#F1F1F1" height="10" style="stroke:none;stroke-width:1.0;" width="20" x="1667" y="484.1019"/>
          <ellipse cx="1672" cy="489.1019" fill="#84BE84" rx="3" ry="3" style="stroke:#038048;stroke-width:1.0;"/>
        </a>
        <a href="" target="_top" title="from_string" xlink:actuate="onRequest" xlink:href="" xlink:show="new" xlink:title="from_string" xlink:type="simple">
          <text fill="#000000" font-family="sans-serif" font-size="14" lengthAdjust="spacing" text-decoration="underline" textLength="388.4005" x="1681" y="493.0339">from_string(std::string_view c) : std::shared_ptr&lt;decorator&gt;</text>
        </a>
        <line style="stroke:#181818;stroke-width:0.5;" x1="1662" x2="2074.4005" y1="501.1358" y2="501.1358"/>
        <a href="" target="_top" title="label" xlink:actuate="onRequest" xlink:href="" xlink:show="new" xlink:title="label" xlink:type="simple">
          <rect fill="#F1F1F1" height="10" style="stroke:none;stroke-width:1.0;" width="20" x="1667" y="511.1698"/>
          <ellipse cx="1672" cy="516.1698" fill="none" rx="3" ry="3" style="stroke:#038048;stroke-width:1.0;"/>
        </a>
        <a href="" target="_top" title="label" xlink:actuate="onRequest" xlink:href="" xlink:show="new" xlink:title="label" xlink:type="simple">
          <text fill="#000000" font-family="sans-serif" font-size="14" lengthAdjust="spacing" text-decoration="underline" textLength="148.1474" x="1681" y="520.1018">label : const std::string</text>
        </a>
      </g>
    </a>
    <a href="structclanguml_1_1decorators_1_1composition.html" target="_top" title="Make a member a composition relationship" xlink:actuate="onRequest" xlink:href="structclanguml_1_1decorators_1_1composition.html" xlink:show="new" xlink:title="Make a member a composition relationship" xlink:type="simple">
      <g id="elem_C_0008231288131936536429">
        <rect codeLine="59" fill="#F1F1F1" height="86.1358" id="C_0008231288131936536429" rx="2.5" ry="2.5" style="stroke:#181818;stroke-width:0.5;" width="414.4005" x="2110" y="442.0679"/>
        <ellipse cx="2272.2174" cy="458.0679" fill="#ADD1B2" rx="11" ry="11" style="stroke:#181818;stroke-width:1.0;"/>
        <path d="M2275.1862,463.7085 Q2274.608,464.0054 2273.9674,464.146 Q2273.3268,464.3023 2272.6237,464.3023 Q2270.1237,464.3023 2268.7955,462.6617 Q2267.483,461.0054 2267.483,457.8804 Q2267.483,454.7554 2268.7955,453.0992 Q2270.1237,451.4429 2272.6237,451.4429 Q2273.3268,451.4429 2273.9674,451.5992 Q2274.6237,451.7554 2275.1862,452.0523 L2275.1862,454.771 Q2274.5612,454.1929 2273.9674,453.9273 Q2273.3737,453.646 2272.7487,453.646 Q2271.4049,453.646 2270.7174,454.7242 Q2270.0299,455.7867 2270.0299,457.8804 Q2270.0299,459.9742 2270.7174,461.0523 Q2271.4049,462.1148 2272.7487,462.1148 Q2273.3737,462.1148 2273.9674,461.8492 Q2274.5612,461.5679 2275.1862,460.9898 L2275.1862,463.7085 Z " fill="#000000"/>
        <text fill="#000000" font-family="sans-serif" font-size="14" lengthAdjust="spacing" textLength="81.4657" x="2292.7174" y="463.4999">composition</text>
        <line style="stroke:#181818;stroke-width:0.5;" x1="2111" x2="2523.4005" y1="474.0679" y2="474.0679"/>
        <a href="" target="_top" title="from_string" xlink:actuate="onRequest" xlink:href="" xlink:show="new" xlink:title="from_string" xlink:type="simple">
          <rect fill="#F1F1F1" height="10" style="stroke:none;stroke-width:1.0;" width="20" x="2116" y="484.1019"/>
          <ellipse cx="2121" cy="489.1019" fill="#84BE84" rx="3" ry="3" style="stroke:#038048;stroke-width:1.0;"/>
        </a>
        <a href="" target="_top" title="from_string" xlink:actuate="onRequest" xlink:href="" xlink:show="new" xlink:title="from_string" xlink:type="simple">
          <text fill="#000000" font-family="sans-serif" font-size="14" lengthAdjust="spacing" text-decoration="underline" textLength="388.4005" x="2130" y="493.0339">from_string(std::string_view c) : std::shared_ptr&lt;decorator&gt;</text>
        </a>
        <line style="stroke:#181818;stroke-width:0.5;" x1="2111" x2="2523.4005" y1="501.1358" y2="501.1358"/>
        <a href="" target="_top" title="label" xlink:actuate="onRequest" xlink:href="" xlink:show="new" xlink:title="label" xlink:type="simple">
          <rect fill="#F1F1F1" height="10" style="stroke:none;stroke-width:1.0;" width="20" x="2116" y="511.1698"/>
          <ellipse cx="2121" cy="516.1698" fill="none" rx="3" ry="3" style="stroke:#038048;stroke-width:1.0;"/>
        </a>
        <a href="" target="_top" title="label" xlink:actuate="onRequest" xlink:href="" xlink:show="new" xlink:title="label" xlink:type="simple">
          <text fill="#000000" font-family="sans-serif" font-size="14" lengthAdjust="spacing" text-decoration="underline" textLength="148.1474" x="2130" y="520.1018">label : const std::string</text>
        </a>
      </g>
    </a>
    <a href="structclanguml_1_1decorators_1_1association.html" target="_top" title="Make a member an association relationship" xlink:actuate="onRequest" xlink:href="structclanguml_1_1decorators_1_1association.html" xlink:show="new" xlink:title="Make a member an association relationship" xlink:type="simple">
      <g id="elem_C_0012273947195655594120">
        <rect codeLine="65" fill="#F1F1F1" height="86.1358" id="C_0012273947195655594120" rx="2.5" ry="2.5" style="stroke:#181818;stroke-width:0.5;" width="414.4005" x="2559" y="442.0679"/>
        <ellipse cx="2725.0954" cy="458.0679" fill="#ADD1B2" rx="11" ry="11" style="stroke:#181818;stroke-width:1.0;"/>
        <path d="M2728.0641,463.7085 Q2727.486,464.0054 2726.8454,464.146 Q2726.2048,464.3023 2725.5016,464.3023 Q2723.0016,464.3023 2721.6735,462.6617 Q2720.361,461.0054 2720.361,457.8804 Q2720.361,454.7554 2721.6735,453.0992 Q2723.0016,451.4429 2725.5016,451.4429 Q2726.2048,451.4429 2726.8454,451.5992 Q2727.5016,451.7554 2728.0641,452.0523 L2728.0641,454.771 Q2727.4391,454.1929 2726.8454,453.9273 Q2726.2516,453.646 2725.6266,453.646 Q2724.2829,453.646 2723.5954,454.7242 Q2722.9079,455.7867 2722.9079,457.8804 Q2722.9079,459.9742 2723.5954,461.0523 Q2724.2829,462.1148 2725.6266,462.1148 Q2726.2516,462.1148 2726.8454,461.8492 Q2727.4391,461.5679 2728.0641,460.9898 L2728.0641,463.7085 Z " fill="#000000"/>
        <text fill="#000000" font-family="sans-serif" font-size="14" lengthAdjust="spacing" textLength="73.7097" x="2745.5954" y="463.4999">association</text>
        <line style="stroke:#181818;stroke-width:0.5;" x1="2560" x2="2972.4005" y1="474.0679" y2="474.0679"/>
        <a href="" target="_top" title="from_string" xlink:actuate="onRequest" xlink:href="" xlink:show="new" xlink:title="from_string" xlink:type="simple">
          <rect fill="#F1F1F1" height="10" style="stroke:none;stroke-width:1.0;" width="20" x="2565" y="484.1019"/>
          <ellipse cx="2570" cy="489.1019" fill="#84BE84" rx="3" ry="3" style="stroke:#038048;stroke-width:1.0;"/>
        </a>
        <a href="" target="_top" title="from_string" xlink:actuate="onRequest" xlink:href="" xlink:show="new" xlink:title="from_string" xlink:type="simple">
          <text fill="#000000" font-family="sans-serif" font-size="14" lengthAdjust="spacing" text-decoration="underline" textLength="388.4005" x="2579" y="493.0339">from_string(std::string_view c) : std::shared_ptr&lt;decorator&gt;</text>
        </a>
        <line style="stroke:#181818;stroke-width:0.5;" x1="2560" x2="2972.4005" y1="501.1358" y2="501.1358"/>
        <a href="" target="_top" title="label" xlink:actuate="onRequest" xlink:href="" xlink:show="new" xlink:title="label" xlink:type="simple">
          <rect fill="#F1F1F1" height="10" style="stroke:none;stroke-width:1.0;" width="20" x="2565" y="511.1698"/>
          <ellipse cx="2570" cy="516.1698" fill="none" rx="3" ry="3" style="stroke:#038048;stroke-width:1.0;"/>
        </a>
        <a href="" target="_top" title="label" xlink:actuate="onRequest" xlink:href="" xlink:show="new" xlink:title="label" xlink:type="simple">
          <text fill="#000000" font-family="sans-serif" font-size="14" lengthAdjust="spacing" text-decoration="underline" textLength="148.1474" x="2579" y="520.1018">label : const std::string</text>
        </a>
      </g>
    </a>
    <a href="structclanguml_1_1decorators_1_1call.html" target="_top" title="Represents a call message in sequence diagram" xlink:actuate="onRequest" xlink:href="structclanguml_1_1decorators_1_1call.html" xlink:show="new" xlink:title="Represents a call message in sequence diagram" xlink:type="simple">
      <g id="elem_C_0002849822360015908928">
        <rect codeLine="71" fill="#F1F1F1" height="105.2038" id="C_0002849822360015908928" rx="2.5" ry="2.5" style="stroke:#181818;stroke-width:0.5;" width="414.4005" x="2512" y="267.5679"/>
        <ellipse cx="2704.0513" cy="283.5679" fill="#ADD1B2" rx="11" ry="11" style="stroke:#181818;stroke-width:1.0;"/>
        <path d="M2707.0201,289.2085 Q2706.4419,289.5054 2705.8013,289.646 Q2705.1607,289.8023 2704.4576,289.8023 Q2701.9576,289.8023 2700.6294,288.1617 Q2699.3169,286.5054 2699.3169,283.3804 Q2699.3169,280.2554 2700.6294,278.5992 Q2701.9576,276.9429 2704.4576,276.9429 Q2705.1607,276.9429 2705.8013,277.0992 Q2706.4576,277.2554 2707.0201,277.5523 L2707.0201,280.271 Q2706.3951,279.6929 2705.8013,279.4273 Q2705.2076,279.146 2704.5826,279.146 Q2703.2388,279.146 2702.5513,280.2242 Q2701.8638,281.2867 2701.8638,283.3804 Q2701.8638,285.4742 2702.5513,286.5523 Q2703.2388,287.6148 2704.5826,287.6148 Q2705.2076,287.6148 2705.8013,287.3492 Q2706.3951,287.0679 2707.0201,286.4898 L2707.0201,289.2085 Z " fill="#000000"/>
        <text fill="#000000" font-family="sans-serif" font-size="14" lengthAdjust="spacing" textLength="21.7979" x="2724.5513" y="288.9999">call</text>
        <line style="stroke:#181818;stroke-width:0.5;" x1="2513" x2="2925.4005" y1="299.5679" y2="299.5679"/>
        <a href="" target="_top" title="from_string" xlink:actuate="onRequest" xlink:href="" xlink:show="new" xlink:title="from_string" xlink:type="simple">
          <rect fill="#F1F1F1" height="10" style="stroke:none;stroke-width:1.0;" width="20" x="2518" y="309.6019"/>
          <ellipse cx="2523" cy="314.6019" fill="#84BE84" rx="3" ry="3" style="stroke:#038048;stroke-width:1.0;"/>
        </a>
        <a href="" target="_top" title="from_string" xlink:actuate="onRequest" xlink:href="" xlink:show="new" xlink:title="from_string" xlink:type="simple">
          <text fill="#000000" font-family="sans-serif" font-size="14" lengthAdjust="spacing" text-decoration="underline" textLength="388.4005" x="2532" y="318.5339">from_string(std::string_view c) : std::shared_ptr&lt;decorator&gt;</text>
        </a>
        <line style="stroke:#181818;stroke-width:0.5;" x1="2513" x2="2925.4005" y1="326.6358" y2="326.6358"/>
        <a href="" target="_top" title="callee" xlink:actuate="onRequest" xlink:href="" xlink:show="new" xlink:title="callee" xlink:type="simple">
          <rect fill="#F1F1F1" height="10" style="stroke:none;stroke-width:1.0;" width="20" x="2518" y="336.6698"/>
          <ellipse cx="2523" cy="341.6698" fill="none" rx="3" ry="3" style="stroke:#038048;stroke-width:1.0;"/>
        </a>
        <a href="" target="_top" title="callee" xlink:actuate="onRequest" xlink:href="" xlink:show="new" xlink:title="callee" xlink:type="simple">
          <text fill="#000000" font-family="sans-serif" font-size="14" lengthAdjust="spacing" textLength="114.9116" x="2532" y="345.6018">callee : std::string</text>
        </a>
        <a href="" target="_top" title="label" xlink:actuate="onRequest" xlink:href="" xlink:show="new" xlink:title="label" xlink:type="simple">
          <rect fill="#F1F1F1" height="10" style="stroke:none;stroke-width:1.0;" width="20" x="2518" y="355.7377"/>
          <ellipse cx="2523" cy="360.7377" fill="none" rx="3" ry="3" style="stroke:#038048;stroke-width:1.0;"/>
        </a>
        <a href="" target="_top" title="label" xlink:actuate="onRequest" xlink:href="" xlink:show="new" xlink:title="label" xlink:type="simple">
          <text fill="#000000" font-family="sans-serif" font-size="14" lengthAdjust="spacing" text-decoration="underline" textLength="148.1474" x="2532" y="364.6697">label : const std::string</text>
        </a>
      </g>
    </a>
    <g id="link_C_0008315850039397130669_C_0004258409881394706889">
      <path codeLine="77" d="M1738.78,132.7579 C1338.23,149.8779 544.93,191.1079 274,258.0679 C268.4,259.4479 268.4788,259.2869 262.8088,261.0169 " fill="none" id="C_0008315850039397130669-to-C_0004258409881394706889" style="stroke:#181818;stroke-width:1.0;stroke-dasharray:7.0,7.0;"/>
      <polygon fill="#181818" points="257.07,262.7679,266.8456,263.9673,261.8523,261.3088,264.5109,256.3155,257.07,262.7679" style="stroke:#181818;stroke-width:1.0;"/>
    </g>
    <g id="link_C_0008315850039397130669_C_0010778179862502434199">
      <path codeLine="78" d="M1720.7646,139.1346 C1467.7446,156.9846 1074.06,192.2379 724,258.0679 C718.13,259.1679 712.2,260.3479 706.21,261.5879 " fill="none" id="C_0008315850039397130669-backto-C_0010778179862502434199" style="stroke:#181818;stroke-width:1.0;"/>
      <polygon fill="none" points="1738.72,137.8679,1720.3424,133.1495,1721.1869,145.1198,1738.72,137.8679" style="stroke:#181818;stroke-width:1.0;"/>
    </g>
    <g id="link_C_0008315850039397130669_C_0011699799578039589457">
      <path codeLine="80" d="M1721.1705,159.6569 C1560.6505,183.8169 1362.01,216.7279 1173,258.0679 C1147.6,263.6279 1120.77,270.2379 1094.84,277.0179 " fill="none" id="C_0008315850039397130669-backto-C_0011699799578039589457" style="stroke:#181818;stroke-width:1.0;"/>
      <polygon fill="none" points="1738.97,156.9779,1720.2775,153.7238,1722.0635,165.5901,1738.97,156.9779" style="stroke:#181818;stroke-width:1.0;"/>
    </g>
    <g id="link_C_0008315850039397130669_C_0005483423442928590005">
      <path codeLine="82" d="M1737.9858,203.936 C1658.9358,230.626 1589.7,254.0079 1521.64,276.9879 " fill="none" id="C_0008315850039397130669-backto-C_0005483423442928590005" style="stroke:#181818;stroke-width:1.0;"/>
      <polygon fill="none" points="1755.04,198.1779,1736.0665,198.2513,1739.9052,209.6207,1755.04,198.1779" style="stroke:#181818;stroke-width:1.0;"/>
    </g>
    <g id="link_C_0008315850039397130669_C_0000930157982943964440">
      <path codeLine="84" d="M1916.3304,213.3048 C1900.9904,236.3648 1894.41,246.2579 1880.35,267.4079 " fill="none" id="C_0008315850039397130669-backto-C_0000930157982943964440" style="stroke:#181818;stroke-width:1.0;"/>
      <polygon fill="none" points="1926.3,198.3179,1911.3348,209.9816,1921.326,216.628,1926.3,198.3179" style="stroke:#181818;stroke-width:1.0;"/>
    </g>
    <g id="link_C_0008315850039397130669_C_0012610210265153062981">
      <path codeLine="86" d="M2094.2092,208.847 C2136.4992,239.347 2168.58,262.4979 2201.88,286.5179 " fill="none" id="C_0008315850039397130669-backto-C_0012610210265153062981" style="stroke:#181818;stroke-width:1.0;"/>
      <polygon fill="none" points="2079.61,198.3179,2090.6995,213.7134,2097.7189,203.9806,2079.61,198.3179" style="stroke:#181818;stroke-width:1.0;"/>
    </g>
    <g id="link_C_0001407839604537107907_C_0008315850039397130669">
      <path codeLine="88" d="M2003.83,441.9679 C2030.5,427.3179 2055.11,407.8379 2071,382.0679 C2099.93,335.1579 2087.68,310.5979 2071,258.0679 C2064.34,237.0879 2056.4517,221.5277 2043.9717,203.0777 " fill="none" id="C_0001407839604537107907-to-C_0008315850039397130669" style="stroke:#181818;stroke-width:1.0;stroke-dasharray:7.0,7.0;"/>
      <polygon fill="#181818" points="2040.61,198.1079,2042.3393,207.8038,2043.4114,202.2494,2048.9657,203.3215,2040.61,198.1079" style="stroke:#181818;stroke-width:1.0;"/>
    </g>
    <g id="link_C_0012610210265153062981_C_0001407839604537107907">
      <path codeLine="89" d="M2172.9913,362.1054 C2154.9913,371.7154 2150.81,373.4779 2132,382.0679 C2084.95,403.5379 2031.97,424.5979 1985.88,441.9579 " fill="none" id="C_0012610210265153062981-backto-C_0001407839604537107907" style="stroke:#181818;stroke-width:1.0;"/>
      <polygon fill="none" points="2188.87,353.6279,2170.1655,356.8125,2175.8171,367.3983,2188.87,353.6279" style="stroke:#181818;stroke-width:1.0;"/>
    </g>
    <g id="link_C_0008231288131936536429_C_0008315850039397130669">
      <path codeLine="91" d="M2340.47,441.6479 C2363.94,392.9079 2391.46,312.6179 2353,258.0679 C2319.57,210.6379 2273.4641,181.9112 2218.9341,161.9412 " fill="none" id="C_0008231288131936536429-to-C_0008315850039397130669" style="stroke:#181818;stroke-width:1.0;stroke-dasharray:7.0,7.0;"/>
      <polygon fill="#181818" points="2213.3,159.8779,2220.3756,166.7289,2217.9951,161.5973,2223.1266,159.2168,2213.3,159.8779" style="stroke:#181818;stroke-width:1.0;"/>
    </g>
    <g id="link_C_0012610210265153062981_C_0008231288131936536429">
      <path codeLine="92" d="M2268.1,370.1985 C2278.99,395.5685 2287.09,414.4179 2298.9,441.9279 " fill="none" id="C_0012610210265153062981-backto-C_0008231288131936536429" style="stroke:#181818;stroke-width:1.0;"/>
      <polygon fill="none" points="2261,353.6579,2262.5865,372.5651,2273.6135,367.8318,2261,353.6579" style="stroke:#181818;stroke-width:1.0;"/>
    </g>
    <g id="link_C_0012273947195655594120_C_0008315850039397130669">
      <path codeLine="94" d="M2614.16,441.9979 C2573.4,426.7879 2530.76,407.0279 2495,382.0679 C2435.31,340.3979 2448.6,298.3979 2388,258.0679 C2335.46,223.0979 2278.8181,198.4871 2218.7481,178.6771 " fill="none" id="C_0012273947195655594120-to-C_0008315850039397130669" style="stroke:#181818;stroke-width:1.0;stroke-dasharray:7.0,7.0;"/>
      <polygon fill="#181818" points="2213.05,176.7979,2220.3444,183.4154,2217.7985,178.3639,2222.85,175.8179,2213.05,176.7979" style="stroke:#181818;stroke-width:1.0;"/>
    </g>
    <g id="link_C_0012610210265153062981_C_0012273947195655594120">
      <path codeLine="95" d="M2352.4483,356.0635 C2383.2983,366.2135 2401.09,371.9479 2433,382.0679 C2496.4,402.1679 2566.8,423.8279 2626.47,441.9979 " fill="none" id="C_0012610210265153062981-backto-C_0012273947195655594120" style="stroke:#181818;stroke-width:1.0;"/>
      <polygon fill="none" points="2335.35,350.4379,2350.5732,361.7629,2354.3235,350.364,2335.35,350.4379" style="stroke:#181818;stroke-width:1.0;"/>
    </g>
    <g id="link_C_0008315850039397130669_C_0002849822360015908928">
      <path codeLine="97" d="M2230.5374,190.5386 C2330.5574,216.8586 2428.18,242.5479 2523.26,267.5679 " fill="none" id="C_0008315850039397130669-backto-C_0002849822360015908928" style="stroke:#181818;stroke-width:1.0;"/>
      <polygon fill="none" points="2213.13,185.9579,2229.0105,196.3411,2232.0643,184.7362,2213.13,185.9579" style="stroke:#181818;stroke-width:1.0;"/>
    </g>
  </g>
</svg>
