<svg xmlns="http://www.w3.org/2000/svg" xmlns:xlink="http://www.w3.org/1999/xlink" contentScriptType="application/ecmascript" contentStyleType="text/css" height="952px" preserveAspectRatio="none" style="width:1135px;height:952px;" version="1.1" viewBox="0 0 1135 952" width="1135px" zoomAndPan="magnify">
  <defs>
    <filter height="300%" id="f12ol35vhdmten" width="300%" x="-1" y="-1">
      <feGaussianBlur result="blurOut" stdDeviation="2.0"/>
      <feColorMatrix in="blurOut" result="blurOut2" type="matrix" values="0 0 0 0 0 0 0 0 0 0 0 0 0 0 0 0 0 0 .4 0"/>
      <feOffset dx="4.0" dy="4.0" in="blurOut2" result="blurOut3"/>
      <feBlend in="SourceGraphic" in2="blurOut3" mode="normal"/>
    </filter>
    <style type="text/css">a:hover { text-decoration: underline; }</style>
  </defs>
  <g>
    <text fill="#000000" font-family="sans-serif" font-size="18" lengthAdjust="spacingAndGlyphs" textLength="385" x="381" y="16.708">Decorated diagram element class hierarchy</text>
    <polygon fill="#FFFFFF" filter="url(#f12ol35vhdmten)" points="546,44.9531,619,44.9531,626,67.25,907,67.25,907,534.9531,546,534.9531,546,44.9531" style="stroke: #000000; stroke-width: 1.5;"/>
    <line style="stroke: #000000; stroke-width: 1.5;" x1="546" x2="626" y1="67.25" y2="67.25"/>
    <text fill="#000000" font-family="sans-serif" font-size="14" font-weight="bold" lengthAdjust="spacingAndGlyphs" textLength="67" x="550" y="59.9482">common</text>
    <polygon fill="#FFFFFF" filter="url(#f12ol35vhdmten)" points="570,87.9531,624,87.9531,631,110.25,883,110.25,883,510.9531,570,510.9531,570,87.9531" style="stroke: #000000; stroke-width: 1.5;"/>
    <line style="stroke: #000000; stroke-width: 1.5;" x1="570" x2="631" y1="110.25" y2="110.25"/>
    <text fill="#000000" font-family="sans-serif" font-size="14" font-weight="bold" lengthAdjust="spacingAndGlyphs" textLength="48" x="574" y="102.9482">model</text>
    <polygon fill="#FFFFFF" filter="url(#f12ol35vhdmten)" points="22,558.9531,138,558.9531,145,581.25,748,581.25,748,832.9531,22,832.9531,22,558.9531" style="stroke: #000000; stroke-width: 1.5;"/>
    <line style="stroke: #000000; stroke-width: 1.5;" x1="22" x2="145" y1="581.25" y2="581.25"/>
    <text fill="#000000" font-family="sans-serif" font-size="14" font-weight="bold" lengthAdjust="spacingAndGlyphs" textLength="110" x="26" y="573.9482">class_diagram</text>
    <polygon fill="#FFFFFF" filter="url(#f12ol35vhdmten)" points="46,601.9531,100,601.9531,107,624.25,724,624.25,724,808.9531,46,808.9531,46,601.9531" style="stroke: #000000; stroke-width: 1.5;"/>
    <line style="stroke: #000000; stroke-width: 1.5;" x1="46" x2="107" y1="624.25" y2="624.25"/>
    <text fill="#000000" font-family="sans-serif" font-size="14" font-weight="bold" lengthAdjust="spacingAndGlyphs" textLength="48" x="50" y="616.9482">model</text>
    <polygon fill="#FFFFFF" filter="url(#f12ol35vhdmten)" points="772,558.9531,926,558.9531,933,581.25,1113,581.25,1113,940.9531,772,940.9531,772,558.9531" style="stroke: #000000; stroke-width: 1.5;"/>
    <line style="stroke: #000000; stroke-width: 1.5;" x1="772" x2="933" y1="581.25" y2="581.25"/>
    <text fill="#000000" font-family="sans-serif" font-size="14" font-weight="bold" lengthAdjust="spacingAndGlyphs" textLength="148" x="776" y="573.9482">sequence_diagram</text>
    <polygon fill="#FFFFFF" filter="url(#f12ol35vhdmten)" points="796,601.9531,850,601.9531,857,624.25,1089,624.25,1089,916.9531,796,916.9531,796,601.9531" style="stroke: #000000; stroke-width: 1.5;"/>
    <line style="stroke: #000000; stroke-width: 1.5;" x1="796" x2="857" y1="624.25" y2="624.25"/>
    <text fill="#000000" font-family="sans-serif" font-size="14" font-weight="bold" lengthAdjust="spacingAndGlyphs" textLength="48" x="800" y="616.9482">model</text>
    <a href="classclanguml_1_1common_1_1model_1_1decorated__element.html" target="_top" title="Base class for decorated diagram elements" xlink:actuate="onRequest" xlink:href="classclanguml_1_1common_1_1model_1_1decorated__element.html" xlink:show="new" xlink:title="Base class for decorated diagram elements" xlink:type="simple">
      <rect fill="#FEFECE" filter="url(#f12ol35vhdmten)" height="48" id="C_0001117102382624673118" style="stroke: #A80036; stroke-width: 1.5;" width="154" x="586" y="122.9531"/>
      <ellipse cx="601" cy="138.9531" fill="#ADD1B2" rx="11" ry="11" style="stroke: #A80036; stroke-width: 1.0;"/>
      <path d="M603.9688,144.5938 Q603.3906,144.8906 602.75,145.0313 Q602.1094,145.1875 601.4063,145.1875 Q598.9063,145.1875 597.5781,143.5469 Q596.2656,141.8906 596.2656,138.7656 Q596.2656,135.6406 597.5781,133.9844 Q598.9063,132.3281 601.4063,132.3281 Q602.1094,132.3281 602.75,132.4844 Q603.4063,132.6406 603.9688,132.9375 L603.9688,135.6563 Q603.3438,135.0781 602.75,134.8125 Q602.1563,134.5313 601.5313,134.5313 Q600.1875,134.5313 599.5,135.6094 Q598.8125,136.6719 598.8125,138.7656 Q598.8125,140.8594 599.5,141.9375 Q600.1875,143 601.5313,143 Q602.1563,143 602.75,142.7344 Q603.3438,142.4531 603.9688,141.875 L603.9688,144.5938 Z "/>
      <text fill="#000000" font-family="sans-serif" font-size="12" lengthAdjust="spacingAndGlyphs" textLength="122" x="615" y="143.1074">decorated_element</text>
      <line style="stroke: #A80036; stroke-width: 1.5;" x1="587" x2="739" y1="154.9531" y2="154.9531"/>
      <line style="stroke: #A80036; stroke-width: 1.5;" x1="587" x2="739" y1="162.9531" y2="162.9531"/>
    </a>
    <a href="classclanguml_1_1common_1_1model_1_1relationship.html" target="_top" title="Class representing any relationship other than inheritance" xlink:actuate="onRequest" xlink:href="classclanguml_1_1common_1_1model_1_1relationship.html" xlink:show="new" xlink:title="Class representing any relationship other than inheritance" xlink:type="simple">
      <rect fill="#FEFECE" filter="url(#f12ol35vhdmten)" height="48" id="C_0002046336758797367926" style="stroke: #A80036; stroke-width: 1.5;" width="106" x="586" y="230.9531"/>
      <ellipse cx="601" cy="246.9531" fill="#ADD1B2" rx="11" ry="11" style="stroke: #A80036; stroke-width: 1.0;"/>
      <path d="M603.9688,252.5938 Q603.3906,252.8906 602.75,253.0313 Q602.1094,253.1875 601.4063,253.1875 Q598.9063,253.1875 597.5781,251.5469 Q596.2656,249.8906 596.2656,246.7656 Q596.2656,243.6406 597.5781,241.9844 Q598.9063,240.3281 601.4063,240.3281 Q602.1094,240.3281 602.75,240.4844 Q603.4063,240.6406 603.9688,240.9375 L603.9688,243.6563 Q603.3438,243.0781 602.75,242.8125 Q602.1563,242.5313 601.5313,242.5313 Q600.1875,242.5313 599.5,243.6094 Q598.8125,244.6719 598.8125,246.7656 Q598.8125,248.8594 599.5,249.9375 Q600.1875,251 601.5313,251 Q602.1563,251 602.75,250.7344 Q603.3438,250.4531 603.9688,249.875 L603.9688,252.5938 Z "/>
      <text fill="#000000" font-family="sans-serif" font-size="12" lengthAdjust="spacingAndGlyphs" textLength="74" x="615" y="251.1074">relationship</text>
      <line style="stroke: #A80036; stroke-width: 1.5;" x1="587" x2="691" y1="262.9531" y2="262.9531"/>
      <line style="stroke: #A80036; stroke-width: 1.5;" x1="587" x2="691" y1="270.9531" y2="270.9531"/>
    </a>
    <a href="classclanguml_1_1common_1_1model_1_1diagram__element.html" target="_top" title="Base class for standalone diagram elements." xlink:actuate="onRequest" xlink:href="classclanguml_1_1common_1_1model_1_1diagram__element.html" xlink:show="new" xlink:title="Base class for standalone diagram elements." xlink:type="simple">
      <rect fill="#FEFECE" filter="url(#f12ol35vhdmten)" height="48" id="C_0001073500714379115414" style="stroke: #A80036; stroke-width: 1.5;" width="140" x="727" y="230.9531"/>
      <ellipse cx="742" cy="246.9531" fill="#ADD1B2" rx="11" ry="11" style="stroke: #A80036; stroke-width: 1.0;"/>
      <path d="M744.9688,252.5938 Q744.3906,252.8906 743.75,253.0313 Q743.1094,253.1875 742.4063,253.1875 Q739.9063,253.1875 738.5781,251.5469 Q737.2656,249.8906 737.2656,246.7656 Q737.2656,243.6406 738.5781,241.9844 Q739.9063,240.3281 742.4063,240.3281 Q743.1094,240.3281 743.75,240.4844 Q744.4063,240.6406 744.9688,240.9375 L744.9688,243.6563 Q744.3438,243.0781 743.75,242.8125 Q743.1563,242.5313 742.5313,242.5313 Q741.1875,242.5313 740.5,243.6094 Q739.8125,244.6719 739.8125,246.7656 Q739.8125,248.8594 740.5,249.9375 Q741.1875,251 742.5313,251 Q743.1563,251 743.75,250.7344 Q744.3438,250.4531 744.9688,249.875 L744.9688,252.5938 Z "/>
      <text fill="#000000" font-family="sans-serif" font-size="12" lengthAdjust="spacingAndGlyphs" textLength="108" x="756" y="251.1074">diagram_element</text>
      <line style="stroke: #A80036; stroke-width: 1.5;" x1="728" x2="866" y1="262.9531" y2="262.9531"/>
      <line style="stroke: #A80036; stroke-width: 1.5;" x1="728" x2="866" y1="270.9531" y2="270.9531"/>
    </a>
    <a href="classclanguml_1_1common_1_1model_1_1element.html" target="_top" title="Base class for any element qualified by namespace." xlink:actuate="onRequest" xlink:href="classclanguml_1_1common_1_1model_1_1element.html" xlink:show="new" xlink:title="Base class for any element qualified by namespace." xlink:type="simple">
      <rect fill="#FEFECE" filter="url(#f12ol35vhdmten)" height="48" id="C_0002069520381434407937" style="stroke: #A80036; stroke-width: 1.5;" width="83" x="630.5" y="338.9531"/>
      <ellipse cx="645.5" cy="354.9531" fill="#ADD1B2" rx="11" ry="11" style="stroke: #A80036; stroke-width: 1.0;"/>
      <path d="M648.4688,360.5938 Q647.8906,360.8906 647.25,361.0313 Q646.6094,361.1875 645.9063,361.1875 Q643.4063,361.1875 642.0781,359.5469 Q640.7656,357.8906 640.7656,354.7656 Q640.7656,351.6406 642.0781,349.9844 Q643.4063,348.3281 645.9063,348.3281 Q646.6094,348.3281 647.25,348.4844 Q647.9063,348.6406 648.4688,348.9375 L648.4688,351.6563 Q647.8438,351.0781 647.25,350.8125 Q646.6563,350.5313 646.0313,350.5313 Q644.6875,350.5313 644,351.6094 Q643.3125,352.6719 643.3125,354.7656 Q643.3125,356.8594 644,357.9375 Q644.6875,359 646.0313,359 Q646.6563,359 647.25,358.7344 Q647.8438,358.4531 648.4688,357.875 L648.4688,360.5938 Z "/>
      <text fill="#000000" font-family="sans-serif" font-size="12" lengthAdjust="spacingAndGlyphs" textLength="51" x="659.5" y="359.1074">element</text>
      <line style="stroke: #A80036; stroke-width: 1.5;" x1="631.5" x2="712.5" y1="370.9531" y2="370.9531"/>
      <line style="stroke: #A80036; stroke-width: 1.5;" x1="631.5" x2="712.5" y1="378.9531" y2="378.9531"/>
    </a>
    <a href="classclanguml_1_1common_1_1model_1_1template__element.html" target="_top" title="Base class for any element qualified by namespace." xlink:actuate="onRequest" xlink:href="classclanguml_1_1common_1_1model_1_1template__element.html" xlink:show="new" xlink:title="Base class for any element qualified by namespace." xlink:type="simple">
      <rect fill="#FEFECE" filter="url(#f12ol35vhdmten)" height="48" id="C_0001673103894976412298" style="stroke: #A80036; stroke-width: 1.5;" width="145" x="600.5" y="446.9531"/>
      <ellipse cx="615.5" cy="462.9531" fill="#ADD1B2" rx="11" ry="11" style="stroke: #A80036; stroke-width: 1.0;"/>
      <path d="M618.4688,468.5938 Q617.8906,468.8906 617.25,469.0313 Q616.6094,469.1875 615.9063,469.1875 Q613.4063,469.1875 612.0781,467.5469 Q610.7656,465.8906 610.7656,462.7656 Q610.7656,459.6406 612.0781,457.9844 Q613.4063,456.3281 615.9063,456.3281 Q616.6094,456.3281 617.25,456.4844 Q617.9063,456.6406 618.4688,456.9375 L618.4688,459.6563 Q617.8438,459.0781 617.25,458.8125 Q616.6563,458.5313 616.0313,458.5313 Q614.6875,458.5313 614,459.6094 Q613.3125,460.6719 613.3125,462.7656 Q613.3125,464.8594 614,465.9375 Q614.6875,467 616.0313,467 Q616.6563,467 617.25,466.7344 Q617.8438,466.4531 618.4688,465.875 L618.4688,468.5938 Z "/>
      <text fill="#000000" font-family="sans-serif" font-size="12" lengthAdjust="spacingAndGlyphs" textLength="113" x="629.5" y="467.1074">template_element</text>
      <line style="stroke: #A80036; stroke-width: 1.5;" x1="601.5" x2="744.5" y1="478.9531" y2="478.9531"/>
      <line style="stroke: #A80036; stroke-width: 1.5;" x1="601.5" x2="744.5" y1="486.9531" y2="486.9531"/>
    </a>
    <a href="classclanguml_1_1common_1_1model_1_1source__file.html" target="_top" title="Diagram element representing some file or directory." xlink:actuate="onRequest" xlink:href="classclanguml_1_1common_1_1model_1_1source__file.html" xlink:show="new" xlink:title="Diagram element representing some file or directory." xlink:type="simple">
      <rect fill="#FEFECE" filter="url(#f12ol35vhdmten)" height="48" id="C_0000785714713072053129" style="stroke: #A80036; stroke-width: 1.5;" width="99" x="748.5" y="338.9531"/>
      <ellipse cx="763.5" cy="354.9531" fill="#ADD1B2" rx="11" ry="11" style="stroke: #A80036; stroke-width: 1.0;"/>
      <path d="M766.4688,360.5938 Q765.8906,360.8906 765.25,361.0313 Q764.6094,361.1875 763.9063,361.1875 Q761.4063,361.1875 760.0781,359.5469 Q758.7656,357.8906 758.7656,354.7656 Q758.7656,351.6406 760.0781,349.9844 Q761.4063,348.3281 763.9063,348.3281 Q764.6094,348.3281 765.25,348.4844 Q765.9063,348.6406 766.4688,348.9375 L766.4688,351.6563 Q765.8438,351.0781 765.25,350.8125 Q764.6563,350.5313 764.0313,350.5313 Q762.6875,350.5313 762,351.6094 Q761.3125,352.6719 761.3125,354.7656 Q761.3125,356.8594 762,357.9375 Q762.6875,359 764.0313,359 Q764.6563,359 765.25,358.7344 Q765.8438,358.4531 766.4688,357.875 L766.4688,360.5938 Z "/>
      <text fill="#000000" font-family="sans-serif" font-size="12" lengthAdjust="spacingAndGlyphs" textLength="67" x="777.5" y="359.1074">source_file</text>
      <line style="stroke: #A80036; stroke-width: 1.5;" x1="749.5" x2="846.5" y1="370.9531" y2="370.9531"/>
      <line style="stroke: #A80036; stroke-width: 1.5;" x1="749.5" x2="846.5" y1="378.9531" y2="378.9531"/>
    </a>
    <a href="classclanguml_1_1common_1_1model_1_1package.html" target="_top" title="Diagram element representing namespace or directory package" xlink:actuate="onRequest" xlink:href="classclanguml_1_1common_1_1model_1_1package.html" xlink:show="new" xlink:title="Diagram element representing namespace or directory package" xlink:type="simple">
      <rect fill="#FEFECE" filter="url(#f12ol35vhdmten)" height="48" id="C_0002143286684830686854" style="stroke: #A80036; stroke-width: 1.5;" width="86" x="781" y="446.9531"/>
      <ellipse cx="796" cy="462.9531" fill="#ADD1B2" rx="11" ry="11" style="stroke: #A80036; stroke-width: 1.0;"/>
      <path d="M798.9688,468.5938 Q798.3906,468.8906 797.75,469.0313 Q797.1094,469.1875 796.4063,469.1875 Q793.9063,469.1875 792.5781,467.5469 Q791.2656,465.8906 791.2656,462.7656 Q791.2656,459.6406 792.5781,457.9844 Q793.9063,456.3281 796.4063,456.3281 Q797.1094,456.3281 797.75,456.4844 Q798.4063,456.6406 798.9688,456.9375 L798.9688,459.6563 Q798.3438,459.0781 797.75,458.8125 Q797.1563,458.5313 796.5313,458.5313 Q795.1875,458.5313 794.5,459.6094 Q793.8125,460.6719 793.8125,462.7656 Q793.8125,464.8594 794.5,465.9375 Q795.1875,467 796.5313,467 Q797.1563,467 797.75,466.7344 Q798.3438,466.4531 798.9688,465.875 L798.9688,468.5938 Z "/>
      <text fill="#000000" font-family="sans-serif" font-size="12" lengthAdjust="spacingAndGlyphs" textLength="54" x="810" y="467.1074">package</text>
      <line style="stroke: #A80036; stroke-width: 1.5;" x1="782" x2="866" y1="478.9531" y2="478.9531"/>
      <line style="stroke: #A80036; stroke-width: 1.5;" x1="782" x2="866" y1="486.9531" y2="486.9531"/>
    </a>
    <a href="classclanguml_1_1class__diagram_1_1model_1_1method__parameter.html" target="_top" title="Model of a method parameter." xlink:actuate="onRequest" xlink:href="classclanguml_1_1class__diagram_1_1model_1_1method__parameter.html" xlink:show="new" xlink:title="Model of a method parameter." xlink:type="simple">
      <rect fill="#FEFECE" filter="url(#f12ol35vhdmten)" height="48" id="C_0000605669033368926050" style="stroke: #A80036; stroke-width: 1.5;" width="152" x="62" y="636.9531"/>
      <ellipse cx="77" cy="652.9531" fill="#ADD1B2" rx="11" ry="11" style="stroke: #A80036; stroke-width: 1.0;"/>
      <path d="M79.9688,658.5938 Q79.3906,658.8906 78.75,659.0313 Q78.1094,659.1875 77.4063,659.1875 Q74.9063,659.1875 73.5781,657.5469 Q72.2656,655.8906 72.2656,652.7656 Q72.2656,649.6406 73.5781,647.9844 Q74.9063,646.3281 77.4063,646.3281 Q78.1094,646.3281 78.75,646.4844 Q79.4063,646.6406 79.9688,646.9375 L79.9688,649.6563 Q79.3438,649.0781 78.75,648.8125 Q78.1563,648.5313 77.5313,648.5313 Q76.1875,648.5313 75.5,649.6094 Q74.8125,650.6719 74.8125,652.7656 Q74.8125,654.8594 75.5,655.9375 Q76.1875,657 77.5313,657 Q78.1563,657 78.75,656.7344 Q79.3438,656.4531 79.9688,655.875 L79.9688,658.5938 Z "/>
      <text fill="#000000" font-family="sans-serif" font-size="12" lengthAdjust="spacingAndGlyphs" textLength="120" x="91" y="657.1074">method_parameter</text>
      <line style="stroke: #A80036; stroke-width: 1.5;" x1="63" x2="213" y1="668.9531" y2="668.9531"/>
      <line style="stroke: #A80036; stroke-width: 1.5;" x1="63" x2="213" y1="676.9531" y2="676.9531"/>
    </a>
    <a href="classclanguml_1_1class__diagram_1_1model_1_1class__element.html" target="_top" title="Base class for class elements (e.g. member or method)." xlink:actuate="onRequest" xlink:href="classclanguml_1_1class__diagram_1_1model_1_1class__element.html" xlink:show="new" xlink:title="Base class for class elements (e.g. member or method)." xlink:type="simple">
      <rect fill="#FEFECE" filter="url(#f12ol35vhdmten)" height="48" id="C_0000605866861866358037" style="stroke: #A80036; stroke-width: 1.5;" width="121" x="249.5" y="636.9531"/>
      <ellipse cx="264.5" cy="652.9531" fill="#ADD1B2" rx="11" ry="11" style="stroke: #A80036; stroke-width: 1.0;"/>
      <path d="M267.4688,658.5938 Q266.8906,658.8906 266.25,659.0313 Q265.6094,659.1875 264.9063,659.1875 Q262.4063,659.1875 261.0781,657.5469 Q259.7656,655.8906 259.7656,652.7656 Q259.7656,649.6406 261.0781,647.9844 Q262.4063,646.3281 264.9063,646.3281 Q265.6094,646.3281 266.25,646.4844 Q266.9063,646.6406 267.4688,646.9375 L267.4688,649.6563 Q266.8438,649.0781 266.25,648.8125 Q265.6563,648.5313 265.0313,648.5313 Q263.6875,648.5313 263,649.6094 Q262.3125,650.6719 262.3125,652.7656 Q262.3125,654.8594 263,655.9375 Q263.6875,657 265.0313,657 Q265.6563,657 266.25,656.7344 Q266.8438,656.4531 267.4688,655.875 L267.4688,658.5938 Z "/>
      <text fill="#000000" font-family="sans-serif" font-size="12" lengthAdjust="spacingAndGlyphs" textLength="89" x="278.5" y="657.1074">class_element</text>
      <line style="stroke: #A80036; stroke-width: 1.5;" x1="250.5" x2="369.5" y1="668.9531" y2="668.9531"/>
      <line style="stroke: #A80036; stroke-width: 1.5;" x1="250.5" x2="369.5" y1="676.9531" y2="676.9531"/>
    </a>
    <a href="classclanguml_1_1class__diagram_1_1model_1_1class__member.html" target="_top" title="Class member model." xlink:actuate="onRequest" xlink:href="classclanguml_1_1class__diagram_1_1model_1_1class__member.html" xlink:show="new" xlink:title="Class member model." xlink:type="simple">
      <rect fill="#FEFECE" filter="url(#f12ol35vhdmten)" height="48" id="C_0001796282762108527255" style="stroke: #A80036; stroke-width: 1.5;" width="121" x="171.5" y="744.9531"/>
      <ellipse cx="186.5" cy="760.9531" fill="#ADD1B2" rx="11" ry="11" style="stroke: #A80036; stroke-width: 1.0;"/>
      <path d="M189.4688,766.5938 Q188.8906,766.8906 188.25,767.0313 Q187.6094,767.1875 186.9063,767.1875 Q184.4063,767.1875 183.0781,765.5469 Q181.7656,763.8906 181.7656,760.7656 Q181.7656,757.6406 183.0781,755.9844 Q184.4063,754.3281 186.9063,754.3281 Q187.6094,754.3281 188.25,754.4844 Q188.9063,754.6406 189.4688,754.9375 L189.4688,757.6563 Q188.8438,757.0781 188.25,756.8125 Q187.6563,756.5313 187.0313,756.5313 Q185.6875,756.5313 185,757.6094 Q184.3125,758.6719 184.3125,760.7656 Q184.3125,762.8594 185,763.9375 Q185.6875,765 187.0313,765 Q187.6563,765 188.25,764.7344 Q188.8438,764.4531 189.4688,763.875 L189.4688,766.5938 Z "/>
      <text fill="#000000" font-family="sans-serif" font-size="12" lengthAdjust="spacingAndGlyphs" textLength="89" x="200.5" y="765.1074">class_member</text>
      <line style="stroke: #A80036; stroke-width: 1.5;" x1="172.5" x2="291.5" y1="776.9531" y2="776.9531"/>
      <line style="stroke: #A80036; stroke-width: 1.5;" x1="172.5" x2="291.5" y1="784.9531" y2="784.9531"/>
    </a>
    <a href="classclanguml_1_1class__diagram_1_1model_1_1class__method.html" target="_top" title="Class method model." xlink:actuate="onRequest" xlink:href="classclanguml_1_1class__diagram_1_1model_1_1class__method.html" xlink:show="new" xlink:title="Class method model." xlink:type="simple">
      <rect fill="#FEFECE" filter="url(#f12ol35vhdmten)" height="48" id="C_0000204145716468348671" style="stroke: #A80036; stroke-width: 1.5;" width="118" x="328" y="744.9531"/>
      <ellipse cx="343" cy="760.9531" fill="#ADD1B2" rx="11" ry="11" style="stroke: #A80036; stroke-width: 1.0;"/>
      <path d="M345.9688,766.5938 Q345.3906,766.8906 344.75,767.0313 Q344.1094,767.1875 343.4063,767.1875 Q340.9063,767.1875 339.5781,765.5469 Q338.2656,763.8906 338.2656,760.7656 Q338.2656,757.6406 339.5781,755.9844 Q340.9063,754.3281 343.4063,754.3281 Q344.1094,754.3281 344.75,754.4844 Q345.4063,754.6406 345.9688,754.9375 L345.9688,757.6563 Q345.3438,757.0781 344.75,756.8125 Q344.1563,756.5313 343.5313,756.5313 Q342.1875,756.5313 341.5,757.6094 Q340.8125,758.6719 340.8125,760.7656 Q340.8125,762.8594 341.5,763.9375 Q342.1875,765 343.5313,765 Q344.1563,765 344.75,764.7344 Q345.3438,764.4531 345.9688,763.875 L345.9688,766.5938 Z "/>
      <text fill="#000000" font-family="sans-serif" font-size="12" lengthAdjust="spacingAndGlyphs" textLength="86" x="357" y="765.1074">class_method</text>
      <line style="stroke: #A80036; stroke-width: 1.5;" x1="329" x2="445" y1="776.9531" y2="776.9531"/>
      <line style="stroke: #A80036; stroke-width: 1.5;" x1="329" x2="445" y1="784.9531" y2="784.9531"/>
    </a>
    <a href="classclanguml_1_1class__diagram_1_1model_1_1class__.html" target="_top" title="Diagram element representing a class or class template." xlink:actuate="onRequest" xlink:href="classclanguml_1_1class__diagram_1_1model_1_1class__.html" xlink:show="new" xlink:title="Diagram element representing a class or class template." xlink:type="simple">
      <rect fill="#FEFECE" filter="url(#f12ol35vhdmten)" height="48" id="C_0001292034357466653182" style="stroke: #A80036; stroke-width: 1.5;" width="70" x="638" y="636.9531"/>
      <ellipse cx="653" cy="652.9531" fill="#ADD1B2" rx="11" ry="11" style="stroke: #A80036; stroke-width: 1.0;"/>
      <path d="M655.9688,658.5938 Q655.3906,658.8906 654.75,659.0313 Q654.1094,659.1875 653.4063,659.1875 Q650.9063,659.1875 649.5781,657.5469 Q648.2656,655.8906 648.2656,652.7656 Q648.2656,649.6406 649.5781,647.9844 Q650.9063,646.3281 653.4063,646.3281 Q654.1094,646.3281 654.75,646.4844 Q655.4063,646.6406 655.9688,646.9375 L655.9688,649.6563 Q655.3438,649.0781 654.75,648.8125 Q654.1563,648.5313 653.5313,648.5313 Q652.1875,648.5313 651.5,649.6094 Q650.8125,650.6719 650.8125,652.7656 Q650.8125,654.8594 651.5,655.9375 Q652.1875,657 653.5313,657 Q654.1563,657 654.75,656.7344 Q655.3438,656.4531 655.9688,655.875 L655.9688,658.5938 Z "/>
      <text fill="#000000" font-family="sans-serif" font-size="12" lengthAdjust="spacingAndGlyphs" textLength="38" x="667" y="657.1074">class_</text>
      <line style="stroke: #A80036; stroke-width: 1.5;" x1="639" x2="707" y1="668.9531" y2="668.9531"/>
      <line style="stroke: #A80036; stroke-width: 1.5;" x1="639" x2="707" y1="676.9531" y2="676.9531"/>
    </a>
    <a href="classclanguml_1_1class__diagram_1_1model_1_1concept__.html" target="_top" title="Model of C++ concept." xlink:actuate="onRequest" xlink:href="classclanguml_1_1class__diagram_1_1model_1_1concept__.html" xlink:show="new" xlink:title="Model of C++ concept." xlink:type="simple">
      <rect fill="#FEFECE" filter="url(#f12ol35vhdmten)" height="48" id="C_0001374849051752224500" style="stroke: #A80036; stroke-width: 1.5;" width="89" x="405.5" y="636.9531"/>
      <ellipse cx="420.5" cy="652.9531" fill="#ADD1B2" rx="11" ry="11" style="stroke: #A80036; stroke-width: 1.0;"/>
      <path d="M423.4688,658.5938 Q422.8906,658.8906 422.25,659.0313 Q421.6094,659.1875 420.9063,659.1875 Q418.4063,659.1875 417.0781,657.5469 Q415.7656,655.8906 415.7656,652.7656 Q415.7656,649.6406 417.0781,647.9844 Q418.4063,646.3281 420.9063,646.3281 Q421.6094,646.3281 422.25,646.4844 Q422.9063,646.6406 423.4688,646.9375 L423.4688,649.6563 Q422.8438,649.0781 422.25,648.8125 Q421.6563,648.5313 421.0313,648.5313 Q419.6875,648.5313 419,649.6094 Q418.3125,650.6719 418.3125,652.7656 Q418.3125,654.8594 419,655.9375 Q419.6875,657 421.0313,657 Q421.6563,657 422.25,656.7344 Q422.8438,656.4531 423.4688,655.875 L423.4688,658.5938 Z "/>
      <text fill="#000000" font-family="sans-serif" font-size="12" lengthAdjust="spacingAndGlyphs" textLength="57" x="434.5" y="657.1074">concept_</text>
      <line style="stroke: #A80036; stroke-width: 1.5;" x1="406.5" x2="493.5" y1="668.9531" y2="668.9531"/>
      <line style="stroke: #A80036; stroke-width: 1.5;" x1="406.5" x2="493.5" y1="676.9531" y2="676.9531"/>
    </a>
    <a href="classclanguml_1_1class__diagram_1_1model_1_1enum__.html" target="_top" title="enum_" xlink:actuate="onRequest" xlink:href="classclanguml_1_1class__diagram_1_1model_1_1enum__.html" xlink:show="new" xlink:title="enum_" xlink:type="simple">
      <rect fill="#FEFECE" filter="url(#f12ol35vhdmten)" height="48" id="C_0000724392977093650506" style="stroke: #A80036; stroke-width: 1.5;" width="73" x="529.5" y="636.9531"/>
      <ellipse cx="544.5" cy="652.9531" fill="#ADD1B2" rx="11" ry="11" style="stroke: #A80036; stroke-width: 1.0;"/>
      <path d="M547.4688,658.5938 Q546.8906,658.8906 546.25,659.0313 Q545.6094,659.1875 544.9063,659.1875 Q542.4063,659.1875 541.0781,657.5469 Q539.7656,655.8906 539.7656,652.7656 Q539.7656,649.6406 541.0781,647.9844 Q542.4063,646.3281 544.9063,646.3281 Q545.6094,646.3281 546.25,646.4844 Q546.9063,646.6406 547.4688,646.9375 L547.4688,649.6563 Q546.8438,649.0781 546.25,648.8125 Q545.6563,648.5313 545.0313,648.5313 Q543.6875,648.5313 543,649.6094 Q542.3125,650.6719 542.3125,652.7656 Q542.3125,654.8594 543,655.9375 Q543.6875,657 545.0313,657 Q545.6563,657 546.25,656.7344 Q546.8438,656.4531 547.4688,655.875 L547.4688,658.5938 Z "/>
      <text fill="#000000" font-family="sans-serif" font-size="12" lengthAdjust="spacingAndGlyphs" textLength="41" x="558.5" y="657.1074">enum_</text>
      <line style="stroke: #A80036; stroke-width: 1.5;" x1="530.5" x2="601.5" y1="668.9531" y2="668.9531"/>
      <line style="stroke: #A80036; stroke-width: 1.5;" x1="530.5" x2="601.5" y1="676.9531" y2="676.9531"/>
    </a>
    <a href="structclanguml_1_1sequence__diagram_1_1model_1_1participant.html" target="_top" title="Base class for various types of sequence diagram participants" xlink:actuate="onRequest" xlink:href="structclanguml_1_1sequence__diagram_1_1model_1_1participant.html" xlink:show="new" xlink:title="Base class for various types of sequence diagram participants" xlink:type="simple">
      <rect fill="#FEFECE" filter="url(#f12ol35vhdmten)" height="48" id="C_0001400215772842495226" style="stroke: #A80036; stroke-width: 1.5;" width="100" x="812" y="636.9531"/>
      <ellipse cx="827" cy="652.9531" fill="#ADD1B2" rx="11" ry="11" style="stroke: #A80036; stroke-width: 1.0;"/>
      <path d="M829.9688,658.5938 Q829.3906,658.8906 828.75,659.0313 Q828.1094,659.1875 827.4063,659.1875 Q824.9063,659.1875 823.5781,657.5469 Q822.2656,655.8906 822.2656,652.7656 Q822.2656,649.6406 823.5781,647.9844 Q824.9063,646.3281 827.4063,646.3281 Q828.1094,646.3281 828.75,646.4844 Q829.4063,646.6406 829.9688,646.9375 L829.9688,649.6563 Q829.3438,649.0781 828.75,648.8125 Q828.1563,648.5313 827.5313,648.5313 Q826.1875,648.5313 825.5,649.6094 Q824.8125,650.6719 824.8125,652.7656 Q824.8125,654.8594 825.5,655.9375 Q826.1875,657 827.5313,657 Q828.1563,657 828.75,656.7344 Q829.3438,656.4531 829.9688,655.875 L829.9688,658.5938 Z "/>
      <text fill="#000000" font-family="sans-serif" font-size="12" lengthAdjust="spacingAndGlyphs" textLength="68" x="841" y="657.1074">participant</text>
      <line style="stroke: #A80036; stroke-width: 1.5;" x1="813" x2="911" y1="668.9531" y2="668.9531"/>
      <line style="stroke: #A80036; stroke-width: 1.5;" x1="813" x2="911" y1="676.9531" y2="676.9531"/>
    </a>
    <a href="structclanguml_1_1sequence__diagram_1_1model_1_1class__.html" target="_top" title="Sequence diagram participant representing a class." xlink:actuate="onRequest" xlink:href="structclanguml_1_1sequence__diagram_1_1model_1_1class__.html" xlink:show="new" xlink:title="Sequence diagram participant representing a class." xlink:type="simple">
      <rect fill="#FEFECE" filter="url(#f12ol35vhdmten)" height="48" id="C_0000885514871619471610" style="stroke: #A80036; stroke-width: 1.5;" width="70" x="819" y="744.9531"/>
      <ellipse cx="834" cy="760.9531" fill="#ADD1B2" rx="11" ry="11" style="stroke: #A80036; stroke-width: 1.0;"/>
      <path d="M836.9688,766.5938 Q836.3906,766.8906 835.75,767.0313 Q835.1094,767.1875 834.4063,767.1875 Q831.9063,767.1875 830.5781,765.5469 Q829.2656,763.8906 829.2656,760.7656 Q829.2656,757.6406 830.5781,755.9844 Q831.9063,754.3281 834.4063,754.3281 Q835.1094,754.3281 835.75,754.4844 Q836.4063,754.6406 836.9688,754.9375 L836.9688,757.6563 Q836.3438,757.0781 835.75,756.8125 Q835.1563,756.5313 834.5313,756.5313 Q833.1875,756.5313 832.5,757.6094 Q831.8125,758.6719 831.8125,760.7656 Q831.8125,762.8594 832.5,763.9375 Q833.1875,765 834.5313,765 Q835.1563,765 835.75,764.7344 Q836.3438,764.4531 836.9688,763.875 L836.9688,766.5938 Z "/>
      <text fill="#000000" font-family="sans-serif" font-size="12" lengthAdjust="spacingAndGlyphs" textLength="38" x="848" y="765.1074">class_</text>
      <line style="stroke: #A80036; stroke-width: 1.5;" x1="820" x2="888" y1="776.9531" y2="776.9531"/>
      <line style="stroke: #A80036; stroke-width: 1.5;" x1="820" x2="888" y1="784.9531" y2="784.9531"/>
    </a>
    <a href="structclanguml_1_1sequence__diagram_1_1model_1_1function.html" target="_top" title="Participant mode representing a free function." xlink:actuate="onRequest" xlink:href="structclanguml_1_1sequence__diagram_1_1model_1_1function.html" xlink:show="new" xlink:title="Participant mode representing a free function." xlink:type="simple">
      <rect fill="#FEFECE" filter="url(#f12ol35vhdmten)" height="48" id="C_0000232638456031681828" style="stroke: #A80036; stroke-width: 1.5;" width="83" x="924.5" y="744.9531"/>
      <ellipse cx="939.5" cy="760.9531" fill="#ADD1B2" rx="11" ry="11" style="stroke: #A80036; stroke-width: 1.0;"/>
      <path d="M942.4688,766.5938 Q941.8906,766.8906 941.25,767.0313 Q940.6094,767.1875 939.9063,767.1875 Q937.4063,767.1875 936.0781,765.5469 Q934.7656,763.8906 934.7656,760.7656 Q934.7656,757.6406 936.0781,755.9844 Q937.4063,754.3281 939.9063,754.3281 Q940.6094,754.3281 941.25,754.4844 Q941.9063,754.6406 942.4688,754.9375 L942.4688,757.6563 Q941.8438,757.0781 941.25,756.8125 Q940.6563,756.5313 940.0313,756.5313 Q938.6875,756.5313 938,757.6094 Q937.3125,758.6719 937.3125,760.7656 Q937.3125,762.8594 938,763.9375 Q938.6875,765 940.0313,765 Q940.6563,765 941.25,764.7344 Q941.8438,764.4531 942.4688,763.875 L942.4688,766.5938 Z "/>
      <text fill="#000000" font-family="sans-serif" font-size="12" lengthAdjust="spacingAndGlyphs" textLength="51" x="953.5" y="765.1074">function</text>
      <line style="stroke: #A80036; stroke-width: 1.5;" x1="925.5" x2="1006.5" y1="776.9531" y2="776.9531"/>
      <line style="stroke: #A80036; stroke-width: 1.5;" x1="925.5" x2="1006.5" y1="784.9531" y2="784.9531"/>
    </a>
    <a href="structclanguml_1_1sequence__diagram_1_1model_1_1method.html" target="_top" title="Participant model representing a method" xlink:actuate="onRequest" xlink:href="structclanguml_1_1sequence__diagram_1_1model_1_1method.html" xlink:show="new" xlink:title="Participant model representing a method" xlink:type="simple">
      <rect fill="#FEFECE" filter="url(#f12ol35vhdmten)" height="48" id="C_0000817665972547784504" style="stroke: #A80036; stroke-width: 1.5;" width="80" x="812" y="852.9531"/>
      <ellipse cx="827" cy="868.9531" fill="#ADD1B2" rx="11" ry="11" style="stroke: #A80036; stroke-width: 1.0;"/>
      <path d="M829.9688,874.5938 Q829.3906,874.8906 828.75,875.0313 Q828.1094,875.1875 827.4063,875.1875 Q824.9063,875.1875 823.5781,873.5469 Q822.2656,871.8906 822.2656,868.7656 Q822.2656,865.6406 823.5781,863.9844 Q824.9063,862.3281 827.4063,862.3281 Q828.1094,862.3281 828.75,862.4844 Q829.4063,862.6406 829.9688,862.9375 L829.9688,865.6563 Q829.3438,865.0781 828.75,864.8125 Q828.1563,864.5313 827.5313,864.5313 Q826.1875,864.5313 825.5,865.6094 Q824.8125,866.6719 824.8125,868.7656 Q824.8125,870.8594 825.5,871.9375 Q826.1875,873 827.5313,873 Q828.1563,873 828.75,872.7344 Q829.3438,872.4531 829.9688,871.875 L829.9688,874.5938 Z "/>
      <text fill="#000000" font-family="sans-serif" font-size="12" lengthAdjust="spacingAndGlyphs" textLength="48" x="841" y="873.1074">method</text>
      <line style="stroke: #A80036; stroke-width: 1.5;" x1="813" x2="891" y1="884.9531" y2="884.9531"/>
      <line style="stroke: #A80036; stroke-width: 1.5;" x1="813" x2="891" y1="892.9531" y2="892.9531"/>
    </a>
    <a href="structclanguml_1_1sequence__diagram_1_1model_1_1function__template.html" target="_top" title="Participant model representing a function template." xlink:actuate="onRequest" xlink:href="structclanguml_1_1sequence__diagram_1_1model_1_1function__template.html" xlink:show="new" xlink:title="Participant model representing a function template." xlink:type="simple">
      <rect fill="#FEFECE" filter="url(#f12ol35vhdmten)" height="48" id="C_0002280191967493310558" style="stroke: #A80036; stroke-width: 1.5;" width="145" x="927.5" y="852.9531"/>
      <ellipse cx="942.5" cy="868.9531" fill="#ADD1B2" rx="11" ry="11" style="stroke: #A80036; stroke-width: 1.0;"/>
      <path d="M945.4688,874.5938 Q944.8906,874.8906 944.25,875.0313 Q943.6094,875.1875 942.9063,875.1875 Q940.4063,875.1875 939.0781,873.5469 Q937.7656,871.8906 937.7656,868.7656 Q937.7656,865.6406 939.0781,863.9844 Q940.4063,862.3281 942.9063,862.3281 Q943.6094,862.3281 944.25,862.4844 Q944.9063,862.6406 945.4688,862.9375 L945.4688,865.6563 Q944.8438,865.0781 944.25,864.8125 Q943.6563,864.5313 943.0313,864.5313 Q941.6875,864.5313 941,865.6094 Q940.3125,866.6719 940.3125,868.7656 Q940.3125,870.8594 941,871.9375 Q941.6875,873 943.0313,873 Q943.6563,873 944.25,872.7344 Q944.8438,872.4531 945.4688,871.875 L945.4688,874.5938 Z "/>
      <text fill="#000000" font-family="sans-serif" font-size="12" lengthAdjust="spacingAndGlyphs" textLength="113" x="956.5" y="873.1074">function_template</text>
      <line style="stroke: #A80036; stroke-width: 1.5;" x1="928.5" x2="1071.5" y1="884.9531" y2="884.9531"/>
      <line style="stroke: #A80036; stroke-width: 1.5;" x1="928.5" x2="1071.5" y1="892.9531" y2="892.9531"/>
    </a>
    <a href="classclanguml_1_1sequence__diagram_1_1model_1_1message.html" target="_top" title="Model of a sequence diagram message." xlink:actuate="onRequest" xlink:href="classclanguml_1_1sequence__diagram_1_1model_1_1message.html" xlink:show="new" xlink:title="Model of a sequence diagram message." xlink:type="simple">
      <rect fill="#FEFECE" filter="url(#f12ol35vhdmten)" height="48" id="C_0002228653068706235818" style="stroke: #A80036; stroke-width: 1.5;" width="89" x="947.5" y="636.9531"/>
      <ellipse cx="962.5" cy="652.9531" fill="#ADD1B2" rx="11" ry="11" style="stroke: #A80036; stroke-width: 1.0;"/>
      <path d="M965.4688,658.5938 Q964.8906,658.8906 964.25,659.0313 Q963.6094,659.1875 962.9063,659.1875 Q960.4063,659.1875 959.0781,657.5469 Q957.7656,655.8906 957.7656,652.7656 Q957.7656,649.6406 959.0781,647.9844 Q960.4063,646.3281 962.9063,646.3281 Q963.6094,646.3281 964.25,646.4844 Q964.9063,646.6406 965.4688,646.9375 L965.4688,649.6563 Q964.8438,649.0781 964.25,648.8125 Q963.6563,648.5313 963.0313,648.5313 Q961.6875,648.5313 961,649.6094 Q960.3125,650.6719 960.3125,652.7656 Q960.3125,654.8594 961,655.9375 Q961.6875,657 963.0313,657 Q963.6563,657 964.25,656.7344 Q964.8438,656.4531 965.4688,655.875 L965.4688,658.5938 Z "/>
      <text fill="#000000" font-family="sans-serif" font-size="12" lengthAdjust="spacingAndGlyphs" textLength="57" x="976.5" y="657.1074">message</text>
      <line style="stroke: #A80036; stroke-width: 1.5;" x1="948.5" x2="1035.5" y1="668.9531" y2="668.9531"/>
      <line style="stroke: #A80036; stroke-width: 1.5;" x1="948.5" x2="1035.5" y1="676.9531" y2="676.9531"/>
    </a>
    <path d="M653.37,190.4931 C650.27,204.1831 646.95,218.8531 644.28,230.6331 " fill="none" id="C_0001117102382624673118&lt;-C_0002046336758797367926" style="stroke: #A80036; stroke-width: 1.0;"/>
    <polygon fill="none" points="646.55,188.9131,657.79,170.9531,660.2,192.0031,646.55,188.9131" style="stroke: #A80036; stroke-width: 1.0;"/>
    <path d="M708.05,183.5931 C727.66,199.1031 750.09,216.8431 767.52,230.6331 " fill="none" id="C_0001117102382624673118&lt;-C_0001073500714379115414" style="stroke: #A80036; stroke-width: 1.0;"/>
    <polygon fill="none" points="703.42,188.8531,692.08,170.9531,712.1,177.8731,703.42,188.8531" style="stroke: #A80036; stroke-width: 1.0;"/>
    <path d="M754.42,292.0531 C736.26,307.4531 715.6,324.9831 699.5,338.6331 " fill="none" id="C_0001073500714379115414&lt;-C_0002069520381434407937" style="stroke: #A80036; stroke-width: 1.0;"/>
    <polygon fill="none" points="750.1,286.5531,769.88,278.9531,759.15,297.2231,750.1,286.5531" style="stroke: #A80036; stroke-width: 1.0;"/>
    <path d="M672.41,406.9731 C672.53,420.5331 672.67,434.9931 672.78,446.6331 " fill="none" id="C_0002069520381434407937&lt;-C_0001673103894976412298" style="stroke: #A80036; stroke-width: 1.0;"/>
    <polygon fill="none" points="665.41,407.0231,672.22,386.9531,679.41,406.8831,665.41,407.0231" style="stroke: #A80036; stroke-width: 1.0;"/>
    <path d="M797.41,298.9731 C797.53,312.5331 797.67,326.9931 797.78,338.6331 " fill="none" id="C_0001073500714379115414&lt;-C_0000785714713072053129" style="stroke: #A80036; stroke-width: 1.0;"/>
    <polygon fill="none" points="790.41,299.0231,797.22,278.9531,804.41,298.8831,790.41,299.0231" style="stroke: #A80036; stroke-width: 1.0;"/>
    <path d="M721.49,398.4631 C744.21,414.3031 770.53,432.6631 790.82,446.8131 " fill="none" id="C_0002069520381434407937&lt;-C_0002143286684830686854" style="stroke: #A80036; stroke-width: 1.0;"/>
    <polygon fill="none" points="717.38,404.1331,704.98,386.9531,725.39,392.6531,717.38,404.1331" style="stroke: #A80036; stroke-width: 1.0;"/>
    <path d="M598.55,180.8331 C573.84,194.7731 546.06,212.1531 523,230.9531 C359.73,364.0631 204.66,568.3231 154.69,636.7331 " fill="none" id="C_0001117102382624673118&lt;-C_0000605669033368926050" style="stroke: #A80036; stroke-width: 1.0;"/>
    <polygon fill="none" points="595.4,174.5731,616.3,171.0931,602.14,186.8431,595.4,174.5731" style="stroke: #A80036; stroke-width: 1.0;"/>
    <path d="M616.6,184.0231 C600.52,197.7531 583.02,214.1531 569,230.9531 C452.24,370.9031 353.13,569.1031 320.97,636.4831 " fill="none" id="C_0001117102382624673118&lt;-C_0000605866861866358037" style="stroke: #A80036; stroke-width: 1.0;"/>
    <polygon fill="none" points="612.16,178.6131,632.04,171.2731,621.07,189.4131,612.16,178.6131" style="stroke: #A80036; stroke-width: 1.0;"/>
    <path d="M281.17,701.1331 C270.41,715.7531 258.54,731.8831 249.16,744.6331 " fill="none" id="C_0000605866861866358037&lt;-C_0001796282762108527255" style="stroke: #A80036; stroke-width: 1.0;"/>
    <polygon fill="none" points="275.58,696.9131,293.08,684.9531,286.86,705.2131,275.58,696.9131" style="stroke: #A80036; stroke-width: 1.0;"/>
    <path d="M338.81,701.6131 C349.34,716.1031 360.9,732.0231 370.06,744.6331 " fill="none" id="C_0000605866861866358037&lt;-C_0000204145716468348671" style="stroke: #A80036; stroke-width: 1.0;"/>
    <polygon fill="none" points="332.8,705.2531,326.71,684.9531,344.13,697.0231,332.8,705.2531" style="stroke: #A80036; stroke-width: 1.0;"/>
    <path d="M673,515.1631 C673,552.9731 673,606.4531 673,636.7131 " fill="none" id="C_0001673103894976412298&lt;-C_0001292034357466653182" style="stroke: #A80036; stroke-width: 1.0;"/>
    <polygon fill="none" points="666,515.0031,673,495.0031,680,515.0031,666,515.0031" style="stroke: #A80036; stroke-width: 1.0;"/>
    <path d="M613.11,395.9831 C591.89,409.6131 569.02,427.0031 552,446.9531 C501.32,506.3831 469.58,595.3131 456.66,636.9331 " fill="none" id="C_0002069520381434407937&lt;-C_0001374849051752224500" style="stroke: #A80036; stroke-width: 1.0;"/>
    <polygon fill="none" points="609.65,389.8831,630.37,385.4331,616.95,401.8331,609.65,389.8831" style="stroke: #A80036; stroke-width: 1.0;"/>
    <path d="M620.56,400.1131 C605.93,413.1331 591.64,429.0731 583,446.9531 C552.51,510.0831 557.77,596.0931 562.62,636.7931 " fill="none" id="C_0002069520381434407937&lt;-C_0000724392977093650506" style="stroke: #A80036; stroke-width: 1.0;"/>
    <polygon fill="none" points="616.42,394.4631,636.32,387.1931,625.3,405.2831,616.42,394.4631" style="stroke: #A80036; stroke-width: 1.0;"/>
    <path d="M710.45,509.2131 C748.61,547.1631 806.58,604.8231 838.64,636.7131 " fill="none" id="C_0001673103894976412298&lt;-C_0001400215772842495226" style="stroke: #A80036; stroke-width: 1.0;"/>
    <polygon fill="none" points="705.42,514.0731,696.18,495.0031,715.29,504.1431,705.42,514.0731" style="stroke: #A80036; stroke-width: 1.0;"/>
    <path d="M858.75,704.9731 C857.73,718.5331 856.64,732.9931 855.76,744.6331 " fill="none" id="C_0001400215772842495226&lt;-C_0000885514871619471610" style="stroke: #A80036; stroke-width: 1.0;"/>
    <polygon fill="none" points="851.78,704.3731,860.26,684.9531,865.74,705.4231,851.78,704.3731" style="stroke: #A80036; stroke-width: 1.0;"/>
    <path d="M898.58,699.2331 C913.4,714.3431 930.07,731.3331 943.12,744.6331 " fill="none" id="C_0001400215772842495226&lt;-C_0000232638456031681828" style="stroke: #A80036; stroke-width: 1.0;"/>
    <polygon fill="none" points="893.58,704.1331,884.57,684.9531,903.57,694.3231,893.58,704.1331" style="stroke: #A80036; stroke-width: 1.0;"/>
    <path d="M937.3,808.9031 C928.25,819.9031 917.78,831.4531 907,840.9531 C902.24,845.1431 896.94,849.1731 891.55,852.9131 " fill="none" id="C_0000232638456031681828&lt;-C_0000817665972547784504" style="stroke: #A80036; stroke-width: 1.0;"/>
    <polygon fill="none" points="931.95,804.3731,949.8,792.9631,942.96,813.0131,931.95,804.3731" style="stroke: #A80036; stroke-width: 1.0;"/>
    <path d="M979.49,812.0131 C983.93,825.8431 988.7,840.7131 992.52,852.6331 " fill="none" id="C_0000232638456031681828&lt;-C_0002280191967493310558" style="stroke: #A80036; stroke-width: 1.0;"/>
    <polygon fill="none" points="972.82,814.1331,973.38,792.9531,986.15,809.8631,972.82,814.1331" style="stroke: #A80036; stroke-width: 1.0;"/>
    <path d="M832.62,294.3431 C843.94,307.7931 855.87,323.4231 865,338.9531 C926.21,443.0531 969.74,582.1531 985.51,636.6531 " fill="none" id="C_0001073500714379115414&lt;-C_0002228653068706235818" style="stroke: #A80036; stroke-width: 1.0;"/>
    <polygon fill="none" points="827.25,298.8331,819.35,279.1731,837.79,289.6131,827.25,298.8331" style="stroke: #A80036; stroke-width: 1.0;"/>
  </g>
</svg>
