<svg xmlns="http://www.w3.org/2000/svg" xmlns:xlink="http://www.w3.org/1999/xlink" contentScriptType="application/ecmascript" contentStyleType="text/css" height="452px" preserveAspectRatio="none" style="width:2725px;height:452px;" version="1.1" viewBox="0 0 2725 452" width="2725px" zoomAndPan="magnify">
  <defs>
    <filter height="300%" id="fsljo24e5oilr" width="300%" x="-1" y="-1">
      <feGaussianBlur result="blurOut" stdDeviation="2.0"/>
      <feColorMatrix in="blurOut" result="blurOut2" type="matrix" values="0 0 0 0 0 0 0 0 0 0 0 0 0 0 0 0 0 0 .4 0"/>
      <feOffset dx="4.0" dy="4.0" in="blurOut2" result="blurOut3"/>
      <feBlend in="SourceGraphic" in2="blurOut3" mode="normal"/>
    </filter>
    <style type="text/css">a:hover { text-decoration: underline; }</style>
  </defs>
  <g>
    <text fill="#000000" font-family="sans-serif" font-size="18" lengthAdjust="spacingAndGlyphs" textLength="315" x="1209" y="16.708">Diagram element decorators model</text>
    <a href="structclanguml_1_1decorators_1_1decorator__toks.html" target="_top" title="decorator_toks" xlink:actuate="onRequest" xlink:href="structclanguml_1_1decorators_1_1decorator__toks.html" xlink:show="new" xlink:title="decorator_toks" xlink:type="simple">
      <rect fill="#FEFECE" filter="url(#fsljo24e5oilr)" height="99.2188" id="C_0000532301235174338361" style="stroke: #A80036; stroke-width: 1.5;" width="230" x="6" y="208.9531"/>
      <ellipse cx="69.25" cy="224.9531" fill="#ADD1B2" rx="11" ry="11" style="stroke: #A80036; stroke-width: 1.0;"/>
      <path d="M72.2188,230.5938 Q71.6406,230.8906 71,231.0313 Q70.3594,231.1875 69.6563,231.1875 Q67.1563,231.1875 65.8281,229.5469 Q64.5156,227.8906 64.5156,224.7656 Q64.5156,221.6406 65.8281,219.9844 Q67.1563,218.3281 69.6563,218.3281 Q70.3594,218.3281 71,218.4844 Q71.6563,218.6406 72.2188,218.9375 L72.2188,221.6563 Q71.5938,221.0781 71,220.8125 Q70.4063,220.5313 69.7813,220.5313 Q68.4375,220.5313 67.75,221.6094 Q67.0625,222.6719 67.0625,224.7656 Q67.0625,226.8594 67.75,227.9375 Q68.4375,229 69.7813,229 Q70.4063,229 71,228.7344 Q71.5938,228.4531 72.2188,227.875 L72.2188,230.5938 Z "/>
      <text fill="#000000" font-family="sans-serif" font-size="12" lengthAdjust="spacingAndGlyphs" textLength="95" x="89.75" y="229.1074">decorator_toks</text>
      <line style="stroke: #A80036; stroke-width: 1.5;" x1="7" x2="235" y1="240.9531" y2="240.9531"/>
      <line style="stroke: #A80036; stroke-width: 1.5;" x1="7" x2="235" y1="248.9531" y2="248.9531"/>
    </a>
    <a href="" target="_top" title="diagrams" xlink:actuate="onRequest" xlink:href="" xlink:show="new" xlink:title="diagrams" xlink:type="simple">
      <rect fill="#FEFECE" height="10" style="stroke: none; stroke-width: 1.0;" width="20" x="12" y="254.9531"/>
      <ellipse cx="17" cy="259.9531" fill="none" rx="3" ry="3" style="stroke: #038048; stroke-width: 1.0;"/>
    </a>
    <a href="" target="_top" title="diagrams" xlink:actuate="onRequest" xlink:href="" xlink:show="new" xlink:title="diagrams" xlink:type="simple">
      <text fill="#000000" font-family="sans-serif" font-size="11" lengthAdjust="spacingAndGlyphs" textLength="204" x="26" y="263.1636">diagrams : std::vector&lt;std::string&gt;</text>
    </a>
    <a href="" target="_top" title="label" xlink:actuate="onRequest" xlink:href="" xlink:show="new" xlink:title="label" xlink:type="simple">
      <rect fill="#FEFECE" height="10" style="stroke: none; stroke-width: 1.0;" width="20" x="12" y="267.7578"/>
      <ellipse cx="17" cy="272.7578" fill="none" rx="3" ry="3" style="stroke: #038048; stroke-width: 1.0;"/>
    </a>
    <a href="" target="_top" title="label" xlink:actuate="onRequest" xlink:href="" xlink:show="new" xlink:title="label" xlink:type="simple">
      <text fill="#000000" font-family="sans-serif" font-size="11" lengthAdjust="spacingAndGlyphs" textLength="98" x="26" y="275.9683">label : std::string</text>
    </a>
    <a href="" target="_top" title="param" xlink:actuate="onRequest" xlink:href="" xlink:show="new" xlink:title="param" xlink:type="simple">
      <rect fill="#FEFECE" height="10" style="stroke: none; stroke-width: 1.0;" width="20" x="12" y="280.5625"/>
      <ellipse cx="17" cy="285.5625" fill="none" rx="3" ry="3" style="stroke: #038048; stroke-width: 1.0;"/>
    </a>
    <a href="" target="_top" title="param" xlink:actuate="onRequest" xlink:href="" xlink:show="new" xlink:title="param" xlink:type="simple">
      <text fill="#000000" font-family="sans-serif" font-size="11" lengthAdjust="spacingAndGlyphs" textLength="108" x="26" y="288.7729">param : std::string</text>
    </a>
    <a href="" target="_top" title="text" xlink:actuate="onRequest" xlink:href="" xlink:show="new" xlink:title="text" xlink:type="simple">
      <rect fill="#FEFECE" height="10" style="stroke: none; stroke-width: 1.0;" width="20" x="12" y="293.3672"/>
      <ellipse cx="17" cy="298.3672" fill="none" rx="3" ry="3" style="stroke: #038048; stroke-width: 1.0;"/>
    </a>
    <a href="" target="_top" title="text" xlink:actuate="onRequest" xlink:href="" xlink:show="new" xlink:title="text" xlink:type="simple">
      <text fill="#000000" font-family="sans-serif" font-size="11" lengthAdjust="spacingAndGlyphs" textLength="92" x="26" y="301.5776">text : std::string</text>
    </a>
    <a href="structclanguml_1_1decorators_1_1decorator.html" target="_top" title="Base class for clang-uml comment tags" xlink:actuate="onRequest" xlink:href="structclanguml_1_1decorators_1_1decorator.html" xlink:show="new" xlink:title="Base class for clang-uml comment tags" xlink:type="simple">
      <rect fill="#FEFECE" filter="url(#fsljo24e5oilr)" height="120.0234" id="C_0001039481254924641333" style="stroke: #A80036; stroke-width: 1.5;" width="424" x="1590" y="28.9531"/>
      <ellipse cx="1766.75" cy="44.9531" fill="#ADD1B2" rx="11" ry="11" style="stroke: #A80036; stroke-width: 1.0;"/>
      <path d="M1769.7188,50.5938 Q1769.1406,50.8906 1768.5,51.0313 Q1767.8594,51.1875 1767.1563,51.1875 Q1764.6563,51.1875 1763.3281,49.5469 Q1762.0156,47.8906 1762.0156,44.7656 Q1762.0156,41.6406 1763.3281,39.9844 Q1764.6563,38.3281 1767.1563,38.3281 Q1767.8594,38.3281 1768.5,38.4844 Q1769.1563,38.6406 1769.7188,38.9375 L1769.7188,41.6563 Q1769.0938,41.0781 1768.5,40.8125 Q1767.9063,40.5313 1767.2813,40.5313 Q1765.9375,40.5313 1765.25,41.6094 Q1764.5625,42.6719 1764.5625,44.7656 Q1764.5625,46.8594 1765.25,47.9375 Q1765.9375,49 1767.2813,49 Q1767.9063,49 1768.5,48.7344 Q1769.0938,48.4531 1769.7188,47.875 L1769.7188,50.5938 Z "/>
      <text fill="#000000" font-family="sans-serif" font-size="12" lengthAdjust="spacingAndGlyphs" textLength="62" x="1787.25" y="49.1074">decorator</text>
      <line style="stroke: #A80036; stroke-width: 1.5;" x1="1591" x2="2013" y1="60.9531" y2="60.9531"/>
    </a>
    <a href="" target="_top" title="~decorator" xlink:actuate="onRequest" xlink:href="" xlink:show="new" xlink:title="~decorator" xlink:type="simple">
      <rect fill="#FEFECE" height="10" style="stroke: none; stroke-width: 1.0;" width="20" x="1596" y="66.9531"/>
      <ellipse cx="1601" cy="71.9531" fill="#84BE84" rx="3" ry="3" style="stroke: #038048; stroke-width: 1.0;"/>
    </a>
    <a href="" target="_top" title="~decorator" xlink:actuate="onRequest" xlink:href="" xlink:show="new" xlink:title="~decorator" xlink:type="simple">
      <text fill="#000000" font-family="sans-serif" font-size="11" lengthAdjust="spacingAndGlyphs" textLength="163" x="1610" y="75.1636">~decorator() = default : void</text>
    </a>
    <line style="stroke: #A80036; stroke-width: 1.0; stroke-dasharray: 1.0,2.0;" x1="1591" x2="2013" y1="81.7578" y2="81.7578"/>
    <a href="" target="_top" title="Check if decorator applies to a specific diagram." xlink:actuate="onRequest" xlink:href="" xlink:show="new" xlink:title="Check if decorator applies to a specific diagram." xlink:type="simple">
      <rect fill="#FEFECE" height="10" style="stroke: none; stroke-width: 1.0;" width="20" x="1596" y="87.7578"/>
      <ellipse cx="1601" cy="92.7578" fill="#84BE84" rx="3" ry="3" style="stroke: #038048; stroke-width: 1.0;"/>
    </a>
    <a href="" target="_top" title="Check if decorator applies to a specific diagram." xlink:actuate="onRequest" xlink:href="" xlink:show="new" xlink:title="Check if decorator applies to a specific diagram." xlink:type="simple">
      <text fill="#000000" font-family="sans-serif" font-size="11" lengthAdjust="spacingAndGlyphs" textLength="299" x="1610" y="95.9683">applies_to_diagram(const std::string &amp; name) : bool</text>
    </a>
    <a href="" target="_top" title="Create decorator of specific type based on it's string         representation." xlink:actuate="onRequest" xlink:href="" xlink:show="new" xlink:title="Create decorator of specific type based on it's string         representation." xlink:type="simple">
      <rect fill="#FEFECE" height="10" style="stroke: none; stroke-width: 1.0;" width="20" x="1596" y="100.5625"/>
      <ellipse cx="1601" cy="105.5625" fill="#84BE84" rx="3" ry="3" style="stroke: #038048; stroke-width: 1.0;"/>
    </a>
    <a href="" target="_top" title="Create decorator of specific type based on it's string         representation." xlink:actuate="onRequest" xlink:href="" xlink:show="new" xlink:title="Create decorator of specific type based on it's string         representation." xlink:type="simple">
      <text fill="#000000" font-family="sans-serif" font-size="11" lengthAdjust="spacingAndGlyphs" text-decoration="underline" textLength="347" x="1610" y="108.7729">from_string(std::string_view c) : std::shared_ptr&lt;decorator&gt;</text>
    </a>
    <a href="" target="_top" title="tokenize" xlink:actuate="onRequest" xlink:href="" xlink:show="new" xlink:title="tokenize" xlink:type="simple">
      <rect fill="#FEFECE" height="10" style="stroke: none; stroke-width: 1.0;" width="20" x="1596" y="113.3672"/>
      <polygon fill="#FFFF44" points="1601,113.3672,1605,117.3672,1601,121.3672,1597,117.3672" style="stroke: #B38D22; stroke-width: 1.0;"/>
    </a>
    <a href="" target="_top" title="tokenize" xlink:actuate="onRequest" xlink:href="" xlink:show="new" xlink:title="tokenize" xlink:type="simple">
      <text fill="#000000" font-family="sans-serif" font-size="11" lengthAdjust="spacingAndGlyphs" textLength="398" x="1610" y="121.5776">tokenize(const std::string &amp; label, std::string_view c) : decorator_toks</text>
    </a>
    <line style="stroke: #A80036; stroke-width: 1.5;" x1="1591" x2="2013" y1="128.1719" y2="128.1719"/>
    <a href="" target="_top" title="diagrams" xlink:actuate="onRequest" xlink:href="" xlink:show="new" xlink:title="diagrams" xlink:type="simple">
      <rect fill="#FEFECE" height="10" style="stroke: none; stroke-width: 1.0;" width="20" x="1596" y="134.1719"/>
      <ellipse cx="1601" cy="139.1719" fill="none" rx="3" ry="3" style="stroke: #038048; stroke-width: 1.0;"/>
    </a>
    <a href="" target="_top" title="diagrams" xlink:actuate="onRequest" xlink:href="" xlink:show="new" xlink:title="diagrams" xlink:type="simple">
      <text fill="#000000" font-family="sans-serif" font-size="11" lengthAdjust="spacingAndGlyphs" textLength="204" x="1610" y="142.3823">diagrams : std::vector&lt;std::string&gt;</text>
    </a>
    <a href="structclanguml_1_1decorators_1_1note.html" target="_top" title="Represents a note diagram element" xlink:actuate="onRequest" xlink:href="structclanguml_1_1decorators_1_1note.html" xlink:show="new" xlink:title="Represents a note diagram element" xlink:type="simple">
      <rect fill="#FEFECE" filter="url(#fsljo24e5oilr)" height="99.2188" id="C_0001347272482812804274" style="stroke: #A80036; stroke-width: 1.5;" width="373" x="271.5" y="208.9531"/>
      <ellipse cx="439.25" cy="224.9531" fill="#ADD1B2" rx="11" ry="11" style="stroke: #A80036; stroke-width: 1.0;"/>
      <path d="M442.2188,230.5938 Q441.6406,230.8906 441,231.0313 Q440.3594,231.1875 439.6563,231.1875 Q437.1563,231.1875 435.8281,229.5469 Q434.5156,227.8906 434.5156,224.7656 Q434.5156,221.6406 435.8281,219.9844 Q437.1563,218.3281 439.6563,218.3281 Q440.3594,218.3281 441,218.4844 Q441.6563,218.6406 442.2188,218.9375 L442.2188,221.6563 Q441.5938,221.0781 441,220.8125 Q440.4063,220.5313 439.7813,220.5313 Q438.4375,220.5313 437.75,221.6094 Q437.0625,222.6719 437.0625,224.7656 Q437.0625,226.8594 437.75,227.9375 Q438.4375,229 439.7813,229 Q440.4063,229 441,228.7344 Q441.5938,228.4531 442.2188,227.875 L442.2188,230.5938 Z "/>
      <text fill="#000000" font-family="sans-serif" font-size="12" lengthAdjust="spacingAndGlyphs" textLength="29" x="459.75" y="229.1074">note</text>
      <line style="stroke: #A80036; stroke-width: 1.5;" x1="272.5" x2="643.5" y1="240.9531" y2="240.9531"/>
    </a>
    <a href="" target="_top" title="from_string" xlink:actuate="onRequest" xlink:href="" xlink:show="new" xlink:title="from_string" xlink:type="simple">
      <rect fill="#FEFECE" height="10" style="stroke: none; stroke-width: 1.0;" width="20" x="277.5" y="246.9531"/>
      <ellipse cx="282.5" cy="251.9531" fill="#84BE84" rx="3" ry="3" style="stroke: #038048; stroke-width: 1.0;"/>
    </a>
    <a href="" target="_top" title="from_string" xlink:actuate="onRequest" xlink:href="" xlink:show="new" xlink:title="from_string" xlink:type="simple">
      <text fill="#000000" font-family="sans-serif" font-size="11" lengthAdjust="spacingAndGlyphs" text-decoration="underline" textLength="347" x="291.5" y="255.1636">from_string(std::string_view c) : std::shared_ptr&lt;decorator&gt;</text>
    </a>
    <line style="stroke: #A80036; stroke-width: 1.5;" x1="272.5" x2="643.5" y1="261.7578" y2="261.7578"/>
    <a href="" target="_top" title="label" xlink:actuate="onRequest" xlink:href="" xlink:show="new" xlink:title="label" xlink:type="simple">
      <rect fill="#FEFECE" height="10" style="stroke: none; stroke-width: 1.0;" width="20" x="277.5" y="267.7578"/>
      <ellipse cx="282.5" cy="272.7578" fill="none" rx="3" ry="3" style="stroke: #038048; stroke-width: 1.0;"/>
    </a>
    <a href="" target="_top" title="label" xlink:actuate="onRequest" xlink:href="" xlink:show="new" xlink:title="label" xlink:type="simple">
      <text fill="#000000" font-family="sans-serif" font-size="11" lengthAdjust="spacingAndGlyphs" text-decoration="underline" textLength="133" x="291.5" y="275.9683">label : const std::string</text>
    </a>
    <a href="" target="_top" title="position" xlink:actuate="onRequest" xlink:href="" xlink:show="new" xlink:title="position" xlink:type="simple">
      <rect fill="#FEFECE" height="10" style="stroke: none; stroke-width: 1.0;" width="20" x="277.5" y="280.5625"/>
      <ellipse cx="282.5" cy="285.5625" fill="none" rx="3" ry="3" style="stroke: #038048; stroke-width: 1.0;"/>
    </a>
    <a href="" target="_top" title="position" xlink:actuate="onRequest" xlink:href="" xlink:show="new" xlink:title="position" xlink:type="simple">
      <text fill="#000000" font-family="sans-serif" font-size="11" lengthAdjust="spacingAndGlyphs" textLength="116" x="291.5" y="288.7729">position : std::string</text>
    </a>
    <a href="" target="_top" title="text" xlink:actuate="onRequest" xlink:href="" xlink:show="new" xlink:title="text" xlink:type="simple">
      <rect fill="#FEFECE" height="10" style="stroke: none; stroke-width: 1.0;" width="20" x="277.5" y="293.3672"/>
      <ellipse cx="282.5" cy="298.3672" fill="none" rx="3" ry="3" style="stroke: #038048; stroke-width: 1.0;"/>
    </a>
    <a href="" target="_top" title="text" xlink:actuate="onRequest" xlink:href="" xlink:show="new" xlink:title="text" xlink:type="simple">
      <text fill="#000000" font-family="sans-serif" font-size="11" lengthAdjust="spacingAndGlyphs" textLength="92" x="291.5" y="301.5776">text : std::string</text>
    </a>
    <a href="structclanguml_1_1decorators_1_1skip.html" target="_top" title="Whether a decorated element should be skipped from a diagram" xlink:actuate="onRequest" xlink:href="structclanguml_1_1decorators_1_1skip.html" xlink:show="new" xlink:title="Whether a decorated element should be skipped from a diagram" xlink:type="simple">
      <rect fill="#FEFECE" filter="url(#fsljo24e5oilr)" height="73.6094" id="C_0001462474947254948682" style="stroke: #A80036; stroke-width: 1.5;" width="373" x="679.5" y="221.4531"/>
      <ellipse cx="849.25" cy="237.4531" fill="#ADD1B2" rx="11" ry="11" style="stroke: #A80036; stroke-width: 1.0;"/>
      <path d="M852.2188,243.0938 Q851.6406,243.3906 851,243.5313 Q850.3594,243.6875 849.6563,243.6875 Q847.1563,243.6875 845.8281,242.0469 Q844.5156,240.3906 844.5156,237.2656 Q844.5156,234.1406 845.8281,232.4844 Q847.1563,230.8281 849.6563,230.8281 Q850.3594,230.8281 851,230.9844 Q851.6563,231.1406 852.2188,231.4375 L852.2188,234.1563 Q851.5938,233.5781 851,233.3125 Q850.4063,233.0313 849.7813,233.0313 Q848.4375,233.0313 847.75,234.1094 Q847.0625,235.1719 847.0625,237.2656 Q847.0625,239.3594 847.75,240.4375 Q848.4375,241.5 849.7813,241.5 Q850.4063,241.5 851,241.2344 Q851.5938,240.9531 852.2188,240.375 L852.2188,243.0938 Z "/>
      <text fill="#000000" font-family="sans-serif" font-size="12" lengthAdjust="spacingAndGlyphs" textLength="25" x="869.75" y="241.6074">skip</text>
      <line style="stroke: #A80036; stroke-width: 1.5;" x1="680.5" x2="1051.5" y1="253.4531" y2="253.4531"/>
    </a>
    <a href="" target="_top" title="from_string" xlink:actuate="onRequest" xlink:href="" xlink:show="new" xlink:title="from_string" xlink:type="simple">
      <rect fill="#FEFECE" height="10" style="stroke: none; stroke-width: 1.0;" width="20" x="685.5" y="259.4531"/>
      <ellipse cx="690.5" cy="264.4531" fill="#84BE84" rx="3" ry="3" style="stroke: #038048; stroke-width: 1.0;"/>
    </a>
    <a href="" target="_top" title="from_string" xlink:actuate="onRequest" xlink:href="" xlink:show="new" xlink:title="from_string" xlink:type="simple">
      <text fill="#000000" font-family="sans-serif" font-size="11" lengthAdjust="spacingAndGlyphs" text-decoration="underline" textLength="347" x="699.5" y="267.6636">from_string(std::string_view c) : std::shared_ptr&lt;decorator&gt;</text>
    </a>
    <line style="stroke: #A80036; stroke-width: 1.5;" x1="680.5" x2="1051.5" y1="274.2578" y2="274.2578"/>
    <a href="" target="_top" title="label" xlink:actuate="onRequest" xlink:href="" xlink:show="new" xlink:title="label" xlink:type="simple">
      <rect fill="#FEFECE" height="10" style="stroke: none; stroke-width: 1.0;" width="20" x="685.5" y="280.2578"/>
      <ellipse cx="690.5" cy="285.2578" fill="none" rx="3" ry="3" style="stroke: #038048; stroke-width: 1.0;"/>
    </a>
    <a href="" target="_top" title="label" xlink:actuate="onRequest" xlink:href="" xlink:show="new" xlink:title="label" xlink:type="simple">
      <text fill="#000000" font-family="sans-serif" font-size="11" lengthAdjust="spacingAndGlyphs" text-decoration="underline" textLength="133" x="699.5" y="288.4683">label : const std::string</text>
    </a>
    <a href="structclanguml_1_1decorators_1_1skip__relationship.html" target="_top" title="Whether a decorated relationships should be skipped from a diagram" xlink:actuate="onRequest" xlink:href="structclanguml_1_1decorators_1_1skip__relationship.html" xlink:show="new" xlink:title="Whether a decorated relationships should be skipped from a diagram" xlink:type="simple">
      <rect fill="#FEFECE" filter="url(#fsljo24e5oilr)" height="73.6094" id="C_0000685427930366073750" style="stroke: #A80036; stroke-width: 1.5;" width="373" x="1087.5" y="221.4531"/>
      <ellipse cx="1217.25" cy="237.4531" fill="#ADD1B2" rx="11" ry="11" style="stroke: #A80036; stroke-width: 1.0;"/>
      <path d="M1220.2188,243.0938 Q1219.6406,243.3906 1219,243.5313 Q1218.3594,243.6875 1217.6563,243.6875 Q1215.1563,243.6875 1213.8281,242.0469 Q1212.5156,240.3906 1212.5156,237.2656 Q1212.5156,234.1406 1213.8281,232.4844 Q1215.1563,230.8281 1217.6563,230.8281 Q1218.3594,230.8281 1219,230.9844 Q1219.6563,231.1406 1220.2188,231.4375 L1220.2188,234.1563 Q1219.5938,233.5781 1219,233.3125 Q1218.4063,233.0313 1217.7813,233.0313 Q1216.4375,233.0313 1215.75,234.1094 Q1215.0625,235.1719 1215.0625,237.2656 Q1215.0625,239.3594 1215.75,240.4375 Q1216.4375,241.5 1217.7813,241.5 Q1218.4063,241.5 1219,241.2344 Q1219.5938,240.9531 1220.2188,240.375 L1220.2188,243.0938 Z "/>
      <text fill="#000000" font-family="sans-serif" font-size="12" lengthAdjust="spacingAndGlyphs" textLength="105" x="1237.75" y="241.6074">skip_relationship</text>
      <line style="stroke: #A80036; stroke-width: 1.5;" x1="1088.5" x2="1459.5" y1="253.4531" y2="253.4531"/>
    </a>
    <a href="" target="_top" title="from_string" xlink:actuate="onRequest" xlink:href="" xlink:show="new" xlink:title="from_string" xlink:type="simple">
      <rect fill="#FEFECE" height="10" style="stroke: none; stroke-width: 1.0;" width="20" x="1093.5" y="259.4531"/>
      <ellipse cx="1098.5" cy="264.4531" fill="#84BE84" rx="3" ry="3" style="stroke: #038048; stroke-width: 1.0;"/>
    </a>
    <a href="" target="_top" title="from_string" xlink:actuate="onRequest" xlink:href="" xlink:show="new" xlink:title="from_string" xlink:type="simple">
      <text fill="#000000" font-family="sans-serif" font-size="11" lengthAdjust="spacingAndGlyphs" text-decoration="underline" textLength="347" x="1107.5" y="267.6636">from_string(std::string_view c) : std::shared_ptr&lt;decorator&gt;</text>
    </a>
    <line style="stroke: #A80036; stroke-width: 1.5;" x1="1088.5" x2="1459.5" y1="274.2578" y2="274.2578"/>
    <a href="" target="_top" title="label" xlink:actuate="onRequest" xlink:href="" xlink:show="new" xlink:title="label" xlink:type="simple">
      <rect fill="#FEFECE" height="10" style="stroke: none; stroke-width: 1.0;" width="20" x="1093.5" y="280.2578"/>
      <ellipse cx="1098.5" cy="285.2578" fill="none" rx="3" ry="3" style="stroke: #038048; stroke-width: 1.0;"/>
    </a>
    <a href="" target="_top" title="label" xlink:actuate="onRequest" xlink:href="" xlink:show="new" xlink:title="label" xlink:type="simple">
      <text fill="#000000" font-family="sans-serif" font-size="11" lengthAdjust="spacingAndGlyphs" text-decoration="underline" textLength="133" x="1107.5" y="288.4683">label : const std::string</text>
    </a>
    <a href="structclanguml_1_1decorators_1_1style.html" target="_top" title="Apply specific style to a decorated diagram element" xlink:actuate="onRequest" xlink:href="structclanguml_1_1decorators_1_1style.html" xlink:show="new" xlink:title="Apply specific style to a decorated diagram element" xlink:type="simple">
      <rect fill="#FEFECE" filter="url(#fsljo24e5oilr)" height="86.4141" id="C_0000116269747867995555" style="stroke: #A80036; stroke-width: 1.5;" width="373" x="1495.5" y="215.4531"/>
      <ellipse cx="1663.25" cy="231.4531" fill="#ADD1B2" rx="11" ry="11" style="stroke: #A80036; stroke-width: 1.0;"/>
      <path d="M1666.2188,237.0938 Q1665.6406,237.3906 1665,237.5313 Q1664.3594,237.6875 1663.6563,237.6875 Q1661.1563,237.6875 1659.8281,236.0469 Q1658.5156,234.3906 1658.5156,231.2656 Q1658.5156,228.1406 1659.8281,226.4844 Q1661.1563,224.8281 1663.6563,224.8281 Q1664.3594,224.8281 1665,224.9844 Q1665.6563,225.1406 1666.2188,225.4375 L1666.2188,228.1563 Q1665.5938,227.5781 1665,227.3125 Q1664.4063,227.0313 1663.7813,227.0313 Q1662.4375,227.0313 1661.75,228.1094 Q1661.0625,229.1719 1661.0625,231.2656 Q1661.0625,233.3594 1661.75,234.4375 Q1662.4375,235.5 1663.7813,235.5 Q1664.4063,235.5 1665,235.2344 Q1665.5938,234.9531 1666.2188,234.375 L1666.2188,237.0938 Z "/>
      <text fill="#000000" font-family="sans-serif" font-size="12" lengthAdjust="spacingAndGlyphs" textLength="29" x="1683.75" y="235.6074">style</text>
      <line style="stroke: #A80036; stroke-width: 1.5;" x1="1496.5" x2="1867.5" y1="247.4531" y2="247.4531"/>
    </a>
    <a href="" target="_top" title="from_string" xlink:actuate="onRequest" xlink:href="" xlink:show="new" xlink:title="from_string" xlink:type="simple">
      <rect fill="#FEFECE" height="10" style="stroke: none; stroke-width: 1.0;" width="20" x="1501.5" y="253.4531"/>
      <ellipse cx="1506.5" cy="258.4531" fill="#84BE84" rx="3" ry="3" style="stroke: #038048; stroke-width: 1.0;"/>
    </a>
    <a href="" target="_top" title="from_string" xlink:actuate="onRequest" xlink:href="" xlink:show="new" xlink:title="from_string" xlink:type="simple">
      <text fill="#000000" font-family="sans-serif" font-size="11" lengthAdjust="spacingAndGlyphs" text-decoration="underline" textLength="347" x="1515.5" y="261.6636">from_string(std::string_view c) : std::shared_ptr&lt;decorator&gt;</text>
    </a>
    <line style="stroke: #A80036; stroke-width: 1.5;" x1="1496.5" x2="1867.5" y1="268.2578" y2="268.2578"/>
    <a href="" target="_top" title="label" xlink:actuate="onRequest" xlink:href="" xlink:show="new" xlink:title="label" xlink:type="simple">
      <rect fill="#FEFECE" height="10" style="stroke: none; stroke-width: 1.0;" width="20" x="1501.5" y="274.2578"/>
      <ellipse cx="1506.5" cy="279.2578" fill="none" rx="3" ry="3" style="stroke: #038048; stroke-width: 1.0;"/>
    </a>
    <a href="" target="_top" title="label" xlink:actuate="onRequest" xlink:href="" xlink:show="new" xlink:title="label" xlink:type="simple">
      <text fill="#000000" font-family="sans-serif" font-size="11" lengthAdjust="spacingAndGlyphs" text-decoration="underline" textLength="133" x="1515.5" y="282.4683">label : const std::string</text>
    </a>
    <a href="" target="_top" title="spec" xlink:actuate="onRequest" xlink:href="" xlink:show="new" xlink:title="spec" xlink:type="simple">
      <rect fill="#FEFECE" height="10" style="stroke: none; stroke-width: 1.0;" width="20" x="1501.5" y="287.0625"/>
      <ellipse cx="1506.5" cy="292.0625" fill="none" rx="3" ry="3" style="stroke: #038048; stroke-width: 1.0;"/>
    </a>
    <a href="" target="_top" title="spec" xlink:actuate="onRequest" xlink:href="" xlink:show="new" xlink:title="spec" xlink:type="simple">
      <text fill="#000000" font-family="sans-serif" font-size="11" lengthAdjust="spacingAndGlyphs" textLength="98" x="1515.5" y="295.2729">spec : std::string</text>
    </a>
    <a href="structclanguml_1_1decorators_1_1relationship.html" target="_top" title="Base class for decorators overriding default relationship types" xlink:actuate="onRequest" xlink:href="structclanguml_1_1decorators_1_1relationship.html" xlink:show="new" xlink:title="Base class for decorators overriding default relationship types" xlink:type="simple">
      <rect fill="#FEFECE" filter="url(#fsljo24e5oilr)" height="60.8047" id="C_0001576276283144132872" style="stroke: #A80036; stroke-width: 1.5;" width="157" x="1975.5" y="227.9531"/>
      <ellipse cx="2013.45" cy="243.9531" fill="#ADD1B2" rx="11" ry="11" style="stroke: #A80036; stroke-width: 1.0;"/>
      <path d="M2016.4188,249.5938 Q2015.8406,249.8906 2015.2,250.0313 Q2014.5594,250.1875 2013.8563,250.1875 Q2011.3563,250.1875 2010.0281,248.5469 Q2008.7156,246.8906 2008.7156,243.7656 Q2008.7156,240.6406 2010.0281,238.9844 Q2011.3563,237.3281 2013.8563,237.3281 Q2014.5594,237.3281 2015.2,237.4844 Q2015.8563,237.6406 2016.4188,237.9375 L2016.4188,240.6563 Q2015.7938,240.0781 2015.2,239.8125 Q2014.6063,239.5313 2013.9813,239.5313 Q2012.6375,239.5313 2011.95,240.6094 Q2011.2625,241.6719 2011.2625,243.7656 Q2011.2625,245.8594 2011.95,246.9375 Q2012.6375,248 2013.9813,248 Q2014.6063,248 2015.2,247.7344 Q2015.7938,247.4531 2016.4188,246.875 L2016.4188,249.5938 Z "/>
      <text fill="#000000" font-family="sans-serif" font-size="12" lengthAdjust="spacingAndGlyphs" textLength="74" x="2032.55" y="248.1074">relationship</text>
      <line style="stroke: #A80036; stroke-width: 1.5;" x1="1976.5" x2="2131.5" y1="259.9531" y2="259.9531"/>
      <line style="stroke: #A80036; stroke-width: 1.5;" x1="1976.5" x2="2131.5" y1="267.9531" y2="267.9531"/>
    </a>
    <a href="" target="_top" title="multiplicity" xlink:actuate="onRequest" xlink:href="" xlink:show="new" xlink:title="multiplicity" xlink:type="simple">
      <rect fill="#FEFECE" height="10" style="stroke: none; stroke-width: 1.0;" width="20" x="1981.5" y="273.9531"/>
      <ellipse cx="1986.5" cy="278.9531" fill="none" rx="3" ry="3" style="stroke: #038048; stroke-width: 1.0;"/>
    </a>
    <a href="" target="_top" title="multiplicity" xlink:actuate="onRequest" xlink:href="" xlink:show="new" xlink:title="multiplicity" xlink:type="simple">
      <text fill="#000000" font-family="sans-serif" font-size="11" lengthAdjust="spacingAndGlyphs" textLength="131" x="1995.5" y="282.1636">multiplicity : std::string</text>
    </a>
    <a href="structclanguml_1_1decorators_1_1aggregation.html" target="_top" title="Make a member an aggregation relationship" xlink:actuate="onRequest" xlink:href="structclanguml_1_1decorators_1_1aggregation.html" xlink:show="new" xlink:title="Make a member an aggregation relationship" xlink:type="simple">
      <rect fill="#FEFECE" filter="url(#fsljo24e5oilr)" height="73.6094" id="C_0000175979950567138488" style="stroke: #A80036; stroke-width: 1.5;" width="373" x="1525.5" y="367.9531"/>
      <ellipse cx="1669.25" cy="383.9531" fill="#ADD1B2" rx="11" ry="11" style="stroke: #A80036; stroke-width: 1.0;"/>
      <path d="M1672.2188,389.5938 Q1671.6406,389.8906 1671,390.0313 Q1670.3594,390.1875 1669.6563,390.1875 Q1667.1563,390.1875 1665.8281,388.5469 Q1664.5156,386.8906 1664.5156,383.7656 Q1664.5156,380.6406 1665.8281,378.9844 Q1667.1563,377.3281 1669.6563,377.3281 Q1670.3594,377.3281 1671,377.4844 Q1671.6563,377.6406 1672.2188,377.9375 L1672.2188,380.6563 Q1671.5938,380.0781 1671,379.8125 Q1670.4063,379.5313 1669.7813,379.5313 Q1668.4375,379.5313 1667.75,380.6094 Q1667.0625,381.6719 1667.0625,383.7656 Q1667.0625,385.8594 1667.75,386.9375 Q1668.4375,388 1669.7813,388 Q1670.4063,388 1671,387.7344 Q1671.5938,387.4531 1672.2188,386.875 L1672.2188,389.5938 Z "/>
      <text fill="#000000" font-family="sans-serif" font-size="12" lengthAdjust="spacingAndGlyphs" textLength="77" x="1689.75" y="388.1074">aggregation</text>
      <line style="stroke: #A80036; stroke-width: 1.5;" x1="1526.5" x2="1897.5" y1="399.9531" y2="399.9531"/>
    </a>
    <a href="" target="_top" title="from_string" xlink:actuate="onRequest" xlink:href="" xlink:show="new" xlink:title="from_string" xlink:type="simple">
      <rect fill="#FEFECE" height="10" style="stroke: none; stroke-width: 1.0;" width="20" x="1531.5" y="405.9531"/>
      <ellipse cx="1536.5" cy="410.9531" fill="#84BE84" rx="3" ry="3" style="stroke: #038048; stroke-width: 1.0;"/>
    </a>
    <a href="" target="_top" title="from_string" xlink:actuate="onRequest" xlink:href="" xlink:show="new" xlink:title="from_string" xlink:type="simple">
      <text fill="#000000" font-family="sans-serif" font-size="11" lengthAdjust="spacingAndGlyphs" text-decoration="underline" textLength="347" x="1545.5" y="414.1636">from_string(std::string_view c) : std::shared_ptr&lt;decorator&gt;</text>
    </a>
    <line style="stroke: #A80036; stroke-width: 1.5;" x1="1526.5" x2="1897.5" y1="420.7578" y2="420.7578"/>
    <a href="" target="_top" title="label" xlink:actuate="onRequest" xlink:href="" xlink:show="new" xlink:title="label" xlink:type="simple">
      <rect fill="#FEFECE" height="10" style="stroke: none; stroke-width: 1.0;" width="20" x="1531.5" y="426.7578"/>
      <ellipse cx="1536.5" cy="431.7578" fill="none" rx="3" ry="3" style="stroke: #038048; stroke-width: 1.0;"/>
    </a>
    <a href="" target="_top" title="label" xlink:actuate="onRequest" xlink:href="" xlink:show="new" xlink:title="label" xlink:type="simple">
      <text fill="#000000" font-family="sans-serif" font-size="11" lengthAdjust="spacingAndGlyphs" text-decoration="underline" textLength="133" x="1545.5" y="434.9683">label : const std::string</text>
    </a>
    <a href="structclanguml_1_1decorators_1_1composition.html" target="_top" title="Make a member a composition relationship" xlink:actuate="onRequest" xlink:href="structclanguml_1_1decorators_1_1composition.html" xlink:show="new" xlink:title="Make a member a composition relationship" xlink:type="simple">
      <rect fill="#FEFECE" filter="url(#fsljo24e5oilr)" height="73.6094" id="C_0001028911016492067053" style="stroke: #A80036; stroke-width: 1.5;" width="373" x="1933.5" y="367.9531"/>
      <ellipse cx="2077.75" cy="383.9531" fill="#ADD1B2" rx="11" ry="11" style="stroke: #A80036; stroke-width: 1.0;"/>
      <path d="M2080.7188,389.5938 Q2080.1406,389.8906 2079.5,390.0313 Q2078.8594,390.1875 2078.1563,390.1875 Q2075.6563,390.1875 2074.3281,388.5469 Q2073.0156,386.8906 2073.0156,383.7656 Q2073.0156,380.6406 2074.3281,378.9844 Q2075.6563,377.3281 2078.1563,377.3281 Q2078.8594,377.3281 2079.5,377.4844 Q2080.1563,377.6406 2080.7188,377.9375 L2080.7188,380.6563 Q2080.0938,380.0781 2079.5,379.8125 Q2078.9063,379.5313 2078.2813,379.5313 Q2076.9375,379.5313 2076.25,380.6094 Q2075.5625,381.6719 2075.5625,383.7656 Q2075.5625,385.8594 2076.25,386.9375 Q2076.9375,388 2078.2813,388 Q2078.9063,388 2079.5,387.7344 Q2080.0938,387.4531 2080.7188,386.875 L2080.7188,389.5938 Z "/>
      <text fill="#000000" font-family="sans-serif" font-size="12" lengthAdjust="spacingAndGlyphs" textLength="76" x="2098.25" y="388.1074">composition</text>
      <line style="stroke: #A80036; stroke-width: 1.5;" x1="1934.5" x2="2305.5" y1="399.9531" y2="399.9531"/>
    </a>
    <a href="" target="_top" title="from_string" xlink:actuate="onRequest" xlink:href="" xlink:show="new" xlink:title="from_string" xlink:type="simple">
      <rect fill="#FEFECE" height="10" style="stroke: none; stroke-width: 1.0;" width="20" x="1939.5" y="405.9531"/>
      <ellipse cx="1944.5" cy="410.9531" fill="#84BE84" rx="3" ry="3" style="stroke: #038048; stroke-width: 1.0;"/>
    </a>
    <a href="" target="_top" title="from_string" xlink:actuate="onRequest" xlink:href="" xlink:show="new" xlink:title="from_string" xlink:type="simple">
      <text fill="#000000" font-family="sans-serif" font-size="11" lengthAdjust="spacingAndGlyphs" text-decoration="underline" textLength="347" x="1953.5" y="414.1636">from_string(std::string_view c) : std::shared_ptr&lt;decorator&gt;</text>
    </a>
    <line style="stroke: #A80036; stroke-width: 1.5;" x1="1934.5" x2="2305.5" y1="420.7578" y2="420.7578"/>
    <a href="" target="_top" title="label" xlink:actuate="onRequest" xlink:href="" xlink:show="new" xlink:title="label" xlink:type="simple">
      <rect fill="#FEFECE" height="10" style="stroke: none; stroke-width: 1.0;" width="20" x="1939.5" y="426.7578"/>
      <ellipse cx="1944.5" cy="431.7578" fill="none" rx="3" ry="3" style="stroke: #038048; stroke-width: 1.0;"/>
    </a>
    <a href="" target="_top" title="label" xlink:actuate="onRequest" xlink:href="" xlink:show="new" xlink:title="label" xlink:type="simple">
      <text fill="#000000" font-family="sans-serif" font-size="11" lengthAdjust="spacingAndGlyphs" text-decoration="underline" textLength="133" x="1953.5" y="434.9683">label : const std::string</text>
    </a>
    <a href="structclanguml_1_1decorators_1_1association.html" target="_top" title="Make a member an association relationship" xlink:actuate="onRequest" xlink:href="structclanguml_1_1decorators_1_1association.html" xlink:show="new" xlink:title="Make a member an association relationship" xlink:type="simple">
      <rect fill="#FEFECE" filter="url(#fsljo24e5oilr)" height="73.6094" id="C_0001534243399456949265" style="stroke: #A80036; stroke-width: 1.5;" width="373" x="2341.5" y="367.9531"/>
      <ellipse cx="2487.75" cy="383.9531" fill="#ADD1B2" rx="11" ry="11" style="stroke: #A80036; stroke-width: 1.0;"/>
      <path d="M2490.7188,389.5938 Q2490.1406,389.8906 2489.5,390.0313 Q2488.8594,390.1875 2488.1563,390.1875 Q2485.6563,390.1875 2484.3281,388.5469 Q2483.0156,386.8906 2483.0156,383.7656 Q2483.0156,380.6406 2484.3281,378.9844 Q2485.6563,377.3281 2488.1563,377.3281 Q2488.8594,377.3281 2489.5,377.4844 Q2490.1563,377.6406 2490.7188,377.9375 L2490.7188,380.6563 Q2490.0938,380.0781 2489.5,379.8125 Q2488.9063,379.5313 2488.2813,379.5313 Q2486.9375,379.5313 2486.25,380.6094 Q2485.5625,381.6719 2485.5625,383.7656 Q2485.5625,385.8594 2486.25,386.9375 Q2486.9375,388 2488.2813,388 Q2488.9063,388 2489.5,387.7344 Q2490.0938,387.4531 2490.7188,386.875 L2490.7188,389.5938 Z "/>
      <text fill="#000000" font-family="sans-serif" font-size="12" lengthAdjust="spacingAndGlyphs" textLength="72" x="2508.25" y="388.1074">association</text>
      <line style="stroke: #A80036; stroke-width: 1.5;" x1="2342.5" x2="2713.5" y1="399.9531" y2="399.9531"/>
    </a>
    <a href="" target="_top" title="from_string" xlink:actuate="onRequest" xlink:href="" xlink:show="new" xlink:title="from_string" xlink:type="simple">
      <rect fill="#FEFECE" height="10" style="stroke: none; stroke-width: 1.0;" width="20" x="2347.5" y="405.9531"/>
      <ellipse cx="2352.5" cy="410.9531" fill="#84BE84" rx="3" ry="3" style="stroke: #038048; stroke-width: 1.0;"/>
    </a>
    <a href="" target="_top" title="from_string" xlink:actuate="onRequest" xlink:href="" xlink:show="new" xlink:title="from_string" xlink:type="simple">
      <text fill="#000000" font-family="sans-serif" font-size="11" lengthAdjust="spacingAndGlyphs" text-decoration="underline" textLength="347" x="2361.5" y="414.1636">from_string(std::string_view c) : std::shared_ptr&lt;decorator&gt;</text>
    </a>
    <line style="stroke: #A80036; stroke-width: 1.5;" x1="2342.5" x2="2713.5" y1="420.7578" y2="420.7578"/>
    <a href="" target="_top" title="label" xlink:actuate="onRequest" xlink:href="" xlink:show="new" xlink:title="label" xlink:type="simple">
      <rect fill="#FEFECE" height="10" style="stroke: none; stroke-width: 1.0;" width="20" x="2347.5" y="426.7578"/>
      <ellipse cx="2352.5" cy="431.7578" fill="none" rx="3" ry="3" style="stroke: #038048; stroke-width: 1.0;"/>
    </a>
    <a href="" target="_top" title="label" xlink:actuate="onRequest" xlink:href="" xlink:show="new" xlink:title="label" xlink:type="simple">
      <text fill="#000000" font-family="sans-serif" font-size="11" lengthAdjust="spacingAndGlyphs" text-decoration="underline" textLength="133" x="2361.5" y="434.9683">label : const std::string</text>
    </a>
    <a href="structclanguml_1_1decorators_1_1call.html" target="_top" title="Represents a call message in sequence diagram" xlink:actuate="onRequest" xlink:href="structclanguml_1_1decorators_1_1call.html" xlink:show="new" xlink:title="Represents a call message in sequence diagram" xlink:type="simple">
      <rect fill="#FEFECE" filter="url(#fsljo24e5oilr)" height="86.4141" id="C_0000356227795001988616" style="stroke: #A80036; stroke-width: 1.5;" width="373" x="2310.5" y="215.4531"/>
      <ellipse cx="2482.25" cy="231.4531" fill="#ADD1B2" rx="11" ry="11" style="stroke: #A80036; stroke-width: 1.0;"/>
      <path d="M2485.2188,237.0938 Q2484.6406,237.3906 2484,237.5313 Q2483.3594,237.6875 2482.6563,237.6875 Q2480.1563,237.6875 2478.8281,236.0469 Q2477.5156,234.3906 2477.5156,231.2656 Q2477.5156,228.1406 2478.8281,226.4844 Q2480.1563,224.8281 2482.6563,224.8281 Q2483.3594,224.8281 2484,224.9844 Q2484.6563,225.1406 2485.2188,225.4375 L2485.2188,228.1563 Q2484.5938,227.5781 2484,227.3125 Q2483.4063,227.0313 2482.7813,227.0313 Q2481.4375,227.0313 2480.75,228.1094 Q2480.0625,229.1719 2480.0625,231.2656 Q2480.0625,233.3594 2480.75,234.4375 Q2481.4375,235.5 2482.7813,235.5 Q2483.4063,235.5 2484,235.2344 Q2484.5938,234.9531 2485.2188,234.375 L2485.2188,237.0938 Z "/>
      <text fill="#000000" font-family="sans-serif" font-size="12" lengthAdjust="spacingAndGlyphs" textLength="21" x="2502.75" y="235.6074">call</text>
      <line style="stroke: #A80036; stroke-width: 1.5;" x1="2311.5" x2="2682.5" y1="247.4531" y2="247.4531"/>
    </a>
    <a href="" target="_top" title="from_string" xlink:actuate="onRequest" xlink:href="" xlink:show="new" xlink:title="from_string" xlink:type="simple">
      <rect fill="#FEFECE" height="10" style="stroke: none; stroke-width: 1.0;" width="20" x="2316.5" y="253.4531"/>
      <ellipse cx="2321.5" cy="258.4531" fill="#84BE84" rx="3" ry="3" style="stroke: #038048; stroke-width: 1.0;"/>
    </a>
    <a href="" target="_top" title="from_string" xlink:actuate="onRequest" xlink:href="" xlink:show="new" xlink:title="from_string" xlink:type="simple">
      <text fill="#000000" font-family="sans-serif" font-size="11" lengthAdjust="spacingAndGlyphs" text-decoration="underline" textLength="347" x="2330.5" y="261.6636">from_string(std::string_view c) : std::shared_ptr&lt;decorator&gt;</text>
    </a>
    <line style="stroke: #A80036; stroke-width: 1.5;" x1="2311.5" x2="2682.5" y1="268.2578" y2="268.2578"/>
    <a href="" target="_top" title="callee" xlink:actuate="onRequest" xlink:href="" xlink:show="new" xlink:title="callee" xlink:type="simple">
      <rect fill="#FEFECE" height="10" style="stroke: none; stroke-width: 1.0;" width="20" x="2316.5" y="274.2578"/>
      <ellipse cx="2321.5" cy="279.2578" fill="none" rx="3" ry="3" style="stroke: #038048; stroke-width: 1.0;"/>
    </a>
    <a href="" target="_top" title="callee" xlink:actuate="onRequest" xlink:href="" xlink:show="new" xlink:title="callee" xlink:type="simple">
      <text fill="#000000" font-family="sans-serif" font-size="11" lengthAdjust="spacingAndGlyphs" textLength="104" x="2330.5" y="282.4683">callee : std::string</text>
    </a>
    <a href="" target="_top" title="label" xlink:actuate="onRequest" xlink:href="" xlink:show="new" xlink:title="label" xlink:type="simple">
      <rect fill="#FEFECE" height="10" style="stroke: none; stroke-width: 1.0;" width="20" x="2316.5" y="287.0625"/>
      <ellipse cx="2321.5" cy="292.0625" fill="none" rx="3" ry="3" style="stroke: #038048; stroke-width: 1.0;"/>
    </a>
    <a href="" target="_top" title="label" xlink:actuate="onRequest" xlink:href="" xlink:show="new" xlink:title="label" xlink:type="simple">
      <text fill="#000000" font-family="sans-serif" font-size="11" lengthAdjust="spacingAndGlyphs" text-decoration="underline" textLength="133" x="2330.5" y="295.2729">label : const std::string</text>
    </a>
    <path d="M1589.84,99.1031 C1227.1,115.9331 502.79,155.0931 254,208.9531 C249.77,209.8731 245.49,210.8831 241.19,211.9931 " fill="none" id="C_0001039481254924641333-&gt;C_0000532301235174338361" style="stroke: #A80036; stroke-width: 1.0; stroke-dasharray: 7.0,7.0;"/>
    <polygon fill="#A80036" points="236.14,213.3231,245.8607,214.9066,240.9761,212.0535,243.8293,207.1689,236.14,213.3231" style="stroke: #A80036; stroke-width: 1.0;"/>
    <path d="M1569.77,105.3431 C1338.56,122.7531 974.09,155.7931 662,208.9531 C656.26,209.9331 650.44,210.9731 644.57,212.0731 " fill="none" id="C_0001039481254924641333&lt;-C_0001347272482812804274" style="stroke: #A80036; stroke-width: 1.0;"/>
    <polygon fill="none" points="1569.52,98.3431,1589.99,103.8431,1570.56,112.3031,1569.52,98.3431" style="stroke: #A80036; stroke-width: 1.0;"/>
    <path d="M1569.8,123.3131 C1425.49,145.1331 1236.4,175.6931 1070,208.9531 C1051.17,212.7131 1031.44,216.9931 1011.98,221.4031 " fill="none" id="C_0001039481254924641333&lt;-C_0001462474947254948682" style="stroke: #A80036; stroke-width: 1.0;"/>
    <polygon fill="none" points="1569.04,116.3531,1589.86,120.2931,1571.12,130.1931,1569.04,116.3531" style="stroke: #A80036; stroke-width: 1.0;"/>
    <path d="M1596.48,155.1531 C1525.44,177.6831 1448.46,202.1131 1387.53,221.4331 " fill="none" id="C_0001039481254924641333&lt;-C_0000685427930366073750" style="stroke: #A80036; stroke-width: 1.0;"/>
    <polygon fill="none" points="1594.67,148.3831,1615.85,149.0031,1598.9,161.7231,1594.67,148.3831" style="stroke: #A80036; stroke-width: 1.0;"/>
    <path d="M1747.89,165.4831 C1735.65,182.5731 1723.08,200.1131 1712.25,215.2331 " fill="none" id="C_0001039481254924641333&lt;-C_0000116269747867995555" style="stroke: #A80036; stroke-width: 1.0;"/>
    <polygon fill="none" points="1742.35,161.1931,1759.69,149.0031,1753.74,169.3431,1742.35,161.1931" style="stroke: #A80036; stroke-width: 1.0;"/>
    <path d="M1907.56,160.1131 C1943.18,183.7931 1981.05,208.9631 2009.35,227.7731 " fill="none" id="C_0001039481254924641333&lt;-C_0001576276283144132872" style="stroke: #A80036; stroke-width: 1.0;"/>
    <polygon fill="none" points="1903.63,165.9131,1890.85,149.0031,1911.38,154.2531,1903.63,165.9131" style="stroke: #A80036; stroke-width: 1.0;"/>
    <path d="M1818.97,367.7231 C1845.47,353.3931 1870.65,333.9531 1886,307.9531 C1914.87,259.0631 1887.05,198.4531 1855.9,153.5631 " fill="none" id="C_0000175979950567138488-&gt;C_0001039481254924641333" style="stroke: #A80036; stroke-width: 1.0; stroke-dasharray: 7.0,7.0;"/>
    <polygon fill="#A80036" points="1852.88,149.2731,1854.7824,158.9365,1855.755,153.3639,1861.3276,154.3365,1852.88,149.2731" style="stroke: #A80036; stroke-width: 1.0;"/>
    <path d="M1972.26,297.2731 C1964.09,300.9331 1955.89,304.5431 1948,307.9531 C1900.49,328.4731 1847.11,350.2931 1803.15,367.9331 " fill="none" id="C_0001576276283144132872&lt;-C_0000175979950567138488" style="stroke: #A80036; stroke-width: 1.0;"/>
    <polygon fill="none" points="1969.47,290.8531,1990.58,289.0031,1975.23,303.6131,1969.47,290.8531" style="stroke: #A80036; stroke-width: 1.0;"/>
    <path d="M2139.88,367.6431 C2159.95,325.5331 2183.57,255.9031 2150,208.9531 C2118.61,165.0531 2070.02,137.1631 2018.99,119.5031 " fill="none" id="C_0001028911016492067053-&gt;C_0001039481254924641333" style="stroke: #A80036; stroke-width: 1.0; stroke-dasharray: 7.0,7.0;"/>
    <polygon fill="#A80036" points="2014.05,117.8331,2021.275,124.5263,2018.7819,119.4485,2023.8597,116.9554,2014.05,117.8331" style="stroke: #A80036; stroke-width: 1.0;"/>
    <path d="M2075.96,307.5331 C2084.93,327.1831 2095.14,349.5231 2103.46,367.7431 " fill="none" id="C_0001576276283144132872&lt;-C_0001028911016492067053" style="stroke: #A80036; stroke-width: 1.0;"/>
    <polygon fill="none" points="2069.46,310.1431,2067.52,289.0431,2082.19,304.3231,2069.46,310.1431" style="stroke: #A80036; stroke-width: 1.0;"/>
    <path d="M2417.36,367.9031 C2376.72,352.3331 2331.3,332.1031 2293,307.9531 C2237.64,273.0431 2240.8,241.4531 2184,208.9531 C2133.37,179.9931 2074.86,157.2231 2019.09,139.7031 " fill="none" id="C_0001534243399456949265-&gt;C_0001039481254924641333" style="stroke: #A80036; stroke-width: 1.0; stroke-dasharray: 7.0,7.0;"/>
    <polygon fill="#A80036" points="2014.04,138.1331,2021.4439,144.6279,2018.8139,139.6196,2023.8223,136.9897,2014.04,138.1331" style="stroke: #A80036; stroke-width: 1.0;"/>
    <path d="M2151.88,289.2931 C2226.74,312.1131 2330.27,343.6731 2409.76,367.9031 " fill="none" id="C_0001576276283144132872&lt;-C_0001534243399456949265" style="stroke: #A80036; stroke-width: 1.0;"/>
    <polygon fill="none" points="2149.63,295.9231,2132.54,283.3931,2153.71,282.5331,2149.63,295.9231" style="stroke: #A80036; stroke-width: 1.0;"/>
    <path d="M2033.88,145.8431 C2128.08,168.5431 2235.06,194.3231 2322.45,215.3831 " fill="none" id="C_0001039481254924641333&lt;-C_0000356227795001988616" style="stroke: #A80036; stroke-width: 1.0;"/>
    <polygon fill="none" points="2032.1,152.6131,2014.3,141.1231,2035.38,139.0031,2032.1,152.6131" style="stroke: #A80036; stroke-width: 1.0;"/>
  </g>
</svg>
