<svg xmlns="http://www.w3.org/2000/svg" xmlns:xlink="http://www.w3.org/1999/xlink" contentStyleType="text/css" height="961px" preserveAspectRatio="none" style="width:1442px;height:961px;background:#FFFFFF;" version="1.1" viewBox="0 0 1442 961" width="1442px" zoomAndPan="magnify">
  <title>Decorated diagram element class hierarchy</title>
  <defs>
    <style type="text/css">a:hover { text-decoration: underline; }</style>
  </defs>
  <g>
    <text fill="#000000" font-family="sans-serif" font-size="14" font-weight="bold" lengthAdjust="spacing" textLength="305.3109" x="561.3446" y="24.9659">Decorated diagram element class hierarchy</text>
    <g id="cluster_C_0002532840279361781187">
      <path d="M678.5,46.6699 L740.7218,46.6699 A3.75,3.75 0 0 1 743.2218,49.1699 L750.2218,71.7378 L1047.5,71.7378 A2.5,2.5 0 0 1 1050,74.2378 L1050,540.1699 A2.5,2.5 0 0 1 1047.5,542.6699 L678.5,542.6699 A2.5,2.5 0 0 1 676,540.1699 L676,49.1699 A2.5,2.5 0 0 1 678.5,46.6699 " fill="none" style="stroke:#000000;stroke-width:1.5;"/>
      <line style="stroke:#000000;stroke-width:1.5;" x1="676" x2="750.2218" y1="71.7378" y2="71.7378"/>
      <text fill="#000000" font-family="sans-serif" font-size="14" font-weight="bold" lengthAdjust="spacing" textLength="61.2218" x="680" y="63.6358">common</text>
    </g>
    <g id="cluster_C_0000669774451444102653">
      <path d="M702.5,92.6699 L747.3198,92.6699 A3.75,3.75 0 0 1 749.8198,95.1699 L756.8198,117.7378 L1023.5,117.7378 A2.5,2.5 0 0 1 1026,120.2378 L1026,516.1699 A2.5,2.5 0 0 1 1023.5,518.6699 L702.5,518.6699 A2.5,2.5 0 0 1 700,516.1699 L700,95.1699 A2.5,2.5 0 0 1 702.5,92.6699 " fill="none" style="stroke:#000000;stroke-width:1.5;"/>
      <line style="stroke:#000000;stroke-width:1.5;" x1="700" x2="756.8198" y1="117.7378" y2="117.7378"/>
      <text fill="#000000" font-family="sans-serif" font-size="14" font-weight="bold" lengthAdjust="spacing" textLength="43.8198" x="704" y="109.6358">model</text>
    </g>
    <g id="cluster_C_0017921336289613804855">
      <path d="M8.5,566.6699 L108.1016,566.6699 A3.75,3.75 0 0 1 110.6016,569.1699 L117.6016,591.7378 L904.5,591.7378 A2.5,2.5 0 0 1 907,594.2378 L907,952.1699 A2.5,2.5 0 0 1 904.5,954.6699 L8.5,954.6699 A2.5,2.5 0 0 1 6,952.1699 L6,569.1699 A2.5,2.5 0 0 1 8.5,566.6699 " fill="none" style="stroke:#000000;stroke-width:1.5;"/>
      <line style="stroke:#000000;stroke-width:1.5;" x1="6" x2="117.6016" y1="591.7378" y2="591.7378"/>
      <text fill="#000000" font-family="sans-serif" font-size="14" font-weight="bold" lengthAdjust="spacing" textLength="98.6016" x="10" y="583.6358">class_diagram</text>
    </g>
    <g id="cluster_C_0007176993879715460962">
      <path d="M32.5,612.6699 L77.3198,612.6699 A3.75,3.75 0 0 1 79.8198,615.1699 L86.8198,637.7378 L880.5,637.7378 A2.5,2.5 0 0 1 883,640.2378 L883,928.1699 A2.5,2.5 0 0 1 880.5,930.6699 L32.5,930.6699 A2.5,2.5 0 0 1 30,928.1699 L30,615.1699 A2.5,2.5 0 0 1 32.5,612.6699 " fill="none" style="stroke:#000000;stroke-width:1.5;"/>
      <line style="stroke:#000000;stroke-width:1.5;" x1="30" x2="86.8198" y1="637.7378" y2="637.7378"/>
      <text fill="#000000" font-family="sans-serif" font-size="14" font-weight="bold" lengthAdjust="spacing" textLength="43.8198" x="34" y="629.6358">model</text>
    </g>
    <g id="cluster_C_0012174902727661033893">
      <path d="M933.5,566.6699 L1065.4975,566.6699 A3.75,3.75 0 0 1 1067.9975,569.1699 L1074.9975,591.7378 L1432.5,591.7378 A2.5,2.5 0 0 1 1435,594.2378 L1435,952.1699 A2.5,2.5 0 0 1 1432.5,954.6699 L933.5,954.6699 A2.5,2.5 0 0 1 931,952.1699 L931,569.1699 A2.5,2.5 0 0 1 933.5,566.6699 " fill="none" style="stroke:#000000;stroke-width:1.5;"/>
      <line style="stroke:#000000;stroke-width:1.5;" x1="931" x2="1074.9975" y1="591.7378" y2="591.7378"/>
      <text fill="#000000" font-family="sans-serif" font-size="14" font-weight="bold" lengthAdjust="spacing" textLength="130.9975" x="935" y="583.6358">sequence_diagram</text>
    </g>
    <g id="cluster_C_0017655759046645114118">
      <path d="M957.5,612.6699 L1002.3198,612.6699 A3.75,3.75 0 0 1 1004.8198,615.1699 L1011.8198,637.7378 L1408.5,637.7378 A2.5,2.5 0 0 1 1411,640.2378 L1411,928.1699 A2.5,2.5 0 0 1 1408.5,930.6699 L957.5,930.6699 A2.5,2.5 0 0 1 955,928.1699 L955,615.1699 A2.5,2.5 0 0 1 957.5,612.6699 " fill="none" style="stroke:#000000;stroke-width:1.5;"/>
      <line style="stroke:#000000;stroke-width:1.5;" x1="955" x2="1011.8198" y1="637.7378" y2="637.7378"/>
      <text fill="#000000" font-family="sans-serif" font-size="14" font-weight="bold" lengthAdjust="spacing" textLength="43.8198" x="959" y="629.6358">model</text>
    </g>
    <a href="classclanguml_1_1common_1_1model_1_1decorated__element.html" target="_top" title="Base class for decorated diagram elements" xlink:actuate="onRequest" xlink:href="classclanguml_1_1common_1_1model_1_1decorated__element.html" xlink:show="new" xlink:title="Base class for decorated diagram elements" xlink:type="simple">
      <g id="elem_C_0008936819060997384951">
        <rect codeLine="5" fill="#F1F1F1" height="48" id="C_0008936819060997384951" rx="2.5" ry="2.5" style="stroke:#181818;stroke-width:0.5;" width="159.2035" x="715.5" y="130.6699"/>
        <ellipse cx="730.5" cy="146.6699" fill="#ADD1B2" rx="11" ry="11" style="stroke:#181818;stroke-width:1.0;"/>
        <path d="M733.4688,152.3105 Q732.8906,152.6074 732.25,152.748 Q731.6094,152.9043 730.9063,152.9043 Q728.4063,152.9043 727.0781,151.2636 Q725.7656,149.6074 725.7656,146.4824 Q725.7656,143.3574 727.0781,141.7011 Q728.4063,140.0449 730.9063,140.0449 Q731.6094,140.0449 732.25,140.2011 Q732.9063,140.3574 733.4688,140.6543 L733.4688,143.373 Q732.8438,142.7949 732.25,142.5293 Q731.6563,142.248 731.0313,142.248 Q729.6875,142.248 729,143.3261 Q728.3125,144.3886 728.3125,146.4824 Q728.3125,148.5761 729,149.6543 Q729.6875,150.7168 731.0313,150.7168 Q731.6563,150.7168 732.25,150.4511 Q732.8438,150.1699 733.4688,149.5918 L733.4688,152.3105 Z " fill="#000000"/>
        <text fill="#000000" font-family="sans-serif" font-size="14" lengthAdjust="spacing" textLength="127.2035" x="744.5" y="152.1019">decorated_element</text>
        <line style="stroke:#181818;stroke-width:0.5;" x1="716.5" x2="873.7035" y1="162.6699" y2="162.6699"/>
        <line style="stroke:#181818;stroke-width:0.5;" x1="716.5" x2="873.7035" y1="170.6699" y2="170.6699"/>
      </g>
    </a>
    <a href="classclanguml_1_1common_1_1model_1_1relationship.html" target="_top" title="Class representing any relationship other than inheritance" xlink:actuate="onRequest" xlink:href="classclanguml_1_1common_1_1model_1_1relationship.html" xlink:show="new" xlink:title="Class representing any relationship other than inheritance" xlink:type="simple">
      <g id="elem_C_0016370694070378943411">
        <rect codeLine="9" fill="#F1F1F1" height="48" id="C_0016370694070378943411" rx="2.5" ry="2.5" style="stroke:#181818;stroke-width:0.5;" width="110.5117" x="715.5" y="238.6699"/>
        <ellipse cx="730.5" cy="254.6699" fill="#ADD1B2" rx="11" ry="11" style="stroke:#181818;stroke-width:1.0;"/>
        <path d="M733.4688,260.3105 Q732.8906,260.6074 732.25,260.748 Q731.6094,260.9043 730.9063,260.9043 Q728.4063,260.9043 727.0781,259.2636 Q725.7656,257.6074 725.7656,254.4824 Q725.7656,251.3574 727.0781,249.7011 Q728.4063,248.0449 730.9063,248.0449 Q731.6094,248.0449 732.25,248.2011 Q732.9063,248.3574 733.4688,248.6543 L733.4688,251.373 Q732.8438,250.7949 732.25,250.5293 Q731.6563,250.248 731.0313,250.248 Q729.6875,250.248 729,251.3261 Q728.3125,252.3886 728.3125,254.4824 Q728.3125,256.5761 729,257.6543 Q729.6875,258.7168 731.0313,258.7168 Q731.6563,258.7168 732.25,258.4511 Q732.8438,258.1699 733.4688,257.5918 L733.4688,260.3105 Z " fill="#000000"/>
        <text fill="#000000" font-family="sans-serif" font-size="14" lengthAdjust="spacing" textLength="78.5117" x="744.5" y="260.1019">relationship</text>
        <line style="stroke:#181818;stroke-width:0.5;" x1="716.5" x2="825.0117" y1="270.6699" y2="270.6699"/>
        <line style="stroke:#181818;stroke-width:0.5;" x1="716.5" x2="825.0117" y1="278.6699" y2="278.6699"/>
      </g>
    </a>
    <a href="classclanguml_1_1common_1_1model_1_1diagram__element.html" target="_top" title="Base class for standalone diagram elements." xlink:actuate="onRequest" xlink:href="classclanguml_1_1common_1_1model_1_1diagram__element.html" xlink:show="new" xlink:title="Base class for standalone diagram elements." xlink:type="simple">
      <g id="elem_C_0008588005715032923314">
        <rect codeLine="13" fill="#F1F1F1" height="48" id="C_0008588005715032923314" rx="2.5" ry="2.5" style="stroke:#181818;stroke-width:0.5;" width="147.7236" x="862" y="238.6699"/>
        <ellipse cx="877" cy="254.6699" fill="#ADD1B2" rx="11" ry="11" style="stroke:#181818;stroke-width:1.0;"/>
        <path d="M879.9688,260.3105 Q879.3906,260.6074 878.75,260.748 Q878.1094,260.9043 877.4063,260.9043 Q874.9063,260.9043 873.5781,259.2636 Q872.2656,257.6074 872.2656,254.4824 Q872.2656,251.3574 873.5781,249.7011 Q874.9063,248.0449 877.4063,248.0449 Q878.1094,248.0449 878.75,248.2011 Q879.4063,248.3574 879.9688,248.6543 L879.9688,251.373 Q879.3438,250.7949 878.75,250.5293 Q878.1563,250.248 877.5313,250.248 Q876.1875,250.248 875.5,251.3261 Q874.8125,252.3886 874.8125,254.4824 Q874.8125,256.5761 875.5,257.6543 Q876.1875,258.7168 877.5313,258.7168 Q878.1563,258.7168 878.75,258.4511 Q879.3438,258.1699 879.9688,257.5918 L879.9688,260.3105 Z " fill="#000000"/>
        <text fill="#000000" font-family="sans-serif" font-size="14" lengthAdjust="spacing" textLength="115.7236" x="891" y="260.1019">diagram_element</text>
        <line style="stroke:#181818;stroke-width:0.5;" x1="863" x2="1008.7236" y1="270.6699" y2="270.6699"/>
        <line style="stroke:#181818;stroke-width:0.5;" x1="863" x2="1008.7236" y1="278.6699" y2="278.6699"/>
      </g>
    </a>
    <a href="classclanguml_1_1common_1_1model_1_1element.html" target="_top" title="Base class for any element qualified by namespace." xlink:actuate="onRequest" xlink:href="classclanguml_1_1common_1_1model_1_1element.html" xlink:show="new" xlink:title="Base class for any element qualified by namespace." xlink:type="simple">
      <g id="elem_C_0016556163051475263500">
        <rect codeLine="17" fill="#F1F1F1" height="48" id="C_0016556163051475263500" rx="2.5" ry="2.5" style="stroke:#181818;stroke-width:0.5;" width="86.0958" x="740" y="346.6699"/>
        <ellipse cx="755" cy="362.6699" fill="#ADD1B2" rx="11" ry="11" style="stroke:#181818;stroke-width:1.0;"/>
        <path d="M757.9688,368.3105 Q757.3906,368.6074 756.75,368.748 Q756.1094,368.9043 755.4063,368.9043 Q752.9063,368.9043 751.5781,367.2636 Q750.2656,365.6074 750.2656,362.4824 Q750.2656,359.3574 751.5781,357.7011 Q752.9063,356.0449 755.4063,356.0449 Q756.1094,356.0449 756.75,356.2011 Q757.4063,356.3574 757.9688,356.6543 L757.9688,359.373 Q757.3438,358.7949 756.75,358.5293 Q756.1563,358.248 755.5313,358.248 Q754.1875,358.248 753.5,359.3261 Q752.8125,360.3886 752.8125,362.4824 Q752.8125,364.5761 753.5,365.6543 Q754.1875,366.7168 755.5313,366.7168 Q756.1563,366.7168 756.75,366.4511 Q757.3438,366.1699 757.9688,365.5918 L757.9688,368.3105 Z " fill="#000000"/>
        <text fill="#000000" font-family="sans-serif" font-size="14" lengthAdjust="spacing" textLength="54.0958" x="769" y="368.1019">element</text>
        <line style="stroke:#181818;stroke-width:0.5;" x1="741" x2="825.0958" y1="378.6699" y2="378.6699"/>
        <line style="stroke:#181818;stroke-width:0.5;" x1="741" x2="825.0958" y1="386.6699" y2="386.6699"/>
      </g>
    </a>
    <a href="classclanguml_1_1common_1_1model_1_1template__element.html" target="_top" title="Base class for any element qualified by namespace." xlink:actuate="onRequest" xlink:href="classclanguml_1_1common_1_1model_1_1template__element.html" xlink:show="new" xlink:title="Base class for any element qualified by namespace." xlink:type="simple">
      <g id="elem_C_0013384831159811298387">
        <rect codeLine="21" fill="#F1F1F1" height="48" id="C_0013384831159811298387" rx="2.5" ry="2.5" style="stroke:#181818;stroke-width:0.5;" width="151.3775" x="736.5" y="454.6699"/>
        <ellipse cx="751.5" cy="470.6699" fill="#ADD1B2" rx="11" ry="11" style="stroke:#181818;stroke-width:1.0;"/>
        <path d="M754.4688,476.3105 Q753.8906,476.6074 753.25,476.748 Q752.6094,476.9043 751.9063,476.9043 Q749.4063,476.9043 748.0781,475.2636 Q746.7656,473.6074 746.7656,470.4824 Q746.7656,467.3574 748.0781,465.7011 Q749.4063,464.0449 751.9063,464.0449 Q752.6094,464.0449 753.25,464.2011 Q753.9063,464.3574 754.4688,464.6543 L754.4688,467.373 Q753.8438,466.7949 753.25,466.5293 Q752.6563,466.248 752.0313,466.248 Q750.6875,466.248 750,467.3261 Q749.3125,468.3886 749.3125,470.4824 Q749.3125,472.5761 750,473.6543 Q750.6875,474.7168 752.0313,474.7168 Q752.6563,474.7168 753.25,474.4511 Q753.8438,474.1699 754.4688,473.5918 L754.4688,476.3105 Z " fill="#000000"/>
        <text fill="#000000" font-family="sans-serif" font-size="14" lengthAdjust="spacing" textLength="119.3775" x="765.5" y="476.1019">template_element</text>
        <line style="stroke:#181818;stroke-width:0.5;" x1="737.5" x2="886.8775" y1="486.6699" y2="486.6699"/>
        <line style="stroke:#181818;stroke-width:0.5;" x1="737.5" x2="886.8775" y1="494.6699" y2="494.6699"/>
      </g>
    </a>
    <a href="classclanguml_1_1common_1_1model_1_1source__file.html" target="_top" title="Diagram element representing some file or directory." xlink:actuate="onRequest" xlink:href="classclanguml_1_1common_1_1model_1_1source__file.html" xlink:show="new" xlink:title="Diagram element representing some file or directory." xlink:type="simple">
      <g id="elem_C_0006285717704576425038">
        <rect codeLine="25" fill="#F1F1F1" height="48" id="C_0006285717704576425038" rx="2.5" ry="2.5" style="stroke:#181818;stroke-width:0.5;" width="102.3777" x="885" y="346.6699"/>
        <ellipse cx="900" cy="362.6699" fill="#ADD1B2" rx="11" ry="11" style="stroke:#181818;stroke-width:1.0;"/>
        <path d="M902.9688,368.3105 Q902.3906,368.6074 901.75,368.748 Q901.1094,368.9043 900.4063,368.9043 Q897.9063,368.9043 896.5781,367.2636 Q895.2656,365.6074 895.2656,362.4824 Q895.2656,359.3574 896.5781,357.7011 Q897.9063,356.0449 900.4063,356.0449 Q901.1094,356.0449 901.75,356.2011 Q902.4063,356.3574 902.9688,356.6543 L902.9688,359.373 Q902.3438,358.7949 901.75,358.5293 Q901.1563,358.248 900.5313,358.248 Q899.1875,358.248 898.5,359.3261 Q897.8125,360.3886 897.8125,362.4824 Q897.8125,364.5761 898.5,365.6543 Q899.1875,366.7168 900.5313,366.7168 Q901.1563,366.7168 901.75,366.4511 Q902.3438,366.1699 902.9688,365.5918 L902.9688,368.3105 Z " fill="#000000"/>
        <text fill="#000000" font-family="sans-serif" font-size="14" lengthAdjust="spacing" textLength="70.3777" x="914" y="368.1019">source_file</text>
        <line style="stroke:#181818;stroke-width:0.5;" x1="886" x2="986.3777" y1="378.6699" y2="378.6699"/>
        <line style="stroke:#181818;stroke-width:0.5;" x1="886" x2="986.3777" y1="386.6699" y2="386.6699"/>
      </g>
    </a>
    <a href="classclanguml_1_1common_1_1model_1_1package.html" target="_top" title="Diagram element representing namespace or directory package" xlink:actuate="onRequest" xlink:href="classclanguml_1_1common_1_1model_1_1package.html" xlink:show="new" xlink:title="Diagram element representing namespace or directory package" xlink:type="simple">
      <g id="elem_C_0017146293478645494837">
        <rect codeLine="29" fill="#F1F1F1" height="48" id="C_0017146293478645494837" rx="2.5" ry="2.5" style="stroke:#181818;stroke-width:0.5;" width="87.0198" x="922.5" y="454.6699"/>
        <ellipse cx="937.5" cy="470.6699" fill="#ADD1B2" rx="11" ry="11" style="stroke:#181818;stroke-width:1.0;"/>
        <path d="M940.4688,476.3105 Q939.8906,476.6074 939.25,476.748 Q938.6094,476.9043 937.9063,476.9043 Q935.4063,476.9043 934.0781,475.2636 Q932.7656,473.6074 932.7656,470.4824 Q932.7656,467.3574 934.0781,465.7011 Q935.4063,464.0449 937.9063,464.0449 Q938.6094,464.0449 939.25,464.2011 Q939.9063,464.3574 940.4688,464.6543 L940.4688,467.373 Q939.8438,466.7949 939.25,466.5293 Q938.6563,466.248 938.0313,466.248 Q936.6875,466.248 936,467.3261 Q935.3125,468.3886 935.3125,470.4824 Q935.3125,472.5761 936,473.6543 Q936.6875,474.7168 938.0313,474.7168 Q938.6563,474.7168 939.25,474.4511 Q939.8438,474.1699 940.4688,473.5918 L940.4688,476.3105 Z " fill="#000000"/>
        <text fill="#000000" font-family="sans-serif" font-size="14" lengthAdjust="spacing" textLength="55.0198" x="951.5" y="476.1019">package</text>
        <line style="stroke:#181818;stroke-width:0.5;" x1="923.5" x2="1008.5198" y1="486.6699" y2="486.6699"/>
        <line style="stroke:#181818;stroke-width:0.5;" x1="923.5" x2="1008.5198" y1="494.6699" y2="494.6699"/>
      </g>
    </a>
    <a href="classclanguml_1_1class__diagram_1_1model_1_1class__element.html" target="_top" title="Base class for class elements (e.g. member or method)." xlink:actuate="onRequest" xlink:href="classclanguml_1_1class__diagram_1_1model_1_1class__element.html" xlink:show="new" xlink:title="Base class for class elements (e.g. member or method)." xlink:type="simple">
      <g id="elem_C_0004846934894930864299">
        <rect codeLine="37" fill="#F1F1F1" height="48" id="C_0004846934894930864299" rx="2.5" ry="2.5" style="stroke:#181818;stroke-width:0.5;" width="123.9096" x="46" y="650.6699"/>
        <ellipse cx="61" cy="666.6699" fill="#ADD1B2" rx="11" ry="11" style="stroke:#181818;stroke-width:1.0;"/>
        <path d="M63.9688,672.3105 Q63.3906,672.6074 62.75,672.748 Q62.1094,672.9043 61.4063,672.9043 Q58.9063,672.9043 57.5781,671.2636 Q56.2656,669.6074 56.2656,666.4824 Q56.2656,663.3574 57.5781,661.7011 Q58.9063,660.0449 61.4063,660.0449 Q62.1094,660.0449 62.75,660.2011 Q63.4063,660.3574 63.9688,660.6543 L63.9688,663.373 Q63.3438,662.7949 62.75,662.5293 Q62.1563,662.248 61.5313,662.248 Q60.1875,662.248 59.5,663.3261 Q58.8125,664.3886 58.8125,666.4824 Q58.8125,668.5761 59.5,669.6543 Q60.1875,670.7168 61.5313,670.7168 Q62.1563,670.7168 62.75,670.4511 Q63.3438,670.1699 63.9688,669.5918 L63.9688,672.3105 Z " fill="#000000"/>
        <text fill="#000000" font-family="sans-serif" font-size="14" lengthAdjust="spacing" textLength="91.9096" x="75" y="672.1019">class_element</text>
        <line style="stroke:#181818;stroke-width:0.5;" x1="47" x2="168.9096" y1="682.6699" y2="682.6699"/>
        <line style="stroke:#181818;stroke-width:0.5;" x1="47" x2="168.9096" y1="690.6699" y2="690.6699"/>
      </g>
    </a>
    <a href="classclanguml_1_1class__diagram_1_1model_1_1class__member__base.html" target="_top" title="Generic class member model." xlink:actuate="onRequest" xlink:href="classclanguml_1_1class__diagram_1_1model_1_1class__member__base.html" xlink:show="new" xlink:title="Generic class member model." xlink:type="simple">
      <g id="elem_C_0014241292626575163322">
        <rect codeLine="41" fill="#F1F1F1" height="48" id="C_0014241292626575163322" rx="2.5" ry="2.5" style="stroke:#181818;stroke-width:0.5;" width="163.4595" x="46.5" y="758.6699"/>
        <ellipse cx="61.5" cy="774.6699" fill="#ADD1B2" rx="11" ry="11" style="stroke:#181818;stroke-width:1.0;"/>
        <path d="M64.4688,780.3105 Q63.8906,780.6074 63.25,780.748 Q62.6094,780.9043 61.9063,780.9043 Q59.4063,780.9043 58.0781,779.2636 Q56.7656,777.6074 56.7656,774.4824 Q56.7656,771.3574 58.0781,769.7011 Q59.4063,768.0449 61.9063,768.0449 Q62.6094,768.0449 63.25,768.2011 Q63.9063,768.3574 64.4688,768.6543 L64.4688,771.373 Q63.8438,770.7949 63.25,770.5293 Q62.6563,770.248 62.0313,770.248 Q60.6875,770.248 60,771.3261 Q59.3125,772.3886 59.3125,774.4824 Q59.3125,776.5761 60,777.6543 Q60.6875,778.7168 62.0313,778.7168 Q62.6563,778.7168 63.25,778.4511 Q63.8438,778.1699 64.4688,777.5918 L64.4688,780.3105 Z " fill="#000000"/>
        <text fill="#000000" font-family="sans-serif" font-size="14" lengthAdjust="spacing" textLength="131.4595" x="75.5" y="780.1019">class_member_base</text>
        <line style="stroke:#181818;stroke-width:0.5;" x1="47.5" x2="208.9595" y1="790.6699" y2="790.6699"/>
        <line style="stroke:#181818;stroke-width:0.5;" x1="47.5" x2="208.9595" y1="798.6699" y2="798.6699"/>
      </g>
    </a>
    <a href="classclanguml_1_1class__diagram_1_1model_1_1class__member.html" target="_top" title="Class member model." xlink:actuate="onRequest" xlink:href="classclanguml_1_1class__diagram_1_1model_1_1class__member.html" xlink:show="new" xlink:title="Class member model." xlink:type="simple">
      <g id="elem_C_0014370262096868218046">
        <rect codeLine="45" fill="#F1F1F1" height="48" id="C_0014370262096868218046" rx="2.5" ry="2.5" style="stroke:#181818;stroke-width:0.5;" width="126.1776" x="46" y="866.6699"/>
        <ellipse cx="61" cy="882.6699" fill="#ADD1B2" rx="11" ry="11" style="stroke:#181818;stroke-width:1.0;"/>
        <path d="M63.9688,888.3105 Q63.3906,888.6074 62.75,888.748 Q62.1094,888.9043 61.4063,888.9043 Q58.9063,888.9043 57.5781,887.2636 Q56.2656,885.6074 56.2656,882.4824 Q56.2656,879.3574 57.5781,877.7011 Q58.9063,876.0449 61.4063,876.0449 Q62.1094,876.0449 62.75,876.2011 Q63.4063,876.3574 63.9688,876.6543 L63.9688,879.373 Q63.3438,878.7949 62.75,878.5293 Q62.1563,878.248 61.5313,878.248 Q60.1875,878.248 59.5,879.3261 Q58.8125,880.3886 58.8125,882.4824 Q58.8125,884.5761 59.5,885.6543 Q60.1875,886.7168 61.5313,886.7168 Q62.1563,886.7168 62.75,886.4511 Q63.3438,886.1699 63.9688,885.5918 L63.9688,888.3105 Z " fill="#000000"/>
        <text fill="#000000" font-family="sans-serif" font-size="14" lengthAdjust="spacing" textLength="94.1776" x="75" y="888.1019">class_member</text>
        <line style="stroke:#181818;stroke-width:0.5;" x1="47" x2="171.1776" y1="898.6699" y2="898.6699"/>
        <line style="stroke:#181818;stroke-width:0.5;" x1="47" x2="171.1776" y1="906.6699" y2="906.6699"/>
      </g>
    </a>
    <a href="classclanguml_1_1class__diagram_1_1model_1_1method__parameter.html" target="_top" title="Model of a method parameter." xlink:actuate="onRequest" xlink:href="classclanguml_1_1class__diagram_1_1model_1_1method__parameter.html" xlink:show="new" xlink:title="Model of a method parameter." xlink:type="simple">
      <g id="elem_C_0004845352266951408403">
        <rect codeLine="49" fill="#F1F1F1" height="48" id="C_0004845352266951408403" rx="2.5" ry="2.5" style="stroke:#181818;stroke-width:0.5;" width="159.8055" x="205" y="650.6699"/>
        <ellipse cx="220" cy="666.6699" fill="#ADD1B2" rx="11" ry="11" style="stroke:#181818;stroke-width:1.0;"/>
        <path d="M222.9688,672.3105 Q222.3906,672.6074 221.75,672.748 Q221.1094,672.9043 220.4063,672.9043 Q217.9063,672.9043 216.5781,671.2636 Q215.2656,669.6074 215.2656,666.4824 Q215.2656,663.3574 216.5781,661.7011 Q217.9063,660.0449 220.4063,660.0449 Q221.1094,660.0449 221.75,660.2011 Q222.4063,660.3574 222.9688,660.6543 L222.9688,663.373 Q222.3438,662.7949 221.75,662.5293 Q221.1563,662.248 220.5313,662.248 Q219.1875,662.248 218.5,663.3261 Q217.8125,664.3886 217.8125,666.4824 Q217.8125,668.5761 218.5,669.6543 Q219.1875,670.7168 220.5313,670.7168 Q221.1563,670.7168 221.75,670.4511 Q222.3438,670.1699 222.9688,669.5918 L222.9688,672.3105 Z " fill="#000000"/>
        <text fill="#000000" font-family="sans-serif" font-size="14" lengthAdjust="spacing" textLength="127.8055" x="234" y="672.1019">method_parameter</text>
        <line style="stroke:#181818;stroke-width:0.5;" x1="206" x2="363.8055" y1="682.6699" y2="682.6699"/>
        <line style="stroke:#181818;stroke-width:0.5;" x1="206" x2="363.8055" y1="690.6699" y2="690.6699"/>
      </g>
    </a>
    <a href="classclanguml_1_1class__diagram_1_1model_1_1class__method__base.html" target="_top" title="Class method model." xlink:actuate="onRequest" xlink:href="classclanguml_1_1class__diagram_1_1model_1_1class__method__base.html" xlink:show="new" xlink:title="Class method model." xlink:type="simple">
      <g id="elem_C_0018032026899693266441">
        <rect codeLine="53" fill="#F1F1F1" height="48" id="C_0018032026899693266441" rx="2.5" ry="2.5" style="stroke:#181818;stroke-width:0.5;" width="158.8675" x="345.5" y="758.6699"/>
        <ellipse cx="360.5" cy="774.6699" fill="#ADD1B2" rx="11" ry="11" style="stroke:#181818;stroke-width:1.0;"/>
        <path d="M363.4688,780.3105 Q362.8906,780.6074 362.25,780.748 Q361.6094,780.9043 360.9063,780.9043 Q358.4063,780.9043 357.0781,779.2636 Q355.7656,777.6074 355.7656,774.4824 Q355.7656,771.3574 357.0781,769.7011 Q358.4063,768.0449 360.9063,768.0449 Q361.6094,768.0449 362.25,768.2011 Q362.9063,768.3574 363.4688,768.6543 L363.4688,771.373 Q362.8438,770.7949 362.25,770.5293 Q361.6563,770.248 361.0313,770.248 Q359.6875,770.248 359,771.3261 Q358.3125,772.3886 358.3125,774.4824 Q358.3125,776.5761 359,777.6543 Q359.6875,778.7168 361.0313,778.7168 Q361.6563,778.7168 362.25,778.4511 Q362.8438,778.1699 363.4688,777.5918 L363.4688,780.3105 Z " fill="#000000"/>
        <text fill="#000000" font-family="sans-serif" font-size="14" lengthAdjust="spacing" textLength="126.8675" x="374.5" y="780.1019">class_method_base</text>
        <line style="stroke:#181818;stroke-width:0.5;" x1="346.5" x2="503.3675" y1="790.6699" y2="790.6699"/>
        <line style="stroke:#181818;stroke-width:0.5;" x1="346.5" x2="503.3675" y1="798.6699" y2="798.6699"/>
      </g>
    </a>
    <a href="classclanguml_1_1class__diagram_1_1model_1_1class__method.html" target="_top" title="Class method model." xlink:actuate="onRequest" xlink:href="classclanguml_1_1class__diagram_1_1model_1_1class__method.html" xlink:show="new" xlink:title="Class method model." xlink:type="simple">
      <g id="elem_C_0001633165731746789371">
        <rect codeLine="57" fill="#F1F1F1" height="48" id="C_0001633165731746789371" rx="2.5" ry="2.5" style="stroke:#181818;stroke-width:0.5;" width="121.5857" x="364" y="866.6699"/>
        <ellipse cx="379" cy="882.6699" fill="#ADD1B2" rx="11" ry="11" style="stroke:#181818;stroke-width:1.0;"/>
        <path d="M381.9688,888.3105 Q381.3906,888.6074 380.75,888.748 Q380.1094,888.9043 379.4063,888.9043 Q376.9063,888.9043 375.5781,887.2636 Q374.2656,885.6074 374.2656,882.4824 Q374.2656,879.3574 375.5781,877.7011 Q376.9063,876.0449 379.4063,876.0449 Q380.1094,876.0449 380.75,876.2011 Q381.4063,876.3574 381.9688,876.6543 L381.9688,879.373 Q381.3438,878.7949 380.75,878.5293 Q380.1563,878.248 379.5313,878.248 Q378.1875,878.248 377.5,879.3261 Q376.8125,880.3886 376.8125,882.4824 Q376.8125,884.5761 377.5,885.6543 Q378.1875,886.7168 379.5313,886.7168 Q380.1563,886.7168 380.75,886.4511 Q381.3438,886.1699 381.9688,885.5918 L381.9688,888.3105 Z " fill="#000000"/>
        <text fill="#000000" font-family="sans-serif" font-size="14" lengthAdjust="spacing" textLength="89.5857" x="393" y="888.1019">class_method</text>
        <line style="stroke:#181818;stroke-width:0.5;" x1="365" x2="484.5857" y1="898.6699" y2="898.6699"/>
        <line style="stroke:#181818;stroke-width:0.5;" x1="365" x2="484.5857" y1="906.6699" y2="906.6699"/>
      </g>
    </a>
    <a href="classclanguml_1_1class__diagram_1_1model_1_1class__.html" target="_top" title="Diagram element representing a class or class template." xlink:actuate="onRequest" xlink:href="classclanguml_1_1class__diagram_1_1model_1_1class__.html" xlink:show="new" xlink:title="Diagram element representing a class or class template." xlink:type="simple">
      <g id="elem_C_0010336274859733225462">
        <rect codeLine="61" fill="#F1F1F1" height="48" id="C_0010336274859733225462" rx="2.5" ry="2.5" style="stroke:#181818;stroke-width:0.5;" width="69.8139" x="797" y="650.6699"/>
        <ellipse cx="812" cy="666.6699" fill="#ADD1B2" rx="11" ry="11" style="stroke:#181818;stroke-width:1.0;"/>
        <path d="M814.9688,672.3105 Q814.3906,672.6074 813.75,672.748 Q813.1094,672.9043 812.4063,672.9043 Q809.9063,672.9043 808.5781,671.2636 Q807.2656,669.6074 807.2656,666.4824 Q807.2656,663.3574 808.5781,661.7011 Q809.9063,660.0449 812.4063,660.0449 Q813.1094,660.0449 813.75,660.2011 Q814.4063,660.3574 814.9688,660.6543 L814.9688,663.373 Q814.3438,662.7949 813.75,662.5293 Q813.1563,662.248 812.5313,662.248 Q811.1875,662.248 810.5,663.3261 Q809.8125,664.3886 809.8125,666.4824 Q809.8125,668.5761 810.5,669.6543 Q811.1875,670.7168 812.5313,670.7168 Q813.1563,670.7168 813.75,670.4511 Q814.3438,670.1699 814.9688,669.5918 L814.9688,672.3105 Z " fill="#000000"/>
        <text fill="#000000" font-family="sans-serif" font-size="14" lengthAdjust="spacing" textLength="37.8139" x="826" y="672.1019">class_</text>
        <line style="stroke:#181818;stroke-width:0.5;" x1="798" x2="865.8139" y1="682.6699" y2="682.6699"/>
        <line style="stroke:#181818;stroke-width:0.5;" x1="798" x2="865.8139" y1="690.6699" y2="690.6699"/>
      </g>
    </a>
    <a href="classclanguml_1_1class__diagram_1_1model_1_1concept__.html" target="_top" title="Model of C++ concept." xlink:actuate="onRequest" xlink:href="classclanguml_1_1class__diagram_1_1model_1_1concept__.html" xlink:show="new" xlink:title="Model of C++ concept." xlink:type="simple">
      <g id="elem_C_0010998792414017796003">
        <rect codeLine="65" fill="#F1F1F1" height="48" id="C_0010998792414017796003" rx="2.5" ry="2.5" style="stroke:#181818;stroke-width:0.5;" width="90.3378" x="400" y="650.6699"/>
        <ellipse cx="415" cy="666.6699" fill="#ADD1B2" rx="11" ry="11" style="stroke:#181818;stroke-width:1.0;"/>
        <path d="M417.9688,672.3105 Q417.3906,672.6074 416.75,672.748 Q416.1094,672.9043 415.4063,672.9043 Q412.9063,672.9043 411.5781,671.2636 Q410.2656,669.6074 410.2656,666.4824 Q410.2656,663.3574 411.5781,661.7011 Q412.9063,660.0449 415.4063,660.0449 Q416.1094,660.0449 416.75,660.2011 Q417.4063,660.3574 417.9688,660.6543 L417.9688,663.373 Q417.3438,662.7949 416.75,662.5293 Q416.1563,662.248 415.5313,662.248 Q414.1875,662.248 413.5,663.3261 Q412.8125,664.3886 412.8125,666.4824 Q412.8125,668.5761 413.5,669.6543 Q414.1875,670.7168 415.5313,670.7168 Q416.1563,670.7168 416.75,670.4511 Q417.3438,670.1699 417.9688,669.5918 L417.9688,672.3105 Z " fill="#000000"/>
        <text fill="#000000" font-family="sans-serif" font-size="14" lengthAdjust="spacing" textLength="58.3378" x="429" y="672.1019">concept_</text>
        <line style="stroke:#181818;stroke-width:0.5;" x1="401" x2="489.3378" y1="682.6699" y2="682.6699"/>
        <line style="stroke:#181818;stroke-width:0.5;" x1="401" x2="489.3378" y1="690.6699" y2="690.6699"/>
      </g>
    </a>
    <a href="classclanguml_1_1class__diagram_1_1model_1_1enum__.html" target="_top" title="Diagram element representing an enum." xlink:actuate="onRequest" xlink:href="classclanguml_1_1class__diagram_1_1model_1_1enum__.html" xlink:show="new" xlink:title="Diagram element representing an enum." xlink:type="simple">
      <g id="elem_C_0005795143816749204050">
        <rect codeLine="69" fill="#F1F1F1" height="48" id="C_0005795143816749204050" rx="2.5" ry="2.5" style="stroke:#181818;stroke-width:0.5;" width="76.5058" x="525.5" y="650.6699"/>
        <ellipse cx="540.5" cy="666.6699" fill="#ADD1B2" rx="11" ry="11" style="stroke:#181818;stroke-width:1.0;"/>
        <path d="M543.4688,672.3105 Q542.8906,672.6074 542.25,672.748 Q541.6094,672.9043 540.9063,672.9043 Q538.4063,672.9043 537.0781,671.2636 Q535.7656,669.6074 535.7656,666.4824 Q535.7656,663.3574 537.0781,661.7011 Q538.4063,660.0449 540.9063,660.0449 Q541.6094,660.0449 542.25,660.2011 Q542.9063,660.3574 543.4688,660.6543 L543.4688,663.373 Q542.8438,662.7949 542.25,662.5293 Q541.6563,662.248 541.0313,662.248 Q539.6875,662.248 539,663.3261 Q538.3125,664.3886 538.3125,666.4824 Q538.3125,668.5761 539,669.6543 Q539.6875,670.7168 541.0313,670.7168 Q541.6563,670.7168 542.25,670.4511 Q542.8438,670.1699 543.4688,669.5918 L543.4688,672.3105 Z " fill="#000000"/>
        <text fill="#000000" font-family="sans-serif" font-size="14" lengthAdjust="spacing" textLength="44.5058" x="554.5" y="672.1019">enum_</text>
        <line style="stroke:#181818;stroke-width:0.5;" x1="526.5" x2="601.0058" y1="682.6699" y2="682.6699"/>
        <line style="stroke:#181818;stroke-width:0.5;" x1="526.5" x2="601.0058" y1="690.6699" y2="690.6699"/>
      </g>
    </a>
    <a href="classclanguml_1_1class__diagram_1_1model_1_1objc__member.html" target="_top" title="ObjC class member model." xlink:actuate="onRequest" xlink:href="classclanguml_1_1class__diagram_1_1model_1_1objc__member.html" xlink:show="new" xlink:title="ObjC class member model." xlink:type="simple">
      <g id="elem_C_0007364672229966928495">
        <rect codeLine="73" fill="#F1F1F1" height="48" id="C_0007364672229966928495" rx="2.5" ry="2.5" style="stroke:#181818;stroke-width:0.5;" width="121.9917" x="207" y="866.6699"/>
        <ellipse cx="222" cy="882.6699" fill="#ADD1B2" rx="11" ry="11" style="stroke:#181818;stroke-width:1.0;"/>
        <path d="M224.9688,888.3105 Q224.3906,888.6074 223.75,888.748 Q223.1094,888.9043 222.4063,888.9043 Q219.9063,888.9043 218.5781,887.2636 Q217.2656,885.6074 217.2656,882.4824 Q217.2656,879.3574 218.5781,877.7011 Q219.9063,876.0449 222.4063,876.0449 Q223.1094,876.0449 223.75,876.2011 Q224.4063,876.3574 224.9688,876.6543 L224.9688,879.373 Q224.3438,878.7949 223.75,878.5293 Q223.1563,878.248 222.5313,878.248 Q221.1875,878.248 220.5,879.3261 Q219.8125,880.3886 219.8125,882.4824 Q219.8125,884.5761 220.5,885.6543 Q221.1875,886.7168 222.5313,886.7168 Q223.1563,886.7168 223.75,886.4511 Q224.3438,886.1699 224.9688,885.5918 L224.9688,888.3105 Z " fill="#000000"/>
        <text fill="#000000" font-family="sans-serif" font-size="14" lengthAdjust="spacing" textLength="89.9917" x="236" y="888.1019">objc_member</text>
        <line style="stroke:#181818;stroke-width:0.5;" x1="208" x2="327.9917" y1="898.6699" y2="898.6699"/>
        <line style="stroke:#181818;stroke-width:0.5;" x1="208" x2="327.9917" y1="906.6699" y2="906.6699"/>
      </g>
    </a>
    <a href="classclanguml_1_1class__diagram_1_1model_1_1objc__method.html" target="_top" title="ObjC class method model." xlink:actuate="onRequest" xlink:href="classclanguml_1_1class__diagram_1_1model_1_1objc__method.html" xlink:show="new" xlink:title="ObjC class method model." xlink:type="simple">
      <g id="elem_C_0002175636676684225778">
        <rect codeLine="77" fill="#F1F1F1" height="48" id="C_0002175636676684225778" rx="2.5" ry="2.5" style="stroke:#181818;stroke-width:0.5;" width="117.3997" x="521.5" y="866.6699"/>
        <ellipse cx="536.5" cy="882.6699" fill="#ADD1B2" rx="11" ry="11" style="stroke:#181818;stroke-width:1.0;"/>
        <path d="M539.4688,888.3105 Q538.8906,888.6074 538.25,888.748 Q537.6094,888.9043 536.9063,888.9043 Q534.4063,888.9043 533.0781,887.2636 Q531.7656,885.6074 531.7656,882.4824 Q531.7656,879.3574 533.0781,877.7011 Q534.4063,876.0449 536.9063,876.0449 Q537.6094,876.0449 538.25,876.2011 Q538.9063,876.3574 539.4688,876.6543 L539.4688,879.373 Q538.8438,878.7949 538.25,878.5293 Q537.6563,878.248 537.0313,878.248 Q535.6875,878.248 535,879.3261 Q534.3125,880.3886 534.3125,882.4824 Q534.3125,884.5761 535,885.6543 Q535.6875,886.7168 537.0313,886.7168 Q537.6563,886.7168 538.25,886.4511 Q538.8438,886.1699 539.4688,885.5918 L539.4688,888.3105 Z " fill="#000000"/>
        <text fill="#000000" font-family="sans-serif" font-size="14" lengthAdjust="spacing" textLength="85.3997" x="550.5" y="888.1019">objc_method</text>
        <line style="stroke:#181818;stroke-width:0.5;" x1="522.5" x2="637.8997" y1="898.6699" y2="898.6699"/>
        <line style="stroke:#181818;stroke-width:0.5;" x1="522.5" x2="637.8997" y1="906.6699" y2="906.6699"/>
      </g>
    </a>
    <a href="classclanguml_1_1class__diagram_1_1model_1_1objc__interface.html" target="_top" title="Diagram element representing an ObjC interface." xlink:actuate="onRequest" xlink:href="classclanguml_1_1class__diagram_1_1model_1_1objc__interface.html" xlink:show="new" xlink:title="Diagram element representing an ObjC interface." xlink:type="simple">
      <g id="elem_C_0010166346108406727066">
        <rect codeLine="81" fill="#F1F1F1" height="48" id="C_0010166346108406727066" rx="2.5" ry="2.5" style="stroke:#181818;stroke-width:0.5;" width="123.9096" x="638" y="650.6699"/>
        <ellipse cx="653" cy="666.6699" fill="#ADD1B2" rx="11" ry="11" style="stroke:#181818;stroke-width:1.0;"/>
        <path d="M655.9688,672.3105 Q655.3906,672.6074 654.75,672.748 Q654.1094,672.9043 653.4063,672.9043 Q650.9063,672.9043 649.5781,671.2636 Q648.2656,669.6074 648.2656,666.4824 Q648.2656,663.3574 649.5781,661.7011 Q650.9063,660.0449 653.4063,660.0449 Q654.1094,660.0449 654.75,660.2011 Q655.4063,660.3574 655.9688,660.6543 L655.9688,663.373 Q655.3438,662.7949 654.75,662.5293 Q654.1563,662.248 653.5313,662.248 Q652.1875,662.248 651.5,663.3261 Q650.8125,664.3886 650.8125,666.4824 Q650.8125,668.5761 651.5,669.6543 Q652.1875,670.7168 653.5313,670.7168 Q654.1563,670.7168 654.75,670.4511 Q655.3438,670.1699 655.9688,669.5918 L655.9688,672.3105 Z " fill="#000000"/>
        <text fill="#000000" font-family="sans-serif" font-size="14" lengthAdjust="spacing" textLength="91.9096" x="667" y="672.1019">objc_interface</text>
        <line style="stroke:#181818;stroke-width:0.5;" x1="639" x2="760.9096" y1="682.6699" y2="682.6699"/>
        <line style="stroke:#181818;stroke-width:0.5;" x1="639" x2="760.9096" y1="690.6699" y2="690.6699"/>
      </g>
    </a>
    <a href="structclanguml_1_1sequence__diagram_1_1model_1_1participant.html" target="_top" title="Base class for various types of sequence diagram participants" xlink:actuate="onRequest" xlink:href="structclanguml_1_1sequence__diagram_1_1model_1_1participant.html" xlink:show="new" xlink:title="Base class for various types of sequence diagram participants" xlink:type="simple">
      <g id="elem_C_0011201726182739961811">
        <rect codeLine="89" fill="#F1F1F1" height="48" id="C_0011201726182739961811" rx="2.5" ry="2.5" style="stroke:#181818;stroke-width:0.5;" width="103.4137" x="971.5" y="650.6699"/>
        <ellipse cx="986.5" cy="666.6699" fill="#ADD1B2" rx="11" ry="11" style="stroke:#181818;stroke-width:1.0;"/>
        <path d="M989.4688,672.3105 Q988.8906,672.6074 988.25,672.748 Q987.6094,672.9043 986.9063,672.9043 Q984.4063,672.9043 983.0781,671.2636 Q981.7656,669.6074 981.7656,666.4824 Q981.7656,663.3574 983.0781,661.7011 Q984.4063,660.0449 986.9063,660.0449 Q987.6094,660.0449 988.25,660.2011 Q988.9063,660.3574 989.4688,660.6543 L989.4688,663.373 Q988.8438,662.7949 988.25,662.5293 Q987.6563,662.248 987.0313,662.248 Q985.6875,662.248 985,663.3261 Q984.3125,664.3886 984.3125,666.4824 Q984.3125,668.5761 985,669.6543 Q985.6875,670.7168 987.0313,670.7168 Q987.6563,670.7168 988.25,670.4511 Q988.8438,670.1699 989.4688,669.5918 L989.4688,672.3105 Z " fill="#000000"/>
        <text fill="#000000" font-family="sans-serif" font-size="14" lengthAdjust="spacing" textLength="71.4137" x="1000.5" y="672.1019">participant</text>
        <line style="stroke:#181818;stroke-width:0.5;" x1="972.5" x2="1073.9137" y1="682.6699" y2="682.6699"/>
        <line style="stroke:#181818;stroke-width:0.5;" x1="972.5" x2="1073.9137" y1="690.6699" y2="690.6699"/>
      </g>
    </a>
    <a href="structclanguml_1_1sequence__diagram_1_1model_1_1class__.html" target="_top" title="Sequence diagram participant representing a class." xlink:actuate="onRequest" xlink:href="structclanguml_1_1sequence__diagram_1_1model_1_1class__.html" xlink:show="new" xlink:title="Sequence diagram participant representing a class." xlink:type="simple">
      <g id="elem_C_0007084118972955772881">
        <rect codeLine="93" fill="#F1F1F1" height="48" id="C_0007084118972955772881" rx="2.5" ry="2.5" style="stroke:#181818;stroke-width:0.5;" width="69.8139" x="988" y="758.6699"/>
        <ellipse cx="1003" cy="774.6699" fill="#ADD1B2" rx="11" ry="11" style="stroke:#181818;stroke-width:1.0;"/>
        <path d="M1005.9688,780.3105 Q1005.3906,780.6074 1004.75,780.748 Q1004.1094,780.9043 1003.4063,780.9043 Q1000.9063,780.9043 999.5781,779.2636 Q998.2656,777.6074 998.2656,774.4824 Q998.2656,771.3574 999.5781,769.7011 Q1000.9063,768.0449 1003.4063,768.0449 Q1004.1094,768.0449 1004.75,768.2011 Q1005.4063,768.3574 1005.9688,768.6543 L1005.9688,771.373 Q1005.3438,770.7949 1004.75,770.5293 Q1004.1563,770.248 1003.5313,770.248 Q1002.1875,770.248 1001.5,771.3261 Q1000.8125,772.3886 1000.8125,774.4824 Q1000.8125,776.5761 1001.5,777.6543 Q1002.1875,778.7168 1003.5313,778.7168 Q1004.1563,778.7168 1004.75,778.4511 Q1005.3438,778.1699 1005.9688,777.5918 L1005.9688,780.3105 Z " fill="#000000"/>
        <text fill="#000000" font-family="sans-serif" font-size="14" lengthAdjust="spacing" textLength="37.8139" x="1017" y="780.1019">class_</text>
        <line style="stroke:#181818;stroke-width:0.5;" x1="989" x2="1056.8139" y1="790.6699" y2="790.6699"/>
        <line style="stroke:#181818;stroke-width:0.5;" x1="989" x2="1056.8139" y1="798.6699" y2="798.6699"/>
      </g>
    </a>
    <a href="structclanguml_1_1sequence__diagram_1_1model_1_1function.html" target="_top" title="Participant mode representing a free function." xlink:actuate="onRequest" xlink:href="structclanguml_1_1sequence__diagram_1_1model_1_1function.html" xlink:show="new" xlink:title="Participant mode representing a free function." xlink:type="simple">
      <g id="elem_C_0001861107648253454629">
        <rect codeLine="97" fill="#F1F1F1" height="48" id="C_0001861107648253454629" rx="2.5" ry="2.5" style="stroke:#181818;stroke-width:0.5;" width="86.6278" x="1099.5" y="758.6699"/>
        <ellipse cx="1114.5" cy="774.6699" fill="#ADD1B2" rx="11" ry="11" style="stroke:#181818;stroke-width:1.0;"/>
        <path d="M1117.4688,780.3105 Q1116.8906,780.6074 1116.25,780.748 Q1115.6094,780.9043 1114.9063,780.9043 Q1112.4063,780.9043 1111.0781,779.2636 Q1109.7656,777.6074 1109.7656,774.4824 Q1109.7656,771.3574 1111.0781,769.7011 Q1112.4063,768.0449 1114.9063,768.0449 Q1115.6094,768.0449 1116.25,768.2011 Q1116.9063,768.3574 1117.4688,768.6543 L1117.4688,771.373 Q1116.8438,770.7949 1116.25,770.5293 Q1115.6563,770.248 1115.0313,770.248 Q1113.6875,770.248 1113,771.3261 Q1112.3125,772.3886 1112.3125,774.4824 Q1112.3125,776.5761 1113,777.6543 Q1113.6875,778.7168 1115.0313,778.7168 Q1115.6563,778.7168 1116.25,778.4511 Q1116.8438,778.1699 1117.4688,777.5918 L1117.4688,780.3105 Z " fill="#000000"/>
        <text fill="#000000" font-family="sans-serif" font-size="14" lengthAdjust="spacing" textLength="54.6278" x="1128.5" y="780.1019">function</text>
        <line style="stroke:#181818;stroke-width:0.5;" x1="1100.5" x2="1185.1278" y1="790.6699" y2="790.6699"/>
        <line style="stroke:#181818;stroke-width:0.5;" x1="1100.5" x2="1185.1278" y1="798.6699" y2="798.6699"/>
      </g>
    </a>
    <a href="structclanguml_1_1sequence__diagram_1_1model_1_1method.html" target="_top" title="Participant model representing a method" xlink:actuate="onRequest" xlink:href="structclanguml_1_1sequence__diagram_1_1model_1_1method.html" xlink:show="new" xlink:title="Participant model representing a method" xlink:type="simple">
      <g id="elem_C_0006541327780382276039">
        <rect codeLine="101" fill="#F1F1F1" height="48" id="C_0006541327780382276039" rx="2.5" ry="2.5" style="stroke:#181818;stroke-width:0.5;" width="83.7718" x="971" y="866.6699"/>
        <ellipse cx="986" cy="882.6699" fill="#ADD1B2" rx="11" ry="11" style="stroke:#181818;stroke-width:1.0;"/>
        <path d="M988.9688,888.3105 Q988.3906,888.6074 987.75,888.748 Q987.1094,888.9043 986.4063,888.9043 Q983.9063,888.9043 982.5781,887.2636 Q981.2656,885.6074 981.2656,882.4824 Q981.2656,879.3574 982.5781,877.7011 Q983.9063,876.0449 986.4063,876.0449 Q987.1094,876.0449 987.75,876.2011 Q988.4063,876.3574 988.9688,876.6543 L988.9688,879.373 Q988.3438,878.7949 987.75,878.5293 Q987.1563,878.248 986.5313,878.248 Q985.1875,878.248 984.5,879.3261 Q983.8125,880.3886 983.8125,882.4824 Q983.8125,884.5761 984.5,885.6543 Q985.1875,886.7168 986.5313,886.7168 Q987.1563,886.7168 987.75,886.4511 Q988.3438,886.1699 988.9688,885.5918 L988.9688,888.3105 Z " fill="#000000"/>
        <text fill="#000000" font-family="sans-serif" font-size="14" lengthAdjust="spacing" textLength="51.7718" x="1000" y="888.1019">method</text>
        <line style="stroke:#181818;stroke-width:0.5;" x1="972" x2="1053.7718" y1="898.6699" y2="898.6699"/>
        <line style="stroke:#181818;stroke-width:0.5;" x1="972" x2="1053.7718" y1="906.6699" y2="906.6699"/>
      </g>
    </a>
    <a href="structclanguml_1_1sequence__diagram_1_1model_1_1objc__method.html" target="_top" title="objc_method" xlink:actuate="onRequest" xlink:href="structclanguml_1_1sequence__diagram_1_1model_1_1objc__method.html" xlink:show="new" xlink:title="objc_method" xlink:type="simple">
      <g id="elem_C_0013742559556936917396">
        <rect codeLine="105" fill="#F1F1F1" height="48" id="C_0013742559556936917396" rx="2.5" ry="2.5" style="stroke:#181818;stroke-width:0.5;" width="117.3997" x="1090.5" y="866.6699"/>
        <ellipse cx="1105.5" cy="882.6699" fill="#ADD1B2" rx="11" ry="11" style="stroke:#181818;stroke-width:1.0;"/>
        <path d="M1108.4688,888.3105 Q1107.8906,888.6074 1107.25,888.748 Q1106.6094,888.9043 1105.9063,888.9043 Q1103.4063,888.9043 1102.0781,887.2636 Q1100.7656,885.6074 1100.7656,882.4824 Q1100.7656,879.3574 1102.0781,877.7011 Q1103.4063,876.0449 1105.9063,876.0449 Q1106.6094,876.0449 1107.25,876.2011 Q1107.9063,876.3574 1108.4688,876.6543 L1108.4688,879.373 Q1107.8438,878.7949 1107.25,878.5293 Q1106.6563,878.248 1106.0313,878.248 Q1104.6875,878.248 1104,879.3261 Q1103.3125,880.3886 1103.3125,882.4824 Q1103.3125,884.5761 1104,885.6543 Q1104.6875,886.7168 1106.0313,886.7168 Q1106.6563,886.7168 1107.25,886.4511 Q1107.8438,886.1699 1108.4688,885.5918 L1108.4688,888.3105 Z " fill="#000000"/>
        <text fill="#000000" font-family="sans-serif" font-size="14" lengthAdjust="spacing" textLength="85.3997" x="1119.5" y="888.1019">objc_method</text>
        <line style="stroke:#181818;stroke-width:0.5;" x1="1091.5" x2="1206.8997" y1="898.6699" y2="898.6699"/>
        <line style="stroke:#181818;stroke-width:0.5;" x1="1091.5" x2="1206.8997" y1="906.6699" y2="906.6699"/>
      </g>
    </a>
    <a href="structclanguml_1_1sequence__diagram_1_1model_1_1function__template.html" target="_top" title="Participant model representing a function template." xlink:actuate="onRequest" xlink:href="structclanguml_1_1sequence__diagram_1_1model_1_1function__template.html" xlink:show="new" xlink:title="Participant model representing a function template." xlink:type="simple">
      <g id="elem_C_0018241535739946484465">
        <rect codeLine="109" fill="#F1F1F1" height="48" id="C_0018241535739946484465" rx="2.5" ry="2.5" style="stroke:#181818;stroke-width:0.5;" width="151.9095" x="1243" y="866.6699"/>
        <ellipse cx="1258" cy="882.6699" fill="#ADD1B2" rx="11" ry="11" style="stroke:#181818;stroke-width:1.0;"/>
        <path d="M1260.9688,888.3105 Q1260.3906,888.6074 1259.75,888.748 Q1259.1094,888.9043 1258.4063,888.9043 Q1255.9063,888.9043 1254.5781,887.2636 Q1253.2656,885.6074 1253.2656,882.4824 Q1253.2656,879.3574 1254.5781,877.7011 Q1255.9063,876.0449 1258.4063,876.0449 Q1259.1094,876.0449 1259.75,876.2011 Q1260.4063,876.3574 1260.9688,876.6543 L1260.9688,879.373 Q1260.3438,878.7949 1259.75,878.5293 Q1259.1563,878.248 1258.5313,878.248 Q1257.1875,878.248 1256.5,879.3261 Q1255.8125,880.3886 1255.8125,882.4824 Q1255.8125,884.5761 1256.5,885.6543 Q1257.1875,886.7168 1258.5313,886.7168 Q1259.1563,886.7168 1259.75,886.4511 Q1260.3438,886.1699 1260.9688,885.5918 L1260.9688,888.3105 Z " fill="#000000"/>
        <text fill="#000000" font-family="sans-serif" font-size="14" lengthAdjust="spacing" textLength="119.9095" x="1272" y="888.1019">function_template</text>
        <line style="stroke:#181818;stroke-width:0.5;" x1="1244" x2="1393.9095" y1="898.6699" y2="898.6699"/>
        <line style="stroke:#181818;stroke-width:0.5;" x1="1244" x2="1393.9095" y1="906.6699" y2="906.6699"/>
      </g>
    </a>
    <a href="classclanguml_1_1sequence__diagram_1_1model_1_1message.html" target="_top" title="Model of a sequence diagram message." xlink:actuate="onRequest" xlink:href="classclanguml_1_1sequence__diagram_1_1model_1_1message.html" xlink:show="new" xlink:title="Model of a sequence diagram message." xlink:type="simple">
      <g id="elem_C_0017829224549649886549">
        <rect codeLine="113" fill="#F1F1F1" height="48" id="C_0017829224549649886549" rx="2.5" ry="2.5" style="stroke:#181818;stroke-width:0.5;" width="90.7578" x="1109.5" y="650.6699"/>
        <ellipse cx="1124.5" cy="666.6699" fill="#ADD1B2" rx="11" ry="11" style="stroke:#181818;stroke-width:1.0;"/>
        <path d="M1127.4688,672.3105 Q1126.8906,672.6074 1126.25,672.748 Q1125.6094,672.9043 1124.9063,672.9043 Q1122.4063,672.9043 1121.0781,671.2636 Q1119.7656,669.6074 1119.7656,666.4824 Q1119.7656,663.3574 1121.0781,661.7011 Q1122.4063,660.0449 1124.9063,660.0449 Q1125.6094,660.0449 1126.25,660.2011 Q1126.9063,660.3574 1127.4688,660.6543 L1127.4688,663.373 Q1126.8438,662.7949 1126.25,662.5293 Q1125.6563,662.248 1125.0313,662.248 Q1123.6875,662.248 1123,663.3261 Q1122.3125,664.3886 1122.3125,666.4824 Q1122.3125,668.5761 1123,669.6543 Q1123.6875,670.7168 1125.0313,670.7168 Q1125.6563,670.7168 1126.25,670.4511 Q1126.8438,670.1699 1127.4688,669.5918 L1127.4688,672.3105 Z " fill="#000000"/>
        <text fill="#000000" font-family="sans-serif" font-size="14" lengthAdjust="spacing" textLength="58.7578" x="1138.5" y="672.1019">message</text>
        <line style="stroke:#181818;stroke-width:0.5;" x1="1110.5" x2="1199.2578" y1="682.6699" y2="682.6699"/>
        <line style="stroke:#181818;stroke-width:0.5;" x1="1110.5" x2="1199.2578" y1="690.6699" y2="690.6699"/>
      </g>
    </a>
    <g id="link_C_0008936819060997384951_C_0016370694070378943411">
      <path codeLine="118" d="M785.8137,196.2252 C781.8137,213.8852 780.3,220.6099 776.28,238.3499 " fill="none" id="C_0008936819060997384951-backto-C_0016370694070378943411" style="stroke:#181818;stroke-width:1.0;"/>
      <polygon fill="none" points="789.79,178.6699,779.9619,194.8998,791.6655,197.5506,789.79,178.6699" style="stroke:#181818;stroke-width:1.0;"/>
    </g>
    <g id="link_C_0008936819060997384951_C_0008588005715032923314">
      <path codeLine="120" d="M839.9775,189.4866 C863.4675,207.1466 881.38,220.6099 904.98,238.3499 " fill="none" id="C_0008936819060997384951-backto-C_0008588005715032923314" style="stroke:#181818;stroke-width:1.0;"/>
      <polygon fill="none" points="825.59,178.6699,836.3719,194.2824,843.583,184.6907,825.59,178.6699" style="stroke:#181818;stroke-width:1.0;"/>
    </g>
    <g id="link_C_0008588005715032923314_C_0016556163051475263500">
      <path codeLine="122" d="M888.0053,296.9226 C862.4353,314.6426 842.02,328.7799 816.4,346.5299 " fill="none" id="C_0008588005715032923314-backto-C_0016556163051475263500" style="stroke:#181818;stroke-width:1.0;"/>
      <polygon fill="none" points="902.8,286.6699,884.5878,291.991,891.4229,301.8542,902.8,286.6699" style="stroke:#181818;stroke-width:1.0;"/>
    </g>
    <g id="link_C_0016556163051475263500_C_0013384831159811298387">
      <path codeLine="124" d="M794.0386,412.0322 C798.8686,429.6922 800.77,436.6099 805.62,454.3499 " fill="none" id="C_0016556163051475263500-backto-C_0013384831159811298387" style="stroke:#181818;stroke-width:1.0;"/>
      <polygon fill="none" points="789.29,394.6699,788.2511,413.6151,799.826,410.4494,789.29,394.6699" style="stroke:#181818;stroke-width:1.0;"/>
    </g>
    <g id="link_C_0008588005715032923314_C_0006285717704576425038">
      <path codeLine="126" d="M936,304.6699 C936,322.3299 936,328.6099 936,346.3499 " fill="none" id="C_0008588005715032923314-backto-C_0006285717704576425038" style="stroke:#181818;stroke-width:1.0;"/>
      <polygon fill="none" points="936,286.6699,930,304.6699,942,304.6699,936,286.6699" style="stroke:#181818;stroke-width:1.0;"/>
    </g>
    <g id="link_C_0016556163051475263500_C_0017146293478645494837">
      <path codeLine="128" d="M838.2855,403.6924 C868.8755,421.4124 895.4,436.7799 926.05,454.5299 " fill="none" id="C_0016556163051475263500-backto-C_0017146293478645494837" style="stroke:#181818;stroke-width:1.0;"/>
      <polygon fill="none" points="822.71,394.6699,835.278,408.8842,841.293,398.5005,822.71,394.6699" style="stroke:#181818;stroke-width:1.0;"/>
    </g>
    <g id="link_C_0008936819060997384951_C_0004846934894930864299">
      <path codeLine="130" d="M732.6859,186.9886 C701.6659,202.9086 676.24,216.8399 641,238.6699 C431.46,368.4899 361.67,383.7399 188,558.6699 C160.07,586.7999 135.27,625.7299 120.94,650.2999 " fill="none" id="C_0008936819060997384951-backto-C_0004846934894930864299" style="stroke:#181818;stroke-width:1.0;"/>
      <polygon fill="none" points="748.7,178.7699,729.9463,181.6506,735.4254,192.3267,748.7,178.7699" style="stroke:#181818;stroke-width:1.0;"/>
    </g>
    <g id="link_C_0004846934894930864299_C_0014241292626575163322">
      <path codeLine="132" d="M115.6753,716.3582 C119.0053,734.0182 120.25,740.6099 123.6,758.3499 " fill="none" id="C_0004846934894930864299-backto-C_0014241292626575163322" style="stroke:#181818;stroke-width:1.0;"/>
      <polygon fill="none" points="112.34,698.6699,109.7792,717.47,121.5714,715.2464,112.34,698.6699" style="stroke:#181818;stroke-width:1.0;"/>
    </g>
    <g id="link_C_0014241292626575163322_C_0014370262096868218046">
      <path codeLine="134" d="M120.6998,824.3867 C117.5298,842.0467 116.36,848.6099 113.18,866.3499 " fill="none" id="C_0014241292626575163322-backto-C_0014370262096868218046" style="stroke:#181818;stroke-width:1.0;"/>
      <polygon fill="none" points="123.88,806.6699,114.7942,823.3267,126.6054,825.4468,123.88,806.6699" style="stroke:#181818;stroke-width:1.0;"/>
    </g>
    <g id="link_C_0008936819060997384951_C_0004845352266951408403">
      <path codeLine="136" d="M752.5847,190.5224 C732.9647,206.8224 720.37,217.8099 698,238.6699 C552.05,374.7799 517.81,411.5199 383,558.6699 C354.65,589.6199 323.46,626.7999 304.05,650.3399 " fill="none" id="C_0008936819060997384951-backto-C_0004845352266951408403" style="stroke:#181818;stroke-width:1.0;"/>
      <polygon fill="none" points="766.43,179.0199,748.7505,185.9073,756.4188,195.1375,766.43,179.0199" style="stroke:#181818;stroke-width:1.0;"/>
    </g>
    <g id="link_C_0004846934894930864299_C_0018032026899693266441">
      <path codeLine="138" d="M187.3215,702.1964 C240.7815,720.0664 300.69,740.0999 356.01,758.5999 " fill="none" id="C_0004846934894930864299-backto-C_0018032026899693266441" style="stroke:#181818;stroke-width:1.0;"/>
      <polygon fill="none" points="170.25,696.4899,185.4193,707.8869,189.2237,696.5059,170.25,696.4899" style="stroke:#181818;stroke-width:1.0;"/>
    </g>
    <g id="link_C_0018032026899693266441_C_0001633165731746789371">
      <path codeLine="140" d="M425,824.6699 C425,842.3299 425,848.6099 425,866.3499 " fill="none" id="C_0018032026899693266441-backto-C_0001633165731746789371" style="stroke:#181818;stroke-width:1.0;"/>
      <polygon fill="none" points="425,806.6699,419,824.6699,431,824.6699,425,806.6699" style="stroke:#181818;stroke-width:1.0;"/>
    </g>
    <g id="link_C_0013384831159811298387_C_0010336274859733225462">
      <path codeLine="142" d="M816.2168,520.5949 C820.0568,557.8249 825.74,612.9699 829.6,650.3799 " fill="none" id="C_0013384831159811298387-backto-C_0010336274859733225462" style="stroke:#181818;stroke-width:1.0;"/>
      <polygon fill="none" points="814.37,502.6899,810.2484,521.2105,822.1851,519.9793,814.37,502.6899" style="stroke:#181818;stroke-width:1.0;"/>
    </g>
    <g id="link_C_0016556163051475263500_C_0010998792414017796003">
      <path codeLine="144" d="M723.2113,396.4536 C688.7613,411.4236 656.59,427.5999 618,454.6699 C562.92,493.3099 549.11,505.4099 508,558.6699 C485.47,587.8699 466.22,626.1599 455.13,650.3499 " fill="none" id="C_0016556163051475263500-backto-C_0010998792414017796003" style="stroke:#181818;stroke-width:1.0;"/>
      <polygon fill="none" points="739.72,389.2799,720.82,390.9507,725.6025,401.9565,739.72,389.2799" style="stroke:#181818;stroke-width:1.0;"/>
    </g>
    <g id="link_C_0016556163051475263500_C_0005795143816749204050">
      <path codeLine="146" d="M739.2191,406.393 C720.0391,422.143 709.13,432.5899 690,454.6699 C635.28,517.8199 592.23,608.2599 573.78,650.3999 " fill="none" id="C_0016556163051475263500-backto-C_0005795143816749204050" style="stroke:#181818;stroke-width:1.0;"/>
      <polygon fill="none" points="753.13,394.9699,735.4114,401.7561,743.0269,411.03,753.13,394.9699" style="stroke:#181818;stroke-width:1.0;"/>
    </g>
    <g id="link_C_0014241292626575163322_C_0007364672229966928495">
      <path codeLine="148" d="M172.7296,817.5367 C196.0496,835.1967 213.77,848.6099 237.2,866.3499 " fill="none" id="C_0014241292626575163322-backto-C_0007364672229966928495" style="stroke:#181818;stroke-width:1.0;"/>
      <polygon fill="none" points="158.38,806.6699,169.1074,822.3199,176.3519,812.7535,158.38,806.6699" style="stroke:#181818;stroke-width:1.0;"/>
    </g>
    <g id="link_C_0018032026899693266441_C_0002175636676684225778">
      <path codeLine="150" d="M473.4876,816.8311 C499.3976,834.5511 520.21,848.7799 546.17,866.5299 " fill="none" id="C_0018032026899693266441-backto-C_0002175636676684225778" style="stroke:#181818;stroke-width:1.0;"/>
      <polygon fill="none" points="458.63,806.6699,470.1006,821.7837,476.8747,811.8786,458.63,806.6699" style="stroke:#181818;stroke-width:1.0;"/>
    </g>
    <g id="link_C_0016556163051475263500_C_0010166346108406727066">
      <path codeLine="152" d="M747.0745,408.0096 C732.7745,423.5096 727.86,431.9499 719,454.6699 C692.73,522.0499 694.94,609.6799 697.86,650.6499 " fill="none" id="C_0016556163051475263500-backto-C_0010166346108406727066" style="stroke:#181818;stroke-width:1.0;"/>
      <polygon fill="none" points="759.28,394.7799,742.6646,403.9411,751.4844,412.0781,759.28,394.7799" style="stroke:#181818;stroke-width:1.0;"/>
    </g>
    <g id="link_C_0013384831159811298387_C_0011201726182739961811">
      <path codeLine="154" d="M850.2816,514.8716 C890.7816,552.1016 956.98,612.9699 997.67,650.3799 " fill="none" id="C_0013384831159811298387-backto-C_0011201726182739961811" style="stroke:#181818;stroke-width:1.0;"/>
      <polygon fill="none" points="837.03,502.6899,846.2211,519.2888,854.3422,510.4544,837.03,502.6899" style="stroke:#181818;stroke-width:1.0;"/>
    </g>
    <g id="link_C_0011201726182739961811_C_0007084118972955772881">
      <path codeLine="156" d="M1023,716.6699 C1023,734.3299 1023,740.6099 1023,758.3499 " fill="none" id="C_0011201726182739961811-backto-C_0007084118972955772881" style="stroke:#181818;stroke-width:1.0;"/>
      <polygon fill="none" points="1023,698.6699,1017,716.6699,1029,716.6699,1023,698.6699" style="stroke:#181818;stroke-width:1.0;"/>
    </g>
    <g id="link_C_0011201726182739961811_C_0001861107648253454629">
      <path codeLine="158" d="M1062.5298,710.5873 C1082.5198,728.2473 1096.52,740.6099 1116.6,758.3499 " fill="none" id="C_0011201726182739961811-backto-C_0001861107648253454629" style="stroke:#181818;stroke-width:1.0;"/>
      <polygon fill="none" points="1049.04,698.6699,1058.5573,715.0839,1066.5023,706.0907,1049.04,698.6699" style="stroke:#181818;stroke-width:1.0;"/>
    </g>
    <g id="link_C_0001861107648253454629_C_0006541327780382276039">
      <path codeLine="160" d="M1100.8418,818.0475 C1079.1918,835.7075 1063.36,848.6099 1041.6,866.3499 " fill="none" id="C_0001861107648253454629-backto-C_0006541327780382276039" style="stroke:#181818;stroke-width:1.0;"/>
      <polygon fill="none" points="1114.79,806.6699,1097.0493,813.3981,1104.6344,822.6969,1114.79,806.6699" style="stroke:#181818;stroke-width:1.0;"/>
    </g>
    <g id="link_C_0001861107648253454629_C_0013742559556936917396">
      <path codeLine="162" d="M1145.3176,824.6411 C1146.3176,842.3011 1146.68,848.6099 1147.68,866.3499 " fill="none" id="C_0001861107648253454629-backto-C_0013742559556936917396" style="stroke:#181818;stroke-width:1.0;"/>
      <polygon fill="none" points="1144.3,806.6699,1139.3272,824.9803,1151.308,824.3019,1144.3,806.6699" style="stroke:#181818;stroke-width:1.0;"/>
    </g>
    <g id="link_C_0001861107648253454629_C_0018241535739946484465">
      <path codeLine="164" d="M1196.6091,815.957 C1226.0291,833.677 1251.1,848.7799 1280.58,866.5299 " fill="none" id="C_0001861107648253454629-backto-C_0018241535739946484465" style="stroke:#181818;stroke-width:1.0;"/>
      <polygon fill="none" points="1181.19,806.6699,1193.5134,821.0967,1199.7048,810.8173,1181.19,806.6699" style="stroke:#181818;stroke-width:1.0;"/>
    </g>
    <g id="link_C_0008588005715032923314_C_0017829224549649886549">
      <path codeLine="166" d="M970.1048,300.0418 C984.6248,316.0218 991.32,324.9399 1005,346.6699 C1072.21,453.4399 1126.75,595.3099 1146.76,650.4099 " fill="none" id="C_0008588005715032923314-backto-C_0017829224549649886549" style="stroke:#181818;stroke-width:1.0;"/>
      <polygon fill="none" points="958,286.7199,965.6641,304.0768,974.5454,296.0069,958,286.7199" style="stroke:#181818;stroke-width:1.0;"/>
    </g>
  </g>
</svg>
