<svg xmlns="http://www.w3.org/2000/svg" xmlns:xlink="http://www.w3.org/1999/xlink" contentStyleType="text/css" height="946px" preserveAspectRatio="none" style="width:1164px;height:946px;background:#FFFFFF;" version="1.1" viewBox="0 0 1164 946" width="1164px" zoomAndPan="magnify">
  <defs>
    <style type="text/css">a:hover { text-decoration: underline; }</style>
  </defs>
  <g>
    <text fill="#000000" font-family="sans-serif" font-size="14" font-weight="bold" lengthAdjust="spacing" textLength="344.9688" x="402.5156" y="22.9951">Decorated diagram element class hierarchy</text>
    <g id="cluster_C_0002532840279361781187">
      <path d="M559.5,43.2969 L627.1777,43.2969 A3.75,3.75 0 0 1 629.6777,45.7969 L636.6777,65.5938 L940.5,65.5938 A2.5,2.5 0 0 1 943,68.0938 L943,530.7969 A2.5,2.5 0 0 1 940.5,533.2969 L559.5,533.2969 A2.5,2.5 0 0 1 557,530.7969 L557,45.7969 A2.5,2.5 0 0 1 559.5,43.2969 " fill="none" style="stroke:#000000;stroke-width:1.5;"/>
      <line style="stroke:#000000;stroke-width:1.5;" x1="557" x2="636.6777" y1="65.5938" y2="65.5938"/>
      <text fill="#000000" font-family="sans-serif" font-size="14" font-weight="bold" lengthAdjust="spacing" textLength="66.6777" x="561" y="58.292">common</text>
    </g>
    <g id="cluster_C_0000669774451444102653">
      <path d="M583.5,86.2969 L633.0215,86.2969 A3.75,3.75 0 0 1 635.5215,88.7969 L642.5215,108.5938 L916.5,108.5938 A2.5,2.5 0 0 1 919,111.0938 L919,506.7969 A2.5,2.5 0 0 1 916.5,509.2969 L583.5,509.2969 A2.5,2.5 0 0 1 581,506.7969 L581,88.7969 A2.5,2.5 0 0 1 583.5,86.2969 " fill="none" style="stroke:#000000;stroke-width:1.5;"/>
      <line style="stroke:#000000;stroke-width:1.5;" x1="581" x2="642.5215" y1="108.5938" y2="108.5938"/>
      <text fill="#000000" font-family="sans-serif" font-size="14" font-weight="bold" lengthAdjust="spacing" textLength="48.5215" x="585" y="101.292">model</text>
    </g>
    <g id="cluster_C_0017921336289613804855">
      <path d="M8.5,557.2969 L120.9395,557.2969 A3.75,3.75 0 0 1 123.4395,559.7969 L130.4395,579.5938 L770.5,579.5938 A2.5,2.5 0 0 1 773,582.0938 L773,828.7969 A2.5,2.5 0 0 1 770.5,831.2969 L8.5,831.2969 A2.5,2.5 0 0 1 6,828.7969 L6,559.7969 A2.5,2.5 0 0 1 8.5,557.2969 " fill="none" style="stroke:#000000;stroke-width:1.5;"/>
      <line style="stroke:#000000;stroke-width:1.5;" x1="6" x2="130.4395" y1="579.5938" y2="579.5938"/>
      <text fill="#000000" font-family="sans-serif" font-size="14" font-weight="bold" lengthAdjust="spacing" textLength="111.4395" x="10" y="572.292">class_diagram</text>
    </g>
    <g id="cluster_C_0007176993879715460962">
      <path d="M32.5,600.2969 L82.0215,600.2969 A3.75,3.75 0 0 1 84.5215,602.7969 L91.5215,622.5938 L746.5,622.5938 A2.5,2.5 0 0 1 749,625.0938 L749,804.7969 A2.5,2.5 0 0 1 746.5,807.2969 L32.5,807.2969 A2.5,2.5 0 0 1 30,804.7969 L30,602.7969 A2.5,2.5 0 0 1 32.5,600.2969 " fill="none" style="stroke:#000000;stroke-width:1.5;"/>
      <line style="stroke:#000000;stroke-width:1.5;" x1="30" x2="91.5215" y1="622.5938" y2="622.5938"/>
      <text fill="#000000" font-family="sans-serif" font-size="14" font-weight="bold" lengthAdjust="spacing" textLength="48.5215" x="34" y="615.292">model</text>
    </g>
    <g id="cluster_C_0012174902727661033893">
      <path d="M799.5,557.2969 L947.8008,557.2969 A3.75,3.75 0 0 1 950.3008,559.7969 L957.3008,579.5938 L1154.5,579.5938 A2.5,2.5 0 0 1 1157,582.0938 L1157,936.7969 A2.5,2.5 0 0 1 1154.5,939.2969 L799.5,939.2969 A2.5,2.5 0 0 1 797,936.7969 L797,559.7969 A2.5,2.5 0 0 1 799.5,557.2969 " fill="none" style="stroke:#000000;stroke-width:1.5;"/>
      <line style="stroke:#000000;stroke-width:1.5;" x1="797" x2="957.3008" y1="579.5938" y2="579.5938"/>
      <text fill="#000000" font-family="sans-serif" font-size="14" font-weight="bold" lengthAdjust="spacing" textLength="147.3008" x="801" y="572.292">sequence_diagram</text>
    </g>
    <g id="cluster_C_0017655759046645114118">
      <path d="M823.5,600.2969 L873.0215,600.2969 A3.75,3.75 0 0 1 875.5215,602.7969 L882.5215,622.5938 L1130.5,622.5938 A2.5,2.5 0 0 1 1133,625.0938 L1133,912.7969 A2.5,2.5 0 0 1 1130.5,915.2969 L823.5,915.2969 A2.5,2.5 0 0 1 821,912.7969 L821,602.7969 A2.5,2.5 0 0 1 823.5,600.2969 " fill="none" style="stroke:#000000;stroke-width:1.5;"/>
      <line style="stroke:#000000;stroke-width:1.5;" x1="821" x2="882.5215" y1="622.5938" y2="622.5938"/>
      <text fill="#000000" font-family="sans-serif" font-size="14" font-weight="bold" lengthAdjust="spacing" textLength="48.5215" x="825" y="615.292">model</text>
    </g>
    <a href="classclanguml_1_1common_1_1model_1_1decorated__element.html" target="_top" title="Base class for decorated diagram elements" xlink:actuate="onRequest" xlink:href="classclanguml_1_1common_1_1model_1_1decorated__element.html" xlink:show="new" xlink:title="Base class for decorated diagram elements" xlink:type="simple">
      <g id="elem_C_0008936819060997384951">
        <rect codeLine="5" fill="#F1F1F1" height="48" id="C_0008936819060997384951" rx="2.5" ry="2.5" style="stroke:#181818;stroke-width:0.5;" width="167.8164" x="597" y="121.2969"/>
        <ellipse cx="612" cy="137.2969" fill="#ADD1B2" rx="11" ry="11" style="stroke:#181818;stroke-width:1.0;"/>
        <path d="M614.9688,142.9375 Q614.3906,143.2344 613.75,143.375 Q613.1094,143.5313 612.4063,143.5313 Q609.9063,143.5313 608.5781,141.8906 Q607.2656,140.2344 607.2656,137.1094 Q607.2656,133.9844 608.5781,132.3281 Q609.9063,130.6719 612.4063,130.6719 Q613.1094,130.6719 613.75,130.8281 Q614.4063,130.9844 614.9688,131.2813 L614.9688,134 Q614.3438,133.4219 613.75,133.1563 Q613.1563,132.875 612.5313,132.875 Q611.1875,132.875 610.5,133.9531 Q609.8125,135.0156 609.8125,137.1094 Q609.8125,139.2031 610.5,140.2813 Q611.1875,141.3438 612.5313,141.3438 Q613.1563,141.3438 613.75,141.0781 Q614.3438,140.7969 614.9688,140.2188 L614.9688,142.9375 Z " fill="#000000"/>
        <text fill="#000000" font-family="sans-serif" font-size="14" lengthAdjust="spacing" textLength="135.8164" x="626" y="142.1436">decorated_element</text>
        <line style="stroke:#181818;stroke-width:0.5;" x1="598" x2="763.8164" y1="153.2969" y2="153.2969"/>
        <line style="stroke:#181818;stroke-width:0.5;" x1="598" x2="763.8164" y1="161.2969" y2="161.2969"/>
      </g>
    </a>
    <a href="classclanguml_1_1common_1_1model_1_1relationship.html" target="_top" title="Class representing any relationship other than inheritance" xlink:actuate="onRequest" xlink:href="classclanguml_1_1common_1_1model_1_1relationship.html" xlink:show="new" xlink:title="Class representing any relationship other than inheritance" xlink:type="simple">
      <g id="elem_C_0016370694070378943411">
        <rect codeLine="9" fill="#F1F1F1" height="48" id="C_0016370694070378943411" rx="2.5" ry="2.5" style="stroke:#181818;stroke-width:0.5;" width="114.5986" x="597.5" y="229.2969"/>
        <ellipse cx="612.5" cy="245.2969" fill="#ADD1B2" rx="11" ry="11" style="stroke:#181818;stroke-width:1.0;"/>
        <path d="M615.4688,250.9375 Q614.8906,251.2344 614.25,251.375 Q613.6094,251.5313 612.9063,251.5313 Q610.4063,251.5313 609.0781,249.8906 Q607.7656,248.2344 607.7656,245.1094 Q607.7656,241.9844 609.0781,240.3281 Q610.4063,238.6719 612.9063,238.6719 Q613.6094,238.6719 614.25,238.8281 Q614.9063,238.9844 615.4688,239.2813 L615.4688,242 Q614.8438,241.4219 614.25,241.1563 Q613.6563,240.875 613.0313,240.875 Q611.6875,240.875 611,241.9531 Q610.3125,243.0156 610.3125,245.1094 Q610.3125,247.2031 611,248.2813 Q611.6875,249.3438 613.0313,249.3438 Q613.6563,249.3438 614.25,249.0781 Q614.8438,248.7969 615.4688,248.2188 L615.4688,250.9375 Z " fill="#000000"/>
        <text fill="#000000" font-family="sans-serif" font-size="14" lengthAdjust="spacing" textLength="82.5986" x="626.5" y="250.1436">relationship</text>
        <line style="stroke:#181818;stroke-width:0.5;" x1="598.5" x2="711.0986" y1="261.2969" y2="261.2969"/>
        <line style="stroke:#181818;stroke-width:0.5;" x1="598.5" x2="711.0986" y1="269.2969" y2="269.2969"/>
      </g>
    </a>
    <a href="classclanguml_1_1common_1_1model_1_1diagram__element.html" target="_top" title="Base class for standalone diagram elements." xlink:actuate="onRequest" xlink:href="classclanguml_1_1common_1_1model_1_1diagram__element.html" xlink:show="new" xlink:title="Base class for standalone diagram elements." xlink:type="simple">
      <g id="elem_C_0008588005715032923314">
        <rect codeLine="13" fill="#F1F1F1" height="48" id="C_0008588005715032923314" rx="2.5" ry="2.5" style="stroke:#181818;stroke-width:0.5;" width="154.9443" x="747.5" y="229.2969"/>
        <ellipse cx="762.5" cy="245.2969" fill="#ADD1B2" rx="11" ry="11" style="stroke:#181818;stroke-width:1.0;"/>
        <path d="M765.4688,250.9375 Q764.8906,251.2344 764.25,251.375 Q763.6094,251.5313 762.9063,251.5313 Q760.4063,251.5313 759.0781,249.8906 Q757.7656,248.2344 757.7656,245.1094 Q757.7656,241.9844 759.0781,240.3281 Q760.4063,238.6719 762.9063,238.6719 Q763.6094,238.6719 764.25,238.8281 Q764.9063,238.9844 765.4688,239.2813 L765.4688,242 Q764.8438,241.4219 764.25,241.1563 Q763.6563,240.875 763.0313,240.875 Q761.6875,240.875 761,241.9531 Q760.3125,243.0156 760.3125,245.1094 Q760.3125,247.2031 761,248.2813 Q761.6875,249.3438 763.0313,249.3438 Q763.6563,249.3438 764.25,249.0781 Q764.8438,248.7969 765.4688,248.2188 L765.4688,250.9375 Z " fill="#000000"/>
        <text fill="#000000" font-family="sans-serif" font-size="14" lengthAdjust="spacing" textLength="122.9443" x="776.5" y="250.1436">diagram_element</text>
        <line style="stroke:#181818;stroke-width:0.5;" x1="748.5" x2="901.4443" y1="261.2969" y2="261.2969"/>
        <line style="stroke:#181818;stroke-width:0.5;" x1="748.5" x2="901.4443" y1="269.2969" y2="269.2969"/>
      </g>
    </a>
    <a href="classclanguml_1_1common_1_1model_1_1element.html" target="_top" title="Base class for any element qualified by namespace." xlink:actuate="onRequest" xlink:href="classclanguml_1_1common_1_1model_1_1element.html" xlink:show="new" xlink:title="Base class for any element qualified by namespace." xlink:type="simple">
      <g id="elem_C_0016556163051475263500">
        <rect codeLine="17" fill="#F1F1F1" height="48" id="C_0016556163051475263500" rx="2.5" ry="2.5" style="stroke:#181818;stroke-width:0.5;" width="89.7295" x="648" y="337.2969"/>
        <ellipse cx="663" cy="353.2969" fill="#ADD1B2" rx="11" ry="11" style="stroke:#181818;stroke-width:1.0;"/>
        <path d="M665.9688,358.9375 Q665.3906,359.2344 664.75,359.375 Q664.1094,359.5313 663.4063,359.5313 Q660.9063,359.5313 659.5781,357.8906 Q658.2656,356.2344 658.2656,353.1094 Q658.2656,349.9844 659.5781,348.3281 Q660.9063,346.6719 663.4063,346.6719 Q664.1094,346.6719 664.75,346.8281 Q665.4063,346.9844 665.9688,347.2813 L665.9688,350 Q665.3438,349.4219 664.75,349.1563 Q664.1563,348.875 663.5313,348.875 Q662.1875,348.875 661.5,349.9531 Q660.8125,351.0156 660.8125,353.1094 Q660.8125,355.2031 661.5,356.2813 Q662.1875,357.3438 663.5313,357.3438 Q664.1563,357.3438 664.75,357.0781 Q665.3438,356.7969 665.9688,356.2188 L665.9688,358.9375 Z " fill="#000000"/>
        <text fill="#000000" font-family="sans-serif" font-size="14" lengthAdjust="spacing" textLength="57.7295" x="677" y="358.1436">element</text>
        <line style="stroke:#181818;stroke-width:0.5;" x1="649" x2="736.7295" y1="369.2969" y2="369.2969"/>
        <line style="stroke:#181818;stroke-width:0.5;" x1="649" x2="736.7295" y1="377.2969" y2="377.2969"/>
      </g>
    </a>
    <a href="classclanguml_1_1common_1_1model_1_1template__element.html" target="_top" title="Base class for any element qualified by namespace." xlink:actuate="onRequest" xlink:href="classclanguml_1_1common_1_1model_1_1template__element.html" xlink:show="new" xlink:title="Base class for any element qualified by namespace." xlink:type="simple">
      <g id="elem_C_0013384831159811298387">
        <rect codeLine="21" fill="#F1F1F1" height="48" id="C_0013384831159811298387" rx="2.5" ry="2.5" style="stroke:#181818;stroke-width:0.5;" width="159.9277" x="616" y="445.2969"/>
        <ellipse cx="631" cy="461.2969" fill="#ADD1B2" rx="11" ry="11" style="stroke:#181818;stroke-width:1.0;"/>
        <path d="M633.9688,466.9375 Q633.3906,467.2344 632.75,467.375 Q632.1094,467.5313 631.4063,467.5313 Q628.9063,467.5313 627.5781,465.8906 Q626.2656,464.2344 626.2656,461.1094 Q626.2656,457.9844 627.5781,456.3281 Q628.9063,454.6719 631.4063,454.6719 Q632.1094,454.6719 632.75,454.8281 Q633.4063,454.9844 633.9688,455.2813 L633.9688,458 Q633.3438,457.4219 632.75,457.1563 Q632.1563,456.875 631.5313,456.875 Q630.1875,456.875 629.5,457.9531 Q628.8125,459.0156 628.8125,461.1094 Q628.8125,463.2031 629.5,464.2813 Q630.1875,465.3438 631.5313,465.3438 Q632.1563,465.3438 632.75,465.0781 Q633.3438,464.7969 633.9688,464.2188 L633.9688,466.9375 Z " fill="#000000"/>
        <text fill="#000000" font-family="sans-serif" font-size="14" lengthAdjust="spacing" textLength="127.9277" x="645" y="466.1436">template_element</text>
        <line style="stroke:#181818;stroke-width:0.5;" x1="617" x2="774.9277" y1="477.2969" y2="477.2969"/>
        <line style="stroke:#181818;stroke-width:0.5;" x1="617" x2="774.9277" y1="485.2969" y2="485.2969"/>
      </g>
    </a>
    <a href="classclanguml_1_1common_1_1model_1_1source__file.html" target="_top" title="Diagram element representing some file or directory." xlink:actuate="onRequest" xlink:href="classclanguml_1_1common_1_1model_1_1source__file.html" xlink:show="new" xlink:title="Diagram element representing some file or directory." xlink:type="simple">
      <g id="elem_C_0006285717704576425038">
        <rect codeLine="25" fill="#F1F1F1" height="48" id="C_0006285717704576425038" rx="2.5" ry="2.5" style="stroke:#181818;stroke-width:0.5;" width="107.1201" x="773.5" y="337.2969"/>
        <ellipse cx="788.5" cy="353.2969" fill="#ADD1B2" rx="11" ry="11" style="stroke:#181818;stroke-width:1.0;"/>
        <path d="M791.4688,358.9375 Q790.8906,359.2344 790.25,359.375 Q789.6094,359.5313 788.9063,359.5313 Q786.4063,359.5313 785.0781,357.8906 Q783.7656,356.2344 783.7656,353.1094 Q783.7656,349.9844 785.0781,348.3281 Q786.4063,346.6719 788.9063,346.6719 Q789.6094,346.6719 790.25,346.8281 Q790.9063,346.9844 791.4688,347.2813 L791.4688,350 Q790.8438,349.4219 790.25,349.1563 Q789.6563,348.875 789.0313,348.875 Q787.6875,348.875 787,349.9531 Q786.3125,351.0156 786.3125,353.1094 Q786.3125,355.2031 787,356.2813 Q787.6875,357.3438 789.0313,357.3438 Q789.6563,357.3438 790.25,357.0781 Q790.8438,356.7969 791.4688,356.2188 L791.4688,358.9375 Z " fill="#000000"/>
        <text fill="#000000" font-family="sans-serif" font-size="14" lengthAdjust="spacing" textLength="75.1201" x="802.5" y="358.1436">source_file</text>
        <line style="stroke:#181818;stroke-width:0.5;" x1="774.5" x2="879.6201" y1="369.2969" y2="369.2969"/>
        <line style="stroke:#181818;stroke-width:0.5;" x1="774.5" x2="879.6201" y1="377.2969" y2="377.2969"/>
      </g>
    </a>
    <a href="classclanguml_1_1common_1_1model_1_1package.html" target="_top" title="Diagram element representing namespace or directory package" xlink:actuate="onRequest" xlink:href="classclanguml_1_1common_1_1model_1_1package.html" xlink:show="new" xlink:title="Diagram element representing namespace or directory package" xlink:type="simple">
      <g id="elem_C_0017146293478645494837">
        <rect codeLine="29" fill="#F1F1F1" height="48" id="C_0017146293478645494837" rx="2.5" ry="2.5" style="stroke:#181818;stroke-width:0.5;" width="91.3496" x="811.5" y="445.2969"/>
        <ellipse cx="826.5" cy="461.2969" fill="#ADD1B2" rx="11" ry="11" style="stroke:#181818;stroke-width:1.0;"/>
        <path d="M829.4688,466.9375 Q828.8906,467.2344 828.25,467.375 Q827.6094,467.5313 826.9063,467.5313 Q824.4063,467.5313 823.0781,465.8906 Q821.7656,464.2344 821.7656,461.1094 Q821.7656,457.9844 823.0781,456.3281 Q824.4063,454.6719 826.9063,454.6719 Q827.6094,454.6719 828.25,454.8281 Q828.9063,454.9844 829.4688,455.2813 L829.4688,458 Q828.8438,457.4219 828.25,457.1563 Q827.6563,456.875 827.0313,456.875 Q825.6875,456.875 825,457.9531 Q824.3125,459.0156 824.3125,461.1094 Q824.3125,463.2031 825,464.2813 Q825.6875,465.3438 827.0313,465.3438 Q827.6563,465.3438 828.25,465.0781 Q828.8438,464.7969 829.4688,464.2188 L829.4688,466.9375 Z " fill="#000000"/>
        <text fill="#000000" font-family="sans-serif" font-size="14" lengthAdjust="spacing" textLength="59.3496" x="840.5" y="466.1436">package</text>
        <line style="stroke:#181818;stroke-width:0.5;" x1="812.5" x2="901.8496" y1="477.2969" y2="477.2969"/>
        <line style="stroke:#181818;stroke-width:0.5;" x1="812.5" x2="901.8496" y1="485.2969" y2="485.2969"/>
      </g>
    </a>
    <a href="classclanguml_1_1class__diagram_1_1model_1_1class__element.html" target="_top" title="Base class for class elements (e.g. member or method)." xlink:actuate="onRequest" xlink:href="classclanguml_1_1class__diagram_1_1model_1_1class__element.html" xlink:show="new" xlink:title="Base class for class elements (e.g. member or method)." xlink:type="simple">
      <g id="elem_C_0004846934894930864299">
        <rect codeLine="37" fill="#F1F1F1" height="48" id="C_0004846934894930864299" rx="2.5" ry="2.5" style="stroke:#181818;stroke-width:0.5;" width="131.4834" x="46.5" y="635.2969"/>
        <ellipse cx="61.5" cy="651.2969" fill="#ADD1B2" rx="11" ry="11" style="stroke:#181818;stroke-width:1.0;"/>
        <path d="M64.4688,656.9375 Q63.8906,657.2344 63.25,657.375 Q62.6094,657.5313 61.9063,657.5313 Q59.4063,657.5313 58.0781,655.8906 Q56.7656,654.2344 56.7656,651.1094 Q56.7656,647.9844 58.0781,646.3281 Q59.4063,644.6719 61.9063,644.6719 Q62.6094,644.6719 63.25,644.8281 Q63.9063,644.9844 64.4688,645.2813 L64.4688,648 Q63.8438,647.4219 63.25,647.1563 Q62.6563,646.875 62.0313,646.875 Q60.6875,646.875 60,647.9531 Q59.3125,649.0156 59.3125,651.1094 Q59.3125,653.2031 60,654.2813 Q60.6875,655.3438 62.0313,655.3438 Q62.6563,655.3438 63.25,655.0781 Q63.8438,654.7969 64.4688,654.2188 L64.4688,656.9375 Z " fill="#000000"/>
        <text fill="#000000" font-family="sans-serif" font-size="14" lengthAdjust="spacing" textLength="99.4834" x="75.5" y="656.1436">class_element</text>
        <line style="stroke:#181818;stroke-width:0.5;" x1="47.5" x2="176.9834" y1="667.2969" y2="667.2969"/>
        <line style="stroke:#181818;stroke-width:0.5;" x1="47.5" x2="176.9834" y1="675.2969" y2="675.2969"/>
      </g>
    </a>
    <a href="classclanguml_1_1class__diagram_1_1model_1_1class__member.html" target="_top" title="Class member model." xlink:actuate="onRequest" xlink:href="classclanguml_1_1class__diagram_1_1model_1_1class__member.html" xlink:show="new" xlink:title="Class member model." xlink:type="simple">
      <g id="elem_C_0014370262096868218046">
        <rect codeLine="41" fill="#F1F1F1" height="48" id="C_0014370262096868218046" rx="2.5" ry="2.5" style="stroke:#181818;stroke-width:0.5;" width="132.8984" x="46.5" y="743.2969"/>
        <ellipse cx="61.5" cy="759.2969" fill="#ADD1B2" rx="11" ry="11" style="stroke:#181818;stroke-width:1.0;"/>
        <path d="M64.4688,764.9375 Q63.8906,765.2344 63.25,765.375 Q62.6094,765.5313 61.9063,765.5313 Q59.4063,765.5313 58.0781,763.8906 Q56.7656,762.2344 56.7656,759.1094 Q56.7656,755.9844 58.0781,754.3281 Q59.4063,752.6719 61.9063,752.6719 Q62.6094,752.6719 63.25,752.8281 Q63.9063,752.9844 64.4688,753.2813 L64.4688,756 Q63.8438,755.4219 63.25,755.1563 Q62.6563,754.875 62.0313,754.875 Q60.6875,754.875 60,755.9531 Q59.3125,757.0156 59.3125,759.1094 Q59.3125,761.2031 60,762.2813 Q60.6875,763.3438 62.0313,763.3438 Q62.6563,763.3438 63.25,763.0781 Q63.8438,762.7969 64.4688,762.2188 L64.4688,764.9375 Z " fill="#000000"/>
        <text fill="#000000" font-family="sans-serif" font-size="14" lengthAdjust="spacing" textLength="100.8984" x="75.5" y="764.1436">class_member</text>
        <line style="stroke:#181818;stroke-width:0.5;" x1="47.5" x2="178.3984" y1="775.2969" y2="775.2969"/>
        <line style="stroke:#181818;stroke-width:0.5;" x1="47.5" x2="178.3984" y1="783.2969" y2="783.2969"/>
      </g>
    </a>
    <a href="classclanguml_1_1class__diagram_1_1model_1_1method__parameter.html" target="_top" title="Model of a method parameter." xlink:actuate="onRequest" xlink:href="classclanguml_1_1class__diagram_1_1model_1_1method__parameter.html" xlink:show="new" xlink:title="Model of a method parameter." xlink:type="simple">
      <g id="elem_C_0004845352266951408403">
        <rect codeLine="45" fill="#F1F1F1" height="48" id="C_0004845352266951408403" rx="2.5" ry="2.5" style="stroke:#181818;stroke-width:0.5;" width="166.9756" x="212.5" y="635.2969"/>
        <ellipse cx="227.5" cy="651.2969" fill="#ADD1B2" rx="11" ry="11" style="stroke:#181818;stroke-width:1.0;"/>
        <path d="M230.4688,656.9375 Q229.8906,657.2344 229.25,657.375 Q228.6094,657.5313 227.9063,657.5313 Q225.4063,657.5313 224.0781,655.8906 Q222.7656,654.2344 222.7656,651.1094 Q222.7656,647.9844 224.0781,646.3281 Q225.4063,644.6719 227.9063,644.6719 Q228.6094,644.6719 229.25,644.8281 Q229.9063,644.9844 230.4688,645.2813 L230.4688,648 Q229.8438,647.4219 229.25,647.1563 Q228.6563,646.875 228.0313,646.875 Q226.6875,646.875 226,647.9531 Q225.3125,649.0156 225.3125,651.1094 Q225.3125,653.2031 226,654.2813 Q226.6875,655.3438 228.0313,655.3438 Q228.6563,655.3438 229.25,655.0781 Q229.8438,654.7969 230.4688,654.2188 L230.4688,656.9375 Z " fill="#000000"/>
        <text fill="#000000" font-family="sans-serif" font-size="14" lengthAdjust="spacing" textLength="134.9756" x="241.5" y="656.1436">method_parameter</text>
        <line style="stroke:#181818;stroke-width:0.5;" x1="213.5" x2="378.4756" y1="667.2969" y2="667.2969"/>
        <line style="stroke:#181818;stroke-width:0.5;" x1="213.5" x2="378.4756" y1="675.2969" y2="675.2969"/>
      </g>
    </a>
    <a href="classclanguml_1_1class__diagram_1_1model_1_1class__method.html" target="_top" title="Class method model." xlink:actuate="onRequest" xlink:href="classclanguml_1_1class__diagram_1_1model_1_1class__method.html" xlink:show="new" xlink:title="Class method model." xlink:type="simple">
      <g id="elem_C_0001633165731746789371">
        <rect codeLine="49" fill="#F1F1F1" height="48" id="C_0001633165731746789371" rx="2.5" ry="2.5" style="stroke:#181818;stroke-width:0.5;" width="127.8193" x="215" y="743.2969"/>
        <ellipse cx="230" cy="759.2969" fill="#ADD1B2" rx="11" ry="11" style="stroke:#181818;stroke-width:1.0;"/>
        <path d="M232.9688,764.9375 Q232.3906,765.2344 231.75,765.375 Q231.1094,765.5313 230.4063,765.5313 Q227.9063,765.5313 226.5781,763.8906 Q225.2656,762.2344 225.2656,759.1094 Q225.2656,755.9844 226.5781,754.3281 Q227.9063,752.6719 230.4063,752.6719 Q231.1094,752.6719 231.75,752.8281 Q232.4063,752.9844 232.9688,753.2813 L232.9688,756 Q232.3438,755.4219 231.75,755.1563 Q231.1563,754.875 230.5313,754.875 Q229.1875,754.875 228.5,755.9531 Q227.8125,757.0156 227.8125,759.1094 Q227.8125,761.2031 228.5,762.2813 Q229.1875,763.3438 230.5313,763.3438 Q231.1563,763.3438 231.75,763.0781 Q232.3438,762.7969 232.9688,762.2188 L232.9688,764.9375 Z " fill="#000000"/>
        <text fill="#000000" font-family="sans-serif" font-size="14" lengthAdjust="spacing" textLength="95.8193" x="244" y="764.1436">class_method</text>
        <line style="stroke:#181818;stroke-width:0.5;" x1="216" x2="341.8193" y1="775.2969" y2="775.2969"/>
        <line style="stroke:#181818;stroke-width:0.5;" x1="216" x2="341.8193" y1="783.2969" y2="783.2969"/>
      </g>
    </a>
    <a href="classclanguml_1_1class__diagram_1_1model_1_1class__.html" target="_top" title="Diagram element representing a class or class template." xlink:actuate="onRequest" xlink:href="classclanguml_1_1class__diagram_1_1model_1_1class__.html" xlink:show="new" xlink:title="Diagram element representing a class or class template." xlink:type="simple">
      <g id="elem_C_0010336274859733225462">
        <rect codeLine="53" fill="#F1F1F1" height="48" id="C_0010336274859733225462" rx="2.5" ry="2.5" style="stroke:#181818;stroke-width:0.5;" width="73.7539" x="659" y="635.2969"/>
        <ellipse cx="674" cy="651.2969" fill="#ADD1B2" rx="11" ry="11" style="stroke:#181818;stroke-width:1.0;"/>
        <path d="M676.9688,656.9375 Q676.3906,657.2344 675.75,657.375 Q675.1094,657.5313 674.4063,657.5313 Q671.9063,657.5313 670.5781,655.8906 Q669.2656,654.2344 669.2656,651.1094 Q669.2656,647.9844 670.5781,646.3281 Q671.9063,644.6719 674.4063,644.6719 Q675.1094,644.6719 675.75,644.8281 Q676.4063,644.9844 676.9688,645.2813 L676.9688,648 Q676.3438,647.4219 675.75,647.1563 Q675.1563,646.875 674.5313,646.875 Q673.1875,646.875 672.5,647.9531 Q671.8125,649.0156 671.8125,651.1094 Q671.8125,653.2031 672.5,654.2813 Q673.1875,655.3438 674.5313,655.3438 Q675.1563,655.3438 675.75,655.0781 Q676.3438,654.7969 676.9688,654.2188 L676.9688,656.9375 Z " fill="#000000"/>
        <text fill="#000000" font-family="sans-serif" font-size="14" lengthAdjust="spacing" textLength="41.7539" x="688" y="656.1436">class_</text>
        <line style="stroke:#181818;stroke-width:0.5;" x1="660" x2="731.7539" y1="667.2969" y2="667.2969"/>
        <line style="stroke:#181818;stroke-width:0.5;" x1="660" x2="731.7539" y1="675.2969" y2="675.2969"/>
      </g>
    </a>
    <a href="classclanguml_1_1class__diagram_1_1model_1_1concept__.html" target="_top" title="Model of C++ concept." xlink:actuate="onRequest" xlink:href="classclanguml_1_1class__diagram_1_1model_1_1concept__.html" xlink:show="new" xlink:title="Model of C++ concept." xlink:type="simple">
      <g id="elem_C_0010998792414017796003">
        <rect codeLine="57" fill="#F1F1F1" height="48" id="C_0010998792414017796003" rx="2.5" ry="2.5" style="stroke:#181818;stroke-width:0.5;" width="94.8223" x="414.5" y="635.2969"/>
        <ellipse cx="429.5" cy="651.2969" fill="#ADD1B2" rx="11" ry="11" style="stroke:#181818;stroke-width:1.0;"/>
        <path d="M432.4688,656.9375 Q431.8906,657.2344 431.25,657.375 Q430.6094,657.5313 429.9063,657.5313 Q427.4063,657.5313 426.0781,655.8906 Q424.7656,654.2344 424.7656,651.1094 Q424.7656,647.9844 426.0781,646.3281 Q427.4063,644.6719 429.9063,644.6719 Q430.6094,644.6719 431.25,644.8281 Q431.9063,644.9844 432.4688,645.2813 L432.4688,648 Q431.8438,647.4219 431.25,647.1563 Q430.6563,646.875 430.0313,646.875 Q428.6875,646.875 428,647.9531 Q427.3125,649.0156 427.3125,651.1094 Q427.3125,653.2031 428,654.2813 Q428.6875,655.3438 430.0313,655.3438 Q430.6563,655.3438 431.25,655.0781 Q431.8438,654.7969 432.4688,654.2188 L432.4688,656.9375 Z " fill="#000000"/>
        <text fill="#000000" font-family="sans-serif" font-size="14" lengthAdjust="spacing" textLength="62.8223" x="443.5" y="656.1436">concept_</text>
        <line style="stroke:#181818;stroke-width:0.5;" x1="415.5" x2="508.3223" y1="667.2969" y2="667.2969"/>
        <line style="stroke:#181818;stroke-width:0.5;" x1="415.5" x2="508.3223" y1="675.2969" y2="675.2969"/>
      </g>
    </a>
    <a href="classclanguml_1_1class__diagram_1_1model_1_1enum__.html" target="_top" title="Diagram element representing an enum." xlink:actuate="onRequest" xlink:href="classclanguml_1_1class__diagram_1_1model_1_1enum__.html" xlink:show="new" xlink:title="Diagram element representing an enum." xlink:type="simple">
      <g id="elem_C_0005795143816749204050">
        <rect codeLine="61" fill="#F1F1F1" height="48" id="C_0005795143816749204050" rx="2.5" ry="2.5" style="stroke:#181818;stroke-width:0.5;" width="78.9971" x="544.5" y="635.2969"/>
        <ellipse cx="559.5" cy="651.2969" fill="#ADD1B2" rx="11" ry="11" style="stroke:#181818;stroke-width:1.0;"/>
        <path d="M562.4688,656.9375 Q561.8906,657.2344 561.25,657.375 Q560.6094,657.5313 559.9063,657.5313 Q557.4063,657.5313 556.0781,655.8906 Q554.7656,654.2344 554.7656,651.1094 Q554.7656,647.9844 556.0781,646.3281 Q557.4063,644.6719 559.9063,644.6719 Q560.6094,644.6719 561.25,644.8281 Q561.9063,644.9844 562.4688,645.2813 L562.4688,648 Q561.8438,647.4219 561.25,647.1563 Q560.6563,646.875 560.0313,646.875 Q558.6875,646.875 558,647.9531 Q557.3125,649.0156 557.3125,651.1094 Q557.3125,653.2031 558,654.2813 Q558.6875,655.3438 560.0313,655.3438 Q560.6563,655.3438 561.25,655.0781 Q561.8438,654.7969 562.4688,654.2188 L562.4688,656.9375 Z " fill="#000000"/>
        <text fill="#000000" font-family="sans-serif" font-size="14" lengthAdjust="spacing" textLength="46.9971" x="573.5" y="656.1436">enum_</text>
        <line style="stroke:#181818;stroke-width:0.5;" x1="545.5" x2="622.4971" y1="667.2969" y2="667.2969"/>
        <line style="stroke:#181818;stroke-width:0.5;" x1="545.5" x2="622.4971" y1="675.2969" y2="675.2969"/>
      </g>
    </a>
    <a href="structclanguml_1_1sequence__diagram_1_1model_1_1participant.html" target="_top" title="Base class for various types of sequence diagram participants" xlink:actuate="onRequest" xlink:href="structclanguml_1_1sequence__diagram_1_1model_1_1participant.html" xlink:show="new" xlink:title="Base class for various types of sequence diagram participants" xlink:type="simple">
      <g id="elem_C_0011201726182739961811">
        <rect codeLine="69" fill="#F1F1F1" height="48" id="C_0011201726182739961811" rx="2.5" ry="2.5" style="stroke:#181818;stroke-width:0.5;" width="108.0156" x="837" y="635.2969"/>
        <ellipse cx="852" cy="651.2969" fill="#ADD1B2" rx="11" ry="11" style="stroke:#181818;stroke-width:1.0;"/>
        <path d="M854.9688,656.9375 Q854.3906,657.2344 853.75,657.375 Q853.1094,657.5313 852.4063,657.5313 Q849.9063,657.5313 848.5781,655.8906 Q847.2656,654.2344 847.2656,651.1094 Q847.2656,647.9844 848.5781,646.3281 Q849.9063,644.6719 852.4063,644.6719 Q853.1094,644.6719 853.75,644.8281 Q854.4063,644.9844 854.9688,645.2813 L854.9688,648 Q854.3438,647.4219 853.75,647.1563 Q853.1563,646.875 852.5313,646.875 Q851.1875,646.875 850.5,647.9531 Q849.8125,649.0156 849.8125,651.1094 Q849.8125,653.2031 850.5,654.2813 Q851.1875,655.3438 852.5313,655.3438 Q853.1563,655.3438 853.75,655.0781 Q854.3438,654.7969 854.9688,654.2188 L854.9688,656.9375 Z " fill="#000000"/>
        <text fill="#000000" font-family="sans-serif" font-size="14" lengthAdjust="spacing" textLength="76.0156" x="866" y="656.1436">participant</text>
        <line style="stroke:#181818;stroke-width:0.5;" x1="838" x2="944.0156" y1="667.2969" y2="667.2969"/>
        <line style="stroke:#181818;stroke-width:0.5;" x1="838" x2="944.0156" y1="675.2969" y2="675.2969"/>
      </g>
    </a>
    <a href="structclanguml_1_1sequence__diagram_1_1model_1_1class__.html" target="_top" title="Sequence diagram participant representing a class." xlink:actuate="onRequest" xlink:href="structclanguml_1_1sequence__diagram_1_1model_1_1class__.html" xlink:show="new" xlink:title="Sequence diagram participant representing a class." xlink:type="simple">
      <g id="elem_C_0007084118972955772881">
        <rect codeLine="73" fill="#F1F1F1" height="48" id="C_0007084118972955772881" rx="2.5" ry="2.5" style="stroke:#181818;stroke-width:0.5;" width="73.7539" x="845" y="743.2969"/>
        <ellipse cx="860" cy="759.2969" fill="#ADD1B2" rx="11" ry="11" style="stroke:#181818;stroke-width:1.0;"/>
        <path d="M862.9688,764.9375 Q862.3906,765.2344 861.75,765.375 Q861.1094,765.5313 860.4063,765.5313 Q857.9063,765.5313 856.5781,763.8906 Q855.2656,762.2344 855.2656,759.1094 Q855.2656,755.9844 856.5781,754.3281 Q857.9063,752.6719 860.4063,752.6719 Q861.1094,752.6719 861.75,752.8281 Q862.4063,752.9844 862.9688,753.2813 L862.9688,756 Q862.3438,755.4219 861.75,755.1563 Q861.1563,754.875 860.5313,754.875 Q859.1875,754.875 858.5,755.9531 Q857.8125,757.0156 857.8125,759.1094 Q857.8125,761.2031 858.5,762.2813 Q859.1875,763.3438 860.5313,763.3438 Q861.1563,763.3438 861.75,763.0781 Q862.3438,762.7969 862.9688,762.2188 L862.9688,764.9375 Z " fill="#000000"/>
        <text fill="#000000" font-family="sans-serif" font-size="14" lengthAdjust="spacing" textLength="41.7539" x="874" y="764.1436">class_</text>
        <line style="stroke:#181818;stroke-width:0.5;" x1="846" x2="917.7539" y1="775.2969" y2="775.2969"/>
        <line style="stroke:#181818;stroke-width:0.5;" x1="846" x2="917.7539" y1="783.2969" y2="783.2969"/>
      </g>
    </a>
    <a href="structclanguml_1_1sequence__diagram_1_1model_1_1function.html" target="_top" title="Participant mode representing a free function." xlink:actuate="onRequest" xlink:href="structclanguml_1_1sequence__diagram_1_1model_1_1function.html" xlink:show="new" xlink:title="Participant mode representing a free function." xlink:type="simple">
      <g id="elem_C_0001861107648253454629">
        <rect codeLine="77" fill="#F1F1F1" height="48" id="C_0001861107648253454629" rx="2.5" ry="2.5" style="stroke:#181818;stroke-width:0.5;" width="89.1895" x="954.5" y="743.2969"/>
        <ellipse cx="969.5" cy="759.2969" fill="#ADD1B2" rx="11" ry="11" style="stroke:#181818;stroke-width:1.0;"/>
        <path d="M972.4688,764.9375 Q971.8906,765.2344 971.25,765.375 Q970.6094,765.5313 969.9063,765.5313 Q967.4063,765.5313 966.0781,763.8906 Q964.7656,762.2344 964.7656,759.1094 Q964.7656,755.9844 966.0781,754.3281 Q967.4063,752.6719 969.9063,752.6719 Q970.6094,752.6719 971.25,752.8281 Q971.9063,752.9844 972.4688,753.2813 L972.4688,756 Q971.8438,755.4219 971.25,755.1563 Q970.6563,754.875 970.0313,754.875 Q968.6875,754.875 968,755.9531 Q967.3125,757.0156 967.3125,759.1094 Q967.3125,761.2031 968,762.2813 Q968.6875,763.3438 970.0313,763.3438 Q970.6563,763.3438 971.25,763.0781 Q971.8438,762.7969 972.4688,762.2188 L972.4688,764.9375 Z " fill="#000000"/>
        <text fill="#000000" font-family="sans-serif" font-size="14" lengthAdjust="spacing" textLength="57.1895" x="983.5" y="764.1436">function</text>
        <line style="stroke:#181818;stroke-width:0.5;" x1="955.5" x2="1042.6895" y1="775.2969" y2="775.2969"/>
        <line style="stroke:#181818;stroke-width:0.5;" x1="955.5" x2="1042.6895" y1="783.2969" y2="783.2969"/>
      </g>
    </a>
    <a href="structclanguml_1_1sequence__diagram_1_1model_1_1method.html" target="_top" title="Participant model representing a method" xlink:actuate="onRequest" xlink:href="structclanguml_1_1sequence__diagram_1_1model_1_1method.html" xlink:show="new" xlink:title="Participant model representing a method" xlink:type="simple">
      <g id="elem_C_0006541327780382276039">
        <rect codeLine="81" fill="#F1F1F1" height="48" id="C_0006541327780382276039" rx="2.5" ry="2.5" style="stroke:#181818;stroke-width:0.5;" width="86.0654" x="837" y="851.2969"/>
        <ellipse cx="852" cy="867.2969" fill="#ADD1B2" rx="11" ry="11" style="stroke:#181818;stroke-width:1.0;"/>
        <path d="M854.9688,872.9375 Q854.3906,873.2344 853.75,873.375 Q853.1094,873.5313 852.4063,873.5313 Q849.9063,873.5313 848.5781,871.8906 Q847.2656,870.2344 847.2656,867.1094 Q847.2656,863.9844 848.5781,862.3281 Q849.9063,860.6719 852.4063,860.6719 Q853.1094,860.6719 853.75,860.8281 Q854.4063,860.9844 854.9688,861.2813 L854.9688,864 Q854.3438,863.4219 853.75,863.1563 Q853.1563,862.875 852.5313,862.875 Q851.1875,862.875 850.5,863.9531 Q849.8125,865.0156 849.8125,867.1094 Q849.8125,869.2031 850.5,870.2813 Q851.1875,871.3438 852.5313,871.3438 Q853.1563,871.3438 853.75,871.0781 Q854.3438,870.7969 854.9688,870.2188 L854.9688,872.9375 Z " fill="#000000"/>
        <text fill="#000000" font-family="sans-serif" font-size="14" lengthAdjust="spacing" textLength="54.0654" x="866" y="872.1436">method</text>
        <line style="stroke:#181818;stroke-width:0.5;" x1="838" x2="922.0654" y1="883.2969" y2="883.2969"/>
        <line style="stroke:#181818;stroke-width:0.5;" x1="838" x2="922.0654" y1="891.2969" y2="891.2969"/>
      </g>
    </a>
    <a href="structclanguml_1_1sequence__diagram_1_1model_1_1function__template.html" target="_top" title="Participant model representing a function template." xlink:actuate="onRequest" xlink:href="structclanguml_1_1sequence__diagram_1_1model_1_1function__template.html" xlink:show="new" xlink:title="Participant model representing a function template." xlink:type="simple">
      <g id="elem_C_0018241535739946484465">
        <rect codeLine="85" fill="#F1F1F1" height="48" id="C_0018241535739946484465" rx="2.5" ry="2.5" style="stroke:#181818;stroke-width:0.5;" width="159.3877" x="958.5" y="851.2969"/>
        <ellipse cx="973.5" cy="867.2969" fill="#ADD1B2" rx="11" ry="11" style="stroke:#181818;stroke-width:1.0;"/>
        <path d="M976.4688,872.9375 Q975.8906,873.2344 975.25,873.375 Q974.6094,873.5313 973.9063,873.5313 Q971.4063,873.5313 970.0781,871.8906 Q968.7656,870.2344 968.7656,867.1094 Q968.7656,863.9844 970.0781,862.3281 Q971.4063,860.6719 973.9063,860.6719 Q974.6094,860.6719 975.25,860.8281 Q975.9063,860.9844 976.4688,861.2813 L976.4688,864 Q975.8438,863.4219 975.25,863.1563 Q974.6563,862.875 974.0313,862.875 Q972.6875,862.875 972,863.9531 Q971.3125,865.0156 971.3125,867.1094 Q971.3125,869.2031 972,870.2813 Q972.6875,871.3438 974.0313,871.3438 Q974.6563,871.3438 975.25,871.0781 Q975.8438,870.7969 976.4688,870.2188 L976.4688,872.9375 Z " fill="#000000"/>
        <text fill="#000000" font-family="sans-serif" font-size="14" lengthAdjust="spacing" textLength="127.3877" x="987.5" y="872.1436">function_template</text>
        <line style="stroke:#181818;stroke-width:0.5;" x1="959.5" x2="1116.8877" y1="883.2969" y2="883.2969"/>
        <line style="stroke:#181818;stroke-width:0.5;" x1="959.5" x2="1116.8877" y1="891.2969" y2="891.2969"/>
      </g>
    </a>
    <a href="classclanguml_1_1sequence__diagram_1_1model_1_1message.html" target="_top" title="Model of a sequence diagram message." xlink:actuate="onRequest" xlink:href="classclanguml_1_1sequence__diagram_1_1model_1_1message.html" xlink:show="new" xlink:title="Model of a sequence diagram message." xlink:type="simple">
      <g id="elem_C_0017829224549649886549">
        <rect codeLine="89" fill="#F1F1F1" height="48" id="C_0017829224549649886549" rx="2.5" ry="2.5" style="stroke:#181818;stroke-width:0.5;" width="94.918" x="980.5" y="635.2969"/>
        <ellipse cx="995.5" cy="651.2969" fill="#ADD1B2" rx="11" ry="11" style="stroke:#181818;stroke-width:1.0;"/>
        <path d="M998.4688,656.9375 Q997.8906,657.2344 997.25,657.375 Q996.6094,657.5313 995.9063,657.5313 Q993.4063,657.5313 992.0781,655.8906 Q990.7656,654.2344 990.7656,651.1094 Q990.7656,647.9844 992.0781,646.3281 Q993.4063,644.6719 995.9063,644.6719 Q996.6094,644.6719 997.25,644.8281 Q997.9063,644.9844 998.4688,645.2813 L998.4688,648 Q997.8438,647.4219 997.25,647.1563 Q996.6563,646.875 996.0313,646.875 Q994.6875,646.875 994,647.9531 Q993.3125,649.0156 993.3125,651.1094 Q993.3125,653.2031 994,654.2813 Q994.6875,655.3438 996.0313,655.3438 Q996.6563,655.3438 997.25,655.0781 Q997.8438,654.7969 998.4688,654.2188 L998.4688,656.9375 Z " fill="#000000"/>
        <text fill="#000000" font-family="sans-serif" font-size="14" lengthAdjust="spacing" textLength="62.918" x="1009.5" y="656.1436">message</text>
        <line style="stroke:#181818;stroke-width:0.5;" x1="981.5" x2="1074.418" y1="667.2969" y2="667.2969"/>
        <line style="stroke:#181818;stroke-width:0.5;" x1="981.5" x2="1074.418" y1="675.2969" y2="675.2969"/>
      </g>
    </a>
    <g id="link_C_0008936819060997384951_C_0016370694070378943411">
      <path codeLine="94" d="M671.0736,186.7791 C666.7436,204.4391 665.07,211.2369 660.72,228.9769 " fill="none" id="C_0008936819060997384951-backto-C_0016370694070378943411" style="stroke:#181818;stroke-width:1.0;"/>
      <polygon fill="none" points="675.36,169.2969,665.2462,185.3503,676.901,188.2079,675.36,169.2969" style="stroke:#181818;stroke-width:1.0;"/>
    </g>
    <g id="link_C_0008936819060997384951_C_0008588005715032923314">
      <path codeLine="95" d="M726.7437,179.9707 C750.7237,197.6307 769.22,211.2369 793.32,228.9769 " fill="none" id="C_0008936819060997384951-backto-C_0008588005715032923314" style="stroke:#181818;stroke-width:1.0;"/>
      <polygon fill="none" points="712.25,169.2969,723.1858,184.802,730.3017,175.1395,712.25,169.2969" style="stroke:#181818;stroke-width:1.0;"/>
    </g>
    <g id="link_C_0008588005715032923314_C_0016556163051475263500">
      <path codeLine="96" d="M782.3256,288.5678 C760.3356,306.2278 744.13,319.2369 722.04,336.9769 " fill="none" id="C_0008588005715032923314-backto-C_0016556163051475263500" style="stroke:#181818;stroke-width:1.0;"/>
      <polygon fill="none" points="796.36,277.2969,778.5686,283.8897,786.0825,293.246,796.36,277.2969" style="stroke:#181818;stroke-width:1.0;"/>
    </g>
    <g id="link_C_0016556163051475263500_C_0013384831159811298387">
      <path codeLine="97" d="M694.1594,403.2897 C694.6594,420.9497 694.84,427.2369 695.34,444.9769 " fill="none" id="C_0016556163051475263500-backto-C_0013384831159811298387" style="stroke:#181818;stroke-width:1.0;"/>
      <polygon fill="none" points="693.65,385.2969,688.1618,403.4595,700.157,403.1199,693.65,385.2969" style="stroke:#181818;stroke-width:1.0;"/>
    </g>
    <g id="link_C_0008588005715032923314_C_0006285717704576425038">
      <path codeLine="98" d="M825.7765,295.2935 C826.1165,312.9535 826.23,319.2369 826.56,336.9769 " fill="none" id="C_0008588005715032923314-backto-C_0006285717704576425038" style="stroke:#181818;stroke-width:1.0;"/>
      <polygon fill="none" points="825.43,277.2969,819.7776,295.409,831.7754,295.178,825.43,277.2969" style="stroke:#181818;stroke-width:1.0;"/>
    </g>
    <g id="link_C_0016556163051475263500_C_0017146293478645494837">
      <path codeLine="99" d="M743.7063,395.0692 C771.1163,412.7892 793.73,427.4069 821.2,445.1569 " fill="none" id="C_0016556163051475263500-backto-C_0017146293478645494837" style="stroke:#181818;stroke-width:1.0;"/>
      <polygon fill="none" points="728.59,385.2969,740.4488,400.108,746.9637,390.0305,728.59,385.2969" style="stroke:#181818;stroke-width:1.0;"/>
    </g>
    <g id="link_C_0008936819060997384951_C_0004846934894930864299">
      <path codeLine="100" d="M616.0684,177.4028 C585.7784,192.6328 562.79,205.9569 531,229.2969 C364.76,351.3269 332.57,395.6669 195,549.2969 C169.93,577.2969 144.19,612.2569 128.16,634.9169 " fill="none" id="C_0008936819060997384951-backto-C_0004846934894930864299" style="stroke:#181818;stroke-width:1.0;"/>
      <polygon fill="none" points="632.15,169.3169,613.3731,172.0423,618.7637,182.7633,632.15,169.3169" style="stroke:#181818;stroke-width:1.0;"/>
    </g>
    <g id="link_C_0004846934894930864299_C_0014370262096868218046">
      <path codeLine="101" d="M112.3831,701.2961 C112.5431,718.9561 112.61,725.2369 112.78,742.9769 " fill="none" id="C_0004846934894930864299-backto-C_0014370262096868218046" style="stroke:#181818;stroke-width:1.0;"/>
      <polygon fill="none" points="112.22,683.2969,106.3833,701.3505,118.3828,701.2418,112.22,683.2969" style="stroke:#181818;stroke-width:1.0;"/>
    </g>
    <g id="link_C_0008936819060997384951_C_0004845352266951408403">
      <path codeLine="102" d="M633.4968,180.2525 C612.6568,195.7825 600.37,206.7169 580,229.2969 C454.38,368.5869 343.75,568.0369 308.05,635.2169 " fill="none" id="C_0008936819060997384951-backto-C_0004845352266951408403" style="stroke:#181818;stroke-width:1.0;"/>
      <polygon fill="none" points="647.93,169.4969,629.9116,175.4414,637.082,185.0636,647.93,169.4969" style="stroke:#181818;stroke-width:1.0;"/>
    </g>
    <g id="link_C_0004846934894930864299_C_0001633165731746789371">
      <path codeLine="103" d="M163.436,692.9448 C191.346,710.6648 214.58,725.4069 242.55,743.1569 " fill="none" id="C_0004846934894930864299-backto-C_0001633165731746789371" style="stroke:#181818;stroke-width:1.0;"/>
      <polygon fill="none" points="148.24,683.2969,160.22,698.0101,166.652,687.8794,148.24,683.2969" style="stroke:#181818;stroke-width:1.0;"/>
    </g>
    <g id="link_C_0013384831159811298387_C_0010336274859733225462">
      <path codeLine="104" d="M696,511.3469 C696,547.4269 696,598.8569 696,635.0569 " fill="none" id="C_0013384831159811298387-backto-C_0010336274859733225462" style="stroke:#181818;stroke-width:1.0;"/>
      <polygon fill="none" points="696,493.3469,690,511.3469,702,511.3469,696,493.3469" style="stroke:#181818;stroke-width:1.0;"/>
    </g>
    <g id="link_C_0016556163051475263500_C_0010998792414017796003">
      <path codeLine="105" d="M632.2516,393.3437 C606.3516,407.8737 590.33,420.0069 568,445.2969 C515.93,504.2869 482.66,593.4269 469.04,635.1869 " fill="none" id="C_0016556163051475263500-backto-C_0010998792414017796003" style="stroke:#181818;stroke-width:1.0;"/>
      <polygon fill="none" points="647.95,384.5369,629.316,388.1109,635.1872,398.5765,647.95,384.5369" style="stroke:#181818;stroke-width:1.0;"/>
    </g>
    <g id="link_C_0016556163051475263500_C_0005795143816749204050">
      <path codeLine="106" d="M640.1294,395.8544 C619.8294,410.3444 611.25,420.5069 599,445.2969 C567.97,508.1169 574.58,594.2769 580.17,635.0769 " fill="none" id="C_0016556163051475263500-backto-C_0005795143816749204050" style="stroke:#181818;stroke-width:1.0;"/>
      <polygon fill="none" points="654.78,385.3969,636.6435,390.9708,643.6152,400.7379,654.78,385.3969" style="stroke:#181818;stroke-width:1.0;"/>
    </g>
    <g id="link_C_0013384831159811298387_C_0011201726182739961811">
      <path codeLine="107" d="M732.8695,505.8389 C770.2995,541.9189 829.35,598.8569 866.89,635.0569 " fill="none" id="C_0013384831159811298387-backto-C_0011201726182739961811" style="stroke:#181818;stroke-width:1.0;"/>
      <polygon fill="none" points="719.91,493.3469,728.7055,510.1588,737.0335,501.5191,719.91,493.3469" style="stroke:#181818;stroke-width:1.0;"/>
    </g>
    <g id="link_C_0011201726182739961811_C_0007084118972955772881">
      <path codeLine="108" d="M887.5266,701.2323 C886.0266,718.8923 885.49,725.2369 883.98,742.9769 " fill="none" id="C_0011201726182739961811-backto-C_0007084118972955772881" style="stroke:#181818;stroke-width:1.0;"/>
      <polygon fill="none" points="889.05,683.2969,881.5481,700.7245,893.5051,701.7401,889.05,683.2969" style="stroke:#181818;stroke-width:1.0;"/>
    </g>
    <g id="link_C_0011201726182739961811_C_0001861107648253454629">
      <path codeLine="109" d="M927.2787,695.9029 C945.2787,713.5629 957.17,725.2369 975.24,742.9769 " fill="none" id="C_0011201726182739961811-backto-C_0001861107648253454629" style="stroke:#181818;stroke-width:1.0;"/>
      <polygon fill="none" points="914.43,683.2969,923.0767,700.1858,931.4807,691.62,914.43,683.2969" style="stroke:#181818;stroke-width:1.0;"/>
    </g>
    <g id="link_C_0001861107648253454629_C_0006541327780382276039">
      <path codeLine="110" d="M970.6827,805.444 C959.0227,820.184 953.87,825.0369 937,839.2969 C932.03,843.4969 926.51,847.5269 920.92,851.2769 " fill="none" id="C_0001861107648253454629-backto-C_0006541327780382276039" style="stroke:#181818;stroke-width:1.0;"/>
      <polygon fill="none" points="981.85,791.3269,965.977,801.7216,975.3884,809.1664,981.85,791.3269" style="stroke:#181818;stroke-width:1.0;"/>
    </g>
    <g id="link_C_0001861107648253454629_C_0018241535739946484465">
      <path codeLine="111" d="M1013.6774,808.189 C1020.1774,825.849 1022.89,833.2369 1029.42,850.9769 " fill="none" id="C_0001861107648253454629-backto-C_0018241535739946484465" style="stroke:#181818;stroke-width:1.0;"/>
      <polygon fill="none" points="1007.46,791.2969,1008.0467,810.2615,1019.3081,806.1166,1007.46,791.2969" style="stroke:#181818;stroke-width:1.0;"/>
    </g>
    <g id="link_C_0008588005715032923314_C_0017829224549649886549">
      <path codeLine="112" d="M861.9867,290.4747 C877.4267,306.2347 884.39,315.2569 898,337.2969 C961.8,440.6469 1005.86,580.7569 1021.6,635.2669 " fill="none" id="C_0008588005715032923314-backto-C_0017829224549649886549" style="stroke:#181818;stroke-width:1.0;"/>
      <polygon fill="none" points="849.39,277.6169,857.7008,294.6736,866.2726,286.2758,849.39,277.6169" style="stroke:#181818;stroke-width:1.0;"/>
    </g>
  </g>
</svg>
