<svg xmlns="http://www.w3.org/2000/svg" xmlns:xlink="http://www.w3.org/1999/xlink" contentStyleType="text/css" height="946px" preserveAspectRatio="none" style="width:1486px;height:946px;background:#FFFFFF;" version="1.1" viewBox="0 0 1486 946" width="1486px" zoomAndPan="magnify">
  <title>Decorated diagram element class hierarchy</title>
  <defs>
    <style type="text/css">a:hover { text-decoration: underline; }</style>
  </defs>
  <g>
    <text fill="#000000" font-family="sans-serif" font-size="14" font-weight="bold" lengthAdjust="spacing" textLength="344.9688" x="563.5156" y="22.9951">Decorated diagram element class hierarchy</text>
    <g id="cluster_C_0002532840279361781187">
      <path d="M702.5,43.2969 L770.1777,43.2969 A3.75,3.75 0 0 1 772.6777,45.7969 L779.6777,65.5938 L1083.5,65.5938 A2.5,2.5 0 0 1 1086,68.0938 L1086,530.7969 A2.5,2.5 0 0 1 1083.5,533.2969 L702.5,533.2969 A2.5,2.5 0 0 1 700,530.7969 L700,45.7969 A2.5,2.5 0 0 1 702.5,43.2969 " fill="none" style="stroke:#000000;stroke-width:1.5;"/>
      <line style="stroke:#000000;stroke-width:1.5;" x1="700" x2="779.6777" y1="65.5938" y2="65.5938"/>
      <text fill="#000000" font-family="sans-serif" font-size="14" font-weight="bold" lengthAdjust="spacing" textLength="66.6777" x="704" y="58.292">common</text>
    </g>
    <g id="cluster_C_0000669774451444102653">
      <path d="M726.5,86.2969 L776.0215,86.2969 A3.75,3.75 0 0 1 778.5215,88.7969 L785.5215,108.5938 L1059.5,108.5938 A2.5,2.5 0 0 1 1062,111.0938 L1062,506.7969 A2.5,2.5 0 0 1 1059.5,509.2969 L726.5,509.2969 A2.5,2.5 0 0 1 724,506.7969 L724,88.7969 A2.5,2.5 0 0 1 726.5,86.2969 " fill="none" style="stroke:#000000;stroke-width:1.5;"/>
      <line style="stroke:#000000;stroke-width:1.5;" x1="724" x2="785.5215" y1="108.5938" y2="108.5938"/>
      <text fill="#000000" font-family="sans-serif" font-size="14" font-weight="bold" lengthAdjust="spacing" textLength="48.5215" x="728" y="101.292">model</text>
    </g>
    <g id="cluster_C_0017921336289613804855">
      <path d="M8.5,557.2969 L120.9395,557.2969 A3.75,3.75 0 0 1 123.4395,559.7969 L130.4395,579.5938 L935.5,579.5938 A2.5,2.5 0 0 1 938,582.0938 L938,936.7969 A2.5,2.5 0 0 1 935.5,939.2969 L8.5,939.2969 A2.5,2.5 0 0 1 6,936.7969 L6,559.7969 A2.5,2.5 0 0 1 8.5,557.2969 " fill="none" style="stroke:#000000;stroke-width:1.5;"/>
      <line style="stroke:#000000;stroke-width:1.5;" x1="6" x2="130.4395" y1="579.5938" y2="579.5938"/>
      <text fill="#000000" font-family="sans-serif" font-size="14" font-weight="bold" lengthAdjust="spacing" textLength="111.4395" x="10" y="572.292">class_diagram</text>
    </g>
    <g id="cluster_C_0007176993879715460962">
      <path d="M32.5,600.2969 L82.0215,600.2969 A3.75,3.75 0 0 1 84.5215,602.7969 L91.5215,622.5938 L911.5,622.5938 A2.5,2.5 0 0 1 914,625.0938 L914,912.7969 A2.5,2.5 0 0 1 911.5,915.2969 L32.5,915.2969 A2.5,2.5 0 0 1 30,912.7969 L30,602.7969 A2.5,2.5 0 0 1 32.5,600.2969 " fill="none" style="stroke:#000000;stroke-width:1.5;"/>
      <line style="stroke:#000000;stroke-width:1.5;" x1="30" x2="91.5215" y1="622.5938" y2="622.5938"/>
      <text fill="#000000" font-family="sans-serif" font-size="14" font-weight="bold" lengthAdjust="spacing" textLength="48.5215" x="34" y="615.292">model</text>
    </g>
    <g id="cluster_C_0012174902727661033893">
      <path d="M964.5,557.2969 L1112.8008,557.2969 A3.75,3.75 0 0 1 1115.3008,559.7969 L1122.3008,579.5938 L1476.5,579.5938 A2.5,2.5 0 0 1 1479,582.0938 L1479,936.7969 A2.5,2.5 0 0 1 1476.5,939.2969 L964.5,939.2969 A2.5,2.5 0 0 1 962,936.7969 L962,559.7969 A2.5,2.5 0 0 1 964.5,557.2969 " fill="none" style="stroke:#000000;stroke-width:1.5;"/>
      <line style="stroke:#000000;stroke-width:1.5;" x1="962" x2="1122.3008" y1="579.5938" y2="579.5938"/>
      <text fill="#000000" font-family="sans-serif" font-size="14" font-weight="bold" lengthAdjust="spacing" textLength="147.3008" x="966" y="572.292">sequence_diagram</text>
    </g>
    <g id="cluster_C_0017655759046645114118">
      <path d="M988.5,600.2969 L1038.0215,600.2969 A3.75,3.75 0 0 1 1040.5215,602.7969 L1047.5215,622.5938 L1452.5,622.5938 A2.5,2.5 0 0 1 1455,625.0938 L1455,912.7969 A2.5,2.5 0 0 1 1452.5,915.2969 L988.5,915.2969 A2.5,2.5 0 0 1 986,912.7969 L986,602.7969 A2.5,2.5 0 0 1 988.5,600.2969 " fill="none" style="stroke:#000000;stroke-width:1.5;"/>
      <line style="stroke:#000000;stroke-width:1.5;" x1="986" x2="1047.5215" y1="622.5938" y2="622.5938"/>
      <text fill="#000000" font-family="sans-serif" font-size="14" font-weight="bold" lengthAdjust="spacing" textLength="48.5215" x="990" y="615.292">model</text>
    </g>
    <a href="classclanguml_1_1common_1_1model_1_1decorated__element.html" target="_top" title="Base class for decorated diagram elements" xlink:actuate="onRequest" xlink:href="classclanguml_1_1common_1_1model_1_1decorated__element.html" xlink:show="new" xlink:title="Base class for decorated diagram elements" xlink:type="simple">
      <g id="elem_C_0008936819060997384951">
        <rect codeLine="5" fill="#F1F1F1" height="48" id="C_0008936819060997384951" rx="2.5" ry="2.5" style="stroke:#181818;stroke-width:0.5;" width="167.8164" x="740" y="121.2969"/>
        <ellipse cx="755" cy="137.2969" fill="#ADD1B2" rx="11" ry="11" style="stroke:#181818;stroke-width:1.0;"/>
        <path d="M757.9688,142.9375 Q757.3906,143.2344 756.75,143.375 Q756.1094,143.5313 755.4063,143.5313 Q752.9063,143.5313 751.5781,141.8906 Q750.2656,140.2344 750.2656,137.1094 Q750.2656,133.9844 751.5781,132.3281 Q752.9063,130.6719 755.4063,130.6719 Q756.1094,130.6719 756.75,130.8281 Q757.4063,130.9844 757.9688,131.2813 L757.9688,134 Q757.3438,133.4219 756.75,133.1563 Q756.1563,132.875 755.5313,132.875 Q754.1875,132.875 753.5,133.9531 Q752.8125,135.0156 752.8125,137.1094 Q752.8125,139.2031 753.5,140.2813 Q754.1875,141.3438 755.5313,141.3438 Q756.1563,141.3438 756.75,141.0781 Q757.3438,140.7969 757.9688,140.2188 L757.9688,142.9375 Z " fill="#000000"/>
        <text fill="#000000" font-family="sans-serif" font-size="14" lengthAdjust="spacing" textLength="135.8164" x="769" y="142.1436">decorated_element</text>
        <line style="stroke:#181818;stroke-width:0.5;" x1="741" x2="906.8164" y1="153.2969" y2="153.2969"/>
        <line style="stroke:#181818;stroke-width:0.5;" x1="741" x2="906.8164" y1="161.2969" y2="161.2969"/>
      </g>
    </a>
    <a href="classclanguml_1_1common_1_1model_1_1relationship.html" target="_top" title="Class representing any relationship other than inheritance" xlink:actuate="onRequest" xlink:href="classclanguml_1_1common_1_1model_1_1relationship.html" xlink:show="new" xlink:title="Class representing any relationship other than inheritance" xlink:type="simple">
      <g id="elem_C_0016370694070378943411">
        <rect codeLine="9" fill="#F1F1F1" height="48" id="C_0016370694070378943411" rx="2.5" ry="2.5" style="stroke:#181818;stroke-width:0.5;" width="114.5986" x="740.5" y="229.2969"/>
        <ellipse cx="755.5" cy="245.2969" fill="#ADD1B2" rx="11" ry="11" style="stroke:#181818;stroke-width:1.0;"/>
        <path d="M758.4688,250.9375 Q757.8906,251.2344 757.25,251.375 Q756.6094,251.5313 755.9063,251.5313 Q753.4063,251.5313 752.0781,249.8906 Q750.7656,248.2344 750.7656,245.1094 Q750.7656,241.9844 752.0781,240.3281 Q753.4063,238.6719 755.9063,238.6719 Q756.6094,238.6719 757.25,238.8281 Q757.9063,238.9844 758.4688,239.2813 L758.4688,242 Q757.8438,241.4219 757.25,241.1563 Q756.6563,240.875 756.0313,240.875 Q754.6875,240.875 754,241.9531 Q753.3125,243.0156 753.3125,245.1094 Q753.3125,247.2031 754,248.2813 Q754.6875,249.3438 756.0313,249.3438 Q756.6563,249.3438 757.25,249.0781 Q757.8438,248.7969 758.4688,248.2188 L758.4688,250.9375 Z " fill="#000000"/>
        <text fill="#000000" font-family="sans-serif" font-size="14" lengthAdjust="spacing" textLength="82.5986" x="769.5" y="250.1436">relationship</text>
        <line style="stroke:#181818;stroke-width:0.5;" x1="741.5" x2="854.0986" y1="261.2969" y2="261.2969"/>
        <line style="stroke:#181818;stroke-width:0.5;" x1="741.5" x2="854.0986" y1="269.2969" y2="269.2969"/>
      </g>
    </a>
    <a href="classclanguml_1_1common_1_1model_1_1diagram__element.html" target="_top" title="Base class for standalone diagram elements." xlink:actuate="onRequest" xlink:href="classclanguml_1_1common_1_1model_1_1diagram__element.html" xlink:show="new" xlink:title="Base class for standalone diagram elements." xlink:type="simple">
      <g id="elem_C_0008588005715032923314">
        <rect codeLine="13" fill="#F1F1F1" height="48" id="C_0008588005715032923314" rx="2.5" ry="2.5" style="stroke:#181818;stroke-width:0.5;" width="154.9443" x="890.5" y="229.2969"/>
        <ellipse cx="905.5" cy="245.2969" fill="#ADD1B2" rx="11" ry="11" style="stroke:#181818;stroke-width:1.0;"/>
        <path d="M908.4688,250.9375 Q907.8906,251.2344 907.25,251.375 Q906.6094,251.5313 905.9063,251.5313 Q903.4063,251.5313 902.0781,249.8906 Q900.7656,248.2344 900.7656,245.1094 Q900.7656,241.9844 902.0781,240.3281 Q903.4063,238.6719 905.9063,238.6719 Q906.6094,238.6719 907.25,238.8281 Q907.9063,238.9844 908.4688,239.2813 L908.4688,242 Q907.8438,241.4219 907.25,241.1563 Q906.6563,240.875 906.0313,240.875 Q904.6875,240.875 904,241.9531 Q903.3125,243.0156 903.3125,245.1094 Q903.3125,247.2031 904,248.2813 Q904.6875,249.3438 906.0313,249.3438 Q906.6563,249.3438 907.25,249.0781 Q907.8438,248.7969 908.4688,248.2188 L908.4688,250.9375 Z " fill="#000000"/>
        <text fill="#000000" font-family="sans-serif" font-size="14" lengthAdjust="spacing" textLength="122.9443" x="919.5" y="250.1436">diagram_element</text>
        <line style="stroke:#181818;stroke-width:0.5;" x1="891.5" x2="1044.4443" y1="261.2969" y2="261.2969"/>
        <line style="stroke:#181818;stroke-width:0.5;" x1="891.5" x2="1044.4443" y1="269.2969" y2="269.2969"/>
      </g>
    </a>
    <a href="classclanguml_1_1common_1_1model_1_1element.html" target="_top" title="Base class for any element qualified by namespace." xlink:actuate="onRequest" xlink:href="classclanguml_1_1common_1_1model_1_1element.html" xlink:show="new" xlink:title="Base class for any element qualified by namespace." xlink:type="simple">
      <g id="elem_C_0016556163051475263500">
        <rect codeLine="17" fill="#F1F1F1" height="48" id="C_0016556163051475263500" rx="2.5" ry="2.5" style="stroke:#181818;stroke-width:0.5;" width="89.7295" x="764" y="337.2969"/>
        <ellipse cx="779" cy="353.2969" fill="#ADD1B2" rx="11" ry="11" style="stroke:#181818;stroke-width:1.0;"/>
        <path d="M781.9688,358.9375 Q781.3906,359.2344 780.75,359.375 Q780.1094,359.5313 779.4063,359.5313 Q776.9063,359.5313 775.5781,357.8906 Q774.2656,356.2344 774.2656,353.1094 Q774.2656,349.9844 775.5781,348.3281 Q776.9063,346.6719 779.4063,346.6719 Q780.1094,346.6719 780.75,346.8281 Q781.4063,346.9844 781.9688,347.2813 L781.9688,350 Q781.3438,349.4219 780.75,349.1563 Q780.1563,348.875 779.5313,348.875 Q778.1875,348.875 777.5,349.9531 Q776.8125,351.0156 776.8125,353.1094 Q776.8125,355.2031 777.5,356.2813 Q778.1875,357.3438 779.5313,357.3438 Q780.1563,357.3438 780.75,357.0781 Q781.3438,356.7969 781.9688,356.2188 L781.9688,358.9375 Z " fill="#000000"/>
        <text fill="#000000" font-family="sans-serif" font-size="14" lengthAdjust="spacing" textLength="57.7295" x="793" y="358.1436">element</text>
        <line style="stroke:#181818;stroke-width:0.5;" x1="765" x2="852.7295" y1="369.2969" y2="369.2969"/>
        <line style="stroke:#181818;stroke-width:0.5;" x1="765" x2="852.7295" y1="377.2969" y2="377.2969"/>
      </g>
    </a>
    <a href="classclanguml_1_1common_1_1model_1_1template__element.html" target="_top" title="Base class for any element qualified by namespace." xlink:actuate="onRequest" xlink:href="classclanguml_1_1common_1_1model_1_1template__element.html" xlink:show="new" xlink:title="Base class for any element qualified by namespace." xlink:type="simple">
      <g id="elem_C_0013384831159811298387">
        <rect codeLine="21" fill="#F1F1F1" height="48" id="C_0013384831159811298387" rx="2.5" ry="2.5" style="stroke:#181818;stroke-width:0.5;" width="159.9277" x="759" y="445.2969"/>
        <ellipse cx="774" cy="461.2969" fill="#ADD1B2" rx="11" ry="11" style="stroke:#181818;stroke-width:1.0;"/>
        <path d="M776.9688,466.9375 Q776.3906,467.2344 775.75,467.375 Q775.1094,467.5313 774.4063,467.5313 Q771.9063,467.5313 770.5781,465.8906 Q769.2656,464.2344 769.2656,461.1094 Q769.2656,457.9844 770.5781,456.3281 Q771.9063,454.6719 774.4063,454.6719 Q775.1094,454.6719 775.75,454.8281 Q776.4063,454.9844 776.9688,455.2813 L776.9688,458 Q776.3438,457.4219 775.75,457.1563 Q775.1563,456.875 774.5313,456.875 Q773.1875,456.875 772.5,457.9531 Q771.8125,459.0156 771.8125,461.1094 Q771.8125,463.2031 772.5,464.2813 Q773.1875,465.3438 774.5313,465.3438 Q775.1563,465.3438 775.75,465.0781 Q776.3438,464.7969 776.9688,464.2188 L776.9688,466.9375 Z " fill="#000000"/>
        <text fill="#000000" font-family="sans-serif" font-size="14" lengthAdjust="spacing" textLength="127.9277" x="788" y="466.1436">template_element</text>
        <line style="stroke:#181818;stroke-width:0.5;" x1="760" x2="917.9277" y1="477.2969" y2="477.2969"/>
        <line style="stroke:#181818;stroke-width:0.5;" x1="760" x2="917.9277" y1="485.2969" y2="485.2969"/>
      </g>
    </a>
    <a href="classclanguml_1_1common_1_1model_1_1source__file.html" target="_top" title="Diagram element representing some file or directory." xlink:actuate="onRequest" xlink:href="classclanguml_1_1common_1_1model_1_1source__file.html" xlink:show="new" xlink:title="Diagram element representing some file or directory." xlink:type="simple">
      <g id="elem_C_0006285717704576425038">
        <rect codeLine="25" fill="#F1F1F1" height="48" id="C_0006285717704576425038" rx="2.5" ry="2.5" style="stroke:#181818;stroke-width:0.5;" width="107.1201" x="914.5" y="337.2969"/>
        <ellipse cx="929.5" cy="353.2969" fill="#ADD1B2" rx="11" ry="11" style="stroke:#181818;stroke-width:1.0;"/>
        <path d="M932.4688,358.9375 Q931.8906,359.2344 931.25,359.375 Q930.6094,359.5313 929.9063,359.5313 Q927.4063,359.5313 926.0781,357.8906 Q924.7656,356.2344 924.7656,353.1094 Q924.7656,349.9844 926.0781,348.3281 Q927.4063,346.6719 929.9063,346.6719 Q930.6094,346.6719 931.25,346.8281 Q931.9063,346.9844 932.4688,347.2813 L932.4688,350 Q931.8438,349.4219 931.25,349.1563 Q930.6563,348.875 930.0313,348.875 Q928.6875,348.875 928,349.9531 Q927.3125,351.0156 927.3125,353.1094 Q927.3125,355.2031 928,356.2813 Q928.6875,357.3438 930.0313,357.3438 Q930.6563,357.3438 931.25,357.0781 Q931.8438,356.7969 932.4688,356.2188 L932.4688,358.9375 Z " fill="#000000"/>
        <text fill="#000000" font-family="sans-serif" font-size="14" lengthAdjust="spacing" textLength="75.1201" x="943.5" y="358.1436">source_file</text>
        <line style="stroke:#181818;stroke-width:0.5;" x1="915.5" x2="1020.6201" y1="369.2969" y2="369.2969"/>
        <line style="stroke:#181818;stroke-width:0.5;" x1="915.5" x2="1020.6201" y1="377.2969" y2="377.2969"/>
      </g>
    </a>
    <a href="classclanguml_1_1common_1_1model_1_1package.html" target="_top" title="Diagram element representing namespace or directory package" xlink:actuate="onRequest" xlink:href="classclanguml_1_1common_1_1model_1_1package.html" xlink:show="new" xlink:title="Diagram element representing namespace or directory package" xlink:type="simple">
      <g id="elem_C_0017146293478645494837">
        <rect codeLine="29" fill="#F1F1F1" height="48" id="C_0017146293478645494837" rx="2.5" ry="2.5" style="stroke:#181818;stroke-width:0.5;" width="91.3496" x="954.5" y="445.2969"/>
        <ellipse cx="969.5" cy="461.2969" fill="#ADD1B2" rx="11" ry="11" style="stroke:#181818;stroke-width:1.0;"/>
        <path d="M972.4688,466.9375 Q971.8906,467.2344 971.25,467.375 Q970.6094,467.5313 969.9063,467.5313 Q967.4063,467.5313 966.0781,465.8906 Q964.7656,464.2344 964.7656,461.1094 Q964.7656,457.9844 966.0781,456.3281 Q967.4063,454.6719 969.9063,454.6719 Q970.6094,454.6719 971.25,454.8281 Q971.9063,454.9844 972.4688,455.2813 L972.4688,458 Q971.8438,457.4219 971.25,457.1563 Q970.6563,456.875 970.0313,456.875 Q968.6875,456.875 968,457.9531 Q967.3125,459.0156 967.3125,461.1094 Q967.3125,463.2031 968,464.2813 Q968.6875,465.3438 970.0313,465.3438 Q970.6563,465.3438 971.25,465.0781 Q971.8438,464.7969 972.4688,464.2188 L972.4688,466.9375 Z " fill="#000000"/>
        <text fill="#000000" font-family="sans-serif" font-size="14" lengthAdjust="spacing" textLength="59.3496" x="983.5" y="466.1436">package</text>
        <line style="stroke:#181818;stroke-width:0.5;" x1="955.5" x2="1044.8496" y1="477.2969" y2="477.2969"/>
        <line style="stroke:#181818;stroke-width:0.5;" x1="955.5" x2="1044.8496" y1="485.2969" y2="485.2969"/>
      </g>
    </a>
    <a href="classclanguml_1_1class__diagram_1_1model_1_1class__element.html" target="_top" title="Base class for class elements (e.g. member or method)." xlink:actuate="onRequest" xlink:href="classclanguml_1_1class__diagram_1_1model_1_1class__element.html" xlink:show="new" xlink:title="Base class for class elements (e.g. member or method)." xlink:type="simple">
      <g id="elem_C_0004846934894930864299">
        <rect codeLine="37" fill="#F1F1F1" height="48" id="C_0004846934894930864299" rx="2.5" ry="2.5" style="stroke:#181818;stroke-width:0.5;" width="131.4834" x="46.5" y="635.2969"/>
        <ellipse cx="61.5" cy="651.2969" fill="#ADD1B2" rx="11" ry="11" style="stroke:#181818;stroke-width:1.0;"/>
        <path d="M64.4688,656.9375 Q63.8906,657.2344 63.25,657.375 Q62.6094,657.5313 61.9063,657.5313 Q59.4063,657.5313 58.0781,655.8906 Q56.7656,654.2344 56.7656,651.1094 Q56.7656,647.9844 58.0781,646.3281 Q59.4063,644.6719 61.9063,644.6719 Q62.6094,644.6719 63.25,644.8281 Q63.9063,644.9844 64.4688,645.2813 L64.4688,648 Q63.8438,647.4219 63.25,647.1563 Q62.6563,646.875 62.0313,646.875 Q60.6875,646.875 60,647.9531 Q59.3125,649.0156 59.3125,651.1094 Q59.3125,653.2031 60,654.2813 Q60.6875,655.3438 62.0313,655.3438 Q62.6563,655.3438 63.25,655.0781 Q63.8438,654.7969 64.4688,654.2188 L64.4688,656.9375 Z " fill="#000000"/>
        <text fill="#000000" font-family="sans-serif" font-size="14" lengthAdjust="spacing" textLength="99.4834" x="75.5" y="656.1436">class_element</text>
        <line style="stroke:#181818;stroke-width:0.5;" x1="47.5" x2="176.9834" y1="667.2969" y2="667.2969"/>
        <line style="stroke:#181818;stroke-width:0.5;" x1="47.5" x2="176.9834" y1="675.2969" y2="675.2969"/>
      </g>
    </a>
    <a href="classclanguml_1_1class__diagram_1_1model_1_1class__member__base.html" target="_top" title="Generic class member model." xlink:actuate="onRequest" xlink:href="classclanguml_1_1class__diagram_1_1model_1_1class__member__base.html" xlink:show="new" xlink:title="Generic class member model." xlink:type="simple">
      <g id="elem_C_0014241292626575163322">
        <rect codeLine="41" fill="#F1F1F1" height="48" id="C_0014241292626575163322" rx="2.5" ry="2.5" style="stroke:#181818;stroke-width:0.5;" width="173.2715" x="46.5" y="743.2969"/>
        <ellipse cx="61.5" cy="759.2969" fill="#ADD1B2" rx="11" ry="11" style="stroke:#181818;stroke-width:1.0;"/>
        <path d="M64.4688,764.9375 Q63.8906,765.2344 63.25,765.375 Q62.6094,765.5313 61.9063,765.5313 Q59.4063,765.5313 58.0781,763.8906 Q56.7656,762.2344 56.7656,759.1094 Q56.7656,755.9844 58.0781,754.3281 Q59.4063,752.6719 61.9063,752.6719 Q62.6094,752.6719 63.25,752.8281 Q63.9063,752.9844 64.4688,753.2813 L64.4688,756 Q63.8438,755.4219 63.25,755.1563 Q62.6563,754.875 62.0313,754.875 Q60.6875,754.875 60,755.9531 Q59.3125,757.0156 59.3125,759.1094 Q59.3125,761.2031 60,762.2813 Q60.6875,763.3438 62.0313,763.3438 Q62.6563,763.3438 63.25,763.0781 Q63.8438,762.7969 64.4688,762.2188 L64.4688,764.9375 Z " fill="#000000"/>
        <text fill="#000000" font-family="sans-serif" font-size="14" lengthAdjust="spacing" textLength="141.2715" x="75.5" y="764.1436">class_member_base</text>
        <line style="stroke:#181818;stroke-width:0.5;" x1="47.5" x2="218.7715" y1="775.2969" y2="775.2969"/>
        <line style="stroke:#181818;stroke-width:0.5;" x1="47.5" x2="218.7715" y1="783.2969" y2="783.2969"/>
      </g>
    </a>
    <a href="classclanguml_1_1class__diagram_1_1model_1_1class__member.html" target="_top" title="Class member model." xlink:actuate="onRequest" xlink:href="classclanguml_1_1class__diagram_1_1model_1_1class__member.html" xlink:show="new" xlink:title="Class member model." xlink:type="simple">
      <g id="elem_C_0014370262096868218046">
        <rect codeLine="45" fill="#F1F1F1" height="48" id="C_0014370262096868218046" rx="2.5" ry="2.5" style="stroke:#181818;stroke-width:0.5;" width="132.8984" x="46.5" y="851.2969"/>
        <ellipse cx="61.5" cy="867.2969" fill="#ADD1B2" rx="11" ry="11" style="stroke:#181818;stroke-width:1.0;"/>
        <path d="M64.4688,872.9375 Q63.8906,873.2344 63.25,873.375 Q62.6094,873.5313 61.9063,873.5313 Q59.4063,873.5313 58.0781,871.8906 Q56.7656,870.2344 56.7656,867.1094 Q56.7656,863.9844 58.0781,862.3281 Q59.4063,860.6719 61.9063,860.6719 Q62.6094,860.6719 63.25,860.8281 Q63.9063,860.9844 64.4688,861.2813 L64.4688,864 Q63.8438,863.4219 63.25,863.1563 Q62.6563,862.875 62.0313,862.875 Q60.6875,862.875 60,863.9531 Q59.3125,865.0156 59.3125,867.1094 Q59.3125,869.2031 60,870.2813 Q60.6875,871.3438 62.0313,871.3438 Q62.6563,871.3438 63.25,871.0781 Q63.8438,870.7969 64.4688,870.2188 L64.4688,872.9375 Z " fill="#000000"/>
        <text fill="#000000" font-family="sans-serif" font-size="14" lengthAdjust="spacing" textLength="100.8984" x="75.5" y="872.1436">class_member</text>
        <line style="stroke:#181818;stroke-width:0.5;" x1="47.5" x2="178.3984" y1="883.2969" y2="883.2969"/>
        <line style="stroke:#181818;stroke-width:0.5;" x1="47.5" x2="178.3984" y1="891.2969" y2="891.2969"/>
      </g>
    </a>
    <a href="classclanguml_1_1class__diagram_1_1model_1_1method__parameter.html" target="_top" title="Model of a method parameter." xlink:actuate="onRequest" xlink:href="classclanguml_1_1class__diagram_1_1model_1_1method__parameter.html" xlink:show="new" xlink:title="Model of a method parameter." xlink:type="simple">
      <g id="elem_C_0004845352266951408403">
        <rect codeLine="49" fill="#F1F1F1" height="48" id="C_0004845352266951408403" rx="2.5" ry="2.5" style="stroke:#181818;stroke-width:0.5;" width="166.9756" x="212.5" y="635.2969"/>
        <ellipse cx="227.5" cy="651.2969" fill="#ADD1B2" rx="11" ry="11" style="stroke:#181818;stroke-width:1.0;"/>
        <path d="M230.4688,656.9375 Q229.8906,657.2344 229.25,657.375 Q228.6094,657.5313 227.9063,657.5313 Q225.4063,657.5313 224.0781,655.8906 Q222.7656,654.2344 222.7656,651.1094 Q222.7656,647.9844 224.0781,646.3281 Q225.4063,644.6719 227.9063,644.6719 Q228.6094,644.6719 229.25,644.8281 Q229.9063,644.9844 230.4688,645.2813 L230.4688,648 Q229.8438,647.4219 229.25,647.1563 Q228.6563,646.875 228.0313,646.875 Q226.6875,646.875 226,647.9531 Q225.3125,649.0156 225.3125,651.1094 Q225.3125,653.2031 226,654.2813 Q226.6875,655.3438 228.0313,655.3438 Q228.6563,655.3438 229.25,655.0781 Q229.8438,654.7969 230.4688,654.2188 L230.4688,656.9375 Z " fill="#000000"/>
        <text fill="#000000" font-family="sans-serif" font-size="14" lengthAdjust="spacing" textLength="134.9756" x="241.5" y="656.1436">method_parameter</text>
        <line style="stroke:#181818;stroke-width:0.5;" x1="213.5" x2="378.4756" y1="667.2969" y2="667.2969"/>
        <line style="stroke:#181818;stroke-width:0.5;" x1="213.5" x2="378.4756" y1="675.2969" y2="675.2969"/>
      </g>
    </a>
    <a href="classclanguml_1_1class__diagram_1_1model_1_1class__method__base.html" target="_top" title="Class method model." xlink:actuate="onRequest" xlink:href="classclanguml_1_1class__diagram_1_1model_1_1class__method__base.html" xlink:show="new" xlink:title="Class method model." xlink:type="simple">
      <g id="elem_C_0018032026899693266441">
        <rect codeLine="53" fill="#F1F1F1" height="48" id="C_0018032026899693266441" rx="2.5" ry="2.5" style="stroke:#181818;stroke-width:0.5;" width="168.1924" x="357" y="743.2969"/>
        <ellipse cx="372" cy="759.2969" fill="#ADD1B2" rx="11" ry="11" style="stroke:#181818;stroke-width:1.0;"/>
        <path d="M374.9688,764.9375 Q374.3906,765.2344 373.75,765.375 Q373.1094,765.5313 372.4063,765.5313 Q369.9063,765.5313 368.5781,763.8906 Q367.2656,762.2344 367.2656,759.1094 Q367.2656,755.9844 368.5781,754.3281 Q369.9063,752.6719 372.4063,752.6719 Q373.1094,752.6719 373.75,752.8281 Q374.4063,752.9844 374.9688,753.2813 L374.9688,756 Q374.3438,755.4219 373.75,755.1563 Q373.1563,754.875 372.5313,754.875 Q371.1875,754.875 370.5,755.9531 Q369.8125,757.0156 369.8125,759.1094 Q369.8125,761.2031 370.5,762.2813 Q371.1875,763.3438 372.5313,763.3438 Q373.1563,763.3438 373.75,763.0781 Q374.3438,762.7969 374.9688,762.2188 L374.9688,764.9375 Z " fill="#000000"/>
        <text fill="#000000" font-family="sans-serif" font-size="14" lengthAdjust="spacing" textLength="136.1924" x="386" y="764.1436">class_method_base</text>
        <line style="stroke:#181818;stroke-width:0.5;" x1="358" x2="524.1924" y1="775.2969" y2="775.2969"/>
        <line style="stroke:#181818;stroke-width:0.5;" x1="358" x2="524.1924" y1="783.2969" y2="783.2969"/>
      </g>
    </a>
    <a href="classclanguml_1_1class__diagram_1_1model_1_1class__method.html" target="_top" title="Class method model." xlink:actuate="onRequest" xlink:href="classclanguml_1_1class__diagram_1_1model_1_1class__method.html" xlink:show="new" xlink:title="Class method model." xlink:type="simple">
      <g id="elem_C_0001633165731746789371">
        <rect codeLine="57" fill="#F1F1F1" height="48" id="C_0001633165731746789371" rx="2.5" ry="2.5" style="stroke:#181818;stroke-width:0.5;" width="127.8193" x="377" y="851.2969"/>
        <ellipse cx="392" cy="867.2969" fill="#ADD1B2" rx="11" ry="11" style="stroke:#181818;stroke-width:1.0;"/>
        <path d="M394.9688,872.9375 Q394.3906,873.2344 393.75,873.375 Q393.1094,873.5313 392.4063,873.5313 Q389.9063,873.5313 388.5781,871.8906 Q387.2656,870.2344 387.2656,867.1094 Q387.2656,863.9844 388.5781,862.3281 Q389.9063,860.6719 392.4063,860.6719 Q393.1094,860.6719 393.75,860.8281 Q394.4063,860.9844 394.9688,861.2813 L394.9688,864 Q394.3438,863.4219 393.75,863.1563 Q393.1563,862.875 392.5313,862.875 Q391.1875,862.875 390.5,863.9531 Q389.8125,865.0156 389.8125,867.1094 Q389.8125,869.2031 390.5,870.2813 Q391.1875,871.3438 392.5313,871.3438 Q393.1563,871.3438 393.75,871.0781 Q394.3438,870.7969 394.9688,870.2188 L394.9688,872.9375 Z " fill="#000000"/>
        <text fill="#000000" font-family="sans-serif" font-size="14" lengthAdjust="spacing" textLength="95.8193" x="406" y="872.1436">class_method</text>
        <line style="stroke:#181818;stroke-width:0.5;" x1="378" x2="503.8193" y1="883.2969" y2="883.2969"/>
        <line style="stroke:#181818;stroke-width:0.5;" x1="378" x2="503.8193" y1="891.2969" y2="891.2969"/>
      </g>
    </a>
    <a href="classclanguml_1_1class__diagram_1_1model_1_1class__.html" target="_top" title="Diagram element representing a class or class template." xlink:actuate="onRequest" xlink:href="classclanguml_1_1class__diagram_1_1model_1_1class__.html" xlink:show="new" xlink:title="Diagram element representing a class or class template." xlink:type="simple">
      <g id="elem_C_0010336274859733225462">
        <rect codeLine="61" fill="#F1F1F1" height="48" id="C_0010336274859733225462" rx="2.5" ry="2.5" style="stroke:#181818;stroke-width:0.5;" width="73.7539" x="824" y="635.2969"/>
        <ellipse cx="839" cy="651.2969" fill="#ADD1B2" rx="11" ry="11" style="stroke:#181818;stroke-width:1.0;"/>
        <path d="M841.9688,656.9375 Q841.3906,657.2344 840.75,657.375 Q840.1094,657.5313 839.4063,657.5313 Q836.9063,657.5313 835.5781,655.8906 Q834.2656,654.2344 834.2656,651.1094 Q834.2656,647.9844 835.5781,646.3281 Q836.9063,644.6719 839.4063,644.6719 Q840.1094,644.6719 840.75,644.8281 Q841.4063,644.9844 841.9688,645.2813 L841.9688,648 Q841.3438,647.4219 840.75,647.1563 Q840.1563,646.875 839.5313,646.875 Q838.1875,646.875 837.5,647.9531 Q836.8125,649.0156 836.8125,651.1094 Q836.8125,653.2031 837.5,654.2813 Q838.1875,655.3438 839.5313,655.3438 Q840.1563,655.3438 840.75,655.0781 Q841.3438,654.7969 841.9688,654.2188 L841.9688,656.9375 Z " fill="#000000"/>
        <text fill="#000000" font-family="sans-serif" font-size="14" lengthAdjust="spacing" textLength="41.7539" x="853" y="656.1436">class_</text>
        <line style="stroke:#181818;stroke-width:0.5;" x1="825" x2="896.7539" y1="667.2969" y2="667.2969"/>
        <line style="stroke:#181818;stroke-width:0.5;" x1="825" x2="896.7539" y1="675.2969" y2="675.2969"/>
      </g>
    </a>
    <a href="classclanguml_1_1class__diagram_1_1model_1_1concept__.html" target="_top" title="Model of C++ concept." xlink:actuate="onRequest" xlink:href="classclanguml_1_1class__diagram_1_1model_1_1concept__.html" xlink:show="new" xlink:title="Model of C++ concept." xlink:type="simple">
      <g id="elem_C_0010998792414017796003">
        <rect codeLine="65" fill="#F1F1F1" height="48" id="C_0010998792414017796003" rx="2.5" ry="2.5" style="stroke:#181818;stroke-width:0.5;" width="94.8223" x="414.5" y="635.2969"/>
        <ellipse cx="429.5" cy="651.2969" fill="#ADD1B2" rx="11" ry="11" style="stroke:#181818;stroke-width:1.0;"/>
        <path d="M432.4688,656.9375 Q431.8906,657.2344 431.25,657.375 Q430.6094,657.5313 429.9063,657.5313 Q427.4063,657.5313 426.0781,655.8906 Q424.7656,654.2344 424.7656,651.1094 Q424.7656,647.9844 426.0781,646.3281 Q427.4063,644.6719 429.9063,644.6719 Q430.6094,644.6719 431.25,644.8281 Q431.9063,644.9844 432.4688,645.2813 L432.4688,648 Q431.8438,647.4219 431.25,647.1563 Q430.6563,646.875 430.0313,646.875 Q428.6875,646.875 428,647.9531 Q427.3125,649.0156 427.3125,651.1094 Q427.3125,653.2031 428,654.2813 Q428.6875,655.3438 430.0313,655.3438 Q430.6563,655.3438 431.25,655.0781 Q431.8438,654.7969 432.4688,654.2188 L432.4688,656.9375 Z " fill="#000000"/>
        <text fill="#000000" font-family="sans-serif" font-size="14" lengthAdjust="spacing" textLength="62.8223" x="443.5" y="656.1436">concept_</text>
        <line style="stroke:#181818;stroke-width:0.5;" x1="415.5" x2="508.3223" y1="667.2969" y2="667.2969"/>
        <line style="stroke:#181818;stroke-width:0.5;" x1="415.5" x2="508.3223" y1="675.2969" y2="675.2969"/>
      </g>
    </a>
    <a href="classclanguml_1_1class__diagram_1_1model_1_1enum__.html" target="_top" title="Diagram element representing an enum." xlink:actuate="onRequest" xlink:href="classclanguml_1_1class__diagram_1_1model_1_1enum__.html" xlink:show="new" xlink:title="Diagram element representing an enum." xlink:type="simple">
      <g id="elem_C_0005795143816749204050">
        <rect codeLine="69" fill="#F1F1F1" height="48" id="C_0005795143816749204050" rx="2.5" ry="2.5" style="stroke:#181818;stroke-width:0.5;" width="78.9971" x="544.5" y="635.2969"/>
        <ellipse cx="559.5" cy="651.2969" fill="#ADD1B2" rx="11" ry="11" style="stroke:#181818;stroke-width:1.0;"/>
        <path d="M562.4688,656.9375 Q561.8906,657.2344 561.25,657.375 Q560.6094,657.5313 559.9063,657.5313 Q557.4063,657.5313 556.0781,655.8906 Q554.7656,654.2344 554.7656,651.1094 Q554.7656,647.9844 556.0781,646.3281 Q557.4063,644.6719 559.9063,644.6719 Q560.6094,644.6719 561.25,644.8281 Q561.9063,644.9844 562.4688,645.2813 L562.4688,648 Q561.8438,647.4219 561.25,647.1563 Q560.6563,646.875 560.0313,646.875 Q558.6875,646.875 558,647.9531 Q557.3125,649.0156 557.3125,651.1094 Q557.3125,653.2031 558,654.2813 Q558.6875,655.3438 560.0313,655.3438 Q560.6563,655.3438 561.25,655.0781 Q561.8438,654.7969 562.4688,654.2188 L562.4688,656.9375 Z " fill="#000000"/>
        <text fill="#000000" font-family="sans-serif" font-size="14" lengthAdjust="spacing" textLength="46.9971" x="573.5" y="656.1436">enum_</text>
        <line style="stroke:#181818;stroke-width:0.5;" x1="545.5" x2="622.4971" y1="667.2969" y2="667.2969"/>
        <line style="stroke:#181818;stroke-width:0.5;" x1="545.5" x2="622.4971" y1="675.2969" y2="675.2969"/>
      </g>
    </a>
    <a href="classclanguml_1_1class__diagram_1_1model_1_1objc__member.html" target="_top" title="ObjC class member model." xlink:actuate="onRequest" xlink:href="classclanguml_1_1class__diagram_1_1model_1_1objc__member.html" xlink:show="new" xlink:title="ObjC class member model." xlink:type="simple">
      <g id="elem_C_0007364672229966928495">
        <rect codeLine="73" fill="#F1F1F1" height="48" id="C_0007364672229966928495" rx="2.5" ry="2.5" style="stroke:#181818;stroke-width:0.5;" width="127.1836" x="214.5" y="851.2969"/>
        <ellipse cx="229.5" cy="867.2969" fill="#ADD1B2" rx="11" ry="11" style="stroke:#181818;stroke-width:1.0;"/>
        <path d="M232.4688,872.9375 Q231.8906,873.2344 231.25,873.375 Q230.6094,873.5313 229.9063,873.5313 Q227.4063,873.5313 226.0781,871.8906 Q224.7656,870.2344 224.7656,867.1094 Q224.7656,863.9844 226.0781,862.3281 Q227.4063,860.6719 229.9063,860.6719 Q230.6094,860.6719 231.25,860.8281 Q231.9063,860.9844 232.4688,861.2813 L232.4688,864 Q231.8438,863.4219 231.25,863.1563 Q230.6563,862.875 230.0313,862.875 Q228.6875,862.875 228,863.9531 Q227.3125,865.0156 227.3125,867.1094 Q227.3125,869.2031 228,870.2813 Q228.6875,871.3438 230.0313,871.3438 Q230.6563,871.3438 231.25,871.0781 Q231.8438,870.7969 232.4688,870.2188 L232.4688,872.9375 Z " fill="#000000"/>
        <text fill="#000000" font-family="sans-serif" font-size="14" lengthAdjust="spacing" textLength="95.1836" x="243.5" y="872.1436">objc_member</text>
        <line style="stroke:#181818;stroke-width:0.5;" x1="215.5" x2="340.6836" y1="883.2969" y2="883.2969"/>
        <line style="stroke:#181818;stroke-width:0.5;" x1="215.5" x2="340.6836" y1="891.2969" y2="891.2969"/>
      </g>
    </a>
    <a href="classclanguml_1_1class__diagram_1_1model_1_1objc__method.html" target="_top" title="ObjC class method model." xlink:actuate="onRequest" xlink:href="classclanguml_1_1class__diagram_1_1model_1_1objc__method.html" xlink:show="new" xlink:title="ObjC class method model." xlink:type="simple">
      <g id="elem_C_0002175636676684225778">
        <rect codeLine="77" fill="#F1F1F1" height="48" id="C_0002175636676684225778" rx="2.5" ry="2.5" style="stroke:#181818;stroke-width:0.5;" width="122.1045" x="540" y="851.2969"/>
        <ellipse cx="555" cy="867.2969" fill="#ADD1B2" rx="11" ry="11" style="stroke:#181818;stroke-width:1.0;"/>
        <path d="M557.9688,872.9375 Q557.3906,873.2344 556.75,873.375 Q556.1094,873.5313 555.4063,873.5313 Q552.9063,873.5313 551.5781,871.8906 Q550.2656,870.2344 550.2656,867.1094 Q550.2656,863.9844 551.5781,862.3281 Q552.9063,860.6719 555.4063,860.6719 Q556.1094,860.6719 556.75,860.8281 Q557.4063,860.9844 557.9688,861.2813 L557.9688,864 Q557.3438,863.4219 556.75,863.1563 Q556.1563,862.875 555.5313,862.875 Q554.1875,862.875 553.5,863.9531 Q552.8125,865.0156 552.8125,867.1094 Q552.8125,869.2031 553.5,870.2813 Q554.1875,871.3438 555.5313,871.3438 Q556.1563,871.3438 556.75,871.0781 Q557.3438,870.7969 557.9688,870.2188 L557.9688,872.9375 Z " fill="#000000"/>
        <text fill="#000000" font-family="sans-serif" font-size="14" lengthAdjust="spacing" textLength="90.1045" x="569" y="872.1436">objc_method</text>
        <line style="stroke:#181818;stroke-width:0.5;" x1="541" x2="661.1045" y1="883.2969" y2="883.2969"/>
        <line style="stroke:#181818;stroke-width:0.5;" x1="541" x2="661.1045" y1="891.2969" y2="891.2969"/>
      </g>
    </a>
    <a href="classclanguml_1_1class__diagram_1_1model_1_1objc__interface.html" target="_top" title="Diagram element representing an ObjC interface." xlink:actuate="onRequest" xlink:href="classclanguml_1_1class__diagram_1_1model_1_1objc__interface.html" xlink:show="new" xlink:title="Diagram element representing an ObjC interface." xlink:type="simple">
      <g id="elem_C_0010166346108406727066">
        <rect codeLine="81" fill="#F1F1F1" height="48" id="C_0010166346108406727066" rx="2.5" ry="2.5" style="stroke:#181818;stroke-width:0.5;" width="130.4785" x="659" y="635.2969"/>
        <ellipse cx="674" cy="651.2969" fill="#ADD1B2" rx="11" ry="11" style="stroke:#181818;stroke-width:1.0;"/>
        <path d="M676.9688,656.9375 Q676.3906,657.2344 675.75,657.375 Q675.1094,657.5313 674.4063,657.5313 Q671.9063,657.5313 670.5781,655.8906 Q669.2656,654.2344 669.2656,651.1094 Q669.2656,647.9844 670.5781,646.3281 Q671.9063,644.6719 674.4063,644.6719 Q675.1094,644.6719 675.75,644.8281 Q676.4063,644.9844 676.9688,645.2813 L676.9688,648 Q676.3438,647.4219 675.75,647.1563 Q675.1563,646.875 674.5313,646.875 Q673.1875,646.875 672.5,647.9531 Q671.8125,649.0156 671.8125,651.1094 Q671.8125,653.2031 672.5,654.2813 Q673.1875,655.3438 674.5313,655.3438 Q675.1563,655.3438 675.75,655.0781 Q676.3438,654.7969 676.9688,654.2188 L676.9688,656.9375 Z " fill="#000000"/>
        <text fill="#000000" font-family="sans-serif" font-size="14" lengthAdjust="spacing" textLength="98.4785" x="688" y="656.1436">objc_interface</text>
        <line style="stroke:#181818;stroke-width:0.5;" x1="660" x2="788.4785" y1="667.2969" y2="667.2969"/>
        <line style="stroke:#181818;stroke-width:0.5;" x1="660" x2="788.4785" y1="675.2969" y2="675.2969"/>
      </g>
    </a>
    <a href="structclanguml_1_1sequence__diagram_1_1model_1_1participant.html" target="_top" title="Base class for various types of sequence diagram participants" xlink:actuate="onRequest" xlink:href="structclanguml_1_1sequence__diagram_1_1model_1_1participant.html" xlink:show="new" xlink:title="Base class for various types of sequence diagram participants" xlink:type="simple">
      <g id="elem_C_0011201726182739961811">
        <rect codeLine="89" fill="#F1F1F1" height="48" id="C_0011201726182739961811" rx="2.5" ry="2.5" style="stroke:#181818;stroke-width:0.5;" width="108.0156" x="1002" y="635.2969"/>
        <ellipse cx="1017" cy="651.2969" fill="#ADD1B2" rx="11" ry="11" style="stroke:#181818;stroke-width:1.0;"/>
        <path d="M1019.9688,656.9375 Q1019.3906,657.2344 1018.75,657.375 Q1018.1094,657.5313 1017.4063,657.5313 Q1014.9063,657.5313 1013.5781,655.8906 Q1012.2656,654.2344 1012.2656,651.1094 Q1012.2656,647.9844 1013.5781,646.3281 Q1014.9063,644.6719 1017.4063,644.6719 Q1018.1094,644.6719 1018.75,644.8281 Q1019.4063,644.9844 1019.9688,645.2813 L1019.9688,648 Q1019.3438,647.4219 1018.75,647.1563 Q1018.1563,646.875 1017.5313,646.875 Q1016.1875,646.875 1015.5,647.9531 Q1014.8125,649.0156 1014.8125,651.1094 Q1014.8125,653.2031 1015.5,654.2813 Q1016.1875,655.3438 1017.5313,655.3438 Q1018.1563,655.3438 1018.75,655.0781 Q1019.3438,654.7969 1019.9688,654.2188 L1019.9688,656.9375 Z " fill="#000000"/>
        <text fill="#000000" font-family="sans-serif" font-size="14" lengthAdjust="spacing" textLength="76.0156" x="1031" y="656.1436">participant</text>
        <line style="stroke:#181818;stroke-width:0.5;" x1="1003" x2="1109.0156" y1="667.2969" y2="667.2969"/>
        <line style="stroke:#181818;stroke-width:0.5;" x1="1003" x2="1109.0156" y1="675.2969" y2="675.2969"/>
      </g>
    </a>
    <a href="structclanguml_1_1sequence__diagram_1_1model_1_1class__.html" target="_top" title="Sequence diagram participant representing a class." xlink:actuate="onRequest" xlink:href="structclanguml_1_1sequence__diagram_1_1model_1_1class__.html" xlink:show="new" xlink:title="Sequence diagram participant representing a class." xlink:type="simple">
      <g id="elem_C_0007084118972955772881">
        <rect codeLine="93" fill="#F1F1F1" height="48" id="C_0007084118972955772881" rx="2.5" ry="2.5" style="stroke:#181818;stroke-width:0.5;" width="73.7539" x="1019" y="743.2969"/>
        <ellipse cx="1034" cy="759.2969" fill="#ADD1B2" rx="11" ry="11" style="stroke:#181818;stroke-width:1.0;"/>
        <path d="M1036.9688,764.9375 Q1036.3906,765.2344 1035.75,765.375 Q1035.1094,765.5313 1034.4063,765.5313 Q1031.9063,765.5313 1030.5781,763.8906 Q1029.2656,762.2344 1029.2656,759.1094 Q1029.2656,755.9844 1030.5781,754.3281 Q1031.9063,752.6719 1034.4063,752.6719 Q1035.1094,752.6719 1035.75,752.8281 Q1036.4063,752.9844 1036.9688,753.2813 L1036.9688,756 Q1036.3438,755.4219 1035.75,755.1563 Q1035.1563,754.875 1034.5313,754.875 Q1033.1875,754.875 1032.5,755.9531 Q1031.8125,757.0156 1031.8125,759.1094 Q1031.8125,761.2031 1032.5,762.2813 Q1033.1875,763.3438 1034.5313,763.3438 Q1035.1563,763.3438 1035.75,763.0781 Q1036.3438,762.7969 1036.9688,762.2188 L1036.9688,764.9375 Z " fill="#000000"/>
        <text fill="#000000" font-family="sans-serif" font-size="14" lengthAdjust="spacing" textLength="41.7539" x="1048" y="764.1436">class_</text>
        <line style="stroke:#181818;stroke-width:0.5;" x1="1020" x2="1091.7539" y1="775.2969" y2="775.2969"/>
        <line style="stroke:#181818;stroke-width:0.5;" x1="1020" x2="1091.7539" y1="783.2969" y2="783.2969"/>
      </g>
    </a>
    <a href="structclanguml_1_1sequence__diagram_1_1model_1_1function.html" target="_top" title="Participant mode representing a free function." xlink:actuate="onRequest" xlink:href="structclanguml_1_1sequence__diagram_1_1model_1_1function.html" xlink:show="new" xlink:title="Participant mode representing a free function." xlink:type="simple">
      <g id="elem_C_0001861107648253454629">
        <rect codeLine="97" fill="#F1F1F1" height="48" id="C_0001861107648253454629" rx="2.5" ry="2.5" style="stroke:#181818;stroke-width:0.5;" width="89.1895" x="1133.5" y="743.2969"/>
        <ellipse cx="1148.5" cy="759.2969" fill="#ADD1B2" rx="11" ry="11" style="stroke:#181818;stroke-width:1.0;"/>
        <path d="M1151.4688,764.9375 Q1150.8906,765.2344 1150.25,765.375 Q1149.6094,765.5313 1148.9063,765.5313 Q1146.4063,765.5313 1145.0781,763.8906 Q1143.7656,762.2344 1143.7656,759.1094 Q1143.7656,755.9844 1145.0781,754.3281 Q1146.4063,752.6719 1148.9063,752.6719 Q1149.6094,752.6719 1150.25,752.8281 Q1150.9063,752.9844 1151.4688,753.2813 L1151.4688,756 Q1150.8438,755.4219 1150.25,755.1563 Q1149.6563,754.875 1149.0313,754.875 Q1147.6875,754.875 1147,755.9531 Q1146.3125,757.0156 1146.3125,759.1094 Q1146.3125,761.2031 1147,762.2813 Q1147.6875,763.3438 1149.0313,763.3438 Q1149.6563,763.3438 1150.25,763.0781 Q1150.8438,762.7969 1151.4688,762.2188 L1151.4688,764.9375 Z " fill="#000000"/>
        <text fill="#000000" font-family="sans-serif" font-size="14" lengthAdjust="spacing" textLength="57.1895" x="1162.5" y="764.1436">function</text>
        <line style="stroke:#181818;stroke-width:0.5;" x1="1134.5" x2="1221.6895" y1="775.2969" y2="775.2969"/>
        <line style="stroke:#181818;stroke-width:0.5;" x1="1134.5" x2="1221.6895" y1="783.2969" y2="783.2969"/>
      </g>
    </a>
    <a href="structclanguml_1_1sequence__diagram_1_1model_1_1method.html" target="_top" title="Participant model representing a method" xlink:actuate="onRequest" xlink:href="structclanguml_1_1sequence__diagram_1_1model_1_1method.html" xlink:show="new" xlink:title="Participant model representing a method" xlink:type="simple">
      <g id="elem_C_0006541327780382276039">
        <rect codeLine="101" fill="#F1F1F1" height="48" id="C_0006541327780382276039" rx="2.5" ry="2.5" style="stroke:#181818;stroke-width:0.5;" width="86.0654" x="1002" y="851.2969"/>
        <ellipse cx="1017" cy="867.2969" fill="#ADD1B2" rx="11" ry="11" style="stroke:#181818;stroke-width:1.0;"/>
        <path d="M1019.9688,872.9375 Q1019.3906,873.2344 1018.75,873.375 Q1018.1094,873.5313 1017.4063,873.5313 Q1014.9063,873.5313 1013.5781,871.8906 Q1012.2656,870.2344 1012.2656,867.1094 Q1012.2656,863.9844 1013.5781,862.3281 Q1014.9063,860.6719 1017.4063,860.6719 Q1018.1094,860.6719 1018.75,860.8281 Q1019.4063,860.9844 1019.9688,861.2813 L1019.9688,864 Q1019.3438,863.4219 1018.75,863.1563 Q1018.1563,862.875 1017.5313,862.875 Q1016.1875,862.875 1015.5,863.9531 Q1014.8125,865.0156 1014.8125,867.1094 Q1014.8125,869.2031 1015.5,870.2813 Q1016.1875,871.3438 1017.5313,871.3438 Q1018.1563,871.3438 1018.75,871.0781 Q1019.3438,870.7969 1019.9688,870.2188 L1019.9688,872.9375 Z " fill="#000000"/>
        <text fill="#000000" font-family="sans-serif" font-size="14" lengthAdjust="spacing" textLength="54.0654" x="1031" y="872.1436">method</text>
        <line style="stroke:#181818;stroke-width:0.5;" x1="1003" x2="1087.0654" y1="883.2969" y2="883.2969"/>
        <line style="stroke:#181818;stroke-width:0.5;" x1="1003" x2="1087.0654" y1="891.2969" y2="891.2969"/>
      </g>
    </a>
    <a href="structclanguml_1_1sequence__diagram_1_1model_1_1objc__method.html" target="_top" title="objc_method" xlink:actuate="onRequest" xlink:href="structclanguml_1_1sequence__diagram_1_1model_1_1objc__method.html" xlink:show="new" xlink:title="objc_method" xlink:type="simple">
      <g id="elem_C_0013742559556936917396">
        <rect codeLine="105" fill="#F1F1F1" height="48" id="C_0013742559556936917396" rx="2.5" ry="2.5" style="stroke:#181818;stroke-width:0.5;" width="122.1045" x="1123" y="851.2969"/>
        <ellipse cx="1138" cy="867.2969" fill="#ADD1B2" rx="11" ry="11" style="stroke:#181818;stroke-width:1.0;"/>
        <path d="M1140.9688,872.9375 Q1140.3906,873.2344 1139.75,873.375 Q1139.1094,873.5313 1138.4063,873.5313 Q1135.9063,873.5313 1134.5781,871.8906 Q1133.2656,870.2344 1133.2656,867.1094 Q1133.2656,863.9844 1134.5781,862.3281 Q1135.9063,860.6719 1138.4063,860.6719 Q1139.1094,860.6719 1139.75,860.8281 Q1140.4063,860.9844 1140.9688,861.2813 L1140.9688,864 Q1140.3438,863.4219 1139.75,863.1563 Q1139.1563,862.875 1138.5313,862.875 Q1137.1875,862.875 1136.5,863.9531 Q1135.8125,865.0156 1135.8125,867.1094 Q1135.8125,869.2031 1136.5,870.2813 Q1137.1875,871.3438 1138.5313,871.3438 Q1139.1563,871.3438 1139.75,871.0781 Q1140.3438,870.7969 1140.9688,870.2188 L1140.9688,872.9375 Z " fill="#000000"/>
        <text fill="#000000" font-family="sans-serif" font-size="14" lengthAdjust="spacing" textLength="90.1045" x="1152" y="872.1436">objc_method</text>
        <line style="stroke:#181818;stroke-width:0.5;" x1="1124" x2="1244.1045" y1="883.2969" y2="883.2969"/>
        <line style="stroke:#181818;stroke-width:0.5;" x1="1124" x2="1244.1045" y1="891.2969" y2="891.2969"/>
      </g>
    </a>
    <a href="structclanguml_1_1sequence__diagram_1_1model_1_1function__template.html" target="_top" title="Participant model representing a function template." xlink:actuate="onRequest" xlink:href="structclanguml_1_1sequence__diagram_1_1model_1_1function__template.html" xlink:show="new" xlink:title="Participant model representing a function template." xlink:type="simple">
      <g id="elem_C_0018241535739946484465">
        <rect codeLine="109" fill="#F1F1F1" height="48" id="C_0018241535739946484465" rx="2.5" ry="2.5" style="stroke:#181818;stroke-width:0.5;" width="159.3877" x="1280.5" y="851.2969"/>
        <ellipse cx="1295.5" cy="867.2969" fill="#ADD1B2" rx="11" ry="11" style="stroke:#181818;stroke-width:1.0;"/>
        <path d="M1298.4688,872.9375 Q1297.8906,873.2344 1297.25,873.375 Q1296.6094,873.5313 1295.9063,873.5313 Q1293.4063,873.5313 1292.0781,871.8906 Q1290.7656,870.2344 1290.7656,867.1094 Q1290.7656,863.9844 1292.0781,862.3281 Q1293.4063,860.6719 1295.9063,860.6719 Q1296.6094,860.6719 1297.25,860.8281 Q1297.9063,860.9844 1298.4688,861.2813 L1298.4688,864 Q1297.8438,863.4219 1297.25,863.1563 Q1296.6563,862.875 1296.0313,862.875 Q1294.6875,862.875 1294,863.9531 Q1293.3125,865.0156 1293.3125,867.1094 Q1293.3125,869.2031 1294,870.2813 Q1294.6875,871.3438 1296.0313,871.3438 Q1296.6563,871.3438 1297.25,871.0781 Q1297.8438,870.7969 1298.4688,870.2188 L1298.4688,872.9375 Z " fill="#000000"/>
        <text fill="#000000" font-family="sans-serif" font-size="14" lengthAdjust="spacing" textLength="127.3877" x="1309.5" y="872.1436">function_template</text>
        <line style="stroke:#181818;stroke-width:0.5;" x1="1281.5" x2="1438.8877" y1="883.2969" y2="883.2969"/>
        <line style="stroke:#181818;stroke-width:0.5;" x1="1281.5" x2="1438.8877" y1="891.2969" y2="891.2969"/>
      </g>
    </a>
    <a href="classclanguml_1_1sequence__diagram_1_1model_1_1message.html" target="_top" title="Model of a sequence diagram message." xlink:actuate="onRequest" xlink:href="classclanguml_1_1sequence__diagram_1_1model_1_1message.html" xlink:show="new" xlink:title="Model of a sequence diagram message." xlink:type="simple">
      <g id="elem_C_0017829224549649886549">
        <rect codeLine="113" fill="#F1F1F1" height="48" id="C_0017829224549649886549" rx="2.5" ry="2.5" style="stroke:#181818;stroke-width:0.5;" width="94.918" x="1145.5" y="635.2969"/>
        <ellipse cx="1160.5" cy="651.2969" fill="#ADD1B2" rx="11" ry="11" style="stroke:#181818;stroke-width:1.0;"/>
        <path d="M1163.4688,656.9375 Q1162.8906,657.2344 1162.25,657.375 Q1161.6094,657.5313 1160.9063,657.5313 Q1158.4063,657.5313 1157.0781,655.8906 Q1155.7656,654.2344 1155.7656,651.1094 Q1155.7656,647.9844 1157.0781,646.3281 Q1158.4063,644.6719 1160.9063,644.6719 Q1161.6094,644.6719 1162.25,644.8281 Q1162.9063,644.9844 1163.4688,645.2813 L1163.4688,648 Q1162.8438,647.4219 1162.25,647.1563 Q1161.6563,646.875 1161.0313,646.875 Q1159.6875,646.875 1159,647.9531 Q1158.3125,649.0156 1158.3125,651.1094 Q1158.3125,653.2031 1159,654.2813 Q1159.6875,655.3438 1161.0313,655.3438 Q1161.6563,655.3438 1162.25,655.0781 Q1162.8438,654.7969 1163.4688,654.2188 L1163.4688,656.9375 Z " fill="#000000"/>
        <text fill="#000000" font-family="sans-serif" font-size="14" lengthAdjust="spacing" textLength="62.918" x="1174.5" y="656.1436">message</text>
        <line style="stroke:#181818;stroke-width:0.5;" x1="1146.5" x2="1239.418" y1="667.2969" y2="667.2969"/>
        <line style="stroke:#181818;stroke-width:0.5;" x1="1146.5" x2="1239.418" y1="675.2969" y2="675.2969"/>
      </g>
    </a>
    <g id="link_C_0008936819060997384951_C_0016370694070378943411">
      <path codeLine="118" d="M814.0736,186.7791 C809.7436,204.4391 808.07,211.2369 803.72,228.9769 " fill="none" id="C_0008936819060997384951-backto-C_0016370694070378943411" style="stroke:#181818;stroke-width:1.0;"/>
      <polygon fill="none" points="818.36,169.2969,808.2462,185.3503,819.901,188.2079,818.36,169.2969" style="stroke:#181818;stroke-width:1.0;"/>
    </g>
    <g id="link_C_0008936819060997384951_C_0008588005715032923314">
      <path codeLine="120" d="M869.7437,179.9707 C893.7237,197.6307 912.22,211.2369 936.32,228.9769 " fill="none" id="C_0008936819060997384951-backto-C_0008588005715032923314" style="stroke:#181818;stroke-width:1.0;"/>
      <polygon fill="none" points="855.25,169.2969,866.1858,184.802,873.3017,175.1395,855.25,169.2969" style="stroke:#181818;stroke-width:1.0;"/>
    </g>
    <g id="link_C_0008588005715032923314_C_0016556163051475263500">
      <path codeLine="122" d="M918.5231,287.2815 C891.9431,305.0015 870.34,319.4069 843.71,337.1569 " fill="none" id="C_0008588005715032923314-backto-C_0016556163051475263500" style="stroke:#181818;stroke-width:1.0;"/>
      <polygon fill="none" points="933.5,277.2969,915.1949,282.2892,921.8513,292.2738,933.5,277.2969" style="stroke:#181818;stroke-width:1.0;"/>
    </g>
    <g id="link_C_0016556163051475263500_C_0013384831159811298387">
      <path codeLine="124" d="M820.4135,402.6161 C825.4135,420.2761 827.38,427.2369 832.4,444.9769 " fill="none" id="C_0016556163051475263500-backto-C_0013384831159811298387" style="stroke:#181818;stroke-width:1.0;"/>
      <polygon fill="none" points="815.51,385.2969,814.6404,404.2506,826.1866,400.9816,815.51,385.2969" style="stroke:#181818;stroke-width:1.0;"/>
    </g>
    <g id="link_C_0008588005715032923314_C_0006285717704576425038">
      <path codeLine="126" d="M968,295.2969 C968,312.9569 968,319.2369 968,336.9769 " fill="none" id="C_0008588005715032923314-backto-C_0006285717704576425038" style="stroke:#181818;stroke-width:1.0;"/>
      <polygon fill="none" points="968,277.2969,962,295.2969,974,295.2969,968,277.2969" style="stroke:#181818;stroke-width:1.0;"/>
    </g>
    <g id="link_C_0016556163051475263500_C_0017146293478645494837">
      <path codeLine="128" d="M866.1788,394.0313 C898.1088,411.7513 926.32,427.4069 958.31,445.1569 " fill="none" id="C_0016556163051475263500-backto-C_0017146293478645494837" style="stroke:#181818;stroke-width:1.0;"/>
      <polygon fill="none" points="850.44,385.2969,863.2673,399.2776,869.0903,388.7851,850.44,385.2969" style="stroke:#181818;stroke-width:1.0;"/>
    </g>
    <g id="link_C_0008936819060997384951_C_0004846934894930864299">
      <path codeLine="130" d="M759.7894,177.3144 C727.5794,193.2144 700.67,207.3869 664,229.2969 C447.39,358.7369 378.02,375.5669 195,549.2969 C167.4,575.4969 141.88,611.5269 126.62,634.8669 " fill="none" id="C_0008936819060997384951-backto-C_0004846934894930864299" style="stroke:#181818;stroke-width:1.0;"/>
      <polygon fill="none" points="775.93,169.3469,757.1336,171.9342,762.4453,182.6946,775.93,169.3469" style="stroke:#181818;stroke-width:1.0;"/>
    </g>
    <g id="link_C_0004846934894930864299_C_0014241292626575163322">
      <path codeLine="132" d="M120.0497,700.9554 C123.5397,718.6154 124.87,725.2369 128.38,742.9769 " fill="none" id="C_0004846934894930864299-backto-C_0014241292626575163322" style="stroke:#181818;stroke-width:1.0;"/>
      <polygon fill="none" points="116.56,683.2969,114.1635,702.1186,125.9359,699.7921,116.56,683.2969" style="stroke:#181818;stroke-width:1.0;"/>
    </g>
    <g id="link_C_0014241292626575163322_C_0014370262096868218046">
      <path codeLine="134" d="M125.3247,808.9852 C121.9947,826.6452 120.75,833.2369 117.4,850.9769 " fill="none" id="C_0014241292626575163322-backto-C_0014370262096868218046" style="stroke:#181818;stroke-width:1.0;"/>
      <polygon fill="none" points="128.66,791.2969,119.4286,807.8734,131.2208,810.0969,128.66,791.2969" style="stroke:#181818;stroke-width:1.0;"/>
    </g>
    <g id="link_C_0008936819060997384951_C_0004845352266951408403">
      <path codeLine="136" d="M780.1829,180.8145 C759.7529,197.0945 746.3,208.3669 723,229.2969 C571.98,364.9869 538.48,403.6869 397,549.2969 C368.77,578.3469 337.18,612.7569 316.97,635.0369 " fill="none" id="C_0008936819060997384951-backto-C_0004845352266951408403" style="stroke:#181818;stroke-width:1.0;"/>
      <polygon fill="none" points="794.26,169.5969,776.4437,176.1221,783.9221,185.5069,794.26,169.5969" style="stroke:#181818;stroke-width:1.0;"/>
    </g>
    <g id="link_C_0004846934894930864299_C_0018032026899693266441">
      <path codeLine="138" d="M194.9229,687.0161 C250.3329,704.8661 312.33,724.8369 369.34,743.2069 " fill="none" id="C_0004846934894930864299-backto-C_0018032026899693266441" style="stroke:#181818;stroke-width:1.0;"/>
      <polygon fill="none" points="177.79,681.4969,193.0832,692.7271,196.7627,681.3052,177.79,681.4969" style="stroke:#181818;stroke-width:1.0;"/>
    </g>
    <g id="link_C_0018032026899693266441_C_0001633165731746789371">
      <path codeLine="140" d="M441,809.2969 C441,826.9569 441,833.2369 441,850.9769 " fill="none" id="C_0018032026899693266441-backto-C_0001633165731746789371" style="stroke:#181818;stroke-width:1.0;"/>
      <polygon fill="none" points="441,791.2969,435,809.2969,447,809.2969,441,791.2969" style="stroke:#181818;stroke-width:1.0;"/>
    </g>
    <g id="link_C_0013384831159811298387_C_0010336274859733225462">
      <path codeLine="142" d="M843.7911,511.225 C848.0111,547.305 854.04,598.8569 858.28,635.0569 " fill="none" id="C_0013384831159811298387-backto-C_0010336274859733225462" style="stroke:#181818;stroke-width:1.0;"/>
      <polygon fill="none" points="841.7,493.3469,837.8317,511.922,849.7504,510.528,841.7,493.3469" style="stroke:#181818;stroke-width:1.0;"/>
    </g>
    <g id="link_C_0016556163051475263500_C_0010998792414017796003">
      <path codeLine="144" d="M747.186,386.4308 C711.246,401.2308 677.13,417.6369 637,445.2969 C581.6,483.4769 569.07,496.7969 527,549.2969 C505.09,576.6369 485.32,612.0569 473.49,634.9869 " fill="none" id="C_0016556163051475263500-backto-C_0010998792414017796003" style="stroke:#181818;stroke-width:1.0;"/>
      <polygon fill="none" points="763.83,379.5769,744.9013,380.8828,749.4706,391.9788,763.83,379.5769" style="stroke:#181818;stroke-width:1.0;"/>
    </g>
    <g id="link_C_0016556163051475263500_C_0005795143816749204050">
      <path codeLine="146" d="M764.1055,396.7127 C744.3155,412.4327 732.8,423.1069 713,445.2969 C658.46,506.4269 613.98,593.7669 594.55,635.0169 " fill="none" id="C_0016556163051475263500-backto-C_0005795143816749204050" style="stroke:#181818;stroke-width:1.0;"/>
      <polygon fill="none" points="778.2,385.5169,760.3736,392.0145,767.8375,401.4108,778.2,385.5169" style="stroke:#181818;stroke-width:1.0;"/>
    </g>
    <g id="link_C_0014241292626575163322_C_0007364672229966928495">
      <path codeLine="148" d="M178.9913,801.9196 C203.2313,819.6396 222.06,833.4069 246.35,851.1569 " fill="none" id="C_0014241292626575163322-backto-C_0007364672229966928495" style="stroke:#181818;stroke-width:1.0;"/>
      <polygon fill="none" points="164.46,791.2969,175.4504,806.7633,182.5322,797.0758,164.46,791.2969" style="stroke:#181818;stroke-width:1.0;"/>
    </g>
    <g id="link_C_0018032026899693266441_C_0002175636676684225778">
      <path codeLine="150" d="M490.7245,801.24 C517.4645,818.96 539.28,833.4069 566.07,851.1569 " fill="none" id="C_0018032026899693266441-backto-C_0002175636676684225778" style="stroke:#181818;stroke-width:1.0;"/>
      <polygon fill="none" points="475.72,791.2969,487.4101,806.2415,494.0388,796.2385,475.72,791.2969" style="stroke:#181818;stroke-width:1.0;"/>
    </g>
    <g id="link_C_0016556163051475263500_C_0010166346108406727066">
      <path codeLine="152" d="M771.2909,398.4606 C756.3709,413.8506 751.18,422.4369 742,445.2969 C715.94,510.2169 718.5,595.0169 721.66,635.2169 " fill="none" id="C_0016556163051475263500-backto-C_0010166346108406727066" style="stroke:#181818;stroke-width:1.0;"/>
      <polygon fill="none" points="783.82,385.5369,766.983,394.2843,775.5989,402.637,783.82,385.5369" style="stroke:#181818;stroke-width:1.0;"/>
    </g>
    <g id="link_C_0013384831159811298387_C_0011201726182739961811">
      <path codeLine="154" d="M879.2151,505.1325 C920.8651,541.2125 987.39,598.8569 1029.17,635.0569 " fill="none" id="C_0013384831159811298387-backto-C_0011201726182739961811" style="stroke:#181818;stroke-width:1.0;"/>
      <polygon fill="none" points="865.61,493.3469,875.2866,509.6675,883.1436,500.5975,865.61,493.3469" style="stroke:#181818;stroke-width:1.0;"/>
    </g>
    <g id="link_C_0011201726182739961811_C_0007084118972955772881">
      <path codeLine="156" d="M1056,701.2969 C1056,718.9569 1056,725.2369 1056,742.9769 " fill="none" id="C_0011201726182739961811-backto-C_0007084118972955772881" style="stroke:#181818;stroke-width:1.0;"/>
      <polygon fill="none" points="1056,683.2969,1050,701.2969,1062,701.2969,1056,683.2969" style="stroke:#181818;stroke-width:1.0;"/>
    </g>
    <g id="link_C_0011201726182739961811_C_0001861107648253454629">
      <path codeLine="158" d="M1096.0589,695.1011 C1116.3889,712.7611 1130.74,725.2369 1151.16,742.9769 " fill="none" id="C_0011201726182739961811-backto-C_0001861107648253454629" style="stroke:#181818;stroke-width:1.0;"/>
      <polygon fill="none" points="1082.47,683.2969,1092.1242,699.6308,1099.9937,690.5715,1082.47,683.2969" style="stroke:#181818;stroke-width:1.0;"/>
    </g>
    <g id="link_C_0001861107648253454629_C_0006541327780382276039">
      <path codeLine="160" d="M1135.0658,802.5181 C1112.9158,820.1781 1096.52,833.2369 1074.26,850.9769 " fill="none" id="C_0001861107648253454629-backto-C_0006541327780382276039" style="stroke:#181818;stroke-width:1.0;"/>
      <polygon fill="none" points="1149.14,791.2969,1131.3254,797.8267,1138.8062,807.2095,1149.14,791.2969" style="stroke:#181818;stroke-width:1.0;"/>
    </g>
    <g id="link_C_0001861107648253454629_C_0013742559556936917396">
      <path codeLine="162" d="M1180.3176,809.2681 C1181.3176,826.9281 1181.68,833.2369 1182.68,850.9769 " fill="none" id="C_0001861107648253454629-backto-C_0013742559556936917396" style="stroke:#181818;stroke-width:1.0;"/>
      <polygon fill="none" points="1179.3,791.2969,1174.3272,809.6073,1186.308,808.9289,1179.3,791.2969" style="stroke:#181818;stroke-width:1.0;"/>
    </g>
    <g id="link_C_0001861107648253454629_C_0018241535739946484465">
      <path codeLine="164" d="M1233.0436,800.357 C1263.4636,818.077 1289.79,833.4069 1320.27,851.1569 " fill="none" id="C_0001861107648253454629-backto-C_0018241535739946484465" style="stroke:#181818;stroke-width:1.0;"/>
      <polygon fill="none" points="1217.49,791.2969,1230.0235,805.5415,1236.0636,795.1725,1217.49,791.2969" style="stroke:#181818;stroke-width:1.0;"/>
    </g>
    <g id="link_C_0008588005715032923314_C_0017829224549649886549">
      <path codeLine="166" d="M1002.8538,290.474 C1017.7638,306.444 1024.82,315.5269 1039,337.2969 C1106.99,441.6469 1163.36,580.5969 1184.28,635.0369 " fill="none" id="C_0008588005715032923314-backto-C_0017829224549649886549" style="stroke:#181818;stroke-width:1.0;"/>
      <polygon fill="none" points="990.57,277.3169,998.4681,294.5685,1007.2395,286.3794,990.57,277.3169" style="stroke:#181818;stroke-width:1.0;"/>
    </g>
  </g>
</svg>
