<svg xmlns="http://www.w3.org/2000/svg" xmlns:xlink="http://www.w3.org/1999/xlink" contentStyleType="text/css" height="421px" preserveAspectRatio="none" style="width:757px;height:421px;background:#FFFFFF;" version="1.1" viewBox="0 0 757 421" width="757px" zoomAndPan="magnify">
  <title>Diagram type class hierarchy</title>
  <defs>
    <style type="text/css">a:hover { text-decoration: underline; }</style>
  </defs>
  <g>
    <text fill="#000000" font-family="sans-serif" font-size="14" font-weight="bold" lengthAdjust="spacing" textLength="203.7132" x="269.6434" y="24.9659">Diagram type class hierarchy</text>
    <g id="cluster_C_0002532840279361781187">
      <path d="M296.5,46.6699 L358.7218,46.6699 A3.75,3.75 0 0 1 361.2218,49.1699 L368.2218,71.7378 L459.5,71.7378 A2.5,2.5 0 0 1 462,74.2378 L462,216.1699 A2.5,2.5 0 0 1 459.5,218.6699 L296.5,218.6699 A2.5,2.5 0 0 1 294,216.1699 L294,49.1699 A2.5,2.5 0 0 1 296.5,46.6699 " fill="none" style="stroke:#000000;stroke-width:1.5;"/>
      <line style="stroke:#000000;stroke-width:1.5;" x1="294" x2="368.2218" y1="71.7378" y2="71.7378"/>
      <text fill="#000000" font-family="sans-serif" font-size="14" font-weight="bold" lengthAdjust="spacing" textLength="61.2218" x="298" y="63.6358">common</text>
    </g>
    <g id="cluster_C_0000669774451444102653">
      <path d="M320.5,92.6699 L365.3198,92.6699 A3.75,3.75 0 0 1 367.8198,95.1699 L374.8198,117.7378 L435.5,117.7378 A2.5,2.5 0 0 1 438,120.2378 L438,192.1699 A2.5,2.5 0 0 1 435.5,194.6699 L320.5,194.6699 A2.5,2.5 0 0 1 318,192.1699 L318,95.1699 A2.5,2.5 0 0 1 320.5,92.6699 " fill="none" style="stroke:#000000;stroke-width:1.5;"/>
      <line style="stroke:#000000;stroke-width:1.5;" x1="318" x2="374.8198" y1="117.7378" y2="117.7378"/>
      <text fill="#000000" font-family="sans-serif" font-size="14" font-weight="bold" lengthAdjust="spacing" textLength="43.8198" x="322" y="109.6358">model</text>
    </g>
    <g id="cluster_C_0017921336289613804855">
      <path d="M8.5,242.6699 L108.1016,242.6699 A3.75,3.75 0 0 1 110.6016,245.1699 L117.6016,267.7378 L171.5,267.7378 A2.5,2.5 0 0 1 174,270.2378 L174,412.1699 A2.5,2.5 0 0 1 171.5,414.6699 L8.5,414.6699 A2.5,2.5 0 0 1 6,412.1699 L6,245.1699 A2.5,2.5 0 0 1 8.5,242.6699 " fill="none" style="stroke:#000000;stroke-width:1.5;"/>
      <line style="stroke:#000000;stroke-width:1.5;" x1="6" x2="117.6016" y1="267.7378" y2="267.7378"/>
      <text fill="#000000" font-family="sans-serif" font-size="14" font-weight="bold" lengthAdjust="spacing" textLength="98.6016" x="10" y="259.6358">class_diagram</text>
    </g>
    <g id="cluster_C_0007176993879715460962">
      <path d="M32.5,288.6699 L77.3198,288.6699 A3.75,3.75 0 0 1 79.8198,291.1699 L86.8198,313.7378 L147.5,313.7378 A2.5,2.5 0 0 1 150,316.2378 L150,388.1699 A2.5,2.5 0 0 1 147.5,390.6699 L32.5,390.6699 A2.5,2.5 0 0 1 30,388.1699 L30,291.1699 A2.5,2.5 0 0 1 32.5,288.6699 " fill="none" style="stroke:#000000;stroke-width:1.5;"/>
      <line style="stroke:#000000;stroke-width:1.5;" x1="30" x2="86.8198" y1="313.7378" y2="313.7378"/>
      <text fill="#000000" font-family="sans-serif" font-size="14" font-weight="bold" lengthAdjust="spacing" textLength="43.8198" x="34" y="305.6358">model</text>
    </g>
    <g id="cluster_C_0018317418947569564933">
      <path d="M200.5,242.6699 L317.5316,242.6699 A3.75,3.75 0 0 1 320.0316,245.1699 L327.0316,267.7378 L363.5,267.7378 A2.5,2.5 0 0 1 366,270.2378 L366,412.1699 A2.5,2.5 0 0 1 363.5,414.6699 L200.5,414.6699 A2.5,2.5 0 0 1 198,412.1699 L198,245.1699 A2.5,2.5 0 0 1 200.5,242.6699 " fill="none" style="stroke:#000000;stroke-width:1.5;"/>
      <line style="stroke:#000000;stroke-width:1.5;" x1="198" x2="327.0316" y1="267.7378" y2="267.7378"/>
      <text fill="#000000" font-family="sans-serif" font-size="14" font-weight="bold" lengthAdjust="spacing" textLength="116.0316" x="202" y="259.6358">include_diagram</text>
    </g>
    <g id="cluster_C_0004362631048833985714">
      <path d="M224.5,288.6699 L269.3198,288.6699 A3.75,3.75 0 0 1 271.8198,291.1699 L278.8198,313.7378 L339.5,313.7378 A2.5,2.5 0 0 1 342,316.2378 L342,388.1699 A2.5,2.5 0 0 1 339.5,390.6699 L224.5,390.6699 A2.5,2.5 0 0 1 222,388.1699 L222,291.1699 A2.5,2.5 0 0 1 224.5,288.6699 " fill="none" style="stroke:#000000;stroke-width:1.5;"/>
      <line style="stroke:#000000;stroke-width:1.5;" x1="222" x2="278.8198" y1="313.7378" y2="313.7378"/>
      <text fill="#000000" font-family="sans-serif" font-size="14" font-weight="bold" lengthAdjust="spacing" textLength="43.8198" x="226" y="305.6358">model</text>
    </g>
    <g id="cluster_C_0012174902727661033893">
      <path d="M392.5,242.6699 L524.4975,242.6699 A3.75,3.75 0 0 1 526.9975,245.1699 L533.9975,267.7378 L555.5,267.7378 A2.5,2.5 0 0 1 558,270.2378 L558,412.1699 A2.5,2.5 0 0 1 555.5,414.6699 L392.5,414.6699 A2.5,2.5 0 0 1 390,412.1699 L390,245.1699 A2.5,2.5 0 0 1 392.5,242.6699 " fill="none" style="stroke:#000000;stroke-width:1.5;"/>
      <line style="stroke:#000000;stroke-width:1.5;" x1="390" x2="533.9975" y1="267.7378" y2="267.7378"/>
      <text fill="#000000" font-family="sans-serif" font-size="14" font-weight="bold" lengthAdjust="spacing" textLength="130.9975" x="394" y="259.6358">sequence_diagram</text>
    </g>
    <g id="cluster_C_0017655759046645114118">
      <path d="M416.5,288.6699 L461.3198,288.6699 A3.75,3.75 0 0 1 463.8198,291.1699 L470.8198,313.7378 L531.5,313.7378 A2.5,2.5 0 0 1 534,316.2378 L534,388.1699 A2.5,2.5 0 0 1 531.5,390.6699 L416.5,390.6699 A2.5,2.5 0 0 1 414,388.1699 L414,291.1699 A2.5,2.5 0 0 1 416.5,288.6699 " fill="none" style="stroke:#000000;stroke-width:1.5;"/>
      <line style="stroke:#000000;stroke-width:1.5;" x1="414" x2="470.8198" y1="313.7378" y2="313.7378"/>
      <text fill="#000000" font-family="sans-serif" font-size="14" font-weight="bold" lengthAdjust="spacing" textLength="43.8198" x="418" y="305.6358">model</text>
    </g>
    <g id="cluster_C_0009413724933622552589">
      <path d="M584.5,242.6699 L709.0495,242.6699 A3.75,3.75 0 0 1 711.5495,245.1699 L718.5495,267.7378 L747.5,267.7378 A2.5,2.5 0 0 1 750,270.2378 L750,412.1699 A2.5,2.5 0 0 1 747.5,414.6699 L584.5,414.6699 A2.5,2.5 0 0 1 582,412.1699 L582,245.1699 A2.5,2.5 0 0 1 584.5,242.6699 " fill="none" style="stroke:#000000;stroke-width:1.5;"/>
      <line style="stroke:#000000;stroke-width:1.5;" x1="582" x2="718.5495" y1="267.7378" y2="267.7378"/>
      <text fill="#000000" font-family="sans-serif" font-size="14" font-weight="bold" lengthAdjust="spacing" textLength="123.5495" x="586" y="259.6358">package_diagram</text>
    </g>
    <g id="cluster_C_0012558484942253952660">
      <path d="M608.5,288.6699 L653.3198,288.6699 A3.75,3.75 0 0 1 655.8198,291.1699 L662.8198,313.7378 L723.5,313.7378 A2.5,2.5 0 0 1 726,316.2378 L726,388.1699 A2.5,2.5 0 0 1 723.5,390.6699 L608.5,390.6699 A2.5,2.5 0 0 1 606,388.1699 L606,291.1699 A2.5,2.5 0 0 1 608.5,288.6699 " fill="none" style="stroke:#000000;stroke-width:1.5;"/>
      <line style="stroke:#000000;stroke-width:1.5;" x1="606" x2="662.8198" y1="313.7378" y2="313.7378"/>
      <text fill="#000000" font-family="sans-serif" font-size="14" font-weight="bold" lengthAdjust="spacing" textLength="43.8198" x="610" y="305.6358">model</text>
    </g>
    <a href="classclanguml_1_1common_1_1model_1_1diagram.html" target="_top" title="Base class for all diagram models" xlink:actuate="onRequest" xlink:href="classclanguml_1_1common_1_1model_1_1diagram.html" xlink:show="new" xlink:title="Base class for all diagram models" xlink:type="simple">
      <g id="elem_C_0001576551882566686996">
        <rect codeLine="5" fill="#F1F1F1" height="48" id="C_0001576551882566686996" rx="2.5" ry="2.5" style="stroke:#181818;stroke-width:0.5;" width="87.4118" x="334.5" y="130.6699"/>
        <ellipse cx="349.5" cy="146.6699" fill="#ADD1B2" rx="11" ry="11" style="stroke:#181818;stroke-width:1.0;"/>
        <path d="M352.4688,152.3105 Q351.8906,152.6074 351.25,152.748 Q350.6094,152.9043 349.9063,152.9043 Q347.4063,152.9043 346.0781,151.2636 Q344.7656,149.6074 344.7656,146.4824 Q344.7656,143.3574 346.0781,141.7011 Q347.4063,140.0449 349.9063,140.0449 Q350.6094,140.0449 351.25,140.2011 Q351.9063,140.3574 352.4688,140.6543 L352.4688,143.373 Q351.8438,142.7949 351.25,142.5293 Q350.6563,142.248 350.0313,142.248 Q348.6875,142.248 348,143.3261 Q347.3125,144.3886 347.3125,146.4824 Q347.3125,148.5761 348,149.6543 Q348.6875,150.7168 350.0313,150.7168 Q350.6563,150.7168 351.25,150.4511 Q351.8438,150.1699 352.4688,149.5918 L352.4688,152.3105 Z " fill="#000000"/>
        <text fill="#000000" font-family="sans-serif" font-size="14" lengthAdjust="spacing" textLength="55.4118" x="363.5" y="152.1019">diagram</text>
        <line style="stroke:#181818;stroke-width:0.5;" x1="335.5" x2="420.9118" y1="162.6699" y2="162.6699"/>
        <line style="stroke:#181818;stroke-width:0.5;" x1="335.5" x2="420.9118" y1="170.6699" y2="170.6699"/>
      </g>
    </a>
    <a href="classclanguml_1_1class__diagram_1_1model_1_1diagram.html" target="_top" title="Class representing a class diagram." xlink:actuate="onRequest" xlink:href="classclanguml_1_1class__diagram_1_1model_1_1diagram.html" xlink:show="new" xlink:title="Class representing a class diagram." xlink:type="simple">
      <g id="elem_C_0007315456613526221498">
        <rect codeLine="13" fill="#F1F1F1" height="48" id="C_0007315456613526221498" rx="2.5" ry="2.5" style="stroke:#181818;stroke-width:0.5;" width="87.4118" x="46.5" y="326.6699"/>
        <ellipse cx="61.5" cy="342.6699" fill="#ADD1B2" rx="11" ry="11" style="stroke:#181818;stroke-width:1.0;"/>
        <path d="M64.4688,348.3105 Q63.8906,348.6074 63.25,348.748 Q62.6094,348.9043 61.9063,348.9043 Q59.4063,348.9043 58.0781,347.2636 Q56.7656,345.6074 56.7656,342.4824 Q56.7656,339.3574 58.0781,337.7011 Q59.4063,336.0449 61.9063,336.0449 Q62.6094,336.0449 63.25,336.2011 Q63.9063,336.3574 64.4688,336.6543 L64.4688,339.373 Q63.8438,338.7949 63.25,338.5293 Q62.6563,338.248 62.0313,338.248 Q60.6875,338.248 60,339.3261 Q59.3125,340.3886 59.3125,342.4824 Q59.3125,344.5761 60,345.6543 Q60.6875,346.7168 62.0313,346.7168 Q62.6563,346.7168 63.25,346.4511 Q63.8438,346.1699 64.4688,345.5918 L64.4688,348.3105 Z " fill="#000000"/>
        <text fill="#000000" font-family="sans-serif" font-size="14" lengthAdjust="spacing" textLength="55.4118" x="75.5" y="348.1019">diagram</text>
        <line style="stroke:#181818;stroke-width:0.5;" x1="47.5" x2="132.9118" y1="358.6699" y2="358.6699"/>
        <line style="stroke:#181818;stroke-width:0.5;" x1="47.5" x2="132.9118" y1="366.6699" y2="366.6699"/>
      </g>
    </a>
    <a href="classclanguml_1_1include__diagram_1_1model_1_1diagram.html" target="_top" title="Class representing an include diagram model." xlink:actuate="onRequest" xlink:href="classclanguml_1_1include__diagram_1_1model_1_1diagram.html" xlink:show="new" xlink:title="Class representing an include diagram model." xlink:type="simple">
      <g id="elem_C_0002467043186855586999">
        <rect codeLine="21" fill="#F1F1F1" height="48" id="C_0002467043186855586999" rx="2.5" ry="2.5" style="stroke:#181818;stroke-width:0.5;" width="87.4118" x="238.5" y="326.6699"/>
        <ellipse cx="253.5" cy="342.6699" fill="#ADD1B2" rx="11" ry="11" style="stroke:#181818;stroke-width:1.0;"/>
        <path d="M256.4688,348.3105 Q255.8906,348.6074 255.25,348.748 Q254.6094,348.9043 253.9063,348.9043 Q251.4063,348.9043 250.0781,347.2636 Q248.7656,345.6074 248.7656,342.4824 Q248.7656,339.3574 250.0781,337.7011 Q251.4063,336.0449 253.9063,336.0449 Q254.6094,336.0449 255.25,336.2011 Q255.9063,336.3574 256.4688,336.6543 L256.4688,339.373 Q255.8438,338.7949 255.25,338.5293 Q254.6563,338.248 254.0313,338.248 Q252.6875,338.248 252,339.3261 Q251.3125,340.3886 251.3125,342.4824 Q251.3125,344.5761 252,345.6543 Q252.6875,346.7168 254.0313,346.7168 Q254.6563,346.7168 255.25,346.4511 Q255.8438,346.1699 256.4688,345.5918 L256.4688,348.3105 Z " fill="#000000"/>
        <text fill="#000000" font-family="sans-serif" font-size="14" lengthAdjust="spacing" textLength="55.4118" x="267.5" y="348.1019">diagram</text>
        <line style="stroke:#181818;stroke-width:0.5;" x1="239.5" x2="324.9118" y1="358.6699" y2="358.6699"/>
        <line style="stroke:#181818;stroke-width:0.5;" x1="239.5" x2="324.9118" y1="366.6699" y2="366.6699"/>
      </g>
    </a>
    <a href="classclanguml_1_1sequence__diagram_1_1model_1_1diagram.html" target="_top" title="Model of a sequence diagram" xlink:actuate="onRequest" xlink:href="classclanguml_1_1sequence__diagram_1_1model_1_1diagram.html" xlink:show="new" xlink:title="Model of a sequence diagram" xlink:type="simple">
      <g id="elem_C_0007392356576284087808">
        <rect codeLine="29" fill="#F1F1F1" height="48" id="C_0007392356576284087808" rx="2.5" ry="2.5" style="stroke:#181818;stroke-width:0.5;" width="87.4118" x="430.5" y="326.6699"/>
        <ellipse cx="445.5" cy="342.6699" fill="#ADD1B2" rx="11" ry="11" style="stroke:#181818;stroke-width:1.0;"/>
        <path d="M448.4688,348.3105 Q447.8906,348.6074 447.25,348.748 Q446.6094,348.9043 445.9063,348.9043 Q443.4063,348.9043 442.0781,347.2636 Q440.7656,345.6074 440.7656,342.4824 Q440.7656,339.3574 442.0781,337.7011 Q443.4063,336.0449 445.9063,336.0449 Q446.6094,336.0449 447.25,336.2011 Q447.9063,336.3574 448.4688,336.6543 L448.4688,339.373 Q447.8438,338.7949 447.25,338.5293 Q446.6563,338.248 446.0313,338.248 Q444.6875,338.248 444,339.3261 Q443.3125,340.3886 443.3125,342.4824 Q443.3125,344.5761 444,345.6543 Q444.6875,346.7168 446.0313,346.7168 Q446.6563,346.7168 447.25,346.4511 Q447.8438,346.1699 448.4688,345.5918 L448.4688,348.3105 Z " fill="#000000"/>
        <text fill="#000000" font-family="sans-serif" font-size="14" lengthAdjust="spacing" textLength="55.4118" x="459.5" y="348.1019">diagram</text>
        <line style="stroke:#181818;stroke-width:0.5;" x1="431.5" x2="516.9118" y1="358.6699" y2="358.6699"/>
        <line style="stroke:#181818;stroke-width:0.5;" x1="431.5" x2="516.9118" y1="366.6699" y2="366.6699"/>
      </g>
    </a>
    <a href="classclanguml_1_1package__diagram_1_1model_1_1diagram.html" target="_top" title="Package diagram model." xlink:actuate="onRequest" xlink:href="classclanguml_1_1package__diagram_1_1model_1_1diagram.html" xlink:show="new" xlink:title="Package diagram model." xlink:type="simple">
      <g id="elem_C_0001188296008369339829">
        <rect codeLine="37" fill="#F1F1F1" height="48" id="C_0001188296008369339829" rx="2.5" ry="2.5" style="stroke:#181818;stroke-width:0.5;" width="87.4118" x="622.5" y="326.6699"/>
        <ellipse cx="637.5" cy="342.6699" fill="#ADD1B2" rx="11" ry="11" style="stroke:#181818;stroke-width:1.0;"/>
        <path d="M640.4688,348.3105 Q639.8906,348.6074 639.25,348.748 Q638.6094,348.9043 637.9063,348.9043 Q635.4063,348.9043 634.0781,347.2636 Q632.7656,345.6074 632.7656,342.4824 Q632.7656,339.3574 634.0781,337.7011 Q635.4063,336.0449 637.9063,336.0449 Q638.6094,336.0449 639.25,336.2011 Q639.9063,336.3574 640.4688,336.6543 L640.4688,339.373 Q639.8438,338.7949 639.25,338.5293 Q638.6563,338.248 638.0313,338.248 Q636.6875,338.248 636,339.3261 Q635.3125,340.3886 635.3125,342.4824 Q635.3125,344.5761 636,345.6543 Q636.6875,346.7168 638.0313,346.7168 Q638.6563,346.7168 639.25,346.4511 Q639.8438,346.1699 640.4688,345.5918 L640.4688,348.3105 Z " fill="#000000"/>
        <text fill="#000000" font-family="sans-serif" font-size="14" lengthAdjust="spacing" textLength="55.4118" x="651.5" y="348.1019">diagram</text>
        <line style="stroke:#181818;stroke-width:0.5;" x1="623.5" x2="708.9118" y1="358.6699" y2="358.6699"/>
        <line style="stroke:#181818;stroke-width:0.5;" x1="623.5" x2="708.9118" y1="366.6699" y2="366.6699"/>
      </g>
    </a>
    <g id="link_C_0001576551882566686996_C_0007315456613526221498">
      <path codeLine="42" d="M317.9503,181.6373 C285.7403,196.1573 257.88,210.4999 222,234.6699 C180.66,262.5099 138.11,301.8799 112.87,326.5799 " fill="none" id="C_0001576551882566686996-backto-C_0007315456613526221498" style="stroke:#181818;stroke-width:1.0;"/>
      <polygon fill="none" points="334.36,174.2399,315.4845,176.1674,320.4161,187.1072,334.36,174.2399" style="stroke:#181818;stroke-width:1.0;"/>
    </g>
    <g id="link_C_0001576551882566686996_C_0002467043186855586999">
      <path codeLine="44" d="M358.6243,194.8215 C340.1943,232.0515 312.04,288.9699 293.52,326.3799 " fill="none" id="C_0001576551882566686996-backto-C_0002467043186855586999" style="stroke:#181818;stroke-width:1.0;"/>
      <polygon fill="none" points="366.61,178.6899,353.2471,192.1596,364.0016,197.4834,366.61,178.6899" style="stroke:#181818;stroke-width:1.0;"/>
    </g>
    <g id="link_C_0001576551882566686996_C_0007392356576284087808">
      <path codeLine="46" d="M397.3757,194.8215 C415.8057,232.0515 443.96,288.9699 462.48,326.3799 " fill="none" id="C_0001576551882566686996-backto-C_0007392356576284087808" style="stroke:#181818;stroke-width:1.0;"/>
      <polygon fill="none" points="389.39,178.6899,391.9984,197.4834,402.7529,192.1596,389.39,178.6899" style="stroke:#181818;stroke-width:1.0;"/>
    </g>
    <g id="link_C_0001576551882566686996_C_0001188296008369339829">
      <path codeLine="48" d="M438.0497,181.6373 C470.2597,196.1573 498.12,210.4999 534,234.6699 C575.34,262.5099 617.89,301.8799 643.13,326.5799 " fill="none" id="C_0001576551882566686996-backto-C_0001188296008369339829" style="stroke:#181818;stroke-width:1.0;"/>
      <polygon fill="none" points="421.64,174.2399,435.5839,187.1072,440.5155,176.1674,421.64,174.2399" style="stroke:#181818;stroke-width:1.0;"/>
    </g>
  </g>
</svg>
