<svg xmlns="http://www.w3.org/2000/svg" xmlns:xlink="http://www.w3.org/1999/xlink" contentStyleType="text/css" height="1043px" preserveAspectRatio="none" style="width:1586px;height:1043px;background:#FFFFFF;" version="1.1" viewBox="0 0 1586 1043" width="1586px" zoomAndPan="magnify">
  <title>Diagram element class hierarchy</title>
  <defs>
    <style type="text/css">a:hover { text-decoration: underline; }</style>
  </defs>
  <g>
    <text fill="#000000" font-family="sans-serif" font-size="14" font-weight="bold" lengthAdjust="spacing" textLength="260.1006" x="655.9497" y="22.9951">Diagram element class hierarchy</text>
    <g id="cluster_C_0002532840279361781187">
      <path d="M8.5,316.2969 L76.1777,316.2969 A3.75,3.75 0 0 1 78.6777,318.7969 L85.6777,338.5938 L853.5,338.5938 A2.5,2.5 0 0 1 856,341.0938 L856,562.7969 A2.5,2.5 0 0 1 853.5,565.2969 L8.5,565.2969 A2.5,2.5 0 0 1 6,562.7969 L6,318.7969 A2.5,2.5 0 0 1 8.5,316.2969 " fill="none" style="stroke:#000000;stroke-width:1.5;"/>
      <line style="stroke:#000000;stroke-width:1.5;" x1="6" x2="85.6777" y1="338.5938" y2="338.5938"/>
      <text fill="#000000" font-family="sans-serif" font-size="14" font-weight="bold" lengthAdjust="spacing" textLength="66.6777" x="10" y="331.292">common</text>
    </g>
    <g id="cluster_C_0000669774451444102653">
      <path d="M32.5,359.2969 L82.0215,359.2969 A3.75,3.75 0 0 1 84.5215,361.7969 L91.5215,381.5938 L829.5,381.5938 A2.5,2.5 0 0 1 832,384.0938 L832,538.7969 A2.5,2.5 0 0 1 829.5,541.2969 L32.5,541.2969 A2.5,2.5 0 0 1 30,538.7969 L30,361.7969 A2.5,2.5 0 0 1 32.5,359.2969 " fill="none" style="stroke:#000000;stroke-width:1.5;"/>
      <line style="stroke:#000000;stroke-width:1.5;" x1="30" x2="91.5215" y1="381.5938" y2="381.5938"/>
      <text fill="#000000" font-family="sans-serif" font-size="14" font-weight="bold" lengthAdjust="spacing" textLength="48.5215" x="34" y="374.292">model</text>
    </g>
    <g id="cluster_C_0017921336289613804855">
      <path d="M882.5,399.2969 L994.9395,399.2969 A3.75,3.75 0 0 1 997.4395,401.7969 L1004.4395,421.5938 L1563.5,421.5938 A2.5,2.5 0 0 1 1566,424.0938 L1566,977.7969 A2.5,2.5 0 0 1 1563.5,980.2969 L882.5,980.2969 A2.5,2.5 0 0 1 880,977.7969 L880,401.7969 A2.5,2.5 0 0 1 882.5,399.2969 " fill="none" style="stroke:#000000;stroke-width:1.5;"/>
      <line style="stroke:#000000;stroke-width:1.5;" x1="880" x2="1004.4395" y1="421.5938" y2="421.5938"/>
      <text fill="#000000" font-family="sans-serif" font-size="14" font-weight="bold" lengthAdjust="spacing" textLength="111.4395" x="884" y="414.292">class_diagram</text>
    </g>
    <g id="cluster_C_0007176993879715460962">
      <path d="M906.5,442.2969 L956.0215,442.2969 A3.75,3.75 0 0 1 958.5215,444.7969 L965.5215,464.5938 L1539.5,464.5938 A2.5,2.5 0 0 1 1542,467.0938 L1542,953.7969 A2.5,2.5 0 0 1 1539.5,956.2969 L906.5,956.2969 A2.5,2.5 0 0 1 904,953.7969 L904,444.7969 A2.5,2.5 0 0 1 906.5,442.2969 " fill="none" style="stroke:#000000;stroke-width:1.5;"/>
      <line style="stroke:#000000;stroke-width:1.5;" x1="904" x2="965.5215" y1="464.5938" y2="464.5938"/>
      <text fill="#000000" font-family="sans-serif" font-size="14" font-weight="bold" lengthAdjust="spacing" textLength="48.5215" x="908" y="457.292">model</text>
    </g>
    <g id="cluster_C_0012174902727661033893">
      <path d="M912,43.2969 L1060.3008,43.2969 A3.75,3.75 0 0 1 1062.8008,45.7969 L1069.8008,65.5938 L1576.5,65.5938 A2.5,2.5 0 0 1 1579,68.0938 L1579,372.7969 A2.5,2.5 0 0 1 1576.5,375.2969 L912,375.2969 A2.5,2.5 0 0 1 909.5,372.7969 L909.5,45.7969 A2.5,2.5 0 0 1 912,43.2969 " fill="none" style="stroke:#000000;stroke-width:1.5;"/>
      <line style="stroke:#000000;stroke-width:1.5;" x1="909.5" x2="1069.8008" y1="65.5938" y2="65.5938"/>
      <text fill="#000000" font-family="sans-serif" font-size="14" font-weight="bold" lengthAdjust="spacing" textLength="147.3008" x="913.5" y="58.292">sequence_diagram</text>
    </g>
    <g id="cluster_C_0017655759046645114118">
      <path d="M936,86.2969 L985.5215,86.2969 A3.75,3.75 0 0 1 988.0215,88.7969 L995.0215,108.5938 L1552.5,108.5938 A2.5,2.5 0 0 1 1555,111.0938 L1555,348.7969 A2.5,2.5 0 0 1 1552.5,351.2969 L936,351.2969 A2.5,2.5 0 0 1 933.5,348.7969 L933.5,88.7969 A2.5,2.5 0 0 1 936,86.2969 " fill="none" style="stroke:#000000;stroke-width:1.5;"/>
      <line style="stroke:#000000;stroke-width:1.5;" x1="933.5" x2="995.0215" y1="108.5938" y2="108.5938"/>
      <text fill="#000000" font-family="sans-serif" font-size="14" font-weight="bold" lengthAdjust="spacing" textLength="48.5215" x="937.5" y="101.292">model</text>
    </g>
    <a href="classclanguml_1_1common_1_1model_1_1source__location.html" target="_top" title="Base class of all diagram elements that have source location." xlink:actuate="onRequest" xlink:href="classclanguml_1_1common_1_1model_1_1source__location.html" xlink:show="new" xlink:title="Base class of all diagram elements that have source location." xlink:type="simple">
      <g id="elem_C_0007162092657467521843">
        <rect codeLine="6" fill="#F1F1F1" height="48" id="C_0007162092657467521843" rx="2.5" ry="2.5" style="stroke:#181818;stroke-width:0.5;" width="141.3477" x="59.5" y="394.2969"/>
        <ellipse cx="74.5" cy="410.2969" fill="#ADD1B2" rx="11" ry="11" style="stroke:#181818;stroke-width:1.0;"/>
        <path d="M77.4688,415.9375 Q76.8906,416.2344 76.25,416.375 Q75.6094,416.5313 74.9063,416.5313 Q72.4063,416.5313 71.0781,414.8906 Q69.7656,413.2344 69.7656,410.1094 Q69.7656,406.9844 71.0781,405.3281 Q72.4063,403.6719 74.9063,403.6719 Q75.6094,403.6719 76.25,403.8281 Q76.9063,403.9844 77.4688,404.2813 L77.4688,407 Q76.8438,406.4219 76.25,406.1563 Q75.6563,405.875 75.0313,405.875 Q73.6875,405.875 73,406.9531 Q72.3125,408.0156 72.3125,410.1094 Q72.3125,412.2031 73,413.2813 Q73.6875,414.3438 75.0313,414.3438 Q75.6563,414.3438 76.25,414.0781 Q76.8438,413.7969 77.4688,413.2188 L77.4688,415.9375 Z " fill="#000000"/>
        <text fill="#000000" font-family="sans-serif" font-size="14" lengthAdjust="spacing" textLength="109.3477" x="88.5" y="415.1436">source_location</text>
        <line style="stroke:#181818;stroke-width:0.5;" x1="60.5" x2="199.8477" y1="426.2969" y2="426.2969"/>
        <line style="stroke:#181818;stroke-width:0.5;" x1="60.5" x2="199.8477" y1="434.2969" y2="434.2969"/>
      </g>
    </a>
    <a href="classclanguml_1_1common_1_1model_1_1decorated__element.html" target="_top" title="Base class for decorated diagram elements" xlink:actuate="onRequest" xlink:href="classclanguml_1_1common_1_1model_1_1decorated__element.html" xlink:show="new" xlink:title="Base class for decorated diagram elements" xlink:type="simple">
      <g id="elem_C_0008936819060997384951">
        <rect codeLine="10" fill="#F1F1F1" height="48" id="C_0008936819060997384951" rx="2.5" ry="2.5" style="stroke:#181818;stroke-width:0.5;" width="167.8164" x="46" y="477.2969"/>
        <ellipse cx="61" cy="493.2969" fill="#ADD1B2" rx="11" ry="11" style="stroke:#181818;stroke-width:1.0;"/>
        <path d="M63.9688,498.9375 Q63.3906,499.2344 62.75,499.375 Q62.1094,499.5313 61.4063,499.5313 Q58.9063,499.5313 57.5781,497.8906 Q56.2656,496.2344 56.2656,493.1094 Q56.2656,489.9844 57.5781,488.3281 Q58.9063,486.6719 61.4063,486.6719 Q62.1094,486.6719 62.75,486.8281 Q63.4063,486.9844 63.9688,487.2813 L63.9688,490 Q63.3438,489.4219 62.75,489.1563 Q62.1563,488.875 61.5313,488.875 Q60.1875,488.875 59.5,489.9531 Q58.8125,491.0156 58.8125,493.1094 Q58.8125,495.2031 59.5,496.2813 Q60.1875,497.3438 61.5313,497.3438 Q62.1563,497.3438 62.75,497.0781 Q63.3438,496.7969 63.9688,496.2188 L63.9688,498.9375 Z " fill="#000000"/>
        <text fill="#000000" font-family="sans-serif" font-size="14" lengthAdjust="spacing" textLength="135.8164" x="75" y="498.1436">decorated_element</text>
        <line style="stroke:#181818;stroke-width:0.5;" x1="47" x2="212.8164" y1="509.2969" y2="509.2969"/>
        <line style="stroke:#181818;stroke-width:0.5;" x1="47" x2="212.8164" y1="517.2969" y2="517.2969"/>
      </g>
    </a>
    <a href="classclanguml_1_1common_1_1model_1_1relationship.html" target="_top" title="Class representing any relationship other than inheritance" xlink:actuate="onRequest" xlink:href="classclanguml_1_1common_1_1model_1_1relationship.html" xlink:show="new" xlink:title="Class representing any relationship other than inheritance" xlink:type="simple">
      <g id="elem_C_0016370694070378943411">
        <rect codeLine="14" fill="#F1F1F1" height="48" id="C_0016370694070378943411" rx="2.5" ry="2.5" style="stroke:#181818;stroke-width:0.5;" width="114.5986" x="294" y="477.2969"/>
        <ellipse cx="309" cy="493.2969" fill="#ADD1B2" rx="11" ry="11" style="stroke:#181818;stroke-width:1.0;"/>
        <path d="M311.9688,498.9375 Q311.3906,499.2344 310.75,499.375 Q310.1094,499.5313 309.4063,499.5313 Q306.9063,499.5313 305.5781,497.8906 Q304.2656,496.2344 304.2656,493.1094 Q304.2656,489.9844 305.5781,488.3281 Q306.9063,486.6719 309.4063,486.6719 Q310.1094,486.6719 310.75,486.8281 Q311.4063,486.9844 311.9688,487.2813 L311.9688,490 Q311.3438,489.4219 310.75,489.1563 Q310.1563,488.875 309.5313,488.875 Q308.1875,488.875 307.5,489.9531 Q306.8125,491.0156 306.8125,493.1094 Q306.8125,495.2031 307.5,496.2813 Q308.1875,497.3438 309.5313,497.3438 Q310.1563,497.3438 310.75,497.0781 Q311.3438,496.7969 311.9688,496.2188 L311.9688,498.9375 Z " fill="#000000"/>
        <text fill="#000000" font-family="sans-serif" font-size="14" lengthAdjust="spacing" textLength="82.5986" x="323" y="498.1436">relationship</text>
        <line style="stroke:#181818;stroke-width:0.5;" x1="295" x2="407.5986" y1="509.2969" y2="509.2969"/>
        <line style="stroke:#181818;stroke-width:0.5;" x1="295" x2="407.5986" y1="517.2969" y2="517.2969"/>
      </g>
    </a>
    <a href="classclanguml_1_1common_1_1model_1_1diagram__element.html" target="_top" title="Base class for standalone diagram elements." xlink:actuate="onRequest" xlink:href="classclanguml_1_1common_1_1model_1_1diagram__element.html" xlink:show="new" xlink:title="Base class for standalone diagram elements." xlink:type="simple">
      <g id="elem_C_0008588005715032923314">
        <rect codeLine="18" fill="#F1F1F1" height="48" id="C_0008588005715032923314" rx="2.5" ry="2.5" style="stroke:#181818;stroke-width:0.5;" width="154.9443" x="274" y="394.2969"/>
        <ellipse cx="289" cy="410.2969" fill="#ADD1B2" rx="11" ry="11" style="stroke:#181818;stroke-width:1.0;"/>
        <path d="M291.9688,415.9375 Q291.3906,416.2344 290.75,416.375 Q290.1094,416.5313 289.4063,416.5313 Q286.9063,416.5313 285.5781,414.8906 Q284.2656,413.2344 284.2656,410.1094 Q284.2656,406.9844 285.5781,405.3281 Q286.9063,403.6719 289.4063,403.6719 Q290.1094,403.6719 290.75,403.8281 Q291.4063,403.9844 291.9688,404.2813 L291.9688,407 Q291.3438,406.4219 290.75,406.1563 Q290.1563,405.875 289.5313,405.875 Q288.1875,405.875 287.5,406.9531 Q286.8125,408.0156 286.8125,410.1094 Q286.8125,412.2031 287.5,413.2813 Q288.1875,414.3438 289.5313,414.3438 Q290.1563,414.3438 290.75,414.0781 Q291.3438,413.7969 291.9688,413.2188 L291.9688,415.9375 Z " fill="#000000"/>
        <text fill="#000000" font-family="sans-serif" font-size="14" lengthAdjust="spacing" textLength="122.9443" x="303" y="415.1436">diagram_element</text>
        <line style="stroke:#181818;stroke-width:0.5;" x1="275" x2="427.9443" y1="426.2969" y2="426.2969"/>
        <line style="stroke:#181818;stroke-width:0.5;" x1="275" x2="427.9443" y1="434.2969" y2="434.2969"/>
      </g>
    </a>
    <a href="classclanguml_1_1common_1_1model_1_1element.html" target="_top" title="Base class for any element qualified by namespace." xlink:actuate="onRequest" xlink:href="classclanguml_1_1common_1_1model_1_1element.html" xlink:show="new" xlink:title="Base class for any element qualified by namespace." xlink:type="simple">
      <g id="elem_C_0016556163051475263500">
        <rect codeLine="22" fill="#F1F1F1" height="48" id="C_0016556163051475263500" rx="2.5" ry="2.5" style="stroke:#181818;stroke-width:0.5;" width="89.7295" x="497.5" y="477.2969"/>
        <ellipse cx="512.5" cy="493.2969" fill="#ADD1B2" rx="11" ry="11" style="stroke:#181818;stroke-width:1.0;"/>
        <path d="M515.4688,498.9375 Q514.8906,499.2344 514.25,499.375 Q513.6094,499.5313 512.9063,499.5313 Q510.4063,499.5313 509.0781,497.8906 Q507.7656,496.2344 507.7656,493.1094 Q507.7656,489.9844 509.0781,488.3281 Q510.4063,486.6719 512.9063,486.6719 Q513.6094,486.6719 514.25,486.8281 Q514.9063,486.9844 515.4688,487.2813 L515.4688,490 Q514.8438,489.4219 514.25,489.1563 Q513.6563,488.875 513.0313,488.875 Q511.6875,488.875 511,489.9531 Q510.3125,491.0156 510.3125,493.1094 Q510.3125,495.2031 511,496.2813 Q511.6875,497.3438 513.0313,497.3438 Q513.6563,497.3438 514.25,497.0781 Q514.8438,496.7969 515.4688,496.2188 L515.4688,498.9375 Z " fill="#000000"/>
        <text fill="#000000" font-family="sans-serif" font-size="14" lengthAdjust="spacing" textLength="57.7295" x="526.5" y="498.1436">element</text>
        <line style="stroke:#181818;stroke-width:0.5;" x1="498.5" x2="586.2295" y1="509.2969" y2="509.2969"/>
        <line style="stroke:#181818;stroke-width:0.5;" x1="498.5" x2="586.2295" y1="517.2969" y2="517.2969"/>
      </g>
    </a>
    <a href="classclanguml_1_1common_1_1model_1_1template__element.html" target="_top" title="Base class for any element qualified by namespace." xlink:actuate="onRequest" xlink:href="classclanguml_1_1common_1_1model_1_1template__element.html" xlink:show="new" xlink:title="Base class for any element qualified by namespace." xlink:type="simple">
      <g id="elem_C_0013384831159811298387">
        <rect codeLine="26" fill="#F1F1F1" height="48" id="C_0013384831159811298387" rx="2.5" ry="2.5" style="stroke:#181818;stroke-width:0.5;" width="159.9277" x="656" y="477.2969"/>
        <ellipse cx="671" cy="493.2969" fill="#ADD1B2" rx="11" ry="11" style="stroke:#181818;stroke-width:1.0;"/>
        <path d="M673.9688,498.9375 Q673.3906,499.2344 672.75,499.375 Q672.1094,499.5313 671.4063,499.5313 Q668.9063,499.5313 667.5781,497.8906 Q666.2656,496.2344 666.2656,493.1094 Q666.2656,489.9844 667.5781,488.3281 Q668.9063,486.6719 671.4063,486.6719 Q672.1094,486.6719 672.75,486.8281 Q673.4063,486.9844 673.9688,487.2813 L673.9688,490 Q673.3438,489.4219 672.75,489.1563 Q672.1563,488.875 671.5313,488.875 Q670.1875,488.875 669.5,489.9531 Q668.8125,491.0156 668.8125,493.1094 Q668.8125,495.2031 669.5,496.2813 Q670.1875,497.3438 671.5313,497.3438 Q672.1563,497.3438 672.75,497.0781 Q673.3438,496.7969 673.9688,496.2188 L673.9688,498.9375 Z " fill="#000000"/>
        <text fill="#000000" font-family="sans-serif" font-size="14" lengthAdjust="spacing" textLength="127.9277" x="685" y="498.1436">template_element</text>
        <line style="stroke:#181818;stroke-width:0.5;" x1="657" x2="814.9277" y1="509.2969" y2="509.2969"/>
        <line style="stroke:#181818;stroke-width:0.5;" x1="657" x2="814.9277" y1="517.2969" y2="517.2969"/>
      </g>
    </a>
    <a href="classclanguml_1_1common_1_1model_1_1source__file.html" target="_top" title="Diagram element representing some file or directory." xlink:actuate="onRequest" xlink:href="classclanguml_1_1common_1_1model_1_1source__file.html" xlink:show="new" xlink:title="Diagram element representing some file or directory." xlink:type="simple">
      <g id="elem_C_0006285717704576425038">
        <rect codeLine="30" fill="#F1F1F1" height="48" id="C_0006285717704576425038" rx="2.5" ry="2.5" style="stroke:#181818;stroke-width:0.5;" width="107.1201" x="489" y="394.2969"/>
        <ellipse cx="504" cy="410.2969" fill="#ADD1B2" rx="11" ry="11" style="stroke:#181818;stroke-width:1.0;"/>
        <path d="M506.9688,415.9375 Q506.3906,416.2344 505.75,416.375 Q505.1094,416.5313 504.4063,416.5313 Q501.9063,416.5313 500.5781,414.8906 Q499.2656,413.2344 499.2656,410.1094 Q499.2656,406.9844 500.5781,405.3281 Q501.9063,403.6719 504.4063,403.6719 Q505.1094,403.6719 505.75,403.8281 Q506.4063,403.9844 506.9688,404.2813 L506.9688,407 Q506.3438,406.4219 505.75,406.1563 Q505.1563,405.875 504.5313,405.875 Q503.1875,405.875 502.5,406.9531 Q501.8125,408.0156 501.8125,410.1094 Q501.8125,412.2031 502.5,413.2813 Q503.1875,414.3438 504.5313,414.3438 Q505.1563,414.3438 505.75,414.0781 Q506.3438,413.7969 506.9688,413.2188 L506.9688,415.9375 Z " fill="#000000"/>
        <text fill="#000000" font-family="sans-serif" font-size="14" lengthAdjust="spacing" textLength="75.1201" x="518" y="415.1436">source_file</text>
        <line style="stroke:#181818;stroke-width:0.5;" x1="490" x2="595.1201" y1="426.2969" y2="426.2969"/>
        <line style="stroke:#181818;stroke-width:0.5;" x1="490" x2="595.1201" y1="434.2969" y2="434.2969"/>
      </g>
    </a>
    <a href="classclanguml_1_1common_1_1model_1_1package.html" target="_top" title="Diagram element representing namespace or directory package" xlink:actuate="onRequest" xlink:href="classclanguml_1_1common_1_1model_1_1package.html" xlink:show="new" xlink:title="Diagram element representing namespace or directory package" xlink:type="simple">
      <g id="elem_C_0017146293478645494837">
        <rect codeLine="34" fill="#F1F1F1" height="48" id="C_0017146293478645494837" rx="2.5" ry="2.5" style="stroke:#181818;stroke-width:0.5;" width="91.3496" x="690.5" y="394.2969"/>
        <ellipse cx="705.5" cy="410.2969" fill="#ADD1B2" rx="11" ry="11" style="stroke:#181818;stroke-width:1.0;"/>
        <path d="M708.4688,415.9375 Q707.8906,416.2344 707.25,416.375 Q706.6094,416.5313 705.9063,416.5313 Q703.4063,416.5313 702.0781,414.8906 Q700.7656,413.2344 700.7656,410.1094 Q700.7656,406.9844 702.0781,405.3281 Q703.4063,403.6719 705.9063,403.6719 Q706.6094,403.6719 707.25,403.8281 Q707.9063,403.9844 708.4688,404.2813 L708.4688,407 Q707.8438,406.4219 707.25,406.1563 Q706.6563,405.875 706.0313,405.875 Q704.6875,405.875 704,406.9531 Q703.3125,408.0156 703.3125,410.1094 Q703.3125,412.2031 704,413.2813 Q704.6875,414.3438 706.0313,414.3438 Q706.6563,414.3438 707.25,414.0781 Q707.8438,413.7969 708.4688,413.2188 L708.4688,415.9375 Z " fill="#000000"/>
        <text fill="#000000" font-family="sans-serif" font-size="14" lengthAdjust="spacing" textLength="59.3496" x="719.5" y="415.1436">package</text>
        <line style="stroke:#181818;stroke-width:0.5;" x1="691.5" x2="780.8496" y1="426.2969" y2="426.2969"/>
        <line style="stroke:#181818;stroke-width:0.5;" x1="691.5" x2="780.8496" y1="434.2969" y2="434.2969"/>
      </g>
    </a>
    <a href="classclanguml_1_1class__diagram_1_1model_1_1class__element.html" target="_top" title="Base class for class elements (e.g. member or method)." xlink:actuate="onRequest" xlink:href="classclanguml_1_1class__diagram_1_1model_1_1class__element.html" xlink:show="new" xlink:title="Base class for class elements (e.g. member or method)." xlink:type="simple">
      <g id="elem_C_0004846934894930864299">
        <rect codeLine="42" fill="#F1F1F1" height="48" id="C_0004846934894930864299" rx="2.5" ry="2.5" style="stroke:#181818;stroke-width:0.5;" width="131.4834" x="938" y="809.2969"/>
        <ellipse cx="953" cy="825.2969" fill="#ADD1B2" rx="11" ry="11" style="stroke:#181818;stroke-width:1.0;"/>
        <path d="M955.9688,830.9375 Q955.3906,831.2344 954.75,831.375 Q954.1094,831.5313 953.4063,831.5313 Q950.9063,831.5313 949.5781,829.8906 Q948.2656,828.2344 948.2656,825.1094 Q948.2656,821.9844 949.5781,820.3281 Q950.9063,818.6719 953.4063,818.6719 Q954.1094,818.6719 954.75,818.8281 Q955.4063,818.9844 955.9688,819.2813 L955.9688,822 Q955.3438,821.4219 954.75,821.1563 Q954.1563,820.875 953.5313,820.875 Q952.1875,820.875 951.5,821.9531 Q950.8125,823.0156 950.8125,825.1094 Q950.8125,827.2031 951.5,828.2813 Q952.1875,829.3438 953.5313,829.3438 Q954.1563,829.3438 954.75,829.0781 Q955.3438,828.7969 955.9688,828.2188 L955.9688,830.9375 Z " fill="#000000"/>
        <text fill="#000000" font-family="sans-serif" font-size="14" lengthAdjust="spacing" textLength="99.4834" x="967" y="830.1436">class_element</text>
        <line style="stroke:#181818;stroke-width:0.5;" x1="939" x2="1068.4834" y1="841.2969" y2="841.2969"/>
        <line style="stroke:#181818;stroke-width:0.5;" x1="939" x2="1068.4834" y1="849.2969" y2="849.2969"/>
      </g>
    </a>
    <a href="classclanguml_1_1class__diagram_1_1model_1_1class__member__base.html" target="_top" title="Generic class member model." xlink:actuate="onRequest" xlink:href="classclanguml_1_1class__diagram_1_1model_1_1class__member__base.html" xlink:show="new" xlink:title="Generic class member model." xlink:type="simple">
      <g id="elem_C_0014241292626575163322">
        <rect codeLine="46" fill="#F1F1F1" height="48" id="C_0014241292626575163322" rx="2.5" ry="2.5" style="stroke:#181818;stroke-width:0.5;" width="173.2715" x="1147" y="809.2969"/>
        <ellipse cx="1162" cy="825.2969" fill="#ADD1B2" rx="11" ry="11" style="stroke:#181818;stroke-width:1.0;"/>
        <path d="M1164.9688,830.9375 Q1164.3906,831.2344 1163.75,831.375 Q1163.1094,831.5313 1162.4063,831.5313 Q1159.9063,831.5313 1158.5781,829.8906 Q1157.2656,828.2344 1157.2656,825.1094 Q1157.2656,821.9844 1158.5781,820.3281 Q1159.9063,818.6719 1162.4063,818.6719 Q1163.1094,818.6719 1163.75,818.8281 Q1164.4063,818.9844 1164.9688,819.2813 L1164.9688,822 Q1164.3438,821.4219 1163.75,821.1563 Q1163.1563,820.875 1162.5313,820.875 Q1161.1875,820.875 1160.5,821.9531 Q1159.8125,823.0156 1159.8125,825.1094 Q1159.8125,827.2031 1160.5,828.2813 Q1161.1875,829.3438 1162.5313,829.3438 Q1163.1563,829.3438 1163.75,829.0781 Q1164.3438,828.7969 1164.9688,828.2188 L1164.9688,830.9375 Z " fill="#000000"/>
        <text fill="#000000" font-family="sans-serif" font-size="14" lengthAdjust="spacing" textLength="141.2715" x="1176" y="830.1436">class_member_base</text>
        <line style="stroke:#181818;stroke-width:0.5;" x1="1148" x2="1319.2715" y1="841.2969" y2="841.2969"/>
        <line style="stroke:#181818;stroke-width:0.5;" x1="1148" x2="1319.2715" y1="849.2969" y2="849.2969"/>
      </g>
    </a>
    <a href="classclanguml_1_1class__diagram_1_1model_1_1class__member.html" target="_top" title="Class member model." xlink:actuate="onRequest" xlink:href="classclanguml_1_1class__diagram_1_1model_1_1class__member.html" xlink:show="new" xlink:title="Class member model." xlink:type="simple">
      <g id="elem_C_0014370262096868218046">
        <rect codeLine="50" fill="#F1F1F1" height="48" id="C_0014370262096868218046" rx="2.5" ry="2.5" style="stroke:#181818;stroke-width:0.5;" width="132.8984" x="1393" y="892.2969"/>
        <ellipse cx="1408" cy="908.2969" fill="#ADD1B2" rx="11" ry="11" style="stroke:#181818;stroke-width:1.0;"/>
        <path d="M1410.9688,913.9375 Q1410.3906,914.2344 1409.75,914.375 Q1409.1094,914.5313 1408.4063,914.5313 Q1405.9063,914.5313 1404.5781,912.8906 Q1403.2656,911.2344 1403.2656,908.1094 Q1403.2656,904.9844 1404.5781,903.3281 Q1405.9063,901.6719 1408.4063,901.6719 Q1409.1094,901.6719 1409.75,901.8281 Q1410.4063,901.9844 1410.9688,902.2813 L1410.9688,905 Q1410.3438,904.4219 1409.75,904.1563 Q1409.1563,903.875 1408.5313,903.875 Q1407.1875,903.875 1406.5,904.9531 Q1405.8125,906.0156 1405.8125,908.1094 Q1405.8125,910.2031 1406.5,911.2813 Q1407.1875,912.3438 1408.5313,912.3438 Q1409.1563,912.3438 1409.75,912.0781 Q1410.3438,911.7969 1410.9688,911.2188 L1410.9688,913.9375 Z " fill="#000000"/>
        <text fill="#000000" font-family="sans-serif" font-size="14" lengthAdjust="spacing" textLength="100.8984" x="1422" y="913.1436">class_member</text>
        <line style="stroke:#181818;stroke-width:0.5;" x1="1394" x2="1524.8984" y1="924.2969" y2="924.2969"/>
        <line style="stroke:#181818;stroke-width:0.5;" x1="1394" x2="1524.8984" y1="932.2969" y2="932.2969"/>
      </g>
    </a>
    <a href="classclanguml_1_1class__diagram_1_1model_1_1method__parameter.html" target="_top" title="Model of a method parameter." xlink:actuate="onRequest" xlink:href="classclanguml_1_1class__diagram_1_1model_1_1method__parameter.html" xlink:show="new" xlink:title="Model of a method parameter." xlink:type="simple">
      <g id="elem_C_0004845352266951408403">
        <rect codeLine="54" fill="#F1F1F1" height="48" id="C_0004845352266951408403" rx="2.5" ry="2.5" style="stroke:#181818;stroke-width:0.5;" width="166.9756" x="920" y="892.2969"/>
        <ellipse cx="935" cy="908.2969" fill="#ADD1B2" rx="11" ry="11" style="stroke:#181818;stroke-width:1.0;"/>
        <path d="M937.9688,913.9375 Q937.3906,914.2344 936.75,914.375 Q936.1094,914.5313 935.4063,914.5313 Q932.9063,914.5313 931.5781,912.8906 Q930.2656,911.2344 930.2656,908.1094 Q930.2656,904.9844 931.5781,903.3281 Q932.9063,901.6719 935.4063,901.6719 Q936.1094,901.6719 936.75,901.8281 Q937.4063,901.9844 937.9688,902.2813 L937.9688,905 Q937.3438,904.4219 936.75,904.1563 Q936.1563,903.875 935.5313,903.875 Q934.1875,903.875 933.5,904.9531 Q932.8125,906.0156 932.8125,908.1094 Q932.8125,910.2031 933.5,911.2813 Q934.1875,912.3438 935.5313,912.3438 Q936.1563,912.3438 936.75,912.0781 Q937.3438,911.7969 937.9688,911.2188 L937.9688,913.9375 Z " fill="#000000"/>
        <text fill="#000000" font-family="sans-serif" font-size="14" lengthAdjust="spacing" textLength="134.9756" x="949" y="913.1436">method_parameter</text>
        <line style="stroke:#181818;stroke-width:0.5;" x1="921" x2="1085.9756" y1="924.2969" y2="924.2969"/>
        <line style="stroke:#181818;stroke-width:0.5;" x1="921" x2="1085.9756" y1="932.2969" y2="932.2969"/>
      </g>
    </a>
    <a href="classclanguml_1_1class__diagram_1_1model_1_1class__method__base.html" target="_top" title="Class method model." xlink:actuate="onRequest" xlink:href="classclanguml_1_1class__diagram_1_1model_1_1class__method__base.html" xlink:show="new" xlink:title="Class method model." xlink:type="simple">
      <g id="elem_C_0018032026899693266441">
        <rect codeLine="58" fill="#F1F1F1" height="48" id="C_0018032026899693266441" rx="2.5" ry="2.5" style="stroke:#181818;stroke-width:0.5;" width="168.1924" x="1149.5" y="726.2969"/>
        <ellipse cx="1164.5" cy="742.2969" fill="#ADD1B2" rx="11" ry="11" style="stroke:#181818;stroke-width:1.0;"/>
        <path d="M1167.4688,747.9375 Q1166.8906,748.2344 1166.25,748.375 Q1165.6094,748.5313 1164.9063,748.5313 Q1162.4063,748.5313 1161.0781,746.8906 Q1159.7656,745.2344 1159.7656,742.1094 Q1159.7656,738.9844 1161.0781,737.3281 Q1162.4063,735.6719 1164.9063,735.6719 Q1165.6094,735.6719 1166.25,735.8281 Q1166.9063,735.9844 1167.4688,736.2813 L1167.4688,739 Q1166.8438,738.4219 1166.25,738.1563 Q1165.6563,737.875 1165.0313,737.875 Q1163.6875,737.875 1163,738.9531 Q1162.3125,740.0156 1162.3125,742.1094 Q1162.3125,744.2031 1163,745.2813 Q1163.6875,746.3438 1165.0313,746.3438 Q1165.6563,746.3438 1166.25,746.0781 Q1166.8438,745.7969 1167.4688,745.2188 L1167.4688,747.9375 Z " fill="#000000"/>
        <text fill="#000000" font-family="sans-serif" font-size="14" lengthAdjust="spacing" textLength="136.1924" x="1178.5" y="747.1436">class_method_base</text>
        <line style="stroke:#181818;stroke-width:0.5;" x1="1150.5" x2="1316.6924" y1="758.2969" y2="758.2969"/>
        <line style="stroke:#181818;stroke-width:0.5;" x1="1150.5" x2="1316.6924" y1="766.2969" y2="766.2969"/>
      </g>
    </a>
    <a href="classclanguml_1_1class__diagram_1_1model_1_1class__method.html" target="_top" title="Class method model." xlink:actuate="onRequest" xlink:href="classclanguml_1_1class__diagram_1_1model_1_1class__method.html" xlink:show="new" xlink:title="Class method model." xlink:type="simple">
      <g id="elem_C_0001633165731746789371">
        <rect codeLine="62" fill="#F1F1F1" height="48" id="C_0001633165731746789371" rx="2.5" ry="2.5" style="stroke:#181818;stroke-width:0.5;" width="127.8193" x="1395.5" y="726.2969"/>
        <ellipse cx="1410.5" cy="742.2969" fill="#ADD1B2" rx="11" ry="11" style="stroke:#181818;stroke-width:1.0;"/>
        <path d="M1413.4688,747.9375 Q1412.8906,748.2344 1412.25,748.375 Q1411.6094,748.5313 1410.9063,748.5313 Q1408.4063,748.5313 1407.0781,746.8906 Q1405.7656,745.2344 1405.7656,742.1094 Q1405.7656,738.9844 1407.0781,737.3281 Q1408.4063,735.6719 1410.9063,735.6719 Q1411.6094,735.6719 1412.25,735.8281 Q1412.9063,735.9844 1413.4688,736.2813 L1413.4688,739 Q1412.8438,738.4219 1412.25,738.1563 Q1411.6563,737.875 1411.0313,737.875 Q1409.6875,737.875 1409,738.9531 Q1408.3125,740.0156 1408.3125,742.1094 Q1408.3125,744.2031 1409,745.2813 Q1409.6875,746.3438 1411.0313,746.3438 Q1411.6563,746.3438 1412.25,746.0781 Q1412.8438,745.7969 1413.4688,745.2188 L1413.4688,747.9375 Z " fill="#000000"/>
        <text fill="#000000" font-family="sans-serif" font-size="14" lengthAdjust="spacing" textLength="95.8193" x="1424.5" y="747.1436">class_method</text>
        <line style="stroke:#181818;stroke-width:0.5;" x1="1396.5" x2="1522.3193" y1="758.2969" y2="758.2969"/>
        <line style="stroke:#181818;stroke-width:0.5;" x1="1396.5" x2="1522.3193" y1="766.2969" y2="766.2969"/>
      </g>
    </a>
    <a href="classclanguml_1_1class__diagram_1_1model_1_1class__.html" target="_top" title="Diagram element representing a class or class template." xlink:actuate="onRequest" xlink:href="classclanguml_1_1class__diagram_1_1model_1_1class__.html" xlink:show="new" xlink:title="Diagram element representing a class or class template." xlink:type="simple">
      <g id="elem_C_0010336274859733225462">
        <rect codeLine="66" fill="#F1F1F1" height="48" id="C_0010336274859733225462" rx="2.5" ry="2.5" style="stroke:#181818;stroke-width:0.5;" width="73.7539" x="966.5" y="477.2969"/>
        <ellipse cx="981.5" cy="493.2969" fill="#ADD1B2" rx="11" ry="11" style="stroke:#181818;stroke-width:1.0;"/>
        <path d="M984.4688,498.9375 Q983.8906,499.2344 983.25,499.375 Q982.6094,499.5313 981.9063,499.5313 Q979.4063,499.5313 978.0781,497.8906 Q976.7656,496.2344 976.7656,493.1094 Q976.7656,489.9844 978.0781,488.3281 Q979.4063,486.6719 981.9063,486.6719 Q982.6094,486.6719 983.25,486.8281 Q983.9063,486.9844 984.4688,487.2813 L984.4688,490 Q983.8438,489.4219 983.25,489.1563 Q982.6563,488.875 982.0313,488.875 Q980.6875,488.875 980,489.9531 Q979.3125,491.0156 979.3125,493.1094 Q979.3125,495.2031 980,496.2813 Q980.6875,497.3438 982.0313,497.3438 Q982.6563,497.3438 983.25,497.0781 Q983.8438,496.7969 984.4688,496.2188 L984.4688,498.9375 Z " fill="#000000"/>
        <text fill="#000000" font-family="sans-serif" font-size="14" lengthAdjust="spacing" textLength="41.7539" x="995.5" y="498.1436">class_</text>
        <line style="stroke:#181818;stroke-width:0.5;" x1="967.5" x2="1039.2539" y1="509.2969" y2="509.2969"/>
        <line style="stroke:#181818;stroke-width:0.5;" x1="967.5" x2="1039.2539" y1="517.2969" y2="517.2969"/>
      </g>
    </a>
    <a href="classclanguml_1_1class__diagram_1_1model_1_1concept__.html" target="_top" title="Model of C++ concept." xlink:actuate="onRequest" xlink:href="classclanguml_1_1class__diagram_1_1model_1_1concept__.html" xlink:show="new" xlink:title="Model of C++ concept." xlink:type="simple">
      <g id="elem_C_0010998792414017796003">
        <rect codeLine="70" fill="#F1F1F1" height="48" id="C_0010998792414017796003" rx="2.5" ry="2.5" style="stroke:#181818;stroke-width:0.5;" width="94.8223" x="956" y="726.2969"/>
        <ellipse cx="971" cy="742.2969" fill="#ADD1B2" rx="11" ry="11" style="stroke:#181818;stroke-width:1.0;"/>
        <path d="M973.9688,747.9375 Q973.3906,748.2344 972.75,748.375 Q972.1094,748.5313 971.4063,748.5313 Q968.9063,748.5313 967.5781,746.8906 Q966.2656,745.2344 966.2656,742.1094 Q966.2656,738.9844 967.5781,737.3281 Q968.9063,735.6719 971.4063,735.6719 Q972.1094,735.6719 972.75,735.8281 Q973.4063,735.9844 973.9688,736.2813 L973.9688,739 Q973.3438,738.4219 972.75,738.1563 Q972.1563,737.875 971.5313,737.875 Q970.1875,737.875 969.5,738.9531 Q968.8125,740.0156 968.8125,742.1094 Q968.8125,744.2031 969.5,745.2813 Q970.1875,746.3438 971.5313,746.3438 Q972.1563,746.3438 972.75,746.0781 Q973.3438,745.7969 973.9688,745.2188 L973.9688,747.9375 Z " fill="#000000"/>
        <text fill="#000000" font-family="sans-serif" font-size="14" lengthAdjust="spacing" textLength="62.8223" x="985" y="747.1436">concept_</text>
        <line style="stroke:#181818;stroke-width:0.5;" x1="957" x2="1049.8223" y1="758.2969" y2="758.2969"/>
        <line style="stroke:#181818;stroke-width:0.5;" x1="957" x2="1049.8223" y1="766.2969" y2="766.2969"/>
      </g>
    </a>
    <a href="classclanguml_1_1class__diagram_1_1model_1_1enum__.html" target="_top" title="Diagram element representing an enum." xlink:actuate="onRequest" xlink:href="classclanguml_1_1class__diagram_1_1model_1_1enum__.html" xlink:show="new" xlink:title="Diagram element representing an enum." xlink:type="simple">
      <g id="elem_C_0005795143816749204050">
        <rect codeLine="74" fill="#F1F1F1" height="48" id="C_0005795143816749204050" rx="2.5" ry="2.5" style="stroke:#181818;stroke-width:0.5;" width="78.9971" x="964" y="560.2969"/>
        <ellipse cx="979" cy="576.2969" fill="#ADD1B2" rx="11" ry="11" style="stroke:#181818;stroke-width:1.0;"/>
        <path d="M981.9688,581.9375 Q981.3906,582.2344 980.75,582.375 Q980.1094,582.5313 979.4063,582.5313 Q976.9063,582.5313 975.5781,580.8906 Q974.2656,579.2344 974.2656,576.1094 Q974.2656,572.9844 975.5781,571.3281 Q976.9063,569.6719 979.4063,569.6719 Q980.1094,569.6719 980.75,569.8281 Q981.4063,569.9844 981.9688,570.2813 L981.9688,573 Q981.3438,572.4219 980.75,572.1563 Q980.1563,571.875 979.5313,571.875 Q978.1875,571.875 977.5,572.9531 Q976.8125,574.0156 976.8125,576.1094 Q976.8125,578.2031 977.5,579.2813 Q978.1875,580.3438 979.5313,580.3438 Q980.1563,580.3438 980.75,580.0781 Q981.3438,579.7969 981.9688,579.2188 L981.9688,581.9375 Z " fill="#000000"/>
        <text fill="#000000" font-family="sans-serif" font-size="14" lengthAdjust="spacing" textLength="46.9971" x="993" y="581.1436">enum_</text>
        <line style="stroke:#181818;stroke-width:0.5;" x1="965" x2="1041.9971" y1="592.2969" y2="592.2969"/>
        <line style="stroke:#181818;stroke-width:0.5;" x1="965" x2="1041.9971" y1="600.2969" y2="600.2969"/>
      </g>
    </a>
    <a href="classclanguml_1_1class__diagram_1_1model_1_1objc__member.html" target="_top" title="ObjC class member model." xlink:actuate="onRequest" xlink:href="classclanguml_1_1class__diagram_1_1model_1_1objc__member.html" xlink:show="new" xlink:title="ObjC class member model." xlink:type="simple">
      <g id="elem_C_0007364672229966928495">
        <rect codeLine="78" fill="#F1F1F1" height="48" id="C_0007364672229966928495" rx="2.5" ry="2.5" style="stroke:#181818;stroke-width:0.5;" width="127.1836" x="1396" y="809.2969"/>
        <ellipse cx="1411" cy="825.2969" fill="#ADD1B2" rx="11" ry="11" style="stroke:#181818;stroke-width:1.0;"/>
        <path d="M1413.9688,830.9375 Q1413.3906,831.2344 1412.75,831.375 Q1412.1094,831.5313 1411.4063,831.5313 Q1408.9063,831.5313 1407.5781,829.8906 Q1406.2656,828.2344 1406.2656,825.1094 Q1406.2656,821.9844 1407.5781,820.3281 Q1408.9063,818.6719 1411.4063,818.6719 Q1412.1094,818.6719 1412.75,818.8281 Q1413.4063,818.9844 1413.9688,819.2813 L1413.9688,822 Q1413.3438,821.4219 1412.75,821.1563 Q1412.1563,820.875 1411.5313,820.875 Q1410.1875,820.875 1409.5,821.9531 Q1408.8125,823.0156 1408.8125,825.1094 Q1408.8125,827.2031 1409.5,828.2813 Q1410.1875,829.3438 1411.5313,829.3438 Q1412.1563,829.3438 1412.75,829.0781 Q1413.3438,828.7969 1413.9688,828.2188 L1413.9688,830.9375 Z " fill="#000000"/>
        <text fill="#000000" font-family="sans-serif" font-size="14" lengthAdjust="spacing" textLength="95.1836" x="1425" y="830.1436">objc_member</text>
        <line style="stroke:#181818;stroke-width:0.5;" x1="1397" x2="1522.1836" y1="841.2969" y2="841.2969"/>
        <line style="stroke:#181818;stroke-width:0.5;" x1="1397" x2="1522.1836" y1="849.2969" y2="849.2969"/>
      </g>
    </a>
    <a href="classclanguml_1_1class__diagram_1_1model_1_1objc__method.html" target="_top" title="ObjC class method model." xlink:actuate="onRequest" xlink:href="classclanguml_1_1class__diagram_1_1model_1_1objc__method.html" xlink:show="new" xlink:title="ObjC class method model." xlink:type="simple">
      <g id="elem_C_0002175636676684225778">
        <rect codeLine="82" fill="#F1F1F1" height="48" id="C_0002175636676684225778" rx="2.5" ry="2.5" style="stroke:#181818;stroke-width:0.5;" width="122.1045" x="1398.5" y="643.2969"/>
        <ellipse cx="1413.5" cy="659.2969" fill="#ADD1B2" rx="11" ry="11" style="stroke:#181818;stroke-width:1.0;"/>
        <path d="M1416.4688,664.9375 Q1415.8906,665.2344 1415.25,665.375 Q1414.6094,665.5313 1413.9063,665.5313 Q1411.4063,665.5313 1410.0781,663.8906 Q1408.7656,662.2344 1408.7656,659.1094 Q1408.7656,655.9844 1410.0781,654.3281 Q1411.4063,652.6719 1413.9063,652.6719 Q1414.6094,652.6719 1415.25,652.8281 Q1415.9063,652.9844 1416.4688,653.2813 L1416.4688,656 Q1415.8438,655.4219 1415.25,655.1563 Q1414.6563,654.875 1414.0313,654.875 Q1412.6875,654.875 1412,655.9531 Q1411.3125,657.0156 1411.3125,659.1094 Q1411.3125,661.2031 1412,662.2813 Q1412.6875,663.3438 1414.0313,663.3438 Q1414.6563,663.3438 1415.25,663.0781 Q1415.8438,662.7969 1416.4688,662.2188 L1416.4688,664.9375 Z " fill="#000000"/>
        <text fill="#000000" font-family="sans-serif" font-size="14" lengthAdjust="spacing" textLength="90.1045" x="1427.5" y="664.1436">objc_method</text>
        <line style="stroke:#181818;stroke-width:0.5;" x1="1399.5" x2="1519.6045" y1="675.2969" y2="675.2969"/>
        <line style="stroke:#181818;stroke-width:0.5;" x1="1399.5" x2="1519.6045" y1="683.2969" y2="683.2969"/>
      </g>
    </a>
    <a href="classclanguml_1_1class__diagram_1_1model_1_1objc__interface.html" target="_top" title="Diagram element representing an ObjC interface." xlink:actuate="onRequest" xlink:href="classclanguml_1_1class__diagram_1_1model_1_1objc__interface.html" xlink:show="new" xlink:title="Diagram element representing an ObjC interface." xlink:type="simple">
      <g id="elem_C_0010166346108406727066">
        <rect codeLine="86" fill="#F1F1F1" height="48" id="C_0010166346108406727066" rx="2.5" ry="2.5" style="stroke:#181818;stroke-width:0.5;" width="130.4785" x="938.5" y="643.2969"/>
        <ellipse cx="953.5" cy="659.2969" fill="#ADD1B2" rx="11" ry="11" style="stroke:#181818;stroke-width:1.0;"/>
        <path d="M956.4688,664.9375 Q955.8906,665.2344 955.25,665.375 Q954.6094,665.5313 953.9063,665.5313 Q951.4063,665.5313 950.0781,663.8906 Q948.7656,662.2344 948.7656,659.1094 Q948.7656,655.9844 950.0781,654.3281 Q951.4063,652.6719 953.9063,652.6719 Q954.6094,652.6719 955.25,652.8281 Q955.9063,652.9844 956.4688,653.2813 L956.4688,656 Q955.8438,655.4219 955.25,655.1563 Q954.6563,654.875 954.0313,654.875 Q952.6875,654.875 952,655.9531 Q951.3125,657.0156 951.3125,659.1094 Q951.3125,661.2031 952,662.2813 Q952.6875,663.3438 954.0313,663.3438 Q954.6563,663.3438 955.25,663.0781 Q955.8438,662.7969 956.4688,662.2188 L956.4688,664.9375 Z " fill="#000000"/>
        <text fill="#000000" font-family="sans-serif" font-size="14" lengthAdjust="spacing" textLength="98.4785" x="967.5" y="664.1436">objc_interface</text>
        <line style="stroke:#181818;stroke-width:0.5;" x1="939.5" x2="1067.9785" y1="675.2969" y2="675.2969"/>
        <line style="stroke:#181818;stroke-width:0.5;" x1="939.5" x2="1067.9785" y1="683.2969" y2="683.2969"/>
      </g>
    </a>
    <a href="structclanguml_1_1sequence__diagram_1_1model_1_1participant.html" target="_top" title="Base class for various types of sequence diagram participants" xlink:actuate="onRequest" xlink:href="structclanguml_1_1sequence__diagram_1_1model_1_1participant.html" xlink:show="new" xlink:title="Base class for various types of sequence diagram participants" xlink:type="simple">
      <g id="elem_C_0011201726182739961811">
        <rect codeLine="94" fill="#F1F1F1" height="48" id="C_0011201726182739961811" rx="2.5" ry="2.5" style="stroke:#181818;stroke-width:0.5;" width="108.0156" x="949.5" y="287.2969"/>
        <ellipse cx="964.5" cy="303.2969" fill="#ADD1B2" rx="11" ry="11" style="stroke:#181818;stroke-width:1.0;"/>
        <path d="M967.4688,308.9375 Q966.8906,309.2344 966.25,309.375 Q965.6094,309.5313 964.9063,309.5313 Q962.4063,309.5313 961.0781,307.8906 Q959.7656,306.2344 959.7656,303.1094 Q959.7656,299.9844 961.0781,298.3281 Q962.4063,296.6719 964.9063,296.6719 Q965.6094,296.6719 966.25,296.8281 Q966.9063,296.9844 967.4688,297.2813 L967.4688,300 Q966.8438,299.4219 966.25,299.1563 Q965.6563,298.875 965.0313,298.875 Q963.6875,298.875 963,299.9531 Q962.3125,301.0156 962.3125,303.1094 Q962.3125,305.2031 963,306.2813 Q963.6875,307.3438 965.0313,307.3438 Q965.6563,307.3438 966.25,307.0781 Q966.8438,306.7969 967.4688,306.2188 L967.4688,308.9375 Z " fill="#000000"/>
        <text fill="#000000" font-family="sans-serif" font-size="14" lengthAdjust="spacing" textLength="76.0156" x="978.5" y="308.1436">participant</text>
        <line style="stroke:#181818;stroke-width:0.5;" x1="950.5" x2="1056.5156" y1="319.2969" y2="319.2969"/>
        <line style="stroke:#181818;stroke-width:0.5;" x1="950.5" x2="1056.5156" y1="327.2969" y2="327.2969"/>
      </g>
    </a>
    <a href="structclanguml_1_1sequence__diagram_1_1model_1_1class__.html" target="_top" title="Sequence diagram participant representing a class." xlink:actuate="onRequest" xlink:href="structclanguml_1_1sequence__diagram_1_1model_1_1class__.html" xlink:show="new" xlink:title="Sequence diagram participant representing a class." xlink:type="simple">
      <g id="elem_C_0007084118972955772881">
        <rect codeLine="98" fill="#F1F1F1" height="48" id="C_0007084118972955772881" rx="2.5" ry="2.5" style="stroke:#181818;stroke-width:0.5;" width="73.7539" x="1196.5" y="287.2969"/>
        <ellipse cx="1211.5" cy="303.2969" fill="#ADD1B2" rx="11" ry="11" style="stroke:#181818;stroke-width:1.0;"/>
        <path d="M1214.4688,308.9375 Q1213.8906,309.2344 1213.25,309.375 Q1212.6094,309.5313 1211.9063,309.5313 Q1209.4063,309.5313 1208.0781,307.8906 Q1206.7656,306.2344 1206.7656,303.1094 Q1206.7656,299.9844 1208.0781,298.3281 Q1209.4063,296.6719 1211.9063,296.6719 Q1212.6094,296.6719 1213.25,296.8281 Q1213.9063,296.9844 1214.4688,297.2813 L1214.4688,300 Q1213.8438,299.4219 1213.25,299.1563 Q1212.6563,298.875 1212.0313,298.875 Q1210.6875,298.875 1210,299.9531 Q1209.3125,301.0156 1209.3125,303.1094 Q1209.3125,305.2031 1210,306.2813 Q1210.6875,307.3438 1212.0313,307.3438 Q1212.6563,307.3438 1213.25,307.0781 Q1213.8438,306.7969 1214.4688,306.2188 L1214.4688,308.9375 Z " fill="#000000"/>
        <text fill="#000000" font-family="sans-serif" font-size="14" lengthAdjust="spacing" textLength="41.7539" x="1225.5" y="308.1436">class_</text>
        <line style="stroke:#181818;stroke-width:0.5;" x1="1197.5" x2="1269.2539" y1="319.2969" y2="319.2969"/>
        <line style="stroke:#181818;stroke-width:0.5;" x1="1197.5" x2="1269.2539" y1="327.2969" y2="327.2969"/>
      </g>
    </a>
    <a href="structclanguml_1_1sequence__diagram_1_1model_1_1function.html" target="_top" title="Participant mode representing a free function." xlink:actuate="onRequest" xlink:href="structclanguml_1_1sequence__diagram_1_1model_1_1function.html" xlink:show="new" xlink:title="Participant mode representing a free function." xlink:type="simple">
      <g id="elem_C_0001861107648253454629">
        <rect codeLine="102" fill="#F1F1F1" height="48" id="C_0001861107648253454629" rx="2.5" ry="2.5" style="stroke:#181818;stroke-width:0.5;" width="89.1895" x="1189" y="204.2969"/>
        <ellipse cx="1204" cy="220.2969" fill="#ADD1B2" rx="11" ry="11" style="stroke:#181818;stroke-width:1.0;"/>
        <path d="M1206.9688,225.9375 Q1206.3906,226.2344 1205.75,226.375 Q1205.1094,226.5313 1204.4063,226.5313 Q1201.9063,226.5313 1200.5781,224.8906 Q1199.2656,223.2344 1199.2656,220.1094 Q1199.2656,216.9844 1200.5781,215.3281 Q1201.9063,213.6719 1204.4063,213.6719 Q1205.1094,213.6719 1205.75,213.8281 Q1206.4063,213.9844 1206.9688,214.2813 L1206.9688,217 Q1206.3438,216.4219 1205.75,216.1563 Q1205.1563,215.875 1204.5313,215.875 Q1203.1875,215.875 1202.5,216.9531 Q1201.8125,218.0156 1201.8125,220.1094 Q1201.8125,222.2031 1202.5,223.2813 Q1203.1875,224.3438 1204.5313,224.3438 Q1205.1563,224.3438 1205.75,224.0781 Q1206.3438,223.7969 1206.9688,223.2188 L1206.9688,225.9375 Z " fill="#000000"/>
        <text fill="#000000" font-family="sans-serif" font-size="14" lengthAdjust="spacing" textLength="57.1895" x="1218" y="225.1436">function</text>
        <line style="stroke:#181818;stroke-width:0.5;" x1="1190" x2="1277.1895" y1="236.2969" y2="236.2969"/>
        <line style="stroke:#181818;stroke-width:0.5;" x1="1190" x2="1277.1895" y1="244.2969" y2="244.2969"/>
      </g>
    </a>
    <a href="structclanguml_1_1sequence__diagram_1_1model_1_1method.html" target="_top" title="Participant model representing a method" xlink:actuate="onRequest" xlink:href="structclanguml_1_1sequence__diagram_1_1model_1_1method.html" xlink:show="new" xlink:title="Participant model representing a method" xlink:type="simple">
      <g id="elem_C_0006541327780382276039">
        <rect codeLine="106" fill="#F1F1F1" height="48" id="C_0006541327780382276039" rx="2.5" ry="2.5" style="stroke:#181818;stroke-width:0.5;" width="86.0654" x="1416.5" y="204.2969"/>
        <ellipse cx="1431.5" cy="220.2969" fill="#ADD1B2" rx="11" ry="11" style="stroke:#181818;stroke-width:1.0;"/>
        <path d="M1434.4688,225.9375 Q1433.8906,226.2344 1433.25,226.375 Q1432.6094,226.5313 1431.9063,226.5313 Q1429.4063,226.5313 1428.0781,224.8906 Q1426.7656,223.2344 1426.7656,220.1094 Q1426.7656,216.9844 1428.0781,215.3281 Q1429.4063,213.6719 1431.9063,213.6719 Q1432.6094,213.6719 1433.25,213.8281 Q1433.9063,213.9844 1434.4688,214.2813 L1434.4688,217 Q1433.8438,216.4219 1433.25,216.1563 Q1432.6563,215.875 1432.0313,215.875 Q1430.6875,215.875 1430,216.9531 Q1429.3125,218.0156 1429.3125,220.1094 Q1429.3125,222.2031 1430,223.2813 Q1430.6875,224.3438 1432.0313,224.3438 Q1432.6563,224.3438 1433.25,224.0781 Q1433.8438,223.7969 1434.4688,223.2188 L1434.4688,225.9375 Z " fill="#000000"/>
        <text fill="#000000" font-family="sans-serif" font-size="14" lengthAdjust="spacing" textLength="54.0654" x="1445.5" y="225.1436">method</text>
        <line style="stroke:#181818;stroke-width:0.5;" x1="1417.5" x2="1501.5654" y1="236.2969" y2="236.2969"/>
        <line style="stroke:#181818;stroke-width:0.5;" x1="1417.5" x2="1501.5654" y1="244.2969" y2="244.2969"/>
      </g>
    </a>
    <a href="structclanguml_1_1sequence__diagram_1_1model_1_1objc__method.html" target="_top" title="objc_method" xlink:actuate="onRequest" xlink:href="structclanguml_1_1sequence__diagram_1_1model_1_1objc__method.html" xlink:show="new" xlink:title="objc_method" xlink:type="simple">
      <g id="elem_C_0013742559556936917396">
        <rect codeLine="110" fill="#F1F1F1" height="48" id="C_0013742559556936917396" rx="2.5" ry="2.5" style="stroke:#181818;stroke-width:0.5;" width="122.1045" x="1398.5" y="121.2969"/>
        <ellipse cx="1413.5" cy="137.2969" fill="#ADD1B2" rx="11" ry="11" style="stroke:#181818;stroke-width:1.0;"/>
        <path d="M1416.4688,142.9375 Q1415.8906,143.2344 1415.25,143.375 Q1414.6094,143.5313 1413.9063,143.5313 Q1411.4063,143.5313 1410.0781,141.8906 Q1408.7656,140.2344 1408.7656,137.1094 Q1408.7656,133.9844 1410.0781,132.3281 Q1411.4063,130.6719 1413.9063,130.6719 Q1414.6094,130.6719 1415.25,130.8281 Q1415.9063,130.9844 1416.4688,131.2813 L1416.4688,134 Q1415.8438,133.4219 1415.25,133.1563 Q1414.6563,132.875 1414.0313,132.875 Q1412.6875,132.875 1412,133.9531 Q1411.3125,135.0156 1411.3125,137.1094 Q1411.3125,139.2031 1412,140.2813 Q1412.6875,141.3438 1414.0313,141.3438 Q1414.6563,141.3438 1415.25,141.0781 Q1415.8438,140.7969 1416.4688,140.2188 L1416.4688,142.9375 Z " fill="#000000"/>
        <text fill="#000000" font-family="sans-serif" font-size="14" lengthAdjust="spacing" textLength="90.1045" x="1427.5" y="142.1436">objc_method</text>
        <line style="stroke:#181818;stroke-width:0.5;" x1="1399.5" x2="1519.6045" y1="153.2969" y2="153.2969"/>
        <line style="stroke:#181818;stroke-width:0.5;" x1="1399.5" x2="1519.6045" y1="161.2969" y2="161.2969"/>
      </g>
    </a>
    <a href="structclanguml_1_1sequence__diagram_1_1model_1_1function__template.html" target="_top" title="Participant model representing a function template." xlink:actuate="onRequest" xlink:href="structclanguml_1_1sequence__diagram_1_1model_1_1function__template.html" xlink:show="new" xlink:title="Participant model representing a function template." xlink:type="simple">
      <g id="elem_C_0018241535739946484465">
        <rect codeLine="114" fill="#F1F1F1" height="48" id="C_0018241535739946484465" rx="2.5" ry="2.5" style="stroke:#181818;stroke-width:0.5;" width="159.3877" x="1380" y="287.2969"/>
        <ellipse cx="1395" cy="303.2969" fill="#ADD1B2" rx="11" ry="11" style="stroke:#181818;stroke-width:1.0;"/>
        <path d="M1397.9688,308.9375 Q1397.3906,309.2344 1396.75,309.375 Q1396.1094,309.5313 1395.4063,309.5313 Q1392.9063,309.5313 1391.5781,307.8906 Q1390.2656,306.2344 1390.2656,303.1094 Q1390.2656,299.9844 1391.5781,298.3281 Q1392.9063,296.6719 1395.4063,296.6719 Q1396.1094,296.6719 1396.75,296.8281 Q1397.4063,296.9844 1397.9688,297.2813 L1397.9688,300 Q1397.3438,299.4219 1396.75,299.1563 Q1396.1563,298.875 1395.5313,298.875 Q1394.1875,298.875 1393.5,299.9531 Q1392.8125,301.0156 1392.8125,303.1094 Q1392.8125,305.2031 1393.5,306.2813 Q1394.1875,307.3438 1395.5313,307.3438 Q1396.1563,307.3438 1396.75,307.0781 Q1397.3438,306.7969 1397.9688,306.2188 L1397.9688,308.9375 Z " fill="#000000"/>
        <text fill="#000000" font-family="sans-serif" font-size="14" lengthAdjust="spacing" textLength="127.3877" x="1409" y="308.1436">function_template</text>
        <line style="stroke:#181818;stroke-width:0.5;" x1="1381" x2="1538.3877" y1="319.2969" y2="319.2969"/>
        <line style="stroke:#181818;stroke-width:0.5;" x1="1381" x2="1538.3877" y1="327.2969" y2="327.2969"/>
      </g>
    </a>
    <a href="classclanguml_1_1sequence__diagram_1_1model_1_1message.html" target="_top" title="Model of a sequence diagram message." xlink:actuate="onRequest" xlink:href="classclanguml_1_1sequence__diagram_1_1model_1_1message.html" xlink:show="new" xlink:title="Model of a sequence diagram message." xlink:type="simple">
      <g id="elem_C_0017829224549649886549">
        <rect codeLine="118" fill="#F1F1F1" height="48" id="C_0017829224549649886549" rx="2.5" ry="2.5" style="stroke:#181818;stroke-width:0.5;" width="94.918" x="956" y="204.2969"/>
        <ellipse cx="971" cy="220.2969" fill="#ADD1B2" rx="11" ry="11" style="stroke:#181818;stroke-width:1.0;"/>
        <path d="M973.9688,225.9375 Q973.3906,226.2344 972.75,226.375 Q972.1094,226.5313 971.4063,226.5313 Q968.9063,226.5313 967.5781,224.8906 Q966.2656,223.2344 966.2656,220.1094 Q966.2656,216.9844 967.5781,215.3281 Q968.9063,213.6719 971.4063,213.6719 Q972.1094,213.6719 972.75,213.8281 Q973.4063,213.9844 973.9688,214.2813 L973.9688,217 Q973.3438,216.4219 972.75,216.1563 Q972.1563,215.875 971.5313,215.875 Q970.1875,215.875 969.5,216.9531 Q968.8125,218.0156 968.8125,220.1094 Q968.8125,222.2031 969.5,223.2813 Q970.1875,224.3438 971.5313,224.3438 Q972.1563,224.3438 972.75,224.0781 Q973.3438,223.7969 973.9688,223.2188 L973.9688,225.9375 Z " fill="#000000"/>
        <text fill="#000000" font-family="sans-serif" font-size="14" lengthAdjust="spacing" textLength="62.918" x="985" y="225.1436">message</text>
        <line style="stroke:#181818;stroke-width:0.5;" x1="957" x2="1049.918" y1="236.2969" y2="236.2969"/>
        <line style="stroke:#181818;stroke-width:0.5;" x1="957" x2="1049.918" y1="244.2969" y2="244.2969"/>
      </g>
    </a>
    <g id="link_C_0008936819060997384951_C_0016370694070378943411">
      <path codeLine="123" d="M232.3,501.2969 C258.86,501.2969 269.61,501.2969 293.83,501.2969 " fill="none" id="C_0008936819060997384951-backto-C_0016370694070378943411" style="stroke:#181818;stroke-width:1.0;"/>
      <polygon fill="none" points="214.3,501.2969,232.3,507.2969,232.3,495.2969,214.3,501.2969" style="stroke:#181818;stroke-width:1.0;"/>
    </g>
    <g id="link_C_0008936819060997384951_C_0008588005715032923314">
      <path codeLine="125" d="M211.3269,470.9215 C240.3169,459.9615 257.75,453.3669 286.77,442.3969 " fill="none" id="C_0008936819060997384951-backto-C_0008588005715032923314" style="stroke:#181818;stroke-width:1.0;"/>
      <polygon fill="none" points="194.49,477.2869,213.4487,476.5338,209.2051,465.3092,194.49,477.2869" style="stroke:#181818;stroke-width:1.0;"/>
    </g>
    <g id="link_C_0007162092657467521843_C_0008588005715032923314">
      <path codeLine="127" d="M218.75,418.2969 C241.98,418.2969 249.97,418.2969 273.7,418.2969 " fill="none" id="C_0007162092657467521843-backto-C_0008588005715032923314" style="stroke:#181818;stroke-width:1.0;"/>
      <polygon fill="none" points="200.75,418.2969,218.75,424.2969,218.75,412.2969,200.75,418.2969" style="stroke:#181818;stroke-width:1.0;"/>
    </g>
    <g id="link_C_0008588005715032923314_C_0016556163051475263500">
      <path codeLine="129" d="M423.6509,449.5442 C452.3209,462.1342 470.5,470.1169 497.43,481.9469 " fill="none" id="C_0008588005715032923314-backto-C_0016556163051475263500" style="stroke:#181818;stroke-width:1.0;"/>
      <polygon fill="none" points="407.17,442.3069,421.2385,455.0379,426.0634,444.0506,407.17,442.3069" style="stroke:#181818;stroke-width:1.0;"/>
    </g>
    <g id="link_C_0016556163051475263500_C_0013384831159811298387">
      <path codeLine="131" d="M605.92,501.2969 C626.14,501.2969 632.69,501.2969 655.9,501.2969 " fill="none" id="C_0016556163051475263500-backto-C_0013384831159811298387" style="stroke:#181818;stroke-width:1.0;"/>
      <polygon fill="none" points="587.92,501.2969,605.92,507.2969,605.92,495.2969,587.92,501.2969" style="stroke:#181818;stroke-width:1.0;"/>
    </g>
    <g id="link_C_0008588005715032923314_C_0006285717704576425038">
      <path codeLine="133" d="M447.1,418.2969 C467.16,418.2969 470.33,418.2969 488.82,418.2969 " fill="none" id="C_0008588005715032923314-backto-C_0006285717704576425038" style="stroke:#181818;stroke-width:1.0;"/>
      <polygon fill="none" points="429.1,418.2969,447.1,424.2969,447.1,412.2969,429.1,418.2969" style="stroke:#181818;stroke-width:1.0;"/>
    </g>
    <g id="link_C_0016556163051475263500_C_0017146293478645494837">
      <path codeLine="135" d="M604.4351,474.8878 C635.2551,461.5278 659.65,450.9569 690.49,437.5869 " fill="none" id="C_0016556163051475263500-backto-C_0017146293478645494837" style="stroke:#181818;stroke-width:1.0;"/>
      <polygon fill="none" points="587.92,482.0469,606.8214,480.3929,602.0487,469.3828,587.92,482.0469" style="stroke:#181818;stroke-width:1.0;"/>
    </g>
    <g id="link_C_0008936819060997384951_C_0004846934894930864299">
      <path codeLine="137" d="M135.6816,543.228 C143.3516,604.618 170.76,749.0769 274,817.2969 C482.19,954.8569 802.05,889.9369 937.9,852.8869 " fill="none" id="C_0008936819060997384951-backto-C_0004846934894930864299" style="stroke:#181818;stroke-width:1.0;"/>
      <polygon fill="none" points="133.45,525.3669,129.7278,543.9719,141.6353,542.4842,133.45,525.3669" style="stroke:#181818;stroke-width:1.0;"/>
    </g>
    <g id="link_C_0007162092657467521843_C_0004846934894930864299">
      <path codeLine="139" d="M204.7912,451.1909 C213.5912,456.1109 206.51,452.9669 214,459.2969 C248.76,488.6869 239.56,512.5369 274,542.2969 C477.66,718.2569 801.02,795.9669 937.91,822.2569 " fill="none" id="C_0007162092657467521843-backto-C_0004846934894930864299" style="stroke:#181818;stroke-width:1.0;"/>
      <polygon fill="none" points="189.08,442.4069,201.8632,456.4279,207.7192,445.9538,189.08,442.4069" style="stroke:#181818;stroke-width:1.0;"/>
    </g>
    <g id="link_C_0004846934894930864299_C_0014241292626575163322">
      <path codeLine="141" d="M1087.23,833.2969 C1111.32,833.2969 1121.05,833.2969 1146.73,833.2969 " fill="none" id="C_0004846934894930864299-backto-C_0014241292626575163322" style="stroke:#181818;stroke-width:1.0;"/>
      <polygon fill="none" points="1069.23,833.2969,1087.23,839.2969,1087.23,827.2969,1069.23,833.2969" style="stroke:#181818;stroke-width:1.0;"/>
    </g>
    <g id="link_C_0014241292626575163322_C_0014370262096868218046">
      <path codeLine="143" d="M1316.1693,863.5589 C1345.7593,874.5189 1363.85,881.2269 1393.47,892.1969 " fill="none" id="C_0014241292626575163322-backto-C_0014370262096868218046" style="stroke:#181818;stroke-width:1.0;"/>
      <polygon fill="none" points="1299.29,857.3069,1314.0853,869.1854,1318.2534,857.9325,1299.29,857.3069" style="stroke:#181818;stroke-width:1.0;"/>
    </g>
    <g id="link_C_0008936819060997384951_C_0004845352266951408403">
      <path codeLine="145" d="M132.4353,543.4579 C135.6353,613.1779 154.46,797.4369 274,889.2969 C465.8,1036.6869 777.27,979.0469 922.81,940.3669 " fill="none" id="C_0008936819060997384951-backto-C_0004845352266951408403" style="stroke:#181818;stroke-width:1.0;"/>
      <polygon fill="none" points="131.61,525.4769,126.4416,543.733,138.429,543.1828,131.61,525.4769" style="stroke:#181818;stroke-width:1.0;"/>
    </g>
    <g id="link_C_0004846934894930864299_C_0018032026899693266441">
      <path codeLine="147" d="M1086.1442,803.5797 C1116.5542,792.5097 1135.84,785.4869 1166.42,774.3469 " fill="none" id="C_0004846934894930864299-backto-C_0018032026899693266441" style="stroke:#181818;stroke-width:1.0;"/>
      <polygon fill="none" points="1069.23,809.7369,1088.1966,809.2178,1084.0918,797.9416,1069.23,809.7369" style="stroke:#181818;stroke-width:1.0;"/>
    </g>
    <g id="link_C_0018032026899693266441_C_0001633165731746789371">
      <path codeLine="149" d="M1335.59,750.2969 C1361.24,750.2969 1371.06,750.2969 1395.15,750.2969 " fill="none" id="C_0018032026899693266441-backto-C_0001633165731746789371" style="stroke:#181818;stroke-width:1.0;"/>
      <polygon fill="none" points="1317.59,750.2969,1335.59,756.2969,1335.59,744.2969,1317.59,750.2969" style="stroke:#181818;stroke-width:1.0;"/>
    </g>
    <g id="link_C_0013384831159811298387_C_0010336274859733225462">
      <path codeLine="151" d="M834.3,501.2969 C884.11,501.2969 927.98,501.2969 966.36,501.2969 " fill="none" id="C_0013384831159811298387-backto-C_0010336274859733225462" style="stroke:#181818;stroke-width:1.0;"/>
      <polygon fill="none" points="816.3,501.2969,834.3,507.2969,834.3,495.2969,816.3,501.2969" style="stroke:#181818;stroke-width:1.0;"/>
    </g>
    <g id="link_C_0016556163051475263500_C_0010998792414017796003">
      <path codeLine="153" d="M562.8002,541.4914 C579.8502,575.4314 607.41,620.8069 656,654.2969 C749.54,718.7769 885.21,740.0969 955.83,747.0369 " fill="none" id="C_0016556163051475263500-backto-C_0010998792414017796003" style="stroke:#181818;stroke-width:1.0;"/>
      <polygon fill="none" points="554.72,525.4069,557.4387,544.1848,568.1617,538.798,554.72,525.4069" style="stroke:#181818;stroke-width:1.0;"/>
    </g>
    <g id="link_C_0016556163051475263500_C_0005795143816749204050">
      <path codeLine="155" d="M604.4358,526.6074 C624.8858,534.5974 632.95,536.7769 656,542.2969 C765.76,568.5769 899.22,578.8469 963.79,582.4969 " fill="none" id="C_0016556163051475263500-backto-C_0005795143816749204050" style="stroke:#181818;stroke-width:1.0;"/>
      <polygon fill="none" points="587.67,520.0569,602.2522,532.196,606.6193,521.0188,587.67,520.0569" style="stroke:#181818;stroke-width:1.0;"/>
    </g>
    <g id="link_C_0014241292626575163322_C_0007364672229966928495">
      <path codeLine="157" d="M1338.14,833.2969 C1363.34,833.2969 1372.42,833.2969 1395.89,833.2969 " fill="none" id="C_0014241292626575163322-backto-C_0007364672229966928495" style="stroke:#181818;stroke-width:1.0;"/>
      <polygon fill="none" points="1320.14,833.2969,1338.14,839.2969,1338.14,827.2969,1320.14,833.2969" style="stroke:#181818;stroke-width:1.0;"/>
    </g>
    <g id="link_C_0018032026899693266441_C_0002175636676684225778">
      <path codeLine="159" d="M1316.1697,720.0359 C1347.4397,708.4559 1367.84,700.8869 1398.46,689.5469 " fill="none" id="C_0018032026899693266441-backto-C_0002175636676684225778" style="stroke:#181818;stroke-width:1.0;"/>
      <polygon fill="none" points="1299.29,726.2869,1318.2534,725.6625,1314.0861,714.4093,1299.29,726.2869" style="stroke:#181818;stroke-width:1.0;"/>
    </g>
    <g id="link_C_0016556163051475263500_C_0010166346108406727066">
      <path codeLine="161" d="M583.9515,537.1368 C605.6115,555.5268 623.98,568.4669 656,583.2969 C749.09,626.4269 866.89,648.9169 938.38,659.4169 " fill="none" id="C_0016556163051475263500-backto-C_0010166346108406727066" style="stroke:#181818;stroke-width:1.0;"/>
      <polygon fill="none" points="570.23,525.4869,580.0682,541.7106,587.8348,532.563,570.23,525.4869" style="stroke:#181818;stroke-width:1.0;"/>
    </g>
    <g id="link_C_0013384831159811298387_C_0011201726182739961811">
      <path codeLine="163" d="M832.9704,475.9281 C849.5404,470.0381 849.42,468.6169 864,459.2969 C916.33,425.8369 962.33,368.1669 985.86,335.5669 " fill="none" id="C_0013384831159811298387-backto-C_0011201726182739961811" style="stroke:#181818;stroke-width:1.0;"/>
      <polygon fill="none" points="816.01,481.9569,834.98,481.5816,830.9608,470.2747,816.01,481.9569" style="stroke:#181818;stroke-width:1.0;"/>
    </g>
    <g id="link_C_0011201726182739961811_C_0007084118972955772881">
      <path codeLine="165" d="M1075.67,311.2969 C1118.3,311.2969 1158.99,311.2969 1196.34,311.2969 " fill="none" id="C_0011201726182739961811-backto-C_0007084118972955772881" style="stroke:#181818;stroke-width:1.0;"/>
      <polygon fill="none" points="1057.67,311.2969,1075.67,317.2969,1075.67,305.2969,1057.67,311.2969" style="stroke:#181818;stroke-width:1.0;"/>
    </g>
    <g id="link_C_0011201726182739961811_C_0001861107648253454629">
      <path codeLine="167" d="M1074.5847,285.7811 C1114.4547,271.2711 1151.45,257.8069 1188.82,244.1969 " fill="none" id="C_0011201726182739961811-backto-C_0001861107648253454629" style="stroke:#181818;stroke-width:1.0;"/>
      <polygon fill="none" points="1057.67,291.9369,1076.6366,291.4193,1072.5327,280.1428,1057.67,291.9369" style="stroke:#181818;stroke-width:1.0;"/>
    </g>
    <g id="link_C_0001861107648253454629_C_0006541327780382276039">
      <path codeLine="169" d="M1296.22,228.2969 C1336.2,228.2969 1376.95,228.2969 1416.41,228.2969 " fill="none" id="C_0001861107648253454629-backto-C_0006541327780382276039" style="stroke:#181818;stroke-width:1.0;"/>
      <polygon fill="none" points="1278.22,228.2969,1296.22,234.2969,1296.22,222.2969,1278.22,228.2969" style="stroke:#181818;stroke-width:1.0;"/>
    </g>
    <g id="link_C_0001861107648253454629_C_0013742559556936917396">
      <path codeLine="171" d="M1295.0987,205.8431 C1329.3487,193.1531 1360.49,181.6069 1398.37,167.5769 " fill="none" id="C_0001861107648253454629-backto-C_0013742559556936917396" style="stroke:#181818;stroke-width:1.0;"/>
      <polygon fill="none" points="1278.22,212.0969,1297.1833,211.4694,1293.0141,200.2169,1278.22,212.0969" style="stroke:#181818;stroke-width:1.0;"/>
    </g>
    <g id="link_C_0001861107648253454629_C_0018241535739946484465">
      <path codeLine="173" d="M1295.0989,250.75 C1327.9489,262.92 1356.59,273.5369 1393.67,287.2769 " fill="none" id="C_0001861107648253454629-backto-C_0018241535739946484465" style="stroke:#181818;stroke-width:1.0;"/>
      <polygon fill="none" points="1278.22,244.4969,1293.0145,256.3763,1297.1833,245.1237,1278.22,244.4969" style="stroke:#181818;stroke-width:1.0;"/>
    </g>
    <g id="link_C_0008588005715032923314_C_0017829224549649886549">
      <path codeLine="175" d="M446.5152,389.1071 C465.9652,383.1271 469.63,382.0669 489,376.2969 C660.61,325.1669 865.32,267.0169 955.69,241.4869 " fill="none" id="C_0008588005715032923314-backto-C_0017829224549649886549" style="stroke:#181818;stroke-width:1.0;"/>
      <polygon fill="none" points="429.31,394.3969,448.2784,394.8421,444.7519,383.372,429.31,394.3969" style="stroke:#181818;stroke-width:1.0;"/>
    </g>
  </g>
</svg>
