<svg xmlns="http://www.w3.org/2000/svg" xmlns:xlink="http://www.w3.org/1999/xlink" contentScriptType="application/ecmascript" contentStyleType="text/css" height="412px" preserveAspectRatio="none" style="width:772px;height:412px;" version="1.1" viewBox="0 0 772 412" width="772px" zoomAndPan="magnify">
  <defs>
    <filter height="300%" id="fle9m2b6y1m1i" width="300%" x="-1" y="-1">
      <feGaussianBlur result="blurOut" stdDeviation="2.0"/>
      <feColorMatrix in="blurOut" result="blurOut2" type="matrix" values="0 0 0 0 0 0 0 0 0 0 0 0 0 0 0 0 0 0 .4 0"/>
      <feOffset dx="4.0" dy="4.0" in="blurOut2" result="blurOut3"/>
      <feBlend in="SourceGraphic" in2="blurOut3" mode="normal"/>
    </filter>
    <style type="text/css">a:hover { text-decoration: underline; }</style>
  </defs>
  <g>
    <text fill="#000000" font-family="sans-serif" font-size="18" lengthAdjust="spacingAndGlyphs" textLength="257" x="263.5" y="16.708">Diagram type class hierarchy</text>
    <polygon fill="#FFFFFF" filter="url(#fle9m2b6y1m1i)" points="304,44.9531,377,44.9531,384,67.25,468,67.25,468,210.9531,304,210.9531,304,44.9531" style="stroke: #000000; stroke-width: 1.5;"/>
    <line style="stroke: #000000; stroke-width: 1.5;" x1="304" x2="384" y1="67.25" y2="67.25"/>
    <text fill="#000000" font-family="sans-serif" font-size="14" font-weight="bold" lengthAdjust="spacingAndGlyphs" textLength="67" x="308" y="59.9482">common</text>
    <polygon fill="#FFFFFF" filter="url(#fle9m2b6y1m1i)" points="328,87.9531,382,87.9531,389,110.25,444,110.25,444,186.9531,328,186.9531,328,87.9531" style="stroke: #000000; stroke-width: 1.5;"/>
    <line style="stroke: #000000; stroke-width: 1.5;" x1="328" x2="389" y1="110.25" y2="110.25"/>
    <text fill="#000000" font-family="sans-serif" font-size="14" font-weight="bold" lengthAdjust="spacingAndGlyphs" textLength="48" x="332" y="102.9482">model</text>
    <polygon fill="#FFFFFF" filter="url(#fle9m2b6y1m1i)" points="22,234.9531,138,234.9531,145,257.25,186,257.25,186,400.9531,22,400.9531,22,234.9531" style="stroke: #000000; stroke-width: 1.5;"/>
    <line style="stroke: #000000; stroke-width: 1.5;" x1="22" x2="145" y1="257.25" y2="257.25"/>
    <text fill="#000000" font-family="sans-serif" font-size="14" font-weight="bold" lengthAdjust="spacingAndGlyphs" textLength="110" x="26" y="249.9482">class_diagram</text>
    <polygon fill="#FFFFFF" filter="url(#fle9m2b6y1m1i)" points="46,277.9531,100,277.9531,107,300.25,162,300.25,162,376.9531,46,376.9531,46,277.9531" style="stroke: #000000; stroke-width: 1.5;"/>
    <line style="stroke: #000000; stroke-width: 1.5;" x1="46" x2="107" y1="300.25" y2="300.25"/>
    <text fill="#000000" font-family="sans-serif" font-size="14" font-weight="bold" lengthAdjust="spacingAndGlyphs" textLength="48" x="50" y="292.9482">model</text>
    <polygon fill="#FFFFFF" filter="url(#fle9m2b6y1m1i)" points="210,234.9531,343,234.9531,350,257.25,374,257.25,374,400.9531,210,400.9531,210,234.9531" style="stroke: #000000; stroke-width: 1.5;"/>
    <line style="stroke: #000000; stroke-width: 1.5;" x1="210" x2="350" y1="257.25" y2="257.25"/>
    <text fill="#000000" font-family="sans-serif" font-size="14" font-weight="bold" lengthAdjust="spacingAndGlyphs" textLength="127" x="214" y="249.9482">include_diagram</text>
    <polygon fill="#FFFFFF" filter="url(#fle9m2b6y1m1i)" points="234,277.9531,288,277.9531,295,300.25,350,300.25,350,376.9531,234,376.9531,234,277.9531" style="stroke: #000000; stroke-width: 1.5;"/>
    <line style="stroke: #000000; stroke-width: 1.5;" x1="234" x2="295" y1="300.25" y2="300.25"/>
    <text fill="#000000" font-family="sans-serif" font-size="14" font-weight="bold" lengthAdjust="spacingAndGlyphs" textLength="48" x="238" y="292.9482">model</text>
    <polygon fill="#FFFFFF" filter="url(#fle9m2b6y1m1i)" points="398,234.9531,552,234.9531,559,257.25,562,257.25,562,400.9531,398,400.9531,398,234.9531" style="stroke: #000000; stroke-width: 1.5;"/>
    <line style="stroke: #000000; stroke-width: 1.5;" x1="398" x2="559" y1="257.25" y2="257.25"/>
    <text fill="#000000" font-family="sans-serif" font-size="14" font-weight="bold" lengthAdjust="spacingAndGlyphs" textLength="148" x="402" y="249.9482">sequence_diagram</text>
    <polygon fill="#FFFFFF" filter="url(#fle9m2b6y1m1i)" points="422,277.9531,476,277.9531,483,300.25,538,300.25,538,376.9531,422,376.9531,422,277.9531" style="stroke: #000000; stroke-width: 1.5;"/>
    <line style="stroke: #000000; stroke-width: 1.5;" x1="422" x2="483" y1="300.25" y2="300.25"/>
    <text fill="#000000" font-family="sans-serif" font-size="14" font-weight="bold" lengthAdjust="spacingAndGlyphs" textLength="48" x="426" y="292.9482">model</text>
    <polygon fill="#FFFFFF" filter="url(#fle9m2b6y1m1i)" points="586,234.9531,728,234.9531,735,257.25,750,257.25,750,400.9531,586,400.9531,586,234.9531" style="stroke: #000000; stroke-width: 1.5;"/>
    <line style="stroke: #000000; stroke-width: 1.5;" x1="586" x2="735" y1="257.25" y2="257.25"/>
    <text fill="#000000" font-family="sans-serif" font-size="14" font-weight="bold" lengthAdjust="spacingAndGlyphs" textLength="136" x="590" y="249.9482">package_diagram</text>
    <polygon fill="#FFFFFF" filter="url(#fle9m2b6y1m1i)" points="610,277.9531,664,277.9531,671,300.25,726,300.25,726,376.9531,610,376.9531,610,277.9531" style="stroke: #000000; stroke-width: 1.5;"/>
    <line style="stroke: #000000; stroke-width: 1.5;" x1="610" x2="671" y1="300.25" y2="300.25"/>
    <text fill="#000000" font-family="sans-serif" font-size="14" font-weight="bold" lengthAdjust="spacingAndGlyphs" textLength="48" x="614" y="292.9482">model</text>
    <a href="classclanguml_1_1common_1_1model_1_1diagram.html" target="_top" title="Base class for all diagram models" xlink:actuate="onRequest" xlink:href="classclanguml_1_1common_1_1model_1_1diagram.html" xlink:show="new" xlink:title="Base class for all diagram models" xlink:type="simple">
      <rect fill="#FEFECE" filter="url(#fle9m2b6y1m1i)" height="48" id="C_0000197068985320835874" style="stroke: #A80036; stroke-width: 1.5;" width="83" x="344.5" y="122.9531"/>
      <ellipse cx="359.5" cy="138.9531" fill="#ADD1B2" rx="11" ry="11" style="stroke: #A80036; stroke-width: 1.0;"/>
      <path d="M362.4688,144.5938 Q361.8906,144.8906 361.25,145.0313 Q360.6094,145.1875 359.9063,145.1875 Q357.4063,145.1875 356.0781,143.5469 Q354.7656,141.8906 354.7656,138.7656 Q354.7656,135.6406 356.0781,133.9844 Q357.4063,132.3281 359.9063,132.3281 Q360.6094,132.3281 361.25,132.4844 Q361.9063,132.6406 362.4688,132.9375 L362.4688,135.6563 Q361.8438,135.0781 361.25,134.8125 Q360.6563,134.5313 360.0313,134.5313 Q358.6875,134.5313 358,135.6094 Q357.3125,136.6719 357.3125,138.7656 Q357.3125,140.8594 358,141.9375 Q358.6875,143 360.0313,143 Q360.6563,143 361.25,142.7344 Q361.8438,142.4531 362.4688,141.875 L362.4688,144.5938 Z "/>
      <text fill="#000000" font-family="sans-serif" font-size="12" lengthAdjust="spacingAndGlyphs" textLength="51" x="373.5" y="143.1074">diagram</text>
      <line style="stroke: #A80036; stroke-width: 1.5;" x1="345.5" x2="426.5" y1="154.9531" y2="154.9531"/>
      <line style="stroke: #A80036; stroke-width: 1.5;" x1="345.5" x2="426.5" y1="162.9531" y2="162.9531"/>
    </a>
    <a href="classclanguml_1_1class__diagram_1_1model_1_1diagram.html" target="_top" title="Class representing a class diagram." xlink:actuate="onRequest" xlink:href="classclanguml_1_1class__diagram_1_1model_1_1diagram.html" xlink:show="new" xlink:title="Class representing a class diagram." xlink:type="simple">
      <rect fill="#FEFECE" filter="url(#fle9m2b6y1m1i)" height="48" id="C_0000914432076690777687" style="stroke: #A80036; stroke-width: 1.5;" width="83" x="62.5" y="312.9531"/>
      <ellipse cx="77.5" cy="328.9531" fill="#ADD1B2" rx="11" ry="11" style="stroke: #A80036; stroke-width: 1.0;"/>
      <path d="M80.4688,334.5938 Q79.8906,334.8906 79.25,335.0313 Q78.6094,335.1875 77.9063,335.1875 Q75.4063,335.1875 74.0781,333.5469 Q72.7656,331.8906 72.7656,328.7656 Q72.7656,325.6406 74.0781,323.9844 Q75.4063,322.3281 77.9063,322.3281 Q78.6094,322.3281 79.25,322.4844 Q79.9063,322.6406 80.4688,322.9375 L80.4688,325.6563 Q79.8438,325.0781 79.25,324.8125 Q78.6563,324.5313 78.0313,324.5313 Q76.6875,324.5313 76,325.6094 Q75.3125,326.6719 75.3125,328.7656 Q75.3125,330.8594 76,331.9375 Q76.6875,333 78.0313,333 Q78.6563,333 79.25,332.7344 Q79.8438,332.4531 80.4688,331.875 L80.4688,334.5938 Z "/>
      <text fill="#000000" font-family="sans-serif" font-size="12" lengthAdjust="spacingAndGlyphs" textLength="51" x="91.5" y="333.1074">diagram</text>
      <line style="stroke: #A80036; stroke-width: 1.5;" x1="63.5" x2="144.5" y1="344.9531" y2="344.9531"/>
      <line style="stroke: #A80036; stroke-width: 1.5;" x1="63.5" x2="144.5" y1="352.9531" y2="352.9531"/>
    </a>
    <a href="classclanguml_1_1include__diagram_1_1model_1_1diagram.html" target="_top" title="Class representing an include diagram model." xlink:actuate="onRequest" xlink:href="classclanguml_1_1include__diagram_1_1model_1_1diagram.html" xlink:show="new" xlink:title="Class representing an include diagram model." xlink:type="simple">
      <rect fill="#FEFECE" filter="url(#fle9m2b6y1m1i)" height="48" id="C_0000308380398356948374" style="stroke: #A80036; stroke-width: 1.5;" width="83" x="250.5" y="312.9531"/>
      <ellipse cx="265.5" cy="328.9531" fill="#ADD1B2" rx="11" ry="11" style="stroke: #A80036; stroke-width: 1.0;"/>
      <path d="M268.4688,334.5938 Q267.8906,334.8906 267.25,335.0313 Q266.6094,335.1875 265.9063,335.1875 Q263.4063,335.1875 262.0781,333.5469 Q260.7656,331.8906 260.7656,328.7656 Q260.7656,325.6406 262.0781,323.9844 Q263.4063,322.3281 265.9063,322.3281 Q266.6094,322.3281 267.25,322.4844 Q267.9063,322.6406 268.4688,322.9375 L268.4688,325.6563 Q267.8438,325.0781 267.25,324.8125 Q266.6563,324.5313 266.0313,324.5313 Q264.6875,324.5313 264,325.6094 Q263.3125,326.6719 263.3125,328.7656 Q263.3125,330.8594 264,331.9375 Q264.6875,333 266.0313,333 Q266.6563,333 267.25,332.7344 Q267.8438,332.4531 268.4688,331.875 L268.4688,334.5938 Z "/>
      <text fill="#000000" font-family="sans-serif" font-size="12" lengthAdjust="spacingAndGlyphs" textLength="51" x="279.5" y="333.1074">diagram</text>
      <line style="stroke: #A80036; stroke-width: 1.5;" x1="251.5" x2="332.5" y1="344.9531" y2="344.9531"/>
      <line style="stroke: #A80036; stroke-width: 1.5;" x1="251.5" x2="332.5" y1="352.9531" y2="352.9531"/>
    </a>
    <a href="classclanguml_1_1sequence__diagram_1_1model_1_1diagram.html" target="_top" title="Model of a sequence diagram" xlink:actuate="onRequest" xlink:href="classclanguml_1_1sequence__diagram_1_1model_1_1diagram.html" xlink:show="new" xlink:title="Model of a sequence diagram" xlink:type="simple">
      <rect fill="#FEFECE" filter="url(#fle9m2b6y1m1i)" height="48" id="C_0000924044572035510976" style="stroke: #A80036; stroke-width: 1.5;" width="83" x="438.5" y="312.9531"/>
      <ellipse cx="453.5" cy="328.9531" fill="#ADD1B2" rx="11" ry="11" style="stroke: #A80036; stroke-width: 1.0;"/>
      <path d="M456.4688,334.5938 Q455.8906,334.8906 455.25,335.0313 Q454.6094,335.1875 453.9063,335.1875 Q451.4063,335.1875 450.0781,333.5469 Q448.7656,331.8906 448.7656,328.7656 Q448.7656,325.6406 450.0781,323.9844 Q451.4063,322.3281 453.9063,322.3281 Q454.6094,322.3281 455.25,322.4844 Q455.9063,322.6406 456.4688,322.9375 L456.4688,325.6563 Q455.8438,325.0781 455.25,324.8125 Q454.6563,324.5313 454.0313,324.5313 Q452.6875,324.5313 452,325.6094 Q451.3125,326.6719 451.3125,328.7656 Q451.3125,330.8594 452,331.9375 Q452.6875,333 454.0313,333 Q454.6563,333 455.25,332.7344 Q455.8438,332.4531 456.4688,331.875 L456.4688,334.5938 Z "/>
      <text fill="#000000" font-family="sans-serif" font-size="12" lengthAdjust="spacingAndGlyphs" textLength="51" x="467.5" y="333.1074">diagram</text>
      <line style="stroke: #A80036; stroke-width: 1.5;" x1="439.5" x2="520.5" y1="344.9531" y2="344.9531"/>
      <line style="stroke: #A80036; stroke-width: 1.5;" x1="439.5" x2="520.5" y1="352.9531" y2="352.9531"/>
    </a>
    <a href="classclanguml_1_1package__diagram_1_1model_1_1diagram.html" target="_top" title="Package diagram model." xlink:actuate="onRequest" xlink:href="classclanguml_1_1package__diagram_1_1model_1_1diagram.html" xlink:show="new" xlink:title="Package diagram model." xlink:type="simple">
      <rect fill="#FEFECE" filter="url(#fle9m2b6y1m1i)" height="48" id="C_0000148537001046167478" style="stroke: #A80036; stroke-width: 1.5;" width="83" x="626.5" y="312.9531"/>
      <ellipse cx="641.5" cy="328.9531" fill="#ADD1B2" rx="11" ry="11" style="stroke: #A80036; stroke-width: 1.0;"/>
      <path d="M644.4688,334.5938 Q643.8906,334.8906 643.25,335.0313 Q642.6094,335.1875 641.9063,335.1875 Q639.4063,335.1875 638.0781,333.5469 Q636.7656,331.8906 636.7656,328.7656 Q636.7656,325.6406 638.0781,323.9844 Q639.4063,322.3281 641.9063,322.3281 Q642.6094,322.3281 643.25,322.4844 Q643.9063,322.6406 644.4688,322.9375 L644.4688,325.6563 Q643.8438,325.0781 643.25,324.8125 Q642.6563,324.5313 642.0313,324.5313 Q640.6875,324.5313 640,325.6094 Q639.3125,326.6719 639.3125,328.7656 Q639.3125,330.8594 640,331.9375 Q640.6875,333 642.0313,333 Q642.6563,333 643.25,332.7344 Q643.8438,332.4531 644.4688,331.875 L644.4688,334.5938 Z "/>
      <text fill="#000000" font-family="sans-serif" font-size="12" lengthAdjust="spacingAndGlyphs" textLength="51" x="655.5" y="333.1074">diagram</text>
      <line style="stroke: #A80036; stroke-width: 1.5;" x1="627.5" x2="708.5" y1="344.9531" y2="344.9531"/>
      <line style="stroke: #A80036; stroke-width: 1.5;" x1="627.5" x2="708.5" y1="352.9531" y2="352.9531"/>
    </a>
    <path d="M325.94,175.3931 C297.27,189.4231 262.98,207.6131 234,226.9531 C194.56,253.2731 153.31,289.6031 128.13,312.9331 " fill="none" id="C_0000197068985320835874&lt;-C_0000914432076690777687" style="stroke: #A80036; stroke-width: 1.0;"/>
    <polygon fill="none" points="323.24,168.9231,344.3,166.5831,329.29,181.5431,323.24,168.9231" style="stroke: #A80036; stroke-width: 1.0;"/>
    <path d="M365.45,189.0631 C346.49,226.9631 319.03,281.8831 303.62,312.7131 " fill="none" id="C_0000197068985320835874&lt;-C_0000308380398356948374" style="stroke: #A80036; stroke-width: 1.0;"/>
    <polygon fill="none" points="359.27,185.7631,374.47,171.0031,371.79,192.0231,359.27,185.7631" style="stroke: #A80036; stroke-width: 1.0;"/>
    <path d="M406.55,189.0631 C425.51,226.9631 452.97,281.8831 468.38,312.7131 " fill="none" id="C_0000197068985320835874&lt;-C_0000924044572035510976" style="stroke: #A80036; stroke-width: 1.0;"/>
    <polygon fill="none" points="400.21,192.0231,397.53,171.0031,412.73,185.7631,400.21,192.0231" style="stroke: #A80036; stroke-width: 1.0;"/>
    <path d="M446.06,175.3931 C474.73,189.4231 509.02,207.6131 538,226.9531 C577.44,253.2731 618.69,289.6031 643.87,312.9331 " fill="none" id="C_0000197068985320835874&lt;-C_0000148537001046167478" style="stroke: #A80036; stroke-width: 1.0;"/>
    <polygon fill="none" points="442.71,181.5431,427.7,166.5831,448.76,168.9231,442.71,181.5431" style="stroke: #A80036; stroke-width: 1.0;"/>
  </g>
</svg>
