<svg xmlns="http://www.w3.org/2000/svg" xmlns:xlink="http://www.w3.org/1999/xlink" contentScriptType="application/ecmascript" contentStyleType="text/css" height="952px" preserveAspectRatio="none" style="width:1136px;height:952px;" version="1.1" viewBox="0 0 1136 952" width="1136px" zoomAndPan="magnify">
  <defs>
    <filter height="300%" id="f1vu1ccu5o6u2m" width="300%" x="-1" y="-1">
      <feGaussianBlur result="blurOut" stdDeviation="2.0"/>
      <feColorMatrix in="blurOut" result="blurOut2" type="matrix" values="0 0 0 0 0 0 0 0 0 0 0 0 0 0 0 0 0 0 .4 0"/>
      <feOffset dx="4.0" dy="4.0" in="blurOut2" result="blurOut3"/>
      <feBlend in="SourceGraphic" in2="blurOut3" mode="normal"/>
    </filter>
    <style type="text/css">a:hover { text-decoration: underline; }</style>
  </defs>
  <g>
    <text fill="#000000" font-family="sans-serif" font-size="18" lengthAdjust="spacingAndGlyphs" textLength="290" x="429" y="16.708">Diagram element class hierarchy</text>
    <polygon fill="#FFFFFF" filter="url(#f1vu1ccu5o6u2m)" points="261,44.9531,334,44.9531,341,67.25,662,67.25,662,534.9531,261,534.9531,261,44.9531" style="stroke: #000000; stroke-width: 1.5;"/>
    <line style="stroke: #000000; stroke-width: 1.5;" x1="261" x2="341" y1="67.25" y2="67.25"/>
    <text fill="#000000" font-family="sans-serif" font-size="14" font-weight="bold" lengthAdjust="spacingAndGlyphs" textLength="67" x="265" y="59.9482">common</text>
    <polygon fill="#FFFFFF" filter="url(#f1vu1ccu5o6u2m)" points="285,87.9531,339,87.9531,346,110.25,638,110.25,638,510.9531,285,510.9531,285,87.9531" style="stroke: #000000; stroke-width: 1.5;"/>
    <line style="stroke: #000000; stroke-width: 1.5;" x1="285" x2="346" y1="110.25" y2="110.25"/>
    <text fill="#000000" font-family="sans-serif" font-size="14" font-weight="bold" lengthAdjust="spacingAndGlyphs" textLength="48" x="289" y="102.9482">model</text>
    <polygon fill="#FFFFFF" filter="url(#f1vu1ccu5o6u2m)" points="387,558.9531,503,558.9531,510,581.25,1114,581.25,1114,832.9531,387,832.9531,387,558.9531" style="stroke: #000000; stroke-width: 1.5;"/>
    <line style="stroke: #000000; stroke-width: 1.5;" x1="387" x2="510" y1="581.25" y2="581.25"/>
    <text fill="#000000" font-family="sans-serif" font-size="14" font-weight="bold" lengthAdjust="spacingAndGlyphs" textLength="110" x="391" y="573.9482">class_diagram</text>
    <polygon fill="#FFFFFF" filter="url(#f1vu1ccu5o6u2m)" points="411,601.9531,465,601.9531,472,624.25,1090,624.25,1090,808.9531,411,808.9531,411,601.9531" style="stroke: #000000; stroke-width: 1.5;"/>
    <line style="stroke: #000000; stroke-width: 1.5;" x1="411" x2="472" y1="624.25" y2="624.25"/>
    <text fill="#000000" font-family="sans-serif" font-size="14" font-weight="bold" lengthAdjust="spacingAndGlyphs" textLength="48" x="415" y="616.9482">model</text>
    <polygon fill="#FFFFFF" filter="url(#f1vu1ccu5o6u2m)" points="22,558.9531,176,558.9531,183,581.25,363,581.25,363,940.9531,22,940.9531,22,558.9531" style="stroke: #000000; stroke-width: 1.5;"/>
    <line style="stroke: #000000; stroke-width: 1.5;" x1="22" x2="183" y1="581.25" y2="581.25"/>
    <text fill="#000000" font-family="sans-serif" font-size="14" font-weight="bold" lengthAdjust="spacingAndGlyphs" textLength="148" x="26" y="573.9482">sequence_diagram</text>
    <polygon fill="#FFFFFF" filter="url(#f1vu1ccu5o6u2m)" points="46,601.9531,100,601.9531,107,624.25,339,624.25,339,916.9531,46,916.9531,46,601.9531" style="stroke: #000000; stroke-width: 1.5;"/>
    <line style="stroke: #000000; stroke-width: 1.5;" x1="46" x2="107" y1="624.25" y2="624.25"/>
    <text fill="#000000" font-family="sans-serif" font-size="14" font-weight="bold" lengthAdjust="spacingAndGlyphs" textLength="48" x="50" y="616.9482">model</text>
    <a href="classclanguml_1_1common_1_1model_1_1decorated__element.html" target="_top" title="Base class for decorated diagram elements" xlink:actuate="onRequest" xlink:href="classclanguml_1_1common_1_1model_1_1decorated__element.html" xlink:show="new" xlink:title="Base class for decorated diagram elements" xlink:type="simple">
      <rect fill="#FEFECE" filter="url(#f1vu1ccu5o6u2m)" height="48" id="C_0001117102382624673118" style="stroke: #A80036; stroke-width: 1.5;" width="154" x="301" y="122.9531"/>
      <ellipse cx="316" cy="138.9531" fill="#ADD1B2" rx="11" ry="11" style="stroke: #A80036; stroke-width: 1.0;"/>
      <path d="M318.9688,144.5938 Q318.3906,144.8906 317.75,145.0313 Q317.1094,145.1875 316.4063,145.1875 Q313.9063,145.1875 312.5781,143.5469 Q311.2656,141.8906 311.2656,138.7656 Q311.2656,135.6406 312.5781,133.9844 Q313.9063,132.3281 316.4063,132.3281 Q317.1094,132.3281 317.75,132.4844 Q318.4063,132.6406 318.9688,132.9375 L318.9688,135.6563 Q318.3438,135.0781 317.75,134.8125 Q317.1563,134.5313 316.5313,134.5313 Q315.1875,134.5313 314.5,135.6094 Q313.8125,136.6719 313.8125,138.7656 Q313.8125,140.8594 314.5,141.9375 Q315.1875,143 316.5313,143 Q317.1563,143 317.75,142.7344 Q318.3438,142.4531 318.9688,141.875 L318.9688,144.5938 Z "/>
      <text fill="#000000" font-family="sans-serif" font-size="12" lengthAdjust="spacingAndGlyphs" textLength="122" x="330" y="143.1074">decorated_element</text>
      <line style="stroke: #A80036; stroke-width: 1.5;" x1="302" x2="454" y1="154.9531" y2="154.9531"/>
      <line style="stroke: #A80036; stroke-width: 1.5;" x1="302" x2="454" y1="162.9531" y2="162.9531"/>
    </a>
    <a href="classclanguml_1_1common_1_1model_1_1relationship.html" target="_top" title="Class representing any relationship other than inheritance" xlink:actuate="onRequest" xlink:href="classclanguml_1_1common_1_1model_1_1relationship.html" xlink:show="new" xlink:title="Class representing any relationship other than inheritance" xlink:type="simple">
      <rect fill="#FEFECE" filter="url(#f1vu1ccu5o6u2m)" height="48" id="C_0002046336758797367926" style="stroke: #A80036; stroke-width: 1.5;" width="106" x="313" y="230.9531"/>
      <ellipse cx="328" cy="246.9531" fill="#ADD1B2" rx="11" ry="11" style="stroke: #A80036; stroke-width: 1.0;"/>
      <path d="M330.9688,252.5938 Q330.3906,252.8906 329.75,253.0313 Q329.1094,253.1875 328.4063,253.1875 Q325.9063,253.1875 324.5781,251.5469 Q323.2656,249.8906 323.2656,246.7656 Q323.2656,243.6406 324.5781,241.9844 Q325.9063,240.3281 328.4063,240.3281 Q329.1094,240.3281 329.75,240.4844 Q330.4063,240.6406 330.9688,240.9375 L330.9688,243.6563 Q330.3438,243.0781 329.75,242.8125 Q329.1563,242.5313 328.5313,242.5313 Q327.1875,242.5313 326.5,243.6094 Q325.8125,244.6719 325.8125,246.7656 Q325.8125,248.8594 326.5,249.9375 Q327.1875,251 328.5313,251 Q329.1563,251 329.75,250.7344 Q330.3438,250.4531 330.9688,249.875 L330.9688,252.5938 Z "/>
      <text fill="#000000" font-family="sans-serif" font-size="12" lengthAdjust="spacingAndGlyphs" textLength="74" x="342" y="251.1074">relationship</text>
      <line style="stroke: #A80036; stroke-width: 1.5;" x1="314" x2="418" y1="262.9531" y2="262.9531"/>
      <line style="stroke: #A80036; stroke-width: 1.5;" x1="314" x2="418" y1="270.9531" y2="270.9531"/>
    </a>
    <a href="classclanguml_1_1common_1_1model_1_1source__location.html" target="_top" title="Base class of all diagram elements that have source location." xlink:actuate="onRequest" xlink:href="classclanguml_1_1common_1_1model_1_1source__location.html" xlink:show="new" xlink:title="Base class of all diagram elements that have source location." xlink:type="simple">
      <rect fill="#FEFECE" filter="url(#f1vu1ccu5o6u2m)" height="48" id="C_0000895261582183440230" style="stroke: #A80036; stroke-width: 1.5;" width="131" x="490.5" y="122.9531"/>
      <ellipse cx="505.5" cy="138.9531" fill="#ADD1B2" rx="11" ry="11" style="stroke: #A80036; stroke-width: 1.0;"/>
      <path d="M508.4688,144.5938 Q507.8906,144.8906 507.25,145.0313 Q506.6094,145.1875 505.9063,145.1875 Q503.4063,145.1875 502.0781,143.5469 Q500.7656,141.8906 500.7656,138.7656 Q500.7656,135.6406 502.0781,133.9844 Q503.4063,132.3281 505.9063,132.3281 Q506.6094,132.3281 507.25,132.4844 Q507.9063,132.6406 508.4688,132.9375 L508.4688,135.6563 Q507.8438,135.0781 507.25,134.8125 Q506.6563,134.5313 506.0313,134.5313 Q504.6875,134.5313 504,135.6094 Q503.3125,136.6719 503.3125,138.7656 Q503.3125,140.8594 504,141.9375 Q504.6875,143 506.0313,143 Q506.6563,143 507.25,142.7344 Q507.8438,142.4531 508.4688,141.875 L508.4688,144.5938 Z "/>
      <text fill="#000000" font-family="sans-serif" font-size="12" lengthAdjust="spacingAndGlyphs" textLength="99" x="519.5" y="143.1074">source_location</text>
      <line style="stroke: #A80036; stroke-width: 1.5;" x1="491.5" x2="620.5" y1="154.9531" y2="154.9531"/>
      <line style="stroke: #A80036; stroke-width: 1.5;" x1="491.5" x2="620.5" y1="162.9531" y2="162.9531"/>
    </a>
    <a href="classclanguml_1_1common_1_1model_1_1diagram__element.html" target="_top" title="Base class for standalone diagram elements." xlink:actuate="onRequest" xlink:href="classclanguml_1_1common_1_1model_1_1diagram__element.html" xlink:show="new" xlink:title="Base class for standalone diagram elements." xlink:type="simple">
      <rect fill="#FEFECE" filter="url(#f1vu1ccu5o6u2m)" height="48" id="C_0001073500714379115414" style="stroke: #A80036; stroke-width: 1.5;" width="140" x="454" y="230.9531"/>
      <ellipse cx="469" cy="246.9531" fill="#ADD1B2" rx="11" ry="11" style="stroke: #A80036; stroke-width: 1.0;"/>
      <path d="M471.9688,252.5938 Q471.3906,252.8906 470.75,253.0313 Q470.1094,253.1875 469.4063,253.1875 Q466.9063,253.1875 465.5781,251.5469 Q464.2656,249.8906 464.2656,246.7656 Q464.2656,243.6406 465.5781,241.9844 Q466.9063,240.3281 469.4063,240.3281 Q470.1094,240.3281 470.75,240.4844 Q471.4063,240.6406 471.9688,240.9375 L471.9688,243.6563 Q471.3438,243.0781 470.75,242.8125 Q470.1563,242.5313 469.5313,242.5313 Q468.1875,242.5313 467.5,243.6094 Q466.8125,244.6719 466.8125,246.7656 Q466.8125,248.8594 467.5,249.9375 Q468.1875,251 469.5313,251 Q470.1563,251 470.75,250.7344 Q471.3438,250.4531 471.9688,249.875 L471.9688,252.5938 Z "/>
      <text fill="#000000" font-family="sans-serif" font-size="12" lengthAdjust="spacingAndGlyphs" textLength="108" x="483" y="251.1074">diagram_element</text>
      <line style="stroke: #A80036; stroke-width: 1.5;" x1="455" x2="593" y1="262.9531" y2="262.9531"/>
      <line style="stroke: #A80036; stroke-width: 1.5;" x1="455" x2="593" y1="270.9531" y2="270.9531"/>
    </a>
    <a href="classclanguml_1_1common_1_1model_1_1element.html" target="_top" title="Base class for any element qualified by namespace." xlink:actuate="onRequest" xlink:href="classclanguml_1_1common_1_1model_1_1element.html" xlink:show="new" xlink:title="Base class for any element qualified by namespace." xlink:type="simple">
      <rect fill="#FEFECE" filter="url(#f1vu1ccu5o6u2m)" height="48" id="C_0002069520381434407937" style="stroke: #A80036; stroke-width: 1.5;" width="83" x="404.5" y="338.9531"/>
      <ellipse cx="419.5" cy="354.9531" fill="#ADD1B2" rx="11" ry="11" style="stroke: #A80036; stroke-width: 1.0;"/>
      <path d="M422.4688,360.5938 Q421.8906,360.8906 421.25,361.0313 Q420.6094,361.1875 419.9063,361.1875 Q417.4063,361.1875 416.0781,359.5469 Q414.7656,357.8906 414.7656,354.7656 Q414.7656,351.6406 416.0781,349.9844 Q417.4063,348.3281 419.9063,348.3281 Q420.6094,348.3281 421.25,348.4844 Q421.9063,348.6406 422.4688,348.9375 L422.4688,351.6563 Q421.8438,351.0781 421.25,350.8125 Q420.6563,350.5313 420.0313,350.5313 Q418.6875,350.5313 418,351.6094 Q417.3125,352.6719 417.3125,354.7656 Q417.3125,356.8594 418,357.9375 Q418.6875,359 420.0313,359 Q420.6563,359 421.25,358.7344 Q421.8438,358.4531 422.4688,357.875 L422.4688,360.5938 Z "/>
      <text fill="#000000" font-family="sans-serif" font-size="12" lengthAdjust="spacingAndGlyphs" textLength="51" x="433.5" y="359.1074">element</text>
      <line style="stroke: #A80036; stroke-width: 1.5;" x1="405.5" x2="486.5" y1="370.9531" y2="370.9531"/>
      <line style="stroke: #A80036; stroke-width: 1.5;" x1="405.5" x2="486.5" y1="378.9531" y2="378.9531"/>
    </a>
    <a href="classclanguml_1_1common_1_1model_1_1template__element.html" target="_top" title="Base class for any element qualified by namespace." xlink:actuate="onRequest" xlink:href="classclanguml_1_1common_1_1model_1_1template__element.html" xlink:show="new" xlink:title="Base class for any element qualified by namespace." xlink:type="simple">
      <rect fill="#FEFECE" filter="url(#f1vu1ccu5o6u2m)" height="48" id="C_0001673103894976412298" style="stroke: #A80036; stroke-width: 1.5;" width="145" x="301.5" y="446.9531"/>
      <ellipse cx="316.5" cy="462.9531" fill="#ADD1B2" rx="11" ry="11" style="stroke: #A80036; stroke-width: 1.0;"/>
      <path d="M319.4688,468.5938 Q318.8906,468.8906 318.25,469.0313 Q317.6094,469.1875 316.9063,469.1875 Q314.4063,469.1875 313.0781,467.5469 Q311.7656,465.8906 311.7656,462.7656 Q311.7656,459.6406 313.0781,457.9844 Q314.4063,456.3281 316.9063,456.3281 Q317.6094,456.3281 318.25,456.4844 Q318.9063,456.6406 319.4688,456.9375 L319.4688,459.6563 Q318.8438,459.0781 318.25,458.8125 Q317.6563,458.5313 317.0313,458.5313 Q315.6875,458.5313 315,459.6094 Q314.3125,460.6719 314.3125,462.7656 Q314.3125,464.8594 315,465.9375 Q315.6875,467 317.0313,467 Q317.6563,467 318.25,466.7344 Q318.8438,466.4531 319.4688,465.875 L319.4688,468.5938 Z "/>
      <text fill="#000000" font-family="sans-serif" font-size="12" lengthAdjust="spacingAndGlyphs" textLength="113" x="330.5" y="467.1074">template_element</text>
      <line style="stroke: #A80036; stroke-width: 1.5;" x1="302.5" x2="445.5" y1="478.9531" y2="478.9531"/>
      <line style="stroke: #A80036; stroke-width: 1.5;" x1="302.5" x2="445.5" y1="486.9531" y2="486.9531"/>
    </a>
    <a href="classclanguml_1_1common_1_1model_1_1source__file.html" target="_top" title="Diagram element representing some file or directory." xlink:actuate="onRequest" xlink:href="classclanguml_1_1common_1_1model_1_1source__file.html" xlink:show="new" xlink:title="Diagram element representing some file or directory." xlink:type="simple">
      <rect fill="#FEFECE" filter="url(#f1vu1ccu5o6u2m)" height="48" id="C_0000785714713072053129" style="stroke: #A80036; stroke-width: 1.5;" width="99" x="522.5" y="338.9531"/>
      <ellipse cx="537.5" cy="354.9531" fill="#ADD1B2" rx="11" ry="11" style="stroke: #A80036; stroke-width: 1.0;"/>
      <path d="M540.4688,360.5938 Q539.8906,360.8906 539.25,361.0313 Q538.6094,361.1875 537.9063,361.1875 Q535.4063,361.1875 534.0781,359.5469 Q532.7656,357.8906 532.7656,354.7656 Q532.7656,351.6406 534.0781,349.9844 Q535.4063,348.3281 537.9063,348.3281 Q538.6094,348.3281 539.25,348.4844 Q539.9063,348.6406 540.4688,348.9375 L540.4688,351.6563 Q539.8438,351.0781 539.25,350.8125 Q538.6563,350.5313 538.0313,350.5313 Q536.6875,350.5313 536,351.6094 Q535.3125,352.6719 535.3125,354.7656 Q535.3125,356.8594 536,357.9375 Q536.6875,359 538.0313,359 Q538.6563,359 539.25,358.7344 Q539.8438,358.4531 540.4688,357.875 L540.4688,360.5938 Z "/>
      <text fill="#000000" font-family="sans-serif" font-size="12" lengthAdjust="spacingAndGlyphs" textLength="67" x="551.5" y="359.1074">source_file</text>
      <line style="stroke: #A80036; stroke-width: 1.5;" x1="523.5" x2="620.5" y1="370.9531" y2="370.9531"/>
      <line style="stroke: #A80036; stroke-width: 1.5;" x1="523.5" x2="620.5" y1="378.9531" y2="378.9531"/>
    </a>
    <a href="classclanguml_1_1common_1_1model_1_1package.html" target="_top" title="Diagram element representing namespace or directory package" xlink:actuate="onRequest" xlink:href="classclanguml_1_1common_1_1model_1_1package.html" xlink:show="new" xlink:title="Diagram element representing namespace or directory package" xlink:type="simple">
      <rect fill="#FEFECE" filter="url(#f1vu1ccu5o6u2m)" height="48" id="C_0002143286684830686854" style="stroke: #A80036; stroke-width: 1.5;" width="86" x="482" y="446.9531"/>
      <ellipse cx="497" cy="462.9531" fill="#ADD1B2" rx="11" ry="11" style="stroke: #A80036; stroke-width: 1.0;"/>
      <path d="M499.9688,468.5938 Q499.3906,468.8906 498.75,469.0313 Q498.1094,469.1875 497.4063,469.1875 Q494.9063,469.1875 493.5781,467.5469 Q492.2656,465.8906 492.2656,462.7656 Q492.2656,459.6406 493.5781,457.9844 Q494.9063,456.3281 497.4063,456.3281 Q498.1094,456.3281 498.75,456.4844 Q499.4063,456.6406 499.9688,456.9375 L499.9688,459.6563 Q499.3438,459.0781 498.75,458.8125 Q498.1563,458.5313 497.5313,458.5313 Q496.1875,458.5313 495.5,459.6094 Q494.8125,460.6719 494.8125,462.7656 Q494.8125,464.8594 495.5,465.9375 Q496.1875,467 497.5313,467 Q498.1563,467 498.75,466.7344 Q499.3438,466.4531 499.9688,465.875 L499.9688,468.5938 Z "/>
      <text fill="#000000" font-family="sans-serif" font-size="12" lengthAdjust="spacingAndGlyphs" textLength="54" x="511" y="467.1074">package</text>
      <line style="stroke: #A80036; stroke-width: 1.5;" x1="483" x2="567" y1="478.9531" y2="478.9531"/>
      <line style="stroke: #A80036; stroke-width: 1.5;" x1="483" x2="567" y1="486.9531" y2="486.9531"/>
    </a>
    <a href="classclanguml_1_1class__diagram_1_1model_1_1method__parameter.html" target="_top" title="Model of a method parameter." xlink:actuate="onRequest" xlink:href="classclanguml_1_1class__diagram_1_1model_1_1method__parameter.html" xlink:show="new" xlink:title="Model of a method parameter." xlink:type="simple">
      <rect fill="#FEFECE" filter="url(#f1vu1ccu5o6u2m)" height="48" id="C_0000605669033368926050" style="stroke: #A80036; stroke-width: 1.5;" width="152" x="765" y="636.9531"/>
      <ellipse cx="780" cy="652.9531" fill="#ADD1B2" rx="11" ry="11" style="stroke: #A80036; stroke-width: 1.0;"/>
      <path d="M782.9688,658.5938 Q782.3906,658.8906 781.75,659.0313 Q781.1094,659.1875 780.4063,659.1875 Q777.9063,659.1875 776.5781,657.5469 Q775.2656,655.8906 775.2656,652.7656 Q775.2656,649.6406 776.5781,647.9844 Q777.9063,646.3281 780.4063,646.3281 Q781.1094,646.3281 781.75,646.4844 Q782.4063,646.6406 782.9688,646.9375 L782.9688,649.6563 Q782.3438,649.0781 781.75,648.8125 Q781.1563,648.5313 780.5313,648.5313 Q779.1875,648.5313 778.5,649.6094 Q777.8125,650.6719 777.8125,652.7656 Q777.8125,654.8594 778.5,655.9375 Q779.1875,657 780.5313,657 Q781.1563,657 781.75,656.7344 Q782.3438,656.4531 782.9688,655.875 L782.9688,658.5938 Z "/>
      <text fill="#000000" font-family="sans-serif" font-size="12" lengthAdjust="spacingAndGlyphs" textLength="120" x="794" y="657.1074">method_parameter</text>
      <line style="stroke: #A80036; stroke-width: 1.5;" x1="766" x2="916" y1="668.9531" y2="668.9531"/>
      <line style="stroke: #A80036; stroke-width: 1.5;" x1="766" x2="916" y1="676.9531" y2="676.9531"/>
    </a>
    <a href="classclanguml_1_1class__diagram_1_1model_1_1class__element.html" target="_top" title="Base class for class elements (e.g. member or method)." xlink:actuate="onRequest" xlink:href="classclanguml_1_1class__diagram_1_1model_1_1class__element.html" xlink:show="new" xlink:title="Base class for class elements (e.g. member or method)." xlink:type="simple">
      <rect fill="#FEFECE" filter="url(#f1vu1ccu5o6u2m)" height="48" id="C_0000605866861866358037" style="stroke: #A80036; stroke-width: 1.5;" width="121" x="952.5" y="636.9531"/>
      <ellipse cx="967.5" cy="652.9531" fill="#ADD1B2" rx="11" ry="11" style="stroke: #A80036; stroke-width: 1.0;"/>
      <path d="M970.4688,658.5938 Q969.8906,658.8906 969.25,659.0313 Q968.6094,659.1875 967.9063,659.1875 Q965.4063,659.1875 964.0781,657.5469 Q962.7656,655.8906 962.7656,652.7656 Q962.7656,649.6406 964.0781,647.9844 Q965.4063,646.3281 967.9063,646.3281 Q968.6094,646.3281 969.25,646.4844 Q969.9063,646.6406 970.4688,646.9375 L970.4688,649.6563 Q969.8438,649.0781 969.25,648.8125 Q968.6563,648.5313 968.0313,648.5313 Q966.6875,648.5313 966,649.6094 Q965.3125,650.6719 965.3125,652.7656 Q965.3125,654.8594 966,655.9375 Q966.6875,657 968.0313,657 Q968.6563,657 969.25,656.7344 Q969.8438,656.4531 970.4688,655.875 L970.4688,658.5938 Z "/>
      <text fill="#000000" font-family="sans-serif" font-size="12" lengthAdjust="spacingAndGlyphs" textLength="89" x="981.5" y="657.1074">class_element</text>
      <line style="stroke: #A80036; stroke-width: 1.5;" x1="953.5" x2="1072.5" y1="668.9531" y2="668.9531"/>
      <line style="stroke: #A80036; stroke-width: 1.5;" x1="953.5" x2="1072.5" y1="676.9531" y2="676.9531"/>
    </a>
    <a href="classclanguml_1_1class__diagram_1_1model_1_1class__member.html" target="_top" title="Class member model." xlink:actuate="onRequest" xlink:href="classclanguml_1_1class__diagram_1_1model_1_1class__member.html" xlink:show="new" xlink:title="Class member model." xlink:type="simple">
      <rect fill="#FEFECE" filter="url(#f1vu1ccu5o6u2m)" height="48" id="C_0001796282762108527255" style="stroke: #A80036; stroke-width: 1.5;" width="121" x="798.5" y="744.9531"/>
      <ellipse cx="813.5" cy="760.9531" fill="#ADD1B2" rx="11" ry="11" style="stroke: #A80036; stroke-width: 1.0;"/>
      <path d="M816.4688,766.5938 Q815.8906,766.8906 815.25,767.0313 Q814.6094,767.1875 813.9063,767.1875 Q811.4063,767.1875 810.0781,765.5469 Q808.7656,763.8906 808.7656,760.7656 Q808.7656,757.6406 810.0781,755.9844 Q811.4063,754.3281 813.9063,754.3281 Q814.6094,754.3281 815.25,754.4844 Q815.9063,754.6406 816.4688,754.9375 L816.4688,757.6563 Q815.8438,757.0781 815.25,756.8125 Q814.6563,756.5313 814.0313,756.5313 Q812.6875,756.5313 812,757.6094 Q811.3125,758.6719 811.3125,760.7656 Q811.3125,762.8594 812,763.9375 Q812.6875,765 814.0313,765 Q814.6563,765 815.25,764.7344 Q815.8438,764.4531 816.4688,763.875 L816.4688,766.5938 Z "/>
      <text fill="#000000" font-family="sans-serif" font-size="12" lengthAdjust="spacingAndGlyphs" textLength="89" x="827.5" y="765.1074">class_member</text>
      <line style="stroke: #A80036; stroke-width: 1.5;" x1="799.5" x2="918.5" y1="776.9531" y2="776.9531"/>
      <line style="stroke: #A80036; stroke-width: 1.5;" x1="799.5" x2="918.5" y1="784.9531" y2="784.9531"/>
    </a>
    <a href="classclanguml_1_1class__diagram_1_1model_1_1class__method.html" target="_top" title="Class method model." xlink:actuate="onRequest" xlink:href="classclanguml_1_1class__diagram_1_1model_1_1class__method.html" xlink:show="new" xlink:title="Class method model." xlink:type="simple">
      <rect fill="#FEFECE" filter="url(#f1vu1ccu5o6u2m)" height="48" id="C_0000204145716468348671" style="stroke: #A80036; stroke-width: 1.5;" width="118" x="955" y="744.9531"/>
      <ellipse cx="970" cy="760.9531" fill="#ADD1B2" rx="11" ry="11" style="stroke: #A80036; stroke-width: 1.0;"/>
      <path d="M972.9688,766.5938 Q972.3906,766.8906 971.75,767.0313 Q971.1094,767.1875 970.4063,767.1875 Q967.9063,767.1875 966.5781,765.5469 Q965.2656,763.8906 965.2656,760.7656 Q965.2656,757.6406 966.5781,755.9844 Q967.9063,754.3281 970.4063,754.3281 Q971.1094,754.3281 971.75,754.4844 Q972.4063,754.6406 972.9688,754.9375 L972.9688,757.6563 Q972.3438,757.0781 971.75,756.8125 Q971.1563,756.5313 970.5313,756.5313 Q969.1875,756.5313 968.5,757.6094 Q967.8125,758.6719 967.8125,760.7656 Q967.8125,762.8594 968.5,763.9375 Q969.1875,765 970.5313,765 Q971.1563,765 971.75,764.7344 Q972.3438,764.4531 972.9688,763.875 L972.9688,766.5938 Z "/>
      <text fill="#000000" font-family="sans-serif" font-size="12" lengthAdjust="spacingAndGlyphs" textLength="86" x="984" y="765.1074">class_method</text>
      <line style="stroke: #A80036; stroke-width: 1.5;" x1="956" x2="1072" y1="776.9531" y2="776.9531"/>
      <line style="stroke: #A80036; stroke-width: 1.5;" x1="956" x2="1072" y1="784.9531" y2="784.9531"/>
    </a>
    <a href="classclanguml_1_1class__diagram_1_1model_1_1class__.html" target="_top" title="Diagram element representing a class or class template." xlink:actuate="onRequest" xlink:href="classclanguml_1_1class__diagram_1_1model_1_1class__.html" xlink:show="new" xlink:title="Diagram element representing a class or class template." xlink:type="simple">
      <rect fill="#FEFECE" filter="url(#f1vu1ccu5o6u2m)" height="48" id="C_0001292034357466653182" style="stroke: #A80036; stroke-width: 1.5;" width="70" x="427" y="636.9531"/>
      <ellipse cx="442" cy="652.9531" fill="#ADD1B2" rx="11" ry="11" style="stroke: #A80036; stroke-width: 1.0;"/>
      <path d="M444.9688,658.5938 Q444.3906,658.8906 443.75,659.0313 Q443.1094,659.1875 442.4063,659.1875 Q439.9063,659.1875 438.5781,657.5469 Q437.2656,655.8906 437.2656,652.7656 Q437.2656,649.6406 438.5781,647.9844 Q439.9063,646.3281 442.4063,646.3281 Q443.1094,646.3281 443.75,646.4844 Q444.4063,646.6406 444.9688,646.9375 L444.9688,649.6563 Q444.3438,649.0781 443.75,648.8125 Q443.1563,648.5313 442.5313,648.5313 Q441.1875,648.5313 440.5,649.6094 Q439.8125,650.6719 439.8125,652.7656 Q439.8125,654.8594 440.5,655.9375 Q441.1875,657 442.5313,657 Q443.1563,657 443.75,656.7344 Q444.3438,656.4531 444.9688,655.875 L444.9688,658.5938 Z "/>
      <text fill="#000000" font-family="sans-serif" font-size="12" lengthAdjust="spacingAndGlyphs" textLength="38" x="456" y="657.1074">class_</text>
      <line style="stroke: #A80036; stroke-width: 1.5;" x1="428" x2="496" y1="668.9531" y2="668.9531"/>
      <line style="stroke: #A80036; stroke-width: 1.5;" x1="428" x2="496" y1="676.9531" y2="676.9531"/>
    </a>
    <a href="classclanguml_1_1class__diagram_1_1model_1_1concept__.html" target="_top" title="Model of C++ concept." xlink:actuate="onRequest" xlink:href="classclanguml_1_1class__diagram_1_1model_1_1concept__.html" xlink:show="new" xlink:title="Model of C++ concept." xlink:type="simple">
      <rect fill="#FEFECE" filter="url(#f1vu1ccu5o6u2m)" height="48" id="C_0001374849051752224500" style="stroke: #A80036; stroke-width: 1.5;" width="89" x="640.5" y="636.9531"/>
      <ellipse cx="655.5" cy="652.9531" fill="#ADD1B2" rx="11" ry="11" style="stroke: #A80036; stroke-width: 1.0;"/>
      <path d="M658.4688,658.5938 Q657.8906,658.8906 657.25,659.0313 Q656.6094,659.1875 655.9063,659.1875 Q653.4063,659.1875 652.0781,657.5469 Q650.7656,655.8906 650.7656,652.7656 Q650.7656,649.6406 652.0781,647.9844 Q653.4063,646.3281 655.9063,646.3281 Q656.6094,646.3281 657.25,646.4844 Q657.9063,646.6406 658.4688,646.9375 L658.4688,649.6563 Q657.8438,649.0781 657.25,648.8125 Q656.6563,648.5313 656.0313,648.5313 Q654.6875,648.5313 654,649.6094 Q653.3125,650.6719 653.3125,652.7656 Q653.3125,654.8594 654,655.9375 Q654.6875,657 656.0313,657 Q656.6563,657 657.25,656.7344 Q657.8438,656.4531 658.4688,655.875 L658.4688,658.5938 Z "/>
      <text fill="#000000" font-family="sans-serif" font-size="12" lengthAdjust="spacingAndGlyphs" textLength="57" x="669.5" y="657.1074">concept_</text>
      <line style="stroke: #A80036; stroke-width: 1.5;" x1="641.5" x2="728.5" y1="668.9531" y2="668.9531"/>
      <line style="stroke: #A80036; stroke-width: 1.5;" x1="641.5" x2="728.5" y1="676.9531" y2="676.9531"/>
    </a>
    <a href="classclanguml_1_1class__diagram_1_1model_1_1enum__.html" target="_top" title="enum_" xlink:actuate="onRequest" xlink:href="classclanguml_1_1class__diagram_1_1model_1_1enum__.html" xlink:show="new" xlink:title="enum_" xlink:type="simple">
      <rect fill="#FEFECE" filter="url(#f1vu1ccu5o6u2m)" height="48" id="C_0000724392977093650506" style="stroke: #A80036; stroke-width: 1.5;" width="73" x="532.5" y="636.9531"/>
      <ellipse cx="547.5" cy="652.9531" fill="#ADD1B2" rx="11" ry="11" style="stroke: #A80036; stroke-width: 1.0;"/>
      <path d="M550.4688,658.5938 Q549.8906,658.8906 549.25,659.0313 Q548.6094,659.1875 547.9063,659.1875 Q545.4063,659.1875 544.0781,657.5469 Q542.7656,655.8906 542.7656,652.7656 Q542.7656,649.6406 544.0781,647.9844 Q545.4063,646.3281 547.9063,646.3281 Q548.6094,646.3281 549.25,646.4844 Q549.9063,646.6406 550.4688,646.9375 L550.4688,649.6563 Q549.8438,649.0781 549.25,648.8125 Q548.6563,648.5313 548.0313,648.5313 Q546.6875,648.5313 546,649.6094 Q545.3125,650.6719 545.3125,652.7656 Q545.3125,654.8594 546,655.9375 Q546.6875,657 548.0313,657 Q548.6563,657 549.25,656.7344 Q549.8438,656.4531 550.4688,655.875 L550.4688,658.5938 Z "/>
      <text fill="#000000" font-family="sans-serif" font-size="12" lengthAdjust="spacingAndGlyphs" textLength="41" x="561.5" y="657.1074">enum_</text>
      <line style="stroke: #A80036; stroke-width: 1.5;" x1="533.5" x2="604.5" y1="668.9531" y2="668.9531"/>
      <line style="stroke: #A80036; stroke-width: 1.5;" x1="533.5" x2="604.5" y1="676.9531" y2="676.9531"/>
    </a>
    <a href="structclanguml_1_1sequence__diagram_1_1model_1_1participant.html" target="_top" title="Base class for various types of sequence diagram participants" xlink:actuate="onRequest" xlink:href="structclanguml_1_1sequence__diagram_1_1model_1_1participant.html" xlink:show="new" xlink:title="Base class for various types of sequence diagram participants" xlink:type="simple">
      <rect fill="#FEFECE" filter="url(#f1vu1ccu5o6u2m)" height="48" id="C_0001400215772842495226" style="stroke: #A80036; stroke-width: 1.5;" width="100" x="212" y="636.9531"/>
      <ellipse cx="227" cy="652.9531" fill="#ADD1B2" rx="11" ry="11" style="stroke: #A80036; stroke-width: 1.0;"/>
      <path d="M229.9688,658.5938 Q229.3906,658.8906 228.75,659.0313 Q228.1094,659.1875 227.4063,659.1875 Q224.9063,659.1875 223.5781,657.5469 Q222.2656,655.8906 222.2656,652.7656 Q222.2656,649.6406 223.5781,647.9844 Q224.9063,646.3281 227.4063,646.3281 Q228.1094,646.3281 228.75,646.4844 Q229.4063,646.6406 229.9688,646.9375 L229.9688,649.6563 Q229.3438,649.0781 228.75,648.8125 Q228.1563,648.5313 227.5313,648.5313 Q226.1875,648.5313 225.5,649.6094 Q224.8125,650.6719 224.8125,652.7656 Q224.8125,654.8594 225.5,655.9375 Q226.1875,657 227.5313,657 Q228.1563,657 228.75,656.7344 Q229.3438,656.4531 229.9688,655.875 L229.9688,658.5938 Z "/>
      <text fill="#000000" font-family="sans-serif" font-size="12" lengthAdjust="spacingAndGlyphs" textLength="68" x="241" y="657.1074">participant</text>
      <line style="stroke: #A80036; stroke-width: 1.5;" x1="213" x2="311" y1="668.9531" y2="668.9531"/>
      <line style="stroke: #A80036; stroke-width: 1.5;" x1="213" x2="311" y1="676.9531" y2="676.9531"/>
    </a>
    <a href="structclanguml_1_1sequence__diagram_1_1model_1_1class__.html" target="_top" title="Sequence diagram participant representing a class." xlink:actuate="onRequest" xlink:href="structclanguml_1_1sequence__diagram_1_1model_1_1class__.html" xlink:show="new" xlink:title="Sequence diagram participant representing a class." xlink:type="simple">
      <rect fill="#FEFECE" filter="url(#f1vu1ccu5o6u2m)" height="48" id="C_0000885514871619471610" style="stroke: #A80036; stroke-width: 1.5;" width="70" x="109" y="744.9531"/>
      <ellipse cx="124" cy="760.9531" fill="#ADD1B2" rx="11" ry="11" style="stroke: #A80036; stroke-width: 1.0;"/>
      <path d="M126.9688,766.5938 Q126.3906,766.8906 125.75,767.0313 Q125.1094,767.1875 124.4063,767.1875 Q121.9063,767.1875 120.5781,765.5469 Q119.2656,763.8906 119.2656,760.7656 Q119.2656,757.6406 120.5781,755.9844 Q121.9063,754.3281 124.4063,754.3281 Q125.1094,754.3281 125.75,754.4844 Q126.4063,754.6406 126.9688,754.9375 L126.9688,757.6563 Q126.3438,757.0781 125.75,756.8125 Q125.1563,756.5313 124.5313,756.5313 Q123.1875,756.5313 122.5,757.6094 Q121.8125,758.6719 121.8125,760.7656 Q121.8125,762.8594 122.5,763.9375 Q123.1875,765 124.5313,765 Q125.1563,765 125.75,764.7344 Q126.3438,764.4531 126.9688,763.875 L126.9688,766.5938 Z "/>
      <text fill="#000000" font-family="sans-serif" font-size="12" lengthAdjust="spacingAndGlyphs" textLength="38" x="138" y="765.1074">class_</text>
      <line style="stroke: #A80036; stroke-width: 1.5;" x1="110" x2="178" y1="776.9531" y2="776.9531"/>
      <line style="stroke: #A80036; stroke-width: 1.5;" x1="110" x2="178" y1="784.9531" y2="784.9531"/>
    </a>
    <a href="structclanguml_1_1sequence__diagram_1_1model_1_1function.html" target="_top" title="Participant mode representing a free function." xlink:actuate="onRequest" xlink:href="structclanguml_1_1sequence__diagram_1_1model_1_1function.html" xlink:show="new" xlink:title="Participant mode representing a free function." xlink:type="simple">
      <rect fill="#FEFECE" filter="url(#f1vu1ccu5o6u2m)" height="48" id="C_0000232638456031681828" style="stroke: #A80036; stroke-width: 1.5;" width="83" x="214.5" y="744.9531"/>
      <ellipse cx="229.5" cy="760.9531" fill="#ADD1B2" rx="11" ry="11" style="stroke: #A80036; stroke-width: 1.0;"/>
      <path d="M232.4688,766.5938 Q231.8906,766.8906 231.25,767.0313 Q230.6094,767.1875 229.9063,767.1875 Q227.4063,767.1875 226.0781,765.5469 Q224.7656,763.8906 224.7656,760.7656 Q224.7656,757.6406 226.0781,755.9844 Q227.4063,754.3281 229.9063,754.3281 Q230.6094,754.3281 231.25,754.4844 Q231.9063,754.6406 232.4688,754.9375 L232.4688,757.6563 Q231.8438,757.0781 231.25,756.8125 Q230.6563,756.5313 230.0313,756.5313 Q228.6875,756.5313 228,757.6094 Q227.3125,758.6719 227.3125,760.7656 Q227.3125,762.8594 228,763.9375 Q228.6875,765 230.0313,765 Q230.6563,765 231.25,764.7344 Q231.8438,764.4531 232.4688,763.875 L232.4688,766.5938 Z "/>
      <text fill="#000000" font-family="sans-serif" font-size="12" lengthAdjust="spacingAndGlyphs" textLength="51" x="243.5" y="765.1074">function</text>
      <line style="stroke: #A80036; stroke-width: 1.5;" x1="215.5" x2="296.5" y1="776.9531" y2="776.9531"/>
      <line style="stroke: #A80036; stroke-width: 1.5;" x1="215.5" x2="296.5" y1="784.9531" y2="784.9531"/>
    </a>
    <a href="structclanguml_1_1sequence__diagram_1_1model_1_1method.html" target="_top" title="Participant model representing a method" xlink:actuate="onRequest" xlink:href="structclanguml_1_1sequence__diagram_1_1model_1_1method.html" xlink:show="new" xlink:title="Participant model representing a method" xlink:type="simple">
      <rect fill="#FEFECE" filter="url(#f1vu1ccu5o6u2m)" height="48" id="C_0000817665972547784504" style="stroke: #A80036; stroke-width: 1.5;" width="80" x="62" y="852.9531"/>
      <ellipse cx="77" cy="868.9531" fill="#ADD1B2" rx="11" ry="11" style="stroke: #A80036; stroke-width: 1.0;"/>
      <path d="M79.9688,874.5938 Q79.3906,874.8906 78.75,875.0313 Q78.1094,875.1875 77.4063,875.1875 Q74.9063,875.1875 73.5781,873.5469 Q72.2656,871.8906 72.2656,868.7656 Q72.2656,865.6406 73.5781,863.9844 Q74.9063,862.3281 77.4063,862.3281 Q78.1094,862.3281 78.75,862.4844 Q79.4063,862.6406 79.9688,862.9375 L79.9688,865.6563 Q79.3438,865.0781 78.75,864.8125 Q78.1563,864.5313 77.5313,864.5313 Q76.1875,864.5313 75.5,865.6094 Q74.8125,866.6719 74.8125,868.7656 Q74.8125,870.8594 75.5,871.9375 Q76.1875,873 77.5313,873 Q78.1563,873 78.75,872.7344 Q79.3438,872.4531 79.9688,871.875 L79.9688,874.5938 Z "/>
      <text fill="#000000" font-family="sans-serif" font-size="12" lengthAdjust="spacingAndGlyphs" textLength="48" x="91" y="873.1074">method</text>
      <line style="stroke: #A80036; stroke-width: 1.5;" x1="63" x2="141" y1="884.9531" y2="884.9531"/>
      <line style="stroke: #A80036; stroke-width: 1.5;" x1="63" x2="141" y1="892.9531" y2="892.9531"/>
    </a>
    <a href="structclanguml_1_1sequence__diagram_1_1model_1_1function__template.html" target="_top" title="Participant model representing a function template." xlink:actuate="onRequest" xlink:href="structclanguml_1_1sequence__diagram_1_1model_1_1function__template.html" xlink:show="new" xlink:title="Participant model representing a function template." xlink:type="simple">
      <rect fill="#FEFECE" filter="url(#f1vu1ccu5o6u2m)" height="48" id="C_0002280191967493310558" style="stroke: #A80036; stroke-width: 1.5;" width="145" x="177.5" y="852.9531"/>
      <ellipse cx="192.5" cy="868.9531" fill="#ADD1B2" rx="11" ry="11" style="stroke: #A80036; stroke-width: 1.0;"/>
      <path d="M195.4688,874.5938 Q194.8906,874.8906 194.25,875.0313 Q193.6094,875.1875 192.9063,875.1875 Q190.4063,875.1875 189.0781,873.5469 Q187.7656,871.8906 187.7656,868.7656 Q187.7656,865.6406 189.0781,863.9844 Q190.4063,862.3281 192.9063,862.3281 Q193.6094,862.3281 194.25,862.4844 Q194.9063,862.6406 195.4688,862.9375 L195.4688,865.6563 Q194.8438,865.0781 194.25,864.8125 Q193.6563,864.5313 193.0313,864.5313 Q191.6875,864.5313 191,865.6094 Q190.3125,866.6719 190.3125,868.7656 Q190.3125,870.8594 191,871.9375 Q191.6875,873 193.0313,873 Q193.6563,873 194.25,872.7344 Q194.8438,872.4531 195.4688,871.875 L195.4688,874.5938 Z "/>
      <text fill="#000000" font-family="sans-serif" font-size="12" lengthAdjust="spacingAndGlyphs" textLength="113" x="206.5" y="873.1074">function_template</text>
      <line style="stroke: #A80036; stroke-width: 1.5;" x1="178.5" x2="321.5" y1="884.9531" y2="884.9531"/>
      <line style="stroke: #A80036; stroke-width: 1.5;" x1="178.5" x2="321.5" y1="892.9531" y2="892.9531"/>
    </a>
    <a href="classclanguml_1_1sequence__diagram_1_1model_1_1message.html" target="_top" title="Model of a sequence diagram message." xlink:actuate="onRequest" xlink:href="classclanguml_1_1sequence__diagram_1_1model_1_1message.html" xlink:show="new" xlink:title="Model of a sequence diagram message." xlink:type="simple">
      <rect fill="#FEFECE" filter="url(#f1vu1ccu5o6u2m)" height="48" id="C_0002228653068706235818" style="stroke: #A80036; stroke-width: 1.5;" width="89" x="87.5" y="636.9531"/>
      <ellipse cx="102.5" cy="652.9531" fill="#ADD1B2" rx="11" ry="11" style="stroke: #A80036; stroke-width: 1.0;"/>
      <path d="M105.4688,658.5938 Q104.8906,658.8906 104.25,659.0313 Q103.6094,659.1875 102.9063,659.1875 Q100.4063,659.1875 99.0781,657.5469 Q97.7656,655.8906 97.7656,652.7656 Q97.7656,649.6406 99.0781,647.9844 Q100.4063,646.3281 102.9063,646.3281 Q103.6094,646.3281 104.25,646.4844 Q104.9063,646.6406 105.4688,646.9375 L105.4688,649.6563 Q104.8438,649.0781 104.25,648.8125 Q103.6563,648.5313 103.0313,648.5313 Q101.6875,648.5313 101,649.6094 Q100.3125,650.6719 100.3125,652.7656 Q100.3125,654.8594 101,655.9375 Q101.6875,657 103.0313,657 Q103.6563,657 104.25,656.7344 Q104.8438,656.4531 105.4688,655.875 L105.4688,658.5938 Z "/>
      <text fill="#000000" font-family="sans-serif" font-size="12" lengthAdjust="spacingAndGlyphs" textLength="57" x="116.5" y="657.1074">message</text>
      <line style="stroke: #A80036; stroke-width: 1.5;" x1="88.5" x2="175.5" y1="668.9531" y2="668.9531"/>
      <line style="stroke: #A80036; stroke-width: 1.5;" x1="88.5" x2="175.5" y1="676.9531" y2="676.9531"/>
    </a>
    <path d="M373.13,190.9731 C371.59,204.5331 369.96,218.9931 368.64,230.6331 " fill="none" id="C_0001117102382624673118&lt;-C_0002046336758797367926" style="stroke: #A80036; stroke-width: 1.0;"/>
    <polygon fill="none" points="366.19,190.0431,375.4,170.9531,380.1,191.6131,366.19,190.0431" style="stroke: #A80036; stroke-width: 1.0;"/>
    <path d="M426.18,182.9331 C447.85,198.6631 472.84,216.8031 492.13,230.8131 " fill="none" id="C_0001117102382624673118&lt;-C_0001073500714379115414" style="stroke: #A80036; stroke-width: 1.0;"/>
    <polygon fill="none" points="421.75,188.3731,409.68,170.9531,429.98,177.0431,421.75,188.3731" style="stroke: #A80036; stroke-width: 1.0;"/>
    <path d="M543.16,190.4931 C539.02,204.1831 534.6,218.8531 531.04,230.6331 " fill="none" id="C_0000895261582183440230&lt;-C_0001073500714379115414" style="stroke: #A80036; stroke-width: 1.0;"/>
    <polygon fill="none" points="536.58,188.0731,549.06,170.9531,549.98,192.1231,536.58,188.0731" style="stroke: #A80036; stroke-width: 1.0;"/>
    <path d="M495.17,295.1331 C484.41,309.7531 472.54,325.8831 463.16,338.6331 " fill="none" id="C_0001073500714379115414&lt;-C_0002069520381434407937" style="stroke: #A80036; stroke-width: 1.0;"/>
    <polygon fill="none" points="489.58,290.9131,507.08,278.9531,500.86,299.2131,489.58,290.9131" style="stroke: #A80036; stroke-width: 1.0;"/>
    <path d="M419.06,403.6131 C409.22,418.1031 398.41,434.0231 389.84,446.6331 " fill="none" id="C_0002069520381434407937&lt;-C_0001673103894976412298" style="stroke: #A80036; stroke-width: 1.0;"/>
    <polygon fill="none" points="413.35,399.5631,430.38,386.9531,424.93,407.4331,413.35,399.5631" style="stroke: #A80036; stroke-width: 1.0;"/>
    <path d="M542.83,297.5231 C549.15,311.4931 555.98,326.5731 561.44,338.6331 " fill="none" id="C_0001073500714379115414&lt;-C_0000785714713072053129" style="stroke: #A80036; stroke-width: 1.0;"/>
    <polygon fill="none" points="536.29,300.0631,534.42,278.9531,549.04,294.2831,536.29,300.0631" style="stroke: #A80036; stroke-width: 1.0;"/>
    <path d="M475.2,403.1331 C486.1,417.7531 498.12,433.8831 507.62,446.6331 " fill="none" id="C_0002069520381434407937&lt;-C_0002143286684830686854" style="stroke: #A80036; stroke-width: 1.0;"/>
    <polygon fill="none" points="469.48,407.1731,463.14,386.9531,480.71,398.8031,469.48,407.1731" style="stroke: #A80036; stroke-width: 1.0;"/>
    <path d="M474.49,174.4931 C529.01,190.9431 590.46,212.4131 612,230.9531 C747.66,347.7131 815.68,565.2931 835.05,636.6331 " fill="none" id="C_0001117102382624673118&lt;-C_0000605669033368926050" style="stroke: #A80036; stroke-width: 1.0;"/>
    <polygon fill="none" points="472.38,181.1631,455.19,168.7831,476.35,167.7431,472.38,181.1631" style="stroke: #A80036; stroke-width: 1.0;"/>
    <path d="M474.95,173.4631 C550.38,193.7931 644.87,220.5231 661,230.9531 C833.12,342.2431 962.27,564.8431 1000.99,636.8831 " fill="none" id="C_0001117102382624673118&lt;-C_0000605866861866358037" style="stroke: #A80036; stroke-width: 1.0;"/>
    <polygon fill="none" points="472.76,180.1231,455.26,168.1831,476.39,166.6031,472.76,180.1231" style="stroke: #A80036; stroke-width: 1.0;"/>
    <path d="M641.71,156.0631 C739.67,167.1231 891.58,190.3731 931,230.9531 C1043.14,346.3931 1025.7,565.3131 1016.46,636.7631 " fill="none" id="C_0000895261582183440230&lt;-C_0000605866861866358037" style="stroke: #A80036; stroke-width: 1.0;"/>
    <polygon fill="none" points="640.81,163.0031,621.68,153.8831,642.32,149.0831,640.81,163.0031" style="stroke: #A80036; stroke-width: 1.0;"/>
    <path d="M962.86,696.4631 C939.84,712.3031 913.17,730.6631 892.62,744.8131 " fill="none" id="C_0000605866861866358037&lt;-C_0001796282762108527255" style="stroke: #A80036; stroke-width: 1.0;"/>
    <polygon fill="none" points="959.14,690.5231,979.58,684.9531,967.08,702.0631,959.14,690.5231" style="stroke: #A80036; stroke-width: 1.0;"/>
    <path d="M1013.41,704.9731 C1013.53,718.5331 1013.67,732.9931 1013.78,744.6331 " fill="none" id="C_0000605866861866358037&lt;-C_0000204145716468348671" style="stroke: #A80036; stroke-width: 1.0;"/>
    <polygon fill="none" points="1006.41,705.0231,1013.22,684.9531,1020.41,704.8831,1006.41,705.0231" style="stroke: #A80036; stroke-width: 1.0;"/>
    <path d="M393.36,513.3231 C411.1,551.2231 436.73,605.9531 451.12,636.7131 " fill="none" id="C_0001673103894976412298&lt;-C_0001292034357466653182" style="stroke: #A80036; stroke-width: 1.0;"/>
    <polygon fill="none" points="386.93,516.0831,384.79,495.0031,399.61,510.1531,386.93,516.0831" style="stroke: #A80036; stroke-width: 1.0;"/>
    <path d="M506.3,389.8431 C553.25,410.4731 611.79,437.4231 620,446.9531 C668.31,503.0531 680.72,594.4131 683.9,636.8831 " fill="none" id="C_0002069520381434407937&lt;-C_0001374849051752224500" style="stroke: #A80036; stroke-width: 1.0;"/>
    <polygon fill="none" points="503.25,396.1531,487.72,381.7431,508.85,383.3231,503.25,396.1531" style="stroke: #A80036; stroke-width: 1.0;"/>
    <path d="M505.86,391.9231 C539.57,409.0331 576.74,430.6931 586,446.9531 C620.8,508.0331 594.76,595.4031 578.89,636.6631 " fill="none" id="C_0002069520381434407937&lt;-C_0000724392977093650506" style="stroke: #A80036; stroke-width: 1.0;"/>
    <polygon fill="none" points="502.52,398.0831,487.69,382.9431,508.72,385.5231,502.52,398.0831" style="stroke: #A80036; stroke-width: 1.0;"/>
    <path d="M349.98,512.2831 C327.38,550.2131 294.34,605.6731 275.85,636.7131 " fill="none" id="C_0001673103894976412298&lt;-C_0001400215772842495226" style="stroke: #A80036; stroke-width: 1.0;"/>
    <polygon fill="none" points="344.02,508.6031,360.27,495.0031,356.04,515.7731,344.02,508.6031" style="stroke: #A80036; stroke-width: 1.0;"/>
    <path d="M221.29,698.5231 C204.27,713.8131 185,731.1231 169.96,744.6331 " fill="none" id="C_0001400215772842495226&lt;-C_0000885514871619471610" style="stroke: #A80036; stroke-width: 1.0;"/>
    <polygon fill="none" points="216.84,693.1131,236.4,684.9531,226.2,703.5231,216.84,693.1131" style="stroke: #A80036; stroke-width: 1.0;"/>
    <path d="M259.56,704.9731 C258.8,718.5331 257.98,732.9931 257.32,744.6331 " fill="none" id="C_0001400215772842495226&lt;-C_0000232638456031681828" style="stroke: #A80036; stroke-width: 1.0;"/>
    <polygon fill="none" points="252.58,704.5231,260.7,684.9531,266.56,705.3131,252.58,704.5231" style="stroke: #A80036; stroke-width: 1.0;"/>
    <path d="M229.83,809.3331 C220.59,820.8331 209.39,832.5531 197,840.9531 C182.69,850.6531 176.27,847.0931 160,852.9531 C154.19,855.0431 148.09,857.3431 142.12,859.6531 " fill="none" id="C_0000232638456031681828&lt;-C_0000817665972547784504" style="stroke: #A80036; stroke-width: 1.0;"/>
    <polygon fill="none" points="224.34,804.9831,241.85,793.0531,235.6,813.3031,224.34,804.9831" style="stroke: #A80036; stroke-width: 1.0;"/>
    <path d="M253.56,812.9731 C252.8,826.5331 251.98,840.9931 251.32,852.6331 " fill="none" id="C_0000232638456031681828&lt;-C_0002280191967493310558" style="stroke: #A80036; stroke-width: 1.0;"/>
    <polygon fill="none" points="246.58,812.5231,254.7,792.9531,260.56,813.3131,246.58,812.5231" style="stroke: #A80036; stroke-width: 1.0;"/>
    <path d="M462.03,288.8331 C437.68,302.9231 410.09,320.4031 387,338.9531 C287.91,418.5831 268.44,447.1931 195,550.9531 C175.05,579.1431 155.73,614.0531 143.86,636.6531 " fill="none" id="C_0001073500714379115414&lt;-C_0002228653068706235818" style="stroke: #A80036; stroke-width: 1.0;"/>
    <polygon fill="none" points="458.62,282.7131,479.48,278.9831,465.5,294.9031,458.62,282.7131" style="stroke: #A80036; stroke-width: 1.0;"/>
  </g>
</svg>
