<svg xmlns="http://www.w3.org/2000/svg" xmlns:xlink="http://www.w3.org/1999/xlink" contentStyleType="text/css" data-diagram-type="SEQUENCE" height="1840px" preserveAspectRatio="none" style="width:2792px;height:1840px;background:#FFFFFF;" version="1.1" viewBox="0 0 2792 1840" width="2792px" zoomAndPan="magnify">
  <title>PlantUML sequence diagram generator sequence diagram</title>
  <defs>
    <style type="text/css">a:hover { text-decoration: underline; }</style>
  </defs>
  <g>
    <text fill="#000000" font-family="sans-serif" font-size="14" font-weight="bold" lengthAdjust="spacing" textLength="407.6925" x="1193.5993" y="29.9659">PlantUML sequence diagram generator sequence diagram</text>
    <g>
      <title>src/common/generators/generators.cc</title>
      <rect fill="#FFFFFF" height="1679.7018" style="stroke:#181818;stroke-width:1;" width="10" x="169.9595" y="112.8419"/>
    </g>
    <g>
      <title>src/common/generators/generators.cc</title>
      <rect fill="#FFFFFF" height="1555.3441" style="stroke:#181818;stroke-width:1;" width="10" x="174.9595" y="196.2358"/>
    </g>
    <g>
      <title>src/common/generators/generators.cc</title>
      <rect fill="#FFFFFF" height="976.5324" style="stroke:#181818;stroke-width:1;" width="10" x="179.9595" y="407.4719"/>
    </g>
    <g>
      <title>src/common/generators/generators.cc</title>
      <rect fill="#FFFFFF" height="28" style="stroke:#181818;stroke-width:1;" width="10" x="179.9595" y="1474.6559"/>
    </g>
    <g>
      <title>src/common/generators/generators.cc</title>
      <rect fill="#FFFFFF" height="63.6879" style="stroke:#181818;stroke-width:1;" width="10" x="179.9595" y="1673.892"/>
    </g>
    <g>
      <title>src/common/generators/generators.h</title>
      <rect fill="#FFFFFF" height="14" style="stroke:#181818;stroke-width:1;" width="10" x="877.4019" y="232.9418"/>
    </g>
    <g>
      <title>src/common/generators/plantuml/generator.h</title>
      <rect fill="#FFFFFF" height="939.8263" style="stroke:#181818;stroke-width:1;" width="10" x="1181.3518" y="444.1779"/>
    </g>
    <g>
      <title>common::generators::plantuml::generator&lt;config::sequence_diagram,sequence_diagram::model::diagram&gt;</title>
      <rect fill="#FFFFFF" height="887.1203" style="stroke:#181818;stroke-width:1;" width="10" x="1713.9349" y="475.8839"/>
    </g>
    <g>
      <title>common::generators::plantuml::generator&lt;config::sequence_diagram,sequence_diagram::model::diagram&gt;</title>
      <rect fill="#FFFFFF" height="92.412" style="stroke:#181818;stroke-width:1;" width="10" x="1718.9349" y="668.708"/>
    </g>
    <g>
      <title>common::generators::plantuml::generator&lt;config::sequence_diagram,sequence_diagram::model::diagram&gt;</title>
      <rect fill="#FFFFFF" height="138.118" style="stroke:#181818;stroke-width:1;" width="10" x="1718.9349" y="863.2381"/>
    </g>
    <g>
      <title>common::generators::plantuml::generator&lt;config::sequence_diagram,sequence_diagram::model::diagram&gt;</title>
      <rect fill="#FFFFFF" height="28" style="stroke:#181818;stroke-width:1;" width="10" x="1718.9349" y="1033.0621"/>
    </g>
    <g>
      <title>common::generators::plantuml::generator&lt;config::sequence_diagram,sequence_diagram::model::diagram&gt;</title>
      <rect fill="#FFFFFF" height="60.706" style="stroke:#181818;stroke-width:1;" width="10" x="1718.9349" y="1163.1802"/>
    </g>
    <g>
      <title>common::generators::plantuml::generator&lt;config::sequence_diagram,sequence_diagram::model::diagram&gt;</title>
      <rect fill="#FFFFFF" height="92.412" style="stroke:#181818;stroke-width:1;" width="10" x="1718.9349" y="1270.5922"/>
    </g>
    <g>
      <title>common::generators::generator&lt;config::sequence_diagram,sequence_diagram::model::diagram&gt;</title>
      <rect fill="#FFFFFF" height="14" style="stroke:#181818;stroke-width:1;" width="10" x="2413.0124" y="507.5899"/>
    </g>
    <g>
      <title>common::generators::generator&lt;config::sequence_diagram,sequence_diagram::model::diagram&gt;</title>
      <rect fill="#FFFFFF" height="14" style="stroke:#181818;stroke-width:1;" width="10" x="2413.0124" y="553.2959"/>
    </g>
    <g>
      <title>common::generators::generator&lt;config::sequence_diagram,sequence_diagram::model::diagram&gt;</title>
      <rect fill="#FFFFFF" height="30" style="stroke:#181818;stroke-width:1;" width="10" x="2413.0124" y="599.002"/>
    </g>
    <g>
      <title>common::generators::generator&lt;config::sequence_diagram,sequence_diagram::model::diagram&gt;</title>
      <rect fill="#FFFFFF" height="55.706" style="stroke:#181818;stroke-width:1;" width="10" x="2413.0124" y="705.414"/>
    </g>
    <g>
      <title>common::generators::generator&lt;config::sequence_diagram,sequence_diagram::model::diagram&gt;</title>
      <rect fill="#FFFFFF" height="14" style="stroke:#181818;stroke-width:1;" width="10" x="2413.0124" y="926.6501"/>
    </g>
    <g>
      <title>common::generators::generator&lt;config::sequence_diagram,sequence_diagram::model::diagram&gt;</title>
      <rect fill="#FFFFFF" height="14" style="stroke:#181818;stroke-width:1;" width="10" x="2413.0124" y="972.3561"/>
    </g>
    <g>
      <title>common::generators::generator&lt;config::sequence_diagram,sequence_diagram::model::diagram&gt;</title>
      <rect fill="#FFFFFF" height="55.706" style="stroke:#181818;stroke-width:1;" width="10" x="2413.0124" y="1307.2982"/>
    </g>
    <rect fill="transparent" height="1657.7018" style="stroke:#000000;stroke-width:1.5;" width="2775.8911" x="10" y="127.8419"/>
    <rect fill="transparent" height="19.706" style="stroke:#000000;stroke-width:1.5;" width="235.2369" x="50" y="261.9418"/>
    <rect fill="transparent" height="19.706" style="stroke:#000000;stroke-width:1.5;" width="219.958" x="50" y="295.6478"/>
    <rect fill="transparent" height="1415.2261" style="stroke:#000000;stroke-width:1.5;" width="2755.8911" x="20" y="329.3538"/>
    <rect fill="transparent" height="1161.5961" style="stroke:#000000;stroke-width:1.5;" width="2735.8911" x="30" y="356.0598"/>
    <rect fill="transparent" height="111.118" style="stroke:#000000;stroke-width:1.5;" width="1408.1549" x="1347.7362" y="883.2381"/>
    <rect fill="transparent" height="115.0999" style="stroke:#000000;stroke-width:1.5;" width="339.1038" x="30" y="1622.48"/>
    <rect fill="transparent" height="36.6879" style="stroke:#000000;stroke-width:1.5;" width="309.1038" x="50" y="1693.892"/>
    <g>
      <title>src/common/generators/generators.cc</title>
      <rect fill="transparent" height="1723.4079" width="8" x="170.9595" y="79.1358"/>
      <line style="stroke:#181818;stroke-width:0.5;stroke-dasharray:5.0,5.0;" x1="174" x2="174" y1="79.1358" y2="1802.5437"/>
    </g>
    <g>
      <title>src/common/generators/generators.h</title>
      <rect fill="transparent" height="1723.4079" width="8" x="878.4019" y="79.1358"/>
      <line style="stroke:#181818;stroke-width:0.5;stroke-dasharray:5.0,5.0;" x1="881.8364" x2="881.8364" y1="79.1358" y2="1802.5437"/>
    </g>
    <g>
      <title>src/common/generators/plantuml/generator.h</title>
      <rect fill="transparent" height="1723.4079" width="8" x="1182.3518" y="79.1358"/>
      <line style="stroke:#181818;stroke-width:0.5;stroke-dasharray:5.0,5.0;" x1="1185.9674" x2="1185.9674" y1="79.1358" y2="1802.5437"/>
    </g>
    <g>
      <title>common::generators::plantuml::generator&lt;config::sequence_diagram,sequence_diagram::model::diagram&gt;</title>
      <rect fill="transparent" height="1723.4079" width="8" x="1714.9349" y="79.1358"/>
      <line style="stroke:#181818;stroke-width:0.5;stroke-dasharray:5.0,5.0;" x1="1718.7362" x2="1718.7362" y1="79.1358" y2="1802.5437"/>
    </g>
    <g>
      <title>common::generators::generator&lt;config::sequence_diagram,sequence_diagram::model::diagram&gt;</title>
      <rect fill="transparent" height="1723.4079" width="8" x="2414.0124" y="79.1358"/>
      <line style="stroke:#181818;stroke-width:0.5;stroke-dasharray:5.0,5.0;" x1="2417.1336" x2="2417.1336" y1="79.1358" y2="1802.5437"/>
    </g>
    <rect fill="#E2E2F0" height="33.0679" rx="2.5" ry="2.5" style="stroke:#181818;stroke-width:0.5;" width="269.919" x="40" y="45.0679"/>
    <text fill="#000000" font-family="sans-serif" font-size="14" lengthAdjust="spacing" textLength="255.919" x="47" y="67.0339">src/common/generators/generators.cc</text>
    <rect fill="#E2E2F0" height="33.0679" rx="2.5" ry="2.5" style="stroke:#181818;stroke-width:0.5;" width="269.919" x="40" y="1801.5437"/>
    <text fill="#000000" font-family="sans-serif" font-size="14" lengthAdjust="spacing" textLength="255.919" x="47" y="1823.5096">src/common/generators/generators.cc</text>
    <rect fill="#E2E2F0" height="33.0679" rx="2.5" ry="2.5" style="stroke:#181818;stroke-width:0.5;" width="265.1311" x="749.8364" y="45.0679"/>
    <text fill="#000000" font-family="sans-serif" font-size="14" lengthAdjust="spacing" textLength="251.1311" x="756.8364" y="67.0339">src/common/generators/generators.h</text>
    <rect fill="#E2E2F0" height="33.0679" rx="2.5" ry="2.5" style="stroke:#181818;stroke-width:0.5;" width="265.1311" x="749.8364" y="1801.5437"/>
    <text fill="#000000" font-family="sans-serif" font-size="14" lengthAdjust="spacing" textLength="251.1311" x="756.8364" y="1823.5096">src/common/generators/generators.h</text>
    <rect fill="#E2E2F0" height="33.0679" rx="2.5" ry="2.5" style="stroke:#181818;stroke-width:0.5;" width="322.7688" x="1024.9674" y="45.0679"/>
    <text fill="#000000" font-family="sans-serif" font-size="14" lengthAdjust="spacing" textLength="308.7688" x="1031.9674" y="67.0339">src/common/generators/plantuml/generator.h</text>
    <rect fill="#E2E2F0" height="33.0679" rx="2.5" ry="2.5" style="stroke:#181818;stroke-width:0.5;" width="322.7688" x="1024.9674" y="1801.5437"/>
    <text fill="#000000" font-family="sans-serif" font-size="14" lengthAdjust="spacing" textLength="308.7688" x="1031.9674" y="1823.5096">src/common/generators/plantuml/generator.h</text>
    <a href="" target="_top" title="generator" xlink:actuate="onRequest" xlink:href="" xlink:show="new" xlink:title="generator" xlink:type="simple">
      <rect fill="#E2E2F0" height="33.0679" rx="2.5" ry="2.5" style="stroke:#181818;stroke-width:0.5;" width="722.3973" x="1357.7362" y="45.0679"/>
      <text fill="#000000" font-family="sans-serif" font-size="14" lengthAdjust="spacing" textLength="708.3973" x="1364.7362" y="67.0339">common::generators::plantuml::generator&lt;config::sequence_diagram,sequence_diagram::model::diagram&gt;</text>
      <rect fill="#E2E2F0" height="33.0679" rx="2.5" ry="2.5" style="stroke:#181818;stroke-width:0.5;" width="722.3973" x="1357.7362" y="1801.5437"/>
      <text fill="#000000" font-family="sans-serif" font-size="14" lengthAdjust="spacing" textLength="708.3973" x="1364.7362" y="1823.5096">common::generators::plantuml::generator&lt;config::sequence_diagram,sequence_diagram::model::diagram&gt;</text>
    </a>
    <a href="" target="_top" title="generator" xlink:actuate="onRequest" xlink:href="" xlink:show="new" xlink:title="generator" xlink:type="simple">
      <rect fill="#E2E2F0" height="33.0679" rx="2.5" ry="2.5" style="stroke:#181818;stroke-width:0.5;" width="655.7576" x="2090.1336" y="45.0679"/>
      <text fill="#000000" font-family="sans-serif" font-size="14" lengthAdjust="spacing" textLength="641.7576" x="2097.1336" y="67.0339">common::generators::generator&lt;config::sequence_diagram,sequence_diagram::model::diagram&gt;</text>
      <rect fill="#E2E2F0" height="33.0679" rx="2.5" ry="2.5" style="stroke:#181818;stroke-width:0.5;" width="655.7576" x="2090.1336" y="1801.5437"/>
      <text fill="#000000" font-family="sans-serif" font-size="14" lengthAdjust="spacing" textLength="641.7576" x="2097.1336" y="1823.5096">common::generators::generator&lt;config::sequence_diagram,sequence_diagram::model::diagram&gt;</text>
    </a>
    <g>
      <title>src/common/generators/generators.cc</title>
      <rect fill="#FFFFFF" height="1679.7018" style="stroke:#181818;stroke-width:1;" width="10" x="169.9595" y="112.8419"/>
    </g>
    <g>
      <title>src/common/generators/generators.cc</title>
      <rect fill="#FFFFFF" height="1555.3441" style="stroke:#181818;stroke-width:1;" width="10" x="174.9595" y="196.2358"/>
    </g>
    <g>
      <title>src/common/generators/generators.cc</title>
      <rect fill="#FFFFFF" height="976.5324" style="stroke:#181818;stroke-width:1;" width="10" x="179.9595" y="407.4719"/>
    </g>
    <g>
      <title>src/common/generators/generators.cc</title>
      <rect fill="#FFFFFF" height="28" style="stroke:#181818;stroke-width:1;" width="10" x="179.9595" y="1474.6559"/>
    </g>
    <g>
      <title>src/common/generators/generators.cc</title>
      <rect fill="#FFFFFF" height="63.6879" style="stroke:#181818;stroke-width:1;" width="10" x="179.9595" y="1673.892"/>
    </g>
    <g>
      <title>src/common/generators/generators.h</title>
      <rect fill="#FFFFFF" height="14" style="stroke:#181818;stroke-width:1;" width="10" x="877.4019" y="232.9418"/>
    </g>
    <g>
      <title>src/common/generators/plantuml/generator.h</title>
      <rect fill="#FFFFFF" height="939.8263" style="stroke:#181818;stroke-width:1;" width="10" x="1181.3518" y="444.1779"/>
    </g>
    <g>
      <title>common::generators::plantuml::generator&lt;config::sequence_diagram,sequence_diagram::model::diagram&gt;</title>
      <rect fill="#FFFFFF" height="887.1203" style="stroke:#181818;stroke-width:1;" width="10" x="1713.9349" y="475.8839"/>
    </g>
    <g>
      <title>common::generators::plantuml::generator&lt;config::sequence_diagram,sequence_diagram::model::diagram&gt;</title>
      <rect fill="#FFFFFF" height="92.412" style="stroke:#181818;stroke-width:1;" width="10" x="1718.9349" y="668.708"/>
    </g>
    <g>
      <title>common::generators::plantuml::generator&lt;config::sequence_diagram,sequence_diagram::model::diagram&gt;</title>
      <rect fill="#FFFFFF" height="138.118" style="stroke:#181818;stroke-width:1;" width="10" x="1718.9349" y="863.2381"/>
    </g>
    <g>
      <title>common::generators::plantuml::generator&lt;config::sequence_diagram,sequence_diagram::model::diagram&gt;</title>
      <rect fill="#FFFFFF" height="28" style="stroke:#181818;stroke-width:1;" width="10" x="1718.9349" y="1033.0621"/>
    </g>
    <g>
      <title>common::generators::plantuml::generator&lt;config::sequence_diagram,sequence_diagram::model::diagram&gt;</title>
      <rect fill="#FFFFFF" height="60.706" style="stroke:#181818;stroke-width:1;" width="10" x="1718.9349" y="1163.1802"/>
    </g>
    <g>
      <title>common::generators::plantuml::generator&lt;config::sequence_diagram,sequence_diagram::model::diagram&gt;</title>
      <rect fill="#FFFFFF" height="92.412" style="stroke:#181818;stroke-width:1;" width="10" x="1718.9349" y="1270.5922"/>
    </g>
    <g>
      <title>common::generators::generator&lt;config::sequence_diagram,sequence_diagram::model::diagram&gt;</title>
      <rect fill="#FFFFFF" height="14" style="stroke:#181818;stroke-width:1;" width="10" x="2413.0124" y="507.5899"/>
    </g>
    <g>
      <title>common::generators::generator&lt;config::sequence_diagram,sequence_diagram::model::diagram&gt;</title>
      <rect fill="#FFFFFF" height="14" style="stroke:#181818;stroke-width:1;" width="10" x="2413.0124" y="553.2959"/>
    </g>
    <g>
      <title>common::generators::generator&lt;config::sequence_diagram,sequence_diagram::model::diagram&gt;</title>
      <rect fill="#FFFFFF" height="30" style="stroke:#181818;stroke-width:1;" width="10" x="2413.0124" y="599.002"/>
    </g>
    <g>
      <title>common::generators::generator&lt;config::sequence_diagram,sequence_diagram::model::diagram&gt;</title>
      <rect fill="#FFFFFF" height="55.706" style="stroke:#181818;stroke-width:1;" width="10" x="2413.0124" y="705.414"/>
    </g>
    <g>
      <title>common::generators::generator&lt;config::sequence_diagram,sequence_diagram::model::diagram&gt;</title>
      <rect fill="#FFFFFF" height="14" style="stroke:#181818;stroke-width:1;" width="10" x="2413.0124" y="926.6501"/>
    </g>
    <g>
      <title>common::generators::generator&lt;config::sequence_diagram,sequence_diagram::model::diagram&gt;</title>
      <rect fill="#FFFFFF" height="14" style="stroke:#181818;stroke-width:1;" width="10" x="2413.0124" y="972.3561"/>
    </g>
    <g>
      <title>common::generators::generator&lt;config::sequence_diagram,sequence_diagram::model::diagram&gt;</title>
      <rect fill="#FFFFFF" height="55.706" style="stroke:#181818;stroke-width:1;" width="10" x="2413.0124" y="1307.2982"/>
    </g>
    <polygon fill="#181818" points="157.9595,108.8419,167.9595,112.8419,157.9595,116.8419,161.9595,112.8419" style="stroke:#181818;stroke-width:1;"/>
    <line style="stroke:#181818;stroke-width:1;" x1="0" x2="163.9595" y1="112.8419" y2="112.8419"/>
    <text fill="#000000" font-family="sans-serif" font-size="13" lengthAdjust="spacing" textLength="120.4061" x="7" y="107.0328">generate_diagram()</text>
    <path d="M10,127.8419 L72.459,127.8419 L72.459,137.5479 L62.459,147.5479 L10,147.5479 L10,127.8419 " fill="#EEEEEE" style="stroke:#000000;stroke-width:1.5;"/>
    <rect fill="transparent" height="1657.7018" style="stroke:#000000;stroke-width:1.5;" width="2775.8911" x="10" y="127.8419"/>
    <text fill="#000000" font-family="sans-serif" font-size="13" font-weight="bold" lengthAdjust="spacing" textLength="17.459" x="25" y="142.7389">alt</text>
    <text fill="#000000" font-family="sans-serif" font-size="11" font-weight="bold" lengthAdjust="spacing" textLength="210.4285" x="87.459" y="141.6008">[diagram-&gt;type() == diagram_t::kClass]</text>
    <line style="stroke:#000000;stroke-width:1;stroke-dasharray:2.0,2.0;" x1="10" x2="2785.8911" y1="148.5479" y2="148.5479"/>
    <text fill="#000000" font-family="sans-serif" font-size="11" font-weight="bold" lengthAdjust="spacing" textLength="235.1233" x="15" y="160.3068">[diagram-&gt;type() == diagram_t::kSequence]</text>
    <a href="" target="_top" title="" xlink:actuate="onRequest" xlink:href="" xlink:show="new" xlink:title="" xlink:type="simple">
      <line style="stroke:#181818;stroke-width:1;" x1="179.9595" x2="226.9595" y1="183.2358" y2="183.2358"/>
      <line style="stroke:#181818;stroke-width:1;" x1="226.9595" x2="226.9595" y1="183.2358" y2="196.2358"/>
      <line style="stroke:#181818;stroke-width:1;" x1="185.9595" x2="226.9595" y1="196.2358" y2="196.2358"/>
      <polygon fill="#181818" points="195.9595,192.2358,185.9595,196.2358,195.9595,200.2358,191.9595,196.2358" style="stroke:#181818;stroke-width:1;"/>
      <text fill="#000000" font-family="sans-serif" font-size="13" lengthAdjust="spacing" textLength="328.5883" x="191.9595" y="177.4268">generate_diagram_impl&lt;config::sequence_diagram&gt;()</text>
    </a>
    <a href="" target="_top" title="" xlink:actuate="onRequest" xlink:href="" xlink:show="new" xlink:title="" xlink:type="simple">
      <polygon fill="#181818" points="865.4019,228.9418,875.4019,232.9418,865.4019,236.9418,869.4019,232.9418" style="stroke:#181818;stroke-width:1;"/>
      <line style="stroke:#181818;stroke-width:1;" x1="184.9595" x2="871.4019" y1="232.9418" y2="232.9418"/>
      <text fill="#000000" font-family="sans-serif" font-size="13" lengthAdjust="spacing" textLength="645.2684" x="191.9595" y="227.1328">generate&lt;sequence_diagram::model::diagram,config::sequence_diagram,sequence_diagram::visitor::tra...</text>
    </a>
    <polygon fill="#181818" points="195.9595,242.9418,185.9595,246.9418,195.9595,250.9418,191.9595,246.9418" style="stroke:#181818;stroke-width:1;"/>
    <line style="stroke:#181818;stroke-width:1;stroke-dasharray:2.0,2.0;" x1="189.9595" x2="881.4019" y1="246.9418" y2="246.9418"/>
    <path d="M50,261.9418 L112.459,261.9418 L112.459,271.6478 L102.459,281.6478 L50,281.6478 L50,261.9418 " fill="#EEEEEE" style="stroke:#000000;stroke-width:1.5;"/>
    <rect fill="transparent" height="19.706" style="stroke:#000000;stroke-width:1.5;" width="235.2369" x="50" y="261.9418"/>
    <text fill="#000000" font-family="sans-serif" font-size="13" font-weight="bold" lengthAdjust="spacing" textLength="17.459" x="65" y="276.8388">alt</text>
    <text fill="#000000" font-family="sans-serif" font-size="11" font-weight="bold" lengthAdjust="spacing" textLength="152.7779" x="127.459" y="275.7007">[runtime_config.print_from]</text>
    <path d="M50,295.6478 L112.459,295.6478 L112.459,305.3538 L102.459,315.3538 L50,315.3538 L50,295.6478 " fill="#EEEEEE" style="stroke:#000000;stroke-width:1.5;"/>
    <rect fill="transparent" height="19.706" style="stroke:#000000;stroke-width:1.5;" width="219.958" x="50" y="295.6478"/>
    <text fill="#000000" font-family="sans-serif" font-size="13" font-weight="bold" lengthAdjust="spacing" textLength="17.459" x="65" y="310.5448">alt</text>
    <text fill="#000000" font-family="sans-serif" font-size="11" font-weight="bold" lengthAdjust="spacing" textLength="137.499" x="127.459" y="309.4067">[runtime_config.print_to]</text>
    <path d="M20,329.3538 L93.288,329.3538 L93.288,339.0598 L83.288,349.0598 L20,349.0598 L20,329.3538 " fill="#EEEEEE" style="stroke:#000000;stroke-width:1.5;"/>
    <rect fill="transparent" height="1415.2261" style="stroke:#000000;stroke-width:1.5;" width="2755.8911" x="20" y="329.3538"/>
    <text fill="#000000" font-family="sans-serif" font-size="13" font-weight="bold" lengthAdjust="spacing" textLength="28.288" x="35" y="344.2508">loop</text>
    <text fill="#000000" font-family="sans-serif" font-size="11" font-weight="bold" lengthAdjust="spacing" textLength="90.9473" x="108.288" y="343.1127">[runtime_config]</text>
    <path d="M30,356.0598 L92.459,356.0598 L92.459,365.7659 L82.459,375.7659 L30,375.7659 L30,356.0598 " fill="#EEEEEE" style="stroke:#000000;stroke-width:1.5;"/>
    <rect fill="transparent" height="1161.5961" style="stroke:#000000;stroke-width:1.5;" width="2735.8911" x="30" y="356.0598"/>
    <text fill="#000000" font-family="sans-serif" font-size="13" font-weight="bold" lengthAdjust="spacing" textLength="17.459" x="45" y="370.9569">alt</text>
    <text fill="#000000" font-family="sans-serif" font-size="11" font-weight="bold" lengthAdjust="spacing" textLength="260.3461" x="107.459" y="369.8187">[generator_type == generator_type_t::plantuml]</text>
    <a href="" target="_top" title="" xlink:actuate="onRequest" xlink:href="" xlink:show="new" xlink:title="" xlink:type="simple">
      <line style="stroke:#181818;stroke-width:1;" x1="184.9595" x2="231.9595" y1="394.4719" y2="394.4719"/>
      <line style="stroke:#181818;stroke-width:1;" x1="231.9595" x2="231.9595" y1="394.4719" y2="407.4719"/>
      <line style="stroke:#181818;stroke-width:1;" x1="190.9595" x2="231.9595" y1="407.4719" y2="407.4719"/>
      <polygon fill="#181818" points="200.9595,403.4719,190.9595,407.4719,200.9595,411.4719,196.9595,407.4719" style="stroke:#181818;stroke-width:1;"/>
      <text fill="#000000" font-family="sans-serif" font-size="13" lengthAdjust="spacing" textLength="660.3873" x="196.9595" y="388.6629">generate_diagram_select_generator&lt;config::sequence_diagram,common::generators::plantuml_generator...</text>
    </a>
    <a href="" target="_top" title="" xlink:actuate="onRequest" xlink:href="" xlink:show="new" xlink:title="" xlink:type="simple">
      <polygon fill="#181818" points="1169.3518,440.1779,1179.3518,444.1779,1169.3518,448.1779,1173.3518,444.1779" style="stroke:#181818;stroke-width:1;"/>
      <line style="stroke:#181818;stroke-width:1;" x1="189.9595" x2="1175.3518" y1="444.1779" y2="444.1779"/>
      <text fill="#000000" font-family="sans-serif" font-size="13" lengthAdjust="spacing" textLength="475.3325" x="196.9595" y="438.3689">operator&lt;&lt;&lt;config::sequence_diagram,sequence_diagram::model::diagram&gt;()</text>
    </a>
    <a href="" target="_top" title="" xlink:actuate="onRequest" xlink:href="" xlink:show="new" xlink:title="" xlink:type="simple">
      <polygon fill="#181818" points="1701.9349,471.8839,1711.9349,475.8839,1701.9349,479.8839,1705.9349,475.8839" style="stroke:#181818;stroke-width:1;"/>
      <line style="stroke:#181818;stroke-width:1;" x1="1191.3518" x2="1707.9349" y1="475.8839" y2="475.8839"/>
      <text fill="#000000" font-family="sans-serif" font-size="13" lengthAdjust="spacing" textLength="99.6191" x="1198.3518" y="470.0749">generate() const</text>
    </a>
    <a href="" target="_top" title="" xlink:actuate="onRequest" xlink:href="" xlink:show="new" xlink:title="" xlink:type="simple">
      <polygon fill="#181818" points="2401.0124,503.5899,2411.0124,507.5899,2401.0124,511.5899,2405.0124,507.5899" style="stroke:#181818;stroke-width:1;"/>
      <line style="stroke:#181818;stroke-width:1;" x1="1723.9349" x2="2407.0124" y1="507.5899" y2="507.5899"/>
      <text fill="#000000" font-family="sans-serif" font-size="13" lengthAdjust="spacing" textLength="82.1991" x="1730.9349" y="501.7809">config() const</text>
    </a>
    <polygon fill="#181818" points="1734.9349,517.5899,1724.9349,521.5899,1734.9349,525.5899,1730.9349,521.5899" style="stroke:#181818;stroke-width:1;"/>
    <line style="stroke:#181818;stroke-width:1;stroke-dasharray:2.0,2.0;" x1="1728.9349" x2="2417.0124" y1="521.5899" y2="521.5899"/>
    <a href="" target="_top" title="" xlink:actuate="onRequest" xlink:href="" xlink:show="new" xlink:title="" xlink:type="simple">
      <polygon fill="#181818" points="2401.0124,549.2959,2411.0124,553.2959,2401.0124,557.2959,2405.0124,553.2959" style="stroke:#181818;stroke-width:1;"/>
      <line style="stroke:#181818;stroke-width:1;" x1="1723.9349" x2="2407.0124" y1="553.2959" y2="553.2959"/>
      <text fill="#000000" font-family="sans-serif" font-size="13" lengthAdjust="spacing" textLength="82.9401" x="1730.9349" y="547.4869">model() const</text>
    </a>
    <polygon fill="#181818" points="1734.9349,563.2959,1724.9349,567.2959,1734.9349,571.2959,1730.9349,567.2959" style="stroke:#181818;stroke-width:1;"/>
    <line style="stroke:#181818;stroke-width:1;stroke-dasharray:2.0,2.0;" x1="1728.9349" x2="2417.0124" y1="567.2959" y2="567.2959"/>
    <a href="" target="_top" title="" xlink:actuate="onRequest" xlink:href="" xlink:show="new" xlink:title="" xlink:type="simple">
      <polygon fill="#181818" points="2401.0124,595.002,2411.0124,599.002,2401.0124,603.002,2405.0124,599.002" style="stroke:#181818;stroke-width:1;"/>
      <line style="stroke:#181818;stroke-width:1;" x1="1723.9349" x2="2407.0124" y1="599.002" y2="599.002"/>
      <text fill="#000000" font-family="sans-serif" font-size="13" lengthAdjust="spacing" textLength="139.0871" x="1730.9349" y="593.1929">update_context() const</text>
    </a>
    <a href="" target="_top" title="" xlink:actuate="onRequest" xlink:href="" xlink:show="new" xlink:title="" xlink:type="simple">
      <line style="stroke:#181818;stroke-width:1;" x1="1723.9349" x2="1770.9349" y1="655.708" y2="655.708"/>
      <line style="stroke:#181818;stroke-width:1;" x1="1770.9349" x2="1770.9349" y1="655.708" y2="668.708"/>
      <line style="stroke:#181818;stroke-width:1;" x1="1729.9349" x2="1770.9349" y1="668.708" y2="668.708"/>
      <polygon fill="#181818" points="1739.9349,664.708,1729.9349,668.708,1739.9349,672.708,1735.9349,668.708" style="stroke:#181818;stroke-width:1;"/>
      <text fill="#000000" font-family="sans-serif" font-size="13" lengthAdjust="spacing" textLength="128.8171" x="1735.9349" y="649.899">generate_title() const</text>
    </a>
    <a href="" target="_top" title="" xlink:actuate="onRequest" xlink:href="" xlink:show="new" xlink:title="" xlink:type="simple">
      <polygon fill="#181818" points="2401.0124,701.414,2411.0124,705.414,2401.0124,709.414,2405.0124,705.414" style="stroke:#181818;stroke-width:1;"/>
      <line style="stroke:#181818;stroke-width:1;" x1="1728.9349" x2="2407.0124" y1="705.414" y2="705.414"/>
      <text fill="#000000" font-family="sans-serif" font-size="13" lengthAdjust="spacing" textLength="82.1991" x="1735.9349" y="699.605">config() const</text>
    </a>
    <polygon fill="#FEFFDD" points="2412,718.414,2423,718.414,2433,730.414,2423,743.414,2412,743.414,2402,730.414,2412,718.414" style="stroke:#181818;stroke-width:0.5;"/>
    <text fill="#000000" font-family="sans-serif" font-size="13" lengthAdjust="spacing" textLength="7.163" x="2414" y="736.311">*</text>
    <path d="M1614,781.12 L1614,826.12 L1823,826.12 L1823,791.12 L1813,781.12 L1614,781.12 " fill="#FEFFDD" style="stroke:#181818;stroke-width:0.5;"/>
    <path d="M1813,781.12 L1813,791.12 L1823,791.12 L1813,781.12 " fill="#FEFFDD" style="stroke:#181818;stroke-width:0.5;"/>
    <text fill="#000000" font-family="sans-serif" font-size="13" lengthAdjust="spacing" textLength="181.4541" x="1620" y="800.017">Generate PlantUML directives</text>
    <text fill="#000000" font-family="sans-serif" font-size="13" lengthAdjust="spacing" textLength="188.6562" x="1620" y="817.723">before auto generated content</text>
    <a href="" target="_top" title="" xlink:actuate="onRequest" xlink:href="" xlink:show="new" xlink:title="" xlink:type="simple">
      <line style="stroke:#181818;stroke-width:1;" x1="1723.9349" x2="1770.9349" y1="850.2381" y2="850.2381"/>
      <line style="stroke:#181818;stroke-width:1;" x1="1770.9349" x2="1770.9349" y1="850.2381" y2="863.2381"/>
      <line style="stroke:#181818;stroke-width:1;" x1="1729.9349" x2="1770.9349" y1="863.2381" y2="863.2381"/>
      <polygon fill="#181818" points="1739.9349,859.2381,1729.9349,863.2381,1739.9349,867.2381,1735.9349,863.2381" style="stroke:#181818;stroke-width:1;"/>
      <text fill="#000000" font-family="sans-serif" font-size="13" lengthAdjust="spacing" textLength="224.5752" x="1735.9349" y="844.429">generate_plantuml_directives() const</text>
    </a>
    <path d="M1347.7362,883.2381 L1421.0243,883.2381 L1421.0243,892.9441 L1411.0243,902.9441 L1347.7362,902.9441 L1347.7362,883.2381 " fill="#EEEEEE" style="stroke:#000000;stroke-width:1.5;"/>
    <rect fill="transparent" height="111.118" style="stroke:#000000;stroke-width:1.5;" width="1408.1549" x="1347.7362" y="883.2381"/>
    <text fill="#000000" font-family="sans-serif" font-size="13" font-weight="bold" lengthAdjust="spacing" textLength="28.288" x="1362.7362" y="898.1351">loop</text>
    <text fill="#000000" font-family="sans-serif" font-size="11" font-weight="bold" lengthAdjust="spacing" textLength="61.1046" x="1436.0243" y="896.997">[directives]</text>
    <a href="" target="_top" title="" xlink:actuate="onRequest" xlink:href="" xlink:show="new" xlink:title="" xlink:type="simple">
      <polygon fill="#181818" points="2401.0124,922.6501,2411.0124,926.6501,2401.0124,930.6501,2405.0124,926.6501" style="stroke:#181818;stroke-width:1;"/>
      <line style="stroke:#181818;stroke-width:1;" x1="1728.9349" x2="2407.0124" y1="926.6501" y2="926.6501"/>
      <text fill="#000000" font-family="sans-serif" font-size="13" lengthAdjust="spacing" textLength="66.2091" x="1735.9349" y="920.8411">env() const</text>
    </a>
    <polygon fill="#181818" points="1739.9349,936.6501,1729.9349,940.6501,1739.9349,944.6501,1735.9349,940.6501" style="stroke:#181818;stroke-width:1;"/>
    <line style="stroke:#181818;stroke-width:1;stroke-dasharray:2.0,2.0;" x1="1733.9349" x2="2417.0124" y1="940.6501" y2="940.6501"/>
    <a href="" target="_top" title="" xlink:actuate="onRequest" xlink:href="" xlink:show="new" xlink:title="" xlink:type="simple">
      <polygon fill="#181818" points="2401.0124,968.3561,2411.0124,972.3561,2401.0124,976.3561,2405.0124,972.3561" style="stroke:#181818;stroke-width:1;"/>
      <line style="stroke:#181818;stroke-width:1;" x1="1728.9349" x2="2407.0124" y1="972.3561" y2="972.3561"/>
      <text fill="#000000" font-family="sans-serif" font-size="13" lengthAdjust="spacing" textLength="89.9731" x="1735.9349" y="966.5471">context() const</text>
    </a>
    <polygon fill="#181818" points="1739.9349,982.3561,1729.9349,986.3561,1739.9349,990.3561,1735.9349,986.3561" style="stroke:#181818;stroke-width:1;"/>
    <line style="stroke:#181818;stroke-width:1;stroke-dasharray:2.0,2.0;" x1="1733.9349" x2="2417.0124" y1="986.3561" y2="986.3561"/>
    <a href="" target="_top" title="" xlink:actuate="onRequest" xlink:href="" xlink:show="new" xlink:title="" xlink:type="simple">
      <line style="stroke:#181818;stroke-width:1;" x1="1728.9349" x2="1770.9349" y1="1025.0621" y2="1025.0621"/>
      <line style="stroke:#181818;stroke-width:1;" x1="1770.9349" x2="1770.9349" y1="1025.0621" y2="1038.0621"/>
      <line style="stroke:#181818;stroke-width:1;" x1="1729.9349" x2="1770.9349" y1="1038.0621" y2="1038.0621"/>
      <polygon fill="#181818" points="1739.9349,1034.0621,1729.9349,1038.0621,1739.9349,1042.0621,1735.9349,1038.0621" style="stroke:#181818;stroke-width:1;"/>
      <text fill="#000000" font-family="sans-serif" font-size="13" lengthAdjust="spacing" textLength="156.8451" x="1735.9349" y="1019.2531">generate_diagram() const</text>
    </a>
    <path d="M1617,1081.0621 L1617,1126.0621 L1819,1126.0621 L1819,1091.0621 L1809,1081.0621 L1617,1081.0621 " fill="#FEFFDD" style="stroke:#181818;stroke-width:0.5;"/>
    <path d="M1809,1081.0621 L1809,1091.0621 L1819,1091.0621 L1809,1081.0621 " fill="#FEFFDD" style="stroke:#181818;stroke-width:0.5;"/>
    <text fill="#000000" font-family="sans-serif" font-size="13" lengthAdjust="spacing" textLength="181.4541" x="1623" y="1099.9591">Generate PlantUML directives</text>
    <text fill="#000000" font-family="sans-serif" font-size="13" lengthAdjust="spacing" textLength="177.4501" x="1623" y="1117.6651">after auto generated content</text>
    <a href="" target="_top" title="" xlink:actuate="onRequest" xlink:href="" xlink:show="new" xlink:title="" xlink:type="simple">
      <line style="stroke:#181818;stroke-width:1;" x1="1723.9349" x2="1770.9349" y1="1150.1802" y2="1150.1802"/>
      <line style="stroke:#181818;stroke-width:1;" x1="1770.9349" x2="1770.9349" y1="1150.1802" y2="1163.1802"/>
      <line style="stroke:#181818;stroke-width:1;" x1="1729.9349" x2="1770.9349" y1="1163.1802" y2="1163.1802"/>
      <polygon fill="#181818" points="1739.9349,1159.1802,1729.9349,1163.1802,1739.9349,1167.1802,1735.9349,1163.1802" style="stroke:#181818;stroke-width:1;"/>
      <text fill="#000000" font-family="sans-serif" font-size="13" lengthAdjust="spacing" textLength="224.5752" x="1735.9349" y="1144.3712">generate_plantuml_directives() const</text>
    </a>
    <polygon fill="#FEFFDD" points="1713,1181.1802,1724,1181.1802,1734,1193.1802,1724,1206.1802,1713,1206.1802,1703,1193.1802,1713,1181.1802" style="stroke:#181818;stroke-width:0.5;"/>
    <text fill="#000000" font-family="sans-serif" font-size="13" lengthAdjust="spacing" textLength="7.163" x="1715" y="1199.0772">*</text>
    <a href="" target="_top" title="" xlink:actuate="onRequest" xlink:href="" xlink:show="new" xlink:title="" xlink:type="simple">
      <line style="stroke:#181818;stroke-width:1;" x1="1723.9349" x2="1770.9349" y1="1257.5922" y2="1257.5922"/>
      <line style="stroke:#181818;stroke-width:1;" x1="1770.9349" x2="1770.9349" y1="1257.5922" y2="1270.5922"/>
      <line style="stroke:#181818;stroke-width:1;" x1="1729.9349" x2="1770.9349" y1="1270.5922" y2="1270.5922"/>
      <polygon fill="#181818" points="1739.9349,1266.5922,1729.9349,1270.5922,1739.9349,1274.5922,1735.9349,1270.5922" style="stroke:#181818;stroke-width:1;"/>
      <text fill="#000000" font-family="sans-serif" font-size="13" lengthAdjust="spacing" textLength="164.1381" x="1735.9349" y="1251.7832">generate_metadata() const</text>
    </a>
    <a href="" target="_top" title="" xlink:actuate="onRequest" xlink:href="" xlink:show="new" xlink:title="" xlink:type="simple">
      <polygon fill="#181818" points="2401.0124,1303.2982,2411.0124,1307.2982,2401.0124,1311.2982,2405.0124,1307.2982" style="stroke:#181818;stroke-width:1;"/>
      <line style="stroke:#181818;stroke-width:1;" x1="1728.9349" x2="2407.0124" y1="1307.2982" y2="1307.2982"/>
      <text fill="#000000" font-family="sans-serif" font-size="13" lengthAdjust="spacing" textLength="82.1991" x="1735.9349" y="1301.4892">config() const</text>
    </a>
    <polygon fill="#FEFFDD" points="2412,1320.2982,2423,1320.2982,2433,1332.2982,2423,1345.2982,2412,1345.2982,2402,1332.2982,2412,1320.2982" style="stroke:#181818;stroke-width:0.5;"/>
    <text fill="#000000" font-family="sans-serif" font-size="13" lengthAdjust="spacing" textLength="7.163" x="2414" y="1338.1952">*</text>
    <polygon fill="#181818" points="195.9595,1380.0042,185.9595,1384.0042,195.9595,1388.0042,191.9595,1384.0042" style="stroke:#181818;stroke-width:1;"/>
    <line style="stroke:#181818;stroke-width:1;stroke-dasharray:2.0,2.0;" x1="189.9595" x2="1185.3518" y1="1384.0042" y2="1384.0042"/>
    <line style="stroke:#000000;stroke-width:1;stroke-dasharray:2.0,2.0;" x1="30" x2="2765.8911" y1="1393.0042" y2="1393.0042"/>
    <text fill="#000000" font-family="sans-serif" font-size="11" font-weight="bold" lengthAdjust="spacing" textLength="232.8573" x="35" y="1404.7631">[generator_type == generator_type_t::json]</text>
    <line style="stroke:#000000;stroke-width:1;stroke-dasharray:2.0,2.0;" x1="30" x2="2765.8911" y1="1409.9861" y2="1409.9861"/>
    <text fill="#000000" font-family="sans-serif" font-size="11" font-weight="bold" lengthAdjust="spacing" textLength="260.0601" x="35" y="1421.745">[generator_type == generator_type_t::mermaid]</text>
    <line style="stroke:#000000;stroke-width:1;stroke-dasharray:2.0,2.0;" x1="30" x2="2765.8911" y1="1426.968" y2="1426.968"/>
    <text fill="#000000" font-family="sans-serif" font-size="11" font-weight="bold" lengthAdjust="spacing" textLength="256.9471" x="35" y="1438.7269">[generator_type == generator_type_t::graphml]</text>
    <a href="" target="_top" title="" xlink:actuate="onRequest" xlink:href="" xlink:show="new" xlink:title="" xlink:type="simple">
      <line style="stroke:#181818;stroke-width:1;" x1="189.9595" x2="231.9595" y1="1466.6559" y2="1466.6559"/>
      <line style="stroke:#181818;stroke-width:1;" x1="231.9595" x2="231.9595" y1="1466.6559" y2="1479.6559"/>
      <line style="stroke:#181818;stroke-width:1;" x1="190.9595" x2="231.9595" y1="1479.6559" y2="1479.6559"/>
      <polygon fill="#181818" points="200.9595,1475.6559,190.9595,1479.6559,200.9595,1483.6559,196.9595,1479.6559" style="stroke:#181818;stroke-width:1;"/>
      <text fill="#000000" font-family="sans-serif" font-size="13" lengthAdjust="spacing" textLength="663.4424" x="196.9595" y="1460.8469">generate_diagram_select_generator&lt;config::sequence_diagram,common::generators::graphml_generator_...</text>
    </a>
    <path d="M72,1529.6559 L72,1609.6559 L276,1609.6559 L276,1539.6559 L266,1529.6559 L72,1529.6559 " fill="#FEFFDD" style="stroke:#181818;stroke-width:0.5;"/>
    <path d="M266,1529.6559 L266,1539.6559 L276,1539.6559 L266,1529.6559 " fill="#FEFFDD" style="stroke:#181818;stroke-width:0.5;"/>
    <text fill="#000000" font-family="sans-serif" font-size="13" lengthAdjust="spacing" textLength="182.0522" x="78" y="1548.5529">Convert plantuml or mermaid</text>
    <text fill="#000000" font-family="sans-serif" font-size="13" lengthAdjust="spacing" textLength="174.9152" x="78" y="1566.2589">to an image using command</text>
    <text fill="#000000" font-family="sans-serif" font-size="13" lengthAdjust="spacing" textLength="183.2872" x="78" y="1583.965">provided in the command line</text>
    <text fill="#000000" font-family="sans-serif" font-size="13" lengthAdjust="spacing" textLength="67.1321" x="78" y="1601.671">arguments</text>
    <path d="M30,1622.48 L92.459,1622.48 L92.459,1632.186 L82.459,1642.186 L30,1642.186 L30,1622.48 " fill="#EEEEEE" style="stroke:#000000;stroke-width:1.5;"/>
    <rect fill="transparent" height="115.0999" style="stroke:#000000;stroke-width:1.5;" width="339.1038" x="30" y="1622.48"/>
    <text fill="#000000" font-family="sans-serif" font-size="13" font-weight="bold" lengthAdjust="spacing" textLength="17.459" x="45" y="1637.377">alt</text>
    <text fill="#000000" font-family="sans-serif" font-size="11" font-weight="bold" lengthAdjust="spacing" textLength="187.6146" x="107.459" y="1636.2389">[runtime_config.render_diagrams]</text>
    <a href="" target="_top" title="" xlink:actuate="onRequest" xlink:href="" xlink:show="new" xlink:title="" xlink:type="simple">
      <line style="stroke:#181818;stroke-width:1;" x1="184.9595" x2="231.9595" y1="1660.892" y2="1660.892"/>
      <line style="stroke:#181818;stroke-width:1;" x1="231.9595" x2="231.9595" y1="1660.892" y2="1673.892"/>
      <line style="stroke:#181818;stroke-width:1;" x1="190.9595" x2="231.9595" y1="1673.892" y2="1673.892"/>
      <polygon fill="#181818" points="200.9595,1669.892,190.9595,1673.892,200.9595,1677.892,196.9595,1673.892" style="stroke:#181818;stroke-width:1;"/>
      <text fill="#000000" font-family="sans-serif" font-size="13" lengthAdjust="spacing" textLength="106.4571" x="196.9595" y="1655.083">render_diagram()</text>
    </a>
    <path d="M50,1693.892 L137.419,1693.892 L137.419,1703.598 L127.419,1713.598 L50,1713.598 L50,1693.892 " fill="#EEEEEE" style="stroke:#000000;stroke-width:1.5;"/>
    <rect fill="transparent" height="36.6879" style="stroke:#000000;stroke-width:1.5;" width="309.1038" x="50" y="1693.892"/>
    <text fill="#000000" font-family="sans-serif" font-size="13" font-weight="bold" lengthAdjust="spacing" textLength="42.419" x="65" y="1708.789">switch</text>
    <line style="stroke:#000000;stroke-width:1;stroke-dasharray:2.0,2.0;" x1="50" x2="359.1038" y1="1714.598" y2="1714.598"/>
    <text fill="#000000" font-family="sans-serif" font-size="11" font-weight="bold" lengthAdjust="spacing" textLength="304.1038" x="55" y="1726.3569">[clanguml::common::enum generator_type_t::plantuml]</text>
    <line style="stroke:#000000;stroke-width:1;stroke-dasharray:2.0,2.0;" x1="10" x2="2785.8911" y1="1752.5799" y2="1752.5799"/>
    <text fill="#000000" font-family="sans-serif" font-size="11" font-weight="bold" lengthAdjust="spacing" textLength="228.6223" x="15" y="1764.3388">[diagram-&gt;type() == diagram_t::kPackage]</text>
    <line style="stroke:#000000;stroke-width:1;stroke-dasharray:2.0,2.0;" x1="10" x2="2785.8911" y1="1769.5618" y2="1769.5618"/>
    <text fill="#000000" font-family="sans-serif" font-size="11" font-weight="bold" lengthAdjust="spacing" textLength="223.6944" x="15" y="1781.3207">[diagram-&gt;type() == diagram_t::kInclude]</text>
  </g>
</svg>
