<svg xmlns="http://www.w3.org/2000/svg" xmlns:xlink="http://www.w3.org/1999/xlink" contentStyleType="text/css" height="881px" preserveAspectRatio="none" style="width:1546px;height:881px;background:#FFFFFF;" version="1.1" viewBox="0 0 1546 881" width="1546px" zoomAndPan="magnify">
  <defs>
    <style type="text/css">a:hover { text-decoration: underline; }</style>
  </defs>
  <g>
    <text fill="#000000" font-family="sans-serif" font-size="14" font-weight="bold" lengthAdjust="spacing" textLength="260.1006" x="635.9497" y="22.9951">Diagram element class hierarchy</text>
    <g id="cluster_C_0002532840279361781187">
      <path d="M8.5,236.2969 L76.1777,236.2969 A3.75,3.75 0 0 1 78.6777,238.7969 L85.6777,258.5938 L853.5,258.5938 A2.5,2.5 0 0 1 856,261.0938 L856,482.7969 A2.5,2.5 0 0 1 853.5,485.2969 L8.5,485.2969 A2.5,2.5 0 0 1 6,482.7969 L6,238.7969 A2.5,2.5 0 0 1 8.5,236.2969 " fill="none" style="stroke:#000000;stroke-width:1.5;"/>
      <line style="stroke:#000000;stroke-width:1.5;" x1="6" x2="85.6777" y1="258.5938" y2="258.5938"/>
      <text fill="#000000" font-family="sans-serif" font-size="14" font-weight="bold" lengthAdjust="spacing" textLength="66.6777" x="10" y="251.292">common</text>
    </g>
    <g id="cluster_C_0000669774451444102653">
      <path d="M32.5,279.2969 L82.0215,279.2969 A3.75,3.75 0 0 1 84.5215,281.7969 L91.5215,301.5938 L829.5,301.5938 A2.5,2.5 0 0 1 832,304.0938 L832,458.7969 A2.5,2.5 0 0 1 829.5,461.2969 L32.5,461.2969 A2.5,2.5 0 0 1 30,458.7969 L30,281.7969 A2.5,2.5 0 0 1 32.5,279.2969 " fill="none" style="stroke:#000000;stroke-width:1.5;"/>
      <line style="stroke:#000000;stroke-width:1.5;" x1="30" x2="91.5215" y1="301.5938" y2="301.5938"/>
      <text fill="#000000" font-family="sans-serif" font-size="14" font-weight="bold" lengthAdjust="spacing" textLength="48.5215" x="34" y="294.292">model</text>
    </g>
    <g id="cluster_C_0017921336289613804855">
      <path d="M882.5,316.2969 L994.9395,316.2969 A3.75,3.75 0 0 1 997.4395,318.7969 L1004.4395,338.5938 L1317.5,338.5938 A2.5,2.5 0 0 1 1320,341.0938 L1320,811.7969 A2.5,2.5 0 0 1 1317.5,814.2969 L882.5,814.2969 A2.5,2.5 0 0 1 880,811.7969 L880,318.7969 A2.5,2.5 0 0 1 882.5,316.2969 " fill="none" style="stroke:#000000;stroke-width:1.5;"/>
      <line style="stroke:#000000;stroke-width:1.5;" x1="880" x2="1004.4395" y1="338.5938" y2="338.5938"/>
      <text fill="#000000" font-family="sans-serif" font-size="14" font-weight="bold" lengthAdjust="spacing" textLength="111.4395" x="884" y="331.292">class_diagram</text>
    </g>
    <g id="cluster_C_0007176993879715460962">
      <path d="M906.5,359.2969 L956.0215,359.2969 A3.75,3.75 0 0 1 958.5215,361.7969 L965.5215,381.5938 L1293.5,381.5938 A2.5,2.5 0 0 1 1296,384.0938 L1296,787.7969 A2.5,2.5 0 0 1 1293.5,790.2969 L906.5,790.2969 A2.5,2.5 0 0 1 904,787.7969 L904,361.7969 A2.5,2.5 0 0 1 906.5,359.2969 " fill="none" style="stroke:#000000;stroke-width:1.5;"/>
      <line style="stroke:#000000;stroke-width:1.5;" x1="904" x2="965.5215" y1="381.5938" y2="381.5938"/>
      <text fill="#000000" font-family="sans-serif" font-size="14" font-weight="bold" lengthAdjust="spacing" textLength="48.5215" x="908" y="374.292">model</text>
    </g>
    <g id="cluster_C_0012174902727661033893">
      <path d="M912,43.2969 L1060.3008,43.2969 A3.75,3.75 0 0 1 1062.8008,45.7969 L1069.8008,65.5938 L1536.5,65.5938 A2.5,2.5 0 0 1 1539,68.0938 L1539,289.7969 A2.5,2.5 0 0 1 1536.5,292.2969 L912,292.2969 A2.5,2.5 0 0 1 909.5,289.7969 L909.5,45.7969 A2.5,2.5 0 0 1 912,43.2969 " fill="none" style="stroke:#000000;stroke-width:1.5;"/>
      <line style="stroke:#000000;stroke-width:1.5;" x1="909.5" x2="1069.8008" y1="65.5938" y2="65.5938"/>
      <text fill="#000000" font-family="sans-serif" font-size="14" font-weight="bold" lengthAdjust="spacing" textLength="147.3008" x="913.5" y="58.292">sequence_diagram</text>
    </g>
    <g id="cluster_C_0017655759046645114118">
      <path d="M936,86.2969 L985.5215,86.2969 A3.75,3.75 0 0 1 988.0215,88.7969 L995.0215,108.5938 L1512.5,108.5938 A2.5,2.5 0 0 1 1515,111.0938 L1515,265.7969 A2.5,2.5 0 0 1 1512.5,268.2969 L936,268.2969 A2.5,2.5 0 0 1 933.5,265.7969 L933.5,88.7969 A2.5,2.5 0 0 1 936,86.2969 " fill="none" style="stroke:#000000;stroke-width:1.5;"/>
      <line style="stroke:#000000;stroke-width:1.5;" x1="933.5" x2="995.0215" y1="108.5938" y2="108.5938"/>
      <text fill="#000000" font-family="sans-serif" font-size="14" font-weight="bold" lengthAdjust="spacing" textLength="48.5215" x="937.5" y="101.292">model</text>
    </g>
    <a href="classclanguml_1_1common_1_1model_1_1source__location.html" target="_top" title="Base class of all diagram elements that have source location." xlink:actuate="onRequest" xlink:href="classclanguml_1_1common_1_1model_1_1source__location.html" xlink:show="new" xlink:title="Base class of all diagram elements that have source location." xlink:type="simple">
      <g id="elem_C_0007162092657467521843">
        <rect codeLine="6" fill="#F1F1F1" height="48" id="C_0007162092657467521843" rx="2.5" ry="2.5" style="stroke:#181818;stroke-width:0.5;" width="141.3477" x="59.5" y="397.2969"/>
        <ellipse cx="74.5" cy="413.2969" fill="#ADD1B2" rx="11" ry="11" style="stroke:#181818;stroke-width:1.0;"/>
        <path d="M77.4688,418.9375 Q76.8906,419.2344 76.25,419.375 Q75.6094,419.5313 74.9063,419.5313 Q72.4063,419.5313 71.0781,417.8906 Q69.7656,416.2344 69.7656,413.1094 Q69.7656,409.9844 71.0781,408.3281 Q72.4063,406.6719 74.9063,406.6719 Q75.6094,406.6719 76.25,406.8281 Q76.9063,406.9844 77.4688,407.2813 L77.4688,410 Q76.8438,409.4219 76.25,409.1563 Q75.6563,408.875 75.0313,408.875 Q73.6875,408.875 73,409.9531 Q72.3125,411.0156 72.3125,413.1094 Q72.3125,415.2031 73,416.2813 Q73.6875,417.3438 75.0313,417.3438 Q75.6563,417.3438 76.25,417.0781 Q76.8438,416.7969 77.4688,416.2188 L77.4688,418.9375 Z " fill="#000000"/>
        <text fill="#000000" font-family="sans-serif" font-size="14" lengthAdjust="spacing" textLength="109.3477" x="88.5" y="418.1436">source_location</text>
        <line style="stroke:#181818;stroke-width:0.5;" x1="60.5" x2="199.8477" y1="429.2969" y2="429.2969"/>
        <line style="stroke:#181818;stroke-width:0.5;" x1="60.5" x2="199.8477" y1="437.2969" y2="437.2969"/>
      </g>
    </a>
    <a href="classclanguml_1_1common_1_1model_1_1decorated__element.html" target="_top" title="Base class for decorated diagram elements" xlink:actuate="onRequest" xlink:href="classclanguml_1_1common_1_1model_1_1decorated__element.html" xlink:show="new" xlink:title="Base class for decorated diagram elements" xlink:type="simple">
      <g id="elem_C_0008936819060997384951">
        <rect codeLine="10" fill="#F1F1F1" height="48" id="C_0008936819060997384951" rx="2.5" ry="2.5" style="stroke:#181818;stroke-width:0.5;" width="167.8164" x="46" y="314.2969"/>
        <ellipse cx="61" cy="330.2969" fill="#ADD1B2" rx="11" ry="11" style="stroke:#181818;stroke-width:1.0;"/>
        <path d="M63.9688,335.9375 Q63.3906,336.2344 62.75,336.375 Q62.1094,336.5313 61.4063,336.5313 Q58.9063,336.5313 57.5781,334.8906 Q56.2656,333.2344 56.2656,330.1094 Q56.2656,326.9844 57.5781,325.3281 Q58.9063,323.6719 61.4063,323.6719 Q62.1094,323.6719 62.75,323.8281 Q63.4063,323.9844 63.9688,324.2813 L63.9688,327 Q63.3438,326.4219 62.75,326.1563 Q62.1563,325.875 61.5313,325.875 Q60.1875,325.875 59.5,326.9531 Q58.8125,328.0156 58.8125,330.1094 Q58.8125,332.2031 59.5,333.2813 Q60.1875,334.3438 61.5313,334.3438 Q62.1563,334.3438 62.75,334.0781 Q63.3438,333.7969 63.9688,333.2188 L63.9688,335.9375 Z " fill="#000000"/>
        <text fill="#000000" font-family="sans-serif" font-size="14" lengthAdjust="spacing" textLength="135.8164" x="75" y="335.1436">decorated_element</text>
        <line style="stroke:#181818;stroke-width:0.5;" x1="47" x2="212.8164" y1="346.2969" y2="346.2969"/>
        <line style="stroke:#181818;stroke-width:0.5;" x1="47" x2="212.8164" y1="354.2969" y2="354.2969"/>
      </g>
    </a>
    <a href="classclanguml_1_1common_1_1model_1_1relationship.html" target="_top" title="Class representing any relationship other than inheritance" xlink:actuate="onRequest" xlink:href="classclanguml_1_1common_1_1model_1_1relationship.html" xlink:show="new" xlink:title="Class representing any relationship other than inheritance" xlink:type="simple">
      <g id="elem_C_0016370694070378943411">
        <rect codeLine="14" fill="#F1F1F1" height="48" id="C_0016370694070378943411" rx="2.5" ry="2.5" style="stroke:#181818;stroke-width:0.5;" width="114.5986" x="294" y="314.2969"/>
        <ellipse cx="309" cy="330.2969" fill="#ADD1B2" rx="11" ry="11" style="stroke:#181818;stroke-width:1.0;"/>
        <path d="M311.9688,335.9375 Q311.3906,336.2344 310.75,336.375 Q310.1094,336.5313 309.4063,336.5313 Q306.9063,336.5313 305.5781,334.8906 Q304.2656,333.2344 304.2656,330.1094 Q304.2656,326.9844 305.5781,325.3281 Q306.9063,323.6719 309.4063,323.6719 Q310.1094,323.6719 310.75,323.8281 Q311.4063,323.9844 311.9688,324.2813 L311.9688,327 Q311.3438,326.4219 310.75,326.1563 Q310.1563,325.875 309.5313,325.875 Q308.1875,325.875 307.5,326.9531 Q306.8125,328.0156 306.8125,330.1094 Q306.8125,332.2031 307.5,333.2813 Q308.1875,334.3438 309.5313,334.3438 Q310.1563,334.3438 310.75,334.0781 Q311.3438,333.7969 311.9688,333.2188 L311.9688,335.9375 Z " fill="#000000"/>
        <text fill="#000000" font-family="sans-serif" font-size="14" lengthAdjust="spacing" textLength="82.5986" x="323" y="335.1436">relationship</text>
        <line style="stroke:#181818;stroke-width:0.5;" x1="295" x2="407.5986" y1="346.2969" y2="346.2969"/>
        <line style="stroke:#181818;stroke-width:0.5;" x1="295" x2="407.5986" y1="354.2969" y2="354.2969"/>
      </g>
    </a>
    <a href="classclanguml_1_1common_1_1model_1_1diagram__element.html" target="_top" title="Base class for standalone diagram elements." xlink:actuate="onRequest" xlink:href="classclanguml_1_1common_1_1model_1_1diagram__element.html" xlink:show="new" xlink:title="Base class for standalone diagram elements." xlink:type="simple">
      <g id="elem_C_0008588005715032923314">
        <rect codeLine="18" fill="#F1F1F1" height="48" id="C_0008588005715032923314" rx="2.5" ry="2.5" style="stroke:#181818;stroke-width:0.5;" width="154.9443" x="274" y="397.2969"/>
        <ellipse cx="289" cy="413.2969" fill="#ADD1B2" rx="11" ry="11" style="stroke:#181818;stroke-width:1.0;"/>
        <path d="M291.9688,418.9375 Q291.3906,419.2344 290.75,419.375 Q290.1094,419.5313 289.4063,419.5313 Q286.9063,419.5313 285.5781,417.8906 Q284.2656,416.2344 284.2656,413.1094 Q284.2656,409.9844 285.5781,408.3281 Q286.9063,406.6719 289.4063,406.6719 Q290.1094,406.6719 290.75,406.8281 Q291.4063,406.9844 291.9688,407.2813 L291.9688,410 Q291.3438,409.4219 290.75,409.1563 Q290.1563,408.875 289.5313,408.875 Q288.1875,408.875 287.5,409.9531 Q286.8125,411.0156 286.8125,413.1094 Q286.8125,415.2031 287.5,416.2813 Q288.1875,417.3438 289.5313,417.3438 Q290.1563,417.3438 290.75,417.0781 Q291.3438,416.7969 291.9688,416.2188 L291.9688,418.9375 Z " fill="#000000"/>
        <text fill="#000000" font-family="sans-serif" font-size="14" lengthAdjust="spacing" textLength="122.9443" x="303" y="418.1436">diagram_element</text>
        <line style="stroke:#181818;stroke-width:0.5;" x1="275" x2="427.9443" y1="429.2969" y2="429.2969"/>
        <line style="stroke:#181818;stroke-width:0.5;" x1="275" x2="427.9443" y1="437.2969" y2="437.2969"/>
      </g>
    </a>
    <a href="classclanguml_1_1common_1_1model_1_1element.html" target="_top" title="Base class for any element qualified by namespace." xlink:actuate="onRequest" xlink:href="classclanguml_1_1common_1_1model_1_1element.html" xlink:show="new" xlink:title="Base class for any element qualified by namespace." xlink:type="simple">
      <g id="elem_C_0016556163051475263500">
        <rect codeLine="22" fill="#F1F1F1" height="48" id="C_0016556163051475263500" rx="2.5" ry="2.5" style="stroke:#181818;stroke-width:0.5;" width="89.7295" x="497.5" y="397.2969"/>
        <ellipse cx="512.5" cy="413.2969" fill="#ADD1B2" rx="11" ry="11" style="stroke:#181818;stroke-width:1.0;"/>
        <path d="M515.4688,418.9375 Q514.8906,419.2344 514.25,419.375 Q513.6094,419.5313 512.9063,419.5313 Q510.4063,419.5313 509.0781,417.8906 Q507.7656,416.2344 507.7656,413.1094 Q507.7656,409.9844 509.0781,408.3281 Q510.4063,406.6719 512.9063,406.6719 Q513.6094,406.6719 514.25,406.8281 Q514.9063,406.9844 515.4688,407.2813 L515.4688,410 Q514.8438,409.4219 514.25,409.1563 Q513.6563,408.875 513.0313,408.875 Q511.6875,408.875 511,409.9531 Q510.3125,411.0156 510.3125,413.1094 Q510.3125,415.2031 511,416.2813 Q511.6875,417.3438 513.0313,417.3438 Q513.6563,417.3438 514.25,417.0781 Q514.8438,416.7969 515.4688,416.2188 L515.4688,418.9375 Z " fill="#000000"/>
        <text fill="#000000" font-family="sans-serif" font-size="14" lengthAdjust="spacing" textLength="57.7295" x="526.5" y="418.1436">element</text>
        <line style="stroke:#181818;stroke-width:0.5;" x1="498.5" x2="586.2295" y1="429.2969" y2="429.2969"/>
        <line style="stroke:#181818;stroke-width:0.5;" x1="498.5" x2="586.2295" y1="437.2969" y2="437.2969"/>
      </g>
    </a>
    <a href="classclanguml_1_1common_1_1model_1_1template__element.html" target="_top" title="Base class for any element qualified by namespace." xlink:actuate="onRequest" xlink:href="classclanguml_1_1common_1_1model_1_1template__element.html" xlink:show="new" xlink:title="Base class for any element qualified by namespace." xlink:type="simple">
      <g id="elem_C_0013384831159811298387">
        <rect codeLine="26" fill="#F1F1F1" height="48" id="C_0013384831159811298387" rx="2.5" ry="2.5" style="stroke:#181818;stroke-width:0.5;" width="159.9277" x="656" y="397.2969"/>
        <ellipse cx="671" cy="413.2969" fill="#ADD1B2" rx="11" ry="11" style="stroke:#181818;stroke-width:1.0;"/>
        <path d="M673.9688,418.9375 Q673.3906,419.2344 672.75,419.375 Q672.1094,419.5313 671.4063,419.5313 Q668.9063,419.5313 667.5781,417.8906 Q666.2656,416.2344 666.2656,413.1094 Q666.2656,409.9844 667.5781,408.3281 Q668.9063,406.6719 671.4063,406.6719 Q672.1094,406.6719 672.75,406.8281 Q673.4063,406.9844 673.9688,407.2813 L673.9688,410 Q673.3438,409.4219 672.75,409.1563 Q672.1563,408.875 671.5313,408.875 Q670.1875,408.875 669.5,409.9531 Q668.8125,411.0156 668.8125,413.1094 Q668.8125,415.2031 669.5,416.2813 Q670.1875,417.3438 671.5313,417.3438 Q672.1563,417.3438 672.75,417.0781 Q673.3438,416.7969 673.9688,416.2188 L673.9688,418.9375 Z " fill="#000000"/>
        <text fill="#000000" font-family="sans-serif" font-size="14" lengthAdjust="spacing" textLength="127.9277" x="685" y="418.1436">template_element</text>
        <line style="stroke:#181818;stroke-width:0.5;" x1="657" x2="814.9277" y1="429.2969" y2="429.2969"/>
        <line style="stroke:#181818;stroke-width:0.5;" x1="657" x2="814.9277" y1="437.2969" y2="437.2969"/>
      </g>
    </a>
    <a href="classclanguml_1_1common_1_1model_1_1source__file.html" target="_top" title="Diagram element representing some file or directory." xlink:actuate="onRequest" xlink:href="classclanguml_1_1common_1_1model_1_1source__file.html" xlink:show="new" xlink:title="Diagram element representing some file or directory." xlink:type="simple">
      <g id="elem_C_0006285717704576425038">
        <rect codeLine="30" fill="#F1F1F1" height="48" id="C_0006285717704576425038" rx="2.5" ry="2.5" style="stroke:#181818;stroke-width:0.5;" width="107.1201" x="489" y="314.2969"/>
        <ellipse cx="504" cy="330.2969" fill="#ADD1B2" rx="11" ry="11" style="stroke:#181818;stroke-width:1.0;"/>
        <path d="M506.9688,335.9375 Q506.3906,336.2344 505.75,336.375 Q505.1094,336.5313 504.4063,336.5313 Q501.9063,336.5313 500.5781,334.8906 Q499.2656,333.2344 499.2656,330.1094 Q499.2656,326.9844 500.5781,325.3281 Q501.9063,323.6719 504.4063,323.6719 Q505.1094,323.6719 505.75,323.8281 Q506.4063,323.9844 506.9688,324.2813 L506.9688,327 Q506.3438,326.4219 505.75,326.1563 Q505.1563,325.875 504.5313,325.875 Q503.1875,325.875 502.5,326.9531 Q501.8125,328.0156 501.8125,330.1094 Q501.8125,332.2031 502.5,333.2813 Q503.1875,334.3438 504.5313,334.3438 Q505.1563,334.3438 505.75,334.0781 Q506.3438,333.7969 506.9688,333.2188 L506.9688,335.9375 Z " fill="#000000"/>
        <text fill="#000000" font-family="sans-serif" font-size="14" lengthAdjust="spacing" textLength="75.1201" x="518" y="335.1436">source_file</text>
        <line style="stroke:#181818;stroke-width:0.5;" x1="490" x2="595.1201" y1="346.2969" y2="346.2969"/>
        <line style="stroke:#181818;stroke-width:0.5;" x1="490" x2="595.1201" y1="354.2969" y2="354.2969"/>
      </g>
    </a>
    <a href="classclanguml_1_1common_1_1model_1_1package.html" target="_top" title="Diagram element representing namespace or directory package" xlink:actuate="onRequest" xlink:href="classclanguml_1_1common_1_1model_1_1package.html" xlink:show="new" xlink:title="Diagram element representing namespace or directory package" xlink:type="simple">
      <g id="elem_C_0017146293478645494837">
        <rect codeLine="34" fill="#F1F1F1" height="48" id="C_0017146293478645494837" rx="2.5" ry="2.5" style="stroke:#181818;stroke-width:0.5;" width="91.3496" x="690.5" y="314.2969"/>
        <ellipse cx="705.5" cy="330.2969" fill="#ADD1B2" rx="11" ry="11" style="stroke:#181818;stroke-width:1.0;"/>
        <path d="M708.4688,335.9375 Q707.8906,336.2344 707.25,336.375 Q706.6094,336.5313 705.9063,336.5313 Q703.4063,336.5313 702.0781,334.8906 Q700.7656,333.2344 700.7656,330.1094 Q700.7656,326.9844 702.0781,325.3281 Q703.4063,323.6719 705.9063,323.6719 Q706.6094,323.6719 707.25,323.8281 Q707.9063,323.9844 708.4688,324.2813 L708.4688,327 Q707.8438,326.4219 707.25,326.1563 Q706.6563,325.875 706.0313,325.875 Q704.6875,325.875 704,326.9531 Q703.3125,328.0156 703.3125,330.1094 Q703.3125,332.2031 704,333.2813 Q704.6875,334.3438 706.0313,334.3438 Q706.6563,334.3438 707.25,334.0781 Q707.8438,333.7969 708.4688,333.2188 L708.4688,335.9375 Z " fill="#000000"/>
        <text fill="#000000" font-family="sans-serif" font-size="14" lengthAdjust="spacing" textLength="59.3496" x="719.5" y="335.1436">package</text>
        <line style="stroke:#181818;stroke-width:0.5;" x1="691.5" x2="780.8496" y1="346.2969" y2="346.2969"/>
        <line style="stroke:#181818;stroke-width:0.5;" x1="691.5" x2="780.8496" y1="354.2969" y2="354.2969"/>
      </g>
    </a>
    <a href="classclanguml_1_1class__diagram_1_1model_1_1class__element.html" target="_top" title="Base class for class elements (e.g. member or method)." xlink:actuate="onRequest" xlink:href="classclanguml_1_1class__diagram_1_1model_1_1class__element.html" xlink:show="new" xlink:title="Base class for class elements (e.g. member or method)." xlink:type="simple">
      <g id="elem_C_0004846934894930864299">
        <rect codeLine="42" fill="#F1F1F1" height="48" id="C_0004846934894930864299" rx="2.5" ry="2.5" style="stroke:#181818;stroke-width:0.5;" width="131.4834" x="938" y="726.2969"/>
        <ellipse cx="953" cy="742.2969" fill="#ADD1B2" rx="11" ry="11" style="stroke:#181818;stroke-width:1.0;"/>
        <path d="M955.9688,747.9375 Q955.3906,748.2344 954.75,748.375 Q954.1094,748.5313 953.4063,748.5313 Q950.9063,748.5313 949.5781,746.8906 Q948.2656,745.2344 948.2656,742.1094 Q948.2656,738.9844 949.5781,737.3281 Q950.9063,735.6719 953.4063,735.6719 Q954.1094,735.6719 954.75,735.8281 Q955.4063,735.9844 955.9688,736.2813 L955.9688,739 Q955.3438,738.4219 954.75,738.1563 Q954.1563,737.875 953.5313,737.875 Q952.1875,737.875 951.5,738.9531 Q950.8125,740.0156 950.8125,742.1094 Q950.8125,744.2031 951.5,745.2813 Q952.1875,746.3438 953.5313,746.3438 Q954.1563,746.3438 954.75,746.0781 Q955.3438,745.7969 955.9688,745.2188 L955.9688,747.9375 Z " fill="#000000"/>
        <text fill="#000000" font-family="sans-serif" font-size="14" lengthAdjust="spacing" textLength="99.4834" x="967" y="747.1436">class_element</text>
        <line style="stroke:#181818;stroke-width:0.5;" x1="939" x2="1068.4834" y1="758.2969" y2="758.2969"/>
        <line style="stroke:#181818;stroke-width:0.5;" x1="939" x2="1068.4834" y1="766.2969" y2="766.2969"/>
      </g>
    </a>
    <a href="classclanguml_1_1class__diagram_1_1model_1_1class__member.html" target="_top" title="Class member model." xlink:actuate="onRequest" xlink:href="classclanguml_1_1class__diagram_1_1model_1_1class__member.html" xlink:show="new" xlink:title="Class member model." xlink:type="simple">
      <g id="elem_C_0014370262096868218046">
        <rect codeLine="46" fill="#F1F1F1" height="48" id="C_0014370262096868218046" rx="2.5" ry="2.5" style="stroke:#181818;stroke-width:0.5;" width="132.8984" x="1147" y="726.2969"/>
        <ellipse cx="1162" cy="742.2969" fill="#ADD1B2" rx="11" ry="11" style="stroke:#181818;stroke-width:1.0;"/>
        <path d="M1164.9688,747.9375 Q1164.3906,748.2344 1163.75,748.375 Q1163.1094,748.5313 1162.4063,748.5313 Q1159.9063,748.5313 1158.5781,746.8906 Q1157.2656,745.2344 1157.2656,742.1094 Q1157.2656,738.9844 1158.5781,737.3281 Q1159.9063,735.6719 1162.4063,735.6719 Q1163.1094,735.6719 1163.75,735.8281 Q1164.4063,735.9844 1164.9688,736.2813 L1164.9688,739 Q1164.3438,738.4219 1163.75,738.1563 Q1163.1563,737.875 1162.5313,737.875 Q1161.1875,737.875 1160.5,738.9531 Q1159.8125,740.0156 1159.8125,742.1094 Q1159.8125,744.2031 1160.5,745.2813 Q1161.1875,746.3438 1162.5313,746.3438 Q1163.1563,746.3438 1163.75,746.0781 Q1164.3438,745.7969 1164.9688,745.2188 L1164.9688,747.9375 Z " fill="#000000"/>
        <text fill="#000000" font-family="sans-serif" font-size="14" lengthAdjust="spacing" textLength="100.8984" x="1176" y="747.1436">class_member</text>
        <line style="stroke:#181818;stroke-width:0.5;" x1="1148" x2="1278.8984" y1="758.2969" y2="758.2969"/>
        <line style="stroke:#181818;stroke-width:0.5;" x1="1148" x2="1278.8984" y1="766.2969" y2="766.2969"/>
      </g>
    </a>
    <a href="classclanguml_1_1class__diagram_1_1model_1_1method__parameter.html" target="_top" title="Model of a method parameter." xlink:actuate="onRequest" xlink:href="classclanguml_1_1class__diagram_1_1model_1_1method__parameter.html" xlink:show="new" xlink:title="Model of a method parameter." xlink:type="simple">
      <g id="elem_C_0004845352266951408403">
        <rect codeLine="50" fill="#F1F1F1" height="48" id="C_0004845352266951408403" rx="2.5" ry="2.5" style="stroke:#181818;stroke-width:0.5;" width="166.9756" x="920" y="643.2969"/>
        <ellipse cx="935" cy="659.2969" fill="#ADD1B2" rx="11" ry="11" style="stroke:#181818;stroke-width:1.0;"/>
        <path d="M937.9688,664.9375 Q937.3906,665.2344 936.75,665.375 Q936.1094,665.5313 935.4063,665.5313 Q932.9063,665.5313 931.5781,663.8906 Q930.2656,662.2344 930.2656,659.1094 Q930.2656,655.9844 931.5781,654.3281 Q932.9063,652.6719 935.4063,652.6719 Q936.1094,652.6719 936.75,652.8281 Q937.4063,652.9844 937.9688,653.2813 L937.9688,656 Q937.3438,655.4219 936.75,655.1563 Q936.1563,654.875 935.5313,654.875 Q934.1875,654.875 933.5,655.9531 Q932.8125,657.0156 932.8125,659.1094 Q932.8125,661.2031 933.5,662.2813 Q934.1875,663.3438 935.5313,663.3438 Q936.1563,663.3438 936.75,663.0781 Q937.3438,662.7969 937.9688,662.2188 L937.9688,664.9375 Z " fill="#000000"/>
        <text fill="#000000" font-family="sans-serif" font-size="14" lengthAdjust="spacing" textLength="134.9756" x="949" y="664.1436">method_parameter</text>
        <line style="stroke:#181818;stroke-width:0.5;" x1="921" x2="1085.9756" y1="675.2969" y2="675.2969"/>
        <line style="stroke:#181818;stroke-width:0.5;" x1="921" x2="1085.9756" y1="683.2969" y2="683.2969"/>
      </g>
    </a>
    <a href="classclanguml_1_1class__diagram_1_1model_1_1class__method.html" target="_top" title="Class method model." xlink:actuate="onRequest" xlink:href="classclanguml_1_1class__diagram_1_1model_1_1class__method.html" xlink:show="new" xlink:title="Class method model." xlink:type="simple">
      <g id="elem_C_0001633165731746789371">
        <rect codeLine="54" fill="#F1F1F1" height="48" id="C_0001633165731746789371" rx="2.5" ry="2.5" style="stroke:#181818;stroke-width:0.5;" width="127.8193" x="1149.5" y="643.2969"/>
        <ellipse cx="1164.5" cy="659.2969" fill="#ADD1B2" rx="11" ry="11" style="stroke:#181818;stroke-width:1.0;"/>
        <path d="M1167.4688,664.9375 Q1166.8906,665.2344 1166.25,665.375 Q1165.6094,665.5313 1164.9063,665.5313 Q1162.4063,665.5313 1161.0781,663.8906 Q1159.7656,662.2344 1159.7656,659.1094 Q1159.7656,655.9844 1161.0781,654.3281 Q1162.4063,652.6719 1164.9063,652.6719 Q1165.6094,652.6719 1166.25,652.8281 Q1166.9063,652.9844 1167.4688,653.2813 L1167.4688,656 Q1166.8438,655.4219 1166.25,655.1563 Q1165.6563,654.875 1165.0313,654.875 Q1163.6875,654.875 1163,655.9531 Q1162.3125,657.0156 1162.3125,659.1094 Q1162.3125,661.2031 1163,662.2813 Q1163.6875,663.3438 1165.0313,663.3438 Q1165.6563,663.3438 1166.25,663.0781 Q1166.8438,662.7969 1167.4688,662.2188 L1167.4688,664.9375 Z " fill="#000000"/>
        <text fill="#000000" font-family="sans-serif" font-size="14" lengthAdjust="spacing" textLength="95.8193" x="1178.5" y="664.1436">class_method</text>
        <line style="stroke:#181818;stroke-width:0.5;" x1="1150.5" x2="1276.3193" y1="675.2969" y2="675.2969"/>
        <line style="stroke:#181818;stroke-width:0.5;" x1="1150.5" x2="1276.3193" y1="683.2969" y2="683.2969"/>
      </g>
    </a>
    <a href="classclanguml_1_1class__diagram_1_1model_1_1class__.html" target="_top" title="Diagram element representing a class or class template." xlink:actuate="onRequest" xlink:href="classclanguml_1_1class__diagram_1_1model_1_1class__.html" xlink:show="new" xlink:title="Diagram element representing a class or class template." xlink:type="simple">
      <g id="elem_C_0010336274859733225462">
        <rect codeLine="58" fill="#F1F1F1" height="48" id="C_0010336274859733225462" rx="2.5" ry="2.5" style="stroke:#181818;stroke-width:0.5;" width="73.7539" x="966.5" y="394.2969"/>
        <ellipse cx="981.5" cy="410.2969" fill="#ADD1B2" rx="11" ry="11" style="stroke:#181818;stroke-width:1.0;"/>
        <path d="M984.4688,415.9375 Q983.8906,416.2344 983.25,416.375 Q982.6094,416.5313 981.9063,416.5313 Q979.4063,416.5313 978.0781,414.8906 Q976.7656,413.2344 976.7656,410.1094 Q976.7656,406.9844 978.0781,405.3281 Q979.4063,403.6719 981.9063,403.6719 Q982.6094,403.6719 983.25,403.8281 Q983.9063,403.9844 984.4688,404.2813 L984.4688,407 Q983.8438,406.4219 983.25,406.1563 Q982.6563,405.875 982.0313,405.875 Q980.6875,405.875 980,406.9531 Q979.3125,408.0156 979.3125,410.1094 Q979.3125,412.2031 980,413.2813 Q980.6875,414.3438 982.0313,414.3438 Q982.6563,414.3438 983.25,414.0781 Q983.8438,413.7969 984.4688,413.2188 L984.4688,415.9375 Z " fill="#000000"/>
        <text fill="#000000" font-family="sans-serif" font-size="14" lengthAdjust="spacing" textLength="41.7539" x="995.5" y="415.1436">class_</text>
        <line style="stroke:#181818;stroke-width:0.5;" x1="967.5" x2="1039.2539" y1="426.2969" y2="426.2969"/>
        <line style="stroke:#181818;stroke-width:0.5;" x1="967.5" x2="1039.2539" y1="434.2969" y2="434.2969"/>
      </g>
    </a>
    <a href="classclanguml_1_1class__diagram_1_1model_1_1concept__.html" target="_top" title="Model of C++ concept." xlink:actuate="onRequest" xlink:href="classclanguml_1_1class__diagram_1_1model_1_1concept__.html" xlink:show="new" xlink:title="Model of C++ concept." xlink:type="simple">
      <g id="elem_C_0010998792414017796003">
        <rect codeLine="62" fill="#F1F1F1" height="48" id="C_0010998792414017796003" rx="2.5" ry="2.5" style="stroke:#181818;stroke-width:0.5;" width="94.8223" x="956" y="477.2969"/>
        <ellipse cx="971" cy="493.2969" fill="#ADD1B2" rx="11" ry="11" style="stroke:#181818;stroke-width:1.0;"/>
        <path d="M973.9688,498.9375 Q973.3906,499.2344 972.75,499.375 Q972.1094,499.5313 971.4063,499.5313 Q968.9063,499.5313 967.5781,497.8906 Q966.2656,496.2344 966.2656,493.1094 Q966.2656,489.9844 967.5781,488.3281 Q968.9063,486.6719 971.4063,486.6719 Q972.1094,486.6719 972.75,486.8281 Q973.4063,486.9844 973.9688,487.2813 L973.9688,490 Q973.3438,489.4219 972.75,489.1563 Q972.1563,488.875 971.5313,488.875 Q970.1875,488.875 969.5,489.9531 Q968.8125,491.0156 968.8125,493.1094 Q968.8125,495.2031 969.5,496.2813 Q970.1875,497.3438 971.5313,497.3438 Q972.1563,497.3438 972.75,497.0781 Q973.3438,496.7969 973.9688,496.2188 L973.9688,498.9375 Z " fill="#000000"/>
        <text fill="#000000" font-family="sans-serif" font-size="14" lengthAdjust="spacing" textLength="62.8223" x="985" y="498.1436">concept_</text>
        <line style="stroke:#181818;stroke-width:0.5;" x1="957" x2="1049.8223" y1="509.2969" y2="509.2969"/>
        <line style="stroke:#181818;stroke-width:0.5;" x1="957" x2="1049.8223" y1="517.2969" y2="517.2969"/>
      </g>
    </a>
    <a href="classclanguml_1_1class__diagram_1_1model_1_1enum__.html" target="_top" title="Diagram element representing an enum." xlink:actuate="onRequest" xlink:href="classclanguml_1_1class__diagram_1_1model_1_1enum__.html" xlink:show="new" xlink:title="Diagram element representing an enum." xlink:type="simple">
      <g id="elem_C_0005795143816749204050">
        <rect codeLine="66" fill="#F1F1F1" height="48" id="C_0005795143816749204050" rx="2.5" ry="2.5" style="stroke:#181818;stroke-width:0.5;" width="78.9971" x="964" y="560.2969"/>
        <ellipse cx="979" cy="576.2969" fill="#ADD1B2" rx="11" ry="11" style="stroke:#181818;stroke-width:1.0;"/>
        <path d="M981.9688,581.9375 Q981.3906,582.2344 980.75,582.375 Q980.1094,582.5313 979.4063,582.5313 Q976.9063,582.5313 975.5781,580.8906 Q974.2656,579.2344 974.2656,576.1094 Q974.2656,572.9844 975.5781,571.3281 Q976.9063,569.6719 979.4063,569.6719 Q980.1094,569.6719 980.75,569.8281 Q981.4063,569.9844 981.9688,570.2813 L981.9688,573 Q981.3438,572.4219 980.75,572.1563 Q980.1563,571.875 979.5313,571.875 Q978.1875,571.875 977.5,572.9531 Q976.8125,574.0156 976.8125,576.1094 Q976.8125,578.2031 977.5,579.2813 Q978.1875,580.3438 979.5313,580.3438 Q980.1563,580.3438 980.75,580.0781 Q981.3438,579.7969 981.9688,579.2188 L981.9688,581.9375 Z " fill="#000000"/>
        <text fill="#000000" font-family="sans-serif" font-size="14" lengthAdjust="spacing" textLength="46.9971" x="993" y="581.1436">enum_</text>
        <line style="stroke:#181818;stroke-width:0.5;" x1="965" x2="1041.9971" y1="592.2969" y2="592.2969"/>
        <line style="stroke:#181818;stroke-width:0.5;" x1="965" x2="1041.9971" y1="600.2969" y2="600.2969"/>
      </g>
    </a>
    <a href="structclanguml_1_1sequence__diagram_1_1model_1_1participant.html" target="_top" title="Base class for various types of sequence diagram participants" xlink:actuate="onRequest" xlink:href="structclanguml_1_1sequence__diagram_1_1model_1_1participant.html" xlink:show="new" xlink:title="Base class for various types of sequence diagram participants" xlink:type="simple">
      <g id="elem_C_0011201726182739961811">
        <rect codeLine="74" fill="#F1F1F1" height="48" id="C_0011201726182739961811" rx="2.5" ry="2.5" style="stroke:#181818;stroke-width:0.5;" width="108.0156" x="949.5" y="204.2969"/>
        <ellipse cx="964.5" cy="220.2969" fill="#ADD1B2" rx="11" ry="11" style="stroke:#181818;stroke-width:1.0;"/>
        <path d="M967.4688,225.9375 Q966.8906,226.2344 966.25,226.375 Q965.6094,226.5313 964.9063,226.5313 Q962.4063,226.5313 961.0781,224.8906 Q959.7656,223.2344 959.7656,220.1094 Q959.7656,216.9844 961.0781,215.3281 Q962.4063,213.6719 964.9063,213.6719 Q965.6094,213.6719 966.25,213.8281 Q966.9063,213.9844 967.4688,214.2813 L967.4688,217 Q966.8438,216.4219 966.25,216.1563 Q965.6563,215.875 965.0313,215.875 Q963.6875,215.875 963,216.9531 Q962.3125,218.0156 962.3125,220.1094 Q962.3125,222.2031 963,223.2813 Q963.6875,224.3438 965.0313,224.3438 Q965.6563,224.3438 966.25,224.0781 Q966.8438,223.7969 967.4688,223.2188 L967.4688,225.9375 Z " fill="#000000"/>
        <text fill="#000000" font-family="sans-serif" font-size="14" lengthAdjust="spacing" textLength="76.0156" x="978.5" y="225.1436">participant</text>
        <line style="stroke:#181818;stroke-width:0.5;" x1="950.5" x2="1056.5156" y1="236.2969" y2="236.2969"/>
        <line style="stroke:#181818;stroke-width:0.5;" x1="950.5" x2="1056.5156" y1="244.2969" y2="244.2969"/>
      </g>
    </a>
    <a href="structclanguml_1_1sequence__diagram_1_1model_1_1class__.html" target="_top" title="Sequence diagram participant representing a class." xlink:actuate="onRequest" xlink:href="structclanguml_1_1sequence__diagram_1_1model_1_1class__.html" xlink:show="new" xlink:title="Sequence diagram participant representing a class." xlink:type="simple">
      <g id="elem_C_0007084118972955772881">
        <rect codeLine="78" fill="#F1F1F1" height="48" id="C_0007084118972955772881" rx="2.5" ry="2.5" style="stroke:#181818;stroke-width:0.5;" width="73.7539" x="1176.5" y="204.2969"/>
        <ellipse cx="1191.5" cy="220.2969" fill="#ADD1B2" rx="11" ry="11" style="stroke:#181818;stroke-width:1.0;"/>
        <path d="M1194.4688,225.9375 Q1193.8906,226.2344 1193.25,226.375 Q1192.6094,226.5313 1191.9063,226.5313 Q1189.4063,226.5313 1188.0781,224.8906 Q1186.7656,223.2344 1186.7656,220.1094 Q1186.7656,216.9844 1188.0781,215.3281 Q1189.4063,213.6719 1191.9063,213.6719 Q1192.6094,213.6719 1193.25,213.8281 Q1193.9063,213.9844 1194.4688,214.2813 L1194.4688,217 Q1193.8438,216.4219 1193.25,216.1563 Q1192.6563,215.875 1192.0313,215.875 Q1190.6875,215.875 1190,216.9531 Q1189.3125,218.0156 1189.3125,220.1094 Q1189.3125,222.2031 1190,223.2813 Q1190.6875,224.3438 1192.0313,224.3438 Q1192.6563,224.3438 1193.25,224.0781 Q1193.8438,223.7969 1194.4688,223.2188 L1194.4688,225.9375 Z " fill="#000000"/>
        <text fill="#000000" font-family="sans-serif" font-size="14" lengthAdjust="spacing" textLength="41.7539" x="1205.5" y="225.1436">class_</text>
        <line style="stroke:#181818;stroke-width:0.5;" x1="1177.5" x2="1249.2539" y1="236.2969" y2="236.2969"/>
        <line style="stroke:#181818;stroke-width:0.5;" x1="1177.5" x2="1249.2539" y1="244.2969" y2="244.2969"/>
      </g>
    </a>
    <a href="structclanguml_1_1sequence__diagram_1_1model_1_1function.html" target="_top" title="Participant mode representing a free function." xlink:actuate="onRequest" xlink:href="structclanguml_1_1sequence__diagram_1_1model_1_1function.html" xlink:show="new" xlink:title="Participant mode representing a free function." xlink:type="simple">
      <g id="elem_C_0001861107648253454629">
        <rect codeLine="82" fill="#F1F1F1" height="48" id="C_0001861107648253454629" rx="2.5" ry="2.5" style="stroke:#181818;stroke-width:0.5;" width="89.1895" x="1169" y="121.2969"/>
        <ellipse cx="1184" cy="137.2969" fill="#ADD1B2" rx="11" ry="11" style="stroke:#181818;stroke-width:1.0;"/>
        <path d="M1186.9688,142.9375 Q1186.3906,143.2344 1185.75,143.375 Q1185.1094,143.5313 1184.4063,143.5313 Q1181.9063,143.5313 1180.5781,141.8906 Q1179.2656,140.2344 1179.2656,137.1094 Q1179.2656,133.9844 1180.5781,132.3281 Q1181.9063,130.6719 1184.4063,130.6719 Q1185.1094,130.6719 1185.75,130.8281 Q1186.4063,130.9844 1186.9688,131.2813 L1186.9688,134 Q1186.3438,133.4219 1185.75,133.1563 Q1185.1563,132.875 1184.5313,132.875 Q1183.1875,132.875 1182.5,133.9531 Q1181.8125,135.0156 1181.8125,137.1094 Q1181.8125,139.2031 1182.5,140.2813 Q1183.1875,141.3438 1184.5313,141.3438 Q1185.1563,141.3438 1185.75,141.0781 Q1186.3438,140.7969 1186.9688,140.2188 L1186.9688,142.9375 Z " fill="#000000"/>
        <text fill="#000000" font-family="sans-serif" font-size="14" lengthAdjust="spacing" textLength="57.1895" x="1198" y="142.1436">function</text>
        <line style="stroke:#181818;stroke-width:0.5;" x1="1170" x2="1257.1895" y1="153.2969" y2="153.2969"/>
        <line style="stroke:#181818;stroke-width:0.5;" x1="1170" x2="1257.1895" y1="161.2969" y2="161.2969"/>
      </g>
    </a>
    <a href="structclanguml_1_1sequence__diagram_1_1model_1_1method.html" target="_top" title="Participant model representing a method" xlink:actuate="onRequest" xlink:href="structclanguml_1_1sequence__diagram_1_1model_1_1method.html" xlink:show="new" xlink:title="Participant model representing a method" xlink:type="simple">
      <g id="elem_C_0006541327780382276039">
        <rect codeLine="86" fill="#F1F1F1" height="48" id="C_0006541327780382276039" rx="2.5" ry="2.5" style="stroke:#181818;stroke-width:0.5;" width="86.0654" x="1376.5" y="204.2969"/>
        <ellipse cx="1391.5" cy="220.2969" fill="#ADD1B2" rx="11" ry="11" style="stroke:#181818;stroke-width:1.0;"/>
        <path d="M1394.4688,225.9375 Q1393.8906,226.2344 1393.25,226.375 Q1392.6094,226.5313 1391.9063,226.5313 Q1389.4063,226.5313 1388.0781,224.8906 Q1386.7656,223.2344 1386.7656,220.1094 Q1386.7656,216.9844 1388.0781,215.3281 Q1389.4063,213.6719 1391.9063,213.6719 Q1392.6094,213.6719 1393.25,213.8281 Q1393.9063,213.9844 1394.4688,214.2813 L1394.4688,217 Q1393.8438,216.4219 1393.25,216.1563 Q1392.6563,215.875 1392.0313,215.875 Q1390.6875,215.875 1390,216.9531 Q1389.3125,218.0156 1389.3125,220.1094 Q1389.3125,222.2031 1390,223.2813 Q1390.6875,224.3438 1392.0313,224.3438 Q1392.6563,224.3438 1393.25,224.0781 Q1393.8438,223.7969 1394.4688,223.2188 L1394.4688,225.9375 Z " fill="#000000"/>
        <text fill="#000000" font-family="sans-serif" font-size="14" lengthAdjust="spacing" textLength="54.0654" x="1405.5" y="225.1436">method</text>
        <line style="stroke:#181818;stroke-width:0.5;" x1="1377.5" x2="1461.5654" y1="236.2969" y2="236.2969"/>
        <line style="stroke:#181818;stroke-width:0.5;" x1="1377.5" x2="1461.5654" y1="244.2969" y2="244.2969"/>
      </g>
    </a>
    <a href="structclanguml_1_1sequence__diagram_1_1model_1_1function__template.html" target="_top" title="Participant model representing a function template." xlink:actuate="onRequest" xlink:href="structclanguml_1_1sequence__diagram_1_1model_1_1function__template.html" xlink:show="new" xlink:title="Participant model representing a function template." xlink:type="simple">
      <g id="elem_C_0018241535739946484465">
        <rect codeLine="90" fill="#F1F1F1" height="48" id="C_0018241535739946484465" rx="2.5" ry="2.5" style="stroke:#181818;stroke-width:0.5;" width="159.3877" x="1340" y="121.2969"/>
        <ellipse cx="1355" cy="137.2969" fill="#ADD1B2" rx="11" ry="11" style="stroke:#181818;stroke-width:1.0;"/>
        <path d="M1357.9688,142.9375 Q1357.3906,143.2344 1356.75,143.375 Q1356.1094,143.5313 1355.4063,143.5313 Q1352.9063,143.5313 1351.5781,141.8906 Q1350.2656,140.2344 1350.2656,137.1094 Q1350.2656,133.9844 1351.5781,132.3281 Q1352.9063,130.6719 1355.4063,130.6719 Q1356.1094,130.6719 1356.75,130.8281 Q1357.4063,130.9844 1357.9688,131.2813 L1357.9688,134 Q1357.3438,133.4219 1356.75,133.1563 Q1356.1563,132.875 1355.5313,132.875 Q1354.1875,132.875 1353.5,133.9531 Q1352.8125,135.0156 1352.8125,137.1094 Q1352.8125,139.2031 1353.5,140.2813 Q1354.1875,141.3438 1355.5313,141.3438 Q1356.1563,141.3438 1356.75,141.0781 Q1357.3438,140.7969 1357.9688,140.2188 L1357.9688,142.9375 Z " fill="#000000"/>
        <text fill="#000000" font-family="sans-serif" font-size="14" lengthAdjust="spacing" textLength="127.3877" x="1369" y="142.1436">function_template</text>
        <line style="stroke:#181818;stroke-width:0.5;" x1="1341" x2="1498.3877" y1="153.2969" y2="153.2969"/>
        <line style="stroke:#181818;stroke-width:0.5;" x1="1341" x2="1498.3877" y1="161.2969" y2="161.2969"/>
      </g>
    </a>
    <a href="classclanguml_1_1sequence__diagram_1_1model_1_1message.html" target="_top" title="Model of a sequence diagram message." xlink:actuate="onRequest" xlink:href="classclanguml_1_1sequence__diagram_1_1model_1_1message.html" xlink:show="new" xlink:title="Model of a sequence diagram message." xlink:type="simple">
      <g id="elem_C_0017829224549649886549">
        <rect codeLine="94" fill="#F1F1F1" height="48" id="C_0017829224549649886549" rx="2.5" ry="2.5" style="stroke:#181818;stroke-width:0.5;" width="94.918" x="956" y="121.2969"/>
        <ellipse cx="971" cy="137.2969" fill="#ADD1B2" rx="11" ry="11" style="stroke:#181818;stroke-width:1.0;"/>
        <path d="M973.9688,142.9375 Q973.3906,143.2344 972.75,143.375 Q972.1094,143.5313 971.4063,143.5313 Q968.9063,143.5313 967.5781,141.8906 Q966.2656,140.2344 966.2656,137.1094 Q966.2656,133.9844 967.5781,132.3281 Q968.9063,130.6719 971.4063,130.6719 Q972.1094,130.6719 972.75,130.8281 Q973.4063,130.9844 973.9688,131.2813 L973.9688,134 Q973.3438,133.4219 972.75,133.1563 Q972.1563,132.875 971.5313,132.875 Q970.1875,132.875 969.5,133.9531 Q968.8125,135.0156 968.8125,137.1094 Q968.8125,139.2031 969.5,140.2813 Q970.1875,141.3438 971.5313,141.3438 Q972.1563,141.3438 972.75,141.0781 Q973.3438,140.7969 973.9688,140.2188 L973.9688,142.9375 Z " fill="#000000"/>
        <text fill="#000000" font-family="sans-serif" font-size="14" lengthAdjust="spacing" textLength="62.918" x="985" y="142.1436">message</text>
        <line style="stroke:#181818;stroke-width:0.5;" x1="957" x2="1049.918" y1="153.2969" y2="153.2969"/>
        <line style="stroke:#181818;stroke-width:0.5;" x1="957" x2="1049.918" y1="161.2969" y2="161.2969"/>
      </g>
    </a>
    <g id="link_C_0008936819060997384951_C_0016370694070378943411">
      <path codeLine="99" d="M232.3,338.2969 C258.86,338.2969 269.61,338.2969 293.83,338.2969 " fill="none" id="C_0008936819060997384951-backto-C_0016370694070378943411" style="stroke:#181818;stroke-width:1.0;"/>
      <polygon fill="none" points="214.3,338.2969,232.3,344.2969,232.3,332.2969,214.3,338.2969" style="stroke:#181818;stroke-width:1.0;"/>
    </g>
    <g id="link_C_0008936819060997384951_C_0008588005715032923314">
      <path codeLine="100" d="M211.3269,368.6723 C240.3169,379.6323 257.75,386.2269 286.77,397.1969 " fill="none" id="C_0008936819060997384951-backto-C_0008588005715032923314" style="stroke:#181818;stroke-width:1.0;"/>
      <polygon fill="none" points="194.49,362.3069,209.2051,374.2846,213.4487,363.06,194.49,362.3069" style="stroke:#181818;stroke-width:1.0;"/>
    </g>
    <g id="link_C_0007162092657467521843_C_0008588005715032923314">
      <path codeLine="101" d="M218.75,421.2969 C241.98,421.2969 249.97,421.2969 273.7,421.2969 " fill="none" id="C_0007162092657467521843-backto-C_0008588005715032923314" style="stroke:#181818;stroke-width:1.0;"/>
      <polygon fill="none" points="200.75,421.2969,218.75,427.2969,218.75,415.2969,200.75,421.2969" style="stroke:#181818;stroke-width:1.0;"/>
    </g>
    <g id="link_C_0008588005715032923314_C_0016556163051475263500">
      <path codeLine="102" d="M447.1,421.2969 C470.33,421.2969 477.05,421.2969 497.38,421.2969 " fill="none" id="C_0008588005715032923314-backto-C_0016556163051475263500" style="stroke:#181818;stroke-width:1.0;"/>
      <polygon fill="none" points="429.1,421.2969,447.1,427.2969,447.1,415.2969,429.1,421.2969" style="stroke:#181818;stroke-width:1.0;"/>
    </g>
    <g id="link_C_0016556163051475263500_C_0013384831159811298387">
      <path codeLine="103" d="M605.92,421.2969 C626.14,421.2969 632.69,421.2969 655.9,421.2969 " fill="none" id="C_0016556163051475263500-backto-C_0013384831159811298387" style="stroke:#181818;stroke-width:1.0;"/>
      <polygon fill="none" points="587.92,421.2969,605.92,427.2969,605.92,415.2969,587.92,421.2969" style="stroke:#181818;stroke-width:1.0;"/>
    </g>
    <g id="link_C_0008588005715032923314_C_0006285717704576425038">
      <path codeLine="104" d="M423.6507,390.049 C449.3807,378.749 463.45,372.5769 488.91,361.3969 " fill="none" id="C_0008588005715032923314-backto-C_0006285717704576425038" style="stroke:#181818;stroke-width:1.0;"/>
      <polygon fill="none" points="407.17,397.2869,426.0633,395.5425,421.238,384.5554,407.17,397.2869" style="stroke:#181818;stroke-width:1.0;"/>
    </g>
    <g id="link_C_0016556163051475263500_C_0017146293478645494837">
      <path codeLine="105" d="M604.4351,394.8878 C635.2551,381.5278 659.65,370.9569 690.49,357.5869 " fill="none" id="C_0016556163051475263500-backto-C_0017146293478645494837" style="stroke:#181818;stroke-width:1.0;"/>
      <polygon fill="none" points="587.92,402.0469,606.8214,400.3929,602.0487,389.3828,587.92,402.0469" style="stroke:#181818;stroke-width:1.0;"/>
    </g>
    <g id="link_C_0008936819060997384951_C_0004846934894930864299">
      <path codeLine="106" d="M208.9526,372.0959 C216.4426,376.8659 208.26,372.7869 214,379.2969 C268.06,440.6869 214.68,496.9669 274,553.2969 C462.83,732.6069 797.56,752.2369 937.83,752.0469 " fill="none" id="C_0008936819060997384951-backto-C_0004846934894930864299" style="stroke:#181818;stroke-width:1.0;"/>
      <polygon fill="none" points="193.77,362.4269,205.7296,377.1567,212.1756,367.035,193.77,362.4269" style="stroke:#181818;stroke-width:1.0;"/>
    </g>
    <g id="link_C_0007162092657467521843_C_0004846934894930864299">
      <path codeLine="107" d="M135.6512,463.2593 C143.2912,524.6993 170.62,669.2869 274,737.2969 C482.46,874.4169 802.18,807.9569 937.94,770.2269 " fill="none" id="C_0007162092657467521843-backto-C_0004846934894930864299" style="stroke:#181818;stroke-width:1.0;"/>
      <polygon fill="none" points="133.43,445.3969,129.697,463.9997,141.6053,462.5189,133.43,445.3969" style="stroke:#181818;stroke-width:1.0;"/>
    </g>
    <g id="link_C_0004846934894930864299_C_0014370262096868218046">
      <path codeLine="108" d="M1087.17,750.2969 C1111.86,750.2969 1122.01,750.2969 1146.79,750.2969 " fill="none" id="C_0004846934894930864299-backto-C_0014370262096868218046" style="stroke:#181818;stroke-width:1.0;"/>
      <polygon fill="none" points="1069.17,750.2969,1087.17,756.2969,1087.17,744.2969,1069.17,750.2969" style="stroke:#181818;stroke-width:1.0;"/>
    </g>
    <g id="link_C_0008936819060997384951_C_0004845352266951408403">
      <path codeLine="109" d="M204.7912,371.1909 C213.5912,376.1109 206.51,372.9669 214,379.2969 C248.76,408.6869 236.73,436.1669 274,462.2969 C476.93,604.5569 776.32,648.4769 919.85,661.7369 " fill="none" id="C_0008936819060997384951-backto-C_0004845352266951408403" style="stroke:#181818;stroke-width:1.0;"/>
      <polygon fill="none" points="189.08,362.4069,201.8632,376.4279,207.7192,365.9538,189.08,362.4069" style="stroke:#181818;stroke-width:1.0;"/>
    </g>
    <g id="link_C_0004846934894930864299_C_0001633165731746789371">
      <path codeLine="110" d="M1081.3793,719.6186 C1108.8593,708.6586 1124.61,702.3669 1152.11,691.3969 " fill="none" id="C_0004846934894930864299-backto-C_0001633165731746789371" style="stroke:#181818;stroke-width:1.0;"/>
      <polygon fill="none" points="1064.66,726.2869,1083.602,725.1917,1079.1565,714.0455,1064.66,726.2869" style="stroke:#181818;stroke-width:1.0;"/>
    </g>
    <g id="link_C_0013384831159811298387_C_0010336274859733225462">
      <path codeLine="111" d="M834.2989,420.1945 C884.1089,419.6345 927.98,419.1369 966.36,418.7069 " fill="none" id="C_0013384831159811298387-backto-C_0010336274859733225462" style="stroke:#181818;stroke-width:1.0;"/>
      <polygon fill="none" points="816.3,420.3969,834.3663,426.1941,834.2314,414.1949,816.3,420.3969" style="stroke:#181818;stroke-width:1.0;"/>
    </g>
    <g id="link_C_0016556163051475263500_C_0010998792414017796003">
      <path codeLine="112" d="M604.4102,446.7116 C624.8602,454.7216 632.93,456.8769 656,462.2969 C761.49,487.0869 888.86,496.2769 955.94,499.5569 " fill="none" id="C_0016556163051475263500-backto-C_0010998792414017796003" style="stroke:#181818;stroke-width:1.0;"/>
      <polygon fill="none" points="587.65,440.1469,602.2219,452.2984,606.5984,441.1249,587.65,440.1469" style="stroke:#181818;stroke-width:1.0;"/>
    </g>
    <g id="link_C_0016556163051475263500_C_0005795143816749204050">
      <path codeLine="113" d="M585.1186,457.0749 C606.8086,474.9249 624.58,487.0169 656,501.2969 C761.45,549.2269 898.02,571.4469 963.77,579.9269 " fill="none" id="C_0016556163051475263500-backto-C_0005795143816749204050" style="stroke:#181818;stroke-width:1.0;"/>
      <polygon fill="none" points="571.22,445.6369,581.306,461.7078,588.9313,452.442,571.22,445.6369" style="stroke:#181818;stroke-width:1.0;"/>
    </g>
    <g id="link_C_0013384831159811298387_C_0011201726182739961811">
      <path codeLine="114" d="M833.0392,396.0349 C849.5992,390.1449 849.47,388.6869 864,379.2969 C917.02,345.0169 963.1,285.6769 986.37,252.5169 " fill="none" id="C_0013384831159811298387-backto-C_0011201726182739961811" style="stroke:#181818;stroke-width:1.0;"/>
      <polygon fill="none" points="816.08,402.0669,835.0499,401.688,831.0286,390.3818,816.08,402.0669" style="stroke:#181818;stroke-width:1.0;"/>
    </g>
    <g id="link_C_0011201726182739961811_C_0007084118972955772881">
      <path codeLine="115" d="M1075.53,228.2969 C1112.72,228.2969 1143.46,228.2969 1176.27,228.2969 " fill="none" id="C_0011201726182739961811-backto-C_0007084118972955772881" style="stroke:#181818;stroke-width:1.0;"/>
      <polygon fill="none" points="1057.53,228.2969,1075.53,234.2969,1075.53,222.2969,1057.53,228.2969" style="stroke:#181818;stroke-width:1.0;"/>
    </g>
    <g id="link_C_0011201726182739961811_C_0001861107648253454629">
      <path codeLine="116" d="M1074.2473,200.4636 C1108.6673,186.7236 1136.27,175.7169 1168.69,162.7769 " fill="none" id="C_0011201726182739961811-backto-C_0001861107648253454629" style="stroke:#181818;stroke-width:1.0;"/>
      <polygon fill="none" points="1057.53,207.1369,1076.4717,206.036,1072.0228,194.8911,1057.53,207.1369" style="stroke:#181818;stroke-width:1.0;"/>
    </g>
    <g id="link_C_0001861107648253454629_C_0006541327780382276039">
      <path codeLine="117" d="M1275.2196,166.0328 C1296.4496,173.4628 1305.24,176.9269 1328,186.2969 C1344.02,192.8869 1361.33,200.7469 1376.48,207.8669 " fill="none" id="C_0001861107648253454629-backto-C_0006541327780382276039" style="stroke:#181818;stroke-width:1.0;"/>
      <polygon fill="none" points="1258.23,160.0869,1273.2376,171.696,1277.2016,160.3696,1258.23,160.0869" style="stroke:#181818;stroke-width:1.0;"/>
    </g>
    <g id="link_C_0001861107648253454629_C_0018241535739946484465">
      <path codeLine="118" d="M1276.01,145.2969 C1299.77,145.2969 1311.91,145.2969 1339.65,145.2969 " fill="none" id="C_0001861107648253454629-backto-C_0018241535739946484465" style="stroke:#181818;stroke-width:1.0;"/>
      <polygon fill="none" points="1258.01,145.2969,1276.01,151.2969,1276.01,139.2969,1258.01,145.2969" style="stroke:#181818;stroke-width:1.0;"/>
    </g>
    <g id="link_C_0008588005715032923314_C_0017829224549649886549">
      <path codeLine="119" d="M419.4427,387.9525 C428.2527,382.7025 421.51,385.9169 429,379.2969 C463.12,349.1669 451.83,322.5769 489,296.2969 C637.9,191.0169 860.28,158.4169 955.97,148.9269 " fill="none" id="C_0008588005715032923314-backto-C_0017829224549649886549" style="stroke:#181818;stroke-width:1.0;"/>
      <polygon fill="none" points="403.98,397.1669,422.5142,393.1067,416.3712,382.7982,403.98,397.1669" style="stroke:#181818;stroke-width:1.0;"/>
    </g>
  </g>
</svg>
