<svg xmlns="http://www.w3.org/2000/svg" xmlns:xlink="http://www.w3.org/1999/xlink" contentStyleType="text/css" data-diagram-type="CLASS" height="371px" preserveAspectRatio="none" style="width:723px;height:371px;background:#FFFFFF;" version="1.1" viewBox="0 0 723 371" width="723px" zoomAndPan="magnify">
  <title>Configuration model class hierarchy</title>
  <defs>
    <style type="text/css">a:hover { text-decoration: underline; }</style>
  </defs>
  <g>
    <text fill="#000000" font-family="sans-serif" font-size="14" font-weight="bold" lengthAdjust="spacing" textLength="253.3991" x="227.8005" y="24.9659">Configuration model class hierarchy</text>
    <g id="cluster_C_0000891115944470323979">
      <path d="M8.5,46.6699 L53.1098,46.6699 A3.75,3.75 0 0 1 55.6098,49.1699 L62.6098,71.7378 L713.5,71.7378 A2.5,2.5 0 0 1 716,74.2378 L716,362.1699 A2.5,2.5 0 0 1 713.5,364.6699 L8.5,364.6699 A2.5,2.5 0 0 1 6,362.1699 L6,49.1699 A2.5,2.5 0 0 1 8.5,46.6699 " fill="transparent" style="stroke:#000000;stroke-width:1.5;"/>
      <line style="stroke:#000000;stroke-width:1.5;" x1="6" x2="62.6098" y1="71.7378" y2="71.7378"/>
      <text fill="#000000" font-family="sans-serif" font-size="14" font-weight="bold" lengthAdjust="spacing" textLength="43.6098" x="10" y="63.6358">config</text>
    </g>
    <a href="structclanguml_1_1config_1_1inheritable__diagram__options.html" target="_top" title="Represents subset of inheritable configuration options" xlink:actuate="onRequest" xlink:href="structclanguml_1_1config_1_1inheritable__diagram__options.html" xlink:show="new" xlink:title="Represents subset of inheritable configuration options" xlink:type="simple">
      <g id="elem_C_0000966232506125300666">
        <rect codeLine="4" fill="#F1F1F1" height="48" id="C_0000966232506125300666" rx="2.5" ry="2.5" style="stroke:#181818;stroke-width:0.5;" width="220.6493" x="244.5" y="84.6699"/>
        <ellipse cx="259.5" cy="100.6699" fill="#ADD1B2" rx="11" ry="11" style="stroke:#181818;stroke-width:1;"/>
        <path d="M262.4688,106.3105 Q261.8906,106.6074 261.25,106.748 Q260.6094,106.9043 259.9063,106.9043 Q257.4063,106.9043 256.0781,105.2636 Q254.7656,103.6074 254.7656,100.4824 Q254.7656,97.3574 256.0781,95.7011 Q257.4063,94.0449 259.9063,94.0449 Q260.6094,94.0449 261.25,94.2011 Q261.9063,94.3574 262.4688,94.6543 L262.4688,97.373 Q261.8438,96.7949 261.25,96.5293 Q260.6563,96.248 260.0313,96.248 Q258.6875,96.248 258,97.3261 Q257.3125,98.3886 257.3125,100.4824 Q257.3125,102.5761 258,103.6543 Q258.6875,104.7168 260.0313,104.7168 Q260.6563,104.7168 261.25,104.4511 Q261.8438,104.1699 262.4688,103.5918 L262.4688,106.3105 Z " fill="#000000"/>
        <text fill="#000000" font-family="sans-serif" font-size="14" lengthAdjust="spacing" textLength="188.6493" x="273.5" y="106.1019">inheritable_diagram_options</text>
        <line style="stroke:#181818;stroke-width:0.5;" x1="245.5" x2="464.1493" y1="116.6699" y2="116.6699"/>
        <line style="stroke:#181818;stroke-width:0.5;" x1="245.5" x2="464.1493" y1="124.6699" y2="124.6699"/>
      </g>
    </a>
    <a href="structclanguml_1_1config_1_1diagram.html" target="_top" title="Common diagram configuration type" xlink:actuate="onRequest" xlink:href="structclanguml_1_1config_1_1diagram.html" xlink:show="new" xlink:title="Common diagram configuration type" xlink:type="simple">
      <g id="elem_C_0003201952778923380387">
        <rect codeLine="8" fill="#F1F1F1" height="48" id="C_0003201952778923380387" rx="2.5" ry="2.5" style="stroke:#181818;stroke-width:0.5;" width="87.4118" x="311.5" y="192.6699"/>
        <ellipse cx="326.5" cy="208.6699" fill="#ADD1B2" rx="11" ry="11" style="stroke:#181818;stroke-width:1;"/>
        <path d="M329.4688,214.3105 Q328.8906,214.6074 328.25,214.748 Q327.6094,214.9043 326.9063,214.9043 Q324.4063,214.9043 323.0781,213.2636 Q321.7656,211.6074 321.7656,208.4824 Q321.7656,205.3574 323.0781,203.7011 Q324.4063,202.0449 326.9063,202.0449 Q327.6094,202.0449 328.25,202.2011 Q328.9063,202.3574 329.4688,202.6543 L329.4688,205.373 Q328.8438,204.7949 328.25,204.5293 Q327.6563,204.248 327.0313,204.248 Q325.6875,204.248 325,205.3261 Q324.3125,206.3886 324.3125,208.4824 Q324.3125,210.5761 325,211.6543 Q325.6875,212.7168 327.0313,212.7168 Q327.6563,212.7168 328.25,212.4511 Q328.8438,212.1699 329.4688,211.5918 L329.4688,214.3105 Z " fill="#000000"/>
        <text fill="#000000" font-family="sans-serif" font-size="14" lengthAdjust="spacing" textLength="55.4118" x="340.5" y="214.1019">diagram</text>
        <line style="stroke:#181818;stroke-width:0.5;" x1="312.5" x2="397.9118" y1="224.6699" y2="224.6699"/>
        <line style="stroke:#181818;stroke-width:0.5;" x1="312.5" x2="397.9118" y1="232.6699" y2="232.6699"/>
      </g>
    </a>
    <a href="structclanguml_1_1config_1_1class__diagram.html" target="_top" title="Class diagram configuration" xlink:actuate="onRequest" xlink:href="structclanguml_1_1config_1_1class__diagram.html" xlink:show="new" xlink:title="Class diagram configuration" xlink:type="simple">
      <g id="elem_C_0002526575321178023965">
        <rect codeLine="12" fill="#F1F1F1" height="48" id="C_0002526575321178023965" rx="2.5" ry="2.5" style="stroke:#181818;stroke-width:0.5;" width="125.2257" x="22.5" y="300.6699"/>
        <ellipse cx="37.5" cy="316.6699" fill="#ADD1B2" rx="11" ry="11" style="stroke:#181818;stroke-width:1;"/>
        <path d="M40.4688,322.3105 Q39.8906,322.6074 39.25,322.748 Q38.6094,322.9043 37.9063,322.9043 Q35.4063,322.9043 34.0781,321.2636 Q32.7656,319.6074 32.7656,316.4824 Q32.7656,313.3574 34.0781,311.7011 Q35.4063,310.0449 37.9063,310.0449 Q38.6094,310.0449 39.25,310.2011 Q39.9063,310.3574 40.4688,310.6543 L40.4688,313.373 Q39.8438,312.7949 39.25,312.5293 Q38.6563,312.248 38.0313,312.248 Q36.6875,312.248 36,313.3261 Q35.3125,314.3886 35.3125,316.4824 Q35.3125,318.5761 36,319.6543 Q36.6875,320.7168 38.0313,320.7168 Q38.6563,320.7168 39.25,320.4511 Q39.8438,320.1699 40.4688,319.5918 L40.4688,322.3105 Z " fill="#000000"/>
        <text fill="#000000" font-family="sans-serif" font-size="14" lengthAdjust="spacing" textLength="93.2257" x="51.5" y="322.1019">class_diagram</text>
        <line style="stroke:#181818;stroke-width:0.5;" x1="23.5" x2="146.7257" y1="332.6699" y2="332.6699"/>
        <line style="stroke:#181818;stroke-width:0.5;" x1="23.5" x2="146.7257" y1="340.6699" y2="340.6699"/>
      </g>
    </a>
    <a href="structclanguml_1_1config_1_1sequence__diagram.html" target="_top" title="Sequence diagram configuration" xlink:actuate="onRequest" xlink:href="structclanguml_1_1config_1_1sequence__diagram.html" xlink:show="new" xlink:title="Sequence diagram configuration" xlink:type="simple">
      <g id="elem_C_0016556429241281113094">
        <rect codeLine="16" fill="#F1F1F1" height="48" id="C_0016556429241281113094" rx="2.5" ry="2.5" style="stroke:#181818;stroke-width:0.5;" width="156.6555" x="182.5" y="300.6699"/>
        <ellipse cx="197.5" cy="316.6699" fill="#ADD1B2" rx="11" ry="11" style="stroke:#181818;stroke-width:1;"/>
        <path d="M200.4688,322.3105 Q199.8906,322.6074 199.25,322.748 Q198.6094,322.9043 197.9063,322.9043 Q195.4063,322.9043 194.0781,321.2636 Q192.7656,319.6074 192.7656,316.4824 Q192.7656,313.3574 194.0781,311.7011 Q195.4063,310.0449 197.9063,310.0449 Q198.6094,310.0449 199.25,310.2011 Q199.9063,310.3574 200.4688,310.6543 L200.4688,313.373 Q199.8438,312.7949 199.25,312.5293 Q198.6563,312.248 198.0313,312.248 Q196.6875,312.248 196,313.3261 Q195.3125,314.3886 195.3125,316.4824 Q195.3125,318.5761 196,319.6543 Q196.6875,320.7168 198.0313,320.7168 Q198.6563,320.7168 199.25,320.4511 Q199.8438,320.1699 200.4688,319.5918 L200.4688,322.3105 Z " fill="#000000"/>
        <text fill="#000000" font-family="sans-serif" font-size="14" lengthAdjust="spacing" textLength="124.6555" x="211.5" y="322.1019">sequence_diagram</text>
        <line style="stroke:#181818;stroke-width:0.5;" x1="183.5" x2="338.1555" y1="332.6699" y2="332.6699"/>
        <line style="stroke:#181818;stroke-width:0.5;" x1="183.5" x2="338.1555" y1="340.6699" y2="340.6699"/>
      </g>
    </a>
    <a href="structclanguml_1_1config_1_1package__diagram.html" target="_top" title="Package diagram configuration" xlink:actuate="onRequest" xlink:href="structclanguml_1_1config_1_1package__diagram.html" xlink:show="new" xlink:title="Package diagram configuration" xlink:type="simple">
      <g id="elem_C_0016241417306223764720">
        <rect codeLine="20" fill="#F1F1F1" height="48" id="C_0016241417306223764720" rx="2.5" ry="2.5" style="stroke:#181818;stroke-width:0.5;" width="148.6476" x="374.5" y="300.6699"/>
        <ellipse cx="389.5" cy="316.6699" fill="#ADD1B2" rx="11" ry="11" style="stroke:#181818;stroke-width:1;"/>
        <path d="M392.4688,322.3105 Q391.8906,322.6074 391.25,322.748 Q390.6094,322.9043 389.9063,322.9043 Q387.4063,322.9043 386.0781,321.2636 Q384.7656,319.6074 384.7656,316.4824 Q384.7656,313.3574 386.0781,311.7011 Q387.4063,310.0449 389.9063,310.0449 Q390.6094,310.0449 391.25,310.2011 Q391.9063,310.3574 392.4688,310.6543 L392.4688,313.373 Q391.8438,312.7949 391.25,312.5293 Q390.6563,312.248 390.0313,312.248 Q388.6875,312.248 388,313.3261 Q387.3125,314.3886 387.3125,316.4824 Q387.3125,318.5761 388,319.6543 Q388.6875,320.7168 390.0313,320.7168 Q390.6563,320.7168 391.25,320.4511 Q391.8438,320.1699 392.4688,319.5918 L392.4688,322.3105 Z " fill="#000000"/>
        <text fill="#000000" font-family="sans-serif" font-size="14" lengthAdjust="spacing" textLength="116.6476" x="403.5" y="322.1019">package_diagram</text>
        <line style="stroke:#181818;stroke-width:0.5;" x1="375.5" x2="522.1476" y1="332.6699" y2="332.6699"/>
        <line style="stroke:#181818;stroke-width:0.5;" x1="375.5" x2="522.1476" y1="340.6699" y2="340.6699"/>
      </g>
    </a>
    <a href="structclanguml_1_1config_1_1include__diagram.html" target="_top" title="Include diagram configuration" xlink:actuate="onRequest" xlink:href="structclanguml_1_1config_1_1include__diagram.html" xlink:show="new" xlink:title="Include diagram configuration" xlink:type="simple">
      <g id="elem_C_0004074670510951731805">
        <rect codeLine="24" fill="#F1F1F1" height="48" id="C_0004074670510951731805" rx="2.5" ry="2.5" style="stroke:#181818;stroke-width:0.5;" width="141.3816" x="558.5" y="300.6699"/>
        <ellipse cx="573.5" cy="316.6699" fill="#ADD1B2" rx="11" ry="11" style="stroke:#181818;stroke-width:1;"/>
        <path d="M576.4688,322.3105 Q575.8906,322.6074 575.25,322.748 Q574.6094,322.9043 573.9063,322.9043 Q571.4063,322.9043 570.0781,321.2636 Q568.7656,319.6074 568.7656,316.4824 Q568.7656,313.3574 570.0781,311.7011 Q571.4063,310.0449 573.9063,310.0449 Q574.6094,310.0449 575.25,310.2011 Q575.9063,310.3574 576.4688,310.6543 L576.4688,313.373 Q575.8438,312.7949 575.25,312.5293 Q574.6563,312.248 574.0313,312.248 Q572.6875,312.248 572,313.3261 Q571.3125,314.3886 571.3125,316.4824 Q571.3125,318.5761 572,319.6543 Q572.6875,320.7168 574.0313,320.7168 Q574.6563,320.7168 575.25,320.4511 Q575.8438,320.1699 576.4688,319.5918 L576.4688,322.3105 Z " fill="#000000"/>
        <text fill="#000000" font-family="sans-serif" font-size="14" lengthAdjust="spacing" textLength="109.3816" x="587.5" y="322.1019">include_diagram</text>
        <line style="stroke:#181818;stroke-width:0.5;" x1="559.5" x2="698.8816" y1="332.6699" y2="332.6699"/>
        <line style="stroke:#181818;stroke-width:0.5;" x1="559.5" x2="698.8816" y1="340.6699" y2="340.6699"/>
      </g>
    </a>
    <g id="link_C_0000966232506125300666_C_0003201952778923380387">
      <path codeLine="28" d="M355,150.6699 C355,168.3299 355,174.6099 355,192.3499 " fill="transparent" id="C_0000966232506125300666-backto-C_0003201952778923380387" style="stroke:#181818;stroke-width:1;"/>
      <polygon fill="transparent" points="355,132.6699,349,150.6699,361,150.6699,355,132.6699" style="stroke:#181818;stroke-width:1;"/>
    </g>
    <g id="link_C_0003201952778923380387_C_0002526575321178023965">
      <path codeLine="29" d="M294.5649,241.3975 C249.0449,259.2675 194.2,280.7999 143.75,300.6099 " fill="transparent" id="C_0003201952778923380387-backto-C_0002526575321178023965" style="stroke:#181818;stroke-width:1;"/>
      <polygon fill="transparent" points="311.32,234.8199,292.3723,235.8125,296.7574,246.9826,311.32,234.8199" style="stroke:#181818;stroke-width:1;"/>
    </g>
    <g id="link_C_0003201952778923380387_C_0016556429241281113094">
      <path codeLine="30" d="M322.6576,254.1376 C306.9976,271.7976 297.41,282.6099 281.68,300.3499 " fill="transparent" id="C_0003201952778923380387-backto-C_0016556429241281113094" style="stroke:#181818;stroke-width:1;"/>
      <polygon fill="transparent" points="334.6,240.6699,318.1683,250.1567,327.1468,258.1184,334.6,240.6699" style="stroke:#181818;stroke-width:1;"/>
    </g>
    <g id="link_C_0003201952778923380387_C_0016241417306223764720">
      <path codeLine="31" d="M387.3424,254.1376 C403.0024,271.7976 412.59,282.6099 428.32,300.3499 " fill="transparent" id="C_0003201952778923380387-backto-C_0016241417306223764720" style="stroke:#181818;stroke-width:1;"/>
      <polygon fill="transparent" points="375.4,240.6699,382.8532,258.1184,391.8317,250.1567,375.4,240.6699" style="stroke:#181818;stroke-width:1;"/>
    </g>
    <g id="link_C_0003201952778923380387_C_0004074670510951731805">
      <path codeLine="32" d="M415.5073,241.0751 C461.6673,258.9351 517.94,280.6999 569.36,300.5999 " fill="transparent" id="C_0003201952778923380387-backto-C_0004074670510951731805" style="stroke:#181818;stroke-width:1;"/>
      <polygon fill="transparent" points="398.72,234.5799,413.3422,246.6709,417.6723,235.4794,398.72,234.5799" style="stroke:#181818;stroke-width:1;"/>
    </g>
  </g>
</svg>
