<svg xmlns="http://www.w3.org/2000/svg" xmlns:xlink="http://www.w3.org/1999/xlink" contentStyleType="text/css" height="1988px" preserveAspectRatio="none" style="width:3372px;height:1988px;background:#FFFFFF;" version="1.1" viewBox="0 0 3372 1988" width="3372px" zoomAndPan="magnify">
  <defs>
    <style type="text/css">a:hover { text-decoration: underline; }</style>
  </defs>
  <g>
    <text fill="#000000" font-family="sans-serif" font-size="14" font-weight="bold" lengthAdjust="spacing" textLength="458.9033" x="1457.9932" y="27.9951">PlantUML sequence diagram generator sequence diagram</text>
    <rect fill="#FFFFFF" height="1838.7813" style="stroke:#181818;stroke-width:1.0;" width="10" x="176.2852" y="104.7266"/>
    <rect fill="#FFFFFF" height="1726.1016" style="stroke:#181818;stroke-width:1.0;" width="10" x="181.2852" y="180.7969"/>
    <rect fill="#FFFFFF" height="1357.1641" style="stroke:#181818;stroke-width:1.0;" width="10" x="186.2852" y="314.3281"/>
    <rect fill="#FFFFFF" height="28" style="stroke:#181818;stroke-width:1.0;" width="10" x="186.2852" y="1849.8984"/>
    <rect fill="#FFFFFF" height="14" style="stroke:#181818;stroke-width:1.0;" width="10" x="1324.4854" y="214.9297"/>
    <rect fill="#FFFFFF" height="1323.0313" style="stroke:#181818;stroke-width:1.0;" width="10" x="1640.3047" y="348.4609"/>
    <rect fill="#FFFFFF" height="1279.8984" style="stroke:#181818;stroke-width:1.0;" width="10" x="2206.6851" y="377.5938"/>
    <rect fill="#FFFFFF" height="48.1328" style="stroke:#181818;stroke-width:1.0;" width="10" x="2211.6851" y="599.2578"/>
    <rect fill="#FFFFFF" height="372.0859" style="stroke:#181818;stroke-width:1.0;" width="10" x="2211.6851" y="734.7891"/>
    <rect fill="#FFFFFF" height="28" style="stroke:#181818;stroke-width:1.0;" width="10" x="2211.6851" y="1136.0078"/>
    <rect fill="#FFFFFF" height="321.8203" style="stroke:#181818;stroke-width:1.0;" width="10" x="2211.6851" y="1258.4063"/>
    <rect fill="#FFFFFF" height="48.1328" style="stroke:#181818;stroke-width:1.0;" width="10" x="2211.6851" y="1609.3594"/>
    <rect fill="#FFFFFF" height="14" style="stroke:#181818;stroke-width:1.0;" width="10" x="2958.0801" y="406.7266"/>
    <rect fill="#FFFFFF" height="14" style="stroke:#181818;stroke-width:1.0;" width="10" x="2958.0801" y="449.8594"/>
    <rect fill="#FFFFFF" height="62.1328" style="stroke:#181818;stroke-width:1.0;" width="10" x="2958.0801" y="492.9922"/>
    <rect fill="#FFFFFF" height="25" style="stroke:#181818;stroke-width:1.0;" width="10" x="2963.0801" y="530.125"/>
    <rect fill="#FFFFFF" height="14" style="stroke:#181818;stroke-width:1.0;" width="10" x="2958.0801" y="633.3906"/>
    <rect fill="#FFFFFF" height="14" style="stroke:#181818;stroke-width:1.0;" width="10" x="2958.0801" y="768.9219"/>
    <rect fill="#FFFFFF" height="14" style="stroke:#181818;stroke-width:1.0;" width="10" x="2958.0801" y="812.0547"/>
    <rect fill="#FFFFFF" height="14" style="stroke:#181818;stroke-width:1.0;" width="10" x="2958.0801" y="953.7188"/>
    <rect fill="#FFFFFF" height="14" style="stroke:#181818;stroke-width:1.0;" width="10" x="2958.0801" y="996.8516"/>
    <rect fill="#FFFFFF" height="14" style="stroke:#181818;stroke-width:1.0;" width="10" x="2958.0801" y="1292.5391"/>
    <rect fill="#FFFFFF" height="14" style="stroke:#181818;stroke-width:1.0;" width="10" x="2958.0801" y="1335.6719"/>
    <rect fill="#FFFFFF" height="14" style="stroke:#181818;stroke-width:1.0;" width="10" x="2958.0801" y="1427.0703"/>
    <rect fill="#FFFFFF" height="14" style="stroke:#181818;stroke-width:1.0;" width="10" x="2958.0801" y="1470.2031"/>
    <rect fill="#FFFFFF" height="14" style="stroke:#181818;stroke-width:1.0;" width="10" x="2958.0801" y="1643.4922"/>
    <rect fill="none" height="1816.7813" style="stroke:#000000;stroke-width:1.5;" width="3355.8896" x="10" y="119.7266"/>
    <rect fill="none" height="1655.9688" style="stroke:#000000;stroke-width:1.5;" width="3335.8896" x="20" y="243.9297"/>
    <rect fill="none" height="1441.0391" style="stroke:#000000;stroke-width:1.5;" width="3315.8896" x="30" y="268.0625"/>
    <rect fill="none" height="258.8203" style="stroke:#000000;stroke-width:1.5;" width="1532.79" x="1803.0996" y="841.0547"/>
    <rect fill="none" height="227.6875" style="stroke:#000000;stroke-width:1.5;" width="1512.79" x="1813.0996" y="865.1875"/>
    <rect fill="none" height="208.5547" style="stroke:#000000;stroke-width:1.5;" width="1532.79" x="1803.0996" y="1364.6719"/>
    <rect fill="none" height="177.4219" style="stroke:#000000;stroke-width:1.5;" width="1512.79" x="1813.0996" y="1388.8047"/>
    <rect fill="none" height="89.2656" style="stroke:#000000;stroke-width:1.5;" width="314.1621" x="30" y="1803.6328"/>
    <line style="stroke:#181818;stroke-width:0.5;stroke-dasharray:5.0,5.0;" x1="181" x2="181" y1="73.5938" y2="1953.5078"/>
    <line style="stroke:#181818;stroke-width:0.5;stroke-dasharray:5.0,5.0;" x1="1329.4609" x2="1329.4609" y1="73.5938" y2="1953.5078"/>
    <line style="stroke:#181818;stroke-width:0.5;stroke-dasharray:5.0,5.0;" x1="1644.5098" x2="1644.5098" y1="73.5938" y2="1953.5078"/>
    <line style="stroke:#181818;stroke-width:0.5;stroke-dasharray:5.0,5.0;" x1="2211.0996" x2="2211.0996" y1="73.5938" y2="1953.5078"/>
    <line style="stroke:#181818;stroke-width:0.5;stroke-dasharray:5.0,5.0;" x1="2962.2705" x2="2962.2705" y1="73.5938" y2="1953.5078"/>
    <rect fill="#E2E2F0" height="30.2969" rx="2.5" ry="2.5" style="stroke:#181818;stroke-width:0.5;" width="282.5703" x="40" y="42.2969"/>
    <text fill="#000000" font-family="sans-serif" font-size="14" lengthAdjust="spacing" textLength="268.5703" x="47" y="62.292">src/common/generators/generators.cc</text>
    <rect fill="#E2E2F0" height="30.2969" rx="2.5" ry="2.5" style="stroke:#181818;stroke-width:0.5;" width="282.5703" x="40" y="1952.5078"/>
    <text fill="#000000" font-family="sans-serif" font-size="14" lengthAdjust="spacing" textLength="268.5703" x="47" y="1972.5029">src/common/generators/generators.cc</text>
    <rect fill="#E2E2F0" height="30.2969" rx="2.5" ry="2.5" style="stroke:#181818;stroke-width:0.5;" width="276.0488" x="1191.4609" y="42.2969"/>
    <text fill="#000000" font-family="sans-serif" font-size="14" lengthAdjust="spacing" textLength="262.0488" x="1198.4609" y="62.292">src/common/generators/generators.h</text>
    <rect fill="#E2E2F0" height="30.2969" rx="2.5" ry="2.5" style="stroke:#181818;stroke-width:0.5;" width="276.0488" x="1191.4609" y="1952.5078"/>
    <text fill="#000000" font-family="sans-serif" font-size="14" lengthAdjust="spacing" textLength="262.0488" x="1198.4609" y="1972.5029">src/common/generators/generators.h</text>
    <rect fill="#E2E2F0" height="30.2969" rx="2.5" ry="2.5" style="stroke:#181818;stroke-width:0.5;" width="335.5898" x="1477.5098" y="42.2969"/>
    <text fill="#000000" font-family="sans-serif" font-size="14" lengthAdjust="spacing" textLength="321.5898" x="1484.5098" y="62.292">src/common/generators/plantuml/generator.h</text>
    <rect fill="#E2E2F0" height="30.2969" rx="2.5" ry="2.5" style="stroke:#181818;stroke-width:0.5;" width="335.5898" x="1477.5098" y="1952.5078"/>
    <text fill="#000000" font-family="sans-serif" font-size="14" lengthAdjust="spacing" textLength="321.5898" x="1484.5098" y="1972.5029">src/common/generators/plantuml/generator.h</text>
    <a href="" target="_top" title="generator" xlink:actuate="onRequest" xlink:href="" xlink:show="new" xlink:title="generator" xlink:type="simple">
      <rect fill="#E2E2F0" height="30.2969" rx="2.5" ry="2.5" style="stroke:#181818;stroke-width:0.5;" width="777.1709" x="1823.0996" y="42.2969"/>
      <text fill="#000000" font-family="sans-serif" font-size="14" lengthAdjust="spacing" textLength="763.1709" x="1830.0996" y="62.292">common::generators::plantuml::generator&lt;config::sequence_diagram,sequence_diagram::model::diagram&gt;</text>
      <rect fill="#E2E2F0" height="30.2969" rx="2.5" ry="2.5" style="stroke:#181818;stroke-width:0.5;" width="777.1709" x="1823.0996" y="1952.5078"/>
      <text fill="#000000" font-family="sans-serif" font-size="14" lengthAdjust="spacing" textLength="763.1709" x="1830.0996" y="1972.5029">common::generators::plantuml::generator&lt;config::sequence_diagram,sequence_diagram::model::diagram&gt;</text>
    </a>
    <a href="" target="_top" title="generator" xlink:actuate="onRequest" xlink:href="" xlink:show="new" xlink:title="generator" xlink:type="simple">
      <rect fill="#E2E2F0" height="30.2969" rx="2.5" ry="2.5" style="stroke:#181818;stroke-width:0.5;" width="705.6191" x="2610.2705" y="42.2969"/>
      <text fill="#000000" font-family="sans-serif" font-size="14" lengthAdjust="spacing" textLength="691.6191" x="2617.2705" y="62.292">common::generators::generator&lt;config::sequence_diagram,sequence_diagram::model::diagram&gt;</text>
      <rect fill="#E2E2F0" height="30.2969" rx="2.5" ry="2.5" style="stroke:#181818;stroke-width:0.5;" width="705.6191" x="2610.2705" y="1952.5078"/>
      <text fill="#000000" font-family="sans-serif" font-size="14" lengthAdjust="spacing" textLength="691.6191" x="2617.2705" y="1972.5029">common::generators::generator&lt;config::sequence_diagram,sequence_diagram::model::diagram&gt;</text>
    </a>
    <rect fill="#FFFFFF" height="1838.7813" style="stroke:#181818;stroke-width:1.0;" width="10" x="176.2852" y="104.7266"/>
    <rect fill="#FFFFFF" height="1726.1016" style="stroke:#181818;stroke-width:1.0;" width="10" x="181.2852" y="180.7969"/>
    <rect fill="#FFFFFF" height="1357.1641" style="stroke:#181818;stroke-width:1.0;" width="10" x="186.2852" y="314.3281"/>
    <rect fill="#FFFFFF" height="28" style="stroke:#181818;stroke-width:1.0;" width="10" x="186.2852" y="1849.8984"/>
    <rect fill="#FFFFFF" height="14" style="stroke:#181818;stroke-width:1.0;" width="10" x="1324.4854" y="214.9297"/>
    <rect fill="#FFFFFF" height="1323.0313" style="stroke:#181818;stroke-width:1.0;" width="10" x="1640.3047" y="348.4609"/>
    <rect fill="#FFFFFF" height="1279.8984" style="stroke:#181818;stroke-width:1.0;" width="10" x="2206.6851" y="377.5938"/>
    <rect fill="#FFFFFF" height="48.1328" style="stroke:#181818;stroke-width:1.0;" width="10" x="2211.6851" y="599.2578"/>
    <rect fill="#FFFFFF" height="372.0859" style="stroke:#181818;stroke-width:1.0;" width="10" x="2211.6851" y="734.7891"/>
    <rect fill="#FFFFFF" height="28" style="stroke:#181818;stroke-width:1.0;" width="10" x="2211.6851" y="1136.0078"/>
    <rect fill="#FFFFFF" height="321.8203" style="stroke:#181818;stroke-width:1.0;" width="10" x="2211.6851" y="1258.4063"/>
    <rect fill="#FFFFFF" height="48.1328" style="stroke:#181818;stroke-width:1.0;" width="10" x="2211.6851" y="1609.3594"/>
    <rect fill="#FFFFFF" height="14" style="stroke:#181818;stroke-width:1.0;" width="10" x="2958.0801" y="406.7266"/>
    <rect fill="#FFFFFF" height="14" style="stroke:#181818;stroke-width:1.0;" width="10" x="2958.0801" y="449.8594"/>
    <rect fill="#FFFFFF" height="62.1328" style="stroke:#181818;stroke-width:1.0;" width="10" x="2958.0801" y="492.9922"/>
    <rect fill="#FFFFFF" height="25" style="stroke:#181818;stroke-width:1.0;" width="10" x="2963.0801" y="530.125"/>
    <rect fill="#FFFFFF" height="14" style="stroke:#181818;stroke-width:1.0;" width="10" x="2958.0801" y="633.3906"/>
    <rect fill="#FFFFFF" height="14" style="stroke:#181818;stroke-width:1.0;" width="10" x="2958.0801" y="768.9219"/>
    <rect fill="#FFFFFF" height="14" style="stroke:#181818;stroke-width:1.0;" width="10" x="2958.0801" y="812.0547"/>
    <rect fill="#FFFFFF" height="14" style="stroke:#181818;stroke-width:1.0;" width="10" x="2958.0801" y="953.7188"/>
    <rect fill="#FFFFFF" height="14" style="stroke:#181818;stroke-width:1.0;" width="10" x="2958.0801" y="996.8516"/>
    <rect fill="#FFFFFF" height="14" style="stroke:#181818;stroke-width:1.0;" width="10" x="2958.0801" y="1292.5391"/>
    <rect fill="#FFFFFF" height="14" style="stroke:#181818;stroke-width:1.0;" width="10" x="2958.0801" y="1335.6719"/>
    <rect fill="#FFFFFF" height="14" style="stroke:#181818;stroke-width:1.0;" width="10" x="2958.0801" y="1427.0703"/>
    <rect fill="#FFFFFF" height="14" style="stroke:#181818;stroke-width:1.0;" width="10" x="2958.0801" y="1470.2031"/>
    <rect fill="#FFFFFF" height="14" style="stroke:#181818;stroke-width:1.0;" width="10" x="2958.0801" y="1643.4922"/>
    <polygon fill="#181818" points="164.2852,100.7266,174.2852,104.7266,164.2852,108.7266,168.2852,104.7266" style="stroke:#181818;stroke-width:1.0;"/>
    <line style="stroke:#181818;stroke-width:1.0;" x1="0" x2="170.2852" y1="104.7266" y2="104.7266"/>
    <text fill="#000000" font-family="sans-serif" font-size="13" lengthAdjust="spacing" textLength="129.5938" x="7" y="99.6606">generate_diagram()</text>
    <path d="M10,119.7266 L74.4429,119.7266 L74.4429,126.8594 L64.4429,136.8594 L10,136.8594 L10,119.7266 " fill="#EEEEEE" style="stroke:#000000;stroke-width:1.5;"/>
    <rect fill="none" height="1816.7813" style="stroke:#000000;stroke-width:1.5;" width="3355.8896" x="10" y="119.7266"/>
    <text fill="#000000" font-family="sans-serif" font-size="13" font-weight="bold" lengthAdjust="spacing" textLength="19.4429" x="25" y="132.7935">alt</text>
    <text fill="#000000" font-family="sans-serif" font-size="11" font-weight="bold" lengthAdjust="spacing" textLength="249.4819" x="89.4429" y="131.937">[diagram-&gt;type() == diagram_t::kClass]</text>
    <line style="stroke:#000000;stroke-width:1.0;stroke-dasharray:2.0,2.0;" x1="10" x2="3365.8896" y1="137.8594" y2="137.8594"/>
    <text fill="#000000" font-family="sans-serif" font-size="11" font-weight="bold" lengthAdjust="spacing" textLength="277.4814" x="15" y="148.0698">[diagram-&gt;type() == diagram_t::kSequence]</text>
    <a href="" target="_top" title="" xlink:actuate="onRequest" xlink:href="" xlink:show="new" xlink:title="" xlink:type="simple">
      <line style="stroke:#181818;stroke-width:1.0;" x1="186.2852" x2="233.2852" y1="167.7969" y2="167.7969"/>
      <line style="stroke:#181818;stroke-width:1.0;" x1="233.2852" x2="233.2852" y1="167.7969" y2="180.7969"/>
      <line style="stroke:#181818;stroke-width:1.0;" x1="192.2852" x2="233.2852" y1="180.7969" y2="180.7969"/>
      <polygon fill="#181818" points="202.2852,176.7969,192.2852,180.7969,202.2852,184.7969,198.2852,180.7969" style="stroke:#181818;stroke-width:1.0;"/>
      <text fill="#000000" font-family="sans-serif" font-size="13" lengthAdjust="spacing" textLength="357.7603" x="198.2852" y="162.731">generate_diagram_impl&lt;config::sequence_diagram&gt;()</text>
    </a>
    <a href="" target="_top" title="" xlink:actuate="onRequest" xlink:href="" xlink:show="new" xlink:title="" xlink:type="simple">
      <polygon fill="#181818" points="1312.4854,210.9297,1322.4854,214.9297,1312.4854,218.9297,1316.4854,214.9297" style="stroke:#181818;stroke-width:1.0;"/>
      <line style="stroke:#181818;stroke-width:1.0;" x1="191.2852" x2="1318.4854" y1="214.9297" y2="214.9297"/>
      <text fill="#000000" font-family="sans-serif" font-size="13" lengthAdjust="spacing" textLength="835.0659" x="198.2852" y="209.8638">generate&lt;sequence_diagram::model::diagram,config::sequence_diagram,sequence_diagram::visitor::translation_unit_visitor&gt;()</text>
    </a>
    <polygon fill="#181818" points="202.2852,224.9297,192.2852,228.9297,202.2852,232.9297,198.2852,228.9297" style="stroke:#181818;stroke-width:1.0;"/>
    <line style="stroke:#181818;stroke-width:1.0;stroke-dasharray:2.0,2.0;" x1="196.2852" x2="1328.4854" y1="228.9297" y2="228.9297"/>
    <path d="M20,243.9297 L96.624,243.9297 L96.624,251.0625 L86.624,261.0625 L20,261.0625 L20,243.9297 " fill="#EEEEEE" style="stroke:#000000;stroke-width:1.5;"/>
    <rect fill="none" height="1655.9688" style="stroke:#000000;stroke-width:1.5;" width="3335.8896" x="20" y="243.9297"/>
    <text fill="#000000" font-family="sans-serif" font-size="13" font-weight="bold" lengthAdjust="spacing" textLength="31.624" x="35" y="256.9966">loop</text>
    <text fill="#000000" font-family="sans-serif" font-size="11" font-weight="bold" lengthAdjust="spacing" textLength="102.9316" x="111.624" y="256.1401">[runtime_config]</text>
    <path d="M30,268.0625 L94.4429,268.0625 L94.4429,275.1953 L84.4429,285.1953 L30,285.1953 L30,268.0625 " fill="#EEEEEE" style="stroke:#000000;stroke-width:1.5;"/>
    <rect fill="none" height="1441.0391" style="stroke:#000000;stroke-width:1.5;" width="3315.8896" x="30" y="268.0625"/>
    <text fill="#000000" font-family="sans-serif" font-size="13" font-weight="bold" lengthAdjust="spacing" textLength="19.4429" x="45" y="281.1294">alt</text>
    <text fill="#000000" font-family="sans-serif" font-size="11" font-weight="bold" lengthAdjust="spacing" textLength="300.8779" x="109.4429" y="280.2729">[generator_type == generator_type_t::plantuml]</text>
    <a href="" target="_top" title="" xlink:actuate="onRequest" xlink:href="" xlink:show="new" xlink:title="" xlink:type="simple">
      <line style="stroke:#181818;stroke-width:1.0;" x1="191.2852" x2="238.2852" y1="301.3281" y2="301.3281"/>
      <line style="stroke:#181818;stroke-width:1.0;" x1="238.2852" x2="238.2852" y1="301.3281" y2="314.3281"/>
      <line style="stroke:#181818;stroke-width:1.0;" x1="197.2852" x2="238.2852" y1="314.3281" y2="314.3281"/>
      <polygon fill="#181818" points="207.2852,310.3281,197.2852,314.3281,207.2852,318.3281,203.2852,314.3281" style="stroke:#181818;stroke-width:1.0;"/>
      <text fill="#000000" font-family="sans-serif" font-size="13" lengthAdjust="spacing" textLength="1104.2002" x="203.2852" y="296.2622">generate_diagram_select_generator&lt;config::sequence_diagram,common::generators::plantuml_generator_tag,std::unique_ptr&lt;sequence_diagram::model::diagram&gt;&gt;()</text>
    </a>
    <a href="" target="_top" title="" xlink:actuate="onRequest" xlink:href="" xlink:show="new" xlink:title="" xlink:type="simple">
      <polygon fill="#181818" points="1628.3047,344.4609,1638.3047,348.4609,1628.3047,352.4609,1632.3047,348.4609" style="stroke:#181818;stroke-width:1.0;"/>
      <line style="stroke:#181818;stroke-width:1.0;" x1="196.2852" x2="1634.3047" y1="348.4609" y2="348.4609"/>
      <text fill="#000000" font-family="sans-serif" font-size="13" lengthAdjust="spacing" textLength="520.7554" x="203.2852" y="343.395">operator&lt;&lt;&lt;config::sequence_diagram,sequence_diagram::model::diagram&gt;()</text>
    </a>
    <a href="" target="_top" title="" xlink:actuate="onRequest" xlink:href="" xlink:show="new" xlink:title="" xlink:type="simple">
      <polygon fill="#181818" points="2194.6851,373.5938,2204.6851,377.5938,2194.6851,381.5938,2198.6851,377.5938" style="stroke:#181818;stroke-width:1.0;"/>
      <line style="stroke:#181818;stroke-width:1.0;" x1="1650.3047" x2="2200.6851" y1="377.5938" y2="377.5938"/>
      <text fill="#000000" font-family="sans-serif" font-size="13" lengthAdjust="spacing" textLength="108.3799" x="1657.3047" y="372.5278">generate() const</text>
    </a>
    <a href="" target="_top" title="" xlink:actuate="onRequest" xlink:href="" xlink:show="new" xlink:title="" xlink:type="simple">
      <polygon fill="#181818" points="2946.0801,402.7266,2956.0801,406.7266,2946.0801,410.7266,2950.0801,406.7266" style="stroke:#181818;stroke-width:1.0;"/>
      <line style="stroke:#181818;stroke-width:1.0;" x1="2216.6851" x2="2952.0801" y1="406.7266" y2="406.7266"/>
      <text fill="#000000" font-family="sans-serif" font-size="13" lengthAdjust="spacing" textLength="89.2671" x="2223.6851" y="401.6606">config() const</text>
    </a>
    <polygon fill="#181818" points="2227.6851,416.7266,2217.6851,420.7266,2227.6851,424.7266,2223.6851,420.7266" style="stroke:#181818;stroke-width:1.0;"/>
    <line style="stroke:#181818;stroke-width:1.0;stroke-dasharray:2.0,2.0;" x1="2221.6851" x2="2962.0801" y1="420.7266" y2="420.7266"/>
    <a href="" target="_top" title="" xlink:actuate="onRequest" xlink:href="" xlink:show="new" xlink:title="" xlink:type="simple">
      <polygon fill="#181818" points="2946.0801,445.8594,2956.0801,449.8594,2946.0801,453.8594,2950.0801,449.8594" style="stroke:#181818;stroke-width:1.0;"/>
      <line style="stroke:#181818;stroke-width:1.0;" x1="2216.6851" x2="2952.0801" y1="449.8594" y2="449.8594"/>
      <text fill="#000000" font-family="sans-serif" font-size="13" lengthAdjust="spacing" textLength="89.9653" x="2223.6851" y="444.7935">model() const</text>
    </a>
    <polygon fill="#181818" points="2227.6851,459.8594,2217.6851,463.8594,2227.6851,467.8594,2223.6851,463.8594" style="stroke:#181818;stroke-width:1.0;"/>
    <line style="stroke:#181818;stroke-width:1.0;stroke-dasharray:2.0,2.0;" x1="2221.6851" x2="2962.0801" y1="463.8594" y2="463.8594"/>
    <a href="" target="_top" title="" xlink:actuate="onRequest" xlink:href="" xlink:show="new" xlink:title="" xlink:type="simple">
      <polygon fill="#181818" points="2946.0801,488.9922,2956.0801,492.9922,2946.0801,496.9922,2950.0801,492.9922" style="stroke:#181818;stroke-width:1.0;"/>
      <line style="stroke:#181818;stroke-width:1.0;" x1="2216.6851" x2="2952.0801" y1="492.9922" y2="492.9922"/>
      <text fill="#000000" font-family="sans-serif" font-size="13" lengthAdjust="spacing" textLength="151.0171" x="2223.6851" y="487.9263">update_context() const</text>
    </a>
    <a href="" target="_top" title="" xlink:actuate="onRequest" xlink:href="" xlink:show="new" xlink:title="" xlink:type="simple">
      <line style="stroke:#181818;stroke-width:1.0;" x1="2968.0801" x2="3015.0801" y1="517.125" y2="517.125"/>
      <line style="stroke:#181818;stroke-width:1.0;" x1="3015.0801" x2="3015.0801" y1="517.125" y2="530.125"/>
      <line style="stroke:#181818;stroke-width:1.0;" x1="2974.0801" x2="3015.0801" y1="530.125" y2="530.125"/>
      <polygon fill="#181818" points="2984.0801,526.125,2974.0801,530.125,2984.0801,534.125,2980.0801,530.125" style="stroke:#181818;stroke-width:1.0;"/>
      <text fill="#000000" font-family="sans-serif" font-size="13" lengthAdjust="spacing" textLength="89.9653" x="2980.0801" y="512.0591">model() const</text>
    </a>
    <line style="stroke:#181818;stroke-width:1.0;stroke-dasharray:2.0,2.0;" x1="2973.0801" x2="3015.0801" y1="554.125" y2="554.125"/>
    <line style="stroke:#181818;stroke-width:1.0;stroke-dasharray:2.0,2.0;" x1="3015.0801" x2="3015.0801" y1="554.125" y2="567.125"/>
    <line style="stroke:#181818;stroke-width:1.0;stroke-dasharray:2.0,2.0;" x1="2968.0801" x2="3015.0801" y1="567.125" y2="567.125"/>
    <polygon fill="#181818" points="2978.0801,563.125,2968.0801,567.125,2978.0801,571.125,2974.0801,567.125" style="stroke:#181818;stroke-width:1.0;"/>
    <a href="" target="_top" title="" xlink:actuate="onRequest" xlink:href="" xlink:show="new" xlink:title="" xlink:type="simple">
      <line style="stroke:#181818;stroke-width:1.0;" x1="2216.6851" x2="2263.6851" y1="586.2578" y2="586.2578"/>
      <line style="stroke:#181818;stroke-width:1.0;" x1="2263.6851" x2="2263.6851" y1="586.2578" y2="599.2578"/>
      <line style="stroke:#181818;stroke-width:1.0;" x1="2222.6851" x2="2263.6851" y1="599.2578" y2="599.2578"/>
      <polygon fill="#181818" points="2232.6851,595.2578,2222.6851,599.2578,2232.6851,603.2578,2228.6851,599.2578" style="stroke:#181818;stroke-width:1.0;"/>
      <text fill="#000000" font-family="sans-serif" font-size="13" lengthAdjust="spacing" textLength="140.2959" x="2228.6851" y="581.1919">generate_title() const</text>
    </a>
    <a href="" target="_top" title="" xlink:actuate="onRequest" xlink:href="" xlink:show="new" xlink:title="" xlink:type="simple">
      <polygon fill="#181818" points="2946.0801,629.3906,2956.0801,633.3906,2946.0801,637.3906,2950.0801,633.3906" style="stroke:#181818;stroke-width:1.0;"/>
      <line style="stroke:#181818;stroke-width:1.0;" x1="2221.6851" x2="2952.0801" y1="633.3906" y2="633.3906"/>
      <text fill="#000000" font-family="sans-serif" font-size="13" lengthAdjust="spacing" textLength="89.2671" x="2228.6851" y="628.3247">config() const</text>
    </a>
    <polygon fill="#181818" points="2227.6851,643.3906,2217.6851,647.3906,2227.6851,651.3906,2223.6851,647.3906" style="stroke:#181818;stroke-width:1.0;"/>
    <line style="stroke:#181818;stroke-width:1.0;stroke-dasharray:2.0,2.0;" x1="2221.6851" x2="2962.0801" y1="647.3906" y2="647.3906"/>
    <path d="M2100,660.3906 L2100,700.3906 L2321,700.3906 L2321,670.3906 L2311,660.3906 L2100,660.3906 " fill="#FEFFDD" style="stroke:#181818;stroke-width:0.5;"/>
    <path d="M2311,660.3906 L2311,670.3906 L2321,670.3906 L2311,660.3906 " fill="#FEFFDD" style="stroke:#181818;stroke-width:0.5;"/>
    <text fill="#000000" font-family="sans-serif" font-size="13" lengthAdjust="spacing" textLength="193.2354" x="2106" y="677.4575">Generate PlantUML directives</text>
    <text fill="#000000" font-family="sans-serif" font-size="13" lengthAdjust="spacing" textLength="200.6938" x="2106" y="692.5903">before auto generated content</text>
    <a href="" target="_top" title="" xlink:actuate="onRequest" xlink:href="" xlink:show="new" xlink:title="" xlink:type="simple">
      <line style="stroke:#181818;stroke-width:1.0;" x1="2216.6851" x2="2263.6851" y1="721.7891" y2="721.7891"/>
      <line style="stroke:#181818;stroke-width:1.0;" x1="2263.6851" x2="2263.6851" y1="721.7891" y2="734.7891"/>
      <line style="stroke:#181818;stroke-width:1.0;" x1="2222.6851" x2="2263.6851" y1="734.7891" y2="734.7891"/>
      <polygon fill="#181818" points="2232.6851,730.7891,2222.6851,734.7891,2232.6851,738.7891,2228.6851,734.7891" style="stroke:#181818;stroke-width:1.0;"/>
      <text fill="#000000" font-family="sans-serif" font-size="13" lengthAdjust="spacing" textLength="242.5884" x="2228.6851" y="716.7231">generate_plantuml_directives() const</text>
    </a>
    <a href="" target="_top" title="" xlink:actuate="onRequest" xlink:href="" xlink:show="new" xlink:title="" xlink:type="simple">
      <polygon fill="#181818" points="2946.0801,764.9219,2956.0801,768.9219,2946.0801,772.9219,2950.0801,768.9219" style="stroke:#181818;stroke-width:1.0;"/>
      <line style="stroke:#181818;stroke-width:1.0;" x1="2221.6851" x2="2952.0801" y1="768.9219" y2="768.9219"/>
      <text fill="#000000" font-family="sans-serif" font-size="13" lengthAdjust="spacing" textLength="89.2671" x="2228.6851" y="763.856">config() const</text>
    </a>
    <polygon fill="#181818" points="2232.6851,778.9219,2222.6851,782.9219,2232.6851,786.9219,2228.6851,782.9219" style="stroke:#181818;stroke-width:1.0;"/>
    <line style="stroke:#181818;stroke-width:1.0;stroke-dasharray:2.0,2.0;" x1="2226.6851" x2="2962.0801" y1="782.9219" y2="782.9219"/>
    <a href="" target="_top" title="" xlink:actuate="onRequest" xlink:href="" xlink:show="new" xlink:title="" xlink:type="simple">
      <polygon fill="#181818" points="2946.0801,808.0547,2956.0801,812.0547,2946.0801,816.0547,2950.0801,812.0547" style="stroke:#181818;stroke-width:1.0;"/>
      <line style="stroke:#181818;stroke-width:1.0;" x1="2221.6851" x2="2952.0801" y1="812.0547" y2="812.0547"/>
      <text fill="#000000" font-family="sans-serif" font-size="13" lengthAdjust="spacing" textLength="89.9653" x="2228.6851" y="806.9888">model() const</text>
    </a>
    <polygon fill="#181818" points="2232.6851,822.0547,2222.6851,826.0547,2232.6851,830.0547,2228.6851,826.0547" style="stroke:#181818;stroke-width:1.0;"/>
    <line style="stroke:#181818;stroke-width:1.0;stroke-dasharray:2.0,2.0;" x1="2226.6851" x2="2962.0801" y1="826.0547" y2="826.0547"/>
    <path d="M1803.0996,841.0547 L1879.7236,841.0547 L1879.7236,848.1875 L1869.7236,858.1875 L1803.0996,858.1875 L1803.0996,841.0547 " fill="#EEEEEE" style="stroke:#000000;stroke-width:1.5;"/>
    <rect fill="none" height="258.8203" style="stroke:#000000;stroke-width:1.5;" width="1532.79" x="1803.0996" y="841.0547"/>
    <text fill="#000000" font-family="sans-serif" font-size="13" font-weight="bold" lengthAdjust="spacing" textLength="31.624" x="1818.0996" y="854.1216">loop</text>
    <text fill="#000000" font-family="sans-serif" font-size="11" font-weight="bold" lengthAdjust="spacing" textLength="71.312" x="1894.7236" y="853.2651">[directives]</text>
    <path d="M1813.0996,865.1875 L1879.1992,865.1875 L1879.1992,872.3203 L1869.1992,882.3203 L1813.0996,882.3203 L1813.0996,865.1875 " fill="#EEEEEE" style="stroke:#000000;stroke-width:1.5;"/>
    <rect fill="none" height="227.6875" style="stroke:#000000;stroke-width:1.5;" width="1512.79" x="1813.0996" y="865.1875"/>
    <text fill="#000000" font-family="sans-serif" font-size="13" font-weight="bold" lengthAdjust="spacing" textLength="21.0996" x="1828.0996" y="878.2544">try</text>
    <path d="M2118,887.3203 L2118,927.3203 L2303,927.3203 L2303,897.3203 L2293,887.3203 L2118,887.3203 " fill="#FEFFDD" style="stroke:#181818;stroke-width:0.5;"/>
    <path d="M2293,887.3203 L2293,897.3203 L2303,897.3203 L2293,887.3203 " fill="#FEFFDD" style="stroke:#181818;stroke-width:0.5;"/>
    <text fill="#000000" font-family="sans-serif" font-size="13" lengthAdjust="spacing" textLength="164.9312" x="2124" y="904.3872">Render the directive with</text>
    <text fill="#000000" font-family="sans-serif" font-size="13" lengthAdjust="spacing" textLength="136.6904" x="2124" y="919.52">template engine first</text>
    <a href="" target="_top" title="" xlink:actuate="onRequest" xlink:href="" xlink:show="new" xlink:title="" xlink:type="simple">
      <polygon fill="#181818" points="2946.0801,949.7188,2956.0801,953.7188,2946.0801,957.7188,2950.0801,953.7188" style="stroke:#181818;stroke-width:1.0;"/>
      <line style="stroke:#181818;stroke-width:1.0;" x1="2221.6851" x2="2952.0801" y1="953.7188" y2="953.7188"/>
      <text fill="#000000" font-family="sans-serif" font-size="13" lengthAdjust="spacing" textLength="73.417" x="2228.6851" y="948.6528">env() const</text>
    </a>
    <polygon fill="#181818" points="2232.6851,963.7188,2222.6851,967.7188,2232.6851,971.7188,2228.6851,967.7188" style="stroke:#181818;stroke-width:1.0;"/>
    <line style="stroke:#181818;stroke-width:1.0;stroke-dasharray:2.0,2.0;" x1="2226.6851" x2="2962.0801" y1="967.7188" y2="967.7188"/>
    <a href="" target="_top" title="" xlink:actuate="onRequest" xlink:href="" xlink:show="new" xlink:title="" xlink:type="simple">
      <polygon fill="#181818" points="2946.0801,992.8516,2956.0801,996.8516,2946.0801,1000.8516,2950.0801,996.8516" style="stroke:#181818;stroke-width:1.0;"/>
      <line style="stroke:#181818;stroke-width:1.0;" x1="2221.6851" x2="2952.0801" y1="996.8516" y2="996.8516"/>
      <text fill="#000000" font-family="sans-serif" font-size="13" lengthAdjust="spacing" textLength="98.7124" x="2228.6851" y="991.7856">context() const</text>
    </a>
    <polygon fill="#181818" points="2232.6851,1006.8516,2222.6851,1010.8516,2232.6851,1014.8516,2228.6851,1010.8516" style="stroke:#181818;stroke-width:1.0;"/>
    <line style="stroke:#181818;stroke-width:1.0;stroke-dasharray:2.0,2.0;" x1="2226.6851" x2="2962.0801" y1="1010.8516" y2="1010.8516"/>
    <line style="stroke:#000000;stroke-width:1.0;stroke-dasharray:2.0,2.0;" x1="1813.0996" x2="3325.8896" y1="1019.8516" y2="1019.8516"/>
    <text fill="#000000" font-family="sans-serif" font-size="11" font-weight="bold" lengthAdjust="spacing" textLength="277.1914" x="1818.0996" y="1030.062">[const clanguml::error::uml_alias_missing &amp;]</text>
    <line style="stroke:#000000;stroke-width:1.0;stroke-dasharray:2.0,2.0;" x1="1813.0996" x2="3325.8896" y1="1034.6563" y2="1034.6563"/>
    <text fill="#000000" font-family="sans-serif" font-size="11" font-weight="bold" lengthAdjust="spacing" textLength="198.6392" x="1818.0996" y="1044.8667">[const inja::json::parse_error &amp;]</text>
    <line style="stroke:#000000;stroke-width:1.0;stroke-dasharray:2.0,2.0;" x1="1813.0996" x2="3325.8896" y1="1049.4609" y2="1049.4609"/>
    <text fill="#000000" font-family="sans-serif" font-size="11" font-weight="bold" lengthAdjust="spacing" textLength="187.9453" x="1818.0996" y="1059.6714">[const inja::json::exception &amp;]</text>
    <line style="stroke:#000000;stroke-width:1.0;stroke-dasharray:2.0,2.0;" x1="1813.0996" x2="3325.8896" y1="1064.2656" y2="1064.2656"/>
    <text fill="#000000" font-family="sans-serif" font-size="11" font-weight="bold" lengthAdjust="spacing" textLength="161.6055" x="1818.0996" y="1074.4761">[const std::regex_error &amp;]</text>
    <line style="stroke:#000000;stroke-width:1.0;stroke-dasharray:2.0,2.0;" x1="1813.0996" x2="3325.8896" y1="1079.0703" y2="1079.0703"/>
    <text fill="#000000" font-family="sans-serif" font-size="11" font-weight="bold" lengthAdjust="spacing" textLength="150.3262" x="1818.0996" y="1089.2808">[const std::exception &amp;]</text>
    <a href="" target="_top" title="" xlink:actuate="onRequest" xlink:href="" xlink:show="new" xlink:title="" xlink:type="simple">
      <line style="stroke:#181818;stroke-width:1.0;" x1="2221.6851" x2="2263.6851" y1="1128.0078" y2="1128.0078"/>
      <line style="stroke:#181818;stroke-width:1.0;" x1="2263.6851" x2="2263.6851" y1="1128.0078" y2="1141.0078"/>
      <line style="stroke:#181818;stroke-width:1.0;" x1="2222.6851" x2="2263.6851" y1="1141.0078" y2="1141.0078"/>
      <polygon fill="#181818" points="2232.6851,1137.0078,2222.6851,1141.0078,2232.6851,1145.0078,2228.6851,1141.0078" style="stroke:#181818;stroke-width:1.0;"/>
      <text fill="#000000" font-family="sans-serif" font-size="13" lengthAdjust="spacing" textLength="168.9365" x="2228.6851" y="1122.9419">generate_diagram() const</text>
    </a>
    <path d="M2104,1184.0078 L2104,1224.0078 L2318,1224.0078 L2318,1194.0078 L2308,1184.0078 L2104,1184.0078 " fill="#FEFFDD" style="stroke:#181818;stroke-width:0.5;"/>
    <path d="M2308,1184.0078 L2308,1194.0078 L2318,1194.0078 L2308,1184.0078 " fill="#FEFFDD" style="stroke:#181818;stroke-width:0.5;"/>
    <text fill="#000000" font-family="sans-serif" font-size="13" lengthAdjust="spacing" textLength="193.2354" x="2110" y="1201.0747">Generate PlantUML directives</text>
    <text fill="#000000" font-family="sans-serif" font-size="13" lengthAdjust="spacing" textLength="189.5537" x="2110" y="1216.2075">after auto generated content</text>
    <a href="" target="_top" title="" xlink:actuate="onRequest" xlink:href="" xlink:show="new" xlink:title="" xlink:type="simple">
      <line style="stroke:#181818;stroke-width:1.0;" x1="2216.6851" x2="2263.6851" y1="1245.4063" y2="1245.4063"/>
      <line style="stroke:#181818;stroke-width:1.0;" x1="2263.6851" x2="2263.6851" y1="1245.4063" y2="1258.4063"/>
      <line style="stroke:#181818;stroke-width:1.0;" x1="2222.6851" x2="2263.6851" y1="1258.4063" y2="1258.4063"/>
      <polygon fill="#181818" points="2232.6851,1254.4063,2222.6851,1258.4063,2232.6851,1262.4063,2228.6851,1258.4063" style="stroke:#181818;stroke-width:1.0;"/>
      <text fill="#000000" font-family="sans-serif" font-size="13" lengthAdjust="spacing" textLength="242.5884" x="2228.6851" y="1240.3403">generate_plantuml_directives() const</text>
    </a>
    <a href="" target="_top" title="" xlink:actuate="onRequest" xlink:href="" xlink:show="new" xlink:title="" xlink:type="simple">
      <polygon fill="#181818" points="2946.0801,1288.5391,2956.0801,1292.5391,2946.0801,1296.5391,2950.0801,1292.5391" style="stroke:#181818;stroke-width:1.0;"/>
      <line style="stroke:#181818;stroke-width:1.0;" x1="2221.6851" x2="2952.0801" y1="1292.5391" y2="1292.5391"/>
      <text fill="#000000" font-family="sans-serif" font-size="13" lengthAdjust="spacing" textLength="89.2671" x="2228.6851" y="1287.4731">config() const</text>
    </a>
    <polygon fill="#181818" points="2232.6851,1302.5391,2222.6851,1306.5391,2232.6851,1310.5391,2228.6851,1306.5391" style="stroke:#181818;stroke-width:1.0;"/>
    <line style="stroke:#181818;stroke-width:1.0;stroke-dasharray:2.0,2.0;" x1="2226.6851" x2="2962.0801" y1="1306.5391" y2="1306.5391"/>
    <a href="" target="_top" title="" xlink:actuate="onRequest" xlink:href="" xlink:show="new" xlink:title="" xlink:type="simple">
      <polygon fill="#181818" points="2946.0801,1331.6719,2956.0801,1335.6719,2946.0801,1339.6719,2950.0801,1335.6719" style="stroke:#181818;stroke-width:1.0;"/>
      <line style="stroke:#181818;stroke-width:1.0;" x1="2221.6851" x2="2952.0801" y1="1335.6719" y2="1335.6719"/>
      <text fill="#000000" font-family="sans-serif" font-size="13" lengthAdjust="spacing" textLength="89.9653" x="2228.6851" y="1330.606">model() const</text>
    </a>
    <polygon fill="#181818" points="2232.6851,1345.6719,2222.6851,1349.6719,2232.6851,1353.6719,2228.6851,1349.6719" style="stroke:#181818;stroke-width:1.0;"/>
    <line style="stroke:#181818;stroke-width:1.0;stroke-dasharray:2.0,2.0;" x1="2226.6851" x2="2962.0801" y1="1349.6719" y2="1349.6719"/>
    <path d="M1803.0996,1364.6719 L1879.7236,1364.6719 L1879.7236,1371.8047 L1869.7236,1381.8047 L1803.0996,1381.8047 L1803.0996,1364.6719 " fill="#EEEEEE" style="stroke:#000000;stroke-width:1.5;"/>
    <rect fill="none" height="208.5547" style="stroke:#000000;stroke-width:1.5;" width="1532.79" x="1803.0996" y="1364.6719"/>
    <text fill="#000000" font-family="sans-serif" font-size="13" font-weight="bold" lengthAdjust="spacing" textLength="31.624" x="1818.0996" y="1377.7388">loop</text>
    <text fill="#000000" font-family="sans-serif" font-size="11" font-weight="bold" lengthAdjust="spacing" textLength="71.312" x="1894.7236" y="1376.8823">[directives]</text>
    <path d="M1813.0996,1388.8047 L1879.1992,1388.8047 L1879.1992,1395.9375 L1869.1992,1405.9375 L1813.0996,1405.9375 L1813.0996,1388.8047 " fill="#EEEEEE" style="stroke:#000000;stroke-width:1.5;"/>
    <rect fill="none" height="177.4219" style="stroke:#000000;stroke-width:1.5;" width="1512.79" x="1813.0996" y="1388.8047"/>
    <text fill="#000000" font-family="sans-serif" font-size="13" font-weight="bold" lengthAdjust="spacing" textLength="21.0996" x="1828.0996" y="1401.8716">try</text>
    <a href="" target="_top" title="" xlink:actuate="onRequest" xlink:href="" xlink:show="new" xlink:title="" xlink:type="simple">
      <polygon fill="#181818" points="2946.0801,1423.0703,2956.0801,1427.0703,2946.0801,1431.0703,2950.0801,1427.0703" style="stroke:#181818;stroke-width:1.0;"/>
      <line style="stroke:#181818;stroke-width:1.0;" x1="2221.6851" x2="2952.0801" y1="1427.0703" y2="1427.0703"/>
      <text fill="#000000" font-family="sans-serif" font-size="13" lengthAdjust="spacing" textLength="73.417" x="2228.6851" y="1422.0044">env() const</text>
    </a>
    <polygon fill="#181818" points="2232.6851,1437.0703,2222.6851,1441.0703,2232.6851,1445.0703,2228.6851,1441.0703" style="stroke:#181818;stroke-width:1.0;"/>
    <line style="stroke:#181818;stroke-width:1.0;stroke-dasharray:2.0,2.0;" x1="2226.6851" x2="2962.0801" y1="1441.0703" y2="1441.0703"/>
    <a href="" target="_top" title="" xlink:actuate="onRequest" xlink:href="" xlink:show="new" xlink:title="" xlink:type="simple">
      <polygon fill="#181818" points="2946.0801,1466.2031,2956.0801,1470.2031,2946.0801,1474.2031,2950.0801,1470.2031" style="stroke:#181818;stroke-width:1.0;"/>
      <line style="stroke:#181818;stroke-width:1.0;" x1="2221.6851" x2="2952.0801" y1="1470.2031" y2="1470.2031"/>
      <text fill="#000000" font-family="sans-serif" font-size="13" lengthAdjust="spacing" textLength="98.7124" x="2228.6851" y="1465.1372">context() const</text>
    </a>
    <polygon fill="#181818" points="2232.6851,1480.2031,2222.6851,1484.2031,2232.6851,1488.2031,2228.6851,1484.2031" style="stroke:#181818;stroke-width:1.0;"/>
    <line style="stroke:#181818;stroke-width:1.0;stroke-dasharray:2.0,2.0;" x1="2226.6851" x2="2962.0801" y1="1484.2031" y2="1484.2031"/>
    <line style="stroke:#000000;stroke-width:1.0;stroke-dasharray:2.0,2.0;" x1="1813.0996" x2="3325.8896" y1="1493.2031" y2="1493.2031"/>
    <text fill="#000000" font-family="sans-serif" font-size="11" font-weight="bold" lengthAdjust="spacing" textLength="277.1914" x="1818.0996" y="1503.4136">[const clanguml::error::uml_alias_missing &amp;]</text>
    <line style="stroke:#000000;stroke-width:1.0;stroke-dasharray:2.0,2.0;" x1="1813.0996" x2="3325.8896" y1="1508.0078" y2="1508.0078"/>
    <text fill="#000000" font-family="sans-serif" font-size="11" font-weight="bold" lengthAdjust="spacing" textLength="198.6392" x="1818.0996" y="1518.2183">[const inja::json::parse_error &amp;]</text>
    <line style="stroke:#000000;stroke-width:1.0;stroke-dasharray:2.0,2.0;" x1="1813.0996" x2="3325.8896" y1="1522.8125" y2="1522.8125"/>
    <text fill="#000000" font-family="sans-serif" font-size="11" font-weight="bold" lengthAdjust="spacing" textLength="187.9453" x="1818.0996" y="1533.0229">[const inja::json::exception &amp;]</text>
    <line style="stroke:#000000;stroke-width:1.0;stroke-dasharray:2.0,2.0;" x1="1813.0996" x2="3325.8896" y1="1537.6172" y2="1537.6172"/>
    <text fill="#000000" font-family="sans-serif" font-size="11" font-weight="bold" lengthAdjust="spacing" textLength="161.6055" x="1818.0996" y="1547.8276">[const std::regex_error &amp;]</text>
    <line style="stroke:#000000;stroke-width:1.0;stroke-dasharray:2.0,2.0;" x1="1813.0996" x2="3325.8896" y1="1552.4219" y2="1552.4219"/>
    <text fill="#000000" font-family="sans-serif" font-size="11" font-weight="bold" lengthAdjust="spacing" textLength="150.3262" x="1818.0996" y="1562.6323">[const std::exception &amp;]</text>
    <a href="" target="_top" title="" xlink:actuate="onRequest" xlink:href="" xlink:show="new" xlink:title="" xlink:type="simple">
      <line style="stroke:#181818;stroke-width:1.0;" x1="2216.6851" x2="2263.6851" y1="1596.3594" y2="1596.3594"/>
      <line style="stroke:#181818;stroke-width:1.0;" x1="2263.6851" x2="2263.6851" y1="1596.3594" y2="1609.3594"/>
      <line style="stroke:#181818;stroke-width:1.0;" x1="2222.6851" x2="2263.6851" y1="1609.3594" y2="1609.3594"/>
      <polygon fill="#181818" points="2232.6851,1605.3594,2222.6851,1609.3594,2232.6851,1613.3594,2228.6851,1609.3594" style="stroke:#181818;stroke-width:1.0;"/>
      <text fill="#000000" font-family="sans-serif" font-size="13" lengthAdjust="spacing" textLength="177.8867" x="2228.6851" y="1591.2935">generate_metadata() const</text>
    </a>
    <a href="" target="_top" title="" xlink:actuate="onRequest" xlink:href="" xlink:show="new" xlink:title="" xlink:type="simple">
      <polygon fill="#181818" points="2946.0801,1639.4922,2956.0801,1643.4922,2946.0801,1647.4922,2950.0801,1643.4922" style="stroke:#181818;stroke-width:1.0;"/>
      <line style="stroke:#181818;stroke-width:1.0;" x1="2221.6851" x2="2952.0801" y1="1643.4922" y2="1643.4922"/>
      <text fill="#000000" font-family="sans-serif" font-size="13" lengthAdjust="spacing" textLength="89.2671" x="2228.6851" y="1638.4263">config() const</text>
    </a>
    <polygon fill="#181818" points="2222.6851,1653.4922,2212.6851,1657.4922,2222.6851,1661.4922,2218.6851,1657.4922" style="stroke:#181818;stroke-width:1.0;"/>
    <line style="stroke:#181818;stroke-width:1.0;stroke-dasharray:2.0,2.0;" x1="2216.6851" x2="2962.0801" y1="1657.4922" y2="1657.4922"/>
    <polygon fill="#181818" points="202.2852,1667.4922,192.2852,1671.4922,202.2852,1675.4922,198.2852,1671.4922" style="stroke:#181818;stroke-width:1.0;"/>
    <line style="stroke:#181818;stroke-width:1.0;stroke-dasharray:2.0,2.0;" x1="196.2852" x2="1644.3047" y1="1671.4922" y2="1671.4922"/>
    <line style="stroke:#000000;stroke-width:1.0;stroke-dasharray:2.0,2.0;" x1="30" x2="3345.8896" y1="1680.4922" y2="1680.4922"/>
    <text fill="#000000" font-family="sans-serif" font-size="11" font-weight="bold" lengthAdjust="spacing" textLength="271.3638" x="35" y="1690.7026">[generator_type == generator_type_t::json]</text>
    <line style="stroke:#000000;stroke-width:1.0;stroke-dasharray:2.0,2.0;" x1="30" x2="3345.8896" y1="1695.2969" y2="1695.2969"/>
    <text fill="#000000" font-family="sans-serif" font-size="11" font-weight="bold" lengthAdjust="spacing" textLength="300.5342" x="35" y="1705.5073">[generator_type == generator_type_t::mermaid]</text>
    <path d="M73,1721.1016 L73,1791.1016 L289,1791.1016 L289,1731.1016 L279,1721.1016 L73,1721.1016 " fill="#FEFFDD" style="stroke:#181818;stroke-width:0.5;"/>
    <path d="M279,1721.1016 L279,1731.1016 L289,1731.1016 L279,1721.1016 " fill="#FEFFDD" style="stroke:#181818;stroke-width:0.5;"/>
    <text fill="#000000" font-family="sans-serif" font-size="13" lengthAdjust="spacing" textLength="193.2798" x="79" y="1738.1685">Convert plantuml or mermaid</text>
    <text fill="#000000" font-family="sans-serif" font-size="13" lengthAdjust="spacing" textLength="186.2783" x="79" y="1753.3013">to an image using command</text>
    <text fill="#000000" font-family="sans-serif" font-size="13" lengthAdjust="spacing" textLength="195.4189" x="79" y="1768.4341">provided in the command line</text>
    <text fill="#000000" font-family="sans-serif" font-size="13" lengthAdjust="spacing" textLength="70.5732" x="79" y="1783.5669">arguments</text>
    <path d="M30,1803.6328 L94.4429,1803.6328 L94.4429,1810.7656 L84.4429,1820.7656 L30,1820.7656 L30,1803.6328 " fill="#EEEEEE" style="stroke:#000000;stroke-width:1.5;"/>
    <rect fill="none" height="89.2656" style="stroke:#000000;stroke-width:1.5;" width="314.1621" x="30" y="1803.6328"/>
    <text fill="#000000" font-family="sans-serif" font-size="13" font-weight="bold" lengthAdjust="spacing" textLength="19.4429" x="45" y="1816.6997">alt</text>
    <text fill="#000000" font-family="sans-serif" font-size="11" font-weight="bold" lengthAdjust="spacing" textLength="211.8843" x="109.4429" y="1815.8433">[runtime_config.render_diagrams]</text>
    <a href="" target="_top" title="" xlink:actuate="onRequest" xlink:href="" xlink:show="new" xlink:title="" xlink:type="simple">
      <line style="stroke:#181818;stroke-width:1.0;" x1="196.2852" x2="238.2852" y1="1841.8984" y2="1841.8984"/>
      <line style="stroke:#181818;stroke-width:1.0;" x1="238.2852" x2="238.2852" y1="1841.8984" y2="1854.8984"/>
      <line style="stroke:#181818;stroke-width:1.0;" x1="197.2852" x2="238.2852" y1="1854.8984" y2="1854.8984"/>
      <polygon fill="#181818" points="207.2852,1850.8984,197.2852,1854.8984,207.2852,1858.8984,203.2852,1854.8984" style="stroke:#181818;stroke-width:1.0;"/>
      <text fill="#000000" font-family="sans-serif" font-size="13" lengthAdjust="spacing" textLength="113.877" x="203.2852" y="1836.8325">render_diagram()</text>
    </a>
    <line style="stroke:#000000;stroke-width:1.0;stroke-dasharray:2.0,2.0;" x1="10" x2="3365.8896" y1="1907.8984" y2="1907.8984"/>
    <text fill="#000000" font-family="sans-serif" font-size="11" font-weight="bold" lengthAdjust="spacing" textLength="269.1992" x="15" y="1918.1089">[diagram-&gt;type() == diagram_t::kPackage]</text>
    <line style="stroke:#000000;stroke-width:1.0;stroke-dasharray:2.0,2.0;" x1="10" x2="3365.8896" y1="1922.7031" y2="1922.7031"/>
    <text fill="#000000" font-family="sans-serif" font-size="11" font-weight="bold" lengthAdjust="spacing" textLength="262.5015" x="15" y="1932.9136">[diagram-&gt;type() == diagram_t::kInclude]</text>
  </g>
</svg>
