<?xml version="1.0" encoding="UTF-8" standalone="no"?><svg xmlns="http://www.w3.org/2000/svg" xmlns:xlink="http://www.w3.org/1999/xlink" contentScriptType="application/ecmascript" contentStyleType="text/css" height="392px" preserveAspectRatio="none" style="width:772px;height:392px;" version="1.1" viewBox="0 0 772 392" width="772px" zoomAndPan="magnify"><defs><filter height="300%" id="fkqygv9l2ehyx" width="300%" x="-1" y="-1"><feGaussianBlur result="blurOut" stdDeviation="2.0"/><feColorMatrix in="blurOut" result="blurOut2" type="matrix" values="0 0 0 0 0 0 0 0 0 0 0 0 0 0 0 0 0 0 .4 0"/><feOffset dx="4.0" dy="4.0" in="blurOut2" result="blurOut3"/><feBlend in="SourceGraphic" in2="blurOut3" mode="normal"/></filter></defs><g><!--MD5=[7ba9c127878a642fef3f451151dda753]
cluster C_0000316605034920222648--><polygon fill="#FFFFFF" filter="url(#fkqygv9l2ehyx)" points="304,24,377,24,384,46.2969,468,46.2969,468,190,304,190,304,24" style="stroke: #000000; stroke-width: 1.5;"/><line style="stroke: #000000; stroke-width: 1.5;" x1="304" x2="384" y1="46.2969" y2="46.2969"/><text fill="#000000" font-family="sans-serif" font-size="14" font-weight="bold" lengthAdjust="spacingAndGlyphs" textLength="67" x="308" y="38.9951">common</text><!--MD5=[f7110622f5be760311cd0491b75bf8f9]
cluster C_0000083721806430512831--><polygon fill="#FFFFFF" filter="url(#fkqygv9l2ehyx)" points="328,67,382,67,389,89.2969,444,89.2969,444,166,328,166,328,67" style="stroke: #000000; stroke-width: 1.5;"/><line style="stroke: #000000; stroke-width: 1.5;" x1="328" x2="389" y1="89.2969" y2="89.2969"/><text fill="#000000" font-family="sans-serif" font-size="14" font-weight="bold" lengthAdjust="spacingAndGlyphs" textLength="48" x="332" y="81.9951">model</text><!--MD5=[2319765f5fef5e41f5b55adb85cd73ea]
cluster C_0001521862840957629236--><polygon fill="#FFFFFF" filter="url(#fkqygv9l2ehyx)" points="22,214,176,214,183,236.2969,186,236.2969,186,380,22,380,22,214" style="stroke: #000000; stroke-width: 1.5;"/><line style="stroke: #000000; stroke-width: 1.5;" x1="22" x2="183" y1="236.2969" y2="236.2969"/><text fill="#000000" font-family="sans-serif" font-size="14" font-weight="bold" lengthAdjust="spacingAndGlyphs" textLength="148" x="26" y="228.9951">sequence_diagram</text><!--MD5=[aff6d1ed1f9fc56ba8376cf20ecae299]
cluster C_0002206969880830639264--><polygon fill="#FFFFFF" filter="url(#fkqygv9l2ehyx)" points="46,257,100,257,107,279.2969,162,279.2969,162,356,46,356,46,257" style="stroke: #000000; stroke-width: 1.5;"/><line style="stroke: #000000; stroke-width: 1.5;" x1="46" x2="107" y1="279.2969" y2="279.2969"/><text fill="#000000" font-family="sans-serif" font-size="14" font-weight="bold" lengthAdjust="spacingAndGlyphs" textLength="48" x="50" y="271.9951">model</text><!--MD5=[09e992b259734a9820adb2642bf347d2]
cluster C_0002240167036201725606--><polygon fill="#FFFFFF" filter="url(#fkqygv9l2ehyx)" points="210,214,326,214,333,236.2969,374,236.2969,374,380,210,380,210,214" style="stroke: #000000; stroke-width: 1.5;"/><line style="stroke: #000000; stroke-width: 1.5;" x1="210" x2="333" y1="236.2969" y2="236.2969"/><text fill="#000000" font-family="sans-serif" font-size="14" font-weight="bold" lengthAdjust="spacingAndGlyphs" textLength="110" x="214" y="228.9951">class_diagram</text><!--MD5=[5d123d1ba3dda692cf099252127394e7]
cluster C_0000897124234964432620--><polygon fill="#FFFFFF" filter="url(#fkqygv9l2ehyx)" points="234,257,288,257,295,279.2969,350,279.2969,350,356,234,356,234,257" style="stroke: #000000; stroke-width: 1.5;"/><line style="stroke: #000000; stroke-width: 1.5;" x1="234" x2="295" y1="279.2969" y2="279.2969"/><text fill="#000000" font-family="sans-serif" font-size="14" font-weight="bold" lengthAdjust="spacingAndGlyphs" textLength="48" x="238" y="271.9951">model</text><!--MD5=[afa88a3fa4a9d7982361c47c6e3d506f]
cluster C_0002289677368446195616--><polygon fill="#FFFFFF" filter="url(#fkqygv9l2ehyx)" points="398,214,531,214,538,236.2969,562,236.2969,562,380,398,380,398,214" style="stroke: #000000; stroke-width: 1.5;"/><line style="stroke: #000000; stroke-width: 1.5;" x1="398" x2="538" y1="236.2969" y2="236.2969"/><text fill="#000000" font-family="sans-serif" font-size="14" font-weight="bold" lengthAdjust="spacingAndGlyphs" textLength="127" x="402" y="228.9951">include_diagram</text><!--MD5=[ffb2de9a6db4f2cf1c371e7db43e3510]
cluster C_0000545328881104248214--><polygon fill="#FFFFFF" filter="url(#fkqygv9l2ehyx)" points="422,257,476,257,483,279.2969,538,279.2969,538,356,422,356,422,257" style="stroke: #000000; stroke-width: 1.5;"/><line style="stroke: #000000; stroke-width: 1.5;" x1="422" x2="483" y1="279.2969" y2="279.2969"/><text fill="#000000" font-family="sans-serif" font-size="14" font-weight="bold" lengthAdjust="spacingAndGlyphs" textLength="48" x="426" y="271.9951">model</text><!--MD5=[d6d4256b649a06bde52dfa9851b6c77d]
cluster C_0001176715616702819073--><polygon fill="#FFFFFF" filter="url(#fkqygv9l2ehyx)" points="586,214,728,214,735,236.2969,750,236.2969,750,380,586,380,586,214" style="stroke: #000000; stroke-width: 1.5;"/><line style="stroke: #000000; stroke-width: 1.5;" x1="586" x2="735" y1="236.2969" y2="236.2969"/><text fill="#000000" font-family="sans-serif" font-size="14" font-weight="bold" lengthAdjust="spacingAndGlyphs" textLength="136" x="590" y="228.9951">package_diagram</text><!--MD5=[3026c650b7ecec9f8331301aa821625e]
cluster C_0001569810617781744082--><polygon fill="#FFFFFF" filter="url(#fkqygv9l2ehyx)" points="610,257,664,257,671,279.2969,726,279.2969,726,356,610,356,610,257" style="stroke: #000000; stroke-width: 1.5;"/><line style="stroke: #000000; stroke-width: 1.5;" x1="610" x2="671" y1="279.2969" y2="279.2969"/><text fill="#000000" font-family="sans-serif" font-size="14" font-weight="bold" lengthAdjust="spacingAndGlyphs" textLength="48" x="614" y="271.9951">model</text><!--MD5=[ff9e0a0bc9f03396ed80b26723707697]
class C_0000197068985320835874--><a href="classclanguml_1_1common_1_1model_1_1diagram.html" target="_top" title="Base class for all diagram models" xlink:actuate="onRequest" xlink:href="classclanguml_1_1common_1_1model_1_1diagram.html" xlink:show="new" xlink:title="Base class for all diagram models" xlink:type="simple"><rect fill="#FEFECE" filter="url(#fkqygv9l2ehyx)" height="48" id="C_0000197068985320835874" style="stroke: #A80036; stroke-width: 1.5;" width="83" x="344.5" y="102"/><ellipse cx="359.5" cy="118" fill="#ADD1B2" rx="11" ry="11" style="stroke: #A80036; stroke-width: 1.0;"/><path d="M362.4688,123.6406 Q361.8906,123.9375 361.25,124.0781 Q360.6094,124.2344 359.9063,124.2344 Q357.4063,124.2344 356.0781,122.5938 Q354.7656,120.9375 354.7656,117.8125 Q354.7656,114.6875 356.0781,113.0313 Q357.4063,111.375 359.9063,111.375 Q360.6094,111.375 361.25,111.5313 Q361.9063,111.6875 362.4688,111.9844 L362.4688,114.7031 Q361.8438,114.125 361.25,113.8594 Q360.6563,113.5781 360.0313,113.5781 Q358.6875,113.5781 358,114.6563 Q357.3125,115.7188 357.3125,117.8125 Q357.3125,119.9063 358,120.9844 Q358.6875,122.0469 360.0313,122.0469 Q360.6563,122.0469 361.25,121.7813 Q361.8438,121.5 362.4688,120.9219 L362.4688,123.6406 Z "/><text fill="#000000" font-family="sans-serif" font-size="12" lengthAdjust="spacingAndGlyphs" textLength="51" x="373.5" y="122.1543">diagram</text><line style="stroke: #A80036; stroke-width: 1.5;" x1="345.5" x2="426.5" y1="134" y2="134"/><line style="stroke: #A80036; stroke-width: 1.5;" x1="345.5" x2="426.5" y1="142" y2="142"/></a><!--MD5=[4ac8ef68b016624e17a7e7cc10156a8f]
class C_0000924044572035510976--><a href="classclanguml_1_1sequence__diagram_1_1model_1_1diagram.html" target="_top" title="Model of a sequence diagram" xlink:actuate="onRequest" xlink:href="classclanguml_1_1sequence__diagram_1_1model_1_1diagram.html" xlink:show="new" xlink:title="Model of a sequence diagram" xlink:type="simple"><rect fill="#FEFECE" filter="url(#fkqygv9l2ehyx)" height="48" id="C_0000924044572035510976" style="stroke: #A80036; stroke-width: 1.5;" width="83" x="62.5" y="292"/><ellipse cx="77.5" cy="308" fill="#ADD1B2" rx="11" ry="11" style="stroke: #A80036; stroke-width: 1.0;"/><path d="M80.4688,313.6406 Q79.8906,313.9375 79.25,314.0781 Q78.6094,314.2344 77.9063,314.2344 Q75.4063,314.2344 74.0781,312.5938 Q72.7656,310.9375 72.7656,307.8125 Q72.7656,304.6875 74.0781,303.0313 Q75.4063,301.375 77.9063,301.375 Q78.6094,301.375 79.25,301.5313 Q79.9063,301.6875 80.4688,301.9844 L80.4688,304.7031 Q79.8438,304.125 79.25,303.8594 Q78.6563,303.5781 78.0313,303.5781 Q76.6875,303.5781 76,304.6563 Q75.3125,305.7188 75.3125,307.8125 Q75.3125,309.9063 76,310.9844 Q76.6875,312.0469 78.0313,312.0469 Q78.6563,312.0469 79.25,311.7813 Q79.8438,311.5 80.4688,310.9219 L80.4688,313.6406 Z "/><text fill="#000000" font-family="sans-serif" font-size="12" lengthAdjust="spacingAndGlyphs" textLength="51" x="91.5" y="312.1543">diagram</text><line style="stroke: #A80036; stroke-width: 1.5;" x1="63.5" x2="144.5" y1="324" y2="324"/><line style="stroke: #A80036; stroke-width: 1.5;" x1="63.5" x2="144.5" y1="332" y2="332"/></a><!--MD5=[01d3c478a0ba4034ff864e8146f50cf4]
class C_0000914432076690777687--><a href="classclanguml_1_1class__diagram_1_1model_1_1diagram.html" target="_top" title="Class representing a class diagram." xlink:actuate="onRequest" xlink:href="classclanguml_1_1class__diagram_1_1model_1_1diagram.html" xlink:show="new" xlink:title="Class representing a class diagram." xlink:type="simple"><rect fill="#FEFECE" filter="url(#fkqygv9l2ehyx)" height="48" id="C_0000914432076690777687" style="stroke: #A80036; stroke-width: 1.5;" width="83" x="250.5" y="292"/><ellipse cx="265.5" cy="308" fill="#ADD1B2" rx="11" ry="11" style="stroke: #A80036; stroke-width: 1.0;"/><path d="M268.4688,313.6406 Q267.8906,313.9375 267.25,314.0781 Q266.6094,314.2344 265.9063,314.2344 Q263.4063,314.2344 262.0781,312.5938 Q260.7656,310.9375 260.7656,307.8125 Q260.7656,304.6875 262.0781,303.0313 Q263.4063,301.375 265.9063,301.375 Q266.6094,301.375 267.25,301.5313 Q267.9063,301.6875 268.4688,301.9844 L268.4688,304.7031 Q267.8438,304.125 267.25,303.8594 Q266.6563,303.5781 266.0313,303.5781 Q264.6875,303.5781 264,304.6563 Q263.3125,305.7188 263.3125,307.8125 Q263.3125,309.9063 264,310.9844 Q264.6875,312.0469 266.0313,312.0469 Q266.6563,312.0469 267.25,311.7813 Q267.8438,311.5 268.4688,310.9219 L268.4688,313.6406 Z "/><text fill="#000000" font-family="sans-serif" font-size="12" lengthAdjust="spacingAndGlyphs" textLength="51" x="279.5" y="312.1543">diagram</text><line style="stroke: #A80036; stroke-width: 1.5;" x1="251.5" x2="332.5" y1="324" y2="324"/><line style="stroke: #A80036; stroke-width: 1.5;" x1="251.5" x2="332.5" y1="332" y2="332"/></a><!--MD5=[283c62a9da2b1dcea75ea2262aa5b77f]
class C_0000308380398356948374--><a href="classclanguml_1_1include__diagram_1_1model_1_1diagram.html" target="_top" title="Class representing an include diagram model." xlink:actuate="onRequest" xlink:href="classclanguml_1_1include__diagram_1_1model_1_1diagram.html" xlink:show="new" xlink:title="Class representing an include diagram model." xlink:type="simple"><rect fill="#FEFECE" filter="url(#fkqygv9l2ehyx)" height="48" id="C_0000308380398356948374" style="stroke: #A80036; stroke-width: 1.5;" width="83" x="438.5" y="292"/><ellipse cx="453.5" cy="308" fill="#ADD1B2" rx="11" ry="11" style="stroke: #A80036; stroke-width: 1.0;"/><path d="M456.4688,313.6406 Q455.8906,313.9375 455.25,314.0781 Q454.6094,314.2344 453.9063,314.2344 Q451.4063,314.2344 450.0781,312.5938 Q448.7656,310.9375 448.7656,307.8125 Q448.7656,304.6875 450.0781,303.0313 Q451.4063,301.375 453.9063,301.375 Q454.6094,301.375 455.25,301.5313 Q455.9063,301.6875 456.4688,301.9844 L456.4688,304.7031 Q455.8438,304.125 455.25,303.8594 Q454.6563,303.5781 454.0313,303.5781 Q452.6875,303.5781 452,304.6563 Q451.3125,305.7188 451.3125,307.8125 Q451.3125,309.9063 452,310.9844 Q452.6875,312.0469 454.0313,312.0469 Q454.6563,312.0469 455.25,311.7813 Q455.8438,311.5 456.4688,310.9219 L456.4688,313.6406 Z "/><text fill="#000000" font-family="sans-serif" font-size="12" lengthAdjust="spacingAndGlyphs" textLength="51" x="467.5" y="312.1543">diagram</text><line style="stroke: #A80036; stroke-width: 1.5;" x1="439.5" x2="520.5" y1="324" y2="324"/><line style="stroke: #A80036; stroke-width: 1.5;" x1="439.5" x2="520.5" y1="332" y2="332"/></a><!--MD5=[bc315e7d0960eeae67e337de181c1bce]
class C_0000148537001046167478--><a href="classclanguml_1_1package__diagram_1_1model_1_1diagram.html" target="_top" title="Package diagram model." xlink:actuate="onRequest" xlink:href="classclanguml_1_1package__diagram_1_1model_1_1diagram.html" xlink:show="new" xlink:title="Package diagram model." xlink:type="simple"><rect fill="#FEFECE" filter="url(#fkqygv9l2ehyx)" height="48" id="C_0000148537001046167478" style="stroke: #A80036; stroke-width: 1.5;" width="83" x="626.5" y="292"/><ellipse cx="641.5" cy="308" fill="#ADD1B2" rx="11" ry="11" style="stroke: #A80036; stroke-width: 1.0;"/><path d="M644.4688,313.6406 Q643.8906,313.9375 643.25,314.0781 Q642.6094,314.2344 641.9063,314.2344 Q639.4063,314.2344 638.0781,312.5938 Q636.7656,310.9375 636.7656,307.8125 Q636.7656,304.6875 638.0781,303.0313 Q639.4063,301.375 641.9063,301.375 Q642.6094,301.375 643.25,301.5313 Q643.9063,301.6875 644.4688,301.9844 L644.4688,304.7031 Q643.8438,304.125 643.25,303.8594 Q642.6563,303.5781 642.0313,303.5781 Q640.6875,303.5781 640,304.6563 Q639.3125,305.7188 639.3125,307.8125 Q639.3125,309.9063 640,310.9844 Q640.6875,312.0469 642.0313,312.0469 Q642.6563,312.0469 643.25,311.7813 Q643.8438,311.5 644.4688,310.9219 L644.4688,313.6406 Z "/><text fill="#000000" font-family="sans-serif" font-size="12" lengthAdjust="spacingAndGlyphs" textLength="51" x="655.5" y="312.1543">diagram</text><line style="stroke: #A80036; stroke-width: 1.5;" x1="627.5" x2="708.5" y1="324" y2="324"/><line style="stroke: #A80036; stroke-width: 1.5;" x1="627.5" x2="708.5" y1="332" y2="332"/></a><!--MD5=[200170a1e068a1e5ab0bc25f74c55d33]
reverse link C_0000197068985320835874 to C_0000924044572035510976--><path d="M325.94,154.44 C297.27,168.47 262.98,186.66 234,206 C194.56,232.32 153.31,268.65 128.13,291.98 " fill="none" id="C_0000197068985320835874&lt;-C_0000924044572035510976" style="stroke: #A80036; stroke-width: 1.0;"/><polygon fill="none" points="323.24,147.97,344.3,145.63,329.29,160.59,323.24,147.97" style="stroke: #A80036; stroke-width: 1.0;"/><!--MD5=[0aa646b37725dc55b8a82c6eac2e4aae]
reverse link C_0000197068985320835874 to C_0000914432076690777687--><path d="M365.45,168.11 C346.49,206.01 319.03,260.93 303.62,291.76 " fill="none" id="C_0000197068985320835874&lt;-C_0000914432076690777687" style="stroke: #A80036; stroke-width: 1.0;"/><polygon fill="none" points="359.27,164.81,374.47,150.05,371.79,171.07,359.27,164.81" style="stroke: #A80036; stroke-width: 1.0;"/><!--MD5=[fbf3fd3adcd40d873bb8db103a536fc0]
reverse link C_0000197068985320835874 to C_0000308380398356948374--><path d="M406.55,168.11 C425.51,206.01 452.97,260.93 468.38,291.76 " fill="none" id="C_0000197068985320835874&lt;-C_0000308380398356948374" style="stroke: #A80036; stroke-width: 1.0;"/><polygon fill="none" points="400.21,171.07,397.53,150.05,412.73,164.81,400.21,171.07" style="stroke: #A80036; stroke-width: 1.0;"/><!--MD5=[d3df50313eac67d25f4285ef55f7c15c]
reverse link C_0000197068985320835874 to C_0000148537001046167478--><path d="M446.06,154.44 C474.73,168.47 509.02,186.66 538,206 C577.44,232.32 618.69,268.65 643.87,291.98 " fill="none" id="C_0000197068985320835874&lt;-C_0000148537001046167478" style="stroke: #A80036; stroke-width: 1.0;"/><polygon fill="none" points="442.71,160.59,427.7,145.63,448.76,147.97,442.71,160.59" style="stroke: #A80036; stroke-width: 1.0;"/><!--MD5=[9aa444967b6ffc783b315439e7b4a35c]
@startuml
package [common] as C_0000316605034920222648 {
package [model] as C_0000083721806430512831 {
class "diagram" as C_0000197068985320835874
class C_0000197068985320835874 [[classclanguml_1_1common_1_1model_1_1diagram.html{Base class for all diagram models}]] {
__
}
}
}
package [sequence_diagram] as C_0001521862840957629236 {
package [model] as C_0002206969880830639264 {
class "diagram" as C_0000924044572035510976
class C_0000924044572035510976 [[classclanguml_1_1sequence__diagram_1_1model_1_1diagram.html{Model of a sequence diagram}]] {
__
}
}
}
package [class_diagram] as C_0002240167036201725606 {
package [model] as C_0000897124234964432620 {
class "diagram" as C_0000914432076690777687
class C_0000914432076690777687 [[classclanguml_1_1class__diagram_1_1model_1_1diagram.html{Class representing a class diagram.}]] {
__
}
}
}
package [include_diagram] as C_0002289677368446195616 {
package [model] as C_0000545328881104248214 {
class "diagram" as C_0000308380398356948374
class C_0000308380398356948374 [[classclanguml_1_1include__diagram_1_1model_1_1diagram.html{Class representing an include diagram model.}]] {
__
}
}
}
package [package_diagram] as C_0001176715616702819073 {
package [model] as C_0001569810617781744082 {
class "diagram" as C_0000148537001046167478
class C_0000148537001046167478 [[classclanguml_1_1package__diagram_1_1model_1_1diagram.html{Package diagram model.}]] {
__
}
}
}
C_0000197068985320835874 <|- - C_0000924044572035510976
C_0000197068985320835874 <|- - C_0000914432076690777687
C_0000197068985320835874 <|- - C_0000308380398356948374
C_0000197068985320835874 <|- - C_0000148537001046167478

@enduml

PlantUML version 1.2020.02(Sun Mar 01 11:22:07 CET 2020)
(GPL source distribution)
Java Runtime: OpenJDK Runtime Environment
JVM: OpenJDK 64-Bit Server VM
Java Version: 11.0.19+7-post-Ubuntu-0ubuntu122.04.1
Operating System: Linux
Default Encoding: UTF-8
Language: en
Country: US
--></g></svg>