<svg xmlns="http://www.w3.org/2000/svg" xmlns:xlink="http://www.w3.org/1999/xlink" contentStyleType="text/css" height="2145px" preserveAspectRatio="none" style="width:3171px;height:2145px;background:#FFFFFF;" version="1.1" viewBox="0 0 3171 2145" width="3171px" zoomAndPan="magnify">
  <title>PlantUML sequence diagram generator sequence diagram</title>
  <defs>
    <style type="text/css">a:hover { text-decoration: underline; }</style>
  </defs>
  <g>
    <text fill="#000000" font-family="sans-serif" font-size="14" font-weight="bold" lengthAdjust="spacing" textLength="407.6925" x="1382.6873" y="29.9659">PlantUML sequence diagram generator sequence diagram</text>
    <rect fill="#FFFFFF" height="1984.7474" style="stroke:#181818;stroke-width:1.0;" width="10" x="169.9595" y="112.8419"/>
    <rect fill="#FFFFFF" height="1860.3897" style="stroke:#181818;stroke-width:1.0;" width="10" x="174.9595" y="196.2358"/>
    <rect fill="#FFFFFF" height="1369.6779" style="stroke:#181818;stroke-width:1.0;" width="10" x="179.9595" y="340.0598"/>
    <rect fill="#FFFFFF" height="28" style="stroke:#181818;stroke-width:1.0;" width="10" x="179.9595" y="1800.3894"/>
    <rect fill="#FFFFFF" height="28" style="stroke:#181818;stroke-width:1.0;" width="10" x="179.9595" y="1999.6255"/>
    <rect fill="#FFFFFF" height="14" style="stroke:#181818;stroke-width:1.0;" width="10" x="1235.5778" y="232.9418"/>
    <rect fill="#FFFFFF" height="1332.9719" style="stroke:#181818;stroke-width:1.0;" width="10" x="1539.5277" y="376.7659"/>
    <rect fill="#FFFFFF" height="1287.2659" style="stroke:#181818;stroke-width:1.0;" width="10" x="2072.1108" y="408.4719"/>
    <rect fill="#FFFFFF" height="50.706" style="stroke:#181818;stroke-width:1.0;" width="10" x="2077.1108" y="643.002"/>
    <rect fill="#FFFFFF" height="586.9696" style="stroke:#181818;stroke-width:1.0;" width="10" x="2077.1108" y="788.826"/>
    <rect fill="#FFFFFF" height="28" style="stroke:#181818;stroke-width:1.0;" width="10" x="2077.1108" y="1407.5016"/>
    <rect fill="#FFFFFF" height="60.706" style="stroke:#181818;stroke-width:1.0;" width="10" x="2077.1108" y="1537.6197"/>
    <rect fill="#FFFFFF" height="50.706" style="stroke:#181818;stroke-width:1.0;" width="10" x="2077.1108" y="1645.0317"/>
    <rect fill="#FFFFFF" height="14" style="stroke:#181818;stroke-width:1.0;" width="10" x="2771.1883" y="440.1779"/>
    <rect fill="#FFFFFF" height="14" style="stroke:#181818;stroke-width:1.0;" width="10" x="2771.1883" y="485.8839"/>
    <rect fill="#FFFFFF" height="64.706" style="stroke:#181818;stroke-width:1.0;" width="10" x="2771.1883" y="531.5899"/>
    <rect fill="#FFFFFF" height="25" style="stroke:#181818;stroke-width:1.0;" width="10" x="2776.1883" y="571.2959"/>
    <rect fill="#FFFFFF" height="14" style="stroke:#181818;stroke-width:1.0;" width="10" x="2771.1883" y="679.708"/>
    <rect fill="#FFFFFF" height="508.5576" style="stroke:#181818;stroke-width:1.0;" width="10" x="2771.1883" y="852.2381"/>
    <rect fill="#FFFFFF" height="25" style="stroke:#181818;stroke-width:1.0;" width="10" x="2776.1883" y="974.0621"/>
    <rect fill="#FFFFFF" height="25" style="stroke:#181818;stroke-width:1.0;" width="10" x="2776.1883" y="1045.7681"/>
    <rect fill="#FFFFFF" height="25" style="stroke:#181818;stroke-width:1.0;" width="10" x="2776.1883" y="1144.1802"/>
    <rect fill="#FFFFFF" height="25" style="stroke:#181818;stroke-width:1.0;" width="10" x="2776.1883" y="1215.8862"/>
    <rect fill="#FFFFFF" height="14" style="stroke:#181818;stroke-width:1.0;" width="10" x="2771.1883" y="1681.7377"/>
    <rect fill="none" height="1962.7474" style="stroke:#000000;stroke-width:1.5;" width="3154.067" x="10" y="127.8419"/>
    <rect fill="none" height="1787.6837" style="stroke:#000000;stroke-width:1.5;" width="3134.067" x="20" y="261.9418"/>
    <rect fill="none" height="1554.7416" style="stroke:#000000;stroke-width:1.5;" width="3114.067" x="30" y="288.6478"/>
    <rect fill="none" height="559.9696" style="stroke:#000000;stroke-width:1.5;" width="1428.1549" x="1705.9121" y="808.826"/>
    <rect fill="none" height="480.5576" style="stroke:#000000;stroke-width:1.5;" width="695.7576" x="2428.3095" y="867.2381"/>
    <rect fill="none" height="163.118" style="stroke:#000000;stroke-width:1.5;" width="675.7576" x="2438.3095" y="1092.7681"/>
    <rect fill="none" height="94.412" style="stroke:#000000;stroke-width:1.5;" width="300.4166" x="30" y="1948.2135"/>
    <line style="stroke:#181818;stroke-width:0.5;stroke-dasharray:5.0,5.0;" x1="174" x2="174" y1="79.1358" y2="2107.5893"/>
    <line style="stroke:#181818;stroke-width:0.5;stroke-dasharray:5.0,5.0;" x1="1240.0123" x2="1240.0123" y1="79.1358" y2="2107.5893"/>
    <line style="stroke:#181818;stroke-width:0.5;stroke-dasharray:5.0,5.0;" x1="1544.1433" x2="1544.1433" y1="79.1358" y2="2107.5893"/>
    <line style="stroke:#181818;stroke-width:0.5;stroke-dasharray:5.0,5.0;" x1="2076.9121" x2="2076.9121" y1="79.1358" y2="2107.5893"/>
    <line style="stroke:#181818;stroke-width:0.5;stroke-dasharray:5.0,5.0;" x1="2775.3095" x2="2775.3095" y1="79.1358" y2="2107.5893"/>
    <rect fill="#E2E2F0" height="33.0679" rx="2.5" ry="2.5" style="stroke:#181818;stroke-width:0.5;" width="269.919" x="40" y="45.0679"/>
    <text fill="#000000" font-family="sans-serif" font-size="14" lengthAdjust="spacing" textLength="255.919" x="47" y="67.0339">src/common/generators/generators.cc</text>
    <rect fill="#E2E2F0" height="33.0679" rx="2.5" ry="2.5" style="stroke:#181818;stroke-width:0.5;" width="269.919" x="40" y="2106.5893"/>
    <text fill="#000000" font-family="sans-serif" font-size="14" lengthAdjust="spacing" textLength="255.919" x="47" y="2128.5552">src/common/generators/generators.cc</text>
    <rect fill="#E2E2F0" height="33.0679" rx="2.5" ry="2.5" style="stroke:#181818;stroke-width:0.5;" width="265.1311" x="1108.0123" y="45.0679"/>
    <text fill="#000000" font-family="sans-serif" font-size="14" lengthAdjust="spacing" textLength="251.1311" x="1115.0123" y="67.0339">src/common/generators/generators.h</text>
    <rect fill="#E2E2F0" height="33.0679" rx="2.5" ry="2.5" style="stroke:#181818;stroke-width:0.5;" width="265.1311" x="1108.0123" y="2106.5893"/>
    <text fill="#000000" font-family="sans-serif" font-size="14" lengthAdjust="spacing" textLength="251.1311" x="1115.0123" y="2128.5552">src/common/generators/generators.h</text>
    <rect fill="#E2E2F0" height="33.0679" rx="2.5" ry="2.5" style="stroke:#181818;stroke-width:0.5;" width="322.7688" x="1383.1433" y="45.0679"/>
    <text fill="#000000" font-family="sans-serif" font-size="14" lengthAdjust="spacing" textLength="308.7688" x="1390.1433" y="67.0339">src/common/generators/plantuml/generator.h</text>
    <rect fill="#E2E2F0" height="33.0679" rx="2.5" ry="2.5" style="stroke:#181818;stroke-width:0.5;" width="322.7688" x="1383.1433" y="2106.5893"/>
    <text fill="#000000" font-family="sans-serif" font-size="14" lengthAdjust="spacing" textLength="308.7688" x="1390.1433" y="2128.5552">src/common/generators/plantuml/generator.h</text>
    <a href="" target="_top" title="generator" xlink:actuate="onRequest" xlink:href="" xlink:show="new" xlink:title="generator" xlink:type="simple">
      <rect fill="#E2E2F0" height="33.0679" rx="2.5" ry="2.5" style="stroke:#181818;stroke-width:0.5;" width="722.3973" x="1715.9121" y="45.0679"/>
      <text fill="#000000" font-family="sans-serif" font-size="14" lengthAdjust="spacing" textLength="708.3973" x="1722.9121" y="67.0339">common::generators::plantuml::generator&lt;config::sequence_diagram,sequence_diagram::model::diagram&gt;</text>
      <rect fill="#E2E2F0" height="33.0679" rx="2.5" ry="2.5" style="stroke:#181818;stroke-width:0.5;" width="722.3973" x="1715.9121" y="2106.5893"/>
      <text fill="#000000" font-family="sans-serif" font-size="14" lengthAdjust="spacing" textLength="708.3973" x="1722.9121" y="2128.5552">common::generators::plantuml::generator&lt;config::sequence_diagram,sequence_diagram::model::diagram&gt;</text>
    </a>
    <a href="" target="_top" title="generator" xlink:actuate="onRequest" xlink:href="" xlink:show="new" xlink:title="generator" xlink:type="simple">
      <rect fill="#E2E2F0" height="33.0679" rx="2.5" ry="2.5" style="stroke:#181818;stroke-width:0.5;" width="655.7576" x="2448.3095" y="45.0679"/>
      <text fill="#000000" font-family="sans-serif" font-size="14" lengthAdjust="spacing" textLength="641.7576" x="2455.3095" y="67.0339">common::generators::generator&lt;config::sequence_diagram,sequence_diagram::model::diagram&gt;</text>
      <rect fill="#E2E2F0" height="33.0679" rx="2.5" ry="2.5" style="stroke:#181818;stroke-width:0.5;" width="655.7576" x="2448.3095" y="2106.5893"/>
      <text fill="#000000" font-family="sans-serif" font-size="14" lengthAdjust="spacing" textLength="641.7576" x="2455.3095" y="2128.5552">common::generators::generator&lt;config::sequence_diagram,sequence_diagram::model::diagram&gt;</text>
    </a>
    <rect fill="#FFFFFF" height="1984.7474" style="stroke:#181818;stroke-width:1.0;" width="10" x="169.9595" y="112.8419"/>
    <rect fill="#FFFFFF" height="1860.3897" style="stroke:#181818;stroke-width:1.0;" width="10" x="174.9595" y="196.2358"/>
    <rect fill="#FFFFFF" height="1369.6779" style="stroke:#181818;stroke-width:1.0;" width="10" x="179.9595" y="340.0598"/>
    <rect fill="#FFFFFF" height="28" style="stroke:#181818;stroke-width:1.0;" width="10" x="179.9595" y="1800.3894"/>
    <rect fill="#FFFFFF" height="28" style="stroke:#181818;stroke-width:1.0;" width="10" x="179.9595" y="1999.6255"/>
    <rect fill="#FFFFFF" height="14" style="stroke:#181818;stroke-width:1.0;" width="10" x="1235.5778" y="232.9418"/>
    <rect fill="#FFFFFF" height="1332.9719" style="stroke:#181818;stroke-width:1.0;" width="10" x="1539.5277" y="376.7659"/>
    <rect fill="#FFFFFF" height="1287.2659" style="stroke:#181818;stroke-width:1.0;" width="10" x="2072.1108" y="408.4719"/>
    <rect fill="#FFFFFF" height="50.706" style="stroke:#181818;stroke-width:1.0;" width="10" x="2077.1108" y="643.002"/>
    <rect fill="#FFFFFF" height="586.9696" style="stroke:#181818;stroke-width:1.0;" width="10" x="2077.1108" y="788.826"/>
    <rect fill="#FFFFFF" height="28" style="stroke:#181818;stroke-width:1.0;" width="10" x="2077.1108" y="1407.5016"/>
    <rect fill="#FFFFFF" height="60.706" style="stroke:#181818;stroke-width:1.0;" width="10" x="2077.1108" y="1537.6197"/>
    <rect fill="#FFFFFF" height="50.706" style="stroke:#181818;stroke-width:1.0;" width="10" x="2077.1108" y="1645.0317"/>
    <rect fill="#FFFFFF" height="14" style="stroke:#181818;stroke-width:1.0;" width="10" x="2771.1883" y="440.1779"/>
    <rect fill="#FFFFFF" height="14" style="stroke:#181818;stroke-width:1.0;" width="10" x="2771.1883" y="485.8839"/>
    <rect fill="#FFFFFF" height="64.706" style="stroke:#181818;stroke-width:1.0;" width="10" x="2771.1883" y="531.5899"/>
    <rect fill="#FFFFFF" height="25" style="stroke:#181818;stroke-width:1.0;" width="10" x="2776.1883" y="571.2959"/>
    <rect fill="#FFFFFF" height="14" style="stroke:#181818;stroke-width:1.0;" width="10" x="2771.1883" y="679.708"/>
    <rect fill="#FFFFFF" height="508.5576" style="stroke:#181818;stroke-width:1.0;" width="10" x="2771.1883" y="852.2381"/>
    <rect fill="#FFFFFF" height="25" style="stroke:#181818;stroke-width:1.0;" width="10" x="2776.1883" y="974.0621"/>
    <rect fill="#FFFFFF" height="25" style="stroke:#181818;stroke-width:1.0;" width="10" x="2776.1883" y="1045.7681"/>
    <rect fill="#FFFFFF" height="25" style="stroke:#181818;stroke-width:1.0;" width="10" x="2776.1883" y="1144.1802"/>
    <rect fill="#FFFFFF" height="25" style="stroke:#181818;stroke-width:1.0;" width="10" x="2776.1883" y="1215.8862"/>
    <rect fill="#FFFFFF" height="14" style="stroke:#181818;stroke-width:1.0;" width="10" x="2771.1883" y="1681.7377"/>
    <polygon fill="#181818" points="157.9595,108.8419,167.9595,112.8419,157.9595,116.8419,161.9595,112.8419" style="stroke:#181818;stroke-width:1.0;"/>
    <line style="stroke:#181818;stroke-width:1.0;" x1="0" x2="163.9595" y1="112.8419" y2="112.8419"/>
    <text fill="#000000" font-family="sans-serif" font-size="13" lengthAdjust="spacing" textLength="120.4061" x="7" y="107.0328">generate_diagram()</text>
    <path d="M10,127.8419 L72.459,127.8419 L72.459,137.5479 L62.459,147.5479 L10,147.5479 L10,127.8419 " fill="#EEEEEE" style="stroke:#000000;stroke-width:1.5;"/>
    <rect fill="none" height="1962.7474" style="stroke:#000000;stroke-width:1.5;" width="3154.067" x="10" y="127.8419"/>
    <text fill="#000000" font-family="sans-serif" font-size="13" font-weight="bold" lengthAdjust="spacing" textLength="17.459" x="25" y="142.7389">alt</text>
    <text fill="#000000" font-family="sans-serif" font-size="11" font-weight="bold" lengthAdjust="spacing" textLength="210.4285" x="87.459" y="141.6008">[diagram-&gt;type() == diagram_t::kClass]</text>
    <line style="stroke:#000000;stroke-width:1.0;stroke-dasharray:2.0,2.0;" x1="10" x2="3164.067" y1="148.5479" y2="148.5479"/>
    <text fill="#000000" font-family="sans-serif" font-size="11" font-weight="bold" lengthAdjust="spacing" textLength="235.1233" x="15" y="160.3068">[diagram-&gt;type() == diagram_t::kSequence]</text>
    <a href="" target="_top" title="" xlink:actuate="onRequest" xlink:href="" xlink:show="new" xlink:title="" xlink:type="simple">
      <line style="stroke:#181818;stroke-width:1.0;" x1="179.9595" x2="226.9595" y1="183.2358" y2="183.2358"/>
      <line style="stroke:#181818;stroke-width:1.0;" x1="226.9595" x2="226.9595" y1="183.2358" y2="196.2358"/>
      <line style="stroke:#181818;stroke-width:1.0;" x1="185.9595" x2="226.9595" y1="196.2358" y2="196.2358"/>
      <polygon fill="#181818" points="195.9595,192.2358,185.9595,196.2358,195.9595,200.2358,191.9595,196.2358" style="stroke:#181818;stroke-width:1.0;"/>
      <text fill="#000000" font-family="sans-serif" font-size="13" lengthAdjust="spacing" textLength="328.5883" x="191.9595" y="177.4268">generate_diagram_impl&lt;config::sequence_diagram&gt;()</text>
    </a>
    <a href="" target="_top" title="" xlink:actuate="onRequest" xlink:href="" xlink:show="new" xlink:title="" xlink:type="simple">
      <polygon fill="#181818" points="1223.5778,228.9418,1233.5778,232.9418,1223.5778,236.9418,1227.5778,232.9418" style="stroke:#181818;stroke-width:1.0;"/>
      <line style="stroke:#181818;stroke-width:1.0;" x1="184.9595" x2="1229.5778" y1="232.9418" y2="232.9418"/>
      <text fill="#000000" font-family="sans-serif" font-size="13" lengthAdjust="spacing" textLength="772.0314" x="191.9595" y="227.1328">generate&lt;sequence_diagram::model::diagram,config::sequence_diagram,sequence_diagram::visitor::translation_unit_visitor&gt;()</text>
    </a>
    <polygon fill="#181818" points="195.9595,242.9418,185.9595,246.9418,195.9595,250.9418,191.9595,246.9418" style="stroke:#181818;stroke-width:1.0;"/>
    <line style="stroke:#181818;stroke-width:1.0;stroke-dasharray:2.0,2.0;" x1="189.9595" x2="1239.5778" y1="246.9418" y2="246.9418"/>
    <path d="M20,261.9418 L93.288,261.9418 L93.288,271.6478 L83.288,281.6478 L20,281.6478 L20,261.9418 " fill="#EEEEEE" style="stroke:#000000;stroke-width:1.5;"/>
    <rect fill="none" height="1787.6837" style="stroke:#000000;stroke-width:1.5;" width="3134.067" x="20" y="261.9418"/>
    <text fill="#000000" font-family="sans-serif" font-size="13" font-weight="bold" lengthAdjust="spacing" textLength="28.288" x="35" y="276.8388">loop</text>
    <text fill="#000000" font-family="sans-serif" font-size="11" font-weight="bold" lengthAdjust="spacing" textLength="90.9473" x="108.288" y="275.7007">[runtime_config]</text>
    <path d="M30,288.6478 L92.459,288.6478 L92.459,298.3538 L82.459,308.3538 L30,308.3538 L30,288.6478 " fill="#EEEEEE" style="stroke:#000000;stroke-width:1.5;"/>
    <rect fill="none" height="1554.7416" style="stroke:#000000;stroke-width:1.5;" width="3114.067" x="30" y="288.6478"/>
    <text fill="#000000" font-family="sans-serif" font-size="13" font-weight="bold" lengthAdjust="spacing" textLength="17.459" x="45" y="303.5448">alt</text>
    <text fill="#000000" font-family="sans-serif" font-size="11" font-weight="bold" lengthAdjust="spacing" textLength="260.3461" x="107.459" y="302.4067">[generator_type == generator_type_t::plantuml]</text>
    <a href="" target="_top" title="" xlink:actuate="onRequest" xlink:href="" xlink:show="new" xlink:title="" xlink:type="simple">
      <line style="stroke:#181818;stroke-width:1.0;" x1="184.9595" x2="231.9595" y1="327.0598" y2="327.0598"/>
      <line style="stroke:#181818;stroke-width:1.0;" x1="231.9595" x2="231.9595" y1="327.0598" y2="340.0598"/>
      <line style="stroke:#181818;stroke-width:1.0;" x1="190.9595" x2="231.9595" y1="340.0598" y2="340.0598"/>
      <polygon fill="#181818" points="200.9595,336.0598,190.9595,340.0598,200.9595,344.0598,196.9595,340.0598" style="stroke:#181818;stroke-width:1.0;"/>
      <text fill="#000000" font-family="sans-serif" font-size="13" lengthAdjust="spacing" textLength="1021.6183" x="196.9595" y="321.2508">generate_diagram_select_generator&lt;config::sequence_diagram,common::generators::plantuml_generator_tag,std::unique_ptr&lt;sequence_diagram::model::diagram&gt;&gt;()</text>
    </a>
    <a href="" target="_top" title="" xlink:actuate="onRequest" xlink:href="" xlink:show="new" xlink:title="" xlink:type="simple">
      <polygon fill="#181818" points="1527.5277,372.7659,1537.5277,376.7659,1527.5277,380.7659,1531.5277,376.7659" style="stroke:#181818;stroke-width:1.0;"/>
      <line style="stroke:#181818;stroke-width:1.0;" x1="189.9595" x2="1533.5277" y1="376.7659" y2="376.7659"/>
      <text fill="#000000" font-family="sans-serif" font-size="13" lengthAdjust="spacing" textLength="475.3325" x="196.9595" y="370.9569">operator&lt;&lt;&lt;config::sequence_diagram,sequence_diagram::model::diagram&gt;()</text>
    </a>
    <a href="" target="_top" title="" xlink:actuate="onRequest" xlink:href="" xlink:show="new" xlink:title="" xlink:type="simple">
      <polygon fill="#181818" points="2060.1108,404.4719,2070.1108,408.4719,2060.1108,412.4719,2064.1108,408.4719" style="stroke:#181818;stroke-width:1.0;"/>
      <line style="stroke:#181818;stroke-width:1.0;" x1="1549.5277" x2="2066.1108" y1="408.4719" y2="408.4719"/>
      <text fill="#000000" font-family="sans-serif" font-size="13" lengthAdjust="spacing" textLength="99.6191" x="1556.5277" y="402.6629">generate() const</text>
    </a>
    <a href="" target="_top" title="" xlink:actuate="onRequest" xlink:href="" xlink:show="new" xlink:title="" xlink:type="simple">
      <polygon fill="#181818" points="2759.1883,436.1779,2769.1883,440.1779,2759.1883,444.1779,2763.1883,440.1779" style="stroke:#181818;stroke-width:1.0;"/>
      <line style="stroke:#181818;stroke-width:1.0;" x1="2082.1108" x2="2765.1883" y1="440.1779" y2="440.1779"/>
      <text fill="#000000" font-family="sans-serif" font-size="13" lengthAdjust="spacing" textLength="82.1991" x="2089.1108" y="434.3689">config() const</text>
    </a>
    <polygon fill="#181818" points="2093.1108,450.1779,2083.1108,454.1779,2093.1108,458.1779,2089.1108,454.1779" style="stroke:#181818;stroke-width:1.0;"/>
    <line style="stroke:#181818;stroke-width:1.0;stroke-dasharray:2.0,2.0;" x1="2087.1108" x2="2775.1883" y1="454.1779" y2="454.1779"/>
    <a href="" target="_top" title="" xlink:actuate="onRequest" xlink:href="" xlink:show="new" xlink:title="" xlink:type="simple">
      <polygon fill="#181818" points="2759.1883,481.8839,2769.1883,485.8839,2759.1883,489.8839,2763.1883,485.8839" style="stroke:#181818;stroke-width:1.0;"/>
      <line style="stroke:#181818;stroke-width:1.0;" x1="2082.1108" x2="2765.1883" y1="485.8839" y2="485.8839"/>
      <text fill="#000000" font-family="sans-serif" font-size="13" lengthAdjust="spacing" textLength="82.9401" x="2089.1108" y="480.0749">model() const</text>
    </a>
    <polygon fill="#181818" points="2093.1108,495.8839,2083.1108,499.8839,2093.1108,503.8839,2089.1108,499.8839" style="stroke:#181818;stroke-width:1.0;"/>
    <line style="stroke:#181818;stroke-width:1.0;stroke-dasharray:2.0,2.0;" x1="2087.1108" x2="2775.1883" y1="499.8839" y2="499.8839"/>
    <a href="" target="_top" title="" xlink:actuate="onRequest" xlink:href="" xlink:show="new" xlink:title="" xlink:type="simple">
      <polygon fill="#181818" points="2759.1883,527.5899,2769.1883,531.5899,2759.1883,535.5899,2763.1883,531.5899" style="stroke:#181818;stroke-width:1.0;"/>
      <line style="stroke:#181818;stroke-width:1.0;" x1="2082.1108" x2="2765.1883" y1="531.5899" y2="531.5899"/>
      <text fill="#000000" font-family="sans-serif" font-size="13" lengthAdjust="spacing" textLength="139.0871" x="2089.1108" y="525.7809">update_context() const</text>
    </a>
    <a href="" target="_top" title="" xlink:actuate="onRequest" xlink:href="" xlink:show="new" xlink:title="" xlink:type="simple">
      <line style="stroke:#181818;stroke-width:1.0;" x1="2781.1883" x2="2828.1883" y1="558.2959" y2="558.2959"/>
      <line style="stroke:#181818;stroke-width:1.0;" x1="2828.1883" x2="2828.1883" y1="558.2959" y2="571.2959"/>
      <line style="stroke:#181818;stroke-width:1.0;" x1="2787.1883" x2="2828.1883" y1="571.2959" y2="571.2959"/>
      <polygon fill="#181818" points="2797.1883,567.2959,2787.1883,571.2959,2797.1883,575.2959,2793.1883,571.2959" style="stroke:#181818;stroke-width:1.0;"/>
      <text fill="#000000" font-family="sans-serif" font-size="13" lengthAdjust="spacing" textLength="82.9401" x="2793.1883" y="552.4869">model() const</text>
    </a>
    <line style="stroke:#181818;stroke-width:1.0;stroke-dasharray:2.0,2.0;" x1="2786.1883" x2="2828.1883" y1="595.2959" y2="595.2959"/>
    <line style="stroke:#181818;stroke-width:1.0;stroke-dasharray:2.0,2.0;" x1="2828.1883" x2="2828.1883" y1="595.2959" y2="608.2959"/>
    <line style="stroke:#181818;stroke-width:1.0;stroke-dasharray:2.0,2.0;" x1="2781.1883" x2="2828.1883" y1="608.2959" y2="608.2959"/>
    <polygon fill="#181818" points="2791.1883,604.2959,2781.1883,608.2959,2791.1883,612.2959,2787.1883,608.2959" style="stroke:#181818;stroke-width:1.0;"/>
    <a href="" target="_top" title="" xlink:actuate="onRequest" xlink:href="" xlink:show="new" xlink:title="" xlink:type="simple">
      <line style="stroke:#181818;stroke-width:1.0;" x1="2082.1108" x2="2129.1108" y1="630.002" y2="630.002"/>
      <line style="stroke:#181818;stroke-width:1.0;" x1="2129.1108" x2="2129.1108" y1="630.002" y2="643.002"/>
      <line style="stroke:#181818;stroke-width:1.0;" x1="2088.1108" x2="2129.1108" y1="643.002" y2="643.002"/>
      <polygon fill="#181818" points="2098.1108,639.002,2088.1108,643.002,2098.1108,647.002,2094.1108,643.002" style="stroke:#181818;stroke-width:1.0;"/>
      <text fill="#000000" font-family="sans-serif" font-size="13" lengthAdjust="spacing" textLength="128.8171" x="2094.1108" y="624.1929">generate_title() const</text>
    </a>
    <a href="" target="_top" title="" xlink:actuate="onRequest" xlink:href="" xlink:show="new" xlink:title="" xlink:type="simple">
      <polygon fill="#181818" points="2759.1883,675.708,2769.1883,679.708,2759.1883,683.708,2763.1883,679.708" style="stroke:#181818;stroke-width:1.0;"/>
      <line style="stroke:#181818;stroke-width:1.0;" x1="2087.1108" x2="2765.1883" y1="679.708" y2="679.708"/>
      <text fill="#000000" font-family="sans-serif" font-size="13" lengthAdjust="spacing" textLength="82.1991" x="2094.1108" y="673.899">config() const</text>
    </a>
    <polygon fill="#181818" points="2093.1108,689.708,2083.1108,693.708,2093.1108,697.708,2089.1108,693.708" style="stroke:#181818;stroke-width:1.0;"/>
    <line style="stroke:#181818;stroke-width:1.0;stroke-dasharray:2.0,2.0;" x1="2087.1108" x2="2775.1883" y1="693.708" y2="693.708"/>
    <path d="M1972,706.708 L1972,751.708 L2181,751.708 L2181,716.708 L2171,706.708 L1972,706.708 " fill="#FEFFDD" style="stroke:#181818;stroke-width:0.5;"/>
    <path d="M2171,706.708 L2171,716.708 L2181,716.708 L2171,706.708 " fill="#FEFFDD" style="stroke:#181818;stroke-width:0.5;"/>
    <text fill="#000000" font-family="sans-serif" font-size="13" lengthAdjust="spacing" textLength="181.4541" x="1978" y="725.605">Generate PlantUML directives</text>
    <text fill="#000000" font-family="sans-serif" font-size="13" lengthAdjust="spacing" textLength="188.6562" x="1978" y="743.311">before auto generated content</text>
    <a href="" target="_top" title="" xlink:actuate="onRequest" xlink:href="" xlink:show="new" xlink:title="" xlink:type="simple">
      <line style="stroke:#181818;stroke-width:1.0;" x1="2082.1108" x2="2129.1108" y1="775.826" y2="775.826"/>
      <line style="stroke:#181818;stroke-width:1.0;" x1="2129.1108" x2="2129.1108" y1="775.826" y2="788.826"/>
      <line style="stroke:#181818;stroke-width:1.0;" x1="2088.1108" x2="2129.1108" y1="788.826" y2="788.826"/>
      <polygon fill="#181818" points="2098.1108,784.826,2088.1108,788.826,2098.1108,792.826,2094.1108,788.826" style="stroke:#181818;stroke-width:1.0;"/>
      <text fill="#000000" font-family="sans-serif" font-size="13" lengthAdjust="spacing" textLength="224.5752" x="2094.1108" y="770.017">generate_plantuml_directives() const</text>
    </a>
    <path d="M1705.9121,808.826 L1779.2002,808.826 L1779.2002,818.532 L1769.2002,828.532 L1705.9121,828.532 L1705.9121,808.826 " fill="#EEEEEE" style="stroke:#000000;stroke-width:1.5;"/>
    <rect fill="none" height="559.9696" style="stroke:#000000;stroke-width:1.5;" width="1428.1549" x="1705.9121" y="808.826"/>
    <text fill="#000000" font-family="sans-serif" font-size="13" font-weight="bold" lengthAdjust="spacing" textLength="28.288" x="1720.9121" y="823.723">loop</text>
    <text fill="#000000" font-family="sans-serif" font-size="11" font-weight="bold" lengthAdjust="spacing" textLength="61.1046" x="1794.2002" y="822.5849">[directives]</text>
    <a href="" target="_top" title="" xlink:actuate="onRequest" xlink:href="" xlink:show="new" xlink:title="" xlink:type="simple">
      <polygon fill="#181818" points="2759.1883,848.2381,2769.1883,852.2381,2759.1883,856.2381,2763.1883,852.2381" style="stroke:#181818;stroke-width:1.0;"/>
      <line style="stroke:#181818;stroke-width:1.0;" x1="2087.1108" x2="2765.1883" y1="852.2381" y2="852.2381"/>
      <text fill="#000000" font-family="sans-serif" font-size="13" lengthAdjust="spacing" textLength="146.2891" x="2094.1108" y="846.429">render_template() const</text>
    </a>
    <path d="M2428.3095,867.2381 L2492.2505,867.2381 L2492.2505,876.9441 L2482.2505,886.9441 L2428.3095,886.9441 L2428.3095,867.2381 " fill="#EEEEEE" style="stroke:#000000;stroke-width:1.5;"/>
    <rect fill="none" height="480.5576" style="stroke:#000000;stroke-width:1.5;" width="695.7576" x="2428.3095" y="867.2381"/>
    <text fill="#000000" font-family="sans-serif" font-size="13" font-weight="bold" lengthAdjust="spacing" textLength="18.941" x="2443.3095" y="882.1351">try</text>
    <path d="M2689,891.9441 L2689,936.9441 L2862,936.9441 L2862,901.9441 L2852,891.9441 L2689,891.9441 " fill="#FEFFDD" style="stroke:#181818;stroke-width:0.5;"/>
    <path d="M2852,891.9441 L2852,901.9441 L2862,901.9441 L2852,891.9441 " fill="#FEFFDD" style="stroke:#181818;stroke-width:0.5;"/>
    <text fill="#000000" font-family="sans-serif" font-size="13" lengthAdjust="spacing" textLength="152.9191" x="2695" y="910.8411">Render the directive with</text>
    <text fill="#000000" font-family="sans-serif" font-size="13" lengthAdjust="spacing" textLength="127.8031" x="2695" y="928.5471">template engine first</text>
    <a href="" target="_top" title="" xlink:actuate="onRequest" xlink:href="" xlink:show="new" xlink:title="" xlink:type="simple">
      <line style="stroke:#181818;stroke-width:1.0;" x1="2781.1883" x2="2828.1883" y1="961.0621" y2="961.0621"/>
      <line style="stroke:#181818;stroke-width:1.0;" x1="2828.1883" x2="2828.1883" y1="961.0621" y2="974.0621"/>
      <line style="stroke:#181818;stroke-width:1.0;" x1="2787.1883" x2="2828.1883" y1="974.0621" y2="974.0621"/>
      <polygon fill="#181818" points="2797.1883,970.0621,2787.1883,974.0621,2797.1883,978.0621,2793.1883,974.0621" style="stroke:#181818;stroke-width:1.0;"/>
      <text fill="#000000" font-family="sans-serif" font-size="13" lengthAdjust="spacing" textLength="66.2091" x="2793.1883" y="955.2531">env() const</text>
    </a>
    <line style="stroke:#181818;stroke-width:1.0;stroke-dasharray:2.0,2.0;" x1="2786.1883" x2="2828.1883" y1="998.0621" y2="998.0621"/>
    <line style="stroke:#181818;stroke-width:1.0;stroke-dasharray:2.0,2.0;" x1="2828.1883" x2="2828.1883" y1="998.0621" y2="1011.0621"/>
    <line style="stroke:#181818;stroke-width:1.0;stroke-dasharray:2.0,2.0;" x1="2781.1883" x2="2828.1883" y1="1011.0621" y2="1011.0621"/>
    <polygon fill="#181818" points="2791.1883,1007.0621,2781.1883,1011.0621,2791.1883,1015.0621,2787.1883,1011.0621" style="stroke:#181818;stroke-width:1.0;"/>
    <a href="" target="_top" title="" xlink:actuate="onRequest" xlink:href="" xlink:show="new" xlink:title="" xlink:type="simple">
      <line style="stroke:#181818;stroke-width:1.0;" x1="2781.1883" x2="2828.1883" y1="1032.7681" y2="1032.7681"/>
      <line style="stroke:#181818;stroke-width:1.0;" x1="2828.1883" x2="2828.1883" y1="1032.7681" y2="1045.7681"/>
      <line style="stroke:#181818;stroke-width:1.0;" x1="2787.1883" x2="2828.1883" y1="1045.7681" y2="1045.7681"/>
      <polygon fill="#181818" points="2797.1883,1041.7681,2787.1883,1045.7681,2797.1883,1049.7681,2793.1883,1045.7681" style="stroke:#181818;stroke-width:1.0;"/>
      <text fill="#000000" font-family="sans-serif" font-size="13" lengthAdjust="spacing" textLength="89.9731" x="2793.1883" y="1026.9591">context() const</text>
    </a>
    <line style="stroke:#181818;stroke-width:1.0;stroke-dasharray:2.0,2.0;" x1="2786.1883" x2="2828.1883" y1="1069.7681" y2="1069.7681"/>
    <line style="stroke:#181818;stroke-width:1.0;stroke-dasharray:2.0,2.0;" x1="2828.1883" x2="2828.1883" y1="1069.7681" y2="1082.7681"/>
    <line style="stroke:#181818;stroke-width:1.0;stroke-dasharray:2.0,2.0;" x1="2781.1883" x2="2828.1883" y1="1082.7681" y2="1082.7681"/>
    <polygon fill="#181818" points="2791.1883,1078.7681,2781.1883,1082.7681,2791.1883,1086.7681,2787.1883,1082.7681" style="stroke:#181818;stroke-width:1.0;"/>
    <path d="M2438.3095,1092.7681 L2511.5975,1092.7681 L2511.5975,1102.4742 L2501.5975,1112.4742 L2438.3095,1112.4742 L2438.3095,1092.7681 " fill="#EEEEEE" style="stroke:#000000;stroke-width:1.5;"/>
    <rect fill="none" height="163.118" style="stroke:#000000;stroke-width:1.5;" width="675.7576" x="2438.3095" y="1092.7681"/>
    <text fill="#000000" font-family="sans-serif" font-size="13" font-weight="bold" lengthAdjust="spacing" textLength="28.288" x="2453.3095" y="1107.6651">loop</text>
    <text fill="#000000" font-family="sans-serif" font-size="11" font-weight="bold" lengthAdjust="spacing" textLength="318.2497" x="2526.5975" y="1106.527">[util::find_element_alias(rendered_template, alias_match)]</text>
    <a href="" target="_top" title="" xlink:actuate="onRequest" xlink:href="" xlink:show="new" xlink:title="" xlink:type="simple">
      <line style="stroke:#181818;stroke-width:1.0;" x1="2781.1883" x2="2828.1883" y1="1131.1802" y2="1131.1802"/>
      <line style="stroke:#181818;stroke-width:1.0;" x1="2828.1883" x2="2828.1883" y1="1131.1802" y2="1144.1802"/>
      <line style="stroke:#181818;stroke-width:1.0;" x1="2787.1883" x2="2828.1883" y1="1144.1802" y2="1144.1802"/>
      <polygon fill="#181818" points="2797.1883,1140.1802,2787.1883,1144.1802,2797.1883,1148.1802,2793.1883,1144.1802" style="stroke:#181818;stroke-width:1.0;"/>
      <text fill="#000000" font-family="sans-serif" font-size="13" lengthAdjust="spacing" textLength="82.1991" x="2793.1883" y="1125.3712">config() const</text>
    </a>
    <line style="stroke:#181818;stroke-width:1.0;stroke-dasharray:2.0,2.0;" x1="2786.1883" x2="2828.1883" y1="1168.1802" y2="1168.1802"/>
    <line style="stroke:#181818;stroke-width:1.0;stroke-dasharray:2.0,2.0;" x1="2828.1883" x2="2828.1883" y1="1168.1802" y2="1181.1802"/>
    <line style="stroke:#181818;stroke-width:1.0;stroke-dasharray:2.0,2.0;" x1="2781.1883" x2="2828.1883" y1="1181.1802" y2="1181.1802"/>
    <polygon fill="#181818" points="2791.1883,1177.1802,2781.1883,1181.1802,2791.1883,1185.1802,2787.1883,1181.1802" style="stroke:#181818;stroke-width:1.0;"/>
    <a href="" target="_top" title="" xlink:actuate="onRequest" xlink:href="" xlink:show="new" xlink:title="" xlink:type="simple">
      <line style="stroke:#181818;stroke-width:1.0;" x1="2781.1883" x2="2828.1883" y1="1202.8862" y2="1202.8862"/>
      <line style="stroke:#181818;stroke-width:1.0;" x1="2828.1883" x2="2828.1883" y1="1202.8862" y2="1215.8862"/>
      <line style="stroke:#181818;stroke-width:1.0;" x1="2787.1883" x2="2828.1883" y1="1215.8862" y2="1215.8862"/>
      <polygon fill="#181818" points="2797.1883,1211.8862,2787.1883,1215.8862,2797.1883,1219.8862,2793.1883,1215.8862" style="stroke:#181818;stroke-width:1.0;"/>
      <text fill="#000000" font-family="sans-serif" font-size="13" lengthAdjust="spacing" textLength="82.9401" x="2793.1883" y="1197.0772">model() const</text>
    </a>
    <line style="stroke:#181818;stroke-width:1.0;stroke-dasharray:2.0,2.0;" x1="2786.1883" x2="2828.1883" y1="1239.8862" y2="1239.8862"/>
    <line style="stroke:#181818;stroke-width:1.0;stroke-dasharray:2.0,2.0;" x1="2828.1883" x2="2828.1883" y1="1239.8862" y2="1252.8862"/>
    <line style="stroke:#181818;stroke-width:1.0;stroke-dasharray:2.0,2.0;" x1="2781.1883" x2="2828.1883" y1="1252.8862" y2="1252.8862"/>
    <polygon fill="#181818" points="2791.1883,1248.8862,2781.1883,1252.8862,2791.1883,1256.8862,2787.1883,1252.8862" style="stroke:#181818;stroke-width:1.0;"/>
    <line style="stroke:#000000;stroke-width:1.0;stroke-dasharray:2.0,2.0;" x1="2428.3095" x2="3124.067" y1="1263.8862" y2="1263.8862"/>
    <text fill="#000000" font-family="sans-serif" font-size="11" font-weight="bold" lengthAdjust="spacing" textLength="241.7673" x="2433.3095" y="1275.6451">[const clanguml::error::uml_alias_missing &amp;]</text>
    <line style="stroke:#000000;stroke-width:1.0;stroke-dasharray:2.0,2.0;" x1="2428.3095" x2="3124.067" y1="1280.8681" y2="1280.8681"/>
    <text fill="#000000" font-family="sans-serif" font-size="11" font-weight="bold" lengthAdjust="spacing" textLength="170.5428" x="2433.3095" y="1292.627">[const inja::json::parse_error &amp;]</text>
    <line style="stroke:#000000;stroke-width:1.0;stroke-dasharray:2.0,2.0;" x1="2428.3095" x2="3124.067" y1="1297.85" y2="1297.85"/>
    <text fill="#000000" font-family="sans-serif" font-size="11" font-weight="bold" lengthAdjust="spacing" textLength="161.3029" x="2433.3095" y="1309.6089">[const inja::json::exception &amp;]</text>
    <line style="stroke:#000000;stroke-width:1.0;stroke-dasharray:2.0,2.0;" x1="2428.3095" x2="3124.067" y1="1314.8318" y2="1314.8318"/>
    <text fill="#000000" font-family="sans-serif" font-size="11" font-weight="bold" lengthAdjust="spacing" textLength="138.786" x="2433.3095" y="1326.5908">[const std::regex_error &amp;]</text>
    <line style="stroke:#000000;stroke-width:1.0;stroke-dasharray:2.0,2.0;" x1="2428.3095" x2="3124.067" y1="1331.8137" y2="1331.8137"/>
    <text fill="#000000" font-family="sans-serif" font-size="11" font-weight="bold" lengthAdjust="spacing" textLength="128.7981" x="2433.3095" y="1343.5726">[const std::exception &amp;]</text>
    <polygon fill="#181818" points="2098.1108,1356.7956,2088.1108,1360.7956,2098.1108,1364.7956,2094.1108,1360.7956" style="stroke:#181818;stroke-width:1.0;"/>
    <line style="stroke:#181818;stroke-width:1.0;stroke-dasharray:2.0,2.0;" x1="2092.1108" x2="2775.1883" y1="1360.7956" y2="1360.7956"/>
    <a href="" target="_top" title="" xlink:actuate="onRequest" xlink:href="" xlink:show="new" xlink:title="" xlink:type="simple">
      <line style="stroke:#181818;stroke-width:1.0;" x1="2087.1108" x2="2129.1108" y1="1399.5016" y2="1399.5016"/>
      <line style="stroke:#181818;stroke-width:1.0;" x1="2129.1108" x2="2129.1108" y1="1399.5016" y2="1412.5016"/>
      <line style="stroke:#181818;stroke-width:1.0;" x1="2088.1108" x2="2129.1108" y1="1412.5016" y2="1412.5016"/>
      <polygon fill="#181818" points="2098.1108,1408.5016,2088.1108,1412.5016,2098.1108,1416.5016,2094.1108,1412.5016" style="stroke:#181818;stroke-width:1.0;"/>
      <text fill="#000000" font-family="sans-serif" font-size="13" lengthAdjust="spacing" textLength="156.8451" x="2094.1108" y="1393.6926">generate_diagram() const</text>
    </a>
    <path d="M1975,1455.5016 L1975,1500.5016 L2177,1500.5016 L2177,1465.5016 L2167,1455.5016 L1975,1455.5016 " fill="#FEFFDD" style="stroke:#181818;stroke-width:0.5;"/>
    <path d="M2167,1455.5016 L2167,1465.5016 L2177,1465.5016 L2167,1455.5016 " fill="#FEFFDD" style="stroke:#181818;stroke-width:0.5;"/>
    <text fill="#000000" font-family="sans-serif" font-size="13" lengthAdjust="spacing" textLength="181.4541" x="1981" y="1474.3987">Generate PlantUML directives</text>
    <text fill="#000000" font-family="sans-serif" font-size="13" lengthAdjust="spacing" textLength="177.4501" x="1981" y="1492.1047">after auto generated content</text>
    <a href="" target="_top" title="" xlink:actuate="onRequest" xlink:href="" xlink:show="new" xlink:title="" xlink:type="simple">
      <line style="stroke:#181818;stroke-width:1.0;" x1="2082.1108" x2="2129.1108" y1="1524.6197" y2="1524.6197"/>
      <line style="stroke:#181818;stroke-width:1.0;" x1="2129.1108" x2="2129.1108" y1="1524.6197" y2="1537.6197"/>
      <line style="stroke:#181818;stroke-width:1.0;" x1="2088.1108" x2="2129.1108" y1="1537.6197" y2="1537.6197"/>
      <polygon fill="#181818" points="2098.1108,1533.6197,2088.1108,1537.6197,2098.1108,1541.6197,2094.1108,1537.6197" style="stroke:#181818;stroke-width:1.0;"/>
      <text fill="#000000" font-family="sans-serif" font-size="13" lengthAdjust="spacing" textLength="224.5752" x="2094.1108" y="1518.8107">generate_plantuml_directives() const</text>
    </a>
    <polygon fill="#FEFFDD" points="2071,1555.6197,2082,1555.6197,2092,1567.6197,2082,1580.6197,2071,1580.6197,2061,1567.6197,2071,1555.6197" style="stroke:#181818;stroke-width:0.5;"/>
    <text fill="#000000" font-family="sans-serif" font-size="13" lengthAdjust="spacing" textLength="7.163" x="2073" y="1573.5167">*</text>
    <a href="" target="_top" title="" xlink:actuate="onRequest" xlink:href="" xlink:show="new" xlink:title="" xlink:type="simple">
      <line style="stroke:#181818;stroke-width:1.0;" x1="2082.1108" x2="2129.1108" y1="1632.0317" y2="1632.0317"/>
      <line style="stroke:#181818;stroke-width:1.0;" x1="2129.1108" x2="2129.1108" y1="1632.0317" y2="1645.0317"/>
      <line style="stroke:#181818;stroke-width:1.0;" x1="2088.1108" x2="2129.1108" y1="1645.0317" y2="1645.0317"/>
      <polygon fill="#181818" points="2098.1108,1641.0317,2088.1108,1645.0317,2098.1108,1649.0317,2094.1108,1645.0317" style="stroke:#181818;stroke-width:1.0;"/>
      <text fill="#000000" font-family="sans-serif" font-size="13" lengthAdjust="spacing" textLength="164.1381" x="2094.1108" y="1626.2227">generate_metadata() const</text>
    </a>
    <a href="" target="_top" title="" xlink:actuate="onRequest" xlink:href="" xlink:show="new" xlink:title="" xlink:type="simple">
      <polygon fill="#181818" points="2759.1883,1677.7377,2769.1883,1681.7377,2759.1883,1685.7377,2763.1883,1681.7377" style="stroke:#181818;stroke-width:1.0;"/>
      <line style="stroke:#181818;stroke-width:1.0;" x1="2087.1108" x2="2765.1883" y1="1681.7377" y2="1681.7377"/>
      <text fill="#000000" font-family="sans-serif" font-size="13" lengthAdjust="spacing" textLength="82.1991" x="2094.1108" y="1675.9287">config() const</text>
    </a>
    <polygon fill="#181818" points="2088.1108,1691.7377,2078.1108,1695.7377,2088.1108,1699.7377,2084.1108,1695.7377" style="stroke:#181818;stroke-width:1.0;"/>
    <line style="stroke:#181818;stroke-width:1.0;stroke-dasharray:2.0,2.0;" x1="2082.1108" x2="2775.1883" y1="1695.7377" y2="1695.7377"/>
    <polygon fill="#181818" points="195.9595,1705.7377,185.9595,1709.7377,195.9595,1713.7377,191.9595,1709.7377" style="stroke:#181818;stroke-width:1.0;"/>
    <line style="stroke:#181818;stroke-width:1.0;stroke-dasharray:2.0,2.0;" x1="189.9595" x2="1543.5277" y1="1709.7377" y2="1709.7377"/>
    <line style="stroke:#000000;stroke-width:1.0;stroke-dasharray:2.0,2.0;" x1="30" x2="3144.067" y1="1718.7377" y2="1718.7377"/>
    <text fill="#000000" font-family="sans-serif" font-size="11" font-weight="bold" lengthAdjust="spacing" textLength="232.8573" x="35" y="1730.4967">[generator_type == generator_type_t::json]</text>
    <line style="stroke:#000000;stroke-width:1.0;stroke-dasharray:2.0,2.0;" x1="30" x2="3144.067" y1="1735.7196" y2="1735.7196"/>
    <text fill="#000000" font-family="sans-serif" font-size="11" font-weight="bold" lengthAdjust="spacing" textLength="260.0601" x="35" y="1747.4785">[generator_type == generator_type_t::mermaid]</text>
    <line style="stroke:#000000;stroke-width:1.0;stroke-dasharray:2.0,2.0;" x1="30" x2="3144.067" y1="1752.7015" y2="1752.7015"/>
    <text fill="#000000" font-family="sans-serif" font-size="11" font-weight="bold" lengthAdjust="spacing" textLength="256.9471" x="35" y="1764.4604">[generator_type == generator_type_t::graphml]</text>
    <a href="" target="_top" title="" xlink:actuate="onRequest" xlink:href="" xlink:show="new" xlink:title="" xlink:type="simple">
      <line style="stroke:#181818;stroke-width:1.0;" x1="189.9595" x2="231.9595" y1="1792.3894" y2="1792.3894"/>
      <line style="stroke:#181818;stroke-width:1.0;" x1="231.9595" x2="231.9595" y1="1792.3894" y2="1805.3894"/>
      <line style="stroke:#181818;stroke-width:1.0;" x1="190.9595" x2="231.9595" y1="1805.3894" y2="1805.3894"/>
      <polygon fill="#181818" points="200.9595,1801.3894,190.9595,1805.3894,200.9595,1809.3894,196.9595,1805.3894" style="stroke:#181818;stroke-width:1.0;"/>
      <text fill="#000000" font-family="sans-serif" font-size="13" lengthAdjust="spacing" textLength="1018.9014" x="196.9595" y="1786.5804">generate_diagram_select_generator&lt;config::sequence_diagram,common::generators::graphml_generator_tag,std::unique_ptr&lt;sequence_diagram::model::diagram&gt;&gt;()</text>
    </a>
    <path d="M72,1855.3894 L72,1935.3894 L276,1935.3894 L276,1865.3894 L266,1855.3894 L72,1855.3894 " fill="#FEFFDD" style="stroke:#181818;stroke-width:0.5;"/>
    <path d="M266,1855.3894 L266,1865.3894 L276,1865.3894 L266,1855.3894 " fill="#FEFFDD" style="stroke:#181818;stroke-width:0.5;"/>
    <text fill="#000000" font-family="sans-serif" font-size="13" lengthAdjust="spacing" textLength="182.0522" x="78" y="1874.2864">Convert plantuml or mermaid</text>
    <text fill="#000000" font-family="sans-serif" font-size="13" lengthAdjust="spacing" textLength="174.9152" x="78" y="1891.9924">to an image using command</text>
    <text fill="#000000" font-family="sans-serif" font-size="13" lengthAdjust="spacing" textLength="183.2872" x="78" y="1909.6985">provided in the command line</text>
    <text fill="#000000" font-family="sans-serif" font-size="13" lengthAdjust="spacing" textLength="67.1321" x="78" y="1927.4045">arguments</text>
    <path d="M30,1948.2135 L92.459,1948.2135 L92.459,1957.9195 L82.459,1967.9195 L30,1967.9195 L30,1948.2135 " fill="#EEEEEE" style="stroke:#000000;stroke-width:1.5;"/>
    <rect fill="none" height="94.412" style="stroke:#000000;stroke-width:1.5;" width="300.4166" x="30" y="1948.2135"/>
    <text fill="#000000" font-family="sans-serif" font-size="13" font-weight="bold" lengthAdjust="spacing" textLength="17.459" x="45" y="1963.1105">alt</text>
    <text fill="#000000" font-family="sans-serif" font-size="11" font-weight="bold" lengthAdjust="spacing" textLength="187.6146" x="107.459" y="1961.9724">[runtime_config.render_diagrams]</text>
    <a href="" target="_top" title="" xlink:actuate="onRequest" xlink:href="" xlink:show="new" xlink:title="" xlink:type="simple">
      <line style="stroke:#181818;stroke-width:1.0;" x1="189.9595" x2="231.9595" y1="1991.6255" y2="1991.6255"/>
      <line style="stroke:#181818;stroke-width:1.0;" x1="231.9595" x2="231.9595" y1="1991.6255" y2="2004.6255"/>
      <line style="stroke:#181818;stroke-width:1.0;" x1="190.9595" x2="231.9595" y1="2004.6255" y2="2004.6255"/>
      <polygon fill="#181818" points="200.9595,2000.6255,190.9595,2004.6255,200.9595,2008.6255,196.9595,2004.6255" style="stroke:#181818;stroke-width:1.0;"/>
      <text fill="#000000" font-family="sans-serif" font-size="13" lengthAdjust="spacing" textLength="106.4571" x="196.9595" y="1985.8165">render_diagram()</text>
    </a>
    <line style="stroke:#000000;stroke-width:1.0;stroke-dasharray:2.0,2.0;" x1="10" x2="3164.067" y1="2057.6255" y2="2057.6255"/>
    <text fill="#000000" font-family="sans-serif" font-size="11" font-weight="bold" lengthAdjust="spacing" textLength="228.6223" x="15" y="2069.3844">[diagram-&gt;type() == diagram_t::kPackage]</text>
    <line style="stroke:#000000;stroke-width:1.0;stroke-dasharray:2.0,2.0;" x1="10" x2="3164.067" y1="2074.6074" y2="2074.6074"/>
    <text fill="#000000" font-family="sans-serif" font-size="11" font-weight="bold" lengthAdjust="spacing" textLength="223.6944" x="15" y="2086.3663">[diagram-&gt;type() == diagram_t::kInclude]</text>
  </g>
</svg>
