<svg xmlns="http://www.w3.org/2000/svg" xmlns:xlink="http://www.w3.org/1999/xlink" contentStyleType="text/css" height="1870px" preserveAspectRatio="none" style="width:3161px;height:1870px;background:#FFFFFF;" version="1.1" viewBox="0 0 3161 1870" width="3161px" zoomAndPan="magnify">
  <title>PlantUML sequence diagram generator sequence diagram</title>
  <defs>
    <style type="text/css">a:hover { text-decoration: underline; }</style>
  </defs>
  <g>
    <text fill="#000000" font-family="sans-serif" font-size="14" font-weight="bold" lengthAdjust="spacing" textLength="407.6925" x="1377.6873" y="29.9659">PlantUML sequence diagram generator sequence diagram</text>
    <rect fill="#FFFFFF" height="1709.6475" style="stroke:#181818;stroke-width:1.0;" width="10" x="169.9595" y="112.8419"/>
    <rect fill="#FFFFFF" height="1585.2898" style="stroke:#181818;stroke-width:1.0;" width="10" x="174.9595" y="196.2358"/>
    <rect fill="#FFFFFF" height="1186.2659" style="stroke:#181818;stroke-width:1.0;" width="10" x="179.9595" y="340.0598"/>
    <rect fill="#FFFFFF" height="28" style="stroke:#181818;stroke-width:1.0;" width="10" x="179.9595" y="1724.5256"/>
    <rect fill="#FFFFFF" height="14" style="stroke:#181818;stroke-width:1.0;" width="10" x="1235.5778" y="232.9418"/>
    <rect fill="#FFFFFF" height="1149.5599" style="stroke:#181818;stroke-width:1.0;" width="10" x="1539.5277" y="376.7659"/>
    <rect fill="#FFFFFF" height="1103.8538" style="stroke:#181818;stroke-width:1.0;" width="10" x="2072.1108" y="408.4719"/>
    <rect fill="#FFFFFF" height="50.706" style="stroke:#181818;stroke-width:1.0;" width="10" x="2077.1108" y="643.002"/>
    <rect fill="#FFFFFF" height="403.5576" style="stroke:#181818;stroke-width:1.0;" width="10" x="2077.1108" y="788.826"/>
    <rect fill="#FFFFFF" height="28" style="stroke:#181818;stroke-width:1.0;" width="10" x="2077.1108" y="1224.0896"/>
    <rect fill="#FFFFFF" height="60.706" style="stroke:#181818;stroke-width:1.0;" width="10" x="2077.1108" y="1354.2077"/>
    <rect fill="#FFFFFF" height="50.706" style="stroke:#181818;stroke-width:1.0;" width="10" x="2077.1108" y="1461.6197"/>
    <rect fill="#FFFFFF" height="14" style="stroke:#181818;stroke-width:1.0;" width="10" x="2771.1883" y="440.1779"/>
    <rect fill="#FFFFFF" height="14" style="stroke:#181818;stroke-width:1.0;" width="10" x="2771.1883" y="485.8839"/>
    <rect fill="#FFFFFF" height="64.706" style="stroke:#181818;stroke-width:1.0;" width="10" x="2771.1883" y="531.5899"/>
    <rect fill="#FFFFFF" height="25" style="stroke:#181818;stroke-width:1.0;" width="10" x="2776.1883" y="571.2959"/>
    <rect fill="#FFFFFF" height="14" style="stroke:#181818;stroke-width:1.0;" width="10" x="2771.1883" y="679.708"/>
    <rect fill="#FFFFFF" height="14" style="stroke:#181818;stroke-width:1.0;" width="10" x="2771.1883" y="825.532"/>
    <rect fill="#FFFFFF" height="14" style="stroke:#181818;stroke-width:1.0;" width="10" x="2771.1883" y="871.2381"/>
    <rect fill="#FFFFFF" height="14" style="stroke:#181818;stroke-width:1.0;" width="10" x="2771.1883" y="1025.7681"/>
    <rect fill="#FFFFFF" height="14" style="stroke:#181818;stroke-width:1.0;" width="10" x="2771.1883" y="1071.4742"/>
    <rect fill="#FFFFFF" height="14" style="stroke:#181818;stroke-width:1.0;" width="10" x="2771.1883" y="1498.3257"/>
    <rect fill="none" height="1687.6475" style="stroke:#000000;stroke-width:1.5;" width="3144.067" x="10" y="127.8419"/>
    <rect fill="none" height="1512.5838" style="stroke:#000000;stroke-width:1.5;" width="3124.067" x="20" y="261.9418"/>
    <rect fill="none" height="1279.6417" style="stroke:#000000;stroke-width:1.5;" width="3104.067" x="30" y="288.6478"/>
    <rect fill="none" height="285.1455" style="stroke:#000000;stroke-width:1.5;" width="1428.1549" x="1695.9121" y="900.2381"/>
    <rect fill="none" height="251.4395" style="stroke:#000000;stroke-width:1.5;" width="1408.1549" x="1705.9121" y="926.9441"/>
    <rect fill="none" height="94.412" style="stroke:#000000;stroke-width:1.5;" width="300.4166" x="30" y="1673.1135"/>
    <line style="stroke:#181818;stroke-width:0.5;stroke-dasharray:5.0,5.0;" x1="174" x2="174" y1="79.1358" y2="1832.4894"/>
    <line style="stroke:#181818;stroke-width:0.5;stroke-dasharray:5.0,5.0;" x1="1240.0123" x2="1240.0123" y1="79.1358" y2="1832.4894"/>
    <line style="stroke:#181818;stroke-width:0.5;stroke-dasharray:5.0,5.0;" x1="1544.1433" x2="1544.1433" y1="79.1358" y2="1832.4894"/>
    <line style="stroke:#181818;stroke-width:0.5;stroke-dasharray:5.0,5.0;" x1="2076.9121" x2="2076.9121" y1="79.1358" y2="1832.4894"/>
    <line style="stroke:#181818;stroke-width:0.5;stroke-dasharray:5.0,5.0;" x1="2775.3095" x2="2775.3095" y1="79.1358" y2="1832.4894"/>
    <rect fill="#E2E2F0" height="33.0679" rx="2.5" ry="2.5" style="stroke:#181818;stroke-width:0.5;" width="269.919" x="40" y="45.0679"/>
    <text fill="#000000" font-family="sans-serif" font-size="14" lengthAdjust="spacing" textLength="255.919" x="47" y="67.0339">src/common/generators/generators.cc</text>
    <rect fill="#E2E2F0" height="33.0679" rx="2.5" ry="2.5" style="stroke:#181818;stroke-width:0.5;" width="269.919" x="40" y="1831.4894"/>
    <text fill="#000000" font-family="sans-serif" font-size="14" lengthAdjust="spacing" textLength="255.919" x="47" y="1853.4553">src/common/generators/generators.cc</text>
    <rect fill="#E2E2F0" height="33.0679" rx="2.5" ry="2.5" style="stroke:#181818;stroke-width:0.5;" width="265.1311" x="1108.0123" y="45.0679"/>
    <text fill="#000000" font-family="sans-serif" font-size="14" lengthAdjust="spacing" textLength="251.1311" x="1115.0123" y="67.0339">src/common/generators/generators.h</text>
    <rect fill="#E2E2F0" height="33.0679" rx="2.5" ry="2.5" style="stroke:#181818;stroke-width:0.5;" width="265.1311" x="1108.0123" y="1831.4894"/>
    <text fill="#000000" font-family="sans-serif" font-size="14" lengthAdjust="spacing" textLength="251.1311" x="1115.0123" y="1853.4553">src/common/generators/generators.h</text>
    <rect fill="#E2E2F0" height="33.0679" rx="2.5" ry="2.5" style="stroke:#181818;stroke-width:0.5;" width="322.7688" x="1383.1433" y="45.0679"/>
    <text fill="#000000" font-family="sans-serif" font-size="14" lengthAdjust="spacing" textLength="308.7688" x="1390.1433" y="67.0339">src/common/generators/plantuml/generator.h</text>
    <rect fill="#E2E2F0" height="33.0679" rx="2.5" ry="2.5" style="stroke:#181818;stroke-width:0.5;" width="322.7688" x="1383.1433" y="1831.4894"/>
    <text fill="#000000" font-family="sans-serif" font-size="14" lengthAdjust="spacing" textLength="308.7688" x="1390.1433" y="1853.4553">src/common/generators/plantuml/generator.h</text>
    <a href="" target="_top" title="generator" xlink:actuate="onRequest" xlink:href="" xlink:show="new" xlink:title="generator" xlink:type="simple">
      <rect fill="#E2E2F0" height="33.0679" rx="2.5" ry="2.5" style="stroke:#181818;stroke-width:0.5;" width="722.3973" x="1715.9121" y="45.0679"/>
      <text fill="#000000" font-family="sans-serif" font-size="14" lengthAdjust="spacing" textLength="708.3973" x="1722.9121" y="67.0339">common::generators::plantuml::generator&lt;config::sequence_diagram,sequence_diagram::model::diagram&gt;</text>
      <rect fill="#E2E2F0" height="33.0679" rx="2.5" ry="2.5" style="stroke:#181818;stroke-width:0.5;" width="722.3973" x="1715.9121" y="1831.4894"/>
      <text fill="#000000" font-family="sans-serif" font-size="14" lengthAdjust="spacing" textLength="708.3973" x="1722.9121" y="1853.4553">common::generators::plantuml::generator&lt;config::sequence_diagram,sequence_diagram::model::diagram&gt;</text>
    </a>
    <a href="" target="_top" title="generator" xlink:actuate="onRequest" xlink:href="" xlink:show="new" xlink:title="generator" xlink:type="simple">
      <rect fill="#E2E2F0" height="33.0679" rx="2.5" ry="2.5" style="stroke:#181818;stroke-width:0.5;" width="655.7576" x="2448.3095" y="45.0679"/>
      <text fill="#000000" font-family="sans-serif" font-size="14" lengthAdjust="spacing" textLength="641.7576" x="2455.3095" y="67.0339">common::generators::generator&lt;config::sequence_diagram,sequence_diagram::model::diagram&gt;</text>
      <rect fill="#E2E2F0" height="33.0679" rx="2.5" ry="2.5" style="stroke:#181818;stroke-width:0.5;" width="655.7576" x="2448.3095" y="1831.4894"/>
      <text fill="#000000" font-family="sans-serif" font-size="14" lengthAdjust="spacing" textLength="641.7576" x="2455.3095" y="1853.4553">common::generators::generator&lt;config::sequence_diagram,sequence_diagram::model::diagram&gt;</text>
    </a>
    <rect fill="#FFFFFF" height="1709.6475" style="stroke:#181818;stroke-width:1.0;" width="10" x="169.9595" y="112.8419"/>
    <rect fill="#FFFFFF" height="1585.2898" style="stroke:#181818;stroke-width:1.0;" width="10" x="174.9595" y="196.2358"/>
    <rect fill="#FFFFFF" height="1186.2659" style="stroke:#181818;stroke-width:1.0;" width="10" x="179.9595" y="340.0598"/>
    <rect fill="#FFFFFF" height="28" style="stroke:#181818;stroke-width:1.0;" width="10" x="179.9595" y="1724.5256"/>
    <rect fill="#FFFFFF" height="14" style="stroke:#181818;stroke-width:1.0;" width="10" x="1235.5778" y="232.9418"/>
    <rect fill="#FFFFFF" height="1149.5599" style="stroke:#181818;stroke-width:1.0;" width="10" x="1539.5277" y="376.7659"/>
    <rect fill="#FFFFFF" height="1103.8538" style="stroke:#181818;stroke-width:1.0;" width="10" x="2072.1108" y="408.4719"/>
    <rect fill="#FFFFFF" height="50.706" style="stroke:#181818;stroke-width:1.0;" width="10" x="2077.1108" y="643.002"/>
    <rect fill="#FFFFFF" height="403.5576" style="stroke:#181818;stroke-width:1.0;" width="10" x="2077.1108" y="788.826"/>
    <rect fill="#FFFFFF" height="28" style="stroke:#181818;stroke-width:1.0;" width="10" x="2077.1108" y="1224.0896"/>
    <rect fill="#FFFFFF" height="60.706" style="stroke:#181818;stroke-width:1.0;" width="10" x="2077.1108" y="1354.2077"/>
    <rect fill="#FFFFFF" height="50.706" style="stroke:#181818;stroke-width:1.0;" width="10" x="2077.1108" y="1461.6197"/>
    <rect fill="#FFFFFF" height="14" style="stroke:#181818;stroke-width:1.0;" width="10" x="2771.1883" y="440.1779"/>
    <rect fill="#FFFFFF" height="14" style="stroke:#181818;stroke-width:1.0;" width="10" x="2771.1883" y="485.8839"/>
    <rect fill="#FFFFFF" height="64.706" style="stroke:#181818;stroke-width:1.0;" width="10" x="2771.1883" y="531.5899"/>
    <rect fill="#FFFFFF" height="25" style="stroke:#181818;stroke-width:1.0;" width="10" x="2776.1883" y="571.2959"/>
    <rect fill="#FFFFFF" height="14" style="stroke:#181818;stroke-width:1.0;" width="10" x="2771.1883" y="679.708"/>
    <rect fill="#FFFFFF" height="14" style="stroke:#181818;stroke-width:1.0;" width="10" x="2771.1883" y="825.532"/>
    <rect fill="#FFFFFF" height="14" style="stroke:#181818;stroke-width:1.0;" width="10" x="2771.1883" y="871.2381"/>
    <rect fill="#FFFFFF" height="14" style="stroke:#181818;stroke-width:1.0;" width="10" x="2771.1883" y="1025.7681"/>
    <rect fill="#FFFFFF" height="14" style="stroke:#181818;stroke-width:1.0;" width="10" x="2771.1883" y="1071.4742"/>
    <rect fill="#FFFFFF" height="14" style="stroke:#181818;stroke-width:1.0;" width="10" x="2771.1883" y="1498.3257"/>
    <polygon fill="#181818" points="157.9595,108.8419,167.9595,112.8419,157.9595,116.8419,161.9595,112.8419" style="stroke:#181818;stroke-width:1.0;"/>
    <line style="stroke:#181818;stroke-width:1.0;" x1="0" x2="163.9595" y1="112.8419" y2="112.8419"/>
    <text fill="#000000" font-family="sans-serif" font-size="13" lengthAdjust="spacing" textLength="120.4061" x="7" y="107.0328">generate_diagram()</text>
    <path d="M10,127.8419 L72.459,127.8419 L72.459,137.5479 L62.459,147.5479 L10,147.5479 L10,127.8419 " fill="#EEEEEE" style="stroke:#000000;stroke-width:1.5;"/>
    <rect fill="none" height="1687.6475" style="stroke:#000000;stroke-width:1.5;" width="3144.067" x="10" y="127.8419"/>
    <text fill="#000000" font-family="sans-serif" font-size="13" font-weight="bold" lengthAdjust="spacing" textLength="17.459" x="25" y="142.7389">alt</text>
    <text fill="#000000" font-family="sans-serif" font-size="11" font-weight="bold" lengthAdjust="spacing" textLength="210.4285" x="87.459" y="141.6008">[diagram-&gt;type() == diagram_t::kClass]</text>
    <line style="stroke:#000000;stroke-width:1.0;stroke-dasharray:2.0,2.0;" x1="10" x2="3154.067" y1="148.5479" y2="148.5479"/>
    <text fill="#000000" font-family="sans-serif" font-size="11" font-weight="bold" lengthAdjust="spacing" textLength="235.1233" x="15" y="160.3068">[diagram-&gt;type() == diagram_t::kSequence]</text>
    <a href="" target="_top" title="" xlink:actuate="onRequest" xlink:href="" xlink:show="new" xlink:title="" xlink:type="simple">
      <line style="stroke:#181818;stroke-width:1.0;" x1="179.9595" x2="226.9595" y1="183.2358" y2="183.2358"/>
      <line style="stroke:#181818;stroke-width:1.0;" x1="226.9595" x2="226.9595" y1="183.2358" y2="196.2358"/>
      <line style="stroke:#181818;stroke-width:1.0;" x1="185.9595" x2="226.9595" y1="196.2358" y2="196.2358"/>
      <polygon fill="#181818" points="195.9595,192.2358,185.9595,196.2358,195.9595,200.2358,191.9595,196.2358" style="stroke:#181818;stroke-width:1.0;"/>
      <text fill="#000000" font-family="sans-serif" font-size="13" lengthAdjust="spacing" textLength="328.5883" x="191.9595" y="177.4268">generate_diagram_impl&lt;config::sequence_diagram&gt;()</text>
    </a>
    <a href="" target="_top" title="" xlink:actuate="onRequest" xlink:href="" xlink:show="new" xlink:title="" xlink:type="simple">
      <polygon fill="#181818" points="1223.5778,228.9418,1233.5778,232.9418,1223.5778,236.9418,1227.5778,232.9418" style="stroke:#181818;stroke-width:1.0;"/>
      <line style="stroke:#181818;stroke-width:1.0;" x1="184.9595" x2="1229.5778" y1="232.9418" y2="232.9418"/>
      <text fill="#000000" font-family="sans-serif" font-size="13" lengthAdjust="spacing" textLength="772.0314" x="191.9595" y="227.1328">generate&lt;sequence_diagram::model::diagram,config::sequence_diagram,sequence_diagram::visitor::translation_unit_visitor&gt;()</text>
    </a>
    <polygon fill="#181818" points="195.9595,242.9418,185.9595,246.9418,195.9595,250.9418,191.9595,246.9418" style="stroke:#181818;stroke-width:1.0;"/>
    <line style="stroke:#181818;stroke-width:1.0;stroke-dasharray:2.0,2.0;" x1="189.9595" x2="1239.5778" y1="246.9418" y2="246.9418"/>
    <path d="M20,261.9418 L93.288,261.9418 L93.288,271.6478 L83.288,281.6478 L20,281.6478 L20,261.9418 " fill="#EEEEEE" style="stroke:#000000;stroke-width:1.5;"/>
    <rect fill="none" height="1512.5838" style="stroke:#000000;stroke-width:1.5;" width="3124.067" x="20" y="261.9418"/>
    <text fill="#000000" font-family="sans-serif" font-size="13" font-weight="bold" lengthAdjust="spacing" textLength="28.288" x="35" y="276.8388">loop</text>
    <text fill="#000000" font-family="sans-serif" font-size="11" font-weight="bold" lengthAdjust="spacing" textLength="90.9473" x="108.288" y="275.7007">[runtime_config]</text>
    <path d="M30,288.6478 L92.459,288.6478 L92.459,298.3538 L82.459,308.3538 L30,308.3538 L30,288.6478 " fill="#EEEEEE" style="stroke:#000000;stroke-width:1.5;"/>
    <rect fill="none" height="1279.6417" style="stroke:#000000;stroke-width:1.5;" width="3104.067" x="30" y="288.6478"/>
    <text fill="#000000" font-family="sans-serif" font-size="13" font-weight="bold" lengthAdjust="spacing" textLength="17.459" x="45" y="303.5448">alt</text>
    <text fill="#000000" font-family="sans-serif" font-size="11" font-weight="bold" lengthAdjust="spacing" textLength="260.3461" x="107.459" y="302.4067">[generator_type == generator_type_t::plantuml]</text>
    <a href="" target="_top" title="" xlink:actuate="onRequest" xlink:href="" xlink:show="new" xlink:title="" xlink:type="simple">
      <line style="stroke:#181818;stroke-width:1.0;" x1="184.9595" x2="231.9595" y1="327.0598" y2="327.0598"/>
      <line style="stroke:#181818;stroke-width:1.0;" x1="231.9595" x2="231.9595" y1="327.0598" y2="340.0598"/>
      <line style="stroke:#181818;stroke-width:1.0;" x1="190.9595" x2="231.9595" y1="340.0598" y2="340.0598"/>
      <polygon fill="#181818" points="200.9595,336.0598,190.9595,340.0598,200.9595,344.0598,196.9595,340.0598" style="stroke:#181818;stroke-width:1.0;"/>
      <text fill="#000000" font-family="sans-serif" font-size="13" lengthAdjust="spacing" textLength="1021.6183" x="196.9595" y="321.2508">generate_diagram_select_generator&lt;config::sequence_diagram,common::generators::plantuml_generator_tag,std::unique_ptr&lt;sequence_diagram::model::diagram&gt;&gt;()</text>
    </a>
    <a href="" target="_top" title="" xlink:actuate="onRequest" xlink:href="" xlink:show="new" xlink:title="" xlink:type="simple">
      <polygon fill="#181818" points="1527.5277,372.7659,1537.5277,376.7659,1527.5277,380.7659,1531.5277,376.7659" style="stroke:#181818;stroke-width:1.0;"/>
      <line style="stroke:#181818;stroke-width:1.0;" x1="189.9595" x2="1533.5277" y1="376.7659" y2="376.7659"/>
      <text fill="#000000" font-family="sans-serif" font-size="13" lengthAdjust="spacing" textLength="475.3325" x="196.9595" y="370.9569">operator&lt;&lt;&lt;config::sequence_diagram,sequence_diagram::model::diagram&gt;()</text>
    </a>
    <a href="" target="_top" title="" xlink:actuate="onRequest" xlink:href="" xlink:show="new" xlink:title="" xlink:type="simple">
      <polygon fill="#181818" points="2060.1108,404.4719,2070.1108,408.4719,2060.1108,412.4719,2064.1108,408.4719" style="stroke:#181818;stroke-width:1.0;"/>
      <line style="stroke:#181818;stroke-width:1.0;" x1="1549.5277" x2="2066.1108" y1="408.4719" y2="408.4719"/>
      <text fill="#000000" font-family="sans-serif" font-size="13" lengthAdjust="spacing" textLength="99.6191" x="1556.5277" y="402.6629">generate() const</text>
    </a>
    <a href="" target="_top" title="" xlink:actuate="onRequest" xlink:href="" xlink:show="new" xlink:title="" xlink:type="simple">
      <polygon fill="#181818" points="2759.1883,436.1779,2769.1883,440.1779,2759.1883,444.1779,2763.1883,440.1779" style="stroke:#181818;stroke-width:1.0;"/>
      <line style="stroke:#181818;stroke-width:1.0;" x1="2082.1108" x2="2765.1883" y1="440.1779" y2="440.1779"/>
      <text fill="#000000" font-family="sans-serif" font-size="13" lengthAdjust="spacing" textLength="82.1991" x="2089.1108" y="434.3689">config() const</text>
    </a>
    <polygon fill="#181818" points="2093.1108,450.1779,2083.1108,454.1779,2093.1108,458.1779,2089.1108,454.1779" style="stroke:#181818;stroke-width:1.0;"/>
    <line style="stroke:#181818;stroke-width:1.0;stroke-dasharray:2.0,2.0;" x1="2087.1108" x2="2775.1883" y1="454.1779" y2="454.1779"/>
    <a href="" target="_top" title="" xlink:actuate="onRequest" xlink:href="" xlink:show="new" xlink:title="" xlink:type="simple">
      <polygon fill="#181818" points="2759.1883,481.8839,2769.1883,485.8839,2759.1883,489.8839,2763.1883,485.8839" style="stroke:#181818;stroke-width:1.0;"/>
      <line style="stroke:#181818;stroke-width:1.0;" x1="2082.1108" x2="2765.1883" y1="485.8839" y2="485.8839"/>
      <text fill="#000000" font-family="sans-serif" font-size="13" lengthAdjust="spacing" textLength="82.9401" x="2089.1108" y="480.0749">model() const</text>
    </a>
    <polygon fill="#181818" points="2093.1108,495.8839,2083.1108,499.8839,2093.1108,503.8839,2089.1108,499.8839" style="stroke:#181818;stroke-width:1.0;"/>
    <line style="stroke:#181818;stroke-width:1.0;stroke-dasharray:2.0,2.0;" x1="2087.1108" x2="2775.1883" y1="499.8839" y2="499.8839"/>
    <a href="" target="_top" title="" xlink:actuate="onRequest" xlink:href="" xlink:show="new" xlink:title="" xlink:type="simple">
      <polygon fill="#181818" points="2759.1883,527.5899,2769.1883,531.5899,2759.1883,535.5899,2763.1883,531.5899" style="stroke:#181818;stroke-width:1.0;"/>
      <line style="stroke:#181818;stroke-width:1.0;" x1="2082.1108" x2="2765.1883" y1="531.5899" y2="531.5899"/>
      <text fill="#000000" font-family="sans-serif" font-size="13" lengthAdjust="spacing" textLength="139.0871" x="2089.1108" y="525.7809">update_context() const</text>
    </a>
    <a href="" target="_top" title="" xlink:actuate="onRequest" xlink:href="" xlink:show="new" xlink:title="" xlink:type="simple">
      <line style="stroke:#181818;stroke-width:1.0;" x1="2781.1883" x2="2828.1883" y1="558.2959" y2="558.2959"/>
      <line style="stroke:#181818;stroke-width:1.0;" x1="2828.1883" x2="2828.1883" y1="558.2959" y2="571.2959"/>
      <line style="stroke:#181818;stroke-width:1.0;" x1="2787.1883" x2="2828.1883" y1="571.2959" y2="571.2959"/>
      <polygon fill="#181818" points="2797.1883,567.2959,2787.1883,571.2959,2797.1883,575.2959,2793.1883,571.2959" style="stroke:#181818;stroke-width:1.0;"/>
      <text fill="#000000" font-family="sans-serif" font-size="13" lengthAdjust="spacing" textLength="82.9401" x="2793.1883" y="552.4869">model() const</text>
    </a>
    <line style="stroke:#181818;stroke-width:1.0;stroke-dasharray:2.0,2.0;" x1="2786.1883" x2="2828.1883" y1="595.2959" y2="595.2959"/>
    <line style="stroke:#181818;stroke-width:1.0;stroke-dasharray:2.0,2.0;" x1="2828.1883" x2="2828.1883" y1="595.2959" y2="608.2959"/>
    <line style="stroke:#181818;stroke-width:1.0;stroke-dasharray:2.0,2.0;" x1="2781.1883" x2="2828.1883" y1="608.2959" y2="608.2959"/>
    <polygon fill="#181818" points="2791.1883,604.2959,2781.1883,608.2959,2791.1883,612.2959,2787.1883,608.2959" style="stroke:#181818;stroke-width:1.0;"/>
    <a href="" target="_top" title="" xlink:actuate="onRequest" xlink:href="" xlink:show="new" xlink:title="" xlink:type="simple">
      <line style="stroke:#181818;stroke-width:1.0;" x1="2082.1108" x2="2129.1108" y1="630.002" y2="630.002"/>
      <line style="stroke:#181818;stroke-width:1.0;" x1="2129.1108" x2="2129.1108" y1="630.002" y2="643.002"/>
      <line style="stroke:#181818;stroke-width:1.0;" x1="2088.1108" x2="2129.1108" y1="643.002" y2="643.002"/>
      <polygon fill="#181818" points="2098.1108,639.002,2088.1108,643.002,2098.1108,647.002,2094.1108,643.002" style="stroke:#181818;stroke-width:1.0;"/>
      <text fill="#000000" font-family="sans-serif" font-size="13" lengthAdjust="spacing" textLength="128.8171" x="2094.1108" y="624.1929">generate_title() const</text>
    </a>
    <a href="" target="_top" title="" xlink:actuate="onRequest" xlink:href="" xlink:show="new" xlink:title="" xlink:type="simple">
      <polygon fill="#181818" points="2759.1883,675.708,2769.1883,679.708,2759.1883,683.708,2763.1883,679.708" style="stroke:#181818;stroke-width:1.0;"/>
      <line style="stroke:#181818;stroke-width:1.0;" x1="2087.1108" x2="2765.1883" y1="679.708" y2="679.708"/>
      <text fill="#000000" font-family="sans-serif" font-size="13" lengthAdjust="spacing" textLength="82.1991" x="2094.1108" y="673.899">config() const</text>
    </a>
    <polygon fill="#181818" points="2093.1108,689.708,2083.1108,693.708,2093.1108,697.708,2089.1108,693.708" style="stroke:#181818;stroke-width:1.0;"/>
    <line style="stroke:#181818;stroke-width:1.0;stroke-dasharray:2.0,2.0;" x1="2087.1108" x2="2775.1883" y1="693.708" y2="693.708"/>
    <path d="M1972,706.708 L1972,751.708 L2181,751.708 L2181,716.708 L2171,706.708 L1972,706.708 " fill="#FEFFDD" style="stroke:#181818;stroke-width:0.5;"/>
    <path d="M2171,706.708 L2171,716.708 L2181,716.708 L2171,706.708 " fill="#FEFFDD" style="stroke:#181818;stroke-width:0.5;"/>
    <text fill="#000000" font-family="sans-serif" font-size="13" lengthAdjust="spacing" textLength="181.4541" x="1978" y="725.605">Generate PlantUML directives</text>
    <text fill="#000000" font-family="sans-serif" font-size="13" lengthAdjust="spacing" textLength="188.6562" x="1978" y="743.311">before auto generated content</text>
    <a href="" target="_top" title="" xlink:actuate="onRequest" xlink:href="" xlink:show="new" xlink:title="" xlink:type="simple">
      <line style="stroke:#181818;stroke-width:1.0;" x1="2082.1108" x2="2129.1108" y1="775.826" y2="775.826"/>
      <line style="stroke:#181818;stroke-width:1.0;" x1="2129.1108" x2="2129.1108" y1="775.826" y2="788.826"/>
      <line style="stroke:#181818;stroke-width:1.0;" x1="2088.1108" x2="2129.1108" y1="788.826" y2="788.826"/>
      <polygon fill="#181818" points="2098.1108,784.826,2088.1108,788.826,2098.1108,792.826,2094.1108,788.826" style="stroke:#181818;stroke-width:1.0;"/>
      <text fill="#000000" font-family="sans-serif" font-size="13" lengthAdjust="spacing" textLength="224.5752" x="2094.1108" y="770.017">generate_plantuml_directives() const</text>
    </a>
    <a href="" target="_top" title="" xlink:actuate="onRequest" xlink:href="" xlink:show="new" xlink:title="" xlink:type="simple">
      <polygon fill="#181818" points="2759.1883,821.532,2769.1883,825.532,2759.1883,829.532,2763.1883,825.532" style="stroke:#181818;stroke-width:1.0;"/>
      <line style="stroke:#181818;stroke-width:1.0;" x1="2087.1108" x2="2765.1883" y1="825.532" y2="825.532"/>
      <text fill="#000000" font-family="sans-serif" font-size="13" lengthAdjust="spacing" textLength="82.1991" x="2094.1108" y="819.723">config() const</text>
    </a>
    <polygon fill="#181818" points="2098.1108,835.532,2088.1108,839.532,2098.1108,843.532,2094.1108,839.532" style="stroke:#181818;stroke-width:1.0;"/>
    <line style="stroke:#181818;stroke-width:1.0;stroke-dasharray:2.0,2.0;" x1="2092.1108" x2="2775.1883" y1="839.532" y2="839.532"/>
    <a href="" target="_top" title="" xlink:actuate="onRequest" xlink:href="" xlink:show="new" xlink:title="" xlink:type="simple">
      <polygon fill="#181818" points="2759.1883,867.2381,2769.1883,871.2381,2759.1883,875.2381,2763.1883,871.2381" style="stroke:#181818;stroke-width:1.0;"/>
      <line style="stroke:#181818;stroke-width:1.0;" x1="2087.1108" x2="2765.1883" y1="871.2381" y2="871.2381"/>
      <text fill="#000000" font-family="sans-serif" font-size="13" lengthAdjust="spacing" textLength="82.9401" x="2094.1108" y="865.429">model() const</text>
    </a>
    <polygon fill="#181818" points="2098.1108,881.2381,2088.1108,885.2381,2098.1108,889.2381,2094.1108,885.2381" style="stroke:#181818;stroke-width:1.0;"/>
    <line style="stroke:#181818;stroke-width:1.0;stroke-dasharray:2.0,2.0;" x1="2092.1108" x2="2775.1883" y1="885.2381" y2="885.2381"/>
    <path d="M1695.9121,900.2381 L1769.2002,900.2381 L1769.2002,909.9441 L1759.2002,919.9441 L1695.9121,919.9441 L1695.9121,900.2381 " fill="#EEEEEE" style="stroke:#000000;stroke-width:1.5;"/>
    <rect fill="none" height="285.1455" style="stroke:#000000;stroke-width:1.5;" width="1428.1549" x="1695.9121" y="900.2381"/>
    <text fill="#000000" font-family="sans-serif" font-size="13" font-weight="bold" lengthAdjust="spacing" textLength="28.288" x="1710.9121" y="915.1351">loop</text>
    <text fill="#000000" font-family="sans-serif" font-size="11" font-weight="bold" lengthAdjust="spacing" textLength="61.1046" x="1784.2002" y="913.997">[directives]</text>
    <path d="M1705.9121,926.9441 L1769.8531,926.9441 L1769.8531,936.6501 L1759.8531,946.6501 L1705.9121,946.6501 L1705.9121,926.9441 " fill="#EEEEEE" style="stroke:#000000;stroke-width:1.5;"/>
    <rect fill="none" height="251.4395" style="stroke:#000000;stroke-width:1.5;" width="1408.1549" x="1705.9121" y="926.9441"/>
    <text fill="#000000" font-family="sans-serif" font-size="13" font-weight="bold" lengthAdjust="spacing" textLength="18.941" x="1720.9121" y="941.8411">try</text>
    <path d="M1990,951.6501 L1990,996.6501 L2163,996.6501 L2163,961.6501 L2153,951.6501 L1990,951.6501 " fill="#FEFFDD" style="stroke:#181818;stroke-width:0.5;"/>
    <path d="M2153,951.6501 L2153,961.6501 L2163,961.6501 L2153,951.6501 " fill="#FEFFDD" style="stroke:#181818;stroke-width:0.5;"/>
    <text fill="#000000" font-family="sans-serif" font-size="13" lengthAdjust="spacing" textLength="152.9191" x="1996" y="970.5471">Render the directive with</text>
    <text fill="#000000" font-family="sans-serif" font-size="13" lengthAdjust="spacing" textLength="127.8031" x="1996" y="988.2531">template engine first</text>
    <a href="" target="_top" title="" xlink:actuate="onRequest" xlink:href="" xlink:show="new" xlink:title="" xlink:type="simple">
      <polygon fill="#181818" points="2759.1883,1021.7681,2769.1883,1025.7681,2759.1883,1029.7681,2763.1883,1025.7681" style="stroke:#181818;stroke-width:1.0;"/>
      <line style="stroke:#181818;stroke-width:1.0;" x1="2087.1108" x2="2765.1883" y1="1025.7681" y2="1025.7681"/>
      <text fill="#000000" font-family="sans-serif" font-size="13" lengthAdjust="spacing" textLength="66.2091" x="2094.1108" y="1019.9591">env() const</text>
    </a>
    <polygon fill="#181818" points="2098.1108,1035.7681,2088.1108,1039.7681,2098.1108,1043.7681,2094.1108,1039.7681" style="stroke:#181818;stroke-width:1.0;"/>
    <line style="stroke:#181818;stroke-width:1.0;stroke-dasharray:2.0,2.0;" x1="2092.1108" x2="2775.1883" y1="1039.7681" y2="1039.7681"/>
    <a href="" target="_top" title="" xlink:actuate="onRequest" xlink:href="" xlink:show="new" xlink:title="" xlink:type="simple">
      <polygon fill="#181818" points="2759.1883,1067.4742,2769.1883,1071.4742,2759.1883,1075.4742,2763.1883,1071.4742" style="stroke:#181818;stroke-width:1.0;"/>
      <line style="stroke:#181818;stroke-width:1.0;" x1="2087.1108" x2="2765.1883" y1="1071.4742" y2="1071.4742"/>
      <text fill="#000000" font-family="sans-serif" font-size="13" lengthAdjust="spacing" textLength="89.9731" x="2094.1108" y="1065.6651">context() const</text>
    </a>
    <polygon fill="#181818" points="2098.1108,1081.4742,2088.1108,1085.4742,2098.1108,1089.4742,2094.1108,1085.4742" style="stroke:#181818;stroke-width:1.0;"/>
    <line style="stroke:#181818;stroke-width:1.0;stroke-dasharray:2.0,2.0;" x1="2092.1108" x2="2775.1883" y1="1085.4742" y2="1085.4742"/>
    <line style="stroke:#000000;stroke-width:1.0;stroke-dasharray:2.0,2.0;" x1="1705.9121" x2="3114.067" y1="1094.4742" y2="1094.4742"/>
    <text fill="#000000" font-family="sans-serif" font-size="11" font-weight="bold" lengthAdjust="spacing" textLength="241.7673" x="1710.9121" y="1106.2331">[const clanguml::error::uml_alias_missing &amp;]</text>
    <line style="stroke:#000000;stroke-width:1.0;stroke-dasharray:2.0,2.0;" x1="1705.9121" x2="3114.067" y1="1111.456" y2="1111.456"/>
    <text fill="#000000" font-family="sans-serif" font-size="11" font-weight="bold" lengthAdjust="spacing" textLength="170.5428" x="1710.9121" y="1123.215">[const inja::json::parse_error &amp;]</text>
    <line style="stroke:#000000;stroke-width:1.0;stroke-dasharray:2.0,2.0;" x1="1705.9121" x2="3114.067" y1="1128.4379" y2="1128.4379"/>
    <text fill="#000000" font-family="sans-serif" font-size="11" font-weight="bold" lengthAdjust="spacing" textLength="161.3029" x="1710.9121" y="1140.1968">[const inja::json::exception &amp;]</text>
    <line style="stroke:#000000;stroke-width:1.0;stroke-dasharray:2.0,2.0;" x1="1705.9121" x2="3114.067" y1="1145.4198" y2="1145.4198"/>
    <text fill="#000000" font-family="sans-serif" font-size="11" font-weight="bold" lengthAdjust="spacing" textLength="138.786" x="1710.9121" y="1157.1787">[const std::regex_error &amp;]</text>
    <line style="stroke:#000000;stroke-width:1.0;stroke-dasharray:2.0,2.0;" x1="1705.9121" x2="3114.067" y1="1162.4017" y2="1162.4017"/>
    <text fill="#000000" font-family="sans-serif" font-size="11" font-weight="bold" lengthAdjust="spacing" textLength="128.7981" x="1710.9121" y="1174.1606">[const std::exception &amp;]</text>
    <a href="" target="_top" title="" xlink:actuate="onRequest" xlink:href="" xlink:show="new" xlink:title="" xlink:type="simple">
      <line style="stroke:#181818;stroke-width:1.0;" x1="2087.1108" x2="2129.1108" y1="1216.0896" y2="1216.0896"/>
      <line style="stroke:#181818;stroke-width:1.0;" x1="2129.1108" x2="2129.1108" y1="1216.0896" y2="1229.0896"/>
      <line style="stroke:#181818;stroke-width:1.0;" x1="2088.1108" x2="2129.1108" y1="1229.0896" y2="1229.0896"/>
      <polygon fill="#181818" points="2098.1108,1225.0896,2088.1108,1229.0896,2098.1108,1233.0896,2094.1108,1229.0896" style="stroke:#181818;stroke-width:1.0;"/>
      <text fill="#000000" font-family="sans-serif" font-size="13" lengthAdjust="spacing" textLength="156.8451" x="2094.1108" y="1210.2806">generate_diagram() const</text>
    </a>
    <path d="M1975,1272.0896 L1975,1317.0896 L2177,1317.0896 L2177,1282.0896 L2167,1272.0896 L1975,1272.0896 " fill="#FEFFDD" style="stroke:#181818;stroke-width:0.5;"/>
    <path d="M2167,1272.0896 L2167,1282.0896 L2177,1282.0896 L2167,1272.0896 " fill="#FEFFDD" style="stroke:#181818;stroke-width:0.5;"/>
    <text fill="#000000" font-family="sans-serif" font-size="13" lengthAdjust="spacing" textLength="181.4541" x="1981" y="1290.9866">Generate PlantUML directives</text>
    <text fill="#000000" font-family="sans-serif" font-size="13" lengthAdjust="spacing" textLength="177.4501" x="1981" y="1308.6926">after auto generated content</text>
    <a href="" target="_top" title="" xlink:actuate="onRequest" xlink:href="" xlink:show="new" xlink:title="" xlink:type="simple">
      <line style="stroke:#181818;stroke-width:1.0;" x1="2082.1108" x2="2129.1108" y1="1341.2077" y2="1341.2077"/>
      <line style="stroke:#181818;stroke-width:1.0;" x1="2129.1108" x2="2129.1108" y1="1341.2077" y2="1354.2077"/>
      <line style="stroke:#181818;stroke-width:1.0;" x1="2088.1108" x2="2129.1108" y1="1354.2077" y2="1354.2077"/>
      <polygon fill="#181818" points="2098.1108,1350.2077,2088.1108,1354.2077,2098.1108,1358.2077,2094.1108,1354.2077" style="stroke:#181818;stroke-width:1.0;"/>
      <text fill="#000000" font-family="sans-serif" font-size="13" lengthAdjust="spacing" textLength="224.5752" x="2094.1108" y="1335.3987">generate_plantuml_directives() const</text>
    </a>
    <polygon fill="#FEFFDD" points="2071,1372.2077,2082,1372.2077,2092,1384.2077,2082,1397.2077,2071,1397.2077,2061,1384.2077,2071,1372.2077" style="stroke:#181818;stroke-width:0.5;"/>
    <text fill="#000000" font-family="sans-serif" font-size="13" lengthAdjust="spacing" textLength="7.163" x="2073" y="1390.1047">*</text>
    <a href="" target="_top" title="" xlink:actuate="onRequest" xlink:href="" xlink:show="new" xlink:title="" xlink:type="simple">
      <line style="stroke:#181818;stroke-width:1.0;" x1="2082.1108" x2="2129.1108" y1="1448.6197" y2="1448.6197"/>
      <line style="stroke:#181818;stroke-width:1.0;" x1="2129.1108" x2="2129.1108" y1="1448.6197" y2="1461.6197"/>
      <line style="stroke:#181818;stroke-width:1.0;" x1="2088.1108" x2="2129.1108" y1="1461.6197" y2="1461.6197"/>
      <polygon fill="#181818" points="2098.1108,1457.6197,2088.1108,1461.6197,2098.1108,1465.6197,2094.1108,1461.6197" style="stroke:#181818;stroke-width:1.0;"/>
      <text fill="#000000" font-family="sans-serif" font-size="13" lengthAdjust="spacing" textLength="164.1381" x="2094.1108" y="1442.8107">generate_metadata() const</text>
    </a>
    <a href="" target="_top" title="" xlink:actuate="onRequest" xlink:href="" xlink:show="new" xlink:title="" xlink:type="simple">
      <polygon fill="#181818" points="2759.1883,1494.3257,2769.1883,1498.3257,2759.1883,1502.3257,2763.1883,1498.3257" style="stroke:#181818;stroke-width:1.0;"/>
      <line style="stroke:#181818;stroke-width:1.0;" x1="2087.1108" x2="2765.1883" y1="1498.3257" y2="1498.3257"/>
      <text fill="#000000" font-family="sans-serif" font-size="13" lengthAdjust="spacing" textLength="82.1991" x="2094.1108" y="1492.5167">config() const</text>
    </a>
    <polygon fill="#181818" points="2088.1108,1508.3257,2078.1108,1512.3257,2088.1108,1516.3257,2084.1108,1512.3257" style="stroke:#181818;stroke-width:1.0;"/>
    <line style="stroke:#181818;stroke-width:1.0;stroke-dasharray:2.0,2.0;" x1="2082.1108" x2="2775.1883" y1="1512.3257" y2="1512.3257"/>
    <polygon fill="#181818" points="195.9595,1522.3257,185.9595,1526.3257,195.9595,1530.3257,191.9595,1526.3257" style="stroke:#181818;stroke-width:1.0;"/>
    <line style="stroke:#181818;stroke-width:1.0;stroke-dasharray:2.0,2.0;" x1="189.9595" x2="1543.5277" y1="1526.3257" y2="1526.3257"/>
    <line style="stroke:#000000;stroke-width:1.0;stroke-dasharray:2.0,2.0;" x1="30" x2="3134.067" y1="1535.3257" y2="1535.3257"/>
    <text fill="#000000" font-family="sans-serif" font-size="11" font-weight="bold" lengthAdjust="spacing" textLength="232.8573" x="35" y="1547.0846">[generator_type == generator_type_t::json]</text>
    <line style="stroke:#000000;stroke-width:1.0;stroke-dasharray:2.0,2.0;" x1="30" x2="3134.067" y1="1552.3076" y2="1552.3076"/>
    <text fill="#000000" font-family="sans-serif" font-size="11" font-weight="bold" lengthAdjust="spacing" textLength="260.0601" x="35" y="1564.0665">[generator_type == generator_type_t::mermaid]</text>
    <path d="M72,1580.2895 L72,1660.2895 L276,1660.2895 L276,1590.2895 L266,1580.2895 L72,1580.2895 " fill="#FEFFDD" style="stroke:#181818;stroke-width:0.5;"/>
    <path d="M266,1580.2895 L266,1590.2895 L276,1590.2895 L266,1580.2895 " fill="#FEFFDD" style="stroke:#181818;stroke-width:0.5;"/>
    <text fill="#000000" font-family="sans-serif" font-size="13" lengthAdjust="spacing" textLength="182.0522" x="78" y="1599.1865">Convert plantuml or mermaid</text>
    <text fill="#000000" font-family="sans-serif" font-size="13" lengthAdjust="spacing" textLength="174.9152" x="78" y="1616.8925">to an image using command</text>
    <text fill="#000000" font-family="sans-serif" font-size="13" lengthAdjust="spacing" textLength="183.2872" x="78" y="1634.5985">provided in the command line</text>
    <text fill="#000000" font-family="sans-serif" font-size="13" lengthAdjust="spacing" textLength="67.1321" x="78" y="1652.3045">arguments</text>
    <path d="M30,1673.1135 L92.459,1673.1135 L92.459,1682.8196 L82.459,1692.8196 L30,1692.8196 L30,1673.1135 " fill="#EEEEEE" style="stroke:#000000;stroke-width:1.5;"/>
    <rect fill="none" height="94.412" style="stroke:#000000;stroke-width:1.5;" width="300.4166" x="30" y="1673.1135"/>
    <text fill="#000000" font-family="sans-serif" font-size="13" font-weight="bold" lengthAdjust="spacing" textLength="17.459" x="45" y="1688.0106">alt</text>
    <text fill="#000000" font-family="sans-serif" font-size="11" font-weight="bold" lengthAdjust="spacing" textLength="187.6146" x="107.459" y="1686.8725">[runtime_config.render_diagrams]</text>
    <a href="" target="_top" title="" xlink:actuate="onRequest" xlink:href="" xlink:show="new" xlink:title="" xlink:type="simple">
      <line style="stroke:#181818;stroke-width:1.0;" x1="189.9595" x2="231.9595" y1="1716.5256" y2="1716.5256"/>
      <line style="stroke:#181818;stroke-width:1.0;" x1="231.9595" x2="231.9595" y1="1716.5256" y2="1729.5256"/>
      <line style="stroke:#181818;stroke-width:1.0;" x1="190.9595" x2="231.9595" y1="1729.5256" y2="1729.5256"/>
      <polygon fill="#181818" points="200.9595,1725.5256,190.9595,1729.5256,200.9595,1733.5256,196.9595,1729.5256" style="stroke:#181818;stroke-width:1.0;"/>
      <text fill="#000000" font-family="sans-serif" font-size="13" lengthAdjust="spacing" textLength="106.4571" x="196.9595" y="1710.7166">render_diagram()</text>
    </a>
    <line style="stroke:#000000;stroke-width:1.0;stroke-dasharray:2.0,2.0;" x1="10" x2="3154.067" y1="1782.5256" y2="1782.5256"/>
    <text fill="#000000" font-family="sans-serif" font-size="11" font-weight="bold" lengthAdjust="spacing" textLength="228.6223" x="15" y="1794.2845">[diagram-&gt;type() == diagram_t::kPackage]</text>
    <line style="stroke:#000000;stroke-width:1.0;stroke-dasharray:2.0,2.0;" x1="10" x2="3154.067" y1="1799.5075" y2="1799.5075"/>
    <text fill="#000000" font-family="sans-serif" font-size="11" font-weight="bold" lengthAdjust="spacing" textLength="223.6944" x="15" y="1811.2664">[diagram-&gt;type() == diagram_t::kInclude]</text>
  </g>
</svg>
