<svg xmlns="http://www.w3.org/2000/svg" xmlns:xlink="http://www.w3.org/1999/xlink" contentStyleType="text/css" height="1052px" preserveAspectRatio="none" style="width:1532px;height:1052px;background:#FFFFFF;" version="1.1" viewBox="0 0 1532 1052" width="1532px" zoomAndPan="magnify">
  <title>Diagram element class hierarchy</title>
  <defs>
    <style type="text/css">a:hover { text-decoration: underline; }</style>
  </defs>
  <g>
    <text fill="#000000" font-family="sans-serif" font-size="14" font-weight="bold" lengthAdjust="spacing" textLength="230.6491" x="643.6754" y="24.9659">Diagram element class hierarchy</text>
    <g id="cluster_C_0002532840279361781187">
      <path d="M8.5,325.6699 L70.7218,325.6699 A3.75,3.75 0 0 1 73.2218,328.1699 L80.2218,350.7378 L823.5,350.7378 A2.5,2.5 0 0 1 826,353.2378 L826,578.1699 A2.5,2.5 0 0 1 823.5,580.6699 L8.5,580.6699 A2.5,2.5 0 0 1 6,578.1699 L6,328.1699 A2.5,2.5 0 0 1 8.5,325.6699 " fill="none" style="stroke:#000000;stroke-width:1.5;"/>
      <line style="stroke:#000000;stroke-width:1.5;" x1="6" x2="80.2218" y1="350.7378" y2="350.7378"/>
      <text fill="#000000" font-family="sans-serif" font-size="14" font-weight="bold" lengthAdjust="spacing" textLength="61.2218" x="10" y="342.6358">common</text>
    </g>
    <g id="cluster_C_0000669774451444102653">
      <path d="M32.5,371.6699 L77.3198,371.6699 A3.75,3.75 0 0 1 79.8198,374.1699 L86.8198,396.7378 L799.5,396.7378 A2.5,2.5 0 0 1 802,399.2378 L802,554.1699 A2.5,2.5 0 0 1 799.5,556.6699 L32.5,556.6699 A2.5,2.5 0 0 1 30,554.1699 L30,374.1699 A2.5,2.5 0 0 1 32.5,371.6699 " fill="none" style="stroke:#000000;stroke-width:1.5;"/>
      <line style="stroke:#000000;stroke-width:1.5;" x1="30" x2="86.8198" y1="396.7378" y2="396.7378"/>
      <text fill="#000000" font-family="sans-serif" font-size="14" font-weight="bold" lengthAdjust="spacing" textLength="43.8198" x="34" y="388.6358">model</text>
    </g>
    <g id="cluster_C_0017921336289613804855">
      <path d="M852.5,408.6699 L952.1016,408.6699 A3.75,3.75 0 0 1 954.6016,411.1699 L961.6016,433.7378 L1509.5,433.7378 A2.5,2.5 0 0 1 1512,436.2378 L1512,993.1699 A2.5,2.5 0 0 1 1509.5,995.6699 L852.5,995.6699 A2.5,2.5 0 0 1 850,993.1699 L850,411.1699 A2.5,2.5 0 0 1 852.5,408.6699 " fill="none" style="stroke:#000000;stroke-width:1.5;"/>
      <line style="stroke:#000000;stroke-width:1.5;" x1="850" x2="961.6016" y1="433.7378" y2="433.7378"/>
      <text fill="#000000" font-family="sans-serif" font-size="14" font-weight="bold" lengthAdjust="spacing" textLength="98.6016" x="854" y="425.6358">class_diagram</text>
    </g>
    <g id="cluster_C_0007176993879715460962">
      <path d="M876.5,454.6699 L921.3198,454.6699 A3.75,3.75 0 0 1 923.8198,457.1699 L930.8198,479.7378 L1485.5,479.7378 A2.5,2.5 0 0 1 1488,482.2378 L1488,969.1699 A2.5,2.5 0 0 1 1485.5,971.6699 L876.5,971.6699 A2.5,2.5 0 0 1 874,969.1699 L874,457.1699 A2.5,2.5 0 0 1 876.5,454.6699 " fill="none" style="stroke:#000000;stroke-width:1.5;"/>
      <line style="stroke:#000000;stroke-width:1.5;" x1="874" x2="930.8198" y1="479.7378" y2="479.7378"/>
      <text fill="#000000" font-family="sans-serif" font-size="14" font-weight="bold" lengthAdjust="spacing" textLength="43.8198" x="878" y="471.6358">model</text>
    </g>
    <g id="cluster_C_0012174902727661033893">
      <path d="M881,46.6699 L1012.9975,46.6699 A3.75,3.75 0 0 1 1015.4975,49.1699 L1022.4975,71.7378 L1522.5,71.7378 A2.5,2.5 0 0 1 1525,74.2378 L1525,382.1699 A2.5,2.5 0 0 1 1522.5,384.6699 L881,384.6699 A2.5,2.5 0 0 1 878.5,382.1699 L878.5,49.1699 A2.5,2.5 0 0 1 881,46.6699 " fill="none" style="stroke:#000000;stroke-width:1.5;"/>
      <line style="stroke:#000000;stroke-width:1.5;" x1="878.5" x2="1022.4975" y1="71.7378" y2="71.7378"/>
      <text fill="#000000" font-family="sans-serif" font-size="14" font-weight="bold" lengthAdjust="spacing" textLength="130.9975" x="882.5" y="63.6358">sequence_diagram</text>
    </g>
    <g id="cluster_C_0017655759046645114118">
      <path d="M905,92.6699 L949.8198,92.6699 A3.75,3.75 0 0 1 952.3198,95.1699 L959.3198,117.7378 L1498.5,117.7378 A2.5,2.5 0 0 1 1501,120.2378 L1501,358.1699 A2.5,2.5 0 0 1 1498.5,360.6699 L905,360.6699 A2.5,2.5 0 0 1 902.5,358.1699 L902.5,95.1699 A2.5,2.5 0 0 1 905,92.6699 " fill="none" style="stroke:#000000;stroke-width:1.5;"/>
      <line style="stroke:#000000;stroke-width:1.5;" x1="902.5" x2="959.3198" y1="117.7378" y2="117.7378"/>
      <text fill="#000000" font-family="sans-serif" font-size="14" font-weight="bold" lengthAdjust="spacing" textLength="43.8198" x="906.5" y="109.6358">model</text>
    </g>
    <a href="classclanguml_1_1common_1_1model_1_1source__location.html" target="_top" title="Base class of all diagram elements that have source location." xlink:actuate="onRequest" xlink:href="classclanguml_1_1common_1_1model_1_1source__location.html" xlink:show="new" xlink:title="Base class of all diagram elements that have source location." xlink:type="simple">
      <g id="elem_C_0007162092657467521843">
        <rect codeLine="6" fill="#F1F1F1" height="48" id="C_0007162092657467521843" rx="2.5" ry="2.5" style="stroke:#181818;stroke-width:0.5;" width="134.8856" x="58" y="409.6699"/>
        <ellipse cx="73" cy="425.6699" fill="#ADD1B2" rx="11" ry="11" style="stroke:#181818;stroke-width:1.0;"/>
        <path d="M75.9688,431.3105 Q75.3906,431.6074 74.75,431.748 Q74.1094,431.9043 73.4063,431.9043 Q70.9063,431.9043 69.5781,430.2636 Q68.2656,428.6074 68.2656,425.4824 Q68.2656,422.3574 69.5781,420.7011 Q70.9063,419.0449 73.4063,419.0449 Q74.1094,419.0449 74.75,419.2011 Q75.4063,419.3574 75.9688,419.6543 L75.9688,422.373 Q75.3438,421.7949 74.75,421.5293 Q74.1563,421.248 73.5313,421.248 Q72.1875,421.248 71.5,422.3261 Q70.8125,423.3886 70.8125,425.4824 Q70.8125,427.5761 71.5,428.6543 Q72.1875,429.7168 73.5313,429.7168 Q74.1563,429.7168 74.75,429.4511 Q75.3438,429.1699 75.9688,428.5918 L75.9688,431.3105 Z " fill="#000000"/>
        <text fill="#000000" font-family="sans-serif" font-size="14" lengthAdjust="spacing" textLength="102.8856" x="87" y="431.1019">source_location</text>
        <line style="stroke:#181818;stroke-width:0.5;" x1="59" x2="191.8856" y1="441.6699" y2="441.6699"/>
        <line style="stroke:#181818;stroke-width:0.5;" x1="59" x2="191.8856" y1="449.6699" y2="449.6699"/>
      </g>
    </a>
    <a href="classclanguml_1_1common_1_1model_1_1decorated__element.html" target="_top" title="Base class for decorated diagram elements" xlink:actuate="onRequest" xlink:href="classclanguml_1_1common_1_1model_1_1decorated__element.html" xlink:show="new" xlink:title="Base class for decorated diagram elements" xlink:type="simple">
      <g id="elem_C_0008936819060997384951">
        <rect codeLine="10" fill="#F1F1F1" height="48" id="C_0008936819060997384951" rx="2.5" ry="2.5" style="stroke:#181818;stroke-width:0.5;" width="159.2035" x="46" y="492.6699"/>
        <ellipse cx="61" cy="508.6699" fill="#ADD1B2" rx="11" ry="11" style="stroke:#181818;stroke-width:1.0;"/>
        <path d="M63.9688,514.3105 Q63.3906,514.6074 62.75,514.748 Q62.1094,514.9043 61.4063,514.9043 Q58.9063,514.9043 57.5781,513.2636 Q56.2656,511.6074 56.2656,508.4824 Q56.2656,505.3574 57.5781,503.7011 Q58.9063,502.0449 61.4063,502.0449 Q62.1094,502.0449 62.75,502.2011 Q63.4063,502.3574 63.9688,502.6543 L63.9688,505.373 Q63.3438,504.7949 62.75,504.5293 Q62.1563,504.248 61.5313,504.248 Q60.1875,504.248 59.5,505.3261 Q58.8125,506.3886 58.8125,508.4824 Q58.8125,510.5761 59.5,511.6543 Q60.1875,512.7168 61.5313,512.7168 Q62.1563,512.7168 62.75,512.4511 Q63.3438,512.1699 63.9688,511.5918 L63.9688,514.3105 Z " fill="#000000"/>
        <text fill="#000000" font-family="sans-serif" font-size="14" lengthAdjust="spacing" textLength="127.2035" x="75" y="514.1019">decorated_element</text>
        <line style="stroke:#181818;stroke-width:0.5;" x1="47" x2="204.2035" y1="524.6699" y2="524.6699"/>
        <line style="stroke:#181818;stroke-width:0.5;" x1="47" x2="204.2035" y1="532.6699" y2="532.6699"/>
      </g>
    </a>
    <a href="classclanguml_1_1common_1_1model_1_1relationship.html" target="_top" title="Class representing any relationship other than inheritance" xlink:actuate="onRequest" xlink:href="classclanguml_1_1common_1_1model_1_1relationship.html" xlink:show="new" xlink:title="Class representing any relationship other than inheritance" xlink:type="simple">
      <g id="elem_C_0016370694070378943411">
        <rect codeLine="14" fill="#F1F1F1" height="48" id="C_0016370694070378943411" rx="2.5" ry="2.5" style="stroke:#181818;stroke-width:0.5;" width="110.5117" x="283.5" y="492.6699"/>
        <ellipse cx="298.5" cy="508.6699" fill="#ADD1B2" rx="11" ry="11" style="stroke:#181818;stroke-width:1.0;"/>
        <path d="M301.4688,514.3105 Q300.8906,514.6074 300.25,514.748 Q299.6094,514.9043 298.9063,514.9043 Q296.4063,514.9043 295.0781,513.2636 Q293.7656,511.6074 293.7656,508.4824 Q293.7656,505.3574 295.0781,503.7011 Q296.4063,502.0449 298.9063,502.0449 Q299.6094,502.0449 300.25,502.2011 Q300.9063,502.3574 301.4688,502.6543 L301.4688,505.373 Q300.8438,504.7949 300.25,504.5293 Q299.6563,504.248 299.0313,504.248 Q297.6875,504.248 297,505.3261 Q296.3125,506.3886 296.3125,508.4824 Q296.3125,510.5761 297,511.6543 Q297.6875,512.7168 299.0313,512.7168 Q299.6563,512.7168 300.25,512.4511 Q300.8438,512.1699 301.4688,511.5918 L301.4688,514.3105 Z " fill="#000000"/>
        <text fill="#000000" font-family="sans-serif" font-size="14" lengthAdjust="spacing" textLength="78.5117" x="312.5" y="514.1019">relationship</text>
        <line style="stroke:#181818;stroke-width:0.5;" x1="284.5" x2="393.0117" y1="524.6699" y2="524.6699"/>
        <line style="stroke:#181818;stroke-width:0.5;" x1="284.5" x2="393.0117" y1="532.6699" y2="532.6699"/>
      </g>
    </a>
    <a href="classclanguml_1_1common_1_1model_1_1diagram__element.html" target="_top" title="Base class for standalone diagram elements." xlink:actuate="onRequest" xlink:href="classclanguml_1_1common_1_1model_1_1diagram__element.html" xlink:show="new" xlink:title="Base class for standalone diagram elements." xlink:type="simple">
      <g id="elem_C_0008588005715032923314">
        <rect codeLine="18" fill="#F1F1F1" height="48" id="C_0008588005715032923314" rx="2.5" ry="2.5" style="stroke:#181818;stroke-width:0.5;" width="147.7236" x="265" y="409.6699"/>
        <ellipse cx="280" cy="425.6699" fill="#ADD1B2" rx="11" ry="11" style="stroke:#181818;stroke-width:1.0;"/>
        <path d="M282.9688,431.3105 Q282.3906,431.6074 281.75,431.748 Q281.1094,431.9043 280.4063,431.9043 Q277.9063,431.9043 276.5781,430.2636 Q275.2656,428.6074 275.2656,425.4824 Q275.2656,422.3574 276.5781,420.7011 Q277.9063,419.0449 280.4063,419.0449 Q281.1094,419.0449 281.75,419.2011 Q282.4063,419.3574 282.9688,419.6543 L282.9688,422.373 Q282.3438,421.7949 281.75,421.5293 Q281.1563,421.248 280.5313,421.248 Q279.1875,421.248 278.5,422.3261 Q277.8125,423.3886 277.8125,425.4824 Q277.8125,427.5761 278.5,428.6543 Q279.1875,429.7168 280.5313,429.7168 Q281.1563,429.7168 281.75,429.4511 Q282.3438,429.1699 282.9688,428.5918 L282.9688,431.3105 Z " fill="#000000"/>
        <text fill="#000000" font-family="sans-serif" font-size="14" lengthAdjust="spacing" textLength="115.7236" x="294" y="431.1019">diagram_element</text>
        <line style="stroke:#181818;stroke-width:0.5;" x1="266" x2="411.7236" y1="441.6699" y2="441.6699"/>
        <line style="stroke:#181818;stroke-width:0.5;" x1="266" x2="411.7236" y1="449.6699" y2="449.6699"/>
      </g>
    </a>
    <a href="classclanguml_1_1common_1_1model_1_1element.html" target="_top" title="Base class for any element qualified by namespace." xlink:actuate="onRequest" xlink:href="classclanguml_1_1common_1_1model_1_1element.html" xlink:show="new" xlink:title="Base class for any element qualified by namespace." xlink:type="simple">
      <g id="elem_C_0016556163051475263500">
        <rect codeLine="22" fill="#F1F1F1" height="48" id="C_0016556163051475263500" rx="2.5" ry="2.5" style="stroke:#181818;stroke-width:0.5;" width="86.0958" x="481" y="492.6699"/>
        <ellipse cx="496" cy="508.6699" fill="#ADD1B2" rx="11" ry="11" style="stroke:#181818;stroke-width:1.0;"/>
        <path d="M498.9688,514.3105 Q498.3906,514.6074 497.75,514.748 Q497.1094,514.9043 496.4063,514.9043 Q493.9063,514.9043 492.5781,513.2636 Q491.2656,511.6074 491.2656,508.4824 Q491.2656,505.3574 492.5781,503.7011 Q493.9063,502.0449 496.4063,502.0449 Q497.1094,502.0449 497.75,502.2011 Q498.4063,502.3574 498.9688,502.6543 L498.9688,505.373 Q498.3438,504.7949 497.75,504.5293 Q497.1563,504.248 496.5313,504.248 Q495.1875,504.248 494.5,505.3261 Q493.8125,506.3886 493.8125,508.4824 Q493.8125,510.5761 494.5,511.6543 Q495.1875,512.7168 496.5313,512.7168 Q497.1563,512.7168 497.75,512.4511 Q498.3438,512.1699 498.9688,511.5918 L498.9688,514.3105 Z " fill="#000000"/>
        <text fill="#000000" font-family="sans-serif" font-size="14" lengthAdjust="spacing" textLength="54.0958" x="510" y="514.1019">element</text>
        <line style="stroke:#181818;stroke-width:0.5;" x1="482" x2="566.0958" y1="524.6699" y2="524.6699"/>
        <line style="stroke:#181818;stroke-width:0.5;" x1="482" x2="566.0958" y1="532.6699" y2="532.6699"/>
      </g>
    </a>
    <a href="classclanguml_1_1common_1_1model_1_1template__element.html" target="_top" title="Base class for any element qualified by namespace." xlink:actuate="onRequest" xlink:href="classclanguml_1_1common_1_1model_1_1template__element.html" xlink:show="new" xlink:title="Base class for any element qualified by namespace." xlink:type="simple">
      <g id="elem_C_0013384831159811298387">
        <rect codeLine="26" fill="#F1F1F1" height="48" id="C_0013384831159811298387" rx="2.5" ry="2.5" style="stroke:#181818;stroke-width:0.5;" width="151.3775" x="635" y="492.6699"/>
        <ellipse cx="650" cy="508.6699" fill="#ADD1B2" rx="11" ry="11" style="stroke:#181818;stroke-width:1.0;"/>
        <path d="M652.9688,514.3105 Q652.3906,514.6074 651.75,514.748 Q651.1094,514.9043 650.4063,514.9043 Q647.9063,514.9043 646.5781,513.2636 Q645.2656,511.6074 645.2656,508.4824 Q645.2656,505.3574 646.5781,503.7011 Q647.9063,502.0449 650.4063,502.0449 Q651.1094,502.0449 651.75,502.2011 Q652.4063,502.3574 652.9688,502.6543 L652.9688,505.373 Q652.3438,504.7949 651.75,504.5293 Q651.1563,504.248 650.5313,504.248 Q649.1875,504.248 648.5,505.3261 Q647.8125,506.3886 647.8125,508.4824 Q647.8125,510.5761 648.5,511.6543 Q649.1875,512.7168 650.5313,512.7168 Q651.1563,512.7168 651.75,512.4511 Q652.3438,512.1699 652.9688,511.5918 L652.9688,514.3105 Z " fill="#000000"/>
        <text fill="#000000" font-family="sans-serif" font-size="14" lengthAdjust="spacing" textLength="119.3775" x="664" y="514.1019">template_element</text>
        <line style="stroke:#181818;stroke-width:0.5;" x1="636" x2="785.3775" y1="524.6699" y2="524.6699"/>
        <line style="stroke:#181818;stroke-width:0.5;" x1="636" x2="785.3775" y1="532.6699" y2="532.6699"/>
      </g>
    </a>
    <a href="classclanguml_1_1common_1_1model_1_1source__file.html" target="_top" title="Diagram element representing some file or directory." xlink:actuate="onRequest" xlink:href="classclanguml_1_1common_1_1model_1_1source__file.html" xlink:show="new" xlink:title="Diagram element representing some file or directory." xlink:type="simple">
      <g id="elem_C_0006285717704576425038">
        <rect codeLine="30" fill="#F1F1F1" height="48" id="C_0006285717704576425038" rx="2.5" ry="2.5" style="stroke:#181818;stroke-width:0.5;" width="102.3777" x="473" y="409.6699"/>
        <ellipse cx="488" cy="425.6699" fill="#ADD1B2" rx="11" ry="11" style="stroke:#181818;stroke-width:1.0;"/>
        <path d="M490.9688,431.3105 Q490.3906,431.6074 489.75,431.748 Q489.1094,431.9043 488.4063,431.9043 Q485.9063,431.9043 484.5781,430.2636 Q483.2656,428.6074 483.2656,425.4824 Q483.2656,422.3574 484.5781,420.7011 Q485.9063,419.0449 488.4063,419.0449 Q489.1094,419.0449 489.75,419.2011 Q490.4063,419.3574 490.9688,419.6543 L490.9688,422.373 Q490.3438,421.7949 489.75,421.5293 Q489.1563,421.248 488.5313,421.248 Q487.1875,421.248 486.5,422.3261 Q485.8125,423.3886 485.8125,425.4824 Q485.8125,427.5761 486.5,428.6543 Q487.1875,429.7168 488.5313,429.7168 Q489.1563,429.7168 489.75,429.4511 Q490.3438,429.1699 490.9688,428.5918 L490.9688,431.3105 Z " fill="#000000"/>
        <text fill="#000000" font-family="sans-serif" font-size="14" lengthAdjust="spacing" textLength="70.3777" x="502" y="431.1019">source_file</text>
        <line style="stroke:#181818;stroke-width:0.5;" x1="474" x2="574.3777" y1="441.6699" y2="441.6699"/>
        <line style="stroke:#181818;stroke-width:0.5;" x1="474" x2="574.3777" y1="449.6699" y2="449.6699"/>
      </g>
    </a>
    <a href="classclanguml_1_1common_1_1model_1_1package.html" target="_top" title="Diagram element representing namespace or directory package" xlink:actuate="onRequest" xlink:href="classclanguml_1_1common_1_1model_1_1package.html" xlink:show="new" xlink:title="Diagram element representing namespace or directory package" xlink:type="simple">
      <g id="elem_C_0017146293478645494837">
        <rect codeLine="34" fill="#F1F1F1" height="48" id="C_0017146293478645494837" rx="2.5" ry="2.5" style="stroke:#181818;stroke-width:0.5;" width="87.0198" x="667" y="409.6699"/>
        <ellipse cx="682" cy="425.6699" fill="#ADD1B2" rx="11" ry="11" style="stroke:#181818;stroke-width:1.0;"/>
        <path d="M684.9688,431.3105 Q684.3906,431.6074 683.75,431.748 Q683.1094,431.9043 682.4063,431.9043 Q679.9063,431.9043 678.5781,430.2636 Q677.2656,428.6074 677.2656,425.4824 Q677.2656,422.3574 678.5781,420.7011 Q679.9063,419.0449 682.4063,419.0449 Q683.1094,419.0449 683.75,419.2011 Q684.4063,419.3574 684.9688,419.6543 L684.9688,422.373 Q684.3438,421.7949 683.75,421.5293 Q683.1563,421.248 682.5313,421.248 Q681.1875,421.248 680.5,422.3261 Q679.8125,423.3886 679.8125,425.4824 Q679.8125,427.5761 680.5,428.6543 Q681.1875,429.7168 682.5313,429.7168 Q683.1563,429.7168 683.75,429.4511 Q684.3438,429.1699 684.9688,428.5918 L684.9688,431.3105 Z " fill="#000000"/>
        <text fill="#000000" font-family="sans-serif" font-size="14" lengthAdjust="spacing" textLength="55.0198" x="696" y="431.1019">package</text>
        <line style="stroke:#181818;stroke-width:0.5;" x1="668" x2="753.0198" y1="441.6699" y2="441.6699"/>
        <line style="stroke:#181818;stroke-width:0.5;" x1="668" x2="753.0198" y1="449.6699" y2="449.6699"/>
      </g>
    </a>
    <a href="classclanguml_1_1class__diagram_1_1model_1_1class__element.html" target="_top" title="Base class for class elements (e.g. member or method)." xlink:actuate="onRequest" xlink:href="classclanguml_1_1class__diagram_1_1model_1_1class__element.html" xlink:show="new" xlink:title="Base class for class elements (e.g. member or method)." xlink:type="simple">
      <g id="elem_C_0004846934894930864299">
        <rect codeLine="42" fill="#F1F1F1" height="48" id="C_0004846934894930864299" rx="2.5" ry="2.5" style="stroke:#181818;stroke-width:0.5;" width="123.9096" x="908" y="824.6699"/>
        <ellipse cx="923" cy="840.6699" fill="#ADD1B2" rx="11" ry="11" style="stroke:#181818;stroke-width:1.0;"/>
        <path d="M925.9688,846.3105 Q925.3906,846.6074 924.75,846.748 Q924.1094,846.9043 923.4063,846.9043 Q920.9063,846.9043 919.5781,845.2636 Q918.2656,843.6074 918.2656,840.4824 Q918.2656,837.3574 919.5781,835.7011 Q920.9063,834.0449 923.4063,834.0449 Q924.1094,834.0449 924.75,834.2011 Q925.4063,834.3574 925.9688,834.6543 L925.9688,837.373 Q925.3438,836.7949 924.75,836.5293 Q924.1563,836.248 923.5313,836.248 Q922.1875,836.248 921.5,837.3261 Q920.8125,838.3886 920.8125,840.4824 Q920.8125,842.5761 921.5,843.6543 Q922.1875,844.7168 923.5313,844.7168 Q924.1563,844.7168 924.75,844.4511 Q925.3438,844.1699 925.9688,843.5918 L925.9688,846.3105 Z " fill="#000000"/>
        <text fill="#000000" font-family="sans-serif" font-size="14" lengthAdjust="spacing" textLength="91.9096" x="937" y="846.1019">class_element</text>
        <line style="stroke:#181818;stroke-width:0.5;" x1="909" x2="1030.9096" y1="856.6699" y2="856.6699"/>
        <line style="stroke:#181818;stroke-width:0.5;" x1="909" x2="1030.9096" y1="864.6699" y2="864.6699"/>
      </g>
    </a>
    <a href="classclanguml_1_1class__diagram_1_1model_1_1class__member__base.html" target="_top" title="Generic class member model." xlink:actuate="onRequest" xlink:href="classclanguml_1_1class__diagram_1_1model_1_1class__member__base.html" xlink:show="new" xlink:title="Generic class member model." xlink:type="simple">
      <g id="elem_C_0014241292626575163322">
        <rect codeLine="46" fill="#F1F1F1" height="48" id="C_0014241292626575163322" rx="2.5" ry="2.5" style="stroke:#181818;stroke-width:0.5;" width="163.4595" x="1110" y="824.6699"/>
        <ellipse cx="1125" cy="840.6699" fill="#ADD1B2" rx="11" ry="11" style="stroke:#181818;stroke-width:1.0;"/>
        <path d="M1127.9688,846.3105 Q1127.3906,846.6074 1126.75,846.748 Q1126.1094,846.9043 1125.4063,846.9043 Q1122.9063,846.9043 1121.5781,845.2636 Q1120.2656,843.6074 1120.2656,840.4824 Q1120.2656,837.3574 1121.5781,835.7011 Q1122.9063,834.0449 1125.4063,834.0449 Q1126.1094,834.0449 1126.75,834.2011 Q1127.4063,834.3574 1127.9688,834.6543 L1127.9688,837.373 Q1127.3438,836.7949 1126.75,836.5293 Q1126.1563,836.248 1125.5313,836.248 Q1124.1875,836.248 1123.5,837.3261 Q1122.8125,838.3886 1122.8125,840.4824 Q1122.8125,842.5761 1123.5,843.6543 Q1124.1875,844.7168 1125.5313,844.7168 Q1126.1563,844.7168 1126.75,844.4511 Q1127.3438,844.1699 1127.9688,843.5918 L1127.9688,846.3105 Z " fill="#000000"/>
        <text fill="#000000" font-family="sans-serif" font-size="14" lengthAdjust="spacing" textLength="131.4595" x="1139" y="846.1019">class_member_base</text>
        <line style="stroke:#181818;stroke-width:0.5;" x1="1111" x2="1272.4595" y1="856.6699" y2="856.6699"/>
        <line style="stroke:#181818;stroke-width:0.5;" x1="1111" x2="1272.4595" y1="864.6699" y2="864.6699"/>
      </g>
    </a>
    <a href="classclanguml_1_1class__diagram_1_1model_1_1class__member.html" target="_top" title="Class member model." xlink:actuate="onRequest" xlink:href="classclanguml_1_1class__diagram_1_1model_1_1class__member.html" xlink:show="new" xlink:title="Class member model." xlink:type="simple">
      <g id="elem_C_0014370262096868218046">
        <rect codeLine="50" fill="#F1F1F1" height="48" id="C_0014370262096868218046" rx="2.5" ry="2.5" style="stroke:#181818;stroke-width:0.5;" width="126.1776" x="1346" y="907.6699"/>
        <ellipse cx="1361" cy="923.6699" fill="#ADD1B2" rx="11" ry="11" style="stroke:#181818;stroke-width:1.0;"/>
        <path d="M1363.9688,929.3105 Q1363.3906,929.6074 1362.75,929.748 Q1362.1094,929.9043 1361.4063,929.9043 Q1358.9063,929.9043 1357.5781,928.2636 Q1356.2656,926.6074 1356.2656,923.4824 Q1356.2656,920.3574 1357.5781,918.7011 Q1358.9063,917.0449 1361.4063,917.0449 Q1362.1094,917.0449 1362.75,917.2011 Q1363.4063,917.3574 1363.9688,917.6543 L1363.9688,920.373 Q1363.3438,919.7949 1362.75,919.5293 Q1362.1563,919.248 1361.5313,919.248 Q1360.1875,919.248 1359.5,920.3261 Q1358.8125,921.3886 1358.8125,923.4824 Q1358.8125,925.5761 1359.5,926.6543 Q1360.1875,927.7168 1361.5313,927.7168 Q1362.1563,927.7168 1362.75,927.4511 Q1363.3438,927.1699 1363.9688,926.5918 L1363.9688,929.3105 Z " fill="#000000"/>
        <text fill="#000000" font-family="sans-serif" font-size="14" lengthAdjust="spacing" textLength="94.1776" x="1375" y="929.1019">class_member</text>
        <line style="stroke:#181818;stroke-width:0.5;" x1="1347" x2="1471.1776" y1="939.6699" y2="939.6699"/>
        <line style="stroke:#181818;stroke-width:0.5;" x1="1347" x2="1471.1776" y1="947.6699" y2="947.6699"/>
      </g>
    </a>
    <a href="classclanguml_1_1class__diagram_1_1model_1_1method__parameter.html" target="_top" title="Model of a method parameter." xlink:actuate="onRequest" xlink:href="classclanguml_1_1class__diagram_1_1model_1_1method__parameter.html" xlink:show="new" xlink:title="Model of a method parameter." xlink:type="simple">
      <g id="elem_C_0004845352266951408403">
        <rect codeLine="54" fill="#F1F1F1" height="48" id="C_0004845352266951408403" rx="2.5" ry="2.5" style="stroke:#181818;stroke-width:0.5;" width="159.8055" x="890" y="907.6699"/>
        <ellipse cx="905" cy="923.6699" fill="#ADD1B2" rx="11" ry="11" style="stroke:#181818;stroke-width:1.0;"/>
        <path d="M907.9688,929.3105 Q907.3906,929.6074 906.75,929.748 Q906.1094,929.9043 905.4063,929.9043 Q902.9063,929.9043 901.5781,928.2636 Q900.2656,926.6074 900.2656,923.4824 Q900.2656,920.3574 901.5781,918.7011 Q902.9063,917.0449 905.4063,917.0449 Q906.1094,917.0449 906.75,917.2011 Q907.4063,917.3574 907.9688,917.6543 L907.9688,920.373 Q907.3438,919.7949 906.75,919.5293 Q906.1563,919.248 905.5313,919.248 Q904.1875,919.248 903.5,920.3261 Q902.8125,921.3886 902.8125,923.4824 Q902.8125,925.5761 903.5,926.6543 Q904.1875,927.7168 905.5313,927.7168 Q906.1563,927.7168 906.75,927.4511 Q907.3438,927.1699 907.9688,926.5918 L907.9688,929.3105 Z " fill="#000000"/>
        <text fill="#000000" font-family="sans-serif" font-size="14" lengthAdjust="spacing" textLength="127.8055" x="919" y="929.1019">method_parameter</text>
        <line style="stroke:#181818;stroke-width:0.5;" x1="891" x2="1048.8055" y1="939.6699" y2="939.6699"/>
        <line style="stroke:#181818;stroke-width:0.5;" x1="891" x2="1048.8055" y1="947.6699" y2="947.6699"/>
      </g>
    </a>
    <a href="classclanguml_1_1class__diagram_1_1model_1_1class__method__base.html" target="_top" title="Class method model." xlink:actuate="onRequest" xlink:href="classclanguml_1_1class__diagram_1_1model_1_1class__method__base.html" xlink:show="new" xlink:title="Class method model." xlink:type="simple">
      <g id="elem_C_0018032026899693266441">
        <rect codeLine="58" fill="#F1F1F1" height="48" id="C_0018032026899693266441" rx="2.5" ry="2.5" style="stroke:#181818;stroke-width:0.5;" width="158.8675" x="1112" y="741.6699"/>
        <ellipse cx="1127" cy="757.6699" fill="#ADD1B2" rx="11" ry="11" style="stroke:#181818;stroke-width:1.0;"/>
        <path d="M1129.9688,763.3105 Q1129.3906,763.6074 1128.75,763.748 Q1128.1094,763.9043 1127.4063,763.9043 Q1124.9063,763.9043 1123.5781,762.2636 Q1122.2656,760.6074 1122.2656,757.4824 Q1122.2656,754.3574 1123.5781,752.7011 Q1124.9063,751.0449 1127.4063,751.0449 Q1128.1094,751.0449 1128.75,751.2011 Q1129.4063,751.3574 1129.9688,751.6543 L1129.9688,754.373 Q1129.3438,753.7949 1128.75,753.5293 Q1128.1563,753.248 1127.5313,753.248 Q1126.1875,753.248 1125.5,754.3261 Q1124.8125,755.3886 1124.8125,757.4824 Q1124.8125,759.5761 1125.5,760.6543 Q1126.1875,761.7168 1127.5313,761.7168 Q1128.1563,761.7168 1128.75,761.4511 Q1129.3438,761.1699 1129.9688,760.5918 L1129.9688,763.3105 Z " fill="#000000"/>
        <text fill="#000000" font-family="sans-serif" font-size="14" lengthAdjust="spacing" textLength="126.8675" x="1141" y="763.1019">class_method_base</text>
        <line style="stroke:#181818;stroke-width:0.5;" x1="1113" x2="1269.8675" y1="773.6699" y2="773.6699"/>
        <line style="stroke:#181818;stroke-width:0.5;" x1="1113" x2="1269.8675" y1="781.6699" y2="781.6699"/>
      </g>
    </a>
    <a href="classclanguml_1_1class__diagram_1_1model_1_1class__method.html" target="_top" title="Class method model." xlink:actuate="onRequest" xlink:href="classclanguml_1_1class__diagram_1_1model_1_1class__method.html" xlink:show="new" xlink:title="Class method model." xlink:type="simple">
      <g id="elem_C_0001633165731746789371">
        <rect codeLine="62" fill="#F1F1F1" height="48" id="C_0001633165731746789371" rx="2.5" ry="2.5" style="stroke:#181818;stroke-width:0.5;" width="121.5857" x="1348" y="741.6699"/>
        <ellipse cx="1363" cy="757.6699" fill="#ADD1B2" rx="11" ry="11" style="stroke:#181818;stroke-width:1.0;"/>
        <path d="M1365.9688,763.3105 Q1365.3906,763.6074 1364.75,763.748 Q1364.1094,763.9043 1363.4063,763.9043 Q1360.9063,763.9043 1359.5781,762.2636 Q1358.2656,760.6074 1358.2656,757.4824 Q1358.2656,754.3574 1359.5781,752.7011 Q1360.9063,751.0449 1363.4063,751.0449 Q1364.1094,751.0449 1364.75,751.2011 Q1365.4063,751.3574 1365.9688,751.6543 L1365.9688,754.373 Q1365.3438,753.7949 1364.75,753.5293 Q1364.1563,753.248 1363.5313,753.248 Q1362.1875,753.248 1361.5,754.3261 Q1360.8125,755.3886 1360.8125,757.4824 Q1360.8125,759.5761 1361.5,760.6543 Q1362.1875,761.7168 1363.5313,761.7168 Q1364.1563,761.7168 1364.75,761.4511 Q1365.3438,761.1699 1365.9688,760.5918 L1365.9688,763.3105 Z " fill="#000000"/>
        <text fill="#000000" font-family="sans-serif" font-size="14" lengthAdjust="spacing" textLength="89.5857" x="1377" y="763.1019">class_method</text>
        <line style="stroke:#181818;stroke-width:0.5;" x1="1349" x2="1468.5857" y1="773.6699" y2="773.6699"/>
        <line style="stroke:#181818;stroke-width:0.5;" x1="1349" x2="1468.5857" y1="781.6699" y2="781.6699"/>
      </g>
    </a>
    <a href="classclanguml_1_1class__diagram_1_1model_1_1class__.html" target="_top" title="Diagram element representing a class or class template." xlink:actuate="onRequest" xlink:href="classclanguml_1_1class__diagram_1_1model_1_1class__.html" xlink:show="new" xlink:title="Diagram element representing a class or class template." xlink:type="simple">
      <g id="elem_C_0010336274859733225462">
        <rect codeLine="66" fill="#F1F1F1" height="48" id="C_0010336274859733225462" rx="2.5" ry="2.5" style="stroke:#181818;stroke-width:0.5;" width="69.8139" x="935" y="492.6699"/>
        <ellipse cx="950" cy="508.6699" fill="#ADD1B2" rx="11" ry="11" style="stroke:#181818;stroke-width:1.0;"/>
        <path d="M952.9688,514.3105 Q952.3906,514.6074 951.75,514.748 Q951.1094,514.9043 950.4063,514.9043 Q947.9063,514.9043 946.5781,513.2636 Q945.2656,511.6074 945.2656,508.4824 Q945.2656,505.3574 946.5781,503.7011 Q947.9063,502.0449 950.4063,502.0449 Q951.1094,502.0449 951.75,502.2011 Q952.4063,502.3574 952.9688,502.6543 L952.9688,505.373 Q952.3438,504.7949 951.75,504.5293 Q951.1563,504.248 950.5313,504.248 Q949.1875,504.248 948.5,505.3261 Q947.8125,506.3886 947.8125,508.4824 Q947.8125,510.5761 948.5,511.6543 Q949.1875,512.7168 950.5313,512.7168 Q951.1563,512.7168 951.75,512.4511 Q952.3438,512.1699 952.9688,511.5918 L952.9688,514.3105 Z " fill="#000000"/>
        <text fill="#000000" font-family="sans-serif" font-size="14" lengthAdjust="spacing" textLength="37.8139" x="964" y="514.1019">class_</text>
        <line style="stroke:#181818;stroke-width:0.5;" x1="936" x2="1003.8139" y1="524.6699" y2="524.6699"/>
        <line style="stroke:#181818;stroke-width:0.5;" x1="936" x2="1003.8139" y1="532.6699" y2="532.6699"/>
      </g>
    </a>
    <a href="classclanguml_1_1class__diagram_1_1model_1_1concept__.html" target="_top" title="Model of C++ concept." xlink:actuate="onRequest" xlink:href="classclanguml_1_1class__diagram_1_1model_1_1concept__.html" xlink:show="new" xlink:title="Model of C++ concept." xlink:type="simple">
      <g id="elem_C_0010998792414017796003">
        <rect codeLine="70" fill="#F1F1F1" height="48" id="C_0010998792414017796003" rx="2.5" ry="2.5" style="stroke:#181818;stroke-width:0.5;" width="90.3378" x="925" y="741.6699"/>
        <ellipse cx="940" cy="757.6699" fill="#ADD1B2" rx="11" ry="11" style="stroke:#181818;stroke-width:1.0;"/>
        <path d="M942.9688,763.3105 Q942.3906,763.6074 941.75,763.748 Q941.1094,763.9043 940.4063,763.9043 Q937.9063,763.9043 936.5781,762.2636 Q935.2656,760.6074 935.2656,757.4824 Q935.2656,754.3574 936.5781,752.7011 Q937.9063,751.0449 940.4063,751.0449 Q941.1094,751.0449 941.75,751.2011 Q942.4063,751.3574 942.9688,751.6543 L942.9688,754.373 Q942.3438,753.7949 941.75,753.5293 Q941.1563,753.248 940.5313,753.248 Q939.1875,753.248 938.5,754.3261 Q937.8125,755.3886 937.8125,757.4824 Q937.8125,759.5761 938.5,760.6543 Q939.1875,761.7168 940.5313,761.7168 Q941.1563,761.7168 941.75,761.4511 Q942.3438,761.1699 942.9688,760.5918 L942.9688,763.3105 Z " fill="#000000"/>
        <text fill="#000000" font-family="sans-serif" font-size="14" lengthAdjust="spacing" textLength="58.3378" x="954" y="763.1019">concept_</text>
        <line style="stroke:#181818;stroke-width:0.5;" x1="926" x2="1014.3378" y1="773.6699" y2="773.6699"/>
        <line style="stroke:#181818;stroke-width:0.5;" x1="926" x2="1014.3378" y1="781.6699" y2="781.6699"/>
      </g>
    </a>
    <a href="classclanguml_1_1class__diagram_1_1model_1_1enum__.html" target="_top" title="Diagram element representing an enum." xlink:actuate="onRequest" xlink:href="classclanguml_1_1class__diagram_1_1model_1_1enum__.html" xlink:show="new" xlink:title="Diagram element representing an enum." xlink:type="simple">
      <g id="elem_C_0005795143816749204050">
        <rect codeLine="74" fill="#F1F1F1" height="48" id="C_0005795143816749204050" rx="2.5" ry="2.5" style="stroke:#181818;stroke-width:0.5;" width="76.5058" x="931.5" y="575.6699"/>
        <ellipse cx="946.5" cy="591.6699" fill="#ADD1B2" rx="11" ry="11" style="stroke:#181818;stroke-width:1.0;"/>
        <path d="M949.4688,597.3105 Q948.8906,597.6074 948.25,597.748 Q947.6094,597.9043 946.9063,597.9043 Q944.4063,597.9043 943.0781,596.2636 Q941.7656,594.6074 941.7656,591.4824 Q941.7656,588.3574 943.0781,586.7011 Q944.4063,585.0449 946.9063,585.0449 Q947.6094,585.0449 948.25,585.2011 Q948.9063,585.3574 949.4688,585.6543 L949.4688,588.373 Q948.8438,587.7949 948.25,587.5293 Q947.6563,587.248 947.0313,587.248 Q945.6875,587.248 945,588.3261 Q944.3125,589.3886 944.3125,591.4824 Q944.3125,593.5761 945,594.6543 Q945.6875,595.7168 947.0313,595.7168 Q947.6563,595.7168 948.25,595.4511 Q948.8438,595.1699 949.4688,594.5918 L949.4688,597.3105 Z " fill="#000000"/>
        <text fill="#000000" font-family="sans-serif" font-size="14" lengthAdjust="spacing" textLength="44.5058" x="960.5" y="597.1019">enum_</text>
        <line style="stroke:#181818;stroke-width:0.5;" x1="932.5" x2="1007.0058" y1="607.6699" y2="607.6699"/>
        <line style="stroke:#181818;stroke-width:0.5;" x1="932.5" x2="1007.0058" y1="615.6699" y2="615.6699"/>
      </g>
    </a>
    <a href="classclanguml_1_1class__diagram_1_1model_1_1objc__member.html" target="_top" title="ObjC class member model." xlink:actuate="onRequest" xlink:href="classclanguml_1_1class__diagram_1_1model_1_1objc__member.html" xlink:show="new" xlink:title="ObjC class member model." xlink:type="simple">
      <g id="elem_C_0007364672229966928495">
        <rect codeLine="78" fill="#F1F1F1" height="48" id="C_0007364672229966928495" rx="2.5" ry="2.5" style="stroke:#181818;stroke-width:0.5;" width="121.9917" x="1348" y="824.6699"/>
        <ellipse cx="1363" cy="840.6699" fill="#ADD1B2" rx="11" ry="11" style="stroke:#181818;stroke-width:1.0;"/>
        <path d="M1365.9688,846.3105 Q1365.3906,846.6074 1364.75,846.748 Q1364.1094,846.9043 1363.4063,846.9043 Q1360.9063,846.9043 1359.5781,845.2636 Q1358.2656,843.6074 1358.2656,840.4824 Q1358.2656,837.3574 1359.5781,835.7011 Q1360.9063,834.0449 1363.4063,834.0449 Q1364.1094,834.0449 1364.75,834.2011 Q1365.4063,834.3574 1365.9688,834.6543 L1365.9688,837.373 Q1365.3438,836.7949 1364.75,836.5293 Q1364.1563,836.248 1363.5313,836.248 Q1362.1875,836.248 1361.5,837.3261 Q1360.8125,838.3886 1360.8125,840.4824 Q1360.8125,842.5761 1361.5,843.6543 Q1362.1875,844.7168 1363.5313,844.7168 Q1364.1563,844.7168 1364.75,844.4511 Q1365.3438,844.1699 1365.9688,843.5918 L1365.9688,846.3105 Z " fill="#000000"/>
        <text fill="#000000" font-family="sans-serif" font-size="14" lengthAdjust="spacing" textLength="89.9917" x="1377" y="846.1019">objc_member</text>
        <line style="stroke:#181818;stroke-width:0.5;" x1="1349" x2="1468.9917" y1="856.6699" y2="856.6699"/>
        <line style="stroke:#181818;stroke-width:0.5;" x1="1349" x2="1468.9917" y1="864.6699" y2="864.6699"/>
      </g>
    </a>
    <a href="classclanguml_1_1class__diagram_1_1model_1_1objc__method.html" target="_top" title="ObjC class method model." xlink:actuate="onRequest" xlink:href="classclanguml_1_1class__diagram_1_1model_1_1objc__method.html" xlink:show="new" xlink:title="ObjC class method model." xlink:type="simple">
      <g id="elem_C_0002175636676684225778">
        <rect codeLine="82" fill="#F1F1F1" height="48" id="C_0002175636676684225778" rx="2.5" ry="2.5" style="stroke:#181818;stroke-width:0.5;" width="117.3997" x="1350.5" y="658.6699"/>
        <ellipse cx="1365.5" cy="674.6699" fill="#ADD1B2" rx="11" ry="11" style="stroke:#181818;stroke-width:1.0;"/>
        <path d="M1368.4688,680.3105 Q1367.8906,680.6074 1367.25,680.748 Q1366.6094,680.9043 1365.9063,680.9043 Q1363.4063,680.9043 1362.0781,679.2636 Q1360.7656,677.6074 1360.7656,674.4824 Q1360.7656,671.3574 1362.0781,669.7011 Q1363.4063,668.0449 1365.9063,668.0449 Q1366.6094,668.0449 1367.25,668.2011 Q1367.9063,668.3574 1368.4688,668.6543 L1368.4688,671.373 Q1367.8438,670.7949 1367.25,670.5293 Q1366.6563,670.248 1366.0313,670.248 Q1364.6875,670.248 1364,671.3261 Q1363.3125,672.3886 1363.3125,674.4824 Q1363.3125,676.5761 1364,677.6543 Q1364.6875,678.7168 1366.0313,678.7168 Q1366.6563,678.7168 1367.25,678.4511 Q1367.8438,678.1699 1368.4688,677.5918 L1368.4688,680.3105 Z " fill="#000000"/>
        <text fill="#000000" font-family="sans-serif" font-size="14" lengthAdjust="spacing" textLength="85.3997" x="1379.5" y="680.1019">objc_method</text>
        <line style="stroke:#181818;stroke-width:0.5;" x1="1351.5" x2="1466.8997" y1="690.6699" y2="690.6699"/>
        <line style="stroke:#181818;stroke-width:0.5;" x1="1351.5" x2="1466.8997" y1="698.6699" y2="698.6699"/>
      </g>
    </a>
    <a href="classclanguml_1_1class__diagram_1_1model_1_1objc__interface.html" target="_top" title="Diagram element representing an ObjC interface." xlink:actuate="onRequest" xlink:href="classclanguml_1_1class__diagram_1_1model_1_1objc__interface.html" xlink:show="new" xlink:title="Diagram element representing an ObjC interface." xlink:type="simple">
      <g id="elem_C_0010166346108406727066">
        <rect codeLine="86" fill="#F1F1F1" height="48" id="C_0010166346108406727066" rx="2.5" ry="2.5" style="stroke:#181818;stroke-width:0.5;" width="123.9096" x="908" y="658.6699"/>
        <ellipse cx="923" cy="674.6699" fill="#ADD1B2" rx="11" ry="11" style="stroke:#181818;stroke-width:1.0;"/>
        <path d="M925.9688,680.3105 Q925.3906,680.6074 924.75,680.748 Q924.1094,680.9043 923.4063,680.9043 Q920.9063,680.9043 919.5781,679.2636 Q918.2656,677.6074 918.2656,674.4824 Q918.2656,671.3574 919.5781,669.7011 Q920.9063,668.0449 923.4063,668.0449 Q924.1094,668.0449 924.75,668.2011 Q925.4063,668.3574 925.9688,668.6543 L925.9688,671.373 Q925.3438,670.7949 924.75,670.5293 Q924.1563,670.248 923.5313,670.248 Q922.1875,670.248 921.5,671.3261 Q920.8125,672.3886 920.8125,674.4824 Q920.8125,676.5761 921.5,677.6543 Q922.1875,678.7168 923.5313,678.7168 Q924.1563,678.7168 924.75,678.4511 Q925.3438,678.1699 925.9688,677.5918 L925.9688,680.3105 Z " fill="#000000"/>
        <text fill="#000000" font-family="sans-serif" font-size="14" lengthAdjust="spacing" textLength="91.9096" x="937" y="680.1019">objc_interface</text>
        <line style="stroke:#181818;stroke-width:0.5;" x1="909" x2="1030.9096" y1="690.6699" y2="690.6699"/>
        <line style="stroke:#181818;stroke-width:0.5;" x1="909" x2="1030.9096" y1="698.6699" y2="698.6699"/>
      </g>
    </a>
    <a href="structclanguml_1_1sequence__diagram_1_1model_1_1participant.html" target="_top" title="Base class for various types of sequence diagram participants" xlink:actuate="onRequest" xlink:href="structclanguml_1_1sequence__diagram_1_1model_1_1participant.html" xlink:show="new" xlink:title="Base class for various types of sequence diagram participants" xlink:type="simple">
      <g id="elem_C_0011201726182739961811">
        <rect codeLine="94" fill="#F1F1F1" height="48" id="C_0011201726182739961811" rx="2.5" ry="2.5" style="stroke:#181818;stroke-width:0.5;" width="103.4137" x="918.5" y="296.6699"/>
        <ellipse cx="933.5" cy="312.6699" fill="#ADD1B2" rx="11" ry="11" style="stroke:#181818;stroke-width:1.0;"/>
        <path d="M936.4688,318.3105 Q935.8906,318.6074 935.25,318.748 Q934.6094,318.9043 933.9063,318.9043 Q931.4063,318.9043 930.0781,317.2636 Q928.7656,315.6074 928.7656,312.4824 Q928.7656,309.3574 930.0781,307.7011 Q931.4063,306.0449 933.9063,306.0449 Q934.6094,306.0449 935.25,306.2011 Q935.9063,306.3574 936.4688,306.6543 L936.4688,309.373 Q935.8438,308.7949 935.25,308.5293 Q934.6563,308.248 934.0313,308.248 Q932.6875,308.248 932,309.3261 Q931.3125,310.3886 931.3125,312.4824 Q931.3125,314.5761 932,315.6543 Q932.6875,316.7168 934.0313,316.7168 Q934.6563,316.7168 935.25,316.4511 Q935.8438,316.1699 936.4688,315.5918 L936.4688,318.3105 Z " fill="#000000"/>
        <text fill="#000000" font-family="sans-serif" font-size="14" lengthAdjust="spacing" textLength="71.4137" x="947.5" y="318.1019">participant</text>
        <line style="stroke:#181818;stroke-width:0.5;" x1="919.5" x2="1020.9137" y1="328.6699" y2="328.6699"/>
        <line style="stroke:#181818;stroke-width:0.5;" x1="919.5" x2="1020.9137" y1="336.6699" y2="336.6699"/>
      </g>
    </a>
    <a href="structclanguml_1_1sequence__diagram_1_1model_1_1class__.html" target="_top" title="Sequence diagram participant representing a class." xlink:actuate="onRequest" xlink:href="structclanguml_1_1sequence__diagram_1_1model_1_1class__.html" xlink:show="new" xlink:title="Sequence diagram participant representing a class." xlink:type="simple">
      <g id="elem_C_0007084118972955772881">
        <rect codeLine="98" fill="#F1F1F1" height="48" id="C_0007084118972955772881" rx="2.5" ry="2.5" style="stroke:#181818;stroke-width:0.5;" width="69.8139" x="1156.5" y="296.6699"/>
        <ellipse cx="1171.5" cy="312.6699" fill="#ADD1B2" rx="11" ry="11" style="stroke:#181818;stroke-width:1.0;"/>
        <path d="M1174.4688,318.3105 Q1173.8906,318.6074 1173.25,318.748 Q1172.6094,318.9043 1171.9063,318.9043 Q1169.4063,318.9043 1168.0781,317.2636 Q1166.7656,315.6074 1166.7656,312.4824 Q1166.7656,309.3574 1168.0781,307.7011 Q1169.4063,306.0449 1171.9063,306.0449 Q1172.6094,306.0449 1173.25,306.2011 Q1173.9063,306.3574 1174.4688,306.6543 L1174.4688,309.373 Q1173.8438,308.7949 1173.25,308.5293 Q1172.6563,308.248 1172.0313,308.248 Q1170.6875,308.248 1170,309.3261 Q1169.3125,310.3886 1169.3125,312.4824 Q1169.3125,314.5761 1170,315.6543 Q1170.6875,316.7168 1172.0313,316.7168 Q1172.6563,316.7168 1173.25,316.4511 Q1173.8438,316.1699 1174.4688,315.5918 L1174.4688,318.3105 Z " fill="#000000"/>
        <text fill="#000000" font-family="sans-serif" font-size="14" lengthAdjust="spacing" textLength="37.8139" x="1185.5" y="318.1019">class_</text>
        <line style="stroke:#181818;stroke-width:0.5;" x1="1157.5" x2="1225.3139" y1="328.6699" y2="328.6699"/>
        <line style="stroke:#181818;stroke-width:0.5;" x1="1157.5" x2="1225.3139" y1="336.6699" y2="336.6699"/>
      </g>
    </a>
    <a href="structclanguml_1_1sequence__diagram_1_1model_1_1function.html" target="_top" title="Participant mode representing a free function." xlink:actuate="onRequest" xlink:href="structclanguml_1_1sequence__diagram_1_1model_1_1function.html" xlink:show="new" xlink:title="Participant mode representing a free function." xlink:type="simple">
      <g id="elem_C_0001861107648253454629">
        <rect codeLine="102" fill="#F1F1F1" height="48" id="C_0001861107648253454629" rx="2.5" ry="2.5" style="stroke:#181818;stroke-width:0.5;" width="86.6278" x="1148" y="213.6699"/>
        <ellipse cx="1163" cy="229.6699" fill="#ADD1B2" rx="11" ry="11" style="stroke:#181818;stroke-width:1.0;"/>
        <path d="M1165.9688,235.3105 Q1165.3906,235.6074 1164.75,235.748 Q1164.1094,235.9043 1163.4063,235.9043 Q1160.9063,235.9043 1159.5781,234.2636 Q1158.2656,232.6074 1158.2656,229.4824 Q1158.2656,226.3574 1159.5781,224.7011 Q1160.9063,223.0449 1163.4063,223.0449 Q1164.1094,223.0449 1164.75,223.2011 Q1165.4063,223.3574 1165.9688,223.6543 L1165.9688,226.373 Q1165.3438,225.7949 1164.75,225.5293 Q1164.1563,225.248 1163.5313,225.248 Q1162.1875,225.248 1161.5,226.3261 Q1160.8125,227.3886 1160.8125,229.4824 Q1160.8125,231.5761 1161.5,232.6543 Q1162.1875,233.7168 1163.5313,233.7168 Q1164.1563,233.7168 1164.75,233.4511 Q1165.3438,233.1699 1165.9688,232.5918 L1165.9688,235.3105 Z " fill="#000000"/>
        <text fill="#000000" font-family="sans-serif" font-size="14" lengthAdjust="spacing" textLength="54.6278" x="1177" y="235.1019">function</text>
        <line style="stroke:#181818;stroke-width:0.5;" x1="1149" x2="1233.6278" y1="245.6699" y2="245.6699"/>
        <line style="stroke:#181818;stroke-width:0.5;" x1="1149" x2="1233.6278" y1="253.6699" y2="253.6699"/>
      </g>
    </a>
    <a href="structclanguml_1_1sequence__diagram_1_1model_1_1method.html" target="_top" title="Participant model representing a method" xlink:actuate="onRequest" xlink:href="structclanguml_1_1sequence__diagram_1_1model_1_1method.html" xlink:show="new" xlink:title="Participant model representing a method" xlink:type="simple">
      <g id="elem_C_0006541327780382276039">
        <rect codeLine="106" fill="#F1F1F1" height="48" id="C_0006541327780382276039" rx="2.5" ry="2.5" style="stroke:#181818;stroke-width:0.5;" width="83.7718" x="1367" y="213.6699"/>
        <ellipse cx="1382" cy="229.6699" fill="#ADD1B2" rx="11" ry="11" style="stroke:#181818;stroke-width:1.0;"/>
        <path d="M1384.9688,235.3105 Q1384.3906,235.6074 1383.75,235.748 Q1383.1094,235.9043 1382.4063,235.9043 Q1379.9063,235.9043 1378.5781,234.2636 Q1377.2656,232.6074 1377.2656,229.4824 Q1377.2656,226.3574 1378.5781,224.7011 Q1379.9063,223.0449 1382.4063,223.0449 Q1383.1094,223.0449 1383.75,223.2011 Q1384.4063,223.3574 1384.9688,223.6543 L1384.9688,226.373 Q1384.3438,225.7949 1383.75,225.5293 Q1383.1563,225.248 1382.5313,225.248 Q1381.1875,225.248 1380.5,226.3261 Q1379.8125,227.3886 1379.8125,229.4824 Q1379.8125,231.5761 1380.5,232.6543 Q1381.1875,233.7168 1382.5313,233.7168 Q1383.1563,233.7168 1383.75,233.4511 Q1384.3438,233.1699 1384.9688,232.5918 L1384.9688,235.3105 Z " fill="#000000"/>
        <text fill="#000000" font-family="sans-serif" font-size="14" lengthAdjust="spacing" textLength="51.7718" x="1396" y="235.1019">method</text>
        <line style="stroke:#181818;stroke-width:0.5;" x1="1368" x2="1449.7718" y1="245.6699" y2="245.6699"/>
        <line style="stroke:#181818;stroke-width:0.5;" x1="1368" x2="1449.7718" y1="253.6699" y2="253.6699"/>
      </g>
    </a>
    <a href="structclanguml_1_1sequence__diagram_1_1model_1_1objc__method.html" target="_top" title="objc_method" xlink:actuate="onRequest" xlink:href="structclanguml_1_1sequence__diagram_1_1model_1_1objc__method.html" xlink:show="new" xlink:title="objc_method" xlink:type="simple">
      <g id="elem_C_0013742559556936917396">
        <rect codeLine="110" fill="#F1F1F1" height="48" id="C_0013742559556936917396" rx="2.5" ry="2.5" style="stroke:#181818;stroke-width:0.5;" width="117.3997" x="1350.5" y="130.6699"/>
        <ellipse cx="1365.5" cy="146.6699" fill="#ADD1B2" rx="11" ry="11" style="stroke:#181818;stroke-width:1.0;"/>
        <path d="M1368.4688,152.3105 Q1367.8906,152.6074 1367.25,152.748 Q1366.6094,152.9043 1365.9063,152.9043 Q1363.4063,152.9043 1362.0781,151.2636 Q1360.7656,149.6074 1360.7656,146.4824 Q1360.7656,143.3574 1362.0781,141.7011 Q1363.4063,140.0449 1365.9063,140.0449 Q1366.6094,140.0449 1367.25,140.2011 Q1367.9063,140.3574 1368.4688,140.6543 L1368.4688,143.373 Q1367.8438,142.7949 1367.25,142.5293 Q1366.6563,142.248 1366.0313,142.248 Q1364.6875,142.248 1364,143.3261 Q1363.3125,144.3886 1363.3125,146.4824 Q1363.3125,148.5761 1364,149.6543 Q1364.6875,150.7168 1366.0313,150.7168 Q1366.6563,150.7168 1367.25,150.4511 Q1367.8438,150.1699 1368.4688,149.5918 L1368.4688,152.3105 Z " fill="#000000"/>
        <text fill="#000000" font-family="sans-serif" font-size="14" lengthAdjust="spacing" textLength="85.3997" x="1379.5" y="152.1019">objc_method</text>
        <line style="stroke:#181818;stroke-width:0.5;" x1="1351.5" x2="1466.8997" y1="162.6699" y2="162.6699"/>
        <line style="stroke:#181818;stroke-width:0.5;" x1="1351.5" x2="1466.8997" y1="170.6699" y2="170.6699"/>
      </g>
    </a>
    <a href="structclanguml_1_1sequence__diagram_1_1model_1_1function__template.html" target="_top" title="Participant model representing a function template." xlink:actuate="onRequest" xlink:href="structclanguml_1_1sequence__diagram_1_1model_1_1function__template.html" xlink:show="new" xlink:title="Participant model representing a function template." xlink:type="simple">
      <g id="elem_C_0018241535739946484465">
        <rect codeLine="114" fill="#F1F1F1" height="48" id="C_0018241535739946484465" rx="2.5" ry="2.5" style="stroke:#181818;stroke-width:0.5;" width="151.9095" x="1333" y="296.6699"/>
        <ellipse cx="1348" cy="312.6699" fill="#ADD1B2" rx="11" ry="11" style="stroke:#181818;stroke-width:1.0;"/>
        <path d="M1350.9688,318.3105 Q1350.3906,318.6074 1349.75,318.748 Q1349.1094,318.9043 1348.4063,318.9043 Q1345.9063,318.9043 1344.5781,317.2636 Q1343.2656,315.6074 1343.2656,312.4824 Q1343.2656,309.3574 1344.5781,307.7011 Q1345.9063,306.0449 1348.4063,306.0449 Q1349.1094,306.0449 1349.75,306.2011 Q1350.4063,306.3574 1350.9688,306.6543 L1350.9688,309.373 Q1350.3438,308.7949 1349.75,308.5293 Q1349.1563,308.248 1348.5313,308.248 Q1347.1875,308.248 1346.5,309.3261 Q1345.8125,310.3886 1345.8125,312.4824 Q1345.8125,314.5761 1346.5,315.6543 Q1347.1875,316.7168 1348.5313,316.7168 Q1349.1563,316.7168 1349.75,316.4511 Q1350.3438,316.1699 1350.9688,315.5918 L1350.9688,318.3105 Z " fill="#000000"/>
        <text fill="#000000" font-family="sans-serif" font-size="14" lengthAdjust="spacing" textLength="119.9095" x="1362" y="318.1019">function_template</text>
        <line style="stroke:#181818;stroke-width:0.5;" x1="1334" x2="1483.9095" y1="328.6699" y2="328.6699"/>
        <line style="stroke:#181818;stroke-width:0.5;" x1="1334" x2="1483.9095" y1="336.6699" y2="336.6699"/>
      </g>
    </a>
    <a href="classclanguml_1_1sequence__diagram_1_1model_1_1message.html" target="_top" title="Model of a sequence diagram message." xlink:actuate="onRequest" xlink:href="classclanguml_1_1sequence__diagram_1_1model_1_1message.html" xlink:show="new" xlink:title="Model of a sequence diagram message." xlink:type="simple">
      <g id="elem_C_0017829224549649886549">
        <rect codeLine="118" fill="#F1F1F1" height="48" id="C_0017829224549649886549" rx="2.5" ry="2.5" style="stroke:#181818;stroke-width:0.5;" width="90.7578" x="924.5" y="213.6699"/>
        <ellipse cx="939.5" cy="229.6699" fill="#ADD1B2" rx="11" ry="11" style="stroke:#181818;stroke-width:1.0;"/>
        <path d="M942.4688,235.3105 Q941.8906,235.6074 941.25,235.748 Q940.6094,235.9043 939.9063,235.9043 Q937.4063,235.9043 936.0781,234.2636 Q934.7656,232.6074 934.7656,229.4824 Q934.7656,226.3574 936.0781,224.7011 Q937.4063,223.0449 939.9063,223.0449 Q940.6094,223.0449 941.25,223.2011 Q941.9063,223.3574 942.4688,223.6543 L942.4688,226.373 Q941.8438,225.7949 941.25,225.5293 Q940.6563,225.248 940.0313,225.248 Q938.6875,225.248 938,226.3261 Q937.3125,227.3886 937.3125,229.4824 Q937.3125,231.5761 938,232.6543 Q938.6875,233.7168 940.0313,233.7168 Q940.6563,233.7168 941.25,233.4511 Q941.8438,233.1699 942.4688,232.5918 L942.4688,235.3105 Z " fill="#000000"/>
        <text fill="#000000" font-family="sans-serif" font-size="14" lengthAdjust="spacing" textLength="58.7578" x="953.5" y="235.1019">message</text>
        <line style="stroke:#181818;stroke-width:0.5;" x1="925.5" x2="1014.2578" y1="245.6699" y2="245.6699"/>
        <line style="stroke:#181818;stroke-width:0.5;" x1="925.5" x2="1014.2578" y1="253.6699" y2="253.6699"/>
      </g>
    </a>
    <g id="link_C_0008936819060997384951_C_0016370694070378943411">
      <path codeLine="123" d="M223.25,516.6699 C249.21,516.6699 259.49,516.6699 283.25,516.6699 " fill="none" id="C_0008936819060997384951-backto-C_0016370694070378943411" style="stroke:#181818;stroke-width:1.0;"/>
      <polygon fill="none" points="205.25,516.6699,223.25,522.6699,223.25,510.6699,205.25,516.6699" style="stroke:#181818;stroke-width:1.0;"/>
    </g>
    <g id="link_C_0008936819060997384951_C_0008588005715032923314">
      <path codeLine="125" d="M204.4269,486.0867 C232.3669,475.1267 248.63,468.7399 276.6,457.7699 " fill="none" id="C_0008936819060997384951-backto-C_0008588005715032923314" style="stroke:#181818;stroke-width:1.0;"/>
      <polygon fill="none" points="187.67,492.6599,206.6179,491.6723,202.2358,480.5011,187.67,492.6599" style="stroke:#181818;stroke-width:1.0;"/>
    </g>
    <g id="link_C_0007162092657467521843_C_0008588005715032923314">
      <path codeLine="127" d="M211.13,433.6699 C233.89,433.6699 241.47,433.6699 264.73,433.6699 " fill="none" id="C_0007162092657467521843-backto-C_0008588005715032923314" style="stroke:#181818;stroke-width:1.0;"/>
      <polygon fill="none" points="193.13,433.6699,211.13,439.6699,211.13,427.6699,193.13,433.6699" style="stroke:#181818;stroke-width:1.0;"/>
    </g>
    <g id="link_C_0008588005715032923314_C_0016556163051475263500">
      <path codeLine="129" d="M409.324,465.112 C437.294,477.792 454.76,485.7199 480.92,497.5899 " fill="none" id="C_0008588005715032923314-backto-C_0016556163051475263500" style="stroke:#181818;stroke-width:1.0;"/>
      <polygon fill="none" points="392.93,457.6799,406.8466,470.5767,411.8014,459.6473,392.93,457.6799" style="stroke:#181818;stroke-width:1.0;"/>
    </g>
    <g id="link_C_0016556163051475263500_C_0013384831159811298387">
      <path codeLine="131" d="M585.33,516.6699 C605.33,516.6699 611.81,516.6699 634.79,516.6699 " fill="none" id="C_0016556163051475263500-backto-C_0013384831159811298387" style="stroke:#181818;stroke-width:1.0;"/>
      <polygon fill="none" points="567.33,516.6699,585.33,522.6699,585.33,510.6699,567.33,516.6699" style="stroke:#181818;stroke-width:1.0;"/>
    </g>
    <g id="link_C_0008588005715032923314_C_0006285717704576425038">
      <path codeLine="133" d="M431.12,433.6699 C451.13,433.6699 454.36,433.6699 472.77,433.6699 " fill="none" id="C_0008588005715032923314-backto-C_0006285717704576425038" style="stroke:#181818;stroke-width:1.0;"/>
      <polygon fill="none" points="413.12,433.6699,431.12,439.6699,431.12,427.6699,413.12,433.6699" style="stroke:#181818;stroke-width:1.0;"/>
    </g>
    <g id="link_C_0016556163051475263500_C_0017146293478645494837">
      <path codeLine="135" d="M583.7457,490.2459 C613.5357,476.8459 636.84,466.3599 666.73,452.9099 " fill="none" id="C_0016556163051475263500-backto-C_0017146293478645494837" style="stroke:#181818;stroke-width:1.0;"/>
      <polygon fill="none" points="567.33,497.6299,586.2071,495.7178,581.2844,484.7739,567.33,497.6299" style="stroke:#181818;stroke-width:1.0;"/>
    </g>
    <g id="link_C_0008936819060997384951_C_0004846934894930864299">
      <path codeLine="137" d="M130.5871,558.5999 C137.3971,619.9099 162.73,764.1599 265,832.6699 C466.11,967.3899 777.26,903.2899 907.93,867.3199 " fill="none" id="C_0008936819060997384951-backto-C_0004846934894930864299" style="stroke:#181818;stroke-width:1.0;"/>
      <polygon fill="none" points="128.6,540.7099,124.6238,559.2623,136.5505,557.9375,128.6,540.7099" style="stroke:#181818;stroke-width:1.0;"/>
    </g>
    <g id="link_C_0007162092657467521843_C_0004846934894930864299">
      <path codeLine="139" d="M196.5567,466.9347 C205.0267,471.8647 197.79,468.4299 205,474.6699 C239.43,504.4499 230.72,527.7199 265,557.6699 C462.44,730.1799 776.28,810.0199 907.83,837.2599 " fill="none" id="C_0007162092657467521843-backto-C_0004846934894930864299" style="stroke:#181818;stroke-width:1.0;"/>
      <polygon fill="none" points="181,457.8799,193.5384,472.1203,199.5749,461.7492,181,457.8799" style="stroke:#181818;stroke-width:1.0;"/>
    </g>
    <g id="link_C_0004846934894930864299_C_0014241292626575163322">
      <path codeLine="141" d="M1050.14,848.6699 C1074.24,848.6699 1084.27,848.6699 1109.98,848.6699 " fill="none" id="C_0004846934894930864299-backto-C_0014241292626575163322" style="stroke:#181818;stroke-width:1.0;"/>
      <polygon fill="none" points="1032.14,848.6699,1050.14,854.6699,1050.14,842.6699,1032.14,848.6699" style="stroke:#181818;stroke-width:1.0;"/>
    </g>
    <g id="link_C_0014241292626575163322_C_0014370262096868218046">
      <path codeLine="143" d="M1271.6275,879.1486 C1300.2175,890.1586 1317.23,896.7099 1345.81,907.7199 " fill="none" id="C_0014241292626575163322-backto-C_0014370262096868218046" style="stroke:#181818;stroke-width:1.0;"/>
      <polygon fill="none" points="1254.83,872.6799,1269.4713,884.7478,1273.7837,873.5494,1254.83,872.6799" style="stroke:#181818;stroke-width:1.0;"/>
    </g>
    <g id="link_C_0008936819060997384951_C_0004845352266951408403">
      <path codeLine="145" d="M127.532,558.6781 C130.042,627.9281 146.98,810.8699 265,902.6699 C448.7,1045.5599 748.17,992.0799 889.89,955.1899 " fill="none" id="C_0008936819060997384951-backto-C_0004845352266951408403" style="stroke:#181818;stroke-width:1.0;"/>
      <polygon fill="none" points="126.88,540.6899,121.5359,558.8954,133.5281,558.4608,126.88,540.6899" style="stroke:#181818;stroke-width:1.0;"/>
    </g>
    <g id="link_C_0004846934894930864299_C_0018032026899693266441">
      <path codeLine="147" d="M1048.9761,819.1823 C1078.5361,808.0023 1097.15,800.9699 1127.01,789.6799 " fill="none" id="C_0004846934894930864299-backto-C_0018032026899693266441" style="stroke:#181818;stroke-width:1.0;"/>
      <polygon fill="none" points="1032.14,825.5499,1051.0986,824.7943,1046.8535,813.5702,1032.14,825.5499" style="stroke:#181818;stroke-width:1.0;"/>
    </g>
    <g id="link_C_0018032026899693266441_C_0001633165731746789371">
      <path codeLine="149" d="M1289.22,765.6699 C1314.46,765.6699 1324.01,765.6699 1347.73,765.6699 " fill="none" id="C_0018032026899693266441-backto-C_0001633165731746789371" style="stroke:#181818;stroke-width:1.0;"/>
      <polygon fill="none" points="1271.22,765.6699,1289.22,771.6699,1289.22,759.6699,1271.22,765.6699" style="stroke:#181818;stroke-width:1.0;"/>
    </g>
    <g id="link_C_0013384831159811298387_C_0010336274859733225462">
      <path codeLine="151" d="M804.33,516.6699 C853.33,516.6699 897.05,516.6699 934.74,516.6699 " fill="none" id="C_0013384831159811298387-backto-C_0010336274859733225462" style="stroke:#181818;stroke-width:1.0;"/>
      <polygon fill="none" points="786.33,516.6699,804.33,522.6699,804.33,510.6699,786.33,516.6699" style="stroke:#181818;stroke-width:1.0;"/>
    </g>
    <g id="link_C_0016556163051475263500_C_0010998792414017796003">
      <path codeLine="153" d="M544.0546,556.952 C560.7246,590.632 587.46,635.1899 635,668.6699 C725.22,732.1999 856.84,754.4599 924.77,761.9899 " fill="none" id="C_0016556163051475263500-backto-C_0010998792414017796003" style="stroke:#181818;stroke-width:1.0;"/>
      <polygon fill="none" points="536.07,540.8199,538.6773,559.6136,549.432,554.2905,536.07,540.8199" style="stroke:#181818;stroke-width:1.0;"/>
    </g>
    <g id="link_C_0016556163051475263500_C_0005795143816749204050">
      <path codeLine="155" d="M583.8157,541.682 C604.0057,549.782 612.04,552.0299 635,557.6699 C740.56,583.6099 869.05,594.0299 931.42,597.7799 " fill="none" id="C_0016556163051475263500-backto-C_0005795143816749204050" style="stroke:#181818;stroke-width:1.0;"/>
      <polygon fill="none" points="567.11,534.9799,581.5817,547.2506,586.0498,536.1135,567.11,534.9799" style="stroke:#181818;stroke-width:1.0;"/>
    </g>
    <g id="link_C_0014241292626575163322_C_0007364672229966928495">
      <path codeLine="157" d="M1291.05,848.6699 C1315.8,848.6699 1324.59,848.6699 1347.73,848.6699 " fill="none" id="C_0014241292626575163322-backto-C_0007364672229966928495" style="stroke:#181818;stroke-width:1.0;"/>
      <polygon fill="none" points="1273.05,848.6699,1291.05,854.6699,1291.05,842.6699,1273.05,848.6699" style="stroke:#181818;stroke-width:1.0;"/>
    </g>
    <g id="link_C_0018032026899693266441_C_0002175636676684225778">
      <path codeLine="159" d="M1271.6282,735.193 C1301.7082,723.613 1320.78,716.2599 1350.24,704.9199 " fill="none" id="C_0018032026899693266441-backto-C_0002175636676684225778" style="stroke:#181818;stroke-width:1.0;"/>
      <polygon fill="none" points="1254.83,741.6599,1273.7838,740.7924,1269.4726,729.5936,1254.83,741.6599" style="stroke:#181818;stroke-width:1.0;"/>
    </g>
    <g id="link_C_0016556163051475263500_C_0010166346108406727066">
      <path codeLine="161" d="M564.6697,552.6133 C585.8197,570.9833 603.59,583.7499 635,598.6699 C724.79,641.3199 838.82,663.9999 907.74,674.6599 " fill="none" id="C_0016556163051475263500-backto-C_0010166346108406727066" style="stroke:#181818;stroke-width:1.0;"/>
      <polygon fill="none" points="551.08,540.8099,560.7352,557.1432,568.6041,548.0834,551.08,540.8099" style="stroke:#181818;stroke-width:1.0;"/>
    </g>
    <g id="link_C_0013384831159811298387_C_0011201726182739961811">
      <path codeLine="163" d="M802.9391,491.9238 C819.5191,485.9338 819.53,484.3699 834,474.6699 C886.71,439.3299 931.55,378.3999 953.87,344.7499 " fill="none" id="C_0013384831159811298387-backto-C_0011201726182739961811" style="stroke:#181818;stroke-width:1.0;"/>
      <polygon fill="none" points="786.01,498.0399,804.9778,497.5668,800.9004,486.2808,786.01,498.0399" style="stroke:#181818;stroke-width:1.0;"/>
    </g>
    <g id="link_C_0011201726182739961811_C_0007084118972955772881">
      <path codeLine="165" d="M1039.63,320.6699 C1080.91,320.6699 1120.08,320.6699 1156.18,320.6699 " fill="none" id="C_0011201726182739961811-backto-C_0007084118972955772881" style="stroke:#181818;stroke-width:1.0;"/>
      <polygon fill="none" points="1021.63,320.6699,1039.63,326.6699,1039.63,314.6699,1021.63,320.6699" style="stroke:#181818;stroke-width:1.0;"/>
    </g>
    <g id="link_C_0011201726182739961811_C_0001861107648253454629">
      <path codeLine="167" d="M1038.4679,295.1572 C1076.7079,280.7072 1111.75,267.4499 1147.88,253.7899 " fill="none" id="C_0011201726182739961811-backto-C_0001861107648253454629" style="stroke:#181818;stroke-width:1.0;"/>
      <polygon fill="none" points="1021.63,301.5199,1040.5888,300.7699,1036.3471,289.5446,1021.63,301.5199" style="stroke:#181818;stroke-width:1.0;"/>
    </g>
    <g id="link_C_0001861107648253454629_C_0006541327780382276039">
      <path codeLine="169" d="M1253.08,237.6699 C1291.35,237.6699 1329.19,237.6699 1366.97,237.6699 " fill="none" id="C_0001861107648253454629-backto-C_0006541327780382276039" style="stroke:#181818;stroke-width:1.0;"/>
      <polygon fill="none" points="1235.08,237.6699,1253.08,243.6699,1253.08,231.6699,1235.08,237.6699" style="stroke:#181818;stroke-width:1.0;"/>
    </g>
    <g id="link_C_0001861107648253454629_C_0013742559556936917396">
      <path codeLine="171" d="M1251.8765,214.7987 C1284.8665,202.0887 1314.13,190.8199 1350.42,176.8499 " fill="none" id="C_0001861107648253454629-backto-C_0013742559556936917396" style="stroke:#181818;stroke-width:1.0;"/>
      <polygon fill="none" points="1235.08,221.2699,1254.0336,220.3976,1249.7195,209.1999,1235.08,221.2699" style="stroke:#181818;stroke-width:1.0;"/>
    </g>
    <g id="link_C_0001861107648253454629_C_0018241535739946484465">
      <path codeLine="173" d="M1251.8772,260.5394 C1283.3972,272.6794 1310.05,282.9399 1345.5,296.5999 " fill="none" id="C_0001861107648253454629-backto-C_0018241535739946484465" style="stroke:#181818;stroke-width:1.0;"/>
      <polygon fill="none" points="1235.08,254.0699,1249.7207,266.1384,1254.0337,254.9403,1235.08,254.0699" style="stroke:#181818;stroke-width:1.0;"/>
    </g>
    <g id="link_C_0008588005715032923314_C_0017829224549649886549">
      <path codeLine="175" d="M430.315,405.0812 C449.765,398.9412 453.59,397.7499 473,391.6699 C639.28,339.5999 837.16,278.3899 924.18,251.5099 " fill="none" id="C_0008588005715032923314-backto-C_0017829224549649886549" style="stroke:#181818;stroke-width:1.0;"/>
      <polygon fill="none" points="413.15,410.4999,432.1212,410.8029,428.5088,399.3596,413.15,410.4999" style="stroke:#181818;stroke-width:1.0;"/>
    </g>
  </g>
</svg>
