<svg xmlns="http://www.w3.org/2000/svg" xmlns:xlink="http://www.w3.org/1999/xlink" contentScriptType="application/ecmascript" contentStyleType="text/css" height="881px" preserveAspectRatio="none" style="width:1484px;height:881px;" version="1.1" viewBox="0 0 1484 881" width="1484px" zoomAndPan="magnify">
  <defs>
    <filter height="300%" id="f4eu9bhmb7jr2" width="300%" x="-1" y="-1">
      <feGaussianBlur result="blurOut" stdDeviation="2.0"/>
      <feColorMatrix in="blurOut" result="blurOut2" type="matrix" values="0 0 0 0 0 0 0 0 0 0 0 0 0 0 0 0 0 0 .4 0"/>
      <feOffset dx="4.0" dy="4.0" in="blurOut2" result="blurOut3"/>
      <feBlend in="SourceGraphic" in2="blurOut3" mode="normal"/>
    </filter>
    <style type="text/css">a:hover { text-decoration: underline; }</style>
  </defs>
  <g>
    <text fill="#000000" font-family="sans-serif" font-size="18" lengthAdjust="spacingAndGlyphs" textLength="290" x="603" y="16.708">Diagram element class hierarchy</text>
    <polygon fill="#FFFFFF" filter="url(#f4eu9bhmb7jr2)" points="22,237.9531,95,237.9531,102,260.25,820,260.25,820,486.9531,22,486.9531,22,237.9531" style="stroke: #000000; stroke-width: 1.5;"/>
    <line style="stroke: #000000; stroke-width: 1.5;" x1="22" x2="102" y1="260.25" y2="260.25"/>
    <text fill="#000000" font-family="sans-serif" font-size="14" font-weight="bold" lengthAdjust="spacingAndGlyphs" textLength="67" x="26" y="252.9482">common</text>
    <polygon fill="#FFFFFF" filter="url(#f4eu9bhmb7jr2)" points="46,280.9531,100,280.9531,107,303.25,796,303.25,796,462.9531,46,462.9531,46,280.9531" style="stroke: #000000; stroke-width: 1.5;"/>
    <line style="stroke: #000000; stroke-width: 1.5;" x1="46" x2="107" y1="303.25" y2="303.25"/>
    <text fill="#000000" font-family="sans-serif" font-size="14" font-weight="bold" lengthAdjust="spacingAndGlyphs" textLength="48" x="50" y="295.9482">model</text>
    <polygon fill="#FFFFFF" filter="url(#f4eu9bhmb7jr2)" points="844,317.9531,960,317.9531,967,340.25,1257,340.25,1257,815.9531,844,815.9531,844,317.9531" style="stroke: #000000; stroke-width: 1.5;"/>
    <line style="stroke: #000000; stroke-width: 1.5;" x1="844" x2="967" y1="340.25" y2="340.25"/>
    <text fill="#000000" font-family="sans-serif" font-size="14" font-weight="bold" lengthAdjust="spacingAndGlyphs" textLength="110" x="848" y="332.9482">class_diagram</text>
    <polygon fill="#FFFFFF" filter="url(#f4eu9bhmb7jr2)" points="868,360.9531,922,360.9531,929,383.25,1233,383.25,1233,791.9531,868,791.9531,868,360.9531" style="stroke: #000000; stroke-width: 1.5;"/>
    <line style="stroke: #000000; stroke-width: 1.5;" x1="868" x2="929" y1="383.25" y2="383.25"/>
    <text fill="#000000" font-family="sans-serif" font-size="14" font-weight="bold" lengthAdjust="spacingAndGlyphs" textLength="48" x="872" y="375.9482">model</text>
    <polygon fill="#FFFFFF" filter="url(#f4eu9bhmb7jr2)" points="870,44.9531,1024,44.9531,1031,67.25,1462,67.25,1462,293.9531,870,293.9531,870,44.9531" style="stroke: #000000; stroke-width: 1.5;"/>
    <line style="stroke: #000000; stroke-width: 1.5;" x1="870" x2="1031" y1="67.25" y2="67.25"/>
    <text fill="#000000" font-family="sans-serif" font-size="14" font-weight="bold" lengthAdjust="spacingAndGlyphs" textLength="148" x="874" y="59.9482">sequence_diagram</text>
    <polygon fill="#FFFFFF" filter="url(#f4eu9bhmb7jr2)" points="894,87.9531,948,87.9531,955,110.25,1438,110.25,1438,269.9531,894,269.9531,894,87.9531" style="stroke: #000000; stroke-width: 1.5;"/>
    <line style="stroke: #000000; stroke-width: 1.5;" x1="894" x2="955" y1="110.25" y2="110.25"/>
    <text fill="#000000" font-family="sans-serif" font-size="14" font-weight="bold" lengthAdjust="spacingAndGlyphs" textLength="48" x="898" y="102.9482">model</text>
    <a href="classclanguml_1_1common_1_1model_1_1decorated__element.html" target="_top" title="Base class for decorated diagram elements" xlink:actuate="onRequest" xlink:href="classclanguml_1_1common_1_1model_1_1decorated__element.html" xlink:show="new" xlink:title="Base class for decorated diagram elements" xlink:type="simple">
      <rect fill="#FEFECE" filter="url(#f4eu9bhmb7jr2)" height="48" id="C_0008936819060997384951" style="stroke: #A80036; stroke-width: 1.5;" width="154" x="62" y="315.9531"/>
      <ellipse cx="77" cy="331.9531" fill="#ADD1B2" rx="11" ry="11" style="stroke: #A80036; stroke-width: 1.0;"/>
      <path d="M79.9688,337.5938 Q79.3906,337.8906 78.75,338.0313 Q78.1094,338.1875 77.4063,338.1875 Q74.9063,338.1875 73.5781,336.5469 Q72.2656,334.8906 72.2656,331.7656 Q72.2656,328.6406 73.5781,326.9844 Q74.9063,325.3281 77.4063,325.3281 Q78.1094,325.3281 78.75,325.4844 Q79.4063,325.6406 79.9688,325.9375 L79.9688,328.6563 Q79.3438,328.0781 78.75,327.8125 Q78.1563,327.5313 77.5313,327.5313 Q76.1875,327.5313 75.5,328.6094 Q74.8125,329.6719 74.8125,331.7656 Q74.8125,333.8594 75.5,334.9375 Q76.1875,336 77.5313,336 Q78.1563,336 78.75,335.7344 Q79.3438,335.4531 79.9688,334.875 L79.9688,337.5938 Z "/>
      <text fill="#000000" font-family="sans-serif" font-size="12" lengthAdjust="spacingAndGlyphs" textLength="122" x="91" y="336.1074">decorated_element</text>
      <line style="stroke: #A80036; stroke-width: 1.5;" x1="63" x2="215" y1="347.9531" y2="347.9531"/>
      <line style="stroke: #A80036; stroke-width: 1.5;" x1="63" x2="215" y1="355.9531" y2="355.9531"/>
    </a>
    <a href="classclanguml_1_1common_1_1model_1_1relationship.html" target="_top" title="Class representing any relationship other than inheritance" xlink:actuate="onRequest" xlink:href="classclanguml_1_1common_1_1model_1_1relationship.html" xlink:show="new" xlink:title="Class representing any relationship other than inheritance" xlink:type="simple">
      <rect fill="#FEFECE" filter="url(#f4eu9bhmb7jr2)" height="48" id="C_0016370694070378943411" style="stroke: #A80036; stroke-width: 1.5;" width="106" x="293" y="315.9531"/>
      <ellipse cx="308" cy="331.9531" fill="#ADD1B2" rx="11" ry="11" style="stroke: #A80036; stroke-width: 1.0;"/>
      <path d="M310.9688,337.5938 Q310.3906,337.8906 309.75,338.0313 Q309.1094,338.1875 308.4063,338.1875 Q305.9063,338.1875 304.5781,336.5469 Q303.2656,334.8906 303.2656,331.7656 Q303.2656,328.6406 304.5781,326.9844 Q305.9063,325.3281 308.4063,325.3281 Q309.1094,325.3281 309.75,325.4844 Q310.4063,325.6406 310.9688,325.9375 L310.9688,328.6563 Q310.3438,328.0781 309.75,327.8125 Q309.1563,327.5313 308.5313,327.5313 Q307.1875,327.5313 306.5,328.6094 Q305.8125,329.6719 305.8125,331.7656 Q305.8125,333.8594 306.5,334.9375 Q307.1875,336 308.5313,336 Q309.1563,336 309.75,335.7344 Q310.3438,335.4531 310.9688,334.875 L310.9688,337.5938 Z "/>
      <text fill="#000000" font-family="sans-serif" font-size="12" lengthAdjust="spacingAndGlyphs" textLength="74" x="322" y="336.1074">relationship</text>
      <line style="stroke: #A80036; stroke-width: 1.5;" x1="294" x2="398" y1="347.9531" y2="347.9531"/>
      <line style="stroke: #A80036; stroke-width: 1.5;" x1="294" x2="398" y1="355.9531" y2="355.9531"/>
    </a>
    <a href="classclanguml_1_1common_1_1model_1_1source__location.html" target="_top" title="Base class of all diagram elements that have source location." xlink:actuate="onRequest" xlink:href="classclanguml_1_1common_1_1model_1_1source__location.html" xlink:show="new" xlink:title="Base class of all diagram elements that have source location." xlink:type="simple">
      <rect fill="#FEFECE" filter="url(#f4eu9bhmb7jr2)" height="48" id="C_0007162092657467521843" style="stroke: #A80036; stroke-width: 1.5;" width="131" x="73.5" y="398.9531"/>
      <ellipse cx="88.5" cy="414.9531" fill="#ADD1B2" rx="11" ry="11" style="stroke: #A80036; stroke-width: 1.0;"/>
      <path d="M91.4688,420.5938 Q90.8906,420.8906 90.25,421.0313 Q89.6094,421.1875 88.9063,421.1875 Q86.4063,421.1875 85.0781,419.5469 Q83.7656,417.8906 83.7656,414.7656 Q83.7656,411.6406 85.0781,409.9844 Q86.4063,408.3281 88.9063,408.3281 Q89.6094,408.3281 90.25,408.4844 Q90.9063,408.6406 91.4688,408.9375 L91.4688,411.6563 Q90.8438,411.0781 90.25,410.8125 Q89.6563,410.5313 89.0313,410.5313 Q87.6875,410.5313 87,411.6094 Q86.3125,412.6719 86.3125,414.7656 Q86.3125,416.8594 87,417.9375 Q87.6875,419 89.0313,419 Q89.6563,419 90.25,418.7344 Q90.8438,418.4531 91.4688,417.875 L91.4688,420.5938 Z "/>
      <text fill="#000000" font-family="sans-serif" font-size="12" lengthAdjust="spacingAndGlyphs" textLength="99" x="102.5" y="419.1074">source_location</text>
      <line style="stroke: #A80036; stroke-width: 1.5;" x1="74.5" x2="203.5" y1="430.9531" y2="430.9531"/>
      <line style="stroke: #A80036; stroke-width: 1.5;" x1="74.5" x2="203.5" y1="438.9531" y2="438.9531"/>
    </a>
    <a href="classclanguml_1_1common_1_1model_1_1diagram__element.html" target="_top" title="Base class for standalone diagram elements." xlink:actuate="onRequest" xlink:href="classclanguml_1_1common_1_1model_1_1diagram__element.html" xlink:show="new" xlink:title="Base class for standalone diagram elements." xlink:type="simple">
      <rect fill="#FEFECE" filter="url(#f4eu9bhmb7jr2)" height="48" id="C_0008588005715032923314" style="stroke: #A80036; stroke-width: 1.5;" width="140" x="276" y="398.9531"/>
      <ellipse cx="291" cy="414.9531" fill="#ADD1B2" rx="11" ry="11" style="stroke: #A80036; stroke-width: 1.0;"/>
      <path d="M293.9688,420.5938 Q293.3906,420.8906 292.75,421.0313 Q292.1094,421.1875 291.4063,421.1875 Q288.9063,421.1875 287.5781,419.5469 Q286.2656,417.8906 286.2656,414.7656 Q286.2656,411.6406 287.5781,409.9844 Q288.9063,408.3281 291.4063,408.3281 Q292.1094,408.3281 292.75,408.4844 Q293.4063,408.6406 293.9688,408.9375 L293.9688,411.6563 Q293.3438,411.0781 292.75,410.8125 Q292.1563,410.5313 291.5313,410.5313 Q290.1875,410.5313 289.5,411.6094 Q288.8125,412.6719 288.8125,414.7656 Q288.8125,416.8594 289.5,417.9375 Q290.1875,419 291.5313,419 Q292.1563,419 292.75,418.7344 Q293.3438,418.4531 293.9688,417.875 L293.9688,420.5938 Z "/>
      <text fill="#000000" font-family="sans-serif" font-size="12" lengthAdjust="spacingAndGlyphs" textLength="108" x="305" y="419.1074">diagram_element</text>
      <line style="stroke: #A80036; stroke-width: 1.5;" x1="277" x2="415" y1="430.9531" y2="430.9531"/>
      <line style="stroke: #A80036; stroke-width: 1.5;" x1="277" x2="415" y1="438.9531" y2="438.9531"/>
    </a>
    <a href="classclanguml_1_1common_1_1model_1_1element.html" target="_top" title="Base class for any element qualified by namespace." xlink:actuate="onRequest" xlink:href="classclanguml_1_1common_1_1model_1_1element.html" xlink:show="new" xlink:title="Base class for any element qualified by namespace." xlink:type="simple">
      <rect fill="#FEFECE" filter="url(#f4eu9bhmb7jr2)" height="48" id="C_0016556163051475263500" style="stroke: #A80036; stroke-width: 1.5;" width="83" x="484" y="398.9531"/>
      <ellipse cx="499" cy="414.9531" fill="#ADD1B2" rx="11" ry="11" style="stroke: #A80036; stroke-width: 1.0;"/>
      <path d="M501.9688,420.5938 Q501.3906,420.8906 500.75,421.0313 Q500.1094,421.1875 499.4063,421.1875 Q496.9063,421.1875 495.5781,419.5469 Q494.2656,417.8906 494.2656,414.7656 Q494.2656,411.6406 495.5781,409.9844 Q496.9063,408.3281 499.4063,408.3281 Q500.1094,408.3281 500.75,408.4844 Q501.4063,408.6406 501.9688,408.9375 L501.9688,411.6563 Q501.3438,411.0781 500.75,410.8125 Q500.1563,410.5313 499.5313,410.5313 Q498.1875,410.5313 497.5,411.6094 Q496.8125,412.6719 496.8125,414.7656 Q496.8125,416.8594 497.5,417.9375 Q498.1875,419 499.5313,419 Q500.1563,419 500.75,418.7344 Q501.3438,418.4531 501.9688,417.875 L501.9688,420.5938 Z "/>
      <text fill="#000000" font-family="sans-serif" font-size="12" lengthAdjust="spacingAndGlyphs" textLength="51" x="513" y="419.1074">element</text>
      <line style="stroke: #A80036; stroke-width: 1.5;" x1="485" x2="566" y1="430.9531" y2="430.9531"/>
      <line style="stroke: #A80036; stroke-width: 1.5;" x1="485" x2="566" y1="438.9531" y2="438.9531"/>
    </a>
    <a href="classclanguml_1_1common_1_1model_1_1template__element.html" target="_top" title="Base class for any element qualified by namespace." xlink:actuate="onRequest" xlink:href="classclanguml_1_1common_1_1model_1_1template__element.html" xlink:show="new" xlink:title="Base class for any element qualified by namespace." xlink:type="simple">
      <rect fill="#FEFECE" filter="url(#f4eu9bhmb7jr2)" height="48" id="C_0013384831159811298387" style="stroke: #A80036; stroke-width: 1.5;" width="145" x="635" y="398.9531"/>
      <ellipse cx="650" cy="414.9531" fill="#ADD1B2" rx="11" ry="11" style="stroke: #A80036; stroke-width: 1.0;"/>
      <path d="M652.9688,420.5938 Q652.3906,420.8906 651.75,421.0313 Q651.1094,421.1875 650.4063,421.1875 Q647.9063,421.1875 646.5781,419.5469 Q645.2656,417.8906 645.2656,414.7656 Q645.2656,411.6406 646.5781,409.9844 Q647.9063,408.3281 650.4063,408.3281 Q651.1094,408.3281 651.75,408.4844 Q652.4063,408.6406 652.9688,408.9375 L652.9688,411.6563 Q652.3438,411.0781 651.75,410.8125 Q651.1563,410.5313 650.5313,410.5313 Q649.1875,410.5313 648.5,411.6094 Q647.8125,412.6719 647.8125,414.7656 Q647.8125,416.8594 648.5,417.9375 Q649.1875,419 650.5313,419 Q651.1563,419 651.75,418.7344 Q652.3438,418.4531 652.9688,417.875 L652.9688,420.5938 Z "/>
      <text fill="#000000" font-family="sans-serif" font-size="12" lengthAdjust="spacingAndGlyphs" textLength="113" x="664" y="419.1074">template_element</text>
      <line style="stroke: #A80036; stroke-width: 1.5;" x1="636" x2="779" y1="430.9531" y2="430.9531"/>
      <line style="stroke: #A80036; stroke-width: 1.5;" x1="636" x2="779" y1="438.9531" y2="438.9531"/>
    </a>
    <a href="classclanguml_1_1common_1_1model_1_1source__file.html" target="_top" title="Diagram element representing some file or directory." xlink:actuate="onRequest" xlink:href="classclanguml_1_1common_1_1model_1_1source__file.html" xlink:show="new" xlink:title="Diagram element representing some file or directory." xlink:type="simple">
      <rect fill="#FEFECE" filter="url(#f4eu9bhmb7jr2)" height="48" id="C_0006285717704576425038" style="stroke: #A80036; stroke-width: 1.5;" width="99" x="476" y="315.9531"/>
      <ellipse cx="491" cy="331.9531" fill="#ADD1B2" rx="11" ry="11" style="stroke: #A80036; stroke-width: 1.0;"/>
      <path d="M493.9688,337.5938 Q493.3906,337.8906 492.75,338.0313 Q492.1094,338.1875 491.4063,338.1875 Q488.9063,338.1875 487.5781,336.5469 Q486.2656,334.8906 486.2656,331.7656 Q486.2656,328.6406 487.5781,326.9844 Q488.9063,325.3281 491.4063,325.3281 Q492.1094,325.3281 492.75,325.4844 Q493.4063,325.6406 493.9688,325.9375 L493.9688,328.6563 Q493.3438,328.0781 492.75,327.8125 Q492.1563,327.5313 491.5313,327.5313 Q490.1875,327.5313 489.5,328.6094 Q488.8125,329.6719 488.8125,331.7656 Q488.8125,333.8594 489.5,334.9375 Q490.1875,336 491.5313,336 Q492.1563,336 492.75,335.7344 Q493.3438,335.4531 493.9688,334.875 L493.9688,337.5938 Z "/>
      <text fill="#000000" font-family="sans-serif" font-size="12" lengthAdjust="spacingAndGlyphs" textLength="67" x="505" y="336.1074">source_file</text>
      <line style="stroke: #A80036; stroke-width: 1.5;" x1="477" x2="574" y1="347.9531" y2="347.9531"/>
      <line style="stroke: #A80036; stroke-width: 1.5;" x1="477" x2="574" y1="355.9531" y2="355.9531"/>
    </a>
    <a href="classclanguml_1_1common_1_1model_1_1package.html" target="_top" title="Diagram element representing namespace or directory package" xlink:actuate="onRequest" xlink:href="classclanguml_1_1common_1_1model_1_1package.html" xlink:show="new" xlink:title="Diagram element representing namespace or directory package" xlink:type="simple">
      <rect fill="#FEFECE" filter="url(#f4eu9bhmb7jr2)" height="48" id="C_0017146293478645494837" style="stroke: #A80036; stroke-width: 1.5;" width="86" x="664.5" y="315.9531"/>
      <ellipse cx="679.5" cy="331.9531" fill="#ADD1B2" rx="11" ry="11" style="stroke: #A80036; stroke-width: 1.0;"/>
      <path d="M682.4688,337.5938 Q681.8906,337.8906 681.25,338.0313 Q680.6094,338.1875 679.9063,338.1875 Q677.4063,338.1875 676.0781,336.5469 Q674.7656,334.8906 674.7656,331.7656 Q674.7656,328.6406 676.0781,326.9844 Q677.4063,325.3281 679.9063,325.3281 Q680.6094,325.3281 681.25,325.4844 Q681.9063,325.6406 682.4688,325.9375 L682.4688,328.6563 Q681.8438,328.0781 681.25,327.8125 Q680.6563,327.5313 680.0313,327.5313 Q678.6875,327.5313 678,328.6094 Q677.3125,329.6719 677.3125,331.7656 Q677.3125,333.8594 678,334.9375 Q678.6875,336 680.0313,336 Q680.6563,336 681.25,335.7344 Q681.8438,335.4531 682.4688,334.875 L682.4688,337.5938 Z "/>
      <text fill="#000000" font-family="sans-serif" font-size="12" lengthAdjust="spacingAndGlyphs" textLength="54" x="693.5" y="336.1074">package</text>
      <line style="stroke: #A80036; stroke-width: 1.5;" x1="665.5" x2="749.5" y1="347.9531" y2="347.9531"/>
      <line style="stroke: #A80036; stroke-width: 1.5;" x1="665.5" x2="749.5" y1="355.9531" y2="355.9531"/>
    </a>
    <a href="classclanguml_1_1class__diagram_1_1model_1_1method__parameter.html" target="_top" title="Model of a method parameter." xlink:actuate="onRequest" xlink:href="classclanguml_1_1class__diagram_1_1model_1_1method__parameter.html" xlink:show="new" xlink:title="Model of a method parameter." xlink:type="simple">
      <rect fill="#FEFECE" filter="url(#f4eu9bhmb7jr2)" height="48" id="C_0004845352266951408403" style="stroke: #A80036; stroke-width: 1.5;" width="152" x="884" y="644.9531"/>
      <ellipse cx="899" cy="660.9531" fill="#ADD1B2" rx="11" ry="11" style="stroke: #A80036; stroke-width: 1.0;"/>
      <path d="M901.9688,666.5938 Q901.3906,666.8906 900.75,667.0313 Q900.1094,667.1875 899.4063,667.1875 Q896.9063,667.1875 895.5781,665.5469 Q894.2656,663.8906 894.2656,660.7656 Q894.2656,657.6406 895.5781,655.9844 Q896.9063,654.3281 899.4063,654.3281 Q900.1094,654.3281 900.75,654.4844 Q901.4063,654.6406 901.9688,654.9375 L901.9688,657.6563 Q901.3438,657.0781 900.75,656.8125 Q900.1563,656.5313 899.5313,656.5313 Q898.1875,656.5313 897.5,657.6094 Q896.8125,658.6719 896.8125,660.7656 Q896.8125,662.8594 897.5,663.9375 Q898.1875,665 899.5313,665 Q900.1563,665 900.75,664.7344 Q901.3438,664.4531 901.9688,663.875 L901.9688,666.5938 Z "/>
      <text fill="#000000" font-family="sans-serif" font-size="12" lengthAdjust="spacingAndGlyphs" textLength="120" x="913" y="665.1074">method_parameter</text>
      <line style="stroke: #A80036; stroke-width: 1.5;" x1="885" x2="1035" y1="676.9531" y2="676.9531"/>
      <line style="stroke: #A80036; stroke-width: 1.5;" x1="885" x2="1035" y1="684.9531" y2="684.9531"/>
    </a>
    <a href="classclanguml_1_1class__diagram_1_1model_1_1class__element.html" target="_top" title="Base class for class elements (e.g. member or method)." xlink:actuate="onRequest" xlink:href="classclanguml_1_1class__diagram_1_1model_1_1class__element.html" xlink:show="new" xlink:title="Base class for class elements (e.g. member or method)." xlink:type="simple">
      <rect fill="#FEFECE" filter="url(#f4eu9bhmb7jr2)" height="48" id="C_0004846934894930864299" style="stroke: #A80036; stroke-width: 1.5;" width="121" x="899.5" y="727.9531"/>
      <ellipse cx="914.5" cy="743.9531" fill="#ADD1B2" rx="11" ry="11" style="stroke: #A80036; stroke-width: 1.0;"/>
      <path d="M917.4688,749.5938 Q916.8906,749.8906 916.25,750.0313 Q915.6094,750.1875 914.9063,750.1875 Q912.4063,750.1875 911.0781,748.5469 Q909.7656,746.8906 909.7656,743.7656 Q909.7656,740.6406 911.0781,738.9844 Q912.4063,737.3281 914.9063,737.3281 Q915.6094,737.3281 916.25,737.4844 Q916.9063,737.6406 917.4688,737.9375 L917.4688,740.6563 Q916.8438,740.0781 916.25,739.8125 Q915.6563,739.5313 915.0313,739.5313 Q913.6875,739.5313 913,740.6094 Q912.3125,741.6719 912.3125,743.7656 Q912.3125,745.8594 913,746.9375 Q913.6875,748 915.0313,748 Q915.6563,748 916.25,747.7344 Q916.8438,747.4531 917.4688,746.875 L917.4688,749.5938 Z "/>
      <text fill="#000000" font-family="sans-serif" font-size="12" lengthAdjust="spacingAndGlyphs" textLength="89" x="928.5" y="748.1074">class_element</text>
      <line style="stroke: #A80036; stroke-width: 1.5;" x1="900.5" x2="1019.5" y1="759.9531" y2="759.9531"/>
      <line style="stroke: #A80036; stroke-width: 1.5;" x1="900.5" x2="1019.5" y1="767.9531" y2="767.9531"/>
    </a>
    <a href="classclanguml_1_1class__diagram_1_1model_1_1class__member.html" target="_top" title="Class member model." xlink:actuate="onRequest" xlink:href="classclanguml_1_1class__diagram_1_1model_1_1class__member.html" xlink:show="new" xlink:title="Class member model." xlink:type="simple">
      <rect fill="#FEFECE" filter="url(#f4eu9bhmb7jr2)" height="48" id="C_0014370262096868218046" style="stroke: #A80036; stroke-width: 1.5;" width="121" x="1096" y="727.9531"/>
      <ellipse cx="1111" cy="743.9531" fill="#ADD1B2" rx="11" ry="11" style="stroke: #A80036; stroke-width: 1.0;"/>
      <path d="M1113.9688,749.5938 Q1113.3906,749.8906 1112.75,750.0313 Q1112.1094,750.1875 1111.4063,750.1875 Q1108.9063,750.1875 1107.5781,748.5469 Q1106.2656,746.8906 1106.2656,743.7656 Q1106.2656,740.6406 1107.5781,738.9844 Q1108.9063,737.3281 1111.4063,737.3281 Q1112.1094,737.3281 1112.75,737.4844 Q1113.4063,737.6406 1113.9688,737.9375 L1113.9688,740.6563 Q1113.3438,740.0781 1112.75,739.8125 Q1112.1563,739.5313 1111.5313,739.5313 Q1110.1875,739.5313 1109.5,740.6094 Q1108.8125,741.6719 1108.8125,743.7656 Q1108.8125,745.8594 1109.5,746.9375 Q1110.1875,748 1111.5313,748 Q1112.1563,748 1112.75,747.7344 Q1113.3438,747.4531 1113.9688,746.875 L1113.9688,749.5938 Z "/>
      <text fill="#000000" font-family="sans-serif" font-size="12" lengthAdjust="spacingAndGlyphs" textLength="89" x="1125" y="748.1074">class_member</text>
      <line style="stroke: #A80036; stroke-width: 1.5;" x1="1097" x2="1216" y1="759.9531" y2="759.9531"/>
      <line style="stroke: #A80036; stroke-width: 1.5;" x1="1097" x2="1216" y1="767.9531" y2="767.9531"/>
    </a>
    <a href="classclanguml_1_1class__diagram_1_1model_1_1class__method.html" target="_top" title="Class method model." xlink:actuate="onRequest" xlink:href="classclanguml_1_1class__diagram_1_1model_1_1class__method.html" xlink:show="new" xlink:title="Class method model." xlink:type="simple">
      <rect fill="#FEFECE" filter="url(#f4eu9bhmb7jr2)" height="48" id="C_0001633165731746789371" style="stroke: #A80036; stroke-width: 1.5;" width="118" x="1097.5" y="644.9531"/>
      <ellipse cx="1112.5" cy="660.9531" fill="#ADD1B2" rx="11" ry="11" style="stroke: #A80036; stroke-width: 1.0;"/>
      <path d="M1115.4688,666.5938 Q1114.8906,666.8906 1114.25,667.0313 Q1113.6094,667.1875 1112.9063,667.1875 Q1110.4063,667.1875 1109.0781,665.5469 Q1107.7656,663.8906 1107.7656,660.7656 Q1107.7656,657.6406 1109.0781,655.9844 Q1110.4063,654.3281 1112.9063,654.3281 Q1113.6094,654.3281 1114.25,654.4844 Q1114.9063,654.6406 1115.4688,654.9375 L1115.4688,657.6563 Q1114.8438,657.0781 1114.25,656.8125 Q1113.6563,656.5313 1113.0313,656.5313 Q1111.6875,656.5313 1111,657.6094 Q1110.3125,658.6719 1110.3125,660.7656 Q1110.3125,662.8594 1111,663.9375 Q1111.6875,665 1113.0313,665 Q1113.6563,665 1114.25,664.7344 Q1114.8438,664.4531 1115.4688,663.875 L1115.4688,666.5938 Z "/>
      <text fill="#000000" font-family="sans-serif" font-size="12" lengthAdjust="spacingAndGlyphs" textLength="86" x="1126.5" y="665.1074">class_method</text>
      <line style="stroke: #A80036; stroke-width: 1.5;" x1="1098.5" x2="1214.5" y1="676.9531" y2="676.9531"/>
      <line style="stroke: #A80036; stroke-width: 1.5;" x1="1098.5" x2="1214.5" y1="684.9531" y2="684.9531"/>
    </a>
    <a href="classclanguml_1_1class__diagram_1_1model_1_1class__.html" target="_top" title="Diagram element representing a class or class template." xlink:actuate="onRequest" xlink:href="classclanguml_1_1class__diagram_1_1model_1_1class__.html" xlink:show="new" xlink:title="Diagram element representing a class or class template." xlink:type="simple">
      <rect fill="#FEFECE" filter="url(#f4eu9bhmb7jr2)" height="48" id="C_0010336274859733225462" style="stroke: #A80036; stroke-width: 1.5;" width="70" x="925" y="395.9531"/>
      <ellipse cx="940" cy="411.9531" fill="#ADD1B2" rx="11" ry="11" style="stroke: #A80036; stroke-width: 1.0;"/>
      <path d="M942.9688,417.5938 Q942.3906,417.8906 941.75,418.0313 Q941.1094,418.1875 940.4063,418.1875 Q937.9063,418.1875 936.5781,416.5469 Q935.2656,414.8906 935.2656,411.7656 Q935.2656,408.6406 936.5781,406.9844 Q937.9063,405.3281 940.4063,405.3281 Q941.1094,405.3281 941.75,405.4844 Q942.4063,405.6406 942.9688,405.9375 L942.9688,408.6563 Q942.3438,408.0781 941.75,407.8125 Q941.1563,407.5313 940.5313,407.5313 Q939.1875,407.5313 938.5,408.6094 Q937.8125,409.6719 937.8125,411.7656 Q937.8125,413.8594 938.5,414.9375 Q939.1875,416 940.5313,416 Q941.1563,416 941.75,415.7344 Q942.3438,415.4531 942.9688,414.875 L942.9688,417.5938 Z "/>
      <text fill="#000000" font-family="sans-serif" font-size="12" lengthAdjust="spacingAndGlyphs" textLength="38" x="954" y="416.1074">class_</text>
      <line style="stroke: #A80036; stroke-width: 1.5;" x1="926" x2="994" y1="427.9531" y2="427.9531"/>
      <line style="stroke: #A80036; stroke-width: 1.5;" x1="926" x2="994" y1="435.9531" y2="435.9531"/>
    </a>
    <a href="classclanguml_1_1class__diagram_1_1model_1_1concept__.html" target="_top" title="Model of C++ concept." xlink:actuate="onRequest" xlink:href="classclanguml_1_1class__diagram_1_1model_1_1concept__.html" xlink:show="new" xlink:title="Model of C++ concept." xlink:type="simple">
      <rect fill="#FEFECE" filter="url(#f4eu9bhmb7jr2)" height="48" id="C_0010998792414017796003" style="stroke: #A80036; stroke-width: 1.5;" width="89" x="915.5" y="478.9531"/>
      <ellipse cx="930.5" cy="494.9531" fill="#ADD1B2" rx="11" ry="11" style="stroke: #A80036; stroke-width: 1.0;"/>
      <path d="M933.4688,500.5938 Q932.8906,500.8906 932.25,501.0313 Q931.6094,501.1875 930.9063,501.1875 Q928.4063,501.1875 927.0781,499.5469 Q925.7656,497.8906 925.7656,494.7656 Q925.7656,491.6406 927.0781,489.9844 Q928.4063,488.3281 930.9063,488.3281 Q931.6094,488.3281 932.25,488.4844 Q932.9063,488.6406 933.4688,488.9375 L933.4688,491.6563 Q932.8438,491.0781 932.25,490.8125 Q931.6563,490.5313 931.0313,490.5313 Q929.6875,490.5313 929,491.6094 Q928.3125,492.6719 928.3125,494.7656 Q928.3125,496.8594 929,497.9375 Q929.6875,499 931.0313,499 Q931.6563,499 932.25,498.7344 Q932.8438,498.4531 933.4688,497.875 L933.4688,500.5938 Z "/>
      <text fill="#000000" font-family="sans-serif" font-size="12" lengthAdjust="spacingAndGlyphs" textLength="57" x="944.5" y="499.1074">concept_</text>
      <line style="stroke: #A80036; stroke-width: 1.5;" x1="916.5" x2="1003.5" y1="510.9531" y2="510.9531"/>
      <line style="stroke: #A80036; stroke-width: 1.5;" x1="916.5" x2="1003.5" y1="518.9531" y2="518.9531"/>
    </a>
    <a href="classclanguml_1_1class__diagram_1_1model_1_1enum__.html" target="_top" title="Diagram element representing an enum." xlink:actuate="onRequest" xlink:href="classclanguml_1_1class__diagram_1_1model_1_1enum__.html" xlink:show="new" xlink:title="Diagram element representing an enum." xlink:type="simple">
      <rect fill="#FEFECE" filter="url(#f4eu9bhmb7jr2)" height="48" id="C_0005795143816749204050" style="stroke: #A80036; stroke-width: 1.5;" width="73" x="923.5" y="561.9531"/>
      <ellipse cx="938.5" cy="577.9531" fill="#ADD1B2" rx="11" ry="11" style="stroke: #A80036; stroke-width: 1.0;"/>
      <path d="M941.4688,583.5938 Q940.8906,583.8906 940.25,584.0313 Q939.6094,584.1875 938.9063,584.1875 Q936.4063,584.1875 935.0781,582.5469 Q933.7656,580.8906 933.7656,577.7656 Q933.7656,574.6406 935.0781,572.9844 Q936.4063,571.3281 938.9063,571.3281 Q939.6094,571.3281 940.25,571.4844 Q940.9063,571.6406 941.4688,571.9375 L941.4688,574.6563 Q940.8438,574.0781 940.25,573.8125 Q939.6563,573.5313 939.0313,573.5313 Q937.6875,573.5313 937,574.6094 Q936.3125,575.6719 936.3125,577.7656 Q936.3125,579.8594 937,580.9375 Q937.6875,582 939.0313,582 Q939.6563,582 940.25,581.7344 Q940.8438,581.4531 941.4688,580.875 L941.4688,583.5938 Z "/>
      <text fill="#000000" font-family="sans-serif" font-size="12" lengthAdjust="spacingAndGlyphs" textLength="41" x="952.5" y="582.1074">enum_</text>
      <line style="stroke: #A80036; stroke-width: 1.5;" x1="924.5" x2="995.5" y1="593.9531" y2="593.9531"/>
      <line style="stroke: #A80036; stroke-width: 1.5;" x1="924.5" x2="995.5" y1="601.9531" y2="601.9531"/>
    </a>
    <a href="structclanguml_1_1sequence__diagram_1_1model_1_1participant.html" target="_top" title="Base class for various types of sequence diagram participants" xlink:actuate="onRequest" xlink:href="structclanguml_1_1sequence__diagram_1_1model_1_1participant.html" xlink:show="new" xlink:title="Base class for various types of sequence diagram participants" xlink:type="simple">
      <rect fill="#FEFECE" filter="url(#f4eu9bhmb7jr2)" height="48" id="C_0011201726182739961811" style="stroke: #A80036; stroke-width: 1.5;" width="100" x="910" y="205.9531"/>
      <ellipse cx="925" cy="221.9531" fill="#ADD1B2" rx="11" ry="11" style="stroke: #A80036; stroke-width: 1.0;"/>
      <path d="M927.9688,227.5938 Q927.3906,227.8906 926.75,228.0313 Q926.1094,228.1875 925.4063,228.1875 Q922.9063,228.1875 921.5781,226.5469 Q920.2656,224.8906 920.2656,221.7656 Q920.2656,218.6406 921.5781,216.9844 Q922.9063,215.3281 925.4063,215.3281 Q926.1094,215.3281 926.75,215.4844 Q927.4063,215.6406 927.9688,215.9375 L927.9688,218.6563 Q927.3438,218.0781 926.75,217.8125 Q926.1563,217.5313 925.5313,217.5313 Q924.1875,217.5313 923.5,218.6094 Q922.8125,219.6719 922.8125,221.7656 Q922.8125,223.8594 923.5,224.9375 Q924.1875,226 925.5313,226 Q926.1563,226 926.75,225.7344 Q927.3438,225.4531 927.9688,224.875 L927.9688,227.5938 Z "/>
      <text fill="#000000" font-family="sans-serif" font-size="12" lengthAdjust="spacingAndGlyphs" textLength="68" x="939" y="226.1074">participant</text>
      <line style="stroke: #A80036; stroke-width: 1.5;" x1="911" x2="1009" y1="237.9531" y2="237.9531"/>
      <line style="stroke: #A80036; stroke-width: 1.5;" x1="911" x2="1009" y1="245.9531" y2="245.9531"/>
    </a>
    <a href="structclanguml_1_1sequence__diagram_1_1model_1_1class__.html" target="_top" title="Sequence diagram participant representing a class." xlink:actuate="onRequest" xlink:href="structclanguml_1_1sequence__diagram_1_1model_1_1class__.html" xlink:show="new" xlink:title="Sequence diagram participant representing a class." xlink:type="simple">
      <rect fill="#FEFECE" filter="url(#f4eu9bhmb7jr2)" height="48" id="C_0007084118972955772881" style="stroke: #A80036; stroke-width: 1.5;" width="70" x="1121.5" y="205.9531"/>
      <ellipse cx="1136.5" cy="221.9531" fill="#ADD1B2" rx="11" ry="11" style="stroke: #A80036; stroke-width: 1.0;"/>
      <path d="M1139.4688,227.5938 Q1138.8906,227.8906 1138.25,228.0313 Q1137.6094,228.1875 1136.9063,228.1875 Q1134.4063,228.1875 1133.0781,226.5469 Q1131.7656,224.8906 1131.7656,221.7656 Q1131.7656,218.6406 1133.0781,216.9844 Q1134.4063,215.3281 1136.9063,215.3281 Q1137.6094,215.3281 1138.25,215.4844 Q1138.9063,215.6406 1139.4688,215.9375 L1139.4688,218.6563 Q1138.8438,218.0781 1138.25,217.8125 Q1137.6563,217.5313 1137.0313,217.5313 Q1135.6875,217.5313 1135,218.6094 Q1134.3125,219.6719 1134.3125,221.7656 Q1134.3125,223.8594 1135,224.9375 Q1135.6875,226 1137.0313,226 Q1137.6563,226 1138.25,225.7344 Q1138.8438,225.4531 1139.4688,224.875 L1139.4688,227.5938 Z "/>
      <text fill="#000000" font-family="sans-serif" font-size="12" lengthAdjust="spacingAndGlyphs" textLength="38" x="1150.5" y="226.1074">class_</text>
      <line style="stroke: #A80036; stroke-width: 1.5;" x1="1122.5" x2="1190.5" y1="237.9531" y2="237.9531"/>
      <line style="stroke: #A80036; stroke-width: 1.5;" x1="1122.5" x2="1190.5" y1="245.9531" y2="245.9531"/>
    </a>
    <a href="structclanguml_1_1sequence__diagram_1_1model_1_1function.html" target="_top" title="Participant mode representing a free function." xlink:actuate="onRequest" xlink:href="structclanguml_1_1sequence__diagram_1_1model_1_1function.html" xlink:show="new" xlink:title="Participant mode representing a free function." xlink:type="simple">
      <rect fill="#FEFECE" filter="url(#f4eu9bhmb7jr2)" height="48" id="C_0001861107648253454629" style="stroke: #A80036; stroke-width: 1.5;" width="83" x="1115" y="122.9531"/>
      <ellipse cx="1130" cy="138.9531" fill="#ADD1B2" rx="11" ry="11" style="stroke: #A80036; stroke-width: 1.0;"/>
      <path d="M1132.9688,144.5938 Q1132.3906,144.8906 1131.75,145.0313 Q1131.1094,145.1875 1130.4063,145.1875 Q1127.9063,145.1875 1126.5781,143.5469 Q1125.2656,141.8906 1125.2656,138.7656 Q1125.2656,135.6406 1126.5781,133.9844 Q1127.9063,132.3281 1130.4063,132.3281 Q1131.1094,132.3281 1131.75,132.4844 Q1132.4063,132.6406 1132.9688,132.9375 L1132.9688,135.6563 Q1132.3438,135.0781 1131.75,134.8125 Q1131.1563,134.5313 1130.5313,134.5313 Q1129.1875,134.5313 1128.5,135.6094 Q1127.8125,136.6719 1127.8125,138.7656 Q1127.8125,140.8594 1128.5,141.9375 Q1129.1875,143 1130.5313,143 Q1131.1563,143 1131.75,142.7344 Q1132.3438,142.4531 1132.9688,141.875 L1132.9688,144.5938 Z "/>
      <text fill="#000000" font-family="sans-serif" font-size="12" lengthAdjust="spacingAndGlyphs" textLength="51" x="1144" y="143.1074">function</text>
      <line style="stroke: #A80036; stroke-width: 1.5;" x1="1116" x2="1197" y1="154.9531" y2="154.9531"/>
      <line style="stroke: #A80036; stroke-width: 1.5;" x1="1116" x2="1197" y1="162.9531" y2="162.9531"/>
    </a>
    <a href="structclanguml_1_1sequence__diagram_1_1model_1_1method.html" target="_top" title="Participant model representing a method" xlink:actuate="onRequest" xlink:href="structclanguml_1_1sequence__diagram_1_1model_1_1method.html" xlink:show="new" xlink:title="Participant model representing a method" xlink:type="simple">
      <rect fill="#FEFECE" filter="url(#f4eu9bhmb7jr2)" height="48" id="C_0006541327780382276039" style="stroke: #A80036; stroke-width: 1.5;" width="80" x="1309.5" y="205.9531"/>
      <ellipse cx="1324.5" cy="221.9531" fill="#ADD1B2" rx="11" ry="11" style="stroke: #A80036; stroke-width: 1.0;"/>
      <path d="M1327.4688,227.5938 Q1326.8906,227.8906 1326.25,228.0313 Q1325.6094,228.1875 1324.9063,228.1875 Q1322.4063,228.1875 1321.0781,226.5469 Q1319.7656,224.8906 1319.7656,221.7656 Q1319.7656,218.6406 1321.0781,216.9844 Q1322.4063,215.3281 1324.9063,215.3281 Q1325.6094,215.3281 1326.25,215.4844 Q1326.9063,215.6406 1327.4688,215.9375 L1327.4688,218.6563 Q1326.8438,218.0781 1326.25,217.8125 Q1325.6563,217.5313 1325.0313,217.5313 Q1323.6875,217.5313 1323,218.6094 Q1322.3125,219.6719 1322.3125,221.7656 Q1322.3125,223.8594 1323,224.9375 Q1323.6875,226 1325.0313,226 Q1325.6563,226 1326.25,225.7344 Q1326.8438,225.4531 1327.4688,224.875 L1327.4688,227.5938 Z "/>
      <text fill="#000000" font-family="sans-serif" font-size="12" lengthAdjust="spacingAndGlyphs" textLength="48" x="1338.5" y="226.1074">method</text>
      <line style="stroke: #A80036; stroke-width: 1.5;" x1="1310.5" x2="1388.5" y1="237.9531" y2="237.9531"/>
      <line style="stroke: #A80036; stroke-width: 1.5;" x1="1310.5" x2="1388.5" y1="245.9531" y2="245.9531"/>
    </a>
    <a href="structclanguml_1_1sequence__diagram_1_1model_1_1function__template.html" target="_top" title="Participant model representing a function template." xlink:actuate="onRequest" xlink:href="structclanguml_1_1sequence__diagram_1_1model_1_1function__template.html" xlink:show="new" xlink:title="Participant model representing a function template." xlink:type="simple">
      <rect fill="#FEFECE" filter="url(#f4eu9bhmb7jr2)" height="48" id="C_0018241535739946484465" style="stroke: #A80036; stroke-width: 1.5;" width="145" x="1277" y="122.9531"/>
      <ellipse cx="1292" cy="138.9531" fill="#ADD1B2" rx="11" ry="11" style="stroke: #A80036; stroke-width: 1.0;"/>
      <path d="M1294.9688,144.5938 Q1294.3906,144.8906 1293.75,145.0313 Q1293.1094,145.1875 1292.4063,145.1875 Q1289.9063,145.1875 1288.5781,143.5469 Q1287.2656,141.8906 1287.2656,138.7656 Q1287.2656,135.6406 1288.5781,133.9844 Q1289.9063,132.3281 1292.4063,132.3281 Q1293.1094,132.3281 1293.75,132.4844 Q1294.4063,132.6406 1294.9688,132.9375 L1294.9688,135.6563 Q1294.3438,135.0781 1293.75,134.8125 Q1293.1563,134.5313 1292.5313,134.5313 Q1291.1875,134.5313 1290.5,135.6094 Q1289.8125,136.6719 1289.8125,138.7656 Q1289.8125,140.8594 1290.5,141.9375 Q1291.1875,143 1292.5313,143 Q1293.1563,143 1293.75,142.7344 Q1294.3438,142.4531 1294.9688,141.875 L1294.9688,144.5938 Z "/>
      <text fill="#000000" font-family="sans-serif" font-size="12" lengthAdjust="spacingAndGlyphs" textLength="113" x="1306" y="143.1074">function_template</text>
      <line style="stroke: #A80036; stroke-width: 1.5;" x1="1278" x2="1421" y1="154.9531" y2="154.9531"/>
      <line style="stroke: #A80036; stroke-width: 1.5;" x1="1278" x2="1421" y1="162.9531" y2="162.9531"/>
    </a>
    <a href="classclanguml_1_1sequence__diagram_1_1model_1_1message.html" target="_top" title="Model of a sequence diagram message." xlink:actuate="onRequest" xlink:href="classclanguml_1_1sequence__diagram_1_1model_1_1message.html" xlink:show="new" xlink:title="Model of a sequence diagram message." xlink:type="simple">
      <rect fill="#FEFECE" filter="url(#f4eu9bhmb7jr2)" height="48" id="C_0017829224549649886549" style="stroke: #A80036; stroke-width: 1.5;" width="89" x="915.5" y="122.9531"/>
      <ellipse cx="930.5" cy="138.9531" fill="#ADD1B2" rx="11" ry="11" style="stroke: #A80036; stroke-width: 1.0;"/>
      <path d="M933.4688,144.5938 Q932.8906,144.8906 932.25,145.0313 Q931.6094,145.1875 930.9063,145.1875 Q928.4063,145.1875 927.0781,143.5469 Q925.7656,141.8906 925.7656,138.7656 Q925.7656,135.6406 927.0781,133.9844 Q928.4063,132.3281 930.9063,132.3281 Q931.6094,132.3281 932.25,132.4844 Q932.9063,132.6406 933.4688,132.9375 L933.4688,135.6563 Q932.8438,135.0781 932.25,134.8125 Q931.6563,134.5313 931.0313,134.5313 Q929.6875,134.5313 929,135.6094 Q928.3125,136.6719 928.3125,138.7656 Q928.3125,140.8594 929,141.9375 Q929.6875,143 931.0313,143 Q931.6563,143 932.25,142.7344 Q932.8438,142.4531 933.4688,141.875 L933.4688,144.5938 Z "/>
      <text fill="#000000" font-family="sans-serif" font-size="12" lengthAdjust="spacingAndGlyphs" textLength="57" x="944.5" y="143.1074">message</text>
      <line style="stroke: #A80036; stroke-width: 1.5;" x1="916.5" x2="1003.5" y1="154.9531" y2="154.9531"/>
      <line style="stroke: #A80036; stroke-width: 1.5;" x1="916.5" x2="1003.5" y1="162.9531" y2="162.9531"/>
    </a>
    <path d="M236.13,339.9531 C255.63,339.9531 275.44,339.9531 292.72,339.9531 " fill="none" id="C_0008936819060997384951&lt;-C_0016370694070378943411" style="stroke: #A80036; stroke-width: 1.0;"/>
    <polygon fill="none" points="236.04,346.9531,216.04,339.9531,236.04,332.9531,236.04,346.9531" style="stroke: #A80036; stroke-width: 1.0;"/>
    <path d="M218.01,371.5331 C240.38,380.5931 264.41,390.3231 285.48,398.8531 " fill="none" id="C_0008936819060997384951&lt;-C_0008588005715032923314" style="stroke: #A80036; stroke-width: 1.0;"/>
    <polygon fill="none" points="215.21,377.9531,199.29,363.9631,220.46,364.9731,215.21,377.9531" style="stroke: #A80036; stroke-width: 1.0;"/>
    <path d="M224.82,422.9531 C241.78,422.9531 259.41,422.9531 275.78,422.9531 " fill="none" id="C_0007162092657467521843&lt;-C_0008588005715032923314" style="stroke: #A80036; stroke-width: 1.0;"/>
    <polygon fill="none" points="224.58,429.9531,204.58,422.9531,224.58,415.9531,224.58,429.9531" style="stroke: #A80036; stroke-width: 1.0;"/>
    <path d="M436.27,422.9531 C452.9,422.9531 469.51,422.9531 483.75,422.9531 " fill="none" id="C_0008588005715032923314&lt;-C_0016556163051475263500" style="stroke: #A80036; stroke-width: 1.0;"/>
    <polygon fill="none" points="436.13,429.9531,416.13,422.9531,436.13,415.9531,436.13,429.9531" style="stroke: #A80036; stroke-width: 1.0;"/>
    <path d="M587.44,422.9531 C602.63,422.9531 619.05,422.9531 634.71,422.9531 " fill="none" id="C_0016556163051475263500&lt;-C_0013384831159811298387" style="stroke: #A80036; stroke-width: 1.0;"/>
    <polygon fill="none" points="587.34,429.9531,567.34,422.9531,587.34,415.9531,587.34,429.9531" style="stroke: #A80036; stroke-width: 1.0;"/>
    <path d="M416.72,390.3531 C436.45,381.1231 457.5,371.2831 475.71,362.7631 " fill="none" id="C_0008588005715032923314&lt;-C_0006285717704576425038" style="stroke: #A80036; stroke-width: 1.0;"/>
    <polygon fill="none" points="419.42,396.8131,398.34,398.9431,413.49,384.1331,419.42,396.8131" style="stroke: #A80036; stroke-width: 1.0;"/>
    <path d="M585.65,395.6731 C611.34,383.8331 640.83,370.2331 664.25,359.4331 " fill="none" id="C_0016556163051475263500&lt;-C_0017146293478645494837" style="stroke: #A80036; stroke-width: 1.0;"/>
    <polygon fill="none" points="588.44,402.1031,567.34,404.1231,582.58,389.3831,588.44,402.1031" style="stroke: #A80036; stroke-width: 1.0;"/>
    <path d="M209.05,375.2931 C211.45,377.1231 213.78,379.0031 216,380.9531 C250.23,410.9631 238.92,437.5631 276,463.9531 C467.39,600.1731 750.3,647.0831 883.9,662.2431 " fill="none" id="C_0008936819060997384951&lt;-C_0004845352266951408403" style="stroke: #A80036; stroke-width: 1.0;"/>
    <polygon fill="none" points="205.07,381.0531,192.35,364.1131,212.86,369.4231,205.07,381.0531" style="stroke: #A80036; stroke-width: 1.0;"/>
    <path d="M211.88,376.5431 C213.31,377.9631 214.69,379.4331 216,380.9531 C267.22,440.3731 219.58,492.4431 276,546.9531 C453.39,718.3631 768.4,747.1331 899.34,751.4631 " fill="none" id="C_0008936819060997384951&lt;-C_0004846934894930864299" style="stroke: #A80036; stroke-width: 1.0;"/>
    <polygon fill="none" points="207.49,381.9931,196.26,364.0231,216.24,371.0731,207.49,381.9931" style="stroke: #A80036; stroke-width: 1.0;"/>
    <path d="M144.29,467.2031 C153.84,538.5031 183.88,677.0431 276,738.9531 C470.66,869.7631 772.13,806.2431 899.24,770.5631 " fill="none" id="C_0007162092657467521843&lt;-C_0004846934894930864299" style="stroke: #A80036; stroke-width: 1.0;"/>
    <polygon fill="none" points="137.3,467.6831,141.9,447.0031,151.2,466.0331,137.3,467.6831" style="stroke: #A80036; stroke-width: 1.0;"/>
    <path d="M1040.94,751.9531 C1059.33,751.9531 1078.58,751.9531 1095.93,751.9531 " fill="none" id="C_0004846934894930864299&lt;-C_0014370262096868218046" style="stroke: #A80036; stroke-width: 1.0;"/>
    <polygon fill="none" points="1040.68,758.9531,1020.68,751.9531,1040.68,744.9531,1040.68,758.9531" style="stroke: #A80036; stroke-width: 1.0;"/>
    <path d="M1035.97,719.9631 C1056.93,711.0131 1079.34,701.4531 1099.03,693.0531 " fill="none" id="C_0004846934894930864299&lt;-C_0001633165731746789371" style="stroke: #A80036; stroke-width: 1.0;"/>
    <polygon fill="none" points="1038.4,726.5331,1017.26,727.9431,1032.91,713.6531,1038.4,726.5331" style="stroke: #A80036; stroke-width: 1.0;"/>
    <path d="M800.35,421.8531 C843.68,421.3331 892.77,420.7431 924.72,420.3631 " fill="none" id="C_0013384831159811298387&lt;-C_0010336274859733225462" style="stroke: #A80036; stroke-width: 1.0;"/>
    <polygon fill="none" points="800.37,428.8531,780.28,422.0931,800.2,414.8531,800.37,428.8531" style="stroke: #A80036; stroke-width: 1.0;"/>
    <path d="M585.9,448.3431 C601.62,454.2531 618.75,459.9631 635,463.9531 C733.49,488.1131 852.66,497.5531 915.43,501.0431 " fill="none" id="C_0016556163051475263500&lt;-C_0010998792414017796003" style="stroke: #A80036; stroke-width: 1.0;"/>
    <polygon fill="none" points="583.29,454.8431,567.23,441.0231,588.41,441.8131,583.29,454.8431" style="stroke: #A80036; stroke-width: 1.0;"/>
    <path d="M568.71,460.0031 C587.86,475.1831 611.45,491.7831 635,502.9531 C733.62,549.7531 862.13,572.5731 923.44,581.4031 " fill="none" id="C_0016556163051475263500&lt;-C_0005795143816749204050" style="stroke: #A80036; stroke-width: 1.0;"/>
    <polygon fill="none" points="564.14,465.3131,553.15,447.1931,573.04,454.5031,564.14,465.3131" style="stroke: #A80036; stroke-width: 1.0;"/>
    <path d="M798.83,396.9731 C809.06,392.3731 819.02,387.0531 828,380.9531 C878.94,346.3131 922.22,287.1231 943.97,254.0731 " fill="none" id="C_0013384831159811298387&lt;-C_0011201726182739961811" style="stroke: #A80036; stroke-width: 1.0;"/>
    <polygon fill="none" points="801.44,403.4631,780.28,404.4931,796.18,390.4931,801.44,403.4631" style="stroke: #A80036; stroke-width: 1.0;"/>
    <path d="M1030.18,229.9531 C1061.16,229.9531 1096.28,229.9531 1121.45,229.9531 " fill="none" id="C_0011201726182739961811&lt;-C_0007084118972955772881" style="stroke: #A80036; stroke-width: 1.0;"/>
    <polygon fill="none" points="1030.08,236.9531,1010.08,229.9531,1030.08,222.9531,1030.08,236.9531" style="stroke: #A80036; stroke-width: 1.0;"/>
    <path d="M1028.77,201.0331 C1057.51,188.7631 1090.05,174.8831 1114.96,164.2531 " fill="none" id="C_0011201726182739961811&lt;-C_0001861107648253454629" style="stroke: #A80036; stroke-width: 1.0;"/>
    <polygon fill="none" points="1031.22,207.5931,1010.08,209.0131,1025.73,194.7231,1031.22,207.5931" style="stroke: #A80036; stroke-width: 1.0;"/>
    <path d="M1217,168.4131 C1232.74,174.4231 1249.62,181.1731 1265,187.9531 C1279.7,194.4331 1295.52,202.1831 1309.39,209.2531 " fill="none" id="C_0001861107648253454629&lt;-C_0006541327780382276039" style="stroke: #A80036; stroke-width: 1.0;"/>
    <polygon fill="none" points="1214.49,174.9431,1198.22,161.3731,1219.41,161.8331,1214.49,174.9431" style="stroke: #A80036; stroke-width: 1.0;"/>
    <path d="M1218.03,146.9531 C1236.71,146.9531 1257.46,146.9531 1276.81,146.9531 " fill="none" id="C_0001861107648253454629&lt;-C_0018241535739946484465" style="stroke: #A80036; stroke-width: 1.0;"/>
    <polygon fill="none" points="1218.01,153.9531,1198.01,146.9531,1218.01,139.9531,1218.01,153.9531" style="stroke: #A80036; stroke-width: 1.0;"/>
    <path d="M409.13,386.8731 C411.51,384.9531 413.81,382.9731 416,380.9531 C449.43,350.0631 439.06,324.5431 476,297.9531 C615.93,197.2231 825.17,162.1931 915.22,151.3331 " fill="none" id="C_0008588005715032923314&lt;-C_0017829224549649886549" style="stroke: #A80036; stroke-width: 1.0;"/>
    <polygon fill="none" points="412.97,392.7331,392.65,398.7431,404.79,381.3731,412.97,392.7331" style="stroke: #A80036; stroke-width: 1.0;"/>
  </g>
</svg>
