<svg xmlns="http://www.w3.org/2000/svg" xmlns:xlink="http://www.w3.org/1999/xlink" contentScriptType="application/ecmascript" contentStyleType="text/css" height="1272px" preserveAspectRatio="none" style="width:1398px;height:1272px;" version="1.1" viewBox="0 0 1398 1272" width="1398px" zoomAndPan="magnify">
  <defs>
    <filter height="300%" id="f11yrodgbhifk4" width="300%" x="-1" y="-1">
      <feGaussianBlur result="blurOut" stdDeviation="2.0"/>
      <feColorMatrix in="blurOut" result="blurOut2" type="matrix" values="0 0 0 0 0 0 0 0 0 0 0 0 0 0 0 0 0 0 .4 0"/>
      <feOffset dx="4.0" dy="4.0" in="blurOut2" result="blurOut3"/>
      <feBlend in="SourceGraphic" in2="blurOut3" mode="normal"/>
    </filter>
    <style type="text/css">a:hover { text-decoration: underline; }</style>
  </defs>
  <g>
    <polygon fill="#FFFFFF" filter="url(#f11yrodgbhifk4)" points="22,24,95,24,102,46.2969,1376,46.2969,1376,1260,22,1260,22,24" style="stroke: #000000; stroke-width: 1.5;"/>
    <line style="stroke: #000000; stroke-width: 1.5;" x1="22" x2="102" y1="46.2969" y2="46.2969"/>
    <text fill="#000000" font-family="sans-serif" font-size="14" font-weight="bold" lengthAdjust="spacingAndGlyphs" textLength="67" x="26" y="38.9951">common</text>
    <polygon fill="#FFFFFF" filter="url(#f11yrodgbhifk4)" points="46,67,100,67,107,89.2969,1352,89.2969,1352,1236,46,1236,46,67" style="stroke: #000000; stroke-width: 1.5;"/>
    <line style="stroke: #000000; stroke-width: 1.5;" x1="46" x2="107" y1="89.2969" y2="89.2969"/>
    <text fill="#000000" font-family="sans-serif" font-size="14" font-weight="bold" lengthAdjust="spacingAndGlyphs" textLength="48" x="50" y="81.9951">model</text>
    <a href="classclanguml_1_1common_1_1model_1_1filter__visitor.html" target="_top" title="Base class for any diagram filter." xlink:actuate="onRequest" xlink:href="classclanguml_1_1common_1_1model_1_1filter__visitor.html" xlink:show="new" xlink:title="Base class for any diagram filter." xlink:type="simple">
      <rect fill="#FEFECE" filter="url(#f11yrodgbhifk4)" height="48" id="C_0000469458052685692314" style="stroke: #A80036; stroke-width: 1.5;" width="103" x="62" y="643"/>
      <ellipse cx="77" cy="659" fill="#ADD1B2" rx="11" ry="11" style="stroke: #A80036; stroke-width: 1.0;"/>
      <path d="M79.9688,664.6406 Q79.3906,664.9375 78.75,665.0781 Q78.1094,665.2344 77.4063,665.2344 Q74.9063,665.2344 73.5781,663.5938 Q72.2656,661.9375 72.2656,658.8125 Q72.2656,655.6875 73.5781,654.0313 Q74.9063,652.375 77.4063,652.375 Q78.1094,652.375 78.75,652.5313 Q79.4063,652.6875 79.9688,652.9844 L79.9688,655.7031 Q79.3438,655.125 78.75,654.8594 Q78.1563,654.5781 77.5313,654.5781 Q76.1875,654.5781 75.5,655.6563 Q74.8125,656.7188 74.8125,658.8125 Q74.8125,660.9063 75.5,661.9844 Q76.1875,663.0469 77.5313,663.0469 Q78.1563,663.0469 78.75,662.7813 Q79.3438,662.5 79.9688,661.9219 L79.9688,664.6406 Z "/>
      <text fill="#000000" font-family="sans-serif" font-size="12" lengthAdjust="spacingAndGlyphs" textLength="71" x="91" y="663.1543">filter_visitor</text>
      <line style="stroke: #A80036; stroke-width: 1.5;" x1="63" x2="164" y1="675" y2="675"/>
      <line style="stroke: #A80036; stroke-width: 1.5;" x1="63" x2="164" y1="683" y2="683"/>
    </a>
    <a href="structclanguml_1_1common_1_1model_1_1anyof__filter.html" target="_top" title="anyof_filter" xlink:actuate="onRequest" xlink:href="structclanguml_1_1common_1_1model_1_1anyof__filter.html" xlink:show="new" xlink:title="anyof_filter" xlink:type="simple">
      <rect fill="#FEFECE" filter="url(#f11yrodgbhifk4)" height="48" id="C_0000605829206649563575" style="stroke: #A80036; stroke-width: 1.5;" width="100" x="584.5" y="637"/>
      <ellipse cx="599.5" cy="653" fill="#ADD1B2" rx="11" ry="11" style="stroke: #A80036; stroke-width: 1.0;"/>
      <path d="M602.4688,658.6406 Q601.8906,658.9375 601.25,659.0781 Q600.6094,659.2344 599.9063,659.2344 Q597.4063,659.2344 596.0781,657.5938 Q594.7656,655.9375 594.7656,652.8125 Q594.7656,649.6875 596.0781,648.0313 Q597.4063,646.375 599.9063,646.375 Q600.6094,646.375 601.25,646.5313 Q601.9063,646.6875 602.4688,646.9844 L602.4688,649.7031 Q601.8438,649.125 601.25,648.8594 Q600.6563,648.5781 600.0313,648.5781 Q598.6875,648.5781 598,649.6563 Q597.3125,650.7188 597.3125,652.8125 Q597.3125,654.9063 598,655.9844 Q598.6875,657.0469 600.0313,657.0469 Q600.6563,657.0469 601.25,656.7813 Q601.8438,656.5 602.4688,655.9219 L602.4688,658.6406 Z "/>
      <text fill="#000000" font-family="sans-serif" font-size="12" lengthAdjust="spacingAndGlyphs" textLength="68" x="613.5" y="657.1543">anyof_filter</text>
      <line style="stroke: #A80036; stroke-width: 1.5;" x1="585.5" x2="683.5" y1="669" y2="669"/>
      <line style="stroke: #A80036; stroke-width: 1.5;" x1="585.5" x2="683.5" y1="677" y2="677"/>
    </a>
    <a href="structclanguml_1_1common_1_1model_1_1namespace__filter.html" target="_top" title="namespace_filter" xlink:actuate="onRequest" xlink:href="structclanguml_1_1common_1_1model_1_1namespace__filter.html" xlink:show="new" xlink:title="namespace_filter" xlink:type="simple">
      <rect fill="#FEFECE" filter="url(#f11yrodgbhifk4)" height="48" id="C_0001816240256470820189" style="stroke: #A80036; stroke-width: 1.5;" width="139" x="565" y="1172"/>
      <ellipse cx="580" cy="1188" fill="#ADD1B2" rx="11" ry="11" style="stroke: #A80036; stroke-width: 1.0;"/>
      <path d="M582.9688,1193.6406 Q582.3906,1193.9375 581.75,1194.0781 Q581.1094,1194.2344 580.4063,1194.2344 Q577.9063,1194.2344 576.5781,1192.5938 Q575.2656,1190.9375 575.2656,1187.8125 Q575.2656,1184.6875 576.5781,1183.0313 Q577.9063,1181.375 580.4063,1181.375 Q581.1094,1181.375 581.75,1181.5313 Q582.4063,1181.6875 582.9688,1181.9844 L582.9688,1184.7031 Q582.3438,1184.125 581.75,1183.8594 Q581.1563,1183.5781 580.5313,1183.5781 Q579.1875,1183.5781 578.5,1184.6563 Q577.8125,1185.7188 577.8125,1187.8125 Q577.8125,1189.9063 578.5,1190.9844 Q579.1875,1192.0469 580.5313,1192.0469 Q581.1563,1192.0469 581.75,1191.7813 Q582.3438,1191.5 582.9688,1190.9219 L582.9688,1193.6406 Z "/>
      <text fill="#000000" font-family="sans-serif" font-size="12" lengthAdjust="spacingAndGlyphs" textLength="107" x="594" y="1192.1543">namespace_filter</text>
      <line style="stroke: #A80036; stroke-width: 1.5;" x1="566" x2="703" y1="1204" y2="1204"/>
      <line style="stroke: #A80036; stroke-width: 1.5;" x1="566" x2="703" y1="1212" y2="1212"/>
    </a>
    <a href="structclanguml_1_1common_1_1model_1_1element__filter.html" target="_top" title="element_filter" xlink:actuate="onRequest" xlink:href="structclanguml_1_1common_1_1model_1_1element__filter.html" xlink:show="new" xlink:title="element_filter" xlink:type="simple">
      <rect fill="#FEFECE" filter="url(#f11yrodgbhifk4)" height="48" id="C_0000690341236618660423" style="stroke: #A80036; stroke-width: 1.5;" width="117" x="576" y="1089"/>
      <ellipse cx="591" cy="1105" fill="#ADD1B2" rx="11" ry="11" style="stroke: #A80036; stroke-width: 1.0;"/>
      <path d="M593.9688,1110.6406 Q593.3906,1110.9375 592.75,1111.0781 Q592.1094,1111.2344 591.4063,1111.2344 Q588.9063,1111.2344 587.5781,1109.5938 Q586.2656,1107.9375 586.2656,1104.8125 Q586.2656,1101.6875 587.5781,1100.0313 Q588.9063,1098.375 591.4063,1098.375 Q592.1094,1098.375 592.75,1098.5313 Q593.4063,1098.6875 593.9688,1098.9844 L593.9688,1101.7031 Q593.3438,1101.125 592.75,1100.8594 Q592.1563,1100.5781 591.5313,1100.5781 Q590.1875,1100.5781 589.5,1101.6563 Q588.8125,1102.7188 588.8125,1104.8125 Q588.8125,1106.9063 589.5,1107.9844 Q590.1875,1109.0469 591.5313,1109.0469 Q592.1563,1109.0469 592.75,1108.7813 Q593.3438,1108.5 593.9688,1107.9219 L593.9688,1110.6406 Z "/>
      <text fill="#000000" font-family="sans-serif" font-size="12" lengthAdjust="spacingAndGlyphs" textLength="85" x="605" y="1109.1543">element_filter</text>
      <line style="stroke: #A80036; stroke-width: 1.5;" x1="577" x2="692" y1="1121" y2="1121"/>
      <line style="stroke: #A80036; stroke-width: 1.5;" x1="577" x2="692" y1="1129" y2="1129"/>
    </a>
    <a href="structclanguml_1_1common_1_1model_1_1element__type__filter.html" target="_top" title="element_type_filter" xlink:actuate="onRequest" xlink:href="structclanguml_1_1common_1_1model_1_1element__type__filter.html" xlink:show="new" xlink:title="element_type_filter" xlink:type="simple">
      <rect fill="#FEFECE" filter="url(#f11yrodgbhifk4)" height="48" id="C_0002051668456717902300" style="stroke: #A80036; stroke-width: 1.5;" width="150" x="559.5" y="1006"/>
      <ellipse cx="574.5" cy="1022" fill="#ADD1B2" rx="11" ry="11" style="stroke: #A80036; stroke-width: 1.0;"/>
      <path d="M577.4688,1027.6406 Q576.8906,1027.9375 576.25,1028.0781 Q575.6094,1028.2344 574.9063,1028.2344 Q572.4063,1028.2344 571.0781,1026.5938 Q569.7656,1024.9375 569.7656,1021.8125 Q569.7656,1018.6875 571.0781,1017.0313 Q572.4063,1015.375 574.9063,1015.375 Q575.6094,1015.375 576.25,1015.5313 Q576.9063,1015.6875 577.4688,1015.9844 L577.4688,1018.7031 Q576.8438,1018.125 576.25,1017.8594 Q575.6563,1017.5781 575.0313,1017.5781 Q573.6875,1017.5781 573,1018.6563 Q572.3125,1019.7188 572.3125,1021.8125 Q572.3125,1023.9063 573,1024.9844 Q573.6875,1026.0469 575.0313,1026.0469 Q575.6563,1026.0469 576.25,1025.7813 Q576.8438,1025.5 577.4688,1024.9219 L577.4688,1027.6406 Z "/>
      <text fill="#000000" font-family="sans-serif" font-size="12" lengthAdjust="spacingAndGlyphs" textLength="118" x="588.5" y="1026.1543">element_type_filter</text>
      <line style="stroke: #A80036; stroke-width: 1.5;" x1="560.5" x2="708.5" y1="1038" y2="1038"/>
      <line style="stroke: #A80036; stroke-width: 1.5;" x1="560.5" x2="708.5" y1="1046" y2="1046"/>
    </a>
    <a href="structclanguml_1_1common_1_1model_1_1method__type__filter.html" target="_top" title="method_type_filter" xlink:actuate="onRequest" xlink:href="structclanguml_1_1common_1_1model_1_1method__type__filter.html" xlink:show="new" xlink:title="method_type_filter" xlink:type="simple">
      <rect fill="#FEFECE" filter="url(#f11yrodgbhifk4)" height="48" id="C_0001897369211795036987" style="stroke: #A80036; stroke-width: 1.5;" width="147" x="1189" y="607"/>
      <ellipse cx="1204" cy="623" fill="#ADD1B2" rx="11" ry="11" style="stroke: #A80036; stroke-width: 1.0;"/>
      <path d="M1206.9688,628.6406 Q1206.3906,628.9375 1205.75,629.0781 Q1205.1094,629.2344 1204.4063,629.2344 Q1201.9063,629.2344 1200.5781,627.5938 Q1199.2656,625.9375 1199.2656,622.8125 Q1199.2656,619.6875 1200.5781,618.0313 Q1201.9063,616.375 1204.4063,616.375 Q1205.1094,616.375 1205.75,616.5313 Q1206.4063,616.6875 1206.9688,616.9844 L1206.9688,619.7031 Q1206.3438,619.125 1205.75,618.8594 Q1205.1563,618.5781 1204.5313,618.5781 Q1203.1875,618.5781 1202.5,619.6563 Q1201.8125,620.7188 1201.8125,622.8125 Q1201.8125,624.9063 1202.5,625.9844 Q1203.1875,627.0469 1204.5313,627.0469 Q1205.1563,627.0469 1205.75,626.7813 Q1206.3438,626.5 1206.9688,625.9219 L1206.9688,628.6406 Z "/>
      <text fill="#000000" font-family="sans-serif" font-size="12" lengthAdjust="spacingAndGlyphs" textLength="115" x="1218" y="627.1543">method_type_filter</text>
      <line style="stroke: #A80036; stroke-width: 1.5;" x1="1190" x2="1335" y1="639" y2="639"/>
      <line style="stroke: #A80036; stroke-width: 1.5;" x1="1190" x2="1335" y1="647" y2="647"/>
    </a>
    <a href="structclanguml_1_1common_1_1model_1_1callee__filter.html" target="_top" title="callee_filter" xlink:actuate="onRequest" xlink:href="structclanguml_1_1common_1_1model_1_1callee__filter.html" xlink:show="new" xlink:title="callee_filter" xlink:type="simple">
      <rect fill="#FEFECE" filter="url(#f11yrodgbhifk4)" height="48" id="C_0001198341195117879139" style="stroke: #A80036; stroke-width: 1.5;" width="103" x="583" y="886"/>
      <ellipse cx="598" cy="902" fill="#ADD1B2" rx="11" ry="11" style="stroke: #A80036; stroke-width: 1.0;"/>
      <path d="M600.9688,907.6406 Q600.3906,907.9375 599.75,908.0781 Q599.1094,908.2344 598.4063,908.2344 Q595.9063,908.2344 594.5781,906.5938 Q593.2656,904.9375 593.2656,901.8125 Q593.2656,898.6875 594.5781,897.0313 Q595.9063,895.375 598.4063,895.375 Q599.1094,895.375 599.75,895.5313 Q600.4063,895.6875 600.9688,895.9844 L600.9688,898.7031 Q600.3438,898.125 599.75,897.8594 Q599.1563,897.5781 598.5313,897.5781 Q597.1875,897.5781 596.5,898.6563 Q595.8125,899.7188 595.8125,901.8125 Q595.8125,903.9063 596.5,904.9844 Q597.1875,906.0469 598.5313,906.0469 Q599.1563,906.0469 599.75,905.7813 Q600.3438,905.5 600.9688,904.9219 L600.9688,907.6406 Z "/>
      <text fill="#000000" font-family="sans-serif" font-size="12" lengthAdjust="spacingAndGlyphs" textLength="71" x="612" y="906.1543">callee_filter</text>
      <line style="stroke: #A80036; stroke-width: 1.5;" x1="584" x2="685" y1="918" y2="918"/>
      <line style="stroke: #A80036; stroke-width: 1.5;" x1="584" x2="685" y1="926" y2="926"/>
    </a>
    <a href="structclanguml_1_1common_1_1model_1_1subclass__filter.html" target="_top" title="subclass_filter" xlink:actuate="onRequest" xlink:href="structclanguml_1_1common_1_1model_1_1subclass__filter.html" xlink:show="new" xlink:title="subclass_filter" xlink:type="simple">
      <rect fill="#FEFECE" filter="url(#f11yrodgbhifk4)" height="48" id="C_0001389919526184251760" style="stroke: #A80036; stroke-width: 1.5;" width="121" x="574" y="803"/>
      <ellipse cx="589" cy="819" fill="#ADD1B2" rx="11" ry="11" style="stroke: #A80036; stroke-width: 1.0;"/>
      <path d="M591.9688,824.6406 Q591.3906,824.9375 590.75,825.0781 Q590.1094,825.2344 589.4063,825.2344 Q586.9063,825.2344 585.5781,823.5938 Q584.2656,821.9375 584.2656,818.8125 Q584.2656,815.6875 585.5781,814.0313 Q586.9063,812.375 589.4063,812.375 Q590.1094,812.375 590.75,812.5313 Q591.4063,812.6875 591.9688,812.9844 L591.9688,815.7031 Q591.3438,815.125 590.75,814.8594 Q590.1563,814.5781 589.5313,814.5781 Q588.1875,814.5781 587.5,815.6563 Q586.8125,816.7188 586.8125,818.8125 Q586.8125,820.9063 587.5,821.9844 Q588.1875,823.0469 589.5313,823.0469 Q590.1563,823.0469 590.75,822.7813 Q591.3438,822.5 591.9688,821.9219 L591.9688,824.6406 Z "/>
      <text fill="#000000" font-family="sans-serif" font-size="12" lengthAdjust="spacingAndGlyphs" textLength="89" x="603" y="823.1543">subclass_filter</text>
      <line style="stroke: #A80036; stroke-width: 1.5;" x1="575" x2="694" y1="835" y2="835"/>
      <line style="stroke: #A80036; stroke-width: 1.5;" x1="575" x2="694" y1="843" y2="843"/>
    </a>
    <a href="structclanguml_1_1common_1_1model_1_1parents__filter.html" target="_top" title="parents_filter" xlink:actuate="onRequest" xlink:href="structclanguml_1_1common_1_1model_1_1parents__filter.html" xlink:show="new" xlink:title="parents_filter" xlink:type="simple">
      <rect fill="#FEFECE" filter="url(#f11yrodgbhifk4)" height="48" id="C_0001773753487119877542" style="stroke: #A80036; stroke-width: 1.5;" width="115" x="577" y="720"/>
      <ellipse cx="592" cy="736" fill="#ADD1B2" rx="11" ry="11" style="stroke: #A80036; stroke-width: 1.0;"/>
      <path d="M594.9688,741.6406 Q594.3906,741.9375 593.75,742.0781 Q593.1094,742.2344 592.4063,742.2344 Q589.9063,742.2344 588.5781,740.5938 Q587.2656,738.9375 587.2656,735.8125 Q587.2656,732.6875 588.5781,731.0313 Q589.9063,729.375 592.4063,729.375 Q593.1094,729.375 593.75,729.5313 Q594.4063,729.6875 594.9688,729.9844 L594.9688,732.7031 Q594.3438,732.125 593.75,731.8594 Q593.1563,731.5781 592.5313,731.5781 Q591.1875,731.5781 590.5,732.6563 Q589.8125,733.7188 589.8125,735.8125 Q589.8125,737.9063 590.5,738.9844 Q591.1875,740.0469 592.5313,740.0469 Q593.1563,740.0469 593.75,739.7813 Q594.3438,739.5 594.9688,738.9219 L594.9688,741.6406 Z "/>
      <text fill="#000000" font-family="sans-serif" font-size="12" lengthAdjust="spacingAndGlyphs" textLength="83" x="606" y="740.1543">parents_filter</text>
      <line style="stroke: #A80036; stroke-width: 1.5;" x1="578" x2="691" y1="752" y2="752"/>
      <line style="stroke: #A80036; stroke-width: 1.5;" x1="578" x2="691" y1="760" y2="760"/>
    </a>
    <a href="structclanguml_1_1common_1_1model_1_1edge__traversal__filter.html" target="_top" title="Common template for filters involving traversing relationship graph." xlink:actuate="onRequest" xlink:href="structclanguml_1_1common_1_1model_1_1edge__traversal__filter.html" xlink:show="new" xlink:title="Common template for filters involving traversing relationship graph." xlink:type="simple">
      <rect fill="#FEFECE" filter="url(#f11yrodgbhifk4)" height="48" id="C_0001497352705437766113" style="stroke: #A80036; stroke-width: 1.5;" width="707" x="281" y="554"/>
      <ellipse cx="296" cy="570" fill="#ADD1B2" rx="11" ry="11" style="stroke: #A80036; stroke-width: 1.0;"/>
      <path d="M298.9688,575.6406 Q298.3906,575.9375 297.75,576.0781 Q297.1094,576.2344 296.4063,576.2344 Q293.9063,576.2344 292.5781,574.5938 Q291.2656,572.9375 291.2656,569.8125 Q291.2656,566.6875 292.5781,565.0313 Q293.9063,563.375 296.4063,563.375 Q297.1094,563.375 297.75,563.5313 Q298.4063,563.6875 298.9688,563.9844 L298.9688,566.7031 Q298.3438,566.125 297.75,565.8594 Q297.1563,565.5781 296.5313,565.5781 Q295.1875,565.5781 294.5,566.6563 Q293.8125,567.7188 293.8125,569.8125 Q293.8125,571.9063 294.5,572.9844 Q295.1875,574.0469 296.5313,574.0469 Q297.1563,574.0469 297.75,573.7813 Q298.3438,573.5 298.9688,572.9219 L298.9688,575.6406 Z "/>
      <text fill="#000000" font-family="sans-serif" font-size="12" lengthAdjust="spacingAndGlyphs" textLength="127" x="310" y="574.1543">edge_traversal_filter</text>
      <rect fill="#FFFFFF" height="15.9688" style="stroke: #000000; stroke-width: 1.0; stroke-dasharray: 2.0,2.0;" width="546" x="445" y="551"/>
      <text fill="#000000" font-family="sans-serif" font-size="12" font-style="italic" lengthAdjust="spacingAndGlyphs" textLength="544" x="446" y="563.1387">DiagramT,ElementT,ConfigEntryT=std::string,MatchOverrideT=common::model::element</text>
      <line style="stroke: #A80036; stroke-width: 1.5;" x1="282" x2="987" y1="586" y2="586"/>
      <line style="stroke: #A80036; stroke-width: 1.5;" x1="282" x2="987" y1="594" y2="594"/>
    </a>
    <a href="structclanguml_1_1common_1_1model_1_1relationship__filter.html" target="_top" title="relationship_filter" xlink:actuate="onRequest" xlink:href="structclanguml_1_1common_1_1model_1_1relationship__filter.html" xlink:show="new" xlink:title="relationship_filter" xlink:type="simple">
      <rect fill="#FEFECE" filter="url(#f11yrodgbhifk4)" height="48" id="C_0001195713008101262477" style="stroke: #A80036; stroke-width: 1.5;" width="140" x="564.5" y="471"/>
      <ellipse cx="579.5" cy="487" fill="#ADD1B2" rx="11" ry="11" style="stroke: #A80036; stroke-width: 1.0;"/>
      <path d="M582.4688,492.6406 Q581.8906,492.9375 581.25,493.0781 Q580.6094,493.2344 579.9063,493.2344 Q577.4063,493.2344 576.0781,491.5938 Q574.7656,489.9375 574.7656,486.8125 Q574.7656,483.6875 576.0781,482.0313 Q577.4063,480.375 579.9063,480.375 Q580.6094,480.375 581.25,480.5313 Q581.9063,480.6875 582.4688,480.9844 L582.4688,483.7031 Q581.8438,483.125 581.25,482.8594 Q580.6563,482.5781 580.0313,482.5781 Q578.6875,482.5781 578,483.6563 Q577.3125,484.7188 577.3125,486.8125 Q577.3125,488.9063 578,489.9844 Q578.6875,491.0469 580.0313,491.0469 Q580.6563,491.0469 581.25,490.7813 Q581.8438,490.5 582.4688,489.9219 L582.4688,492.6406 Z "/>
      <text fill="#000000" font-family="sans-serif" font-size="12" lengthAdjust="spacingAndGlyphs" textLength="108" x="593.5" y="491.1543">relationship_filter</text>
      <line style="stroke: #A80036; stroke-width: 1.5;" x1="565.5" x2="703.5" y1="503" y2="503"/>
      <line style="stroke: #A80036; stroke-width: 1.5;" x1="565.5" x2="703.5" y1="511" y2="511"/>
    </a>
    <a href="structclanguml_1_1common_1_1model_1_1access__filter.html" target="_top" title="access_filter" xlink:actuate="onRequest" xlink:href="structclanguml_1_1common_1_1model_1_1access__filter.html" xlink:show="new" xlink:title="access_filter" xlink:type="simple">
      <rect fill="#FEFECE" filter="url(#f11yrodgbhifk4)" height="48" id="C_0001098184343448999590" style="stroke: #A80036; stroke-width: 1.5;" width="110" x="1207.5" y="185"/>
      <ellipse cx="1222.5" cy="201" fill="#ADD1B2" rx="11" ry="11" style="stroke: #A80036; stroke-width: 1.0;"/>
      <path d="M1225.4688,206.6406 Q1224.8906,206.9375 1224.25,207.0781 Q1223.6094,207.2344 1222.9063,207.2344 Q1220.4063,207.2344 1219.0781,205.5938 Q1217.7656,203.9375 1217.7656,200.8125 Q1217.7656,197.6875 1219.0781,196.0313 Q1220.4063,194.375 1222.9063,194.375 Q1223.6094,194.375 1224.25,194.5313 Q1224.9063,194.6875 1225.4688,194.9844 L1225.4688,197.7031 Q1224.8438,197.125 1224.25,196.8594 Q1223.6563,196.5781 1223.0313,196.5781 Q1221.6875,196.5781 1221,197.6563 Q1220.3125,198.7188 1220.3125,200.8125 Q1220.3125,202.9063 1221,203.9844 Q1221.6875,205.0469 1223.0313,205.0469 Q1223.6563,205.0469 1224.25,204.7813 Q1224.8438,204.5 1225.4688,203.9219 L1225.4688,206.6406 Z "/>
      <text fill="#000000" font-family="sans-serif" font-size="12" lengthAdjust="spacingAndGlyphs" textLength="78" x="1236.5" y="205.1543">access_filter</text>
      <line style="stroke: #A80036; stroke-width: 1.5;" x1="1208.5" x2="1316.5" y1="217" y2="217"/>
      <line style="stroke: #A80036; stroke-width: 1.5;" x1="1208.5" x2="1316.5" y1="225" y2="225"/>
    </a>
    <a href="structclanguml_1_1common_1_1model_1_1context__filter.html" target="_top" title="context_filter" xlink:actuate="onRequest" xlink:href="structclanguml_1_1common_1_1model_1_1context__filter.html" xlink:show="new" xlink:title="context_filter" xlink:type="simple">
      <rect fill="#FEFECE" filter="url(#f11yrodgbhifk4)" height="48" id="C_0002078668697238559556" style="stroke: #A80036; stroke-width: 1.5;" width="113" x="578" y="351"/>
      <ellipse cx="593" cy="367" fill="#ADD1B2" rx="11" ry="11" style="stroke: #A80036; stroke-width: 1.0;"/>
      <path d="M595.9688,372.6406 Q595.3906,372.9375 594.75,373.0781 Q594.1094,373.2344 593.4063,373.2344 Q590.9063,373.2344 589.5781,371.5938 Q588.2656,369.9375 588.2656,366.8125 Q588.2656,363.6875 589.5781,362.0313 Q590.9063,360.375 593.4063,360.375 Q594.1094,360.375 594.75,360.5313 Q595.4063,360.6875 595.9688,360.9844 L595.9688,363.7031 Q595.3438,363.125 594.75,362.8594 Q594.1563,362.5781 593.5313,362.5781 Q592.1875,362.5781 591.5,363.6563 Q590.8125,364.7188 590.8125,366.8125 Q590.8125,368.9063 591.5,369.9844 Q592.1875,371.0469 593.5313,371.0469 Q594.1563,371.0469 594.75,370.7813 Q595.3438,370.5 595.9688,369.9219 L595.9688,372.6406 Z "/>
      <text fill="#000000" font-family="sans-serif" font-size="12" lengthAdjust="spacingAndGlyphs" textLength="81" x="607" y="371.1543">context_filter</text>
      <line style="stroke: #A80036; stroke-width: 1.5;" x1="579" x2="690" y1="383" y2="383"/>
      <line style="stroke: #A80036; stroke-width: 1.5;" x1="579" x2="690" y1="391" y2="391"/>
    </a>
    <a href="structclanguml_1_1common_1_1model_1_1paths__filter.html" target="_top" title="paths_filter" xlink:actuate="onRequest" xlink:href="structclanguml_1_1common_1_1model_1_1paths__filter.html" xlink:show="new" xlink:title="paths_filter" xlink:type="simple">
      <rect fill="#FEFECE" filter="url(#f11yrodgbhifk4)" height="48" id="C_0000831536458766184760" style="stroke: #A80036; stroke-width: 1.5;" width="102" x="583.5" y="268"/>
      <ellipse cx="598.5" cy="284" fill="#ADD1B2" rx="11" ry="11" style="stroke: #A80036; stroke-width: 1.0;"/>
      <path d="M601.4688,289.6406 Q600.8906,289.9375 600.25,290.0781 Q599.6094,290.2344 598.9063,290.2344 Q596.4063,290.2344 595.0781,288.5938 Q593.7656,286.9375 593.7656,283.8125 Q593.7656,280.6875 595.0781,279.0313 Q596.4063,277.375 598.9063,277.375 Q599.6094,277.375 600.25,277.5313 Q600.9063,277.6875 601.4688,277.9844 L601.4688,280.7031 Q600.8438,280.125 600.25,279.8594 Q599.6563,279.5781 599.0313,279.5781 Q597.6875,279.5781 597,280.6563 Q596.3125,281.7188 596.3125,283.8125 Q596.3125,285.9063 597,286.9844 Q597.6875,288.0469 599.0313,288.0469 Q599.6563,288.0469 600.25,287.7813 Q600.8438,287.5 601.4688,286.9219 L601.4688,289.6406 Z "/>
      <text fill="#000000" font-family="sans-serif" font-size="12" lengthAdjust="spacingAndGlyphs" textLength="70" x="612.5" y="288.1543">paths_filter</text>
      <line style="stroke: #A80036; stroke-width: 1.5;" x1="584.5" x2="684.5" y1="300" y2="300"/>
      <line style="stroke: #A80036; stroke-width: 1.5;" x1="584.5" x2="684.5" y1="308" y2="308"/>
    </a>
    <a href="structclanguml_1_1common_1_1model_1_1class__method__filter.html" target="_top" title="class_method_filter" xlink:actuate="onRequest" xlink:href="structclanguml_1_1common_1_1model_1_1class__method__filter.html" xlink:show="new" xlink:title="class_method_filter" xlink:type="simple">
      <rect fill="#FEFECE" filter="url(#f11yrodgbhifk4)" height="48" id="C_0001578839365087446026" style="stroke: #A80036; stroke-width: 1.5;" width="152" x="558.5" y="185"/>
      <ellipse cx="573.5" cy="201" fill="#ADD1B2" rx="11" ry="11" style="stroke: #A80036; stroke-width: 1.0;"/>
      <path d="M576.4688,206.6406 Q575.8906,206.9375 575.25,207.0781 Q574.6094,207.2344 573.9063,207.2344 Q571.4063,207.2344 570.0781,205.5938 Q568.7656,203.9375 568.7656,200.8125 Q568.7656,197.6875 570.0781,196.0313 Q571.4063,194.375 573.9063,194.375 Q574.6094,194.375 575.25,194.5313 Q575.9063,194.6875 576.4688,194.9844 L576.4688,197.7031 Q575.8438,197.125 575.25,196.8594 Q574.6563,196.5781 574.0313,196.5781 Q572.6875,196.5781 572,197.6563 Q571.3125,198.7188 571.3125,200.8125 Q571.3125,202.9063 572,203.9844 Q572.6875,205.0469 574.0313,205.0469 Q574.6563,205.0469 575.25,204.7813 Q575.8438,204.5 576.4688,203.9219 L576.4688,206.6406 Z "/>
      <text fill="#000000" font-family="sans-serif" font-size="12" lengthAdjust="spacingAndGlyphs" textLength="120" x="587.5" y="205.1543">class_method_filter</text>
      <line style="stroke: #A80036; stroke-width: 1.5;" x1="559.5" x2="709.5" y1="217" y2="217"/>
      <line style="stroke: #A80036; stroke-width: 1.5;" x1="559.5" x2="709.5" y1="225" y2="225"/>
    </a>
    <a href="structclanguml_1_1common_1_1model_1_1class__member__filter.html" target="_top" title="class_member_filter" xlink:actuate="onRequest" xlink:href="structclanguml_1_1common_1_1model_1_1class__member__filter.html" xlink:show="new" xlink:title="class_member_filter" xlink:type="simple">
      <rect fill="#FEFECE" filter="url(#f11yrodgbhifk4)" height="48" id="C_0000676683242499586467" style="stroke: #A80036; stroke-width: 1.5;" width="155" x="557" y="102"/>
      <ellipse cx="572" cy="118" fill="#ADD1B2" rx="11" ry="11" style="stroke: #A80036; stroke-width: 1.0;"/>
      <path d="M574.9688,123.6406 Q574.3906,123.9375 573.75,124.0781 Q573.1094,124.2344 572.4063,124.2344 Q569.9063,124.2344 568.5781,122.5938 Q567.2656,120.9375 567.2656,117.8125 Q567.2656,114.6875 568.5781,113.0313 Q569.9063,111.375 572.4063,111.375 Q573.1094,111.375 573.75,111.5313 Q574.4063,111.6875 574.9688,111.9844 L574.9688,114.7031 Q574.3438,114.125 573.75,113.8594 Q573.1563,113.5781 572.5313,113.5781 Q571.1875,113.5781 570.5,114.6563 Q569.8125,115.7188 569.8125,117.8125 Q569.8125,119.9063 570.5,120.9844 Q571.1875,122.0469 572.5313,122.0469 Q573.1563,122.0469 573.75,121.7813 Q574.3438,121.5 574.9688,120.9219 L574.9688,123.6406 Z "/>
      <text fill="#000000" font-family="sans-serif" font-size="12" lengthAdjust="spacingAndGlyphs" textLength="123" x="586" y="122.1543">class_member_filter</text>
      <line style="stroke: #A80036; stroke-width: 1.5;" x1="558" x2="711" y1="134" y2="134"/>
      <line style="stroke: #A80036; stroke-width: 1.5;" x1="558" x2="711" y1="142" y2="142"/>
    </a>
    <path d="M571.45,661.72 C467.67,662.92 260.87,665.31 165.21,666.41 " fill="none" id="C_0000605829206649563575&lt;-C_0000469458052685692314" style="stroke: #A80036; stroke-width: 1.0;"/>
    <polygon fill="#FFFFFF" points="584.49,661.57,578.4421,657.6428,572.4909,661.715,578.5388,665.6422,584.49,661.57" style="stroke: #A80036; stroke-width: 1.0;"/>
    <rect fill="none" height="6" style="stroke: #C82930; stroke-width: 1.0;" width="6" x="198" y="655.0664"/>
    <text fill="#000000" font-family="sans-serif" font-size="13" lengthAdjust="spacingAndGlyphs" textLength="42" x="208" y="662.0669">filters_</text>
    <path d="M185.31,673.5 C188.59,673.69 191.83,673.86 195,674 C219.87,675.08 226.11,674.42 251,674 C370.75,671.97 511.49,666.35 584.3,663.21 " fill="none" id="C_0000469458052685692314&lt;-C_0000605829206649563575" style="stroke: #A80036; stroke-width: 1.0;"/>
    <polygon fill="none" points="184.59,680.47,165.13,672.08,185.57,666.5,184.59,680.47" style="stroke: #A80036; stroke-width: 1.0;"/>
    <path d="M114.21,711.16 C115.55,789.88 126.95,957.38 195,1077 C266.48,1202.64 460.31,1209.39 564.71,1203.07 " fill="none" id="C_0000469458052685692314&lt;-C_0001816240256470820189" style="stroke: #A80036; stroke-width: 1.0;"/>
    <polygon fill="none" points="107.21,711.06,114.06,691.01,121.21,710.95,107.21,711.06" style="stroke: #A80036; stroke-width: 1.0;"/>
    <path d="M113.83,711.27 C114.92,782.94 126.36,925.83 195,1020 C281.29,1138.39 477.79,1132.95 575.75,1121.78 " fill="none" id="C_0000469458052685692314&lt;-C_0000690341236618660423" style="stroke: #A80036; stroke-width: 1.0;"/>
    <polygon fill="none" points="106.83,711.07,113.77,691.05,120.83,711.03,106.83,711.07" style="stroke: #A80036; stroke-width: 1.0;"/>
    <path d="M119.78,711.34 C129.96,788.84 154.91,944.04 195,979 C295.81,1066.89 462.93,1058.66 559.12,1044.51 " fill="none" id="C_0000469458052685692314&lt;-C_0002051668456717902300" style="stroke: #A80036; stroke-width: 1.0;"/>
    <polygon fill="none" points="112.8,712,117.25,691.28,126.69,710.25,112.8,712" style="stroke: #A80036; stroke-width: 1.0;"/>
    <path d="M123.7,710.93 C140.79,779.28 184.82,907.73 281,951 C352.64,983.23 916.65,983.88 988,951 C1125.06,887.84 1218.96,718.36 1250.15,655.18 " fill="none" id="C_0000469458052685692314&lt;-C_0001897369211795036987" style="stroke: #A80036; stroke-width: 1.0;"/>
    <polygon fill="none" points="116.78,712.1,119.06,691.03,130.42,708.93,116.78,712.1" style="stroke: #A80036; stroke-width: 1.0;"/>
    <path d="M135.26,709.03 C161.67,757.29 212.25,834.13 281,868 C379.55,916.55 511.76,917.85 582.98,914.17 " fill="none" id="C_0000469458052685692314&lt;-C_0001198341195117879139" style="stroke: #A80036; stroke-width: 1.0;"/>
    <polygon fill="none" points="128.99,712.16,125.88,691.2,141.39,705.64,128.99,712.16" style="stroke: #A80036; stroke-width: 1.0;"/>
    <path d="M154.94,704.52 C186.71,731.66 233.42,766.68 281,785 C378.77,822.65 502.14,828.82 573.99,828.71 " fill="none" id="C_0000469458052685692314&lt;-C_0001389919526184251760" style="stroke: #A80036; stroke-width: 1.0;"/>
    <polygon fill="none" points="150.16,709.63,139.76,691.17,159.4,699.12,150.16,709.63" style="stroke: #A80036; stroke-width: 1.0;"/>
    <path d="M184.83,683.23 C214.41,689.67 249.27,696.78 281,702 C384.84,719.07 506.98,732.05 576.81,738.81 " fill="none" id="C_0000469458052685692314&lt;-C_0001773753487119877542" style="stroke: #A80036; stroke-width: 1.0;"/>
    <polygon fill="none" points="183.3,690.06,165.29,678.9,186.33,676.39,183.3,690.06" style="stroke: #A80036; stroke-width: 1.0;"/>
    <path d="M184.32,644.16 C187.93,643.07 191.5,642.01 195,641 C232.9,630.04 242.21,626.18 281,619 C315.99,612.52 353.12,606.88 389.67,602.03 " fill="none" id="C_0000469458052685692314&lt;-C_0001497352705437766113" style="stroke: #A80036; stroke-width: 1.0;"/>
    <polygon fill="none" points="186.2,650.9,165.02,650.15,182.05,637.54,186.2,650.9" style="stroke: #A80036; stroke-width: 1.0;"/>
    <path d="M150.99,628.34 C182.34,597.76 230.39,556.88 281,536 C373.84,497.71 491.36,491.56 564.49,492.14 " fill="none" id="C_0000469458052685692314&lt;-C_0001195713008101262477" style="stroke: #A80036; stroke-width: 1.0;"/>
    <polygon fill="none" points="155.66,633.56,136.59,642.8,145.74,623.69,155.66,633.56" style="stroke: #A80036; stroke-width: 1.0;"/>
    <path d="M133.08,624.77 C158.26,573.44 208.54,489.21 281,453 C368.3,409.38 1077.41,481.55 1159,428 C1227.26,383.2 1250.97,280.06 1258.41,233.09 " fill="none" id="C_0000469458052685692314&lt;-C_0001098184343448999590" style="stroke: #A80036; stroke-width: 1.0;"/>
    <polygon fill="none" points="139.37,627.84,124.53,642.97,126.7,621.89,139.37,627.84" style="stroke: #A80036; stroke-width: 1.0;"/>
    <path d="M115.71,622.68 C119.81,567.35 135.73,474.14 195,426 C305.66,336.13 487,349.93 577.89,364.2 " fill="none" id="C_0000469458052685692314&lt;-C_0002078668697238559556" style="stroke: #A80036; stroke-width: 1.0;"/>
    <polygon fill="none" points="122.69,623.26,114.62,642.85,108.71,622.5,122.69,623.26" style="stroke: #A80036; stroke-width: 1.0;"/>
    <path d="M119.82,622.46 C128.2,566.81 148.6,470.58 195,402 C222.46,361.41 235.79,351.9 281,333 C382.18,290.7 513.08,287.4 583.45,289.32 " fill="none" id="C_0000469458052685692314&lt;-C_0000831536458766184760" style="stroke: #A80036; stroke-width: 1.0;"/>
    <polygon fill="none" points="126.7,623.78,117.04,642.64,112.83,621.87,126.7,623.78" style="stroke: #A80036; stroke-width: 1.0;"/>
    <path d="M723.85,209 C855.42,209 1098.93,209 1207.19,209 " fill="none" id="C_0001578839365087446026&lt;-C_0001098184343448999590" style="stroke: #A80036; stroke-width: 1.0;"/>
    <polygon fill="#FFFFFF" points="710.7,209,716.7,213,722.7,209,716.7,205,710.7,209" style="stroke: #A80036; stroke-width: 1.0;"/>
    <rect fill="none" height="6" style="stroke: #C82930; stroke-width: 1.0;" width="6" x="1041.5" y="198.0664"/>
    <text fill="#000000" font-family="sans-serif" font-size="13" lengthAdjust="spacingAndGlyphs" textLength="86" x="1051.5" y="205.0669">access_filter_</text>
    <path d="M724.03,200.23 C799.34,197.01 907.73,202.76 988,250 C1135.36,336.74 1225,537.55 1252.46,606.92 " fill="none" id="C_0001578839365087446026&lt;-C_0001897369211795036987" style="stroke: #A80036; stroke-width: 1.0;"/>
    <polygon fill="#FFFFFF" points="710.84,200.9,717.0347,204.5913,722.8246,200.2928,716.6299,196.6015,710.84,200.9" style="stroke: #A80036; stroke-width: 1.0;"/>
    <rect fill="none" height="6" style="stroke: #C82930; stroke-width: 1.0;" width="6" x="1021" y="260.0664"/>
    <text fill="#000000" font-family="sans-serif" font-size="13" lengthAdjust="spacingAndGlyphs" textLength="127" x="1031" y="267.0669">method_type_filter_</text>
    <path d="M115.79,622.73 C121.18,531.95 148.2,326.8 281,250 C366.47,200.57 483.06,196.96 558.32,201.17 " fill="none" id="C_0000469458052685692314&lt;-C_0001578839365087446026" style="stroke: #A80036; stroke-width: 1.0;"/>
    <polygon fill="none" points="122.77,623.31,114.84,642.96,108.78,622.65,122.77,623.31" style="stroke: #A80036; stroke-width: 1.0;"/>
    <path d="M725.25,132.4 C829.92,140.69 1007.88,157.31 1159,184 C1174.78,186.79 1191.75,190.59 1207.25,194.39 " fill="none" id="C_0000676683242499586467&lt;-C_0001098184343448999590" style="stroke: #A80036; stroke-width: 1.0;"/>
    <polygon fill="#FFFFFF" points="712.23,131.39,717.8999,135.8456,724.1935,132.3255,718.5236,127.8699,712.23,131.39" style="stroke: #A80036; stroke-width: 1.0;"/>
    <rect fill="none" height="6" style="stroke: #C82930; stroke-width: 1.0;" width="6" x="1041.5" y="154.0664"/>
    <text fill="#000000" font-family="sans-serif" font-size="13" lengthAdjust="spacingAndGlyphs" textLength="86" x="1051.5" y="161.0669">access_filter_</text>
    <path d="M118.73,622.52 C126.69,551.21 147.56,407.95 195,296 C221.89,232.56 222.23,202.97 281,167 C364.81,115.7 481.02,112.41 556.73,117.22 " fill="none" id="C_0000469458052685692314&lt;-C_0000676683242499586467" style="stroke: #A80036; stroke-width: 1.0;"/>
    <polygon fill="none" points="125.67,623.46,116.62,642.62,111.75,622,125.67,623.46" style="stroke: #A80036; stroke-width: 1.0;"/>
  </g>
</svg>
