<svg xmlns="http://www.w3.org/2000/svg" xmlns:xlink="http://www.w3.org/1999/xlink" contentStyleType="text/css" data-diagram-type="CLASS" height="1544px" preserveAspectRatio="none" style="width:1302px;height:1544px;background:#FFFFFF;" version="1.1" viewBox="0 0 1302 1544" width="1302px" zoomAndPan="magnify">
  <title>Diagram filter visitor class hierarchy</title>
  <defs>
    <style type="text/css">a:hover { text-decoration: underline; }</style>
  </defs>
  <g>
    <text fill="#000000" font-family="sans-serif" font-size="14" font-weight="bold" lengthAdjust="spacing" textLength="255.401" x="516.2995" y="24.9659">Diagram filter visitor class hierarchy</text>
    <g id="cluster_C_0002532840279361781187">
      <path d="M8.5,46.6699 L70.7218,46.6699 A3.75,3.75 0 0 1 73.2218,49.1699 L80.2218,71.7378 L1292.5,71.7378 A2.5,2.5 0 0 1 1295,74.2378 L1295,1535.1699 A2.5,2.5 0 0 1 1292.5,1537.6699 L8.5,1537.6699 A2.5,2.5 0 0 1 6,1535.1699 L6,49.1699 A2.5,2.5 0 0 1 8.5,46.6699 " fill="transparent" style="stroke:#000000;stroke-width:1.5;"/>
      <line style="stroke:#000000;stroke-width:1.5;" x1="6" x2="80.2218" y1="71.7378" y2="71.7378"/>
      <text fill="#000000" font-family="sans-serif" font-size="14" font-weight="bold" lengthAdjust="spacing" textLength="61.2218" x="10" y="63.6358">common</text>
    </g>
    <g id="cluster_C_0000669774451444102653">
      <path d="M32.5,92.6699 L77.3198,92.6699 A3.75,3.75 0 0 1 79.8198,95.1699 L86.8198,117.7378 L1268.5,117.7378 A2.5,2.5 0 0 1 1271,120.2378 L1271,1511.1699 A2.5,2.5 0 0 1 1268.5,1513.6699 L32.5,1513.6699 A2.5,2.5 0 0 1 30,1511.1699 L30,95.1699 A2.5,2.5 0 0 1 32.5,92.6699 " fill="transparent" style="stroke:#000000;stroke-width:1.5;"/>
      <line style="stroke:#000000;stroke-width:1.5;" x1="30" x2="86.8198" y1="117.7378" y2="117.7378"/>
      <text fill="#000000" font-family="sans-serif" font-size="14" font-weight="bold" lengthAdjust="spacing" textLength="43.8198" x="34" y="109.6358">model</text>
    </g>
    <a href="classclanguml_1_1common_1_1model_1_1filter__visitor.html" target="_top" title="Base class for any diagram filter." xlink:actuate="onRequest" xlink:href="classclanguml_1_1common_1_1model_1_1filter__visitor.html" xlink:show="new" xlink:title="Base class for any diagram filter." xlink:type="simple">
      <g id="elem_C_0003755664421485538512">
        <rect codeLine="6" fill="#F1F1F1" height="48" id="C_0003755664421485538512" rx="2.5" ry="2.5" style="stroke:#181818;stroke-width:0.5;" width="109.3357" x="46" y="790.6699"/>
        <ellipse cx="61" cy="806.6699" fill="#ADD1B2" rx="11" ry="11" style="stroke:#181818;stroke-width:1;"/>
        <path d="M63.9688,812.3105 Q63.3906,812.6074 62.75,812.748 Q62.1094,812.9043 61.4063,812.9043 Q58.9063,812.9043 57.5781,811.2636 Q56.2656,809.6074 56.2656,806.4824 Q56.2656,803.3574 57.5781,801.7011 Q58.9063,800.0449 61.4063,800.0449 Q62.1094,800.0449 62.75,800.2011 Q63.4063,800.3574 63.9688,800.6543 L63.9688,803.373 Q63.3438,802.7949 62.75,802.5293 Q62.1563,802.248 61.5313,802.248 Q60.1875,802.248 59.5,803.3261 Q58.8125,804.3886 58.8125,806.4824 Q58.8125,808.5761 59.5,809.6543 Q60.1875,810.7168 61.5313,810.7168 Q62.1563,810.7168 62.75,810.4511 Q63.3438,810.1699 63.9688,809.5918 L63.9688,812.3105 Z " fill="#000000"/>
        <text fill="#000000" font-family="sans-serif" font-size="14" lengthAdjust="spacing" textLength="77.3357" x="75" y="812.1019">filter_visitor</text>
        <line style="stroke:#181818;stroke-width:0.5;" x1="47" x2="154.3357" y1="822.6699" y2="822.6699"/>
        <line style="stroke:#181818;stroke-width:0.5;" x1="47" x2="154.3357" y1="830.6699" y2="830.6699"/>
      </g>
    </a>
    <a href="structclanguml_1_1common_1_1model_1_1anyof__filter.html" target="_top" title="anyof_filter" xlink:actuate="onRequest" xlink:href="structclanguml_1_1common_1_1model_1_1anyof__filter.html" xlink:show="new" xlink:title="anyof_filter" xlink:type="simple">
      <g id="elem_C_0004846633653196508605">
        <rect codeLine="10" fill="#F1F1F1" height="48" id="C_0004846633653196508605" rx="2.5" ry="2.5" style="stroke:#181818;stroke-width:0.5;" width="105.9197" x="534" y="831.6699"/>
        <ellipse cx="549" cy="847.6699" fill="#ADD1B2" rx="11" ry="11" style="stroke:#181818;stroke-width:1;"/>
        <path d="M551.9688,853.3105 Q551.3906,853.6074 550.75,853.748 Q550.1094,853.9043 549.4063,853.9043 Q546.9063,853.9043 545.5781,852.2636 Q544.2656,850.6074 544.2656,847.4824 Q544.2656,844.3574 545.5781,842.7011 Q546.9063,841.0449 549.4063,841.0449 Q550.1094,841.0449 550.75,841.2011 Q551.4063,841.3574 551.9688,841.6543 L551.9688,844.373 Q551.3438,843.7949 550.75,843.5293 Q550.1563,843.248 549.5313,843.248 Q548.1875,843.248 547.5,844.3261 Q546.8125,845.3886 546.8125,847.4824 Q546.8125,849.5761 547.5,850.6543 Q548.1875,851.7168 549.5313,851.7168 Q550.1563,851.7168 550.75,851.4511 Q551.3438,851.1699 551.9688,850.5918 L551.9688,853.3105 Z " fill="#000000"/>
        <text fill="#000000" font-family="sans-serif" font-size="14" lengthAdjust="spacing" textLength="73.9197" x="563" y="853.1019">anyof_filter</text>
        <line style="stroke:#181818;stroke-width:0.5;" x1="535" x2="638.9197" y1="863.6699" y2="863.6699"/>
        <line style="stroke:#181818;stroke-width:0.5;" x1="535" x2="638.9197" y1="871.6699" y2="871.6699"/>
      </g>
    </a>
    <a href="structclanguml_1_1common_1_1model_1_1allof__filter.html" target="_top" title="allof_filter" xlink:actuate="onRequest" xlink:href="structclanguml_1_1common_1_1model_1_1allof__filter.html" xlink:show="new" xlink:title="allof_filter" xlink:type="simple">
      <g id="elem_C_0008681673430919411882">
        <rect codeLine="14" fill="#F1F1F1" height="48" id="C_0008681673430919411882" rx="2.5" ry="2.5" style="stroke:#181818;stroke-width:0.5;" width="97.3517" x="538.5" y="748.6699"/>
        <ellipse cx="553.5" cy="764.6699" fill="#ADD1B2" rx="11" ry="11" style="stroke:#181818;stroke-width:1;"/>
        <path d="M556.4688,770.3105 Q555.8906,770.6074 555.25,770.748 Q554.6094,770.9043 553.9063,770.9043 Q551.4063,770.9043 550.0781,769.2636 Q548.7656,767.6074 548.7656,764.4824 Q548.7656,761.3574 550.0781,759.7011 Q551.4063,758.0449 553.9063,758.0449 Q554.6094,758.0449 555.25,758.2011 Q555.9063,758.3574 556.4688,758.6543 L556.4688,761.373 Q555.8438,760.7949 555.25,760.5293 Q554.6563,760.248 554.0313,760.248 Q552.6875,760.248 552,761.3261 Q551.3125,762.3886 551.3125,764.4824 Q551.3125,766.5761 552,767.6543 Q552.6875,768.7168 554.0313,768.7168 Q554.6563,768.7168 555.25,768.4511 Q555.8438,768.1699 556.4688,767.5918 L556.4688,770.3105 Z " fill="#000000"/>
        <text fill="#000000" font-family="sans-serif" font-size="14" lengthAdjust="spacing" textLength="65.3517" x="567.5" y="770.1019">allof_filter</text>
        <line style="stroke:#181818;stroke-width:0.5;" x1="539.5" x2="634.8517" y1="780.6699" y2="780.6699"/>
        <line style="stroke:#181818;stroke-width:0.5;" x1="539.5" x2="634.8517" y1="788.6699" y2="788.6699"/>
      </g>
    </a>
    <a href="structclanguml_1_1common_1_1model_1_1namespace__filter.html" target="_top" title="namespace_filter" xlink:actuate="onRequest" xlink:href="structclanguml_1_1common_1_1model_1_1namespace__filter.html" xlink:show="new" xlink:title="namespace_filter" xlink:type="simple">
      <g id="elem_C_0014529922051766561513">
        <rect codeLine="18" fill="#F1F1F1" height="48" id="C_0014529922051766561513" rx="2.5" ry="2.5" style="stroke:#181818;stroke-width:0.5;" width="144.2656" x="515" y="1449.6699"/>
        <ellipse cx="530" cy="1465.6699" fill="#ADD1B2" rx="11" ry="11" style="stroke:#181818;stroke-width:1;"/>
        <path d="M532.9688,1471.3105 Q532.3906,1471.6074 531.75,1471.748 Q531.1094,1471.9043 530.4063,1471.9043 Q527.9063,1471.9043 526.5781,1470.2636 Q525.2656,1468.6074 525.2656,1465.4824 Q525.2656,1462.3574 526.5781,1460.7011 Q527.9063,1459.0449 530.4063,1459.0449 Q531.1094,1459.0449 531.75,1459.2011 Q532.4063,1459.3574 532.9688,1459.6543 L532.9688,1462.373 Q532.3438,1461.7949 531.75,1461.5293 Q531.1563,1461.248 530.5313,1461.248 Q529.1875,1461.248 528.5,1462.3261 Q527.8125,1463.3886 527.8125,1465.4824 Q527.8125,1467.5761 528.5,1468.6543 Q529.1875,1469.7168 530.5313,1469.7168 Q531.1563,1469.7168 531.75,1469.4511 Q532.3438,1469.1699 532.9688,1468.5918 L532.9688,1471.3105 Z " fill="#000000"/>
        <text fill="#000000" font-family="sans-serif" font-size="14" lengthAdjust="spacing" textLength="112.2656" x="544" y="1471.1019">namespace_filter</text>
        <line style="stroke:#181818;stroke-width:0.5;" x1="516" x2="658.2656" y1="1481.6699" y2="1481.6699"/>
        <line style="stroke:#181818;stroke-width:0.5;" x1="516" x2="658.2656" y1="1489.6699" y2="1489.6699"/>
      </g>
    </a>
    <a href="structclanguml_1_1common_1_1model_1_1modules__filter.html" target="_top" title="modules_filter" xlink:actuate="onRequest" xlink:href="structclanguml_1_1common_1_1model_1_1modules__filter.html" xlink:show="new" xlink:title="modules_filter" xlink:type="simple">
      <g id="elem_C_0018235506892675596161">
        <rect codeLine="22" fill="#F1F1F1" height="48" id="C_0018235506892675596161" rx="2.5" ry="2.5" style="stroke:#181818;stroke-width:0.5;" width="126.0236" x="524" y="1366.6699"/>
        <ellipse cx="539" cy="1382.6699" fill="#ADD1B2" rx="11" ry="11" style="stroke:#181818;stroke-width:1;"/>
        <path d="M541.9688,1388.3105 Q541.3906,1388.6074 540.75,1388.748 Q540.1094,1388.9043 539.4063,1388.9043 Q536.9063,1388.9043 535.5781,1387.2636 Q534.2656,1385.6074 534.2656,1382.4824 Q534.2656,1379.3574 535.5781,1377.7011 Q536.9063,1376.0449 539.4063,1376.0449 Q540.1094,1376.0449 540.75,1376.2011 Q541.4063,1376.3574 541.9688,1376.6543 L541.9688,1379.373 Q541.3438,1378.7949 540.75,1378.5293 Q540.1563,1378.248 539.5313,1378.248 Q538.1875,1378.248 537.5,1379.3261 Q536.8125,1380.3886 536.8125,1382.4824 Q536.8125,1384.5761 537.5,1385.6543 Q538.1875,1386.7168 539.5313,1386.7168 Q540.1563,1386.7168 540.75,1386.4511 Q541.3438,1386.1699 541.9688,1385.5918 L541.9688,1388.3105 Z " fill="#000000"/>
        <text fill="#000000" font-family="sans-serif" font-size="14" lengthAdjust="spacing" textLength="94.0236" x="553" y="1388.1019">modules_filter</text>
        <line style="stroke:#181818;stroke-width:0.5;" x1="525" x2="649.0236" y1="1398.6699" y2="1398.6699"/>
        <line style="stroke:#181818;stroke-width:0.5;" x1="525" x2="649.0236" y1="1406.6699" y2="1406.6699"/>
      </g>
    </a>
    <a href="structclanguml_1_1common_1_1model_1_1element__filter.html" target="_top" title="element_filter" xlink:actuate="onRequest" xlink:href="structclanguml_1_1common_1_1model_1_1element__filter.html" xlink:show="new" xlink:title="element_filter" xlink:type="simple">
      <g id="elem_C_0005522729892949283391">
        <rect codeLine="26" fill="#F1F1F1" height="48" id="C_0005522729892949283391" rx="2.5" ry="2.5" style="stroke:#181818;stroke-width:0.5;" width="123.0836" x="525.5" y="1283.6699"/>
        <ellipse cx="540.5" cy="1299.6699" fill="#ADD1B2" rx="11" ry="11" style="stroke:#181818;stroke-width:1;"/>
        <path d="M543.4688,1305.3105 Q542.8906,1305.6074 542.25,1305.748 Q541.6094,1305.9043 540.9063,1305.9043 Q538.4063,1305.9043 537.0781,1304.2636 Q535.7656,1302.6074 535.7656,1299.4824 Q535.7656,1296.3574 537.0781,1294.7011 Q538.4063,1293.0449 540.9063,1293.0449 Q541.6094,1293.0449 542.25,1293.2011 Q542.9063,1293.3574 543.4688,1293.6543 L543.4688,1296.373 Q542.8438,1295.7949 542.25,1295.5293 Q541.6563,1295.248 541.0313,1295.248 Q539.6875,1295.248 539,1296.3261 Q538.3125,1297.3886 538.3125,1299.4824 Q538.3125,1301.5761 539,1302.6543 Q539.6875,1303.7168 541.0313,1303.7168 Q541.6563,1303.7168 542.25,1303.4511 Q542.8438,1303.1699 543.4688,1302.5918 L543.4688,1305.3105 Z " fill="#000000"/>
        <text fill="#000000" font-family="sans-serif" font-size="14" lengthAdjust="spacing" textLength="91.0836" x="554.5" y="1305.1019">element_filter</text>
        <line style="stroke:#181818;stroke-width:0.5;" x1="526.5" x2="647.5836" y1="1315.6699" y2="1315.6699"/>
        <line style="stroke:#181818;stroke-width:0.5;" x1="526.5" x2="647.5836" y1="1323.6699" y2="1323.6699"/>
      </g>
    </a>
    <a href="structclanguml_1_1common_1_1model_1_1element__type__filter.html" target="_top" title="element_type_filter" xlink:actuate="onRequest" xlink:href="structclanguml_1_1common_1_1model_1_1element__type__filter.html" xlink:show="new" xlink:title="element_type_filter" xlink:type="simple">
      <g id="elem_C_0016413347653743218402">
        <rect codeLine="30" fill="#F1F1F1" height="48" id="C_0016413347653743218402" rx="2.5" ry="2.5" style="stroke:#181818;stroke-width:0.5;" width="157.9995" x="508" y="1200.6699"/>
        <ellipse cx="523" cy="1216.6699" fill="#ADD1B2" rx="11" ry="11" style="stroke:#181818;stroke-width:1;"/>
        <path d="M525.9688,1222.3105 Q525.3906,1222.6074 524.75,1222.748 Q524.1094,1222.9043 523.4063,1222.9043 Q520.9063,1222.9043 519.5781,1221.2636 Q518.2656,1219.6074 518.2656,1216.4824 Q518.2656,1213.3574 519.5781,1211.7011 Q520.9063,1210.0449 523.4063,1210.0449 Q524.1094,1210.0449 524.75,1210.2011 Q525.4063,1210.3574 525.9688,1210.6543 L525.9688,1213.373 Q525.3438,1212.7949 524.75,1212.5293 Q524.1563,1212.248 523.5313,1212.248 Q522.1875,1212.248 521.5,1213.3261 Q520.8125,1214.3886 520.8125,1216.4824 Q520.8125,1218.5761 521.5,1219.6543 Q522.1875,1220.7168 523.5313,1220.7168 Q524.1563,1220.7168 524.75,1220.4511 Q525.3438,1220.1699 525.9688,1219.5918 L525.9688,1222.3105 Z " fill="#000000"/>
        <text fill="#000000" font-family="sans-serif" font-size="14" lengthAdjust="spacing" textLength="125.9995" x="537" y="1222.1019">element_type_filter</text>
        <line style="stroke:#181818;stroke-width:0.5;" x1="509" x2="664.9995" y1="1232.6699" y2="1232.6699"/>
        <line style="stroke:#181818;stroke-width:0.5;" x1="509" x2="664.9995" y1="1240.6699" y2="1240.6699"/>
      </g>
    </a>
    <a href="structclanguml_1_1common_1_1model_1_1method__type__filter.html" target="_top" title="method_type_filter" xlink:actuate="onRequest" xlink:href="structclanguml_1_1common_1_1model_1_1method__type__filter.html" xlink:show="new" xlink:title="method_type_filter" xlink:type="simple">
      <g id="elem_C_0015178953694360295900">
        <rect codeLine="34" fill="#F1F1F1" height="48" id="C_0015178953694360295900" rx="2.5" ry="2.5" style="stroke:#181818;stroke-width:0.5;" width="155.6755" x="1099" y="718.6699"/>
        <ellipse cx="1114" cy="734.6699" fill="#ADD1B2" rx="11" ry="11" style="stroke:#181818;stroke-width:1;"/>
        <path d="M1116.9688,740.3105 Q1116.3906,740.6074 1115.75,740.748 Q1115.1094,740.9043 1114.4063,740.9043 Q1111.9063,740.9043 1110.5781,739.2636 Q1109.2656,737.6074 1109.2656,734.4824 Q1109.2656,731.3574 1110.5781,729.7011 Q1111.9063,728.0449 1114.4063,728.0449 Q1115.1094,728.0449 1115.75,728.2011 Q1116.4063,728.3574 1116.9688,728.6543 L1116.9688,731.373 Q1116.3438,730.7949 1115.75,730.5293 Q1115.1563,730.248 1114.5313,730.248 Q1113.1875,730.248 1112.5,731.3261 Q1111.8125,732.3886 1111.8125,734.4824 Q1111.8125,736.5761 1112.5,737.6543 Q1113.1875,738.7168 1114.5313,738.7168 Q1115.1563,738.7168 1115.75,738.4511 Q1116.3438,738.1699 1116.9688,737.5918 L1116.9688,740.3105 Z " fill="#000000"/>
        <text fill="#000000" font-family="sans-serif" font-size="14" lengthAdjust="spacing" textLength="123.6755" x="1128" y="740.1019">method_type_filter</text>
        <line style="stroke:#181818;stroke-width:0.5;" x1="1100" x2="1253.6755" y1="750.6699" y2="750.6699"/>
        <line style="stroke:#181818;stroke-width:0.5;" x1="1100" x2="1253.6755" y1="758.6699" y2="758.6699"/>
      </g>
    </a>
    <a href="structclanguml_1_1common_1_1model_1_1callee__filter.html" target="_top" title="callee_filter" xlink:actuate="onRequest" xlink:href="structclanguml_1_1common_1_1model_1_1callee__filter.html" xlink:show="new" xlink:title="callee_filter" xlink:type="simple">
      <g id="elem_C_0009586729560943033114">
        <rect codeLine="38" fill="#F1F1F1" height="48" id="C_0009586729560943033114" rx="2.5" ry="2.5" style="stroke:#181818;stroke-width:0.5;" width="106.5777" x="533.5" y="1080.6699"/>
        <ellipse cx="548.5" cy="1096.6699" fill="#ADD1B2" rx="11" ry="11" style="stroke:#181818;stroke-width:1;"/>
        <path d="M551.4688,1102.3105 Q550.8906,1102.6074 550.25,1102.748 Q549.6094,1102.9043 548.9063,1102.9043 Q546.4063,1102.9043 545.0781,1101.2636 Q543.7656,1099.6074 543.7656,1096.4824 Q543.7656,1093.3574 545.0781,1091.7011 Q546.4063,1090.0449 548.9063,1090.0449 Q549.6094,1090.0449 550.25,1090.2011 Q550.9063,1090.3574 551.4688,1090.6543 L551.4688,1093.373 Q550.8438,1092.7949 550.25,1092.5293 Q549.6563,1092.248 549.0313,1092.248 Q547.6875,1092.248 547,1093.3261 Q546.3125,1094.3886 546.3125,1096.4824 Q546.3125,1098.5761 547,1099.6543 Q547.6875,1100.7168 549.0313,1100.7168 Q549.6563,1100.7168 550.25,1100.4511 Q550.8438,1100.1699 551.4688,1099.5918 L551.4688,1102.3105 Z " fill="#000000"/>
        <text fill="#000000" font-family="sans-serif" font-size="14" lengthAdjust="spacing" textLength="74.5777" x="562.5" y="1102.1019">callee_filter</text>
        <line style="stroke:#181818;stroke-width:0.5;" x1="534.5" x2="639.0777" y1="1112.6699" y2="1112.6699"/>
        <line style="stroke:#181818;stroke-width:0.5;" x1="534.5" x2="639.0777" y1="1120.6699" y2="1120.6699"/>
      </g>
    </a>
    <a href="structclanguml_1_1common_1_1model_1_1subclass__filter.html" target="_top" title="subclass_filter" xlink:actuate="onRequest" xlink:href="structclanguml_1_1common_1_1model_1_1subclass__filter.html" xlink:show="new" xlink:title="subclass_filter" xlink:type="simple">
      <g id="elem_C_0011119356209474014086">
        <rect codeLine="42" fill="#F1F1F1" height="48" id="C_0011119356209474014086" rx="2.5" ry="2.5" style="stroke:#181818;stroke-width:0.5;" width="124.5536" x="524.5" y="997.6699"/>
        <ellipse cx="539.5" cy="1013.6699" fill="#ADD1B2" rx="11" ry="11" style="stroke:#181818;stroke-width:1;"/>
        <path d="M542.4688,1019.3105 Q541.8906,1019.6074 541.25,1019.748 Q540.6094,1019.9043 539.9063,1019.9043 Q537.4063,1019.9043 536.0781,1018.2636 Q534.7656,1016.6074 534.7656,1013.4824 Q534.7656,1010.3574 536.0781,1008.7011 Q537.4063,1007.0449 539.9063,1007.0449 Q540.6094,1007.0449 541.25,1007.2011 Q541.9063,1007.3574 542.4688,1007.6543 L542.4688,1010.373 Q541.8438,1009.7949 541.25,1009.5293 Q540.6563,1009.248 540.0313,1009.248 Q538.6875,1009.248 538,1010.3261 Q537.3125,1011.3886 537.3125,1013.4824 Q537.3125,1015.5761 538,1016.6543 Q538.6875,1017.7168 540.0313,1017.7168 Q540.6563,1017.7168 541.25,1017.4511 Q541.8438,1017.1699 542.4688,1016.5918 L542.4688,1019.3105 Z " fill="#000000"/>
        <text fill="#000000" font-family="sans-serif" font-size="14" lengthAdjust="spacing" textLength="92.5536" x="553.5" y="1019.1019">subclass_filter</text>
        <line style="stroke:#181818;stroke-width:0.5;" x1="525.5" x2="648.0536" y1="1029.6699" y2="1029.6699"/>
        <line style="stroke:#181818;stroke-width:0.5;" x1="525.5" x2="648.0536" y1="1037.6699" y2="1037.6699"/>
      </g>
    </a>
    <a href="structclanguml_1_1common_1_1model_1_1parents__filter.html" target="_top" title="parents_filter" xlink:actuate="onRequest" xlink:href="structclanguml_1_1common_1_1model_1_1parents__filter.html" xlink:show="new" xlink:title="parents_filter" xlink:type="simple">
      <g id="elem_C_0014190027896959020338">
        <rect codeLine="46" fill="#F1F1F1" height="48" id="C_0014190027896959020338" rx="2.5" ry="2.5" style="stroke:#181818;stroke-width:0.5;" width="119.5417" x="527" y="914.6699"/>
        <ellipse cx="542" cy="930.6699" fill="#ADD1B2" rx="11" ry="11" style="stroke:#181818;stroke-width:1;"/>
        <path d="M544.9688,936.3105 Q544.3906,936.6074 543.75,936.748 Q543.1094,936.9043 542.4063,936.9043 Q539.9063,936.9043 538.5781,935.2636 Q537.2656,933.6074 537.2656,930.4824 Q537.2656,927.3574 538.5781,925.7011 Q539.9063,924.0449 542.4063,924.0449 Q543.1094,924.0449 543.75,924.2011 Q544.4063,924.3574 544.9688,924.6543 L544.9688,927.373 Q544.3438,926.7949 543.75,926.5293 Q543.1563,926.248 542.5313,926.248 Q541.1875,926.248 540.5,927.3261 Q539.8125,928.3886 539.8125,930.4824 Q539.8125,932.5761 540.5,933.6543 Q541.1875,934.7168 542.5313,934.7168 Q543.1563,934.7168 543.75,934.4511 Q544.3438,934.1699 544.9688,933.5918 L544.9688,936.3105 Z " fill="#000000"/>
        <text fill="#000000" font-family="sans-serif" font-size="14" lengthAdjust="spacing" textLength="87.5417" x="556" y="936.1019">parents_filter</text>
        <line style="stroke:#181818;stroke-width:0.5;" x1="528" x2="645.5417" y1="946.6699" y2="946.6699"/>
        <line style="stroke:#181818;stroke-width:0.5;" x1="528" x2="645.5417" y1="954.6699" y2="954.6699"/>
      </g>
    </a>
    <a href="structclanguml_1_1common_1_1model_1_1edge__traversal__filter.html" target="_top" title="Common template for filters involving traversing relationship graph." xlink:actuate="onRequest" xlink:href="structclanguml_1_1common_1_1model_1_1edge__traversal__filter.html" xlink:show="new" xlink:title="Common template for filters involving traversing relationship graph." xlink:type="simple">
      <g id="elem_C_0011978821643502128904">
        <rect codeLine="50" fill="#F1F1F1" height="48" id="C_0011978821643502128904" rx="2.5" ry="2.5" style="stroke:#181818;stroke-width:0.5;" width="635.8426" x="269" y="665.6699"/>
        <ellipse cx="284" cy="681.6699" fill="#ADD1B2" rx="11" ry="11" style="stroke:#181818;stroke-width:1;"/>
        <path d="M286.9688,687.3105 Q286.3906,687.6074 285.75,687.748 Q285.1094,687.9043 284.4063,687.9043 Q281.9063,687.9043 280.5781,686.2636 Q279.2656,684.6074 279.2656,681.4824 Q279.2656,678.3574 280.5781,676.7011 Q281.9063,675.0449 284.4063,675.0449 Q285.1094,675.0449 285.75,675.2011 Q286.4063,675.3574 286.9688,675.6543 L286.9688,678.373 Q286.3438,677.7949 285.75,677.5293 Q285.1563,677.248 284.5313,677.248 Q283.1875,677.248 282.5,678.3261 Q281.8125,679.3886 281.8125,681.4824 Q281.8125,683.5761 282.5,684.6543 Q283.1875,685.7168 284.5313,685.7168 Q285.1563,685.7168 285.75,685.4511 Q286.3438,685.1699 286.9688,684.5918 L286.9688,687.3105 Z " fill="#000000"/>
        <text fill="#000000" font-family="sans-serif" font-size="14" lengthAdjust="spacing" textLength="133.8675" x="298" y="687.1019">edge_traversal_filter</text>
        <rect fill="#FFFFFF" height="18.3441" style="stroke:#181818;stroke-width:1;stroke-dasharray:2.0,2.0;" width="467.9751" x="439.8675" y="662.6699"/>
        <text fill="#000000" font-family="sans-serif" font-size="12" font-style="italic" lengthAdjust="spacing" textLength="465.9751" x="440.8675" y="676.498">DiagramT,ElementT,ConfigEntryT=std::string,MatchOverrideT=common::model::element</text>
        <line style="stroke:#181818;stroke-width:0.5;" x1="270" x2="903.8426" y1="697.6699" y2="697.6699"/>
        <line style="stroke:#181818;stroke-width:0.5;" x1="270" x2="903.8426" y1="705.6699" y2="705.6699"/>
      </g>
    </a>
    <a href="structclanguml_1_1common_1_1model_1_1relationship__filter.html" target="_top" title="relationship_filter" xlink:actuate="onRequest" xlink:href="structclanguml_1_1common_1_1model_1_1relationship__filter.html" xlink:show="new" xlink:title="relationship_filter" xlink:type="simple">
      <g id="elem_C_0009565704064810099821">
        <rect codeLine="54" fill="#F1F1F1" height="48" id="C_0009565704064810099821" rx="2.5" ry="2.5" style="stroke:#181818;stroke-width:0.5;" width="147.4996" x="513.5" y="582.6699"/>
        <ellipse cx="528.5" cy="598.6699" fill="#ADD1B2" rx="11" ry="11" style="stroke:#181818;stroke-width:1;"/>
        <path d="M531.4688,604.3105 Q530.8906,604.6074 530.25,604.748 Q529.6094,604.9043 528.9063,604.9043 Q526.4063,604.9043 525.0781,603.2636 Q523.7656,601.6074 523.7656,598.4824 Q523.7656,595.3574 525.0781,593.7011 Q526.4063,592.0449 528.9063,592.0449 Q529.6094,592.0449 530.25,592.2011 Q530.9063,592.3574 531.4688,592.6543 L531.4688,595.373 Q530.8438,594.7949 530.25,594.5293 Q529.6563,594.248 529.0313,594.248 Q527.6875,594.248 527,595.3261 Q526.3125,596.3886 526.3125,598.4824 Q526.3125,600.5761 527,601.6543 Q527.6875,602.7168 529.0313,602.7168 Q529.6563,602.7168 530.25,602.4511 Q530.8438,602.1699 531.4688,601.5918 L531.4688,604.3105 Z " fill="#000000"/>
        <text fill="#000000" font-family="sans-serif" font-size="14" lengthAdjust="spacing" textLength="115.4996" x="542.5" y="604.1019">relationship_filter</text>
        <line style="stroke:#181818;stroke-width:0.5;" x1="514.5" x2="659.9996" y1="614.6699" y2="614.6699"/>
        <line style="stroke:#181818;stroke-width:0.5;" x1="514.5" x2="659.9996" y1="622.6699" y2="622.6699"/>
      </g>
    </a>
    <a href="structclanguml_1_1common_1_1model_1_1access__filter.html" target="_top" title="access_filter" xlink:actuate="onRequest" xlink:href="structclanguml_1_1common_1_1model_1_1access__filter.html" xlink:show="new" xlink:title="access_filter" xlink:type="simple">
      <g id="elem_C_0008785474747591996724">
        <rect codeLine="58" fill="#F1F1F1" height="48" id="C_0008785474747591996724" rx="2.5" ry="2.5" style="stroke:#181818;stroke-width:0.5;" width="111.5897" x="1121" y="213.6699"/>
        <ellipse cx="1136" cy="229.6699" fill="#ADD1B2" rx="11" ry="11" style="stroke:#181818;stroke-width:1;"/>
        <path d="M1138.9688,235.3105 Q1138.3906,235.6074 1137.75,235.748 Q1137.1094,235.9043 1136.4063,235.9043 Q1133.9063,235.9043 1132.5781,234.2636 Q1131.2656,232.6074 1131.2656,229.4824 Q1131.2656,226.3574 1132.5781,224.7011 Q1133.9063,223.0449 1136.4063,223.0449 Q1137.1094,223.0449 1137.75,223.2011 Q1138.4063,223.3574 1138.9688,223.6543 L1138.9688,226.373 Q1138.3438,225.7949 1137.75,225.5293 Q1137.1563,225.248 1136.5313,225.248 Q1135.1875,225.248 1134.5,226.3261 Q1133.8125,227.3886 1133.8125,229.4824 Q1133.8125,231.5761 1134.5,232.6543 Q1135.1875,233.7168 1136.5313,233.7168 Q1137.1563,233.7168 1137.75,233.4511 Q1138.3438,233.1699 1138.9688,232.5918 L1138.9688,235.3105 Z " fill="#000000"/>
        <text fill="#000000" font-family="sans-serif" font-size="14" lengthAdjust="spacing" textLength="79.5897" x="1150" y="235.1019">access_filter</text>
        <line style="stroke:#181818;stroke-width:0.5;" x1="1122" x2="1231.5897" y1="245.6699" y2="245.6699"/>
        <line style="stroke:#181818;stroke-width:0.5;" x1="1122" x2="1231.5897" y1="253.6699" y2="253.6699"/>
      </g>
    </a>
    <a href="structclanguml_1_1common_1_1model_1_1module__access__filter.html" target="_top" title="module_access_filter" xlink:actuate="onRequest" xlink:href="structclanguml_1_1common_1_1model_1_1module__access__filter.html" xlink:show="new" xlink:title="module_access_filter" xlink:type="simple">
      <g id="elem_C_0015952402022523334996">
        <rect codeLine="62" fill="#F1F1F1" height="48" id="C_0015952402022523334996" rx="2.5" ry="2.5" style="stroke:#181818;stroke-width:0.5;" width="168.1355" x="503" y="462.6699"/>
        <ellipse cx="518" cy="478.6699" fill="#ADD1B2" rx="11" ry="11" style="stroke:#181818;stroke-width:1;"/>
        <path d="M520.9688,484.3105 Q520.3906,484.6074 519.75,484.748 Q519.1094,484.9043 518.4063,484.9043 Q515.9063,484.9043 514.5781,483.2636 Q513.2656,481.6074 513.2656,478.4824 Q513.2656,475.3574 514.5781,473.7011 Q515.9063,472.0449 518.4063,472.0449 Q519.1094,472.0449 519.75,472.2011 Q520.4063,472.3574 520.9688,472.6543 L520.9688,475.373 Q520.3438,474.7949 519.75,474.5293 Q519.1563,474.248 518.5313,474.248 Q517.1875,474.248 516.5,475.3261 Q515.8125,476.3886 515.8125,478.4824 Q515.8125,480.5761 516.5,481.6543 Q517.1875,482.7168 518.5313,482.7168 Q519.1563,482.7168 519.75,482.4511 Q520.3438,482.1699 520.9688,481.5918 L520.9688,484.3105 Z " fill="#000000"/>
        <text fill="#000000" font-family="sans-serif" font-size="14" lengthAdjust="spacing" textLength="136.1355" x="532" y="484.1019">module_access_filter</text>
        <line style="stroke:#181818;stroke-width:0.5;" x1="504" x2="670.1355" y1="494.6699" y2="494.6699"/>
        <line style="stroke:#181818;stroke-width:0.5;" x1="504" x2="670.1355" y1="502.6699" y2="502.6699"/>
      </g>
    </a>
    <a href="structclanguml_1_1common_1_1model_1_1context__filter.html" target="_top" title="context_filter" xlink:actuate="onRequest" xlink:href="structclanguml_1_1common_1_1model_1_1context__filter.html" xlink:show="new" xlink:title="context_filter" xlink:type="simple">
      <g id="elem_C_0016629349577908476453">
        <rect codeLine="66" fill="#F1F1F1" height="48" id="C_0016629349577908476453" rx="2.5" ry="2.5" style="stroke:#181818;stroke-width:0.5;" width="118.2397" x="528" y="379.6699"/>
        <ellipse cx="543" cy="395.6699" fill="#ADD1B2" rx="11" ry="11" style="stroke:#181818;stroke-width:1;"/>
        <path d="M545.9688,401.3105 Q545.3906,401.6074 544.75,401.748 Q544.1094,401.9043 543.4063,401.9043 Q540.9063,401.9043 539.5781,400.2636 Q538.2656,398.6074 538.2656,395.4824 Q538.2656,392.3574 539.5781,390.7011 Q540.9063,389.0449 543.4063,389.0449 Q544.1094,389.0449 544.75,389.2011 Q545.4063,389.3574 545.9688,389.6543 L545.9688,392.373 Q545.3438,391.7949 544.75,391.5293 Q544.1563,391.248 543.5313,391.248 Q542.1875,391.248 541.5,392.3261 Q540.8125,393.3886 540.8125,395.4824 Q540.8125,397.5761 541.5,398.6543 Q542.1875,399.7168 543.5313,399.7168 Q544.1563,399.7168 544.75,399.4511 Q545.3438,399.1699 545.9688,398.5918 L545.9688,401.3105 Z " fill="#000000"/>
        <text fill="#000000" font-family="sans-serif" font-size="14" lengthAdjust="spacing" textLength="86.2397" x="557" y="401.1019">context_filter</text>
        <line style="stroke:#181818;stroke-width:0.5;" x1="529" x2="645.2397" y1="411.6699" y2="411.6699"/>
        <line style="stroke:#181818;stroke-width:0.5;" x1="529" x2="645.2397" y1="419.6699" y2="419.6699"/>
      </g>
    </a>
    <a href="structclanguml_1_1common_1_1model_1_1paths__filter.html" target="_top" title="paths_filter" xlink:actuate="onRequest" xlink:href="structclanguml_1_1common_1_1model_1_1paths__filter.html" xlink:show="new" xlink:title="paths_filter" xlink:type="simple">
      <g id="elem_C_0006652291670129478083">
        <rect codeLine="70" fill="#F1F1F1" height="48" id="C_0006652291670129478083" rx="2.5" ry="2.5" style="stroke:#181818;stroke-width:0.5;" width="105.8637" x="534" y="296.6699"/>
        <ellipse cx="549" cy="312.6699" fill="#ADD1B2" rx="11" ry="11" style="stroke:#181818;stroke-width:1;"/>
        <path d="M551.9688,318.3105 Q551.3906,318.6074 550.75,318.748 Q550.1094,318.9043 549.4063,318.9043 Q546.9063,318.9043 545.5781,317.2636 Q544.2656,315.6074 544.2656,312.4824 Q544.2656,309.3574 545.5781,307.7011 Q546.9063,306.0449 549.4063,306.0449 Q550.1094,306.0449 550.75,306.2011 Q551.4063,306.3574 551.9688,306.6543 L551.9688,309.373 Q551.3438,308.7949 550.75,308.5293 Q550.1563,308.248 549.5313,308.248 Q548.1875,308.248 547.5,309.3261 Q546.8125,310.3886 546.8125,312.4824 Q546.8125,314.5761 547.5,315.6543 Q548.1875,316.7168 549.5313,316.7168 Q550.1563,316.7168 550.75,316.4511 Q551.3438,316.1699 551.9688,315.5918 L551.9688,318.3105 Z " fill="#000000"/>
        <text fill="#000000" font-family="sans-serif" font-size="14" lengthAdjust="spacing" textLength="73.8637" x="563" y="318.1019">paths_filter</text>
        <line style="stroke:#181818;stroke-width:0.5;" x1="535" x2="638.8637" y1="328.6699" y2="328.6699"/>
        <line style="stroke:#181818;stroke-width:0.5;" x1="535" x2="638.8637" y1="336.6699" y2="336.6699"/>
      </g>
    </a>
    <a href="structclanguml_1_1common_1_1model_1_1class__method__filter.html" target="_top" title="class_method_filter" xlink:actuate="onRequest" xlink:href="structclanguml_1_1common_1_1model_1_1class__method__filter.html" xlink:show="new" xlink:title="class_method_filter" xlink:type="simple">
      <g id="elem_C_0012630714920699568214">
        <rect codeLine="74" fill="#F1F1F1" height="48" id="C_0012630714920699568214" rx="2.5" ry="2.5" style="stroke:#181818;stroke-width:0.5;" width="158.5735" x="507.5" y="213.6699"/>
        <ellipse cx="522.5" cy="229.6699" fill="#ADD1B2" rx="11" ry="11" style="stroke:#181818;stroke-width:1;"/>
        <path d="M525.4688,235.3105 Q524.8906,235.6074 524.25,235.748 Q523.6094,235.9043 522.9063,235.9043 Q520.4063,235.9043 519.0781,234.2636 Q517.7656,232.6074 517.7656,229.4824 Q517.7656,226.3574 519.0781,224.7011 Q520.4063,223.0449 522.9063,223.0449 Q523.6094,223.0449 524.25,223.2011 Q524.9063,223.3574 525.4688,223.6543 L525.4688,226.373 Q524.8438,225.7949 524.25,225.5293 Q523.6563,225.248 523.0313,225.248 Q521.6875,225.248 521,226.3261 Q520.3125,227.3886 520.3125,229.4824 Q520.3125,231.5761 521,232.6543 Q521.6875,233.7168 523.0313,233.7168 Q523.6563,233.7168 524.25,233.4511 Q524.8438,233.1699 525.4688,232.5918 L525.4688,235.3105 Z " fill="#000000"/>
        <text fill="#000000" font-family="sans-serif" font-size="14" lengthAdjust="spacing" textLength="126.5735" x="536.5" y="235.1019">class_method_filter</text>
        <line style="stroke:#181818;stroke-width:0.5;" x1="508.5" x2="665.0735" y1="245.6699" y2="245.6699"/>
        <line style="stroke:#181818;stroke-width:0.5;" x1="508.5" x2="665.0735" y1="253.6699" y2="253.6699"/>
      </g>
    </a>
    <a href="structclanguml_1_1common_1_1model_1_1class__member__filter.html" target="_top" title="class_member_filter" xlink:actuate="onRequest" xlink:href="structclanguml_1_1common_1_1model_1_1class__member__filter.html" xlink:show="new" xlink:title="class_member_filter" xlink:type="simple">
      <g id="elem_C_0005413465939996691743">
        <rect codeLine="78" fill="#F1F1F1" height="48" id="C_0005413465939996691743" rx="2.5" ry="2.5" style="stroke:#181818;stroke-width:0.5;" width="163.1655" x="505.5" y="130.6699"/>
        <ellipse cx="520.5" cy="146.6699" fill="#ADD1B2" rx="11" ry="11" style="stroke:#181818;stroke-width:1;"/>
        <path d="M523.4688,152.3105 Q522.8906,152.6074 522.25,152.748 Q521.6094,152.9043 520.9063,152.9043 Q518.4063,152.9043 517.0781,151.2636 Q515.7656,149.6074 515.7656,146.4824 Q515.7656,143.3574 517.0781,141.7011 Q518.4063,140.0449 520.9063,140.0449 Q521.6094,140.0449 522.25,140.2011 Q522.9063,140.3574 523.4688,140.6543 L523.4688,143.373 Q522.8438,142.7949 522.25,142.5293 Q521.6563,142.248 521.0313,142.248 Q519.6875,142.248 519,143.3261 Q518.3125,144.3886 518.3125,146.4824 Q518.3125,148.5761 519,149.6543 Q519.6875,150.7168 521.0313,150.7168 Q521.6563,150.7168 522.25,150.4511 Q522.8438,150.1699 523.4688,149.5918 L523.4688,152.3105 Z " fill="#000000"/>
        <text fill="#000000" font-family="sans-serif" font-size="14" lengthAdjust="spacing" textLength="131.1655" x="534.5" y="152.1019">class_member_filter</text>
        <line style="stroke:#181818;stroke-width:0.5;" x1="506.5" x2="667.6655" y1="162.6699" y2="162.6699"/>
        <line style="stroke:#181818;stroke-width:0.5;" x1="506.5" x2="667.6655" y1="170.6699" y2="170.6699"/>
      </g>
    </a>
    <a href="" target="_top" title="filters_" xlink:actuate="onRequest" xlink:href="" xlink:show="new" xlink:title="filters_" xlink:type="simple">
      <path codeLine="83" d="M521.9271,853.7585 C445.2671,851.1285 309.65,844.8599 185,829.6699 C175.35,828.4899 165.13,826.9299 155.27,825.2499 " fill="transparent" id="C_0004846633653196508605-backto-C_0003755664421485538512" style="stroke:#181818;stroke-width:1;"/>
      <polygon fill="transparent" points="533.92,854.1699,528.0607,849.9665,521.9271,853.7585,527.7864,857.9618,533.92,854.1699" style="stroke:#181818;stroke-width:1;"/>
      <rect fill="transparent" height="6" style="stroke:#C82930;stroke-width:1;" width="6" x="188" y="818.0229"/>
      <text fill="#000000" font-family="sans-serif" font-size="13" lengthAdjust="spacing" textLength="40.573" x="198" y="825.5669">filters_</text>
    </a>
    <g id="link_C_0003755664421485538512_C_0004846633653196508605">
      <path codeLine="84" d="M172.4521,840.5296 C182.2221,843.5396 175.22,840.9099 185,842.6699 C308.57,864.8999 456.93,862.2699 533.91,858.7699 " fill="transparent" id="C_0003755664421485538512-backto-C_0004846633653196508605" style="stroke:#181818;stroke-width:1;"/>
      <polygon fill="transparent" points="155.25,835.2299,170.6855,846.2637,174.2187,834.7956,155.25,835.2299" style="stroke:#181818;stroke-width:1;"/>
    </g>
    <a href="" target="_top" title="filters_" xlink:actuate="onRequest" xlink:href="" xlink:show="new" xlink:title="filters_" xlink:type="simple">
      <path codeLine="85" d="M526.3181,774.6194 C451.0181,777.3794 312.08,784.0299 185,799.6699 C175.35,800.8599 165.13,802.4299 155.27,804.1099 " fill="transparent" id="C_0008681673430919411882-backto-C_0003755664421485538512" style="stroke:#181818;stroke-width:1;"/>
      <polygon fill="transparent" points="538.31,774.1799,532.1675,770.4024,526.3181,774.6194,532.4605,778.397,538.31,774.1799" style="stroke:#181818;stroke-width:1;"/>
      <rect fill="transparent" height="6" style="stroke:#C82930;stroke-width:1;" width="6" x="188" y="784.0229"/>
      <text fill="#000000" font-family="sans-serif" font-size="13" lengthAdjust="spacing" textLength="40.573" x="198" y="791.5669">filters_</text>
    </a>
    <g id="link_C_0003755664421485538512_C_0008681673430919411882">
      <path codeLine="86" d="M173.3086,807.7099 C183.1586,806.7699 175.43,807.5299 185,806.6699 C312.69,795.1399 463.36,782.6699 538.45,776.5299 " fill="transparent" id="C_0003755664421485538512-backto-C_0008681673430919411882" style="stroke:#181818;stroke-width:1;"/>
      <polygon fill="transparent" points="155.39,809.4199,173.8786,813.6828,172.7386,801.737,155.39,809.4199" style="stroke:#181818;stroke-width:1;"/>
    </g>
    <g id="link_C_0003755664421485538512_C_0014529922051766561513">
      <path codeLine="87" d="M105.155,856.77 C113.135,947.04 142.12,1245.9099 185,1336.6699 C209.07,1387.6299 219.25,1405.1799 269,1431.6699 C345.93,1472.6299 447.73,1479.1499 514.96,1478.0599 " fill="transparent" id="C_0003755664421485538512-backto-C_0014529922051766561513" style="stroke:#181818;stroke-width:1;"/>
      <polygon fill="transparent" points="103.57,838.8399,99.1784,857.2983,111.1317,856.2416,103.57,838.8399" style="stroke:#181818;stroke-width:1;"/>
    </g>
    <g id="link_C_0003755664421485538512_C_0018235506892675596161">
      <path codeLine="88" d="M100.4529,856.6874 C99.2829,927.5574 103.52,1122.1399 185,1270.6699 C249.31,1387.8999 428.33,1398.5999 523.94,1395.3499 " fill="transparent" id="C_0003755664421485538512-backto-C_0018235506892675596161" style="stroke:#181818;stroke-width:1;"/>
      <polygon fill="transparent" points="100.75,838.6899,94.4537,856.5884,106.4521,856.7865,100.75,838.6899" style="stroke:#181818;stroke-width:1;"/>
    </g>
    <g id="link_C_0003755664421485538512_C_0005522729892949283391">
      <path codeLine="89" d="M105.7769,856.8328 C113.8469,934.2228 140.14,1155.8799 185,1217.6699 C261.71,1323.3299 433.66,1323.9199 525.49,1315.6599 " fill="transparent" id="C_0003755664421485538512-backto-C_0005522729892949283391" style="stroke:#181818;stroke-width:1;"/>
      <polygon fill="transparent" points="103.91,838.9299,99.8092,857.4551,111.7445,856.2105,103.91,838.9299" style="stroke:#181818;stroke-width:1;"/>
    </g>
    <g id="link_C_0003755664421485538512_C_0016413347653743218402">
      <path codeLine="90" d="M105.2683,856.7315 C112.1083,929.7715 134.65,1128.2199 185,1173.6699 C272.64,1252.7999 418.29,1249.9399 507.85,1238.6899 " fill="transparent" id="C_0003755664421485538512-backto-C_0016413347653743218402" style="stroke:#181818;stroke-width:1;"/>
      <polygon fill="transparent" points="103.59,838.8099,99.2944,857.2909,111.2422,856.172,103.59,838.8099" style="stroke:#181818;stroke-width:1;"/>
    </g>
    <g id="link_C_0003755664421485538512_C_0015178953694360295900">
      <path codeLine="91" d="M106.3361,856.7141 C114.8561,923.2541 146.86,1089.8699 269,1145.6699 C333.28,1175.0399 842.63,1178.8899 905,1145.6699 C1062.76,1061.6399 1145.08,840.4099 1168.72,766.8499 " fill="transparent" id="C_0003755664421485538512-backto-C_0015178953694360295900" style="stroke:#181818;stroke-width:1;"/>
      <polygon fill="transparent" points="104.05,838.8599,100.3847,857.4762,112.2875,855.9521,104.05,838.8599" style="stroke:#181818;stroke-width:1;"/>
    </g>
    <g id="link_C_0003755664421485538512_C_0009586729560943033114">
      <path codeLine="92" d="M114.9601,855.9162 C132.9301,908.3062 177.61,1014.3199 269,1062.6699 C353.4,1107.3199 467.49,1110.9299 533.27,1108.4899 " fill="transparent" id="C_0003755664421485538512-backto-C_0009586729560943033114" style="stroke:#181818;stroke-width:1;"/>
      <polygon fill="transparent" points="109.12,838.8899,109.2847,857.8629,120.6355,853.9695,109.12,838.8899" style="stroke:#181818;stroke-width:1;"/>
    </g>
    <g id="link_C_0003755664421485538512_C_0011119356209474014086">
      <path codeLine="93" d="M128.5108,853.5723 C155.3408,890.8723 201.71,946.7699 269,979.6699 C350.79,1019.6599 457.88,1025.6499 524.29,1024.7899 " fill="transparent" id="C_0003755664421485538512-backto-C_0011119356209474014086" style="stroke:#181818;stroke-width:1;"/>
      <polygon fill="transparent" points="118,838.9599,123.64,857.0759,133.3816,850.0688,118,838.9599" style="stroke:#181818;stroke-width:1;"/>
    </g>
    <g id="link_C_0003755664421485538512_C_0014190027896959020338">
      <path codeLine="94" d="M160.3339,847.2507 C173.2439,854.2307 171.68,853.1599 185,859.6699 C221.65,877.5799 229.72,885.6599 269,896.6699 C356.8,921.2799 462.43,931.5999 526.86,935.8399 " fill="transparent" id="C_0003755664421485538512-backto-C_0014190027896959020338" style="stroke:#181818;stroke-width:1;"/>
      <polygon fill="transparent" points="144.5,838.6899,157.4803,852.5287,163.1875,841.9728,144.5,838.6899" style="stroke:#181818;stroke-width:1;"/>
    </g>
    <g id="link_C_0003755664421485538512_C_0011978821643502128904">
      <path codeLine="95" d="M159.3873,781.9007 C172.5173,774.6307 171.38,775.4899 185,768.6699 C221.64,750.3299 229.58,741.8599 269,730.6699 C292.49,723.9999 317.27,718.4099 342.2,713.7299 " fill="transparent" id="C_0003755664421485538512-backto-C_0011978821643502128904" style="stroke:#181818;stroke-width:1;"/>
      <polygon fill="transparent" points="143.64,790.6199,162.2936,787.1498,156.4809,776.6517,143.64,790.6199" style="stroke:#181818;stroke-width:1;"/>
    </g>
    <g id="link_C_0003755664421485538512_C_0009565704064810099821">
      <path codeLine="96" d="M128.0824,775.666 C154.7024,737.966 201.17,680.9599 269,647.6699 C346.34,609.7099 446.46,602.7099 513.29,603.0799 " fill="transparent" id="C_0003755664421485538512-backto-C_0009565704064810099821" style="stroke:#181818;stroke-width:1;"/>
      <polygon fill="transparent" points="117.7,790.3699,132.9837,779.1268,123.1811,772.2052,117.7,790.3699" style="stroke:#181818;stroke-width:1;"/>
    </g>
    <g id="link_C_0003755664421485538512_C_0008785474747591996724">
      <path codeLine="97" d="M114.9729,773.3812 C132.9629,720.8612 177.71,614.4199 269,564.6699 C393.31,496.9199 766.15,555.2799 905,527.6699 C980.68,512.6199 1011.88,522.5499 1069,470.6699 C1132.92,412.6099 1161.41,308.7399 1171.46,261.8299 " fill="transparent" id="C_0003755664421485538512-backto-C_0008785474747591996724" style="stroke:#181818;stroke-width:1;"/>
      <polygon fill="transparent" points="109.14,790.4099,120.6492,775.3255,109.2967,771.4369,109.14,790.4099" style="stroke:#181818;stroke-width:1;"/>
    </g>
    <g id="link_C_0003755664421485538512_C_0015952402022523334996">
      <path codeLine="98" d="M100.6378,772.4301 C100.3578,717.7901 108.12,602.7199 185,537.6699 C273.13,463.0999 413.57,463.3099 502.71,472.9799 " fill="transparent" id="C_0003755664421485538512-backto-C_0015952402022523334996" style="stroke:#181818;stroke-width:1;"/>
      <polygon fill="transparent" points="100.73,790.4299,106.6377,772.3994,94.6378,772.4609,100.73,790.4299" style="stroke:#181818;stroke-width:1;"/>
    </g>
    <g id="link_C_0003755664421485538512_C_0016629349577908476453">
      <path codeLine="99" d="M105.0528,772.6006 C110.1528,718.9306 126.46,605.2499 185,514.6699 C257.64,402.2799 435.13,394.4199 527.69,398.6699 " fill="transparent" id="C_0003755664421485538512-backto-C_0016629349577908476453" style="stroke:#181818;stroke-width:1;"/>
      <polygon fill="transparent" points="103.35,790.5199,111.0259,773.1682,99.0797,772.033,103.35,790.5199" style="stroke:#181818;stroke-width:1;"/>
    </g>
    <g id="link_C_0003755664421485538512_C_0006652291670129478083">
      <path codeLine="100" d="M101.1406,772.6499 C101.3206,692.7999 114.22,454.1099 269,361.6699 C351.54,312.3699 467.55,311.0199 533.92,315.2999 " fill="transparent" id="C_0003755664421485538512-backto-C_0006652291670129478083" style="stroke:#181818;stroke-width:1;"/>
      <polygon fill="transparent" points="101.1,790.6499,107.1406,772.6635,95.1406,772.6364,101.1,790.6499" style="stroke:#181818;stroke-width:1;"/>
    </g>
    <a href="" target="_top" title="access_filter_" xlink:actuate="onRequest" xlink:href="" xlink:show="new" xlink:title="access_filter_" xlink:type="simple">
      <path codeLine="101" d="M678.69,237.6699 C799.48,237.6699 1015.62,237.6699 1120.59,237.6699 " fill="transparent" id="C_0012630714920699568214-backto-C_0008785474747591996724" style="stroke:#181818;stroke-width:1;"/>
      <polygon fill="transparent" points="666.69,237.6699,672.69,241.6699,678.69,237.6699,672.69,233.6699,666.69,237.6699" style="stroke:#181818;stroke-width:1;"/>
      <rect fill="transparent" height="6" style="stroke:#C82930;stroke-width:1;" width="6" x="958.5" y="226.0229"/>
      <text fill="#000000" font-family="sans-serif" font-size="13" lengthAdjust="spacing" textLength="79.677" x="968.5" y="233.5669">access_filter_</text>
    </a>
    <a href="" target="_top" title="method_type_filter_" xlink:actuate="onRequest" xlink:href="" xlink:show="new" xlink:title="method_type_filter_" xlink:type="simple">
      <path codeLine="102" d="M678.6073,228.8889 C747.1373,225.7389 834.35,231.8299 905,278.6699 C1071.59,389.1099 1149.15,639.6899 1170.02,718.4799 " fill="transparent" id="C_0012630714920699568214-backto-C_0015178953694360295900" style="stroke:#181818;stroke-width:1;"/>
      <polygon fill="transparent" points="666.62,229.4399,672.7973,233.1602,678.6073,228.8889,672.43,225.1686,666.62,229.4399" style="stroke:#181818;stroke-width:1;"/>
      <rect fill="transparent" height="6" style="stroke:#C82930;stroke-width:1;" width="6" x="938" y="293.0229"/>
      <text fill="#000000" font-family="sans-serif" font-size="13" lengthAdjust="spacing" textLength="120.6141" x="948" y="300.5669">method_type_filter_</text>
    </a>
    <g id="link_C_0003755664421485538512_C_0012630714920699568214">
      <path codeLine="103" d="M104.5105,772.5937 C109.5405,707.6737 126.85,542.7199 185,403.6699 C210.82,341.9199 212.07,313.8799 269,278.6699 C340.86,234.2299 439.37,228.1499 507.41,230.5199 " fill="transparent" id="C_0003755664421485538512-backto-C_0012630714920699568214" style="stroke:#181818;stroke-width:1;"/>
      <polygon fill="transparent" points="103.12,790.5399,110.4925,773.0572,98.5284,772.1302,103.12,790.5399" style="stroke:#181818;stroke-width:1;"/>
    </g>
    <a href="" target="_top" title="access_filter_" xlink:actuate="onRequest" xlink:href="" xlink:show="new" xlink:title="access_filter_" xlink:type="simple">
      <path codeLine="104" d="M680.8679,161.8242 C776.8379,169.8842 929.46,185.0599 1069,210.6699 C1085.96,213.7799 1104.22,218.0399 1120.77,222.2599 " fill="transparent" id="C_0005413465939996691743-backto-C_0008785474747591996724" style="stroke:#181818;stroke-width:1;"/>
      <polygon fill="transparent" points="668.91,160.8199,674.5542,165.308,680.8679,161.8242,675.2237,157.3361,668.91,160.8199" style="stroke:#181818;stroke-width:1;"/>
      <rect fill="transparent" height="6" style="stroke:#C82930;stroke-width:1;" width="6" x="958.5" y="179.0229"/>
      <text fill="#000000" font-family="sans-serif" font-size="13" lengthAdjust="spacing" textLength="79.677" x="968.5" y="186.5669">access_filter_</text>
    </a>
    <g id="link_C_0003755664421485538512_C_0005413465939996691743">
      <path codeLine="105" d="M104.0766,772.4491 C108.7566,701.6091 125.88,507.7399 185,343.6699 C210.64,272.5099 206.22,237.8499 269,195.6699 C338.67,148.8599 436.67,143.0499 505.2,146.1299 " fill="transparent" id="C_0003755664421485538512-backto-C_0005413465939996691743" style="stroke:#181818;stroke-width:1;"/>
      <polygon fill="transparent" points="102.89,790.4099,110.0635,772.8446,98.0896,772.0535,102.89,790.4099" style="stroke:#181818;stroke-width:1;"/>
    </g>
  </g>
</svg>
