<?xml version="1.0" encoding="UTF-8" standalone="no"?><svg xmlns="http://www.w3.org/2000/svg" xmlns:xlink="http://www.w3.org/1999/xlink" contentScriptType="application/ecmascript" contentStyleType="text/css" height="1272px" preserveAspectRatio="none" style="width:1398px;height:1272px;" version="1.1" viewBox="0 0 1398 1272" width="1398px" zoomAndPan="magnify"><defs><filter height="300%" id="fr2f21lldb518" width="300%" x="-1" y="-1"><feGaussianBlur result="blurOut" stdDeviation="2.0"/><feColorMatrix in="blurOut" result="blurOut2" type="matrix" values="0 0 0 0 0 0 0 0 0 0 0 0 0 0 0 0 0 0 .4 0"/><feOffset dx="4.0" dy="4.0" in="blurOut2" result="blurOut3"/><feBlend in="SourceGraphic" in2="blurOut3" mode="normal"/></filter></defs><g><!--MD5=[7ba9c127878a642fef3f451151dda753]
cluster C_0000316605034920222648--><polygon fill="#FFFFFF" filter="url(#fr2f21lldb518)" points="22,24,95,24,102,46.2969,1376,46.2969,1376,1260,22,1260,22,24" style="stroke: #000000; stroke-width: 1.5;"/><line style="stroke: #000000; stroke-width: 1.5;" x1="22" x2="102" y1="46.2969" y2="46.2969"/><text fill="#000000" font-family="sans-serif" font-size="14" font-weight="bold" lengthAdjust="spacingAndGlyphs" textLength="67" x="26" y="38.9951">common</text><!--MD5=[f7110622f5be760311cd0491b75bf8f9]
cluster C_0000083721806430512831--><polygon fill="#FFFFFF" filter="url(#fr2f21lldb518)" points="46,67,100,67,107,89.2969,1352,89.2969,1352,1236,46,1236,46,67" style="stroke: #000000; stroke-width: 1.5;"/><line style="stroke: #000000; stroke-width: 1.5;" x1="46" x2="107" y1="89.2969" y2="89.2969"/><text fill="#000000" font-family="sans-serif" font-size="14" font-weight="bold" lengthAdjust="spacingAndGlyphs" textLength="48" x="50" y="81.9951">model</text><!--MD5=[348c2d3db5652c25145b0d8e485c461e]
class C_0000469458052685692314--><a href="classclanguml_1_1common_1_1model_1_1filter__visitor.html" target="_top" title="Base class for any diagram filter." xlink:actuate="onRequest" xlink:href="classclanguml_1_1common_1_1model_1_1filter__visitor.html" xlink:show="new" xlink:title="Base class for any diagram filter." xlink:type="simple"><rect fill="#FEFECE" filter="url(#fr2f21lldb518)" height="48" id="C_0000469458052685692314" style="stroke: #A80036; stroke-width: 1.5;" width="103" x="62" y="637"/><ellipse cx="77" cy="653" fill="#ADD1B2" rx="11" ry="11" style="stroke: #A80036; stroke-width: 1.0;"/><path d="M79.9688,658.6406 Q79.3906,658.9375 78.75,659.0781 Q78.1094,659.2344 77.4063,659.2344 Q74.9063,659.2344 73.5781,657.5938 Q72.2656,655.9375 72.2656,652.8125 Q72.2656,649.6875 73.5781,648.0313 Q74.9063,646.375 77.4063,646.375 Q78.1094,646.375 78.75,646.5313 Q79.4063,646.6875 79.9688,646.9844 L79.9688,649.7031 Q79.3438,649.125 78.75,648.8594 Q78.1563,648.5781 77.5313,648.5781 Q76.1875,648.5781 75.5,649.6563 Q74.8125,650.7188 74.8125,652.8125 Q74.8125,654.9063 75.5,655.9844 Q76.1875,657.0469 77.5313,657.0469 Q78.1563,657.0469 78.75,656.7813 Q79.3438,656.5 79.9688,655.9219 L79.9688,658.6406 Z "/><text fill="#000000" font-family="sans-serif" font-size="12" lengthAdjust="spacingAndGlyphs" textLength="71" x="91" y="657.1543">filter_visitor</text><line style="stroke: #A80036; stroke-width: 1.5;" x1="63" x2="164" y1="669" y2="669"/><line style="stroke: #A80036; stroke-width: 1.5;" x1="63" x2="164" y1="677" y2="677"/></a><!--MD5=[4991383f4171a9218cca625e40b0fe42]
class C_0000605829206649563575--><a href="structclanguml_1_1common_1_1model_1_1anyof__filter.html" target="_top" title="anyof_filter" xlink:actuate="onRequest" xlink:href="structclanguml_1_1common_1_1model_1_1anyof__filter.html" xlink:show="new" xlink:title="anyof_filter" xlink:type="simple"><rect fill="#FEFECE" filter="url(#fr2f21lldb518)" height="48" id="C_0000605829206649563575" style="stroke: #A80036; stroke-width: 1.5;" width="100" x="584.5" y="637"/><ellipse cx="599.5" cy="653" fill="#ADD1B2" rx="11" ry="11" style="stroke: #A80036; stroke-width: 1.0;"/><path d="M602.4688,658.6406 Q601.8906,658.9375 601.25,659.0781 Q600.6094,659.2344 599.9063,659.2344 Q597.4063,659.2344 596.0781,657.5938 Q594.7656,655.9375 594.7656,652.8125 Q594.7656,649.6875 596.0781,648.0313 Q597.4063,646.375 599.9063,646.375 Q600.6094,646.375 601.25,646.5313 Q601.9063,646.6875 602.4688,646.9844 L602.4688,649.7031 Q601.8438,649.125 601.25,648.8594 Q600.6563,648.5781 600.0313,648.5781 Q598.6875,648.5781 598,649.6563 Q597.3125,650.7188 597.3125,652.8125 Q597.3125,654.9063 598,655.9844 Q598.6875,657.0469 600.0313,657.0469 Q600.6563,657.0469 601.25,656.7813 Q601.8438,656.5 602.4688,655.9219 L602.4688,658.6406 Z "/><text fill="#000000" font-family="sans-serif" font-size="12" lengthAdjust="spacingAndGlyphs" textLength="68" x="613.5" y="657.1543">anyof_filter</text><line style="stroke: #A80036; stroke-width: 1.5;" x1="585.5" x2="683.5" y1="669" y2="669"/><line style="stroke: #A80036; stroke-width: 1.5;" x1="585.5" x2="683.5" y1="677" y2="677"/></a><!--MD5=[9cfce3424a6356171c77b8391b426661]
class C_0001816240256470820189--><a href="structclanguml_1_1common_1_1model_1_1namespace__filter.html" target="_top" title="namespace_filter" xlink:actuate="onRequest" xlink:href="structclanguml_1_1common_1_1model_1_1namespace__filter.html" xlink:show="new" xlink:title="namespace_filter" xlink:type="simple"><rect fill="#FEFECE" filter="url(#fr2f21lldb518)" height="48" id="C_0001816240256470820189" style="stroke: #A80036; stroke-width: 1.5;" width="139" x="565" y="1172"/><ellipse cx="580" cy="1188" fill="#ADD1B2" rx="11" ry="11" style="stroke: #A80036; stroke-width: 1.0;"/><path d="M582.9688,1193.6406 Q582.3906,1193.9375 581.75,1194.0781 Q581.1094,1194.2344 580.4063,1194.2344 Q577.9063,1194.2344 576.5781,1192.5938 Q575.2656,1190.9375 575.2656,1187.8125 Q575.2656,1184.6875 576.5781,1183.0313 Q577.9063,1181.375 580.4063,1181.375 Q581.1094,1181.375 581.75,1181.5313 Q582.4063,1181.6875 582.9688,1181.9844 L582.9688,1184.7031 Q582.3438,1184.125 581.75,1183.8594 Q581.1563,1183.5781 580.5313,1183.5781 Q579.1875,1183.5781 578.5,1184.6563 Q577.8125,1185.7188 577.8125,1187.8125 Q577.8125,1189.9063 578.5,1190.9844 Q579.1875,1192.0469 580.5313,1192.0469 Q581.1563,1192.0469 581.75,1191.7813 Q582.3438,1191.5 582.9688,1190.9219 L582.9688,1193.6406 Z "/><text fill="#000000" font-family="sans-serif" font-size="12" lengthAdjust="spacingAndGlyphs" textLength="107" x="594" y="1192.1543">namespace_filter</text><line style="stroke: #A80036; stroke-width: 1.5;" x1="566" x2="703" y1="1204" y2="1204"/><line style="stroke: #A80036; stroke-width: 1.5;" x1="566" x2="703" y1="1212" y2="1212"/></a><!--MD5=[50a823d282f0d0a0713932d3b5318c3a]
class C_0000690341236618660423--><a href="structclanguml_1_1common_1_1model_1_1element__filter.html" target="_top" title="element_filter" xlink:actuate="onRequest" xlink:href="structclanguml_1_1common_1_1model_1_1element__filter.html" xlink:show="new" xlink:title="element_filter" xlink:type="simple"><rect fill="#FEFECE" filter="url(#fr2f21lldb518)" height="48" id="C_0000690341236618660423" style="stroke: #A80036; stroke-width: 1.5;" width="117" x="576" y="1089"/><ellipse cx="591" cy="1105" fill="#ADD1B2" rx="11" ry="11" style="stroke: #A80036; stroke-width: 1.0;"/><path d="M593.9688,1110.6406 Q593.3906,1110.9375 592.75,1111.0781 Q592.1094,1111.2344 591.4063,1111.2344 Q588.9063,1111.2344 587.5781,1109.5938 Q586.2656,1107.9375 586.2656,1104.8125 Q586.2656,1101.6875 587.5781,1100.0313 Q588.9063,1098.375 591.4063,1098.375 Q592.1094,1098.375 592.75,1098.5313 Q593.4063,1098.6875 593.9688,1098.9844 L593.9688,1101.7031 Q593.3438,1101.125 592.75,1100.8594 Q592.1563,1100.5781 591.5313,1100.5781 Q590.1875,1100.5781 589.5,1101.6563 Q588.8125,1102.7188 588.8125,1104.8125 Q588.8125,1106.9063 589.5,1107.9844 Q590.1875,1109.0469 591.5313,1109.0469 Q592.1563,1109.0469 592.75,1108.7813 Q593.3438,1108.5 593.9688,1107.9219 L593.9688,1110.6406 Z "/><text fill="#000000" font-family="sans-serif" font-size="12" lengthAdjust="spacingAndGlyphs" textLength="85" x="605" y="1109.1543">element_filter</text><line style="stroke: #A80036; stroke-width: 1.5;" x1="577" x2="692" y1="1121" y2="1121"/><line style="stroke: #A80036; stroke-width: 1.5;" x1="577" x2="692" y1="1129" y2="1129"/></a><!--MD5=[97547c2450036638bcec6f72d4b27f74]
class C_0002051668456717902300--><a href="structclanguml_1_1common_1_1model_1_1element__type__filter.html" target="_top" title="element_type_filter" xlink:actuate="onRequest" xlink:href="structclanguml_1_1common_1_1model_1_1element__type__filter.html" xlink:show="new" xlink:title="element_type_filter" xlink:type="simple"><rect fill="#FEFECE" filter="url(#fr2f21lldb518)" height="48" id="C_0002051668456717902300" style="stroke: #A80036; stroke-width: 1.5;" width="150" x="559.5" y="1006"/><ellipse cx="574.5" cy="1022" fill="#ADD1B2" rx="11" ry="11" style="stroke: #A80036; stroke-width: 1.0;"/><path d="M577.4688,1027.6406 Q576.8906,1027.9375 576.25,1028.0781 Q575.6094,1028.2344 574.9063,1028.2344 Q572.4063,1028.2344 571.0781,1026.5938 Q569.7656,1024.9375 569.7656,1021.8125 Q569.7656,1018.6875 571.0781,1017.0313 Q572.4063,1015.375 574.9063,1015.375 Q575.6094,1015.375 576.25,1015.5313 Q576.9063,1015.6875 577.4688,1015.9844 L577.4688,1018.7031 Q576.8438,1018.125 576.25,1017.8594 Q575.6563,1017.5781 575.0313,1017.5781 Q573.6875,1017.5781 573,1018.6563 Q572.3125,1019.7188 572.3125,1021.8125 Q572.3125,1023.9063 573,1024.9844 Q573.6875,1026.0469 575.0313,1026.0469 Q575.6563,1026.0469 576.25,1025.7813 Q576.8438,1025.5 577.4688,1024.9219 L577.4688,1027.6406 Z "/><text fill="#000000" font-family="sans-serif" font-size="12" lengthAdjust="spacingAndGlyphs" textLength="118" x="588.5" y="1026.1543">element_type_filter</text><line style="stroke: #A80036; stroke-width: 1.5;" x1="560.5" x2="708.5" y1="1038" y2="1038"/><line style="stroke: #A80036; stroke-width: 1.5;" x1="560.5" x2="708.5" y1="1046" y2="1046"/></a><!--MD5=[71d01f1e4df54f674dba9adf3e9cbaa4]
class C_0001897369211795036987--><a href="structclanguml_1_1common_1_1model_1_1method__type__filter.html" target="_top" title="method_type_filter" xlink:actuate="onRequest" xlink:href="structclanguml_1_1common_1_1model_1_1method__type__filter.html" xlink:show="new" xlink:title="method_type_filter" xlink:type="simple"><rect fill="#FEFECE" filter="url(#fr2f21lldb518)" height="48" id="C_0001897369211795036987" style="stroke: #A80036; stroke-width: 1.5;" width="147" x="1189" y="429"/><ellipse cx="1204" cy="445" fill="#ADD1B2" rx="11" ry="11" style="stroke: #A80036; stroke-width: 1.0;"/><path d="M1206.9688,450.6406 Q1206.3906,450.9375 1205.75,451.0781 Q1205.1094,451.2344 1204.4063,451.2344 Q1201.9063,451.2344 1200.5781,449.5938 Q1199.2656,447.9375 1199.2656,444.8125 Q1199.2656,441.6875 1200.5781,440.0313 Q1201.9063,438.375 1204.4063,438.375 Q1205.1094,438.375 1205.75,438.5313 Q1206.4063,438.6875 1206.9688,438.9844 L1206.9688,441.7031 Q1206.3438,441.125 1205.75,440.8594 Q1205.1563,440.5781 1204.5313,440.5781 Q1203.1875,440.5781 1202.5,441.6563 Q1201.8125,442.7188 1201.8125,444.8125 Q1201.8125,446.9063 1202.5,447.9844 Q1203.1875,449.0469 1204.5313,449.0469 Q1205.1563,449.0469 1205.75,448.7813 Q1206.3438,448.5 1206.9688,447.9219 L1206.9688,450.6406 Z "/><text fill="#000000" font-family="sans-serif" font-size="12" lengthAdjust="spacingAndGlyphs" textLength="115" x="1218" y="449.1543">method_type_filter</text><line style="stroke: #A80036; stroke-width: 1.5;" x1="1190" x2="1335" y1="461" y2="461"/><line style="stroke: #A80036; stroke-width: 1.5;" x1="1190" x2="1335" y1="469" y2="469"/></a><!--MD5=[5bb9cbc546aa73898875d191298fd161]
class C_0001198341195117879139--><a href="structclanguml_1_1common_1_1model_1_1callee__filter.html" target="_top" title="callee_filter" xlink:actuate="onRequest" xlink:href="structclanguml_1_1common_1_1model_1_1callee__filter.html" xlink:show="new" xlink:title="callee_filter" xlink:type="simple"><rect fill="#FEFECE" filter="url(#fr2f21lldb518)" height="48" id="C_0001198341195117879139" style="stroke: #A80036; stroke-width: 1.5;" width="103" x="583" y="886"/><ellipse cx="598" cy="902" fill="#ADD1B2" rx="11" ry="11" style="stroke: #A80036; stroke-width: 1.0;"/><path d="M600.9688,907.6406 Q600.3906,907.9375 599.75,908.0781 Q599.1094,908.2344 598.4063,908.2344 Q595.9063,908.2344 594.5781,906.5938 Q593.2656,904.9375 593.2656,901.8125 Q593.2656,898.6875 594.5781,897.0313 Q595.9063,895.375 598.4063,895.375 Q599.1094,895.375 599.75,895.5313 Q600.4063,895.6875 600.9688,895.9844 L600.9688,898.7031 Q600.3438,898.125 599.75,897.8594 Q599.1563,897.5781 598.5313,897.5781 Q597.1875,897.5781 596.5,898.6563 Q595.8125,899.7188 595.8125,901.8125 Q595.8125,903.9063 596.5,904.9844 Q597.1875,906.0469 598.5313,906.0469 Q599.1563,906.0469 599.75,905.7813 Q600.3438,905.5 600.9688,904.9219 L600.9688,907.6406 Z "/><text fill="#000000" font-family="sans-serif" font-size="12" lengthAdjust="spacingAndGlyphs" textLength="71" x="612" y="906.1543">callee_filter</text><line style="stroke: #A80036; stroke-width: 1.5;" x1="584" x2="685" y1="918" y2="918"/><line style="stroke: #A80036; stroke-width: 1.5;" x1="584" x2="685" y1="926" y2="926"/></a><!--MD5=[93944d09819381b622aaa2bef32f8341]
class C_0001389919526184251760--><a href="structclanguml_1_1common_1_1model_1_1subclass__filter.html" target="_top" title="subclass_filter" xlink:actuate="onRequest" xlink:href="structclanguml_1_1common_1_1model_1_1subclass__filter.html" xlink:show="new" xlink:title="subclass_filter" xlink:type="simple"><rect fill="#FEFECE" filter="url(#fr2f21lldb518)" height="48" id="C_0001389919526184251760" style="stroke: #A80036; stroke-width: 1.5;" width="121" x="574" y="803"/><ellipse cx="589" cy="819" fill="#ADD1B2" rx="11" ry="11" style="stroke: #A80036; stroke-width: 1.0;"/><path d="M591.9688,824.6406 Q591.3906,824.9375 590.75,825.0781 Q590.1094,825.2344 589.4063,825.2344 Q586.9063,825.2344 585.5781,823.5938 Q584.2656,821.9375 584.2656,818.8125 Q584.2656,815.6875 585.5781,814.0313 Q586.9063,812.375 589.4063,812.375 Q590.1094,812.375 590.75,812.5313 Q591.4063,812.6875 591.9688,812.9844 L591.9688,815.7031 Q591.3438,815.125 590.75,814.8594 Q590.1563,814.5781 589.5313,814.5781 Q588.1875,814.5781 587.5,815.6563 Q586.8125,816.7188 586.8125,818.8125 Q586.8125,820.9063 587.5,821.9844 Q588.1875,823.0469 589.5313,823.0469 Q590.1563,823.0469 590.75,822.7813 Q591.3438,822.5 591.9688,821.9219 L591.9688,824.6406 Z "/><text fill="#000000" font-family="sans-serif" font-size="12" lengthAdjust="spacingAndGlyphs" textLength="89" x="603" y="823.1543">subclass_filter</text><line style="stroke: #A80036; stroke-width: 1.5;" x1="575" x2="694" y1="835" y2="835"/><line style="stroke: #A80036; stroke-width: 1.5;" x1="575" x2="694" y1="843" y2="843"/></a><!--MD5=[59291306c405f144f196302d19b0e086]
class C_0001773753487119877542--><a href="structclanguml_1_1common_1_1model_1_1parents__filter.html" target="_top" title="parents_filter" xlink:actuate="onRequest" xlink:href="structclanguml_1_1common_1_1model_1_1parents__filter.html" xlink:show="new" xlink:title="parents_filter" xlink:type="simple"><rect fill="#FEFECE" filter="url(#fr2f21lldb518)" height="48" id="C_0001773753487119877542" style="stroke: #A80036; stroke-width: 1.5;" width="115" x="577" y="720"/><ellipse cx="592" cy="736" fill="#ADD1B2" rx="11" ry="11" style="stroke: #A80036; stroke-width: 1.0;"/><path d="M594.9688,741.6406 Q594.3906,741.9375 593.75,742.0781 Q593.1094,742.2344 592.4063,742.2344 Q589.9063,742.2344 588.5781,740.5938 Q587.2656,738.9375 587.2656,735.8125 Q587.2656,732.6875 588.5781,731.0313 Q589.9063,729.375 592.4063,729.375 Q593.1094,729.375 593.75,729.5313 Q594.4063,729.6875 594.9688,729.9844 L594.9688,732.7031 Q594.3438,732.125 593.75,731.8594 Q593.1563,731.5781 592.5313,731.5781 Q591.1875,731.5781 590.5,732.6563 Q589.8125,733.7188 589.8125,735.8125 Q589.8125,737.9063 590.5,738.9844 Q591.1875,740.0469 592.5313,740.0469 Q593.1563,740.0469 593.75,739.7813 Q594.3438,739.5 594.9688,738.9219 L594.9688,741.6406 Z "/><text fill="#000000" font-family="sans-serif" font-size="12" lengthAdjust="spacingAndGlyphs" textLength="83" x="606" y="740.1543">parents_filter</text><line style="stroke: #A80036; stroke-width: 1.5;" x1="578" x2="691" y1="752" y2="752"/><line style="stroke: #A80036; stroke-width: 1.5;" x1="578" x2="691" y1="760" y2="760"/></a><!--MD5=[8262c3c6e6c32d5ff4c6ddcd7ea3a612]
class C_0001497352705437766113--><a href="structclanguml_1_1common_1_1model_1_1edge__traversal__filter.html" target="_top" title="Common template for filters involving traversing relationship graph." xlink:actuate="onRequest" xlink:href="structclanguml_1_1common_1_1model_1_1edge__traversal__filter.html" xlink:show="new" xlink:title="Common template for filters involving traversing relationship graph." xlink:type="simple"><rect fill="#FEFECE" filter="url(#fr2f21lldb518)" height="48" id="C_0001497352705437766113" style="stroke: #A80036; stroke-width: 1.5;" width="707" x="281" y="554"/><ellipse cx="296" cy="570" fill="#ADD1B2" rx="11" ry="11" style="stroke: #A80036; stroke-width: 1.0;"/><path d="M298.9688,575.6406 Q298.3906,575.9375 297.75,576.0781 Q297.1094,576.2344 296.4063,576.2344 Q293.9063,576.2344 292.5781,574.5938 Q291.2656,572.9375 291.2656,569.8125 Q291.2656,566.6875 292.5781,565.0313 Q293.9063,563.375 296.4063,563.375 Q297.1094,563.375 297.75,563.5313 Q298.4063,563.6875 298.9688,563.9844 L298.9688,566.7031 Q298.3438,566.125 297.75,565.8594 Q297.1563,565.5781 296.5313,565.5781 Q295.1875,565.5781 294.5,566.6563 Q293.8125,567.7188 293.8125,569.8125 Q293.8125,571.9063 294.5,572.9844 Q295.1875,574.0469 296.5313,574.0469 Q297.1563,574.0469 297.75,573.7813 Q298.3438,573.5 298.9688,572.9219 L298.9688,575.6406 Z "/><text fill="#000000" font-family="sans-serif" font-size="12" lengthAdjust="spacingAndGlyphs" textLength="127" x="310" y="574.1543">edge_traversal_filter</text><rect fill="#FFFFFF" height="15.9688" style="stroke: #000000; stroke-width: 1.0; stroke-dasharray: 2.0,2.0;" width="546" x="445" y="551"/><text fill="#000000" font-family="sans-serif" font-size="12" font-style="italic" lengthAdjust="spacingAndGlyphs" textLength="544" x="446" y="563.1387">DiagramT,ElementT,ConfigEntryT=std::string,MatchOverrideT=common::model::element</text><line style="stroke: #A80036; stroke-width: 1.5;" x1="282" x2="987" y1="586" y2="586"/><line style="stroke: #A80036; stroke-width: 1.5;" x1="282" x2="987" y1="594" y2="594"/></a><!--MD5=[a4c9b97a7182ae70b67e10724bda717e]
class C_0001195713008101262477--><a href="structclanguml_1_1common_1_1model_1_1relationship__filter.html" target="_top" title="relationship_filter" xlink:actuate="onRequest" xlink:href="structclanguml_1_1common_1_1model_1_1relationship__filter.html" xlink:show="new" xlink:title="relationship_filter" xlink:type="simple"><rect fill="#FEFECE" filter="url(#fr2f21lldb518)" height="48" id="C_0001195713008101262477" style="stroke: #A80036; stroke-width: 1.5;" width="140" x="564.5" y="471"/><ellipse cx="579.5" cy="487" fill="#ADD1B2" rx="11" ry="11" style="stroke: #A80036; stroke-width: 1.0;"/><path d="M582.4688,492.6406 Q581.8906,492.9375 581.25,493.0781 Q580.6094,493.2344 579.9063,493.2344 Q577.4063,493.2344 576.0781,491.5938 Q574.7656,489.9375 574.7656,486.8125 Q574.7656,483.6875 576.0781,482.0313 Q577.4063,480.375 579.9063,480.375 Q580.6094,480.375 581.25,480.5313 Q581.9063,480.6875 582.4688,480.9844 L582.4688,483.7031 Q581.8438,483.125 581.25,482.8594 Q580.6563,482.5781 580.0313,482.5781 Q578.6875,482.5781 578,483.6563 Q577.3125,484.7188 577.3125,486.8125 Q577.3125,488.9063 578,489.9844 Q578.6875,491.0469 580.0313,491.0469 Q580.6563,491.0469 581.25,490.7813 Q581.8438,490.5 582.4688,489.9219 L582.4688,492.6406 Z "/><text fill="#000000" font-family="sans-serif" font-size="12" lengthAdjust="spacingAndGlyphs" textLength="108" x="593.5" y="491.1543">relationship_filter</text><line style="stroke: #A80036; stroke-width: 1.5;" x1="565.5" x2="703.5" y1="503" y2="503"/><line style="stroke: #A80036; stroke-width: 1.5;" x1="565.5" x2="703.5" y1="511" y2="511"/></a><!--MD5=[6c09fa5ea90b219bff3c70efac9bebed]
class C_0001098184343448999590--><a href="structclanguml_1_1common_1_1model_1_1access__filter.html" target="_top" title="access_filter" xlink:actuate="onRequest" xlink:href="structclanguml_1_1common_1_1model_1_1access__filter.html" xlink:show="new" xlink:title="access_filter" xlink:type="simple"><rect fill="#FEFECE" filter="url(#fr2f21lldb518)" height="48" id="C_0001098184343448999590" style="stroke: #A80036; stroke-width: 1.5;" width="110" x="1207.5" y="180"/><ellipse cx="1222.5" cy="196" fill="#ADD1B2" rx="11" ry="11" style="stroke: #A80036; stroke-width: 1.0;"/><path d="M1225.4688,201.6406 Q1224.8906,201.9375 1224.25,202.0781 Q1223.6094,202.2344 1222.9063,202.2344 Q1220.4063,202.2344 1219.0781,200.5938 Q1217.7656,198.9375 1217.7656,195.8125 Q1217.7656,192.6875 1219.0781,191.0313 Q1220.4063,189.375 1222.9063,189.375 Q1223.6094,189.375 1224.25,189.5313 Q1224.9063,189.6875 1225.4688,189.9844 L1225.4688,192.7031 Q1224.8438,192.125 1224.25,191.8594 Q1223.6563,191.5781 1223.0313,191.5781 Q1221.6875,191.5781 1221,192.6563 Q1220.3125,193.7188 1220.3125,195.8125 Q1220.3125,197.9063 1221,198.9844 Q1221.6875,200.0469 1223.0313,200.0469 Q1223.6563,200.0469 1224.25,199.7813 Q1224.8438,199.5 1225.4688,198.9219 L1225.4688,201.6406 Z "/><text fill="#000000" font-family="sans-serif" font-size="12" lengthAdjust="spacingAndGlyphs" textLength="78" x="1236.5" y="200.1543">access_filter</text><line style="stroke: #A80036; stroke-width: 1.5;" x1="1208.5" x2="1316.5" y1="212" y2="212"/><line style="stroke: #A80036; stroke-width: 1.5;" x1="1208.5" x2="1316.5" y1="220" y2="220"/></a><!--MD5=[99ac8d2cae89e3b0a3d5a4db7fc9126c]
class C_0002078668697238559556--><a href="structclanguml_1_1common_1_1model_1_1context__filter.html" target="_top" title="context_filter" xlink:actuate="onRequest" xlink:href="structclanguml_1_1common_1_1model_1_1context__filter.html" xlink:show="new" xlink:title="context_filter" xlink:type="simple"><rect fill="#FEFECE" filter="url(#fr2f21lldb518)" height="48" id="C_0002078668697238559556" style="stroke: #A80036; stroke-width: 1.5;" width="113" x="578" y="305"/><ellipse cx="593" cy="321" fill="#ADD1B2" rx="11" ry="11" style="stroke: #A80036; stroke-width: 1.0;"/><path d="M595.9688,326.6406 Q595.3906,326.9375 594.75,327.0781 Q594.1094,327.2344 593.4063,327.2344 Q590.9063,327.2344 589.5781,325.5938 Q588.2656,323.9375 588.2656,320.8125 Q588.2656,317.6875 589.5781,316.0313 Q590.9063,314.375 593.4063,314.375 Q594.1094,314.375 594.75,314.5313 Q595.4063,314.6875 595.9688,314.9844 L595.9688,317.7031 Q595.3438,317.125 594.75,316.8594 Q594.1563,316.5781 593.5313,316.5781 Q592.1875,316.5781 591.5,317.6563 Q590.8125,318.7188 590.8125,320.8125 Q590.8125,322.9063 591.5,323.9844 Q592.1875,325.0469 593.5313,325.0469 Q594.1563,325.0469 594.75,324.7813 Q595.3438,324.5 595.9688,323.9219 L595.9688,326.6406 Z "/><text fill="#000000" font-family="sans-serif" font-size="12" lengthAdjust="spacingAndGlyphs" textLength="81" x="607" y="325.1543">context_filter</text><line style="stroke: #A80036; stroke-width: 1.5;" x1="579" x2="690" y1="337" y2="337"/><line style="stroke: #A80036; stroke-width: 1.5;" x1="579" x2="690" y1="345" y2="345"/></a><!--MD5=[ac53cd39b7f7f2f4a6ef560a1a5fdc85]
class C_0000831536458766184760--><a href="structclanguml_1_1common_1_1model_1_1paths__filter.html" target="_top" title="paths_filter" xlink:actuate="onRequest" xlink:href="structclanguml_1_1common_1_1model_1_1paths__filter.html" xlink:show="new" xlink:title="paths_filter" xlink:type="simple"><rect fill="#FEFECE" filter="url(#fr2f21lldb518)" height="48" id="C_0000831536458766184760" style="stroke: #A80036; stroke-width: 1.5;" width="102" x="583.5" y="222"/><ellipse cx="598.5" cy="238" fill="#ADD1B2" rx="11" ry="11" style="stroke: #A80036; stroke-width: 1.0;"/><path d="M601.4688,243.6406 Q600.8906,243.9375 600.25,244.0781 Q599.6094,244.2344 598.9063,244.2344 Q596.4063,244.2344 595.0781,242.5938 Q593.7656,240.9375 593.7656,237.8125 Q593.7656,234.6875 595.0781,233.0313 Q596.4063,231.375 598.9063,231.375 Q599.6094,231.375 600.25,231.5313 Q600.9063,231.6875 601.4688,231.9844 L601.4688,234.7031 Q600.8438,234.125 600.25,233.8594 Q599.6563,233.5781 599.0313,233.5781 Q597.6875,233.5781 597,234.6563 Q596.3125,235.7188 596.3125,237.8125 Q596.3125,239.9063 597,240.9844 Q597.6875,242.0469 599.0313,242.0469 Q599.6563,242.0469 600.25,241.7813 Q600.8438,241.5 601.4688,240.9219 L601.4688,243.6406 Z "/><text fill="#000000" font-family="sans-serif" font-size="12" lengthAdjust="spacingAndGlyphs" textLength="70" x="612.5" y="242.1543">paths_filter</text><line style="stroke: #A80036; stroke-width: 1.5;" x1="584.5" x2="684.5" y1="254" y2="254"/><line style="stroke: #A80036; stroke-width: 1.5;" x1="584.5" x2="684.5" y1="262" y2="262"/></a><!--MD5=[098483563b8bdccb324cac50d59ab317]
class C_0001578839365087446026--><a href="structclanguml_1_1common_1_1model_1_1class__method__filter.html" target="_top" title="class_method_filter" xlink:actuate="onRequest" xlink:href="structclanguml_1_1common_1_1model_1_1class__method__filter.html" xlink:show="new" xlink:title="class_method_filter" xlink:type="simple"><rect fill="#FEFECE" filter="url(#fr2f21lldb518)" height="48" id="C_0001578839365087446026" style="stroke: #A80036; stroke-width: 1.5;" width="152" x="558.5" y="388"/><ellipse cx="573.5" cy="404" fill="#ADD1B2" rx="11" ry="11" style="stroke: #A80036; stroke-width: 1.0;"/><path d="M576.4688,409.6406 Q575.8906,409.9375 575.25,410.0781 Q574.6094,410.2344 573.9063,410.2344 Q571.4063,410.2344 570.0781,408.5938 Q568.7656,406.9375 568.7656,403.8125 Q568.7656,400.6875 570.0781,399.0313 Q571.4063,397.375 573.9063,397.375 Q574.6094,397.375 575.25,397.5313 Q575.9063,397.6875 576.4688,397.9844 L576.4688,400.7031 Q575.8438,400.125 575.25,399.8594 Q574.6563,399.5781 574.0313,399.5781 Q572.6875,399.5781 572,400.6563 Q571.3125,401.7188 571.3125,403.8125 Q571.3125,405.9063 572,406.9844 Q572.6875,408.0469 574.0313,408.0469 Q574.6563,408.0469 575.25,407.7813 Q575.8438,407.5 576.4688,406.9219 L576.4688,409.6406 Z "/><text fill="#000000" font-family="sans-serif" font-size="12" lengthAdjust="spacingAndGlyphs" textLength="120" x="587.5" y="408.1543">class_method_filter</text><line style="stroke: #A80036; stroke-width: 1.5;" x1="559.5" x2="709.5" y1="420" y2="420"/><line style="stroke: #A80036; stroke-width: 1.5;" x1="559.5" x2="709.5" y1="428" y2="428"/></a><!--MD5=[16c495759bbba4bab8761f5a81ccb642]
class C_0000676683242499586467--><a href="structclanguml_1_1common_1_1model_1_1class__member__filter.html" target="_top" title="class_member_filter" xlink:actuate="onRequest" xlink:href="structclanguml_1_1common_1_1model_1_1class__member__filter.html" xlink:show="new" xlink:title="class_member_filter" xlink:type="simple"><rect fill="#FEFECE" filter="url(#fr2f21lldb518)" height="48" id="C_0000676683242499586467" style="stroke: #A80036; stroke-width: 1.5;" width="155" x="557" y="139"/><ellipse cx="572" cy="155" fill="#ADD1B2" rx="11" ry="11" style="stroke: #A80036; stroke-width: 1.0;"/><path d="M574.9688,160.6406 Q574.3906,160.9375 573.75,161.0781 Q573.1094,161.2344 572.4063,161.2344 Q569.9063,161.2344 568.5781,159.5938 Q567.2656,157.9375 567.2656,154.8125 Q567.2656,151.6875 568.5781,150.0313 Q569.9063,148.375 572.4063,148.375 Q573.1094,148.375 573.75,148.5313 Q574.4063,148.6875 574.9688,148.9844 L574.9688,151.7031 Q574.3438,151.125 573.75,150.8594 Q573.1563,150.5781 572.5313,150.5781 Q571.1875,150.5781 570.5,151.6563 Q569.8125,152.7188 569.8125,154.8125 Q569.8125,156.9063 570.5,157.9844 Q571.1875,159.0469 572.5313,159.0469 Q573.1563,159.0469 573.75,158.7813 Q574.3438,158.5 574.9688,157.9219 L574.9688,160.6406 Z "/><text fill="#000000" font-family="sans-serif" font-size="12" lengthAdjust="spacingAndGlyphs" textLength="123" x="586" y="159.1543">class_member_filter</text><line style="stroke: #A80036; stroke-width: 1.5;" x1="558" x2="711" y1="171" y2="171"/><line style="stroke: #A80036; stroke-width: 1.5;" x1="558" x2="711" y1="179" y2="179"/></a><!--MD5=[a1a5e0389df9e91ef59c183a10778715]
link C_0000605829206649563575 to C_0000469458052685692314--><path d="M584.49,652.69 C487.65,645.92 272.37,645.77 170.28,652.24 " fill="none" id="C_0000605829206649563575-&gt;C_0000469458052685692314" style="stroke: #A80036; stroke-width: 1.0; stroke-dasharray: 7.0,7.0;"/><polygon fill="#A80036" points="165.21,652.58,174.4529,655.9812,170.1992,652.2521,173.9283,647.9985,165.21,652.58" style="stroke: #A80036; stroke-width: 1.0;"/><!--MD5=[831418144dcced3437ca2c7d6f720a6d]
reverse link C_0000605829206649563575 to C_0000469458052685692314--><path d="M571.28,660.57 C495.59,660.08 363.92,659.3 251,659 C226.11,658.93 219.89,658.69 195,659 C185.35,659.12 175.06,659.32 165.17,659.55 " fill="none" id="C_0000605829206649563575&lt;-C_0000469458052685692314" style="stroke: #A80036; stroke-width: 1.0;"/><polygon fill="#FFFFFF" points="584.29,660.66,578.3165,656.6205,572.2903,660.5809,578.2638,664.6204,584.29,660.66" style="stroke: #A80036; stroke-width: 1.0;"/><rect fill="none" height="6" style="stroke: #C82930; stroke-width: 1.0;" width="6" x="198" y="648.0664"/><text fill="#000000" font-family="sans-serif" font-size="13" lengthAdjust="spacingAndGlyphs" textLength="42" x="208" y="655.0669">filters_</text><!--MD5=[ed31da81ed4d725db179a2248c5e61a9]
reverse link C_0000469458052685692314 to C_0000605829206649563575--><path d="M185.29,670.08 C292.21,675.36 492.17,674.94 584.49,668.84 " fill="none" id="C_0000469458052685692314&lt;-C_0000605829206649563575" style="stroke: #A80036; stroke-width: 1.0;"/><polygon fill="none" points="184.78,677.07,165.21,668.95,185.57,663.09,184.78,677.07" style="stroke: #A80036; stroke-width: 1.0;"/><!--MD5=[e0dc600e7c925328edcaabc3147d0ebd]
reverse link C_0000469458052685692314 to C_0001816240256470820189--><path d="M114.05,705.55 C115.12,785.3 126.08,955.47 195,1077 C266.3,1202.74 460.21,1209.44 564.66,1203.1 " fill="none" id="C_0000469458052685692314&lt;-C_0001816240256470820189" style="stroke: #A80036; stroke-width: 1.0;"/><polygon fill="none" points="107.05,705.38,113.97,685.35,121.05,705.33,107.05,705.38" style="stroke: #A80036; stroke-width: 1.0;"/><!--MD5=[eb629725326211f0b3f68bd233fd5fbd]
reverse link C_0000469458052685692314 to C_0000690341236618660423--><path d="M113.61,705.54 C114.35,778.26 125.28,923.98 195,1020 C281.08,1138.54 477.68,1133.03 575.71,1121.81 " fill="none" id="C_0000469458052685692314&lt;-C_0000690341236618660423" style="stroke: #A80036; stroke-width: 1.0;"/><polygon fill="none" points="106.61,705.44,113.65,685.45,120.61,705.47,106.61,705.44" style="stroke: #A80036; stroke-width: 1.0;"/><!--MD5=[fc75b97331daf477f1c24925190464b7]
reverse link C_0000469458052685692314 to C_0002051668456717902300--><path d="M119.51,705.11 C129.4,783.72 154.08,943.16 195,979 C295.75,1067.24 463.28,1058.78 559.47,1044.52 " fill="none" id="C_0000469458052685692314&lt;-C_0002051668456717902300" style="stroke: #A80036; stroke-width: 1.0;"/><polygon fill="none" points="112.57,705.95,117.12,685.26,126.46,704.27,112.57,705.95" style="stroke: #A80036; stroke-width: 1.0;"/><!--MD5=[3d55ee30f24331634dd2104be9701174]
reverse link C_0000469458052685692314 to C_0001897369211795036987--><path d="M123.01,705.18 C139.29,775.14 182.39,907.88 281,951 C352.97,982.47 920.39,991 988,951 C1171.79,842.25 1240.33,561.26 1257.1,477.14 " fill="none" id="C_0000469458052685692314&lt;-C_0001897369211795036987" style="stroke: #A80036; stroke-width: 1.0;"/><polygon fill="none" points="116.09,706.29,118.71,685.27,129.77,703.34,116.09,706.29" style="stroke: #A80036; stroke-width: 1.0;"/><!--MD5=[6ad3a141d15ee041c076728b72e21550]
reverse link C_0000469458052685692314 to C_0001198341195117879139--><path d="M134.29,703.25 C160.16,752.94 210.61,833.07 281,868 C379.41,916.83 511.67,918.02 582.94,914.24 " fill="none" id="C_0000469458052685692314&lt;-C_0001198341195117879139" style="stroke: #A80036; stroke-width: 1.0;"/><polygon fill="none" points="127.98,706.27,125.3,685.25,140.5,700.02,127.98,706.27" style="stroke: #A80036; stroke-width: 1.0;"/><!--MD5=[463c0ff6d6fa7400c8eeff270c9ffc56]
reverse link C_0000469458052685692314 to C_0001389919526184251760--><path d="M153.2,699.19 C184.81,727.9 232.11,765.51 281,785 C378.32,823.8 501.83,829.59 573.83,829.1 " fill="none" id="C_0000469458052685692314&lt;-C_0001389919526184251760" style="stroke: #A80036; stroke-width: 1.0;"/><polygon fill="none" points="148,703.91,138.18,685.13,157.56,693.68,148,703.91" style="stroke: #A80036; stroke-width: 1.0;"/><!--MD5=[80cf7e8cb68da798134584cd4dd66cc2]
reverse link C_0000469458052685692314 to C_0001773753487119877542--><path d="M184.67,680.31 C214.23,687.91 249.11,696.2 281,702 C384.53,720.84 506.77,733.23 576.71,739.4 " fill="none" id="C_0000469458052685692314&lt;-C_0001773753487119877542" style="stroke: #A80036; stroke-width: 1.0;"/><polygon fill="none" points="182.73,687.04,165.16,675.19,186.28,673.5,182.73,687.04" style="stroke: #A80036; stroke-width: 1.0;"/><!--MD5=[a21e920b32989dc283fcc6ee45205eec]
reverse link C_0000469458052685692314 to C_0001497352705437766113--><path d="M184.84,636.73 C188.26,635.76 191.66,634.85 195,634 C248.94,620.33 307.49,609.92 363.73,602.01 " fill="none" id="C_0000469458052685692314&lt;-C_0001497352705437766113" style="stroke: #A80036; stroke-width: 1.0;"/><polygon fill="none" points="186.43,643.56,165.26,642.69,182.35,630.17,186.43,643.56" style="stroke: #A80036; stroke-width: 1.0;"/><!--MD5=[d86b4eed582c96e54383377f1609e355]
reverse link C_0000469458052685692314 to C_0001195713008101262477--><path d="M152.42,623.11 C183.99,594.07 231.61,555.72 281,536 C374.12,498.82 491.31,492.34 564.33,492.56 " fill="none" id="C_0000469458052685692314&lt;-C_0001195713008101262477" style="stroke: #A80036; stroke-width: 1.0;"/><polygon fill="none" points="157.2,628.23,137.87,636.9,147.57,618.07,157.2,628.23" style="stroke: #A80036; stroke-width: 1.0;"/><!--MD5=[90c300d9132d751d9486c98f25931374]
reverse link C_0000469458052685692314 to C_0001098184343448999590--><path d="M117.26,616.27 C123.33,538.46 141.85,374.3 195,247 C221.12,184.43 221.05,152.67 281,121 C597.28,-46.05 1052.08,115.67 1207.25,180.12 " fill="none" id="C_0000469458052685692314&lt;-C_0001098184343448999590" style="stroke: #A80036; stroke-width: 1.0;"/><polygon fill="none" points="124.21,617.23,115.8,636.68,110.24,616.23,124.21,617.23" style="stroke: #A80036; stroke-width: 1.0;"/><!--MD5=[9b9ac0374d7c5a802db2f4ca855abc58]
reverse link C_0000469458052685692314 to C_0002078668697238559556--><path d="M124.87,617.47 C143.39,550.6 189.12,424.61 281,370 C373.68,314.91 504.37,315.98 577.8,322.17 " fill="none" id="C_0000469458052685692314&lt;-C_0002078668697238559556" style="stroke: #A80036; stroke-width: 1.0;"/><polygon fill="none" points="131.61,619.36,119.79,636.94,118.06,615.82,131.61,619.36" style="stroke: #A80036; stroke-width: 1.0;"/><!--MD5=[febc1b53ac8f674dce50ad76e14fb2e9]
reverse link C_0000469458052685692314 to C_0000831536458766184760--><path d="M118.58,616.62 C128.88,533.93 164.14,358.25 281,287 C375.56,229.35 511.12,232.45 583.48,239.4 " fill="none" id="C_0000469458052685692314&lt;-C_0000831536458766184760" style="stroke: #A80036; stroke-width: 1.0;"/><polygon fill="none" points="125.52,617.53,116.35,636.64,111.6,615.99,125.52,617.53" style="stroke: #A80036; stroke-width: 1.0;"/><!--MD5=[4bc9260456f641de84f2c56a8be54836]
link C_0001578839365087446026 to C_0001098184343448999590--><path d="M710.75,417.88 C818.51,422.63 1019.19,417.43 1159,330 C1197.7,305.8 1228.43,261.84 1245.81,232.78 " fill="none" id="C_0001578839365087446026-&gt;C_0001098184343448999590" style="stroke: #A80036; stroke-width: 1.0; stroke-dasharray: 7.0,7.0;"/><polygon fill="#A80036" points="1248.48,228.25,1240.4641,233.9724,1245.9412,232.5575,1247.3561,238.0345,1248.48,228.25" style="stroke: #A80036; stroke-width: 1.0;"/><!--MD5=[040530adfdbf3fcadab34db71820c65a]
reverse link C_0001578839365087446026 to C_0001098184343448999590--><path d="M723.99,412.76 C796.93,410.76 901.99,401.72 988,370 C1003.03,364.46 1004.46,358.57 1018,350 C1087.98,305.73 1170.98,256.69 1219.77,228.2 " fill="none" id="C_0001578839365087446026&lt;-C_0001098184343448999590" style="stroke: #A80036; stroke-width: 1.0;"/><polygon fill="#FFFFFF" points="710.76,413.06,716.8464,416.9272,722.7571,412.7963,716.6707,408.9291,710.76,413.06" style="stroke: #A80036; stroke-width: 1.0;"/><rect fill="none" height="6" style="stroke: #C82930; stroke-width: 1.0;" width="6" x="1041.5" y="255.0664"/><text fill="#000000" font-family="sans-serif" font-size="13" lengthAdjust="spacingAndGlyphs" textLength="86" x="1051.5" y="262.0669">access_filter_</text><!--MD5=[e23620be5a787ef643dc9bf526655e37]
link C_0001578839365087446026 to C_0001897369211795036987--><path d="M710.86,420.74 C787.91,429.28 911.12,441.88 1018,448 C1073.39,451.17 1135.97,452.41 1183.82,452.85 " fill="none" id="C_0001578839365087446026-&gt;C_0001897369211795036987" style="stroke: #A80036; stroke-width: 1.0; stroke-dasharray: 7.0,7.0;"/><polygon fill="#A80036" points="1188.99,452.9,1180.0246,448.823,1183.9902,452.8571,1179.956,456.8227,1188.99,452.9" style="stroke: #A80036; stroke-width: 1.0;"/><!--MD5=[3583321d3f2437c5c453b4eec3fdc0a2]
reverse link C_0001578839365087446026 to C_0001897369211795036987--><path d="M723.9,417.79 C848.39,425.94 1073.03,440.66 1188.55,448.22 " fill="none" id="C_0001578839365087446026&lt;-C_0001897369211795036987" style="stroke: #A80036; stroke-width: 1.0;"/><polygon fill="#FFFFFF" points="710.7,416.93,716.4235,421.3165,722.6739,417.7204,716.9504,413.3339,710.7,416.93" style="stroke: #A80036; stroke-width: 1.0;"/><rect fill="none" height="6" style="stroke: #C82930; stroke-width: 1.0;" width="6" x="1021" y="427.0664"/><text fill="#000000" font-family="sans-serif" font-size="13" lengthAdjust="spacingAndGlyphs" textLength="127" x="1031" y="434.0669">method_type_filter_</text><!--MD5=[02674959230259429249599681f565c1]
reverse link C_0000469458052685692314 to C_0001578839365087446026--><path d="M135.12,618.8 C161.54,569.76 212.26,490.77 281,453 C367.39,405.52 483.49,401.38 558.41,404.94 " fill="none" id="C_0000469458052685692314&lt;-C_0001578839365087446026" style="stroke: #A80036; stroke-width: 1.0;"/><polygon fill="none" points="141.17,622.34,125.75,636.87,128.74,615.89,141.17,622.34" style="stroke: #A80036; stroke-width: 1.0;"/><!--MD5=[ff149fc72fae2fb9fa6a60e5fee5dc49]
link C_0000676683242499586467 to C_0001098184343448999590--><path d="M712.3,171.9 C789.44,180.44 911.79,192.92 1018,199 C1080.85,202.6 1152.96,203.7 1202.3,204 " fill="none" id="C_0000676683242499586467-&gt;C_0001098184343448999590" style="stroke: #A80036; stroke-width: 1.0; stroke-dasharray: 7.0,7.0;"/><polygon fill="#A80036" points="1207.3,204.02,1198.323,199.9686,1202.3001,203.9914,1198.2773,207.9685,1207.3,204.02" style="stroke: #A80036; stroke-width: 1.0;"/><!--MD5=[662d5fd0cd46bf6ab0bc3cbe15239abc]
reverse link C_0000676683242499586467 to C_0001098184343448999590--><path d="M725.45,168.89 C857.34,177.53 1099.21,193.37 1207.08,200.44 " fill="none" id="C_0000676683242499586467&lt;-C_0001098184343448999590" style="stroke: #A80036; stroke-width: 1.0;"/><polygon fill="#FFFFFF" points="712.26,168.03,717.9832,172.4169,724.2339,168.8212,718.5107,164.4343,712.26,168.03" style="stroke: #A80036; stroke-width: 1.0;"/><rect fill="none" height="6" style="stroke: #C82930; stroke-width: 1.0;" width="6" x="1041.5" y="178.0664"/><text fill="#000000" font-family="sans-serif" font-size="13" lengthAdjust="spacingAndGlyphs" textLength="86" x="1051.5" y="185.0669">access_filter_</text><!--MD5=[8771eb87ef9e16d849c2809122d2d0ee]
reverse link C_0000469458052685692314 to C_0000676683242499586467--><path d="M114.28,616.88 C116.54,520.39 137.5,292.19 281,204 C364.72,152.55 480.95,149.29 556.69,154.15 " fill="none" id="C_0000469458052685692314&lt;-C_0000676683242499586467" style="stroke: #A80036; stroke-width: 1.0;"/><polygon fill="none" points="121.28,616.99,114.04,636.9,107.28,616.82,121.28,616.99" style="stroke: #A80036; stroke-width: 1.0;"/><!--MD5=[7a0d86c3b2014fca8a0be98070f7eaec]
@startuml
left to right direction
package [common] as C_0000316605034920222648 {
package [model] as C_0000083721806430512831 {
class "filter_visitor" as C_0000469458052685692314
class C_0000469458052685692314 [[classclanguml_1_1common_1_1model_1_1filter__visitor.html{Base class for any diagram filter.}]] {
__
}
class "anyof_filter" as C_0000605829206649563575
class C_0000605829206649563575 [[structclanguml_1_1common_1_1model_1_1anyof__filter.html{anyof_filter}]] {
__
}
class "namespace_filter" as C_0001816240256470820189
class C_0001816240256470820189 [[structclanguml_1_1common_1_1model_1_1namespace__filter.html{namespace_filter}]] {
__
}
class "element_filter" as C_0000690341236618660423
class C_0000690341236618660423 [[structclanguml_1_1common_1_1model_1_1element__filter.html{element_filter}]] {
__
}
class "element_type_filter" as C_0002051668456717902300
class C_0002051668456717902300 [[structclanguml_1_1common_1_1model_1_1element__type__filter.html{element_type_filter}]] {
__
}
class "method_type_filter" as C_0001897369211795036987
class C_0001897369211795036987 [[structclanguml_1_1common_1_1model_1_1method__type__filter.html{method_type_filter}]] {
__
}
class "callee_filter" as C_0001198341195117879139
class C_0001198341195117879139 [[structclanguml_1_1common_1_1model_1_1callee__filter.html{callee_filter}]] {
__
}
class "subclass_filter" as C_0001389919526184251760
class C_0001389919526184251760 [[structclanguml_1_1common_1_1model_1_1subclass__filter.html{subclass_filter}]] {
__
}
class "parents_filter" as C_0001773753487119877542
class C_0001773753487119877542 [[structclanguml_1_1common_1_1model_1_1parents__filter.html{parents_filter}]] {
__
}
class "edge_traversal_filter<DiagramT,ElementT,ConfigEntryT=std::string,MatchOverrideT=common::model::element>" as C_0001497352705437766113
class C_0001497352705437766113 [[structclanguml_1_1common_1_1model_1_1edge__traversal__filter.html{Common template for filters involving traversing relationship graph.}]] {
__
}
class "relationship_filter" as C_0001195713008101262477
class C_0001195713008101262477 [[structclanguml_1_1common_1_1model_1_1relationship__filter.html{relationship_filter}]] {
__
}
class "access_filter" as C_0001098184343448999590
class C_0001098184343448999590 [[structclanguml_1_1common_1_1model_1_1access__filter.html{access_filter}]] {
__
}
class "context_filter" as C_0002078668697238559556
class C_0002078668697238559556 [[structclanguml_1_1common_1_1model_1_1context__filter.html{context_filter}]] {
__
}
class "paths_filter" as C_0000831536458766184760
class C_0000831536458766184760 [[structclanguml_1_1common_1_1model_1_1paths__filter.html{paths_filter}]] {
__
}
class "class_method_filter" as C_0001578839365087446026
class C_0001578839365087446026 [[structclanguml_1_1common_1_1model_1_1class__method__filter.html{class_method_filter}]] {
__
}
class "class_member_filter" as C_0000676683242499586467
class C_0000676683242499586467 [[structclanguml_1_1common_1_1model_1_1class__member__filter.html{class_member_filter}]] {
__
}
}
}
C_0000605829206649563575 ..> C_0000469458052685692314
C_0000605829206649563575 o- - C_0000469458052685692314 : -filters_
C_0000469458052685692314 <|- - C_0000605829206649563575
C_0000469458052685692314 <|- - C_0001816240256470820189
C_0000469458052685692314 <|- - C_0000690341236618660423
C_0000469458052685692314 <|- - C_0002051668456717902300
C_0000469458052685692314 <|- - C_0001897369211795036987
C_0000469458052685692314 <|- - C_0001198341195117879139
C_0000469458052685692314 <|- - C_0001389919526184251760
C_0000469458052685692314 <|- - C_0001773753487119877542
C_0000469458052685692314 <|- - C_0001497352705437766113
C_0000469458052685692314 <|- - C_0001195713008101262477
C_0000469458052685692314 <|- - C_0001098184343448999590
C_0000469458052685692314 <|- - C_0002078668697238559556
C_0000469458052685692314 <|- - C_0000831536458766184760
C_0001578839365087446026 ..> C_0001098184343448999590
C_0001578839365087446026 ..> C_0001897369211795036987
C_0001578839365087446026 o- - C_0001098184343448999590 : -access_filter_
C_0001578839365087446026 o- - C_0001897369211795036987 : -method_type_filter_
C_0000469458052685692314 <|- - C_0001578839365087446026
C_0000676683242499586467 ..> C_0001098184343448999590
C_0000676683242499586467 o- - C_0001098184343448999590 : -access_filter_
C_0000469458052685692314 <|- - C_0000676683242499586467

@enduml

PlantUML version 1.2020.02(Sun Mar 01 11:22:07 CET 2020)
(GPL source distribution)
Java Runtime: OpenJDK Runtime Environment
JVM: OpenJDK 64-Bit Server VM
Java Version: 11.0.19+7-post-Ubuntu-0ubuntu122.04.1
Operating System: Linux
Default Encoding: UTF-8
Language: en
Country: US
--></g></svg>