<svg xmlns="http://www.w3.org/2000/svg" xmlns:xlink="http://www.w3.org/1999/xlink" contentScriptType="application/ecmascript" contentStyleType="text/css" height="1458px" preserveAspectRatio="none" style="width:1398px;height:1458px;" version="1.1" viewBox="0 0 1398 1458" width="1398px" zoomAndPan="magnify">
  <defs>
    <filter height="300%" id="f1ijrzag0y8xuv" width="300%" x="-1" y="-1">
      <feGaussianBlur result="blurOut" stdDeviation="2.0"/>
      <feColorMatrix in="blurOut" result="blurOut2" type="matrix" values="0 0 0 0 0 0 0 0 0 0 0 0 0 0 0 0 0 0 .4 0"/>
      <feOffset dx="4.0" dy="4.0" in="blurOut2" result="blurOut3"/>
      <feBlend in="SourceGraphic" in2="blurOut3" mode="normal"/>
    </filter>
    <style type="text/css">a:hover { text-decoration: underline; }</style>
  </defs>
  <g>
    <text fill="#000000" font-family="sans-serif" font-size="18" lengthAdjust="spacingAndGlyphs" textLength="320" x="545" y="16.708">Diagram filter visitor class hierarchy</text>
    <polygon fill="#FFFFFF" filter="url(#f1ijrzag0y8xuv)" points="22,44.9531,95,44.9531,102,67.25,1376,67.25,1376,1446.9531,22,1446.9531,22,44.9531" style="stroke: #000000; stroke-width: 1.5;"/>
    <line style="stroke: #000000; stroke-width: 1.5;" x1="22" x2="102" y1="67.25" y2="67.25"/>
    <text fill="#000000" font-family="sans-serif" font-size="14" font-weight="bold" lengthAdjust="spacingAndGlyphs" textLength="67" x="26" y="59.9482">common</text>
    <polygon fill="#FFFFFF" filter="url(#f1ijrzag0y8xuv)" points="46,87.9531,100,87.9531,107,110.25,1352,110.25,1352,1422.9531,46,1422.9531,46,87.9531" style="stroke: #000000; stroke-width: 1.5;"/>
    <line style="stroke: #000000; stroke-width: 1.5;" x1="46" x2="107" y1="110.25" y2="110.25"/>
    <text fill="#000000" font-family="sans-serif" font-size="14" font-weight="bold" lengthAdjust="spacingAndGlyphs" textLength="48" x="50" y="102.9482">model</text>
    <a href="classclanguml_1_1common_1_1model_1_1filter__visitor.html" target="_top" title="Base class for any diagram filter." xlink:actuate="onRequest" xlink:href="classclanguml_1_1common_1_1model_1_1filter__visitor.html" xlink:show="new" xlink:title="Base class for any diagram filter." xlink:type="simple">
      <rect fill="#FEFECE" filter="url(#f1ijrzag0y8xuv)" height="48" id="C_0000469458052685692314" style="stroke: #A80036; stroke-width: 1.5;" width="103" x="62" y="746.9531"/>
      <ellipse cx="77" cy="762.9531" fill="#ADD1B2" rx="11" ry="11" style="stroke: #A80036; stroke-width: 1.0;"/>
      <path d="M79.9688,768.5938 Q79.3906,768.8906 78.75,769.0313 Q78.1094,769.1875 77.4063,769.1875 Q74.9063,769.1875 73.5781,767.5469 Q72.2656,765.8906 72.2656,762.7656 Q72.2656,759.6406 73.5781,757.9844 Q74.9063,756.3281 77.4063,756.3281 Q78.1094,756.3281 78.75,756.4844 Q79.4063,756.6406 79.9688,756.9375 L79.9688,759.6563 Q79.3438,759.0781 78.75,758.8125 Q78.1563,758.5313 77.5313,758.5313 Q76.1875,758.5313 75.5,759.6094 Q74.8125,760.6719 74.8125,762.7656 Q74.8125,764.8594 75.5,765.9375 Q76.1875,767 77.5313,767 Q78.1563,767 78.75,766.7344 Q79.3438,766.4531 79.9688,765.875 L79.9688,768.5938 Z "/>
      <text fill="#000000" font-family="sans-serif" font-size="12" lengthAdjust="spacingAndGlyphs" textLength="71" x="91" y="767.1074">filter_visitor</text>
      <line style="stroke: #A80036; stroke-width: 1.5;" x1="63" x2="164" y1="778.9531" y2="778.9531"/>
      <line style="stroke: #A80036; stroke-width: 1.5;" x1="63" x2="164" y1="786.9531" y2="786.9531"/>
    </a>
    <a href="structclanguml_1_1common_1_1model_1_1anyof__filter.html" target="_top" title="anyof_filter" xlink:actuate="onRequest" xlink:href="structclanguml_1_1common_1_1model_1_1anyof__filter.html" xlink:show="new" xlink:title="anyof_filter" xlink:type="simple">
      <rect fill="#FEFECE" filter="url(#f1ijrzag0y8xuv)" height="48" id="C_0000605829206649563575" style="stroke: #A80036; stroke-width: 1.5;" width="100" x="584.5" y="740.9531"/>
      <ellipse cx="599.5" cy="756.9531" fill="#ADD1B2" rx="11" ry="11" style="stroke: #A80036; stroke-width: 1.0;"/>
      <path d="M602.4688,762.5938 Q601.8906,762.8906 601.25,763.0313 Q600.6094,763.1875 599.9063,763.1875 Q597.4063,763.1875 596.0781,761.5469 Q594.7656,759.8906 594.7656,756.7656 Q594.7656,753.6406 596.0781,751.9844 Q597.4063,750.3281 599.9063,750.3281 Q600.6094,750.3281 601.25,750.4844 Q601.9063,750.6406 602.4688,750.9375 L602.4688,753.6563 Q601.8438,753.0781 601.25,752.8125 Q600.6563,752.5313 600.0313,752.5313 Q598.6875,752.5313 598,753.6094 Q597.3125,754.6719 597.3125,756.7656 Q597.3125,758.8594 598,759.9375 Q598.6875,761 600.0313,761 Q600.6563,761 601.25,760.7344 Q601.8438,760.4531 602.4688,759.875 L602.4688,762.5938 Z "/>
      <text fill="#000000" font-family="sans-serif" font-size="12" lengthAdjust="spacingAndGlyphs" textLength="68" x="613.5" y="761.1074">anyof_filter</text>
      <line style="stroke: #A80036; stroke-width: 1.5;" x1="585.5" x2="683.5" y1="772.9531" y2="772.9531"/>
      <line style="stroke: #A80036; stroke-width: 1.5;" x1="585.5" x2="683.5" y1="780.9531" y2="780.9531"/>
    </a>
    <a href="structclanguml_1_1common_1_1model_1_1namespace__filter.html" target="_top" title="namespace_filter" xlink:actuate="onRequest" xlink:href="structclanguml_1_1common_1_1model_1_1namespace__filter.html" xlink:show="new" xlink:title="namespace_filter" xlink:type="simple">
      <rect fill="#FEFECE" filter="url(#f1ijrzag0y8xuv)" height="48" id="C_0001816240256470820189" style="stroke: #A80036; stroke-width: 1.5;" width="139" x="565" y="1358.9531"/>
      <ellipse cx="580" cy="1374.9531" fill="#ADD1B2" rx="11" ry="11" style="stroke: #A80036; stroke-width: 1.0;"/>
      <path d="M582.9688,1380.5938 Q582.3906,1380.8906 581.75,1381.0313 Q581.1094,1381.1875 580.4063,1381.1875 Q577.9063,1381.1875 576.5781,1379.5469 Q575.2656,1377.8906 575.2656,1374.7656 Q575.2656,1371.6406 576.5781,1369.9844 Q577.9063,1368.3281 580.4063,1368.3281 Q581.1094,1368.3281 581.75,1368.4844 Q582.4063,1368.6406 582.9688,1368.9375 L582.9688,1371.6563 Q582.3438,1371.0781 581.75,1370.8125 Q581.1563,1370.5313 580.5313,1370.5313 Q579.1875,1370.5313 578.5,1371.6094 Q577.8125,1372.6719 577.8125,1374.7656 Q577.8125,1376.8594 578.5,1377.9375 Q579.1875,1379 580.5313,1379 Q581.1563,1379 581.75,1378.7344 Q582.3438,1378.4531 582.9688,1377.875 L582.9688,1380.5938 Z "/>
      <text fill="#000000" font-family="sans-serif" font-size="12" lengthAdjust="spacingAndGlyphs" textLength="107" x="594" y="1379.1074">namespace_filter</text>
      <line style="stroke: #A80036; stroke-width: 1.5;" x1="566" x2="703" y1="1390.9531" y2="1390.9531"/>
      <line style="stroke: #A80036; stroke-width: 1.5;" x1="566" x2="703" y1="1398.9531" y2="1398.9531"/>
    </a>
    <a href="structclanguml_1_1common_1_1model_1_1modules__filter.html" target="_top" title="modules_filter" xlink:actuate="onRequest" xlink:href="structclanguml_1_1common_1_1model_1_1modules__filter.html" xlink:show="new" xlink:title="modules_filter" xlink:type="simple">
      <rect fill="#FEFECE" filter="url(#f1ijrzag0y8xuv)" height="48" id="C_0002279438361584449520" style="stroke: #A80036; stroke-width: 1.5;" width="119" x="575" y="1275.9531"/>
      <ellipse cx="590" cy="1291.9531" fill="#ADD1B2" rx="11" ry="11" style="stroke: #A80036; stroke-width: 1.0;"/>
      <path d="M592.9688,1297.5938 Q592.3906,1297.8906 591.75,1298.0313 Q591.1094,1298.1875 590.4063,1298.1875 Q587.9063,1298.1875 586.5781,1296.5469 Q585.2656,1294.8906 585.2656,1291.7656 Q585.2656,1288.6406 586.5781,1286.9844 Q587.9063,1285.3281 590.4063,1285.3281 Q591.1094,1285.3281 591.75,1285.4844 Q592.4063,1285.6406 592.9688,1285.9375 L592.9688,1288.6563 Q592.3438,1288.0781 591.75,1287.8125 Q591.1563,1287.5313 590.5313,1287.5313 Q589.1875,1287.5313 588.5,1288.6094 Q587.8125,1289.6719 587.8125,1291.7656 Q587.8125,1293.8594 588.5,1294.9375 Q589.1875,1296 590.5313,1296 Q591.1563,1296 591.75,1295.7344 Q592.3438,1295.4531 592.9688,1294.875 L592.9688,1297.5938 Z "/>
      <text fill="#000000" font-family="sans-serif" font-size="12" lengthAdjust="spacingAndGlyphs" textLength="87" x="604" y="1296.1074">modules_filter</text>
      <line style="stroke: #A80036; stroke-width: 1.5;" x1="576" x2="693" y1="1307.9531" y2="1307.9531"/>
      <line style="stroke: #A80036; stroke-width: 1.5;" x1="576" x2="693" y1="1315.9531" y2="1315.9531"/>
    </a>
    <a href="structclanguml_1_1common_1_1model_1_1element__filter.html" target="_top" title="element_filter" xlink:actuate="onRequest" xlink:href="structclanguml_1_1common_1_1model_1_1element__filter.html" xlink:show="new" xlink:title="element_filter" xlink:type="simple">
      <rect fill="#FEFECE" filter="url(#f1ijrzag0y8xuv)" height="48" id="C_0000690341236618660423" style="stroke: #A80036; stroke-width: 1.5;" width="117" x="576" y="1192.9531"/>
      <ellipse cx="591" cy="1208.9531" fill="#ADD1B2" rx="11" ry="11" style="stroke: #A80036; stroke-width: 1.0;"/>
      <path d="M593.9688,1214.5938 Q593.3906,1214.8906 592.75,1215.0313 Q592.1094,1215.1875 591.4063,1215.1875 Q588.9063,1215.1875 587.5781,1213.5469 Q586.2656,1211.8906 586.2656,1208.7656 Q586.2656,1205.6406 587.5781,1203.9844 Q588.9063,1202.3281 591.4063,1202.3281 Q592.1094,1202.3281 592.75,1202.4844 Q593.4063,1202.6406 593.9688,1202.9375 L593.9688,1205.6563 Q593.3438,1205.0781 592.75,1204.8125 Q592.1563,1204.5313 591.5313,1204.5313 Q590.1875,1204.5313 589.5,1205.6094 Q588.8125,1206.6719 588.8125,1208.7656 Q588.8125,1210.8594 589.5,1211.9375 Q590.1875,1213 591.5313,1213 Q592.1563,1213 592.75,1212.7344 Q593.3438,1212.4531 593.9688,1211.875 L593.9688,1214.5938 Z "/>
      <text fill="#000000" font-family="sans-serif" font-size="12" lengthAdjust="spacingAndGlyphs" textLength="85" x="605" y="1213.1074">element_filter</text>
      <line style="stroke: #A80036; stroke-width: 1.5;" x1="577" x2="692" y1="1224.9531" y2="1224.9531"/>
      <line style="stroke: #A80036; stroke-width: 1.5;" x1="577" x2="692" y1="1232.9531" y2="1232.9531"/>
    </a>
    <a href="structclanguml_1_1common_1_1model_1_1element__type__filter.html" target="_top" title="element_type_filter" xlink:actuate="onRequest" xlink:href="structclanguml_1_1common_1_1model_1_1element__type__filter.html" xlink:show="new" xlink:title="element_type_filter" xlink:type="simple">
      <rect fill="#FEFECE" filter="url(#f1ijrzag0y8xuv)" height="48" id="C_0002051668456717902300" style="stroke: #A80036; stroke-width: 1.5;" width="150" x="559.5" y="1109.9531"/>
      <ellipse cx="574.5" cy="1125.9531" fill="#ADD1B2" rx="11" ry="11" style="stroke: #A80036; stroke-width: 1.0;"/>
      <path d="M577.4688,1131.5938 Q576.8906,1131.8906 576.25,1132.0313 Q575.6094,1132.1875 574.9063,1132.1875 Q572.4063,1132.1875 571.0781,1130.5469 Q569.7656,1128.8906 569.7656,1125.7656 Q569.7656,1122.6406 571.0781,1120.9844 Q572.4063,1119.3281 574.9063,1119.3281 Q575.6094,1119.3281 576.25,1119.4844 Q576.9063,1119.6406 577.4688,1119.9375 L577.4688,1122.6563 Q576.8438,1122.0781 576.25,1121.8125 Q575.6563,1121.5313 575.0313,1121.5313 Q573.6875,1121.5313 573,1122.6094 Q572.3125,1123.6719 572.3125,1125.7656 Q572.3125,1127.8594 573,1128.9375 Q573.6875,1130 575.0313,1130 Q575.6563,1130 576.25,1129.7344 Q576.8438,1129.4531 577.4688,1128.875 L577.4688,1131.5938 Z "/>
      <text fill="#000000" font-family="sans-serif" font-size="12" lengthAdjust="spacingAndGlyphs" textLength="118" x="588.5" y="1130.1074">element_type_filter</text>
      <line style="stroke: #A80036; stroke-width: 1.5;" x1="560.5" x2="708.5" y1="1141.9531" y2="1141.9531"/>
      <line style="stroke: #A80036; stroke-width: 1.5;" x1="560.5" x2="708.5" y1="1149.9531" y2="1149.9531"/>
    </a>
    <a href="structclanguml_1_1common_1_1model_1_1method__type__filter.html" target="_top" title="method_type_filter" xlink:actuate="onRequest" xlink:href="structclanguml_1_1common_1_1model_1_1method__type__filter.html" xlink:show="new" xlink:title="method_type_filter" xlink:type="simple">
      <rect fill="#FEFECE" filter="url(#f1ijrzag0y8xuv)" height="48" id="C_0001897369211795036987" style="stroke: #A80036; stroke-width: 1.5;" width="147" x="1189" y="668.9531"/>
      <ellipse cx="1204" cy="684.9531" fill="#ADD1B2" rx="11" ry="11" style="stroke: #A80036; stroke-width: 1.0;"/>
      <path d="M1206.9688,690.5938 Q1206.3906,690.8906 1205.75,691.0313 Q1205.1094,691.1875 1204.4063,691.1875 Q1201.9063,691.1875 1200.5781,689.5469 Q1199.2656,687.8906 1199.2656,684.7656 Q1199.2656,681.6406 1200.5781,679.9844 Q1201.9063,678.3281 1204.4063,678.3281 Q1205.1094,678.3281 1205.75,678.4844 Q1206.4063,678.6406 1206.9688,678.9375 L1206.9688,681.6563 Q1206.3438,681.0781 1205.75,680.8125 Q1205.1563,680.5313 1204.5313,680.5313 Q1203.1875,680.5313 1202.5,681.6094 Q1201.8125,682.6719 1201.8125,684.7656 Q1201.8125,686.8594 1202.5,687.9375 Q1203.1875,689 1204.5313,689 Q1205.1563,689 1205.75,688.7344 Q1206.3438,688.4531 1206.9688,687.875 L1206.9688,690.5938 Z "/>
      <text fill="#000000" font-family="sans-serif" font-size="12" lengthAdjust="spacingAndGlyphs" textLength="115" x="1218" y="689.1074">method_type_filter</text>
      <line style="stroke: #A80036; stroke-width: 1.5;" x1="1190" x2="1335" y1="700.9531" y2="700.9531"/>
      <line style="stroke: #A80036; stroke-width: 1.5;" x1="1190" x2="1335" y1="708.9531" y2="708.9531"/>
    </a>
    <a href="structclanguml_1_1common_1_1model_1_1callee__filter.html" target="_top" title="callee_filter" xlink:actuate="onRequest" xlink:href="structclanguml_1_1common_1_1model_1_1callee__filter.html" xlink:show="new" xlink:title="callee_filter" xlink:type="simple">
      <rect fill="#FEFECE" filter="url(#f1ijrzag0y8xuv)" height="48" id="C_0001198341195117879139" style="stroke: #A80036; stroke-width: 1.5;" width="103" x="583" y="989.9531"/>
      <ellipse cx="598" cy="1005.9531" fill="#ADD1B2" rx="11" ry="11" style="stroke: #A80036; stroke-width: 1.0;"/>
      <path d="M600.9688,1011.5938 Q600.3906,1011.8906 599.75,1012.0313 Q599.1094,1012.1875 598.4063,1012.1875 Q595.9063,1012.1875 594.5781,1010.5469 Q593.2656,1008.8906 593.2656,1005.7656 Q593.2656,1002.6406 594.5781,1000.9844 Q595.9063,999.3281 598.4063,999.3281 Q599.1094,999.3281 599.75,999.4844 Q600.4063,999.6406 600.9688,999.9375 L600.9688,1002.6563 Q600.3438,1002.0781 599.75,1001.8125 Q599.1563,1001.5313 598.5313,1001.5313 Q597.1875,1001.5313 596.5,1002.6094 Q595.8125,1003.6719 595.8125,1005.7656 Q595.8125,1007.8594 596.5,1008.9375 Q597.1875,1010 598.5313,1010 Q599.1563,1010 599.75,1009.7344 Q600.3438,1009.4531 600.9688,1008.875 L600.9688,1011.5938 Z "/>
      <text fill="#000000" font-family="sans-serif" font-size="12" lengthAdjust="spacingAndGlyphs" textLength="71" x="612" y="1010.1074">callee_filter</text>
      <line style="stroke: #A80036; stroke-width: 1.5;" x1="584" x2="685" y1="1021.9531" y2="1021.9531"/>
      <line style="stroke: #A80036; stroke-width: 1.5;" x1="584" x2="685" y1="1029.9531" y2="1029.9531"/>
    </a>
    <a href="structclanguml_1_1common_1_1model_1_1subclass__filter.html" target="_top" title="subclass_filter" xlink:actuate="onRequest" xlink:href="structclanguml_1_1common_1_1model_1_1subclass__filter.html" xlink:show="new" xlink:title="subclass_filter" xlink:type="simple">
      <rect fill="#FEFECE" filter="url(#f1ijrzag0y8xuv)" height="48" id="C_0001389919526184251760" style="stroke: #A80036; stroke-width: 1.5;" width="121" x="574" y="906.9531"/>
      <ellipse cx="589" cy="922.9531" fill="#ADD1B2" rx="11" ry="11" style="stroke: #A80036; stroke-width: 1.0;"/>
      <path d="M591.9688,928.5938 Q591.3906,928.8906 590.75,929.0313 Q590.1094,929.1875 589.4063,929.1875 Q586.9063,929.1875 585.5781,927.5469 Q584.2656,925.8906 584.2656,922.7656 Q584.2656,919.6406 585.5781,917.9844 Q586.9063,916.3281 589.4063,916.3281 Q590.1094,916.3281 590.75,916.4844 Q591.4063,916.6406 591.9688,916.9375 L591.9688,919.6563 Q591.3438,919.0781 590.75,918.8125 Q590.1563,918.5313 589.5313,918.5313 Q588.1875,918.5313 587.5,919.6094 Q586.8125,920.6719 586.8125,922.7656 Q586.8125,924.8594 587.5,925.9375 Q588.1875,927 589.5313,927 Q590.1563,927 590.75,926.7344 Q591.3438,926.4531 591.9688,925.875 L591.9688,928.5938 Z "/>
      <text fill="#000000" font-family="sans-serif" font-size="12" lengthAdjust="spacingAndGlyphs" textLength="89" x="603" y="927.1074">subclass_filter</text>
      <line style="stroke: #A80036; stroke-width: 1.5;" x1="575" x2="694" y1="938.9531" y2="938.9531"/>
      <line style="stroke: #A80036; stroke-width: 1.5;" x1="575" x2="694" y1="946.9531" y2="946.9531"/>
    </a>
    <a href="structclanguml_1_1common_1_1model_1_1parents__filter.html" target="_top" title="parents_filter" xlink:actuate="onRequest" xlink:href="structclanguml_1_1common_1_1model_1_1parents__filter.html" xlink:show="new" xlink:title="parents_filter" xlink:type="simple">
      <rect fill="#FEFECE" filter="url(#f1ijrzag0y8xuv)" height="48" id="C_0001773753487119877542" style="stroke: #A80036; stroke-width: 1.5;" width="115" x="577" y="823.9531"/>
      <ellipse cx="592" cy="839.9531" fill="#ADD1B2" rx="11" ry="11" style="stroke: #A80036; stroke-width: 1.0;"/>
      <path d="M594.9688,845.5938 Q594.3906,845.8906 593.75,846.0313 Q593.1094,846.1875 592.4063,846.1875 Q589.9063,846.1875 588.5781,844.5469 Q587.2656,842.8906 587.2656,839.7656 Q587.2656,836.6406 588.5781,834.9844 Q589.9063,833.3281 592.4063,833.3281 Q593.1094,833.3281 593.75,833.4844 Q594.4063,833.6406 594.9688,833.9375 L594.9688,836.6563 Q594.3438,836.0781 593.75,835.8125 Q593.1563,835.5313 592.5313,835.5313 Q591.1875,835.5313 590.5,836.6094 Q589.8125,837.6719 589.8125,839.7656 Q589.8125,841.8594 590.5,842.9375 Q591.1875,844 592.5313,844 Q593.1563,844 593.75,843.7344 Q594.3438,843.4531 594.9688,842.875 L594.9688,845.5938 Z "/>
      <text fill="#000000" font-family="sans-serif" font-size="12" lengthAdjust="spacingAndGlyphs" textLength="83" x="606" y="844.1074">parents_filter</text>
      <line style="stroke: #A80036; stroke-width: 1.5;" x1="578" x2="691" y1="855.9531" y2="855.9531"/>
      <line style="stroke: #A80036; stroke-width: 1.5;" x1="578" x2="691" y1="863.9531" y2="863.9531"/>
    </a>
    <a href="structclanguml_1_1common_1_1model_1_1edge__traversal__filter.html" target="_top" title="Common template for filters involving traversing relationship graph." xlink:actuate="onRequest" xlink:href="structclanguml_1_1common_1_1model_1_1edge__traversal__filter.html" xlink:show="new" xlink:title="Common template for filters involving traversing relationship graph." xlink:type="simple">
      <rect fill="#FEFECE" filter="url(#f1ijrzag0y8xuv)" height="48" id="C_0001497352705437766113" style="stroke: #A80036; stroke-width: 1.5;" width="707" x="281" y="657.9531"/>
      <ellipse cx="296" cy="673.9531" fill="#ADD1B2" rx="11" ry="11" style="stroke: #A80036; stroke-width: 1.0;"/>
      <path d="M298.9688,679.5938 Q298.3906,679.8906 297.75,680.0313 Q297.1094,680.1875 296.4063,680.1875 Q293.9063,680.1875 292.5781,678.5469 Q291.2656,676.8906 291.2656,673.7656 Q291.2656,670.6406 292.5781,668.9844 Q293.9063,667.3281 296.4063,667.3281 Q297.1094,667.3281 297.75,667.4844 Q298.4063,667.6406 298.9688,667.9375 L298.9688,670.6563 Q298.3438,670.0781 297.75,669.8125 Q297.1563,669.5313 296.5313,669.5313 Q295.1875,669.5313 294.5,670.6094 Q293.8125,671.6719 293.8125,673.7656 Q293.8125,675.8594 294.5,676.9375 Q295.1875,678 296.5313,678 Q297.1563,678 297.75,677.7344 Q298.3438,677.4531 298.9688,676.875 L298.9688,679.5938 Z "/>
      <text fill="#000000" font-family="sans-serif" font-size="12" lengthAdjust="spacingAndGlyphs" textLength="127" x="310" y="678.1074">edge_traversal_filter</text>
      <rect fill="#FFFFFF" height="15.9688" style="stroke: #000000; stroke-width: 1.0; stroke-dasharray: 2.0,2.0;" width="546" x="445" y="654.9531"/>
      <text fill="#000000" font-family="sans-serif" font-size="12" font-style="italic" lengthAdjust="spacingAndGlyphs" textLength="544" x="446" y="667.0918">DiagramT,ElementT,ConfigEntryT=std::string,MatchOverrideT=common::model::element</text>
      <line style="stroke: #A80036; stroke-width: 1.5;" x1="282" x2="987" y1="689.9531" y2="689.9531"/>
      <line style="stroke: #A80036; stroke-width: 1.5;" x1="282" x2="987" y1="697.9531" y2="697.9531"/>
    </a>
    <a href="structclanguml_1_1common_1_1model_1_1relationship__filter.html" target="_top" title="relationship_filter" xlink:actuate="onRequest" xlink:href="structclanguml_1_1common_1_1model_1_1relationship__filter.html" xlink:show="new" xlink:title="relationship_filter" xlink:type="simple">
      <rect fill="#FEFECE" filter="url(#f1ijrzag0y8xuv)" height="48" id="C_0001195713008101262477" style="stroke: #A80036; stroke-width: 1.5;" width="140" x="564.5" y="574.9531"/>
      <ellipse cx="579.5" cy="590.9531" fill="#ADD1B2" rx="11" ry="11" style="stroke: #A80036; stroke-width: 1.0;"/>
      <path d="M582.4688,596.5938 Q581.8906,596.8906 581.25,597.0313 Q580.6094,597.1875 579.9063,597.1875 Q577.4063,597.1875 576.0781,595.5469 Q574.7656,593.8906 574.7656,590.7656 Q574.7656,587.6406 576.0781,585.9844 Q577.4063,584.3281 579.9063,584.3281 Q580.6094,584.3281 581.25,584.4844 Q581.9063,584.6406 582.4688,584.9375 L582.4688,587.6563 Q581.8438,587.0781 581.25,586.8125 Q580.6563,586.5313 580.0313,586.5313 Q578.6875,586.5313 578,587.6094 Q577.3125,588.6719 577.3125,590.7656 Q577.3125,592.8594 578,593.9375 Q578.6875,595 580.0313,595 Q580.6563,595 581.25,594.7344 Q581.8438,594.4531 582.4688,593.875 L582.4688,596.5938 Z "/>
      <text fill="#000000" font-family="sans-serif" font-size="12" lengthAdjust="spacingAndGlyphs" textLength="108" x="593.5" y="595.1074">relationship_filter</text>
      <line style="stroke: #A80036; stroke-width: 1.5;" x1="565.5" x2="703.5" y1="606.9531" y2="606.9531"/>
      <line style="stroke: #A80036; stroke-width: 1.5;" x1="565.5" x2="703.5" y1="614.9531" y2="614.9531"/>
    </a>
    <a href="structclanguml_1_1common_1_1model_1_1access__filter.html" target="_top" title="access_filter" xlink:actuate="onRequest" xlink:href="structclanguml_1_1common_1_1model_1_1access__filter.html" xlink:show="new" xlink:title="access_filter" xlink:type="simple">
      <rect fill="#FEFECE" filter="url(#f1ijrzag0y8xuv)" height="48" id="C_0001098184343448999590" style="stroke: #A80036; stroke-width: 1.5;" width="110" x="1207.5" y="205.9531"/>
      <ellipse cx="1222.5" cy="221.9531" fill="#ADD1B2" rx="11" ry="11" style="stroke: #A80036; stroke-width: 1.0;"/>
      <path d="M1225.4688,227.5938 Q1224.8906,227.8906 1224.25,228.0313 Q1223.6094,228.1875 1222.9063,228.1875 Q1220.4063,228.1875 1219.0781,226.5469 Q1217.7656,224.8906 1217.7656,221.7656 Q1217.7656,218.6406 1219.0781,216.9844 Q1220.4063,215.3281 1222.9063,215.3281 Q1223.6094,215.3281 1224.25,215.4844 Q1224.9063,215.6406 1225.4688,215.9375 L1225.4688,218.6563 Q1224.8438,218.0781 1224.25,217.8125 Q1223.6563,217.5313 1223.0313,217.5313 Q1221.6875,217.5313 1221,218.6094 Q1220.3125,219.6719 1220.3125,221.7656 Q1220.3125,223.8594 1221,224.9375 Q1221.6875,226 1223.0313,226 Q1223.6563,226 1224.25,225.7344 Q1224.8438,225.4531 1225.4688,224.875 L1225.4688,227.5938 Z "/>
      <text fill="#000000" font-family="sans-serif" font-size="12" lengthAdjust="spacingAndGlyphs" textLength="78" x="1236.5" y="226.1074">access_filter</text>
      <line style="stroke: #A80036; stroke-width: 1.5;" x1="1208.5" x2="1316.5" y1="237.9531" y2="237.9531"/>
      <line style="stroke: #A80036; stroke-width: 1.5;" x1="1208.5" x2="1316.5" y1="245.9531" y2="245.9531"/>
    </a>
    <a href="structclanguml_1_1common_1_1model_1_1module__access__filter.html" target="_top" title="module_access_filter" xlink:actuate="onRequest" xlink:href="structclanguml_1_1common_1_1model_1_1module__access__filter.html" xlink:show="new" xlink:title="module_access_filter" xlink:type="simple">
      <rect fill="#FEFECE" filter="url(#f1ijrzag0y8xuv)" height="48" id="C_0001994050252815416874" style="stroke: #A80036; stroke-width: 1.5;" width="162" x="553.5" y="454.9531"/>
      <ellipse cx="568.5" cy="470.9531" fill="#ADD1B2" rx="11" ry="11" style="stroke: #A80036; stroke-width: 1.0;"/>
      <path d="M571.4688,476.5938 Q570.8906,476.8906 570.25,477.0313 Q569.6094,477.1875 568.9063,477.1875 Q566.4063,477.1875 565.0781,475.5469 Q563.7656,473.8906 563.7656,470.7656 Q563.7656,467.6406 565.0781,465.9844 Q566.4063,464.3281 568.9063,464.3281 Q569.6094,464.3281 570.25,464.4844 Q570.9063,464.6406 571.4688,464.9375 L571.4688,467.6563 Q570.8438,467.0781 570.25,466.8125 Q569.6563,466.5313 569.0313,466.5313 Q567.6875,466.5313 567,467.6094 Q566.3125,468.6719 566.3125,470.7656 Q566.3125,472.8594 567,473.9375 Q567.6875,475 569.0313,475 Q569.6563,475 570.25,474.7344 Q570.8438,474.4531 571.4688,473.875 L571.4688,476.5938 Z "/>
      <text fill="#000000" font-family="sans-serif" font-size="12" lengthAdjust="spacingAndGlyphs" textLength="130" x="582.5" y="475.1074">module_access_filter</text>
      <line style="stroke: #A80036; stroke-width: 1.5;" x1="554.5" x2="714.5" y1="486.9531" y2="486.9531"/>
      <line style="stroke: #A80036; stroke-width: 1.5;" x1="554.5" x2="714.5" y1="494.9531" y2="494.9531"/>
    </a>
    <a href="structclanguml_1_1common_1_1model_1_1context__filter.html" target="_top" title="context_filter" xlink:actuate="onRequest" xlink:href="structclanguml_1_1common_1_1model_1_1context__filter.html" xlink:show="new" xlink:title="context_filter" xlink:type="simple">
      <rect fill="#FEFECE" filter="url(#f1ijrzag0y8xuv)" height="48" id="C_0002078668697238559556" style="stroke: #A80036; stroke-width: 1.5;" width="113" x="578" y="371.9531"/>
      <ellipse cx="593" cy="387.9531" fill="#ADD1B2" rx="11" ry="11" style="stroke: #A80036; stroke-width: 1.0;"/>
      <path d="M595.9688,393.5938 Q595.3906,393.8906 594.75,394.0313 Q594.1094,394.1875 593.4063,394.1875 Q590.9063,394.1875 589.5781,392.5469 Q588.2656,390.8906 588.2656,387.7656 Q588.2656,384.6406 589.5781,382.9844 Q590.9063,381.3281 593.4063,381.3281 Q594.1094,381.3281 594.75,381.4844 Q595.4063,381.6406 595.9688,381.9375 L595.9688,384.6563 Q595.3438,384.0781 594.75,383.8125 Q594.1563,383.5313 593.5313,383.5313 Q592.1875,383.5313 591.5,384.6094 Q590.8125,385.6719 590.8125,387.7656 Q590.8125,389.8594 591.5,390.9375 Q592.1875,392 593.5313,392 Q594.1563,392 594.75,391.7344 Q595.3438,391.4531 595.9688,390.875 L595.9688,393.5938 Z "/>
      <text fill="#000000" font-family="sans-serif" font-size="12" lengthAdjust="spacingAndGlyphs" textLength="81" x="607" y="392.1074">context_filter</text>
      <line style="stroke: #A80036; stroke-width: 1.5;" x1="579" x2="690" y1="403.9531" y2="403.9531"/>
      <line style="stroke: #A80036; stroke-width: 1.5;" x1="579" x2="690" y1="411.9531" y2="411.9531"/>
    </a>
    <a href="structclanguml_1_1common_1_1model_1_1paths__filter.html" target="_top" title="paths_filter" xlink:actuate="onRequest" xlink:href="structclanguml_1_1common_1_1model_1_1paths__filter.html" xlink:show="new" xlink:title="paths_filter" xlink:type="simple">
      <rect fill="#FEFECE" filter="url(#f1ijrzag0y8xuv)" height="48" id="C_0000831536458766184760" style="stroke: #A80036; stroke-width: 1.5;" width="102" x="583.5" y="288.9531"/>
      <ellipse cx="598.5" cy="304.9531" fill="#ADD1B2" rx="11" ry="11" style="stroke: #A80036; stroke-width: 1.0;"/>
      <path d="M601.4688,310.5938 Q600.8906,310.8906 600.25,311.0313 Q599.6094,311.1875 598.9063,311.1875 Q596.4063,311.1875 595.0781,309.5469 Q593.7656,307.8906 593.7656,304.7656 Q593.7656,301.6406 595.0781,299.9844 Q596.4063,298.3281 598.9063,298.3281 Q599.6094,298.3281 600.25,298.4844 Q600.9063,298.6406 601.4688,298.9375 L601.4688,301.6563 Q600.8438,301.0781 600.25,300.8125 Q599.6563,300.5313 599.0313,300.5313 Q597.6875,300.5313 597,301.6094 Q596.3125,302.6719 596.3125,304.7656 Q596.3125,306.8594 597,307.9375 Q597.6875,309 599.0313,309 Q599.6563,309 600.25,308.7344 Q600.8438,308.4531 601.4688,307.875 L601.4688,310.5938 Z "/>
      <text fill="#000000" font-family="sans-serif" font-size="12" lengthAdjust="spacingAndGlyphs" textLength="70" x="612.5" y="309.1074">paths_filter</text>
      <line style="stroke: #A80036; stroke-width: 1.5;" x1="584.5" x2="684.5" y1="320.9531" y2="320.9531"/>
      <line style="stroke: #A80036; stroke-width: 1.5;" x1="584.5" x2="684.5" y1="328.9531" y2="328.9531"/>
    </a>
    <a href="structclanguml_1_1common_1_1model_1_1class__method__filter.html" target="_top" title="class_method_filter" xlink:actuate="onRequest" xlink:href="structclanguml_1_1common_1_1model_1_1class__method__filter.html" xlink:show="new" xlink:title="class_method_filter" xlink:type="simple">
      <rect fill="#FEFECE" filter="url(#f1ijrzag0y8xuv)" height="48" id="C_0001578839365087446026" style="stroke: #A80036; stroke-width: 1.5;" width="152" x="558.5" y="205.9531"/>
      <ellipse cx="573.5" cy="221.9531" fill="#ADD1B2" rx="11" ry="11" style="stroke: #A80036; stroke-width: 1.0;"/>
      <path d="M576.4688,227.5938 Q575.8906,227.8906 575.25,228.0313 Q574.6094,228.1875 573.9063,228.1875 Q571.4063,228.1875 570.0781,226.5469 Q568.7656,224.8906 568.7656,221.7656 Q568.7656,218.6406 570.0781,216.9844 Q571.4063,215.3281 573.9063,215.3281 Q574.6094,215.3281 575.25,215.4844 Q575.9063,215.6406 576.4688,215.9375 L576.4688,218.6563 Q575.8438,218.0781 575.25,217.8125 Q574.6563,217.5313 574.0313,217.5313 Q572.6875,217.5313 572,218.6094 Q571.3125,219.6719 571.3125,221.7656 Q571.3125,223.8594 572,224.9375 Q572.6875,226 574.0313,226 Q574.6563,226 575.25,225.7344 Q575.8438,225.4531 576.4688,224.875 L576.4688,227.5938 Z "/>
      <text fill="#000000" font-family="sans-serif" font-size="12" lengthAdjust="spacingAndGlyphs" textLength="120" x="587.5" y="226.1074">class_method_filter</text>
      <line style="stroke: #A80036; stroke-width: 1.5;" x1="559.5" x2="709.5" y1="237.9531" y2="237.9531"/>
      <line style="stroke: #A80036; stroke-width: 1.5;" x1="559.5" x2="709.5" y1="245.9531" y2="245.9531"/>
    </a>
    <a href="structclanguml_1_1common_1_1model_1_1class__member__filter.html" target="_top" title="class_member_filter" xlink:actuate="onRequest" xlink:href="structclanguml_1_1common_1_1model_1_1class__member__filter.html" xlink:show="new" xlink:title="class_member_filter" xlink:type="simple">
      <rect fill="#FEFECE" filter="url(#f1ijrzag0y8xuv)" height="48" id="C_0000676683242499586467" style="stroke: #A80036; stroke-width: 1.5;" width="155" x="557" y="122.9531"/>
      <ellipse cx="572" cy="138.9531" fill="#ADD1B2" rx="11" ry="11" style="stroke: #A80036; stroke-width: 1.0;"/>
      <path d="M574.9688,144.5938 Q574.3906,144.8906 573.75,145.0313 Q573.1094,145.1875 572.4063,145.1875 Q569.9063,145.1875 568.5781,143.5469 Q567.2656,141.8906 567.2656,138.7656 Q567.2656,135.6406 568.5781,133.9844 Q569.9063,132.3281 572.4063,132.3281 Q573.1094,132.3281 573.75,132.4844 Q574.4063,132.6406 574.9688,132.9375 L574.9688,135.6563 Q574.3438,135.0781 573.75,134.8125 Q573.1563,134.5313 572.5313,134.5313 Q571.1875,134.5313 570.5,135.6094 Q569.8125,136.6719 569.8125,138.7656 Q569.8125,140.8594 570.5,141.9375 Q571.1875,143 572.5313,143 Q573.1563,143 573.75,142.7344 Q574.3438,142.4531 574.9688,141.875 L574.9688,144.5938 Z "/>
      <text fill="#000000" font-family="sans-serif" font-size="12" lengthAdjust="spacingAndGlyphs" textLength="123" x="586" y="143.1074">class_member_filter</text>
      <line style="stroke: #A80036; stroke-width: 1.5;" x1="558" x2="711" y1="154.9531" y2="154.9531"/>
      <line style="stroke: #A80036; stroke-width: 1.5;" x1="558" x2="711" y1="162.9531" y2="162.9531"/>
    </a>
    <path d="M571.45,765.6731 C467.67,766.8731 260.87,769.2631 165.21,770.3631 " fill="none" id="C_0000605829206649563575&lt;-C_0000469458052685692314" style="stroke: #A80036; stroke-width: 1.0;"/>
    <polygon fill="#FFFFFF" points="584.49,765.5231,578.4421,761.5959,572.4909,765.6682,578.5388,769.5954,584.49,765.5231" style="stroke: #A80036; stroke-width: 1.0;"/>
    <rect fill="none" height="6" style="stroke: #C82930; stroke-width: 1.0;" width="6" x="198" y="759.0195"/>
    <text fill="#000000" font-family="sans-serif" font-size="13" lengthAdjust="spacingAndGlyphs" textLength="42" x="208" y="766.02">filters_</text>
    <path d="M185.31,777.4531 C188.59,777.6431 191.83,777.8131 195,777.9531 C219.87,779.0331 226.11,778.3731 251,777.9531 C370.75,775.9231 511.49,770.3031 584.3,767.1631 " fill="none" id="C_0000469458052685692314&lt;-C_0000605829206649563575" style="stroke: #A80036; stroke-width: 1.0;"/>
    <polygon fill="none" points="184.59,784.4231,165.13,776.0331,185.57,770.4531,184.59,784.4231" style="stroke: #A80036; stroke-width: 1.0;"/>
    <path d="M113.55,815.1231 C113.41,902.8231 121.9,1103.0931 195,1249.9531 C219.8,1299.7731 231.29,1315.9431 281,1340.9531 C371.43,1386.4431 490.93,1390.8531 564.97,1388.1631 " fill="none" id="C_0000469458052685692314&lt;-C_0001816240256470820189" style="stroke: #A80036; stroke-width: 1.0;"/>
    <polygon fill="none" points="106.55,815.0631,113.74,795.1231,120.55,815.1931,106.55,815.0631" style="stroke: #A80036; stroke-width: 1.0;"/>
    <path d="M114.21,815.1131 C115.55,893.8331 126.95,1061.3331 195,1180.9531 C268.82,1310.7131 473.13,1313.6531 574.67,1306.3631 " fill="none" id="C_0000469458052685692314&lt;-C_0002279438361584449520" style="stroke: #A80036; stroke-width: 1.0;"/>
    <polygon fill="none" points="107.21,815.0131,114.06,794.9631,121.21,814.9031,107.21,815.0131" style="stroke: #A80036; stroke-width: 1.0;"/>
    <path d="M113.83,815.2231 C114.92,886.8931 126.36,1029.7831 195,1123.9531 C281.29,1242.3431 477.79,1236.9031 575.75,1225.7331 " fill="none" id="C_0000469458052685692314&lt;-C_0000690341236618660423" style="stroke: #A80036; stroke-width: 1.0;"/>
    <polygon fill="none" points="106.83,815.0231,113.77,795.0031,120.83,814.9831,106.83,815.0231" style="stroke: #A80036; stroke-width: 1.0;"/>
    <path d="M119.78,815.2931 C129.96,892.7931 154.91,1047.9931 195,1082.9531 C295.81,1170.8431 462.93,1162.6131 559.12,1148.4631 " fill="none" id="C_0000469458052685692314&lt;-C_0002051668456717902300" style="stroke: #A80036; stroke-width: 1.0;"/>
    <polygon fill="none" points="112.8,815.9531,117.25,795.2331,126.69,814.2031,112.8,815.9531" style="stroke: #A80036; stroke-width: 1.0;"/>
    <path d="M123.7,814.8831 C140.79,883.2331 184.82,1011.6831 281,1054.9531 C352.64,1087.1831 917.68,1089.9631 988,1054.9531 C1135.73,981.4131 1224.83,785.8031 1252.33,717.1631 " fill="none" id="C_0000469458052685692314&lt;-C_0001897369211795036987" style="stroke: #A80036; stroke-width: 1.0;"/>
    <polygon fill="none" points="116.78,816.0531,119.06,794.9831,130.42,812.8831,116.78,816.0531" style="stroke: #A80036; stroke-width: 1.0;"/>
    <path d="M135.26,812.9831 C161.67,861.2431 212.25,938.0831 281,971.9531 C379.55,1020.5031 511.76,1021.8031 582.98,1018.1231 " fill="none" id="C_0000469458052685692314&lt;-C_0001198341195117879139" style="stroke: #A80036; stroke-width: 1.0;"/>
    <polygon fill="none" points="128.99,816.1131,125.88,795.1531,141.39,809.5931,128.99,816.1131" style="stroke: #A80036; stroke-width: 1.0;"/>
    <path d="M154.94,808.4731 C186.71,835.6131 233.42,870.6331 281,888.9531 C378.77,926.6031 502.14,932.7731 573.99,932.6631 " fill="none" id="C_0000469458052685692314&lt;-C_0001389919526184251760" style="stroke: #A80036; stroke-width: 1.0;"/>
    <polygon fill="none" points="150.16,813.5831,139.76,795.1231,159.4,803.0731,150.16,813.5831" style="stroke: #A80036; stroke-width: 1.0;"/>
    <path d="M184.83,787.1831 C214.41,793.6231 249.27,800.7331 281,805.9531 C384.84,823.0231 506.98,836.0031 576.81,842.7631 " fill="none" id="C_0000469458052685692314&lt;-C_0001773753487119877542" style="stroke: #A80036; stroke-width: 1.0;"/>
    <polygon fill="none" points="183.3,794.0131,165.29,782.8531,186.33,780.3431,183.3,794.0131" style="stroke: #A80036; stroke-width: 1.0;"/>
    <path d="M184.32,748.1131 C187.93,747.0231 191.5,745.9631 195,744.9531 C232.9,733.9931 242.21,730.1331 281,722.9531 C315.99,716.4731 353.12,710.8331 389.67,705.9831 " fill="none" id="C_0000469458052685692314&lt;-C_0001497352705437766113" style="stroke: #A80036; stroke-width: 1.0;"/>
    <polygon fill="none" points="186.2,754.8531,165.02,754.1031,182.05,741.4931,186.2,754.8531" style="stroke: #A80036; stroke-width: 1.0;"/>
    <path d="M150.99,732.2931 C182.34,701.7131 230.39,660.8331 281,639.9531 C373.84,601.6631 491.36,595.5131 564.49,596.0931 " fill="none" id="C_0000469458052685692314&lt;-C_0001195713008101262477" style="stroke: #A80036; stroke-width: 1.0;"/>
    <polygon fill="none" points="155.66,737.5131,136.59,746.7531,145.74,727.6431,155.66,737.5131" style="stroke: #A80036; stroke-width: 1.0;"/>
    <path d="M133.42,728.6031 C158.8,677.5231 209.16,593.9231 281,556.9531 C420.89,484.9631 833.97,552.0131 988,519.9531 C1067.45,503.4131 1099.71,511.3631 1159,455.9531 C1219.75,399.1831 1247.16,299.5531 1256.97,253.9631 " fill="none" id="C_0000469458052685692314&lt;-C_0001098184343448999590" style="stroke: #A80036; stroke-width: 1.0;"/>
    <polygon fill="none" points="139.7,731.6831,124.78,746.7331,127.07,725.6631,139.7,731.6831" style="stroke: #A80036; stroke-width: 1.0;"/>
    <path d="M115.71,726.6331 C119.81,671.3031 135.73,578.0931 195,529.9531 C296.44,447.5731 457.26,452.3031 553.38,464.6531 " fill="none" id="C_0000469458052685692314&lt;-C_0001994050252815416874" style="stroke: #A80036; stroke-width: 1.0;"/>
    <polygon fill="none" points="122.69,727.2131,114.62,746.8031,108.71,726.4531,122.69,727.2131" style="stroke: #A80036; stroke-width: 1.0;"/>
    <path d="M119.82,726.4131 C128.2,670.7631 148.6,574.5331 195,505.9531 C222.46,465.3631 235.79,455.8531 281,436.9531 C379.62,395.7231 506.48,391.5431 578,393.1331 " fill="none" id="C_0000469458052685692314&lt;-C_0002078668697238559556" style="stroke: #A80036; stroke-width: 1.0;"/>
    <polygon fill="none" points="126.7,727.7331,117.04,746.5931,112.83,725.8231,126.7,727.7331" style="stroke: #A80036; stroke-width: 1.0;"/>
    <path d="M115.79,726.6831 C121.18,635.9031 148.2,430.7531 281,353.9531 C376.6,298.6631 511.15,300.7031 583.23,306.8931 " fill="none" id="C_0000469458052685692314&lt;-C_0000831536458766184760" style="stroke: #A80036; stroke-width: 1.0;"/>
    <polygon fill="none" points="122.77,727.2631,114.84,746.9131,108.78,726.6031,122.77,727.2631" style="stroke: #A80036; stroke-width: 1.0;"/>
    <path d="M723.85,229.9531 C855.42,229.9531 1098.93,229.9531 1207.19,229.9531 " fill="none" id="C_0001578839365087446026&lt;-C_0001098184343448999590" style="stroke: #A80036; stroke-width: 1.0;"/>
    <polygon fill="#FFFFFF" points="710.7,229.9531,716.7,233.9531,722.7,229.9531,716.7,225.9531,710.7,229.9531" style="stroke: #A80036; stroke-width: 1.0;"/>
    <rect fill="none" height="6" style="stroke: #C82930; stroke-width: 1.0;" width="6" x="1041.5" y="219.0195"/>
    <text fill="#000000" font-family="sans-serif" font-size="13" lengthAdjust="spacingAndGlyphs" textLength="86" x="1051.5" y="226.02">access_filter_</text>
    <path d="M723.9,220.2631 C799.6,216.3831 908.63,221.6631 988,270.9531 C1145.42,368.7231 1229.81,594.4531 1254.06,668.7531 " fill="none" id="C_0001578839365087446026&lt;-C_0001897369211795036987" style="stroke: #A80036; stroke-width: 1.0;"/>
    <polygon fill="#FFFFFF" points="710.64,221.0531,716.8669,224.6899,722.6188,220.3407,716.392,216.704,710.64,221.0531" style="stroke: #A80036; stroke-width: 1.0;"/>
    <rect fill="none" height="6" style="stroke: #C82930; stroke-width: 1.0;" width="6" x="1021" y="284.0195"/>
    <text fill="#000000" font-family="sans-serif" font-size="13" lengthAdjust="spacingAndGlyphs" textLength="127" x="1031" y="291.02">method_type_filter_</text>
    <path d="M118.73,726.4731 C126.69,655.1631 147.56,511.9031 195,399.9531 C221.89,336.5131 222.23,306.9231 281,270.9531 C365.47,219.2431 482.85,216.3131 558.5,221.2831 " fill="none" id="C_0000469458052685692314&lt;-C_0001578839365087446026" style="stroke: #A80036; stroke-width: 1.0;"/>
    <polygon fill="none" points="125.67,727.4131,116.62,746.5731,111.75,725.9531,125.67,727.4131" style="stroke: #A80036; stroke-width: 1.0;"/>
    <path d="M725.25,153.3531 C829.92,161.6431 1007.88,178.2631 1159,204.9531 C1174.78,207.7431 1191.75,211.5431 1207.25,215.3431 " fill="none" id="C_0000676683242499586467&lt;-C_0001098184343448999590" style="stroke: #A80036; stroke-width: 1.0;"/>
    <polygon fill="#FFFFFF" points="712.23,152.3431,717.8999,156.7987,724.1935,153.2786,718.5236,148.823,712.23,152.3431" style="stroke: #A80036; stroke-width: 1.0;"/>
    <rect fill="none" height="6" style="stroke: #C82930; stroke-width: 1.0;" width="6" x="1041.5" y="175.0195"/>
    <text fill="#000000" font-family="sans-serif" font-size="13" lengthAdjust="spacingAndGlyphs" textLength="86" x="1051.5" y="182.02">access_filter_</text>
    <path d="M117.86,726.6631 C124.98,646.9631 145.18,475.0131 195,338.9531 C221.55,266.4331 216.59,230.5631 281,187.9531 C363.22,133.5631 480.36,131.1431 556.65,136.9831 " fill="none" id="C_0000469458052685692314&lt;-C_0000676683242499586467" style="stroke: #A80036; stroke-width: 1.0;"/>
    <polygon fill="none" points="124.82,727.4531,116.17,746.8031,110.87,726.2831,124.82,727.4531" style="stroke: #A80036; stroke-width: 1.0;"/>
  </g>
</svg>
