<svg xmlns="http://www.w3.org/2000/svg" xmlns:xlink="http://www.w3.org/1999/xlink" contentStyleType="text/css" data-diagram-type="DESCRIPTION" height="654px" preserveAspectRatio="none" style="width:1244px;height:654px;background:#FFFFFF;" version="1.1" viewBox="0 0 1244 654" width="1244px" zoomAndPan="magnify">
  <title>Include graph</title>
  <defs>
    <style type="text/css">a:hover { text-decoration: underline; }</style>
  </defs>
  <g>
    <text fill="#000000" font-family="sans-serif" font-size="14" font-weight="bold" lengthAdjust="spacing" textLength="97.8176" x="566.0912" y="24.9659">Include graph</text>
    <g id="cluster_C_0011100957978370531577">
      <path d="M8.5,46.6699 L30.0099,46.6699 A3.75,3.75 0 0 1 32.5099,49.1699 L39.5099,71.7378 L1234.5,71.7378 A2.5,2.5 0 0 1 1237,74.2378 L1237,645.1699 A2.5,2.5 0 0 1 1234.5,647.6699 L8.5,647.6699 A2.5,2.5 0 0 1 6,645.1699 L6,49.1699 A2.5,2.5 0 0 1 8.5,46.6699 " fill="transparent" style="stroke:#000000;stroke-width:1.5;"/>
      <line style="stroke:#000000;stroke-width:1.5;" x1="6" x2="39.5099" y1="71.7378" y2="71.7378"/>
      <text fill="#000000" font-family="sans-serif" font-size="14" font-weight="bold" lengthAdjust="spacing" textLength="20.5099" x="10" y="63.6358">src</text>
    </g>
    <g id="cluster_C_0006410245235976671199">
      <path d="M32.5,92.6699 L77.1098,92.6699 A3.75,3.75 0 0 1 79.6098,95.1699 L86.6098,117.7378 L674.5,117.7378 A2.5,2.5 0 0 1 677,120.2378 L677,381.1699 A2.5,2.5 0 0 1 674.5,383.6699 L32.5,383.6699 A2.5,2.5 0 0 1 30,381.1699 L30,95.1699 A2.5,2.5 0 0 1 32.5,92.6699 " fill="transparent" style="stroke:#000000;stroke-width:1.5;"/>
      <line style="stroke:#000000;stroke-width:1.5;" x1="30" x2="86.6098" y1="117.7378" y2="117.7378"/>
      <text fill="#000000" font-family="sans-serif" font-size="14" font-weight="bold" lengthAdjust="spacing" textLength="43.6098" x="34" y="109.6358">config</text>
    </g>
    <g id="cluster_C_0000104943970053505636">
      <path d="M703.5,290.6699 L765.7218,290.6699 A3.75,3.75 0 0 1 768.2218,293.1699 L775.2218,315.7378 L999.5,315.7378 A2.5,2.5 0 0 1 1002,318.2378 L1002,621.1699 A2.5,2.5 0 0 1 999.5,623.6699 L703.5,623.6699 A2.5,2.5 0 0 1 701,621.1699 L701,293.1699 A2.5,2.5 0 0 1 703.5,290.6699 " fill="transparent" style="stroke:#000000;stroke-width:1.5;"/>
      <line style="stroke:#000000;stroke-width:1.5;" x1="701" x2="775.2218" y1="315.7378" y2="315.7378"/>
      <text fill="#000000" font-family="sans-serif" font-size="14" font-weight="bold" lengthAdjust="spacing" textLength="61.2218" x="705" y="307.6358">common</text>
    </g>
    <g id="cluster_C_0015093366486862577796">
      <path d="M727.5,407.6699 L772.3198,407.6699 A3.75,3.75 0 0 1 774.8198,410.1699 L781.8198,432.7378 L975.5,432.7378 A2.5,2.5 0 0 1 978,435.2378 L978,597.1699 A2.5,2.5 0 0 1 975.5,599.6699 L727.5,599.6699 A2.5,2.5 0 0 1 725,597.1699 L725,410.1699 A2.5,2.5 0 0 1 727.5,407.6699 " fill="transparent" style="stroke:#000000;stroke-width:1.5;"/>
      <line style="stroke:#000000;stroke-width:1.5;" x1="725" x2="781.8198" y1="432.7378" y2="432.7378"/>
      <text fill="#000000" font-family="sans-serif" font-size="14" font-weight="bold" lengthAdjust="spacing" textLength="43.8198" x="729" y="424.6358">model</text>
    </g>
    <g id="cluster_C_0014145132412893887777">
      <path d="M1028.5,290.6699 L1053.3139,290.6699 A3.75,3.75 0 0 1 1055.8139,293.1699 L1062.8139,315.7378 L1210.5,315.7378 A2.5,2.5 0 0 1 1213,318.2378 L1213,597.1699 A2.5,2.5 0 0 1 1210.5,599.6699 L1028.5,599.6699 A2.5,2.5 0 0 1 1026,597.1699 L1026,293.1699 A2.5,2.5 0 0 1 1028.5,290.6699 " fill="transparent" style="stroke:#000000;stroke-width:1.5;"/>
      <line style="stroke:#000000;stroke-width:1.5;" x1="1026" x2="1062.8139" y1="315.7378" y2="315.7378"/>
      <text fill="#000000" font-family="sans-serif" font-size="14" font-weight="bold" lengthAdjust="spacing" textLength="23.8139" x="1030" y="307.6358">util</text>
    </g>
    <a href="" target="_top" title="config.cc" xlink:actuate="onRequest" xlink:href="" xlink:show="new" xlink:title="config.cc" xlink:type="simple">
      <path d="M247,133.1699 L247,167.2378 A2.5,2.5 0 0 0 249.5,169.7378 L322.5718,169.7378 A2.5,2.5 0 0 0 325.0718,167.2378 L325.0718,140.6699 L315.0718,130.6699 L249.5,130.6699 A2.5,2.5 0 0 0 247,133.1699 " fill="#F1F1F1" style="stroke:#181818;stroke-width:0.5;"/>
      <path d="M315.0718,130.6699 L315.0718,138.1699 A2.5,2.5 0 0 0 317.5718,140.6699 L325.0718,140.6699 " fill="#F1F1F1" style="stroke:#181818;stroke-width:0.5;"/>
      <text fill="#000000" font-family="sans-serif" font-size="14" lengthAdjust="spacing" textLength="58.0718" x="257" y="155.6358">config.cc</text>
    </a>
    <a href="" target="_top" title="config.h" xlink:actuate="onRequest" xlink:href="" xlink:show="new" xlink:title="config.h" xlink:type="simple">
      <path d="M469.5,232.1699 L469.5,266.2378 A2.5,2.5 0 0 0 472,268.7378 L540.2838,268.7378 A2.5,2.5 0 0 0 542.7838,266.2378 L542.7838,239.6699 L532.7838,229.6699 L472,229.6699 A2.5,2.5 0 0 0 469.5,232.1699 " fill="#F1F1F1" style="stroke:#181818;stroke-width:0.5;"/>
      <path d="M532.7838,229.6699 L532.7838,237.1699 A2.5,2.5 0 0 0 535.2838,239.6699 L542.7838,239.6699 " fill="#F1F1F1" style="stroke:#181818;stroke-width:0.5;"/>
      <text fill="#000000" font-family="sans-serif" font-size="14" lengthAdjust="spacing" textLength="53.2838" x="479.5" y="254.6358">config.h</text>
    </a>
    <a href="" target="_top" title="option.h" xlink:actuate="onRequest" xlink:href="" xlink:show="new" xlink:title="option.h" xlink:type="simple">
      <path d="M412.5,331.1699 L412.5,365.2378 A2.5,2.5 0 0 0 415,367.7378 L485.2718,367.7378 A2.5,2.5 0 0 0 487.7718,365.2378 L487.7718,338.6699 L477.7718,328.6699 L415,328.6699 A2.5,2.5 0 0 0 412.5,331.1699 " fill="#F1F1F1" style="stroke:#181818;stroke-width:0.5;"/>
      <path d="M477.7718,328.6699 L477.7718,336.1699 A2.5,2.5 0 0 0 480.2718,338.6699 L487.7718,338.6699 " fill="#F1F1F1" style="stroke:#181818;stroke-width:0.5;"/>
      <text fill="#000000" font-family="sans-serif" font-size="14" lengthAdjust="spacing" textLength="55.2718" x="422.5" y="353.6358">option.h</text>
    </a>
    <a href="" target="_top" title="diagram_templates.h" xlink:actuate="onRequest" xlink:href="" xlink:show="new" xlink:title="diagram_templates.h" xlink:type="simple">
      <path d="M159,232.1699 L159,266.2378 A2.5,2.5 0 0 0 161.5,268.7378 L316.3035,268.7378 A2.5,2.5 0 0 0 318.8035,266.2378 L318.8035,239.6699 L308.8035,229.6699 L161.5,229.6699 A2.5,2.5 0 0 0 159,232.1699 " fill="#F1F1F1" style="stroke:#181818;stroke-width:0.5;"/>
      <path d="M308.8035,229.6699 L308.8035,237.1699 A2.5,2.5 0 0 0 311.3035,239.6699 L318.8035,239.6699 " fill="#F1F1F1" style="stroke:#181818;stroke-width:0.5;"/>
      <text fill="#000000" font-family="sans-serif" font-size="14" lengthAdjust="spacing" textLength="139.8035" x="169" y="254.6358">diagram_templates.h</text>
    </a>
    <a href="" target="_top" title="yaml_decoders.cc" xlink:actuate="onRequest" xlink:href="" xlink:show="new" xlink:title="yaml_decoders.cc" xlink:type="simple">
      <path d="M525,133.1699 L525,167.2378 A2.5,2.5 0 0 0 527.5,169.7378 L658.2935,169.7378 A2.5,2.5 0 0 0 660.7935,167.2378 L660.7935,140.6699 L650.7935,130.6699 L527.5,130.6699 A2.5,2.5 0 0 0 525,133.1699 " fill="#F1F1F1" style="stroke:#181818;stroke-width:0.5;"/>
      <path d="M650.7935,130.6699 L650.7935,138.1699 A2.5,2.5 0 0 0 653.2935,140.6699 L660.7935,140.6699 " fill="#F1F1F1" style="stroke:#181818;stroke-width:0.5;"/>
      <text fill="#000000" font-family="sans-serif" font-size="14" lengthAdjust="spacing" textLength="115.7935" x="535" y="155.6358">yaml_decoders.cc</text>
    </a>
    <a href="" target="_top" title="schema.h" xlink:actuate="onRequest" xlink:href="" xlink:show="new" xlink:title="schema.h" xlink:type="simple">
      <path d="M577.5,232.1699 L577.5,266.2378 A2.5,2.5 0 0 0 580,268.7378 L658.3217,268.7378 A2.5,2.5 0 0 0 660.8217,266.2378 L660.8217,239.6699 L650.8217,229.6699 L580,229.6699 A2.5,2.5 0 0 0 577.5,232.1699 " fill="#F1F1F1" style="stroke:#181818;stroke-width:0.5;"/>
      <path d="M650.8217,229.6699 L650.8217,237.1699 A2.5,2.5 0 0 0 653.3217,239.6699 L660.8217,239.6699 " fill="#F1F1F1" style="stroke:#181818;stroke-width:0.5;"/>
      <text fill="#000000" font-family="sans-serif" font-size="14" lengthAdjust="spacing" textLength="63.3217" x="587.5" y="254.6358">schema.h</text>
    </a>
    <a href="" target="_top" title="diagram_templates.cc" xlink:actuate="onRequest" xlink:href="" xlink:show="new" xlink:title="diagram_templates.cc" xlink:type="simple">
      <path d="M46.5,133.1699 L46.5,167.2378 A2.5,2.5 0 0 0 49,169.7378 L208.5915,169.7378 A2.5,2.5 0 0 0 211.0915,167.2378 L211.0915,140.6699 L201.0915,130.6699 L49,130.6699 A2.5,2.5 0 0 0 46.5,133.1699 " fill="#F1F1F1" style="stroke:#181818;stroke-width:0.5;"/>
      <path d="M201.0915,130.6699 L201.0915,138.1699 A2.5,2.5 0 0 0 203.5915,140.6699 L211.0915,140.6699 " fill="#F1F1F1" style="stroke:#181818;stroke-width:0.5;"/>
      <text fill="#000000" font-family="sans-serif" font-size="14" lengthAdjust="spacing" textLength="144.5915" x="56.5" y="155.6358">diagram_templates.cc</text>
    </a>
    <a href="" target="_top" title="option.cc" xlink:actuate="onRequest" xlink:href="" xlink:show="new" xlink:title="option.cc" xlink:type="simple">
      <path d="M354,232.1699 L354,266.2378 A2.5,2.5 0 0 0 356.5,268.7378 L431.5598,268.7378 A2.5,2.5 0 0 0 434.0598,266.2378 L434.0598,239.6699 L424.0598,229.6699 L356.5,229.6699 A2.5,2.5 0 0 0 354,232.1699 " fill="#F1F1F1" style="stroke:#181818;stroke-width:0.5;"/>
      <path d="M424.0598,229.6699 L424.0598,237.1699 A2.5,2.5 0 0 0 426.5598,239.6699 L434.0598,239.6699 " fill="#F1F1F1" style="stroke:#181818;stroke-width:0.5;"/>
      <text fill="#000000" font-family="sans-serif" font-size="14" lengthAdjust="spacing" textLength="60.0598" x="364" y="254.6358">option.cc</text>
    </a>
    <a href="" target="_top" title="yaml_emitters.cc" xlink:actuate="onRequest" xlink:href="" xlink:show="new" xlink:title="yaml_emitters.cc" xlink:type="simple">
      <path d="M360,133.1699 L360,167.2378 A2.5,2.5 0 0 0 362.5,169.7378 L487.6936,169.7378 A2.5,2.5 0 0 0 490.1936,167.2378 L490.1936,140.6699 L480.1936,130.6699 L362.5,130.6699 A2.5,2.5 0 0 0 360,133.1699 " fill="#F1F1F1" style="stroke:#181818;stroke-width:0.5;"/>
      <path d="M480.1936,130.6699 L480.1936,138.1699 A2.5,2.5 0 0 0 482.6936,140.6699 L490.1936,140.6699 " fill="#F1F1F1" style="stroke:#181818;stroke-width:0.5;"/>
      <text fill="#000000" font-family="sans-serif" font-size="14" lengthAdjust="spacing" textLength="110.1936" x="370" y="155.6358">yaml_emitters.cc</text>
    </a>
    <a href="" target="_top" title="types.h" xlink:actuate="onRequest" xlink:href="" xlink:show="new" xlink:title="types.h" xlink:type="simple">
      <path d="M739,331.1699 L739,365.2378 A2.5,2.5 0 0 0 741.5,367.7378 L804.3098,367.7378 A2.5,2.5 0 0 0 806.8098,365.2378 L806.8098,338.6699 L796.8098,328.6699 L741.5,328.6699 A2.5,2.5 0 0 0 739,331.1699 " fill="#F1F1F1" style="stroke:#181818;stroke-width:0.5;"/>
      <path d="M796.8098,328.6699 L796.8098,336.1699 A2.5,2.5 0 0 0 799.3098,338.6699 L806.8098,338.6699 " fill="#F1F1F1" style="stroke:#181818;stroke-width:0.5;"/>
      <text fill="#000000" font-family="sans-serif" font-size="14" lengthAdjust="spacing" textLength="47.8098" x="749" y="353.6358">types.h</text>
    </a>
    <a href="" target="_top" title="enums.h" xlink:actuate="onRequest" xlink:href="" xlink:show="new" xlink:title="enums.h" xlink:type="simple">
      <path d="M884.5,448.1699 L884.5,482.2378 A2.5,2.5 0 0 0 887,484.7378 L959.3998,484.7378 A2.5,2.5 0 0 0 961.8998,482.2378 L961.8998,455.6699 L951.8998,445.6699 L887,445.6699 A2.5,2.5 0 0 0 884.5,448.1699 " fill="#F1F1F1" style="stroke:#181818;stroke-width:0.5;"/>
      <path d="M951.8998,445.6699 L951.8998,453.1699 A2.5,2.5 0 0 0 954.3998,455.6699 L961.8998,455.6699 " fill="#F1F1F1" style="stroke:#181818;stroke-width:0.5;"/>
      <text fill="#000000" font-family="sans-serif" font-size="14" lengthAdjust="spacing" textLength="57.3998" x="894.5" y="470.6358">enums.h</text>
    </a>
    <a href="" target="_top" title="namespace.h" xlink:actuate="onRequest" xlink:href="" xlink:show="new" xlink:title="namespace.h" xlink:type="simple">
      <path d="M741,448.1699 L741,482.2378 A2.5,2.5 0 0 0 743.5,484.7378 L846.1817,484.7378 A2.5,2.5 0 0 0 848.6817,482.2378 L848.6817,455.6699 L838.6817,445.6699 L743.5,445.6699 A2.5,2.5 0 0 0 741,448.1699 " fill="#F1F1F1" style="stroke:#181818;stroke-width:0.5;"/>
      <path d="M838.6817,445.6699 L838.6817,453.1699 A2.5,2.5 0 0 0 841.1817,455.6699 L848.6817,455.6699 " fill="#F1F1F1" style="stroke:#181818;stroke-width:0.5;"/>
      <text fill="#000000" font-family="sans-serif" font-size="14" lengthAdjust="spacing" textLength="87.6817" x="751" y="470.6358">namespace.h</text>
    </a>
    <a href="" target="_top" title="path.h" xlink:actuate="onRequest" xlink:href="" xlink:show="new" xlink:title="path.h" xlink:type="simple">
      <path d="M830.5,547.1699 L830.5,581.2378 A2.5,2.5 0 0 0 833,583.7378 L890.5738,583.7378 A2.5,2.5 0 0 0 893.0738,581.2378 L893.0738,554.6699 L883.0738,544.6699 L833,544.6699 A2.5,2.5 0 0 0 830.5,547.1699 " fill="#F1F1F1" style="stroke:#181818;stroke-width:0.5;"/>
      <path d="M883.0738,544.6699 L883.0738,552.1699 A2.5,2.5 0 0 0 885.5738,554.6699 L893.0738,554.6699 " fill="#F1F1F1" style="stroke:#181818;stroke-width:0.5;"/>
      <text fill="#000000" font-family="sans-serif" font-size="14" lengthAdjust="spacing" textLength="42.5738" x="840.5" y="569.6358">path.h</text>
    </a>
    <a href="" target="_top" title="fmt_formatters.h" xlink:actuate="onRequest" xlink:href="" xlink:show="new" xlink:title="fmt_formatters.h" xlink:type="simple">
      <path d="M1053,547.1699 L1053,581.2378 A2.5,2.5 0 0 0 1055.5,583.7378 L1182.5836,583.7378 A2.5,2.5 0 0 0 1185.0836,581.2378 L1185.0836,554.6699 L1175.0836,544.6699 L1055.5,544.6699 A2.5,2.5 0 0 0 1053,547.1699 " fill="#F1F1F1" style="stroke:#181818;stroke-width:0.5;"/>
      <path d="M1175.0836,544.6699 L1175.0836,552.1699 A2.5,2.5 0 0 0 1177.5836,554.6699 L1185.0836,554.6699 " fill="#F1F1F1" style="stroke:#181818;stroke-width:0.5;"/>
      <text fill="#000000" font-family="sans-serif" font-size="14" lengthAdjust="spacing" textLength="112.0836" x="1063" y="569.6358">fmt_formatters.h</text>
    </a>
    <a href="" target="_top" title="util.h" xlink:actuate="onRequest" xlink:href="" xlink:show="new" xlink:title="util.h" xlink:type="simple">
      <path d="M1143.5,331.1699 L1143.5,365.2378 A2.5,2.5 0 0 0 1146,367.7378 L1194.3339,367.7378 A2.5,2.5 0 0 0 1196.8339,365.2378 L1196.8339,338.6699 L1186.8339,328.6699 L1146,328.6699 A2.5,2.5 0 0 0 1143.5,331.1699 " fill="#F1F1F1" style="stroke:#181818;stroke-width:0.5;"/>
      <path d="M1186.8339,328.6699 L1186.8339,336.1699 A2.5,2.5 0 0 0 1189.3339,338.6699 L1196.8339,338.6699 " fill="#F1F1F1" style="stroke:#181818;stroke-width:0.5;"/>
      <text fill="#000000" font-family="sans-serif" font-size="14" lengthAdjust="spacing" textLength="33.3339" x="1153.5" y="353.6358">util.h</text>
    </a>
    <a href="" target="_top" title="logging.h" xlink:actuate="onRequest" xlink:href="" xlink:show="new" xlink:title="logging.h" xlink:type="simple">
      <path d="M1095.5,448.1699 L1095.5,482.2378 A2.5,2.5 0 0 0 1098,484.7378 L1175.5798,484.7378 A2.5,2.5 0 0 0 1178.0798,482.2378 L1178.0798,455.6699 L1168.0798,445.6699 L1098,445.6699 A2.5,2.5 0 0 0 1095.5,448.1699 " fill="#F1F1F1" style="stroke:#181818;stroke-width:0.5;"/>
      <path d="M1168.0798,445.6699 L1168.0798,453.1699 A2.5,2.5 0 0 0 1170.5798,455.6699 L1178.0798,455.6699 " fill="#F1F1F1" style="stroke:#181818;stroke-width:0.5;"/>
      <text fill="#000000" font-family="sans-serif" font-size="14" lengthAdjust="spacing" textLength="62.5798" x="1105.5" y="470.6358">logging.h</text>
    </a>
    <a href="" target="_top" title="error.h" xlink:actuate="onRequest" xlink:href="" xlink:show="new" xlink:title="error.h" xlink:type="simple">
      <path d="M1042,331.1699 L1042,365.2378 A2.5,2.5 0 0 0 1044.5,367.7378 L1105.6158,367.7378 A2.5,2.5 0 0 0 1108.1158,365.2378 L1108.1158,338.6699 L1098.1158,328.6699 L1044.5,328.6699 A2.5,2.5 0 0 0 1042,331.1699 " fill="#F1F1F1" style="stroke:#181818;stroke-width:0.5;"/>
      <path d="M1098.1158,328.6699 L1098.1158,336.1699 A2.5,2.5 0 0 0 1100.6158,338.6699 L1108.1158,338.6699 " fill="#F1F1F1" style="stroke:#181818;stroke-width:0.5;"/>
      <text fill="#000000" font-family="sans-serif" font-size="14" lengthAdjust="spacing" textLength="46.1158" x="1052" y="353.6358">error.h</text>
    </a>
    <g id="link_C_0015079445126862667482_C_0012140013982476589918">
      <path d="M325.08,168.3999 C365.95,186.4199 424.1001,212.059 463.9901,229.649 " fill="transparent" id="C_0015079445126862667482-to-C_0012140013982476589918" style="stroke:#181818;stroke-width:1;"/>
      <polygon fill="#181818" points="469.48,232.0699,462.859,224.7787,464.905,230.0525,459.6312,232.0986,469.48,232.0699" style="stroke:#181818;stroke-width:1;"/>
    </g>
    <g id="link_C_0015079445126862667482_C_0009474769160410159032">
      <path d="M276.94,169.8699 C268.62,187.0499 258.9689,206.9716 250.6489,224.1216 " fill="transparent" id="C_0015079445126862667482-to-C_0009474769160410159032" style="stroke:#181818;stroke-width:1;"/>
      <polygon fill="#181818" points="248.03,229.5199,255.5572,223.1684,250.2124,225.0213,248.3595,219.6766,248.03,229.5199" style="stroke:#181818;stroke-width:1;"/>
    </g>
    <g id="link_C_0012140013982476589918_C_0009388434743451459542">
      <path d="M542.51,264.2399 C548.29,266.0099 554.26,267.5799 560,268.6699 C594.75,275.2499 850.63,260.2699 878,282.6699 C927.24,322.9699 927.8737,401.9642 925.2737,439.5842 " fill="transparent" id="C_0012140013982476589918-to-C_0009388434743451459542" style="stroke:#181818;stroke-width:1;"/>
      <polygon fill="#181818" points="924.86,445.5699,929.471,436.8671,925.2047,440.5818,921.49,436.3155,924.86,445.5699" style="stroke:#181818;stroke-width:1;"/>
    </g>
    <g id="link_C_0012140013982476589918_C_0011896277980381595836">
      <path d="M542.59,263.8599 C548.36,265.6799 554.3,267.3699 560,268.6699 C611.06,280.3299 627.9,264.4499 677,282.6699 C705.24,293.1499 728.6917,309.6961 747.1317,324.7461 " fill="transparent" id="C_0012140013982476589918-to-C_0011896277980381595836" style="stroke:#181818;stroke-width:1;"/>
      <polygon fill="#181818" points="751.78,328.5399,747.3367,319.7503,747.9064,325.3784,742.2783,325.9481,751.78,328.5399" style="stroke:#181818;stroke-width:1;"/>
    </g>
    <g id="link_C_0012140013982476589918_C_0002545126248170020497">
      <path d="M495.2,268.8699 C485.29,286.0499 473.6719,306.1749 463.7619,323.3249 " fill="transparent" id="C_0012140013982476589918-to-C_0002545126248170020497" style="stroke:#181818;stroke-width:1;"/>
      <polygon fill="#181818" points="460.76,328.5199,468.7262,322.7286,463.2616,324.1907,461.7995,318.7261,460.76,328.5199" style="stroke:#181818;stroke-width:1;"/>
    </g>
    <g id="link_C_0012140013982476589918_C_0015818096269110849716">
      <path d="M542.79,264.4299 C548.48,266.1499 554.34,267.6599 560,268.6699 C590.96,274.2199 1098.37,267.6299 1126,282.6699 C1143.98,292.4499 1153.602,307.6665 1160.482,322.9865 " fill="transparent" id="C_0012140013982476589918-to-C_0015818096269110849716" style="stroke:#181818;stroke-width:1;"/>
      <polygon fill="#181818" points="1162.94,328.4599,1162.9019,318.6111,1160.8916,323.8987,1155.604,321.8885,1162.94,328.4599" style="stroke:#181818;stroke-width:1;"/>
    </g>
    <g id="link_C_0000850977248882698993_C_0012140013982476589918">
      <path d="M576.23,169.8699 C560.82,187.0499 542.1173,207.9043 526.7273,225.0543 " fill="transparent" id="C_0000850977248882698993-to-C_0012140013982476589918" style="stroke:#181818;stroke-width:1;"/>
      <polygon fill="#181818" points="522.72,229.5199,531.708,225.4931,526.0594,225.7986,525.7539,220.15,522.72,229.5199" style="stroke:#181818;stroke-width:1;"/>
    </g>
    <g id="link_C_0000850977248882698993_C_0009474769160410159032">
      <path d="M525.16,169.7599 C462.33,186.9799 375.1566,210.864 312.3966,228.064 " fill="transparent" id="C_0000850977248882698993-to-C_0009474769160410159032" style="stroke:#181818;stroke-width:1;"/>
      <polygon fill="#181818" points="306.61,229.6499,316.3472,231.1288,311.4322,228.3283,314.2327,223.4133,306.61,229.6499" style="stroke:#181818;stroke-width:1;"/>
    </g>
    <g id="link_C_0000850977248882698993_C_0013560060108228197304">
      <path d="M598.01,169.8699 C602.62,187.0499 607.8456,206.5747 612.4456,223.7247 " fill="transparent" id="C_0000850977248882698993-to-C_0013560060108228197304" style="stroke:#181818;stroke-width:1;"/>
      <polygon fill="#181818" points="614,229.5199,615.5319,219.7909,612.7047,224.6906,607.805,221.8634,614,229.5199" style="stroke:#181818;stroke-width:1;"/>
    </g>
    <g id="link_C_0000850977248882698993_C_0008683420888540374207">
      <path d="M638.78,169.7899 C735.24,209.0099 951.8822,297.0992 1036.1822,331.3892 " fill="transparent" id="C_0000850977248882698993-to-C_0008683420888540374207" style="stroke:#181818;stroke-width:1;"/>
      <polygon fill="#181818" points="1041.74,333.6499,1034.9104,326.5536,1037.1085,331.766,1031.8962,333.9641,1041.74,333.6499" style="stroke:#181818;stroke-width:1;"/>
    </g>
    <g id="link_C_0008629439082178352935_C_0009474769160410159032">
      <path d="M150.21,169.8699 C169.69,187.0499 193.8986,208.4028 213.3586,225.5528 " fill="transparent" id="C_0008629439082178352935-to-C_0009474769160410159032" style="stroke:#181818;stroke-width:1;"/>
      <polygon fill="#181818" points="217.86,229.5199,213.7526,220.5684,214.1088,226.214,208.4632,226.5702,217.86,229.5199" style="stroke:#181818;stroke-width:1;"/>
    </g>
    <g id="link_C_0001520455994560399278_C_0002545126248170020497">
      <path d="M404.8,268.8699 C414.71,286.0499 426.3281,306.1749 436.2381,323.3249 " fill="transparent" id="C_0001520455994560399278-to-C_0002545126248170020497" style="stroke:#181818;stroke-width:1;"/>
      <polygon fill="#181818" points="439.24,328.5199,438.2005,318.7261,436.7384,324.1907,431.2738,322.7286,439.24,328.5199" style="stroke:#181818;stroke-width:1;"/>
    </g>
    <g id="link_C_0010647698635028726129_C_0012140013982476589918">
      <path d="M440.62,169.8699 C454.96,187.0499 472.2528,207.7656 486.5828,224.9156 " fill="transparent" id="C_0010647698635028726129-to-C_0012140013982476589918" style="stroke:#181818;stroke-width:1;"/>
      <polygon fill="#181818" points="490.43,229.5199,487.7287,220.0487,487.224,225.683,481.5897,225.1783,490.43,229.5199" style="stroke:#181818;stroke-width:1;"/>
    </g>
    <g id="link_C_0009388434743451459542_C_0001506908138452400189">
      <path d="M960.79,484.8699 C995.5,502.0499 1041.2717,524.7102 1075.9517,541.8602 " fill="transparent" id="C_0009388434743451459542-to-C_0001506908138452400189" style="stroke:#181818;stroke-width:1;"/>
      <polygon fill="#181818" points="1081.33,544.5199,1075.0357,536.9448,1076.8481,542.3035,1071.4894,544.1159,1081.33,544.5199" style="stroke:#181818;stroke-width:1;"/>
    </g>
    <g id="link_C_0000255852889039832162_C_0003368630512743138441">
      <path d="M807.92,484.8699 C819.78,502.0499 833.8592,522.4336 845.7092,539.5836 " fill="transparent" id="C_0000255852889039832162-to-C_0003368630512743138441" style="stroke:#181818;stroke-width:1;"/>
      <polygon fill="#181818" points="849.12,544.5199,847.2947,534.8417,846.2777,540.4063,840.713,539.3894,849.12,544.5199" style="stroke:#181818;stroke-width:1;"/>
    </g>
    <g id="link_C_0003368630512743138441_C_0015818096269110849716">
      <path d="M892,544.4299 C916.05,529.0899 950.38,506.4399 979,484.6699 C1025.16,449.5599 1025.46,424.2299 1078,399.6699 C1097.59,390.5099 1106.68,401.3999 1126,391.6699 C1137.19,386.0299 1143.3928,381.0075 1151.1528,372.4375 " fill="transparent" id="C_0003368630512743138441-to-C_0015818096269110849716" style="stroke:#181818;stroke-width:1;"/>
      <polygon fill="#181818" points="1155.18,367.9899,1146.1741,371.9765,1151.824,371.6962,1152.1042,377.3462,1155.18,367.9899" style="stroke:#181818;stroke-width:1;"/>
    </g>
    <g id="link_C_0011896277980381595836_C_0000255852889039832162">
      <path d="M776.58,367.8999 C780.67,389.2899 786.2031,418.1667 790.2931,439.5567 " fill="transparent" id="C_0011896277980381595836-to-C_0000255852889039832162" style="stroke:#181818;stroke-width:1;"/>
      <polygon fill="#181818" points="791.42,445.4499,793.6585,435.8588,790.481,440.5389,785.8009,437.3613,791.42,445.4499" style="stroke:#181818;stroke-width:1;"/>
    </g>
    <g id="link_C_0015818096269110849716_C_0000181420260258778140">
      <path d="M1164.62,367.8999 C1158.49,389.2899 1150.1654,418.2928 1144.0254,439.6828 " fill="transparent" id="C_0015818096269110849716-to-C_0000181420260258778140" style="stroke:#181818;stroke-width:1;"/>
      <polygon fill="#181818" points="1142.37,445.4499,1148.6979,437.9029,1143.7495,440.644,1141.0084,435.6956,1142.37,445.4499" style="stroke:#181818;stroke-width:1;"/>
    </g>
    <g id="link_C_0000181420260258778140_C_0001506908138452400189">
      <path d="M1133.53,484.8699 C1130.34,502.0499 1126.7339,521.4705 1123.5539,538.6205 " fill="transparent" id="C_0000181420260258778140-to-C_0001506908138452400189" style="stroke:#181818;stroke-width:1;"/>
      <polygon fill="#181818" points="1122.46,544.5199,1128.0338,536.4,1123.3716,539.6037,1120.1679,534.9415,1122.46,544.5199" style="stroke:#181818;stroke-width:1;"/>
    </g>
    <g id="link_C_0008683420888540374207_C_0009388434743451459542">
      <path d="M1048.55,367.8599 C1035.37,377.2699 1019.24,388.9399 1005,399.6699 C984.89,414.8199 967.1389,428.7863 950.8189,441.8163 " fill="transparent" id="C_0008683420888540374207-to-C_0009388434743451459542" style="stroke:#181818;stroke-width:1;"/>
      <polygon fill="#181818" points="946.13,445.5599,955.659,443.0704,950.0374,442.4402,950.6675,436.8186,946.13,445.5599" style="stroke:#181818;stroke-width:1;"/>
    </g>
  </g>
</svg>
