<svg xmlns="http://www.w3.org/2000/svg" xmlns:xlink="http://www.w3.org/1999/xlink" contentStyleType="text/css" height="753px" preserveAspectRatio="none" style="width:1079px;height:753px;background:#FFFFFF;" version="1.1" viewBox="0 0 1079 753" width="1079px" zoomAndPan="magnify">
  <title>Include graph</title>
  <defs>
    <style type="text/css">a:hover { text-decoration: underline; }</style>
  </defs>
  <g>
    <text fill="#000000" font-family="sans-serif" font-size="14" font-weight="bold" lengthAdjust="spacing" textLength="108.9922" x="478.0039" y="22.9951">Include graph</text>
    <g id="cluster_C_0011100957978370531577">
      <path d="M8.5,43.2969 L33.0361,43.2969 A3.75,3.75 0 0 1 35.5361,45.7969 L42.5361,65.5938 L1069.5,65.5938 A2.5,2.5 0 0 1 1072,68.0938 L1072,743.7969 A2.5,2.5 0 0 1 1069.5,746.2969 L8.5,746.2969 A2.5,2.5 0 0 1 6,743.7969 L6,45.7969 A2.5,2.5 0 0 1 8.5,43.2969 " fill="none" style="stroke:#000000;stroke-width:1.5;"/>
      <line style="stroke:#000000;stroke-width:1.5;" x1="6" x2="42.5361" y1="65.5938" y2="65.5938"/>
      <text fill="#000000" font-family="sans-serif" font-size="14" font-weight="bold" lengthAdjust="spacing" textLength="23.5361" x="10" y="58.292">src</text>
    </g>
    <g id="cluster_C_0006410245235976671199">
      <path d="M367.5,86.2969 L417.2949,86.2969 A3.75,3.75 0 0 1 419.7949,88.7969 L426.7949,108.5938 L1045.5,108.5938 A2.5,2.5 0 0 1 1048,111.0938 L1048,377.7969 A2.5,2.5 0 0 1 1045.5,380.2969 L367.5,380.2969 A2.5,2.5 0 0 1 365,377.7969 L365,88.7969 A2.5,2.5 0 0 1 367.5,86.2969 " fill="none" style="stroke:#000000;stroke-width:1.5;"/>
      <line style="stroke:#000000;stroke-width:1.5;" x1="365" x2="426.7949" y1="108.5938" y2="108.5938"/>
      <text fill="#000000" font-family="sans-serif" font-size="14" font-weight="bold" lengthAdjust="spacing" textLength="48.7949" x="369" y="101.292">config</text>
    </g>
    <g id="cluster_C_0000104943970053505636">
      <path d="M32.5,293.2969 L100.1777,293.2969 A3.75,3.75 0 0 1 102.6777,295.7969 L109.6777,315.5938 L338.5,315.5938 A2.5,2.5 0 0 1 341,318.0938 L341,608.7969 A2.5,2.5 0 0 1 338.5,611.2969 L32.5,611.2969 A2.5,2.5 0 0 1 30,608.7969 L30,295.7969 A2.5,2.5 0 0 1 32.5,293.2969 " fill="none" style="stroke:#000000;stroke-width:1.5;"/>
      <line style="stroke:#000000;stroke-width:1.5;" x1="30" x2="109.6777" y1="315.5938" y2="315.5938"/>
      <text fill="#000000" font-family="sans-serif" font-size="14" font-weight="bold" lengthAdjust="spacing" textLength="66.6777" x="34" y="308.292">common</text>
    </g>
    <g id="cluster_C_0015093366486862577796">
      <path d="M56.5,404.2969 L106.0215,404.2969 A3.75,3.75 0 0 1 108.5215,406.7969 L115.5215,426.5938 L314.5,426.5938 A2.5,2.5 0 0 1 317,429.0938 L317,584.7969 A2.5,2.5 0 0 1 314.5,587.2969 L56.5,587.2969 A2.5,2.5 0 0 1 54,584.7969 L54,406.7969 A2.5,2.5 0 0 1 56.5,404.2969 " fill="none" style="stroke:#000000;stroke-width:1.5;"/>
      <line style="stroke:#000000;stroke-width:1.5;" x1="54" x2="115.5215" y1="426.5938" y2="426.5938"/>
      <text fill="#000000" font-family="sans-serif" font-size="14" font-weight="bold" lengthAdjust="spacing" textLength="48.5215" x="58" y="419.292">model</text>
    </g>
    <g id="cluster_C_0014145132412893887777">
      <path d="M362.5,635.2969 L389.7568,635.2969 A3.75,3.75 0 0 1 392.2568,637.7969 L399.2568,657.5938 L445.5,657.5938 A2.5,2.5 0 0 1 448,660.0938 L448,719.7969 A2.5,2.5 0 0 1 445.5,722.2969 L362.5,722.2969 A2.5,2.5 0 0 1 360,719.7969 L360,637.7969 A2.5,2.5 0 0 1 362.5,635.2969 " fill="none" style="stroke:#000000;stroke-width:1.5;"/>
      <line style="stroke:#000000;stroke-width:1.5;" x1="360" x2="399.2568" y1="657.5938" y2="657.5938"/>
      <text fill="#000000" font-family="sans-serif" font-size="14" font-weight="bold" lengthAdjust="spacing" textLength="26.2568" x="364" y="650.292">util</text>
    </g>
    <g id="cluster_C_0008013333815789696034">
      <path d="M201.5,182.2969 L220.3965,182.2969 A3.75,3.75 0 0 1 222.8965,184.7969 L229.8965,204.5938 L338.5,204.5938 A2.5,2.5 0 0 1 341,207.0938 L341,266.7969 A2.5,2.5 0 0 1 338.5,269.2969 L201.5,269.2969 A2.5,2.5 0 0 1 199,266.7969 L199,184.7969 A2.5,2.5 0 0 1 201.5,182.2969 " fill="none" style="stroke:#000000;stroke-width:1.5;"/>
      <line style="stroke:#000000;stroke-width:1.5;" x1="199" x2="229.8965" y1="204.5938" y2="204.5938"/>
      <text fill="#000000" font-family="sans-serif" font-size="14" font-weight="bold" lengthAdjust="spacing" textLength="17.8965" x="203" y="197.292">cli</text>
    </g>
    <g id="elem_C_0015079445126862667482">
      <a href="" target="_top" title="config.cc" xlink:actuate="onRequest" xlink:href="" xlink:show="new" xlink:title="config.cc" xlink:type="simple">
        <path d="M737.5,123.7969 L737.5,155.0938 A2.5,2.5 0 0 0 740,157.5938 L817.6855,157.5938 A2.5,2.5 0 0 0 820.1855,155.0938 L820.1855,131.2969 L810.1855,121.2969 L740,121.2969 A2.5,2.5 0 0 0 737.5,123.7969 " fill="#F1F1F1" style="stroke:#181818;stroke-width:0.5;"/>
        <path d="M810.1855,121.2969 L810.1855,128.7969 A2.5,2.5 0 0 0 812.6855,131.2969 L820.1855,131.2969 " fill="#F1F1F1" style="stroke:#181818;stroke-width:0.5;"/>
        <text fill="#000000" font-family="sans-serif" font-size="14" lengthAdjust="spacing" textLength="62.6855" x="747.5" y="144.292">config.cc</text>
      </a>
    </g>
    <g id="elem_C_0012140013982476589918">
      <a href="" target="_top" title="config.h" xlink:actuate="onRequest" xlink:href="" xlink:show="new" xlink:title="config.h" xlink:type="simple">
        <path d="M504,219.7969 L504,251.0938 A2.5,2.5 0 0 0 506.5,253.5938 L577.6641,253.5938 A2.5,2.5 0 0 0 580.1641,251.0938 L580.1641,227.2969 L570.1641,217.2969 L506.5,217.2969 A2.5,2.5 0 0 0 504,219.7969 " fill="#F1F1F1" style="stroke:#181818;stroke-width:0.5;"/>
        <path d="M570.1641,217.2969 L570.1641,224.7969 A2.5,2.5 0 0 0 572.6641,227.2969 L580.1641,227.2969 " fill="#F1F1F1" style="stroke:#181818;stroke-width:0.5;"/>
        <text fill="#000000" font-family="sans-serif" font-size="14" lengthAdjust="spacing" textLength="56.1641" x="514" y="240.292">config.h</text>
      </a>
    </g>
    <g id="elem_C_0002545126248170020497">
      <a href="" target="_top" title="option.h" xlink:actuate="onRequest" xlink:href="" xlink:show="new" xlink:title="option.h" xlink:type="simple">
        <path d="M428,330.7969 L428,362.0938 A2.5,2.5 0 0 0 430.5,364.5938 L503.0928,364.5938 A2.5,2.5 0 0 0 505.5928,362.0938 L505.5928,338.2969 L495.5928,328.2969 L430.5,328.2969 A2.5,2.5 0 0 0 428,330.7969 " fill="#F1F1F1" style="stroke:#181818;stroke-width:0.5;"/>
        <path d="M495.5928,328.2969 L495.5928,335.7969 A2.5,2.5 0 0 0 498.0928,338.2969 L505.5928,338.2969 " fill="#F1F1F1" style="stroke:#181818;stroke-width:0.5;"/>
        <text fill="#000000" font-family="sans-serif" font-size="14" lengthAdjust="spacing" textLength="57.5928" x="438" y="351.292">option.h</text>
      </a>
    </g>
    <g id="elem_C_0009474769160410159032">
      <a href="" target="_top" title="diagram_templates.h" xlink:actuate="onRequest" xlink:href="" xlink:show="new" xlink:title="diagram_templates.h" xlink:type="simple">
        <path d="M694.5,219.7969 L694.5,251.0938 A2.5,2.5 0 0 0 697,253.5938 L861.0303,253.5938 A2.5,2.5 0 0 0 863.5303,251.0938 L863.5303,227.2969 L853.5303,217.2969 L697,217.2969 A2.5,2.5 0 0 0 694.5,219.7969 " fill="#F1F1F1" style="stroke:#181818;stroke-width:0.5;"/>
        <path d="M853.5303,217.2969 L853.5303,224.7969 A2.5,2.5 0 0 0 856.0303,227.2969 L863.5303,227.2969 " fill="#F1F1F1" style="stroke:#181818;stroke-width:0.5;"/>
        <text fill="#000000" font-family="sans-serif" font-size="14" lengthAdjust="spacing" textLength="149.0303" x="704.5" y="240.292">diagram_templates.h</text>
      </a>
    </g>
    <g id="elem_C_0000850977248882698993">
      <a href="" target="_top" title="yaml_decoders.cc" xlink:actuate="onRequest" xlink:href="" xlink:show="new" xlink:title="yaml_decoders.cc" xlink:type="simple">
        <path d="M381,123.7969 L381,155.0938 A2.5,2.5 0 0 0 383.5,157.5938 L524.0488,157.5938 A2.5,2.5 0 0 0 526.5488,155.0938 L526.5488,131.2969 L516.5488,121.2969 L383.5,121.2969 A2.5,2.5 0 0 0 381,123.7969 " fill="#F1F1F1" style="stroke:#181818;stroke-width:0.5;"/>
        <path d="M516.5488,121.2969 L516.5488,128.7969 A2.5,2.5 0 0 0 519.0488,131.2969 L526.5488,131.2969 " fill="#F1F1F1" style="stroke:#181818;stroke-width:0.5;"/>
        <text fill="#000000" font-family="sans-serif" font-size="14" lengthAdjust="spacing" textLength="125.5488" x="391" y="144.292">yaml_decoders.cc</text>
      </a>
    </g>
    <g id="elem_C_0013560060108228197304">
      <a href="" target="_top" title="schema.h" xlink:actuate="onRequest" xlink:href="" xlink:show="new" xlink:title="schema.h" xlink:type="simple">
        <path d="M381,219.7969 L381,251.0938 A2.5,2.5 0 0 0 383.5,253.5938 L466.5176,253.5938 A2.5,2.5 0 0 0 469.0176,251.0938 L469.0176,227.2969 L459.0176,217.2969 L383.5,217.2969 A2.5,2.5 0 0 0 381,219.7969 " fill="#F1F1F1" style="stroke:#181818;stroke-width:0.5;"/>
        <path d="M459.0176,217.2969 L459.0176,224.7969 A2.5,2.5 0 0 0 461.5176,227.2969 L469.0176,227.2969 " fill="#F1F1F1" style="stroke:#181818;stroke-width:0.5;"/>
        <text fill="#000000" font-family="sans-serif" font-size="14" lengthAdjust="spacing" textLength="68.0176" x="391" y="240.292">schema.h</text>
      </a>
    </g>
    <g id="elem_C_0008629439082178352935">
      <a href="" target="_top" title="diagram_templates.cc" xlink:actuate="onRequest" xlink:href="" xlink:show="new" xlink:title="diagram_templates.cc" xlink:type="simple">
        <path d="M856,123.7969 L856,155.0938 A2.5,2.5 0 0 0 858.5,157.5938 L1029.0518,157.5938 A2.5,2.5 0 0 0 1031.5518,155.0938 L1031.5518,131.2969 L1021.5518,121.2969 L858.5,121.2969 A2.5,2.5 0 0 0 856,123.7969 " fill="#F1F1F1" style="stroke:#181818;stroke-width:0.5;"/>
        <path d="M1021.5518,121.2969 L1021.5518,128.7969 A2.5,2.5 0 0 0 1024.0518,131.2969 L1031.5518,131.2969 " fill="#F1F1F1" style="stroke:#181818;stroke-width:0.5;"/>
        <text fill="#000000" font-family="sans-serif" font-size="14" lengthAdjust="spacing" textLength="155.5518" x="866" y="144.292">diagram_templates.cc</text>
      </a>
    </g>
    <g id="elem_C_0010647698635028726129">
      <a href="" target="_top" title="yaml_emitters.cc" xlink:actuate="onRequest" xlink:href="" xlink:show="new" xlink:title="yaml_emitters.cc" xlink:type="simple">
        <path d="M562,123.7969 L562,155.0938 A2.5,2.5 0 0 0 564.5,157.5938 L699.5186,157.5938 A2.5,2.5 0 0 0 702.0186,155.0938 L702.0186,131.2969 L692.0186,121.2969 L564.5,121.2969 A2.5,2.5 0 0 0 562,123.7969 " fill="#F1F1F1" style="stroke:#181818;stroke-width:0.5;"/>
        <path d="M692.0186,121.2969 L692.0186,128.7969 A2.5,2.5 0 0 0 694.5186,131.2969 L702.0186,131.2969 " fill="#F1F1F1" style="stroke:#181818;stroke-width:0.5;"/>
        <text fill="#000000" font-family="sans-serif" font-size="14" lengthAdjust="spacing" textLength="120.0186" x="572" y="144.292">yaml_emitters.cc</text>
      </a>
    </g>
    <g id="elem_C_0011896277980381595836">
      <a href="" target="_top" title="types.h" xlink:actuate="onRequest" xlink:href="" xlink:show="new" xlink:title="types.h" xlink:type="simple">
        <path d="M253,330.7969 L253,362.0938 A2.5,2.5 0 0 0 255.5,364.5938 L322.3916,364.5938 A2.5,2.5 0 0 0 324.8916,362.0938 L324.8916,338.2969 L314.8916,328.2969 L255.5,328.2969 A2.5,2.5 0 0 0 253,330.7969 " fill="#F1F1F1" style="stroke:#181818;stroke-width:0.5;"/>
        <path d="M314.8916,328.2969 L314.8916,335.7969 A2.5,2.5 0 0 0 317.3916,338.2969 L324.8916,338.2969 " fill="#F1F1F1" style="stroke:#181818;stroke-width:0.5;"/>
        <text fill="#000000" font-family="sans-serif" font-size="14" lengthAdjust="spacing" textLength="51.8916" x="263" y="351.292">types.h</text>
      </a>
    </g>
    <g id="elem_C_0009388434743451459542">
      <a href="" target="_top" title="enums.h" xlink:actuate="onRequest" xlink:href="" xlink:show="new" xlink:title="enums.h" xlink:type="simple">
        <path d="M219.5,441.7969 L219.5,473.0938 A2.5,2.5 0 0 0 222,475.5938 L297.6143,475.5938 A2.5,2.5 0 0 0 300.1143,473.0938 L300.1143,449.2969 L290.1143,439.2969 L222,439.2969 A2.5,2.5 0 0 0 219.5,441.7969 " fill="#F1F1F1" style="stroke:#181818;stroke-width:0.5;"/>
        <path d="M290.1143,439.2969 L290.1143,446.7969 A2.5,2.5 0 0 0 292.6143,449.2969 L300.1143,449.2969 " fill="#F1F1F1" style="stroke:#181818;stroke-width:0.5;"/>
        <text fill="#000000" font-family="sans-serif" font-size="14" lengthAdjust="spacing" textLength="60.6143" x="229.5" y="462.292">enums.h</text>
      </a>
    </g>
    <g id="elem_C_0000255852889039832162">
      <a href="" target="_top" title="namespace.h" xlink:actuate="onRequest" xlink:href="" xlink:show="new" xlink:title="namespace.h" xlink:type="simple">
        <path d="M70,441.7969 L70,473.0938 A2.5,2.5 0 0 0 72.5,475.5938 L181.5967,475.5938 A2.5,2.5 0 0 0 184.0967,473.0938 L184.0967,449.2969 L174.0967,439.2969 L72.5,439.2969 A2.5,2.5 0 0 0 70,441.7969 " fill="#F1F1F1" style="stroke:#181818;stroke-width:0.5;"/>
        <path d="M174.0967,439.2969 L174.0967,446.7969 A2.5,2.5 0 0 0 176.5967,449.2969 L184.0967,449.2969 " fill="#F1F1F1" style="stroke:#181818;stroke-width:0.5;"/>
        <text fill="#000000" font-family="sans-serif" font-size="14" lengthAdjust="spacing" textLength="94.0967" x="80" y="462.292">namespace.h</text>
      </a>
    </g>
    <g id="elem_C_0003368630512743138441">
      <a href="" target="_top" title="path.h" xlink:actuate="onRequest" xlink:href="" xlink:show="new" xlink:title="path.h" xlink:type="simple">
        <path d="M164.5,537.7969 L164.5,569.0938 A2.5,2.5 0 0 0 167,571.5938 L227.1514,571.5938 A2.5,2.5 0 0 0 229.6514,569.0938 L229.6514,545.2969 L219.6514,535.2969 L167,535.2969 A2.5,2.5 0 0 0 164.5,537.7969 " fill="#F1F1F1" style="stroke:#181818;stroke-width:0.5;"/>
        <path d="M219.6514,535.2969 L219.6514,542.7969 A2.5,2.5 0 0 0 222.1514,545.2969 L229.6514,545.2969 " fill="#F1F1F1" style="stroke:#181818;stroke-width:0.5;"/>
        <text fill="#000000" font-family="sans-serif" font-size="14" lengthAdjust="spacing" textLength="45.1514" x="174.5" y="558.292">path.h</text>
      </a>
    </g>
    <g id="elem_C_0015818096269110849716">
      <a href="" target="_top" title="util.h" xlink:actuate="onRequest" xlink:href="" xlink:show="new" xlink:title="util.h" xlink:type="simple">
        <path d="M376.5,672.7969 L376.5,704.0938 A2.5,2.5 0 0 0 379,706.5938 L429.4648,706.5938 A2.5,2.5 0 0 0 431.9648,704.0938 L431.9648,680.2969 L421.9648,670.2969 L379,670.2969 A2.5,2.5 0 0 0 376.5,672.7969 " fill="#F1F1F1" style="stroke:#181818;stroke-width:0.5;"/>
        <path d="M421.9648,670.2969 L421.9648,677.7969 A2.5,2.5 0 0 0 424.4648,680.2969 L431.9648,680.2969 " fill="#F1F1F1" style="stroke:#181818;stroke-width:0.5;"/>
        <text fill="#000000" font-family="sans-serif" font-size="14" lengthAdjust="spacing" textLength="35.4648" x="386.5" y="693.292">util.h</text>
      </a>
    </g>
    <g id="elem_C_0012700602812252844564">
      <a href="" target="_top" title="cli_handler.h" xlink:actuate="onRequest" xlink:href="" xlink:show="new" xlink:title="cli_handler.h" xlink:type="simple">
        <path d="M215.5,219.7969 L215.5,251.0938 A2.5,2.5 0 0 0 218,253.5938 L322.2705,253.5938 A2.5,2.5 0 0 0 324.7705,251.0938 L324.7705,227.2969 L314.7705,217.2969 L218,217.2969 A2.5,2.5 0 0 0 215.5,219.7969 " fill="#F1F1F1" style="stroke:#181818;stroke-width:0.5;"/>
        <path d="M314.7705,217.2969 L314.7705,224.7969 A2.5,2.5 0 0 0 317.2705,227.2969 L324.7705,227.2969 " fill="#F1F1F1" style="stroke:#181818;stroke-width:0.5;"/>
        <text fill="#000000" font-family="sans-serif" font-size="14" lengthAdjust="spacing" textLength="89.2705" x="225.5" y="240.292">cli_handler.h</text>
      </a>
    </g>
    <g id="link_C_0015079445126862667482_C_0012140013982476589918">
      <path d="M737.48,153.1269 C718.84,159.1469 696.67,166.6669 677,174.2969 C642.92,187.5169 610.3991,202.0739 583.4291,214.6339 " fill="none" id="C_0015079445126862667482-to-C_0012140013982476589918" style="stroke:#181818;stroke-width:1.0;"/>
      <polygon fill="#181818" points="577.99,217.1669,587.8373,216.9934,582.5226,215.056,584.46,209.7413,577.99,217.1669" style="stroke:#181818;stroke-width:1.0;"/>
    </g>
    <g id="link_C_0015079445126862667482_C_0009474769160410159032">
      <path d="M779,157.5369 C779,174.4969 779,194.2469 779,211.1669 " fill="none" id="C_0015079445126862667482-to-C_0009474769160410159032" style="stroke:#181818;stroke-width:1.0;"/>
      <polygon fill="#181818" points="779,217.1669,783,208.1669,779,212.1669,775,208.1669,779,217.1669" style="stroke:#181818;stroke-width:1.0;"/>
    </g>
    <g id="link_C_0012140013982476589918_C_0009388434743451459542">
      <path d="M524.18,253.4669 C514.09,262.1269 500.75,271.9169 487,277.2969 C455.37,289.6669 440.14,267.8569 411,285.2969 C363.51,313.7269 378.1,347.2269 341,388.2969 C323.65,407.5069 305.6187,422.5586 288.6287,435.4586 " fill="none" id="C_0012140013982476589918-to-C_0009388434743451459542" style="stroke:#181818;stroke-width:1.0;"/>
      <polygon fill="#181818" points="283.85,439.0869,293.4368,436.8302,287.8322,436.0633,288.5991,430.4587,283.85,439.0869" style="stroke:#181818;stroke-width:1.0;"/>
    </g>
    <g id="link_C_0012140013982476589918_C_0011896277980381595836">
      <path d="M524.26,253.6869 C514.19,262.4169 500.86,272.1869 487,277.2969 C436.01,296.0869 415.72,265.8069 365,285.2969 C341.15,294.4669 323.0607,309.6423 308.8607,323.9223 " fill="none" id="C_0012140013982476589918-to-C_0011896277980381595836" style="stroke:#181818;stroke-width:1.0;"/>
      <polygon fill="#181818" points="304.63,328.1769,313.8124,324.6155,308.1556,324.6314,308.1397,318.9746,304.63,328.1769" style="stroke:#181818;stroke-width:1.0;"/>
    </g>
    <g id="link_C_0012140013982476589918_C_0002545126248170020497">
      <path d="M530.28,253.3269 C516.27,273.6869 496.3614,302.6242 482.2814,323.0842 " fill="none" id="C_0012140013982476589918-to-C_0002545126248170020497" style="stroke:#181818;stroke-width:1.0;"/>
      <polygon fill="#181818" points="478.88,328.0269,487.2773,322.8804,481.7145,323.908,480.687,318.3452,478.88,328.0269" style="stroke:#181818;stroke-width:1.0;"/>
    </g>
    <g id="link_C_0012140013982476589918_C_0015818096269110849716">
      <path d="M541.44,253.4369 C540.18,281.8669 536.22,340.4069 524,388.2969 C495.59,499.6769 438.1499,619.5436 415.5399,664.6236 " fill="none" id="C_0012140013982476589918-to-C_0015818096269110849716" style="stroke:#181818;stroke-width:1.0;"/>
      <polygon fill="#181818" points="412.85,669.9869,420.4604,663.7353,415.0916,665.5175,413.3094,660.1487,412.85,669.9869" style="stroke:#181818;stroke-width:1.0;"/>
    </g>
    <g id="link_C_0000850977248882698993_C_0012700602812252844564">
      <path d="M403.82,157.4769 C390.95,162.4169 377.28,168.1469 365,174.2969 C339.88,186.8669 317.9109,200.8974 299.1709,213.7274 " fill="none" id="C_0000850977248882698993-to-C_0012700602812252844564" style="stroke:#181818;stroke-width:1.0;"/>
      <polygon fill="#181818" points="294.22,217.1169,303.906,215.3332,298.3457,214.2923,299.3866,208.732,294.22,217.1169" style="stroke:#181818;stroke-width:1.0;"/>
    </g>
    <g id="link_C_0000850977248882698993_C_0012140013982476589918">
      <path d="M470.88,157.4969 C476.08,162.8569 481.81,168.7869 487,174.2969 C500.48,188.5869 511.4967,200.6047 522.4467,212.6647 " fill="none" id="C_0000850977248882698993-to-C_0012140013982476589918" style="stroke:#181818;stroke-width:1.0;"/>
      <polygon fill="#181818" points="526.48,217.1069,523.3915,207.7548,523.1189,213.4051,517.4686,213.1325,526.48,217.1069" style="stroke:#181818;stroke-width:1.0;"/>
    </g>
    <g id="link_C_0000850977248882698993_C_0009474769160410159032">
      <path d="M527.21,156.2669 C550,161.5869 575.14,167.8269 598,174.2969 C643.71,187.2369 689.3863,202.5464 725.6763,215.2364 " fill="none" id="C_0000850977248882698993-to-C_0009474769160410159032" style="stroke:#181818;stroke-width:1.0;"/>
      <polygon fill="#181818" points="731.34,217.2169,724.1648,210.4703,726.6202,215.5665,721.5241,218.0219,731.34,217.2169" style="stroke:#181818;stroke-width:1.0;"/>
    </g>
    <g id="link_C_0000850977248882698993_C_0013560060108228197304">
      <path d="M448.68,157.5369 C443.45,174.4969 437.2788,194.5135 432.0588,211.4335 " fill="none" id="C_0000850977248882698993-to-C_0013560060108228197304" style="stroke:#181818;stroke-width:1.0;"/>
      <polygon fill="#181818" points="430.29,217.1669,436.7654,209.746,431.764,212.3891,429.121,207.3876,430.29,217.1669" style="stroke:#181818;stroke-width:1.0;"/>
    </g>
    <g id="link_C_0008629439082178352935_C_0009474769160410159032">
      <path d="M914.12,157.3169 C884.31,174.3069 843.9829,197.2761 814.1529,214.2761 " fill="none" id="C_0008629439082178352935-to-C_0009474769160410159032" style="stroke:#181818;stroke-width:1.0;"/>
      <polygon fill="#181818" points="808.94,217.2469,818.7399,216.2659,813.2841,214.7712,814.7788,209.3154,808.94,217.2469" style="stroke:#181818;stroke-width:1.0;"/>
    </g>
    <g id="link_C_0010647698635028726129_C_0012140013982476589918">
      <path d="M615.49,157.5369 C599.25,174.4969 578.7608,195.9143 562.5508,212.8343 " fill="none" id="C_0010647698635028726129-to-C_0012140013982476589918" style="stroke:#181818;stroke-width:1.0;"/>
      <polygon fill="#181818" points="558.4,217.1669,567.5145,213.4352,561.859,213.5564,561.7378,207.9008,558.4,217.1669" style="stroke:#181818;stroke-width:1.0;"/>
    </g>
    <g id="link_C_0000255852889039832162_C_0003368630512743138441">
      <path d="M139.84,475.5369 C152.47,492.4969 168.0564,513.4346 180.6564,530.3546 " fill="none" id="C_0000255852889039832162-to-C_0003368630512743138441" style="stroke:#181818;stroke-width:1.0;"/>
      <polygon fill="#181818" points="184.24,535.1669,182.0728,525.5594,181.2537,531.1567,175.6564,530.3376,184.24,535.1669" style="stroke:#181818;stroke-width:1.0;"/>
    </g>
    <g id="link_C_0003368630512743138441_C_0015818096269110849716">
      <path d="M223.64,571.4169 C263.38,596.9469 332.7324,641.5031 372.4124,667.0031 " fill="none" id="C_0003368630512743138441-to-C_0015818096269110849716" style="stroke:#181818;stroke-width:1.0;"/>
      <polygon fill="#181818" points="377.46,670.2469,372.0512,662.0162,373.2537,667.5437,367.7261,668.7463,377.46,670.2469" style="stroke:#181818;stroke-width:1.0;"/>
    </g>
    <g id="link_C_0011896277980381595836_C_0000255852889039832162">
      <path d="M255.61,364.4569 C239.1,373.3569 219.1,384.7569 202,396.2969 C182.38,409.5469 166.0243,422.6741 151.2743,435.1941 " fill="none" id="C_0011896277980381595836-to-C_0000255852889039832162" style="stroke:#181818;stroke-width:1.0;"/>
      <polygon fill="#181818" points="146.7,439.0769,156.15,436.3023,150.5119,435.8413,150.973,430.2032,146.7,439.0769" style="stroke:#181818;stroke-width:1.0;"/>
    </g>
    <g id="link_C_0012700602812252844564_C_0009388434743451459542">
      <path d="M246.56,253.4169 C237.03,261.8269 227.09,272.8369 222,285.2969 C204.7,327.6769 210.46,343.9969 222,388.2969 C226.87,407.0069 234.7687,421.0872 243.7787,434.2372 " fill="none" id="C_0012700602812252844564-to-C_0009388434743451459542" style="stroke:#181818;stroke-width:1.0;"/>
      <polygon fill="#181818" points="247.17,439.1869,245.3827,429.5015,244.3439,435.0622,238.7832,434.0233,247.17,439.1869" style="stroke:#181818;stroke-width:1.0;"/>
    </g>
    <g id="link_C_0012700602812252844564_C_0012140013982476589918">
      <path d="M290.1,217.1069 C311.27,199.4369 346.48,174.0869 382.5,165.7969 C420.18,157.1269 431.82,157.1269 469.5,165.7969 C477.93,167.7369 480.09,169.0969 487,174.2969 C503.3,186.5469 514.8524,199.4216 525.1424,212.5716 " fill="none" id="C_0012700602812252844564-to-C_0012140013982476589918" style="stroke:#181818;stroke-width:1.0;"/>
      <polygon fill="#181818" points="528.84,217.2969,526.4438,207.7439,525.7587,213.3592,520.1435,212.674,528.84,217.2969" style="stroke:#181818;stroke-width:1.0;"/>
    </g>
  </g>
</svg>
