<svg xmlns="http://www.w3.org/2000/svg" xmlns:xlink="http://www.w3.org/1999/xlink" contentStyleType="text/css" height="888px" preserveAspectRatio="none" style="width:1033px;height:888px;background:#FFFFFF;" version="1.1" viewBox="0 0 1033 888" width="1033px" zoomAndPan="magnify">
  <title>Include graph</title>
  <defs>
    <style type="text/css">a:hover { text-decoration: underline; }</style>
  </defs>
  <g>
    <text fill="#000000" font-family="sans-serif" font-size="14" font-weight="bold" lengthAdjust="spacing" textLength="97.8176" x="460.5912" y="24.9659">Include graph</text>
    <g id="cluster_C_0011100957978370531577">
      <path d="M8.5,46.6699 L30.0099,46.6699 A3.75,3.75 0 0 1 32.5099,49.1699 L39.5099,71.7378 L1023.5,71.7378 A2.5,2.5 0 0 1 1026,74.2378 L1026,879.1699 A2.5,2.5 0 0 1 1023.5,881.6699 L8.5,881.6699 A2.5,2.5 0 0 1 6,879.1699 L6,49.1699 A2.5,2.5 0 0 1 8.5,46.6699 " fill="none" style="stroke:#000000;stroke-width:1.5;"/>
      <line style="stroke:#000000;stroke-width:1.5;" x1="6" x2="39.5099" y1="71.7378" y2="71.7378"/>
      <text fill="#000000" font-family="sans-serif" font-size="14" font-weight="bold" lengthAdjust="spacing" textLength="20.5099" x="10" y="63.6358">src</text>
    </g>
    <g id="cluster_C_0006410245235976671199">
      <path d="M357.5,92.6699 L402.1098,92.6699 A3.75,3.75 0 0 1 404.6098,95.1699 L411.6098,117.7378 L999.5,117.7378 A2.5,2.5 0 0 1 1002,120.2378 L1002,399.1699 A2.5,2.5 0 0 1 999.5,401.6699 L357.5,401.6699 A2.5,2.5 0 0 1 355,399.1699 L355,95.1699 A2.5,2.5 0 0 1 357.5,92.6699 " fill="none" style="stroke:#000000;stroke-width:1.5;"/>
      <line style="stroke:#000000;stroke-width:1.5;" x1="355" x2="411.6098" y1="117.7378" y2="117.7378"/>
      <text fill="#000000" font-family="sans-serif" font-size="14" font-weight="bold" lengthAdjust="spacing" textLength="43.6098" x="359" y="109.6358">config</text>
    </g>
    <g id="cluster_C_0000104943970053505636">
      <path d="M32.5,308.6699 L94.7218,308.6699 A3.75,3.75 0 0 1 97.2218,311.1699 L104.2218,333.7378 L328.5,333.7378 A2.5,2.5 0 0 1 331,336.2378 L331,639.1699 A2.5,2.5 0 0 1 328.5,641.6699 L32.5,641.6699 A2.5,2.5 0 0 1 30,639.1699 L30,311.1699 A2.5,2.5 0 0 1 32.5,308.6699 " fill="none" style="stroke:#000000;stroke-width:1.5;"/>
      <line style="stroke:#000000;stroke-width:1.5;" x1="30" x2="104.2218" y1="333.7378" y2="333.7378"/>
      <text fill="#000000" font-family="sans-serif" font-size="14" font-weight="bold" lengthAdjust="spacing" textLength="61.2218" x="34" y="325.6358">common</text>
    </g>
    <g id="cluster_C_0015093366486862577796">
      <path d="M56.5,425.6699 L101.3198,425.6699 A3.75,3.75 0 0 1 103.8198,428.1699 L110.8198,450.7378 L304.5,450.7378 A2.5,2.5 0 0 1 307,453.2378 L307,615.1699 A2.5,2.5 0 0 1 304.5,617.6699 L56.5,617.6699 A2.5,2.5 0 0 1 54,615.1699 L54,428.1699 A2.5,2.5 0 0 1 56.5,425.6699 " fill="none" style="stroke:#000000;stroke-width:1.5;"/>
      <line style="stroke:#000000;stroke-width:1.5;" x1="54" x2="110.8198" y1="450.7378" y2="450.7378"/>
      <text fill="#000000" font-family="sans-serif" font-size="14" font-weight="bold" lengthAdjust="spacing" textLength="43.8198" x="58" y="442.6358">model</text>
    </g>
    <g id="cluster_C_0014145132412893887777">
      <path d="M138.5,665.6699 L163.3139,665.6699 A3.75,3.75 0 0 1 165.8139,668.1699 L172.8139,690.7378 L297.5,690.7378 A2.5,2.5 0 0 1 300,693.2378 L300,855.1699 A2.5,2.5 0 0 1 297.5,857.6699 L138.5,857.6699 A2.5,2.5 0 0 1 136,855.1699 L136,668.1699 A2.5,2.5 0 0 1 138.5,665.6699 " fill="none" style="stroke:#000000;stroke-width:1.5;"/>
      <line style="stroke:#000000;stroke-width:1.5;" x1="136" x2="172.8139" y1="690.7378" y2="690.7378"/>
      <text fill="#000000" font-family="sans-serif" font-size="14" font-weight="bold" lengthAdjust="spacing" textLength="23.8139" x="140" y="682.6358">util</text>
    </g>
    <g id="cluster_C_0008013333815789696034">
      <path d="M197.5,191.6699 L214.2359,191.6699 A3.75,3.75 0 0 1 216.7359,194.1699 L223.7359,216.7378 L328.5,216.7378 A2.5,2.5 0 0 1 331,219.2378 L331,282.1699 A2.5,2.5 0 0 1 328.5,284.6699 L197.5,284.6699 A2.5,2.5 0 0 1 195,282.1699 L195,194.1699 A2.5,2.5 0 0 1 197.5,191.6699 " fill="none" style="stroke:#000000;stroke-width:1.5;"/>
      <line style="stroke:#000000;stroke-width:1.5;" x1="195" x2="223.7359" y1="216.7378" y2="216.7378"/>
      <text fill="#000000" font-family="sans-serif" font-size="14" font-weight="bold" lengthAdjust="spacing" textLength="15.7359" x="199" y="208.6358">cli</text>
    </g>
    <g id="elem_C_0015079445126862667482">
      <a href="" target="_top" title="config.cc" xlink:actuate="onRequest" xlink:href="" xlink:show="new" xlink:title="config.cc" xlink:type="simple">
        <path d="M707,133.1699 L707,167.2378 A2.5,2.5 0 0 0 709.5,169.7378 L782.5718,169.7378 A2.5,2.5 0 0 0 785.0718,167.2378 L785.0718,140.6699 L775.0718,130.6699 L709.5,130.6699 A2.5,2.5 0 0 0 707,133.1699 " fill="#F1F1F1" style="stroke:#181818;stroke-width:0.5;"/>
        <path d="M775.0718,130.6699 L775.0718,138.1699 A2.5,2.5 0 0 0 777.5718,140.6699 L785.0718,140.6699 " fill="#F1F1F1" style="stroke:#181818;stroke-width:0.5;"/>
        <text fill="#000000" font-family="sans-serif" font-size="14" lengthAdjust="spacing" textLength="58.0718" x="717" y="155.6358">config.cc</text>
      </a>
    </g>
    <g id="elem_C_0012140013982476589918">
      <a href="" target="_top" title="config.h" xlink:actuate="onRequest" xlink:href="" xlink:show="new" xlink:title="config.h" xlink:type="simple">
        <path d="M489.5,232.1699 L489.5,266.2378 A2.5,2.5 0 0 0 492,268.7378 L560.2838,268.7378 A2.5,2.5 0 0 0 562.7838,266.2378 L562.7838,239.6699 L552.7838,229.6699 L492,229.6699 A2.5,2.5 0 0 0 489.5,232.1699 " fill="#F1F1F1" style="stroke:#181818;stroke-width:0.5;"/>
        <path d="M552.7838,229.6699 L552.7838,237.1699 A2.5,2.5 0 0 0 555.2838,239.6699 L562.7838,239.6699 " fill="#F1F1F1" style="stroke:#181818;stroke-width:0.5;"/>
        <text fill="#000000" font-family="sans-serif" font-size="14" lengthAdjust="spacing" textLength="53.2838" x="499.5" y="254.6358">config.h</text>
      </a>
    </g>
    <g id="elem_C_0002545126248170020497">
      <a href="" target="_top" title="option.h" xlink:actuate="onRequest" xlink:href="" xlink:show="new" xlink:title="option.h" xlink:type="simple">
        <path d="M414.5,349.1699 L414.5,383.2378 A2.5,2.5 0 0 0 417,385.7378 L487.2718,385.7378 A2.5,2.5 0 0 0 489.7718,383.2378 L489.7718,356.6699 L479.7718,346.6699 L417,346.6699 A2.5,2.5 0 0 0 414.5,349.1699 " fill="#F1F1F1" style="stroke:#181818;stroke-width:0.5;"/>
        <path d="M479.7718,346.6699 L479.7718,354.1699 A2.5,2.5 0 0 0 482.2718,356.6699 L489.7718,356.6699 " fill="#F1F1F1" style="stroke:#181818;stroke-width:0.5;"/>
        <text fill="#000000" font-family="sans-serif" font-size="14" lengthAdjust="spacing" textLength="55.2718" x="424.5" y="371.6358">option.h</text>
      </a>
    </g>
    <g id="elem_C_0009474769160410159032">
      <a href="" target="_top" title="diagram_templates.h" xlink:actuate="onRequest" xlink:href="" xlink:show="new" xlink:title="diagram_templates.h" xlink:type="simple">
        <path d="M666,232.1699 L666,266.2378 A2.5,2.5 0 0 0 668.5,268.7378 L823.3035,268.7378 A2.5,2.5 0 0 0 825.8035,266.2378 L825.8035,239.6699 L815.8035,229.6699 L668.5,229.6699 A2.5,2.5 0 0 0 666,232.1699 " fill="#F1F1F1" style="stroke:#181818;stroke-width:0.5;"/>
        <path d="M815.8035,229.6699 L815.8035,237.1699 A2.5,2.5 0 0 0 818.3035,239.6699 L825.8035,239.6699 " fill="#F1F1F1" style="stroke:#181818;stroke-width:0.5;"/>
        <text fill="#000000" font-family="sans-serif" font-size="14" lengthAdjust="spacing" textLength="139.8035" x="676" y="254.6358">diagram_templates.h</text>
      </a>
    </g>
    <g id="elem_C_0000850977248882698993">
      <a href="" target="_top" title="yaml_decoders.cc" xlink:actuate="onRequest" xlink:href="" xlink:show="new" xlink:title="yaml_decoders.cc" xlink:type="simple">
        <path d="M371,133.1699 L371,167.2378 A2.5,2.5 0 0 0 373.5,169.7378 L504.2935,169.7378 A2.5,2.5 0 0 0 506.7935,167.2378 L506.7935,140.6699 L496.7935,130.6699 L373.5,130.6699 A2.5,2.5 0 0 0 371,133.1699 " fill="#F1F1F1" style="stroke:#181818;stroke-width:0.5;"/>
        <path d="M496.7935,130.6699 L496.7935,138.1699 A2.5,2.5 0 0 0 499.2935,140.6699 L506.7935,140.6699 " fill="#F1F1F1" style="stroke:#181818;stroke-width:0.5;"/>
        <text fill="#000000" font-family="sans-serif" font-size="14" lengthAdjust="spacing" textLength="115.7935" x="381" y="155.6358">yaml_decoders.cc</text>
      </a>
    </g>
    <g id="elem_C_0013560060108228197304">
      <a href="" target="_top" title="schema.h" xlink:actuate="onRequest" xlink:href="" xlink:show="new" xlink:title="schema.h" xlink:type="simple">
        <path d="M371.5,232.1699 L371.5,266.2378 A2.5,2.5 0 0 0 374,268.7378 L452.3217,268.7378 A2.5,2.5 0 0 0 454.8217,266.2378 L454.8217,239.6699 L444.8217,229.6699 L374,229.6699 A2.5,2.5 0 0 0 371.5,232.1699 " fill="#F1F1F1" style="stroke:#181818;stroke-width:0.5;"/>
        <path d="M444.8217,229.6699 L444.8217,237.1699 A2.5,2.5 0 0 0 447.3217,239.6699 L454.8217,239.6699 " fill="#F1F1F1" style="stroke:#181818;stroke-width:0.5;"/>
        <text fill="#000000" font-family="sans-serif" font-size="14" lengthAdjust="spacing" textLength="63.3217" x="381.5" y="254.6358">schema.h</text>
      </a>
    </g>
    <g id="elem_C_0008629439082178352935">
      <a href="" target="_top" title="diagram_templates.cc" xlink:actuate="onRequest" xlink:href="" xlink:show="new" xlink:title="diagram_templates.cc" xlink:type="simple">
        <path d="M820.5,133.1699 L820.5,167.2378 A2.5,2.5 0 0 0 823,169.7378 L982.5915,169.7378 A2.5,2.5 0 0 0 985.0915,167.2378 L985.0915,140.6699 L975.0915,130.6699 L823,130.6699 A2.5,2.5 0 0 0 820.5,133.1699 " fill="#F1F1F1" style="stroke:#181818;stroke-width:0.5;"/>
        <path d="M975.0915,130.6699 L975.0915,138.1699 A2.5,2.5 0 0 0 977.5915,140.6699 L985.0915,140.6699 " fill="#F1F1F1" style="stroke:#181818;stroke-width:0.5;"/>
        <text fill="#000000" font-family="sans-serif" font-size="14" lengthAdjust="spacing" textLength="144.5915" x="830.5" y="155.6358">diagram_templates.cc</text>
      </a>
    </g>
    <g id="elem_C_0010647698635028726129">
      <a href="" target="_top" title="yaml_emitters.cc" xlink:actuate="onRequest" xlink:href="" xlink:show="new" xlink:title="yaml_emitters.cc" xlink:type="simple">
        <path d="M542,133.1699 L542,167.2378 A2.5,2.5 0 0 0 544.5,169.7378 L669.6936,169.7378 A2.5,2.5 0 0 0 672.1936,167.2378 L672.1936,140.6699 L662.1936,130.6699 L544.5,130.6699 A2.5,2.5 0 0 0 542,133.1699 " fill="#F1F1F1" style="stroke:#181818;stroke-width:0.5;"/>
        <path d="M662.1936,130.6699 L662.1936,138.1699 A2.5,2.5 0 0 0 664.6936,140.6699 L672.1936,140.6699 " fill="#F1F1F1" style="stroke:#181818;stroke-width:0.5;"/>
        <text fill="#000000" font-family="sans-serif" font-size="14" lengthAdjust="spacing" textLength="110.1936" x="552" y="155.6358">yaml_emitters.cc</text>
      </a>
    </g>
    <g id="elem_C_0011896277980381595836">
      <a href="" target="_top" title="types.h" xlink:actuate="onRequest" xlink:href="" xlink:show="new" xlink:title="types.h" xlink:type="simple">
        <path d="M221,349.1699 L221,383.2378 A2.5,2.5 0 0 0 223.5,385.7378 L286.3098,385.7378 A2.5,2.5 0 0 0 288.8098,383.2378 L288.8098,356.6699 L278.8098,346.6699 L223.5,346.6699 A2.5,2.5 0 0 0 221,349.1699 " fill="#F1F1F1" style="stroke:#181818;stroke-width:0.5;"/>
        <path d="M278.8098,346.6699 L278.8098,354.1699 A2.5,2.5 0 0 0 281.3098,356.6699 L288.8098,356.6699 " fill="#F1F1F1" style="stroke:#181818;stroke-width:0.5;"/>
        <text fill="#000000" font-family="sans-serif" font-size="14" lengthAdjust="spacing" textLength="47.8098" x="231" y="371.6358">types.h</text>
      </a>
    </g>
    <g id="elem_C_0009388434743451459542">
      <a href="" target="_top" title="enums.h" xlink:actuate="onRequest" xlink:href="" xlink:show="new" xlink:title="enums.h" xlink:type="simple">
        <path d="M70.5,466.1699 L70.5,500.2378 A2.5,2.5 0 0 0 73,502.7378 L145.3998,502.7378 A2.5,2.5 0 0 0 147.8998,500.2378 L147.8998,473.6699 L137.8998,463.6699 L73,463.6699 A2.5,2.5 0 0 0 70.5,466.1699 " fill="#F1F1F1" style="stroke:#181818;stroke-width:0.5;"/>
        <path d="M137.8998,463.6699 L137.8998,471.1699 A2.5,2.5 0 0 0 140.3998,473.6699 L147.8998,473.6699 " fill="#F1F1F1" style="stroke:#181818;stroke-width:0.5;"/>
        <text fill="#000000" font-family="sans-serif" font-size="14" lengthAdjust="spacing" textLength="57.3998" x="80.5" y="488.6358">enums.h</text>
      </a>
    </g>
    <g id="elem_C_0000255852889039832162">
      <a href="" target="_top" title="namespace.h" xlink:actuate="onRequest" xlink:href="" xlink:show="new" xlink:title="namespace.h" xlink:type="simple">
        <path d="M183,466.1699 L183,500.2378 A2.5,2.5 0 0 0 185.5,502.7378 L288.1817,502.7378 A2.5,2.5 0 0 0 290.6817,500.2378 L290.6817,473.6699 L280.6817,463.6699 L185.5,463.6699 A2.5,2.5 0 0 0 183,466.1699 " fill="#F1F1F1" style="stroke:#181818;stroke-width:0.5;"/>
        <path d="M280.6817,463.6699 L280.6817,471.1699 A2.5,2.5 0 0 0 283.1817,473.6699 L290.6817,473.6699 " fill="#F1F1F1" style="stroke:#181818;stroke-width:0.5;"/>
        <text fill="#000000" font-family="sans-serif" font-size="14" lengthAdjust="spacing" textLength="87.6817" x="193" y="488.6358">namespace.h</text>
      </a>
    </g>
    <g id="elem_C_0003368630512743138441">
      <a href="" target="_top" title="path.h" xlink:actuate="onRequest" xlink:href="" xlink:show="new" xlink:title="path.h" xlink:type="simple">
        <path d="M205.5,565.1699 L205.5,599.2378 A2.5,2.5 0 0 0 208,601.7378 L265.5738,601.7378 A2.5,2.5 0 0 0 268.0738,599.2378 L268.0738,572.6699 L258.0738,562.6699 L208,562.6699 A2.5,2.5 0 0 0 205.5,565.1699 " fill="#F1F1F1" style="stroke:#181818;stroke-width:0.5;"/>
        <path d="M258.0738,562.6699 L258.0738,570.1699 A2.5,2.5 0 0 0 260.5738,572.6699 L268.0738,572.6699 " fill="#F1F1F1" style="stroke:#181818;stroke-width:0.5;"/>
        <text fill="#000000" font-family="sans-serif" font-size="14" lengthAdjust="spacing" textLength="42.5738" x="215.5" y="587.6358">path.h</text>
      </a>
    </g>
    <g id="elem_C_0001506908138452400189">
      <a href="" target="_top" title="fmt_formatters.h" xlink:actuate="onRequest" xlink:href="" xlink:show="new" xlink:title="fmt_formatters.h" xlink:type="simple">
        <path d="M152,805.1699 L152,839.2378 A2.5,2.5 0 0 0 154.5,841.7378 L281.5836,841.7378 A2.5,2.5 0 0 0 284.0836,839.2378 L284.0836,812.6699 L274.0836,802.6699 L154.5,802.6699 A2.5,2.5 0 0 0 152,805.1699 " fill="#F1F1F1" style="stroke:#181818;stroke-width:0.5;"/>
        <path d="M274.0836,802.6699 L274.0836,810.1699 A2.5,2.5 0 0 0 276.5836,812.6699 L284.0836,812.6699 " fill="#F1F1F1" style="stroke:#181818;stroke-width:0.5;"/>
        <text fill="#000000" font-family="sans-serif" font-size="14" lengthAdjust="spacing" textLength="112.0836" x="162" y="827.6358">fmt_formatters.h</text>
      </a>
    </g>
    <g id="elem_C_0015818096269110849716">
      <a href="" target="_top" title="util.h" xlink:actuate="onRequest" xlink:href="" xlink:show="new" xlink:title="util.h" xlink:type="simple">
        <path d="M210.5,706.1699 L210.5,740.2378 A2.5,2.5 0 0 0 213,742.7378 L261.3339,742.7378 A2.5,2.5 0 0 0 263.8339,740.2378 L263.8339,713.6699 L253.8339,703.6699 L213,703.6699 A2.5,2.5 0 0 0 210.5,706.1699 " fill="#F1F1F1" style="stroke:#181818;stroke-width:0.5;"/>
        <path d="M253.8339,703.6699 L253.8339,711.1699 A2.5,2.5 0 0 0 256.3339,713.6699 L263.8339,713.6699 " fill="#F1F1F1" style="stroke:#181818;stroke-width:0.5;"/>
        <text fill="#000000" font-family="sans-serif" font-size="14" lengthAdjust="spacing" textLength="33.3339" x="220.5" y="728.6358">util.h</text>
      </a>
    </g>
    <g id="elem_C_0012700602812252844564">
      <a href="" target="_top" title="cli_handler.h" xlink:actuate="onRequest" xlink:href="" xlink:show="new" xlink:title="cli_handler.h" xlink:type="simple">
        <path d="M211,232.1699 L211,266.2378 A2.5,2.5 0 0 0 213.5,268.7378 L312.1217,268.7378 A2.5,2.5 0 0 0 314.6217,266.2378 L314.6217,239.6699 L304.6217,229.6699 L213.5,229.6699 A2.5,2.5 0 0 0 211,232.1699 " fill="#F1F1F1" style="stroke:#181818;stroke-width:0.5;"/>
        <path d="M304.6217,229.6699 L304.6217,237.1699 A2.5,2.5 0 0 0 307.1217,239.6699 L314.6217,239.6699 " fill="#F1F1F1" style="stroke:#181818;stroke-width:0.5;"/>
        <text fill="#000000" font-family="sans-serif" font-size="14" lengthAdjust="spacing" textLength="83.6217" x="221" y="254.6358">cli_handler.h</text>
      </a>
    </g>
    <g id="link_C_0015079445126862667482_C_0012140013982476589918">
      <path d="M706.88,164.1199 C681.22,172.6399 651.89,182.4399 649,183.6699 C617.17,197.2399 587.6101,212.9296 563.1701,226.6696 " fill="none" id="C_0015079445126862667482-to-C_0012140013982476589918" style="stroke:#181818;stroke-width:1.0;"/>
      <polygon fill="#181818" points="557.94,229.6099,567.7454,228.6861,562.2984,227.1596,563.825,221.7126,557.94,229.6099" style="stroke:#181818;stroke-width:1.0;"/>
    </g>
    <g id="link_C_0015079445126862667482_C_0009474769160410159032">
      <path d="M746,169.8699 C746,187.0499 746,206.3699 746,223.5199 " fill="none" id="C_0015079445126862667482-to-C_0009474769160410159032" style="stroke:#181818;stroke-width:1.0;"/>
      <polygon fill="#181818" points="746,229.5199,750,220.5199,746,224.5199,742,220.5199,746,229.5199" style="stroke:#181818;stroke-width:1.0;"/>
    </g>
    <g id="link_C_0012140013982476589918_C_0009388434743451459542">
      <path d="M507.7,268.8399 C497.95,277.5999 485.26,287.2699 472,292.6699 C440.95,305.3099 425.29,282.6799 397,300.6699 C349.21,331.0499 379.65,380.6799 331,409.6699 C299.46,428.4599 199.09,401.7799 166,417.6699 C145.66,427.4399 132.721,443.0706 122.881,458.4006 " fill="none" id="C_0012140013982476589918-to-C_0009388434743451459542" style="stroke:#181818;stroke-width:1.0;"/>
      <polygon fill="#181818" points="119.64,463.4499,127.8678,458.0366,122.3409,459.2421,121.1354,453.7152,119.64,463.4499" style="stroke:#181818;stroke-width:1.0;"/>
    </g>
    <g id="link_C_0012140013982476589918_C_0011896277980381595836">
      <path d="M507.79,269.0699 C498.07,277.8799 485.37,287.5399 472,292.6699 C421.68,311.9799 402.01,283.2699 351,300.6699 C322.3,310.4599 298.6648,327.2934 280.3248,342.6134 " fill="none" id="C_0012140013982476589918-to-C_0011896277980381595836" style="stroke:#181818;stroke-width:1.0;"/>
      <polygon fill="#181818" points="275.72,346.4599,285.1916,343.76,279.5573,343.2545,280.0628,337.6202,275.72,346.4599" style="stroke:#181818;stroke-width:1.0;"/>
    </g>
    <g id="link_C_0012140013982476589918_C_0002545126248170020497">
      <path d="M513.95,268.8999 C500.19,290.2899 481.0561,320.0138 467.2961,341.4038 " fill="none" id="C_0012140013982476589918-to-C_0002545126248170020497" style="stroke:#181818;stroke-width:1.0;"/>
      <polygon fill="#181818" points="464.05,346.4499,472.2832,341.0449,466.7551,342.2448,465.5551,336.7167,464.05,346.4499" style="stroke:#181818;stroke-width:1.0;"/>
    </g>
    <g id="link_C_0012140013982476589918_C_0015818096269110849716">
      <path d="M527.12,268.7399 C528.25,299.4199 527.52,362.0299 507,409.6699 C450,542.0299 320.733,655.4265 265.813,699.6565 " fill="none" id="C_0012140013982476589918-to-C_0015818096269110849716" style="stroke:#181818;stroke-width:1.0;"/>
      <polygon fill="#181818" points="261.14,703.4199,270.6584,700.8901,265.0342,700.2837,265.6405,694.6595,261.14,703.4199" style="stroke:#181818;stroke-width:1.0;"/>
    </g>
    <g id="link_C_0000850977248882698993_C_0012700602812252844564">
      <path d="M385.25,169.7299 C375.01,173.8899 364.52,178.5899 355,183.6699 C330.22,196.8999 308.9634,211.9886 290.9434,225.8686 " fill="none" id="C_0000850977248882698993-to-C_0012700602812252844564" style="stroke:#181818;stroke-width:1.0;"/>
      <polygon fill="#181818" points="286.19,229.5299,295.761,227.2068,290.1512,226.4788,290.8792,220.869,286.19,229.5299" style="stroke:#181818;stroke-width:1.0;"/>
    </g>
    <g id="link_C_0000850977248882698993_C_0012140013982476589918">
      <path d="M458.51,169.7699 C463.02,174.2399 467.75,179.0599 472,183.6699 C485.76,198.5899 496.7241,211.667 507.3241,224.757 " fill="none" id="C_0000850977248882698993-to-C_0012140013982476589918" style="stroke:#181818;stroke-width:1.0;"/>
      <polygon fill="#181818" points="511.1,229.4199,508.5447,219.9083,507.9534,225.5342,502.3275,224.9428,511.1,229.4199" style="stroke:#181818;stroke-width:1.0;"/>
    </g>
    <g id="link_C_0000850977248882698993_C_0009474769160410159032">
      <path d="M507.26,165.9399 C536.08,172.3699 566.13,179.3999 580,183.6699 C622.7,196.8099 664.558,213.3467 697.728,227.2767 " fill="none" id="C_0000850977248882698993-to-C_0009474769160410159032" style="stroke:#181818;stroke-width:1.0;"/>
      <polygon fill="#181818" points="703.26,229.5999,696.5108,222.4271,698.65,227.6639,693.4132,229.8031,703.26,229.5999" style="stroke:#181818;stroke-width:1.0;"/>
    </g>
    <g id="link_C_0000850977248882698993_C_0013560060108228197304">
      <path d="M433.99,169.8699 C429.38,187.0499 424.1544,206.5747 419.5544,223.7247 " fill="none" id="C_0000850977248882698993-to-C_0013560060108228197304" style="stroke:#181818;stroke-width:1.0;"/>
      <polygon fill="#181818" points="418,229.5199,424.195,221.8634,419.2953,224.6906,416.4681,219.7909,418,229.5199" style="stroke:#181818;stroke-width:1.0;"/>
    </g>
    <g id="link_C_0008629439082178352935_C_0009474769160410159032">
      <path d="M872.73,169.8699 C844.93,187.0499 809.055,209.2172 781.285,226.3672 " fill="none" id="C_0008629439082178352935-to-C_0009474769160410159032" style="stroke:#181818;stroke-width:1.0;"/>
      <polygon fill="#181818" points="776.18,229.5199,785.9392,228.1942,780.4341,226.8927,781.7356,221.3876,776.18,229.5199" style="stroke:#181818;stroke-width:1.0;"/>
    </g>
    <g id="link_C_0010647698635028726129_C_0012140013982476589918">
      <path d="M591.38,169.8699 C577.04,187.0499 559.7472,207.7656 545.4172,224.9156 " fill="none" id="C_0010647698635028726129-to-C_0012140013982476589918" style="stroke:#181818;stroke-width:1.0;"/>
      <polygon fill="#181818" points="541.57,229.5199,550.4103,225.1783,544.776,225.683,544.2713,220.0487,541.57,229.5199" style="stroke:#181818;stroke-width:1.0;"/>
    </g>
    <g id="link_C_0009388434743451459542_C_0001506908138452400189">
      <path d="M115.02,502.7699 C134.07,561.6899 191.1236,738.081 210.1536,796.921 " fill="none" id="C_0009388434743451459542-to-C_0001506908138452400189" style="stroke:#181818;stroke-width:1.0;"/>
      <polygon fill="#181818" points="212,802.6299,213.0364,792.8357,210.4614,797.8725,205.4246,795.2975,212,802.6299" style="stroke:#181818;stroke-width:1.0;"/>
    </g>
    <g id="link_C_0000255852889039832162_C_0003368630512743138441">
      <path d="M237,502.8699 C237,520.0499 237,539.3699 237,556.5199 " fill="none" id="C_0000255852889039832162-to-C_0003368630512743138441" style="stroke:#181818;stroke-width:1.0;"/>
      <polygon fill="#181818" points="237,562.5199,241,553.5199,237,557.5199,233,553.5199,237,562.5199" style="stroke:#181818;stroke-width:1.0;"/>
    </g>
    <g id="link_C_0003368630512743138441_C_0015818096269110849716">
      <path d="M237,601.9199 C237,628.4499 237,670.6699 237,697.2799 " fill="none" id="C_0003368630512743138441-to-C_0015818096269110849716" style="stroke:#181818;stroke-width:1.0;"/>
      <polygon fill="#181818" points="237,703.2799,241,694.2799,237,698.2799,233,694.2799,237,703.2799" style="stroke:#181818;stroke-width:1.0;"/>
    </g>
    <g id="link_C_0011896277980381595836_C_0000255852889039832162">
      <path d="M252.07,385.8999 C248.72,407.2899 244.2084,436.1322 240.8584,457.5222 " fill="none" id="C_0011896277980381595836-to-C_0000255852889039832162" style="stroke:#181818;stroke-width:1.0;"/>
      <polygon fill="#181818" points="239.93,463.4499,245.2744,455.1772,240.7036,458.5101,237.3707,453.9394,239.93,463.4499" style="stroke:#181818;stroke-width:1.0;"/>
    </g>
    <g id="link_C_0015818096269110849716_C_0001506908138452400189">
      <path d="M233.34,742.8699 C229.97,760.0499 226.1636,779.4818 222.8036,796.6318 " fill="none" id="C_0015818096269110849716-to-C_0001506908138452400189" style="stroke:#181818;stroke-width:1.0;"/>
      <polygon fill="#181818" points="221.65,802.5199,227.3057,794.4569,222.6113,797.6132,219.455,792.9188,221.65,802.5199" style="stroke:#181818;stroke-width:1.0;"/>
    </g>
    <g id="link_C_0012700602812252844564_C_0009388434743451459542">
      <path d="M210.95,266.0899 C192.91,273.9199 173.97,285.1099 161,300.6699 C120.49,349.2599 111.829,421.7489 109.869,457.4389 " fill="none" id="C_0012700602812252844564-to-C_0009388434743451459542" style="stroke:#181818;stroke-width:1.0;"/>
      <polygon fill="#181818" points="109.54,463.4299,114.0275,454.6628,109.8142,458.4374,106.0395,454.2241,109.54,463.4299" style="stroke:#181818;stroke-width:1.0;"/>
    </g>
    <g id="link_C_0012700602812252844564_C_0012140013982476589918">
      <path d="M282.15,229.4999 C302.44,210.4999 336.45,183.6099 372.5,176.6699 C408.29,169.7799 418.71,169.7799 454.5,176.6699 C462.73,178.2499 465.24,178.7299 472,183.6699 C489.02,196.0999 500.4846,210.1262 510.2846,224.4662 " fill="none" id="C_0012700602812252844564-to-C_0012140013982476589918" style="stroke:#181818;stroke-width:1.0;"/>
      <polygon fill="#181818" points="513.67,229.4199,511.8944,219.7324,510.8489,225.2918,505.2895,224.2463,513.67,229.4199" style="stroke:#181818;stroke-width:1.0;"/>
    </g>
  </g>
</svg>
