<svg xmlns="http://www.w3.org/2000/svg" xmlns:xlink="http://www.w3.org/1999/xlink" contentScriptType="application/ecmascript" contentStyleType="text/css" height="759px" preserveAspectRatio="none" style="width:1098px;height:759px;" version="1.1" viewBox="0 0 1098 759" width="1098px" zoomAndPan="magnify">
  <defs>
    <filter height="300%" id="fe3a2l7z2fy7x" width="300%" x="-1" y="-1">
      <feGaussianBlur result="blurOut" stdDeviation="2.0"/>
      <feColorMatrix in="blurOut" result="blurOut2" type="matrix" values="0 0 0 0 0 0 0 0 0 0 0 0 0 0 0 0 0 0 .4 0"/>
      <feOffset dx="4.0" dy="4.0" in="blurOut2" result="blurOut3"/>
      <feBlend in="SourceGraphic" in2="blurOut3" mode="normal"/>
    </filter>
    <style type="text/css">a:hover { text-decoration: underline; }</style>
  </defs>
  <g>
    <text fill="#000000" font-family="sans-serif" font-size="18" lengthAdjust="spacingAndGlyphs" textLength="121" x="494.5" y="16.708">Include graph</text>
    <polygon fill="#FFFFFF" filter="url(#fe3a2l7z2fy7x)" points="22,44.9531,53,44.9531,60,67.25,1076,67.25,1076,747.9531,22,747.9531,22,44.9531" style="stroke: #000000; stroke-width: 1.5;"/>
    <line style="stroke: #000000; stroke-width: 1.5;" x1="22" x2="60" y1="67.25" y2="67.25"/>
    <text fill="#000000" font-family="sans-serif" font-size="14" font-weight="bold" lengthAdjust="spacingAndGlyphs" textLength="25" x="26" y="59.9482">src</text>
    <polygon fill="#FFFFFF" filter="url(#fe3a2l7z2fy7x)" points="381,87.9531,436,87.9531,443,110.25,1052,110.25,1052,381.9531,381,381.9531,381,87.9531" style="stroke: #000000; stroke-width: 1.5;"/>
    <line style="stroke: #000000; stroke-width: 1.5;" x1="381" x2="443" y1="110.25" y2="110.25"/>
    <text fill="#000000" font-family="sans-serif" font-size="14" font-weight="bold" lengthAdjust="spacingAndGlyphs" textLength="49" x="385" y="102.9482">config</text>
    <polygon fill="#FFFFFF" filter="url(#fe3a2l7z2fy7x)" points="219,183.9531,242,183.9531,249,206.25,357,206.25,357,270.9531,219,270.9531,219,183.9531" style="stroke: #000000; stroke-width: 1.5;"/>
    <line style="stroke: #000000; stroke-width: 1.5;" x1="219" x2="249" y1="206.25" y2="206.25"/>
    <text fill="#000000" font-family="sans-serif" font-size="14" font-weight="bold" lengthAdjust="spacingAndGlyphs" textLength="17" x="223" y="198.9482">cli</text>
    <polygon fill="#FFFFFF" filter="url(#fe3a2l7z2fy7x)" points="46,294.9531,119,294.9531,126,317.25,357,317.25,357,612.9531,46,612.9531,46,294.9531" style="stroke: #000000; stroke-width: 1.5;"/>
    <line style="stroke: #000000; stroke-width: 1.5;" x1="46" x2="126" y1="317.25" y2="317.25"/>
    <text fill="#000000" font-family="sans-serif" font-size="14" font-weight="bold" lengthAdjust="spacingAndGlyphs" textLength="67" x="50" y="309.9482">common</text>
    <polygon fill="#FFFFFF" filter="url(#fe3a2l7z2fy7x)" points="70,405.9531,124,405.9531,131,428.25,333,428.25,333,588.9531,70,588.9531,70,405.9531" style="stroke: #000000; stroke-width: 1.5;"/>
    <line style="stroke: #000000; stroke-width: 1.5;" x1="70" x2="131" y1="428.25" y2="428.25"/>
    <text fill="#000000" font-family="sans-serif" font-size="14" font-weight="bold" lengthAdjust="spacingAndGlyphs" textLength="48" x="74" y="420.9482">model</text>
    <polygon fill="#FFFFFF" filter="url(#fe3a2l7z2fy7x)" points="478,636.9531,508,636.9531,515,659.25,564,659.25,564,723.9531,478,723.9531,478,636.9531" style="stroke: #000000; stroke-width: 1.5;"/>
    <line style="stroke: #000000; stroke-width: 1.5;" x1="478" x2="515" y1="659.25" y2="659.25"/>
    <text fill="#000000" font-family="sans-serif" font-size="14" font-weight="bold" lengthAdjust="spacingAndGlyphs" textLength="24" x="482" y="651.9482">util</text>
    <a href="" target="_top" title="yaml_decoders.cc" xlink:actuate="onRequest" xlink:href="" xlink:show="new" xlink:title="yaml_decoders.cc" xlink:type="simple">
      <polygon fill="#FEFECE" filter="url(#fe3a2l7z2fy7x)" points="397,122.9531,397,159.25,541,159.25,541,132.9531,531,122.9531,397,122.9531" style="stroke: #000000; stroke-width: 1.5;"/>
      <path d="M531,122.9531 L531,132.9531 L541,132.9531 " fill="#FEFECE" style="stroke: #000000; stroke-width: 1.5;"/>
      <text fill="#000000" font-family="sans-serif" font-size="14" lengthAdjust="spacingAndGlyphs" textLength="124" x="407" y="145.9482">yaml_decoders.cc</text>
    </a>
    <a href="" target="_top" title="config.h" xlink:actuate="onRequest" xlink:href="" xlink:show="new" xlink:title="config.h" xlink:type="simple">
      <polygon fill="#FEFECE" filter="url(#fe3a2l7z2fy7x)" points="719.5,218.9531,719.5,255.25,794.5,255.25,794.5,228.9531,784.5,218.9531,719.5,218.9531" style="stroke: #000000; stroke-width: 1.5;"/>
      <path d="M784.5,218.9531 L784.5,228.9531 L794.5,228.9531 " fill="#FEFECE" style="stroke: #000000; stroke-width: 1.5;"/>
      <text fill="#000000" font-family="sans-serif" font-size="14" lengthAdjust="spacingAndGlyphs" textLength="55" x="729.5" y="241.9482">config.h</text>
    </a>
    <a href="" target="_top" title="option.h" xlink:actuate="onRequest" xlink:href="" xlink:show="new" xlink:title="option.h" xlink:type="simple">
      <polygon fill="#FEFECE" filter="url(#fe3a2l7z2fy7x)" points="643.5,329.9531,643.5,366.25,720.5,366.25,720.5,339.9531,710.5,329.9531,643.5,329.9531" style="stroke: #000000; stroke-width: 1.5;"/>
      <path d="M710.5,329.9531 L710.5,339.9531 L720.5,339.9531 " fill="#FEFECE" style="stroke: #000000; stroke-width: 1.5;"/>
      <text fill="#000000" font-family="sans-serif" font-size="14" lengthAdjust="spacingAndGlyphs" textLength="57" x="653.5" y="352.9482">option.h</text>
    </a>
    <a href="" target="_top" title="diagram_templates.h" xlink:actuate="onRequest" xlink:href="" xlink:show="new" xlink:title="diagram_templates.h" xlink:type="simple">
      <polygon fill="#FEFECE" filter="url(#fe3a2l7z2fy7x)" points="520,218.9531,520,255.25,684,255.25,684,228.9531,674,218.9531,520,218.9531" style="stroke: #000000; stroke-width: 1.5;"/>
      <path d="M674,218.9531 L674,228.9531 L684,228.9531 " fill="#FEFECE" style="stroke: #000000; stroke-width: 1.5;"/>
      <text fill="#000000" font-family="sans-serif" font-size="14" lengthAdjust="spacingAndGlyphs" textLength="144" x="530" y="241.9482">diagram_templates.h</text>
    </a>
    <a href="" target="_top" title="schema.h" xlink:actuate="onRequest" xlink:href="" xlink:show="new" xlink:title="schema.h" xlink:type="simple">
      <polygon fill="#FEFECE" filter="url(#fe3a2l7z2fy7x)" points="397,218.9531,397,255.25,485,255.25,485,228.9531,475,218.9531,397,218.9531" style="stroke: #000000; stroke-width: 1.5;"/>
      <path d="M475,218.9531 L475,228.9531 L485,228.9531 " fill="#FEFECE" style="stroke: #000000; stroke-width: 1.5;"/>
      <text fill="#000000" font-family="sans-serif" font-size="14" lengthAdjust="spacingAndGlyphs" textLength="68" x="407" y="241.9482">schema.h</text>
    </a>
    <a href="" target="_top" title="config.cc" xlink:actuate="onRequest" xlink:href="" xlink:show="new" xlink:title="config.cc" xlink:type="simple">
      <polygon fill="#FEFECE" filter="url(#fe3a2l7z2fy7x)" points="783,122.9531,783,159.25,865,159.25,865,132.9531,855,122.9531,783,122.9531" style="stroke: #000000; stroke-width: 1.5;"/>
      <path d="M855,122.9531 L855,132.9531 L865,132.9531 " fill="#FEFECE" style="stroke: #000000; stroke-width: 1.5;"/>
      <text fill="#000000" font-family="sans-serif" font-size="14" lengthAdjust="spacingAndGlyphs" textLength="62" x="793" y="145.9482">config.cc</text>
    </a>
    <a href="" target="_top" title="diagram_templates.cc" xlink:actuate="onRequest" xlink:href="" xlink:show="new" xlink:title="diagram_templates.cc" xlink:type="simple">
      <polygon fill="#FEFECE" filter="url(#fe3a2l7z2fy7x)" points="576.5,122.9531,576.5,159.25,747.5,159.25,747.5,132.9531,737.5,122.9531,576.5,122.9531" style="stroke: #000000; stroke-width: 1.5;"/>
      <path d="M737.5,122.9531 L737.5,132.9531 L747.5,132.9531 " fill="#FEFECE" style="stroke: #000000; stroke-width: 1.5;"/>
      <text fill="#000000" font-family="sans-serif" font-size="14" lengthAdjust="spacingAndGlyphs" textLength="151" x="586.5" y="145.9482">diagram_templates.cc</text>
    </a>
    <a href="" target="_top" title="yaml_emitters.cc" xlink:actuate="onRequest" xlink:href="" xlink:show="new" xlink:title="yaml_emitters.cc" xlink:type="simple">
      <polygon fill="#FEFECE" filter="url(#fe3a2l7z2fy7x)" points="900.5,122.9531,900.5,159.25,1035.5,159.25,1035.5,132.9531,1025.5,122.9531,900.5,122.9531" style="stroke: #000000; stroke-width: 1.5;"/>
      <path d="M1025.5,122.9531 L1025.5,132.9531 L1035.5,132.9531 " fill="#FEFECE" style="stroke: #000000; stroke-width: 1.5;"/>
      <text fill="#000000" font-family="sans-serif" font-size="14" lengthAdjust="spacingAndGlyphs" textLength="115" x="910.5" y="145.9482">yaml_emitters.cc</text>
    </a>
    <a href="" target="_top" title="cli_handler.h" xlink:actuate="onRequest" xlink:href="" xlink:show="new" xlink:title="cli_handler.h" xlink:type="simple">
      <polygon fill="#FEFECE" filter="url(#fe3a2l7z2fy7x)" points="235,218.9531,235,255.25,341,255.25,341,228.9531,331,218.9531,235,218.9531" style="stroke: #000000; stroke-width: 1.5;"/>
      <path d="M331,218.9531 L331,228.9531 L341,228.9531 " fill="#FEFECE" style="stroke: #000000; stroke-width: 1.5;"/>
      <text fill="#000000" font-family="sans-serif" font-size="14" lengthAdjust="spacingAndGlyphs" textLength="86" x="245" y="241.9482">cli_handler.h</text>
    </a>
    <a href="" target="_top" title="types.h" xlink:actuate="onRequest" xlink:href="" xlink:show="new" xlink:title="types.h" xlink:type="simple">
      <polygon fill="#FEFECE" filter="url(#fe3a2l7z2fy7x)" points="269.5,329.9531,269.5,366.25,340.5,366.25,340.5,339.9531,330.5,329.9531,269.5,329.9531" style="stroke: #000000; stroke-width: 1.5;"/>
      <path d="M330.5,329.9531 L330.5,339.9531 L340.5,339.9531 " fill="#FEFECE" style="stroke: #000000; stroke-width: 1.5;"/>
      <text fill="#000000" font-family="sans-serif" font-size="14" lengthAdjust="spacingAndGlyphs" textLength="51" x="279.5" y="352.9482">types.h</text>
    </a>
    <a href="" target="_top" title="enums.h" xlink:actuate="onRequest" xlink:href="" xlink:show="new" xlink:title="enums.h" xlink:type="simple">
      <polygon fill="#FEFECE" filter="url(#fe3a2l7z2fy7x)" points="235.5,440.9531,235.5,477.25,316.5,477.25,316.5,450.9531,306.5,440.9531,235.5,440.9531" style="stroke: #000000; stroke-width: 1.5;"/>
      <path d="M306.5,440.9531 L306.5,450.9531 L316.5,450.9531 " fill="#FEFECE" style="stroke: #000000; stroke-width: 1.5;"/>
      <text fill="#000000" font-family="sans-serif" font-size="14" lengthAdjust="spacingAndGlyphs" textLength="61" x="245.5" y="463.9482">enums.h</text>
    </a>
    <a href="" target="_top" title="namespace.h" xlink:actuate="onRequest" xlink:href="" xlink:show="new" xlink:title="namespace.h" xlink:type="simple">
      <polygon fill="#FEFECE" filter="url(#fe3a2l7z2fy7x)" points="86,440.9531,86,477.25,200,477.25,200,450.9531,190,440.9531,86,440.9531" style="stroke: #000000; stroke-width: 1.5;"/>
      <path d="M190,440.9531 L190,450.9531 L200,450.9531 " fill="#FEFECE" style="stroke: #000000; stroke-width: 1.5;"/>
      <text fill="#000000" font-family="sans-serif" font-size="14" lengthAdjust="spacingAndGlyphs" textLength="94" x="96" y="463.9482">namespace.h</text>
    </a>
    <a href="" target="_top" title="path.h" xlink:actuate="onRequest" xlink:href="" xlink:show="new" xlink:title="path.h" xlink:type="simple">
      <polygon fill="#FEFECE" filter="url(#fe3a2l7z2fy7x)" points="182,536.9531,182,573.25,246,573.25,246,546.9531,236,536.9531,182,536.9531" style="stroke: #000000; stroke-width: 1.5;"/>
      <path d="M236,536.9531 L236,546.9531 L246,546.9531 " fill="#FEFECE" style="stroke: #000000; stroke-width: 1.5;"/>
      <text fill="#000000" font-family="sans-serif" font-size="14" lengthAdjust="spacingAndGlyphs" textLength="44" x="192" y="559.9482">path.h</text>
    </a>
    <a href="" target="_top" title="util.h" xlink:actuate="onRequest" xlink:href="" xlink:show="new" xlink:title="util.h" xlink:type="simple">
      <polygon fill="#FEFECE" filter="url(#fe3a2l7z2fy7x)" points="494.5,671.9531,494.5,708.25,547.5,708.25,547.5,681.9531,537.5,671.9531,494.5,671.9531" style="stroke: #000000; stroke-width: 1.5;"/>
      <path d="M537.5,671.9531 L537.5,681.9531 L547.5,681.9531 " fill="#FEFECE" style="stroke: #000000; stroke-width: 1.5;"/>
      <text fill="#000000" font-family="sans-serif" font-size="14" lengthAdjust="spacingAndGlyphs" textLength="33" x="504.5" y="694.9482">util.h</text>
    </a>
    <path d="M419.35,159.1031 C406.62,164.0431 393.11,169.7831 381,175.9531 C358.27,187.5231 334.1,203.2331 316.11,215.6731 " fill="none" id="C_0000106372156110337374-&gt;C_0001587575351531605570" style="stroke: #A80036; stroke-width: 1.0;"/>
    <polygon fill="#A80036" points="311.67,218.7531,321.3409,216.8893,315.7722,215.8945,316.767,210.3258,311.67,218.7531" style="stroke: #A80036; stroke-width: 1.0;"/>
    <path d="M541.14,156.0231 C547.17,157.0731 553.18,158.0631 559,158.9531 C622.26,168.6731 645.04,146.7631 702,175.9531 C719.06,184.6931 733.48,201.0231 743.28,214.4431 " fill="none" id="C_0000106372156110337374-&gt;C_0001517501747809573739" style="stroke: #A80036; stroke-width: 1.0;"/>
    <polygon fill="#A80036" points="746.42,218.8631,744.4726,209.2087,743.526,214.7858,737.9489,213.8392,746.42,218.8631" style="stroke: #A80036; stroke-width: 1.0;"/>
    <path d="M493.09,158.9731 C515.64,174.9131 549.36,198.7431 573.29,215.6631 " fill="none" id="C_0000106372156110337374-&gt;C_0001184346145051269879" style="stroke: #A80036; stroke-width: 1.0;"/>
    <polygon fill="#A80036" points="577.64,218.7431,572.5963,210.2837,573.556,215.8586,567.9811,216.8182,577.64,218.7431" style="stroke: #A80036; stroke-width: 1.0;"/>
    <path d="M463.86,159.1931 C459.29,174.5631 452.56,197.1531 447.59,213.8431 " fill="none" id="C_0000106372156110337374-&gt;C_0001695007513528524663" style="stroke: #A80036; stroke-width: 1.0;"/>
    <polygon fill="#A80036" points="446.1,218.8231,452.5011,211.3381,447.5263,214.0309,444.8335,209.056,446.1,218.8231" style="stroke: #A80036; stroke-width: 1.0;"/>
    <path d="M739.18,255.1231 C729.09,263.7831 715.75,273.5731 702,278.9531 C670.37,291.3231 658.64,277.5731 626,286.9531 C501.2,322.7931 366.73,401.0631 307.29,437.9531 " fill="none" id="C_0001517501747809573739-&gt;C_0001173554342931432442" style="stroke: #A80036; stroke-width: 1.0;"/>
    <polygon fill="#A80036" points="302.8,440.7531,312.5541,439.3899,307.044,438.1096,308.3243,432.5995,302.8,440.7531" style="stroke: #A80036; stroke-width: 1.0;"/>
    <path d="M739.83,255.1431 C729.73,264.0431 716.18,274.0531 702,278.9531 C668.28,290.6031 414.56,274.8331 381,286.9531 C358.89,294.9431 338.25,312.1031 324.08,326.0431 " fill="none" id="C_0001517501747809573739-&gt;C_0001487034747547699479" style="stroke: #A80036; stroke-width: 1.0;"/>
    <polygon fill="#A80036" points="320.26,329.8731,329.4452,326.319,323.7884,326.3305,323.777,320.6736,320.26,329.8731" style="stroke: #A80036; stroke-width: 1.0;"/>
    <path d="M745.28,254.9831 C732.2,273.9931 711.02,304.7831 696.81,325.4331 " fill="none" id="C_0001517501747809573739-&gt;C_0000318140781021252562" style="stroke: #A80036; stroke-width: 1.0;"/>
    <polygon fill="#A80036" points="693.88,329.6831,702.2749,324.5329,696.7126,325.5629,695.6826,320.0006,693.88,329.6831" style="stroke: #A80036; stroke-width: 1.0;"/>
    <path d="M757.58,255.0431 C757.98,283.9131 756.27,343.6931 738,389.9531 C691.37,508.0331 587.12,622.2631 542.23,668.0131 " fill="none" id="C_0001517501747809573739-&gt;C_0001977262033638856214" style="stroke: #A80036; stroke-width: 1.0;"/>
    <polygon fill="#A80036" points="538.59,671.7031,547.7608,668.1119,542.104,668.1462,542.0698,662.4895,538.59,671.7031" style="stroke: #A80036; stroke-width: 1.0;"/>
    <path d="M811.71,159.1931 C800.57,174.8331 784.1,197.9331 772.15,214.7031 " fill="none" id="C_0001884930640857833435-&gt;C_0001517501747809573739" style="stroke: #A80036; stroke-width: 1.0;"/>
    <polygon fill="#A80036" points="769.21,218.8231,777.6894,213.8132,772.1108,214.7506,771.1734,209.172,769.21,218.8231" style="stroke: #A80036; stroke-width: 1.0;"/>
    <path d="M782.76,153.9331 C776.81,155.6331 770.75,157.3531 765,158.9531 C737.07,166.7431 728.69,164.6031 702,175.9531 C676.54,186.7831 649.76,203.1431 630.33,216.0531 " fill="none" id="C_0001884930640857833435-&gt;C_0001184346145051269879" style="stroke: #A80036; stroke-width: 1.0;"/>
    <polygon fill="#A80036" points="626.05,218.9131,635.7533,217.226,630.2037,216.1298,631.2999,210.5801,626.05,218.9131" style="stroke: #A80036; stroke-width: 1.0;"/>
    <path d="M651,159.1931 C641.1,174.6931 626.52,197.5431 615.84,214.2731 " fill="none" id="C_0001078679885272294116-&gt;C_0001184346145051269879" style="stroke: #A80036; stroke-width: 1.0;"/>
    <polygon fill="#A80036" points="612.94,218.8231,621.1632,213.4029,615.6373,214.6131,614.4271,209.0872,612.94,218.8231" style="stroke: #A80036; stroke-width: 1.0;"/>
    <path d="M929.79,158.9731 C893.08,175.3331 837.71,199.9931 799.6,216.9731 " fill="none" id="C_0001330962329378590766-&gt;C_0001517501747809573739" style="stroke: #A80036; stroke-width: 1.0;"/>
    <polygon fill="#A80036" points="794.57,219.2131,804.4189,219.2188,799.1402,217.1851,801.174,211.9065,794.57,219.2131" style="stroke: #A80036; stroke-width: 1.0;"/>
    <path d="M263.34,255.1131 C253.5,263.4531 243.27,274.4031 238,286.9531 C220.27,329.1531 226.46,345.6531 238,389.9531 C242.38,406.7631 251.93,423.8331 260.37,436.6631 " fill="none" id="C_0001587575351531605570-&gt;C_0001173554342931432442" style="stroke: #A80036; stroke-width: 1.0;"/>
    <polygon fill="#A80036" points="263.17,440.8431,261.4828,431.1399,260.3866,436.6895,254.837,435.5933,263.17,440.8431" style="stroke: #A80036; stroke-width: 1.0;"/>
    <path d="M307.67,218.7231 C328.4,201.0131 362.94,175.6331 398.5,167.4531 C429.47,160.3331 653.53,160.3331 684.5,167.4531 C710.03,173.3231 730.57,196.2531 743.18,214.1831 " fill="none" id="C_0001587575351531605570-&gt;C_0001517501747809573739" style="stroke: #A80036; stroke-width: 1.0;"/>
    <polygon fill="#A80036" points="746.21,218.6231,744.4231,208.9377,743.384,214.4983,737.8234,213.4593,746.21,218.6231" style="stroke: #A80036; stroke-width: 1.0;"/>
    <path d="M156.02,477.1931 C167.83,492.8331 185.28,515.9331 197.95,532.7031 " fill="none" id="C_0000031981611129979020-&gt;C_0000421078814092892305" style="stroke: #A80036; stroke-width: 1.0;"/>
    <polygon fill="#A80036" points="201.06,536.8231,198.8216,527.232,198.044,532.8352,192.4409,532.0576,201.06,536.8231" style="stroke: #A80036; stroke-width: 1.0;"/>
    <path d="M246.27,569.9331 C305.57,595.6231 431.13,650.0231 489.69,675.3931 " fill="none" id="C_0000421078814092892305-&gt;C_0001977262033638856214" style="stroke: #A80036; stroke-width: 1.0;"/>
    <polygon fill="#A80036" points="494.47,677.4631,487.7923,670.2237,489.8795,675.4815,484.6217,677.5686,494.47,677.4631" style="stroke: #A80036; stroke-width: 1.0;"/>
    <path d="M271.61,366.1131 C255.1,375.0131 235.1,386.4131 218,397.9531 C200.06,410.0631 181.03,425.3131 166.63,437.4131 " fill="none" id="C_0001487034747547699479-&gt;C_0000031981611129979020" style="stroke: #A80036; stroke-width: 1.0;"/>
    <polygon fill="#A80036" points="162.7,440.7331,172.1589,437.989,166.5223,437.5098,167.0016,431.8733,162.7,440.7331" style="stroke: #A80036; stroke-width: 1.0;"/>
  </g>
</svg>
