<svg xmlns="http://www.w3.org/2000/svg" xmlns:xlink="http://www.w3.org/1999/xlink" contentStyleType="text/css" height="1085px" preserveAspectRatio="none" style="width:1693px;height:1085px;background:#FFFFFF;" version="1.1" viewBox="0 0 1693 1085" width="1693px" zoomAndPan="magnify">
  <title>Configuration file loading sequence diagram</title>
  <defs>
    <style type="text/css">a:hover { text-decoration: underline; }</style>
  </defs>
  <g>
    <text fill="#000000" font-family="sans-serif" font-size="14" font-weight="bold" lengthAdjust="spacing" textLength="312.1709" x="691.7986" y="29.9659">Configuration file loading sequence diagram</text>
    <rect fill="#FFFFFF" height="916.4961" style="stroke:#181818;stroke-width:1.0;" width="10" x="103.8938" y="112.8419"/>
    <rect fill="#FFFFFF" height="59.706" style="stroke:#181818;stroke-width:1.0;" width="10" x="282.9361" y="288.784"/>
    <rect fill="#FFFFFF" height="30" style="stroke:#181818;stroke-width:1.0;" width="10" x="282.9361" y="387.196"/>
    <rect fill="#FFFFFF" height="30" style="stroke:#181818;stroke-width:1.0;" width="10" x="282.9361" y="448.902"/>
    <rect fill="#FFFFFF" height="76.706" style="stroke:#181818;stroke-width:1.0;" width="10" x="282.9361" y="564.0201"/>
    <rect fill="#FFFFFF" height="14" style="stroke:#181818;stroke-width:1.0;" width="10" x="728.1245" y="320.49"/>
    <rect fill="#FFFFFF" height="184.8241" style="stroke:#181818;stroke-width:1.0;" width="10" x="1124.7961" y="713.1381"/>
    <rect fill="#FFFFFF" height="45.706" style="stroke:#181818;stroke-width:1.0;" width="10" x="1124.7961" y="928.6682"/>
    <rect fill="#FFFFFF" height="30" style="stroke:#181818;stroke-width:1.0;" width="10" x="1311.9444" y="771.5501"/>
    <rect fill="#FFFFFF" height="14" style="stroke:#181818;stroke-width:1.0;" width="10" x="1311.9444" y="859.9622"/>
    <rect fill="#FFFFFF" height="14" style="stroke:#181818;stroke-width:1.0;" width="10" x="1559.6146" y="960.3742"/>
    <rect fill="none" height="888.4961" style="stroke:#000000;stroke-width:1.5;" width="1677.7682" x="9" y="127.8419"/>
    <rect fill="none" height="111.118" style="stroke:#000000;stroke-width:1.5;" width="1048.1642" x="30" y="245.3719"/>
    <rect fill="none" height="161.8241" style="stroke:#000000;stroke-width:1.5;" width="388.0848" x="20" y="493.902"/>
    <rect fill="none" height="128.118" style="stroke:#000000;stroke-width:1.5;" width="368.0848" x="30" y="520.608"/>
    <rect fill="none" height="228.2361" style="stroke:#000000;stroke-width:1.5;" width="1442.461" x="30" y="669.7261"/>
    <rect fill="none" height="162.8241" style="stroke:#000000;stroke-width:1.5;" width="404.2967" x="1058.1642" y="728.1381"/>
    <rect fill="none" height="67.412" style="stroke:#000000;stroke-width:1.5;" width="384.2967" x="1068.1642" y="816.5501"/>
    <line style="stroke:#181818;stroke-width:0.5;stroke-dasharray:5.0,5.0;" x1="108" x2="108" y1="79.1358" y2="1047.338"/>
    <line style="stroke:#181818;stroke-width:0.5;stroke-dasharray:5.0,5.0;" x1="287.7875" x2="287.7875" y1="79.1358" y2="1047.338"/>
    <line style="stroke:#181818;stroke-width:0.5;stroke-dasharray:5.0,5.0;" x1="733.0848" x2="733.0848" y1="79.1358" y2="1047.338"/>
    <line style="stroke:#181818;stroke-width:0.5;stroke-dasharray:5.0,5.0;" x1="1129.1642" x2="1129.1642" y1="79.1358" y2="1047.338"/>
    <line style="stroke:#181818;stroke-width:0.5;stroke-dasharray:5.0,5.0;" x1="1316.4279" x2="1316.4279" y1="79.1358" y2="1047.338"/>
    <line style="stroke:#181818;stroke-width:0.5;stroke-dasharray:5.0,5.0;" x1="1564.461" x2="1564.461" y1="79.1358" y2="1047.338"/>
    <rect fill="#E2E2F0" height="33.0679" rx="2.5" ry="2.5" style="stroke:#181818;stroke-width:0.5;" width="137.7875" x="40" y="45.0679"/>
    <text fill="#000000" font-family="sans-serif" font-size="14" lengthAdjust="spacing" textLength="123.7875" x="47" y="67.0339">src/config/config.h</text>
    <rect fill="#E2E2F0" height="33.0679" rx="2.5" ry="2.5" style="stroke:#181818;stroke-width:0.5;" width="137.7875" x="40" y="1046.338"/>
    <text fill="#000000" font-family="sans-serif" font-size="14" lengthAdjust="spacing" textLength="123.7875" x="47" y="1068.3039">src/config/config.h</text>
    <rect fill="#E2E2F0" height="33.0679" rx="2.5" ry="2.5" style="stroke:#181818;stroke-width:0.5;" width="200.2973" x="187.7875" y="45.0679"/>
    <text fill="#000000" font-family="sans-serif" font-size="14" lengthAdjust="spacing" textLength="186.2973" x="194.7875" y="67.0339">src/config/yaml_decoders.cc</text>
    <rect fill="#E2E2F0" height="33.0679" rx="2.5" ry="2.5" style="stroke:#181818;stroke-width:0.5;" width="200.2973" x="187.7875" y="1046.338"/>
    <text fill="#000000" font-family="sans-serif" font-size="14" lengthAdjust="spacing" textLength="186.2973" x="194.7875" y="1068.3039">src/config/yaml_decoders.cc</text>
    <a href="" target="_top" title="has_key(const YAML::Node &amp;,const std::string &amp;)##(lambda src/config/yaml_decoders.cc:63:46)" xlink:actuate="onRequest" xlink:href="" xlink:show="new" xlink:title="has_key(const YAML::Node &amp;,const std::string &amp;)##(lambda src/config/yaml_decoders.cc:63:46)" xlink:type="simple">
      <rect fill="#E2E2F0" height="33.0679" rx="2.5" ry="2.5" style="stroke:#181818;stroke-width:0.5;" width="670.0795" x="398.0848" y="45.0679"/>
      <text fill="#000000" font-family="sans-serif" font-size="14" lengthAdjust="spacing" textLength="656.0795" x="405.0848" y="67.0339">YAML::has_key(const YAML::Node &amp;,const std::string &amp;)::(lambda src/config/yaml_decoders.cc:63:46)</text>
      <rect fill="#E2E2F0" height="33.0679" rx="2.5" ry="2.5" style="stroke:#181818;stroke-width:0.5;" width="670.0795" x="398.0848" y="1046.338"/>
      <text fill="#000000" font-family="sans-serif" font-size="14" lengthAdjust="spacing" textLength="656.0795" x="405.0848" y="1068.3039">YAML::has_key(const YAML::Node &amp;,const std::string &amp;)::(lambda src/config/yaml_decoders.cc:63:46)</text>
    </a>
    <a href="" target="_top" title="Represents entire configuration file" xlink:actuate="onRequest" xlink:href="" xlink:show="new" xlink:title="Represents entire configuration file" xlink:type="simple">
      <rect fill="#E2E2F0" height="33.0679" rx="2.5" ry="2.5" style="stroke:#181818;stroke-width:0.5;" width="103.2636" x="1078.1642" y="45.0679"/>
      <text fill="#000000" font-family="sans-serif" font-size="14" lengthAdjust="spacing" textLength="89.2636" x="1085.1642" y="67.0339">config::config</text>
      <rect fill="#E2E2F0" height="33.0679" rx="2.5" ry="2.5" style="stroke:#181818;stroke-width:0.5;" width="103.2636" x="1078.1642" y="1046.338"/>
      <text fill="#000000" font-family="sans-serif" font-size="14" lengthAdjust="spacing" textLength="89.2636" x="1085.1642" y="1068.3039">config::config</text>
    </a>
    <a href="" target="_top" title="Represents subset of inheritable configuration options" xlink:actuate="onRequest" xlink:href="" xlink:show="new" xlink:title="Represents subset of inheritable configuration options" xlink:type="simple">
      <rect fill="#E2E2F0" height="33.0679" rx="2.5" ry="2.5" style="stroke:#181818;stroke-width:0.5;" width="251.0331" x="1191.4279" y="45.0679"/>
      <text fill="#000000" font-family="sans-serif" font-size="14" lengthAdjust="spacing" textLength="237.0331" x="1198.4279" y="67.0339">config::inheritable_diagram_options</text>
      <rect fill="#E2E2F0" height="33.0679" rx="2.5" ry="2.5" style="stroke:#181818;stroke-width:0.5;" width="251.0331" x="1191.4279" y="1046.338"/>
      <text fill="#000000" font-family="sans-serif" font-size="14" lengthAdjust="spacing" textLength="237.0331" x="1198.4279" y="1068.3039">config::inheritable_diagram_options</text>
    </a>
    <rect fill="#E2E2F0" height="33.0679" rx="2.5" ry="2.5" style="stroke:#181818;stroke-width:0.5;" width="224.3072" x="1452.461" y="45.0679"/>
    <text fill="#000000" font-family="sans-serif" font-size="14" lengthAdjust="spacing" textLength="210.3072" x="1459.461" y="67.0339">src/config/diagram_templates.h</text>
    <rect fill="#E2E2F0" height="33.0679" rx="2.5" ry="2.5" style="stroke:#181818;stroke-width:0.5;" width="224.3072" x="1452.461" y="1046.338"/>
    <text fill="#000000" font-family="sans-serif" font-size="14" lengthAdjust="spacing" textLength="210.3072" x="1459.461" y="1068.3039">src/config/diagram_templates.h</text>
    <rect fill="#FFFFFF" height="916.4961" style="stroke:#181818;stroke-width:1.0;" width="10" x="103.8938" y="112.8419"/>
    <rect fill="#FFFFFF" height="59.706" style="stroke:#181818;stroke-width:1.0;" width="10" x="282.9361" y="288.784"/>
    <rect fill="#FFFFFF" height="30" style="stroke:#181818;stroke-width:1.0;" width="10" x="282.9361" y="387.196"/>
    <rect fill="#FFFFFF" height="30" style="stroke:#181818;stroke-width:1.0;" width="10" x="282.9361" y="448.902"/>
    <rect fill="#FFFFFF" height="76.706" style="stroke:#181818;stroke-width:1.0;" width="10" x="282.9361" y="564.0201"/>
    <rect fill="#FFFFFF" height="14" style="stroke:#181818;stroke-width:1.0;" width="10" x="728.1245" y="320.49"/>
    <rect fill="#FFFFFF" height="184.8241" style="stroke:#181818;stroke-width:1.0;" width="10" x="1124.7961" y="713.1381"/>
    <rect fill="#FFFFFF" height="45.706" style="stroke:#181818;stroke-width:1.0;" width="10" x="1124.7961" y="928.6682"/>
    <rect fill="#FFFFFF" height="30" style="stroke:#181818;stroke-width:1.0;" width="10" x="1311.9444" y="771.5501"/>
    <rect fill="#FFFFFF" height="14" style="stroke:#181818;stroke-width:1.0;" width="10" x="1311.9444" y="859.9622"/>
    <rect fill="#FFFFFF" height="14" style="stroke:#181818;stroke-width:1.0;" width="10" x="1559.6146" y="960.3742"/>
    <polygon fill="#181818" points="91.8938,108.8419,101.8938,112.8419,91.8938,116.8419,95.8938,112.8419" style="stroke:#181818;stroke-width:1.0;"/>
    <line style="stroke:#181818;stroke-width:1.0;" x1="0" x2="97.8938" y1="112.8419" y2="112.8419"/>
    <text fill="#000000" font-family="sans-serif" font-size="13" lengthAdjust="spacing" textLength="34.307" x="7" y="107.0328">load()</text>
    <path d="M9,127.8419 L72.941,127.8419 L72.941,137.5479 L62.941,147.5479 L9,147.5479 L9,127.8419 " fill="#EEEEEE" style="stroke:#000000;stroke-width:1.5;"/>
    <rect fill="none" height="888.4961" style="stroke:#000000;stroke-width:1.5;" width="1677.7682" x="9" y="127.8419"/>
    <text fill="#000000" font-family="sans-serif" font-size="13" font-weight="bold" lengthAdjust="spacing" textLength="18.941" x="24" y="142.7389">try</text>
    <path d="M19,152.5479 L19,232.5479 L196,232.5479 L196,162.5479 L186,152.5479 L19,152.5479 " fill="#FEFFDD" style="stroke:#181818;stroke-width:0.5;"/>
    <path d="M186,152.5479 L186,162.5479 L196,162.5479 L186,152.5479 " fill="#FEFFDD" style="stroke:#181818;stroke-width:0.5;"/>
    <text fill="#000000" font-family="sans-serif" font-size="13" lengthAdjust="spacing" textLength="147.0431" x="25" y="171.4449">Store the parent path of</text>
    <text fill="#000000" font-family="sans-serif" font-size="13" lengthAdjust="spacing" textLength="156.9101" x="25" y="189.1509">the config_file to properly</text>
    <text fill="#000000" font-family="sans-serif" font-size="13" lengthAdjust="spacing" textLength="145.1841" x="25" y="206.8569">resolve relative paths in</text>
    <text fill="#000000" font-family="sans-serif" font-size="13" lengthAdjust="spacing" textLength="59.8521" x="25" y="224.5629">config file</text>
    <path d="M30,245.3719 L92.459,245.3719 L92.459,255.0779 L82.459,265.0779 L30,265.0779 L30,245.3719 " fill="#EEEEEE" style="stroke:#000000;stroke-width:1.5;"/>
    <rect fill="none" height="111.118" style="stroke:#000000;stroke-width:1.5;" width="1048.1642" x="30" y="245.3719"/>
    <text fill="#000000" font-family="sans-serif" font-size="13" font-weight="bold" lengthAdjust="spacing" textLength="17.459" x="45" y="260.2689">alt</text>
    <text fill="#000000" font-family="sans-serif" font-size="11" font-weight="bold" lengthAdjust="spacing" textLength="170.2567" x="107.459" y="259.1308">[has_key(doc, "__parent_path")]</text>
    <a href="" target="_top" title="" xlink:actuate="onRequest" xlink:href="" xlink:show="new" xlink:title="" xlink:type="simple">
      <polygon fill="#181818" points="270.9361,284.784,280.9361,288.784,270.9361,292.784,274.9361,288.784" style="stroke:#181818;stroke-width:1.0;"/>
      <line style="stroke:#181818;stroke-width:1.0;" x1="113.8938" x2="276.9361" y1="288.784" y2="288.784"/>
      <text fill="#000000" font-family="sans-serif" font-size="13" font-weight="bold" lengthAdjust="spacing" textLength="4.303" x="120.8938" y="282.975">[</text>
      <text fill="#000000" font-family="sans-serif" font-size="13" lengthAdjust="spacing" textLength="56.03" x="125.1968" y="282.975">has_key()</text>
      <text fill="#000000" font-family="sans-serif" font-size="13" font-weight="bold" lengthAdjust="spacing" textLength="4.303" x="181.2268" y="282.975">]</text>
    </a>
    <a href="" target="_top" title="" xlink:actuate="onRequest" xlink:href="" xlink:show="new" xlink:title="" xlink:type="simple">
      <polygon fill="#181818" points="716.1245,316.49,726.1245,320.49,716.1245,324.49,720.1245,320.49" style="stroke:#181818;stroke-width:1.0;"/>
      <line style="stroke:#181818;stroke-width:1.0;" x1="292.9361" x2="722.1245" y1="320.49" y2="320.49"/>
      <text fill="#000000" font-family="sans-serif" font-size="13" lengthAdjust="spacing" textLength="105.8201" x="299.9361" y="314.681">operator()() const</text>
    </a>
    <polygon fill="#181818" points="303.9361,330.49,293.9361,334.49,303.9361,338.49,299.9361,334.49" style="stroke:#181818;stroke-width:1.0;"/>
    <line style="stroke:#181818;stroke-width:1.0;stroke-dasharray:2.0,2.0;" x1="297.9361" x2="732.1245" y1="334.49" y2="334.49"/>
    <polygon fill="#181818" points="124.8938,344.49,114.8938,348.49,124.8938,352.49,120.8938,348.49" style="stroke:#181818;stroke-width:1.0;"/>
    <line style="stroke:#181818;stroke-width:1.0;stroke-dasharray:2.0,2.0;" x1="118.8938" x2="286.9361" y1="348.49" y2="348.49"/>
    <a href="" target="_top" title="" xlink:actuate="onRequest" xlink:href="" xlink:show="new" xlink:title="" xlink:type="simple">
      <polygon fill="#181818" points="270.9361,383.196,280.9361,387.196,270.9361,391.196,274.9361,387.196" style="stroke:#181818;stroke-width:1.0;"/>
      <line style="stroke:#181818;stroke-width:1.0;" x1="113.8938" x2="276.9361" y1="387.196" y2="387.196"/>
      <text fill="#000000" font-family="sans-serif" font-size="13" lengthAdjust="spacing" textLength="131.2481" x="120.8938" y="381.387">resolve_option_path()</text>
    </a>
    <a href="" target="_top" title="" xlink:actuate="onRequest" xlink:href="" xlink:show="new" xlink:title="" xlink:type="simple">
      <polygon fill="#181818" points="270.9361,444.902,280.9361,448.902,270.9361,452.902,274.9361,448.902" style="stroke:#181818;stroke-width:1.0;"/>
      <line style="stroke:#181818;stroke-width:1.0;" x1="113.8938" x2="276.9361" y1="448.902" y2="448.902"/>
      <text fill="#000000" font-family="sans-serif" font-size="13" lengthAdjust="spacing" textLength="131.2481" x="120.8938" y="443.093">resolve_option_path()</text>
    </a>
    <path d="M20,493.902 L93.288,493.902 L93.288,503.608 L83.288,513.608 L20,513.608 L20,493.902 " fill="#EEEEEE" style="stroke:#000000;stroke-width:1.5;"/>
    <rect fill="none" height="161.8241" style="stroke:#000000;stroke-width:1.5;" width="388.0848" x="20" y="493.902"/>
    <text fill="#000000" font-family="sans-serif" font-size="13" font-weight="bold" lengthAdjust="spacing" textLength="28.288" x="35" y="508.799">loop</text>
    <text fill="#000000" font-family="sans-serif" font-size="11" font-weight="bold" lengthAdjust="spacing" textLength="59.1136" x="108.288" y="507.6609">[diagrams]</text>
    <path d="M30,520.608 L92.459,520.608 L92.459,530.314 L82.459,540.314 L30,540.314 L30,520.608 " fill="#EEEEEE" style="stroke:#000000;stroke-width:1.5;"/>
    <rect fill="none" height="128.118" style="stroke:#000000;stroke-width:1.5;" width="368.0848" x="30" y="520.608"/>
    <text fill="#000000" font-family="sans-serif" font-size="13" font-weight="bold" lengthAdjust="spacing" textLength="17.459" x="45" y="535.505">alt</text>
    <text fill="#000000" font-family="sans-serif" font-size="11" font-weight="bold" lengthAdjust="spacing" textLength="166.7038" x="107.459" y="534.3669">[has_key(d.second, "include!")]</text>
    <a href="" target="_top" title="" xlink:actuate="onRequest" xlink:href="" xlink:show="new" xlink:title="" xlink:type="simple">
      <polygon fill="#181818" points="270.9361,560.0201,280.9361,564.0201,270.9361,568.0201,274.9361,564.0201" style="stroke:#181818;stroke-width:1.0;"/>
      <line style="stroke:#181818;stroke-width:1.0;" x1="113.8938" x2="276.9361" y1="564.0201" y2="564.0201"/>
      <text fill="#000000" font-family="sans-serif" font-size="13" font-weight="bold" lengthAdjust="spacing" textLength="4.303" x="120.8938" y="558.2111">[</text>
      <text fill="#000000" font-family="sans-serif" font-size="13" lengthAdjust="spacing" textLength="56.03" x="125.1968" y="558.2111">has_key()</text>
      <text fill="#000000" font-family="sans-serif" font-size="13" font-weight="bold" lengthAdjust="spacing" textLength="4.303" x="181.2268" y="558.2111">]</text>
    </a>
    <polygon fill="#FEFFDD" points="282,577.0201,293,577.0201,303,589.0201,293,602.0201,282,602.0201,272,589.0201,282,577.0201" style="stroke:#181818;stroke-width:0.5;"/>
    <text fill="#000000" font-family="sans-serif" font-size="13" lengthAdjust="spacing" textLength="7.163" x="284" y="594.9171">*</text>
    <polygon fill="#181818" points="124.8938,636.7261,114.8938,640.7261,124.8938,644.7261,120.8938,640.7261" style="stroke:#181818;stroke-width:1.0;"/>
    <line style="stroke:#181818;stroke-width:1.0;stroke-dasharray:2.0,2.0;" x1="118.8938" x2="286.9361" y1="640.7261" y2="640.7261"/>
    <path d="M30,669.7261 L92.459,669.7261 L92.459,679.4321 L82.459,689.4321 L30,689.4321 L30,669.7261 " fill="#EEEEEE" style="stroke:#000000;stroke-width:1.5;"/>
    <rect fill="none" height="228.2361" style="stroke:#000000;stroke-width:1.5;" width="1442.461" x="30" y="669.7261"/>
    <text fill="#000000" font-family="sans-serif" font-size="13" font-weight="bold" lengthAdjust="spacing" textLength="17.459" x="45" y="684.6231">alt</text>
    <text fill="#000000" font-family="sans-serif" font-size="11" font-weight="bold" lengthAdjust="spacing" textLength="44.7147" x="107.459" y="683.485">[inherit]</text>
    <a href="" target="_top" title="" xlink:actuate="onRequest" xlink:href="" xlink:show="new" xlink:title="" xlink:type="simple">
      <polygon fill="#181818" points="1112.7961,709.1381,1122.7961,713.1381,1112.7961,717.1381,1116.7961,713.1381" style="stroke:#181818;stroke-width:1.0;"/>
      <line style="stroke:#181818;stroke-width:1.0;" x1="113.8938" x2="1118.7961" y1="713.1381" y2="713.1381"/>
      <text fill="#000000" font-family="sans-serif" font-size="13" lengthAdjust="spacing" textLength="47.9701" x="120.8938" y="707.3291">inherit()</text>
    </a>
    <path d="M1058.1642,728.1381 L1131.4523,728.1381 L1131.4523,737.8441 L1121.4523,747.8441 L1058.1642,747.8441 L1058.1642,728.1381 " fill="#EEEEEE" style="stroke:#000000;stroke-width:1.5;"/>
    <rect fill="none" height="162.8241" style="stroke:#000000;stroke-width:1.5;" width="404.2967" x="1058.1642" y="728.1381"/>
    <text fill="#000000" font-family="sans-serif" font-size="13" font-weight="bold" lengthAdjust="spacing" textLength="28.288" x="1073.1642" y="743.0351">loop</text>
    <text fill="#000000" font-family="sans-serif" font-size="11" font-weight="bold" lengthAdjust="spacing" textLength="59.1136" x="1146.4523" y="741.897">[diagrams]</text>
    <a href="" target="_top" title="" xlink:actuate="onRequest" xlink:href="" xlink:show="new" xlink:title="" xlink:type="simple">
      <polygon fill="#181818" points="1299.9444,767.5501,1309.9444,771.5501,1299.9444,775.5501,1303.9444,771.5501" style="stroke:#181818;stroke-width:1.0;"/>
      <line style="stroke:#181818;stroke-width:1.0;" x1="1134.7961" x2="1305.9444" y1="771.5501" y2="771.5501"/>
      <text fill="#000000" font-family="sans-serif" font-size="13" lengthAdjust="spacing" textLength="47.9701" x="1141.7961" y="765.7411">inherit()</text>
    </a>
    <path d="M1068.1642,816.5501 L1130.6232,816.5501 L1130.6232,826.2562 L1120.6232,836.2562 L1068.1642,836.2562 L1068.1642,816.5501 " fill="#EEEEEE" style="stroke:#000000;stroke-width:1.5;"/>
    <rect fill="none" height="67.412" style="stroke:#000000;stroke-width:1.5;" width="384.2967" x="1068.1642" y="816.5501"/>
    <text fill="#000000" font-family="sans-serif" font-size="13" font-weight="bold" lengthAdjust="spacing" textLength="17.459" x="1083.1642" y="831.4472">alt</text>
    <text fill="#000000" font-family="sans-serif" font-size="11" font-weight="bold" lengthAdjust="spacing" textLength="139.523" x="1145.6232" y="830.3091">[static_cast &lt;bool&gt; (expr)]</text>
    <a href="" target="_top" title="" xlink:actuate="onRequest" xlink:href="" xlink:show="new" xlink:title="" xlink:type="simple">
      <polygon fill="#181818" points="1299.9444,855.9622,1309.9444,859.9622,1299.9444,863.9622,1303.9444,859.9622" style="stroke:#181818;stroke-width:1.0;"/>
      <line style="stroke:#181818;stroke-width:1.0;" x1="1134.7961" x2="1305.9444" y1="859.9622" y2="859.9622"/>
      <text fill="#000000" font-family="sans-serif" font-size="13" font-weight="bold" lengthAdjust="spacing" textLength="4.303" x="1141.7961" y="854.1532">[</text>
      <text fill="#000000" font-family="sans-serif" font-size="13" lengthAdjust="spacing" textLength="97.2531" x="1146.0991" y="854.1532">get_relative_to()</text>
      <text fill="#000000" font-family="sans-serif" font-size="13" font-weight="bold" lengthAdjust="spacing" textLength="4.303" x="1243.3522" y="854.1532">]</text>
    </a>
    <polygon fill="#181818" points="1145.7961,869.9622,1135.7961,873.9622,1145.7961,877.9622,1141.7961,873.9622" style="stroke:#181818;stroke-width:1.0;"/>
    <line style="stroke:#181818;stroke-width:1.0;stroke-dasharray:2.0,2.0;" x1="1139.7961" x2="1315.9444" y1="873.9622" y2="873.9622"/>
    <line style="stroke:#000000;stroke-width:1.0;stroke-dasharray:2.0,2.0;" x1="1068.1642" x2="1452.461" y1="882.9622" y2="882.9622"/>
    <a href="" target="_top" title="" xlink:actuate="onRequest" xlink:href="" xlink:show="new" xlink:title="" xlink:type="simple">
      <polygon fill="#181818" points="1112.7961,924.6682,1122.7961,928.6682,1112.7961,932.6682,1116.7961,928.6682" style="stroke:#181818;stroke-width:1.0;"/>
      <line style="stroke:#181818;stroke-width:1.0;" x1="113.8938" x2="1118.7961" y1="928.6682" y2="928.6682"/>
      <text fill="#000000" font-family="sans-serif" font-size="13" lengthAdjust="spacing" textLength="182.1042" x="120.8938" y="922.8592">initialize_diagram_templates()</text>
    </a>
    <a href="" target="_top" title="" xlink:actuate="onRequest" xlink:href="" xlink:show="new" xlink:title="" xlink:type="simple">
      <polygon fill="#181818" points="1547.6146,956.3742,1557.6146,960.3742,1547.6146,964.3742,1551.6146,960.3742" style="stroke:#181818;stroke-width:1.0;"/>
      <line style="stroke:#181818;stroke-width:1.0;" x1="1134.7961" x2="1553.6146" y1="960.3742" y2="960.3742"/>
      <text fill="#000000" font-family="sans-serif" font-size="13" lengthAdjust="spacing" textLength="224.8742" x="1141.7961" y="954.5652">get_predefined_diagram_templates()</text>
    </a>
    <polygon fill="#181818" points="1140.7961,970.3742,1130.7961,974.3742,1140.7961,978.3742,1136.7961,974.3742" style="stroke:#181818;stroke-width:1.0;"/>
    <line style="stroke:#181818;stroke-width:1.0;stroke-dasharray:2.0,2.0;" x1="1134.7961" x2="1563.6146" y1="974.3742" y2="974.3742"/>
    <line style="stroke:#000000;stroke-width:1.0;stroke-dasharray:2.0,2.0;" x1="9" x2="1686.7682" y1="983.3742" y2="983.3742"/>
    <text fill="#000000" font-family="sans-serif" font-size="11" font-weight="bold" lengthAdjust="spacing" textLength="95.9523" x="14" y="995.1331">[YAML::BadFile &amp;]</text>
    <line style="stroke:#000000;stroke-width:1.0;stroke-dasharray:2.0,2.0;" x1="9" x2="1686.7682" y1="1000.3561" y2="1000.3561"/>
    <text fill="#000000" font-family="sans-serif" font-size="11" font-weight="bold" lengthAdjust="spacing" textLength="109.5042" x="14" y="1012.115">[YAML::Exception &amp;]</text>
    <polygon fill="#181818" points="11,1025.338,1,1029.338,11,1033.338,7,1029.338" style="stroke:#181818;stroke-width:1.0;"/>
    <line style="stroke:#181818;stroke-width:1.0;stroke-dasharray:2.0,2.0;" x1="5" x2="107.8938" y1="1029.338" y2="1029.338"/>
  </g>
</svg>
