<svg xmlns="http://www.w3.org/2000/svg" xmlns:xlink="http://www.w3.org/1999/xlink" contentStyleType="text/css" data-diagram-type="SEQUENCE" height="2110px" preserveAspectRatio="none" style="width:2156px;height:2110px;background:#FFFFFF;" version="1.1" viewBox="0 0 2156 2110" width="2156px" zoomAndPan="magnify">
  <title>Configuration file loading sequence diagram</title>
  <defs>
    <style type="text/css">a:hover { text-decoration: underline; }</style>
  </defs>
  <g>
    <text fill="#000000" font-family="sans-serif" font-size="14" font-weight="bold" lengthAdjust="spacing" textLength="312.1709" x="923.1465" y="29.9659">Configuration file loading sequence diagram</text>
    <g>
      <title>src/config/config.h</title>
      <rect fill="#FFFFFF" height="1941.9105" style="stroke:#181818;stroke-width:1;" width="10" x="113.8938" y="112.8419"/>
    </g>
    <g>
      <title>src/config/yaml_decoders.cc</title>
      <rect fill="#FFFFFF" height="59.706" style="stroke:#181818;stroke-width:1;" width="10" x="292.9361" y="288.784"/>
    </g>
    <g>
      <title>src/config/yaml_decoders.cc</title>
      <rect fill="#FFFFFF" height="30" style="stroke:#181818;stroke-width:1;" width="10" x="292.9361" y="1141.3742"/>
    </g>
    <g>
      <title>src/config/yaml_decoders.cc</title>
      <rect fill="#FFFFFF" height="30" style="stroke:#181818;stroke-width:1;" width="10" x="292.9361" y="1203.0802"/>
    </g>
    <g>
      <title>src/config/yaml_decoders.cc</title>
      <rect fill="#FFFFFF" height="76.706" style="stroke:#181818;stroke-width:1;" width="10" x="292.9361" y="1291.4923"/>
    </g>
    <g>
      <title>src/config/yaml_decoders.cc</title>
      <rect fill="#FFFFFF" height="76.706" style="stroke:#181818;stroke-width:1;" width="10" x="292.9361" y="1453.3163"/>
    </g>
    <g>
      <title>::YAML::has_key(const YAML::Node &amp;,const std::string &amp;)::(lambda src/config/yaml_decoders.cc:110:46)</title>
      <rect fill="#FFFFFF" height="14" style="stroke:#181818;stroke-width:1;" width="10" x="745.8805" y="320.49"/>
    </g>
    <g>
      <title>src/util/logging.h</title>
      <rect fill="#FFFFFF" height="715.4722" style="stroke:#181818;stroke-width:1;" width="10" x="1162.243" y="387.196"/>
    </g>
    <g>
      <title>src/util/logging.h</title>
      <rect fill="#FFFFFF" height="25" style="stroke:#181818;stroke-width:1;" width="10" x="1167.243" y="426.902"/>
    </g>
    <g>
      <title>src/util/logging.h</title>
      <rect fill="#FFFFFF" height="439.9421" style="stroke:#181818;stroke-width:1;" width="10" x="1167.243" y="498.608"/>
    </g>
    <g>
      <title>src/util/logging.h</title>
      <rect fill="#FFFFFF" height="174.412" style="stroke:#181818;stroke-width:1;" width="10" x="1172.243" y="572.0201"/>
    </g>
    <g>
      <title>src/util/logging.h</title>
      <rect fill="#FFFFFF" height="28" style="stroke:#181818;stroke-width:1;" width="10" x="1177.243" y="616.7261"/>
    </g>
    <g>
      <title>src/util/logging.h</title>
      <rect fill="#FFFFFF" height="28" style="stroke:#181818;stroke-width:1;" width="10" x="1177.243" y="691.4321"/>
    </g>
    <g>
      <title>src/util/logging.h</title>
      <rect fill="#FFFFFF" height="87.706" style="stroke:#181818;stroke-width:1;" width="10" x="1172.243" y="828.8441"/>
    </g>
    <g>
      <title>src/util/logging.h</title>
      <rect fill="#FFFFFF" height="25" style="stroke:#181818;stroke-width:1;" width="10" x="1167.243" y="970.2562"/>
    </g>
    <g>
      <title>src/util/logging.h</title>
      <rect fill="#FFFFFF" height="60.706" style="stroke:#181818;stroke-width:1;" width="10" x="1167.243" y="1041.9622"/>
    </g>
    <g>
      <title>error::config_schema_error</title>
      <rect fill="#FFFFFF" height="30" style="stroke:#181818;stroke-width:1;" width="10" x="1429.2813" y="1636.1404"/>
    </g>
    <g>
      <title>config::config</title>
      <rect fill="#FFFFFF" height="184.8241" style="stroke:#181818;stroke-width:1;" width="10" x="1587.4918" y="1738.5524"/>
    </g>
    <g>
      <title>config::config</title>
      <rect fill="#FFFFFF" height="45.706" style="stroke:#181818;stroke-width:1;" width="10" x="1587.4918" y="1954.0825"/>
    </g>
    <g>
      <title>config::inheritable_diagram_options</title>
      <rect fill="#FFFFFF" height="30" style="stroke:#181818;stroke-width:1;" width="10" x="1774.6401" y="1796.9645"/>
    </g>
    <g>
      <title>config::inheritable_diagram_options</title>
      <rect fill="#FFFFFF" height="14" style="stroke:#181818;stroke-width:1;" width="10" x="1774.6401" y="1885.3765"/>
    </g>
    <g>
      <title>src/config/diagram_templates.h</title>
      <rect fill="#FFFFFF" height="14" style="stroke:#181818;stroke-width:1;" width="10" x="2022.3103" y="1985.7885"/>
    </g>
    <rect fill="transparent" height="1913.9105" style="stroke:#000000;stroke-width:1.5;" width="2139.4639" x="10" y="127.8419"/>
    <rect fill="transparent" height="111.118" style="stroke:#000000;stroke-width:1.5;" width="1063.6762" x="40" y="245.3719"/>
    <rect fill="transparent" height="242.8241" style="stroke:#000000;stroke-width:1.5;" width="280.4649" x="1093.6762" y="518.608"/>
    <rect fill="transparent" height="156.118" style="stroke:#000000;stroke-width:1.5;" width="280.4649" x="1093.6762" y="775.4321"/>
    <rect fill="transparent" height="303.9421" style="stroke:#000000;stroke-width:1.5;" width="408.0848" x="20" y="1248.0802"/>
    <rect fill="transparent" height="161.8241" style="stroke:#000000;stroke-width:1.5;" width="388.0848" x="30" y="1383.1983"/>
    <rect fill="transparent" height="128.118" style="stroke:#000000;stroke-width:1.5;" width="368.0848" x="40" y="1409.9043"/>
    <rect fill="transparent" height="115.118" style="stroke:#000000;stroke-width:1.5;" width="1520.8599" x="30" y="1566.0223"/>
    <rect fill="transparent" height="81.412" style="stroke:#000000;stroke-width:1.5;" width="1500.8599" x="40" y="1592.7284"/>
    <rect fill="transparent" height="228.2361" style="stroke:#000000;stroke-width:1.5;" width="1895.1567" x="40" y="1695.1404"/>
    <rect fill="transparent" height="162.8241" style="stroke:#000000;stroke-width:1.5;" width="404.2967" x="1520.8599" y="1753.5524"/>
    <rect fill="transparent" height="67.412" style="stroke:#000000;stroke-width:1.5;" width="384.2967" x="1530.8599" y="1841.9645"/>
    <g>
      <title>src/config/config.h</title>
      <rect fill="transparent" height="1993.6165" width="8" x="114.8938" y="79.1358"/>
      <line style="stroke:#181818;stroke-width:0.5;stroke-dasharray:5.0,5.0;" x1="118" x2="118" y1="79.1358" y2="2072.7523"/>
    </g>
    <g>
      <title>src/config/yaml_decoders.cc</title>
      <rect fill="transparent" height="1993.6165" width="8" x="293.9361" y="79.1358"/>
      <line style="stroke:#181818;stroke-width:0.5;stroke-dasharray:5.0,5.0;" x1="297.7875" x2="297.7875" y1="79.1358" y2="2072.7523"/>
    </g>
    <g>
      <title>::YAML::has_key(const YAML::Node &amp;,const std::string &amp;)::(lambda src/config/yaml_decoders.cc:110:46)</title>
      <rect fill="transparent" height="1993.6165" width="8" x="746.8805" y="79.1358"/>
      <line style="stroke:#181818;stroke-width:0.5;stroke-dasharray:5.0,5.0;" x1="750.0848" x2="750.0848" y1="79.1358" y2="2072.7523"/>
    </g>
    <g>
      <title>src/util/logging.h</title>
      <rect fill="transparent" height="1993.6165" width="8" x="1163.243" y="79.1358"/>
      <line style="stroke:#181818;stroke-width:0.5;stroke-dasharray:5.0,5.0;" x1="1166.6762" x2="1166.6762" y1="79.1358" y2="2072.7523"/>
    </g>
    <g>
      <title>error::config_schema_error</title>
      <rect fill="transparent" height="1993.6165" width="8" x="1430.2813" y="79.1358"/>
      <line style="stroke:#181818;stroke-width:0.5;stroke-dasharray:5.0,5.0;" x1="1433.7026" x2="1433.7026" y1="79.1358" y2="2072.7523"/>
    </g>
    <g>
      <title>config::config</title>
      <rect fill="transparent" height="1993.6165" width="8" x="1588.4918" y="79.1358"/>
      <line style="stroke:#181818;stroke-width:0.5;stroke-dasharray:5.0,5.0;" x1="1591.8599" x2="1591.8599" y1="79.1358" y2="2072.7523"/>
    </g>
    <g>
      <title>config::inheritable_diagram_options</title>
      <rect fill="transparent" height="1993.6165" width="8" x="1775.6401" y="79.1358"/>
      <line style="stroke:#181818;stroke-width:0.5;stroke-dasharray:5.0,5.0;" x1="1779.1236" x2="1779.1236" y1="79.1358" y2="2072.7523"/>
    </g>
    <g>
      <title>src/config/diagram_templates.h</title>
      <rect fill="transparent" height="1993.6165" width="8" x="2023.3103" y="79.1358"/>
      <line style="stroke:#181818;stroke-width:0.5;stroke-dasharray:5.0,5.0;" x1="2027.1567" x2="2027.1567" y1="79.1358" y2="2072.7523"/>
    </g>
    <rect fill="#E2E2F0" height="33.0679" rx="2.5" ry="2.5" style="stroke:#181818;stroke-width:0.5;" width="137.7875" x="50" y="45.0679"/>
    <text fill="#000000" font-family="sans-serif" font-size="14" lengthAdjust="spacing" textLength="123.7875" x="57" y="67.0339">src/config/config.h</text>
    <rect fill="#E2E2F0" height="33.0679" rx="2.5" ry="2.5" style="stroke:#181818;stroke-width:0.5;" width="137.7875" x="50" y="2071.7523"/>
    <text fill="#000000" font-family="sans-serif" font-size="14" lengthAdjust="spacing" textLength="123.7875" x="57" y="2093.7182">src/config/config.h</text>
    <rect fill="#E2E2F0" height="33.0679" rx="2.5" ry="2.5" style="stroke:#181818;stroke-width:0.5;" width="200.2973" x="197.7875" y="45.0679"/>
    <text fill="#000000" font-family="sans-serif" font-size="14" lengthAdjust="spacing" textLength="186.2973" x="204.7875" y="67.0339">src/config/yaml_decoders.cc</text>
    <rect fill="#E2E2F0" height="33.0679" rx="2.5" ry="2.5" style="stroke:#181818;stroke-width:0.5;" width="200.2973" x="197.7875" y="2071.7523"/>
    <text fill="#000000" font-family="sans-serif" font-size="14" lengthAdjust="spacing" textLength="186.2973" x="204.7875" y="2093.7182">src/config/yaml_decoders.cc</text>
    <a href="" target="_top" title="has_key(const YAML::Node &amp;,const std::string &amp;)::(lambda src/config/yaml_decoders.cc:110:46)" xlink:actuate="onRequest" xlink:href="" xlink:show="new" xlink:title="has_key(const YAML::Node &amp;,const std::string &amp;)::(lambda src/config/yaml_decoders.cc:110:46)" xlink:type="simple">
      <rect fill="#E2E2F0" height="33.0679" rx="2.5" ry="2.5" style="stroke:#181818;stroke-width:0.5;" width="685.5914" x="408.0848" y="45.0679"/>
      <text fill="#000000" font-family="sans-serif" font-size="14" lengthAdjust="spacing" textLength="671.5914" x="415.0848" y="67.0339">::YAML::has_key(const YAML::Node &amp;,const std::string &amp;)::(lambda src/config/yaml_decoders.cc:110:46)</text>
      <rect fill="#E2E2F0" height="33.0679" rx="2.5" ry="2.5" style="stroke:#181818;stroke-width:0.5;" width="685.5914" x="408.0848" y="2071.7523"/>
      <text fill="#000000" font-family="sans-serif" font-size="14" lengthAdjust="spacing" textLength="671.5914" x="415.0848" y="2093.7182">::YAML::has_key(const YAML::Node &amp;,const std::string &amp;)::(lambda src/config/yaml_decoders.cc:110:46)</text>
    </a>
    <rect fill="#E2E2F0" height="33.0679" rx="2.5" ry="2.5" style="stroke:#181818;stroke-width:0.5;" width="127.1336" x="1103.6762" y="45.0679"/>
    <text fill="#000000" font-family="sans-serif" font-size="14" lengthAdjust="spacing" textLength="113.1336" x="1110.6762" y="67.0339">src/util/logging.h</text>
    <rect fill="#E2E2F0" height="33.0679" rx="2.5" ry="2.5" style="stroke:#181818;stroke-width:0.5;" width="127.1336" x="1103.6762" y="2071.7523"/>
    <text fill="#000000" font-family="sans-serif" font-size="14" lengthAdjust="spacing" textLength="113.1336" x="1110.6762" y="2093.7182">src/util/logging.h</text>
    <a href="" target="_top" title="config_schema_error" xlink:actuate="onRequest" xlink:href="" xlink:show="new" xlink:title="config_schema_error" xlink:type="simple">
      <rect fill="#E2E2F0" height="33.0679" rx="2.5" ry="2.5" style="stroke:#181818;stroke-width:0.5;" width="193.1573" x="1337.7026" y="45.0679"/>
      <text fill="#000000" font-family="sans-serif" font-size="14" lengthAdjust="spacing" textLength="179.1573" x="1344.7026" y="67.0339">error::config_schema_error</text>
      <rect fill="#E2E2F0" height="33.0679" rx="2.5" ry="2.5" style="stroke:#181818;stroke-width:0.5;" width="193.1573" x="1337.7026" y="2071.7523"/>
      <text fill="#000000" font-family="sans-serif" font-size="14" lengthAdjust="spacing" textLength="179.1573" x="1344.7026" y="2093.7182">error::config_schema_error</text>
    </a>
    <a href="" target="_top" title="Represents entire configuration file" xlink:actuate="onRequest" xlink:href="" xlink:show="new" xlink:title="Represents entire configuration file" xlink:type="simple">
      <rect fill="#E2E2F0" height="33.0679" rx="2.5" ry="2.5" style="stroke:#181818;stroke-width:0.5;" width="103.2636" x="1540.8599" y="45.0679"/>
      <text fill="#000000" font-family="sans-serif" font-size="14" lengthAdjust="spacing" textLength="89.2636" x="1547.8599" y="67.0339">config::config</text>
      <rect fill="#E2E2F0" height="33.0679" rx="2.5" ry="2.5" style="stroke:#181818;stroke-width:0.5;" width="103.2636" x="1540.8599" y="2071.7523"/>
      <text fill="#000000" font-family="sans-serif" font-size="14" lengthAdjust="spacing" textLength="89.2636" x="1547.8599" y="2093.7182">config::config</text>
    </a>
    <a href="" target="_top" title="Represents subset of inheritable configuration options" xlink:actuate="onRequest" xlink:href="" xlink:show="new" xlink:title="Represents subset of inheritable configuration options" xlink:type="simple">
      <rect fill="#E2E2F0" height="33.0679" rx="2.5" ry="2.5" style="stroke:#181818;stroke-width:0.5;" width="251.0331" x="1654.1236" y="45.0679"/>
      <text fill="#000000" font-family="sans-serif" font-size="14" lengthAdjust="spacing" textLength="237.0331" x="1661.1236" y="67.0339">config::inheritable_diagram_options</text>
      <rect fill="#E2E2F0" height="33.0679" rx="2.5" ry="2.5" style="stroke:#181818;stroke-width:0.5;" width="251.0331" x="1654.1236" y="2071.7523"/>
      <text fill="#000000" font-family="sans-serif" font-size="14" lengthAdjust="spacing" textLength="237.0331" x="1661.1236" y="2093.7182">config::inheritable_diagram_options</text>
    </a>
    <rect fill="#E2E2F0" height="33.0679" rx="2.5" ry="2.5" style="stroke:#181818;stroke-width:0.5;" width="224.3072" x="1915.1567" y="45.0679"/>
    <text fill="#000000" font-family="sans-serif" font-size="14" lengthAdjust="spacing" textLength="210.3072" x="1922.1567" y="67.0339">src/config/diagram_templates.h</text>
    <rect fill="#E2E2F0" height="33.0679" rx="2.5" ry="2.5" style="stroke:#181818;stroke-width:0.5;" width="224.3072" x="1915.1567" y="2071.7523"/>
    <text fill="#000000" font-family="sans-serif" font-size="14" lengthAdjust="spacing" textLength="210.3072" x="1922.1567" y="2093.7182">src/config/diagram_templates.h</text>
    <g>
      <title>src/config/config.h</title>
      <rect fill="#FFFFFF" height="1941.9105" style="stroke:#181818;stroke-width:1;" width="10" x="113.8938" y="112.8419"/>
    </g>
    <g>
      <title>src/config/yaml_decoders.cc</title>
      <rect fill="#FFFFFF" height="59.706" style="stroke:#181818;stroke-width:1;" width="10" x="292.9361" y="288.784"/>
    </g>
    <g>
      <title>src/config/yaml_decoders.cc</title>
      <rect fill="#FFFFFF" height="30" style="stroke:#181818;stroke-width:1;" width="10" x="292.9361" y="1141.3742"/>
    </g>
    <g>
      <title>src/config/yaml_decoders.cc</title>
      <rect fill="#FFFFFF" height="30" style="stroke:#181818;stroke-width:1;" width="10" x="292.9361" y="1203.0802"/>
    </g>
    <g>
      <title>src/config/yaml_decoders.cc</title>
      <rect fill="#FFFFFF" height="76.706" style="stroke:#181818;stroke-width:1;" width="10" x="292.9361" y="1291.4923"/>
    </g>
    <g>
      <title>src/config/yaml_decoders.cc</title>
      <rect fill="#FFFFFF" height="76.706" style="stroke:#181818;stroke-width:1;" width="10" x="292.9361" y="1453.3163"/>
    </g>
    <g>
      <title>::YAML::has_key(const YAML::Node &amp;,const std::string &amp;)::(lambda src/config/yaml_decoders.cc:110:46)</title>
      <rect fill="#FFFFFF" height="14" style="stroke:#181818;stroke-width:1;" width="10" x="745.8805" y="320.49"/>
    </g>
    <g>
      <title>src/util/logging.h</title>
      <rect fill="#FFFFFF" height="715.4722" style="stroke:#181818;stroke-width:1;" width="10" x="1162.243" y="387.196"/>
    </g>
    <g>
      <title>src/util/logging.h</title>
      <rect fill="#FFFFFF" height="25" style="stroke:#181818;stroke-width:1;" width="10" x="1167.243" y="426.902"/>
    </g>
    <g>
      <title>src/util/logging.h</title>
      <rect fill="#FFFFFF" height="439.9421" style="stroke:#181818;stroke-width:1;" width="10" x="1167.243" y="498.608"/>
    </g>
    <g>
      <title>src/util/logging.h</title>
      <rect fill="#FFFFFF" height="174.412" style="stroke:#181818;stroke-width:1;" width="10" x="1172.243" y="572.0201"/>
    </g>
    <g>
      <title>src/util/logging.h</title>
      <rect fill="#FFFFFF" height="28" style="stroke:#181818;stroke-width:1;" width="10" x="1177.243" y="616.7261"/>
    </g>
    <g>
      <title>src/util/logging.h</title>
      <rect fill="#FFFFFF" height="28" style="stroke:#181818;stroke-width:1;" width="10" x="1177.243" y="691.4321"/>
    </g>
    <g>
      <title>src/util/logging.h</title>
      <rect fill="#FFFFFF" height="87.706" style="stroke:#181818;stroke-width:1;" width="10" x="1172.243" y="828.8441"/>
    </g>
    <g>
      <title>src/util/logging.h</title>
      <rect fill="#FFFFFF" height="25" style="stroke:#181818;stroke-width:1;" width="10" x="1167.243" y="970.2562"/>
    </g>
    <g>
      <title>src/util/logging.h</title>
      <rect fill="#FFFFFF" height="60.706" style="stroke:#181818;stroke-width:1;" width="10" x="1167.243" y="1041.9622"/>
    </g>
    <g>
      <title>error::config_schema_error</title>
      <rect fill="#FFFFFF" height="30" style="stroke:#181818;stroke-width:1;" width="10" x="1429.2813" y="1636.1404"/>
    </g>
    <g>
      <title>config::config</title>
      <rect fill="#FFFFFF" height="184.8241" style="stroke:#181818;stroke-width:1;" width="10" x="1587.4918" y="1738.5524"/>
    </g>
    <g>
      <title>config::config</title>
      <rect fill="#FFFFFF" height="45.706" style="stroke:#181818;stroke-width:1;" width="10" x="1587.4918" y="1954.0825"/>
    </g>
    <g>
      <title>config::inheritable_diagram_options</title>
      <rect fill="#FFFFFF" height="30" style="stroke:#181818;stroke-width:1;" width="10" x="1774.6401" y="1796.9645"/>
    </g>
    <g>
      <title>config::inheritable_diagram_options</title>
      <rect fill="#FFFFFF" height="14" style="stroke:#181818;stroke-width:1;" width="10" x="1774.6401" y="1885.3765"/>
    </g>
    <g>
      <title>src/config/diagram_templates.h</title>
      <rect fill="#FFFFFF" height="14" style="stroke:#181818;stroke-width:1;" width="10" x="2022.3103" y="1985.7885"/>
    </g>
    <polygon fill="#181818" points="101.8938,108.8419,111.8938,112.8419,101.8938,116.8419,105.8938,112.8419" style="stroke:#181818;stroke-width:1;"/>
    <line style="stroke:#181818;stroke-width:1;" x1="0" x2="107.8938" y1="112.8419" y2="112.8419"/>
    <text fill="#000000" font-family="sans-serif" font-size="13" lengthAdjust="spacing" textLength="34.307" x="7" y="107.0328">load()</text>
    <path d="M10,127.8419 L73.941,127.8419 L73.941,137.5479 L63.941,147.5479 L10,147.5479 L10,127.8419 " fill="#EEEEEE" style="stroke:#000000;stroke-width:1.5;"/>
    <rect fill="transparent" height="1913.9105" style="stroke:#000000;stroke-width:1.5;" width="2139.4639" x="10" y="127.8419"/>
    <text fill="#000000" font-family="sans-serif" font-size="13" font-weight="bold" lengthAdjust="spacing" textLength="18.941" x="25" y="142.7389">try</text>
    <path d="M29,152.5479 L29,232.5479 L206,232.5479 L206,162.5479 L196,152.5479 L29,152.5479 " fill="#FEFFDD" style="stroke:#181818;stroke-width:0.5;"/>
    <path d="M196,152.5479 L196,162.5479 L206,162.5479 L196,152.5479 " fill="#FEFFDD" style="stroke:#181818;stroke-width:0.5;"/>
    <text fill="#000000" font-family="sans-serif" font-size="13" lengthAdjust="spacing" textLength="147.0431" x="35" y="171.4449">Store the parent path of</text>
    <text fill="#000000" font-family="sans-serif" font-size="13" lengthAdjust="spacing" textLength="156.9101" x="35" y="189.1509">the config_file to properly</text>
    <text fill="#000000" font-family="sans-serif" font-size="13" lengthAdjust="spacing" textLength="145.1841" x="35" y="206.8569">resolve relative paths in</text>
    <text fill="#000000" font-family="sans-serif" font-size="13" lengthAdjust="spacing" textLength="59.8521" x="35" y="224.5629">config file</text>
    <path d="M40,245.3719 L102.459,245.3719 L102.459,255.0779 L92.459,265.0779 L40,265.0779 L40,245.3719 " fill="#EEEEEE" style="stroke:#000000;stroke-width:1.5;"/>
    <rect fill="transparent" height="111.118" style="stroke:#000000;stroke-width:1.5;" width="1063.6762" x="40" y="245.3719"/>
    <text fill="#000000" font-family="sans-serif" font-size="13" font-weight="bold" lengthAdjust="spacing" textLength="17.459" x="55" y="260.2689">alt</text>
    <text fill="#000000" font-family="sans-serif" font-size="11" font-weight="bold" lengthAdjust="spacing" textLength="170.2567" x="117.459" y="259.1308">[has_key(doc, "__parent_path")]</text>
    <a href="" target="_top" title="" xlink:actuate="onRequest" xlink:href="" xlink:show="new" xlink:title="" xlink:type="simple">
      <polygon fill="#181818" points="280.9361,284.784,290.9361,288.784,280.9361,292.784,284.9361,288.784" style="stroke:#181818;stroke-width:1;"/>
      <line style="stroke:#181818;stroke-width:1;" x1="123.8938" x2="286.9361" y1="288.784" y2="288.784"/>
      <text fill="#000000" font-family="sans-serif" font-size="13" font-weight="bold" lengthAdjust="spacing" textLength="4.303" x="130.8938" y="282.975">[</text>
      <text fill="#000000" font-family="sans-serif" font-size="13" lengthAdjust="spacing" textLength="56.03" x="135.1968" y="282.975">has_key()</text>
      <text fill="#000000" font-family="sans-serif" font-size="13" font-weight="bold" lengthAdjust="spacing" textLength="4.303" x="191.2268" y="282.975">]</text>
    </a>
    <a href="" target="_top" title="" xlink:actuate="onRequest" xlink:href="" xlink:show="new" xlink:title="" xlink:type="simple">
      <polygon fill="#181818" points="733.8805,316.49,743.8805,320.49,733.8805,324.49,737.8805,320.49" style="stroke:#181818;stroke-width:1;"/>
      <line style="stroke:#181818;stroke-width:1;" x1="302.9361" x2="739.8805" y1="320.49" y2="320.49"/>
      <text fill="#000000" font-family="sans-serif" font-size="13" lengthAdjust="spacing" textLength="105.8201" x="309.9361" y="314.681">operator()() const</text>
    </a>
    <polygon fill="#181818" points="313.9361,330.49,303.9361,334.49,313.9361,338.49,309.9361,334.49" style="stroke:#181818;stroke-width:1;"/>
    <line style="stroke:#181818;stroke-width:1;stroke-dasharray:2.0,2.0;" x1="307.9361" x2="749.8805" y1="334.49" y2="334.49"/>
    <polygon fill="#181818" points="134.8938,344.49,124.8938,348.49,134.8938,352.49,130.8938,348.49" style="stroke:#181818;stroke-width:1;"/>
    <line style="stroke:#181818;stroke-width:1;stroke-dasharray:2.0,2.0;" x1="128.8938" x2="296.9361" y1="348.49" y2="348.49"/>
    <a href="" target="_top" title="" xlink:actuate="onRequest" xlink:href="" xlink:show="new" xlink:title="" xlink:type="simple">
      <polygon fill="#181818" points="1150.243,383.196,1160.243,387.196,1150.243,391.196,1154.243,387.196" style="stroke:#181818;stroke-width:1;"/>
      <line style="stroke:#181818;stroke-width:1;" x1="123.8938" x2="1156.243" y1="387.196" y2="387.196"/>
      <text fill="#000000" font-family="sans-serif" font-size="13" lengthAdjust="spacing" textLength="233.0383" x="130.8938" y="381.387">log_impl&lt;const char *,int,std::string&gt;()</text>
    </a>
    <a href="" target="_top" title="" xlink:actuate="onRequest" xlink:href="" xlink:show="new" xlink:title="" xlink:type="simple">
      <line style="stroke:#181818;stroke-width:1;" x1="1172.243" x2="1219.243" y1="413.902" y2="413.902"/>
      <line style="stroke:#181818;stroke-width:1;" x1="1219.243" x2="1219.243" y1="413.902" y2="426.902"/>
      <line style="stroke:#181818;stroke-width:1;" x1="1178.243" x2="1219.243" y1="426.902" y2="426.902"/>
      <polygon fill="#181818" points="1188.243,422.902,1178.243,426.902,1188.243,430.902,1184.243,426.902" style="stroke:#181818;stroke-width:1;"/>
      <text fill="#000000" font-family="sans-serif" font-size="13" lengthAdjust="spacing" textLength="80.1321" x="1184.243" y="408.093">logger_type()</text>
    </a>
    <line style="stroke:#181818;stroke-width:1;stroke-dasharray:2.0,2.0;" x1="1177.243" x2="1219.243" y1="450.902" y2="450.902"/>
    <line style="stroke:#181818;stroke-width:1;stroke-dasharray:2.0,2.0;" x1="1219.243" x2="1219.243" y1="450.902" y2="463.902"/>
    <line style="stroke:#181818;stroke-width:1;stroke-dasharray:2.0,2.0;" x1="1172.243" x2="1219.243" y1="463.902" y2="463.902"/>
    <polygon fill="#181818" points="1182.243,459.902,1172.243,463.902,1182.243,467.902,1178.243,463.902" style="stroke:#181818;stroke-width:1;"/>
    <a href="" target="_top" title="" xlink:actuate="onRequest" xlink:href="" xlink:show="new" xlink:title="" xlink:type="simple">
      <line style="stroke:#181818;stroke-width:1;" x1="1172.243" x2="1219.243" y1="485.608" y2="485.608"/>
      <line style="stroke:#181818;stroke-width:1;" x1="1219.243" x2="1219.243" y1="485.608" y2="498.608"/>
      <line style="stroke:#181818;stroke-width:1;" x1="1178.243" x2="1219.243" y1="498.608" y2="498.608"/>
      <polygon fill="#181818" points="1188.243,494.608,1178.243,498.608,1188.243,502.608,1184.243,498.608" style="stroke:#181818;stroke-width:1;"/>
      <text fill="#000000" font-family="sans-serif" font-size="13" lengthAdjust="spacing" textLength="233.0383" x="1184.243" y="479.799">log_impl&lt;const char *,int,std::string&gt;()</text>
    </a>
    <path d="M1093.6762,518.608 L1156.1352,518.608 L1156.1352,528.314 L1146.1352,538.314 L1093.6762,538.314 L1093.6762,518.608 " fill="#EEEEEE" style="stroke:#000000;stroke-width:1.5;"/>
    <rect fill="transparent" height="242.8241" style="stroke:#000000;stroke-width:1.5;" width="280.4649" x="1093.6762" y="518.608"/>
    <text fill="#000000" font-family="sans-serif" font-size="13" font-weight="bold" lengthAdjust="spacing" textLength="17.459" x="1108.6762" y="533.505">alt</text>
    <text fill="#000000" font-family="sans-serif" font-size="11" font-weight="bold" lengthAdjust="spacing" textLength="152.6569" x="1171.1352" y="532.3669">[type == logger_type_t::text]</text>
    <line style="stroke:#000000;stroke-width:1;stroke-dasharray:2.0,2.0;" x1="1093.6762" x2="1374.1412" y1="539.314" y2="539.314"/>
    <a href="" target="_top" title="" xlink:actuate="onRequest" xlink:href="" xlink:show="new" xlink:title="" xlink:type="simple">
      <line style="stroke:#181818;stroke-width:1;" x1="1177.243" x2="1224.243" y1="559.0201" y2="559.0201"/>
      <line style="stroke:#181818;stroke-width:1;" x1="1224.243" x2="1224.243" y1="559.0201" y2="572.0201"/>
      <line style="stroke:#181818;stroke-width:1;" x1="1183.243" x2="1224.243" y1="572.0201" y2="572.0201"/>
      <polygon fill="#181818" points="1193.243,568.0201,1183.243,572.0201,1193.243,576.0201,1189.243,572.0201" style="stroke:#181818;stroke-width:1;"/>
      <text fill="#000000" font-family="sans-serif" font-size="13" lengthAdjust="spacing" textLength="157.8982" x="1189.243" y="553.2111">escape_json&lt;std::string&gt;()</text>
    </a>
    <a href="" target="_top" title="" xlink:actuate="onRequest" xlink:href="" xlink:show="new" xlink:title="" xlink:type="simple">
      <line style="stroke:#181818;stroke-width:1;" x1="1187.243" x2="1229.243" y1="608.7261" y2="608.7261"/>
      <line style="stroke:#181818;stroke-width:1;" x1="1229.243" x2="1229.243" y1="608.7261" y2="621.7261"/>
      <line style="stroke:#181818;stroke-width:1;" x1="1188.243" x2="1229.243" y1="621.7261" y2="621.7261"/>
      <polygon fill="#181818" points="1198.243,617.7261,1188.243,621.7261,1198.243,625.7261,1194.243,621.7261" style="stroke:#181818;stroke-width:1;"/>
      <text fill="#000000" font-family="sans-serif" font-size="13" lengthAdjust="spacing" textLength="122.9151" x="1194.243" y="602.9171">escape_json_string()</text>
    </a>
    <a href="" target="_top" title="" xlink:actuate="onRequest" xlink:href="" xlink:show="new" xlink:title="" xlink:type="simple">
      <line style="stroke:#181818;stroke-width:1;" x1="1187.243" x2="1229.243" y1="683.4321" y2="683.4321"/>
      <line style="stroke:#181818;stroke-width:1;" x1="1229.243" x2="1229.243" y1="683.4321" y2="696.4321"/>
      <line style="stroke:#181818;stroke-width:1;" x1="1188.243" x2="1229.243" y1="696.4321" y2="696.4321"/>
      <polygon fill="#181818" points="1198.243,692.4321,1188.243,696.4321,1198.243,700.4321,1194.243,696.4321" style="stroke:#181818;stroke-width:1;"/>
      <text fill="#000000" font-family="sans-serif" font-size="13" lengthAdjust="spacing" textLength="122.9151" x="1194.243" y="677.6231">escape_json_string()</text>
    </a>
    <line style="stroke:#181818;stroke-width:1;stroke-dasharray:2.0,2.0;" x1="1182.243" x2="1224.243" y1="745.4321" y2="745.4321"/>
    <line style="stroke:#181818;stroke-width:1;stroke-dasharray:2.0,2.0;" x1="1224.243" x2="1224.243" y1="745.4321" y2="758.4321"/>
    <line style="stroke:#181818;stroke-width:1;stroke-dasharray:2.0,2.0;" x1="1177.243" x2="1224.243" y1="758.4321" y2="758.4321"/>
    <polygon fill="#181818" points="1187.243,754.4321,1177.243,758.4321,1187.243,762.4321,1183.243,758.4321" style="stroke:#181818;stroke-width:1;"/>
    <path d="M1093.6762,775.4321 L1156.1352,775.4321 L1156.1352,785.1381 L1146.1352,795.1381 L1093.6762,795.1381 L1093.6762,775.4321 " fill="#EEEEEE" style="stroke:#000000;stroke-width:1.5;"/>
    <rect fill="transparent" height="156.118" style="stroke:#000000;stroke-width:1.5;" width="280.4649" x="1093.6762" y="775.4321"/>
    <text fill="#000000" font-family="sans-serif" font-size="13" font-weight="bold" lengthAdjust="spacing" textLength="17.459" x="1108.6762" y="790.3291">alt</text>
    <text fill="#000000" font-family="sans-serif" font-size="11" font-weight="bold" lengthAdjust="spacing" textLength="152.6569" x="1171.1352" y="789.191">[type == logger_type_t::text]</text>
    <line style="stroke:#000000;stroke-width:1;stroke-dasharray:2.0,2.0;" x1="1093.6762" x2="1374.1412" y1="796.1381" y2="796.1381"/>
    <a href="" target="_top" title="" xlink:actuate="onRequest" xlink:href="" xlink:show="new" xlink:title="" xlink:type="simple">
      <line style="stroke:#181818;stroke-width:1;" x1="1177.243" x2="1224.243" y1="815.8441" y2="815.8441"/>
      <line style="stroke:#181818;stroke-width:1;" x1="1224.243" x2="1224.243" y1="815.8441" y2="828.8441"/>
      <line style="stroke:#181818;stroke-width:1;" x1="1183.243" x2="1224.243" y1="828.8441" y2="828.8441"/>
      <polygon fill="#181818" points="1193.243,824.8441,1183.243,828.8441,1193.243,832.8441,1189.243,828.8441" style="stroke:#181818;stroke-width:1;"/>
      <text fill="#000000" font-family="sans-serif" font-size="13" lengthAdjust="spacing" textLength="157.8982" x="1189.243" y="810.0351">escape_json&lt;std::string&gt;()</text>
    </a>
    <polygon fill="#FEFFDD" points="1161,846.8441,1172,846.8441,1182,858.8441,1172,871.8441,1161,871.8441,1151,858.8441,1161,846.8441" style="stroke:#181818;stroke-width:0.5;"/>
    <text fill="#000000" font-family="sans-serif" font-size="13" lengthAdjust="spacing" textLength="7.163" x="1163" y="864.7411">*</text>
    <line style="stroke:#181818;stroke-width:1;stroke-dasharray:2.0,2.0;" x1="1182.243" x2="1224.243" y1="915.5501" y2="915.5501"/>
    <line style="stroke:#181818;stroke-width:1;stroke-dasharray:2.0,2.0;" x1="1224.243" x2="1224.243" y1="915.5501" y2="928.5501"/>
    <line style="stroke:#181818;stroke-width:1;stroke-dasharray:2.0,2.0;" x1="1177.243" x2="1224.243" y1="928.5501" y2="928.5501"/>
    <polygon fill="#181818" points="1187.243,924.5501,1177.243,928.5501,1187.243,932.5501,1183.243,928.5501" style="stroke:#181818;stroke-width:1;"/>
    <a href="" target="_top" title="" xlink:actuate="onRequest" xlink:href="" xlink:show="new" xlink:title="" xlink:type="simple">
      <line style="stroke:#181818;stroke-width:1;" x1="1172.243" x2="1219.243" y1="957.2562" y2="957.2562"/>
      <line style="stroke:#181818;stroke-width:1;" x1="1219.243" x2="1219.243" y1="957.2562" y2="970.2562"/>
      <line style="stroke:#181818;stroke-width:1;" x1="1178.243" x2="1219.243" y1="970.2562" y2="970.2562"/>
      <polygon fill="#181818" points="1188.243,966.2562,1178.243,970.2562,1188.243,974.2562,1184.243,970.2562" style="stroke:#181818;stroke-width:1;"/>
      <text fill="#000000" font-family="sans-serif" font-size="13" lengthAdjust="spacing" textLength="80.1321" x="1184.243" y="951.4472">logger_type()</text>
    </a>
    <line style="stroke:#181818;stroke-width:1;stroke-dasharray:2.0,2.0;" x1="1177.243" x2="1219.243" y1="994.2562" y2="994.2562"/>
    <line style="stroke:#181818;stroke-width:1;stroke-dasharray:2.0,2.0;" x1="1219.243" x2="1219.243" y1="994.2562" y2="1007.2562"/>
    <line style="stroke:#181818;stroke-width:1;stroke-dasharray:2.0,2.0;" x1="1172.243" x2="1219.243" y1="1007.2562" y2="1007.2562"/>
    <polygon fill="#181818" points="1182.243,1003.2562,1172.243,1007.2562,1182.243,1011.2562,1178.243,1007.2562" style="stroke:#181818;stroke-width:1;"/>
    <a href="" target="_top" title="" xlink:actuate="onRequest" xlink:href="" xlink:show="new" xlink:title="" xlink:type="simple">
      <line style="stroke:#181818;stroke-width:1;" x1="1172.243" x2="1219.243" y1="1028.9622" y2="1028.9622"/>
      <line style="stroke:#181818;stroke-width:1;" x1="1219.243" x2="1219.243" y1="1028.9622" y2="1041.9622"/>
      <line style="stroke:#181818;stroke-width:1;" x1="1178.243" x2="1219.243" y1="1041.9622" y2="1041.9622"/>
      <polygon fill="#181818" points="1188.243,1037.9622,1178.243,1041.9622,1188.243,1045.9622,1184.243,1041.9622" style="stroke:#181818;stroke-width:1;"/>
      <text fill="#000000" font-family="sans-serif" font-size="13" lengthAdjust="spacing" textLength="233.0383" x="1184.243" y="1023.1532">log_impl&lt;const char *,int,std::string&gt;()</text>
    </a>
    <polygon fill="#FEFFDD" points="1161,1059.9622,1172,1059.9622,1182,1071.9622,1172,1084.9622,1161,1084.9622,1151,1071.9622,1161,1059.9622" style="stroke:#181818;stroke-width:0.5;"/>
    <text fill="#000000" font-family="sans-serif" font-size="13" lengthAdjust="spacing" textLength="7.163" x="1163" y="1077.8592">*</text>
    <a href="" target="_top" title="" xlink:actuate="onRequest" xlink:href="" xlink:show="new" xlink:title="" xlink:type="simple">
      <polygon fill="#181818" points="280.9361,1137.3742,290.9361,1141.3742,280.9361,1145.3742,284.9361,1141.3742" style="stroke:#181818;stroke-width:1;"/>
      <line style="stroke:#181818;stroke-width:1;" x1="123.8938" x2="286.9361" y1="1141.3742" y2="1141.3742"/>
      <text fill="#000000" font-family="sans-serif" font-size="13" lengthAdjust="spacing" textLength="131.2481" x="130.8938" y="1135.5652">resolve_option_path()</text>
    </a>
    <a href="" target="_top" title="" xlink:actuate="onRequest" xlink:href="" xlink:show="new" xlink:title="" xlink:type="simple">
      <polygon fill="#181818" points="280.9361,1199.0802,290.9361,1203.0802,280.9361,1207.0802,284.9361,1203.0802" style="stroke:#181818;stroke-width:1;"/>
      <line style="stroke:#181818;stroke-width:1;" x1="123.8938" x2="286.9361" y1="1203.0802" y2="1203.0802"/>
      <text fill="#000000" font-family="sans-serif" font-size="13" lengthAdjust="spacing" textLength="131.2481" x="130.8938" y="1197.2712">resolve_option_path()</text>
    </a>
    <path d="M20,1248.0802 L82.459,1248.0802 L82.459,1257.7862 L72.459,1267.7862 L20,1267.7862 L20,1248.0802 " fill="#EEEEEE" style="stroke:#000000;stroke-width:1.5;"/>
    <rect fill="transparent" height="303.9421" style="stroke:#000000;stroke-width:1.5;" width="408.0848" x="20" y="1248.0802"/>
    <text fill="#000000" font-family="sans-serif" font-size="13" font-weight="bold" lengthAdjust="spacing" textLength="17.459" x="35" y="1262.9772">alt</text>
    <text fill="#000000" font-family="sans-serif" font-size="11" font-weight="bold" lengthAdjust="spacing" textLength="145.8149" x="97.459" y="1261.8391">[has_key(doc, "diagrams")]</text>
    <a href="" target="_top" title="" xlink:actuate="onRequest" xlink:href="" xlink:show="new" xlink:title="" xlink:type="simple">
      <polygon fill="#181818" points="280.9361,1287.4923,290.9361,1291.4923,280.9361,1295.4923,284.9361,1291.4923" style="stroke:#181818;stroke-width:1;"/>
      <line style="stroke:#181818;stroke-width:1;" x1="123.8938" x2="286.9361" y1="1291.4923" y2="1291.4923"/>
      <text fill="#000000" font-family="sans-serif" font-size="13" font-weight="bold" lengthAdjust="spacing" textLength="4.303" x="130.8938" y="1285.6833">[</text>
      <text fill="#000000" font-family="sans-serif" font-size="13" lengthAdjust="spacing" textLength="56.03" x="135.1968" y="1285.6833">has_key()</text>
      <text fill="#000000" font-family="sans-serif" font-size="13" font-weight="bold" lengthAdjust="spacing" textLength="4.303" x="191.2268" y="1285.6833">]</text>
    </a>
    <polygon fill="#FEFFDD" points="292,1304.4923,303,1304.4923,313,1316.4923,303,1329.4923,292,1329.4923,282,1316.4923,292,1304.4923" style="stroke:#181818;stroke-width:0.5;"/>
    <text fill="#000000" font-family="sans-serif" font-size="13" lengthAdjust="spacing" textLength="7.163" x="294" y="1322.3893">*</text>
    <polygon fill="#181818" points="134.8938,1364.1983,124.8938,1368.1983,134.8938,1372.1983,130.8938,1368.1983" style="stroke:#181818;stroke-width:1;"/>
    <line style="stroke:#181818;stroke-width:1;stroke-dasharray:2.0,2.0;" x1="128.8938" x2="296.9361" y1="1368.1983" y2="1368.1983"/>
    <path d="M30,1383.1983 L103.288,1383.1983 L103.288,1392.9043 L93.288,1402.9043 L30,1402.9043 L30,1383.1983 " fill="#EEEEEE" style="stroke:#000000;stroke-width:1.5;"/>
    <rect fill="transparent" height="161.8241" style="stroke:#000000;stroke-width:1.5;" width="388.0848" x="30" y="1383.1983"/>
    <text fill="#000000" font-family="sans-serif" font-size="13" font-weight="bold" lengthAdjust="spacing" textLength="28.288" x="45" y="1398.0953">loop</text>
    <text fill="#000000" font-family="sans-serif" font-size="11" font-weight="bold" lengthAdjust="spacing" textLength="59.1136" x="118.288" y="1396.9572">[diagrams]</text>
    <path d="M40,1409.9043 L102.459,1409.9043 L102.459,1419.6103 L92.459,1429.6103 L40,1429.6103 L40,1409.9043 " fill="#EEEEEE" style="stroke:#000000;stroke-width:1.5;"/>
    <rect fill="transparent" height="128.118" style="stroke:#000000;stroke-width:1.5;" width="368.0848" x="40" y="1409.9043"/>
    <text fill="#000000" font-family="sans-serif" font-size="13" font-weight="bold" lengthAdjust="spacing" textLength="17.459" x="55" y="1424.8013">alt</text>
    <text fill="#000000" font-family="sans-serif" font-size="11" font-weight="bold" lengthAdjust="spacing" textLength="166.7038" x="117.459" y="1423.6632">[has_key(d.second, "include!")]</text>
    <a href="" target="_top" title="" xlink:actuate="onRequest" xlink:href="" xlink:show="new" xlink:title="" xlink:type="simple">
      <polygon fill="#181818" points="280.9361,1449.3163,290.9361,1453.3163,280.9361,1457.3163,284.9361,1453.3163" style="stroke:#181818;stroke-width:1;"/>
      <line style="stroke:#181818;stroke-width:1;" x1="123.8938" x2="286.9361" y1="1453.3163" y2="1453.3163"/>
      <text fill="#000000" font-family="sans-serif" font-size="13" font-weight="bold" lengthAdjust="spacing" textLength="4.303" x="130.8938" y="1447.5073">[</text>
      <text fill="#000000" font-family="sans-serif" font-size="13" lengthAdjust="spacing" textLength="56.03" x="135.1968" y="1447.5073">has_key()</text>
      <text fill="#000000" font-family="sans-serif" font-size="13" font-weight="bold" lengthAdjust="spacing" textLength="4.303" x="191.2268" y="1447.5073">]</text>
    </a>
    <polygon fill="#FEFFDD" points="292,1466.3163,303,1466.3163,313,1478.3163,303,1491.3163,292,1491.3163,282,1478.3163,292,1466.3163" style="stroke:#181818;stroke-width:0.5;"/>
    <text fill="#000000" font-family="sans-serif" font-size="13" lengthAdjust="spacing" textLength="7.163" x="294" y="1484.2133">*</text>
    <polygon fill="#181818" points="134.8938,1526.0223,124.8938,1530.0223,134.8938,1534.0223,130.8938,1530.0223" style="stroke:#181818;stroke-width:1;"/>
    <line style="stroke:#181818;stroke-width:1;stroke-dasharray:2.0,2.0;" x1="128.8938" x2="296.9361" y1="1530.0223" y2="1530.0223"/>
    <path d="M30,1566.0223 L92.459,1566.0223 L92.459,1575.7284 L82.459,1585.7284 L30,1585.7284 L30,1566.0223 " fill="#EEEEEE" style="stroke:#000000;stroke-width:1.5;"/>
    <rect fill="transparent" height="115.118" style="stroke:#000000;stroke-width:1.5;" width="1520.8599" x="30" y="1566.0223"/>
    <text fill="#000000" font-family="sans-serif" font-size="13" font-weight="bold" lengthAdjust="spacing" textLength="17.459" x="45" y="1580.9194">alt</text>
    <text fill="#000000" font-family="sans-serif" font-size="11" font-weight="bold" lengthAdjust="spacing" textLength="51.7766" x="107.459" y="1579.7813">[validate]</text>
    <path d="M40,1592.7284 L102.459,1592.7284 L102.459,1602.4344 L92.459,1612.4344 L40,1612.4344 L40,1592.7284 " fill="#EEEEEE" style="stroke:#000000;stroke-width:1.5;"/>
    <rect fill="transparent" height="81.412" style="stroke:#000000;stroke-width:1.5;" width="1500.8599" x="40" y="1592.7284"/>
    <text fill="#000000" font-family="sans-serif" font-size="13" font-weight="bold" lengthAdjust="spacing" textLength="17.459" x="55" y="1607.6254">alt</text>
    <text fill="#000000" font-family="sans-serif" font-size="11" font-weight="bold" lengthAdjust="spacing" textLength="136.894" x="117.459" y="1606.4873">[!schema_errors.empty()]</text>
    <a href="" target="_top" title="" xlink:actuate="onRequest" xlink:href="" xlink:show="new" xlink:title="" xlink:type="simple">
      <polygon fill="#181818" points="1417.2813,1632.1404,1427.2813,1636.1404,1417.2813,1640.1404,1421.2813,1636.1404" style="stroke:#181818;stroke-width:1;"/>
      <line style="stroke:#181818;stroke-width:1;" x1="123.8938" x2="1423.2813" y1="1636.1404" y2="1636.1404"/>
      <text fill="#000000" font-family="sans-serif" font-size="13" lengthAdjust="spacing" textLength="135.8891" x="130.8938" y="1630.3314">config_schema_error()</text>
    </a>
    <path d="M40,1695.1404 L102.459,1695.1404 L102.459,1704.8464 L92.459,1714.8464 L40,1714.8464 L40,1695.1404 " fill="#EEEEEE" style="stroke:#000000;stroke-width:1.5;"/>
    <rect fill="transparent" height="228.2361" style="stroke:#000000;stroke-width:1.5;" width="1895.1567" x="40" y="1695.1404"/>
    <text fill="#000000" font-family="sans-serif" font-size="13" font-weight="bold" lengthAdjust="spacing" textLength="17.459" x="55" y="1710.0374">alt</text>
    <text fill="#000000" font-family="sans-serif" font-size="11" font-weight="bold" lengthAdjust="spacing" textLength="44.7147" x="117.459" y="1708.8993">[inherit]</text>
    <a href="" target="_top" title="" xlink:actuate="onRequest" xlink:href="" xlink:show="new" xlink:title="" xlink:type="simple">
      <polygon fill="#181818" points="1575.4918,1734.5524,1585.4918,1738.5524,1575.4918,1742.5524,1579.4918,1738.5524" style="stroke:#181818;stroke-width:1;"/>
      <line style="stroke:#181818;stroke-width:1;" x1="123.8938" x2="1581.4918" y1="1738.5524" y2="1738.5524"/>
      <text fill="#000000" font-family="sans-serif" font-size="13" lengthAdjust="spacing" textLength="47.9701" x="130.8938" y="1732.7434">inherit()</text>
    </a>
    <path d="M1520.8599,1753.5524 L1594.148,1753.5524 L1594.148,1763.2584 L1584.148,1773.2584 L1520.8599,1773.2584 L1520.8599,1753.5524 " fill="#EEEEEE" style="stroke:#000000;stroke-width:1.5;"/>
    <rect fill="transparent" height="162.8241" style="stroke:#000000;stroke-width:1.5;" width="404.2967" x="1520.8599" y="1753.5524"/>
    <text fill="#000000" font-family="sans-serif" font-size="13" font-weight="bold" lengthAdjust="spacing" textLength="28.288" x="1535.8599" y="1768.4494">loop</text>
    <text fill="#000000" font-family="sans-serif" font-size="11" font-weight="bold" lengthAdjust="spacing" textLength="59.1136" x="1609.148" y="1767.3113">[diagrams]</text>
    <a href="" target="_top" title="" xlink:actuate="onRequest" xlink:href="" xlink:show="new" xlink:title="" xlink:type="simple">
      <polygon fill="#181818" points="1762.6401,1792.9645,1772.6401,1796.9645,1762.6401,1800.9645,1766.6401,1796.9645" style="stroke:#181818;stroke-width:1;"/>
      <line style="stroke:#181818;stroke-width:1;" x1="1597.4918" x2="1768.6401" y1="1796.9645" y2="1796.9645"/>
      <text fill="#000000" font-family="sans-serif" font-size="13" lengthAdjust="spacing" textLength="47.9701" x="1604.4918" y="1791.1555">inherit()</text>
    </a>
    <path d="M1530.8599,1841.9645 L1593.3189,1841.9645 L1593.3189,1851.6705 L1583.3189,1861.6705 L1530.8599,1861.6705 L1530.8599,1841.9645 " fill="#EEEEEE" style="stroke:#000000;stroke-width:1.5;"/>
    <rect fill="transparent" height="67.412" style="stroke:#000000;stroke-width:1.5;" width="384.2967" x="1530.8599" y="1841.9645"/>
    <text fill="#000000" font-family="sans-serif" font-size="13" font-weight="bold" lengthAdjust="spacing" textLength="17.459" x="1545.8599" y="1856.8615">alt</text>
    <text fill="#000000" font-family="sans-serif" font-size="11" font-weight="bold" lengthAdjust="spacing" textLength="139.523" x="1608.3189" y="1855.7234">[static_cast &lt;bool&gt; (expr)]</text>
    <a href="" target="_top" title="" xlink:actuate="onRequest" xlink:href="" xlink:show="new" xlink:title="" xlink:type="simple">
      <polygon fill="#181818" points="1762.6401,1881.3765,1772.6401,1885.3765,1762.6401,1889.3765,1766.6401,1885.3765" style="stroke:#181818;stroke-width:1;"/>
      <line style="stroke:#181818;stroke-width:1;" x1="1597.4918" x2="1768.6401" y1="1885.3765" y2="1885.3765"/>
      <text fill="#000000" font-family="sans-serif" font-size="13" font-weight="bold" lengthAdjust="spacing" textLength="4.303" x="1604.4918" y="1879.5675">[</text>
      <text fill="#000000" font-family="sans-serif" font-size="13" lengthAdjust="spacing" textLength="97.2531" x="1608.7948" y="1879.5675">get_relative_to()</text>
      <text fill="#000000" font-family="sans-serif" font-size="13" font-weight="bold" lengthAdjust="spacing" textLength="4.303" x="1706.0478" y="1879.5675">]</text>
    </a>
    <polygon fill="#181818" points="1608.4918,1895.3765,1598.4918,1899.3765,1608.4918,1903.3765,1604.4918,1899.3765" style="stroke:#181818;stroke-width:1;"/>
    <line style="stroke:#181818;stroke-width:1;stroke-dasharray:2.0,2.0;" x1="1602.4918" x2="1778.6401" y1="1899.3765" y2="1899.3765"/>
    <line style="stroke:#000000;stroke-width:1;stroke-dasharray:2.0,2.0;" x1="1530.8599" x2="1915.1567" y1="1908.3765" y2="1908.3765"/>
    <a href="" target="_top" title="" xlink:actuate="onRequest" xlink:href="" xlink:show="new" xlink:title="" xlink:type="simple">
      <polygon fill="#181818" points="1575.4918,1950.0825,1585.4918,1954.0825,1575.4918,1958.0825,1579.4918,1954.0825" style="stroke:#181818;stroke-width:1;"/>
      <line style="stroke:#181818;stroke-width:1;" x1="123.8938" x2="1581.4918" y1="1954.0825" y2="1954.0825"/>
      <text fill="#000000" font-family="sans-serif" font-size="13" lengthAdjust="spacing" textLength="182.1042" x="130.8938" y="1948.2735">initialize_diagram_templates()</text>
    </a>
    <a href="" target="_top" title="" xlink:actuate="onRequest" xlink:href="" xlink:show="new" xlink:title="" xlink:type="simple">
      <polygon fill="#181818" points="2010.3103,1981.7885,2020.3103,1985.7885,2010.3103,1989.7885,2014.3103,1985.7885" style="stroke:#181818;stroke-width:1;"/>
      <line style="stroke:#181818;stroke-width:1;" x1="1597.4918" x2="2016.3103" y1="1985.7885" y2="1985.7885"/>
      <text fill="#000000" font-family="sans-serif" font-size="13" lengthAdjust="spacing" textLength="224.8742" x="1604.4918" y="1979.9795">get_predefined_diagram_templates()</text>
    </a>
    <polygon fill="#181818" points="1603.4918,1995.7885,1593.4918,1999.7885,1603.4918,2003.7885,1599.4918,1999.7885" style="stroke:#181818;stroke-width:1;"/>
    <line style="stroke:#181818;stroke-width:1;stroke-dasharray:2.0,2.0;" x1="1597.4918" x2="2026.3103" y1="1999.7885" y2="1999.7885"/>
    <line style="stroke:#000000;stroke-width:1;stroke-dasharray:2.0,2.0;" x1="10" x2="2149.4639" y1="2008.7885" y2="2008.7885"/>
    <text fill="#000000" font-family="sans-serif" font-size="11" font-weight="bold" lengthAdjust="spacing" textLength="95.9523" x="15" y="2020.5474">[YAML::BadFile &amp;]</text>
    <line style="stroke:#000000;stroke-width:1;stroke-dasharray:2.0,2.0;" x1="10" x2="2149.4639" y1="2025.7704" y2="2025.7704"/>
    <text fill="#000000" font-family="sans-serif" font-size="11" font-weight="bold" lengthAdjust="spacing" textLength="109.5042" x="15" y="2037.5293">[YAML::Exception &amp;]</text>
    <polygon fill="#181818" points="11,2050.7523,1,2054.7523,11,2058.7523,7,2054.7523" style="stroke:#181818;stroke-width:1;"/>
    <line style="stroke:#181818;stroke-width:1;stroke-dasharray:2.0,2.0;" x1="5" x2="117.8938" y1="2054.7523" y2="2054.7523"/>
  </g>
</svg>
