<svg xmlns="http://www.w3.org/2000/svg" xmlns:xlink="http://www.w3.org/1999/xlink" contentStyleType="text/css" height="996px" preserveAspectRatio="none" style="width:1800px;height:996px;background:#FFFFFF;" version="1.1" viewBox="0 0 1800 996" width="1800px" zoomAndPan="magnify">
  <defs>
    <style type="text/css">a:hover { text-decoration: underline; }</style>
  </defs>
  <g>
    <text fill="#000000" font-family="sans-serif" font-size="14" font-weight="bold" lengthAdjust="spacing" textLength="351.8184" x="725.3604" y="27.9951">Configuration file loading sequence diagram</text>
    <rect fill="#FFFFFF" height="838.5313" style="stroke:#181818;stroke-width:1.0;" width="10" x="108.5928" y="104.7266"/>
    <rect fill="#FFFFFF" height="57.1328" style="stroke:#181818;stroke-width:1.0;" width="10" x="296.4707" y="262.6563"/>
    <rect fill="#FFFFFF" height="30" style="stroke:#181818;stroke-width:1.0;" width="10" x="296.4707" y="355.9219"/>
    <rect fill="#FFFFFF" height="30" style="stroke:#181818;stroke-width:1.0;" width="10" x="296.4707" y="415.0547"/>
    <rect fill="#FFFFFF" height="57.1328" style="stroke:#181818;stroke-width:1.0;" width="10" x="296.4707" y="522.4531"/>
    <rect fill="#FFFFFF" height="14" style="stroke:#181818;stroke-width:1.0;" width="10" x="775.3613" y="291.7891"/>
    <rect fill="#FFFFFF" height="14" style="stroke:#181818;stroke-width:1.0;" width="10" x="775.3613" y="551.5859"/>
    <rect fill="#FFFFFF" height="174.5313" style="stroke:#181818;stroke-width:1.0;" width="10" x="1202.5244" y="646.8516"/>
    <rect fill="#FFFFFF" height="43.1328" style="stroke:#181818;stroke-width:1.0;" width="10" x="1202.5244" y="849.5156"/>
    <rect fill="#FFFFFF" height="30" style="stroke:#181818;stroke-width:1.0;" width="10" x="1399.7847" y="700.1172"/>
    <rect fill="#FFFFFF" height="14" style="stroke:#181818;stroke-width:1.0;" width="10" x="1399.7847" y="783.3828"/>
    <rect fill="#FFFFFF" height="14" style="stroke:#181818;stroke-width:1.0;" width="10" x="1660.5132" y="878.6484"/>
    <rect fill="none" height="810.5313" style="stroke:#000000;stroke-width:1.5;" width="1784.5391" x="9" y="119.7266"/>
    <rect fill="none" height="103.3984" style="stroke:#000000;stroke-width:1.5;" width="1120.9668" x="32" y="224.3906"/>
    <rect fill="none" height="134.5313" style="stroke:#000000;stroke-width:1.5;" width="1140.9668" x="22" y="460.0547"/>
    <rect fill="none" height="103.3984" style="stroke:#000000;stroke-width:1.5;" width="1120.9668" x="32" y="484.1875"/>
    <rect fill="none" height="212.7969" style="stroke:#000000;stroke-width:1.5;" width="1535.4873" x="32" y="608.5859"/>
    <rect fill="none" height="152.5313" style="stroke:#000000;stroke-width:1.5;" width="424.5205" x="1132.9668" y="661.8516"/>
    <rect fill="none" height="62.2656" style="stroke:#000000;stroke-width:1.5;" width="404.5205" x="1142.9668" y="745.1172"/>
    <line style="stroke:#181818;stroke-width:0.5;stroke-dasharray:5.0,5.0;" x1="113" x2="113" y1="73.5938" y2="961.2578"/>
    <line style="stroke:#181818;stroke-width:0.5;stroke-dasharray:5.0,5.0;" x1="301.1855" x2="301.1855" y1="73.5938" y2="961.2578"/>
    <line style="stroke:#181818;stroke-width:0.5;stroke-dasharray:5.0,5.0;" x1="779.7559" x2="779.7559" y1="73.5938" y2="961.2578"/>
    <line style="stroke:#181818;stroke-width:0.5;stroke-dasharray:5.0,5.0;" x1="1206.9668" x2="1206.9668" y1="73.5938" y2="961.2578"/>
    <line style="stroke:#181818;stroke-width:0.5;stroke-dasharray:5.0,5.0;" x1="1404.082" x2="1404.082" y1="73.5938" y2="961.2578"/>
    <line style="stroke:#181818;stroke-width:0.5;stroke-dasharray:5.0,5.0;" x1="1665.4873" x2="1665.4873" y1="73.5938" y2="961.2578"/>
    <rect fill="#E2E2F0" height="30.2969" rx="2.5" ry="2.5" style="stroke:#181818;stroke-width:0.5;" width="143.1855" x="42" y="42.2969"/>
    <text fill="#000000" font-family="sans-serif" font-size="14" lengthAdjust="spacing" textLength="129.1855" x="49" y="62.292">src/config/config.h</text>
    <rect fill="#E2E2F0" height="30.2969" rx="2.5" ry="2.5" style="stroke:#181818;stroke-width:0.5;" width="143.1855" x="42" y="960.2578"/>
    <text fill="#000000" font-family="sans-serif" font-size="14" lengthAdjust="spacing" textLength="129.1855" x="49" y="980.2529">src/config/config.h</text>
    <rect fill="#E2E2F0" height="30.2969" rx="2.5" ry="2.5" style="stroke:#181818;stroke-width:0.5;" width="212.5703" x="195.1855" y="42.2969"/>
    <text fill="#000000" font-family="sans-serif" font-size="14" lengthAdjust="spacing" textLength="198.5703" x="202.1855" y="62.292">src/config/yaml_decoders.cc</text>
    <rect fill="#E2E2F0" height="30.2969" rx="2.5" ry="2.5" style="stroke:#181818;stroke-width:0.5;" width="212.5703" x="195.1855" y="960.2578"/>
    <text fill="#000000" font-family="sans-serif" font-size="14" lengthAdjust="spacing" textLength="198.5703" x="202.1855" y="980.2529">src/config/yaml_decoders.cc</text>
    <a href="" target="_top" title="has_key(const YAML::Node &amp;,const std::string &amp;)##(lambda src/config/yaml_decoders.cc:62:46)" xlink:actuate="onRequest" xlink:href="" xlink:show="new" xlink:title="has_key(const YAML::Node &amp;,const std::string &amp;)##(lambda src/config/yaml_decoders.cc:62:46)" xlink:type="simple">
      <rect fill="#E2E2F0" height="30.2969" rx="2.5" ry="2.5" style="stroke:#181818;stroke-width:0.5;" width="725.2109" x="417.7559" y="42.2969"/>
      <text fill="#000000" font-family="sans-serif" font-size="14" lengthAdjust="spacing" textLength="711.2109" x="424.7559" y="62.292">YAML::has_key(const YAML::Node &amp;,const std::string &amp;)::(lambda src/config/yaml_decoders.cc:62:46)</text>
      <rect fill="#E2E2F0" height="30.2969" rx="2.5" ry="2.5" style="stroke:#181818;stroke-width:0.5;" width="725.2109" x="417.7559" y="960.2578"/>
      <text fill="#000000" font-family="sans-serif" font-size="14" lengthAdjust="spacing" textLength="711.2109" x="424.7559" y="980.2529">YAML::has_key(const YAML::Node &amp;,const std::string &amp;)::(lambda src/config/yaml_decoders.cc:62:46)</text>
    </a>
    <a href="" target="_top" title="Represents entire configuration file" xlink:actuate="onRequest" xlink:href="" xlink:show="new" xlink:title="Represents entire configuration file" xlink:type="simple">
      <rect fill="#E2E2F0" height="30.2969" rx="2.5" ry="2.5" style="stroke:#181818;stroke-width:0.5;" width="109.1152" x="1152.9668" y="42.2969"/>
      <text fill="#000000" font-family="sans-serif" font-size="14" lengthAdjust="spacing" textLength="95.1152" x="1159.9668" y="62.292">config::config</text>
      <rect fill="#E2E2F0" height="30.2969" rx="2.5" ry="2.5" style="stroke:#181818;stroke-width:0.5;" width="109.1152" x="1152.9668" y="960.2578"/>
      <text fill="#000000" font-family="sans-serif" font-size="14" lengthAdjust="spacing" textLength="95.1152" x="1159.9668" y="980.2529">config::config</text>
    </a>
    <a href="" target="_top" title="Represents subset of inheritable configuration options" xlink:actuate="onRequest" xlink:href="" xlink:show="new" xlink:title="Represents subset of inheritable configuration options" xlink:type="simple">
      <rect fill="#E2E2F0" height="30.2969" rx="2.5" ry="2.5" style="stroke:#181818;stroke-width:0.5;" width="265.4053" x="1272.082" y="42.2969"/>
      <text fill="#000000" font-family="sans-serif" font-size="14" lengthAdjust="spacing" textLength="251.4053" x="1279.082" y="62.292">config::inheritable_diagram_options</text>
      <rect fill="#E2E2F0" height="30.2969" rx="2.5" ry="2.5" style="stroke:#181818;stroke-width:0.5;" width="265.4053" x="1272.082" y="960.2578"/>
      <text fill="#000000" font-family="sans-serif" font-size="14" lengthAdjust="spacing" textLength="251.4053" x="1279.082" y="980.2529">config::inheritable_diagram_options</text>
    </a>
    <rect fill="#E2E2F0" height="30.2969" rx="2.5" ry="2.5" style="stroke:#181818;stroke-width:0.5;" width="236.0518" x="1547.4873" y="42.2969"/>
    <text fill="#000000" font-family="sans-serif" font-size="14" lengthAdjust="spacing" textLength="222.0518" x="1554.4873" y="62.292">src/config/diagram_templates.h</text>
    <rect fill="#E2E2F0" height="30.2969" rx="2.5" ry="2.5" style="stroke:#181818;stroke-width:0.5;" width="236.0518" x="1547.4873" y="960.2578"/>
    <text fill="#000000" font-family="sans-serif" font-size="14" lengthAdjust="spacing" textLength="222.0518" x="1554.4873" y="980.2529">src/config/diagram_templates.h</text>
    <rect fill="#FFFFFF" height="838.5313" style="stroke:#181818;stroke-width:1.0;" width="10" x="108.5928" y="104.7266"/>
    <rect fill="#FFFFFF" height="57.1328" style="stroke:#181818;stroke-width:1.0;" width="10" x="296.4707" y="262.6563"/>
    <rect fill="#FFFFFF" height="30" style="stroke:#181818;stroke-width:1.0;" width="10" x="296.4707" y="355.9219"/>
    <rect fill="#FFFFFF" height="30" style="stroke:#181818;stroke-width:1.0;" width="10" x="296.4707" y="415.0547"/>
    <rect fill="#FFFFFF" height="57.1328" style="stroke:#181818;stroke-width:1.0;" width="10" x="296.4707" y="522.4531"/>
    <rect fill="#FFFFFF" height="14" style="stroke:#181818;stroke-width:1.0;" width="10" x="775.3613" y="291.7891"/>
    <rect fill="#FFFFFF" height="14" style="stroke:#181818;stroke-width:1.0;" width="10" x="775.3613" y="551.5859"/>
    <rect fill="#FFFFFF" height="174.5313" style="stroke:#181818;stroke-width:1.0;" width="10" x="1202.5244" y="646.8516"/>
    <rect fill="#FFFFFF" height="43.1328" style="stroke:#181818;stroke-width:1.0;" width="10" x="1202.5244" y="849.5156"/>
    <rect fill="#FFFFFF" height="30" style="stroke:#181818;stroke-width:1.0;" width="10" x="1399.7847" y="700.1172"/>
    <rect fill="#FFFFFF" height="14" style="stroke:#181818;stroke-width:1.0;" width="10" x="1399.7847" y="783.3828"/>
    <rect fill="#FFFFFF" height="14" style="stroke:#181818;stroke-width:1.0;" width="10" x="1660.5132" y="878.6484"/>
    <polygon fill="#181818" points="96.5928,100.7266,106.5928,104.7266,96.5928,108.7266,100.5928,104.7266" style="stroke:#181818;stroke-width:1.0;"/>
    <line style="stroke:#181818;stroke-width:1.0;" x1="0" x2="102.5928" y1="104.7266" y2="104.7266"/>
    <text fill="#000000" font-family="sans-serif" font-size="13" lengthAdjust="spacing" textLength="37.9272" x="7" y="99.6606">load()</text>
    <path d="M9,119.7266 L75.0996,119.7266 L75.0996,126.8594 L65.0996,136.8594 L9,136.8594 L9,119.7266 " fill="#EEEEEE" style="stroke:#000000;stroke-width:1.5;"/>
    <rect fill="none" height="810.5313" style="stroke:#000000;stroke-width:1.5;" width="1784.5391" x="9" y="119.7266"/>
    <text fill="#000000" font-family="sans-serif" font-size="13" font-weight="bold" lengthAdjust="spacing" textLength="21.0996" x="24" y="132.7935">try</text>
    <path d="M19,141.8594 L19,211.8594 L207,211.8594 L207,151.8594 L197,141.8594 L19,141.8594 " fill="#FEFFDD" style="stroke:#181818;stroke-width:0.5;"/>
    <path d="M197,141.8594 L197,151.8594 L207,151.8594 L197,141.8594 " fill="#FEFFDD" style="stroke:#181818;stroke-width:0.5;"/>
    <text fill="#000000" font-family="sans-serif" font-size="13" lengthAdjust="spacing" textLength="157.4917" x="25" y="158.9263">Store the parent path of</text>
    <text fill="#000000" font-family="sans-serif" font-size="13" lengthAdjust="spacing" textLength="167.3115" x="25" y="174.0591">the config_file to properly</text>
    <text fill="#000000" font-family="sans-serif" font-size="13" lengthAdjust="spacing" textLength="157.2695" x="25" y="189.1919">resolve relative paths in</text>
    <text fill="#000000" font-family="sans-serif" font-size="13" lengthAdjust="spacing" textLength="63.7114" x="25" y="204.3247">config file</text>
    <path d="M32,224.3906 L96.4429,224.3906 L96.4429,231.5234 L86.4429,241.5234 L32,241.5234 L32,224.3906 " fill="#EEEEEE" style="stroke:#000000;stroke-width:1.5;"/>
    <rect fill="none" height="103.3984" style="stroke:#000000;stroke-width:1.5;" width="1120.9668" x="32" y="224.3906"/>
    <text fill="#000000" font-family="sans-serif" font-size="13" font-weight="bold" lengthAdjust="spacing" textLength="19.4429" x="47" y="237.4575">alt</text>
    <text fill="#000000" font-family="sans-serif" font-size="11" font-weight="bold" lengthAdjust="spacing" textLength="196.9365" x="111.4429" y="236.6011">[has_key(doc, "__parent_path")]</text>
    <a href="" target="_top" title="" xlink:actuate="onRequest" xlink:href="" xlink:show="new" xlink:title="" xlink:type="simple">
      <polygon fill="#181818" points="284.4707,258.6563,294.4707,262.6563,284.4707,266.6563,288.4707,262.6563" style="stroke:#181818;stroke-width:1.0;"/>
      <line style="stroke:#181818;stroke-width:1.0;" x1="118.5928" x2="290.4707" y1="262.6563" y2="262.6563"/>
      <text fill="#000000" font-family="sans-serif" font-size="13" font-weight="bold" lengthAdjust="spacing" textLength="5.9414" x="125.5928" y="257.5903">[</text>
      <text fill="#000000" font-family="sans-serif" font-size="13" lengthAdjust="spacing" textLength="62.8418" x="131.5342" y="257.5903">has_key()</text>
      <text fill="#000000" font-family="sans-serif" font-size="13" font-weight="bold" lengthAdjust="spacing" textLength="5.9414" x="194.376" y="257.5903">]</text>
    </a>
    <a href="" target="_top" title="" xlink:actuate="onRequest" xlink:href="" xlink:show="new" xlink:title="" xlink:type="simple">
      <polygon fill="#181818" points="763.3613,287.7891,773.3613,291.7891,763.3613,295.7891,767.3613,291.7891" style="stroke:#181818;stroke-width:1.0;"/>
      <line style="stroke:#181818;stroke-width:1.0;" x1="306.4707" x2="769.3613" y1="291.7891" y2="291.7891"/>
      <text fill="#000000" font-family="sans-serif" font-size="13" lengthAdjust="spacing" textLength="115.54" x="313.4707" y="286.7231">operator()() const</text>
    </a>
    <polygon fill="#181818" points="317.4707,301.7891,307.4707,305.7891,317.4707,309.7891,313.4707,305.7891" style="stroke:#181818;stroke-width:1.0;"/>
    <line style="stroke:#181818;stroke-width:1.0;stroke-dasharray:2.0,2.0;" x1="311.4707" x2="779.3613" y1="305.7891" y2="305.7891"/>
    <polygon fill="#181818" points="129.5928,315.7891,119.5928,319.7891,129.5928,323.7891,125.5928,319.7891" style="stroke:#181818;stroke-width:1.0;"/>
    <line style="stroke:#181818;stroke-width:1.0;stroke-dasharray:2.0,2.0;" x1="123.5928" x2="300.4707" y1="319.7891" y2="319.7891"/>
    <a href="" target="_top" title="" xlink:actuate="onRequest" xlink:href="" xlink:show="new" xlink:title="" xlink:type="simple">
      <polygon fill="#181818" points="284.4707,351.9219,294.4707,355.9219,284.4707,359.9219,288.4707,355.9219" style="stroke:#181818;stroke-width:1.0;"/>
      <line style="stroke:#181818;stroke-width:1.0;" x1="118.5928" x2="290.4707" y1="355.9219" y2="355.9219"/>
      <text fill="#000000" font-family="sans-serif" font-size="13" lengthAdjust="spacing" textLength="141.1782" x="125.5928" y="350.856">resolve_option_path()</text>
    </a>
    <a href="" target="_top" title="" xlink:actuate="onRequest" xlink:href="" xlink:show="new" xlink:title="" xlink:type="simple">
      <polygon fill="#181818" points="284.4707,411.0547,294.4707,415.0547,284.4707,419.0547,288.4707,415.0547" style="stroke:#181818;stroke-width:1.0;"/>
      <line style="stroke:#181818;stroke-width:1.0;" x1="118.5928" x2="290.4707" y1="415.0547" y2="415.0547"/>
      <text fill="#000000" font-family="sans-serif" font-size="13" lengthAdjust="spacing" textLength="141.1782" x="125.5928" y="409.9888">resolve_option_path()</text>
    </a>
    <path d="M22,460.0547 L98.624,460.0547 L98.624,467.1875 L88.624,477.1875 L22,477.1875 L22,460.0547 " fill="#EEEEEE" style="stroke:#000000;stroke-width:1.5;"/>
    <rect fill="none" height="134.5313" style="stroke:#000000;stroke-width:1.5;" width="1140.9668" x="22" y="460.0547"/>
    <text fill="#000000" font-family="sans-serif" font-size="13" font-weight="bold" lengthAdjust="spacing" textLength="31.624" x="37" y="473.1216">loop</text>
    <text fill="#000000" font-family="sans-serif" font-size="11" font-weight="bold" lengthAdjust="spacing" textLength="67.853" x="113.624" y="472.2651">[diagrams]</text>
    <path d="M32,484.1875 L96.4429,484.1875 L96.4429,491.3203 L86.4429,501.3203 L32,501.3203 L32,484.1875 " fill="#EEEEEE" style="stroke:#000000;stroke-width:1.5;"/>
    <rect fill="none" height="103.3984" style="stroke:#000000;stroke-width:1.5;" width="1120.9668" x="32" y="484.1875"/>
    <text fill="#000000" font-family="sans-serif" font-size="13" font-weight="bold" lengthAdjust="spacing" textLength="19.4429" x="47" y="497.2544">alt</text>
    <text fill="#000000" font-family="sans-serif" font-size="11" font-weight="bold" lengthAdjust="spacing" textLength="194.7451" x="111.4429" y="496.3979">[has_key(d.second, "include!")]</text>
    <a href="" target="_top" title="" xlink:actuate="onRequest" xlink:href="" xlink:show="new" xlink:title="" xlink:type="simple">
      <polygon fill="#181818" points="284.4707,518.4531,294.4707,522.4531,284.4707,526.4531,288.4707,522.4531" style="stroke:#181818;stroke-width:1.0;"/>
      <line style="stroke:#181818;stroke-width:1.0;" x1="118.5928" x2="290.4707" y1="522.4531" y2="522.4531"/>
      <text fill="#000000" font-family="sans-serif" font-size="13" font-weight="bold" lengthAdjust="spacing" textLength="5.9414" x="125.5928" y="517.3872">[</text>
      <text fill="#000000" font-family="sans-serif" font-size="13" lengthAdjust="spacing" textLength="62.8418" x="131.5342" y="517.3872">has_key()</text>
      <text fill="#000000" font-family="sans-serif" font-size="13" font-weight="bold" lengthAdjust="spacing" textLength="5.9414" x="194.376" y="517.3872">]</text>
    </a>
    <a href="" target="_top" title="" xlink:actuate="onRequest" xlink:href="" xlink:show="new" xlink:title="" xlink:type="simple">
      <polygon fill="#181818" points="763.3613,547.5859,773.3613,551.5859,763.3613,555.5859,767.3613,551.5859" style="stroke:#181818;stroke-width:1.0;"/>
      <line style="stroke:#181818;stroke-width:1.0;" x1="306.4707" x2="769.3613" y1="551.5859" y2="551.5859"/>
      <text fill="#000000" font-family="sans-serif" font-size="13" lengthAdjust="spacing" textLength="115.54" x="313.4707" y="546.52">operator()() const</text>
    </a>
    <polygon fill="#181818" points="317.4707,561.5859,307.4707,565.5859,317.4707,569.5859,313.4707,565.5859" style="stroke:#181818;stroke-width:1.0;"/>
    <line style="stroke:#181818;stroke-width:1.0;stroke-dasharray:2.0,2.0;" x1="311.4707" x2="779.3613" y1="565.5859" y2="565.5859"/>
    <polygon fill="#181818" points="129.5928,575.5859,119.5928,579.5859,129.5928,583.5859,125.5928,579.5859" style="stroke:#181818;stroke-width:1.0;"/>
    <line style="stroke:#181818;stroke-width:1.0;stroke-dasharray:2.0,2.0;" x1="123.5928" x2="300.4707" y1="579.5859" y2="579.5859"/>
    <path d="M32,608.5859 L96.4429,608.5859 L96.4429,615.7188 L86.4429,625.7188 L32,625.7188 L32,608.5859 " fill="#EEEEEE" style="stroke:#000000;stroke-width:1.5;"/>
    <rect fill="none" height="212.7969" style="stroke:#000000;stroke-width:1.5;" width="1535.4873" x="32" y="608.5859"/>
    <text fill="#000000" font-family="sans-serif" font-size="13" font-weight="bold" lengthAdjust="spacing" textLength="19.4429" x="47" y="621.6528">alt</text>
    <text fill="#000000" font-family="sans-serif" font-size="11" font-weight="bold" lengthAdjust="spacing" textLength="51.4014" x="111.4429" y="620.7964">[inherit]</text>
    <a href="" target="_top" title="" xlink:actuate="onRequest" xlink:href="" xlink:show="new" xlink:title="" xlink:type="simple">
      <polygon fill="#181818" points="1190.5244,642.8516,1200.5244,646.8516,1190.5244,650.8516,1194.5244,646.8516" style="stroke:#181818;stroke-width:1.0;"/>
      <line style="stroke:#181818;stroke-width:1.0;" x1="118.5928" x2="1196.5244" y1="646.8516" y2="646.8516"/>
      <text fill="#000000" font-family="sans-serif" font-size="13" lengthAdjust="spacing" textLength="52.2856" x="125.5928" y="641.7856">inherit()</text>
    </a>
    <path d="M1132.9668,661.8516 L1209.5908,661.8516 L1209.5908,668.9844 L1199.5908,678.9844 L1132.9668,678.9844 L1132.9668,661.8516 " fill="#EEEEEE" style="stroke:#000000;stroke-width:1.5;"/>
    <rect fill="none" height="152.5313" style="stroke:#000000;stroke-width:1.5;" width="424.5205" x="1132.9668" y="661.8516"/>
    <text fill="#000000" font-family="sans-serif" font-size="13" font-weight="bold" lengthAdjust="spacing" textLength="31.624" x="1147.9668" y="674.9185">loop</text>
    <text fill="#000000" font-family="sans-serif" font-size="11" font-weight="bold" lengthAdjust="spacing" textLength="67.853" x="1224.5908" y="674.062">[diagrams]</text>
    <a href="" target="_top" title="" xlink:actuate="onRequest" xlink:href="" xlink:show="new" xlink:title="" xlink:type="simple">
      <polygon fill="#181818" points="1387.7847,696.1172,1397.7847,700.1172,1387.7847,704.1172,1391.7847,700.1172" style="stroke:#181818;stroke-width:1.0;"/>
      <line style="stroke:#181818;stroke-width:1.0;" x1="1212.5244" x2="1393.7847" y1="700.1172" y2="700.1172"/>
      <text fill="#000000" font-family="sans-serif" font-size="13" lengthAdjust="spacing" textLength="52.2856" x="1219.5244" y="695.0513">inherit()</text>
    </a>
    <path d="M1142.9668,745.1172 L1207.4097,745.1172 L1207.4097,752.25 L1197.4097,762.25 L1142.9668,762.25 L1142.9668,745.1172 " fill="#EEEEEE" style="stroke:#000000;stroke-width:1.5;"/>
    <rect fill="none" height="62.2656" style="stroke:#000000;stroke-width:1.5;" width="404.5205" x="1142.9668" y="745.1172"/>
    <text fill="#000000" font-family="sans-serif" font-size="13" font-weight="bold" lengthAdjust="spacing" textLength="19.4429" x="1157.9668" y="758.1841">alt</text>
    <text fill="#000000" font-family="sans-serif" font-size="11" font-weight="bold" lengthAdjust="spacing" textLength="166.8423" x="1222.4097" y="757.3276">[static_cast &lt;bool&gt; (expr)]</text>
    <a href="" target="_top" title="" xlink:actuate="onRequest" xlink:href="" xlink:show="new" xlink:title="" xlink:type="simple">
      <polygon fill="#181818" points="1387.7847,779.3828,1397.7847,783.3828,1387.7847,787.3828,1391.7847,783.3828" style="stroke:#181818;stroke-width:1.0;"/>
      <line style="stroke:#181818;stroke-width:1.0;" x1="1212.5244" x2="1393.7847" y1="783.3828" y2="783.3828"/>
      <text fill="#000000" font-family="sans-serif" font-size="13" font-weight="bold" lengthAdjust="spacing" textLength="5.9414" x="1219.5244" y="778.3169">[</text>
      <text fill="#000000" font-family="sans-serif" font-size="13" lengthAdjust="spacing" textLength="106.8628" x="1225.4658" y="778.3169">get_relative_to()</text>
      <text fill="#000000" font-family="sans-serif" font-size="13" font-weight="bold" lengthAdjust="spacing" textLength="5.9414" x="1332.3286" y="778.3169">]</text>
    </a>
    <polygon fill="#181818" points="1223.5244,793.3828,1213.5244,797.3828,1223.5244,801.3828,1219.5244,797.3828" style="stroke:#181818;stroke-width:1.0;"/>
    <line style="stroke:#181818;stroke-width:1.0;stroke-dasharray:2.0,2.0;" x1="1217.5244" x2="1403.7847" y1="797.3828" y2="797.3828"/>
    <line style="stroke:#000000;stroke-width:1.0;stroke-dasharray:2.0,2.0;" x1="1142.9668" x2="1547.4873" y1="806.3828" y2="806.3828"/>
    <a href="" target="_top" title="" xlink:actuate="onRequest" xlink:href="" xlink:show="new" xlink:title="" xlink:type="simple">
      <polygon fill="#181818" points="1190.5244,845.5156,1200.5244,849.5156,1190.5244,853.5156,1194.5244,849.5156" style="stroke:#181818;stroke-width:1.0;"/>
      <line style="stroke:#181818;stroke-width:1.0;" x1="118.5928" x2="1196.5244" y1="849.5156" y2="849.5156"/>
      <text fill="#000000" font-family="sans-serif" font-size="13" lengthAdjust="spacing" textLength="196.8408" x="125.5928" y="844.4497">initialize_diagram_templates()</text>
    </a>
    <a href="" target="_top" title="" xlink:actuate="onRequest" xlink:href="" xlink:show="new" xlink:title="" xlink:type="simple">
      <polygon fill="#181818" points="1648.5132,874.6484,1658.5132,878.6484,1648.5132,882.6484,1652.5132,878.6484" style="stroke:#181818;stroke-width:1.0;"/>
      <line style="stroke:#181818;stroke-width:1.0;" x1="1212.5244" x2="1654.5132" y1="878.6484" y2="878.6484"/>
      <text fill="#000000" font-family="sans-serif" font-size="13" lengthAdjust="spacing" textLength="241.0269" x="1219.5244" y="873.5825">get_predefined_diagram_templates()</text>
    </a>
    <polygon fill="#181818" points="1218.5244,888.6484,1208.5244,892.6484,1218.5244,896.6484,1214.5244,892.6484" style="stroke:#181818;stroke-width:1.0;"/>
    <line style="stroke:#181818;stroke-width:1.0;stroke-dasharray:2.0,2.0;" x1="1212.5244" x2="1664.5132" y1="892.6484" y2="892.6484"/>
    <line style="stroke:#000000;stroke-width:1.0;stroke-dasharray:2.0,2.0;" x1="9" x2="1793.5391" y1="901.6484" y2="901.6484"/>
    <text fill="#000000" font-family="sans-serif" font-size="11" font-weight="bold" lengthAdjust="spacing" textLength="112.9058" x="14" y="911.8589">[YAML::BadFile &amp;]</text>
    <line style="stroke:#000000;stroke-width:1.0;stroke-dasharray:2.0,2.0;" x1="9" x2="1793.5391" y1="916.4531" y2="916.4531"/>
    <text fill="#000000" font-family="sans-serif" font-size="11" font-weight="bold" lengthAdjust="spacing" textLength="127.5903" x="14" y="926.6636">[YAML::Exception &amp;]</text>
    <polygon fill="#181818" points="11,939.2578,1,943.2578,11,947.2578,7,943.2578" style="stroke:#181818;stroke-width:1.0;"/>
    <line style="stroke:#181818;stroke-width:1.0;stroke-dasharray:2.0,2.0;" x1="5" x2="112.5928" y1="943.2578" y2="943.2578"/>
  </g>
</svg>
