<svg xmlns="http://www.w3.org/2000/svg" xmlns:xlink="http://www.w3.org/1999/xlink" contentStyleType="text/css" data-diagram-type="SEQUENCE" height="2155px" preserveAspectRatio="none" style="width:2156px;height:2155px;background:#FFFFFF;" version="1.1" viewBox="0 0 2156 2155" width="2156px" zoomAndPan="magnify">
  <title>Configuration file loading sequence diagram</title>
  <defs>
    <style type="text/css">a:hover { text-decoration: underline; }</style>
  </defs>
  <g>
    <text fill="#000000" font-family="sans-serif" font-size="14" font-weight="bold" lengthAdjust="spacing" textLength="312.1709" x="923.1465" y="29.9659">Configuration file loading sequence diagram</text>
    <g>
      <title>src/config/config.h</title>
      <rect fill="#FFFFFF" height="1994.3225" style="stroke:#181818;stroke-width:1;" width="10" x="113.8938" y="112.8419"/>
    </g>
    <g>
      <title>src/config/yaml_decoders.cc</title>
      <rect fill="#FFFFFF" height="59.706" style="stroke:#181818;stroke-width:1;" width="10" x="292.9361" y="288.784"/>
    </g>
    <g>
      <title>src/config/yaml_decoders.cc</title>
      <rect fill="#FFFFFF" height="41.706" style="stroke:#181818;stroke-width:1;" width="10" x="292.9361" y="1147.3742"/>
    </g>
    <g>
      <title>src/config/yaml_decoders.cc</title>
      <rect fill="#FFFFFF" height="55.706" style="stroke:#181818;stroke-width:1;" width="10" x="292.9361" y="1212.7862"/>
    </g>
    <g>
      <title>src/config/yaml_decoders.cc</title>
      <rect fill="#FFFFFF" height="55.706" style="stroke:#181818;stroke-width:1;" width="10" x="292.9361" y="1333.9043"/>
    </g>
    <g>
      <title>src/config/yaml_decoders.cc</title>
      <rect fill="#FFFFFF" height="55.706" style="stroke:#181818;stroke-width:1;" width="10" x="292.9361" y="1481.7284"/>
    </g>
    <g>
      <title>::YAML::has_key(const YAML::Node &amp;,const std::string &amp;)::(lambda src/config/yaml_decoders.cc:110:46)</title>
      <rect fill="#FFFFFF" height="14" style="stroke:#181818;stroke-width:1;" width="10" x="745.8805" y="320.49"/>
    </g>
    <g>
      <title>src/util/logging.h</title>
      <rect fill="#FFFFFF" height="721.4722" style="stroke:#181818;stroke-width:1;" width="10" x="1162.243" y="387.196"/>
    </g>
    <g>
      <title>src/util/logging.h</title>
      <rect fill="#FFFFFF" height="28" style="stroke:#181818;stroke-width:1;" width="10" x="1167.243" y="426.902"/>
    </g>
    <g>
      <title>src/util/logging.h</title>
      <rect fill="#FFFFFF" height="439.9421" style="stroke:#181818;stroke-width:1;" width="10" x="1167.243" y="501.608"/>
    </g>
    <g>
      <title>src/util/logging.h</title>
      <rect fill="#FFFFFF" height="201.412" style="stroke:#181818;stroke-width:1;" width="10" x="1172.243" y="575.0201"/>
    </g>
    <g>
      <title>src/util/logging.h</title>
      <rect fill="#FFFFFF" height="28" style="stroke:#181818;stroke-width:1;" width="10" x="1177.243" y="619.7261"/>
    </g>
    <g>
      <title>src/util/logging.h</title>
      <rect fill="#FFFFFF" height="28" style="stroke:#181818;stroke-width:1;" width="10" x="1177.243" y="721.4321"/>
    </g>
    <g>
      <title>src/util/logging.h</title>
      <rect fill="#FFFFFF" height="60.706" style="stroke:#181818;stroke-width:1;" width="10" x="1172.243" y="858.8441"/>
    </g>
    <g>
      <title>src/util/logging.h</title>
      <rect fill="#FFFFFF" height="28" style="stroke:#181818;stroke-width:1;" width="10" x="1167.243" y="973.2562"/>
    </g>
    <g>
      <title>src/util/logging.h</title>
      <rect fill="#FFFFFF" height="60.706" style="stroke:#181818;stroke-width:1;" width="10" x="1167.243" y="1047.9622"/>
    </g>
    <g>
      <title>error::config_schema_error</title>
      <rect fill="#FFFFFF" height="30" style="stroke:#181818;stroke-width:1;" width="10" x="1429.2813" y="1650.5524"/>
    </g>
    <g>
      <title>config::config</title>
      <rect fill="#FFFFFF" height="198.8241" style="stroke:#181818;stroke-width:1;" width="10" x="1587.4918" y="1752.9645"/>
    </g>
    <g>
      <title>config::config</title>
      <rect fill="#FFFFFF" height="61.706" style="stroke:#181818;stroke-width:1;" width="10" x="1587.4918" y="1982.4945"/>
    </g>
    <g>
      <title>config::inheritable_diagram_options</title>
      <rect fill="#FFFFFF" height="30" style="stroke:#181818;stroke-width:1;" width="10" x="1774.6401" y="1811.3765"/>
    </g>
    <g>
      <title>config::inheritable_diagram_options</title>
      <rect fill="#FFFFFF" height="28" style="stroke:#181818;stroke-width:1;" width="10" x="1774.6401" y="1899.7885"/>
    </g>
    <g>
      <title>src/config/diagram_templates.h</title>
      <rect fill="#FFFFFF" height="30" style="stroke:#181818;stroke-width:1;" width="10" x="2022.3103" y="2014.2006"/>
    </g>
    <rect fill="transparent" height="1972.3225" style="stroke:#000000;stroke-width:1.5;" width="2139.4639" x="10" y="127.8419"/>
    <rect fill="transparent" height="111.118" style="stroke:#000000;stroke-width:1.5;" width="1063.6762" x="40" y="245.3719"/>
    <rect fill="transparent" height="269.8241" style="stroke:#000000;stroke-width:1.5;" width="280.4649" x="1093.6762" y="521.608"/>
    <rect fill="transparent" height="129.118" style="stroke:#000000;stroke-width:1.5;" width="280.4649" x="1093.6762" y="805.4321"/>
    <rect fill="transparent" height="19.706" style="stroke:#000000;stroke-width:1.5;" width="227.482" x="60" y="1162.3742"/>
    <rect fill="transparent" height="275.9421" style="stroke:#000000;stroke-width:1.5;" width="408.0848" x="20" y="1290.4923"/>
    <rect fill="transparent" height="147.8241" style="stroke:#000000;stroke-width:1.5;" width="388.0848" x="30" y="1411.6103"/>
    <rect fill="transparent" height="114.118" style="stroke:#000000;stroke-width:1.5;" width="368.0848" x="40" y="1438.3163"/>
    <rect fill="transparent" height="115.118" style="stroke:#000000;stroke-width:1.5;" width="1520.8599" x="30" y="1580.4344"/>
    <rect fill="transparent" height="81.412" style="stroke:#000000;stroke-width:1.5;" width="1500.8599" x="40" y="1607.1404"/>
    <rect fill="transparent" height="242.2361" style="stroke:#000000;stroke-width:1.5;" width="1895.1567" x="40" y="1709.5524"/>
    <rect fill="transparent" height="176.8241" style="stroke:#000000;stroke-width:1.5;" width="404.2967" x="1520.8599" y="1767.9645"/>
    <rect fill="transparent" height="81.412" style="stroke:#000000;stroke-width:1.5;" width="384.2967" x="1530.8599" y="1856.3765"/>
    <g>
      <title>src/config/config.h</title>
      <rect fill="transparent" height="2038.0285" width="8" x="114.8938" y="79.1358"/>
      <line style="stroke:#181818;stroke-width:0.5;stroke-dasharray:5.0,5.0;" x1="118" x2="118" y1="79.1358" y2="2117.1643"/>
    </g>
    <g>
      <title>src/config/yaml_decoders.cc</title>
      <rect fill="transparent" height="2038.0285" width="8" x="293.9361" y="79.1358"/>
      <line style="stroke:#181818;stroke-width:0.5;stroke-dasharray:5.0,5.0;" x1="297.7875" x2="297.7875" y1="79.1358" y2="2117.1643"/>
    </g>
    <g>
      <title>::YAML::has_key(const YAML::Node &amp;,const std::string &amp;)::(lambda src/config/yaml_decoders.cc:110:46)</title>
      <rect fill="transparent" height="2038.0285" width="8" x="746.8805" y="79.1358"/>
      <line style="stroke:#181818;stroke-width:0.5;stroke-dasharray:5.0,5.0;" x1="750.0848" x2="750.0848" y1="79.1358" y2="2117.1643"/>
    </g>
    <g>
      <title>src/util/logging.h</title>
      <rect fill="transparent" height="2038.0285" width="8" x="1163.243" y="79.1358"/>
      <line style="stroke:#181818;stroke-width:0.5;stroke-dasharray:5.0,5.0;" x1="1166.6762" x2="1166.6762" y1="79.1358" y2="2117.1643"/>
    </g>
    <g>
      <title>error::config_schema_error</title>
      <rect fill="transparent" height="2038.0285" width="8" x="1430.2813" y="79.1358"/>
      <line style="stroke:#181818;stroke-width:0.5;stroke-dasharray:5.0,5.0;" x1="1433.7026" x2="1433.7026" y1="79.1358" y2="2117.1643"/>
    </g>
    <g>
      <title>config::config</title>
      <rect fill="transparent" height="2038.0285" width="8" x="1588.4918" y="79.1358"/>
      <line style="stroke:#181818;stroke-width:0.5;stroke-dasharray:5.0,5.0;" x1="1591.8599" x2="1591.8599" y1="79.1358" y2="2117.1643"/>
    </g>
    <g>
      <title>config::inheritable_diagram_options</title>
      <rect fill="transparent" height="2038.0285" width="8" x="1775.6401" y="79.1358"/>
      <line style="stroke:#181818;stroke-width:0.5;stroke-dasharray:5.0,5.0;" x1="1779.1236" x2="1779.1236" y1="79.1358" y2="2117.1643"/>
    </g>
    <g>
      <title>src/config/diagram_templates.h</title>
      <rect fill="transparent" height="2038.0285" width="8" x="2023.3103" y="79.1358"/>
      <line style="stroke:#181818;stroke-width:0.5;stroke-dasharray:5.0,5.0;" x1="2027.1567" x2="2027.1567" y1="79.1358" y2="2117.1643"/>
    </g>
    <rect fill="#E2E2F0" height="33.0679" rx="2.5" ry="2.5" style="stroke:#181818;stroke-width:0.5;" width="137.7875" x="50" y="45.0679"/>
    <text fill="#000000" font-family="sans-serif" font-size="14" lengthAdjust="spacing" textLength="123.7875" x="57" y="67.0339">src/config/config.h</text>
    <rect fill="#E2E2F0" height="33.0679" rx="2.5" ry="2.5" style="stroke:#181818;stroke-width:0.5;" width="137.7875" x="50" y="2116.1643"/>
    <text fill="#000000" font-family="sans-serif" font-size="14" lengthAdjust="spacing" textLength="123.7875" x="57" y="2138.1303">src/config/config.h</text>
    <rect fill="#E2E2F0" height="33.0679" rx="2.5" ry="2.5" style="stroke:#181818;stroke-width:0.5;" width="200.2973" x="197.7875" y="45.0679"/>
    <text fill="#000000" font-family="sans-serif" font-size="14" lengthAdjust="spacing" textLength="186.2973" x="204.7875" y="67.0339">src/config/yaml_decoders.cc</text>
    <rect fill="#E2E2F0" height="33.0679" rx="2.5" ry="2.5" style="stroke:#181818;stroke-width:0.5;" width="200.2973" x="197.7875" y="2116.1643"/>
    <text fill="#000000" font-family="sans-serif" font-size="14" lengthAdjust="spacing" textLength="186.2973" x="204.7875" y="2138.1303">src/config/yaml_decoders.cc</text>
    <a href="" target="_top" title="has_key(const YAML::Node &amp;,const std::string &amp;)::(lambda src/config/yaml_decoders.cc:110:46)" xlink:actuate="onRequest" xlink:href="" xlink:show="new" xlink:title="has_key(const YAML::Node &amp;,const std::string &amp;)::(lambda src/config/yaml_decoders.cc:110:46)" xlink:type="simple">
      <rect fill="#E2E2F0" height="33.0679" rx="2.5" ry="2.5" style="stroke:#181818;stroke-width:0.5;" width="685.5914" x="408.0848" y="45.0679"/>
      <text fill="#000000" font-family="sans-serif" font-size="14" lengthAdjust="spacing" textLength="671.5914" x="415.0848" y="67.0339">::YAML::has_key(const YAML::Node &amp;,const std::string &amp;)::(lambda src/config/yaml_decoders.cc:110:46)</text>
      <rect fill="#E2E2F0" height="33.0679" rx="2.5" ry="2.5" style="stroke:#181818;stroke-width:0.5;" width="685.5914" x="408.0848" y="2116.1643"/>
      <text fill="#000000" font-family="sans-serif" font-size="14" lengthAdjust="spacing" textLength="671.5914" x="415.0848" y="2138.1303">::YAML::has_key(const YAML::Node &amp;,const std::string &amp;)::(lambda src/config/yaml_decoders.cc:110:46)</text>
    </a>
    <rect fill="#E2E2F0" height="33.0679" rx="2.5" ry="2.5" style="stroke:#181818;stroke-width:0.5;" width="127.1336" x="1103.6762" y="45.0679"/>
    <text fill="#000000" font-family="sans-serif" font-size="14" lengthAdjust="spacing" textLength="113.1336" x="1110.6762" y="67.0339">src/util/logging.h</text>
    <rect fill="#E2E2F0" height="33.0679" rx="2.5" ry="2.5" style="stroke:#181818;stroke-width:0.5;" width="127.1336" x="1103.6762" y="2116.1643"/>
    <text fill="#000000" font-family="sans-serif" font-size="14" lengthAdjust="spacing" textLength="113.1336" x="1110.6762" y="2138.1303">src/util/logging.h</text>
    <a href="" target="_top" title="config_schema_error" xlink:actuate="onRequest" xlink:href="" xlink:show="new" xlink:title="config_schema_error" xlink:type="simple">
      <rect fill="#E2E2F0" height="33.0679" rx="2.5" ry="2.5" style="stroke:#181818;stroke-width:0.5;" width="193.1573" x="1337.7026" y="45.0679"/>
      <text fill="#000000" font-family="sans-serif" font-size="14" lengthAdjust="spacing" textLength="179.1573" x="1344.7026" y="67.0339">error::config_schema_error</text>
      <rect fill="#E2E2F0" height="33.0679" rx="2.5" ry="2.5" style="stroke:#181818;stroke-width:0.5;" width="193.1573" x="1337.7026" y="2116.1643"/>
      <text fill="#000000" font-family="sans-serif" font-size="14" lengthAdjust="spacing" textLength="179.1573" x="1344.7026" y="2138.1303">error::config_schema_error</text>
    </a>
    <a href="" target="_top" title="Represents entire configuration file" xlink:actuate="onRequest" xlink:href="" xlink:show="new" xlink:title="Represents entire configuration file" xlink:type="simple">
      <rect fill="#E2E2F0" height="33.0679" rx="2.5" ry="2.5" style="stroke:#181818;stroke-width:0.5;" width="103.2636" x="1540.8599" y="45.0679"/>
      <text fill="#000000" font-family="sans-serif" font-size="14" lengthAdjust="spacing" textLength="89.2636" x="1547.8599" y="67.0339">config::config</text>
      <rect fill="#E2E2F0" height="33.0679" rx="2.5" ry="2.5" style="stroke:#181818;stroke-width:0.5;" width="103.2636" x="1540.8599" y="2116.1643"/>
      <text fill="#000000" font-family="sans-serif" font-size="14" lengthAdjust="spacing" textLength="89.2636" x="1547.8599" y="2138.1303">config::config</text>
    </a>
    <a href="" target="_top" title="Represents subset of inheritable configuration options" xlink:actuate="onRequest" xlink:href="" xlink:show="new" xlink:title="Represents subset of inheritable configuration options" xlink:type="simple">
      <rect fill="#E2E2F0" height="33.0679" rx="2.5" ry="2.5" style="stroke:#181818;stroke-width:0.5;" width="251.0331" x="1654.1236" y="45.0679"/>
      <text fill="#000000" font-family="sans-serif" font-size="14" lengthAdjust="spacing" textLength="237.0331" x="1661.1236" y="67.0339">config::inheritable_diagram_options</text>
      <rect fill="#E2E2F0" height="33.0679" rx="2.5" ry="2.5" style="stroke:#181818;stroke-width:0.5;" width="251.0331" x="1654.1236" y="2116.1643"/>
      <text fill="#000000" font-family="sans-serif" font-size="14" lengthAdjust="spacing" textLength="237.0331" x="1661.1236" y="2138.1303">config::inheritable_diagram_options</text>
    </a>
    <rect fill="#E2E2F0" height="33.0679" rx="2.5" ry="2.5" style="stroke:#181818;stroke-width:0.5;" width="224.3072" x="1915.1567" y="45.0679"/>
    <text fill="#000000" font-family="sans-serif" font-size="14" lengthAdjust="spacing" textLength="210.3072" x="1922.1567" y="67.0339">src/config/diagram_templates.h</text>
    <rect fill="#E2E2F0" height="33.0679" rx="2.5" ry="2.5" style="stroke:#181818;stroke-width:0.5;" width="224.3072" x="1915.1567" y="2116.1643"/>
    <text fill="#000000" font-family="sans-serif" font-size="14" lengthAdjust="spacing" textLength="210.3072" x="1922.1567" y="2138.1303">src/config/diagram_templates.h</text>
    <g>
      <title>src/config/config.h</title>
      <rect fill="#FFFFFF" height="1994.3225" style="stroke:#181818;stroke-width:1;" width="10" x="113.8938" y="112.8419"/>
    </g>
    <g>
      <title>src/config/yaml_decoders.cc</title>
      <rect fill="#FFFFFF" height="59.706" style="stroke:#181818;stroke-width:1;" width="10" x="292.9361" y="288.784"/>
    </g>
    <g>
      <title>src/config/yaml_decoders.cc</title>
      <rect fill="#FFFFFF" height="41.706" style="stroke:#181818;stroke-width:1;" width="10" x="292.9361" y="1147.3742"/>
    </g>
    <g>
      <title>src/config/yaml_decoders.cc</title>
      <rect fill="#FFFFFF" height="55.706" style="stroke:#181818;stroke-width:1;" width="10" x="292.9361" y="1212.7862"/>
    </g>
    <g>
      <title>src/config/yaml_decoders.cc</title>
      <rect fill="#FFFFFF" height="55.706" style="stroke:#181818;stroke-width:1;" width="10" x="292.9361" y="1333.9043"/>
    </g>
    <g>
      <title>src/config/yaml_decoders.cc</title>
      <rect fill="#FFFFFF" height="55.706" style="stroke:#181818;stroke-width:1;" width="10" x="292.9361" y="1481.7284"/>
    </g>
    <g>
      <title>::YAML::has_key(const YAML::Node &amp;,const std::string &amp;)::(lambda src/config/yaml_decoders.cc:110:46)</title>
      <rect fill="#FFFFFF" height="14" style="stroke:#181818;stroke-width:1;" width="10" x="745.8805" y="320.49"/>
    </g>
    <g>
      <title>src/util/logging.h</title>
      <rect fill="#FFFFFF" height="721.4722" style="stroke:#181818;stroke-width:1;" width="10" x="1162.243" y="387.196"/>
    </g>
    <g>
      <title>src/util/logging.h</title>
      <rect fill="#FFFFFF" height="28" style="stroke:#181818;stroke-width:1;" width="10" x="1167.243" y="426.902"/>
    </g>
    <g>
      <title>src/util/logging.h</title>
      <rect fill="#FFFFFF" height="439.9421" style="stroke:#181818;stroke-width:1;" width="10" x="1167.243" y="501.608"/>
    </g>
    <g>
      <title>src/util/logging.h</title>
      <rect fill="#FFFFFF" height="201.412" style="stroke:#181818;stroke-width:1;" width="10" x="1172.243" y="575.0201"/>
    </g>
    <g>
      <title>src/util/logging.h</title>
      <rect fill="#FFFFFF" height="28" style="stroke:#181818;stroke-width:1;" width="10" x="1177.243" y="619.7261"/>
    </g>
    <g>
      <title>src/util/logging.h</title>
      <rect fill="#FFFFFF" height="28" style="stroke:#181818;stroke-width:1;" width="10" x="1177.243" y="721.4321"/>
    </g>
    <g>
      <title>src/util/logging.h</title>
      <rect fill="#FFFFFF" height="60.706" style="stroke:#181818;stroke-width:1;" width="10" x="1172.243" y="858.8441"/>
    </g>
    <g>
      <title>src/util/logging.h</title>
      <rect fill="#FFFFFF" height="28" style="stroke:#181818;stroke-width:1;" width="10" x="1167.243" y="973.2562"/>
    </g>
    <g>
      <title>src/util/logging.h</title>
      <rect fill="#FFFFFF" height="60.706" style="stroke:#181818;stroke-width:1;" width="10" x="1167.243" y="1047.9622"/>
    </g>
    <g>
      <title>error::config_schema_error</title>
      <rect fill="#FFFFFF" height="30" style="stroke:#181818;stroke-width:1;" width="10" x="1429.2813" y="1650.5524"/>
    </g>
    <g>
      <title>config::config</title>
      <rect fill="#FFFFFF" height="198.8241" style="stroke:#181818;stroke-width:1;" width="10" x="1587.4918" y="1752.9645"/>
    </g>
    <g>
      <title>config::config</title>
      <rect fill="#FFFFFF" height="61.706" style="stroke:#181818;stroke-width:1;" width="10" x="1587.4918" y="1982.4945"/>
    </g>
    <g>
      <title>config::inheritable_diagram_options</title>
      <rect fill="#FFFFFF" height="30" style="stroke:#181818;stroke-width:1;" width="10" x="1774.6401" y="1811.3765"/>
    </g>
    <g>
      <title>config::inheritable_diagram_options</title>
      <rect fill="#FFFFFF" height="28" style="stroke:#181818;stroke-width:1;" width="10" x="1774.6401" y="1899.7885"/>
    </g>
    <g>
      <title>src/config/diagram_templates.h</title>
      <rect fill="#FFFFFF" height="30" style="stroke:#181818;stroke-width:1;" width="10" x="2022.3103" y="2014.2006"/>
    </g>
    <polygon fill="#181818" points="101.8938,108.8419,111.8938,112.8419,101.8938,116.8419,105.8938,112.8419" style="stroke:#181818;stroke-width:1;"/>
    <line style="stroke:#181818;stroke-width:1;" x1="0" x2="107.8938" y1="112.8419" y2="112.8419"/>
    <text fill="#000000" font-family="sans-serif" font-size="13" lengthAdjust="spacing" textLength="34.307" x="7" y="107.0328">load()</text>
    <path d="M10,127.8419 L73.941,127.8419 L73.941,137.5479 L63.941,147.5479 L10,147.5479 L10,127.8419 " fill="#EEEEEE" style="stroke:#000000;stroke-width:1.5;"/>
    <rect fill="transparent" height="1972.3225" style="stroke:#000000;stroke-width:1.5;" width="2139.4639" x="10" y="127.8419"/>
    <text fill="#000000" font-family="sans-serif" font-size="13" font-weight="bold" lengthAdjust="spacing" textLength="18.941" x="25" y="142.7389">try</text>
    <path d="M29,152.5479 L29,232.5479 L206,232.5479 L206,162.5479 L196,152.5479 L29,152.5479 " fill="#FEFFDD" style="stroke:#181818;stroke-width:0.5;"/>
    <path d="M196,152.5479 L196,162.5479 L206,162.5479 L196,152.5479 " fill="#FEFFDD" style="stroke:#181818;stroke-width:0.5;"/>
    <text fill="#000000" font-family="sans-serif" font-size="13" lengthAdjust="spacing" textLength="147.0431" x="35" y="171.4449">Store the parent path of</text>
    <text fill="#000000" font-family="sans-serif" font-size="13" lengthAdjust="spacing" textLength="156.9101" x="35" y="189.1509">the config_file to properly</text>
    <text fill="#000000" font-family="sans-serif" font-size="13" lengthAdjust="spacing" textLength="145.1841" x="35" y="206.8569">resolve relative paths in</text>
    <text fill="#000000" font-family="sans-serif" font-size="13" lengthAdjust="spacing" textLength="59.8521" x="35" y="224.5629">config file</text>
    <path d="M40,245.3719 L102.459,245.3719 L102.459,255.0779 L92.459,265.0779 L40,265.0779 L40,245.3719 " fill="#EEEEEE" style="stroke:#000000;stroke-width:1.5;"/>
    <rect fill="transparent" height="111.118" style="stroke:#000000;stroke-width:1.5;" width="1063.6762" x="40" y="245.3719"/>
    <text fill="#000000" font-family="sans-serif" font-size="13" font-weight="bold" lengthAdjust="spacing" textLength="17.459" x="55" y="260.2689">alt</text>
    <text fill="#000000" font-family="sans-serif" font-size="11" font-weight="bold" lengthAdjust="spacing" textLength="170.2567" x="117.459" y="259.1308">[has_key(doc, "__parent_path")]</text>
    <a href="" target="_top" title="" xlink:actuate="onRequest" xlink:href="" xlink:show="new" xlink:title="" xlink:type="simple">
      <polygon fill="#181818" points="280.9361,284.784,290.9361,288.784,280.9361,292.784,284.9361,288.784" style="stroke:#181818;stroke-width:1;"/>
      <line style="stroke:#181818;stroke-width:1;" x1="123.8938" x2="286.9361" y1="288.784" y2="288.784"/>
      <text fill="#000000" font-family="sans-serif" font-size="13" font-weight="bold" lengthAdjust="spacing" textLength="4.303" x="130.8938" y="282.975">[</text>
      <text fill="#000000" font-family="sans-serif" font-size="13" lengthAdjust="spacing" textLength="56.03" x="135.1968" y="282.975">has_key()</text>
      <text fill="#000000" font-family="sans-serif" font-size="13" font-weight="bold" lengthAdjust="spacing" textLength="4.303" x="191.2268" y="282.975">]</text>
    </a>
    <a href="" target="_top" title="" xlink:actuate="onRequest" xlink:href="" xlink:show="new" xlink:title="" xlink:type="simple">
      <polygon fill="#181818" points="733.8805,316.49,743.8805,320.49,733.8805,324.49,737.8805,320.49" style="stroke:#181818;stroke-width:1;"/>
      <line style="stroke:#181818;stroke-width:1;" x1="302.9361" x2="739.8805" y1="320.49" y2="320.49"/>
      <text fill="#000000" font-family="sans-serif" font-size="13" lengthAdjust="spacing" textLength="105.8201" x="309.9361" y="314.681">operator()() const</text>
    </a>
    <polygon fill="#181818" points="313.9361,330.49,303.9361,334.49,313.9361,338.49,309.9361,334.49" style="stroke:#181818;stroke-width:1;"/>
    <line style="stroke:#181818;stroke-width:1;stroke-dasharray:2.0,2.0;" x1="307.9361" x2="749.8805" y1="334.49" y2="334.49"/>
    <polygon fill="#181818" points="134.8938,344.49,124.8938,348.49,134.8938,352.49,130.8938,348.49" style="stroke:#181818;stroke-width:1;"/>
    <line style="stroke:#181818;stroke-width:1;stroke-dasharray:2.0,2.0;" x1="128.8938" x2="296.9361" y1="348.49" y2="348.49"/>
    <a href="" target="_top" title="" xlink:actuate="onRequest" xlink:href="" xlink:show="new" xlink:title="" xlink:type="simple">
      <polygon fill="#181818" points="1150.243,383.196,1160.243,387.196,1150.243,391.196,1154.243,387.196" style="stroke:#181818;stroke-width:1;"/>
      <line style="stroke:#181818;stroke-width:1;" x1="123.8938" x2="1156.243" y1="387.196" y2="387.196"/>
      <text fill="#000000" font-family="sans-serif" font-size="13" lengthAdjust="spacing" textLength="233.0383" x="130.8938" y="381.387">log_impl&lt;const char *,int,std::string&gt;()</text>
    </a>
    <a href="" target="_top" title="" xlink:actuate="onRequest" xlink:href="" xlink:show="new" xlink:title="" xlink:type="simple">
      <line style="stroke:#181818;stroke-width:1;" x1="1177.243" x2="1219.243" y1="418.902" y2="418.902"/>
      <line style="stroke:#181818;stroke-width:1;" x1="1219.243" x2="1219.243" y1="418.902" y2="431.902"/>
      <line style="stroke:#181818;stroke-width:1;" x1="1178.243" x2="1219.243" y1="431.902" y2="431.902"/>
      <polygon fill="#181818" points="1188.243,427.902,1178.243,431.902,1188.243,435.902,1184.243,431.902" style="stroke:#181818;stroke-width:1;"/>
      <text fill="#000000" font-family="sans-serif" font-size="13" lengthAdjust="spacing" textLength="80.1321" x="1184.243" y="413.093">logger_type()</text>
    </a>
    <a href="" target="_top" title="" xlink:actuate="onRequest" xlink:href="" xlink:show="new" xlink:title="" xlink:type="simple">
      <line style="stroke:#181818;stroke-width:1;" x1="1172.243" x2="1219.243" y1="488.608" y2="488.608"/>
      <line style="stroke:#181818;stroke-width:1;" x1="1219.243" x2="1219.243" y1="488.608" y2="501.608"/>
      <line style="stroke:#181818;stroke-width:1;" x1="1178.243" x2="1219.243" y1="501.608" y2="501.608"/>
      <polygon fill="#181818" points="1188.243,497.608,1178.243,501.608,1188.243,505.608,1184.243,501.608" style="stroke:#181818;stroke-width:1;"/>
      <text fill="#000000" font-family="sans-serif" font-size="13" lengthAdjust="spacing" textLength="233.0383" x="1184.243" y="482.799">log_impl&lt;const char *,int,std::string&gt;()</text>
    </a>
    <path d="M1093.6762,521.608 L1156.1352,521.608 L1156.1352,531.314 L1146.1352,541.314 L1093.6762,541.314 L1093.6762,521.608 " fill="#EEEEEE" style="stroke:#000000;stroke-width:1.5;"/>
    <rect fill="transparent" height="269.8241" style="stroke:#000000;stroke-width:1.5;" width="280.4649" x="1093.6762" y="521.608"/>
    <text fill="#000000" font-family="sans-serif" font-size="13" font-weight="bold" lengthAdjust="spacing" textLength="17.459" x="1108.6762" y="536.505">alt</text>
    <text fill="#000000" font-family="sans-serif" font-size="11" font-weight="bold" lengthAdjust="spacing" textLength="152.6569" x="1171.1352" y="535.3669">[type == logger_type_t::text]</text>
    <line style="stroke:#000000;stroke-width:1;stroke-dasharray:2.0,2.0;" x1="1093.6762" x2="1374.1412" y1="542.314" y2="542.314"/>
    <a href="" target="_top" title="" xlink:actuate="onRequest" xlink:href="" xlink:show="new" xlink:title="" xlink:type="simple">
      <line style="stroke:#181818;stroke-width:1;" x1="1177.243" x2="1224.243" y1="562.0201" y2="562.0201"/>
      <line style="stroke:#181818;stroke-width:1;" x1="1224.243" x2="1224.243" y1="562.0201" y2="575.0201"/>
      <line style="stroke:#181818;stroke-width:1;" x1="1183.243" x2="1224.243" y1="575.0201" y2="575.0201"/>
      <polygon fill="#181818" points="1193.243,571.0201,1183.243,575.0201,1193.243,579.0201,1189.243,575.0201" style="stroke:#181818;stroke-width:1;"/>
      <text fill="#000000" font-family="sans-serif" font-size="13" lengthAdjust="spacing" textLength="157.8982" x="1189.243" y="556.2111">escape_json&lt;std::string&gt;()</text>
    </a>
    <a href="" target="_top" title="" xlink:actuate="onRequest" xlink:href="" xlink:show="new" xlink:title="" xlink:type="simple">
      <line style="stroke:#181818;stroke-width:1;" x1="1187.243" x2="1229.243" y1="611.7261" y2="611.7261"/>
      <line style="stroke:#181818;stroke-width:1;" x1="1229.243" x2="1229.243" y1="611.7261" y2="624.7261"/>
      <line style="stroke:#181818;stroke-width:1;" x1="1188.243" x2="1229.243" y1="624.7261" y2="624.7261"/>
      <polygon fill="#181818" points="1198.243,620.7261,1188.243,624.7261,1198.243,628.7261,1194.243,624.7261" style="stroke:#181818;stroke-width:1;"/>
      <text fill="#000000" font-family="sans-serif" font-size="13" lengthAdjust="spacing" textLength="122.9151" x="1194.243" y="605.9171">escape_json_string()</text>
    </a>
    <line style="stroke:#181818;stroke-width:1;stroke-dasharray:2.0,2.0;" x1="1182.243" x2="1224.243" y1="668.7261" y2="668.7261"/>
    <line style="stroke:#181818;stroke-width:1;stroke-dasharray:2.0,2.0;" x1="1224.243" x2="1224.243" y1="668.7261" y2="681.7261"/>
    <line style="stroke:#181818;stroke-width:1;stroke-dasharray:2.0,2.0;" x1="1183.243" x2="1224.243" y1="681.7261" y2="681.7261"/>
    <polygon fill="#181818" points="1193.243,677.7261,1183.243,681.7261,1193.243,685.7261,1189.243,681.7261" style="stroke:#181818;stroke-width:1;"/>
    <a href="" target="_top" title="" xlink:actuate="onRequest" xlink:href="" xlink:show="new" xlink:title="" xlink:type="simple">
      <line style="stroke:#181818;stroke-width:1;" x1="1187.243" x2="1229.243" y1="713.4321" y2="713.4321"/>
      <line style="stroke:#181818;stroke-width:1;" x1="1229.243" x2="1229.243" y1="713.4321" y2="726.4321"/>
      <line style="stroke:#181818;stroke-width:1;" x1="1188.243" x2="1229.243" y1="726.4321" y2="726.4321"/>
      <polygon fill="#181818" points="1198.243,722.4321,1188.243,726.4321,1198.243,730.4321,1194.243,726.4321" style="stroke:#181818;stroke-width:1;"/>
      <text fill="#000000" font-family="sans-serif" font-size="13" lengthAdjust="spacing" textLength="122.9151" x="1194.243" y="707.6231">escape_json_string()</text>
    </a>
    <line style="stroke:#181818;stroke-width:1;stroke-dasharray:2.0,2.0;" x1="1182.243" x2="1224.243" y1="775.4321" y2="775.4321"/>
    <line style="stroke:#181818;stroke-width:1;stroke-dasharray:2.0,2.0;" x1="1224.243" x2="1224.243" y1="775.4321" y2="788.4321"/>
    <line style="stroke:#181818;stroke-width:1;stroke-dasharray:2.0,2.0;" x1="1177.243" x2="1224.243" y1="788.4321" y2="788.4321"/>
    <polygon fill="#181818" points="1187.243,784.4321,1177.243,788.4321,1187.243,792.4321,1183.243,788.4321" style="stroke:#181818;stroke-width:1;"/>
    <path d="M1093.6762,805.4321 L1156.1352,805.4321 L1156.1352,815.1381 L1146.1352,825.1381 L1093.6762,825.1381 L1093.6762,805.4321 " fill="#EEEEEE" style="stroke:#000000;stroke-width:1.5;"/>
    <rect fill="transparent" height="129.118" style="stroke:#000000;stroke-width:1.5;" width="280.4649" x="1093.6762" y="805.4321"/>
    <text fill="#000000" font-family="sans-serif" font-size="13" font-weight="bold" lengthAdjust="spacing" textLength="17.459" x="1108.6762" y="820.3291">alt</text>
    <text fill="#000000" font-family="sans-serif" font-size="11" font-weight="bold" lengthAdjust="spacing" textLength="152.6569" x="1171.1352" y="819.191">[type == logger_type_t::text]</text>
    <line style="stroke:#000000;stroke-width:1;stroke-dasharray:2.0,2.0;" x1="1093.6762" x2="1374.1412" y1="826.1381" y2="826.1381"/>
    <a href="" target="_top" title="" xlink:actuate="onRequest" xlink:href="" xlink:show="new" xlink:title="" xlink:type="simple">
      <line style="stroke:#181818;stroke-width:1;" x1="1177.243" x2="1224.243" y1="845.8441" y2="845.8441"/>
      <line style="stroke:#181818;stroke-width:1;" x1="1224.243" x2="1224.243" y1="845.8441" y2="858.8441"/>
      <line style="stroke:#181818;stroke-width:1;" x1="1183.243" x2="1224.243" y1="858.8441" y2="858.8441"/>
      <polygon fill="#181818" points="1193.243,854.8441,1183.243,858.8441,1193.243,862.8441,1189.243,858.8441" style="stroke:#181818;stroke-width:1;"/>
      <text fill="#000000" font-family="sans-serif" font-size="13" lengthAdjust="spacing" textLength="157.8982" x="1189.243" y="840.0351">escape_json&lt;std::string&gt;()</text>
    </a>
    <polygon fill="#FEFFDD" points="1161,876.8441,1172,876.8441,1182,888.8441,1172,901.8441,1161,901.8441,1151,888.8441,1161,876.8441" style="stroke:#181818;stroke-width:0.5;"/>
    <text fill="#000000" font-family="sans-serif" font-size="13" lengthAdjust="spacing" textLength="7.163" x="1163" y="894.7411">*</text>
    <a href="" target="_top" title="" xlink:actuate="onRequest" xlink:href="" xlink:show="new" xlink:title="" xlink:type="simple">
      <line style="stroke:#181818;stroke-width:1;" x1="1177.243" x2="1219.243" y1="965.2562" y2="965.2562"/>
      <line style="stroke:#181818;stroke-width:1;" x1="1219.243" x2="1219.243" y1="965.2562" y2="978.2562"/>
      <line style="stroke:#181818;stroke-width:1;" x1="1178.243" x2="1219.243" y1="978.2562" y2="978.2562"/>
      <polygon fill="#181818" points="1188.243,974.2562,1178.243,978.2562,1188.243,982.2562,1184.243,978.2562" style="stroke:#181818;stroke-width:1;"/>
      <text fill="#000000" font-family="sans-serif" font-size="13" lengthAdjust="spacing" textLength="80.1321" x="1184.243" y="959.4472">logger_type()</text>
    </a>
    <a href="" target="_top" title="" xlink:actuate="onRequest" xlink:href="" xlink:show="new" xlink:title="" xlink:type="simple">
      <line style="stroke:#181818;stroke-width:1;" x1="1172.243" x2="1219.243" y1="1034.9622" y2="1034.9622"/>
      <line style="stroke:#181818;stroke-width:1;" x1="1219.243" x2="1219.243" y1="1034.9622" y2="1047.9622"/>
      <line style="stroke:#181818;stroke-width:1;" x1="1178.243" x2="1219.243" y1="1047.9622" y2="1047.9622"/>
      <polygon fill="#181818" points="1188.243,1043.9622,1178.243,1047.9622,1188.243,1051.9622,1184.243,1047.9622" style="stroke:#181818;stroke-width:1;"/>
      <text fill="#000000" font-family="sans-serif" font-size="13" lengthAdjust="spacing" textLength="233.0383" x="1184.243" y="1029.1532">log_impl&lt;const char *,int,std::string&gt;()</text>
    </a>
    <polygon fill="#FEFFDD" points="1161,1065.9622,1172,1065.9622,1182,1077.9622,1172,1090.9622,1161,1090.9622,1151,1077.9622,1161,1065.9622" style="stroke:#181818;stroke-width:0.5;"/>
    <text fill="#000000" font-family="sans-serif" font-size="13" lengthAdjust="spacing" textLength="7.163" x="1163" y="1083.8592">*</text>
    <a href="" target="_top" title="" xlink:actuate="onRequest" xlink:href="" xlink:show="new" xlink:title="" xlink:type="simple">
      <polygon fill="#181818" points="280.9361,1143.3742,290.9361,1147.3742,280.9361,1151.3742,284.9361,1147.3742" style="stroke:#181818;stroke-width:1;"/>
      <line style="stroke:#181818;stroke-width:1;" x1="123.8938" x2="286.9361" y1="1147.3742" y2="1147.3742"/>
      <text fill="#000000" font-family="sans-serif" font-size="13" lengthAdjust="spacing" textLength="131.2481" x="130.8938" y="1141.5652">resolve_option_path()</text>
    </a>
    <path d="M60,1162.3742 L122.459,1162.3742 L122.459,1172.0802 L112.459,1182.0802 L60,1182.0802 L60,1162.3742 " fill="#EEEEEE" style="stroke:#000000;stroke-width:1.5;"/>
    <rect fill="transparent" height="19.706" style="stroke:#000000;stroke-width:1.5;" width="227.482" x="60" y="1162.3742"/>
    <text fill="#000000" font-family="sans-serif" font-size="13" font-weight="bold" lengthAdjust="spacing" textLength="17.459" x="75" y="1177.2712">alt</text>
    <text fill="#000000" font-family="sans-serif" font-size="11" font-weight="bold" lengthAdjust="spacing" textLength="145.023" x="137.459" y="1176.1331">[option_path.is_absolute()]</text>
    <a href="" target="_top" title="" xlink:actuate="onRequest" xlink:href="" xlink:show="new" xlink:title="" xlink:type="simple">
      <polygon fill="#181818" points="280.9361,1208.7862,290.9361,1212.7862,280.9361,1216.7862,284.9361,1212.7862" style="stroke:#181818;stroke-width:1;"/>
      <line style="stroke:#181818;stroke-width:1;" x1="123.8938" x2="286.9361" y1="1212.7862" y2="1212.7862"/>
      <text fill="#000000" font-family="sans-serif" font-size="13" lengthAdjust="spacing" textLength="131.2481" x="130.8938" y="1206.9772">resolve_option_path()</text>
    </a>
    <polygon fill="#FEFFDD" points="292,1225.7862,303,1225.7862,313,1237.7862,303,1250.7862,292,1250.7862,282,1237.7862,292,1225.7862" style="stroke:#181818;stroke-width:0.5;"/>
    <text fill="#000000" font-family="sans-serif" font-size="13" lengthAdjust="spacing" textLength="7.163" x="294" y="1243.6833">*</text>
    <path d="M20,1290.4923 L82.459,1290.4923 L82.459,1300.1983 L72.459,1310.1983 L20,1310.1983 L20,1290.4923 " fill="#EEEEEE" style="stroke:#000000;stroke-width:1.5;"/>
    <rect fill="transparent" height="275.9421" style="stroke:#000000;stroke-width:1.5;" width="408.0848" x="20" y="1290.4923"/>
    <text fill="#000000" font-family="sans-serif" font-size="13" font-weight="bold" lengthAdjust="spacing" textLength="17.459" x="35" y="1305.3893">alt</text>
    <text fill="#000000" font-family="sans-serif" font-size="11" font-weight="bold" lengthAdjust="spacing" textLength="145.8149" x="97.459" y="1304.2512">[has_key(doc, "diagrams")]</text>
    <a href="" target="_top" title="" xlink:actuate="onRequest" xlink:href="" xlink:show="new" xlink:title="" xlink:type="simple">
      <polygon fill="#181818" points="280.9361,1329.9043,290.9361,1333.9043,280.9361,1337.9043,284.9361,1333.9043" style="stroke:#181818;stroke-width:1;"/>
      <line style="stroke:#181818;stroke-width:1;" x1="123.8938" x2="286.9361" y1="1333.9043" y2="1333.9043"/>
      <text fill="#000000" font-family="sans-serif" font-size="13" font-weight="bold" lengthAdjust="spacing" textLength="4.303" x="130.8938" y="1328.0953">[</text>
      <text fill="#000000" font-family="sans-serif" font-size="13" lengthAdjust="spacing" textLength="56.03" x="135.1968" y="1328.0953">has_key()</text>
      <text fill="#000000" font-family="sans-serif" font-size="13" font-weight="bold" lengthAdjust="spacing" textLength="4.303" x="191.2268" y="1328.0953">]</text>
    </a>
    <polygon fill="#FEFFDD" points="292,1346.9043,303,1346.9043,313,1358.9043,303,1371.9043,292,1371.9043,282,1358.9043,292,1346.9043" style="stroke:#181818;stroke-width:0.5;"/>
    <text fill="#000000" font-family="sans-serif" font-size="13" lengthAdjust="spacing" textLength="7.163" x="294" y="1364.8013">*</text>
    <path d="M30,1411.6103 L103.288,1411.6103 L103.288,1421.3163 L93.288,1431.3163 L30,1431.3163 L30,1411.6103 " fill="#EEEEEE" style="stroke:#000000;stroke-width:1.5;"/>
    <rect fill="transparent" height="147.8241" style="stroke:#000000;stroke-width:1.5;" width="388.0848" x="30" y="1411.6103"/>
    <text fill="#000000" font-family="sans-serif" font-size="13" font-weight="bold" lengthAdjust="spacing" textLength="28.288" x="45" y="1426.5073">loop</text>
    <text fill="#000000" font-family="sans-serif" font-size="11" font-weight="bold" lengthAdjust="spacing" textLength="59.1136" x="118.288" y="1425.3692">[diagrams]</text>
    <path d="M40,1438.3163 L102.459,1438.3163 L102.459,1448.0223 L92.459,1458.0223 L40,1458.0223 L40,1438.3163 " fill="#EEEEEE" style="stroke:#000000;stroke-width:1.5;"/>
    <rect fill="transparent" height="114.118" style="stroke:#000000;stroke-width:1.5;" width="368.0848" x="40" y="1438.3163"/>
    <text fill="#000000" font-family="sans-serif" font-size="13" font-weight="bold" lengthAdjust="spacing" textLength="17.459" x="55" y="1453.2133">alt</text>
    <text fill="#000000" font-family="sans-serif" font-size="11" font-weight="bold" lengthAdjust="spacing" textLength="166.7038" x="117.459" y="1452.0752">[has_key(d.second, "include!")]</text>
    <a href="" target="_top" title="" xlink:actuate="onRequest" xlink:href="" xlink:show="new" xlink:title="" xlink:type="simple">
      <polygon fill="#181818" points="280.9361,1477.7284,290.9361,1481.7284,280.9361,1485.7284,284.9361,1481.7284" style="stroke:#181818;stroke-width:1;"/>
      <line style="stroke:#181818;stroke-width:1;" x1="123.8938" x2="286.9361" y1="1481.7284" y2="1481.7284"/>
      <text fill="#000000" font-family="sans-serif" font-size="13" font-weight="bold" lengthAdjust="spacing" textLength="4.303" x="130.8938" y="1475.9194">[</text>
      <text fill="#000000" font-family="sans-serif" font-size="13" lengthAdjust="spacing" textLength="56.03" x="135.1968" y="1475.9194">has_key()</text>
      <text fill="#000000" font-family="sans-serif" font-size="13" font-weight="bold" lengthAdjust="spacing" textLength="4.303" x="191.2268" y="1475.9194">]</text>
    </a>
    <polygon fill="#FEFFDD" points="292,1494.7284,303,1494.7284,313,1506.7284,303,1519.7284,292,1519.7284,282,1506.7284,292,1494.7284" style="stroke:#181818;stroke-width:0.5;"/>
    <text fill="#000000" font-family="sans-serif" font-size="13" lengthAdjust="spacing" textLength="7.163" x="294" y="1512.6254">*</text>
    <path d="M30,1580.4344 L92.459,1580.4344 L92.459,1590.1404 L82.459,1600.1404 L30,1600.1404 L30,1580.4344 " fill="#EEEEEE" style="stroke:#000000;stroke-width:1.5;"/>
    <rect fill="transparent" height="115.118" style="stroke:#000000;stroke-width:1.5;" width="1520.8599" x="30" y="1580.4344"/>
    <text fill="#000000" font-family="sans-serif" font-size="13" font-weight="bold" lengthAdjust="spacing" textLength="17.459" x="45" y="1595.3314">alt</text>
    <text fill="#000000" font-family="sans-serif" font-size="11" font-weight="bold" lengthAdjust="spacing" textLength="51.7766" x="107.459" y="1594.1933">[validate]</text>
    <path d="M40,1607.1404 L102.459,1607.1404 L102.459,1616.8464 L92.459,1626.8464 L40,1626.8464 L40,1607.1404 " fill="#EEEEEE" style="stroke:#000000;stroke-width:1.5;"/>
    <rect fill="transparent" height="81.412" style="stroke:#000000;stroke-width:1.5;" width="1500.8599" x="40" y="1607.1404"/>
    <text fill="#000000" font-family="sans-serif" font-size="13" font-weight="bold" lengthAdjust="spacing" textLength="17.459" x="55" y="1622.0374">alt</text>
    <text fill="#000000" font-family="sans-serif" font-size="11" font-weight="bold" lengthAdjust="spacing" textLength="136.894" x="117.459" y="1620.8993">[!schema_errors.empty()]</text>
    <a href="" target="_top" title="" xlink:actuate="onRequest" xlink:href="" xlink:show="new" xlink:title="" xlink:type="simple">
      <polygon fill="#181818" points="1417.2813,1646.5524,1427.2813,1650.5524,1417.2813,1654.5524,1421.2813,1650.5524" style="stroke:#181818;stroke-width:1;"/>
      <line style="stroke:#181818;stroke-width:1;" x1="123.8938" x2="1423.2813" y1="1650.5524" y2="1650.5524"/>
      <text fill="#000000" font-family="sans-serif" font-size="13" lengthAdjust="spacing" textLength="135.8891" x="130.8938" y="1644.7434">config_schema_error()</text>
    </a>
    <path d="M40,1709.5524 L102.459,1709.5524 L102.459,1719.2584 L92.459,1729.2584 L40,1729.2584 L40,1709.5524 " fill="#EEEEEE" style="stroke:#000000;stroke-width:1.5;"/>
    <rect fill="transparent" height="242.2361" style="stroke:#000000;stroke-width:1.5;" width="1895.1567" x="40" y="1709.5524"/>
    <text fill="#000000" font-family="sans-serif" font-size="13" font-weight="bold" lengthAdjust="spacing" textLength="17.459" x="55" y="1724.4494">alt</text>
    <text fill="#000000" font-family="sans-serif" font-size="11" font-weight="bold" lengthAdjust="spacing" textLength="44.7147" x="117.459" y="1723.3113">[inherit]</text>
    <a href="" target="_top" title="" xlink:actuate="onRequest" xlink:href="" xlink:show="new" xlink:title="" xlink:type="simple">
      <polygon fill="#181818" points="1575.4918,1748.9645,1585.4918,1752.9645,1575.4918,1756.9645,1579.4918,1752.9645" style="stroke:#181818;stroke-width:1;"/>
      <line style="stroke:#181818;stroke-width:1;" x1="123.8938" x2="1581.4918" y1="1752.9645" y2="1752.9645"/>
      <text fill="#000000" font-family="sans-serif" font-size="13" lengthAdjust="spacing" textLength="47.9701" x="130.8938" y="1747.1555">inherit()</text>
    </a>
    <path d="M1520.8599,1767.9645 L1594.148,1767.9645 L1594.148,1777.6705 L1584.148,1787.6705 L1520.8599,1787.6705 L1520.8599,1767.9645 " fill="#EEEEEE" style="stroke:#000000;stroke-width:1.5;"/>
    <rect fill="transparent" height="176.8241" style="stroke:#000000;stroke-width:1.5;" width="404.2967" x="1520.8599" y="1767.9645"/>
    <text fill="#000000" font-family="sans-serif" font-size="13" font-weight="bold" lengthAdjust="spacing" textLength="28.288" x="1535.8599" y="1782.8615">loop</text>
    <text fill="#000000" font-family="sans-serif" font-size="11" font-weight="bold" lengthAdjust="spacing" textLength="59.1136" x="1609.148" y="1781.7234">[diagrams]</text>
    <a href="" target="_top" title="" xlink:actuate="onRequest" xlink:href="" xlink:show="new" xlink:title="" xlink:type="simple">
      <polygon fill="#181818" points="1762.6401,1807.3765,1772.6401,1811.3765,1762.6401,1815.3765,1766.6401,1811.3765" style="stroke:#181818;stroke-width:1;"/>
      <line style="stroke:#181818;stroke-width:1;" x1="1597.4918" x2="1768.6401" y1="1811.3765" y2="1811.3765"/>
      <text fill="#000000" font-family="sans-serif" font-size="13" lengthAdjust="spacing" textLength="47.9701" x="1604.4918" y="1805.5675">inherit()</text>
    </a>
    <path d="M1530.8599,1856.3765 L1593.3189,1856.3765 L1593.3189,1866.0825 L1583.3189,1876.0825 L1530.8599,1876.0825 L1530.8599,1856.3765 " fill="#EEEEEE" style="stroke:#000000;stroke-width:1.5;"/>
    <rect fill="transparent" height="81.412" style="stroke:#000000;stroke-width:1.5;" width="384.2967" x="1530.8599" y="1856.3765"/>
    <text fill="#000000" font-family="sans-serif" font-size="13" font-weight="bold" lengthAdjust="spacing" textLength="17.459" x="1545.8599" y="1871.2735">alt</text>
    <text fill="#000000" font-family="sans-serif" font-size="11" font-weight="bold" lengthAdjust="spacing" textLength="139.523" x="1608.3189" y="1870.1354">[static_cast &lt;bool&gt; (expr)]</text>
    <a href="" target="_top" title="" xlink:actuate="onRequest" xlink:href="" xlink:show="new" xlink:title="" xlink:type="simple">
      <polygon fill="#181818" points="1762.6401,1895.7885,1772.6401,1899.7885,1762.6401,1903.7885,1766.6401,1899.7885" style="stroke:#181818;stroke-width:1;"/>
      <line style="stroke:#181818;stroke-width:1;" x1="1597.4918" x2="1768.6401" y1="1899.7885" y2="1899.7885"/>
      <text fill="#000000" font-family="sans-serif" font-size="13" font-weight="bold" lengthAdjust="spacing" textLength="4.303" x="1604.4918" y="1893.9795">[</text>
      <text fill="#000000" font-family="sans-serif" font-size="13" lengthAdjust="spacing" textLength="97.2531" x="1608.7948" y="1893.9795">get_relative_to()</text>
      <text fill="#000000" font-family="sans-serif" font-size="13" font-weight="bold" lengthAdjust="spacing" textLength="4.303" x="1706.0478" y="1893.9795">]</text>
    </a>
    <polygon fill="#181818" points="1608.4918,1909.7885,1598.4918,1913.7885,1608.4918,1917.7885,1604.4918,1913.7885" style="stroke:#181818;stroke-width:1;"/>
    <line style="stroke:#181818;stroke-width:1;stroke-dasharray:2.0,2.0;" x1="1602.4918" x2="1773.6401" y1="1913.7885" y2="1913.7885"/>
    <polygon fill="#181818" points="1608.4918,1923.7885,1598.4918,1927.7885,1608.4918,1931.7885,1604.4918,1927.7885" style="stroke:#181818;stroke-width:1;"/>
    <line style="stroke:#181818;stroke-width:1;stroke-dasharray:2.0,2.0;" x1="1602.4918" x2="1778.6401" y1="1927.7885" y2="1927.7885"/>
    <line style="stroke:#000000;stroke-width:1;stroke-dasharray:2.0,2.0;" x1="1530.8599" x2="1915.1567" y1="1936.7885" y2="1936.7885"/>
    <a href="" target="_top" title="" xlink:actuate="onRequest" xlink:href="" xlink:show="new" xlink:title="" xlink:type="simple">
      <polygon fill="#181818" points="1575.4918,1978.4945,1585.4918,1982.4945,1575.4918,1986.4945,1579.4918,1982.4945" style="stroke:#181818;stroke-width:1;"/>
      <line style="stroke:#181818;stroke-width:1;" x1="123.8938" x2="1581.4918" y1="1982.4945" y2="1982.4945"/>
      <text fill="#000000" font-family="sans-serif" font-size="13" lengthAdjust="spacing" textLength="182.1042" x="130.8938" y="1976.6855">initialize_diagram_templates()</text>
    </a>
    <a href="" target="_top" title="" xlink:actuate="onRequest" xlink:href="" xlink:show="new" xlink:title="" xlink:type="simple">
      <polygon fill="#181818" points="2010.3103,2010.2006,2020.3103,2014.2006,2010.3103,2018.2006,2014.3103,2014.2006" style="stroke:#181818;stroke-width:1;"/>
      <line style="stroke:#181818;stroke-width:1;" x1="1597.4918" x2="2016.3103" y1="2014.2006" y2="2014.2006"/>
      <text fill="#000000" font-family="sans-serif" font-size="13" lengthAdjust="spacing" textLength="224.8742" x="1604.4918" y="2008.3916">get_predefined_diagram_templates()</text>
    </a>
    <polygon fill="#181818" points="11,2054.2006,1,2058.2006,11,2062.2006,7,2058.2006" style="stroke:#181818;stroke-width:1;"/>
    <line style="stroke:#181818;stroke-width:1;stroke-dasharray:2.0,2.0;" x1="5" x2="112.8938" y1="2058.2006" y2="2058.2006"/>
    <line style="stroke:#000000;stroke-width:1;stroke-dasharray:2.0,2.0;" x1="10" x2="2149.4639" y1="2067.2006" y2="2067.2006"/>
    <text fill="#000000" font-family="sans-serif" font-size="11" font-weight="bold" lengthAdjust="spacing" textLength="95.9523" x="15" y="2078.9595">[YAML::BadFile &amp;]</text>
    <line style="stroke:#000000;stroke-width:1;stroke-dasharray:2.0,2.0;" x1="10" x2="2149.4639" y1="2084.1824" y2="2084.1824"/>
    <text fill="#000000" font-family="sans-serif" font-size="11" font-weight="bold" lengthAdjust="spacing" textLength="109.5042" x="15" y="2095.9414">[YAML::Exception &amp;]</text>
  </g>
</svg>
