<svg xmlns="http://www.w3.org/2000/svg" xmlns:xlink="http://www.w3.org/1999/xlink" contentScriptType="application/ecmascript" contentStyleType="text/css" height="1127px" preserveAspectRatio="none" style="width:2244px;height:1127px;" version="1.1" viewBox="0 0 2244 1127" width="2244px" zoomAndPan="magnify">
  <defs>
    <filter height="300%" id="f1hklerhgvnnnu" width="300%" x="-1" y="-1">
      <feGaussianBlur result="blurOut" stdDeviation="2.0"/>
      <feColorMatrix in="blurOut" result="blurOut2" type="matrix" values="0 0 0 0 0 0 0 0 0 0 0 0 0 0 0 0 0 0 .4 0"/>
      <feOffset dx="4.0" dy="4.0" in="blurOut2" result="blurOut3"/>
      <feBlend in="SourceGraphic" in2="blurOut3" mode="normal"/>
    </filter>
    <style type="text/css">a:hover { text-decoration: underline; }</style>
  </defs>
  <g>
    <rect fill="#FFFFFF" filter="url(#f1hklerhgvnnnu)" height="999.6641" style="stroke: #A80036; stroke-width: 1.0;" width="10" x="111" y="69.4297"/>
    <rect fill="#FFFFFF" filter="url(#f1hklerhgvnnnu)" height="14" style="stroke: #A80036; stroke-width: 1.0;" width="10" x="350" y="122.6953"/>
    <rect fill="#FFFFFF" filter="url(#f1hklerhgvnnnu)" height="14" style="stroke: #A80036; stroke-width: 1.0;" width="10" x="350" y="189.9609"/>
    <rect fill="#FFFFFF" filter="url(#f1hklerhgvnnnu)" height="14" style="stroke: #A80036; stroke-width: 1.0;" width="10" x="350" y="235.0938"/>
    <rect fill="#FFFFFF" filter="url(#f1hklerhgvnnnu)" height="14" style="stroke: #A80036; stroke-width: 1.0;" width="10" x="350" y="569.1563"/>
    <rect fill="#FFFFFF" filter="url(#f1hklerhgvnnnu)" height="14" style="stroke: #A80036; stroke-width: 1.0;" width="10" x="350" y="827.9531"/>
    <rect fill="#FFFFFF" filter="url(#f1hklerhgvnnnu)" height="14" style="stroke: #A80036; stroke-width: 1.0;" width="10" x="623.5" y="309.3594"/>
    <rect fill="#FFFFFF" filter="url(#f1hklerhgvnnnu)" height="30" style="stroke: #A80036; stroke-width: 1.0;" width="10" x="623.5" y="359.4922"/>
    <rect fill="#FFFFFF" filter="url(#f1hklerhgvnnnu)" height="30" style="stroke: #A80036; stroke-width: 1.0;" width="10" x="623.5" y="418.625"/>
    <rect fill="#FFFFFF" filter="url(#f1hklerhgvnnnu)" height="14" style="stroke: #A80036; stroke-width: 1.0;" width="10" x="623.5" y="526.0234"/>
    <rect fill="#FFFFFF" filter="url(#f1hklerhgvnnnu)" height="392.1953" style="stroke: #A80036; stroke-width: 1.0;" width="10" x="797" y="626.2891"/>
    <rect fill="#FFFFFF" filter="url(#f1hklerhgvnnnu)" height="143.3984" style="stroke: #A80036; stroke-width: 1.0;" width="10" x="1064" y="655.4219"/>
    <rect fill="#FFFFFF" filter="url(#f1hklerhgvnnnu)" height="14" style="stroke: #A80036; stroke-width: 1.0;" width="10" x="1343" y="684.5547"/>
    <rect fill="#FFFFFF" filter="url(#f1hklerhgvnnnu)" height="14" style="stroke: #A80036; stroke-width: 1.0;" width="10" x="1655" y="727.6875"/>
    <rect fill="#FFFFFF" filter="url(#f1hklerhgvnnnu)" height="14" style="stroke: #A80036; stroke-width: 1.0;" width="10" x="1655" y="770.8203"/>
    <rect fill="#FFFFFF" filter="url(#f1hklerhgvnnnu)" height="14" style="stroke: #A80036; stroke-width: 1.0;" width="10" x="2011.5" y="895.2188"/>
    <rect fill="#FFFFFF" filter="url(#f1hklerhgvnnnu)" height="30" style="stroke: #A80036; stroke-width: 1.0;" width="10" x="2011.5" y="938.3516"/>
    <rect fill="#FFFFFF" filter="url(#f1hklerhgvnnnu)" height="14" style="stroke: #A80036; stroke-width: 1.0;" width="10" x="2011.5" y="1004.4844"/>
    <rect fill="#FFFFFF" filter="url(#f1hklerhgvnnnu)" height="971.6641" style="stroke: #000000; stroke-width: 2.0;" width="2219.5" x="13" y="84.4297"/>
    <rect fill="#FFFFFF" filter="url(#f1hklerhgvnnnu)" height="105.3984" style="stroke: #000000; stroke-width: 2.0;" width="488" x="33" y="151.6953"/>
    <rect fill="#FFFFFF" height="45.1328" style="stroke: none; stroke-width: 1.0;" width="488" x="33" y="211.9609"/>
    <rect fill="#FFFFFF" filter="url(#f1hklerhgvnnnu)" height="60.2656" style="stroke: #000000; stroke-width: 2.0;" width="713" x="33" y="271.0938"/>
    <rect fill="#FFFFFF" filter="url(#f1hklerhgvnnnu)" height="134.5313" style="stroke: #000000; stroke-width: 2.0;" width="733" x="23" y="463.625"/>
    <rect fill="#FFFFFF" filter="url(#f1hklerhgvnnnu)" height="103.3984" style="stroke: #000000; stroke-width: 2.0;" width="713" x="33" y="487.7578"/>
    <rect fill="#FFFFFF" filter="url(#f1hklerhgvnnnu)" height="119.3984" style="stroke: #000000; stroke-width: 2.0;" width="1486.5" x="736" y="856.9531"/>
    <rect fill="#FFFFFF" height="14.8047" style="stroke: none; stroke-width: 1.0;" width="2219.5" x="13" y="1026.4844"/>
    <rect fill="#FFFFFF" height="14.8047" style="stroke: none; stroke-width: 1.0;" width="2219.5" x="13" y="1041.2891"/>
    <line style="stroke: #A80036; stroke-width: 1.0; stroke-dasharray: 5.0,5.0;" x1="116" x2="116" y1="38.2969" y2="1087.0938"/>
    <line style="stroke: #A80036; stroke-width: 1.0; stroke-dasharray: 5.0,5.0;" x1="355" x2="355" y1="38.2969" y2="1087.0938"/>
    <line style="stroke: #A80036; stroke-width: 1.0; stroke-dasharray: 5.0,5.0;" x1="628" x2="628" y1="38.2969" y2="1087.0938"/>
    <line style="stroke: #A80036; stroke-width: 1.0; stroke-dasharray: 5.0,5.0;" x1="802" x2="802" y1="38.2969" y2="1087.0938"/>
    <line style="stroke: #A80036; stroke-width: 1.0; stroke-dasharray: 5.0,5.0;" x1="1068.5" x2="1068.5" y1="38.2969" y2="1087.0938"/>
    <line style="stroke: #A80036; stroke-width: 1.0; stroke-dasharray: 5.0,5.0;" x1="1347.5" x2="1347.5" y1="38.2969" y2="1087.0938"/>
    <line style="stroke: #A80036; stroke-width: 1.0; stroke-dasharray: 5.0,5.0;" x1="1659.5" x2="1659.5" y1="38.2969" y2="1087.0938"/>
    <line style="stroke: #A80036; stroke-width: 1.0; stroke-dasharray: 5.0,5.0;" x1="2016.5" x2="2016.5" y1="38.2969" y2="1087.0938"/>
    <rect fill="#FEFECE" filter="url(#f1hklerhgvnnnu)" height="30.2969" style="stroke: #A80036; stroke-width: 1.5;" width="142" x="43" y="3"/>
    <text fill="#000000" font-family="sans-serif" font-size="14" lengthAdjust="spacingAndGlyphs" textLength="128" x="50" y="22.9951">src/config/config.h</text>
    <rect fill="#FEFECE" filter="url(#f1hklerhgvnnnu)" height="30.2969" style="stroke: #A80036; stroke-width: 1.5;" width="142" x="43" y="1086.0938"/>
    <text fill="#000000" font-family="sans-serif" font-size="14" lengthAdjust="spacingAndGlyphs" textLength="128" x="50" y="1106.0889">src/config/config.h</text>
    <rect fill="#FEFECE" filter="url(#f1hklerhgvnnnu)" height="30.2969" style="stroke: #A80036; stroke-width: 1.5;" width="308" x="199" y="3"/>
    <text fill="#000000" font-family="sans-serif" font-size="14" lengthAdjust="spacingAndGlyphs" textLength="294" x="206" y="22.9951">../../../../usr/include/yaml-cpp/node/parse.h</text>
    <rect fill="#FEFECE" filter="url(#f1hklerhgvnnnu)" height="30.2969" style="stroke: #A80036; stroke-width: 1.5;" width="308" x="199" y="1086.0938"/>
    <text fill="#000000" font-family="sans-serif" font-size="14" lengthAdjust="spacingAndGlyphs" textLength="294" x="206" y="1106.0889">../../../../usr/include/yaml-cpp/node/parse.h</text>
    <rect fill="#FEFECE" filter="url(#f1hklerhgvnnnu)" height="30.2969" style="stroke: #A80036; stroke-width: 1.5;" width="211" x="521" y="3"/>
    <text fill="#000000" font-family="sans-serif" font-size="14" lengthAdjust="spacingAndGlyphs" textLength="197" x="528" y="22.9951">src/config/yaml_decoders.cc</text>
    <rect fill="#FEFECE" filter="url(#f1hklerhgvnnnu)" height="30.2969" style="stroke: #A80036; stroke-width: 1.5;" width="211" x="521" y="1086.0938"/>
    <text fill="#000000" font-family="sans-serif" font-size="14" lengthAdjust="spacingAndGlyphs" textLength="197" x="528" y="1106.0889">src/config/yaml_decoders.cc</text>
    <a href="" target="_top" title="Represents entire configuration file" xlink:actuate="onRequest" xlink:href="" xlink:show="new" xlink:title="Represents entire configuration file" xlink:type="simple">
      <rect fill="#FEFECE" filter="url(#f1hklerhgvnnnu)" height="30.2969" style="stroke: #A80036; stroke-width: 1.5;" width="108" x="746" y="3"/>
      <text fill="#000000" font-family="sans-serif" font-size="14" lengthAdjust="spacingAndGlyphs" textLength="94" x="753" y="22.9951">config::config</text>
      <rect fill="#FEFECE" filter="url(#f1hklerhgvnnnu)" height="30.2969" style="stroke: #A80036; stroke-width: 1.5;" width="108" x="746" y="1086.0938"/>
      <text fill="#000000" font-family="sans-serif" font-size="14" lengthAdjust="spacingAndGlyphs" textLength="94" x="753" y="1106.0889">config::config</text>
    </a>
    <rect fill="#FEFECE" filter="url(#f1hklerhgvnnnu)" height="30.2969" style="stroke: #A80036; stroke-width: 1.5;" width="231" x="951.5" y="3"/>
    <text fill="#000000" font-family="sans-serif" font-size="14" lengthAdjust="spacingAndGlyphs" textLength="217" x="958.5" y="22.9951">src/config/diagram_templates.h</text>
    <rect fill="#FEFECE" filter="url(#f1hklerhgvnnnu)" height="30.2969" style="stroke: #A80036; stroke-width: 1.5;" width="231" x="951.5" y="1086.0938"/>
    <text fill="#000000" font-family="sans-serif" font-size="14" lengthAdjust="spacingAndGlyphs" textLength="217" x="958.5" y="1106.0889">src/config/diagram_templates.h</text>
    <rect fill="#FEFECE" filter="url(#f1hklerhgvnnnu)" height="30.2969" style="stroke: #A80036; stroke-width: 1.5;" width="299" x="1196.5" y="3"/>
    <text fill="#000000" font-family="sans-serif" font-size="14" lengthAdjust="spacingAndGlyphs" textLength="285" x="1203.5" y="22.9951">../../../../usr/include/yaml-cpp/node/emit.h</text>
    <rect fill="#FEFECE" filter="url(#f1hklerhgvnnnu)" height="30.2969" style="stroke: #A80036; stroke-width: 1.5;" width="299" x="1196.5" y="1086.0938"/>
    <text fill="#000000" font-family="sans-serif" font-size="14" lengthAdjust="spacingAndGlyphs" textLength="285" x="1203.5" y="1106.0889">../../../../usr/include/yaml-cpp/node/emit.h</text>
    <rect fill="#FEFECE" filter="url(#f1hklerhgvnnnu)" height="30.2969" style="stroke: #A80036; stroke-width: 1.5;" width="297" x="1509.5" y="3"/>
    <text fill="#000000" font-family="sans-serif" font-size="14" lengthAdjust="spacingAndGlyphs" textLength="283" x="1516.5" y="22.9951">../../../../usr/include/yaml-cpp/node/impl.h</text>
    <rect fill="#FEFECE" filter="url(#f1hklerhgvnnnu)" height="30.2969" style="stroke: #A80036; stroke-width: 1.5;" width="297" x="1509.5" y="1086.0938"/>
    <text fill="#000000" font-family="sans-serif" font-size="14" lengthAdjust="spacingAndGlyphs" textLength="283" x="1516.5" y="1106.0889">../../../../usr/include/yaml-cpp/node/impl.h</text>
    <a href="" target="_top" title="option" xlink:actuate="onRequest" xlink:href="" xlink:show="new" xlink:title="option" xlink:type="simple">
      <rect fill="#FEFECE" filter="url(#f1hklerhgvnnnu)" height="30.2969" style="stroke: #A80036; stroke-width: 1.5;" width="388" x="1820.5" y="3"/>
      <text fill="#000000" font-family="sans-serif" font-size="14" lengthAdjust="spacingAndGlyphs" textLength="374" x="1827.5" y="22.9951">config::option&lt;std::map&lt;std::basic_string&lt;char&gt;&gt;&gt;</text>
      <rect fill="#FEFECE" filter="url(#f1hklerhgvnnnu)" height="30.2969" style="stroke: #A80036; stroke-width: 1.5;" width="388" x="1820.5" y="1086.0938"/>
      <text fill="#000000" font-family="sans-serif" font-size="14" lengthAdjust="spacingAndGlyphs" textLength="374" x="1827.5" y="1106.0889">config::option&lt;std::map&lt;std::basic_string&lt;char&gt;&gt;&gt;</text>
    </a>
    <rect fill="#FFFFFF" filter="url(#f1hklerhgvnnnu)" height="999.6641" style="stroke: #A80036; stroke-width: 1.0;" width="10" x="111" y="69.4297"/>
    <rect fill="#FFFFFF" filter="url(#f1hklerhgvnnnu)" height="14" style="stroke: #A80036; stroke-width: 1.0;" width="10" x="350" y="122.6953"/>
    <rect fill="#FFFFFF" filter="url(#f1hklerhgvnnnu)" height="14" style="stroke: #A80036; stroke-width: 1.0;" width="10" x="350" y="189.9609"/>
    <rect fill="#FFFFFF" filter="url(#f1hklerhgvnnnu)" height="14" style="stroke: #A80036; stroke-width: 1.0;" width="10" x="350" y="235.0938"/>
    <rect fill="#FFFFFF" filter="url(#f1hklerhgvnnnu)" height="14" style="stroke: #A80036; stroke-width: 1.0;" width="10" x="350" y="569.1563"/>
    <rect fill="#FFFFFF" filter="url(#f1hklerhgvnnnu)" height="14" style="stroke: #A80036; stroke-width: 1.0;" width="10" x="350" y="827.9531"/>
    <rect fill="#FFFFFF" filter="url(#f1hklerhgvnnnu)" height="14" style="stroke: #A80036; stroke-width: 1.0;" width="10" x="623.5" y="309.3594"/>
    <rect fill="#FFFFFF" filter="url(#f1hklerhgvnnnu)" height="30" style="stroke: #A80036; stroke-width: 1.0;" width="10" x="623.5" y="359.4922"/>
    <rect fill="#FFFFFF" filter="url(#f1hklerhgvnnnu)" height="30" style="stroke: #A80036; stroke-width: 1.0;" width="10" x="623.5" y="418.625"/>
    <rect fill="#FFFFFF" filter="url(#f1hklerhgvnnnu)" height="14" style="stroke: #A80036; stroke-width: 1.0;" width="10" x="623.5" y="526.0234"/>
    <rect fill="#FFFFFF" filter="url(#f1hklerhgvnnnu)" height="392.1953" style="stroke: #A80036; stroke-width: 1.0;" width="10" x="797" y="626.2891"/>
    <rect fill="#FFFFFF" filter="url(#f1hklerhgvnnnu)" height="143.3984" style="stroke: #A80036; stroke-width: 1.0;" width="10" x="1064" y="655.4219"/>
    <rect fill="#FFFFFF" filter="url(#f1hklerhgvnnnu)" height="14" style="stroke: #A80036; stroke-width: 1.0;" width="10" x="1343" y="684.5547"/>
    <rect fill="#FFFFFF" filter="url(#f1hklerhgvnnnu)" height="14" style="stroke: #A80036; stroke-width: 1.0;" width="10" x="1655" y="727.6875"/>
    <rect fill="#FFFFFF" filter="url(#f1hklerhgvnnnu)" height="14" style="stroke: #A80036; stroke-width: 1.0;" width="10" x="1655" y="770.8203"/>
    <rect fill="#FFFFFF" filter="url(#f1hklerhgvnnnu)" height="14" style="stroke: #A80036; stroke-width: 1.0;" width="10" x="2011.5" y="895.2188"/>
    <rect fill="#FFFFFF" filter="url(#f1hklerhgvnnnu)" height="30" style="stroke: #A80036; stroke-width: 1.0;" width="10" x="2011.5" y="938.3516"/>
    <rect fill="#FFFFFF" filter="url(#f1hklerhgvnnnu)" height="14" style="stroke: #A80036; stroke-width: 1.0;" width="10" x="2011.5" y="1004.4844"/>
    <polygon fill="#A80036" points="99,65.4297,109,69.4297,99,73.4297,103,69.4297" style="stroke: #A80036; stroke-width: 1.0;"/>
    <line style="stroke: #A80036; stroke-width: 1.0;" x1="3" x2="105" y1="69.4297" y2="69.4297"/>
    <text fill="#000000" font-family="sans-serif" font-size="13" lengthAdjust="spacingAndGlyphs" textLength="37" x="10" y="64.3638">load()</text>
    <path d="M13,84.4297 L78,84.4297 L78,91.4297 L68,101.4297 L13,101.4297 L13,84.4297 " fill="#EEEEEE" style="stroke: #000000; stroke-width: 1.0;"/>
    <rect fill="none" height="971.6641" style="stroke: #000000; stroke-width: 2.0;" width="2219.5" x="13" y="84.4297"/>
    <text fill="#000000" font-family="sans-serif" font-size="13" font-weight="bold" lengthAdjust="spacingAndGlyphs" textLength="20" x="28" y="97.4966">try</text>
    <a href="" target="_top" title="" xlink:actuate="onRequest" xlink:href="" xlink:show="new" xlink:title="" xlink:type="simple">
      <polygon fill="#A80036" points="338,118.6953,348,122.6953,338,126.6953,342,122.6953" style="stroke: #A80036; stroke-width: 1.0;"/>
      <line style="stroke: #A80036; stroke-width: 1.0;" x1="121" x2="344" y1="122.6953" y2="122.6953"/>
      <text fill="#000000" font-family="sans-serif" font-size="13" lengthAdjust="spacingAndGlyphs" textLength="41" x="128" y="117.6294">Load()</text>
    </a>
    <polygon fill="#A80036" points="132,132.6953,122,136.6953,132,140.6953,128,136.6953" style="stroke: #A80036; stroke-width: 1.0;"/>
    <line style="stroke: #A80036; stroke-width: 1.0; stroke-dasharray: 2.0,2.0;" x1="126" x2="354" y1="136.6953" y2="136.6953"/>
    <path d="M33,151.6953 L97,151.6953 L97,158.6953 L87,168.6953 L33,168.6953 L33,151.6953 " fill="#EEEEEE" style="stroke: #000000; stroke-width: 1.0;"/>
    <rect fill="none" height="105.3984" style="stroke: #000000; stroke-width: 2.0;" width="488" x="33" y="151.6953"/>
    <text fill="#000000" font-family="sans-serif" font-size="13" font-weight="bold" lengthAdjust="spacingAndGlyphs" textLength="19" x="48" y="164.7622">alt</text>
    <a href="" target="_top" title="" xlink:actuate="onRequest" xlink:href="" xlink:show="new" xlink:title="" xlink:type="simple">
      <polygon fill="#A80036" points="338,185.9609,348,189.9609,338,193.9609,342,189.9609" style="stroke: #A80036; stroke-width: 1.0;"/>
      <line style="stroke: #A80036; stroke-width: 1.0;" x1="121" x2="344" y1="189.9609" y2="189.9609"/>
      <text fill="#000000" font-family="sans-serif" font-size="13" lengthAdjust="spacingAndGlyphs" textLength="41" x="128" y="184.895">Load()</text>
    </a>
    <polygon fill="#A80036" points="132,199.9609,122,203.9609,132,207.9609,128,203.9609" style="stroke: #A80036; stroke-width: 1.0;"/>
    <line style="stroke: #A80036; stroke-width: 1.0; stroke-dasharray: 2.0,2.0;" x1="126" x2="354" y1="203.9609" y2="203.9609"/>
    <line style="stroke: #000000; stroke-width: 1.0; stroke-dasharray: 2.0,2.0;" x1="33" x2="521" y1="212.9609" y2="212.9609"/>
    <a href="" target="_top" title="" xlink:actuate="onRequest" xlink:href="" xlink:show="new" xlink:title="" xlink:type="simple">
      <polygon fill="#A80036" points="338,231.0938,348,235.0938,338,239.0938,342,235.0938" style="stroke: #A80036; stroke-width: 1.0;"/>
      <line style="stroke: #A80036; stroke-width: 1.0;" x1="121" x2="344" y1="235.0938" y2="235.0938"/>
      <text fill="#000000" font-family="sans-serif" font-size="13" lengthAdjust="spacingAndGlyphs" textLength="62" x="128" y="230.0278">LoadFile()</text>
    </a>
    <polygon fill="#A80036" points="132,245.0938,122,249.0938,132,253.0938,128,249.0938" style="stroke: #A80036; stroke-width: 1.0;"/>
    <line style="stroke: #A80036; stroke-width: 1.0; stroke-dasharray: 2.0,2.0;" x1="126" x2="354" y1="249.0938" y2="249.0938"/>
    <path d="M33,271.0938 L97,271.0938 L97,278.0938 L87,288.0938 L33,288.0938 L33,271.0938 " fill="#EEEEEE" style="stroke: #000000; stroke-width: 1.0;"/>
    <rect fill="none" height="60.2656" style="stroke: #000000; stroke-width: 2.0;" width="713" x="33" y="271.0938"/>
    <text fill="#000000" font-family="sans-serif" font-size="13" font-weight="bold" lengthAdjust="spacingAndGlyphs" textLength="19" x="48" y="284.1606">alt</text>
    <a href="" target="_top" title="" xlink:actuate="onRequest" xlink:href="" xlink:show="new" xlink:title="" xlink:type="simple">
      <polygon fill="#A80036" points="611.5,305.3594,621.5,309.3594,611.5,313.3594,615.5,309.3594" style="stroke: #A80036; stroke-width: 1.0;"/>
      <line style="stroke: #A80036; stroke-width: 1.0;" x1="121" x2="617.5" y1="309.3594" y2="309.3594"/>
      <text fill="#000000" font-family="sans-serif" font-size="13" font-weight="bold" lengthAdjust="spacingAndGlyphs" textLength="6" x="128" y="304.2935">[</text>
      <text fill="#000000" font-family="sans-serif" font-size="13" lengthAdjust="spacingAndGlyphs" textLength="62" x="134" y="304.2935">has_key()</text>
      <text fill="#000000" font-family="sans-serif" font-size="13" font-weight="bold" lengthAdjust="spacingAndGlyphs" textLength="6" x="196" y="304.2935">]</text>
    </a>
    <polygon fill="#A80036" points="132,319.3594,122,323.3594,132,327.3594,128,323.3594" style="stroke: #A80036; stroke-width: 1.0;"/>
    <line style="stroke: #A80036; stroke-width: 1.0; stroke-dasharray: 2.0,2.0;" x1="126" x2="627.5" y1="323.3594" y2="323.3594"/>
    <a href="" target="_top" title="" xlink:actuate="onRequest" xlink:href="" xlink:show="new" xlink:title="" xlink:type="simple">
      <polygon fill="#A80036" points="611.5,355.4922,621.5,359.4922,611.5,363.4922,615.5,359.4922" style="stroke: #A80036; stroke-width: 1.0;"/>
      <line style="stroke: #A80036; stroke-width: 1.0;" x1="121" x2="617.5" y1="359.4922" y2="359.4922"/>
      <text fill="#000000" font-family="sans-serif" font-size="13" lengthAdjust="spacingAndGlyphs" textLength="139" x="128" y="354.4263">resolve_option_path()</text>
    </a>
    <a href="" target="_top" title="" xlink:actuate="onRequest" xlink:href="" xlink:show="new" xlink:title="" xlink:type="simple">
      <polygon fill="#A80036" points="611.5,414.625,621.5,418.625,611.5,422.625,615.5,418.625" style="stroke: #A80036; stroke-width: 1.0;"/>
      <line style="stroke: #A80036; stroke-width: 1.0;" x1="121" x2="617.5" y1="418.625" y2="418.625"/>
      <text fill="#000000" font-family="sans-serif" font-size="13" lengthAdjust="spacingAndGlyphs" textLength="139" x="128" y="413.5591">resolve_option_path()</text>
    </a>
    <path d="M23,463.625 L100,463.625 L100,470.625 L90,480.625 L23,480.625 L23,463.625 " fill="#EEEEEE" style="stroke: #000000; stroke-width: 1.0;"/>
    <rect fill="none" height="134.5313" style="stroke: #000000; stroke-width: 2.0;" width="733" x="23" y="463.625"/>
    <text fill="#000000" font-family="sans-serif" font-size="13" font-weight="bold" lengthAdjust="spacingAndGlyphs" textLength="32" x="38" y="476.6919">loop</text>
    <path d="M33,487.7578 L97,487.7578 L97,494.7578 L87,504.7578 L33,504.7578 L33,487.7578 " fill="#EEEEEE" style="stroke: #000000; stroke-width: 1.0;"/>
    <rect fill="none" height="103.3984" style="stroke: #000000; stroke-width: 2.0;" width="713" x="33" y="487.7578"/>
    <text fill="#000000" font-family="sans-serif" font-size="13" font-weight="bold" lengthAdjust="spacingAndGlyphs" textLength="19" x="48" y="500.8247">alt</text>
    <a href="" target="_top" title="" xlink:actuate="onRequest" xlink:href="" xlink:show="new" xlink:title="" xlink:type="simple">
      <polygon fill="#A80036" points="611.5,522.0234,621.5,526.0234,611.5,530.0234,615.5,526.0234" style="stroke: #A80036; stroke-width: 1.0;"/>
      <line style="stroke: #A80036; stroke-width: 1.0;" x1="121" x2="617.5" y1="526.0234" y2="526.0234"/>
      <text fill="#000000" font-family="sans-serif" font-size="13" font-weight="bold" lengthAdjust="spacingAndGlyphs" textLength="6" x="128" y="520.9575">[</text>
      <text fill="#000000" font-family="sans-serif" font-size="13" lengthAdjust="spacingAndGlyphs" textLength="62" x="134" y="520.9575">has_key()</text>
      <text fill="#000000" font-family="sans-serif" font-size="13" font-weight="bold" lengthAdjust="spacingAndGlyphs" textLength="6" x="196" y="520.9575">]</text>
    </a>
    <polygon fill="#A80036" points="132,536.0234,122,540.0234,132,544.0234,128,540.0234" style="stroke: #A80036; stroke-width: 1.0;"/>
    <line style="stroke: #A80036; stroke-width: 1.0; stroke-dasharray: 2.0,2.0;" x1="126" x2="627.5" y1="540.0234" y2="540.0234"/>
    <a href="" target="_top" title="" xlink:actuate="onRequest" xlink:href="" xlink:show="new" xlink:title="" xlink:type="simple">
      <polygon fill="#A80036" points="338,565.1563,348,569.1563,338,573.1563,342,569.1563" style="stroke: #A80036; stroke-width: 1.0;"/>
      <line style="stroke: #A80036; stroke-width: 1.0;" x1="121" x2="344" y1="569.1563" y2="569.1563"/>
      <text fill="#000000" font-family="sans-serif" font-size="13" lengthAdjust="spacingAndGlyphs" textLength="62" x="128" y="564.0903">LoadFile()</text>
    </a>
    <polygon fill="#A80036" points="132,579.1563,122,583.1563,132,587.1563,128,583.1563" style="stroke: #A80036; stroke-width: 1.0;"/>
    <line style="stroke: #A80036; stroke-width: 1.0; stroke-dasharray: 2.0,2.0;" x1="126" x2="354" y1="583.1563" y2="583.1563"/>
    <a href="" target="_top" title="" xlink:actuate="onRequest" xlink:href="" xlink:show="new" xlink:title="" xlink:type="simple">
      <polygon fill="#A80036" points="785,622.2891,795,626.2891,785,630.2891,789,626.2891" style="stroke: #A80036; stroke-width: 1.0;"/>
      <line style="stroke: #A80036; stroke-width: 1.0;" x1="121" x2="791" y1="626.2891" y2="626.2891"/>
      <text fill="#000000" font-family="sans-serif" font-size="13" lengthAdjust="spacingAndGlyphs" textLength="193" x="128" y="621.2231">initialize_diagram_templates()</text>
    </a>
    <a href="" target="_top" title="" xlink:actuate="onRequest" xlink:href="" xlink:show="new" xlink:title="" xlink:type="simple">
      <polygon fill="#A80036" points="1052,651.4219,1062,655.4219,1052,659.4219,1056,655.4219" style="stroke: #A80036; stroke-width: 1.0;"/>
      <line style="stroke: #A80036; stroke-width: 1.0;" x1="807" x2="1058" y1="655.4219" y2="655.4219"/>
      <text fill="#000000" font-family="sans-serif" font-size="13" lengthAdjust="spacingAndGlyphs" textLength="238" x="814" y="650.356">get_predefined_diagram_templates()</text>
    </a>
    <a href="" target="_top" title="" xlink:actuate="onRequest" xlink:href="" xlink:show="new" xlink:title="" xlink:type="simple">
      <polygon fill="#A80036" points="1331,680.5547,1341,684.5547,1331,688.5547,1335,684.5547" style="stroke: #A80036; stroke-width: 1.0;"/>
      <line style="stroke: #A80036; stroke-width: 1.0;" x1="1074" x2="1337" y1="684.5547" y2="684.5547"/>
      <text fill="#000000" font-family="sans-serif" font-size="13" lengthAdjust="spacingAndGlyphs" textLength="87" x="1081" y="679.4888">operator&lt;&lt;()</text>
    </a>
    <polygon fill="#A80036" points="1085,694.5547,1075,698.5547,1085,702.5547,1081,698.5547" style="stroke: #A80036; stroke-width: 1.0;"/>
    <line style="stroke: #A80036; stroke-width: 1.0; stroke-dasharray: 2.0,2.0;" x1="1079" x2="1347" y1="698.5547" y2="698.5547"/>
    <a href="" target="_top" title="" xlink:actuate="onRequest" xlink:href="" xlink:show="new" xlink:title="" xlink:type="simple">
      <polygon fill="#A80036" points="1643,723.6875,1653,727.6875,1643,731.6875,1647,727.6875" style="stroke: #A80036; stroke-width: 1.0;"/>
      <line style="stroke: #A80036; stroke-width: 1.0;" x1="1074" x2="1649" y1="727.6875" y2="727.6875"/>
      <text fill="#000000" font-family="sans-serif" font-size="13" lengthAdjust="spacingAndGlyphs" textLength="87" x="1081" y="722.6216">operator==()</text>
    </a>
    <polygon fill="#A80036" points="1085,737.6875,1075,741.6875,1085,745.6875,1081,741.6875" style="stroke: #A80036; stroke-width: 1.0;"/>
    <line style="stroke: #A80036; stroke-width: 1.0; stroke-dasharray: 2.0,2.0;" x1="1079" x2="1659" y1="741.6875" y2="741.6875"/>
    <a href="" target="_top" title="" xlink:actuate="onRequest" xlink:href="" xlink:show="new" xlink:title="" xlink:type="simple">
      <polygon fill="#A80036" points="1643,766.8203,1653,770.8203,1643,774.8203,1647,770.8203" style="stroke: #A80036; stroke-width: 1.0;"/>
      <line style="stroke: #A80036; stroke-width: 1.0;" x1="1074" x2="1649" y1="770.8203" y2="770.8203"/>
      <text fill="#000000" font-family="sans-serif" font-size="13" lengthAdjust="spacingAndGlyphs" textLength="87" x="1081" y="765.7544">operator==()</text>
    </a>
    <polygon fill="#A80036" points="1085,780.8203,1075,784.8203,1085,788.8203,1081,784.8203" style="stroke: #A80036; stroke-width: 1.0;"/>
    <line style="stroke: #A80036; stroke-width: 1.0; stroke-dasharray: 2.0,2.0;" x1="1079" x2="1659" y1="784.8203" y2="784.8203"/>
    <polygon fill="#A80036" points="818,794.8203,808,798.8203,818,802.8203,814,798.8203" style="stroke: #A80036; stroke-width: 1.0;"/>
    <line style="stroke: #A80036; stroke-width: 1.0; stroke-dasharray: 2.0,2.0;" x1="812" x2="1068" y1="798.8203" y2="798.8203"/>
    <a href="" target="_top" title="" xlink:actuate="onRequest" xlink:href="" xlink:show="new" xlink:title="" xlink:type="simple">
      <polygon fill="#A80036" points="371,823.9531,361,827.9531,371,831.9531,367,827.9531" style="stroke: #A80036; stroke-width: 1.0;"/>
      <line style="stroke: #A80036; stroke-width: 1.0;" x1="365" x2="796" y1="827.9531" y2="827.9531"/>
      <text fill="#000000" font-family="sans-serif" font-size="13" lengthAdjust="spacingAndGlyphs" textLength="41" x="377" y="822.8872">Load()</text>
    </a>
    <polygon fill="#A80036" points="785,837.9531,795,841.9531,785,845.9531,789,841.9531" style="stroke: #A80036; stroke-width: 1.0;"/>
    <line style="stroke: #A80036; stroke-width: 1.0; stroke-dasharray: 2.0,2.0;" x1="355" x2="791" y1="841.9531" y2="841.9531"/>
    <path d="M736,856.9531 L800,856.9531 L800,863.9531 L790,873.9531 L736,873.9531 L736,856.9531 " fill="#EEEEEE" style="stroke: #000000; stroke-width: 1.0;"/>
    <rect fill="none" height="119.3984" style="stroke: #000000; stroke-width: 2.0;" width="1486.5" x="736" y="856.9531"/>
    <text fill="#000000" font-family="sans-serif" font-size="13" font-weight="bold" lengthAdjust="spacingAndGlyphs" textLength="19" x="751" y="870.02">alt</text>
    <a href="" target="_top" title="" xlink:actuate="onRequest" xlink:href="" xlink:show="new" xlink:title="" xlink:type="simple">
      <polygon fill="#A80036" points="1999.5,891.2188,2009.5,895.2188,1999.5,899.2188,2003.5,895.2188" style="stroke: #A80036; stroke-width: 1.0;"/>
      <line style="stroke: #A80036; stroke-width: 1.0;" x1="807" x2="2005.5" y1="895.2188" y2="895.2188"/>
      <text fill="#000000" font-family="sans-serif" font-size="13" font-weight="bold" lengthAdjust="spacingAndGlyphs" textLength="6" x="814" y="890.1528">[</text>
      <text fill="#000000" font-family="sans-serif" font-size="13" lengthAdjust="spacingAndGlyphs" textLength="135" x="820" y="890.1528">operator bool() const</text>
      <text fill="#000000" font-family="sans-serif" font-size="13" font-weight="bold" lengthAdjust="spacingAndGlyphs" textLength="6" x="955" y="890.1528">]</text>
    </a>
    <polygon fill="#A80036" points="818,905.2188,808,909.2188,818,913.2188,814,909.2188" style="stroke: #A80036; stroke-width: 1.0;"/>
    <line style="stroke: #A80036; stroke-width: 1.0; stroke-dasharray: 2.0,2.0;" x1="812" x2="2015.5" y1="909.2188" y2="909.2188"/>
    <a href="" target="_top" title="" xlink:actuate="onRequest" xlink:href="" xlink:show="new" xlink:title="" xlink:type="simple">
      <polygon fill="#A80036" points="1999.5,934.3516,2009.5,938.3516,1999.5,942.3516,2003.5,938.3516" style="stroke: #A80036; stroke-width: 1.0;"/>
      <line style="stroke: #A80036; stroke-width: 1.0;" x1="807" x2="2005.5" y1="938.3516" y2="938.3516"/>
      <text fill="#000000" font-family="sans-serif" font-size="13" lengthAdjust="spacingAndGlyphs" textLength="30" x="814" y="933.2856">set()</text>
    </a>
    <a href="" target="_top" title="" xlink:actuate="onRequest" xlink:href="" xlink:show="new" xlink:title="" xlink:type="simple">
      <polygon fill="#A80036" points="1999.5,1000.4844,2009.5,1004.4844,1999.5,1008.4844,2003.5,1004.4844" style="stroke: #A80036; stroke-width: 1.0;"/>
      <line style="stroke: #A80036; stroke-width: 1.0;" x1="807" x2="2005.5" y1="1004.4844" y2="1004.4844"/>
      <text fill="#000000" font-family="sans-serif" font-size="13" lengthAdjust="spacingAndGlyphs" textLength="75" x="814" y="999.4185">operator()()</text>
    </a>
    <polygon fill="#A80036" points="813,1014.4844,803,1018.4844,813,1022.4844,809,1018.4844" style="stroke: #A80036; stroke-width: 1.0;"/>
    <line style="stroke: #A80036; stroke-width: 1.0; stroke-dasharray: 2.0,2.0;" x1="807" x2="2015.5" y1="1018.4844" y2="1018.4844"/>
    <line style="stroke: #000000; stroke-width: 1.0; stroke-dasharray: 2.0,2.0;" x1="13" x2="2232.5" y1="1027.4844" y2="1027.4844"/>
    <text fill="#000000" font-family="sans-serif" font-size="11" font-weight="bold" lengthAdjust="spacingAndGlyphs" textLength="115" x="18" y="1037.6948">[YAML::BadFile &amp;]</text>
    <line style="stroke: #000000; stroke-width: 1.0; stroke-dasharray: 2.0,2.0;" x1="13" x2="2232.5" y1="1042.2891" y2="1042.2891"/>
    <text fill="#000000" font-family="sans-serif" font-size="11" font-weight="bold" lengthAdjust="spacingAndGlyphs" textLength="129" x="18" y="1052.4995">[YAML::Exception &amp;]</text>
    <polygon fill="#A80036" points="14,1065.0938,4,1069.0938,14,1073.0938,10,1069.0938" style="stroke: #A80036; stroke-width: 1.0;"/>
    <line style="stroke: #A80036; stroke-width: 1.0; stroke-dasharray: 2.0,2.0;" x1="8" x2="115" y1="1069.0938" y2="1069.0938"/>
  </g>
</svg>
