<svg xmlns="http://www.w3.org/2000/svg" xmlns:xlink="http://www.w3.org/1999/xlink" contentScriptType="application/ecmascript" contentStyleType="text/css" height="1162px" preserveAspectRatio="none" style="width:2244px;height:1162px;" version="1.1" viewBox="0 0 2244 1162" width="2244px" zoomAndPan="magnify">
  <defs>
    <filter height="300%" id="fwt6i0u7f4wfr" width="300%" x="-1" y="-1">
      <feGaussianBlur result="blurOut" stdDeviation="2.0"/>
      <feColorMatrix in="blurOut" result="blurOut2" type="matrix" values="0 0 0 0 0 0 0 0 0 0 0 0 0 0 0 0 0 0 .4 0"/>
      <feOffset dx="4.0" dy="4.0" in="blurOut2" result="blurOut3"/>
      <feBlend in="SourceGraphic" in2="blurOut3" mode="normal"/>
    </filter>
    <style type="text/css">a:hover { text-decoration: underline; }</style>
  </defs>
  <g>
    <text fill="#000000" font-family="sans-serif" font-size="18" lengthAdjust="spacingAndGlyphs" textLength="390" x="927.75" y="26.708">Configuration file loading sequence diagram</text>
    <rect fill="#FFFFFF" filter="url(#fwt6i0u7f4wfr)" height="999.6641" style="stroke: #A80036; stroke-width: 1.0;" width="10" x="111" y="104.3828"/>
    <rect fill="#FFFFFF" filter="url(#fwt6i0u7f4wfr)" height="14" style="stroke: #A80036; stroke-width: 1.0;" width="10" x="350" y="157.6484"/>
    <rect fill="#FFFFFF" filter="url(#fwt6i0u7f4wfr)" height="14" style="stroke: #A80036; stroke-width: 1.0;" width="10" x="350" y="224.9141"/>
    <rect fill="#FFFFFF" filter="url(#fwt6i0u7f4wfr)" height="14" style="stroke: #A80036; stroke-width: 1.0;" width="10" x="350" y="270.0469"/>
    <rect fill="#FFFFFF" filter="url(#fwt6i0u7f4wfr)" height="14" style="stroke: #A80036; stroke-width: 1.0;" width="10" x="350" y="604.1094"/>
    <rect fill="#FFFFFF" filter="url(#fwt6i0u7f4wfr)" height="14" style="stroke: #A80036; stroke-width: 1.0;" width="10" x="350" y="862.9063"/>
    <rect fill="#FFFFFF" filter="url(#fwt6i0u7f4wfr)" height="14" style="stroke: #A80036; stroke-width: 1.0;" width="10" x="623.5" y="344.3125"/>
    <rect fill="#FFFFFF" filter="url(#fwt6i0u7f4wfr)" height="30" style="stroke: #A80036; stroke-width: 1.0;" width="10" x="623.5" y="394.4453"/>
    <rect fill="#FFFFFF" filter="url(#fwt6i0u7f4wfr)" height="30" style="stroke: #A80036; stroke-width: 1.0;" width="10" x="623.5" y="453.5781"/>
    <rect fill="#FFFFFF" filter="url(#fwt6i0u7f4wfr)" height="14" style="stroke: #A80036; stroke-width: 1.0;" width="10" x="623.5" y="560.9766"/>
    <rect fill="#FFFFFF" filter="url(#fwt6i0u7f4wfr)" height="392.1953" style="stroke: #A80036; stroke-width: 1.0;" width="10" x="797" y="661.2422"/>
    <rect fill="#FFFFFF" filter="url(#fwt6i0u7f4wfr)" height="143.3984" style="stroke: #A80036; stroke-width: 1.0;" width="10" x="1064" y="690.375"/>
    <rect fill="#FFFFFF" filter="url(#fwt6i0u7f4wfr)" height="14" style="stroke: #A80036; stroke-width: 1.0;" width="10" x="1343" y="719.5078"/>
    <rect fill="#FFFFFF" filter="url(#fwt6i0u7f4wfr)" height="14" style="stroke: #A80036; stroke-width: 1.0;" width="10" x="1655" y="762.6406"/>
    <rect fill="#FFFFFF" filter="url(#fwt6i0u7f4wfr)" height="14" style="stroke: #A80036; stroke-width: 1.0;" width="10" x="1655" y="805.7734"/>
    <rect fill="#FFFFFF" filter="url(#fwt6i0u7f4wfr)" height="14" style="stroke: #A80036; stroke-width: 1.0;" width="10" x="2011.5" y="930.1719"/>
    <rect fill="#FFFFFF" filter="url(#fwt6i0u7f4wfr)" height="30" style="stroke: #A80036; stroke-width: 1.0;" width="10" x="2011.5" y="973.3047"/>
    <rect fill="#FFFFFF" filter="url(#fwt6i0u7f4wfr)" height="14" style="stroke: #A80036; stroke-width: 1.0;" width="10" x="2011.5" y="1039.4375"/>
    <rect fill="#FFFFFF" filter="url(#fwt6i0u7f4wfr)" height="971.6641" style="stroke: #000000; stroke-width: 2.0;" width="2219.5" x="13" y="119.3828"/>
    <rect fill="#FFFFFF" filter="url(#fwt6i0u7f4wfr)" height="105.3984" style="stroke: #000000; stroke-width: 2.0;" width="488" x="33" y="186.6484"/>
    <rect fill="#FFFFFF" height="45.1328" style="stroke: none; stroke-width: 1.0;" width="488" x="33" y="246.9141"/>
    <rect fill="#FFFFFF" filter="url(#fwt6i0u7f4wfr)" height="60.2656" style="stroke: #000000; stroke-width: 2.0;" width="713" x="33" y="306.0469"/>
    <rect fill="#FFFFFF" filter="url(#fwt6i0u7f4wfr)" height="134.5313" style="stroke: #000000; stroke-width: 2.0;" width="733" x="23" y="498.5781"/>
    <rect fill="#FFFFFF" filter="url(#fwt6i0u7f4wfr)" height="103.3984" style="stroke: #000000; stroke-width: 2.0;" width="713" x="33" y="522.7109"/>
    <rect fill="#FFFFFF" filter="url(#fwt6i0u7f4wfr)" height="119.3984" style="stroke: #000000; stroke-width: 2.0;" width="1486.5" x="736" y="891.9063"/>
    <rect fill="#FFFFFF" height="14.8047" style="stroke: none; stroke-width: 1.0;" width="2219.5" x="13" y="1061.4375"/>
    <rect fill="#FFFFFF" height="14.8047" style="stroke: none; stroke-width: 1.0;" width="2219.5" x="13" y="1076.2422"/>
    <line style="stroke: #A80036; stroke-width: 1.0; stroke-dasharray: 5.0,5.0;" x1="116" x2="116" y1="73.25" y2="1122.0469"/>
    <line style="stroke: #A80036; stroke-width: 1.0; stroke-dasharray: 5.0,5.0;" x1="355" x2="355" y1="73.25" y2="1122.0469"/>
    <line style="stroke: #A80036; stroke-width: 1.0; stroke-dasharray: 5.0,5.0;" x1="628" x2="628" y1="73.25" y2="1122.0469"/>
    <line style="stroke: #A80036; stroke-width: 1.0; stroke-dasharray: 5.0,5.0;" x1="802" x2="802" y1="73.25" y2="1122.0469"/>
    <line style="stroke: #A80036; stroke-width: 1.0; stroke-dasharray: 5.0,5.0;" x1="1068.5" x2="1068.5" y1="73.25" y2="1122.0469"/>
    <line style="stroke: #A80036; stroke-width: 1.0; stroke-dasharray: 5.0,5.0;" x1="1347.5" x2="1347.5" y1="73.25" y2="1122.0469"/>
    <line style="stroke: #A80036; stroke-width: 1.0; stroke-dasharray: 5.0,5.0;" x1="1659.5" x2="1659.5" y1="73.25" y2="1122.0469"/>
    <line style="stroke: #A80036; stroke-width: 1.0; stroke-dasharray: 5.0,5.0;" x1="2016.5" x2="2016.5" y1="73.25" y2="1122.0469"/>
    <rect fill="#FEFECE" filter="url(#fwt6i0u7f4wfr)" height="30.2969" style="stroke: #A80036; stroke-width: 1.5;" width="142" x="43" y="37.9531"/>
    <text fill="#000000" font-family="sans-serif" font-size="14" lengthAdjust="spacingAndGlyphs" textLength="128" x="50" y="57.9482">src/config/config.h</text>
    <rect fill="#FEFECE" filter="url(#fwt6i0u7f4wfr)" height="30.2969" style="stroke: #A80036; stroke-width: 1.5;" width="142" x="43" y="1121.0469"/>
    <text fill="#000000" font-family="sans-serif" font-size="14" lengthAdjust="spacingAndGlyphs" textLength="128" x="50" y="1141.042">src/config/config.h</text>
    <rect fill="#FEFECE" filter="url(#fwt6i0u7f4wfr)" height="30.2969" style="stroke: #A80036; stroke-width: 1.5;" width="308" x="199" y="37.9531"/>
    <text fill="#000000" font-family="sans-serif" font-size="14" lengthAdjust="spacingAndGlyphs" textLength="294" x="206" y="57.9482">../../../../usr/include/yaml-cpp/node/parse.h</text>
    <rect fill="#FEFECE" filter="url(#fwt6i0u7f4wfr)" height="30.2969" style="stroke: #A80036; stroke-width: 1.5;" width="308" x="199" y="1121.0469"/>
    <text fill="#000000" font-family="sans-serif" font-size="14" lengthAdjust="spacingAndGlyphs" textLength="294" x="206" y="1141.042">../../../../usr/include/yaml-cpp/node/parse.h</text>
    <rect fill="#FEFECE" filter="url(#fwt6i0u7f4wfr)" height="30.2969" style="stroke: #A80036; stroke-width: 1.5;" width="211" x="521" y="37.9531"/>
    <text fill="#000000" font-family="sans-serif" font-size="14" lengthAdjust="spacingAndGlyphs" textLength="197" x="528" y="57.9482">src/config/yaml_decoders.cc</text>
    <rect fill="#FEFECE" filter="url(#fwt6i0u7f4wfr)" height="30.2969" style="stroke: #A80036; stroke-width: 1.5;" width="211" x="521" y="1121.0469"/>
    <text fill="#000000" font-family="sans-serif" font-size="14" lengthAdjust="spacingAndGlyphs" textLength="197" x="528" y="1141.042">src/config/yaml_decoders.cc</text>
    <a href="" target="_top" title="Represents entire configuration file" xlink:actuate="onRequest" xlink:href="" xlink:show="new" xlink:title="Represents entire configuration file" xlink:type="simple">
      <rect fill="#FEFECE" filter="url(#fwt6i0u7f4wfr)" height="30.2969" style="stroke: #A80036; stroke-width: 1.5;" width="108" x="746" y="37.9531"/>
      <text fill="#000000" font-family="sans-serif" font-size="14" lengthAdjust="spacingAndGlyphs" textLength="94" x="753" y="57.9482">config::config</text>
      <rect fill="#FEFECE" filter="url(#fwt6i0u7f4wfr)" height="30.2969" style="stroke: #A80036; stroke-width: 1.5;" width="108" x="746" y="1121.0469"/>
      <text fill="#000000" font-family="sans-serif" font-size="14" lengthAdjust="spacingAndGlyphs" textLength="94" x="753" y="1141.042">config::config</text>
    </a>
    <rect fill="#FEFECE" filter="url(#fwt6i0u7f4wfr)" height="30.2969" style="stroke: #A80036; stroke-width: 1.5;" width="231" x="951.5" y="37.9531"/>
    <text fill="#000000" font-family="sans-serif" font-size="14" lengthAdjust="spacingAndGlyphs" textLength="217" x="958.5" y="57.9482">src/config/diagram_templates.h</text>
    <rect fill="#FEFECE" filter="url(#fwt6i0u7f4wfr)" height="30.2969" style="stroke: #A80036; stroke-width: 1.5;" width="231" x="951.5" y="1121.0469"/>
    <text fill="#000000" font-family="sans-serif" font-size="14" lengthAdjust="spacingAndGlyphs" textLength="217" x="958.5" y="1141.042">src/config/diagram_templates.h</text>
    <rect fill="#FEFECE" filter="url(#fwt6i0u7f4wfr)" height="30.2969" style="stroke: #A80036; stroke-width: 1.5;" width="299" x="1196.5" y="37.9531"/>
    <text fill="#000000" font-family="sans-serif" font-size="14" lengthAdjust="spacingAndGlyphs" textLength="285" x="1203.5" y="57.9482">../../../../usr/include/yaml-cpp/node/emit.h</text>
    <rect fill="#FEFECE" filter="url(#fwt6i0u7f4wfr)" height="30.2969" style="stroke: #A80036; stroke-width: 1.5;" width="299" x="1196.5" y="1121.0469"/>
    <text fill="#000000" font-family="sans-serif" font-size="14" lengthAdjust="spacingAndGlyphs" textLength="285" x="1203.5" y="1141.042">../../../../usr/include/yaml-cpp/node/emit.h</text>
    <rect fill="#FEFECE" filter="url(#fwt6i0u7f4wfr)" height="30.2969" style="stroke: #A80036; stroke-width: 1.5;" width="297" x="1509.5" y="37.9531"/>
    <text fill="#000000" font-family="sans-serif" font-size="14" lengthAdjust="spacingAndGlyphs" textLength="283" x="1516.5" y="57.9482">../../../../usr/include/yaml-cpp/node/impl.h</text>
    <rect fill="#FEFECE" filter="url(#fwt6i0u7f4wfr)" height="30.2969" style="stroke: #A80036; stroke-width: 1.5;" width="297" x="1509.5" y="1121.0469"/>
    <text fill="#000000" font-family="sans-serif" font-size="14" lengthAdjust="spacingAndGlyphs" textLength="283" x="1516.5" y="1141.042">../../../../usr/include/yaml-cpp/node/impl.h</text>
    <a href="" target="_top" title="option" xlink:actuate="onRequest" xlink:href="" xlink:show="new" xlink:title="option" xlink:type="simple">
      <rect fill="#FEFECE" filter="url(#fwt6i0u7f4wfr)" height="30.2969" style="stroke: #A80036; stroke-width: 1.5;" width="388" x="1820.5" y="37.9531"/>
      <text fill="#000000" font-family="sans-serif" font-size="14" lengthAdjust="spacingAndGlyphs" textLength="374" x="1827.5" y="57.9482">config::option&lt;std::map&lt;std::basic_string&lt;char&gt;&gt;&gt;</text>
      <rect fill="#FEFECE" filter="url(#fwt6i0u7f4wfr)" height="30.2969" style="stroke: #A80036; stroke-width: 1.5;" width="388" x="1820.5" y="1121.0469"/>
      <text fill="#000000" font-family="sans-serif" font-size="14" lengthAdjust="spacingAndGlyphs" textLength="374" x="1827.5" y="1141.042">config::option&lt;std::map&lt;std::basic_string&lt;char&gt;&gt;&gt;</text>
    </a>
    <rect fill="#FFFFFF" filter="url(#fwt6i0u7f4wfr)" height="999.6641" style="stroke: #A80036; stroke-width: 1.0;" width="10" x="111" y="104.3828"/>
    <rect fill="#FFFFFF" filter="url(#fwt6i0u7f4wfr)" height="14" style="stroke: #A80036; stroke-width: 1.0;" width="10" x="350" y="157.6484"/>
    <rect fill="#FFFFFF" filter="url(#fwt6i0u7f4wfr)" height="14" style="stroke: #A80036; stroke-width: 1.0;" width="10" x="350" y="224.9141"/>
    <rect fill="#FFFFFF" filter="url(#fwt6i0u7f4wfr)" height="14" style="stroke: #A80036; stroke-width: 1.0;" width="10" x="350" y="270.0469"/>
    <rect fill="#FFFFFF" filter="url(#fwt6i0u7f4wfr)" height="14" style="stroke: #A80036; stroke-width: 1.0;" width="10" x="350" y="604.1094"/>
    <rect fill="#FFFFFF" filter="url(#fwt6i0u7f4wfr)" height="14" style="stroke: #A80036; stroke-width: 1.0;" width="10" x="350" y="862.9063"/>
    <rect fill="#FFFFFF" filter="url(#fwt6i0u7f4wfr)" height="14" style="stroke: #A80036; stroke-width: 1.0;" width="10" x="623.5" y="344.3125"/>
    <rect fill="#FFFFFF" filter="url(#fwt6i0u7f4wfr)" height="30" style="stroke: #A80036; stroke-width: 1.0;" width="10" x="623.5" y="394.4453"/>
    <rect fill="#FFFFFF" filter="url(#fwt6i0u7f4wfr)" height="30" style="stroke: #A80036; stroke-width: 1.0;" width="10" x="623.5" y="453.5781"/>
    <rect fill="#FFFFFF" filter="url(#fwt6i0u7f4wfr)" height="14" style="stroke: #A80036; stroke-width: 1.0;" width="10" x="623.5" y="560.9766"/>
    <rect fill="#FFFFFF" filter="url(#fwt6i0u7f4wfr)" height="392.1953" style="stroke: #A80036; stroke-width: 1.0;" width="10" x="797" y="661.2422"/>
    <rect fill="#FFFFFF" filter="url(#fwt6i0u7f4wfr)" height="143.3984" style="stroke: #A80036; stroke-width: 1.0;" width="10" x="1064" y="690.375"/>
    <rect fill="#FFFFFF" filter="url(#fwt6i0u7f4wfr)" height="14" style="stroke: #A80036; stroke-width: 1.0;" width="10" x="1343" y="719.5078"/>
    <rect fill="#FFFFFF" filter="url(#fwt6i0u7f4wfr)" height="14" style="stroke: #A80036; stroke-width: 1.0;" width="10" x="1655" y="762.6406"/>
    <rect fill="#FFFFFF" filter="url(#fwt6i0u7f4wfr)" height="14" style="stroke: #A80036; stroke-width: 1.0;" width="10" x="1655" y="805.7734"/>
    <rect fill="#FFFFFF" filter="url(#fwt6i0u7f4wfr)" height="14" style="stroke: #A80036; stroke-width: 1.0;" width="10" x="2011.5" y="930.1719"/>
    <rect fill="#FFFFFF" filter="url(#fwt6i0u7f4wfr)" height="30" style="stroke: #A80036; stroke-width: 1.0;" width="10" x="2011.5" y="973.3047"/>
    <rect fill="#FFFFFF" filter="url(#fwt6i0u7f4wfr)" height="14" style="stroke: #A80036; stroke-width: 1.0;" width="10" x="2011.5" y="1039.4375"/>
    <polygon fill="#A80036" points="99,100.3828,109,104.3828,99,108.3828,103,104.3828" style="stroke: #A80036; stroke-width: 1.0;"/>
    <line style="stroke: #A80036; stroke-width: 1.0;" x1="3" x2="105" y1="104.3828" y2="104.3828"/>
    <text fill="#000000" font-family="sans-serif" font-size="13" lengthAdjust="spacingAndGlyphs" textLength="37" x="10" y="99.3169">load()</text>
    <path d="M13,119.3828 L78,119.3828 L78,126.3828 L68,136.3828 L13,136.3828 L13,119.3828 " fill="#EEEEEE" style="stroke: #000000; stroke-width: 1.0;"/>
    <rect fill="none" height="971.6641" style="stroke: #000000; stroke-width: 2.0;" width="2219.5" x="13" y="119.3828"/>
    <text fill="#000000" font-family="sans-serif" font-size="13" font-weight="bold" lengthAdjust="spacingAndGlyphs" textLength="20" x="28" y="132.4497">try</text>
    <a href="" target="_top" title="" xlink:actuate="onRequest" xlink:href="" xlink:show="new" xlink:title="" xlink:type="simple">
      <polygon fill="#A80036" points="338,153.6484,348,157.6484,338,161.6484,342,157.6484" style="stroke: #A80036; stroke-width: 1.0;"/>
      <line style="stroke: #A80036; stroke-width: 1.0;" x1="121" x2="344" y1="157.6484" y2="157.6484"/>
      <text fill="#000000" font-family="sans-serif" font-size="13" lengthAdjust="spacingAndGlyphs" textLength="41" x="128" y="152.5825">Load()</text>
    </a>
    <polygon fill="#A80036" points="132,167.6484,122,171.6484,132,175.6484,128,171.6484" style="stroke: #A80036; stroke-width: 1.0;"/>
    <line style="stroke: #A80036; stroke-width: 1.0; stroke-dasharray: 2.0,2.0;" x1="126" x2="354" y1="171.6484" y2="171.6484"/>
    <path d="M33,186.6484 L97,186.6484 L97,193.6484 L87,203.6484 L33,203.6484 L33,186.6484 " fill="#EEEEEE" style="stroke: #000000; stroke-width: 1.0;"/>
    <rect fill="none" height="105.3984" style="stroke: #000000; stroke-width: 2.0;" width="488" x="33" y="186.6484"/>
    <text fill="#000000" font-family="sans-serif" font-size="13" font-weight="bold" lengthAdjust="spacingAndGlyphs" textLength="19" x="48" y="199.7153">alt</text>
    <a href="" target="_top" title="" xlink:actuate="onRequest" xlink:href="" xlink:show="new" xlink:title="" xlink:type="simple">
      <polygon fill="#A80036" points="338,220.9141,348,224.9141,338,228.9141,342,224.9141" style="stroke: #A80036; stroke-width: 1.0;"/>
      <line style="stroke: #A80036; stroke-width: 1.0;" x1="121" x2="344" y1="224.9141" y2="224.9141"/>
      <text fill="#000000" font-family="sans-serif" font-size="13" lengthAdjust="spacingAndGlyphs" textLength="41" x="128" y="219.8481">Load()</text>
    </a>
    <polygon fill="#A80036" points="132,234.9141,122,238.9141,132,242.9141,128,238.9141" style="stroke: #A80036; stroke-width: 1.0;"/>
    <line style="stroke: #A80036; stroke-width: 1.0; stroke-dasharray: 2.0,2.0;" x1="126" x2="354" y1="238.9141" y2="238.9141"/>
    <line style="stroke: #000000; stroke-width: 1.0; stroke-dasharray: 2.0,2.0;" x1="33" x2="521" y1="247.9141" y2="247.9141"/>
    <a href="" target="_top" title="" xlink:actuate="onRequest" xlink:href="" xlink:show="new" xlink:title="" xlink:type="simple">
      <polygon fill="#A80036" points="338,266.0469,348,270.0469,338,274.0469,342,270.0469" style="stroke: #A80036; stroke-width: 1.0;"/>
      <line style="stroke: #A80036; stroke-width: 1.0;" x1="121" x2="344" y1="270.0469" y2="270.0469"/>
      <text fill="#000000" font-family="sans-serif" font-size="13" lengthAdjust="spacingAndGlyphs" textLength="62" x="128" y="264.981">LoadFile()</text>
    </a>
    <polygon fill="#A80036" points="132,280.0469,122,284.0469,132,288.0469,128,284.0469" style="stroke: #A80036; stroke-width: 1.0;"/>
    <line style="stroke: #A80036; stroke-width: 1.0; stroke-dasharray: 2.0,2.0;" x1="126" x2="354" y1="284.0469" y2="284.0469"/>
    <path d="M33,306.0469 L97,306.0469 L97,313.0469 L87,323.0469 L33,323.0469 L33,306.0469 " fill="#EEEEEE" style="stroke: #000000; stroke-width: 1.0;"/>
    <rect fill="none" height="60.2656" style="stroke: #000000; stroke-width: 2.0;" width="713" x="33" y="306.0469"/>
    <text fill="#000000" font-family="sans-serif" font-size="13" font-weight="bold" lengthAdjust="spacingAndGlyphs" textLength="19" x="48" y="319.1138">alt</text>
    <a href="" target="_top" title="" xlink:actuate="onRequest" xlink:href="" xlink:show="new" xlink:title="" xlink:type="simple">
      <polygon fill="#A80036" points="611.5,340.3125,621.5,344.3125,611.5,348.3125,615.5,344.3125" style="stroke: #A80036; stroke-width: 1.0;"/>
      <line style="stroke: #A80036; stroke-width: 1.0;" x1="121" x2="617.5" y1="344.3125" y2="344.3125"/>
      <text fill="#000000" font-family="sans-serif" font-size="13" font-weight="bold" lengthAdjust="spacingAndGlyphs" textLength="6" x="128" y="339.2466">[</text>
      <text fill="#000000" font-family="sans-serif" font-size="13" lengthAdjust="spacingAndGlyphs" textLength="62" x="134" y="339.2466">has_key()</text>
      <text fill="#000000" font-family="sans-serif" font-size="13" font-weight="bold" lengthAdjust="spacingAndGlyphs" textLength="6" x="196" y="339.2466">]</text>
    </a>
    <polygon fill="#A80036" points="132,354.3125,122,358.3125,132,362.3125,128,358.3125" style="stroke: #A80036; stroke-width: 1.0;"/>
    <line style="stroke: #A80036; stroke-width: 1.0; stroke-dasharray: 2.0,2.0;" x1="126" x2="627.5" y1="358.3125" y2="358.3125"/>
    <a href="" target="_top" title="" xlink:actuate="onRequest" xlink:href="" xlink:show="new" xlink:title="" xlink:type="simple">
      <polygon fill="#A80036" points="611.5,390.4453,621.5,394.4453,611.5,398.4453,615.5,394.4453" style="stroke: #A80036; stroke-width: 1.0;"/>
      <line style="stroke: #A80036; stroke-width: 1.0;" x1="121" x2="617.5" y1="394.4453" y2="394.4453"/>
      <text fill="#000000" font-family="sans-serif" font-size="13" lengthAdjust="spacingAndGlyphs" textLength="139" x="128" y="389.3794">resolve_option_path()</text>
    </a>
    <a href="" target="_top" title="" xlink:actuate="onRequest" xlink:href="" xlink:show="new" xlink:title="" xlink:type="simple">
      <polygon fill="#A80036" points="611.5,449.5781,621.5,453.5781,611.5,457.5781,615.5,453.5781" style="stroke: #A80036; stroke-width: 1.0;"/>
      <line style="stroke: #A80036; stroke-width: 1.0;" x1="121" x2="617.5" y1="453.5781" y2="453.5781"/>
      <text fill="#000000" font-family="sans-serif" font-size="13" lengthAdjust="spacingAndGlyphs" textLength="139" x="128" y="448.5122">resolve_option_path()</text>
    </a>
    <path d="M23,498.5781 L100,498.5781 L100,505.5781 L90,515.5781 L23,515.5781 L23,498.5781 " fill="#EEEEEE" style="stroke: #000000; stroke-width: 1.0;"/>
    <rect fill="none" height="134.5313" style="stroke: #000000; stroke-width: 2.0;" width="733" x="23" y="498.5781"/>
    <text fill="#000000" font-family="sans-serif" font-size="13" font-weight="bold" lengthAdjust="spacingAndGlyphs" textLength="32" x="38" y="511.645">loop</text>
    <path d="M33,522.7109 L97,522.7109 L97,529.7109 L87,539.7109 L33,539.7109 L33,522.7109 " fill="#EEEEEE" style="stroke: #000000; stroke-width: 1.0;"/>
    <rect fill="none" height="103.3984" style="stroke: #000000; stroke-width: 2.0;" width="713" x="33" y="522.7109"/>
    <text fill="#000000" font-family="sans-serif" font-size="13" font-weight="bold" lengthAdjust="spacingAndGlyphs" textLength="19" x="48" y="535.7778">alt</text>
    <a href="" target="_top" title="" xlink:actuate="onRequest" xlink:href="" xlink:show="new" xlink:title="" xlink:type="simple">
      <polygon fill="#A80036" points="611.5,556.9766,621.5,560.9766,611.5,564.9766,615.5,560.9766" style="stroke: #A80036; stroke-width: 1.0;"/>
      <line style="stroke: #A80036; stroke-width: 1.0;" x1="121" x2="617.5" y1="560.9766" y2="560.9766"/>
      <text fill="#000000" font-family="sans-serif" font-size="13" font-weight="bold" lengthAdjust="spacingAndGlyphs" textLength="6" x="128" y="555.9106">[</text>
      <text fill="#000000" font-family="sans-serif" font-size="13" lengthAdjust="spacingAndGlyphs" textLength="62" x="134" y="555.9106">has_key()</text>
      <text fill="#000000" font-family="sans-serif" font-size="13" font-weight="bold" lengthAdjust="spacingAndGlyphs" textLength="6" x="196" y="555.9106">]</text>
    </a>
    <polygon fill="#A80036" points="132,570.9766,122,574.9766,132,578.9766,128,574.9766" style="stroke: #A80036; stroke-width: 1.0;"/>
    <line style="stroke: #A80036; stroke-width: 1.0; stroke-dasharray: 2.0,2.0;" x1="126" x2="627.5" y1="574.9766" y2="574.9766"/>
    <a href="" target="_top" title="" xlink:actuate="onRequest" xlink:href="" xlink:show="new" xlink:title="" xlink:type="simple">
      <polygon fill="#A80036" points="338,600.1094,348,604.1094,338,608.1094,342,604.1094" style="stroke: #A80036; stroke-width: 1.0;"/>
      <line style="stroke: #A80036; stroke-width: 1.0;" x1="121" x2="344" y1="604.1094" y2="604.1094"/>
      <text fill="#000000" font-family="sans-serif" font-size="13" lengthAdjust="spacingAndGlyphs" textLength="62" x="128" y="599.0435">LoadFile()</text>
    </a>
    <polygon fill="#A80036" points="132,614.1094,122,618.1094,132,622.1094,128,618.1094" style="stroke: #A80036; stroke-width: 1.0;"/>
    <line style="stroke: #A80036; stroke-width: 1.0; stroke-dasharray: 2.0,2.0;" x1="126" x2="354" y1="618.1094" y2="618.1094"/>
    <a href="" target="_top" title="" xlink:actuate="onRequest" xlink:href="" xlink:show="new" xlink:title="" xlink:type="simple">
      <polygon fill="#A80036" points="785,657.2422,795,661.2422,785,665.2422,789,661.2422" style="stroke: #A80036; stroke-width: 1.0;"/>
      <line style="stroke: #A80036; stroke-width: 1.0;" x1="121" x2="791" y1="661.2422" y2="661.2422"/>
      <text fill="#000000" font-family="sans-serif" font-size="13" lengthAdjust="spacingAndGlyphs" textLength="193" x="128" y="656.1763">initialize_diagram_templates()</text>
    </a>
    <a href="" target="_top" title="" xlink:actuate="onRequest" xlink:href="" xlink:show="new" xlink:title="" xlink:type="simple">
      <polygon fill="#A80036" points="1052,686.375,1062,690.375,1052,694.375,1056,690.375" style="stroke: #A80036; stroke-width: 1.0;"/>
      <line style="stroke: #A80036; stroke-width: 1.0;" x1="807" x2="1058" y1="690.375" y2="690.375"/>
      <text fill="#000000" font-family="sans-serif" font-size="13" lengthAdjust="spacingAndGlyphs" textLength="238" x="814" y="685.3091">get_predefined_diagram_templates()</text>
    </a>
    <a href="" target="_top" title="" xlink:actuate="onRequest" xlink:href="" xlink:show="new" xlink:title="" xlink:type="simple">
      <polygon fill="#A80036" points="1331,715.5078,1341,719.5078,1331,723.5078,1335,719.5078" style="stroke: #A80036; stroke-width: 1.0;"/>
      <line style="stroke: #A80036; stroke-width: 1.0;" x1="1074" x2="1337" y1="719.5078" y2="719.5078"/>
      <text fill="#000000" font-family="sans-serif" font-size="13" lengthAdjust="spacingAndGlyphs" textLength="87" x="1081" y="714.4419">operator&lt;&lt;()</text>
    </a>
    <polygon fill="#A80036" points="1085,729.5078,1075,733.5078,1085,737.5078,1081,733.5078" style="stroke: #A80036; stroke-width: 1.0;"/>
    <line style="stroke: #A80036; stroke-width: 1.0; stroke-dasharray: 2.0,2.0;" x1="1079" x2="1347" y1="733.5078" y2="733.5078"/>
    <a href="" target="_top" title="" xlink:actuate="onRequest" xlink:href="" xlink:show="new" xlink:title="" xlink:type="simple">
      <polygon fill="#A80036" points="1643,758.6406,1653,762.6406,1643,766.6406,1647,762.6406" style="stroke: #A80036; stroke-width: 1.0;"/>
      <line style="stroke: #A80036; stroke-width: 1.0;" x1="1074" x2="1649" y1="762.6406" y2="762.6406"/>
      <text fill="#000000" font-family="sans-serif" font-size="13" lengthAdjust="spacingAndGlyphs" textLength="87" x="1081" y="757.5747">operator==()</text>
    </a>
    <polygon fill="#A80036" points="1085,772.6406,1075,776.6406,1085,780.6406,1081,776.6406" style="stroke: #A80036; stroke-width: 1.0;"/>
    <line style="stroke: #A80036; stroke-width: 1.0; stroke-dasharray: 2.0,2.0;" x1="1079" x2="1659" y1="776.6406" y2="776.6406"/>
    <a href="" target="_top" title="" xlink:actuate="onRequest" xlink:href="" xlink:show="new" xlink:title="" xlink:type="simple">
      <polygon fill="#A80036" points="1643,801.7734,1653,805.7734,1643,809.7734,1647,805.7734" style="stroke: #A80036; stroke-width: 1.0;"/>
      <line style="stroke: #A80036; stroke-width: 1.0;" x1="1074" x2="1649" y1="805.7734" y2="805.7734"/>
      <text fill="#000000" font-family="sans-serif" font-size="13" lengthAdjust="spacingAndGlyphs" textLength="87" x="1081" y="800.7075">operator==()</text>
    </a>
    <polygon fill="#A80036" points="1085,815.7734,1075,819.7734,1085,823.7734,1081,819.7734" style="stroke: #A80036; stroke-width: 1.0;"/>
    <line style="stroke: #A80036; stroke-width: 1.0; stroke-dasharray: 2.0,2.0;" x1="1079" x2="1659" y1="819.7734" y2="819.7734"/>
    <polygon fill="#A80036" points="818,829.7734,808,833.7734,818,837.7734,814,833.7734" style="stroke: #A80036; stroke-width: 1.0;"/>
    <line style="stroke: #A80036; stroke-width: 1.0; stroke-dasharray: 2.0,2.0;" x1="812" x2="1068" y1="833.7734" y2="833.7734"/>
    <a href="" target="_top" title="" xlink:actuate="onRequest" xlink:href="" xlink:show="new" xlink:title="" xlink:type="simple">
      <polygon fill="#A80036" points="371,858.9063,361,862.9063,371,866.9063,367,862.9063" style="stroke: #A80036; stroke-width: 1.0;"/>
      <line style="stroke: #A80036; stroke-width: 1.0;" x1="365" x2="796" y1="862.9063" y2="862.9063"/>
      <text fill="#000000" font-family="sans-serif" font-size="13" lengthAdjust="spacingAndGlyphs" textLength="41" x="377" y="857.8403">Load()</text>
    </a>
    <polygon fill="#A80036" points="785,872.9063,795,876.9063,785,880.9063,789,876.9063" style="stroke: #A80036; stroke-width: 1.0;"/>
    <line style="stroke: #A80036; stroke-width: 1.0; stroke-dasharray: 2.0,2.0;" x1="355" x2="791" y1="876.9063" y2="876.9063"/>
    <path d="M736,891.9063 L800,891.9063 L800,898.9063 L790,908.9063 L736,908.9063 L736,891.9063 " fill="#EEEEEE" style="stroke: #000000; stroke-width: 1.0;"/>
    <rect fill="none" height="119.3984" style="stroke: #000000; stroke-width: 2.0;" width="1486.5" x="736" y="891.9063"/>
    <text fill="#000000" font-family="sans-serif" font-size="13" font-weight="bold" lengthAdjust="spacingAndGlyphs" textLength="19" x="751" y="904.9731">alt</text>
    <a href="" target="_top" title="" xlink:actuate="onRequest" xlink:href="" xlink:show="new" xlink:title="" xlink:type="simple">
      <polygon fill="#A80036" points="1999.5,926.1719,2009.5,930.1719,1999.5,934.1719,2003.5,930.1719" style="stroke: #A80036; stroke-width: 1.0;"/>
      <line style="stroke: #A80036; stroke-width: 1.0;" x1="807" x2="2005.5" y1="930.1719" y2="930.1719"/>
      <text fill="#000000" font-family="sans-serif" font-size="13" font-weight="bold" lengthAdjust="spacingAndGlyphs" textLength="6" x="814" y="925.106">[</text>
      <text fill="#000000" font-family="sans-serif" font-size="13" lengthAdjust="spacingAndGlyphs" textLength="135" x="820" y="925.106">operator bool() const</text>
      <text fill="#000000" font-family="sans-serif" font-size="13" font-weight="bold" lengthAdjust="spacingAndGlyphs" textLength="6" x="955" y="925.106">]</text>
    </a>
    <polygon fill="#A80036" points="818,940.1719,808,944.1719,818,948.1719,814,944.1719" style="stroke: #A80036; stroke-width: 1.0;"/>
    <line style="stroke: #A80036; stroke-width: 1.0; stroke-dasharray: 2.0,2.0;" x1="812" x2="2015.5" y1="944.1719" y2="944.1719"/>
    <a href="" target="_top" title="" xlink:actuate="onRequest" xlink:href="" xlink:show="new" xlink:title="" xlink:type="simple">
      <polygon fill="#A80036" points="1999.5,969.3047,2009.5,973.3047,1999.5,977.3047,2003.5,973.3047" style="stroke: #A80036; stroke-width: 1.0;"/>
      <line style="stroke: #A80036; stroke-width: 1.0;" x1="807" x2="2005.5" y1="973.3047" y2="973.3047"/>
      <text fill="#000000" font-family="sans-serif" font-size="13" lengthAdjust="spacingAndGlyphs" textLength="30" x="814" y="968.2388">set()</text>
    </a>
    <a href="" target="_top" title="" xlink:actuate="onRequest" xlink:href="" xlink:show="new" xlink:title="" xlink:type="simple">
      <polygon fill="#A80036" points="1999.5,1035.4375,2009.5,1039.4375,1999.5,1043.4375,2003.5,1039.4375" style="stroke: #A80036; stroke-width: 1.0;"/>
      <line style="stroke: #A80036; stroke-width: 1.0;" x1="807" x2="2005.5" y1="1039.4375" y2="1039.4375"/>
      <text fill="#000000" font-family="sans-serif" font-size="13" lengthAdjust="spacingAndGlyphs" textLength="75" x="814" y="1034.3716">operator()()</text>
    </a>
    <polygon fill="#A80036" points="813,1049.4375,803,1053.4375,813,1057.4375,809,1053.4375" style="stroke: #A80036; stroke-width: 1.0;"/>
    <line style="stroke: #A80036; stroke-width: 1.0; stroke-dasharray: 2.0,2.0;" x1="807" x2="2015.5" y1="1053.4375" y2="1053.4375"/>
    <line style="stroke: #000000; stroke-width: 1.0; stroke-dasharray: 2.0,2.0;" x1="13" x2="2232.5" y1="1062.4375" y2="1062.4375"/>
    <text fill="#000000" font-family="sans-serif" font-size="11" font-weight="bold" lengthAdjust="spacingAndGlyphs" textLength="115" x="18" y="1072.6479">[YAML::BadFile &amp;]</text>
    <line style="stroke: #000000; stroke-width: 1.0; stroke-dasharray: 2.0,2.0;" x1="13" x2="2232.5" y1="1077.2422" y2="1077.2422"/>
    <text fill="#000000" font-family="sans-serif" font-size="11" font-weight="bold" lengthAdjust="spacingAndGlyphs" textLength="129" x="18" y="1087.4526">[YAML::Exception &amp;]</text>
    <polygon fill="#A80036" points="14,1100.0469,4,1104.0469,14,1108.0469,10,1104.0469" style="stroke: #A80036; stroke-width: 1.0;"/>
    <line style="stroke: #A80036; stroke-width: 1.0; stroke-dasharray: 2.0,2.0;" x1="8" x2="115" y1="1104.0469" y2="1104.0469"/>
  </g>
</svg>
