<svg xmlns="http://www.w3.org/2000/svg" xmlns:xlink="http://www.w3.org/1999/xlink" contentScriptType="application/ecmascript" contentStyleType="text/css" height="1416px" preserveAspectRatio="none" style="width:1977px;height:1416px;" version="1.1" viewBox="0 0 1977 1416" width="1977px" zoomAndPan="magnify">
  <defs>
    <filter height="300%" id="fp1vop8f9dks9" width="300%" x="-1" y="-1">
      <feGaussianBlur result="blurOut" stdDeviation="2.0"/>
      <feColorMatrix in="blurOut" result="blurOut2" type="matrix" values="0 0 0 0 0 0 0 0 0 0 0 0 0 0 0 0 0 0 .4 0"/>
      <feOffset dx="4.0" dy="4.0" in="blurOut2" result="blurOut3"/>
      <feBlend in="SourceGraphic" in2="blurOut3" mode="normal"/>
    </filter>
    <style type="text/css">a:hover { text-decoration: underline; }</style>
  </defs>
  <g>
    <text fill="#000000" font-family="sans-serif" font-size="18" lengthAdjust="spacingAndGlyphs" textLength="390" x="794" y="26.708">Configuration file loading sequence diagram</text>
    <rect fill="#FFFFFF" filter="url(#fp1vop8f9dks9)" height="1253.8594" style="stroke: #A80036; stroke-width: 1.0;" width="10" x="145.5" y="104.3828"/>
    <rect fill="#FFFFFF" filter="url(#fp1vop8f9dks9)" height="68.1328" style="stroke: #A80036; stroke-width: 1.0;" width="10" x="150.5" y="521.375"/>
    <rect fill="#FFFFFF" filter="url(#fp1vop8f9dks9)" height="28" style="stroke: #A80036; stroke-width: 1.0;" width="10" x="150.5" y="640.6406"/>
    <rect fill="#FFFFFF" filter="url(#fp1vop8f9dks9)" height="28" style="stroke: #A80036; stroke-width: 1.0;" width="10" x="150.5" y="712.7734"/>
    <rect fill="#FFFFFF" filter="url(#fp1vop8f9dks9)" height="68.1328" style="stroke: #A80036; stroke-width: 1.0;" width="10" x="150.5" y="833.1719"/>
    <rect fill="#FFFFFF" filter="url(#fp1vop8f9dks9)" height="14" style="stroke: #A80036; stroke-width: 1.0;" width="10" x="419" y="157.6484"/>
    <rect fill="#FFFFFF" filter="url(#fp1vop8f9dks9)" height="14" style="stroke: #A80036; stroke-width: 1.0;" width="10" x="419" y="224.9141"/>
    <rect fill="#FFFFFF" filter="url(#fp1vop8f9dks9)" height="14" style="stroke: #A80036; stroke-width: 1.0;" width="10" x="419" y="270.0469"/>
    <rect fill="#FFFFFF" filter="url(#fp1vop8f9dks9)" height="14" style="stroke: #A80036; stroke-width: 1.0;" width="10" x="419" y="937.4375"/>
    <rect fill="#FFFFFF" filter="url(#fp1vop8f9dks9)" height="14" style="stroke: #A80036; stroke-width: 1.0;" width="10" x="419" y="1293.6328"/>
    <rect fill="#FFFFFF" filter="url(#fp1vop8f9dks9)" height="14" style="stroke: #A80036; stroke-width: 1.0;" width="10" x="947.5" y="555.5078"/>
    <rect fill="#FFFFFF" filter="url(#fp1vop8f9dks9)" height="14" style="stroke: #A80036; stroke-width: 1.0;" width="10" x="947.5" y="867.3047"/>
    <rect fill="#FFFFFF" filter="url(#fp1vop8f9dks9)" height="174.5313" style="stroke: #A80036; stroke-width: 1.0;" width="10" x="1376" y="1018.7031"/>
    <rect fill="#FFFFFF" filter="url(#fp1vop8f9dks9)" height="86.2656" style="stroke: #A80036; stroke-width: 1.0;" width="10" x="1376" y="1221.3672"/>
    <rect fill="#FFFFFF" filter="url(#fp1vop8f9dks9)" height="30" style="stroke: #A80036; stroke-width: 1.0;" width="10" x="1573.5" y="1071.9688"/>
    <rect fill="#FFFFFF" filter="url(#fp1vop8f9dks9)" height="14" style="stroke: #A80036; stroke-width: 1.0;" width="10" x="1573.5" y="1155.2344"/>
    <rect fill="#FFFFFF" filter="url(#fp1vop8f9dks9)" height="14" style="stroke: #A80036; stroke-width: 1.0;" width="10" x="1832.5" y="1250.5"/>
    <rect fill="#FFFFFF" filter="url(#fp1vop8f9dks9)" height="1225.8594" style="stroke: #000000; stroke-width: 2.0;" width="1952" x="13" y="119.3828"/>
    <rect fill="#FFFFFF" filter="url(#fp1vop8f9dks9)" height="105.3984" style="stroke: #000000; stroke-width: 2.0;" width="557" x="33" y="186.6484"/>
    <rect fill="#FFFFFF" height="45.1328" style="stroke: none; stroke-width: 1.0;" width="557" x="33" y="246.9141"/>
    <rect fill="#FFFFFF" filter="url(#fp1vop8f9dks9)" height="213.9297" style="stroke: #000000; stroke-width: 2.0;" width="1292" x="33" y="390.5781"/>
    <rect fill="#FFFFFF" filter="url(#fp1vop8f9dks9)" height="203.6641" style="stroke: #000000; stroke-width: 2.0;" width="1312" x="23" y="762.7734"/>
    <rect fill="#FFFFFF" filter="url(#fp1vop8f9dks9)" height="172.5313" style="stroke: #000000; stroke-width: 2.0;" width="1292" x="33" y="786.9063"/>
    <rect fill="#FFFFFF" filter="url(#fp1vop8f9dks9)" height="212.7969" style="stroke: #000000; stroke-width: 2.0;" width="1707" x="33" y="980.4375"/>
    <rect fill="#FFFFFF" filter="url(#fp1vop8f9dks9)" height="152.5313" style="stroke: #000000; stroke-width: 2.0;" width="425" x="1305" y="1033.7031"/>
    <rect fill="#FFFFFF" filter="url(#fp1vop8f9dks9)" height="62.2656" style="stroke: #000000; stroke-width: 2.0;" width="405" x="1315" y="1116.9688"/>
    <rect fill="#FFFFFF" height="2" style="stroke: none; stroke-width: 1.0;" width="405" x="1315" y="1177.2344"/>
    <rect fill="#FFFFFF" height="14.8047" style="stroke: none; stroke-width: 1.0;" width="1952" x="13" y="1315.6328"/>
    <rect fill="#FFFFFF" height="14.8047" style="stroke: none; stroke-width: 1.0;" width="1952" x="13" y="1330.4375"/>
    <line style="stroke: #A80036; stroke-width: 1.0; stroke-dasharray: 5.0,5.0;" x1="150" x2="150" y1="73.25" y2="1376.2422"/>
    <line style="stroke: #A80036; stroke-width: 1.0; stroke-dasharray: 5.0,5.0;" x1="424" x2="424" y1="73.25" y2="1376.2422"/>
    <line style="stroke: #A80036; stroke-width: 1.0; stroke-dasharray: 5.0,5.0;" x1="952" x2="952" y1="73.25" y2="1376.2422"/>
    <line style="stroke: #A80036; stroke-width: 1.0; stroke-dasharray: 5.0,5.0;" x1="1381" x2="1381" y1="73.25" y2="1376.2422"/>
    <line style="stroke: #A80036; stroke-width: 1.0; stroke-dasharray: 5.0,5.0;" x1="1578" x2="1578" y1="73.25" y2="1376.2422"/>
    <line style="stroke: #A80036; stroke-width: 1.0; stroke-dasharray: 5.0,5.0;" x1="1837" x2="1837" y1="73.25" y2="1376.2422"/>
    <rect fill="#FEFECE" filter="url(#fp1vop8f9dks9)" height="30.2969" style="stroke: #A80036; stroke-width: 1.5;" width="211" x="43" y="37.9531"/>
    <text fill="#000000" font-family="sans-serif" font-size="14" lengthAdjust="spacingAndGlyphs" textLength="197" x="50" y="57.9482">src/config/yaml_decoders.cc</text>
    <rect fill="#FEFECE" filter="url(#fp1vop8f9dks9)" height="30.2969" style="stroke: #A80036; stroke-width: 1.5;" width="211" x="43" y="1375.2422"/>
    <text fill="#000000" font-family="sans-serif" font-size="14" lengthAdjust="spacingAndGlyphs" textLength="197" x="50" y="1395.2373">src/config/yaml_decoders.cc</text>
    <rect fill="#FEFECE" filter="url(#fp1vop8f9dks9)" height="30.2969" style="stroke: #A80036; stroke-width: 1.5;" width="308" x="268" y="37.9531"/>
    <text fill="#000000" font-family="sans-serif" font-size="14" lengthAdjust="spacingAndGlyphs" textLength="294" x="275" y="57.9482">../../../../usr/include/yaml-cpp/node/parse.h</text>
    <rect fill="#FEFECE" filter="url(#fp1vop8f9dks9)" height="30.2969" style="stroke: #A80036; stroke-width: 1.5;" width="308" x="268" y="1375.2422"/>
    <text fill="#000000" font-family="sans-serif" font-size="14" lengthAdjust="spacingAndGlyphs" textLength="294" x="275" y="1395.2373">../../../../usr/include/yaml-cpp/node/parse.h</text>
    <a href="" target="_top" title="has_key(const YAML::Node &amp;,const std::string &amp;)##(lambda src/config/yaml_decoders.cc:61:46)" xlink:actuate="onRequest" xlink:href="" xlink:show="new" xlink:title="has_key(const YAML::Node &amp;,const std::string &amp;)##(lambda src/config/yaml_decoders.cc:61:46)" xlink:type="simple">
      <rect fill="#FEFECE" filter="url(#fp1vop8f9dks9)" height="30.2969" style="stroke: #A80036; stroke-width: 1.5;" width="721" x="590" y="37.9531"/>
      <text fill="#000000" font-family="sans-serif" font-size="14" lengthAdjust="spacingAndGlyphs" textLength="707" x="597" y="57.9482">YAML::has_key(const YAML::Node &amp;,const std::string &amp;)::(lambda src/config/yaml_decoders.cc:61:46)</text>
      <rect fill="#FEFECE" filter="url(#fp1vop8f9dks9)" height="30.2969" style="stroke: #A80036; stroke-width: 1.5;" width="721" x="590" y="1375.2422"/>
      <text fill="#000000" font-family="sans-serif" font-size="14" lengthAdjust="spacingAndGlyphs" textLength="707" x="597" y="1395.2373">YAML::has_key(const YAML::Node &amp;,const std::string &amp;)::(lambda src/config/yaml_decoders.cc:61:46)</text>
    </a>
    <a href="" target="_top" title="Represents entire configuration file" xlink:actuate="onRequest" xlink:href="" xlink:show="new" xlink:title="Represents entire configuration file" xlink:type="simple">
      <rect fill="#FEFECE" filter="url(#fp1vop8f9dks9)" height="30.2969" style="stroke: #A80036; stroke-width: 1.5;" width="108" x="1325" y="37.9531"/>
      <text fill="#000000" font-family="sans-serif" font-size="14" lengthAdjust="spacingAndGlyphs" textLength="94" x="1332" y="57.9482">config::config</text>
      <rect fill="#FEFECE" filter="url(#fp1vop8f9dks9)" height="30.2969" style="stroke: #A80036; stroke-width: 1.5;" width="108" x="1325" y="1375.2422"/>
      <text fill="#000000" font-family="sans-serif" font-size="14" lengthAdjust="spacingAndGlyphs" textLength="94" x="1332" y="1395.2373">config::config</text>
    </a>
    <a href="" target="_top" title="Represents subset of inheritable configuration options" xlink:actuate="onRequest" xlink:href="" xlink:show="new" xlink:title="Represents subset of inheritable configuration options" xlink:type="simple">
      <rect fill="#FEFECE" filter="url(#fp1vop8f9dks9)" height="30.2969" style="stroke: #A80036; stroke-width: 1.5;" width="259" x="1447" y="37.9531"/>
      <text fill="#000000" font-family="sans-serif" font-size="14" lengthAdjust="spacingAndGlyphs" textLength="245" x="1454" y="57.9482">config::inheritable_diagram_options</text>
      <rect fill="#FEFECE" filter="url(#fp1vop8f9dks9)" height="30.2969" style="stroke: #A80036; stroke-width: 1.5;" width="259" x="1447" y="1375.2422"/>
      <text fill="#000000" font-family="sans-serif" font-size="14" lengthAdjust="spacingAndGlyphs" textLength="245" x="1454" y="1395.2373">config::inheritable_diagram_options</text>
    </a>
    <rect fill="#FEFECE" filter="url(#fp1vop8f9dks9)" height="30.2969" style="stroke: #A80036; stroke-width: 1.5;" width="231" x="1720" y="37.9531"/>
    <text fill="#000000" font-family="sans-serif" font-size="14" lengthAdjust="spacingAndGlyphs" textLength="217" x="1727" y="57.9482">src/config/diagram_templates.h</text>
    <rect fill="#FEFECE" filter="url(#fp1vop8f9dks9)" height="30.2969" style="stroke: #A80036; stroke-width: 1.5;" width="231" x="1720" y="1375.2422"/>
    <text fill="#000000" font-family="sans-serif" font-size="14" lengthAdjust="spacingAndGlyphs" textLength="217" x="1727" y="1395.2373">src/config/diagram_templates.h</text>
    <rect fill="#FFFFFF" filter="url(#fp1vop8f9dks9)" height="1253.8594" style="stroke: #A80036; stroke-width: 1.0;" width="10" x="145.5" y="104.3828"/>
    <rect fill="#FFFFFF" filter="url(#fp1vop8f9dks9)" height="68.1328" style="stroke: #A80036; stroke-width: 1.0;" width="10" x="150.5" y="521.375"/>
    <rect fill="#FFFFFF" filter="url(#fp1vop8f9dks9)" height="28" style="stroke: #A80036; stroke-width: 1.0;" width="10" x="150.5" y="640.6406"/>
    <rect fill="#FFFFFF" filter="url(#fp1vop8f9dks9)" height="28" style="stroke: #A80036; stroke-width: 1.0;" width="10" x="150.5" y="712.7734"/>
    <rect fill="#FFFFFF" filter="url(#fp1vop8f9dks9)" height="68.1328" style="stroke: #A80036; stroke-width: 1.0;" width="10" x="150.5" y="833.1719"/>
    <rect fill="#FFFFFF" filter="url(#fp1vop8f9dks9)" height="14" style="stroke: #A80036; stroke-width: 1.0;" width="10" x="419" y="157.6484"/>
    <rect fill="#FFFFFF" filter="url(#fp1vop8f9dks9)" height="14" style="stroke: #A80036; stroke-width: 1.0;" width="10" x="419" y="224.9141"/>
    <rect fill="#FFFFFF" filter="url(#fp1vop8f9dks9)" height="14" style="stroke: #A80036; stroke-width: 1.0;" width="10" x="419" y="270.0469"/>
    <rect fill="#FFFFFF" filter="url(#fp1vop8f9dks9)" height="14" style="stroke: #A80036; stroke-width: 1.0;" width="10" x="419" y="937.4375"/>
    <rect fill="#FFFFFF" filter="url(#fp1vop8f9dks9)" height="14" style="stroke: #A80036; stroke-width: 1.0;" width="10" x="419" y="1293.6328"/>
    <rect fill="#FFFFFF" filter="url(#fp1vop8f9dks9)" height="14" style="stroke: #A80036; stroke-width: 1.0;" width="10" x="947.5" y="555.5078"/>
    <rect fill="#FFFFFF" filter="url(#fp1vop8f9dks9)" height="14" style="stroke: #A80036; stroke-width: 1.0;" width="10" x="947.5" y="867.3047"/>
    <rect fill="#FFFFFF" filter="url(#fp1vop8f9dks9)" height="174.5313" style="stroke: #A80036; stroke-width: 1.0;" width="10" x="1376" y="1018.7031"/>
    <rect fill="#FFFFFF" filter="url(#fp1vop8f9dks9)" height="86.2656" style="stroke: #A80036; stroke-width: 1.0;" width="10" x="1376" y="1221.3672"/>
    <rect fill="#FFFFFF" filter="url(#fp1vop8f9dks9)" height="30" style="stroke: #A80036; stroke-width: 1.0;" width="10" x="1573.5" y="1071.9688"/>
    <rect fill="#FFFFFF" filter="url(#fp1vop8f9dks9)" height="14" style="stroke: #A80036; stroke-width: 1.0;" width="10" x="1573.5" y="1155.2344"/>
    <rect fill="#FFFFFF" filter="url(#fp1vop8f9dks9)" height="14" style="stroke: #A80036; stroke-width: 1.0;" width="10" x="1832.5" y="1250.5"/>
    <polygon fill="#A80036" points="133.5,100.3828,143.5,104.3828,133.5,108.3828,137.5,104.3828" style="stroke: #A80036; stroke-width: 1.0;"/>
    <line style="stroke: #A80036; stroke-width: 1.0;" x1="3" x2="139.5" y1="104.3828" y2="104.3828"/>
    <text fill="#000000" font-family="sans-serif" font-size="13" lengthAdjust="spacingAndGlyphs" textLength="37" x="10" y="99.3169">load()</text>
    <path d="M13,119.3828 L78,119.3828 L78,126.3828 L68,136.3828 L13,136.3828 L13,119.3828 " fill="#EEEEEE" style="stroke: #000000; stroke-width: 1.0;"/>
    <rect fill="none" height="1225.8594" style="stroke: #000000; stroke-width: 2.0;" width="1952" x="13" y="119.3828"/>
    <text fill="#000000" font-family="sans-serif" font-size="13" font-weight="bold" lengthAdjust="spacingAndGlyphs" textLength="20" x="28" y="132.4497">try</text>
    <a href="" target="_top" title="" xlink:actuate="onRequest" xlink:href="" xlink:show="new" xlink:title="" xlink:type="simple">
      <polygon fill="#A80036" points="407,153.6484,417,157.6484,407,161.6484,411,157.6484" style="stroke: #A80036; stroke-width: 1.0;"/>
      <line style="stroke: #A80036; stroke-width: 1.0;" x1="155.5" x2="413" y1="157.6484" y2="157.6484"/>
      <text fill="#000000" font-family="sans-serif" font-size="13" lengthAdjust="spacingAndGlyphs" textLength="41" x="162.5" y="152.5825">Load()</text>
    </a>
    <polygon fill="#A80036" points="166.5,167.6484,156.5,171.6484,166.5,175.6484,162.5,171.6484" style="stroke: #A80036; stroke-width: 1.0;"/>
    <line style="stroke: #A80036; stroke-width: 1.0; stroke-dasharray: 2.0,2.0;" x1="160.5" x2="423" y1="171.6484" y2="171.6484"/>
    <path d="M33,186.6484 L97,186.6484 L97,193.6484 L87,203.6484 L33,203.6484 L33,186.6484 " fill="#EEEEEE" style="stroke: #000000; stroke-width: 1.0;"/>
    <rect fill="none" height="105.3984" style="stroke: #000000; stroke-width: 2.0;" width="557" x="33" y="186.6484"/>
    <text fill="#000000" font-family="sans-serif" font-size="13" font-weight="bold" lengthAdjust="spacingAndGlyphs" textLength="19" x="48" y="199.7153">alt</text>
    <text fill="#000000" font-family="sans-serif" font-size="11" font-weight="bold" lengthAdjust="spacingAndGlyphs" textLength="120" x="112" y="198.8589">[config_file == "-"]</text>
    <a href="" target="_top" title="" xlink:actuate="onRequest" xlink:href="" xlink:show="new" xlink:title="" xlink:type="simple">
      <polygon fill="#A80036" points="407,220.9141,417,224.9141,407,228.9141,411,224.9141" style="stroke: #A80036; stroke-width: 1.0;"/>
      <line style="stroke: #A80036; stroke-width: 1.0;" x1="155.5" x2="413" y1="224.9141" y2="224.9141"/>
      <text fill="#000000" font-family="sans-serif" font-size="13" lengthAdjust="spacingAndGlyphs" textLength="41" x="162.5" y="219.8481">Load()</text>
    </a>
    <polygon fill="#A80036" points="166.5,234.9141,156.5,238.9141,166.5,242.9141,162.5,238.9141" style="stroke: #A80036; stroke-width: 1.0;"/>
    <line style="stroke: #A80036; stroke-width: 1.0; stroke-dasharray: 2.0,2.0;" x1="160.5" x2="423" y1="238.9141" y2="238.9141"/>
    <line style="stroke: #000000; stroke-width: 1.0; stroke-dasharray: 2.0,2.0;" x1="33" x2="590" y1="247.9141" y2="247.9141"/>
    <a href="" target="_top" title="" xlink:actuate="onRequest" xlink:href="" xlink:show="new" xlink:title="" xlink:type="simple">
      <polygon fill="#A80036" points="407,266.0469,417,270.0469,407,274.0469,411,270.0469" style="stroke: #A80036; stroke-width: 1.0;"/>
      <line style="stroke: #A80036; stroke-width: 1.0;" x1="155.5" x2="413" y1="270.0469" y2="270.0469"/>
      <text fill="#000000" font-family="sans-serif" font-size="13" lengthAdjust="spacingAndGlyphs" textLength="62" x="162.5" y="264.981">LoadFile()</text>
    </a>
    <polygon fill="#A80036" points="166.5,280.0469,156.5,284.0469,166.5,288.0469,162.5,284.0469" style="stroke: #A80036; stroke-width: 1.0;"/>
    <line style="stroke: #A80036; stroke-width: 1.0; stroke-dasharray: 2.0,2.0;" x1="160.5" x2="423" y1="284.0469" y2="284.0469"/>
    <path d="M57,304.0469 L57,374.0469 L239,374.0469 L239,314.0469 L229,304.0469 L57,304.0469 " fill="#FBFB77" filter="url(#fp1vop8f9dks9)" style="stroke: #A80036; stroke-width: 1.0;"/>
    <path d="M229,304.0469 L229,314.0469 L239,314.0469 L229,304.0469 " fill="#FBFB77" style="stroke: #A80036; stroke-width: 1.0;"/>
    <text fill="#000000" font-family="sans-serif" font-size="13" lengthAdjust="spacingAndGlyphs" textLength="155" x="63" y="321.1138">Store the parent path of</text>
    <text fill="#000000" font-family="sans-serif" font-size="13" lengthAdjust="spacingAndGlyphs" textLength="161" x="63" y="336.2466">the config_file to properly</text>
    <text fill="#000000" font-family="sans-serif" font-size="13" lengthAdjust="spacingAndGlyphs" textLength="152" x="63" y="351.3794">resolve relative paths in</text>
    <text fill="#000000" font-family="sans-serif" font-size="13" lengthAdjust="spacingAndGlyphs" textLength="60" x="63" y="366.5122">config file</text>
    <path d="M33,390.5781 L97,390.5781 L97,397.5781 L87,407.5781 L33,407.5781 L33,390.5781 " fill="#EEEEEE" style="stroke: #000000; stroke-width: 1.0;"/>
    <rect fill="none" height="213.9297" style="stroke: #000000; stroke-width: 2.0;" width="1292" x="33" y="390.5781"/>
    <text fill="#000000" font-family="sans-serif" font-size="13" font-weight="bold" lengthAdjust="spacingAndGlyphs" textLength="19" x="48" y="403.645">alt</text>
    <text fill="#000000" font-family="sans-serif" font-size="11" font-weight="bold" lengthAdjust="spacingAndGlyphs" textLength="203" x="112" y="402.7886">[has_key(doc, "__parent_path")]</text>
    <path d="M57,412.7109 L57,482.7109 L239,482.7109 L239,422.7109 L229,412.7109 L57,412.7109 " fill="#FBFB77" filter="url(#fp1vop8f9dks9)" style="stroke: #A80036; stroke-width: 1.0;"/>
    <path d="M229,412.7109 L229,422.7109 L239,422.7109 L229,412.7109 " fill="#FBFB77" style="stroke: #A80036; stroke-width: 1.0;"/>
    <text fill="#000000" font-family="sans-serif" font-size="13" lengthAdjust="spacingAndGlyphs" textLength="155" x="63" y="429.7778">Store the parent path of</text>
    <text fill="#000000" font-family="sans-serif" font-size="13" lengthAdjust="spacingAndGlyphs" textLength="161" x="63" y="444.9106">the config_file to properly</text>
    <text fill="#000000" font-family="sans-serif" font-size="13" lengthAdjust="spacingAndGlyphs" textLength="152" x="63" y="460.0435">resolve relative paths in</text>
    <text fill="#000000" font-family="sans-serif" font-size="13" lengthAdjust="spacingAndGlyphs" textLength="60" x="63" y="475.1763">config file</text>
    <a href="" target="_top" title="" xlink:actuate="onRequest" xlink:href="" xlink:show="new" xlink:title="" xlink:type="simple">
      <line style="stroke: #A80036; stroke-width: 1.0;" x1="155.5" x2="202.5" y1="508.375" y2="508.375"/>
      <line style="stroke: #A80036; stroke-width: 1.0;" x1="202.5" x2="202.5" y1="508.375" y2="521.375"/>
      <line style="stroke: #A80036; stroke-width: 1.0;" x1="161.5" x2="202.5" y1="521.375" y2="521.375"/>
      <polygon fill="#A80036" points="171.5,517.375,161.5,521.375,171.5,525.375,167.5,521.375" style="stroke: #A80036; stroke-width: 1.0;"/>
      <text fill="#000000" font-family="sans-serif" font-size="13" font-weight="bold" lengthAdjust="spacingAndGlyphs" textLength="6" x="167.5" y="503.3091">[</text>
      <text fill="#000000" font-family="sans-serif" font-size="13" lengthAdjust="spacingAndGlyphs" textLength="62" x="173.5" y="503.3091">has_key()</text>
      <text fill="#000000" font-family="sans-serif" font-size="13" font-weight="bold" lengthAdjust="spacingAndGlyphs" textLength="6" x="235.5" y="503.3091">]</text>
    </a>
    <a href="" target="_top" title="" xlink:actuate="onRequest" xlink:href="" xlink:show="new" xlink:title="" xlink:type="simple">
      <polygon fill="#A80036" points="935.5,551.5078,945.5,555.5078,935.5,559.5078,939.5,555.5078" style="stroke: #A80036; stroke-width: 1.0;"/>
      <line style="stroke: #A80036; stroke-width: 1.0;" x1="160.5" x2="941.5" y1="555.5078" y2="555.5078"/>
      <text fill="#000000" font-family="sans-serif" font-size="13" lengthAdjust="spacingAndGlyphs" textLength="114" x="167.5" y="550.4419">operator()() const</text>
    </a>
    <polygon fill="#A80036" points="171.5,565.5078,161.5,569.5078,171.5,573.5078,167.5,569.5078" style="stroke: #A80036; stroke-width: 1.0;"/>
    <line style="stroke: #A80036; stroke-width: 1.0; stroke-dasharray: 2.0,2.0;" x1="165.5" x2="951.5" y1="569.5078" y2="569.5078"/>
    <line style="stroke: #A80036; stroke-width: 1.0; stroke-dasharray: 2.0,2.0;" x1="160.5" x2="202.5" y1="588.5078" y2="588.5078"/>
    <line style="stroke: #A80036; stroke-width: 1.0; stroke-dasharray: 2.0,2.0;" x1="202.5" x2="202.5" y1="588.5078" y2="601.5078"/>
    <line style="stroke: #A80036; stroke-width: 1.0; stroke-dasharray: 2.0,2.0;" x1="155.5" x2="202.5" y1="601.5078" y2="601.5078"/>
    <polygon fill="#A80036" points="165.5,597.5078,155.5,601.5078,165.5,605.5078,161.5,601.5078" style="stroke: #A80036; stroke-width: 1.0;"/>
    <a href="" target="_top" title="" xlink:actuate="onRequest" xlink:href="" xlink:show="new" xlink:title="" xlink:type="simple">
      <line style="stroke: #A80036; stroke-width: 1.0;" x1="160.5" x2="202.5" y1="632.6406" y2="632.6406"/>
      <line style="stroke: #A80036; stroke-width: 1.0;" x1="202.5" x2="202.5" y1="632.6406" y2="645.6406"/>
      <line style="stroke: #A80036; stroke-width: 1.0;" x1="161.5" x2="202.5" y1="645.6406" y2="645.6406"/>
      <polygon fill="#A80036" points="171.5,641.6406,161.5,645.6406,171.5,649.6406,167.5,645.6406" style="stroke: #A80036; stroke-width: 1.0;"/>
      <text fill="#000000" font-family="sans-serif" font-size="13" lengthAdjust="spacingAndGlyphs" textLength="139" x="167.5" y="627.5747">resolve_option_path()</text>
    </a>
    <a href="" target="_top" title="" xlink:actuate="onRequest" xlink:href="" xlink:show="new" xlink:title="" xlink:type="simple">
      <line style="stroke: #A80036; stroke-width: 1.0;" x1="160.5" x2="202.5" y1="704.7734" y2="704.7734"/>
      <line style="stroke: #A80036; stroke-width: 1.0;" x1="202.5" x2="202.5" y1="704.7734" y2="717.7734"/>
      <line style="stroke: #A80036; stroke-width: 1.0;" x1="161.5" x2="202.5" y1="717.7734" y2="717.7734"/>
      <polygon fill="#A80036" points="171.5,713.7734,161.5,717.7734,171.5,721.7734,167.5,717.7734" style="stroke: #A80036; stroke-width: 1.0;"/>
      <text fill="#000000" font-family="sans-serif" font-size="13" lengthAdjust="spacingAndGlyphs" textLength="139" x="167.5" y="699.7075">resolve_option_path()</text>
    </a>
    <path d="M23,762.7734 L100,762.7734 L100,769.7734 L90,779.7734 L23,779.7734 L23,762.7734 " fill="#EEEEEE" style="stroke: #000000; stroke-width: 1.0;"/>
    <rect fill="none" height="203.6641" style="stroke: #000000; stroke-width: 2.0;" width="1312" x="23" y="762.7734"/>
    <text fill="#000000" font-family="sans-serif" font-size="13" font-weight="bold" lengthAdjust="spacingAndGlyphs" textLength="32" x="38" y="775.8403">loop</text>
    <text fill="#000000" font-family="sans-serif" font-size="11" font-weight="bold" lengthAdjust="spacingAndGlyphs" textLength="69" x="115" y="774.9839">[diagrams]</text>
    <path d="M33,786.9063 L97,786.9063 L97,793.9063 L87,803.9063 L33,803.9063 L33,786.9063 " fill="#EEEEEE" style="stroke: #000000; stroke-width: 1.0;"/>
    <rect fill="none" height="172.5313" style="stroke: #000000; stroke-width: 2.0;" width="1292" x="33" y="786.9063"/>
    <text fill="#000000" font-family="sans-serif" font-size="13" font-weight="bold" lengthAdjust="spacingAndGlyphs" textLength="19" x="48" y="799.9731">alt</text>
    <text fill="#000000" font-family="sans-serif" font-size="11" font-weight="bold" lengthAdjust="spacingAndGlyphs" textLength="201" x="112" y="799.1167">[has_key(d.second, "include!")]</text>
    <a href="" target="_top" title="" xlink:actuate="onRequest" xlink:href="" xlink:show="new" xlink:title="" xlink:type="simple">
      <line style="stroke: #A80036; stroke-width: 1.0;" x1="155.5" x2="202.5" y1="820.1719" y2="820.1719"/>
      <line style="stroke: #A80036; stroke-width: 1.0;" x1="202.5" x2="202.5" y1="820.1719" y2="833.1719"/>
      <line style="stroke: #A80036; stroke-width: 1.0;" x1="161.5" x2="202.5" y1="833.1719" y2="833.1719"/>
      <polygon fill="#A80036" points="171.5,829.1719,161.5,833.1719,171.5,837.1719,167.5,833.1719" style="stroke: #A80036; stroke-width: 1.0;"/>
      <text fill="#000000" font-family="sans-serif" font-size="13" font-weight="bold" lengthAdjust="spacingAndGlyphs" textLength="6" x="167.5" y="815.106">[</text>
      <text fill="#000000" font-family="sans-serif" font-size="13" lengthAdjust="spacingAndGlyphs" textLength="62" x="173.5" y="815.106">has_key()</text>
      <text fill="#000000" font-family="sans-serif" font-size="13" font-weight="bold" lengthAdjust="spacingAndGlyphs" textLength="6" x="235.5" y="815.106">]</text>
    </a>
    <a href="" target="_top" title="" xlink:actuate="onRequest" xlink:href="" xlink:show="new" xlink:title="" xlink:type="simple">
      <polygon fill="#A80036" points="935.5,863.3047,945.5,867.3047,935.5,871.3047,939.5,867.3047" style="stroke: #A80036; stroke-width: 1.0;"/>
      <line style="stroke: #A80036; stroke-width: 1.0;" x1="160.5" x2="941.5" y1="867.3047" y2="867.3047"/>
      <text fill="#000000" font-family="sans-serif" font-size="13" lengthAdjust="spacingAndGlyphs" textLength="114" x="167.5" y="862.2388">operator()() const</text>
    </a>
    <polygon fill="#A80036" points="171.5,877.3047,161.5,881.3047,171.5,885.3047,167.5,881.3047" style="stroke: #A80036; stroke-width: 1.0;"/>
    <line style="stroke: #A80036; stroke-width: 1.0; stroke-dasharray: 2.0,2.0;" x1="165.5" x2="951.5" y1="881.3047" y2="881.3047"/>
    <line style="stroke: #A80036; stroke-width: 1.0; stroke-dasharray: 2.0,2.0;" x1="160.5" x2="202.5" y1="900.3047" y2="900.3047"/>
    <line style="stroke: #A80036; stroke-width: 1.0; stroke-dasharray: 2.0,2.0;" x1="202.5" x2="202.5" y1="900.3047" y2="913.3047"/>
    <line style="stroke: #A80036; stroke-width: 1.0; stroke-dasharray: 2.0,2.0;" x1="155.5" x2="202.5" y1="913.3047" y2="913.3047"/>
    <polygon fill="#A80036" points="165.5,909.3047,155.5,913.3047,165.5,917.3047,161.5,913.3047" style="stroke: #A80036; stroke-width: 1.0;"/>
    <a href="" target="_top" title="" xlink:actuate="onRequest" xlink:href="" xlink:show="new" xlink:title="" xlink:type="simple">
      <polygon fill="#A80036" points="407,933.4375,417,937.4375,407,941.4375,411,937.4375" style="stroke: #A80036; stroke-width: 1.0;"/>
      <line style="stroke: #A80036; stroke-width: 1.0;" x1="155.5" x2="413" y1="937.4375" y2="937.4375"/>
      <text fill="#000000" font-family="sans-serif" font-size="13" lengthAdjust="spacingAndGlyphs" textLength="62" x="162.5" y="932.3716">LoadFile()</text>
    </a>
    <polygon fill="#A80036" points="166.5,947.4375,156.5,951.4375,166.5,955.4375,162.5,951.4375" style="stroke: #A80036; stroke-width: 1.0;"/>
    <line style="stroke: #A80036; stroke-width: 1.0; stroke-dasharray: 2.0,2.0;" x1="160.5" x2="423" y1="951.4375" y2="951.4375"/>
    <path d="M33,980.4375 L97,980.4375 L97,987.4375 L87,997.4375 L33,997.4375 L33,980.4375 " fill="#EEEEEE" style="stroke: #000000; stroke-width: 1.0;"/>
    <rect fill="none" height="212.7969" style="stroke: #000000; stroke-width: 2.0;" width="1707" x="33" y="980.4375"/>
    <text fill="#000000" font-family="sans-serif" font-size="13" font-weight="bold" lengthAdjust="spacingAndGlyphs" textLength="19" x="48" y="993.5044">alt</text>
    <text fill="#000000" font-family="sans-serif" font-size="11" font-weight="bold" lengthAdjust="spacingAndGlyphs" textLength="52" x="112" y="992.6479">[inherit]</text>
    <a href="" target="_top" title="" xlink:actuate="onRequest" xlink:href="" xlink:show="new" xlink:title="" xlink:type="simple">
      <polygon fill="#A80036" points="1364,1014.7031,1374,1018.7031,1364,1022.7031,1368,1018.7031" style="stroke: #A80036; stroke-width: 1.0;"/>
      <line style="stroke: #A80036; stroke-width: 1.0;" x1="155.5" x2="1370" y1="1018.7031" y2="1018.7031"/>
      <text fill="#000000" font-family="sans-serif" font-size="13" lengthAdjust="spacingAndGlyphs" textLength="50" x="162.5" y="1013.6372">inherit()</text>
    </a>
    <path d="M1305,1033.7031 L1382,1033.7031 L1382,1040.7031 L1372,1050.7031 L1305,1050.7031 L1305,1033.7031 " fill="#EEEEEE" style="stroke: #000000; stroke-width: 1.0;"/>
    <rect fill="none" height="152.5313" style="stroke: #000000; stroke-width: 2.0;" width="425" x="1305" y="1033.7031"/>
    <text fill="#000000" font-family="sans-serif" font-size="13" font-weight="bold" lengthAdjust="spacingAndGlyphs" textLength="32" x="1320" y="1046.77">loop</text>
    <text fill="#000000" font-family="sans-serif" font-size="11" font-weight="bold" lengthAdjust="spacingAndGlyphs" textLength="69" x="1397" y="1045.9136">[diagrams]</text>
    <a href="" target="_top" title="" xlink:actuate="onRequest" xlink:href="" xlink:show="new" xlink:title="" xlink:type="simple">
      <polygon fill="#A80036" points="1561.5,1067.9688,1571.5,1071.9688,1561.5,1075.9688,1565.5,1071.9688" style="stroke: #A80036; stroke-width: 1.0;"/>
      <line style="stroke: #A80036; stroke-width: 1.0;" x1="1386" x2="1567.5" y1="1071.9688" y2="1071.9688"/>
      <text fill="#000000" font-family="sans-serif" font-size="13" lengthAdjust="spacingAndGlyphs" textLength="50" x="1393" y="1066.9028">inherit()</text>
    </a>
    <path d="M1315,1116.9688 L1379,1116.9688 L1379,1123.9688 L1369,1133.9688 L1315,1133.9688 L1315,1116.9688 " fill="#EEEEEE" style="stroke: #000000; stroke-width: 1.0;"/>
    <rect fill="none" height="62.2656" style="stroke: #000000; stroke-width: 2.0;" width="405" x="1315" y="1116.9688"/>
    <text fill="#000000" font-family="sans-serif" font-size="13" font-weight="bold" lengthAdjust="spacingAndGlyphs" textLength="19" x="1330" y="1130.0356">alt</text>
    <text fill="#000000" font-family="sans-serif" font-size="11" font-weight="bold" lengthAdjust="spacingAndGlyphs" textLength="171" x="1394" y="1129.1792">[static_cast &lt;bool&gt; (expr)]</text>
    <a href="" target="_top" title="" xlink:actuate="onRequest" xlink:href="" xlink:show="new" xlink:title="" xlink:type="simple">
      <polygon fill="#A80036" points="1561.5,1151.2344,1571.5,1155.2344,1561.5,1159.2344,1565.5,1155.2344" style="stroke: #A80036; stroke-width: 1.0;"/>
      <line style="stroke: #A80036; stroke-width: 1.0;" x1="1386" x2="1567.5" y1="1155.2344" y2="1155.2344"/>
      <text fill="#000000" font-family="sans-serif" font-size="13" font-weight="bold" lengthAdjust="spacingAndGlyphs" textLength="6" x="1393" y="1150.1685">[</text>
      <text fill="#000000" font-family="sans-serif" font-size="13" lengthAdjust="spacingAndGlyphs" textLength="105" x="1399" y="1150.1685">get_relative_to()</text>
      <text fill="#000000" font-family="sans-serif" font-size="13" font-weight="bold" lengthAdjust="spacingAndGlyphs" textLength="6" x="1504" y="1150.1685">]</text>
    </a>
    <polygon fill="#A80036" points="1397,1165.2344,1387,1169.2344,1397,1173.2344,1393,1169.2344" style="stroke: #A80036; stroke-width: 1.0;"/>
    <line style="stroke: #A80036; stroke-width: 1.0; stroke-dasharray: 2.0,2.0;" x1="1391" x2="1577.5" y1="1169.2344" y2="1169.2344"/>
    <line style="stroke: #000000; stroke-width: 1.0; stroke-dasharray: 2.0,2.0;" x1="1315" x2="1720" y1="1178.2344" y2="1178.2344"/>
    <a href="" target="_top" title="" xlink:actuate="onRequest" xlink:href="" xlink:show="new" xlink:title="" xlink:type="simple">
      <polygon fill="#A80036" points="1364,1217.3672,1374,1221.3672,1364,1225.3672,1368,1221.3672" style="stroke: #A80036; stroke-width: 1.0;"/>
      <line style="stroke: #A80036; stroke-width: 1.0;" x1="155.5" x2="1370" y1="1221.3672" y2="1221.3672"/>
      <text fill="#000000" font-family="sans-serif" font-size="13" lengthAdjust="spacingAndGlyphs" textLength="193" x="162.5" y="1216.3013">initialize_diagram_templates()</text>
    </a>
    <a href="" target="_top" title="" xlink:actuate="onRequest" xlink:href="" xlink:show="new" xlink:title="" xlink:type="simple">
      <polygon fill="#A80036" points="1820.5,1246.5,1830.5,1250.5,1820.5,1254.5,1824.5,1250.5" style="stroke: #A80036; stroke-width: 1.0;"/>
      <line style="stroke: #A80036; stroke-width: 1.0;" x1="1386" x2="1826.5" y1="1250.5" y2="1250.5"/>
      <text fill="#000000" font-family="sans-serif" font-size="13" lengthAdjust="spacingAndGlyphs" textLength="238" x="1393" y="1245.4341">get_predefined_diagram_templates()</text>
    </a>
    <polygon fill="#A80036" points="1397,1260.5,1387,1264.5,1397,1268.5,1393,1264.5" style="stroke: #A80036; stroke-width: 1.0;"/>
    <line style="stroke: #A80036; stroke-width: 1.0; stroke-dasharray: 2.0,2.0;" x1="1391" x2="1836.5" y1="1264.5" y2="1264.5"/>
    <a href="" target="_top" title="" xlink:actuate="onRequest" xlink:href="" xlink:show="new" xlink:title="" xlink:type="simple">
      <polygon fill="#A80036" points="440,1289.6328,430,1293.6328,440,1297.6328,436,1293.6328" style="stroke: #A80036; stroke-width: 1.0;"/>
      <line style="stroke: #A80036; stroke-width: 1.0;" x1="434" x2="1375" y1="1293.6328" y2="1293.6328"/>
      <text fill="#000000" font-family="sans-serif" font-size="13" lengthAdjust="spacingAndGlyphs" textLength="41" x="446" y="1288.5669">Load()</text>
    </a>
    <polygon fill="#A80036" points="1369,1303.6328,1379,1307.6328,1369,1311.6328,1373,1307.6328" style="stroke: #A80036; stroke-width: 1.0;"/>
    <line style="stroke: #A80036; stroke-width: 1.0; stroke-dasharray: 2.0,2.0;" x1="424" x2="1375" y1="1307.6328" y2="1307.6328"/>
    <line style="stroke: #000000; stroke-width: 1.0; stroke-dasharray: 2.0,2.0;" x1="13" x2="1965" y1="1316.6328" y2="1316.6328"/>
    <text fill="#000000" font-family="sans-serif" font-size="11" font-weight="bold" lengthAdjust="spacingAndGlyphs" textLength="115" x="18" y="1326.8433">[YAML::BadFile &amp;]</text>
    <line style="stroke: #000000; stroke-width: 1.0; stroke-dasharray: 2.0,2.0;" x1="13" x2="1965" y1="1331.4375" y2="1331.4375"/>
    <text fill="#000000" font-family="sans-serif" font-size="11" font-weight="bold" lengthAdjust="spacingAndGlyphs" textLength="129" x="18" y="1341.6479">[YAML::Exception &amp;]</text>
    <polygon fill="#A80036" points="14,1354.2422,4,1358.2422,14,1362.2422,10,1358.2422" style="stroke: #A80036; stroke-width: 1.0;"/>
    <line style="stroke: #A80036; stroke-width: 1.0; stroke-dasharray: 2.0,2.0;" x1="8" x2="149.5" y1="1358.2422" y2="1358.2422"/>
  </g>
</svg>
