<svg xmlns="http://www.w3.org/2000/svg" xmlns:xlink="http://www.w3.org/1999/xlink" contentScriptType="application/ecmascript" contentStyleType="text/css" height="1375px" preserveAspectRatio="none" style="width:1866px;height:1375px;" version="1.1" viewBox="0 0 1866 1375" width="1866px" zoomAndPan="magnify">
  <defs>
    <filter height="300%" id="f151m2q0trn46i" width="300%" x="-1" y="-1">
      <feGaussianBlur result="blurOut" stdDeviation="2.0"/>
      <feColorMatrix in="blurOut" result="blurOut2" type="matrix" values="0 0 0 0 0 0 0 0 0 0 0 0 0 0 0 0 0 0 .4 0"/>
      <feOffset dx="4.0" dy="4.0" in="blurOut2" result="blurOut3"/>
      <feBlend in="SourceGraphic" in2="blurOut3" mode="normal"/>
    </filter>
    <style type="text/css">a:hover { text-decoration: underline; }</style>
  </defs>
  <g>
    <text fill="#000000" font-family="sans-serif" font-size="18" lengthAdjust="spacingAndGlyphs" textLength="390" x="738.5" y="26.708">Configuration file loading sequence diagram</text>
    <rect fill="#FFFFFF" filter="url(#f151m2q0trn46i)" height="1212.4609" style="stroke: #A80036; stroke-width: 1.0;" width="10" x="145.5" y="104.3828"/>
    <rect fill="#FFFFFF" filter="url(#f151m2q0trn46i)" height="25" style="stroke: #A80036; stroke-width: 1.0;" width="10" x="150.5" y="436.8438"/>
    <rect fill="#FFFFFF" filter="url(#f151m2q0trn46i)" height="28" style="stroke: #A80036; stroke-width: 1.0;" width="10" x="150.5" y="512.9766"/>
    <rect fill="#FFFFFF" filter="url(#f151m2q0trn46i)" height="28" style="stroke: #A80036; stroke-width: 1.0;" width="10" x="150.5" y="585.1094"/>
    <rect fill="#FFFFFF" filter="url(#f151m2q0trn46i)" height="25" style="stroke: #A80036; stroke-width: 1.0;" width="10" x="150.5" y="705.5078"/>
    <rect fill="#FFFFFF" filter="url(#f151m2q0trn46i)" height="14" style="stroke: #A80036; stroke-width: 1.0;" width="10" x="419" y="157.6484"/>
    <rect fill="#FFFFFF" filter="url(#f151m2q0trn46i)" height="14" style="stroke: #A80036; stroke-width: 1.0;" width="10" x="419" y="224.9141"/>
    <rect fill="#FFFFFF" filter="url(#f151m2q0trn46i)" height="14" style="stroke: #A80036; stroke-width: 1.0;" width="10" x="419" y="270.0469"/>
    <rect fill="#FFFFFF" filter="url(#f151m2q0trn46i)" height="14" style="stroke: #A80036; stroke-width: 1.0;" width="10" x="419" y="766.6406"/>
    <rect fill="#FFFFFF" filter="url(#f151m2q0trn46i)" height="14" style="stroke: #A80036; stroke-width: 1.0;" width="10" x="419" y="1252.2344"/>
    <rect fill="#FFFFFF" filter="url(#f151m2q0trn46i)" height="174.5313" style="stroke: #A80036; stroke-width: 1.0;" width="10" x="641" y="847.9063"/>
    <rect fill="#FFFFFF" filter="url(#f151m2q0trn46i)" height="215.6641" style="stroke: #A80036; stroke-width: 1.0;" width="10" x="641" y="1050.5703"/>
    <rect fill="#FFFFFF" filter="url(#f151m2q0trn46i)" height="30" style="stroke: #A80036; stroke-width: 1.0;" width="10" x="838.5" y="901.1719"/>
    <rect fill="#FFFFFF" filter="url(#f151m2q0trn46i)" height="14" style="stroke: #A80036; stroke-width: 1.0;" width="10" x="838.5" y="984.4375"/>
    <rect fill="#FFFFFF" filter="url(#f151m2q0trn46i)" height="143.3984" style="stroke: #A80036; stroke-width: 1.0;" width="10" x="1097.5" y="1079.7031"/>
    <rect fill="#FFFFFF" filter="url(#f151m2q0trn46i)" height="14" style="stroke: #A80036; stroke-width: 1.0;" width="10" x="1376.5" y="1108.8359"/>
    <rect fill="#FFFFFF" filter="url(#f151m2q0trn46i)" height="14" style="stroke: #A80036; stroke-width: 1.0;" width="10" x="1688.5" y="1151.9688"/>
    <rect fill="#FFFFFF" filter="url(#f151m2q0trn46i)" height="14" style="stroke: #A80036; stroke-width: 1.0;" width="10" x="1688.5" y="1195.1016"/>
    <rect fill="#FFFFFF" filter="url(#f151m2q0trn46i)" height="1184.4609" style="stroke: #000000; stroke-width: 2.0;" width="1841" x="13" y="119.3828"/>
    <rect fill="#FFFFFF" filter="url(#f151m2q0trn46i)" height="105.3984" style="stroke: #000000; stroke-width: 2.0;" width="557" x="33" y="186.6484"/>
    <rect fill="#FFFFFF" height="45.1328" style="stroke: none; stroke-width: 1.0;" width="557" x="33" y="246.9141"/>
    <rect fill="#FFFFFF" filter="url(#f151m2q0trn46i)" height="86.2656" style="stroke: #000000; stroke-width: 2.0;" width="287" x="33" y="390.5781"/>
    <rect fill="#FFFFFF" filter="url(#f151m2q0trn46i)" height="160.5313" style="stroke: #000000; stroke-width: 2.0;" width="577" x="23" y="635.1094"/>
    <rect fill="#FFFFFF" filter="url(#f151m2q0trn46i)" height="129.3984" style="stroke: #000000; stroke-width: 2.0;" width="557" x="33" y="659.2422"/>
    <rect fill="#FFFFFF" filter="url(#f151m2q0trn46i)" height="212.7969" style="stroke: #000000; stroke-width: 2.0;" width="972" x="33" y="809.6406"/>
    <rect fill="#FFFFFF" filter="url(#f151m2q0trn46i)" height="152.5313" style="stroke: #000000; stroke-width: 2.0;" width="425" x="570" y="862.9063"/>
    <rect fill="#FFFFFF" filter="url(#f151m2q0trn46i)" height="62.2656" style="stroke: #000000; stroke-width: 2.0;" width="405" x="580" y="946.1719"/>
    <rect fill="#FFFFFF" height="2" style="stroke: none; stroke-width: 1.0;" width="405" x="580" y="1006.4375"/>
    <rect fill="#FFFFFF" height="14.8047" style="stroke: none; stroke-width: 1.0;" width="1841" x="13" y="1274.2344"/>
    <rect fill="#FFFFFF" height="14.8047" style="stroke: none; stroke-width: 1.0;" width="1841" x="13" y="1289.0391"/>
    <line style="stroke: #A80036; stroke-width: 1.0; stroke-dasharray: 5.0,5.0;" x1="150" x2="150" y1="73.25" y2="1334.8438"/>
    <line style="stroke: #A80036; stroke-width: 1.0; stroke-dasharray: 5.0,5.0;" x1="424" x2="424" y1="73.25" y2="1334.8438"/>
    <line style="stroke: #A80036; stroke-width: 1.0; stroke-dasharray: 5.0,5.0;" x1="646" x2="646" y1="73.25" y2="1334.8438"/>
    <line style="stroke: #A80036; stroke-width: 1.0; stroke-dasharray: 5.0,5.0;" x1="843" x2="843" y1="73.25" y2="1334.8438"/>
    <line style="stroke: #A80036; stroke-width: 1.0; stroke-dasharray: 5.0,5.0;" x1="1102" x2="1102" y1="73.25" y2="1334.8438"/>
    <line style="stroke: #A80036; stroke-width: 1.0; stroke-dasharray: 5.0,5.0;" x1="1381" x2="1381" y1="73.25" y2="1334.8438"/>
    <line style="stroke: #A80036; stroke-width: 1.0; stroke-dasharray: 5.0,5.0;" x1="1693" x2="1693" y1="73.25" y2="1334.8438"/>
    <rect fill="#FEFECE" filter="url(#f151m2q0trn46i)" height="30.2969" style="stroke: #A80036; stroke-width: 1.5;" width="211" x="43" y="37.9531"/>
    <text fill="#000000" font-family="sans-serif" font-size="14" lengthAdjust="spacingAndGlyphs" textLength="197" x="50" y="57.9482">src/config/yaml_decoders.cc</text>
    <rect fill="#FEFECE" filter="url(#f151m2q0trn46i)" height="30.2969" style="stroke: #A80036; stroke-width: 1.5;" width="211" x="43" y="1333.8438"/>
    <text fill="#000000" font-family="sans-serif" font-size="14" lengthAdjust="spacingAndGlyphs" textLength="197" x="50" y="1353.8389">src/config/yaml_decoders.cc</text>
    <rect fill="#FEFECE" filter="url(#f151m2q0trn46i)" height="30.2969" style="stroke: #A80036; stroke-width: 1.5;" width="308" x="268" y="37.9531"/>
    <text fill="#000000" font-family="sans-serif" font-size="14" lengthAdjust="spacingAndGlyphs" textLength="294" x="275" y="57.9482">../../../../usr/include/yaml-cpp/node/parse.h</text>
    <rect fill="#FEFECE" filter="url(#f151m2q0trn46i)" height="30.2969" style="stroke: #A80036; stroke-width: 1.5;" width="308" x="268" y="1333.8438"/>
    <text fill="#000000" font-family="sans-serif" font-size="14" lengthAdjust="spacingAndGlyphs" textLength="294" x="275" y="1353.8389">../../../../usr/include/yaml-cpp/node/parse.h</text>
    <a href="" target="_top" title="Represents entire configuration file" xlink:actuate="onRequest" xlink:href="" xlink:show="new" xlink:title="Represents entire configuration file" xlink:type="simple">
      <rect fill="#FEFECE" filter="url(#f151m2q0trn46i)" height="30.2969" style="stroke: #A80036; stroke-width: 1.5;" width="108" x="590" y="37.9531"/>
      <text fill="#000000" font-family="sans-serif" font-size="14" lengthAdjust="spacingAndGlyphs" textLength="94" x="597" y="57.9482">config::config</text>
      <rect fill="#FEFECE" filter="url(#f151m2q0trn46i)" height="30.2969" style="stroke: #A80036; stroke-width: 1.5;" width="108" x="590" y="1333.8438"/>
      <text fill="#000000" font-family="sans-serif" font-size="14" lengthAdjust="spacingAndGlyphs" textLength="94" x="597" y="1353.8389">config::config</text>
    </a>
    <a href="" target="_top" title="Represents subset of inheritable configuration options" xlink:actuate="onRequest" xlink:href="" xlink:show="new" xlink:title="Represents subset of inheritable configuration options" xlink:type="simple">
      <rect fill="#FEFECE" filter="url(#f151m2q0trn46i)" height="30.2969" style="stroke: #A80036; stroke-width: 1.5;" width="259" x="712" y="37.9531"/>
      <text fill="#000000" font-family="sans-serif" font-size="14" lengthAdjust="spacingAndGlyphs" textLength="245" x="719" y="57.9482">config::inheritable_diagram_options</text>
      <rect fill="#FEFECE" filter="url(#f151m2q0trn46i)" height="30.2969" style="stroke: #A80036; stroke-width: 1.5;" width="259" x="712" y="1333.8438"/>
      <text fill="#000000" font-family="sans-serif" font-size="14" lengthAdjust="spacingAndGlyphs" textLength="245" x="719" y="1353.8389">config::inheritable_diagram_options</text>
    </a>
    <rect fill="#FEFECE" filter="url(#f151m2q0trn46i)" height="30.2969" style="stroke: #A80036; stroke-width: 1.5;" width="231" x="985" y="37.9531"/>
    <text fill="#000000" font-family="sans-serif" font-size="14" lengthAdjust="spacingAndGlyphs" textLength="217" x="992" y="57.9482">src/config/diagram_templates.h</text>
    <rect fill="#FEFECE" filter="url(#f151m2q0trn46i)" height="30.2969" style="stroke: #A80036; stroke-width: 1.5;" width="231" x="985" y="1333.8438"/>
    <text fill="#000000" font-family="sans-serif" font-size="14" lengthAdjust="spacingAndGlyphs" textLength="217" x="992" y="1353.8389">src/config/diagram_templates.h</text>
    <rect fill="#FEFECE" filter="url(#f151m2q0trn46i)" height="30.2969" style="stroke: #A80036; stroke-width: 1.5;" width="299" x="1230" y="37.9531"/>
    <text fill="#000000" font-family="sans-serif" font-size="14" lengthAdjust="spacingAndGlyphs" textLength="285" x="1237" y="57.9482">../../../../usr/include/yaml-cpp/node/emit.h</text>
    <rect fill="#FEFECE" filter="url(#f151m2q0trn46i)" height="30.2969" style="stroke: #A80036; stroke-width: 1.5;" width="299" x="1230" y="1333.8438"/>
    <text fill="#000000" font-family="sans-serif" font-size="14" lengthAdjust="spacingAndGlyphs" textLength="285" x="1237" y="1353.8389">../../../../usr/include/yaml-cpp/node/emit.h</text>
    <rect fill="#FEFECE" filter="url(#f151m2q0trn46i)" height="30.2969" style="stroke: #A80036; stroke-width: 1.5;" width="297" x="1543" y="37.9531"/>
    <text fill="#000000" font-family="sans-serif" font-size="14" lengthAdjust="spacingAndGlyphs" textLength="283" x="1550" y="57.9482">../../../../usr/include/yaml-cpp/node/impl.h</text>
    <rect fill="#FEFECE" filter="url(#f151m2q0trn46i)" height="30.2969" style="stroke: #A80036; stroke-width: 1.5;" width="297" x="1543" y="1333.8438"/>
    <text fill="#000000" font-family="sans-serif" font-size="14" lengthAdjust="spacingAndGlyphs" textLength="283" x="1550" y="1353.8389">../../../../usr/include/yaml-cpp/node/impl.h</text>
    <rect fill="#FFFFFF" filter="url(#f151m2q0trn46i)" height="1212.4609" style="stroke: #A80036; stroke-width: 1.0;" width="10" x="145.5" y="104.3828"/>
    <rect fill="#FFFFFF" filter="url(#f151m2q0trn46i)" height="25" style="stroke: #A80036; stroke-width: 1.0;" width="10" x="150.5" y="436.8438"/>
    <rect fill="#FFFFFF" filter="url(#f151m2q0trn46i)" height="28" style="stroke: #A80036; stroke-width: 1.0;" width="10" x="150.5" y="512.9766"/>
    <rect fill="#FFFFFF" filter="url(#f151m2q0trn46i)" height="28" style="stroke: #A80036; stroke-width: 1.0;" width="10" x="150.5" y="585.1094"/>
    <rect fill="#FFFFFF" filter="url(#f151m2q0trn46i)" height="25" style="stroke: #A80036; stroke-width: 1.0;" width="10" x="150.5" y="705.5078"/>
    <rect fill="#FFFFFF" filter="url(#f151m2q0trn46i)" height="14" style="stroke: #A80036; stroke-width: 1.0;" width="10" x="419" y="157.6484"/>
    <rect fill="#FFFFFF" filter="url(#f151m2q0trn46i)" height="14" style="stroke: #A80036; stroke-width: 1.0;" width="10" x="419" y="224.9141"/>
    <rect fill="#FFFFFF" filter="url(#f151m2q0trn46i)" height="14" style="stroke: #A80036; stroke-width: 1.0;" width="10" x="419" y="270.0469"/>
    <rect fill="#FFFFFF" filter="url(#f151m2q0trn46i)" height="14" style="stroke: #A80036; stroke-width: 1.0;" width="10" x="419" y="766.6406"/>
    <rect fill="#FFFFFF" filter="url(#f151m2q0trn46i)" height="14" style="stroke: #A80036; stroke-width: 1.0;" width="10" x="419" y="1252.2344"/>
    <rect fill="#FFFFFF" filter="url(#f151m2q0trn46i)" height="174.5313" style="stroke: #A80036; stroke-width: 1.0;" width="10" x="641" y="847.9063"/>
    <rect fill="#FFFFFF" filter="url(#f151m2q0trn46i)" height="215.6641" style="stroke: #A80036; stroke-width: 1.0;" width="10" x="641" y="1050.5703"/>
    <rect fill="#FFFFFF" filter="url(#f151m2q0trn46i)" height="30" style="stroke: #A80036; stroke-width: 1.0;" width="10" x="838.5" y="901.1719"/>
    <rect fill="#FFFFFF" filter="url(#f151m2q0trn46i)" height="14" style="stroke: #A80036; stroke-width: 1.0;" width="10" x="838.5" y="984.4375"/>
    <rect fill="#FFFFFF" filter="url(#f151m2q0trn46i)" height="143.3984" style="stroke: #A80036; stroke-width: 1.0;" width="10" x="1097.5" y="1079.7031"/>
    <rect fill="#FFFFFF" filter="url(#f151m2q0trn46i)" height="14" style="stroke: #A80036; stroke-width: 1.0;" width="10" x="1376.5" y="1108.8359"/>
    <rect fill="#FFFFFF" filter="url(#f151m2q0trn46i)" height="14" style="stroke: #A80036; stroke-width: 1.0;" width="10" x="1688.5" y="1151.9688"/>
    <rect fill="#FFFFFF" filter="url(#f151m2q0trn46i)" height="14" style="stroke: #A80036; stroke-width: 1.0;" width="10" x="1688.5" y="1195.1016"/>
    <polygon fill="#A80036" points="133.5,100.3828,143.5,104.3828,133.5,108.3828,137.5,104.3828" style="stroke: #A80036; stroke-width: 1.0;"/>
    <line style="stroke: #A80036; stroke-width: 1.0;" x1="3" x2="139.5" y1="104.3828" y2="104.3828"/>
    <text fill="#000000" font-family="sans-serif" font-size="13" lengthAdjust="spacingAndGlyphs" textLength="37" x="10" y="99.3169">load()</text>
    <path d="M13,119.3828 L78,119.3828 L78,126.3828 L68,136.3828 L13,136.3828 L13,119.3828 " fill="#EEEEEE" style="stroke: #000000; stroke-width: 1.0;"/>
    <rect fill="none" height="1184.4609" style="stroke: #000000; stroke-width: 2.0;" width="1841" x="13" y="119.3828"/>
    <text fill="#000000" font-family="sans-serif" font-size="13" font-weight="bold" lengthAdjust="spacingAndGlyphs" textLength="20" x="28" y="132.4497">try</text>
    <a href="" target="_top" title="" xlink:actuate="onRequest" xlink:href="" xlink:show="new" xlink:title="" xlink:type="simple">
      <polygon fill="#A80036" points="407,153.6484,417,157.6484,407,161.6484,411,157.6484" style="stroke: #A80036; stroke-width: 1.0;"/>
      <line style="stroke: #A80036; stroke-width: 1.0;" x1="155.5" x2="413" y1="157.6484" y2="157.6484"/>
      <text fill="#000000" font-family="sans-serif" font-size="13" lengthAdjust="spacingAndGlyphs" textLength="41" x="162.5" y="152.5825">Load()</text>
    </a>
    <polygon fill="#A80036" points="166.5,167.6484,156.5,171.6484,166.5,175.6484,162.5,171.6484" style="stroke: #A80036; stroke-width: 1.0;"/>
    <line style="stroke: #A80036; stroke-width: 1.0; stroke-dasharray: 2.0,2.0;" x1="160.5" x2="423" y1="171.6484" y2="171.6484"/>
    <path d="M33,186.6484 L97,186.6484 L97,193.6484 L87,203.6484 L33,203.6484 L33,186.6484 " fill="#EEEEEE" style="stroke: #000000; stroke-width: 1.0;"/>
    <rect fill="none" height="105.3984" style="stroke: #000000; stroke-width: 2.0;" width="557" x="33" y="186.6484"/>
    <text fill="#000000" font-family="sans-serif" font-size="13" font-weight="bold" lengthAdjust="spacingAndGlyphs" textLength="19" x="48" y="199.7153">alt</text>
    <text fill="#000000" font-family="sans-serif" font-size="11" font-weight="bold" lengthAdjust="spacingAndGlyphs" textLength="120" x="112" y="198.8589">[config_file == "-"]</text>
    <a href="" target="_top" title="" xlink:actuate="onRequest" xlink:href="" xlink:show="new" xlink:title="" xlink:type="simple">
      <polygon fill="#A80036" points="407,220.9141,417,224.9141,407,228.9141,411,224.9141" style="stroke: #A80036; stroke-width: 1.0;"/>
      <line style="stroke: #A80036; stroke-width: 1.0;" x1="155.5" x2="413" y1="224.9141" y2="224.9141"/>
      <text fill="#000000" font-family="sans-serif" font-size="13" lengthAdjust="spacingAndGlyphs" textLength="41" x="162.5" y="219.8481">Load()</text>
    </a>
    <polygon fill="#A80036" points="166.5,234.9141,156.5,238.9141,166.5,242.9141,162.5,238.9141" style="stroke: #A80036; stroke-width: 1.0;"/>
    <line style="stroke: #A80036; stroke-width: 1.0; stroke-dasharray: 2.0,2.0;" x1="160.5" x2="423" y1="238.9141" y2="238.9141"/>
    <line style="stroke: #000000; stroke-width: 1.0; stroke-dasharray: 2.0,2.0;" x1="33" x2="590" y1="247.9141" y2="247.9141"/>
    <a href="" target="_top" title="" xlink:actuate="onRequest" xlink:href="" xlink:show="new" xlink:title="" xlink:type="simple">
      <polygon fill="#A80036" points="407,266.0469,417,270.0469,407,274.0469,411,270.0469" style="stroke: #A80036; stroke-width: 1.0;"/>
      <line style="stroke: #A80036; stroke-width: 1.0;" x1="155.5" x2="413" y1="270.0469" y2="270.0469"/>
      <text fill="#000000" font-family="sans-serif" font-size="13" lengthAdjust="spacingAndGlyphs" textLength="62" x="162.5" y="264.981">LoadFile()</text>
    </a>
    <polygon fill="#A80036" points="166.5,280.0469,156.5,284.0469,166.5,288.0469,162.5,284.0469" style="stroke: #A80036; stroke-width: 1.0;"/>
    <line style="stroke: #A80036; stroke-width: 1.0; stroke-dasharray: 2.0,2.0;" x1="160.5" x2="423" y1="284.0469" y2="284.0469"/>
    <path d="M57,304.0469 L57,374.0469 L239,374.0469 L239,314.0469 L229,304.0469 L57,304.0469 " fill="#FBFB77" filter="url(#f151m2q0trn46i)" style="stroke: #A80036; stroke-width: 1.0;"/>
    <path d="M229,304.0469 L229,314.0469 L239,314.0469 L229,304.0469 " fill="#FBFB77" style="stroke: #A80036; stroke-width: 1.0;"/>
    <text fill="#000000" font-family="sans-serif" font-size="13" lengthAdjust="spacingAndGlyphs" textLength="155" x="63" y="321.1138">Store the parent path of</text>
    <text fill="#000000" font-family="sans-serif" font-size="13" lengthAdjust="spacingAndGlyphs" textLength="161" x="63" y="336.2466">the config_file to properly</text>
    <text fill="#000000" font-family="sans-serif" font-size="13" lengthAdjust="spacingAndGlyphs" textLength="152" x="63" y="351.3794">resolve relative paths in</text>
    <text fill="#000000" font-family="sans-serif" font-size="13" lengthAdjust="spacingAndGlyphs" textLength="60" x="63" y="366.5122">config file</text>
    <path d="M33,390.5781 L97,390.5781 L97,397.5781 L87,407.5781 L33,407.5781 L33,390.5781 " fill="#EEEEEE" style="stroke: #000000; stroke-width: 1.0;"/>
    <rect fill="none" height="86.2656" style="stroke: #000000; stroke-width: 2.0;" width="287" x="33" y="390.5781"/>
    <text fill="#000000" font-family="sans-serif" font-size="13" font-weight="bold" lengthAdjust="spacingAndGlyphs" textLength="19" x="48" y="403.645">alt</text>
    <text fill="#000000" font-family="sans-serif" font-size="11" font-weight="bold" lengthAdjust="spacingAndGlyphs" textLength="203" x="112" y="402.7886">[has_key(doc, "__parent_path")]</text>
    <a href="" target="_top" title="" xlink:actuate="onRequest" xlink:href="" xlink:show="new" xlink:title="" xlink:type="simple">
      <line style="stroke: #A80036; stroke-width: 1.0;" x1="155.5" x2="202.5" y1="423.8438" y2="423.8438"/>
      <line style="stroke: #A80036; stroke-width: 1.0;" x1="202.5" x2="202.5" y1="423.8438" y2="436.8438"/>
      <line style="stroke: #A80036; stroke-width: 1.0;" x1="161.5" x2="202.5" y1="436.8438" y2="436.8438"/>
      <polygon fill="#A80036" points="171.5,432.8438,161.5,436.8438,171.5,440.8438,167.5,436.8438" style="stroke: #A80036; stroke-width: 1.0;"/>
      <text fill="#000000" font-family="sans-serif" font-size="13" font-weight="bold" lengthAdjust="spacingAndGlyphs" textLength="6" x="167.5" y="418.7778">[</text>
      <text fill="#000000" font-family="sans-serif" font-size="13" lengthAdjust="spacingAndGlyphs" textLength="62" x="173.5" y="418.7778">has_key()</text>
      <text fill="#000000" font-family="sans-serif" font-size="13" font-weight="bold" lengthAdjust="spacingAndGlyphs" textLength="6" x="235.5" y="418.7778">]</text>
    </a>
    <line style="stroke: #A80036; stroke-width: 1.0; stroke-dasharray: 2.0,2.0;" x1="160.5" x2="202.5" y1="460.8438" y2="460.8438"/>
    <line style="stroke: #A80036; stroke-width: 1.0; stroke-dasharray: 2.0,2.0;" x1="202.5" x2="202.5" y1="460.8438" y2="473.8438"/>
    <line style="stroke: #A80036; stroke-width: 1.0; stroke-dasharray: 2.0,2.0;" x1="155.5" x2="202.5" y1="473.8438" y2="473.8438"/>
    <polygon fill="#A80036" points="165.5,469.8438,155.5,473.8438,165.5,477.8438,161.5,473.8438" style="stroke: #A80036; stroke-width: 1.0;"/>
    <a href="" target="_top" title="" xlink:actuate="onRequest" xlink:href="" xlink:show="new" xlink:title="" xlink:type="simple">
      <line style="stroke: #A80036; stroke-width: 1.0;" x1="160.5" x2="202.5" y1="504.9766" y2="504.9766"/>
      <line style="stroke: #A80036; stroke-width: 1.0;" x1="202.5" x2="202.5" y1="504.9766" y2="517.9766"/>
      <line style="stroke: #A80036; stroke-width: 1.0;" x1="161.5" x2="202.5" y1="517.9766" y2="517.9766"/>
      <polygon fill="#A80036" points="171.5,513.9766,161.5,517.9766,171.5,521.9766,167.5,517.9766" style="stroke: #A80036; stroke-width: 1.0;"/>
      <text fill="#000000" font-family="sans-serif" font-size="13" lengthAdjust="spacingAndGlyphs" textLength="139" x="167.5" y="499.9106">resolve_option_path()</text>
    </a>
    <a href="" target="_top" title="" xlink:actuate="onRequest" xlink:href="" xlink:show="new" xlink:title="" xlink:type="simple">
      <line style="stroke: #A80036; stroke-width: 1.0;" x1="160.5" x2="202.5" y1="577.1094" y2="577.1094"/>
      <line style="stroke: #A80036; stroke-width: 1.0;" x1="202.5" x2="202.5" y1="577.1094" y2="590.1094"/>
      <line style="stroke: #A80036; stroke-width: 1.0;" x1="161.5" x2="202.5" y1="590.1094" y2="590.1094"/>
      <polygon fill="#A80036" points="171.5,586.1094,161.5,590.1094,171.5,594.1094,167.5,590.1094" style="stroke: #A80036; stroke-width: 1.0;"/>
      <text fill="#000000" font-family="sans-serif" font-size="13" lengthAdjust="spacingAndGlyphs" textLength="139" x="167.5" y="572.0435">resolve_option_path()</text>
    </a>
    <path d="M23,635.1094 L100,635.1094 L100,642.1094 L90,652.1094 L23,652.1094 L23,635.1094 " fill="#EEEEEE" style="stroke: #000000; stroke-width: 1.0;"/>
    <rect fill="none" height="160.5313" style="stroke: #000000; stroke-width: 2.0;" width="577" x="23" y="635.1094"/>
    <text fill="#000000" font-family="sans-serif" font-size="13" font-weight="bold" lengthAdjust="spacingAndGlyphs" textLength="32" x="38" y="648.1763">loop</text>
    <text fill="#000000" font-family="sans-serif" font-size="11" font-weight="bold" lengthAdjust="spacingAndGlyphs" textLength="69" x="115" y="647.3198">[diagrams]</text>
    <path d="M33,659.2422 L97,659.2422 L97,666.2422 L87,676.2422 L33,676.2422 L33,659.2422 " fill="#EEEEEE" style="stroke: #000000; stroke-width: 1.0;"/>
    <rect fill="none" height="129.3984" style="stroke: #000000; stroke-width: 2.0;" width="557" x="33" y="659.2422"/>
    <text fill="#000000" font-family="sans-serif" font-size="13" font-weight="bold" lengthAdjust="spacingAndGlyphs" textLength="19" x="48" y="672.3091">alt</text>
    <text fill="#000000" font-family="sans-serif" font-size="11" font-weight="bold" lengthAdjust="spacingAndGlyphs" textLength="201" x="112" y="671.4526">[has_key(d.second, "include!")]</text>
    <a href="" target="_top" title="" xlink:actuate="onRequest" xlink:href="" xlink:show="new" xlink:title="" xlink:type="simple">
      <line style="stroke: #A80036; stroke-width: 1.0;" x1="155.5" x2="202.5" y1="692.5078" y2="692.5078"/>
      <line style="stroke: #A80036; stroke-width: 1.0;" x1="202.5" x2="202.5" y1="692.5078" y2="705.5078"/>
      <line style="stroke: #A80036; stroke-width: 1.0;" x1="161.5" x2="202.5" y1="705.5078" y2="705.5078"/>
      <polygon fill="#A80036" points="171.5,701.5078,161.5,705.5078,171.5,709.5078,167.5,705.5078" style="stroke: #A80036; stroke-width: 1.0;"/>
      <text fill="#000000" font-family="sans-serif" font-size="13" font-weight="bold" lengthAdjust="spacingAndGlyphs" textLength="6" x="167.5" y="687.4419">[</text>
      <text fill="#000000" font-family="sans-serif" font-size="13" lengthAdjust="spacingAndGlyphs" textLength="62" x="173.5" y="687.4419">has_key()</text>
      <text fill="#000000" font-family="sans-serif" font-size="13" font-weight="bold" lengthAdjust="spacingAndGlyphs" textLength="6" x="235.5" y="687.4419">]</text>
    </a>
    <line style="stroke: #A80036; stroke-width: 1.0; stroke-dasharray: 2.0,2.0;" x1="160.5" x2="202.5" y1="729.5078" y2="729.5078"/>
    <line style="stroke: #A80036; stroke-width: 1.0; stroke-dasharray: 2.0,2.0;" x1="202.5" x2="202.5" y1="729.5078" y2="742.5078"/>
    <line style="stroke: #A80036; stroke-width: 1.0; stroke-dasharray: 2.0,2.0;" x1="155.5" x2="202.5" y1="742.5078" y2="742.5078"/>
    <polygon fill="#A80036" points="165.5,738.5078,155.5,742.5078,165.5,746.5078,161.5,742.5078" style="stroke: #A80036; stroke-width: 1.0;"/>
    <a href="" target="_top" title="" xlink:actuate="onRequest" xlink:href="" xlink:show="new" xlink:title="" xlink:type="simple">
      <polygon fill="#A80036" points="407,762.6406,417,766.6406,407,770.6406,411,766.6406" style="stroke: #A80036; stroke-width: 1.0;"/>
      <line style="stroke: #A80036; stroke-width: 1.0;" x1="155.5" x2="413" y1="766.6406" y2="766.6406"/>
      <text fill="#000000" font-family="sans-serif" font-size="13" lengthAdjust="spacingAndGlyphs" textLength="62" x="162.5" y="761.5747">LoadFile()</text>
    </a>
    <polygon fill="#A80036" points="166.5,776.6406,156.5,780.6406,166.5,784.6406,162.5,780.6406" style="stroke: #A80036; stroke-width: 1.0;"/>
    <line style="stroke: #A80036; stroke-width: 1.0; stroke-dasharray: 2.0,2.0;" x1="160.5" x2="423" y1="780.6406" y2="780.6406"/>
    <path d="M33,809.6406 L97,809.6406 L97,816.6406 L87,826.6406 L33,826.6406 L33,809.6406 " fill="#EEEEEE" style="stroke: #000000; stroke-width: 1.0;"/>
    <rect fill="none" height="212.7969" style="stroke: #000000; stroke-width: 2.0;" width="972" x="33" y="809.6406"/>
    <text fill="#000000" font-family="sans-serif" font-size="13" font-weight="bold" lengthAdjust="spacingAndGlyphs" textLength="19" x="48" y="822.7075">alt</text>
    <text fill="#000000" font-family="sans-serif" font-size="11" font-weight="bold" lengthAdjust="spacingAndGlyphs" textLength="52" x="112" y="821.8511">[inherit]</text>
    <a href="" target="_top" title="" xlink:actuate="onRequest" xlink:href="" xlink:show="new" xlink:title="" xlink:type="simple">
      <polygon fill="#A80036" points="629,843.9063,639,847.9063,629,851.9063,633,847.9063" style="stroke: #A80036; stroke-width: 1.0;"/>
      <line style="stroke: #A80036; stroke-width: 1.0;" x1="155.5" x2="635" y1="847.9063" y2="847.9063"/>
      <text fill="#000000" font-family="sans-serif" font-size="13" lengthAdjust="spacingAndGlyphs" textLength="50" x="162.5" y="842.8403">inherit()</text>
    </a>
    <path d="M570,862.9063 L647,862.9063 L647,869.9063 L637,879.9063 L570,879.9063 L570,862.9063 " fill="#EEEEEE" style="stroke: #000000; stroke-width: 1.0;"/>
    <rect fill="none" height="152.5313" style="stroke: #000000; stroke-width: 2.0;" width="425" x="570" y="862.9063"/>
    <text fill="#000000" font-family="sans-serif" font-size="13" font-weight="bold" lengthAdjust="spacingAndGlyphs" textLength="32" x="585" y="875.9731">loop</text>
    <text fill="#000000" font-family="sans-serif" font-size="11" font-weight="bold" lengthAdjust="spacingAndGlyphs" textLength="69" x="662" y="875.1167">[diagrams]</text>
    <a href="" target="_top" title="" xlink:actuate="onRequest" xlink:href="" xlink:show="new" xlink:title="" xlink:type="simple">
      <polygon fill="#A80036" points="826.5,897.1719,836.5,901.1719,826.5,905.1719,830.5,901.1719" style="stroke: #A80036; stroke-width: 1.0;"/>
      <line style="stroke: #A80036; stroke-width: 1.0;" x1="651" x2="832.5" y1="901.1719" y2="901.1719"/>
      <text fill="#000000" font-family="sans-serif" font-size="13" lengthAdjust="spacingAndGlyphs" textLength="50" x="658" y="896.106">inherit()</text>
    </a>
    <path d="M580,946.1719 L644,946.1719 L644,953.1719 L634,963.1719 L580,963.1719 L580,946.1719 " fill="#EEEEEE" style="stroke: #000000; stroke-width: 1.0;"/>
    <rect fill="none" height="62.2656" style="stroke: #000000; stroke-width: 2.0;" width="405" x="580" y="946.1719"/>
    <text fill="#000000" font-family="sans-serif" font-size="13" font-weight="bold" lengthAdjust="spacingAndGlyphs" textLength="19" x="595" y="959.2388">alt</text>
    <text fill="#000000" font-family="sans-serif" font-size="11" font-weight="bold" lengthAdjust="spacingAndGlyphs" textLength="171" x="659" y="958.3823">[static_cast &lt;bool&gt; (expr)]</text>
    <a href="" target="_top" title="" xlink:actuate="onRequest" xlink:href="" xlink:show="new" xlink:title="" xlink:type="simple">
      <polygon fill="#A80036" points="826.5,980.4375,836.5,984.4375,826.5,988.4375,830.5,984.4375" style="stroke: #A80036; stroke-width: 1.0;"/>
      <line style="stroke: #A80036; stroke-width: 1.0;" x1="651" x2="832.5" y1="984.4375" y2="984.4375"/>
      <text fill="#000000" font-family="sans-serif" font-size="13" font-weight="bold" lengthAdjust="spacingAndGlyphs" textLength="6" x="658" y="979.3716">[</text>
      <text fill="#000000" font-family="sans-serif" font-size="13" lengthAdjust="spacingAndGlyphs" textLength="105" x="664" y="979.3716">get_relative_to()</text>
      <text fill="#000000" font-family="sans-serif" font-size="13" font-weight="bold" lengthAdjust="spacingAndGlyphs" textLength="6" x="769" y="979.3716">]</text>
    </a>
    <polygon fill="#A80036" points="662,994.4375,652,998.4375,662,1002.4375,658,998.4375" style="stroke: #A80036; stroke-width: 1.0;"/>
    <line style="stroke: #A80036; stroke-width: 1.0; stroke-dasharray: 2.0,2.0;" x1="656" x2="842.5" y1="998.4375" y2="998.4375"/>
    <line style="stroke: #000000; stroke-width: 1.0; stroke-dasharray: 2.0,2.0;" x1="580" x2="985" y1="1007.4375" y2="1007.4375"/>
    <a href="" target="_top" title="" xlink:actuate="onRequest" xlink:href="" xlink:show="new" xlink:title="" xlink:type="simple">
      <polygon fill="#A80036" points="629,1046.5703,639,1050.5703,629,1054.5703,633,1050.5703" style="stroke: #A80036; stroke-width: 1.0;"/>
      <line style="stroke: #A80036; stroke-width: 1.0;" x1="155.5" x2="635" y1="1050.5703" y2="1050.5703"/>
      <text fill="#000000" font-family="sans-serif" font-size="13" lengthAdjust="spacingAndGlyphs" textLength="193" x="162.5" y="1045.5044">initialize_diagram_templates()</text>
    </a>
    <a href="" target="_top" title="" xlink:actuate="onRequest" xlink:href="" xlink:show="new" xlink:title="" xlink:type="simple">
      <polygon fill="#A80036" points="1085.5,1075.7031,1095.5,1079.7031,1085.5,1083.7031,1089.5,1079.7031" style="stroke: #A80036; stroke-width: 1.0;"/>
      <line style="stroke: #A80036; stroke-width: 1.0;" x1="651" x2="1091.5" y1="1079.7031" y2="1079.7031"/>
      <text fill="#000000" font-family="sans-serif" font-size="13" lengthAdjust="spacingAndGlyphs" textLength="238" x="658" y="1074.6372">get_predefined_diagram_templates()</text>
    </a>
    <a href="" target="_top" title="" xlink:actuate="onRequest" xlink:href="" xlink:show="new" xlink:title="" xlink:type="simple">
      <polygon fill="#A80036" points="1364.5,1104.8359,1374.5,1108.8359,1364.5,1112.8359,1368.5,1108.8359" style="stroke: #A80036; stroke-width: 1.0;"/>
      <line style="stroke: #A80036; stroke-width: 1.0;" x1="1107.5" x2="1370.5" y1="1108.8359" y2="1108.8359"/>
      <text fill="#000000" font-family="sans-serif" font-size="13" lengthAdjust="spacingAndGlyphs" textLength="87" x="1114.5" y="1103.77">operator&lt;&lt;()</text>
    </a>
    <polygon fill="#A80036" points="1118.5,1118.8359,1108.5,1122.8359,1118.5,1126.8359,1114.5,1122.8359" style="stroke: #A80036; stroke-width: 1.0;"/>
    <line style="stroke: #A80036; stroke-width: 1.0; stroke-dasharray: 2.0,2.0;" x1="1112.5" x2="1380.5" y1="1122.8359" y2="1122.8359"/>
    <a href="" target="_top" title="" xlink:actuate="onRequest" xlink:href="" xlink:show="new" xlink:title="" xlink:type="simple">
      <polygon fill="#A80036" points="1676.5,1147.9688,1686.5,1151.9688,1676.5,1155.9688,1680.5,1151.9688" style="stroke: #A80036; stroke-width: 1.0;"/>
      <line style="stroke: #A80036; stroke-width: 1.0;" x1="1107.5" x2="1682.5" y1="1151.9688" y2="1151.9688"/>
      <text fill="#000000" font-family="sans-serif" font-size="13" lengthAdjust="spacingAndGlyphs" textLength="87" x="1114.5" y="1146.9028">operator==()</text>
    </a>
    <polygon fill="#A80036" points="1118.5,1161.9688,1108.5,1165.9688,1118.5,1169.9688,1114.5,1165.9688" style="stroke: #A80036; stroke-width: 1.0;"/>
    <line style="stroke: #A80036; stroke-width: 1.0; stroke-dasharray: 2.0,2.0;" x1="1112.5" x2="1692.5" y1="1165.9688" y2="1165.9688"/>
    <a href="" target="_top" title="" xlink:actuate="onRequest" xlink:href="" xlink:show="new" xlink:title="" xlink:type="simple">
      <polygon fill="#A80036" points="1676.5,1191.1016,1686.5,1195.1016,1676.5,1199.1016,1680.5,1195.1016" style="stroke: #A80036; stroke-width: 1.0;"/>
      <line style="stroke: #A80036; stroke-width: 1.0;" x1="1107.5" x2="1682.5" y1="1195.1016" y2="1195.1016"/>
      <text fill="#000000" font-family="sans-serif" font-size="13" lengthAdjust="spacingAndGlyphs" textLength="87" x="1114.5" y="1190.0356">operator==()</text>
    </a>
    <polygon fill="#A80036" points="1118.5,1205.1016,1108.5,1209.1016,1118.5,1213.1016,1114.5,1209.1016" style="stroke: #A80036; stroke-width: 1.0;"/>
    <line style="stroke: #A80036; stroke-width: 1.0; stroke-dasharray: 2.0,2.0;" x1="1112.5" x2="1692.5" y1="1209.1016" y2="1209.1016"/>
    <polygon fill="#A80036" points="662,1219.1016,652,1223.1016,662,1227.1016,658,1223.1016" style="stroke: #A80036; stroke-width: 1.0;"/>
    <line style="stroke: #A80036; stroke-width: 1.0; stroke-dasharray: 2.0,2.0;" x1="656" x2="1101.5" y1="1223.1016" y2="1223.1016"/>
    <a href="" target="_top" title="" xlink:actuate="onRequest" xlink:href="" xlink:show="new" xlink:title="" xlink:type="simple">
      <polygon fill="#A80036" points="440,1248.2344,430,1252.2344,440,1256.2344,436,1252.2344" style="stroke: #A80036; stroke-width: 1.0;"/>
      <line style="stroke: #A80036; stroke-width: 1.0;" x1="434" x2="640" y1="1252.2344" y2="1252.2344"/>
      <text fill="#000000" font-family="sans-serif" font-size="13" lengthAdjust="spacingAndGlyphs" textLength="41" x="446" y="1247.1685">Load()</text>
    </a>
    <polygon fill="#A80036" points="634,1262.2344,644,1266.2344,634,1270.2344,638,1266.2344" style="stroke: #A80036; stroke-width: 1.0;"/>
    <line style="stroke: #A80036; stroke-width: 1.0; stroke-dasharray: 2.0,2.0;" x1="424" x2="640" y1="1266.2344" y2="1266.2344"/>
    <line style="stroke: #000000; stroke-width: 1.0; stroke-dasharray: 2.0,2.0;" x1="13" x2="1854" y1="1275.2344" y2="1275.2344"/>
    <text fill="#000000" font-family="sans-serif" font-size="11" font-weight="bold" lengthAdjust="spacingAndGlyphs" textLength="115" x="18" y="1285.4448">[YAML::BadFile &amp;]</text>
    <line style="stroke: #000000; stroke-width: 1.0; stroke-dasharray: 2.0,2.0;" x1="13" x2="1854" y1="1290.0391" y2="1290.0391"/>
    <text fill="#000000" font-family="sans-serif" font-size="11" font-weight="bold" lengthAdjust="spacingAndGlyphs" textLength="129" x="18" y="1300.2495">[YAML::Exception &amp;]</text>
    <polygon fill="#A80036" points="14,1312.8438,4,1316.8438,14,1320.8438,10,1316.8438" style="stroke: #A80036; stroke-width: 1.0;"/>
    <line style="stroke: #A80036; stroke-width: 1.0; stroke-dasharray: 2.0,2.0;" x1="8" x2="149.5" y1="1316.8438" y2="1316.8438"/>
  </g>
</svg>
