<svg xmlns="http://www.w3.org/2000/svg" xmlns:xlink="http://www.w3.org/1999/xlink" contentStyleType="text/css" height="693px" preserveAspectRatio="none" style="width:966px;height:693px;background:#FFFFFF;" version="1.1" viewBox="0 0 966 693" width="966px" zoomAndPan="magnify">
  <defs>
    <style type="text/css">a:hover { text-decoration: underline; }</style>
  </defs>
  <g>
    <text fill="#000000" font-family="sans-serif" font-size="14" font-weight="bold" lengthAdjust="spacing" textLength="271.9199" x="348.1353" y="27.9951">main() function sequence diagram</text>
    <rect fill="#FFFFFF" height="535.4688" style="stroke:#181818;stroke-width:1.0;" width="10" x="148.6245" y="104.7266"/>
    <rect fill="#FFFFFF" height="30" style="stroke:#181818;stroke-width:1.0;" width="10" x="352.4326" y="133.8594"/>
    <rect fill="#FFFFFF" height="14" style="stroke:#181818;stroke-width:1.0;" width="10" x="352.4326" y="192.9922"/>
    <rect fill="#FFFFFF" height="14" style="stroke:#181818;stroke-width:1.0;" width="10" x="352.4326" y="516.4531"/>
    <rect fill="#FFFFFF" height="14" style="stroke:#181818;stroke-width:1.0;" width="10" x="539.0015" y="260.2578"/>
    <rect fill="#FFFFFF" height="14" style="stroke:#181818;stroke-width:1.0;" width="10" x="539.0015" y="303.3906"/>
    <rect fill="#FFFFFF" height="30" style="stroke:#181818;stroke-width:1.0;" width="10" x="806.166" y="457.3203"/>
    <rect fill="#FFFFFF" height="30" style="stroke:#181818;stroke-width:1.0;" width="10" x="806.166" y="559.5859"/>
    <rect fill="none" height="405.2031" style="stroke:#000000;stroke-width:1.5;" width="950.1904" x="9" y="221.9922"/>
    <line style="stroke:#181818;stroke-width:0.5;stroke-dasharray:5.0,5.0;" x1="153.4805" x2="153.4805" y1="73.5938" y2="658.1953"/>
    <line style="stroke:#181818;stroke-width:0.5;stroke-dasharray:5.0,5.0;" x1="357.0039" x2="357.0039" y1="73.5938" y2="658.1953"/>
    <line style="stroke:#181818;stroke-width:0.5;stroke-dasharray:5.0,5.0;" x1="543.8613" x2="543.8613" y1="73.5938" y2="658.1953"/>
    <line style="stroke:#181818;stroke-width:0.5;stroke-dasharray:5.0,5.0;" x1="811.1416" x2="811.1416" y1="73.5938" y2="658.1953"/>
    <rect fill="#E2E2F0" height="30.2969" rx="2.5" ry="2.5" style="stroke:#181818;stroke-width:0.5;" width="94.2881" x="106.4805" y="42.2969"/>
    <text fill="#000000" font-family="sans-serif" font-size="14" lengthAdjust="spacing" textLength="80.2881" x="113.4805" y="62.292">src/main.cc</text>
    <rect fill="#E2E2F0" height="30.2969" rx="2.5" ry="2.5" style="stroke:#181818;stroke-width:0.5;" width="94.2881" x="106.4805" y="657.1953"/>
    <text fill="#000000" font-family="sans-serif" font-size="14" lengthAdjust="spacing" textLength="80.2881" x="113.4805" y="677.1904">src/main.cc</text>
    <a href="" target="_top" title="Command line options handler" xlink:actuate="onRequest" xlink:href="" xlink:show="new" xlink:title="Command line options handler" xlink:type="simple">
      <rect fill="#E2E2F0" height="30.2969" rx="2.5" ry="2.5" style="stroke:#181818;stroke-width:0.5;" width="114.8574" x="300.0039" y="42.2969"/>
      <text fill="#000000" font-family="sans-serif" font-size="14" lengthAdjust="spacing" textLength="100.8574" x="307.0039" y="62.292">cli::cli_handler</text>
      <rect fill="#E2E2F0" height="30.2969" rx="2.5" ry="2.5" style="stroke:#181818;stroke-width:0.5;" width="114.8574" x="300.0039" y="657.1953"/>
      <text fill="#000000" font-family="sans-serif" font-size="14" lengthAdjust="spacing" textLength="100.8574" x="307.0039" y="677.1904">cli::cli_handler</text>
    </a>
    <a href="" target="_top" title="Custom compilation database class" xlink:actuate="onRequest" xlink:href="" xlink:show="new" xlink:title="Custom compilation database class" xlink:type="simple">
      <rect fill="#E2E2F0" height="30.2969" rx="2.5" ry="2.5" style="stroke:#181818;stroke-width:0.5;" width="238.2803" x="424.8613" y="42.2969"/>
      <text fill="#000000" font-family="sans-serif" font-size="14" lengthAdjust="spacing" textLength="224.2803" x="431.8613" y="62.292">common::compilation_database</text>
      <rect fill="#E2E2F0" height="30.2969" rx="2.5" ry="2.5" style="stroke:#181818;stroke-width:0.5;" width="238.2803" x="424.8613" y="657.1953"/>
      <text fill="#000000" font-family="sans-serif" font-size="14" lengthAdjust="spacing" textLength="224.2803" x="431.8613" y="677.1904">common::compilation_database</text>
    </a>
    <rect fill="#E2E2F0" height="30.2969" rx="2.5" ry="2.5" style="stroke:#181818;stroke-width:0.5;" width="276.0488" x="673.1416" y="42.2969"/>
    <text fill="#000000" font-family="sans-serif" font-size="14" lengthAdjust="spacing" textLength="262.0488" x="680.1416" y="62.292">src/common/generators/generators.h</text>
    <rect fill="#E2E2F0" height="30.2969" rx="2.5" ry="2.5" style="stroke:#181818;stroke-width:0.5;" width="276.0488" x="673.1416" y="657.1953"/>
    <text fill="#000000" font-family="sans-serif" font-size="14" lengthAdjust="spacing" textLength="262.0488" x="680.1416" y="677.1904">src/common/generators/generators.h</text>
    <rect fill="#FFFFFF" height="535.4688" style="stroke:#181818;stroke-width:1.0;" width="10" x="148.6245" y="104.7266"/>
    <rect fill="#FFFFFF" height="30" style="stroke:#181818;stroke-width:1.0;" width="10" x="352.4326" y="133.8594"/>
    <rect fill="#FFFFFF" height="14" style="stroke:#181818;stroke-width:1.0;" width="10" x="352.4326" y="192.9922"/>
    <rect fill="#FFFFFF" height="14" style="stroke:#181818;stroke-width:1.0;" width="10" x="352.4326" y="516.4531"/>
    <rect fill="#FFFFFF" height="14" style="stroke:#181818;stroke-width:1.0;" width="10" x="539.0015" y="260.2578"/>
    <rect fill="#FFFFFF" height="14" style="stroke:#181818;stroke-width:1.0;" width="10" x="539.0015" y="303.3906"/>
    <rect fill="#FFFFFF" height="30" style="stroke:#181818;stroke-width:1.0;" width="10" x="806.166" y="457.3203"/>
    <rect fill="#FFFFFF" height="30" style="stroke:#181818;stroke-width:1.0;" width="10" x="806.166" y="559.5859"/>
    <polygon fill="#181818" points="136.6245,100.7266,146.6245,104.7266,136.6245,108.7266,140.6245,104.7266" style="stroke:#181818;stroke-width:1.0;"/>
    <line style="stroke:#181818;stroke-width:1.0;" x1="0" x2="142.6245" y1="104.7266" y2="104.7266"/>
    <text fill="#000000" font-family="sans-serif" font-size="13" lengthAdjust="spacing" textLength="42.6245" x="7" y="99.6606">main()</text>
    <a href="" target="_top" title="" xlink:actuate="onRequest" xlink:href="" xlink:show="new" xlink:title="" xlink:type="simple">
      <polygon fill="#181818" points="340.4326,129.8594,350.4326,133.8594,340.4326,137.8594,344.4326,133.8594" style="stroke:#181818;stroke-width:1.0;"/>
      <line style="stroke:#181818;stroke-width:1.0;" x1="158.6245" x2="346.4326" y1="133.8594" y2="133.8594"/>
      <text fill="#000000" font-family="sans-serif" font-size="13" lengthAdjust="spacing" textLength="80.666" x="165.6245" y="128.7935">cli_handler()</text>
    </a>
    <a href="" target="_top" title="" xlink:actuate="onRequest" xlink:href="" xlink:show="new" xlink:title="" xlink:type="simple">
      <polygon fill="#181818" points="340.4326,188.9922,350.4326,192.9922,340.4326,196.9922,344.4326,192.9922" style="stroke:#181818;stroke-width:1.0;"/>
      <line style="stroke:#181818;stroke-width:1.0;" x1="158.6245" x2="346.4326" y1="192.9922" y2="192.9922"/>
      <text fill="#000000" font-family="sans-serif" font-size="13" lengthAdjust="spacing" textLength="108.8306" x="165.6245" y="187.9263">handle_options()</text>
    </a>
    <polygon fill="#181818" points="169.6245,202.9922,159.6245,206.9922,169.6245,210.9922,165.6245,206.9922" style="stroke:#181818;stroke-width:1.0;"/>
    <line style="stroke:#181818;stroke-width:1.0;stroke-dasharray:2.0,2.0;" x1="163.6245" x2="356.4326" y1="206.9922" y2="206.9922"/>
    <path d="M9,221.9922 L75.0996,221.9922 L75.0996,229.125 L65.0996,239.125 L9,239.125 L9,221.9922 " fill="#EEEEEE" style="stroke:#000000;stroke-width:1.5;"/>
    <rect fill="none" height="405.2031" style="stroke:#000000;stroke-width:1.5;" width="950.1904" x="9" y="221.9922"/>
    <text fill="#000000" font-family="sans-serif" font-size="13" font-weight="bold" lengthAdjust="spacing" textLength="21.0996" x="24" y="235.0591">try</text>
    <a href="" target="_top" title="" xlink:actuate="onRequest" xlink:href="" xlink:show="new" xlink:title="" xlink:type="simple">
      <polygon fill="#181818" points="527.0015,256.2578,537.0015,260.2578,527.0015,264.2578,531.0015,260.2578" style="stroke:#181818;stroke-width:1.0;"/>
      <line style="stroke:#181818;stroke-width:1.0;" x1="158.6245" x2="533.0015" y1="260.2578" y2="260.2578"/>
      <text fill="#000000" font-family="sans-serif" font-size="13" lengthAdjust="spacing" text-decoration="underline" textLength="189.4712" x="165.6245" y="255.1919">auto_detect_from_directory()</text>
    </a>
    <polygon fill="#181818" points="169.6245,270.2578,159.6245,274.2578,169.6245,278.2578,165.6245,274.2578" style="stroke:#181818;stroke-width:1.0;"/>
    <line style="stroke:#181818;stroke-width:1.0;stroke-dasharray:2.0,2.0;" x1="163.6245" x2="543.0015" y1="274.2578" y2="274.2578"/>
    <a href="" target="_top" title="" xlink:actuate="onRequest" xlink:href="" xlink:show="new" xlink:title="" xlink:type="simple">
      <polygon fill="#181818" points="527.0015,299.3906,537.0015,303.3906,527.0015,307.3906,531.0015,303.3906" style="stroke:#181818;stroke-width:1.0;"/>
      <line style="stroke:#181818;stroke-width:1.0;" x1="158.6245" x2="533.0015" y1="303.3906" y2="303.3906"/>
      <text fill="#000000" font-family="sans-serif" font-size="13" lengthAdjust="spacing" textLength="116.4224" x="165.6245" y="298.3247">getAllFiles() const</text>
    </a>
    <polygon fill="#181818" points="169.6245,313.3906,159.6245,317.3906,169.6245,321.3906,165.6245,317.3906" style="stroke:#181818;stroke-width:1.0;"/>
    <line style="stroke:#181818;stroke-width:1.0;stroke-dasharray:2.0,2.0;" x1="163.6245" x2="543.0015" y1="317.3906" y2="317.3906"/>
    <path d="M19,330.3906 L19,430.3906 L286,430.3906 L286,340.3906 L276,330.3906 L19,330.3906 " fill="#FEFFDD" style="stroke:#181818;stroke-width:0.5;"/>
    <path d="M276,330.3906 L276,340.3906 L286,340.3906 L276,330.3906 " fill="#FEFFDD" style="stroke:#181818;stroke-width:0.5;"/>
    <text fill="#000000" font-family="sans-serif" font-size="13" lengthAdjust="spacing" textLength="236.5898" x="25" y="347.4575">We have to generate the translation</text>
    <text fill="#000000" font-family="sans-serif" font-size="13" lengthAdjust="spacing" textLength="170.8662" x="25" y="362.5903">units list for each diagram</text>
    <text fill="#000000" font-family="sans-serif" font-size="13" lengthAdjust="spacing" textLength="159.0215" x="25" y="377.7231">before scheduling tasks,</text>
    <text fill="#000000" font-family="sans-serif" font-size="13" lengthAdjust="spacing" textLength="246.4097" x="25" y="392.856">because std::filesystem::current_path</text>
    <text fill="#000000" font-family="sans-serif" font-size="13" lengthAdjust="spacing" textLength="204.8896" x="25" y="407.9888">cannot be trusted with multiple</text>
    <text fill="#000000" font-family="sans-serif" font-size="13" lengthAdjust="spacing" textLength="49.6704" x="25" y="423.1216">threads</text>
    <a href="" target="_top" title="" xlink:actuate="onRequest" xlink:href="" xlink:show="new" xlink:title="" xlink:type="simple">
      <polygon fill="#181818" points="794.166,453.3203,804.166,457.3203,794.166,461.3203,798.166,457.3203" style="stroke:#181818;stroke-width:1.0;"/>
      <line style="stroke:#181818;stroke-width:1.0;" x1="158.6245" x2="800.166" y1="457.3203" y2="457.3203"/>
      <text fill="#000000" font-family="sans-serif" font-size="13" lengthAdjust="spacing" textLength="241.3887" x="165.6245" y="452.2544">find_translation_units_for_diagrams()</text>
    </a>
    <a href="" target="_top" title="" xlink:actuate="onRequest" xlink:href="" xlink:show="new" xlink:title="" xlink:type="simple">
      <polygon fill="#181818" points="340.4326,512.4531,350.4326,516.4531,340.4326,520.4531,344.4326,516.4531" style="stroke:#181818;stroke-width:1.0;"/>
      <line style="stroke:#181818;stroke-width:1.0;" x1="158.6245" x2="346.4326" y1="516.4531" y2="516.4531"/>
      <text fill="#000000" font-family="sans-serif" font-size="13" lengthAdjust="spacing" textLength="174.8081" x="165.6245" y="511.3872">get_runtime_config() const</text>
    </a>
    <polygon fill="#181818" points="169.6245,526.4531,159.6245,530.4531,169.6245,534.4531,165.6245,530.4531" style="stroke:#181818;stroke-width:1.0;"/>
    <line style="stroke:#181818;stroke-width:1.0;stroke-dasharray:2.0,2.0;" x1="163.6245" x2="356.4326" y1="530.4531" y2="530.4531"/>
    <a href="" target="_top" title="" xlink:actuate="onRequest" xlink:href="" xlink:show="new" xlink:title="" xlink:type="simple">
      <polygon fill="#181818" points="794.166,555.5859,804.166,559.5859,794.166,563.5859,798.166,559.5859" style="stroke:#181818;stroke-width:1.0;"/>
      <line style="stroke:#181818;stroke-width:1.0;" x1="158.6245" x2="800.166" y1="559.5859" y2="559.5859"/>
      <text fill="#000000" font-family="sans-serif" font-size="13" lengthAdjust="spacing" textLength="136.3667" x="165.6245" y="554.52">generate_diagrams()</text>
    </a>
    <line style="stroke:#000000;stroke-width:1.0;stroke-dasharray:2.0,2.0;" x1="9" x2="959.1904" y1="598.5859" y2="598.5859"/>
    <text fill="#000000" font-family="sans-serif" font-size="11" font-weight="bold" lengthAdjust="spacing" textLength="235.936" x="14" y="608.7964">[error::compilation_database_error &amp;]</text>
    <line style="stroke:#000000;stroke-width:1.0;stroke-dasharray:2.0,2.0;" x1="9" x2="959.1904" y1="613.3906" y2="613.3906"/>
    <text fill="#000000" font-family="sans-serif" font-size="11" font-weight="bold" lengthAdjust="spacing" textLength="203.2744" x="14" y="623.6011">[error::query_driver_no_paths &amp;]</text>
    <polygon fill="#181818" points="11,636.1953,1,640.1953,11,644.1953,7,640.1953" style="stroke:#181818;stroke-width:1.0;"/>
    <line style="stroke:#181818;stroke-width:1.0;stroke-dasharray:2.0,2.0;" x1="5" x2="152.6245" y1="640.1953" y2="640.1953"/>
  </g>
</svg>
