<svg xmlns="http://www.w3.org/2000/svg" xmlns:xlink="http://www.w3.org/1999/xlink" contentScriptType="application/ecmascript" contentStyleType="text/css" height="702px" preserveAspectRatio="none" style="width:975px;height:702px;" version="1.1" viewBox="0 0 975 702" width="975px" zoomAndPan="magnify">
  <defs>
    <filter height="300%" id="f1upxuzdln6b70" width="300%" x="-1" y="-1">
      <feGaussianBlur result="blurOut" stdDeviation="2.0"/>
      <feColorMatrix in="blurOut" result="blurOut2" type="matrix" values="0 0 0 0 0 0 0 0 0 0 0 0 0 0 0 0 0 0 .4 0"/>
      <feOffset dx="4.0" dy="4.0" in="blurOut2" result="blurOut3"/>
      <feBlend in="SourceGraphic" in2="blurOut3" mode="normal"/>
    </filter>
    <style type="text/css">a:hover { text-decoration: underline; }</style>
  </defs>
  <g>
    <text fill="#000000" font-family="sans-serif" font-size="18" lengthAdjust="spacingAndGlyphs" textLength="301" x="337.75" y="26.708">main() function sequence diagram</text>
    <rect fill="#FFFFFF" filter="url(#f1upxuzdln6b70)" height="539.4688" style="stroke: #A80036; stroke-width: 1.0;" width="10" x="151" y="104.3828"/>
    <rect fill="#FFFFFF" filter="url(#f1upxuzdln6b70)" height="30" style="stroke: #A80036; stroke-width: 1.0;" width="10" x="352" y="133.5156"/>
    <rect fill="#FFFFFF" filter="url(#f1upxuzdln6b70)" height="14" style="stroke: #A80036; stroke-width: 1.0;" width="10" x="352" y="192.6484"/>
    <rect fill="#FFFFFF" filter="url(#f1upxuzdln6b70)" height="14" style="stroke: #A80036; stroke-width: 1.0;" width="10" x="352" y="520.1094"/>
    <rect fill="#FFFFFF" filter="url(#f1upxuzdln6b70)" height="14" style="stroke: #A80036; stroke-width: 1.0;" width="10" x="539" y="259.9141"/>
    <rect fill="#FFFFFF" filter="url(#f1upxuzdln6b70)" height="14" style="stroke: #A80036; stroke-width: 1.0;" width="10" x="539" y="303.0469"/>
    <rect fill="#FFFFFF" filter="url(#f1upxuzdln6b70)" height="30" style="stroke: #A80036; stroke-width: 1.0;" width="10" x="808.5" y="460.9766"/>
    <rect fill="#FFFFFF" filter="url(#f1upxuzdln6b70)" height="30" style="stroke: #A80036; stroke-width: 1.0;" width="10" x="808.5" y="563.2422"/>
    <rect fill="#FFFFFF" filter="url(#f1upxuzdln6b70)" height="409.2031" style="stroke: #000000; stroke-width: 2.0;" width="950.5" x="13" y="221.6484"/>
    <rect fill="#FFFFFF" height="14.8047" style="stroke: none; stroke-width: 1.0;" width="950.5" x="13" y="601.2422"/>
    <rect fill="#FFFFFF" height="14.8047" style="stroke: none; stroke-width: 1.0;" width="950.5" x="13" y="616.0469"/>
    <line style="stroke: #A80036; stroke-width: 1.0; stroke-dasharray: 5.0,5.0;" x1="155.5" x2="155.5" y1="73.25" y2="661.8516"/>
    <line style="stroke: #A80036; stroke-width: 1.0; stroke-dasharray: 5.0,5.0;" x1="356.5" x2="356.5" y1="73.25" y2="661.8516"/>
    <line style="stroke: #A80036; stroke-width: 1.0; stroke-dasharray: 5.0,5.0;" x1="543.5" x2="543.5" y1="73.25" y2="661.8516"/>
    <line style="stroke: #A80036; stroke-width: 1.0; stroke-dasharray: 5.0,5.0;" x1="813.5" x2="813.5" y1="73.25" y2="661.8516"/>
    <rect fill="#FEFECE" filter="url(#f1upxuzdln6b70)" height="30.2969" style="stroke: #A80036; stroke-width: 1.5;" width="93" x="107.5" y="37.9531"/>
    <text fill="#000000" font-family="sans-serif" font-size="14" lengthAdjust="spacingAndGlyphs" textLength="79" x="114.5" y="57.9482">src/main.cc</text>
    <rect fill="#FEFECE" filter="url(#f1upxuzdln6b70)" height="30.2969" style="stroke: #A80036; stroke-width: 1.5;" width="93" x="107.5" y="660.8516"/>
    <text fill="#000000" font-family="sans-serif" font-size="14" lengthAdjust="spacingAndGlyphs" textLength="79" x="114.5" y="680.8467">src/main.cc</text>
    <a href="" target="_top" title="Command line options handler" xlink:actuate="onRequest" xlink:href="" xlink:show="new" xlink:title="Command line options handler" xlink:type="simple">
      <rect fill="#FEFECE" filter="url(#f1upxuzdln6b70)" height="30.2969" style="stroke: #A80036; stroke-width: 1.5;" width="111" x="299.5" y="37.9531"/>
      <text fill="#000000" font-family="sans-serif" font-size="14" lengthAdjust="spacingAndGlyphs" textLength="97" x="306.5" y="57.9482">cli::cli_handler</text>
      <rect fill="#FEFECE" filter="url(#f1upxuzdln6b70)" height="30.2969" style="stroke: #A80036; stroke-width: 1.5;" width="111" x="299.5" y="660.8516"/>
      <text fill="#000000" font-family="sans-serif" font-size="14" lengthAdjust="spacingAndGlyphs" textLength="97" x="306.5" y="680.8467">cli::cli_handler</text>
    </a>
    <a href="" target="_top" title="Custom compilation database class" xlink:actuate="onRequest" xlink:href="" xlink:show="new" xlink:title="Custom compilation database class" xlink:type="simple">
      <rect fill="#FEFECE" filter="url(#f1upxuzdln6b70)" height="30.2969" style="stroke: #A80036; stroke-width: 1.5;" width="235" x="424.5" y="37.9531"/>
      <text fill="#000000" font-family="sans-serif" font-size="14" lengthAdjust="spacingAndGlyphs" textLength="221" x="431.5" y="57.9482">common::compilation_database</text>
      <rect fill="#FEFECE" filter="url(#f1upxuzdln6b70)" height="30.2969" style="stroke: #A80036; stroke-width: 1.5;" width="235" x="424.5" y="660.8516"/>
      <text fill="#000000" font-family="sans-serif" font-size="14" lengthAdjust="spacingAndGlyphs" textLength="221" x="431.5" y="680.8467">common::compilation_database</text>
    </a>
    <rect fill="#FEFECE" filter="url(#f1upxuzdln6b70)" height="30.2969" style="stroke: #A80036; stroke-width: 1.5;" width="276" x="673.5" y="37.9531"/>
    <text fill="#000000" font-family="sans-serif" font-size="14" lengthAdjust="spacingAndGlyphs" textLength="262" x="680.5" y="57.9482">src/common/generators/generators.h</text>
    <rect fill="#FEFECE" filter="url(#f1upxuzdln6b70)" height="30.2969" style="stroke: #A80036; stroke-width: 1.5;" width="276" x="673.5" y="660.8516"/>
    <text fill="#000000" font-family="sans-serif" font-size="14" lengthAdjust="spacingAndGlyphs" textLength="262" x="680.5" y="680.8467">src/common/generators/generators.h</text>
    <rect fill="#FFFFFF" filter="url(#f1upxuzdln6b70)" height="539.4688" style="stroke: #A80036; stroke-width: 1.0;" width="10" x="151" y="104.3828"/>
    <rect fill="#FFFFFF" filter="url(#f1upxuzdln6b70)" height="30" style="stroke: #A80036; stroke-width: 1.0;" width="10" x="352" y="133.5156"/>
    <rect fill="#FFFFFF" filter="url(#f1upxuzdln6b70)" height="14" style="stroke: #A80036; stroke-width: 1.0;" width="10" x="352" y="192.6484"/>
    <rect fill="#FFFFFF" filter="url(#f1upxuzdln6b70)" height="14" style="stroke: #A80036; stroke-width: 1.0;" width="10" x="352" y="520.1094"/>
    <rect fill="#FFFFFF" filter="url(#f1upxuzdln6b70)" height="14" style="stroke: #A80036; stroke-width: 1.0;" width="10" x="539" y="259.9141"/>
    <rect fill="#FFFFFF" filter="url(#f1upxuzdln6b70)" height="14" style="stroke: #A80036; stroke-width: 1.0;" width="10" x="539" y="303.0469"/>
    <rect fill="#FFFFFF" filter="url(#f1upxuzdln6b70)" height="30" style="stroke: #A80036; stroke-width: 1.0;" width="10" x="808.5" y="460.9766"/>
    <rect fill="#FFFFFF" filter="url(#f1upxuzdln6b70)" height="30" style="stroke: #A80036; stroke-width: 1.0;" width="10" x="808.5" y="563.2422"/>
    <polygon fill="#A80036" points="139,100.3828,149,104.3828,139,108.3828,143,104.3828" style="stroke: #A80036; stroke-width: 1.0;"/>
    <line style="stroke: #A80036; stroke-width: 1.0;" x1="3" x2="145" y1="104.3828" y2="104.3828"/>
    <text fill="#000000" font-family="sans-serif" font-size="13" lengthAdjust="spacingAndGlyphs" textLength="42" x="10" y="99.3169">main()</text>
    <a href="" target="_top" title="" xlink:actuate="onRequest" xlink:href="" xlink:show="new" xlink:title="" xlink:type="simple">
      <polygon fill="#A80036" points="340,129.5156,350,133.5156,340,137.5156,344,133.5156" style="stroke: #A80036; stroke-width: 1.0;"/>
      <line style="stroke: #A80036; stroke-width: 1.0;" x1="161" x2="346" y1="133.5156" y2="133.5156"/>
      <text fill="#000000" font-family="sans-serif" font-size="13" lengthAdjust="spacingAndGlyphs" textLength="78" x="168" y="128.4497">cli_handler()</text>
    </a>
    <a href="" target="_top" title="" xlink:actuate="onRequest" xlink:href="" xlink:show="new" xlink:title="" xlink:type="simple">
      <polygon fill="#A80036" points="340,188.6484,350,192.6484,340,196.6484,344,192.6484" style="stroke: #A80036; stroke-width: 1.0;"/>
      <line style="stroke: #A80036; stroke-width: 1.0;" x1="161" x2="346" y1="192.6484" y2="192.6484"/>
      <text fill="#000000" font-family="sans-serif" font-size="13" lengthAdjust="spacingAndGlyphs" textLength="107" x="168" y="187.5825">handle_options()</text>
    </a>
    <polygon fill="#A80036" points="172,202.6484,162,206.6484,172,210.6484,168,206.6484" style="stroke: #A80036; stroke-width: 1.0;"/>
    <line style="stroke: #A80036; stroke-width: 1.0; stroke-dasharray: 2.0,2.0;" x1="166" x2="356" y1="206.6484" y2="206.6484"/>
    <path d="M13,221.6484 L78,221.6484 L78,228.6484 L68,238.6484 L13,238.6484 L13,221.6484 " fill="#EEEEEE" style="stroke: #000000; stroke-width: 1.0;"/>
    <rect fill="none" height="409.2031" style="stroke: #000000; stroke-width: 2.0;" width="950.5" x="13" y="221.6484"/>
    <text fill="#000000" font-family="sans-serif" font-size="13" font-weight="bold" lengthAdjust="spacingAndGlyphs" textLength="20" x="28" y="234.7153">try</text>
    <a href="" target="_top" title="" xlink:actuate="onRequest" xlink:href="" xlink:show="new" xlink:title="" xlink:type="simple">
      <polygon fill="#A80036" points="527,255.9141,537,259.9141,527,263.9141,531,259.9141" style="stroke: #A80036; stroke-width: 1.0;"/>
      <line style="stroke: #A80036; stroke-width: 1.0;" x1="161" x2="533" y1="259.9141" y2="259.9141"/>
      <text fill="#000000" font-family="sans-serif" font-size="13" lengthAdjust="spacingAndGlyphs" text-decoration="underline" textLength="187" x="168" y="254.8481">auto_detect_from_directory()</text>
    </a>
    <polygon fill="#A80036" points="172,269.9141,162,273.9141,172,277.9141,168,273.9141" style="stroke: #A80036; stroke-width: 1.0;"/>
    <line style="stroke: #A80036; stroke-width: 1.0; stroke-dasharray: 2.0,2.0;" x1="166" x2="543" y1="273.9141" y2="273.9141"/>
    <a href="" target="_top" title="" xlink:actuate="onRequest" xlink:href="" xlink:show="new" xlink:title="" xlink:type="simple">
      <polygon fill="#A80036" points="527,299.0469,537,303.0469,527,307.0469,531,303.0469" style="stroke: #A80036; stroke-width: 1.0;"/>
      <line style="stroke: #A80036; stroke-width: 1.0;" x1="161" x2="533" y1="303.0469" y2="303.0469"/>
      <text fill="#000000" font-family="sans-serif" font-size="13" lengthAdjust="spacingAndGlyphs" textLength="113" x="168" y="297.981">getAllFiles() const</text>
    </a>
    <polygon fill="#A80036" points="172,313.0469,162,317.0469,172,321.0469,168,317.0469" style="stroke: #A80036; stroke-width: 1.0;"/>
    <line style="stroke: #A80036; stroke-width: 1.0; stroke-dasharray: 2.0,2.0;" x1="166" x2="543" y1="317.0469" y2="317.0469"/>
    <path d="M23,330.0469 L23,430.0469 L285,430.0469 L285,340.0469 L275,330.0469 L23,330.0469 " fill="#FBFB77" filter="url(#f1upxuzdln6b70)" style="stroke: #A80036; stroke-width: 1.0;"/>
    <path d="M275,330.0469 L275,340.0469 L285,340.0469 L275,330.0469 " fill="#FBFB77" style="stroke: #A80036; stroke-width: 1.0;"/>
    <text fill="#000000" font-family="sans-serif" font-size="13" lengthAdjust="spacingAndGlyphs" textLength="230" x="29" y="347.1138">We have to generate the translation</text>
    <text fill="#000000" font-family="sans-serif" font-size="13" lengthAdjust="spacingAndGlyphs" textLength="166" x="29" y="362.2466">units list for each diagram</text>
    <text fill="#000000" font-family="sans-serif" font-size="13" lengthAdjust="spacingAndGlyphs" textLength="155" x="29" y="377.3794">before scheduling tasks,</text>
    <text fill="#000000" font-family="sans-serif" font-size="13" lengthAdjust="spacingAndGlyphs" textLength="241" x="29" y="392.5122">because std::filesystem::current_path</text>
    <text fill="#000000" font-family="sans-serif" font-size="13" lengthAdjust="spacingAndGlyphs" textLength="198" x="29" y="407.645">cannot be trusted with multiple</text>
    <text fill="#000000" font-family="sans-serif" font-size="13" lengthAdjust="spacingAndGlyphs" textLength="49" x="29" y="422.7778">threads</text>
    <a href="" target="_top" title="" xlink:actuate="onRequest" xlink:href="" xlink:show="new" xlink:title="" xlink:type="simple">
      <polygon fill="#A80036" points="796.5,456.9766,806.5,460.9766,796.5,464.9766,800.5,460.9766" style="stroke: #A80036; stroke-width: 1.0;"/>
      <line style="stroke: #A80036; stroke-width: 1.0;" x1="161" x2="802.5" y1="460.9766" y2="460.9766"/>
      <text fill="#000000" font-family="sans-serif" font-size="13" lengthAdjust="spacingAndGlyphs" textLength="237" x="168" y="455.9106">find_translation_units_for_diagrams()</text>
    </a>
    <a href="" target="_top" title="" xlink:actuate="onRequest" xlink:href="" xlink:show="new" xlink:title="" xlink:type="simple">
      <polygon fill="#A80036" points="340,516.1094,350,520.1094,340,524.1094,344,520.1094" style="stroke: #A80036; stroke-width: 1.0;"/>
      <line style="stroke: #A80036; stroke-width: 1.0;" x1="161" x2="346" y1="520.1094" y2="520.1094"/>
      <text fill="#000000" font-family="sans-serif" font-size="13" lengthAdjust="spacingAndGlyphs" textLength="172" x="168" y="515.0435">get_runtime_config() const</text>
    </a>
    <polygon fill="#A80036" points="172,530.1094,162,534.1094,172,538.1094,168,534.1094" style="stroke: #A80036; stroke-width: 1.0;"/>
    <line style="stroke: #A80036; stroke-width: 1.0; stroke-dasharray: 2.0,2.0;" x1="166" x2="356" y1="534.1094" y2="534.1094"/>
    <a href="" target="_top" title="" xlink:actuate="onRequest" xlink:href="" xlink:show="new" xlink:title="" xlink:type="simple">
      <polygon fill="#A80036" points="796.5,559.2422,806.5,563.2422,796.5,567.2422,800.5,563.2422" style="stroke: #A80036; stroke-width: 1.0;"/>
      <line style="stroke: #A80036; stroke-width: 1.0;" x1="161" x2="802.5" y1="563.2422" y2="563.2422"/>
      <text fill="#000000" font-family="sans-serif" font-size="13" lengthAdjust="spacingAndGlyphs" textLength="135" x="168" y="558.1763">generate_diagrams()</text>
    </a>
    <line style="stroke: #000000; stroke-width: 1.0; stroke-dasharray: 2.0,2.0;" x1="13" x2="963.5" y1="602.2422" y2="602.2422"/>
    <text fill="#000000" font-family="sans-serif" font-size="11" font-weight="bold" lengthAdjust="spacingAndGlyphs" textLength="241" x="18" y="612.4526">[error::compilation_database_error &amp;]</text>
    <line style="stroke: #000000; stroke-width: 1.0; stroke-dasharray: 2.0,2.0;" x1="13" x2="963.5" y1="617.0469" y2="617.0469"/>
    <text fill="#000000" font-family="sans-serif" font-size="11" font-weight="bold" lengthAdjust="spacingAndGlyphs" textLength="206" x="18" y="627.2573">[error::query_driver_no_paths &amp;]</text>
    <polygon fill="#A80036" points="14,639.8516,4,643.8516,14,647.8516,10,643.8516" style="stroke: #A80036; stroke-width: 1.0;"/>
    <line style="stroke: #A80036; stroke-width: 1.0; stroke-dasharray: 2.0,2.0;" x1="8" x2="155" y1="643.8516" y2="643.8516"/>
  </g>
</svg>
