<svg xmlns="http://www.w3.org/2000/svg" xmlns:xlink="http://www.w3.org/1999/xlink" contentStyleType="text/css" height="870px" preserveAspectRatio="none" style="width:1512px;height:870px;background:#FFFFFF;" version="1.1" viewBox="0 0 1512 870" width="1512px" zoomAndPan="magnify">
  <title>main() function sequence diagram</title>
  <defs>
    <style type="text/css">a:hover { text-decoration: underline; }</style>
  </defs>
  <g>
    <text fill="#000000" font-family="sans-serif" font-size="14" font-weight="bold" lengthAdjust="spacing" textLength="240.5471" x="636.731" y="29.9659">main() function sequence diagram</text>
    <rect fill="#FFFFFF" height="701.2238" style="stroke:#181818;stroke-width:1.0;" width="10" x="138.636" y="112.8419"/>
    <rect fill="#FFFFFF" height="30" style="stroke:#181818;stroke-width:1.0;" width="10" x="330.3702" y="144.5479"/>
    <rect fill="#FFFFFF" height="14" style="stroke:#181818;stroke-width:1.0;" width="10" x="330.3702" y="232.9599"/>
    <rect fill="#FFFFFF" height="14" style="stroke:#181818;stroke-width:1.0;" width="10" x="330.3702" y="619.7261"/>
    <rect fill="#FFFFFF" height="30" style="stroke:#181818;stroke-width:1.0;" width="10" x="567.4634" y="278.6659"/>
    <rect fill="#FFFFFF" height="14" style="stroke:#181818;stroke-width:1.0;" width="10" x="863.4263" y="340.3719"/>
    <rect fill="#FFFFFF" height="14" style="stroke:#181818;stroke-width:1.0;" width="10" x="863.4263" y="386.0779"/>
    <rect fill="#FFFFFF" height="30" style="stroke:#181818;stroke-width:1.0;" width="10" x="1118.1945" y="558.0201"/>
    <rect fill="#FFFFFF" height="14" style="stroke:#181818;stroke-width:1.0;" width="10" x="1118.1945" y="665.4321"/>
    <rect fill="#FFFFFF" height="14" style="stroke:#181818;stroke-width:1.0;" width="10" x="1375.3846" y="762.0838"/>
    <rect fill="none" height="611.5178" style="stroke:#000000;stroke-width:1.5;" width="1496.0092" x="9" y="189.5479"/>
    <line style="stroke:#181818;stroke-width:0.5;stroke-dasharray:5.0,5.0;" x1="143.2282" x2="143.2282" y1="79.1358" y2="832.0657"/>
    <line style="stroke:#181818;stroke-width:0.5;stroke-dasharray:5.0,5.0;" x1="335.0374" x2="335.0374" y1="79.1358" y2="832.0657"/>
    <line style="stroke:#181818;stroke-width:0.5;stroke-dasharray:5.0,5.0;" x1="571.703" x2="571.703" y1="79.1358" y2="832.0657"/>
    <line style="stroke:#181818;stroke-width:0.5;stroke-dasharray:5.0,5.0;" x1="868.2237" x2="868.2237" y1="79.1358" y2="832.0657"/>
    <line style="stroke:#181818;stroke-width:0.5;stroke-dasharray:5.0,5.0;" x1="1122.6289" x2="1122.6289" y1="79.1358" y2="832.0657"/>
    <line style="stroke:#181818;stroke-width:0.5;stroke-dasharray:5.0,5.0;" x1="1379.76" x2="1379.76" y1="79.1358" y2="832.0657"/>
    <rect fill="#E2E2F0" height="33.0679" rx="2.5" ry="2.5" style="stroke:#181818;stroke-width:0.5;" width="88.8157" x="99.2282" y="45.0679"/>
    <text fill="#000000" font-family="sans-serif" font-size="14" lengthAdjust="spacing" textLength="74.8157" x="106.2282" y="67.0339">src/main.cc</text>
    <rect fill="#E2E2F0" height="33.0679" rx="2.5" ry="2.5" style="stroke:#181818;stroke-width:0.5;" width="88.8157" x="99.2282" y="831.0657"/>
    <text fill="#000000" font-family="sans-serif" font-size="14" lengthAdjust="spacing" textLength="74.8157" x="106.2282" y="853.0316">src/main.cc</text>
    <a href="" target="_top" title="Command line options handler" xlink:actuate="onRequest" xlink:href="" xlink:show="new" xlink:title="Command line options handler" xlink:type="simple">
      <rect fill="#E2E2F0" height="33.0679" rx="2.5" ry="2.5" style="stroke:#181818;stroke-width:0.5;" width="106.6656" x="282.0374" y="45.0679"/>
      <text fill="#000000" font-family="sans-serif" font-size="14" lengthAdjust="spacing" textLength="92.6656" x="289.0374" y="67.0339">cli::cli_handler</text>
      <rect fill="#E2E2F0" height="33.0679" rx="2.5" ry="2.5" style="stroke:#181818;stroke-width:0.5;" width="106.6656" x="282.0374" y="831.0657"/>
      <text fill="#000000" font-family="sans-serif" font-size="14" lengthAdjust="spacing" textLength="92.6656" x="289.0374" y="853.0316">cli::cli_handler</text>
    </a>
    <a href="" target="_top" title="main(int,const char **)##(lambda src/main.cc:59:35)" xlink:actuate="onRequest" xlink:href="" xlink:show="new" xlink:title="main(int,const char **)##(lambda src/main.cc:59:35)" xlink:type="simple">
      <rect fill="#E2E2F0" height="33.0679" rx="2.5" ry="2.5" style="stroke:#181818;stroke-width:0.5;" width="347.5207" x="398.703" y="45.0679"/>
      <text fill="#000000" font-family="sans-serif" font-size="14" lengthAdjust="spacing" textLength="333.5207" x="405.703" y="67.0339">main(int,const char **)::(lambda src/main.cc:59:35)</text>
      <rect fill="#E2E2F0" height="33.0679" rx="2.5" ry="2.5" style="stroke:#181818;stroke-width:0.5;" width="347.5207" x="398.703" y="831.0657"/>
      <text fill="#000000" font-family="sans-serif" font-size="14" lengthAdjust="spacing" textLength="333.5207" x="405.703" y="853.0316">main(int,const char **)::(lambda src/main.cc:59:35)</text>
    </a>
    <a href="" target="_top" title="Custom compilation database class" xlink:actuate="onRequest" xlink:href="" xlink:show="new" xlink:title="Custom compilation database class" xlink:type="simple">
      <rect fill="#E2E2F0" height="33.0679" rx="2.5" ry="2.5" style="stroke:#181818;stroke-width:0.5;" width="224.4052" x="756.2237" y="45.0679"/>
      <text fill="#000000" font-family="sans-serif" font-size="14" lengthAdjust="spacing" textLength="210.4052" x="763.2237" y="67.0339">common::compilation_database</text>
      <rect fill="#E2E2F0" height="33.0679" rx="2.5" ry="2.5" style="stroke:#181818;stroke-width:0.5;" width="224.4052" x="756.2237" y="831.0657"/>
      <text fill="#000000" font-family="sans-serif" font-size="14" lengthAdjust="spacing" textLength="210.4052" x="763.2237" y="853.0316">common::compilation_database</text>
    </a>
    <rect fill="#E2E2F0" height="33.0679" rx="2.5" ry="2.5" style="stroke:#181818;stroke-width:0.5;" width="265.1311" x="990.6289" y="45.0679"/>
    <text fill="#000000" font-family="sans-serif" font-size="14" lengthAdjust="spacing" textLength="251.1311" x="997.6289" y="67.0339">src/common/generators/generators.h</text>
    <rect fill="#E2E2F0" height="33.0679" rx="2.5" ry="2.5" style="stroke:#181818;stroke-width:0.5;" width="265.1311" x="990.6289" y="831.0657"/>
    <text fill="#000000" font-family="sans-serif" font-size="14" lengthAdjust="spacing" textLength="251.1311" x="997.6289" y="853.0316">src/common/generators/generators.h</text>
    <a href="" target="_top" title="diagram_generation_error" xlink:actuate="onRequest" xlink:href="" xlink:show="new" xlink:title="diagram_generation_error" xlink:type="simple">
      <rect fill="#E2E2F0" height="33.0679" rx="2.5" ry="2.5" style="stroke:#181818;stroke-width:0.5;" width="229.2492" x="1265.76" y="45.0679"/>
      <text fill="#000000" font-family="sans-serif" font-size="14" lengthAdjust="spacing" textLength="215.2492" x="1272.76" y="67.0339">error::diagram_generation_error</text>
      <rect fill="#E2E2F0" height="33.0679" rx="2.5" ry="2.5" style="stroke:#181818;stroke-width:0.5;" width="229.2492" x="1265.76" y="831.0657"/>
      <text fill="#000000" font-family="sans-serif" font-size="14" lengthAdjust="spacing" textLength="215.2492" x="1272.76" y="853.0316">error::diagram_generation_error</text>
    </a>
    <rect fill="#FFFFFF" height="701.2238" style="stroke:#181818;stroke-width:1.0;" width="10" x="138.636" y="112.8419"/>
    <rect fill="#FFFFFF" height="30" style="stroke:#181818;stroke-width:1.0;" width="10" x="330.3702" y="144.5479"/>
    <rect fill="#FFFFFF" height="14" style="stroke:#181818;stroke-width:1.0;" width="10" x="330.3702" y="232.9599"/>
    <rect fill="#FFFFFF" height="14" style="stroke:#181818;stroke-width:1.0;" width="10" x="330.3702" y="619.7261"/>
    <rect fill="#FFFFFF" height="30" style="stroke:#181818;stroke-width:1.0;" width="10" x="567.4634" y="278.6659"/>
    <rect fill="#FFFFFF" height="14" style="stroke:#181818;stroke-width:1.0;" width="10" x="863.4263" y="340.3719"/>
    <rect fill="#FFFFFF" height="14" style="stroke:#181818;stroke-width:1.0;" width="10" x="863.4263" y="386.0779"/>
    <rect fill="#FFFFFF" height="30" style="stroke:#181818;stroke-width:1.0;" width="10" x="1118.1945" y="558.0201"/>
    <rect fill="#FFFFFF" height="14" style="stroke:#181818;stroke-width:1.0;" width="10" x="1118.1945" y="665.4321"/>
    <rect fill="#FFFFFF" height="14" style="stroke:#181818;stroke-width:1.0;" width="10" x="1375.3846" y="762.0838"/>
    <polygon fill="#181818" points="126.636,108.8419,136.636,112.8419,126.636,116.8419,130.636,112.8419" style="stroke:#181818;stroke-width:1.0;"/>
    <line style="stroke:#181818;stroke-width:1.0;" x1="0" x2="132.636" y1="112.8419" y2="112.8419"/>
    <text fill="#000000" font-family="sans-serif" font-size="13" lengthAdjust="spacing" textLength="38.636" x="7" y="107.0328">main()</text>
    <a href="" target="_top" title="" xlink:actuate="onRequest" xlink:href="" xlink:show="new" xlink:title="" xlink:type="simple">
      <polygon fill="#181818" points="318.3702,140.5479,328.3702,144.5479,318.3702,148.5479,322.3702,144.5479" style="stroke:#181818;stroke-width:1.0;"/>
      <line style="stroke:#181818;stroke-width:1.0;" x1="148.636" x2="324.3702" y1="144.5479" y2="144.5479"/>
      <text fill="#000000" font-family="sans-serif" font-size="13" lengthAdjust="spacing" textLength="73.9311" x="155.636" y="138.7389">cli_handler()</text>
    </a>
    <path d="M9,189.5479 L72.941,189.5479 L72.941,199.2539 L62.941,209.2539 L9,209.2539 L9,189.5479 " fill="#EEEEEE" style="stroke:#000000;stroke-width:1.5;"/>
    <rect fill="none" height="611.5178" style="stroke:#000000;stroke-width:1.5;" width="1496.0092" x="9" y="189.5479"/>
    <text fill="#000000" font-family="sans-serif" font-size="13" font-weight="bold" lengthAdjust="spacing" textLength="18.941" x="24" y="204.4449">try</text>
    <a href="" target="_top" title="" xlink:actuate="onRequest" xlink:href="" xlink:show="new" xlink:title="" xlink:type="simple">
      <polygon fill="#181818" points="318.3702,228.9599,328.3702,232.9599,318.3702,236.9599,322.3702,232.9599" style="stroke:#181818;stroke-width:1.0;"/>
      <line style="stroke:#181818;stroke-width:1.0;" x1="148.636" x2="324.3702" y1="232.9599" y2="232.9599"/>
      <text fill="#000000" font-family="sans-serif" font-size="13" lengthAdjust="spacing" textLength="101.6471" x="155.636" y="227.1509">handle_options()</text>
    </a>
    <polygon fill="#181818" points="159.636,242.9599,149.636,246.9599,159.636,250.9599,155.636,246.9599" style="stroke:#181818;stroke-width:1.0;"/>
    <line style="stroke:#181818;stroke-width:1.0;stroke-dasharray:2.0,2.0;" x1="153.636" x2="334.3702" y1="246.9599" y2="246.9599"/>
    <a href="" target="_top" title="" xlink:actuate="onRequest" xlink:href="" xlink:show="new" xlink:title="" xlink:type="simple">
      <polygon fill="#181818" points="555.4634,274.6659,565.4634,278.6659,555.4634,282.6659,559.4634,278.6659" style="stroke:#181818;stroke-width:1.0;"/>
      <line style="stroke:#181818;stroke-width:1.0;" x1="148.636" x2="561.4634" y1="278.6659" y2="278.6659"/>
      <text fill="#000000" font-family="sans-serif" font-size="13" lengthAdjust="spacing" textLength="105.8201" x="155.636" y="272.8569">operator()() const</text>
    </a>
    <a href="" target="_top" title="" xlink:actuate="onRequest" xlink:href="" xlink:show="new" xlink:title="" xlink:type="simple">
      <polygon fill="#181818" points="851.4263,336.3719,861.4263,340.3719,851.4263,344.3719,855.4263,340.3719" style="stroke:#181818;stroke-width:1.0;"/>
      <line style="stroke:#181818;stroke-width:1.0;" x1="148.636" x2="857.4263" y1="340.3719" y2="340.3719"/>
      <text fill="#000000" font-family="sans-serif" font-size="13" lengthAdjust="spacing" text-decoration="underline" textLength="175.9942" x="155.636" y="334.5629">auto_detect_from_directory()</text>
    </a>
    <polygon fill="#181818" points="159.636,350.3719,149.636,354.3719,159.636,358.3719,155.636,354.3719" style="stroke:#181818;stroke-width:1.0;"/>
    <line style="stroke:#181818;stroke-width:1.0;stroke-dasharray:2.0,2.0;" x1="153.636" x2="867.4263" y1="354.3719" y2="354.3719"/>
    <a href="" target="_top" title="" xlink:actuate="onRequest" xlink:href="" xlink:show="new" xlink:title="" xlink:type="simple">
      <polygon fill="#181818" points="851.4263,382.0779,861.4263,386.0779,851.4263,390.0779,855.4263,386.0779" style="stroke:#181818;stroke-width:1.0;"/>
      <line style="stroke:#181818;stroke-width:1.0;" x1="148.636" x2="857.4263" y1="386.0779" y2="386.0779"/>
      <text fill="#000000" font-family="sans-serif" font-size="13" lengthAdjust="spacing" textLength="106.2881" x="155.636" y="380.2689">getAllFiles() const</text>
    </a>
    <polygon fill="#181818" points="159.636,396.0779,149.636,400.0779,159.636,404.0779,155.636,400.0779" style="stroke:#181818;stroke-width:1.0;"/>
    <line style="stroke:#181818;stroke-width:1.0;stroke-dasharray:2.0,2.0;" x1="153.636" x2="867.4263" y1="400.0779" y2="400.0779"/>
    <path d="M19,413.0779 L19,529.0779 L267,529.0779 L267,423.0779 L257,413.0779 L19,413.0779 " fill="#FEFFDD" style="stroke:#181818;stroke-width:0.5;"/>
    <path d="M257,413.0779 L257,423.0779 L267,423.0779 L257,413.0779 " fill="#FEFFDD" style="stroke:#181818;stroke-width:0.5;"/>
    <text fill="#000000" font-family="sans-serif" font-size="13" lengthAdjust="spacing" textLength="219.7912" x="25" y="431.975">We have to generate the translation</text>
    <text fill="#000000" font-family="sans-serif" font-size="13" lengthAdjust="spacing" textLength="159.5491" x="25" y="449.681">units list for each diagram</text>
    <text fill="#000000" font-family="sans-serif" font-size="13" lengthAdjust="spacing" textLength="148.5901" x="25" y="467.387">before scheduling tasks,</text>
    <text fill="#000000" font-family="sans-serif" font-size="13" lengthAdjust="spacing" textLength="227.3182" x="25" y="485.093">because std::filesystem::current_path</text>
    <text fill="#000000" font-family="sans-serif" font-size="13" lengthAdjust="spacing" textLength="191.9192" x="25" y="502.799">cannot be trusted with multiple</text>
    <text fill="#000000" font-family="sans-serif" font-size="13" lengthAdjust="spacing" textLength="46.943" x="25" y="520.505">threads</text>
    <a href="" target="_top" title="" xlink:actuate="onRequest" xlink:href="" xlink:show="new" xlink:title="" xlink:type="simple">
      <polygon fill="#181818" points="1106.1945,554.0201,1116.1945,558.0201,1106.1945,562.0201,1110.1945,558.0201" style="stroke:#181818;stroke-width:1.0;"/>
      <line style="stroke:#181818;stroke-width:1.0;" x1="148.636" x2="1112.1945" y1="558.0201" y2="558.0201"/>
      <text fill="#000000" font-family="sans-serif" font-size="13" lengthAdjust="spacing" textLength="226.6812" x="155.636" y="552.2111">find_translation_units_for_diagrams()</text>
    </a>
    <a href="" target="_top" title="" xlink:actuate="onRequest" xlink:href="" xlink:show="new" xlink:title="" xlink:type="simple">
      <polygon fill="#181818" points="318.3702,615.7261,328.3702,619.7261,318.3702,623.7261,322.3702,619.7261" style="stroke:#181818;stroke-width:1.0;"/>
      <line style="stroke:#181818;stroke-width:1.0;" x1="148.636" x2="324.3702" y1="619.7261" y2="619.7261"/>
      <text fill="#000000" font-family="sans-serif" font-size="13" lengthAdjust="spacing" textLength="162.7342" x="155.636" y="613.9171">get_runtime_config() const</text>
    </a>
    <polygon fill="#181818" points="159.636,629.7261,149.636,633.7261,159.636,637.7261,155.636,633.7261" style="stroke:#181818;stroke-width:1.0;"/>
    <line style="stroke:#181818;stroke-width:1.0;stroke-dasharray:2.0,2.0;" x1="153.636" x2="334.3702" y1="633.7261" y2="633.7261"/>
    <a href="" target="_top" title="" xlink:actuate="onRequest" xlink:href="" xlink:show="new" xlink:title="" xlink:type="simple">
      <polygon fill="#181818" points="1106.1945,661.4321,1116.1945,665.4321,1106.1945,669.4321,1110.1945,665.4321" style="stroke:#181818;stroke-width:1.0;"/>
      <line style="stroke:#181818;stroke-width:1.0;" x1="148.636" x2="1112.1945" y1="665.4321" y2="665.4321"/>
      <text fill="#000000" font-family="sans-serif" font-size="13" lengthAdjust="spacing" textLength="126.6331" x="155.636" y="659.6231">generate_diagrams()</text>
    </a>
    <polygon fill="#181818" points="159.636,675.4321,149.636,679.4321,159.636,683.4321,155.636,679.4321" style="stroke:#181818;stroke-width:1.0;"/>
    <line style="stroke:#181818;stroke-width:1.0;stroke-dasharray:2.0,2.0;" x1="153.636" x2="1122.1945" y1="679.4321" y2="679.4321"/>
    <line style="stroke:#000000;stroke-width:1.0;stroke-dasharray:2.0,2.0;" x1="9" x2="1505.0092" y1="688.4321" y2="688.4321"/>
    <text fill="#000000" font-family="sans-serif" font-size="11" font-weight="bold" lengthAdjust="spacing" textLength="206.6335" x="14" y="700.191">[error::compilation_database_error &amp;]</text>
    <line style="stroke:#000000;stroke-width:1.0;stroke-dasharray:2.0,2.0;" x1="9" x2="1505.0092" y1="705.414" y2="705.414"/>
    <text fill="#000000" font-family="sans-serif" font-size="11" font-weight="bold" lengthAdjust="spacing" textLength="176.6367" x="14" y="717.1729">[error::query_driver_no_paths &amp;]</text>
    <line style="stroke:#000000;stroke-width:1.0;stroke-dasharray:2.0,2.0;" x1="9" x2="1505.0092" y1="722.3959" y2="722.3959"/>
    <text fill="#000000" font-family="sans-serif" font-size="11" font-weight="bold" lengthAdjust="spacing" textLength="197.6465" x="14" y="734.1548">[error::diagram_generation_error &amp;]</text>
    <a href="" target="_top" title="" xlink:actuate="onRequest" xlink:href="" xlink:show="new" xlink:title="" xlink:type="simple">
      <polygon fill="#181818" points="1363.3846,758.0838,1373.3846,762.0838,1363.3846,766.0838,1367.3846,762.0838" style="stroke:#181818;stroke-width:1.0;"/>
      <line style="stroke:#181818;stroke-width:1.0;" x1="148.636" x2="1369.3846" y1="762.0838" y2="762.0838"/>
      <text fill="#000000" font-family="sans-serif" font-size="13" lengthAdjust="spacing" textLength="74.4771" x="155.636" y="756.2748">what() const</text>
    </a>
    <polygon fill="#181818" points="159.636,772.0838,149.636,776.0838,159.636,780.0838,155.636,776.0838" style="stroke:#181818;stroke-width:1.0;"/>
    <line style="stroke:#181818;stroke-width:1.0;stroke-dasharray:2.0,2.0;" x1="153.636" x2="1379.3846" y1="776.0838" y2="776.0838"/>
    <line style="stroke:#000000;stroke-width:1.0;stroke-dasharray:2.0,2.0;" x1="9" x2="1505.0092" y1="785.0838" y2="785.0838"/>
    <text fill="#000000" font-family="sans-serif" font-size="11" font-weight="bold" lengthAdjust="spacing" textLength="96.0073" x="14" y="796.8427">[std::exception &amp;]</text>
    <polygon fill="#181818" points="11,810.0657,1,814.0657,11,818.0657,7,814.0657" style="stroke:#181818;stroke-width:1.0;"/>
    <line style="stroke:#181818;stroke-width:1.0;stroke-dasharray:2.0,2.0;" x1="5" x2="142.636" y1="814.0657" y2="814.0657"/>
  </g>
</svg>
