<svg xmlns="http://www.w3.org/2000/svg" xmlns:xlink="http://www.w3.org/1999/xlink" contentScriptType="application/ecmascript" contentStyleType="text/css" height="86px" preserveAspectRatio="none" style="width:316px;height:86px;" version="1.1" viewBox="0 0 316 86" width="316px" zoomAndPan="magnify">
  <defs>
    <filter height="300%" id="fqe200bii9ipc" width="300%" x="-1" y="-1">
      <feGaussianBlur result="blurOut" stdDeviation="2.0"/>
      <feColorMatrix in="blurOut" result="blurOut2" type="matrix" values="0 0 0 0 0 0 0 0 0 0 0 0 0 0 0 0 0 0 .4 0"/>
      <feOffset dx="4.0" dy="4.0" in="blurOut2" result="blurOut3"/>
      <feBlend in="SourceGraphic" in2="blurOut3" mode="normal"/>
    </filter>
    <style type="text/css">a:hover { text-decoration: underline; }</style>
  </defs>
  <g>
    <text fill="#000000" font-family="sans-serif" font-size="18" lengthAdjust="spacingAndGlyphs" textLength="302" x="2" y="16.708">Nested trait model class hierarchy</text>
    <a href="classclanguml_1_1common_1_1model_1_1nested__trait.html" target="_top" title="Base class for elements nested in the diagram." xlink:actuate="onRequest" xlink:href="classclanguml_1_1common_1_1model_1_1nested__trait.html" xlink:show="new" xlink:title="Base class for elements nested in the diagram." xlink:type="simple">
      <rect fill="#FEFECE" filter="url(#fqe200bii9ipc)" height="48" id="C_0000891208748219309562" style="stroke: #A80036; stroke-width: 1.5;" width="258" x="24" y="27.9531"/>
      <ellipse cx="39" cy="43.9531" fill="#ADD1B2" rx="11" ry="11" style="stroke: #A80036; stroke-width: 1.0;"/>
      <path d="M41.9688,49.5938 Q41.3906,49.8906 40.75,50.0313 Q40.1094,50.1875 39.4063,50.1875 Q36.9063,50.1875 35.5781,48.5469 Q34.2656,46.8906 34.2656,43.7656 Q34.2656,40.6406 35.5781,38.9844 Q36.9063,37.3281 39.4063,37.3281 Q40.1094,37.3281 40.75,37.4844 Q41.4063,37.6406 41.9688,37.9375 L41.9688,40.6563 Q41.3438,40.0781 40.75,39.8125 Q40.1563,39.5313 39.5313,39.5313 Q38.1875,39.5313 37.5,40.6094 Q36.8125,41.6719 36.8125,43.7656 Q36.8125,45.8594 37.5,46.9375 Q38.1875,48 39.5313,48 Q40.1563,48 40.75,47.7344 Q41.3438,47.4531 41.9688,46.875 L41.9688,49.5938 Z "/>
      <text fill="#000000" font-family="sans-serif" font-size="12" lengthAdjust="spacingAndGlyphs" textLength="183" x="53" y="48.1074">common::model::nested_trait</text>
      <rect fill="#FFFFFF" height="15.9688" style="stroke: #000000; stroke-width: 1.0; stroke-dasharray: 2.0,2.0;" width="41" x="244" y="24.9531"/>
      <text fill="#000000" font-family="sans-serif" font-size="12" font-style="italic" lengthAdjust="spacingAndGlyphs" textLength="39" x="245" y="37.0918">T,Path</text>
      <line style="stroke: #A80036; stroke-width: 1.5;" x1="25" x2="281" y1="59.9531" y2="59.9531"/>
      <line style="stroke: #A80036; stroke-width: 1.5;" x1="25" x2="281" y1="67.9531" y2="67.9531"/>
    </a>
  </g>
</svg>
