<svg xmlns="http://www.w3.org/2000/svg" xmlns:xlink="http://www.w3.org/1999/xlink" contentScriptType="application/ecmascript" contentStyleType="text/css" height="330px" preserveAspectRatio="none" style="width:534px;height:330px;" version="1.1" viewBox="0 0 534 330" width="534px" zoomAndPan="magnify">
  <defs>
    <filter height="300%" id="fydpej36uhkfu" width="300%" x="-1" y="-1">
      <feGaussianBlur result="blurOut" stdDeviation="2.0"/>
      <feColorMatrix in="blurOut" result="blurOut2" type="matrix" values="0 0 0 0 0 0 0 0 0 0 0 0 0 0 0 0 0 0 .4 0"/>
      <feOffset dx="4.0" dy="4.0" in="blurOut2" result="blurOut3"/>
      <feBlend in="SourceGraphic" in2="blurOut3" mode="normal"/>
    </filter>
    <style type="text/css">a:hover { text-decoration: underline; }</style>
  </defs>
  <g>
    <text fill="#000000" font-family="sans-serif" font-size="18" lengthAdjust="spacingAndGlyphs" textLength="302" x="122" y="16.708">Nested trait model class hierarchy</text>
    <polygon fill="#FFFFFF" filter="url(#fydpej36uhkfu)" points="22,44.9531,95,44.9531,102,67.25,512,67.25,512,318.9531,22,318.9531,22,44.9531" style="stroke: #000000; stroke-width: 1.5;"/>
    <line style="stroke: #000000; stroke-width: 1.5;" x1="22" x2="102" y1="67.25" y2="67.25"/>
    <text fill="#000000" font-family="sans-serif" font-size="14" font-weight="bold" lengthAdjust="spacingAndGlyphs" textLength="67" x="26" y="59.9482">common</text>
    <polygon fill="#FFFFFF" filter="url(#fydpej36uhkfu)" points="46,87.9531,100,87.9531,107,110.25,488,110.25,488,294.9531,46,294.9531,46,87.9531" style="stroke: #000000; stroke-width: 1.5;"/>
    <line style="stroke: #000000; stroke-width: 1.5;" x1="46" x2="107" y1="110.25" y2="110.25"/>
    <text fill="#000000" font-family="sans-serif" font-size="14" font-weight="bold" lengthAdjust="spacingAndGlyphs" textLength="48" x="50" y="102.9482">model</text>
    <a href="classclanguml_1_1common_1_1model_1_1nested__trait.html" target="_top" title="Base class for elements nested in the diagram." xlink:actuate="onRequest" xlink:href="classclanguml_1_1common_1_1model_1_1nested__trait.html" xlink:show="new" xlink:title="Base class for elements nested in the diagram." xlink:type="simple">
      <rect fill="#FEFECE" filter="url(#fydpej36uhkfu)" height="48" id="C_0007129669985754476498" style="stroke: #A80036; stroke-width: 1.5;" width="151" x="126.5" y="230.9531"/>
      <ellipse cx="141.5" cy="246.9531" fill="#ADD1B2" rx="11" ry="11" style="stroke: #A80036; stroke-width: 1.0;"/>
      <path d="M144.4688,252.5938 Q143.8906,252.8906 143.25,253.0313 Q142.6094,253.1875 141.9063,253.1875 Q139.4063,253.1875 138.0781,251.5469 Q136.7656,249.8906 136.7656,246.7656 Q136.7656,243.6406 138.0781,241.9844 Q139.4063,240.3281 141.9063,240.3281 Q142.6094,240.3281 143.25,240.4844 Q143.9063,240.6406 144.4688,240.9375 L144.4688,243.6563 Q143.8438,243.0781 143.25,242.8125 Q142.6563,242.5313 142.0313,242.5313 Q140.6875,242.5313 140,243.6094 Q139.3125,244.6719 139.3125,246.7656 Q139.3125,248.8594 140,249.9375 Q140.6875,251 142.0313,251 Q142.6563,251 143.25,250.7344 Q143.8438,250.4531 144.4688,249.875 L144.4688,252.5938 Z "/>
      <text fill="#000000" font-family="sans-serif" font-size="12" lengthAdjust="spacingAndGlyphs" textLength="76" x="155.5" y="251.1074">nested_trait</text>
      <rect fill="#FFFFFF" height="15.9688" style="stroke: #000000; stroke-width: 1.0; stroke-dasharray: 2.0,2.0;" width="41" x="239.5" y="227.9531"/>
      <text fill="#000000" font-family="sans-serif" font-size="12" font-style="italic" lengthAdjust="spacingAndGlyphs" textLength="39" x="240.5" y="240.0918">T,Path</text>
      <line style="stroke: #A80036; stroke-width: 1.5;" x1="127.5" x2="276.5" y1="262.9531" y2="262.9531"/>
      <line style="stroke: #A80036; stroke-width: 1.5;" x1="127.5" x2="276.5" y1="270.9531" y2="270.9531"/>
    </a>
    <a href="classclanguml_1_1common_1_1model_1_1nested__trait.html" target="_top" title="nested_trait" xlink:actuate="onRequest" xlink:href="classclanguml_1_1common_1_1model_1_1nested__trait.html" xlink:show="new" xlink:title="nested_trait" xlink:type="simple">
      <rect fill="#FEFECE" filter="url(#fydpej36uhkfu)" height="48" id="C_0015066935078142509054" style="stroke: #A80036; stroke-width: 1.5;" width="410" x="62" y="122.9531"/>
      <ellipse cx="77" cy="138.9531" fill="#ADD1B2" rx="11" ry="11" style="stroke: #A80036; stroke-width: 1.0;"/>
      <path d="M79.9688,144.5938 Q79.3906,144.8906 78.75,145.0313 Q78.1094,145.1875 77.4063,145.1875 Q74.9063,145.1875 73.5781,143.5469 Q72.2656,141.8906 72.2656,138.7656 Q72.2656,135.6406 73.5781,133.9844 Q74.9063,132.3281 77.4063,132.3281 Q78.1094,132.3281 78.75,132.4844 Q79.4063,132.6406 79.9688,132.9375 L79.9688,135.6563 Q79.3438,135.0781 78.75,134.8125 Q78.1563,134.5313 77.5313,134.5313 Q76.1875,134.5313 75.5,135.6094 Q74.8125,136.6719 74.8125,138.7656 Q74.8125,140.8594 75.5,141.9375 Q76.1875,143 77.5313,143 Q78.1563,143 78.75,142.7344 Q79.3438,142.4531 79.9688,141.875 L79.9688,144.5938 Z "/>
      <text fill="#000000" font-family="sans-serif" font-size="12" lengthAdjust="spacingAndGlyphs" textLength="76" x="91" y="143.1074">nested_trait</text>
      <rect fill="#FFFFFF" height="15.9688" style="stroke: #000000; stroke-width: 1.0; stroke-dasharray: 2.0,2.0;" width="300" x="175" y="119.9531"/>
      <text fill="#000000" font-family="sans-serif" font-size="12" font-style="italic" lengthAdjust="spacingAndGlyphs" textLength="298" x="176" y="132.0918">common::model::element,common::model::path</text>
      <line style="stroke: #A80036; stroke-width: 1.5;" x1="63" x2="471" y1="154.9531" y2="154.9531"/>
      <line style="stroke: #A80036; stroke-width: 1.5;" x1="63" x2="471" y1="162.9531" y2="162.9531"/>
    </a>
    <a href="classclanguml_1_1common_1_1model_1_1package.html" target="_top" title="Diagram element representing namespace or directory package" xlink:actuate="onRequest" xlink:href="classclanguml_1_1common_1_1model_1_1package.html" xlink:show="new" xlink:title="Diagram element representing namespace or directory package" xlink:type="simple">
      <rect fill="#FEFECE" filter="url(#fydpej36uhkfu)" height="48" id="C_0017146293478645494837" style="stroke: #A80036; stroke-width: 1.5;" width="86" x="313" y="230.9531"/>
      <ellipse cx="328" cy="246.9531" fill="#ADD1B2" rx="11" ry="11" style="stroke: #A80036; stroke-width: 1.0;"/>
      <path d="M330.9688,252.5938 Q330.3906,252.8906 329.75,253.0313 Q329.1094,253.1875 328.4063,253.1875 Q325.9063,253.1875 324.5781,251.5469 Q323.2656,249.8906 323.2656,246.7656 Q323.2656,243.6406 324.5781,241.9844 Q325.9063,240.3281 328.4063,240.3281 Q329.1094,240.3281 329.75,240.4844 Q330.4063,240.6406 330.9688,240.9375 L330.9688,243.6563 Q330.3438,243.0781 329.75,242.8125 Q329.1563,242.5313 328.5313,242.5313 Q327.1875,242.5313 326.5,243.6094 Q325.8125,244.6719 325.8125,246.7656 Q325.8125,248.8594 326.5,249.9375 Q327.1875,251 328.5313,251 Q329.1563,251 329.75,250.7344 Q330.3438,250.4531 330.9688,249.875 L330.9688,252.5938 Z "/>
      <text fill="#000000" font-family="sans-serif" font-size="12" lengthAdjust="spacingAndGlyphs" textLength="54" x="342" y="251.1074">package</text>
      <line style="stroke: #A80036; stroke-width: 1.5;" x1="314" x2="398" y1="262.9531" y2="262.9531"/>
      <line style="stroke: #A80036; stroke-width: 1.5;" x1="314" x2="398" y1="270.9531" y2="270.9531"/>
    </a>
    <path d="M252.9,170.9531 C245.28,183.3731 235.66,199.0631 226.84,213.4431 " fill="none" id="C_0015066935078142509054-&gt;C_0007129669985754476498" style="stroke: #A80036; stroke-width: 1.0; stroke-dasharray: 7.0,7.0;"/>
    <polygon fill="none" points="232.72,217.2431,216.3,230.6331,220.79,209.9231,232.72,217.2431" style="stroke: #A80036; stroke-width: 1.0;"/>
    <path d="M299.5,186.6531 C311.88,201.4031 325.6,217.7431 336.42,230.6331 " fill="none" id="C_0015066935078142509054&lt;-C_0017146293478645494837" style="stroke: #A80036; stroke-width: 1.0;"/>
    <polygon fill="none" points="293.81,190.7731,286.31,170.9531,304.53,181.7731,293.81,190.7731" style="stroke: #A80036; stroke-width: 1.0;"/>
  </g>
</svg>
