<svg xmlns="http://www.w3.org/2000/svg" xmlns:xlink="http://www.w3.org/1999/xlink" contentStyleType="text/css" data-diagram-type="CLASS" height="333px" preserveAspectRatio="none" style="width:463px;height:333px;background:#FFFFFF;" version="1.1" viewBox="0 0 463 333" width="463px" zoomAndPan="magnify">
  <title>Nested trait model class hierarchy</title>
  <defs>
    <style type="text/css">a:hover { text-decoration: underline; }</style>
  </defs>
  <g>
    <text fill="#000000" font-family="sans-serif" font-size="14" font-weight="bold" lengthAdjust="spacing" textLength="240.5471" x="104.2265" y="24.9659">Nested trait model class hierarchy</text>
    <g id="cluster_C_0002532840279361781187">
      <path d="M8.5,46.6699 L70.7218,46.6699 A3.75,3.75 0 0 1 73.2218,49.1699 L80.2218,71.7378 L453.5,71.7378 A2.5,2.5 0 0 1 456,74.2378 L456,324.1699 A2.5,2.5 0 0 1 453.5,326.6699 L8.5,326.6699 A2.5,2.5 0 0 1 6,324.1699 L6,49.1699 A2.5,2.5 0 0 1 8.5,46.6699 " fill="transparent" style="stroke:#000000;stroke-width:1.5;"/>
      <line style="stroke:#000000;stroke-width:1.5;" x1="6" x2="80.2218" y1="71.7378" y2="71.7378"/>
      <text fill="#000000" font-family="sans-serif" font-size="14" font-weight="bold" lengthAdjust="spacing" textLength="61.2218" x="10" y="63.6358">common</text>
    </g>
    <g id="cluster_C_0000669774451444102653">
      <path d="M32.5,92.6699 L77.3198,92.6699 A3.75,3.75 0 0 1 79.8198,95.1699 L86.8198,117.7378 L429.5,117.7378 A2.5,2.5 0 0 1 432,120.2378 L432,300.1699 A2.5,2.5 0 0 1 429.5,302.6699 L32.5,302.6699 A2.5,2.5 0 0 1 30,300.1699 L30,95.1699 A2.5,2.5 0 0 1 32.5,92.6699 " fill="transparent" style="stroke:#000000;stroke-width:1.5;"/>
      <line style="stroke:#000000;stroke-width:1.5;" x1="30" x2="86.8198" y1="117.7378" y2="117.7378"/>
      <text fill="#000000" font-family="sans-serif" font-size="14" font-weight="bold" lengthAdjust="spacing" textLength="43.8198" x="34" y="109.6358">model</text>
    </g>
    <a href="classclanguml_1_1common_1_1model_1_1nested__trait.html" target="_top" title="Base class for elements nested in the diagram." xlink:actuate="onRequest" xlink:href="classclanguml_1_1common_1_1model_1_1nested__trait.html" xlink:show="new" xlink:title="Base class for elements nested in the diagram." xlink:type="simple">
      <g id="elem_C_0007129669985754476498">
        <rect codeLine="5" fill="#F1F1F1" height="48" id="C_0007129669985754476498" rx="2.5" ry="2.5" style="stroke:#181818;stroke-width:0.5;" width="148.0219" x="95" y="238.6699"/>
        <ellipse cx="110" cy="254.6699" fill="#ADD1B2" rx="11" ry="11" style="stroke:#181818;stroke-width:1;"/>
        <path d="M112.9688,260.3105 Q112.3906,260.6074 111.75,260.748 Q111.1094,260.9043 110.4063,260.9043 Q107.9063,260.9043 106.5781,259.2636 Q105.2656,257.6074 105.2656,254.4824 Q105.2656,251.3574 106.5781,249.7011 Q107.9063,248.0449 110.4063,248.0449 Q111.1094,248.0449 111.75,248.2011 Q112.4063,248.3574 112.9688,248.6543 L112.9688,251.373 Q112.3438,250.7949 111.75,250.5293 Q111.1563,250.248 110.5313,250.248 Q109.1875,250.248 108.5,251.3261 Q107.8125,252.3886 107.8125,254.4824 Q107.8125,256.5761 108.5,257.6543 Q109.1875,258.7168 110.5313,258.7168 Q111.1563,258.7168 111.75,258.4511 Q112.3438,258.1699 112.9688,257.5918 L112.9688,260.3105 Z " fill="#000000"/>
        <text fill="#000000" font-family="sans-serif" font-size="14" lengthAdjust="spacing" textLength="78.3857" x="124" y="260.1019">nested_trait</text>
        <rect fill="#FFFFFF" height="18.3441" style="stroke:#181818;stroke-width:1;stroke-dasharray:2.0,2.0;" width="35.6362" x="210.3857" y="235.6699"/>
        <text fill="#000000" font-family="sans-serif" font-size="12" font-style="italic" lengthAdjust="spacing" textLength="33.6362" x="211.3857" y="249.498">T,Path</text>
        <line style="stroke:#181818;stroke-width:0.5;" x1="96" x2="242.0219" y1="270.6699" y2="270.6699"/>
        <line style="stroke:#181818;stroke-width:0.5;" x1="96" x2="242.0219" y1="278.6699" y2="278.6699"/>
      </g>
    </a>
    <a href="classclanguml_1_1common_1_1model_1_1nested__trait.html" target="_top" title="nested_trait" xlink:actuate="onRequest" xlink:href="classclanguml_1_1common_1_1model_1_1nested__trait.html" xlink:show="new" xlink:title="nested_trait" xlink:type="simple">
      <g id="elem_C_0015066935078142509054">
        <rect codeLine="9" fill="#F1F1F1" height="48" id="C_0015066935078142509054" rx="2.5" ry="2.5" style="stroke:#181818;stroke-width:0.5;" width="369.5914" x="46" y="130.6699"/>
        <ellipse cx="61" cy="146.6699" fill="#ADD1B2" rx="11" ry="11" style="stroke:#181818;stroke-width:1;"/>
        <path d="M63.9688,152.3105 Q63.3906,152.6074 62.75,152.748 Q62.1094,152.9043 61.4063,152.9043 Q58.9063,152.9043 57.5781,151.2636 Q56.2656,149.6074 56.2656,146.4824 Q56.2656,143.3574 57.5781,141.7011 Q58.9063,140.0449 61.4063,140.0449 Q62.1094,140.0449 62.75,140.2011 Q63.4063,140.3574 63.9688,140.6543 L63.9688,143.373 Q63.3438,142.7949 62.75,142.5293 Q62.1563,142.248 61.5313,142.248 Q60.1875,142.248 59.5,143.3261 Q58.8125,144.3886 58.8125,146.4824 Q58.8125,148.5761 59.5,149.6543 Q60.1875,150.7168 61.5313,150.7168 Q62.1563,150.7168 62.75,150.4511 Q63.3438,150.1699 63.9688,149.5918 L63.9688,152.3105 Z " fill="#000000"/>
        <text fill="#000000" font-family="sans-serif" font-size="14" lengthAdjust="spacing" textLength="78.3857" x="75" y="152.1019">nested_trait</text>
        <rect fill="#FFFFFF" height="18.3441" style="stroke:#181818;stroke-width:1;stroke-dasharray:2.0,2.0;" width="257.2057" x="161.3857" y="127.6699"/>
        <text fill="#000000" font-family="sans-serif" font-size="12" font-style="italic" lengthAdjust="spacing" textLength="255.2057" x="162.3857" y="141.498">common::model::element,common::model::path</text>
        <line style="stroke:#181818;stroke-width:0.5;" x1="47" x2="414.5914" y1="162.6699" y2="162.6699"/>
        <line style="stroke:#181818;stroke-width:0.5;" x1="47" x2="414.5914" y1="170.6699" y2="170.6699"/>
      </g>
    </a>
    <a href="classclanguml_1_1common_1_1model_1_1package.html" target="_top" title="Diagram element representing namespace or directory package" xlink:actuate="onRequest" xlink:href="classclanguml_1_1common_1_1model_1_1package.html" xlink:show="new" xlink:title="Diagram element representing namespace or directory package" xlink:type="simple">
      <g id="elem_C_0017146293478645494837">
        <rect codeLine="13" fill="#F1F1F1" height="48" id="C_0017146293478645494837" rx="2.5" ry="2.5" style="stroke:#181818;stroke-width:0.5;" width="87.0198" x="278.5" y="238.6699"/>
        <ellipse cx="293.5" cy="254.6699" fill="#ADD1B2" rx="11" ry="11" style="stroke:#181818;stroke-width:1;"/>
        <path d="M296.4688,260.3105 Q295.8906,260.6074 295.25,260.748 Q294.6094,260.9043 293.9063,260.9043 Q291.4063,260.9043 290.0781,259.2636 Q288.7656,257.6074 288.7656,254.4824 Q288.7656,251.3574 290.0781,249.7011 Q291.4063,248.0449 293.9063,248.0449 Q294.6094,248.0449 295.25,248.2011 Q295.9063,248.3574 296.4688,248.6543 L296.4688,251.373 Q295.8438,250.7949 295.25,250.5293 Q294.6563,250.248 294.0313,250.248 Q292.6875,250.248 292,251.3261 Q291.3125,252.3886 291.3125,254.4824 Q291.3125,256.5761 292,257.6543 Q292.6875,258.7168 294.0313,258.7168 Q294.6563,258.7168 295.25,258.4511 Q295.8438,258.1699 296.4688,257.5918 L296.4688,260.3105 Z " fill="#000000"/>
        <text fill="#000000" font-family="sans-serif" font-size="14" lengthAdjust="spacing" textLength="55.0198" x="307.5" y="260.1019">package</text>
        <line style="stroke:#181818;stroke-width:0.5;" x1="279.5" x2="364.5198" y1="270.6699" y2="270.6699"/>
        <line style="stroke:#181818;stroke-width:0.5;" x1="279.5" x2="364.5198" y1="278.6699" y2="278.6699"/>
      </g>
    </a>
    <g id="link_C_0015066935078142509054_C_0007129669985754476498">
      <path codeLine="18" d="M217.55,178.6699 C207.22,196.3299 202.1104,205.074 191.7304,222.814 " fill="transparent" id="C_0015066935078142509054-to-C_0007129669985754476498" style="stroke:#181818;stroke-width:1;stroke-dasharray:7.0,7.0;"/>
      <polygon fill="transparent" points="182.64,238.3499,196.909,225.8441,186.5517,219.7838,182.64,238.3499" style="stroke:#181818;stroke-width:1;"/>
    </g>
    <g id="link_C_0015066935078142509054_C_0017146293478645494837">
      <path codeLine="19" d="M262.47,192.3316 C277.62,209.9916 286.75,220.6099 301.98,238.3499 " fill="transparent" id="C_0015066935078142509054-backto-C_0017146293478645494837" style="stroke:#181818;stroke-width:1;"/>
      <polygon fill="transparent" points="250.75,178.6699,257.9161,196.2383,267.0239,188.4249,250.75,178.6699" style="stroke:#181818;stroke-width:1;"/>
    </g>
  </g>
</svg>
