<svg xmlns="http://www.w3.org/2000/svg" xmlns:xlink="http://www.w3.org/1999/xlink" contentScriptType="application/ecmascript" contentStyleType="text/css" height="411px" preserveAspectRatio="none" style="width:973px;height:411px;" version="1.1" viewBox="0 0 973 411" width="973px" zoomAndPan="magnify">
  <defs>
    <filter height="300%" id="fpsvlgf9fwfog" width="300%" x="-1" y="-1">
      <feGaussianBlur result="blurOut" stdDeviation="2.0"/>
      <feColorMatrix in="blurOut" result="blurOut2" type="matrix" values="0 0 0 0 0 0 0 0 0 0 0 0 0 0 0 0 0 0 .4 0"/>
      <feOffset dx="4.0" dy="4.0" in="blurOut2" result="blurOut3"/>
      <feBlend in="SourceGraphic" in2="blurOut3" mode="normal"/>
    </filter>
    <style type="text/css">a:hover { text-decoration: underline; }</style>
  </defs>
  <g>
    <text fill="#000000" font-family="sans-serif" font-size="18" lengthAdjust="spacingAndGlyphs" textLength="286" x="345.5" y="16.708">Package diagram class hierarchy</text>
    <a href="classclanguml_1_1common_1_1model_1_1decorated__element.html" target="_top" title="Base class for decorated diagram elements" xlink:actuate="onRequest" xlink:href="classclanguml_1_1common_1_1model_1_1decorated__element.html" xlink:show="new" xlink:title="Base class for decorated diagram elements" xlink:type="simple">
      <rect fill="#FEFECE" filter="url(#fpsvlgf9fwfog)" height="48" id="C_0008936819060997384951" style="stroke: #A80036; stroke-width: 1.5;" width="261" x="6" y="28.9531"/>
      <ellipse cx="21" cy="44.9531" fill="#ADD1B2" rx="11" ry="11" style="stroke: #A80036; stroke-width: 1.0;"/>
      <path d="M23.9688,50.5938 Q23.3906,50.8906 22.75,51.0313 Q22.1094,51.1875 21.4063,51.1875 Q18.9063,51.1875 17.5781,49.5469 Q16.2656,47.8906 16.2656,44.7656 Q16.2656,41.6406 17.5781,39.9844 Q18.9063,38.3281 21.4063,38.3281 Q22.1094,38.3281 22.75,38.4844 Q23.4063,38.6406 23.9688,38.9375 L23.9688,41.6563 Q23.3438,41.0781 22.75,40.8125 Q22.1563,40.5313 21.5313,40.5313 Q20.1875,40.5313 19.5,41.6094 Q18.8125,42.6719 18.8125,44.7656 Q18.8125,46.8594 19.5,47.9375 Q20.1875,49 21.5313,49 Q22.1563,49 22.75,48.7344 Q23.3438,48.4531 23.9688,47.875 L23.9688,50.5938 Z "/>
      <text fill="#000000" font-family="sans-serif" font-size="12" lengthAdjust="spacingAndGlyphs" textLength="229" x="35" y="49.1074">common::model::decorated_element</text>
      <line style="stroke: #A80036; stroke-width: 1.5;" x1="7" x2="266" y1="60.9531" y2="60.9531"/>
      <line style="stroke: #A80036; stroke-width: 1.5;" x1="7" x2="266" y1="68.9531" y2="68.9531"/>
    </a>
    <a href="classclanguml_1_1common_1_1model_1_1stylable__element.html" target="_top" title="Diagram elements to which style can be applied." xlink:actuate="onRequest" xlink:href="classclanguml_1_1common_1_1model_1_1stylable__element.html" xlink:show="new" xlink:title="Diagram elements to which style can be applied." xlink:type="simple">
      <rect fill="#FEFECE" filter="url(#fpsvlgf9fwfog)" height="48" id="C_0016622768607835415521" style="stroke: #A80036; stroke-width: 1.5;" width="244" x="408.5" y="244.9531"/>
      <ellipse cx="423.5" cy="260.9531" fill="#ADD1B2" rx="11" ry="11" style="stroke: #A80036; stroke-width: 1.0;"/>
      <path d="M426.4688,266.5938 Q425.8906,266.8906 425.25,267.0313 Q424.6094,267.1875 423.9063,267.1875 Q421.4063,267.1875 420.0781,265.5469 Q418.7656,263.8906 418.7656,260.7656 Q418.7656,257.6406 420.0781,255.9844 Q421.4063,254.3281 423.9063,254.3281 Q424.6094,254.3281 425.25,254.4844 Q425.9063,254.6406 426.4688,254.9375 L426.4688,257.6563 Q425.8438,257.0781 425.25,256.8125 Q424.6563,256.5313 424.0313,256.5313 Q422.6875,256.5313 422,257.6094 Q421.3125,258.6719 421.3125,260.7656 Q421.3125,262.8594 422,263.9375 Q422.6875,265 424.0313,265 Q424.6563,265 425.25,264.7344 Q425.8438,264.4531 426.4688,263.875 L426.4688,266.5938 Z "/>
      <text fill="#000000" font-family="sans-serif" font-size="12" lengthAdjust="spacingAndGlyphs" textLength="212" x="437.5" y="265.1074">common::model::stylable_element</text>
      <line style="stroke: #A80036; stroke-width: 1.5;" x1="409.5" x2="651.5" y1="276.9531" y2="276.9531"/>
      <line style="stroke: #A80036; stroke-width: 1.5;" x1="409.5" x2="651.5" y1="284.9531" y2="284.9531"/>
    </a>
    <a href="classclanguml_1_1common_1_1model_1_1source__location.html" target="_top" title="Base class of all diagram elements that have source location." xlink:actuate="onRequest" xlink:href="classclanguml_1_1common_1_1model_1_1source__location.html" xlink:show="new" xlink:title="Base class of all diagram elements that have source location." xlink:type="simple">
      <rect fill="#FEFECE" filter="url(#fpsvlgf9fwfog)" height="48" id="C_0007162092657467521843" style="stroke: #A80036; stroke-width: 1.5;" width="238" x="302.5" y="28.9531"/>
      <ellipse cx="317.5" cy="44.9531" fill="#ADD1B2" rx="11" ry="11" style="stroke: #A80036; stroke-width: 1.0;"/>
      <path d="M320.4688,50.5938 Q319.8906,50.8906 319.25,51.0313 Q318.6094,51.1875 317.9063,51.1875 Q315.4063,51.1875 314.0781,49.5469 Q312.7656,47.8906 312.7656,44.7656 Q312.7656,41.6406 314.0781,39.9844 Q315.4063,38.3281 317.9063,38.3281 Q318.6094,38.3281 319.25,38.4844 Q319.9063,38.6406 320.4688,38.9375 L320.4688,41.6563 Q319.8438,41.0781 319.25,40.8125 Q318.6563,40.5313 318.0313,40.5313 Q316.6875,40.5313 316,41.6094 Q315.3125,42.6719 315.3125,44.7656 Q315.3125,46.8594 316,47.9375 Q316.6875,49 318.0313,49 Q318.6563,49 319.25,48.7344 Q319.8438,48.4531 320.4688,47.875 L320.4688,50.5938 Z "/>
      <text fill="#000000" font-family="sans-serif" font-size="12" lengthAdjust="spacingAndGlyphs" textLength="206" x="331.5" y="49.1074">common::model::source_location</text>
      <line style="stroke: #A80036; stroke-width: 1.5;" x1="303.5" x2="539.5" y1="60.9531" y2="60.9531"/>
      <line style="stroke: #A80036; stroke-width: 1.5;" x1="303.5" x2="539.5" y1="68.9531" y2="68.9531"/>
    </a>
    <a href="classclanguml_1_1common_1_1model_1_1diagram__element.html" target="_top" title="Base class for standalone diagram elements." xlink:actuate="onRequest" xlink:href="classclanguml_1_1common_1_1model_1_1diagram__element.html" xlink:show="new" xlink:title="Base class for standalone diagram elements." xlink:type="simple">
      <rect fill="#FEFECE" filter="url(#fpsvlgf9fwfog)" height="48" id="C_0008588005715032923314" style="stroke: #A80036; stroke-width: 1.5;" width="247" x="155" y="136.9531"/>
      <ellipse cx="170" cy="152.9531" fill="#ADD1B2" rx="11" ry="11" style="stroke: #A80036; stroke-width: 1.0;"/>
      <path d="M172.9688,158.5938 Q172.3906,158.8906 171.75,159.0313 Q171.1094,159.1875 170.4063,159.1875 Q167.9063,159.1875 166.5781,157.5469 Q165.2656,155.8906 165.2656,152.7656 Q165.2656,149.6406 166.5781,147.9844 Q167.9063,146.3281 170.4063,146.3281 Q171.1094,146.3281 171.75,146.4844 Q172.4063,146.6406 172.9688,146.9375 L172.9688,149.6563 Q172.3438,149.0781 171.75,148.8125 Q171.1563,148.5313 170.5313,148.5313 Q169.1875,148.5313 168.5,149.6094 Q167.8125,150.6719 167.8125,152.7656 Q167.8125,154.8594 168.5,155.9375 Q169.1875,157 170.5313,157 Q171.1563,157 171.75,156.7344 Q172.3438,156.4531 172.9688,155.875 L172.9688,158.5938 Z "/>
      <text fill="#000000" font-family="sans-serif" font-size="12" lengthAdjust="spacingAndGlyphs" textLength="215" x="184" y="157.1074">common::model::diagram_element</text>
      <line style="stroke: #A80036; stroke-width: 1.5;" x1="156" x2="401" y1="168.9531" y2="168.9531"/>
      <line style="stroke: #A80036; stroke-width: 1.5;" x1="156" x2="401" y1="176.9531" y2="176.9531"/>
    </a>
    <a href="classclanguml_1_1common_1_1model_1_1element.html" target="_top" title="Base class for any element qualified by namespace." xlink:actuate="onRequest" xlink:href="classclanguml_1_1common_1_1model_1_1element.html" xlink:show="new" xlink:title="Base class for any element qualified by namespace." xlink:type="simple">
      <rect fill="#FEFECE" filter="url(#fpsvlgf9fwfog)" height="48" id="C_0016556163051475263500" style="stroke: #A80036; stroke-width: 1.5;" width="190" x="183.5" y="244.9531"/>
      <ellipse cx="198.5" cy="260.9531" fill="#ADD1B2" rx="11" ry="11" style="stroke: #A80036; stroke-width: 1.0;"/>
      <path d="M201.4688,266.5938 Q200.8906,266.8906 200.25,267.0313 Q199.6094,267.1875 198.9063,267.1875 Q196.4063,267.1875 195.0781,265.5469 Q193.7656,263.8906 193.7656,260.7656 Q193.7656,257.6406 195.0781,255.9844 Q196.4063,254.3281 198.9063,254.3281 Q199.6094,254.3281 200.25,254.4844 Q200.9063,254.6406 201.4688,254.9375 L201.4688,257.6563 Q200.8438,257.0781 200.25,256.8125 Q199.6563,256.5313 199.0313,256.5313 Q197.6875,256.5313 197,257.6094 Q196.3125,258.6719 196.3125,260.7656 Q196.3125,262.8594 197,263.9375 Q197.6875,265 199.0313,265 Q199.6563,265 200.25,264.7344 Q200.8438,264.4531 201.4688,263.875 L201.4688,266.5938 Z "/>
      <text fill="#000000" font-family="sans-serif" font-size="12" lengthAdjust="spacingAndGlyphs" textLength="158" x="212.5" y="265.1074">common::model::element</text>
      <line style="stroke: #A80036; stroke-width: 1.5;" x1="184.5" x2="372.5" y1="276.9531" y2="276.9531"/>
      <line style="stroke: #A80036; stroke-width: 1.5;" x1="184.5" x2="372.5" y1="284.9531" y2="284.9531"/>
    </a>
    <a href="classclanguml_1_1common_1_1model_1_1nested__trait.html" target="_top" title="nested_trait" xlink:actuate="onRequest" xlink:href="classclanguml_1_1common_1_1model_1_1nested__trait.html" xlink:show="new" xlink:title="nested_trait" xlink:type="simple">
      <rect fill="#FEFECE" filter="url(#fpsvlgf9fwfog)" height="48" id="C_0015066935078142509054" style="stroke: #A80036; stroke-width: 1.5;" width="517" x="442" y="136.9531"/>
      <ellipse cx="457" cy="152.9531" fill="#ADD1B2" rx="11" ry="11" style="stroke: #A80036; stroke-width: 1.0;"/>
      <path d="M459.9688,158.5938 Q459.3906,158.8906 458.75,159.0313 Q458.1094,159.1875 457.4063,159.1875 Q454.9063,159.1875 453.5781,157.5469 Q452.2656,155.8906 452.2656,152.7656 Q452.2656,149.6406 453.5781,147.9844 Q454.9063,146.3281 457.4063,146.3281 Q458.1094,146.3281 458.75,146.4844 Q459.4063,146.6406 459.9688,146.9375 L459.9688,149.6563 Q459.3438,149.0781 458.75,148.8125 Q458.1563,148.5313 457.5313,148.5313 Q456.1875,148.5313 455.5,149.6094 Q454.8125,150.6719 454.8125,152.7656 Q454.8125,154.8594 455.5,155.9375 Q456.1875,157 457.5313,157 Q458.1563,157 458.75,156.7344 Q459.3438,156.4531 459.9688,155.875 L459.9688,158.5938 Z "/>
      <text fill="#000000" font-family="sans-serif" font-size="12" lengthAdjust="spacingAndGlyphs" textLength="183" x="471" y="157.1074">common::model::nested_trait</text>
      <rect fill="#FFFFFF" height="15.9688" style="stroke: #000000; stroke-width: 1.0; stroke-dasharray: 2.0,2.0;" width="300" x="662" y="133.9531"/>
      <text fill="#000000" font-family="sans-serif" font-size="12" font-style="italic" lengthAdjust="spacingAndGlyphs" textLength="298" x="663" y="146.0918">common::model::element,common::model::path</text>
      <line style="stroke: #A80036; stroke-width: 1.5;" x1="443" x2="958" y1="168.9531" y2="168.9531"/>
      <line style="stroke: #A80036; stroke-width: 1.5;" x1="443" x2="958" y1="176.9531" y2="176.9531"/>
    </a>
    <a href="classclanguml_1_1common_1_1model_1_1package.html" target="_top" title="Diagram element representing namespace or directory package" xlink:actuate="onRequest" xlink:href="classclanguml_1_1common_1_1model_1_1package.html" xlink:show="new" xlink:title="Diagram element representing namespace or directory package" xlink:type="simple">
      <rect fill="#FEFECE" filter="url(#fpsvlgf9fwfog)" height="48" id="C_0017146293478645494837" style="stroke: #A80036; stroke-width: 1.5;" width="193" x="434" y="352.9531"/>
      <ellipse cx="449" cy="368.9531" fill="#ADD1B2" rx="11" ry="11" style="stroke: #A80036; stroke-width: 1.0;"/>
      <path d="M451.9688,374.5938 Q451.3906,374.8906 450.75,375.0313 Q450.1094,375.1875 449.4063,375.1875 Q446.9063,375.1875 445.5781,373.5469 Q444.2656,371.8906 444.2656,368.7656 Q444.2656,365.6406 445.5781,363.9844 Q446.9063,362.3281 449.4063,362.3281 Q450.1094,362.3281 450.75,362.4844 Q451.4063,362.6406 451.9688,362.9375 L451.9688,365.6563 Q451.3438,365.0781 450.75,364.8125 Q450.1563,364.5313 449.5313,364.5313 Q448.1875,364.5313 447.5,365.6094 Q446.8125,366.6719 446.8125,368.7656 Q446.8125,370.8594 447.5,371.9375 Q448.1875,373 449.5313,373 Q450.1563,373 450.75,372.7344 Q451.3438,372.4531 451.9688,371.875 L451.9688,374.5938 Z "/>
      <text fill="#000000" font-family="sans-serif" font-size="12" lengthAdjust="spacingAndGlyphs" textLength="161" x="463" y="373.1074">common::model::package</text>
      <line style="stroke: #A80036; stroke-width: 1.5;" x1="435" x2="626" y1="384.9531" y2="384.9531"/>
      <line style="stroke: #A80036; stroke-width: 1.5;" x1="435" x2="626" y1="392.9531" y2="392.9531"/>
    </a>
    <path d="M183.61,89.1231 C204.54,104.7431 228.6,122.7031 247.26,136.6331 " fill="none" id="C_0008936819060997384951&lt;-C_0008588005715032923314" style="stroke: #A80036; stroke-width: 1.0;"/>
    <polygon fill="none" points="179.15,94.5231,167.31,76.9531,187.53,83.3031,179.15,94.5231" style="stroke: #A80036; stroke-width: 1.0;"/>
    <path d="M374.37,88.8931 C353.22,104.5631 328.84,122.6331 309.96,136.6331 " fill="none" id="C_0007162092657467521843&lt;-C_0008588005715032923314" style="stroke: #A80036; stroke-width: 1.0;"/>
    <polygon fill="none" points="370.24,83.2431,390.47,76.9531,378.57,94.4831,370.24,83.2431" style="stroke: #A80036; stroke-width: 1.0;"/>
    <path d="M278.5,204.9731 C278.5,218.5331 278.5,232.9931 278.5,244.6331 " fill="none" id="C_0008588005715032923314&lt;-C_0016556163051475263500" style="stroke: #A80036; stroke-width: 1.0;"/>
    <polygon fill="none" points="271.5,204.9531,278.5,184.9531,285.5,204.9531,271.5,204.9531" style="stroke: #A80036; stroke-width: 1.0;"/>
    <path d="M608.93,184.9531 C539.93,202.2831 445.51,226.0031 375.27,243.6431 " fill="none" id="C_0015066935078142509054-&gt;C_0016556163051475263500" style="stroke: #A80036; stroke-width: 1.0; stroke-dasharray: 7.0,7.0;"/>
    <polygon fill="#A80036" points="370.25,244.9031,379.9526,246.5941,375.0999,243.6871,378.0069,238.8343,370.25,244.9031" style="stroke: #A80036; stroke-width: 1.0;"/>
    <path d="M351.8,300.7831 C391.3,317.4031 439.22,337.5531 475.49,352.8131 " fill="none" id="C_0016556163051475263500&lt;-C_0017146293478645494837" style="stroke: #A80036; stroke-width: 1.0;"/>
    <polygon fill="none" points="348.9,307.1631,333.18,292.9531,354.33,294.2531,348.9,307.1631" style="stroke: #A80036; stroke-width: 1.0;"/>
    <path d="M530.5,312.9731 C530.5,326.5331 530.5,340.9931 530.5,352.6331 " fill="none" id="C_0016622768607835415521&lt;-C_0017146293478645494837" style="stroke: #A80036; stroke-width: 1.0;"/>
    <polygon fill="none" points="523.5,312.9531,530.5,292.9531,537.5,312.9531,523.5,312.9531" style="stroke: #A80036; stroke-width: 1.0;"/>
    <path d="M698.77,205.0731 C695.74,232.5031 688.14,267.5131 669.5,292.9531 C649.9,319.7031 618.83,339.4331 591.04,352.9231 " fill="none" id="C_0015066935078142509054&lt;-C_0017146293478645494837" style="stroke: #A80036; stroke-width: 1.0;"/>
    <polygon fill="none" points="691.79,204.4231,700.33,185.0231,705.75,205.5131,691.79,204.4231" style="stroke: #A80036; stroke-width: 1.0;"/>
  </g>
</svg>
