<svg xmlns="http://www.w3.org/2000/svg" xmlns:xlink="http://www.w3.org/1999/xlink" contentStyleType="text/css" height="429px" preserveAspectRatio="none" style="width:1416px;height:429px;background:#FFFFFF;" version="1.1" viewBox="0 0 1416 429" width="1416px" zoomAndPan="magnify">
  <title>Package diagram class hierarchy</title>
  <defs>
    <style type="text/css">a:hover { text-decoration: underline; }</style>
  </defs>
  <g>
    <text fill="#000000" font-family="sans-serif" font-size="14" font-weight="bold" lengthAdjust="spacing" textLength="229.7531" x="586.6151" y="24.9659">Package diagram class hierarchy</text>
    <a href="classclanguml_1_1common_1_1model_1_1decorated__element.html" target="_top" title="Base class for decorated diagram elements" xlink:actuate="onRequest" xlink:href="classclanguml_1_1common_1_1model_1_1decorated__element.html" xlink:show="new" xlink:title="Base class for decorated diagram elements" xlink:type="simple">
      <g id="elem_C_0008936819060997384951">
        <rect codeLine="3" fill="#F1F1F1" height="48" id="C_0008936819060997384951" rx="2.5" ry="2.5" style="stroke:#181818;stroke-width:0.5;" width="274.3811" x="7" y="50.0839"/>
        <ellipse cx="22" cy="66.0839" fill="#ADD1B2" rx="11" ry="11" style="stroke:#181818;stroke-width:1.0;"/>
        <path d="M24.9688,71.7246 Q24.3906,72.0214 23.75,72.1621 Q23.1094,72.3183 22.4063,72.3183 Q19.9063,72.3183 18.5781,70.6777 Q17.2656,69.0214 17.2656,65.8964 Q17.2656,62.7714 18.5781,61.1152 Q19.9063,59.4589 22.4063,59.4589 Q23.1094,59.4589 23.75,59.6152 Q24.4063,59.7714 24.9688,60.0683 L24.9688,62.7871 Q24.3438,62.2089 23.75,61.9433 Q23.1563,61.6621 22.5313,61.6621 Q21.1875,61.6621 20.5,62.7402 Q19.8125,63.8027 19.8125,65.8964 Q19.8125,67.9902 20.5,69.0683 Q21.1875,70.1308 22.5313,70.1308 Q23.1563,70.1308 23.75,69.8652 Q24.3438,69.5839 24.9688,69.0058 L24.9688,71.7246 Z " fill="#000000"/>
        <text fill="#000000" font-family="sans-serif" font-size="14" lengthAdjust="spacing" textLength="242.3811" x="36" y="71.5159">common::model::decorated_element</text>
        <line style="stroke:#181818;stroke-width:0.5;" x1="8" x2="280.3811" y1="82.0839" y2="82.0839"/>
        <line style="stroke:#181818;stroke-width:0.5;" x1="8" x2="280.3811" y1="90.0839" y2="90.0839"/>
      </g>
    </a>
    <a href="classclanguml_1_1common_1_1model_1_1stylable__element.html" target="_top" title="Diagram elements to which style can be applied." xlink:actuate="onRequest" xlink:href="classclanguml_1_1common_1_1model_1_1stylable__element.html" xlink:show="new" xlink:title="Diagram elements to which style can be applied." xlink:type="simple">
      <g id="elem_C_0016622768607835415521">
        <rect codeLine="7" fill="#F1F1F1" height="48" id="C_0016622768607835415521" rx="2.5" ry="2.5" style="stroke:#181818;stroke-width:0.5;" width="257.9731" x="755" y="266.0839"/>
        <ellipse cx="770" cy="282.0839" fill="#ADD1B2" rx="11" ry="11" style="stroke:#181818;stroke-width:1.0;"/>
        <path d="M772.9688,287.7246 Q772.3906,288.0214 771.75,288.1621 Q771.1094,288.3183 770.4063,288.3183 Q767.9063,288.3183 766.5781,286.6777 Q765.2656,285.0214 765.2656,281.8964 Q765.2656,278.7714 766.5781,277.1152 Q767.9063,275.4589 770.4063,275.4589 Q771.1094,275.4589 771.75,275.6152 Q772.4063,275.7714 772.9688,276.0683 L772.9688,278.7871 Q772.3438,278.2089 771.75,277.9433 Q771.1563,277.6621 770.5313,277.6621 Q769.1875,277.6621 768.5,278.7402 Q767.8125,279.8027 767.8125,281.8964 Q767.8125,283.9902 768.5,285.0683 Q769.1875,286.1308 770.5313,286.1308 Q771.1563,286.1308 771.75,285.8652 Q772.3438,285.5839 772.9688,285.0058 L772.9688,287.7246 Z " fill="#000000"/>
        <text fill="#000000" font-family="sans-serif" font-size="14" lengthAdjust="spacing" textLength="225.9731" x="784" y="287.5159">common::model::stylable_element</text>
        <line style="stroke:#181818;stroke-width:0.5;" x1="756" x2="1011.9731" y1="298.0839" y2="298.0839"/>
        <line style="stroke:#181818;stroke-width:0.5;" x1="756" x2="1011.9731" y1="306.0839" y2="306.0839"/>
      </g>
    </a>
    <a href="classclanguml_1_1common_1_1model_1_1source__location.html" target="_top" title="Base class of all diagram elements that have source location." xlink:actuate="onRequest" xlink:href="classclanguml_1_1common_1_1model_1_1source__location.html" xlink:show="new" xlink:title="Base class of all diagram elements that have source location." xlink:type="simple">
      <g id="elem_C_0007162092657467521843">
        <rect codeLine="11" fill="#F1F1F1" height="48" id="C_0007162092657467521843" rx="2.5" ry="2.5" style="stroke:#181818;stroke-width:0.5;" width="250.0632" x="316" y="50.0839"/>
        <ellipse cx="331" cy="66.0839" fill="#ADD1B2" rx="11" ry="11" style="stroke:#181818;stroke-width:1.0;"/>
        <path d="M333.9688,71.7246 Q333.3906,72.0214 332.75,72.1621 Q332.1094,72.3183 331.4063,72.3183 Q328.9063,72.3183 327.5781,70.6777 Q326.2656,69.0214 326.2656,65.8964 Q326.2656,62.7714 327.5781,61.1152 Q328.9063,59.4589 331.4063,59.4589 Q332.1094,59.4589 332.75,59.6152 Q333.4063,59.7714 333.9688,60.0683 L333.9688,62.7871 Q333.3438,62.2089 332.75,61.9433 Q332.1563,61.6621 331.5313,61.6621 Q330.1875,61.6621 329.5,62.7402 Q328.8125,63.8027 328.8125,65.8964 Q328.8125,67.9902 329.5,69.0683 Q330.1875,70.1308 331.5313,70.1308 Q332.1563,70.1308 332.75,69.8652 Q333.3438,69.5839 333.9688,69.0058 L333.9688,71.7246 Z " fill="#000000"/>
        <text fill="#000000" font-family="sans-serif" font-size="14" lengthAdjust="spacing" textLength="218.0632" x="345" y="71.5159">common::model::source_location</text>
        <line style="stroke:#181818;stroke-width:0.5;" x1="317" x2="565.0632" y1="82.0839" y2="82.0839"/>
        <line style="stroke:#181818;stroke-width:0.5;" x1="317" x2="565.0632" y1="90.0839" y2="90.0839"/>
      </g>
    </a>
    <a href="classclanguml_1_1common_1_1model_1_1diagram__element.html" target="_top" title="Base class for standalone diagram elements." xlink:actuate="onRequest" xlink:href="classclanguml_1_1common_1_1model_1_1diagram__element.html" xlink:show="new" xlink:title="Base class for standalone diagram elements." xlink:type="simple">
      <g id="elem_C_0008588005715032923314">
        <rect codeLine="15" fill="#F1F1F1" height="48" id="C_0008588005715032923314" rx="2.5" ry="2.5" style="stroke:#181818;stroke-width:0.5;" width="262.9011" x="487.5" y="158.0839"/>
        <ellipse cx="502.5" cy="174.0839" fill="#ADD1B2" rx="11" ry="11" style="stroke:#181818;stroke-width:1.0;"/>
        <path d="M505.4688,179.7246 Q504.8906,180.0214 504.25,180.1621 Q503.6094,180.3183 502.9063,180.3183 Q500.4063,180.3183 499.0781,178.6777 Q497.7656,177.0214 497.7656,173.8964 Q497.7656,170.7714 499.0781,169.1152 Q500.4063,167.4589 502.9063,167.4589 Q503.6094,167.4589 504.25,167.6152 Q504.9063,167.7714 505.4688,168.0683 L505.4688,170.7871 Q504.8438,170.2089 504.25,169.9433 Q503.6563,169.6621 503.0313,169.6621 Q501.6875,169.6621 501,170.7402 Q500.3125,171.8027 500.3125,173.8964 Q500.3125,175.9902 501,177.0683 Q501.6875,178.1308 503.0313,178.1308 Q503.6563,178.1308 504.25,177.8652 Q504.8438,177.5839 505.4688,177.0058 L505.4688,179.7246 Z " fill="#000000"/>
        <text fill="#000000" font-family="sans-serif" font-size="14" lengthAdjust="spacing" textLength="230.9011" x="516.5" y="179.5159">common::model::diagram_element</text>
        <line style="stroke:#181818;stroke-width:0.5;" x1="488.5" x2="749.4011" y1="190.0839" y2="190.0839"/>
        <line style="stroke:#181818;stroke-width:0.5;" x1="488.5" x2="749.4011" y1="198.0839" y2="198.0839"/>
      </g>
    </a>
    <a href="classclanguml_1_1common_1_1model_1_1element.html" target="_top" title="Base class for any element qualified by namespace." xlink:actuate="onRequest" xlink:href="classclanguml_1_1common_1_1model_1_1element.html" xlink:show="new" xlink:title="Base class for any element qualified by namespace." xlink:type="simple">
      <g id="elem_C_0016556163051475263500">
        <rect codeLine="19" fill="#F1F1F1" height="48" id="C_0016556163051475263500" rx="2.5" ry="2.5" style="stroke:#181818;stroke-width:0.5;" width="201.2733" x="518.5" y="266.0839"/>
        <ellipse cx="533.5" cy="282.0839" fill="#ADD1B2" rx="11" ry="11" style="stroke:#181818;stroke-width:1.0;"/>
        <path d="M536.4688,287.7246 Q535.8906,288.0214 535.25,288.1621 Q534.6094,288.3183 533.9063,288.3183 Q531.4063,288.3183 530.0781,286.6777 Q528.7656,285.0214 528.7656,281.8964 Q528.7656,278.7714 530.0781,277.1152 Q531.4063,275.4589 533.9063,275.4589 Q534.6094,275.4589 535.25,275.6152 Q535.9063,275.7714 536.4688,276.0683 L536.4688,278.7871 Q535.8438,278.2089 535.25,277.9433 Q534.6563,277.6621 534.0313,277.6621 Q532.6875,277.6621 532,278.7402 Q531.3125,279.8027 531.3125,281.8964 Q531.3125,283.9902 532,285.0683 Q532.6875,286.1308 534.0313,286.1308 Q534.6563,286.1308 535.25,285.8652 Q535.8438,285.5839 536.4688,285.0058 L536.4688,287.7246 Z " fill="#000000"/>
        <text fill="#000000" font-family="sans-serif" font-size="14" lengthAdjust="spacing" textLength="169.2733" x="547.5" y="287.5159">common::model::element</text>
        <line style="stroke:#181818;stroke-width:0.5;" x1="519.5" x2="718.7733" y1="298.0839" y2="298.0839"/>
        <line style="stroke:#181818;stroke-width:0.5;" x1="519.5" x2="718.7733" y1="306.0839" y2="306.0839"/>
      </g>
    </a>
    <a href="classclanguml_1_1common_1_1model_1_1nested__trait.html" target="_top" title="nested_trait" xlink:actuate="onRequest" xlink:href="classclanguml_1_1common_1_1model_1_1nested__trait.html" xlink:show="new" xlink:title="nested_trait" xlink:type="simple">
      <g id="elem_C_0015066935078142509054">
        <rect codeLine="23" fill="#F1F1F1" height="48" id="C_0015066935078142509054" rx="2.5" ry="2.5" style="stroke:#181818;stroke-width:0.5;" width="484.769" x="804.5" y="158.0839"/>
        <ellipse cx="819.5" cy="174.0839" fill="#ADD1B2" rx="11" ry="11" style="stroke:#181818;stroke-width:1.0;"/>
        <path d="M822.4688,179.7246 Q821.8906,180.0214 821.25,180.1621 Q820.6094,180.3183 819.9063,180.3183 Q817.4063,180.3183 816.0781,178.6777 Q814.7656,177.0214 814.7656,173.8964 Q814.7656,170.7714 816.0781,169.1152 Q817.4063,167.4589 819.9063,167.4589 Q820.6094,167.4589 821.25,167.6152 Q821.9063,167.7714 822.4688,168.0683 L822.4688,170.7871 Q821.8438,170.2089 821.25,169.9433 Q820.6563,169.6621 820.0313,169.6621 Q818.6875,169.6621 818,170.7402 Q817.3125,171.8027 817.3125,173.8964 Q817.3125,175.9902 818,177.0683 Q818.6875,178.1308 820.0313,178.1308 Q820.6563,178.1308 821.25,177.8652 Q821.8438,177.5839 822.4688,177.0058 L822.4688,179.7246 Z " fill="#000000"/>
        <text fill="#000000" font-family="sans-serif" font-size="14" lengthAdjust="spacing" textLength="193.5633" x="833.5" y="179.5159">common::model::nested_trait</text>
        <rect fill="#FFFFFF" height="18.3441" style="stroke:#181818;stroke-width:1.0;stroke-dasharray:2.0,2.0;" width="257.2057" x="1035.0633" y="155.0839"/>
        <text fill="#000000" font-family="sans-serif" font-size="12" font-style="italic" lengthAdjust="spacing" textLength="255.2057" x="1036.0633" y="168.912">common::model::element,common::model::path</text>
        <line style="stroke:#181818;stroke-width:0.5;" x1="805.5" x2="1288.269" y1="190.0839" y2="190.0839"/>
        <line style="stroke:#181818;stroke-width:0.5;" x1="805.5" x2="1288.269" y1="198.0839" y2="198.0839"/>
      </g>
    </a>
    <a href="classclanguml_1_1common_1_1model_1_1package.html" target="_top" title="Diagram element representing namespace or directory package" xlink:actuate="onRequest" xlink:href="classclanguml_1_1common_1_1model_1_1package.html" xlink:show="new" xlink:title="Diagram element representing namespace or directory package" xlink:type="simple">
      <g id="elem_C_0017146293478645494837">
        <rect codeLine="27" fill="#F1F1F1" height="48" id="C_0017146293478645494837" rx="2.5" ry="2.5" style="stroke:#181818;stroke-width:0.5;" width="202.1973" x="783" y="374.0839"/>
        <ellipse cx="798" cy="390.0839" fill="#ADD1B2" rx="11" ry="11" style="stroke:#181818;stroke-width:1.0;"/>
        <path d="M800.9688,395.7246 Q800.3906,396.0214 799.75,396.1621 Q799.1094,396.3183 798.4063,396.3183 Q795.9063,396.3183 794.5781,394.6777 Q793.2656,393.0214 793.2656,389.8964 Q793.2656,386.7714 794.5781,385.1152 Q795.9063,383.4589 798.4063,383.4589 Q799.1094,383.4589 799.75,383.6152 Q800.4063,383.7714 800.9688,384.0683 L800.9688,386.7871 Q800.3438,386.2089 799.75,385.9433 Q799.1563,385.6621 798.5313,385.6621 Q797.1875,385.6621 796.5,386.7402 Q795.8125,387.8027 795.8125,389.8964 Q795.8125,391.9902 796.5,393.0683 Q797.1875,394.1308 798.5313,394.1308 Q799.1563,394.1308 799.75,393.8652 Q800.3438,393.5839 800.9688,393.0058 L800.9688,395.7246 Z " fill="#000000"/>
        <text fill="#000000" font-family="sans-serif" font-size="14" lengthAdjust="spacing" textLength="170.1973" x="812" y="395.5159">common::model::package</text>
        <line style="stroke:#181818;stroke-width:0.5;" x1="784" x2="984.1973" y1="406.0839" y2="406.0839"/>
        <line style="stroke:#181818;stroke-width:0.5;" x1="784" x2="984.1973" y1="414.0839" y2="414.0839"/>
      </g>
    </a>
    <a href="classclanguml_1_1util_1_1memoized.html" target="_top" title="memoized" xlink:actuate="onRequest" xlink:href="classclanguml_1_1util_1_1memoized.html" xlink:show="new" xlink:title="memoized" xlink:type="simple">
      <g id="elem_C_0015453306866783002016">
        <rect codeLine="31" fill="#F1F1F1" height="48" id="C_0015453306866783002016" rx="2.5" ry="2.5" style="stroke:#181818;stroke-width:0.5;" width="392.2074" x="601" y="50.0839"/>
        <ellipse cx="616" cy="66.0839" fill="#ADD1B2" rx="11" ry="11" style="stroke:#181818;stroke-width:1.0;"/>
        <path d="M618.9688,71.7246 Q618.3906,72.0214 617.75,72.1621 Q617.1094,72.3183 616.4063,72.3183 Q613.9063,72.3183 612.5781,70.6777 Q611.2656,69.0214 611.2656,65.8964 Q611.2656,62.7714 612.5781,61.1152 Q613.9063,59.4589 616.4063,59.4589 Q617.1094,59.4589 617.75,59.6152 Q618.4063,59.7714 618.9688,60.0683 L618.9688,62.7871 Q618.3438,62.2089 617.75,61.9433 Q617.1563,61.6621 616.5313,61.6621 Q615.1875,61.6621 614.5,62.7402 Q613.8125,63.8027 613.8125,65.8964 Q613.8125,67.9902 614.5,69.0683 Q615.1875,70.1308 616.5313,70.1308 Q617.1563,70.1308 617.75,69.8652 Q618.3438,69.5839 618.9688,69.0058 L618.9688,71.7246 Z " fill="#000000"/>
        <text fill="#000000" font-family="sans-serif" font-size="14" lengthAdjust="spacing" textLength="97.6776" x="630" y="71.5159">util::memoized</text>
        <rect fill="#FFFFFF" height="18.3441" style="stroke:#181818;stroke-width:1.0;stroke-dasharray:2.0,2.0;" width="260.5298" x="735.6776" y="47.0839"/>
        <text fill="#000000" font-family="sans-serif" font-size="12" font-style="italic" lengthAdjust="spacing" textLength="258.5298" x="736.6776" y="60.912">common::model::full_name_tag_t,std::string,bool</text>
        <line style="stroke:#181818;stroke-width:0.5;" x1="602" x2="992.2074" y1="82.0839" y2="82.0839"/>
        <line style="stroke:#181818;stroke-width:0.5;" x1="602" x2="992.2074" y1="90.0839" y2="90.0839"/>
      </g>
    </a>
    <a href="classclanguml_1_1util_1_1memoized.html" target="_top" title="memoized" xlink:actuate="onRequest" xlink:href="classclanguml_1_1util_1_1memoized.html" xlink:show="new" xlink:title="memoized" xlink:type="simple">
      <g id="elem_C_0011142327304907631799">
        <rect codeLine="35" fill="#F1F1F1" height="48" id="C_0011142327304907631799" rx="2.5" ry="2.5" style="stroke:#181818;stroke-width:0.5;" width="377.4833" x="1028.5" y="50.0839"/>
        <ellipse cx="1043.5" cy="66.0839" fill="#ADD1B2" rx="11" ry="11" style="stroke:#181818;stroke-width:1.0;"/>
        <path d="M1046.4688,71.7246 Q1045.8906,72.0214 1045.25,72.1621 Q1044.6094,72.3183 1043.9063,72.3183 Q1041.4063,72.3183 1040.0781,70.6777 Q1038.7656,69.0214 1038.7656,65.8964 Q1038.7656,62.7714 1040.0781,61.1152 Q1041.4063,59.4589 1043.9063,59.4589 Q1044.6094,59.4589 1045.25,59.6152 Q1045.9063,59.7714 1046.4688,60.0683 L1046.4688,62.7871 Q1045.8438,62.2089 1045.25,61.9433 Q1044.6563,61.6621 1044.0313,61.6621 Q1042.6875,61.6621 1042,62.7402 Q1041.3125,63.8027 1041.3125,65.8964 Q1041.3125,67.9902 1042,69.0683 Q1042.6875,70.1308 1044.0313,70.1308 Q1044.6563,70.1308 1045.25,69.8652 Q1045.8438,69.5839 1046.4688,69.0058 L1046.4688,71.7246 Z " fill="#000000"/>
        <text fill="#000000" font-family="sans-serif" font-size="14" lengthAdjust="spacing" textLength="97.6776" x="1057.5" y="71.5159">util::memoized</text>
        <rect fill="#FFFFFF" height="18.3441" style="stroke:#181818;stroke-width:1.0;stroke-dasharray:2.0,2.0;" width="245.8057" x="1163.1776" y="47.0839"/>
        <text fill="#000000" font-family="sans-serif" font-size="12" font-style="italic" lengthAdjust="spacing" textLength="243.8057" x="1164.1776" y="60.912">common::model::name_and_ns_tag,std::string</text>
        <line style="stroke:#181818;stroke-width:0.5;" x1="1029.5" x2="1404.9833" y1="82.0839" y2="82.0839"/>
        <line style="stroke:#181818;stroke-width:0.5;" x1="1029.5" x2="1404.9833" y1="90.0839" y2="90.0839"/>
      </g>
    </a>
    <g id="link_C_0008936819060997384951_C_0008588005715032923314">
      <path codeLine="38" d="M264.6378,102.0048 C344.1678,119.7548 436.13,140.2739 515.72,158.0339 " fill="none" id="C_0008936819060997384951-backto-C_0008588005715032923314" style="stroke:#181818;stroke-width:1.0;"/>
      <polygon fill="none" points="247.07,98.0839,263.3308,107.8608,265.9447,96.1489,247.07,98.0839" style="stroke:#181818;stroke-width:1.0;"/>
    </g>
    <g id="link_C_0007162092657467521843_C_0008588005715032923314">
      <path codeLine="40" d="M495.086,107.2928 C524.846,125.0128 550.33,140.1939 580.15,157.9439 " fill="none" id="C_0007162092657467521843-backto-C_0008588005715032923314" style="stroke:#181818;stroke-width:1.0;"/>
      <polygon fill="none" points="479.62,98.0839,492.0163,112.4482,498.1556,102.1375,479.62,98.0839" style="stroke:#181818;stroke-width:1.0;"/>
    </g>
    <g id="link_C_0015453306866783002016_C_0008588005715032923314">
      <path codeLine="42" d="M742.914,107.2928 C713.154,125.0128 687.67,140.1939 657.85,157.9439 " fill="none" id="C_0015453306866783002016-backto-C_0008588005715032923314" style="stroke:#181818;stroke-width:1.0;"/>
      <polygon fill="none" points="758.38,98.0839,739.8444,102.1375,745.9837,112.4482,758.38,98.0839" style="stroke:#181818;stroke-width:1.0;"/>
    </g>
    <g id="link_C_0011142327304907631799_C_0008588005715032923314">
      <path codeLine="44" d="M1069.5161,101.2248 C969.2961,118.9848 848.98,140.3139 748.76,158.0839 " fill="none" id="C_0011142327304907631799-backto-C_0008588005715032923314" style="stroke:#181818;stroke-width:1.0;"/>
      <polygon fill="none" points="1087.24,98.0839,1068.4692,95.3168,1070.5631,107.1327,1087.24,98.0839" style="stroke:#181818;stroke-width:1.0;"/>
    </g>
    <g id="link_C_0008588005715032923314_C_0016556163051475263500">
      <path codeLine="46" d="M619,224.0839 C619,241.7439 619,248.0239 619,265.7639 " fill="none" id="C_0008588005715032923314-backto-C_0016556163051475263500" style="stroke:#181818;stroke-width:1.0;"/>
      <polygon fill="none" points="619,206.0839,613,224.0839,625,224.0839,619,206.0839" style="stroke:#181818;stroke-width:1.0;"/>
    </g>
    <g id="link_C_0015066935078142509054_C_0016556163051475263500">
      <path codeLine="48" d="M954.13,206.0839 C882.46,223.8339 789.594,246.8315 717.884,264.5915 " fill="none" id="C_0015066935078142509054-to-C_0016556163051475263500" style="stroke:#181818;stroke-width:1.0;stroke-dasharray:7.0,7.0;"/>
      <polygon fill="#181818" points="712.06,266.0339,721.7577,267.753,716.9134,264.8319,719.8345,259.9876,712.06,266.0339" style="stroke:#181818;stroke-width:1.0;"/>
    </g>
    <g id="link_C_0016556163051475263500_C_0017146293478645494837">
      <path codeLine="49" d="M693.2126,320.769 C737.5126,338.489 781.77,356.1939 826.15,373.9439 " fill="none" id="C_0016556163051475263500-backto-C_0017146293478645494837" style="stroke:#181818;stroke-width:1.0;"/>
      <polygon fill="none" points="676.5,314.0839,690.9842,326.3398,695.4409,315.1981,676.5,314.0839" style="stroke:#181818;stroke-width:1.0;"/>
    </g>
    <g id="link_C_0016622768607835415521_C_0017146293478645494837">
      <path codeLine="51" d="M884,332.0839 C884,349.7439 884,356.0239 884,373.7639 " fill="none" id="C_0016622768607835415521-backto-C_0017146293478645494837" style="stroke:#181818;stroke-width:1.0;"/>
      <polygon fill="none" points="884,314.0839,878,332.0839,890,332.0839,884,314.0839" style="stroke:#181818;stroke-width:1.0;"/>
    </g>
    <g id="link_C_0015066935078142509054_C_0017146293478645494837">
      <path codeLine="53" d="M1051.7069,224.4638 C1054.1869,252.4838 1052.64,281.7039 1031,314.0839 C1012.68,341.4939 982.07,360.8439 953.52,373.9239 " fill="none" id="C_0015066935078142509054-backto-C_0017146293478645494837" style="stroke:#181818;stroke-width:1.0;"/>
      <polygon fill="none" points="1050.12,206.5339,1045.7303,224.9928,1057.6836,223.9349,1050.12,206.5339" style="stroke:#181818;stroke-width:1.0;"/>
    </g>
  </g>
</svg>
