<svg xmlns="http://www.w3.org/2000/svg" xmlns:xlink="http://www.w3.org/1999/xlink" contentScriptType="application/ecmascript" contentStyleType="text/css" height="391px" preserveAspectRatio="none" style="width:663px;height:391px;" version="1.1" viewBox="0 0 663 391" width="663px" zoomAndPan="magnify">
  <defs>
    <filter height="300%" id="fu4iie70gl9kz" width="300%" x="-1" y="-1">
      <feGaussianBlur result="blurOut" stdDeviation="2.0"/>
      <feColorMatrix in="blurOut" result="blurOut2" type="matrix" values="0 0 0 0 0 0 0 0 0 0 0 0 0 0 0 0 0 0 .4 0"/>
      <feOffset dx="4.0" dy="4.0" in="blurOut2" result="blurOut3"/>
      <feBlend in="SourceGraphic" in2="blurOut3" mode="normal"/>
    </filter>
    <style type="text/css">a:hover { text-decoration: underline; }</style>
  </defs>
  <g>
    <a href="classclanguml_1_1common_1_1model_1_1decorated__element.html" target="_top" title="Base class for decorated diagram elements" xlink:actuate="onRequest" xlink:href="classclanguml_1_1common_1_1model_1_1decorated__element.html" xlink:show="new" xlink:title="Base class for decorated diagram elements" xlink:type="simple">
      <rect fill="#FEFECE" filter="url(#fu4iie70gl9kz)" height="48" id="C_0001117102382624673118" style="stroke: #A80036; stroke-width: 1.5;" width="261" x="6" y="8"/>
      <ellipse cx="21" cy="24" fill="#ADD1B2" rx="11" ry="11" style="stroke: #A80036; stroke-width: 1.0;"/>
      <path d="M23.9688,29.6406 Q23.3906,29.9375 22.75,30.0781 Q22.1094,30.2344 21.4063,30.2344 Q18.9063,30.2344 17.5781,28.5938 Q16.2656,26.9375 16.2656,23.8125 Q16.2656,20.6875 17.5781,19.0313 Q18.9063,17.375 21.4063,17.375 Q22.1094,17.375 22.75,17.5313 Q23.4063,17.6875 23.9688,17.9844 L23.9688,20.7031 Q23.3438,20.125 22.75,19.8594 Q22.1563,19.5781 21.5313,19.5781 Q20.1875,19.5781 19.5,20.6563 Q18.8125,21.7188 18.8125,23.8125 Q18.8125,25.9063 19.5,26.9844 Q20.1875,28.0469 21.5313,28.0469 Q22.1563,28.0469 22.75,27.7813 Q23.3438,27.5 23.9688,26.9219 L23.9688,29.6406 Z "/>
      <text fill="#000000" font-family="sans-serif" font-size="12" lengthAdjust="spacingAndGlyphs" textLength="229" x="35" y="28.1543">common::model::decorated_element</text>
      <line style="stroke: #A80036; stroke-width: 1.5;" x1="7" x2="266" y1="40" y2="40"/>
      <line style="stroke: #A80036; stroke-width: 1.5;" x1="7" x2="266" y1="48" y2="48"/>
    </a>
    <a href="classclanguml_1_1common_1_1model_1_1stylable__element.html" target="_top" title="Diagram elements to which style can be applied." xlink:actuate="onRequest" xlink:href="classclanguml_1_1common_1_1model_1_1stylable__element.html" xlink:show="new" xlink:title="Diagram elements to which style can be applied." xlink:type="simple">
      <rect fill="#FEFECE" filter="url(#fu4iie70gl9kz)" height="48" id="C_0002077846075979426940" style="stroke: #A80036; stroke-width: 1.5;" width="244" x="408.5" y="224"/>
      <ellipse cx="423.5" cy="240" fill="#ADD1B2" rx="11" ry="11" style="stroke: #A80036; stroke-width: 1.0;"/>
      <path d="M426.4688,245.6406 Q425.8906,245.9375 425.25,246.0781 Q424.6094,246.2344 423.9063,246.2344 Q421.4063,246.2344 420.0781,244.5938 Q418.7656,242.9375 418.7656,239.8125 Q418.7656,236.6875 420.0781,235.0313 Q421.4063,233.375 423.9063,233.375 Q424.6094,233.375 425.25,233.5313 Q425.9063,233.6875 426.4688,233.9844 L426.4688,236.7031 Q425.8438,236.125 425.25,235.8594 Q424.6563,235.5781 424.0313,235.5781 Q422.6875,235.5781 422,236.6563 Q421.3125,237.7188 421.3125,239.8125 Q421.3125,241.9063 422,242.9844 Q422.6875,244.0469 424.0313,244.0469 Q424.6563,244.0469 425.25,243.7813 Q425.8438,243.5 426.4688,242.9219 L426.4688,245.6406 Z "/>
      <text fill="#000000" font-family="sans-serif" font-size="12" lengthAdjust="spacingAndGlyphs" textLength="212" x="437.5" y="244.1543">common::model::stylable_element</text>
      <line style="stroke: #A80036; stroke-width: 1.5;" x1="409.5" x2="651.5" y1="256" y2="256"/>
      <line style="stroke: #A80036; stroke-width: 1.5;" x1="409.5" x2="651.5" y1="264" y2="264"/>
    </a>
    <a href="classclanguml_1_1common_1_1model_1_1source__location.html" target="_top" title="Base class of all diagram elements that have source location." xlink:actuate="onRequest" xlink:href="classclanguml_1_1common_1_1model_1_1source__location.html" xlink:show="new" xlink:title="Base class of all diagram elements that have source location." xlink:type="simple">
      <rect fill="#FEFECE" filter="url(#fu4iie70gl9kz)" height="48" id="C_0000895261582183440230" style="stroke: #A80036; stroke-width: 1.5;" width="238" x="302.5" y="8"/>
      <ellipse cx="317.5" cy="24" fill="#ADD1B2" rx="11" ry="11" style="stroke: #A80036; stroke-width: 1.0;"/>
      <path d="M320.4688,29.6406 Q319.8906,29.9375 319.25,30.0781 Q318.6094,30.2344 317.9063,30.2344 Q315.4063,30.2344 314.0781,28.5938 Q312.7656,26.9375 312.7656,23.8125 Q312.7656,20.6875 314.0781,19.0313 Q315.4063,17.375 317.9063,17.375 Q318.6094,17.375 319.25,17.5313 Q319.9063,17.6875 320.4688,17.9844 L320.4688,20.7031 Q319.8438,20.125 319.25,19.8594 Q318.6563,19.5781 318.0313,19.5781 Q316.6875,19.5781 316,20.6563 Q315.3125,21.7188 315.3125,23.8125 Q315.3125,25.9063 316,26.9844 Q316.6875,28.0469 318.0313,28.0469 Q318.6563,28.0469 319.25,27.7813 Q319.8438,27.5 320.4688,26.9219 L320.4688,29.6406 Z "/>
      <text fill="#000000" font-family="sans-serif" font-size="12" lengthAdjust="spacingAndGlyphs" textLength="206" x="331.5" y="28.1543">common::model::source_location</text>
      <line style="stroke: #A80036; stroke-width: 1.5;" x1="303.5" x2="539.5" y1="40" y2="40"/>
      <line style="stroke: #A80036; stroke-width: 1.5;" x1="303.5" x2="539.5" y1="48" y2="48"/>
    </a>
    <a href="classclanguml_1_1common_1_1model_1_1diagram__element.html" target="_top" title="Base class for standalone diagram elements." xlink:actuate="onRequest" xlink:href="classclanguml_1_1common_1_1model_1_1diagram__element.html" xlink:show="new" xlink:title="Base class for standalone diagram elements." xlink:type="simple">
      <rect fill="#FEFECE" filter="url(#fu4iie70gl9kz)" height="48" id="C_0001073500714379115414" style="stroke: #A80036; stroke-width: 1.5;" width="247" x="155" y="116"/>
      <ellipse cx="170" cy="132" fill="#ADD1B2" rx="11" ry="11" style="stroke: #A80036; stroke-width: 1.0;"/>
      <path d="M172.9688,137.6406 Q172.3906,137.9375 171.75,138.0781 Q171.1094,138.2344 170.4063,138.2344 Q167.9063,138.2344 166.5781,136.5938 Q165.2656,134.9375 165.2656,131.8125 Q165.2656,128.6875 166.5781,127.0313 Q167.9063,125.375 170.4063,125.375 Q171.1094,125.375 171.75,125.5313 Q172.4063,125.6875 172.9688,125.9844 L172.9688,128.7031 Q172.3438,128.125 171.75,127.8594 Q171.1563,127.5781 170.5313,127.5781 Q169.1875,127.5781 168.5,128.6563 Q167.8125,129.7188 167.8125,131.8125 Q167.8125,133.9063 168.5,134.9844 Q169.1875,136.0469 170.5313,136.0469 Q171.1563,136.0469 171.75,135.7813 Q172.3438,135.5 172.9688,134.9219 L172.9688,137.6406 Z "/>
      <text fill="#000000" font-family="sans-serif" font-size="12" lengthAdjust="spacingAndGlyphs" textLength="215" x="184" y="136.1543">common::model::diagram_element</text>
      <line style="stroke: #A80036; stroke-width: 1.5;" x1="156" x2="401" y1="148" y2="148"/>
      <line style="stroke: #A80036; stroke-width: 1.5;" x1="156" x2="401" y1="156" y2="156"/>
    </a>
    <a href="classclanguml_1_1common_1_1model_1_1element.html" target="_top" title="Base class for any element qualified by namespace." xlink:actuate="onRequest" xlink:href="classclanguml_1_1common_1_1model_1_1element.html" xlink:show="new" xlink:title="Base class for any element qualified by namespace." xlink:type="simple">
      <rect fill="#FEFECE" filter="url(#fu4iie70gl9kz)" height="48" id="C_0002069520381434407937" style="stroke: #A80036; stroke-width: 1.5;" width="190" x="183.5" y="224"/>
      <ellipse cx="198.5" cy="240" fill="#ADD1B2" rx="11" ry="11" style="stroke: #A80036; stroke-width: 1.0;"/>
      <path d="M201.4688,245.6406 Q200.8906,245.9375 200.25,246.0781 Q199.6094,246.2344 198.9063,246.2344 Q196.4063,246.2344 195.0781,244.5938 Q193.7656,242.9375 193.7656,239.8125 Q193.7656,236.6875 195.0781,235.0313 Q196.4063,233.375 198.9063,233.375 Q199.6094,233.375 200.25,233.5313 Q200.9063,233.6875 201.4688,233.9844 L201.4688,236.7031 Q200.8438,236.125 200.25,235.8594 Q199.6563,235.5781 199.0313,235.5781 Q197.6875,235.5781 197,236.6563 Q196.3125,237.7188 196.3125,239.8125 Q196.3125,241.9063 197,242.9844 Q197.6875,244.0469 199.0313,244.0469 Q199.6563,244.0469 200.25,243.7813 Q200.8438,243.5 201.4688,242.9219 L201.4688,245.6406 Z "/>
      <text fill="#000000" font-family="sans-serif" font-size="12" lengthAdjust="spacingAndGlyphs" textLength="158" x="212.5" y="244.1543">common::model::element</text>
      <line style="stroke: #A80036; stroke-width: 1.5;" x1="184.5" x2="372.5" y1="256" y2="256"/>
      <line style="stroke: #A80036; stroke-width: 1.5;" x1="184.5" x2="372.5" y1="264" y2="264"/>
    </a>
    <a href="classclanguml_1_1common_1_1model_1_1package.html" target="_top" title="Diagram element representing namespace or directory package" xlink:actuate="onRequest" xlink:href="classclanguml_1_1common_1_1model_1_1package.html" xlink:show="new" xlink:title="Diagram element representing namespace or directory package" xlink:type="simple">
      <rect fill="#FEFECE" filter="url(#fu4iie70gl9kz)" height="48" id="C_0002143286684830686854" style="stroke: #A80036; stroke-width: 1.5;" width="193" x="308" y="332"/>
      <ellipse cx="323" cy="348" fill="#ADD1B2" rx="11" ry="11" style="stroke: #A80036; stroke-width: 1.0;"/>
      <path d="M325.9688,353.6406 Q325.3906,353.9375 324.75,354.0781 Q324.1094,354.2344 323.4063,354.2344 Q320.9063,354.2344 319.5781,352.5938 Q318.2656,350.9375 318.2656,347.8125 Q318.2656,344.6875 319.5781,343.0313 Q320.9063,341.375 323.4063,341.375 Q324.1094,341.375 324.75,341.5313 Q325.4063,341.6875 325.9688,341.9844 L325.9688,344.7031 Q325.3438,344.125 324.75,343.8594 Q324.1563,343.5781 323.5313,343.5781 Q322.1875,343.5781 321.5,344.6563 Q320.8125,345.7188 320.8125,347.8125 Q320.8125,349.9063 321.5,350.9844 Q322.1875,352.0469 323.5313,352.0469 Q324.1563,352.0469 324.75,351.7813 Q325.3438,351.5 325.9688,350.9219 L325.9688,353.6406 Z "/>
      <text fill="#000000" font-family="sans-serif" font-size="12" lengthAdjust="spacingAndGlyphs" textLength="161" x="337" y="352.1543">common::model::package</text>
      <line style="stroke: #A80036; stroke-width: 1.5;" x1="309" x2="500" y1="364" y2="364"/>
      <line style="stroke: #A80036; stroke-width: 1.5;" x1="309" x2="500" y1="372" y2="372"/>
    </a>
    <path d="M183.61,68.17 C204.54,83.79 228.6,101.75 247.26,115.68 " fill="none" id="C_0001117102382624673118&lt;-C_0001073500714379115414" style="stroke: #A80036; stroke-width: 1.0;"/>
    <polygon fill="none" points="179.15,73.57,167.31,56,187.53,62.35,179.15,73.57" style="stroke: #A80036; stroke-width: 1.0;"/>
    <path d="M374.37,67.94 C353.22,83.61 328.84,101.68 309.96,115.68 " fill="none" id="C_0000895261582183440230&lt;-C_0001073500714379115414" style="stroke: #A80036; stroke-width: 1.0;"/>
    <polygon fill="none" points="370.24,62.29,390.47,56,378.57,73.53,370.24,62.29" style="stroke: #A80036; stroke-width: 1.0;"/>
    <path d="M278.5,184.02 C278.5,197.58 278.5,212.04 278.5,223.68 " fill="none" id="C_0001073500714379115414&lt;-C_0002069520381434407937" style="stroke: #A80036; stroke-width: 1.0;"/>
    <polygon fill="none" points="271.5,184,278.5,164,285.5,184,271.5,184" style="stroke: #A80036; stroke-width: 1.0;"/>
    <path d="M321.42,285.1 C339.72,300.5 360.55,318.03 376.78,331.68 " fill="none" id="C_0002069520381434407937&lt;-C_0002143286684830686854" style="stroke: #A80036; stroke-width: 1.0;"/>
    <polygon fill="none" points="316.64,290.23,305.84,272,325.65,279.52,316.64,290.23" style="stroke: #A80036; stroke-width: 1.0;"/>
    <path d="M487.58,285.1 C469.28,300.5 448.45,318.03 432.22,331.68 " fill="none" id="C_0002077846075979426940&lt;-C_0002143286684830686854" style="stroke: #A80036; stroke-width: 1.0;"/>
    <polygon fill="none" points="483.35,279.52,503.16,272,492.36,290.23,483.35,279.52" style="stroke: #A80036; stroke-width: 1.0;"/>
  </g>
</svg>
