<?xml version="1.0" encoding="UTF-8" standalone="no"?><svg xmlns="http://www.w3.org/2000/svg" xmlns:xlink="http://www.w3.org/1999/xlink" contentScriptType="application/ecmascript" contentStyleType="text/css" height="391px" preserveAspectRatio="none" style="width:551px;height:391px;" version="1.1" viewBox="0 0 551 391" width="551px" zoomAndPan="magnify"><defs><filter height="300%" id="fgr3kb93zr8pf" width="300%" x="-1" y="-1"><feGaussianBlur result="blurOut" stdDeviation="2.0"/><feColorMatrix in="blurOut" result="blurOut2" type="matrix" values="0 0 0 0 0 0 0 0 0 0 0 0 0 0 0 0 0 0 .4 0"/><feOffset dx="4.0" dy="4.0" in="blurOut2" result="blurOut3"/><feBlend in="SourceGraphic" in2="blurOut3" mode="normal"/></filter></defs><g><!--MD5=[b75d17d3ee67ca210c766132488de4b0]
class C_0001117102382624673118--><a href="classclanguml_1_1common_1_1model_1_1decorated__element.html" target="_top" title="Base class for decorated diagram elements" xlink:actuate="onRequest" xlink:href="classclanguml_1_1common_1_1model_1_1decorated__element.html" xlink:show="new" xlink:title="Base class for decorated diagram elements" xlink:type="simple"><rect fill="#FEFECE" filter="url(#fgr3kb93zr8pf)" height="48" id="C_0001117102382624673118" style="stroke: #A80036; stroke-width: 1.5;" width="261" x="6" y="8"/><ellipse cx="21" cy="24" fill="#ADD1B2" rx="11" ry="11" style="stroke: #A80036; stroke-width: 1.0;"/><path d="M23.9688,29.6406 Q23.3906,29.9375 22.75,30.0781 Q22.1094,30.2344 21.4063,30.2344 Q18.9063,30.2344 17.5781,28.5938 Q16.2656,26.9375 16.2656,23.8125 Q16.2656,20.6875 17.5781,19.0313 Q18.9063,17.375 21.4063,17.375 Q22.1094,17.375 22.75,17.5313 Q23.4063,17.6875 23.9688,17.9844 L23.9688,20.7031 Q23.3438,20.125 22.75,19.8594 Q22.1563,19.5781 21.5313,19.5781 Q20.1875,19.5781 19.5,20.6563 Q18.8125,21.7188 18.8125,23.8125 Q18.8125,25.9063 19.5,26.9844 Q20.1875,28.0469 21.5313,28.0469 Q22.1563,28.0469 22.75,27.7813 Q23.3438,27.5 23.9688,26.9219 L23.9688,29.6406 Z "/><text fill="#000000" font-family="sans-serif" font-size="12" lengthAdjust="spacingAndGlyphs" textLength="229" x="35" y="28.1543">common::model::decorated_element</text><line style="stroke: #A80036; stroke-width: 1.5;" x1="7" x2="266" y1="40" y2="40"/><line style="stroke: #A80036; stroke-width: 1.5;" x1="7" x2="266" y1="48" y2="48"/></a><!--MD5=[39023b0134efb4261990e1927fe4a3ac]
class C_0002077846075979426940--><a href="classclanguml_1_1common_1_1model_1_1stylable__element.html" target="_top" title="Diagram elements to which style can be applied." xlink:actuate="onRequest" xlink:href="classclanguml_1_1common_1_1model_1_1stylable__element.html" xlink:show="new" xlink:title="Diagram elements to which style can be applied." xlink:type="simple"><rect fill="#FEFECE" filter="url(#fgr3kb93zr8pf)" height="48" id="C_0002077846075979426940" style="stroke: #A80036; stroke-width: 1.5;" width="244" x="266.5" y="224"/><ellipse cx="281.5" cy="240" fill="#ADD1B2" rx="11" ry="11" style="stroke: #A80036; stroke-width: 1.0;"/><path d="M284.4688,245.6406 Q283.8906,245.9375 283.25,246.0781 Q282.6094,246.2344 281.9063,246.2344 Q279.4063,246.2344 278.0781,244.5938 Q276.7656,242.9375 276.7656,239.8125 Q276.7656,236.6875 278.0781,235.0313 Q279.4063,233.375 281.9063,233.375 Q282.6094,233.375 283.25,233.5313 Q283.9063,233.6875 284.4688,233.9844 L284.4688,236.7031 Q283.8438,236.125 283.25,235.8594 Q282.6563,235.5781 282.0313,235.5781 Q280.6875,235.5781 280,236.6563 Q279.3125,237.7188 279.3125,239.8125 Q279.3125,241.9063 280,242.9844 Q280.6875,244.0469 282.0313,244.0469 Q282.6563,244.0469 283.25,243.7813 Q283.8438,243.5 284.4688,242.9219 L284.4688,245.6406 Z "/><text fill="#000000" font-family="sans-serif" font-size="12" lengthAdjust="spacingAndGlyphs" textLength="212" x="295.5" y="244.1543">common::model::stylable_element</text><line style="stroke: #A80036; stroke-width: 1.5;" x1="267.5" x2="509.5" y1="256" y2="256"/><line style="stroke: #A80036; stroke-width: 1.5;" x1="267.5" x2="509.5" y1="264" y2="264"/></a><!--MD5=[f862e5f61ea976202ee196a1ef68e0c4]
class C_0000895261582183440230--><a href="classclanguml_1_1common_1_1model_1_1source__location.html" target="_top" title="Base class of all diagram elements that have source location." xlink:actuate="onRequest" xlink:href="classclanguml_1_1common_1_1model_1_1source__location.html" xlink:show="new" xlink:title="Base class of all diagram elements that have source location." xlink:type="simple"><rect fill="#FEFECE" filter="url(#fgr3kb93zr8pf)" height="48" id="C_0000895261582183440230" style="stroke: #A80036; stroke-width: 1.5;" width="238" x="302.5" y="8"/><ellipse cx="317.5" cy="24" fill="#ADD1B2" rx="11" ry="11" style="stroke: #A80036; stroke-width: 1.0;"/><path d="M320.4688,29.6406 Q319.8906,29.9375 319.25,30.0781 Q318.6094,30.2344 317.9063,30.2344 Q315.4063,30.2344 314.0781,28.5938 Q312.7656,26.9375 312.7656,23.8125 Q312.7656,20.6875 314.0781,19.0313 Q315.4063,17.375 317.9063,17.375 Q318.6094,17.375 319.25,17.5313 Q319.9063,17.6875 320.4688,17.9844 L320.4688,20.7031 Q319.8438,20.125 319.25,19.8594 Q318.6563,19.5781 318.0313,19.5781 Q316.6875,19.5781 316,20.6563 Q315.3125,21.7188 315.3125,23.8125 Q315.3125,25.9063 316,26.9844 Q316.6875,28.0469 318.0313,28.0469 Q318.6563,28.0469 319.25,27.7813 Q319.8438,27.5 320.4688,26.9219 L320.4688,29.6406 Z "/><text fill="#000000" font-family="sans-serif" font-size="12" lengthAdjust="spacingAndGlyphs" textLength="206" x="331.5" y="28.1543">common::model::source_location</text><line style="stroke: #A80036; stroke-width: 1.5;" x1="303.5" x2="539.5" y1="40" y2="40"/><line style="stroke: #A80036; stroke-width: 1.5;" x1="303.5" x2="539.5" y1="48" y2="48"/></a><!--MD5=[c7954e9554acd525dcb4b1b7d8febda3]
class C_0001073500714379115414--><a href="classclanguml_1_1common_1_1model_1_1diagram__element.html" target="_top" title="Base class for standalone diagram elements." xlink:actuate="onRequest" xlink:href="classclanguml_1_1common_1_1model_1_1diagram__element.html" xlink:show="new" xlink:title="Base class for standalone diagram elements." xlink:type="simple"><rect fill="#FEFECE" filter="url(#fgr3kb93zr8pf)" height="48" id="C_0001073500714379115414" style="stroke: #A80036; stroke-width: 1.5;" width="247" x="13" y="116"/><ellipse cx="28" cy="132" fill="#ADD1B2" rx="11" ry="11" style="stroke: #A80036; stroke-width: 1.0;"/><path d="M30.9688,137.6406 Q30.3906,137.9375 29.75,138.0781 Q29.1094,138.2344 28.4063,138.2344 Q25.9063,138.2344 24.5781,136.5938 Q23.2656,134.9375 23.2656,131.8125 Q23.2656,128.6875 24.5781,127.0313 Q25.9063,125.375 28.4063,125.375 Q29.1094,125.375 29.75,125.5313 Q30.4063,125.6875 30.9688,125.9844 L30.9688,128.7031 Q30.3438,128.125 29.75,127.8594 Q29.1563,127.5781 28.5313,127.5781 Q27.1875,127.5781 26.5,128.6563 Q25.8125,129.7188 25.8125,131.8125 Q25.8125,133.9063 26.5,134.9844 Q27.1875,136.0469 28.5313,136.0469 Q29.1563,136.0469 29.75,135.7813 Q30.3438,135.5 30.9688,134.9219 L30.9688,137.6406 Z "/><text fill="#000000" font-family="sans-serif" font-size="12" lengthAdjust="spacingAndGlyphs" textLength="215" x="42" y="136.1543">common::model::diagram_element</text><line style="stroke: #A80036; stroke-width: 1.5;" x1="14" x2="259" y1="148" y2="148"/><line style="stroke: #A80036; stroke-width: 1.5;" x1="14" x2="259" y1="156" y2="156"/></a><!--MD5=[61ee72164152887ec594509a8c6f7a5a]
class C_0002069520381434407937--><a href="classclanguml_1_1common_1_1model_1_1element.html" target="_top" title="Base class for any element qualified by namespace." xlink:actuate="onRequest" xlink:href="classclanguml_1_1common_1_1model_1_1element.html" xlink:show="new" xlink:title="Base class for any element qualified by namespace." xlink:type="simple"><rect fill="#FEFECE" filter="url(#fgr3kb93zr8pf)" height="48" id="C_0002069520381434407937" style="stroke: #A80036; stroke-width: 1.5;" width="190" x="41.5" y="224"/><ellipse cx="56.5" cy="240" fill="#ADD1B2" rx="11" ry="11" style="stroke: #A80036; stroke-width: 1.0;"/><path d="M59.4688,245.6406 Q58.8906,245.9375 58.25,246.0781 Q57.6094,246.2344 56.9063,246.2344 Q54.4063,246.2344 53.0781,244.5938 Q51.7656,242.9375 51.7656,239.8125 Q51.7656,236.6875 53.0781,235.0313 Q54.4063,233.375 56.9063,233.375 Q57.6094,233.375 58.25,233.5313 Q58.9063,233.6875 59.4688,233.9844 L59.4688,236.7031 Q58.8438,236.125 58.25,235.8594 Q57.6563,235.5781 57.0313,235.5781 Q55.6875,235.5781 55,236.6563 Q54.3125,237.7188 54.3125,239.8125 Q54.3125,241.9063 55,242.9844 Q55.6875,244.0469 57.0313,244.0469 Q57.6563,244.0469 58.25,243.7813 Q58.8438,243.5 59.4688,242.9219 L59.4688,245.6406 Z "/><text fill="#000000" font-family="sans-serif" font-size="12" lengthAdjust="spacingAndGlyphs" textLength="158" x="70.5" y="244.1543">common::model::element</text><line style="stroke: #A80036; stroke-width: 1.5;" x1="42.5" x2="230.5" y1="256" y2="256"/><line style="stroke: #A80036; stroke-width: 1.5;" x1="42.5" x2="230.5" y1="264" y2="264"/></a><!--MD5=[41fe75f5c358e82f7c3b024ae1be5ac2]
class C_0002143286684830686854--><a href="classclanguml_1_1common_1_1model_1_1package.html" target="_top" title="Diagram element representing namespace or directory package" xlink:actuate="onRequest" xlink:href="classclanguml_1_1common_1_1model_1_1package.html" xlink:show="new" xlink:title="Diagram element representing namespace or directory package" xlink:type="simple"><rect fill="#FEFECE" filter="url(#fgr3kb93zr8pf)" height="48" id="C_0002143286684830686854" style="stroke: #A80036; stroke-width: 1.5;" width="193" x="166" y="332"/><ellipse cx="181" cy="348" fill="#ADD1B2" rx="11" ry="11" style="stroke: #A80036; stroke-width: 1.0;"/><path d="M183.9688,353.6406 Q183.3906,353.9375 182.75,354.0781 Q182.1094,354.2344 181.4063,354.2344 Q178.9063,354.2344 177.5781,352.5938 Q176.2656,350.9375 176.2656,347.8125 Q176.2656,344.6875 177.5781,343.0313 Q178.9063,341.375 181.4063,341.375 Q182.1094,341.375 182.75,341.5313 Q183.4063,341.6875 183.9688,341.9844 L183.9688,344.7031 Q183.3438,344.125 182.75,343.8594 Q182.1563,343.5781 181.5313,343.5781 Q180.1875,343.5781 179.5,344.6563 Q178.8125,345.7188 178.8125,347.8125 Q178.8125,349.9063 179.5,350.9844 Q180.1875,352.0469 181.5313,352.0469 Q182.1563,352.0469 182.75,351.7813 Q183.3438,351.5 183.9688,350.9219 L183.9688,353.6406 Z "/><text fill="#000000" font-family="sans-serif" font-size="12" lengthAdjust="spacingAndGlyphs" textLength="161" x="195" y="352.1543">common::model::package</text><line style="stroke: #A80036; stroke-width: 1.5;" x1="167" x2="358" y1="364" y2="364"/><line style="stroke: #A80036; stroke-width: 1.5;" x1="167" x2="358" y1="372" y2="372"/></a><!--MD5=[b5b453d9e1a0ed2bc49634826bf1ff93]
link C_0001073500714379115414 to C_0001117102382624673118--><path d="M147.91,115.68 C150.45,99.6 150.68,78.15 148.58,61.13 " fill="none" id="C_0001073500714379115414-&gt;C_0001117102382624673118" style="stroke: #A80036; stroke-width: 1.0; stroke-dasharray: 7.0,7.0;"/><polygon fill="#A80036" points="147.86,56,145.1577,65.4709,148.5591,60.9509,153.0791,64.3523,147.86,56" style="stroke: #A80036; stroke-width: 1.0;"/><!--MD5=[51b77a83e925bfa56ce9003126dec6da]
reverse link C_0001117102382624673118 to C_0001073500714379115414--><path d="M123.95,76.02 C123.4,89.58 123.99,104.04 125.73,115.68 " fill="none" id="C_0001117102382624673118&lt;-C_0001073500714379115414" style="stroke: #A80036; stroke-width: 1.0;"/><polygon fill="none" points="116.99,75.28,125.77,56,130.93,76.55,116.99,75.28" style="stroke: #A80036; stroke-width: 1.0;"/><!--MD5=[ca2904572ba2305549e4f16921901e5a]
reverse link C_0000895261582183440230 to C_0001073500714379115414--><path d="M340.72,63.04 C295.66,79.8 240.38,100.36 198.71,115.86 " fill="none" id="C_0000895261582183440230&lt;-C_0001073500714379115414" style="stroke: #A80036; stroke-width: 1.0;"/><polygon fill="none" points="338.47,56.41,359.66,56,343.35,69.53,338.47,56.41" style="stroke: #A80036; stroke-width: 1.0;"/><!--MD5=[4f2a77547d39d73bea822e52b2f0976b]
reverse link C_0001073500714379115414 to C_0002069520381434407937--><path d="M136.5,184.02 C136.5,197.58 136.5,212.04 136.5,223.68 " fill="none" id="C_0001073500714379115414&lt;-C_0002069520381434407937" style="stroke: #A80036; stroke-width: 1.0;"/><polygon fill="none" points="129.5,184,136.5,164,143.5,184,129.5,184" style="stroke: #A80036; stroke-width: 1.0;"/><!--MD5=[3b5b148458d09c1202603fe4c86398e5]
reverse link C_0002069520381434407937 to C_0002143286684830686854--><path d="M179.42,285.1 C197.72,300.5 218.55,318.03 234.78,331.68 " fill="none" id="C_0002069520381434407937&lt;-C_0002143286684830686854" style="stroke: #A80036; stroke-width: 1.0;"/><polygon fill="none" points="174.64,290.23,163.84,272,183.65,279.52,174.64,290.23" style="stroke: #A80036; stroke-width: 1.0;"/><!--MD5=[8b57dc45e019868d19d5475e79e2f9cd]
reverse link C_0002077846075979426940 to C_0002143286684830686854--><path d="M345.58,285.1 C327.28,300.5 306.45,318.03 290.22,331.68 " fill="none" id="C_0002077846075979426940&lt;-C_0002143286684830686854" style="stroke: #A80036; stroke-width: 1.0;"/><polygon fill="none" points="341.35,279.52,361.16,272,350.36,290.23,341.35,279.52" style="stroke: #A80036; stroke-width: 1.0;"/><!--MD5=[486c94563df7e70af16a5c6ff386bb81]
@startuml
class "common::model::decorated_element" as C_0001117102382624673118
class C_0001117102382624673118 [[classclanguml_1_1common_1_1model_1_1decorated__element.html{Base class for decorated diagram elements}]] {
__
}
class "common::model::stylable_element" as C_0002077846075979426940
class C_0002077846075979426940 [[classclanguml_1_1common_1_1model_1_1stylable__element.html{Diagram elements to which style can be applied.}]] {
__
}
class "common::model::source_location" as C_0000895261582183440230
class C_0000895261582183440230 [[classclanguml_1_1common_1_1model_1_1source__location.html{Base class of all diagram elements that have source location.}]] {
__
}
class "common::model::diagram_element" as C_0001073500714379115414
class C_0001073500714379115414 [[classclanguml_1_1common_1_1model_1_1diagram__element.html{Base class for standalone diagram elements.}]] {
__
}
class "common::model::element" as C_0002069520381434407937
class C_0002069520381434407937 [[classclanguml_1_1common_1_1model_1_1element.html{Base class for any element qualified by namespace.}]] {
__
}
class "common::model::package" as C_0002143286684830686854
class C_0002143286684830686854 [[classclanguml_1_1common_1_1model_1_1package.html{Diagram element representing namespace or directory package}]] {
__
}
C_0001073500714379115414 ..> C_0001117102382624673118
C_0001117102382624673118 <|- - C_0001073500714379115414
C_0000895261582183440230 <|- - C_0001073500714379115414
C_0001073500714379115414 <|- - C_0002069520381434407937
C_0002069520381434407937 <|- - C_0002143286684830686854
C_0002077846075979426940 <|- - C_0002143286684830686854

@enduml

PlantUML version 1.2020.02(Sun Mar 01 11:22:07 CET 2020)
(GPL source distribution)
Java Runtime: OpenJDK Runtime Environment
JVM: OpenJDK 64-Bit Server VM
Java Version: 11.0.19+7-post-Ubuntu-0ubuntu122.04.1
Operating System: Linux
Default Encoding: UTF-8
Language: en
Country: US
--></g></svg>