<svg xmlns="http://www.w3.org/2000/svg" xmlns:xlink="http://www.w3.org/1999/xlink" contentStyleType="text/css" height="961px" preserveAspectRatio="none" style="width:1247px;height:961px;background:#FFFFFF;" version="1.1" viewBox="0 0 1247 961" width="1247px" zoomAndPan="magnify">
  <title>Source location model class hierarchy</title>
  <defs>
    <style type="text/css">a:hover { text-decoration: underline; }</style>
  </defs>
  <g>
    <text fill="#000000" font-family="sans-serif" font-size="14" font-weight="bold" lengthAdjust="spacing" textLength="263.689" x="484.6555" y="24.9659">Source location model class hierarchy</text>
    <g id="cluster_C_0002532840279361781187">
      <path d="M447.5,46.6699 L509.7218,46.6699 A3.75,3.75 0 0 1 512.2218,49.1699 L519.2218,71.7378 L796.5,71.7378 A2.5,2.5 0 0 1 799,74.2378 L799,540.1699 A2.5,2.5 0 0 1 796.5,542.6699 L447.5,542.6699 A2.5,2.5 0 0 1 445,540.1699 L445,49.1699 A2.5,2.5 0 0 1 447.5,46.6699 " fill="none" style="stroke:#000000;stroke-width:1.5;"/>
      <line style="stroke:#000000;stroke-width:1.5;" x1="445" x2="519.2218" y1="71.7378" y2="71.7378"/>
      <text fill="#000000" font-family="sans-serif" font-size="14" font-weight="bold" lengthAdjust="spacing" textLength="61.2218" x="449" y="63.6358">common</text>
    </g>
    <g id="cluster_C_0000669774451444102653">
      <path d="M471.5,92.6699 L516.3198,92.6699 A3.75,3.75 0 0 1 518.8198,95.1699 L525.8198,117.7378 L772.5,117.7378 A2.5,2.5 0 0 1 775,120.2378 L775,516.1699 A2.5,2.5 0 0 1 772.5,518.6699 L471.5,518.6699 A2.5,2.5 0 0 1 469,516.1699 L469,95.1699 A2.5,2.5 0 0 1 471.5,92.6699 " fill="none" style="stroke:#000000;stroke-width:1.5;"/>
      <line style="stroke:#000000;stroke-width:1.5;" x1="469" x2="525.8198" y1="117.7378" y2="117.7378"/>
      <text fill="#000000" font-family="sans-serif" font-size="14" font-weight="bold" lengthAdjust="spacing" textLength="43.8198" x="473" y="109.6358">model</text>
    </g>
    <g id="cluster_C_0017921336289613804855">
      <path d="M536.5,566.6699 L636.1016,566.6699 A3.75,3.75 0 0 1 638.6016,569.1699 L645.6016,591.7378 L1237.5,591.7378 A2.5,2.5 0 0 1 1240,594.2378 L1240,952.1699 A2.5,2.5 0 0 1 1237.5,954.6699 L536.5,954.6699 A2.5,2.5 0 0 1 534,952.1699 L534,569.1699 A2.5,2.5 0 0 1 536.5,566.6699 " fill="none" style="stroke:#000000;stroke-width:1.5;"/>
      <line style="stroke:#000000;stroke-width:1.5;" x1="534" x2="645.6016" y1="591.7378" y2="591.7378"/>
      <text fill="#000000" font-family="sans-serif" font-size="14" font-weight="bold" lengthAdjust="spacing" textLength="98.6016" x="538" y="583.6358">class_diagram</text>
    </g>
    <g id="cluster_C_0007176993879715460962">
      <path d="M560.5,612.6699 L605.3198,612.6699 A3.75,3.75 0 0 1 607.8198,615.1699 L614.8198,637.7378 L1213.5,637.7378 A2.5,2.5 0 0 1 1216,640.2378 L1216,928.1699 A2.5,2.5 0 0 1 1213.5,930.6699 L560.5,930.6699 A2.5,2.5 0 0 1 558,928.1699 L558,615.1699 A2.5,2.5 0 0 1 560.5,612.6699 " fill="none" style="stroke:#000000;stroke-width:1.5;"/>
      <line style="stroke:#000000;stroke-width:1.5;" x1="558" x2="614.8198" y1="637.7378" y2="637.7378"/>
      <text fill="#000000" font-family="sans-serif" font-size="14" font-weight="bold" lengthAdjust="spacing" textLength="43.8198" x="562" y="629.6358">model</text>
    </g>
    <g id="cluster_C_0012174902727661033893">
      <path d="M8.5,566.6699 L140.4975,566.6699 A3.75,3.75 0 0 1 142.9975,569.1699 L149.9975,591.7378 L507.5,591.7378 A2.5,2.5 0 0 1 510,594.2378 L510,952.1699 A2.5,2.5 0 0 1 507.5,954.6699 L8.5,954.6699 A2.5,2.5 0 0 1 6,952.1699 L6,569.1699 A2.5,2.5 0 0 1 8.5,566.6699 " fill="none" style="stroke:#000000;stroke-width:1.5;"/>
      <line style="stroke:#000000;stroke-width:1.5;" x1="6" x2="149.9975" y1="591.7378" y2="591.7378"/>
      <text fill="#000000" font-family="sans-serif" font-size="14" font-weight="bold" lengthAdjust="spacing" textLength="130.9975" x="10" y="583.6358">sequence_diagram</text>
    </g>
    <g id="cluster_C_0017655759046645114118">
      <path d="M32.5,612.6699 L77.3198,612.6699 A3.75,3.75 0 0 1 79.8198,615.1699 L86.8198,637.7378 L483.5,637.7378 A2.5,2.5 0 0 1 486,640.2378 L486,928.1699 A2.5,2.5 0 0 1 483.5,930.6699 L32.5,930.6699 A2.5,2.5 0 0 1 30,928.1699 L30,615.1699 A2.5,2.5 0 0 1 32.5,612.6699 " fill="none" style="stroke:#000000;stroke-width:1.5;"/>
      <line style="stroke:#000000;stroke-width:1.5;" x1="30" x2="86.8198" y1="637.7378" y2="637.7378"/>
      <text fill="#000000" font-family="sans-serif" font-size="14" font-weight="bold" lengthAdjust="spacing" textLength="43.8198" x="34" y="629.6358">model</text>
    </g>
    <a href="classclanguml_1_1common_1_1model_1_1source__location.html" target="_top" title="Base class of all diagram elements that have source location." xlink:actuate="onRequest" xlink:href="classclanguml_1_1common_1_1model_1_1source__location.html" xlink:show="new" xlink:title="Base class of all diagram elements that have source location." xlink:type="simple">
      <g id="elem_C_0007162092657467521843">
        <rect codeLine="5" fill="#F1F1F1" height="48" id="C_0007162092657467521843" rx="2.5" ry="2.5" style="stroke:#181818;stroke-width:0.5;" width="134.8856" x="595.5" y="130.6699"/>
        <ellipse cx="610.5" cy="146.6699" fill="#ADD1B2" rx="11" ry="11" style="stroke:#181818;stroke-width:1.0;"/>
        <path d="M613.4688,152.3105 Q612.8906,152.6074 612.25,152.748 Q611.6094,152.9043 610.9063,152.9043 Q608.4063,152.9043 607.0781,151.2636 Q605.7656,149.6074 605.7656,146.4824 Q605.7656,143.3574 607.0781,141.7011 Q608.4063,140.0449 610.9063,140.0449 Q611.6094,140.0449 612.25,140.2011 Q612.9063,140.3574 613.4688,140.6543 L613.4688,143.373 Q612.8438,142.7949 612.25,142.5293 Q611.6563,142.248 611.0313,142.248 Q609.6875,142.248 609,143.3261 Q608.3125,144.3886 608.3125,146.4824 Q608.3125,148.5761 609,149.6543 Q609.6875,150.7168 611.0313,150.7168 Q611.6563,150.7168 612.25,150.4511 Q612.8438,150.1699 613.4688,149.5918 L613.4688,152.3105 Z " fill="#000000"/>
        <text fill="#000000" font-family="sans-serif" font-size="14" lengthAdjust="spacing" textLength="102.8856" x="624.5" y="152.1019">source_location</text>
        <line style="stroke:#181818;stroke-width:0.5;" x1="596.5" x2="729.3856" y1="162.6699" y2="162.6699"/>
        <line style="stroke:#181818;stroke-width:0.5;" x1="596.5" x2="729.3856" y1="170.6699" y2="170.6699"/>
      </g>
    </a>
    <a href="classclanguml_1_1common_1_1model_1_1diagram__element.html" target="_top" title="Base class for standalone diagram elements." xlink:actuate="onRequest" xlink:href="classclanguml_1_1common_1_1model_1_1diagram__element.html" xlink:show="new" xlink:title="Base class for standalone diagram elements." xlink:type="simple">
      <g id="elem_C_0008588005715032923314">
        <rect codeLine="9" fill="#F1F1F1" height="48" id="C_0008588005715032923314" rx="2.5" ry="2.5" style="stroke:#181818;stroke-width:0.5;" width="147.7236" x="533" y="238.6699"/>
        <ellipse cx="548" cy="254.6699" fill="#ADD1B2" rx="11" ry="11" style="stroke:#181818;stroke-width:1.0;"/>
        <path d="M550.9688,260.3105 Q550.3906,260.6074 549.75,260.748 Q549.1094,260.9043 548.4063,260.9043 Q545.9063,260.9043 544.5781,259.2636 Q543.2656,257.6074 543.2656,254.4824 Q543.2656,251.3574 544.5781,249.7011 Q545.9063,248.0449 548.4063,248.0449 Q549.1094,248.0449 549.75,248.2011 Q550.4063,248.3574 550.9688,248.6543 L550.9688,251.373 Q550.3438,250.7949 549.75,250.5293 Q549.1563,250.248 548.5313,250.248 Q547.1875,250.248 546.5,251.3261 Q545.8125,252.3886 545.8125,254.4824 Q545.8125,256.5761 546.5,257.6543 Q547.1875,258.7168 548.5313,258.7168 Q549.1563,258.7168 549.75,258.4511 Q550.3438,258.1699 550.9688,257.5918 L550.9688,260.3105 Z " fill="#000000"/>
        <text fill="#000000" font-family="sans-serif" font-size="14" lengthAdjust="spacing" textLength="115.7236" x="562" y="260.1019">diagram_element</text>
        <line style="stroke:#181818;stroke-width:0.5;" x1="534" x2="679.7236" y1="270.6699" y2="270.6699"/>
        <line style="stroke:#181818;stroke-width:0.5;" x1="534" x2="679.7236" y1="278.6699" y2="278.6699"/>
      </g>
    </a>
    <a href="classclanguml_1_1common_1_1model_1_1element.html" target="_top" title="Base class for any element qualified by namespace." xlink:actuate="onRequest" xlink:href="classclanguml_1_1common_1_1model_1_1element.html" xlink:show="new" xlink:title="Base class for any element qualified by namespace." xlink:type="simple">
      <g id="elem_C_0016556163051475263500">
        <rect codeLine="13" fill="#F1F1F1" height="48" id="C_0016556163051475263500" rx="2.5" ry="2.5" style="stroke:#181818;stroke-width:0.5;" width="86.0958" x="536" y="346.6699"/>
        <ellipse cx="551" cy="362.6699" fill="#ADD1B2" rx="11" ry="11" style="stroke:#181818;stroke-width:1.0;"/>
        <path d="M553.9688,368.3105 Q553.3906,368.6074 552.75,368.748 Q552.1094,368.9043 551.4063,368.9043 Q548.9063,368.9043 547.5781,367.2636 Q546.2656,365.6074 546.2656,362.4824 Q546.2656,359.3574 547.5781,357.7011 Q548.9063,356.0449 551.4063,356.0449 Q552.1094,356.0449 552.75,356.2011 Q553.4063,356.3574 553.9688,356.6543 L553.9688,359.373 Q553.3438,358.7949 552.75,358.5293 Q552.1563,358.248 551.5313,358.248 Q550.1875,358.248 549.5,359.3261 Q548.8125,360.3886 548.8125,362.4824 Q548.8125,364.5761 549.5,365.6543 Q550.1875,366.7168 551.5313,366.7168 Q552.1563,366.7168 552.75,366.4511 Q553.3438,366.1699 553.9688,365.5918 L553.9688,368.3105 Z " fill="#000000"/>
        <text fill="#000000" font-family="sans-serif" font-size="14" lengthAdjust="spacing" textLength="54.0958" x="565" y="368.1019">element</text>
        <line style="stroke:#181818;stroke-width:0.5;" x1="537" x2="621.0958" y1="378.6699" y2="378.6699"/>
        <line style="stroke:#181818;stroke-width:0.5;" x1="537" x2="621.0958" y1="386.6699" y2="386.6699"/>
      </g>
    </a>
    <a href="classclanguml_1_1common_1_1model_1_1template__element.html" target="_top" title="Base class for any element qualified by namespace." xlink:actuate="onRequest" xlink:href="classclanguml_1_1common_1_1model_1_1template__element.html" xlink:show="new" xlink:title="Base class for any element qualified by namespace." xlink:type="simple">
      <g id="elem_C_0013384831159811298387">
        <rect codeLine="17" fill="#F1F1F1" height="48" id="C_0013384831159811298387" rx="2.5" ry="2.5" style="stroke:#181818;stroke-width:0.5;" width="151.3775" x="485.5" y="454.6699"/>
        <ellipse cx="500.5" cy="470.6699" fill="#ADD1B2" rx="11" ry="11" style="stroke:#181818;stroke-width:1.0;"/>
        <path d="M503.4688,476.3105 Q502.8906,476.6074 502.25,476.748 Q501.6094,476.9043 500.9063,476.9043 Q498.4063,476.9043 497.0781,475.2636 Q495.7656,473.6074 495.7656,470.4824 Q495.7656,467.3574 497.0781,465.7011 Q498.4063,464.0449 500.9063,464.0449 Q501.6094,464.0449 502.25,464.2011 Q502.9063,464.3574 503.4688,464.6543 L503.4688,467.373 Q502.8438,466.7949 502.25,466.5293 Q501.6563,466.248 501.0313,466.248 Q499.6875,466.248 499,467.3261 Q498.3125,468.3886 498.3125,470.4824 Q498.3125,472.5761 499,473.6543 Q499.6875,474.7168 501.0313,474.7168 Q501.6563,474.7168 502.25,474.4511 Q502.8438,474.1699 503.4688,473.5918 L503.4688,476.3105 Z " fill="#000000"/>
        <text fill="#000000" font-family="sans-serif" font-size="14" lengthAdjust="spacing" textLength="119.3775" x="514.5" y="476.1019">template_element</text>
        <line style="stroke:#181818;stroke-width:0.5;" x1="486.5" x2="635.8775" y1="486.6699" y2="486.6699"/>
        <line style="stroke:#181818;stroke-width:0.5;" x1="486.5" x2="635.8775" y1="494.6699" y2="494.6699"/>
      </g>
    </a>
    <a href="classclanguml_1_1common_1_1model_1_1source__file.html" target="_top" title="Diagram element representing some file or directory." xlink:actuate="onRequest" xlink:href="classclanguml_1_1common_1_1model_1_1source__file.html" xlink:show="new" xlink:title="Diagram element representing some file or directory." xlink:type="simple">
      <g id="elem_C_0006285717704576425038">
        <rect codeLine="21" fill="#F1F1F1" height="48" id="C_0006285717704576425038" rx="2.5" ry="2.5" style="stroke:#181818;stroke-width:0.5;" width="102.3777" x="657" y="346.6699"/>
        <ellipse cx="672" cy="362.6699" fill="#ADD1B2" rx="11" ry="11" style="stroke:#181818;stroke-width:1.0;"/>
        <path d="M674.9688,368.3105 Q674.3906,368.6074 673.75,368.748 Q673.1094,368.9043 672.4063,368.9043 Q669.9063,368.9043 668.5781,367.2636 Q667.2656,365.6074 667.2656,362.4824 Q667.2656,359.3574 668.5781,357.7011 Q669.9063,356.0449 672.4063,356.0449 Q673.1094,356.0449 673.75,356.2011 Q674.4063,356.3574 674.9688,356.6543 L674.9688,359.373 Q674.3438,358.7949 673.75,358.5293 Q673.1563,358.248 672.5313,358.248 Q671.1875,358.248 670.5,359.3261 Q669.8125,360.3886 669.8125,362.4824 Q669.8125,364.5761 670.5,365.6543 Q671.1875,366.7168 672.5313,366.7168 Q673.1563,366.7168 673.75,366.4511 Q674.3438,366.1699 674.9688,365.5918 L674.9688,368.3105 Z " fill="#000000"/>
        <text fill="#000000" font-family="sans-serif" font-size="14" lengthAdjust="spacing" textLength="70.3777" x="686" y="368.1019">source_file</text>
        <line style="stroke:#181818;stroke-width:0.5;" x1="658" x2="758.3777" y1="378.6699" y2="378.6699"/>
        <line style="stroke:#181818;stroke-width:0.5;" x1="658" x2="758.3777" y1="386.6699" y2="386.6699"/>
      </g>
    </a>
    <a href="classclanguml_1_1common_1_1model_1_1package.html" target="_top" title="Diagram element representing namespace or directory package" xlink:actuate="onRequest" xlink:href="classclanguml_1_1common_1_1model_1_1package.html" xlink:show="new" xlink:title="Diagram element representing namespace or directory package" xlink:type="simple">
      <g id="elem_C_0017146293478645494837">
        <rect codeLine="25" fill="#F1F1F1" height="48" id="C_0017146293478645494837" rx="2.5" ry="2.5" style="stroke:#181818;stroke-width:0.5;" width="87.0198" x="671.5" y="454.6699"/>
        <ellipse cx="686.5" cy="470.6699" fill="#ADD1B2" rx="11" ry="11" style="stroke:#181818;stroke-width:1.0;"/>
        <path d="M689.4688,476.3105 Q688.8906,476.6074 688.25,476.748 Q687.6094,476.9043 686.9063,476.9043 Q684.4063,476.9043 683.0781,475.2636 Q681.7656,473.6074 681.7656,470.4824 Q681.7656,467.3574 683.0781,465.7011 Q684.4063,464.0449 686.9063,464.0449 Q687.6094,464.0449 688.25,464.2011 Q688.9063,464.3574 689.4688,464.6543 L689.4688,467.373 Q688.8438,466.7949 688.25,466.5293 Q687.6563,466.248 687.0313,466.248 Q685.6875,466.248 685,467.3261 Q684.3125,468.3886 684.3125,470.4824 Q684.3125,472.5761 685,473.6543 Q685.6875,474.7168 687.0313,474.7168 Q687.6563,474.7168 688.25,474.4511 Q688.8438,474.1699 689.4688,473.5918 L689.4688,476.3105 Z " fill="#000000"/>
        <text fill="#000000" font-family="sans-serif" font-size="14" lengthAdjust="spacing" textLength="55.0198" x="700.5" y="476.1019">package</text>
        <line style="stroke:#181818;stroke-width:0.5;" x1="672.5" x2="757.5198" y1="486.6699" y2="486.6699"/>
        <line style="stroke:#181818;stroke-width:0.5;" x1="672.5" x2="757.5198" y1="494.6699" y2="494.6699"/>
      </g>
    </a>
    <a href="classclanguml_1_1class__diagram_1_1model_1_1class__element.html" target="_top" title="Base class for class elements (e.g. member or method)." xlink:actuate="onRequest" xlink:href="classclanguml_1_1class__diagram_1_1model_1_1class__element.html" xlink:show="new" xlink:title="Base class for class elements (e.g. member or method)." xlink:type="simple">
      <g id="elem_C_0004846934894930864299">
        <rect codeLine="33" fill="#F1F1F1" height="48" id="C_0004846934894930864299" rx="2.5" ry="2.5" style="stroke:#181818;stroke-width:0.5;" width="123.9096" x="1076" y="650.6699"/>
        <ellipse cx="1091" cy="666.6699" fill="#ADD1B2" rx="11" ry="11" style="stroke:#181818;stroke-width:1.0;"/>
        <path d="M1093.9688,672.3105 Q1093.3906,672.6074 1092.75,672.748 Q1092.1094,672.9043 1091.4063,672.9043 Q1088.9063,672.9043 1087.5781,671.2636 Q1086.2656,669.6074 1086.2656,666.4824 Q1086.2656,663.3574 1087.5781,661.7011 Q1088.9063,660.0449 1091.4063,660.0449 Q1092.1094,660.0449 1092.75,660.2011 Q1093.4063,660.3574 1093.9688,660.6543 L1093.9688,663.373 Q1093.3438,662.7949 1092.75,662.5293 Q1092.1563,662.248 1091.5313,662.248 Q1090.1875,662.248 1089.5,663.3261 Q1088.8125,664.3886 1088.8125,666.4824 Q1088.8125,668.5761 1089.5,669.6543 Q1090.1875,670.7168 1091.5313,670.7168 Q1092.1563,670.7168 1092.75,670.4511 Q1093.3438,670.1699 1093.9688,669.5918 L1093.9688,672.3105 Z " fill="#000000"/>
        <text fill="#000000" font-family="sans-serif" font-size="14" lengthAdjust="spacing" textLength="91.9096" x="1105" y="672.1019">class_element</text>
        <line style="stroke:#181818;stroke-width:0.5;" x1="1077" x2="1198.9096" y1="682.6699" y2="682.6699"/>
        <line style="stroke:#181818;stroke-width:0.5;" x1="1077" x2="1198.9096" y1="690.6699" y2="690.6699"/>
      </g>
    </a>
    <a href="classclanguml_1_1class__diagram_1_1model_1_1class__member__base.html" target="_top" title="Generic class member model." xlink:actuate="onRequest" xlink:href="classclanguml_1_1class__diagram_1_1model_1_1class__member__base.html" xlink:show="new" xlink:title="Generic class member model." xlink:type="simple">
      <g id="elem_C_0014241292626575163322">
        <rect codeLine="37" fill="#F1F1F1" height="48" id="C_0014241292626575163322" rx="2.5" ry="2.5" style="stroke:#181818;stroke-width:0.5;" width="163.4595" x="747.5" y="758.6699"/>
        <ellipse cx="762.5" cy="774.6699" fill="#ADD1B2" rx="11" ry="11" style="stroke:#181818;stroke-width:1.0;"/>
        <path d="M765.4688,780.3105 Q764.8906,780.6074 764.25,780.748 Q763.6094,780.9043 762.9063,780.9043 Q760.4063,780.9043 759.0781,779.2636 Q757.7656,777.6074 757.7656,774.4824 Q757.7656,771.3574 759.0781,769.7011 Q760.4063,768.0449 762.9063,768.0449 Q763.6094,768.0449 764.25,768.2011 Q764.9063,768.3574 765.4688,768.6543 L765.4688,771.373 Q764.8438,770.7949 764.25,770.5293 Q763.6563,770.248 763.0313,770.248 Q761.6875,770.248 761,771.3261 Q760.3125,772.3886 760.3125,774.4824 Q760.3125,776.5761 761,777.6543 Q761.6875,778.7168 763.0313,778.7168 Q763.6563,778.7168 764.25,778.4511 Q764.8438,778.1699 765.4688,777.5918 L765.4688,780.3105 Z " fill="#000000"/>
        <text fill="#000000" font-family="sans-serif" font-size="14" lengthAdjust="spacing" textLength="131.4595" x="776.5" y="780.1019">class_member_base</text>
        <line style="stroke:#181818;stroke-width:0.5;" x1="748.5" x2="909.9595" y1="790.6699" y2="790.6699"/>
        <line style="stroke:#181818;stroke-width:0.5;" x1="748.5" x2="909.9595" y1="798.6699" y2="798.6699"/>
      </g>
    </a>
    <a href="classclanguml_1_1class__diagram_1_1model_1_1class__member.html" target="_top" title="Class member model." xlink:actuate="onRequest" xlink:href="classclanguml_1_1class__diagram_1_1model_1_1class__member.html" xlink:show="new" xlink:title="Class member model." xlink:type="simple">
      <g id="elem_C_0014370262096868218046">
        <rect codeLine="41" fill="#F1F1F1" height="48" id="C_0014370262096868218046" rx="2.5" ry="2.5" style="stroke:#181818;stroke-width:0.5;" width="126.1776" x="607" y="866.6699"/>
        <ellipse cx="622" cy="882.6699" fill="#ADD1B2" rx="11" ry="11" style="stroke:#181818;stroke-width:1.0;"/>
        <path d="M624.9688,888.3105 Q624.3906,888.6074 623.75,888.748 Q623.1094,888.9043 622.4063,888.9043 Q619.9063,888.9043 618.5781,887.2636 Q617.2656,885.6074 617.2656,882.4824 Q617.2656,879.3574 618.5781,877.7011 Q619.9063,876.0449 622.4063,876.0449 Q623.1094,876.0449 623.75,876.2011 Q624.4063,876.3574 624.9688,876.6543 L624.9688,879.373 Q624.3438,878.7949 623.75,878.5293 Q623.1563,878.248 622.5313,878.248 Q621.1875,878.248 620.5,879.3261 Q619.8125,880.3886 619.8125,882.4824 Q619.8125,884.5761 620.5,885.6543 Q621.1875,886.7168 622.5313,886.7168 Q623.1563,886.7168 623.75,886.4511 Q624.3438,886.1699 624.9688,885.5918 L624.9688,888.3105 Z " fill="#000000"/>
        <text fill="#000000" font-family="sans-serif" font-size="14" lengthAdjust="spacing" textLength="94.1776" x="636" y="888.1019">class_member</text>
        <line style="stroke:#181818;stroke-width:0.5;" x1="608" x2="732.1776" y1="898.6699" y2="898.6699"/>
        <line style="stroke:#181818;stroke-width:0.5;" x1="608" x2="732.1776" y1="906.6699" y2="906.6699"/>
      </g>
    </a>
    <a href="classclanguml_1_1class__diagram_1_1model_1_1class__method__base.html" target="_top" title="Class method model." xlink:actuate="onRequest" xlink:href="classclanguml_1_1class__diagram_1_1model_1_1class__method__base.html" xlink:show="new" xlink:title="Class method model." xlink:type="simple">
      <g id="elem_C_0018032026899693266441">
        <rect codeLine="45" fill="#F1F1F1" height="48" id="C_0018032026899693266441" rx="2.5" ry="2.5" style="stroke:#181818;stroke-width:0.5;" width="158.8675" x="1041.5" y="758.6699"/>
        <ellipse cx="1056.5" cy="774.6699" fill="#ADD1B2" rx="11" ry="11" style="stroke:#181818;stroke-width:1.0;"/>
        <path d="M1059.4688,780.3105 Q1058.8906,780.6074 1058.25,780.748 Q1057.6094,780.9043 1056.9063,780.9043 Q1054.4063,780.9043 1053.0781,779.2636 Q1051.7656,777.6074 1051.7656,774.4824 Q1051.7656,771.3574 1053.0781,769.7011 Q1054.4063,768.0449 1056.9063,768.0449 Q1057.6094,768.0449 1058.25,768.2011 Q1058.9063,768.3574 1059.4688,768.6543 L1059.4688,771.373 Q1058.8438,770.7949 1058.25,770.5293 Q1057.6563,770.248 1057.0313,770.248 Q1055.6875,770.248 1055,771.3261 Q1054.3125,772.3886 1054.3125,774.4824 Q1054.3125,776.5761 1055,777.6543 Q1055.6875,778.7168 1057.0313,778.7168 Q1057.6563,778.7168 1058.25,778.4511 Q1058.8438,778.1699 1059.4688,777.5918 L1059.4688,780.3105 Z " fill="#000000"/>
        <text fill="#000000" font-family="sans-serif" font-size="14" lengthAdjust="spacing" textLength="126.8675" x="1070.5" y="780.1019">class_method_base</text>
        <line style="stroke:#181818;stroke-width:0.5;" x1="1042.5" x2="1199.3675" y1="790.6699" y2="790.6699"/>
        <line style="stroke:#181818;stroke-width:0.5;" x1="1042.5" x2="1199.3675" y1="798.6699" y2="798.6699"/>
      </g>
    </a>
    <a href="classclanguml_1_1class__diagram_1_1model_1_1class__method.html" target="_top" title="Class method model." xlink:actuate="onRequest" xlink:href="classclanguml_1_1class__diagram_1_1model_1_1class__method.html" xlink:show="new" xlink:title="Class method model." xlink:type="simple">
      <g id="elem_C_0001633165731746789371">
        <rect codeLine="49" fill="#F1F1F1" height="48" id="C_0001633165731746789371" rx="2.5" ry="2.5" style="stroke:#181818;stroke-width:0.5;" width="121.5857" x="925" y="866.6699"/>
        <ellipse cx="940" cy="882.6699" fill="#ADD1B2" rx="11" ry="11" style="stroke:#181818;stroke-width:1.0;"/>
        <path d="M942.9688,888.3105 Q942.3906,888.6074 941.75,888.748 Q941.1094,888.9043 940.4063,888.9043 Q937.9063,888.9043 936.5781,887.2636 Q935.2656,885.6074 935.2656,882.4824 Q935.2656,879.3574 936.5781,877.7011 Q937.9063,876.0449 940.4063,876.0449 Q941.1094,876.0449 941.75,876.2011 Q942.4063,876.3574 942.9688,876.6543 L942.9688,879.373 Q942.3438,878.7949 941.75,878.5293 Q941.1563,878.248 940.5313,878.248 Q939.1875,878.248 938.5,879.3261 Q937.8125,880.3886 937.8125,882.4824 Q937.8125,884.5761 938.5,885.6543 Q939.1875,886.7168 940.5313,886.7168 Q941.1563,886.7168 941.75,886.4511 Q942.3438,886.1699 942.9688,885.5918 L942.9688,888.3105 Z " fill="#000000"/>
        <text fill="#000000" font-family="sans-serif" font-size="14" lengthAdjust="spacing" textLength="89.5857" x="954" y="888.1019">class_method</text>
        <line style="stroke:#181818;stroke-width:0.5;" x1="926" x2="1045.5857" y1="898.6699" y2="898.6699"/>
        <line style="stroke:#181818;stroke-width:0.5;" x1="926" x2="1045.5857" y1="906.6699" y2="906.6699"/>
      </g>
    </a>
    <a href="classclanguml_1_1class__diagram_1_1model_1_1class__.html" target="_top" title="Diagram element representing a class or class template." xlink:actuate="onRequest" xlink:href="classclanguml_1_1class__diagram_1_1model_1_1class__.html" xlink:show="new" xlink:title="Diagram element representing a class or class template." xlink:type="simple">
      <g id="elem_C_0010336274859733225462">
        <rect codeLine="53" fill="#F1F1F1" height="48" id="C_0010336274859733225462" rx="2.5" ry="2.5" style="stroke:#181818;stroke-width:0.5;" width="69.8139" x="574" y="650.6699"/>
        <ellipse cx="589" cy="666.6699" fill="#ADD1B2" rx="11" ry="11" style="stroke:#181818;stroke-width:1.0;"/>
        <path d="M591.9688,672.3105 Q591.3906,672.6074 590.75,672.748 Q590.1094,672.9043 589.4063,672.9043 Q586.9063,672.9043 585.5781,671.2636 Q584.2656,669.6074 584.2656,666.4824 Q584.2656,663.3574 585.5781,661.7011 Q586.9063,660.0449 589.4063,660.0449 Q590.1094,660.0449 590.75,660.2011 Q591.4063,660.3574 591.9688,660.6543 L591.9688,663.373 Q591.3438,662.7949 590.75,662.5293 Q590.1563,662.248 589.5313,662.248 Q588.1875,662.248 587.5,663.3261 Q586.8125,664.3886 586.8125,666.4824 Q586.8125,668.5761 587.5,669.6543 Q588.1875,670.7168 589.5313,670.7168 Q590.1563,670.7168 590.75,670.4511 Q591.3438,670.1699 591.9688,669.5918 L591.9688,672.3105 Z " fill="#000000"/>
        <text fill="#000000" font-family="sans-serif" font-size="14" lengthAdjust="spacing" textLength="37.8139" x="603" y="672.1019">class_</text>
        <line style="stroke:#181818;stroke-width:0.5;" x1="575" x2="642.8139" y1="682.6699" y2="682.6699"/>
        <line style="stroke:#181818;stroke-width:0.5;" x1="575" x2="642.8139" y1="690.6699" y2="690.6699"/>
      </g>
    </a>
    <a href="classclanguml_1_1class__diagram_1_1model_1_1concept__.html" target="_top" title="Model of C++ concept." xlink:actuate="onRequest" xlink:href="classclanguml_1_1class__diagram_1_1model_1_1concept__.html" xlink:show="new" xlink:title="Model of C++ concept." xlink:type="simple">
      <g id="elem_C_0010998792414017796003">
        <rect codeLine="57" fill="#F1F1F1" height="48" id="C_0010998792414017796003" rx="2.5" ry="2.5" style="stroke:#181818;stroke-width:0.5;" width="90.3378" x="838" y="650.6699"/>
        <ellipse cx="853" cy="666.6699" fill="#ADD1B2" rx="11" ry="11" style="stroke:#181818;stroke-width:1.0;"/>
        <path d="M855.9688,672.3105 Q855.3906,672.6074 854.75,672.748 Q854.1094,672.9043 853.4063,672.9043 Q850.9063,672.9043 849.5781,671.2636 Q848.2656,669.6074 848.2656,666.4824 Q848.2656,663.3574 849.5781,661.7011 Q850.9063,660.0449 853.4063,660.0449 Q854.1094,660.0449 854.75,660.2011 Q855.4063,660.3574 855.9688,660.6543 L855.9688,663.373 Q855.3438,662.7949 854.75,662.5293 Q854.1563,662.248 853.5313,662.248 Q852.1875,662.248 851.5,663.3261 Q850.8125,664.3886 850.8125,666.4824 Q850.8125,668.5761 851.5,669.6543 Q852.1875,670.7168 853.5313,670.7168 Q854.1563,670.7168 854.75,670.4511 Q855.3438,670.1699 855.9688,669.5918 L855.9688,672.3105 Z " fill="#000000"/>
        <text fill="#000000" font-family="sans-serif" font-size="14" lengthAdjust="spacing" textLength="58.3378" x="867" y="672.1019">concept_</text>
        <line style="stroke:#181818;stroke-width:0.5;" x1="839" x2="927.3378" y1="682.6699" y2="682.6699"/>
        <line style="stroke:#181818;stroke-width:0.5;" x1="839" x2="927.3378" y1="690.6699" y2="690.6699"/>
      </g>
    </a>
    <a href="classclanguml_1_1class__diagram_1_1model_1_1enum__.html" target="_top" title="Diagram element representing an enum." xlink:actuate="onRequest" xlink:href="classclanguml_1_1class__diagram_1_1model_1_1enum__.html" xlink:show="new" xlink:title="Diagram element representing an enum." xlink:type="simple">
      <g id="elem_C_0005795143816749204050">
        <rect codeLine="61" fill="#F1F1F1" height="48" id="C_0005795143816749204050" rx="2.5" ry="2.5" style="stroke:#181818;stroke-width:0.5;" width="76.5058" x="963.5" y="650.6699"/>
        <ellipse cx="978.5" cy="666.6699" fill="#ADD1B2" rx="11" ry="11" style="stroke:#181818;stroke-width:1.0;"/>
        <path d="M981.4688,672.3105 Q980.8906,672.6074 980.25,672.748 Q979.6094,672.9043 978.9063,672.9043 Q976.4063,672.9043 975.0781,671.2636 Q973.7656,669.6074 973.7656,666.4824 Q973.7656,663.3574 975.0781,661.7011 Q976.4063,660.0449 978.9063,660.0449 Q979.6094,660.0449 980.25,660.2011 Q980.9063,660.3574 981.4688,660.6543 L981.4688,663.373 Q980.8438,662.7949 980.25,662.5293 Q979.6563,662.248 979.0313,662.248 Q977.6875,662.248 977,663.3261 Q976.3125,664.3886 976.3125,666.4824 Q976.3125,668.5761 977,669.6543 Q977.6875,670.7168 979.0313,670.7168 Q979.6563,670.7168 980.25,670.4511 Q980.8438,670.1699 981.4688,669.5918 L981.4688,672.3105 Z " fill="#000000"/>
        <text fill="#000000" font-family="sans-serif" font-size="14" lengthAdjust="spacing" textLength="44.5058" x="992.5" y="672.1019">enum_</text>
        <line style="stroke:#181818;stroke-width:0.5;" x1="964.5" x2="1039.0058" y1="682.6699" y2="682.6699"/>
        <line style="stroke:#181818;stroke-width:0.5;" x1="964.5" x2="1039.0058" y1="690.6699" y2="690.6699"/>
      </g>
    </a>
    <a href="classclanguml_1_1class__diagram_1_1model_1_1objc__member.html" target="_top" title="ObjC class member model." xlink:actuate="onRequest" xlink:href="classclanguml_1_1class__diagram_1_1model_1_1objc__member.html" xlink:show="new" xlink:title="ObjC class member model." xlink:type="simple">
      <g id="elem_C_0007364672229966928495">
        <rect codeLine="65" fill="#F1F1F1" height="48" id="C_0007364672229966928495" rx="2.5" ry="2.5" style="stroke:#181818;stroke-width:0.5;" width="121.9917" x="768" y="866.6699"/>
        <ellipse cx="783" cy="882.6699" fill="#ADD1B2" rx="11" ry="11" style="stroke:#181818;stroke-width:1.0;"/>
        <path d="M785.9688,888.3105 Q785.3906,888.6074 784.75,888.748 Q784.1094,888.9043 783.4063,888.9043 Q780.9063,888.9043 779.5781,887.2636 Q778.2656,885.6074 778.2656,882.4824 Q778.2656,879.3574 779.5781,877.7011 Q780.9063,876.0449 783.4063,876.0449 Q784.1094,876.0449 784.75,876.2011 Q785.4063,876.3574 785.9688,876.6543 L785.9688,879.373 Q785.3438,878.7949 784.75,878.5293 Q784.1563,878.248 783.5313,878.248 Q782.1875,878.248 781.5,879.3261 Q780.8125,880.3886 780.8125,882.4824 Q780.8125,884.5761 781.5,885.6543 Q782.1875,886.7168 783.5313,886.7168 Q784.1563,886.7168 784.75,886.4511 Q785.3438,886.1699 785.9688,885.5918 L785.9688,888.3105 Z " fill="#000000"/>
        <text fill="#000000" font-family="sans-serif" font-size="14" lengthAdjust="spacing" textLength="89.9917" x="797" y="888.1019">objc_member</text>
        <line style="stroke:#181818;stroke-width:0.5;" x1="769" x2="888.9917" y1="898.6699" y2="898.6699"/>
        <line style="stroke:#181818;stroke-width:0.5;" x1="769" x2="888.9917" y1="906.6699" y2="906.6699"/>
      </g>
    </a>
    <a href="classclanguml_1_1class__diagram_1_1model_1_1objc__method.html" target="_top" title="ObjC class method model." xlink:actuate="onRequest" xlink:href="classclanguml_1_1class__diagram_1_1model_1_1objc__method.html" xlink:show="new" xlink:title="ObjC class method model." xlink:type="simple">
      <g id="elem_C_0002175636676684225778">
        <rect codeLine="69" fill="#F1F1F1" height="48" id="C_0002175636676684225778" rx="2.5" ry="2.5" style="stroke:#181818;stroke-width:0.5;" width="117.3997" x="1082.5" y="866.6699"/>
        <ellipse cx="1097.5" cy="882.6699" fill="#ADD1B2" rx="11" ry="11" style="stroke:#181818;stroke-width:1.0;"/>
        <path d="M1100.4688,888.3105 Q1099.8906,888.6074 1099.25,888.748 Q1098.6094,888.9043 1097.9063,888.9043 Q1095.4063,888.9043 1094.0781,887.2636 Q1092.7656,885.6074 1092.7656,882.4824 Q1092.7656,879.3574 1094.0781,877.7011 Q1095.4063,876.0449 1097.9063,876.0449 Q1098.6094,876.0449 1099.25,876.2011 Q1099.9063,876.3574 1100.4688,876.6543 L1100.4688,879.373 Q1099.8438,878.7949 1099.25,878.5293 Q1098.6563,878.248 1098.0313,878.248 Q1096.6875,878.248 1096,879.3261 Q1095.3125,880.3886 1095.3125,882.4824 Q1095.3125,884.5761 1096,885.6543 Q1096.6875,886.7168 1098.0313,886.7168 Q1098.6563,886.7168 1099.25,886.4511 Q1099.8438,886.1699 1100.4688,885.5918 L1100.4688,888.3105 Z " fill="#000000"/>
        <text fill="#000000" font-family="sans-serif" font-size="14" lengthAdjust="spacing" textLength="85.3997" x="1111.5" y="888.1019">objc_method</text>
        <line style="stroke:#181818;stroke-width:0.5;" x1="1083.5" x2="1198.8997" y1="898.6699" y2="898.6699"/>
        <line style="stroke:#181818;stroke-width:0.5;" x1="1083.5" x2="1198.8997" y1="906.6699" y2="906.6699"/>
      </g>
    </a>
    <a href="classclanguml_1_1class__diagram_1_1model_1_1objc__interface.html" target="_top" title="Diagram element representing an ObjC interface." xlink:actuate="onRequest" xlink:href="classclanguml_1_1class__diagram_1_1model_1_1objc__interface.html" xlink:show="new" xlink:title="Diagram element representing an ObjC interface." xlink:type="simple">
      <g id="elem_C_0010166346108406727066">
        <rect codeLine="73" fill="#F1F1F1" height="48" id="C_0010166346108406727066" rx="2.5" ry="2.5" style="stroke:#181818;stroke-width:0.5;" width="123.9096" x="679" y="650.6699"/>
        <ellipse cx="694" cy="666.6699" fill="#ADD1B2" rx="11" ry="11" style="stroke:#181818;stroke-width:1.0;"/>
        <path d="M696.9688,672.3105 Q696.3906,672.6074 695.75,672.748 Q695.1094,672.9043 694.4063,672.9043 Q691.9063,672.9043 690.5781,671.2636 Q689.2656,669.6074 689.2656,666.4824 Q689.2656,663.3574 690.5781,661.7011 Q691.9063,660.0449 694.4063,660.0449 Q695.1094,660.0449 695.75,660.2011 Q696.4063,660.3574 696.9688,660.6543 L696.9688,663.373 Q696.3438,662.7949 695.75,662.5293 Q695.1563,662.248 694.5313,662.248 Q693.1875,662.248 692.5,663.3261 Q691.8125,664.3886 691.8125,666.4824 Q691.8125,668.5761 692.5,669.6543 Q693.1875,670.7168 694.5313,670.7168 Q695.1563,670.7168 695.75,670.4511 Q696.3438,670.1699 696.9688,669.5918 L696.9688,672.3105 Z " fill="#000000"/>
        <text fill="#000000" font-family="sans-serif" font-size="14" lengthAdjust="spacing" textLength="91.9096" x="708" y="672.1019">objc_interface</text>
        <line style="stroke:#181818;stroke-width:0.5;" x1="680" x2="801.9096" y1="682.6699" y2="682.6699"/>
        <line style="stroke:#181818;stroke-width:0.5;" x1="680" x2="801.9096" y1="690.6699" y2="690.6699"/>
      </g>
    </a>
    <a href="structclanguml_1_1sequence__diagram_1_1model_1_1participant.html" target="_top" title="Base class for various types of sequence diagram participants" xlink:actuate="onRequest" xlink:href="structclanguml_1_1sequence__diagram_1_1model_1_1participant.html" xlink:show="new" xlink:title="Base class for various types of sequence diagram participants" xlink:type="simple">
      <g id="elem_C_0011201726182739961811">
        <rect codeLine="81" fill="#F1F1F1" height="48" id="C_0011201726182739961811" rx="2.5" ry="2.5" style="stroke:#181818;stroke-width:0.5;" width="103.4137" x="354.5" y="650.6699"/>
        <ellipse cx="369.5" cy="666.6699" fill="#ADD1B2" rx="11" ry="11" style="stroke:#181818;stroke-width:1.0;"/>
        <path d="M372.4688,672.3105 Q371.8906,672.6074 371.25,672.748 Q370.6094,672.9043 369.9063,672.9043 Q367.4063,672.9043 366.0781,671.2636 Q364.7656,669.6074 364.7656,666.4824 Q364.7656,663.3574 366.0781,661.7011 Q367.4063,660.0449 369.9063,660.0449 Q370.6094,660.0449 371.25,660.2011 Q371.9063,660.3574 372.4688,660.6543 L372.4688,663.373 Q371.8438,662.7949 371.25,662.5293 Q370.6563,662.248 370.0313,662.248 Q368.6875,662.248 368,663.3261 Q367.3125,664.3886 367.3125,666.4824 Q367.3125,668.5761 368,669.6543 Q368.6875,670.7168 370.0313,670.7168 Q370.6563,670.7168 371.25,670.4511 Q371.8438,670.1699 372.4688,669.5918 L372.4688,672.3105 Z " fill="#000000"/>
        <text fill="#000000" font-family="sans-serif" font-size="14" lengthAdjust="spacing" textLength="71.4137" x="383.5" y="672.1019">participant</text>
        <line style="stroke:#181818;stroke-width:0.5;" x1="355.5" x2="456.9137" y1="682.6699" y2="682.6699"/>
        <line style="stroke:#181818;stroke-width:0.5;" x1="355.5" x2="456.9137" y1="690.6699" y2="690.6699"/>
      </g>
    </a>
    <a href="structclanguml_1_1sequence__diagram_1_1model_1_1class__.html" target="_top" title="Sequence diagram participant representing a class." xlink:actuate="onRequest" xlink:href="structclanguml_1_1sequence__diagram_1_1model_1_1class__.html" xlink:show="new" xlink:title="Sequence diagram participant representing a class." xlink:type="simple">
      <g id="elem_C_0007084118972955772881">
        <rect codeLine="85" fill="#F1F1F1" height="48" id="C_0007084118972955772881" rx="2.5" ry="2.5" style="stroke:#181818;stroke-width:0.5;" width="69.8139" x="245" y="758.6699"/>
        <ellipse cx="260" cy="774.6699" fill="#ADD1B2" rx="11" ry="11" style="stroke:#181818;stroke-width:1.0;"/>
        <path d="M262.9688,780.3105 Q262.3906,780.6074 261.75,780.748 Q261.1094,780.9043 260.4063,780.9043 Q257.9063,780.9043 256.5781,779.2636 Q255.2656,777.6074 255.2656,774.4824 Q255.2656,771.3574 256.5781,769.7011 Q257.9063,768.0449 260.4063,768.0449 Q261.1094,768.0449 261.75,768.2011 Q262.4063,768.3574 262.9688,768.6543 L262.9688,771.373 Q262.3438,770.7949 261.75,770.5293 Q261.1563,770.248 260.5313,770.248 Q259.1875,770.248 258.5,771.3261 Q257.8125,772.3886 257.8125,774.4824 Q257.8125,776.5761 258.5,777.6543 Q259.1875,778.7168 260.5313,778.7168 Q261.1563,778.7168 261.75,778.4511 Q262.3438,778.1699 262.9688,777.5918 L262.9688,780.3105 Z " fill="#000000"/>
        <text fill="#000000" font-family="sans-serif" font-size="14" lengthAdjust="spacing" textLength="37.8139" x="274" y="780.1019">class_</text>
        <line style="stroke:#181818;stroke-width:0.5;" x1="246" x2="313.8139" y1="790.6699" y2="790.6699"/>
        <line style="stroke:#181818;stroke-width:0.5;" x1="246" x2="313.8139" y1="798.6699" y2="798.6699"/>
      </g>
    </a>
    <a href="structclanguml_1_1sequence__diagram_1_1model_1_1function.html" target="_top" title="Participant mode representing a free function." xlink:actuate="onRequest" xlink:href="structclanguml_1_1sequence__diagram_1_1model_1_1function.html" xlink:show="new" xlink:title="Participant mode representing a free function." xlink:type="simple">
      <g id="elem_C_0001861107648253454629">
        <rect codeLine="89" fill="#F1F1F1" height="48" id="C_0001861107648253454629" rx="2.5" ry="2.5" style="stroke:#181818;stroke-width:0.5;" width="86.6278" x="350.5" y="758.6699"/>
        <ellipse cx="365.5" cy="774.6699" fill="#ADD1B2" rx="11" ry="11" style="stroke:#181818;stroke-width:1.0;"/>
        <path d="M368.4688,780.3105 Q367.8906,780.6074 367.25,780.748 Q366.6094,780.9043 365.9063,780.9043 Q363.4063,780.9043 362.0781,779.2636 Q360.7656,777.6074 360.7656,774.4824 Q360.7656,771.3574 362.0781,769.7011 Q363.4063,768.0449 365.9063,768.0449 Q366.6094,768.0449 367.25,768.2011 Q367.9063,768.3574 368.4688,768.6543 L368.4688,771.373 Q367.8438,770.7949 367.25,770.5293 Q366.6563,770.248 366.0313,770.248 Q364.6875,770.248 364,771.3261 Q363.3125,772.3886 363.3125,774.4824 Q363.3125,776.5761 364,777.6543 Q364.6875,778.7168 366.0313,778.7168 Q366.6563,778.7168 367.25,778.4511 Q367.8438,778.1699 368.4688,777.5918 L368.4688,780.3105 Z " fill="#000000"/>
        <text fill="#000000" font-family="sans-serif" font-size="14" lengthAdjust="spacing" textLength="54.6278" x="379.5" y="780.1019">function</text>
        <line style="stroke:#181818;stroke-width:0.5;" x1="351.5" x2="436.1278" y1="790.6699" y2="790.6699"/>
        <line style="stroke:#181818;stroke-width:0.5;" x1="351.5" x2="436.1278" y1="798.6699" y2="798.6699"/>
      </g>
    </a>
    <a href="structclanguml_1_1sequence__diagram_1_1model_1_1method.html" target="_top" title="Participant model representing a method" xlink:actuate="onRequest" xlink:href="structclanguml_1_1sequence__diagram_1_1model_1_1method.html" xlink:show="new" xlink:title="Participant model representing a method" xlink:type="simple">
      <g id="elem_C_0006541327780382276039">
        <rect codeLine="93" fill="#F1F1F1" height="48" id="C_0006541327780382276039" rx="2.5" ry="2.5" style="stroke:#181818;stroke-width:0.5;" width="83.7718" x="46" y="866.6699"/>
        <ellipse cx="61" cy="882.6699" fill="#ADD1B2" rx="11" ry="11" style="stroke:#181818;stroke-width:1.0;"/>
        <path d="M63.9688,888.3105 Q63.3906,888.6074 62.75,888.748 Q62.1094,888.9043 61.4063,888.9043 Q58.9063,888.9043 57.5781,887.2636 Q56.2656,885.6074 56.2656,882.4824 Q56.2656,879.3574 57.5781,877.7011 Q58.9063,876.0449 61.4063,876.0449 Q62.1094,876.0449 62.75,876.2011 Q63.4063,876.3574 63.9688,876.6543 L63.9688,879.373 Q63.3438,878.7949 62.75,878.5293 Q62.1563,878.248 61.5313,878.248 Q60.1875,878.248 59.5,879.3261 Q58.8125,880.3886 58.8125,882.4824 Q58.8125,884.5761 59.5,885.6543 Q60.1875,886.7168 61.5313,886.7168 Q62.1563,886.7168 62.75,886.4511 Q63.3438,886.1699 63.9688,885.5918 L63.9688,888.3105 Z " fill="#000000"/>
        <text fill="#000000" font-family="sans-serif" font-size="14" lengthAdjust="spacing" textLength="51.7718" x="75" y="888.1019">method</text>
        <line style="stroke:#181818;stroke-width:0.5;" x1="47" x2="128.7718" y1="898.6699" y2="898.6699"/>
        <line style="stroke:#181818;stroke-width:0.5;" x1="47" x2="128.7718" y1="906.6699" y2="906.6699"/>
      </g>
    </a>
    <a href="structclanguml_1_1sequence__diagram_1_1model_1_1objc__method.html" target="_top" title="objc_method" xlink:actuate="onRequest" xlink:href="structclanguml_1_1sequence__diagram_1_1model_1_1objc__method.html" xlink:show="new" xlink:title="objc_method" xlink:type="simple">
      <g id="elem_C_0013742559556936917396">
        <rect codeLine="97" fill="#F1F1F1" height="48" id="C_0013742559556936917396" rx="2.5" ry="2.5" style="stroke:#181818;stroke-width:0.5;" width="117.3997" x="165.5" y="866.6699"/>
        <ellipse cx="180.5" cy="882.6699" fill="#ADD1B2" rx="11" ry="11" style="stroke:#181818;stroke-width:1.0;"/>
        <path d="M183.4688,888.3105 Q182.8906,888.6074 182.25,888.748 Q181.6094,888.9043 180.9063,888.9043 Q178.4063,888.9043 177.0781,887.2636 Q175.7656,885.6074 175.7656,882.4824 Q175.7656,879.3574 177.0781,877.7011 Q178.4063,876.0449 180.9063,876.0449 Q181.6094,876.0449 182.25,876.2011 Q182.9063,876.3574 183.4688,876.6543 L183.4688,879.373 Q182.8438,878.7949 182.25,878.5293 Q181.6563,878.248 181.0313,878.248 Q179.6875,878.248 179,879.3261 Q178.3125,880.3886 178.3125,882.4824 Q178.3125,884.5761 179,885.6543 Q179.6875,886.7168 181.0313,886.7168 Q181.6563,886.7168 182.25,886.4511 Q182.8438,886.1699 183.4688,885.5918 L183.4688,888.3105 Z " fill="#000000"/>
        <text fill="#000000" font-family="sans-serif" font-size="14" lengthAdjust="spacing" textLength="85.3997" x="194.5" y="888.1019">objc_method</text>
        <line style="stroke:#181818;stroke-width:0.5;" x1="166.5" x2="281.8997" y1="898.6699" y2="898.6699"/>
        <line style="stroke:#181818;stroke-width:0.5;" x1="166.5" x2="281.8997" y1="906.6699" y2="906.6699"/>
      </g>
    </a>
    <a href="structclanguml_1_1sequence__diagram_1_1model_1_1function__template.html" target="_top" title="Participant model representing a function template." xlink:actuate="onRequest" xlink:href="structclanguml_1_1sequence__diagram_1_1model_1_1function__template.html" xlink:show="new" xlink:title="Participant model representing a function template." xlink:type="simple">
      <g id="elem_C_0018241535739946484465">
        <rect codeLine="101" fill="#F1F1F1" height="48" id="C_0018241535739946484465" rx="2.5" ry="2.5" style="stroke:#181818;stroke-width:0.5;" width="151.9095" x="318" y="866.6699"/>
        <ellipse cx="333" cy="882.6699" fill="#ADD1B2" rx="11" ry="11" style="stroke:#181818;stroke-width:1.0;"/>
        <path d="M335.9688,888.3105 Q335.3906,888.6074 334.75,888.748 Q334.1094,888.9043 333.4063,888.9043 Q330.9063,888.9043 329.5781,887.2636 Q328.2656,885.6074 328.2656,882.4824 Q328.2656,879.3574 329.5781,877.7011 Q330.9063,876.0449 333.4063,876.0449 Q334.1094,876.0449 334.75,876.2011 Q335.4063,876.3574 335.9688,876.6543 L335.9688,879.373 Q335.3438,878.7949 334.75,878.5293 Q334.1563,878.248 333.5313,878.248 Q332.1875,878.248 331.5,879.3261 Q330.8125,880.3886 330.8125,882.4824 Q330.8125,884.5761 331.5,885.6543 Q332.1875,886.7168 333.5313,886.7168 Q334.1563,886.7168 334.75,886.4511 Q335.3438,886.1699 335.9688,885.5918 L335.9688,888.3105 Z " fill="#000000"/>
        <text fill="#000000" font-family="sans-serif" font-size="14" lengthAdjust="spacing" textLength="119.9095" x="347" y="888.1019">function_template</text>
        <line style="stroke:#181818;stroke-width:0.5;" x1="319" x2="468.9095" y1="898.6699" y2="898.6699"/>
        <line style="stroke:#181818;stroke-width:0.5;" x1="319" x2="468.9095" y1="906.6699" y2="906.6699"/>
      </g>
    </a>
    <a href="classclanguml_1_1sequence__diagram_1_1model_1_1message.html" target="_top" title="Model of a sequence diagram message." xlink:actuate="onRequest" xlink:href="classclanguml_1_1sequence__diagram_1_1model_1_1message.html" xlink:show="new" xlink:title="Model of a sequence diagram message." xlink:type="simple">
      <g id="elem_C_0017829224549649886549">
        <rect codeLine="105" fill="#F1F1F1" height="48" id="C_0017829224549649886549" rx="2.5" ry="2.5" style="stroke:#181818;stroke-width:0.5;" width="90.7578" x="228.5" y="650.6699"/>
        <ellipse cx="243.5" cy="666.6699" fill="#ADD1B2" rx="11" ry="11" style="stroke:#181818;stroke-width:1.0;"/>
        <path d="M246.4688,672.3105 Q245.8906,672.6074 245.25,672.748 Q244.6094,672.9043 243.9063,672.9043 Q241.4063,672.9043 240.0781,671.2636 Q238.7656,669.6074 238.7656,666.4824 Q238.7656,663.3574 240.0781,661.7011 Q241.4063,660.0449 243.9063,660.0449 Q244.6094,660.0449 245.25,660.2011 Q245.9063,660.3574 246.4688,660.6543 L246.4688,663.373 Q245.8438,662.7949 245.25,662.5293 Q244.6563,662.248 244.0313,662.248 Q242.6875,662.248 242,663.3261 Q241.3125,664.3886 241.3125,666.4824 Q241.3125,668.5761 242,669.6543 Q242.6875,670.7168 244.0313,670.7168 Q244.6563,670.7168 245.25,670.4511 Q245.8438,670.1699 246.4688,669.5918 L246.4688,672.3105 Z " fill="#000000"/>
        <text fill="#000000" font-family="sans-serif" font-size="14" lengthAdjust="spacing" textLength="58.7578" x="257.5" y="672.1019">message</text>
        <line style="stroke:#181818;stroke-width:0.5;" x1="229.5" x2="318.2578" y1="682.6699" y2="682.6699"/>
        <line style="stroke:#181818;stroke-width:0.5;" x1="229.5" x2="318.2578" y1="690.6699" y2="690.6699"/>
      </g>
    </a>
    <g id="link_C_0007162092657467521843_C_0008588005715032923314">
      <path codeLine="110" d="M642.4417,194.5853 C633.1117,212.2453 628.69,220.6099 619.32,238.3499 " fill="none" id="C_0007162092657467521843-backto-C_0008588005715032923314" style="stroke:#181818;stroke-width:1.0;"/>
      <polygon fill="none" points="650.85,178.6699,637.1366,191.7825,647.7468,197.3881,650.85,178.6699" style="stroke:#181818;stroke-width:1.0;"/>
    </g>
    <g id="link_C_0008588005715032923314_C_0016556163051475263500">
      <path codeLine="112" d="M596.3275,304.0742 C591.6675,321.7342 589.85,328.6099 585.16,346.3499 " fill="none" id="C_0008588005715032923314-backto-C_0016556163051475263500" style="stroke:#181818;stroke-width:1.0;"/>
      <polygon fill="none" points="600.92,286.6699,590.5261,302.5433,602.1289,305.605,600.92,286.6699" style="stroke:#181818;stroke-width:1.0;"/>
    </g>
    <g id="link_C_0016556163051475263500_C_0013384831159811298387">
      <path codeLine="114" d="M572.0852,412.4173 C569.0952,430.0773 567.97,436.6099 564.96,454.3499 " fill="none" id="C_0016556163051475263500-backto-C_0013384831159811298387" style="stroke:#181818;stroke-width:1.0;"/>
      <polygon fill="none" points="575.09,394.6699,566.1694,411.4157,578.001,413.4189,575.09,394.6699" style="stroke:#181818;stroke-width:1.0;"/>
    </g>
    <g id="link_C_0008588005715032923314_C_0006285717704576425038">
      <path codeLine="116" d="M641.3342,299.704 C658.1542,317.364 668.88,328.6099 685.78,346.3499 " fill="none" id="C_0008588005715032923314-backto-C_0006285717704576425038" style="stroke:#181818;stroke-width:1.0;"/>
      <polygon fill="none" points="628.92,286.6699,636.9895,303.8421,645.6789,295.566,628.92,286.6699" style="stroke:#181818;stroke-width:1.0;"/>
    </g>
    <g id="link_C_0016556163051475263500_C_0017146293478645494837">
      <path codeLine="118" d="M622.7075,405.7347 C645.3675,423.3947 662.32,436.6099 685.08,454.3499 " fill="none" id="C_0016556163051475263500-backto-C_0017146293478645494837" style="stroke:#181818;stroke-width:1.0;"/>
      <polygon fill="none" points="608.51,394.6699,619.0193,410.4672,626.3958,401.0022,608.51,394.6699" style="stroke:#181818;stroke-width:1.0;"/>
    </g>
    <g id="link_C_0007162092657467521843_C_0004846934894930864299">
      <path codeLine="120" d="M701.7949,191.0272 C766.9349,250.7772 929.91,403.9799 1058,558.6699 C1082.97,588.8299 1108.18,626.5399 1123.44,650.3699 " fill="none" id="C_0007162092657467521843-backto-C_0004846934894930864299" style="stroke:#181818;stroke-width:1.0;"/>
      <polygon fill="none" points="688.53,178.8599,697.7391,195.4488,705.8506,186.6056,688.53,178.8599" style="stroke:#181818;stroke-width:1.0;"/>
    </g>
    <g id="link_C_0004846934894930864299_C_0014241292626575163322">
      <path codeLine="122" d="M1058.8144,702.8318 C1006.7344,720.7018 949.58,740.3099 896.15,758.6399 " fill="none" id="C_0004846934894930864299-backto-C_0014241292626575163322" style="stroke:#181818;stroke-width:1.0;"/>
      <polygon fill="none" points="1075.84,696.9899,1056.8671,697.1566,1060.7617,708.507,1075.84,696.9899" style="stroke:#181818;stroke-width:1.0;"/>
    </g>
    <g id="link_C_0014241292626575163322_C_0014370262096868218046">
      <path codeLine="124" d="M779.5231,816.6545 C752.9431,834.3745 731.34,848.7799 704.71,866.5299 " fill="none" id="C_0014241292626575163322-backto-C_0014370262096868218046" style="stroke:#181818;stroke-width:1.0;"/>
      <polygon fill="none" points="794.5,806.6699,776.1949,811.6622,782.8513,821.6468,794.5,806.6699" style="stroke:#181818;stroke-width:1.0;"/>
    </g>
    <g id="link_C_0004846934894930864299_C_0018032026899693266441">
      <path codeLine="126" d="M1131.4619,716.4431 C1128.6319,734.1031 1127.58,740.6099 1124.74,758.3499 " fill="none" id="C_0004846934894930864299-backto-C_0018032026899693266441" style="stroke:#181818;stroke-width:1.0;"/>
      <polygon fill="none" points="1134.31,698.6699,1125.5374,715.4938,1137.3863,717.3925,1134.31,698.6699" style="stroke:#181818;stroke-width:1.0;"/>
    </g>
    <g id="link_C_0018032026899693266441_C_0001633165731746789371">
      <path codeLine="128" d="M1077.553,817.7865 C1055.063,835.4465 1038.29,848.6099 1015.7,866.3499 " fill="none" id="C_0018032026899693266441-backto-C_0001633165731746789371" style="stroke:#181818;stroke-width:1.0;"/>
      <polygon fill="none" points="1091.71,806.6699,1073.8475,813.0675,1081.2585,822.5055,1091.71,806.6699" style="stroke:#181818;stroke-width:1.0;"/>
    </g>
    <g id="link_C_0013384831159811298387_C_0010336274859733225462">
      <path codeLine="130" d="M571.017,520.1621 C580.237,557.3921 593.98,612.9699 603.24,650.3799 " fill="none" id="C_0013384831159811298387-backto-C_0010336274859733225462" style="stroke:#181818;stroke-width:1.0;"/>
      <polygon fill="none" points="566.69,502.6899,565.1929,521.6044,576.841,518.7198,566.69,502.6899" style="stroke:#181818;stroke-width:1.0;"/>
    </g>
    <g id="link_C_0016556163051475263500_C_0010998792414017796003">
      <path codeLine="132" d="M639.1444,394.4122 C645.0944,396.6322 634.26,392.5699 640,394.6699 C715.27,422.1399 753.84,397.5199 810,454.6699 C864.21,509.8399 878.17,606.2999 881.76,650.4299 " fill="none" id="C_0016556163051475263500-backto-C_0010998792414017796003" style="stroke:#181818;stroke-width:1.0;"/>
      <polygon fill="none" points="622.28,388.1199,637.047,400.0336,641.2418,388.7907,622.28,388.1199" style="stroke:#181818;stroke-width:1.0;"/>
    </g>
    <g id="link_C_0016556163051475263500_C_0005795143816749204050">
      <path codeLine="134" d="M639.0662,394.6439 C645.0362,396.8039 634.18,392.7899 640,394.6699 C736.84,425.9899 775.61,399.2899 861,454.6699 C934.98,502.6499 978.07,604.5999 994.4,650.4699 " fill="none" id="C_0016556163051475263500-backto-C_0005795143816749204050" style="stroke:#181818;stroke-width:1.0;"/>
      <polygon fill="none" points="622.14,388.5199,637.0248,400.286,641.1075,389.0019,622.14,388.5199" style="stroke:#181818;stroke-width:1.0;"/>
    </g>
    <g id="link_C_0014241292626575163322_C_0007364672229966928495">
      <path codeLine="136" d="M829,824.6699 C829,842.3299 829,848.6099 829,866.3499 " fill="none" id="C_0014241292626575163322-backto-C_0007364672229966928495" style="stroke:#181818;stroke-width:1.0;"/>
      <polygon fill="none" points="829,806.6699,823,824.6699,835,824.6699,829,806.6699" style="stroke:#181818;stroke-width:1.0;"/>
    </g>
    <g id="link_C_0018032026899693266441_C_0002175636676684225778">
      <path codeLine="138" d="M1128.6753,824.3582 C1132.0053,842.0182 1133.25,848.6099 1136.6,866.3499 " fill="none" id="C_0018032026899693266441-backto-C_0002175636676684225778" style="stroke:#181818;stroke-width:1.0;"/>
      <polygon fill="none" points="1125.34,806.6699,1122.7792,825.47,1134.5714,823.2464,1125.34,806.6699" style="stroke:#181818;stroke-width:1.0;"/>
    </g>
    <g id="link_C_0016556163051475263500_C_0010166346108406727066">
      <path codeLine="140" d="M639.1559,395.1256 C695.7759,417.3456 771.46,447.8299 776,454.6699 C816.78,516.0999 776.96,608.1699 754.31,650.6699 " fill="none" id="C_0016556163051475263500-backto-C_0010166346108406727066" style="stroke:#181818;stroke-width:1.0;"/>
      <polygon fill="none" points="622.4,388.5499,636.964,400.7109,641.3478,389.5403,622.4,388.5499" style="stroke:#181818;stroke-width:1.0;"/>
    </g>
    <g id="link_C_0013384831159811298387_C_0011201726182739961811">
      <path codeLine="142" d="M531.3733,516.7518 C501.6233,553.9818 454.5,612.9699 424.61,650.3799 " fill="none" id="C_0013384831159811298387-backto-C_0011201726182739961811" style="stroke:#181818;stroke-width:1.0;"/>
      <polygon fill="none" points="542.61,502.6899,526.686,513.0062,536.0606,520.4974,542.61,502.6899" style="stroke:#181818;stroke-width:1.0;"/>
    </g>
    <g id="link_C_0011201726182739961811_C_0007084118972955772881">
      <path codeLine="144" d="M364.8865,710.2583 C343.8965,727.9183 328.81,740.6099 307.72,758.3499 " fill="none" id="C_0011201726182739961811-backto-C_0007084118972955772881" style="stroke:#181818;stroke-width:1.0;"/>
      <polygon fill="none" points="378.66,698.6699,361.0237,705.6671,368.7493,714.8494,378.66,698.6699" style="stroke:#181818;stroke-width:1.0;"/>
    </g>
    <g id="link_C_0011201726182739961811_C_0001861107648253454629">
      <path codeLine="146" d="M401.3744,716.5556 C399.3744,734.2156 398.65,740.6099 396.64,758.3499 " fill="none" id="C_0011201726182739961811-backto-C_0001861107648253454629" style="stroke:#181818;stroke-width:1.0;"/>
      <polygon fill="none" points="403.4,698.6699,395.4126,715.8804,407.3363,717.2308,403.4,698.6699" style="stroke:#181818;stroke-width:1.0;"/>
    </g>
    <g id="link_C_0001861107648253454629_C_0006541327780382276039">
      <path codeLine="148" d="M333.5543,806.6146 C327.7043,808.7746 338.66,804.6899 333,806.6699 C251.43,835.2599 229.49,837.8599 148,866.6699 C142.22,868.7199 136.15,870.9399 130.18,873.1799 " fill="none" id="C_0001861107648253454629-backto-C_0006541327780382276039" style="stroke:#181818;stroke-width:1.0;"/>
      <polygon fill="none" points="350.44,800.3799,331.476,800.9861,335.6325,812.2432,350.44,800.3799" style="stroke:#181818;stroke-width:1.0;"/>
    </g>
    <g id="link_C_0001861107648253454629_C_0013742559556936917396">
      <path codeLine="150" d="M341.8373,816.1959 C313.4273,833.9159 289.58,848.7799 261.11,866.5299 " fill="none" id="C_0001861107648253454629-backto-C_0013742559556936917396" style="stroke:#181818;stroke-width:1.0;"/>
      <polygon fill="none" points="357.11,806.6699,338.662,811.105,345.0126,821.2868,357.11,806.6699" style="stroke:#181818;stroke-width:1.0;"/>
    </g>
    <g id="link_C_0001861107648253454629_C_0018241535739946484465">
      <path codeLine="152" d="M394,824.6699 C394,842.3299 394,848.6099 394,866.3499 " fill="none" id="C_0001861107648253454629-backto-C_0018241535739946484465" style="stroke:#181818;stroke-width:1.0;"/>
      <polygon fill="none" points="394,806.6699,388,824.6699,400,824.6699,394,806.6699" style="stroke:#181818;stroke-width:1.0;"/>
    </g>
    <g id="link_C_0008588005715032923314_C_0017829224549649886549">
      <path codeLine="154" d="M567.5868,299.0643 C549.7068,315.3343 539.01,325.6999 519,346.6699 C433.27,436.5099 407.66,456.5499 337,558.6699 C316.15,588.8099 296.6,626.5199 284.97,650.3699 " fill="none" id="C_0008588005715032923314-backto-C_0017829224549649886549" style="stroke:#181818;stroke-width:1.0;"/>
      <polygon fill="none" points="580.9,286.9499,563.5487,294.6266,571.6249,303.502,580.9,286.9499" style="stroke:#181818;stroke-width:1.0;"/>
    </g>
  </g>
</svg>
