<svg xmlns="http://www.w3.org/2000/svg" xmlns:xlink="http://www.w3.org/1999/xlink" contentStyleType="text/css" height="946px" preserveAspectRatio="none" style="width:962px;height:946px;background:#FFFFFF;" version="1.1" viewBox="0 0 962 946" width="962px" zoomAndPan="magnify">
  <defs>
    <style type="text/css">a:hover { text-decoration: underline; }</style>
  </defs>
  <g>
    <text fill="#000000" font-family="sans-serif" font-size="14" font-weight="bold" lengthAdjust="spacing" textLength="299.7422" x="324.1289" y="22.9951">Source location model class hierarchy</text>
    <g id="cluster_C_0002532840279361781187">
      <path d="M222.5,43.2969 L290.1777,43.2969 A3.75,3.75 0 0 1 292.6777,45.7969 L299.6777,65.5938 L584.5,65.5938 A2.5,2.5 0 0 1 587,68.0938 L587,530.7969 A2.5,2.5 0 0 1 584.5,533.2969 L222.5,533.2969 A2.5,2.5 0 0 1 220,530.7969 L220,45.7969 A2.5,2.5 0 0 1 222.5,43.2969 " fill="none" style="stroke:#000000;stroke-width:1.5;"/>
      <line style="stroke:#000000;stroke-width:1.5;" x1="220" x2="299.6777" y1="65.5938" y2="65.5938"/>
      <text fill="#000000" font-family="sans-serif" font-size="14" font-weight="bold" lengthAdjust="spacing" textLength="66.6777" x="224" y="58.292">common</text>
    </g>
    <g id="cluster_C_0000669774451444102653">
      <path d="M246.5,86.2969 L296.0215,86.2969 A3.75,3.75 0 0 1 298.5215,88.7969 L305.5215,108.5938 L560.5,108.5938 A2.5,2.5 0 0 1 563,111.0938 L563,506.7969 A2.5,2.5 0 0 1 560.5,509.2969 L246.5,509.2969 A2.5,2.5 0 0 1 244,506.7969 L244,88.7969 A2.5,2.5 0 0 1 246.5,86.2969 " fill="none" style="stroke:#000000;stroke-width:1.5;"/>
      <line style="stroke:#000000;stroke-width:1.5;" x1="244" x2="305.5215" y1="108.5938" y2="108.5938"/>
      <text fill="#000000" font-family="sans-serif" font-size="14" font-weight="bold" lengthAdjust="spacing" textLength="48.5215" x="248" y="101.292">model</text>
    </g>
    <g id="cluster_C_0017921336289613804855">
      <path d="M392.5,557.2969 L504.9395,557.2969 A3.75,3.75 0 0 1 507.4395,559.7969 L514.4395,579.5938 L952.5,579.5938 A2.5,2.5 0 0 1 955,582.0938 L955,828.7969 A2.5,2.5 0 0 1 952.5,831.2969 L392.5,831.2969 A2.5,2.5 0 0 1 390,828.7969 L390,559.7969 A2.5,2.5 0 0 1 392.5,557.2969 " fill="none" style="stroke:#000000;stroke-width:1.5;"/>
      <line style="stroke:#000000;stroke-width:1.5;" x1="390" x2="514.4395" y1="579.5938" y2="579.5938"/>
      <text fill="#000000" font-family="sans-serif" font-size="14" font-weight="bold" lengthAdjust="spacing" textLength="111.4395" x="394" y="572.292">class_diagram</text>
    </g>
    <g id="cluster_C_0007176993879715460962">
      <path d="M416.5,600.2969 L466.0215,600.2969 A3.75,3.75 0 0 1 468.5215,602.7969 L475.5215,622.5938 L928.5,622.5938 A2.5,2.5 0 0 1 931,625.0938 L931,804.7969 A2.5,2.5 0 0 1 928.5,807.2969 L416.5,807.2969 A2.5,2.5 0 0 1 414,804.7969 L414,602.7969 A2.5,2.5 0 0 1 416.5,600.2969 " fill="none" style="stroke:#000000;stroke-width:1.5;"/>
      <line style="stroke:#000000;stroke-width:1.5;" x1="414" x2="475.5215" y1="622.5938" y2="622.5938"/>
      <text fill="#000000" font-family="sans-serif" font-size="14" font-weight="bold" lengthAdjust="spacing" textLength="48.5215" x="418" y="615.292">model</text>
    </g>
    <g id="cluster_C_0012174902727661033893">
      <path d="M8.5,557.2969 L156.8008,557.2969 A3.75,3.75 0 0 1 159.3008,559.7969 L166.3008,579.5938 L363.5,579.5938 A2.5,2.5 0 0 1 366,582.0938 L366,936.7969 A2.5,2.5 0 0 1 363.5,939.2969 L8.5,939.2969 A2.5,2.5 0 0 1 6,936.7969 L6,559.7969 A2.5,2.5 0 0 1 8.5,557.2969 " fill="none" style="stroke:#000000;stroke-width:1.5;"/>
      <line style="stroke:#000000;stroke-width:1.5;" x1="6" x2="166.3008" y1="579.5938" y2="579.5938"/>
      <text fill="#000000" font-family="sans-serif" font-size="14" font-weight="bold" lengthAdjust="spacing" textLength="147.3008" x="10" y="572.292">sequence_diagram</text>
    </g>
    <g id="cluster_C_0017655759046645114118">
      <path d="M32.5,600.2969 L82.0215,600.2969 A3.75,3.75 0 0 1 84.5215,602.7969 L91.5215,622.5938 L339.5,622.5938 A2.5,2.5 0 0 1 342,625.0938 L342,912.7969 A2.5,2.5 0 0 1 339.5,915.2969 L32.5,915.2969 A2.5,2.5 0 0 1 30,912.7969 L30,602.7969 A2.5,2.5 0 0 1 32.5,600.2969 " fill="none" style="stroke:#000000;stroke-width:1.5;"/>
      <line style="stroke:#000000;stroke-width:1.5;" x1="30" x2="91.5215" y1="622.5938" y2="622.5938"/>
      <text fill="#000000" font-family="sans-serif" font-size="14" font-weight="bold" lengthAdjust="spacing" textLength="48.5215" x="34" y="615.292">model</text>
    </g>
    <a href="classclanguml_1_1common_1_1model_1_1source__location.html" target="_top" title="Base class of all diagram elements that have source location." xlink:actuate="onRequest" xlink:href="classclanguml_1_1common_1_1model_1_1source__location.html" xlink:show="new" xlink:title="Base class of all diagram elements that have source location." xlink:type="simple">
      <g id="elem_C_0007162092657467521843">
        <rect codeLine="5" fill="#F1F1F1" height="48" id="C_0007162092657467521843" rx="2.5" ry="2.5" style="stroke:#181818;stroke-width:0.5;" width="141.3477" x="376.5" y="121.2969"/>
        <ellipse cx="391.5" cy="137.2969" fill="#ADD1B2" rx="11" ry="11" style="stroke:#181818;stroke-width:1.0;"/>
        <path d="M394.4688,142.9375 Q393.8906,143.2344 393.25,143.375 Q392.6094,143.5313 391.9063,143.5313 Q389.4063,143.5313 388.0781,141.8906 Q386.7656,140.2344 386.7656,137.1094 Q386.7656,133.9844 388.0781,132.3281 Q389.4063,130.6719 391.9063,130.6719 Q392.6094,130.6719 393.25,130.8281 Q393.9063,130.9844 394.4688,131.2813 L394.4688,134 Q393.8438,133.4219 393.25,133.1563 Q392.6563,132.875 392.0313,132.875 Q390.6875,132.875 390,133.9531 Q389.3125,135.0156 389.3125,137.1094 Q389.3125,139.2031 390,140.2813 Q390.6875,141.3438 392.0313,141.3438 Q392.6563,141.3438 393.25,141.0781 Q393.8438,140.7969 394.4688,140.2188 L394.4688,142.9375 Z " fill="#000000"/>
        <text fill="#000000" font-family="sans-serif" font-size="14" lengthAdjust="spacing" textLength="109.3477" x="405.5" y="142.1436">source_location</text>
        <line style="stroke:#181818;stroke-width:0.5;" x1="377.5" x2="516.8477" y1="153.2969" y2="153.2969"/>
        <line style="stroke:#181818;stroke-width:0.5;" x1="377.5" x2="516.8477" y1="161.2969" y2="161.2969"/>
      </g>
    </a>
    <a href="classclanguml_1_1common_1_1model_1_1diagram__element.html" target="_top" title="Base class for standalone diagram elements." xlink:actuate="onRequest" xlink:href="classclanguml_1_1common_1_1model_1_1diagram__element.html" xlink:show="new" xlink:title="Base class for standalone diagram elements." xlink:type="simple">
      <g id="elem_C_0008588005715032923314">
        <rect codeLine="9" fill="#F1F1F1" height="48" id="C_0008588005715032923314" rx="2.5" ry="2.5" style="stroke:#181818;stroke-width:0.5;" width="154.9443" x="311.5" y="229.2969"/>
        <ellipse cx="326.5" cy="245.2969" fill="#ADD1B2" rx="11" ry="11" style="stroke:#181818;stroke-width:1.0;"/>
        <path d="M329.4688,250.9375 Q328.8906,251.2344 328.25,251.375 Q327.6094,251.5313 326.9063,251.5313 Q324.4063,251.5313 323.0781,249.8906 Q321.7656,248.2344 321.7656,245.1094 Q321.7656,241.9844 323.0781,240.3281 Q324.4063,238.6719 326.9063,238.6719 Q327.6094,238.6719 328.25,238.8281 Q328.9063,238.9844 329.4688,239.2813 L329.4688,242 Q328.8438,241.4219 328.25,241.1563 Q327.6563,240.875 327.0313,240.875 Q325.6875,240.875 325,241.9531 Q324.3125,243.0156 324.3125,245.1094 Q324.3125,247.2031 325,248.2813 Q325.6875,249.3438 327.0313,249.3438 Q327.6563,249.3438 328.25,249.0781 Q328.8438,248.7969 329.4688,248.2188 L329.4688,250.9375 Z " fill="#000000"/>
        <text fill="#000000" font-family="sans-serif" font-size="14" lengthAdjust="spacing" textLength="122.9443" x="340.5" y="250.1436">diagram_element</text>
        <line style="stroke:#181818;stroke-width:0.5;" x1="312.5" x2="465.4443" y1="261.2969" y2="261.2969"/>
        <line style="stroke:#181818;stroke-width:0.5;" x1="312.5" x2="465.4443" y1="269.2969" y2="269.2969"/>
      </g>
    </a>
    <a href="classclanguml_1_1common_1_1model_1_1element.html" target="_top" title="Base class for any element qualified by namespace." xlink:actuate="onRequest" xlink:href="classclanguml_1_1common_1_1model_1_1element.html" xlink:show="new" xlink:title="Base class for any element qualified by namespace." xlink:type="simple">
      <g id="elem_C_0016556163051475263500">
        <rect codeLine="13" fill="#F1F1F1" height="48" id="C_0016556163051475263500" rx="2.5" ry="2.5" style="stroke:#181818;stroke-width:0.5;" width="89.7295" x="315" y="337.2969"/>
        <ellipse cx="330" cy="353.2969" fill="#ADD1B2" rx="11" ry="11" style="stroke:#181818;stroke-width:1.0;"/>
        <path d="M332.9688,358.9375 Q332.3906,359.2344 331.75,359.375 Q331.1094,359.5313 330.4063,359.5313 Q327.9063,359.5313 326.5781,357.8906 Q325.2656,356.2344 325.2656,353.1094 Q325.2656,349.9844 326.5781,348.3281 Q327.9063,346.6719 330.4063,346.6719 Q331.1094,346.6719 331.75,346.8281 Q332.4063,346.9844 332.9688,347.2813 L332.9688,350 Q332.3438,349.4219 331.75,349.1563 Q331.1563,348.875 330.5313,348.875 Q329.1875,348.875 328.5,349.9531 Q327.8125,351.0156 327.8125,353.1094 Q327.8125,355.2031 328.5,356.2813 Q329.1875,357.3438 330.5313,357.3438 Q331.1563,357.3438 331.75,357.0781 Q332.3438,356.7969 332.9688,356.2188 L332.9688,358.9375 Z " fill="#000000"/>
        <text fill="#000000" font-family="sans-serif" font-size="14" lengthAdjust="spacing" textLength="57.7295" x="344" y="358.1436">element</text>
        <line style="stroke:#181818;stroke-width:0.5;" x1="316" x2="403.7295" y1="369.2969" y2="369.2969"/>
        <line style="stroke:#181818;stroke-width:0.5;" x1="316" x2="403.7295" y1="377.2969" y2="377.2969"/>
      </g>
    </a>
    <a href="classclanguml_1_1common_1_1model_1_1template__element.html" target="_top" title="Base class for any element qualified by namespace." xlink:actuate="onRequest" xlink:href="classclanguml_1_1common_1_1model_1_1template__element.html" xlink:show="new" xlink:title="Base class for any element qualified by namespace." xlink:type="simple">
      <g id="elem_C_0013384831159811298387">
        <rect codeLine="17" fill="#F1F1F1" height="48" id="C_0013384831159811298387" rx="2.5" ry="2.5" style="stroke:#181818;stroke-width:0.5;" width="159.9277" x="260" y="445.2969"/>
        <ellipse cx="275" cy="461.2969" fill="#ADD1B2" rx="11" ry="11" style="stroke:#181818;stroke-width:1.0;"/>
        <path d="M277.9688,466.9375 Q277.3906,467.2344 276.75,467.375 Q276.1094,467.5313 275.4063,467.5313 Q272.9063,467.5313 271.5781,465.8906 Q270.2656,464.2344 270.2656,461.1094 Q270.2656,457.9844 271.5781,456.3281 Q272.9063,454.6719 275.4063,454.6719 Q276.1094,454.6719 276.75,454.8281 Q277.4063,454.9844 277.9688,455.2813 L277.9688,458 Q277.3438,457.4219 276.75,457.1563 Q276.1563,456.875 275.5313,456.875 Q274.1875,456.875 273.5,457.9531 Q272.8125,459.0156 272.8125,461.1094 Q272.8125,463.2031 273.5,464.2813 Q274.1875,465.3438 275.5313,465.3438 Q276.1563,465.3438 276.75,465.0781 Q277.3438,464.7969 277.9688,464.2188 L277.9688,466.9375 Z " fill="#000000"/>
        <text fill="#000000" font-family="sans-serif" font-size="14" lengthAdjust="spacing" textLength="127.9277" x="289" y="466.1436">template_element</text>
        <line style="stroke:#181818;stroke-width:0.5;" x1="261" x2="418.9277" y1="477.2969" y2="477.2969"/>
        <line style="stroke:#181818;stroke-width:0.5;" x1="261" x2="418.9277" y1="485.2969" y2="485.2969"/>
      </g>
    </a>
    <a href="classclanguml_1_1common_1_1model_1_1source__file.html" target="_top" title="Diagram element representing some file or directory." xlink:actuate="onRequest" xlink:href="classclanguml_1_1common_1_1model_1_1source__file.html" xlink:show="new" xlink:title="Diagram element representing some file or directory." xlink:type="simple">
      <g id="elem_C_0006285717704576425038">
        <rect codeLine="21" fill="#F1F1F1" height="48" id="C_0006285717704576425038" rx="2.5" ry="2.5" style="stroke:#181818;stroke-width:0.5;" width="107.1201" x="440.5" y="337.2969"/>
        <ellipse cx="455.5" cy="353.2969" fill="#ADD1B2" rx="11" ry="11" style="stroke:#181818;stroke-width:1.0;"/>
        <path d="M458.4688,358.9375 Q457.8906,359.2344 457.25,359.375 Q456.6094,359.5313 455.9063,359.5313 Q453.4063,359.5313 452.0781,357.8906 Q450.7656,356.2344 450.7656,353.1094 Q450.7656,349.9844 452.0781,348.3281 Q453.4063,346.6719 455.9063,346.6719 Q456.6094,346.6719 457.25,346.8281 Q457.9063,346.9844 458.4688,347.2813 L458.4688,350 Q457.8438,349.4219 457.25,349.1563 Q456.6563,348.875 456.0313,348.875 Q454.6875,348.875 454,349.9531 Q453.3125,351.0156 453.3125,353.1094 Q453.3125,355.2031 454,356.2813 Q454.6875,357.3438 456.0313,357.3438 Q456.6563,357.3438 457.25,357.0781 Q457.8438,356.7969 458.4688,356.2188 L458.4688,358.9375 Z " fill="#000000"/>
        <text fill="#000000" font-family="sans-serif" font-size="14" lengthAdjust="spacing" textLength="75.1201" x="469.5" y="358.1436">source_file</text>
        <line style="stroke:#181818;stroke-width:0.5;" x1="441.5" x2="546.6201" y1="369.2969" y2="369.2969"/>
        <line style="stroke:#181818;stroke-width:0.5;" x1="441.5" x2="546.6201" y1="377.2969" y2="377.2969"/>
      </g>
    </a>
    <a href="classclanguml_1_1common_1_1model_1_1package.html" target="_top" title="Diagram element representing namespace or directory package" xlink:actuate="onRequest" xlink:href="classclanguml_1_1common_1_1model_1_1package.html" xlink:show="new" xlink:title="Diagram element representing namespace or directory package" xlink:type="simple">
      <g id="elem_C_0017146293478645494837">
        <rect codeLine="25" fill="#F1F1F1" height="48" id="C_0017146293478645494837" rx="2.5" ry="2.5" style="stroke:#181818;stroke-width:0.5;" width="91.3496" x="455.5" y="445.2969"/>
        <ellipse cx="470.5" cy="461.2969" fill="#ADD1B2" rx="11" ry="11" style="stroke:#181818;stroke-width:1.0;"/>
        <path d="M473.4688,466.9375 Q472.8906,467.2344 472.25,467.375 Q471.6094,467.5313 470.9063,467.5313 Q468.4063,467.5313 467.0781,465.8906 Q465.7656,464.2344 465.7656,461.1094 Q465.7656,457.9844 467.0781,456.3281 Q468.4063,454.6719 470.9063,454.6719 Q471.6094,454.6719 472.25,454.8281 Q472.9063,454.9844 473.4688,455.2813 L473.4688,458 Q472.8438,457.4219 472.25,457.1563 Q471.6563,456.875 471.0313,456.875 Q469.6875,456.875 469,457.9531 Q468.3125,459.0156 468.3125,461.1094 Q468.3125,463.2031 469,464.2813 Q469.6875,465.3438 471.0313,465.3438 Q471.6563,465.3438 472.25,465.0781 Q472.8438,464.7969 473.4688,464.2188 L473.4688,466.9375 Z " fill="#000000"/>
        <text fill="#000000" font-family="sans-serif" font-size="14" lengthAdjust="spacing" textLength="59.3496" x="484.5" y="466.1436">package</text>
        <line style="stroke:#181818;stroke-width:0.5;" x1="456.5" x2="545.8496" y1="477.2969" y2="477.2969"/>
        <line style="stroke:#181818;stroke-width:0.5;" x1="456.5" x2="545.8496" y1="485.2969" y2="485.2969"/>
      </g>
    </a>
    <a href="classclanguml_1_1class__diagram_1_1model_1_1class__element.html" target="_top" title="Base class for class elements (e.g. member or method)." xlink:actuate="onRequest" xlink:href="classclanguml_1_1class__diagram_1_1model_1_1class__element.html" xlink:show="new" xlink:title="Base class for class elements (e.g. member or method)." xlink:type="simple">
      <g id="elem_C_0004846934894930864299">
        <rect codeLine="33" fill="#F1F1F1" height="48" id="C_0004846934894930864299" rx="2.5" ry="2.5" style="stroke:#181818;stroke-width:0.5;" width="131.4834" x="783.5" y="635.2969"/>
        <ellipse cx="798.5" cy="651.2969" fill="#ADD1B2" rx="11" ry="11" style="stroke:#181818;stroke-width:1.0;"/>
        <path d="M801.4688,656.9375 Q800.8906,657.2344 800.25,657.375 Q799.6094,657.5313 798.9063,657.5313 Q796.4063,657.5313 795.0781,655.8906 Q793.7656,654.2344 793.7656,651.1094 Q793.7656,647.9844 795.0781,646.3281 Q796.4063,644.6719 798.9063,644.6719 Q799.6094,644.6719 800.25,644.8281 Q800.9063,644.9844 801.4688,645.2813 L801.4688,648 Q800.8438,647.4219 800.25,647.1563 Q799.6563,646.875 799.0313,646.875 Q797.6875,646.875 797,647.9531 Q796.3125,649.0156 796.3125,651.1094 Q796.3125,653.2031 797,654.2813 Q797.6875,655.3438 799.0313,655.3438 Q799.6563,655.3438 800.25,655.0781 Q800.8438,654.7969 801.4688,654.2188 L801.4688,656.9375 Z " fill="#000000"/>
        <text fill="#000000" font-family="sans-serif" font-size="14" lengthAdjust="spacing" textLength="99.4834" x="812.5" y="656.1436">class_element</text>
        <line style="stroke:#181818;stroke-width:0.5;" x1="784.5" x2="913.9834" y1="667.2969" y2="667.2969"/>
        <line style="stroke:#181818;stroke-width:0.5;" x1="784.5" x2="913.9834" y1="675.2969" y2="675.2969"/>
      </g>
    </a>
    <a href="classclanguml_1_1class__diagram_1_1model_1_1class__member.html" target="_top" title="Class member model." xlink:actuate="onRequest" xlink:href="classclanguml_1_1class__diagram_1_1model_1_1class__member.html" xlink:show="new" xlink:title="Class member model." xlink:type="simple">
      <g id="elem_C_0014370262096868218046">
        <rect codeLine="37" fill="#F1F1F1" height="48" id="C_0014370262096868218046" rx="2.5" ry="2.5" style="stroke:#181818;stroke-width:0.5;" width="132.8984" x="617.5" y="743.2969"/>
        <ellipse cx="632.5" cy="759.2969" fill="#ADD1B2" rx="11" ry="11" style="stroke:#181818;stroke-width:1.0;"/>
        <path d="M635.4688,764.9375 Q634.8906,765.2344 634.25,765.375 Q633.6094,765.5313 632.9063,765.5313 Q630.4063,765.5313 629.0781,763.8906 Q627.7656,762.2344 627.7656,759.1094 Q627.7656,755.9844 629.0781,754.3281 Q630.4063,752.6719 632.9063,752.6719 Q633.6094,752.6719 634.25,752.8281 Q634.9063,752.9844 635.4688,753.2813 L635.4688,756 Q634.8438,755.4219 634.25,755.1563 Q633.6563,754.875 633.0313,754.875 Q631.6875,754.875 631,755.9531 Q630.3125,757.0156 630.3125,759.1094 Q630.3125,761.2031 631,762.2813 Q631.6875,763.3438 633.0313,763.3438 Q633.6563,763.3438 634.25,763.0781 Q634.8438,762.7969 635.4688,762.2188 L635.4688,764.9375 Z " fill="#000000"/>
        <text fill="#000000" font-family="sans-serif" font-size="14" lengthAdjust="spacing" textLength="100.8984" x="646.5" y="764.1436">class_member</text>
        <line style="stroke:#181818;stroke-width:0.5;" x1="618.5" x2="749.3984" y1="775.2969" y2="775.2969"/>
        <line style="stroke:#181818;stroke-width:0.5;" x1="618.5" x2="749.3984" y1="783.2969" y2="783.2969"/>
      </g>
    </a>
    <a href="classclanguml_1_1class__diagram_1_1model_1_1class__method.html" target="_top" title="Class method model." xlink:actuate="onRequest" xlink:href="classclanguml_1_1class__diagram_1_1model_1_1class__method.html" xlink:show="new" xlink:title="Class method model." xlink:type="simple">
      <g id="elem_C_0001633165731746789371">
        <rect codeLine="41" fill="#F1F1F1" height="48" id="C_0001633165731746789371" rx="2.5" ry="2.5" style="stroke:#181818;stroke-width:0.5;" width="127.8193" x="786" y="743.2969"/>
        <ellipse cx="801" cy="759.2969" fill="#ADD1B2" rx="11" ry="11" style="stroke:#181818;stroke-width:1.0;"/>
        <path d="M803.9688,764.9375 Q803.3906,765.2344 802.75,765.375 Q802.1094,765.5313 801.4063,765.5313 Q798.9063,765.5313 797.5781,763.8906 Q796.2656,762.2344 796.2656,759.1094 Q796.2656,755.9844 797.5781,754.3281 Q798.9063,752.6719 801.4063,752.6719 Q802.1094,752.6719 802.75,752.8281 Q803.4063,752.9844 803.9688,753.2813 L803.9688,756 Q803.3438,755.4219 802.75,755.1563 Q802.1563,754.875 801.5313,754.875 Q800.1875,754.875 799.5,755.9531 Q798.8125,757.0156 798.8125,759.1094 Q798.8125,761.2031 799.5,762.2813 Q800.1875,763.3438 801.5313,763.3438 Q802.1563,763.3438 802.75,763.0781 Q803.3438,762.7969 803.9688,762.2188 L803.9688,764.9375 Z " fill="#000000"/>
        <text fill="#000000" font-family="sans-serif" font-size="14" lengthAdjust="spacing" textLength="95.8193" x="815" y="764.1436">class_method</text>
        <line style="stroke:#181818;stroke-width:0.5;" x1="787" x2="912.8193" y1="775.2969" y2="775.2969"/>
        <line style="stroke:#181818;stroke-width:0.5;" x1="787" x2="912.8193" y1="783.2969" y2="783.2969"/>
      </g>
    </a>
    <a href="classclanguml_1_1class__diagram_1_1model_1_1class__.html" target="_top" title="Diagram element representing a class or class template." xlink:actuate="onRequest" xlink:href="classclanguml_1_1class__diagram_1_1model_1_1class__.html" xlink:show="new" xlink:title="Diagram element representing a class or class template." xlink:type="simple">
      <g id="elem_C_0010336274859733225462">
        <rect codeLine="45" fill="#F1F1F1" height="48" id="C_0010336274859733225462" rx="2.5" ry="2.5" style="stroke:#181818;stroke-width:0.5;" width="73.7539" x="430" y="635.2969"/>
        <ellipse cx="445" cy="651.2969" fill="#ADD1B2" rx="11" ry="11" style="stroke:#181818;stroke-width:1.0;"/>
        <path d="M447.9688,656.9375 Q447.3906,657.2344 446.75,657.375 Q446.1094,657.5313 445.4063,657.5313 Q442.9063,657.5313 441.5781,655.8906 Q440.2656,654.2344 440.2656,651.1094 Q440.2656,647.9844 441.5781,646.3281 Q442.9063,644.6719 445.4063,644.6719 Q446.1094,644.6719 446.75,644.8281 Q447.4063,644.9844 447.9688,645.2813 L447.9688,648 Q447.3438,647.4219 446.75,647.1563 Q446.1563,646.875 445.5313,646.875 Q444.1875,646.875 443.5,647.9531 Q442.8125,649.0156 442.8125,651.1094 Q442.8125,653.2031 443.5,654.2813 Q444.1875,655.3438 445.5313,655.3438 Q446.1563,655.3438 446.75,655.0781 Q447.3438,654.7969 447.9688,654.2188 L447.9688,656.9375 Z " fill="#000000"/>
        <text fill="#000000" font-family="sans-serif" font-size="14" lengthAdjust="spacing" textLength="41.7539" x="459" y="656.1436">class_</text>
        <line style="stroke:#181818;stroke-width:0.5;" x1="431" x2="502.7539" y1="667.2969" y2="667.2969"/>
        <line style="stroke:#181818;stroke-width:0.5;" x1="431" x2="502.7539" y1="675.2969" y2="675.2969"/>
      </g>
    </a>
    <a href="classclanguml_1_1class__diagram_1_1model_1_1concept__.html" target="_top" title="Model of C++ concept." xlink:actuate="onRequest" xlink:href="classclanguml_1_1class__diagram_1_1model_1_1concept__.html" xlink:show="new" xlink:title="Model of C++ concept." xlink:type="simple">
      <g id="elem_C_0010998792414017796003">
        <rect codeLine="49" fill="#F1F1F1" height="48" id="C_0010998792414017796003" rx="2.5" ry="2.5" style="stroke:#181818;stroke-width:0.5;" width="94.8223" x="539.5" y="635.2969"/>
        <ellipse cx="554.5" cy="651.2969" fill="#ADD1B2" rx="11" ry="11" style="stroke:#181818;stroke-width:1.0;"/>
        <path d="M557.4688,656.9375 Q556.8906,657.2344 556.25,657.375 Q555.6094,657.5313 554.9063,657.5313 Q552.4063,657.5313 551.0781,655.8906 Q549.7656,654.2344 549.7656,651.1094 Q549.7656,647.9844 551.0781,646.3281 Q552.4063,644.6719 554.9063,644.6719 Q555.6094,644.6719 556.25,644.8281 Q556.9063,644.9844 557.4688,645.2813 L557.4688,648 Q556.8438,647.4219 556.25,647.1563 Q555.6563,646.875 555.0313,646.875 Q553.6875,646.875 553,647.9531 Q552.3125,649.0156 552.3125,651.1094 Q552.3125,653.2031 553,654.2813 Q553.6875,655.3438 555.0313,655.3438 Q555.6563,655.3438 556.25,655.0781 Q556.8438,654.7969 557.4688,654.2188 L557.4688,656.9375 Z " fill="#000000"/>
        <text fill="#000000" font-family="sans-serif" font-size="14" lengthAdjust="spacing" textLength="62.8223" x="568.5" y="656.1436">concept_</text>
        <line style="stroke:#181818;stroke-width:0.5;" x1="540.5" x2="633.3223" y1="667.2969" y2="667.2969"/>
        <line style="stroke:#181818;stroke-width:0.5;" x1="540.5" x2="633.3223" y1="675.2969" y2="675.2969"/>
      </g>
    </a>
    <a href="classclanguml_1_1class__diagram_1_1model_1_1enum__.html" target="_top" title="Diagram element representing an enum." xlink:actuate="onRequest" xlink:href="classclanguml_1_1class__diagram_1_1model_1_1enum__.html" xlink:show="new" xlink:title="Diagram element representing an enum." xlink:type="simple">
      <g id="elem_C_0005795143816749204050">
        <rect codeLine="53" fill="#F1F1F1" height="48" id="C_0005795143816749204050" rx="2.5" ry="2.5" style="stroke:#181818;stroke-width:0.5;" width="78.9971" x="669.5" y="635.2969"/>
        <ellipse cx="684.5" cy="651.2969" fill="#ADD1B2" rx="11" ry="11" style="stroke:#181818;stroke-width:1.0;"/>
        <path d="M687.4688,656.9375 Q686.8906,657.2344 686.25,657.375 Q685.6094,657.5313 684.9063,657.5313 Q682.4063,657.5313 681.0781,655.8906 Q679.7656,654.2344 679.7656,651.1094 Q679.7656,647.9844 681.0781,646.3281 Q682.4063,644.6719 684.9063,644.6719 Q685.6094,644.6719 686.25,644.8281 Q686.9063,644.9844 687.4688,645.2813 L687.4688,648 Q686.8438,647.4219 686.25,647.1563 Q685.6563,646.875 685.0313,646.875 Q683.6875,646.875 683,647.9531 Q682.3125,649.0156 682.3125,651.1094 Q682.3125,653.2031 683,654.2813 Q683.6875,655.3438 685.0313,655.3438 Q685.6563,655.3438 686.25,655.0781 Q686.8438,654.7969 687.4688,654.2188 L687.4688,656.9375 Z " fill="#000000"/>
        <text fill="#000000" font-family="sans-serif" font-size="14" lengthAdjust="spacing" textLength="46.9971" x="698.5" y="656.1436">enum_</text>
        <line style="stroke:#181818;stroke-width:0.5;" x1="670.5" x2="747.4971" y1="667.2969" y2="667.2969"/>
        <line style="stroke:#181818;stroke-width:0.5;" x1="670.5" x2="747.4971" y1="675.2969" y2="675.2969"/>
      </g>
    </a>
    <a href="structclanguml_1_1sequence__diagram_1_1model_1_1participant.html" target="_top" title="Base class for various types of sequence diagram participants" xlink:actuate="onRequest" xlink:href="structclanguml_1_1sequence__diagram_1_1model_1_1participant.html" xlink:show="new" xlink:title="Base class for various types of sequence diagram participants" xlink:type="simple">
      <g id="elem_C_0011201726182739961811">
        <rect codeLine="61" fill="#F1F1F1" height="48" id="C_0011201726182739961811" rx="2.5" ry="2.5" style="stroke:#181818;stroke-width:0.5;" width="108.0156" x="206" y="635.2969"/>
        <ellipse cx="221" cy="651.2969" fill="#ADD1B2" rx="11" ry="11" style="stroke:#181818;stroke-width:1.0;"/>
        <path d="M223.9688,656.9375 Q223.3906,657.2344 222.75,657.375 Q222.1094,657.5313 221.4063,657.5313 Q218.9063,657.5313 217.5781,655.8906 Q216.2656,654.2344 216.2656,651.1094 Q216.2656,647.9844 217.5781,646.3281 Q218.9063,644.6719 221.4063,644.6719 Q222.1094,644.6719 222.75,644.8281 Q223.4063,644.9844 223.9688,645.2813 L223.9688,648 Q223.3438,647.4219 222.75,647.1563 Q222.1563,646.875 221.5313,646.875 Q220.1875,646.875 219.5,647.9531 Q218.8125,649.0156 218.8125,651.1094 Q218.8125,653.2031 219.5,654.2813 Q220.1875,655.3438 221.5313,655.3438 Q222.1563,655.3438 222.75,655.0781 Q223.3438,654.7969 223.9688,654.2188 L223.9688,656.9375 Z " fill="#000000"/>
        <text fill="#000000" font-family="sans-serif" font-size="14" lengthAdjust="spacing" textLength="76.0156" x="235" y="656.1436">participant</text>
        <line style="stroke:#181818;stroke-width:0.5;" x1="207" x2="313.0156" y1="667.2969" y2="667.2969"/>
        <line style="stroke:#181818;stroke-width:0.5;" x1="207" x2="313.0156" y1="675.2969" y2="675.2969"/>
      </g>
    </a>
    <a href="structclanguml_1_1sequence__diagram_1_1model_1_1class__.html" target="_top" title="Sequence diagram participant representing a class." xlink:actuate="onRequest" xlink:href="structclanguml_1_1sequence__diagram_1_1model_1_1class__.html" xlink:show="new" xlink:title="Sequence diagram participant representing a class." xlink:type="simple">
      <g id="elem_C_0007084118972955772881">
        <rect codeLine="65" fill="#F1F1F1" height="48" id="C_0007084118972955772881" rx="2.5" ry="2.5" style="stroke:#181818;stroke-width:0.5;" width="73.7539" x="99" y="743.2969"/>
        <ellipse cx="114" cy="759.2969" fill="#ADD1B2" rx="11" ry="11" style="stroke:#181818;stroke-width:1.0;"/>
        <path d="M116.9688,764.9375 Q116.3906,765.2344 115.75,765.375 Q115.1094,765.5313 114.4063,765.5313 Q111.9063,765.5313 110.5781,763.8906 Q109.2656,762.2344 109.2656,759.1094 Q109.2656,755.9844 110.5781,754.3281 Q111.9063,752.6719 114.4063,752.6719 Q115.1094,752.6719 115.75,752.8281 Q116.4063,752.9844 116.9688,753.2813 L116.9688,756 Q116.3438,755.4219 115.75,755.1563 Q115.1563,754.875 114.5313,754.875 Q113.1875,754.875 112.5,755.9531 Q111.8125,757.0156 111.8125,759.1094 Q111.8125,761.2031 112.5,762.2813 Q113.1875,763.3438 114.5313,763.3438 Q115.1563,763.3438 115.75,763.0781 Q116.3438,762.7969 116.9688,762.2188 L116.9688,764.9375 Z " fill="#000000"/>
        <text fill="#000000" font-family="sans-serif" font-size="14" lengthAdjust="spacing" textLength="41.7539" x="128" y="764.1436">class_</text>
        <line style="stroke:#181818;stroke-width:0.5;" x1="100" x2="171.7539" y1="775.2969" y2="775.2969"/>
        <line style="stroke:#181818;stroke-width:0.5;" x1="100" x2="171.7539" y1="783.2969" y2="783.2969"/>
      </g>
    </a>
    <a href="structclanguml_1_1sequence__diagram_1_1model_1_1function.html" target="_top" title="Participant mode representing a free function." xlink:actuate="onRequest" xlink:href="structclanguml_1_1sequence__diagram_1_1model_1_1function.html" xlink:show="new" xlink:title="Participant mode representing a free function." xlink:type="simple">
      <g id="elem_C_0001861107648253454629">
        <rect codeLine="69" fill="#F1F1F1" height="48" id="C_0001861107648253454629" rx="2.5" ry="2.5" style="stroke:#181818;stroke-width:0.5;" width="89.1895" x="208.5" y="743.2969"/>
        <ellipse cx="223.5" cy="759.2969" fill="#ADD1B2" rx="11" ry="11" style="stroke:#181818;stroke-width:1.0;"/>
        <path d="M226.4688,764.9375 Q225.8906,765.2344 225.25,765.375 Q224.6094,765.5313 223.9063,765.5313 Q221.4063,765.5313 220.0781,763.8906 Q218.7656,762.2344 218.7656,759.1094 Q218.7656,755.9844 220.0781,754.3281 Q221.4063,752.6719 223.9063,752.6719 Q224.6094,752.6719 225.25,752.8281 Q225.9063,752.9844 226.4688,753.2813 L226.4688,756 Q225.8438,755.4219 225.25,755.1563 Q224.6563,754.875 224.0313,754.875 Q222.6875,754.875 222,755.9531 Q221.3125,757.0156 221.3125,759.1094 Q221.3125,761.2031 222,762.2813 Q222.6875,763.3438 224.0313,763.3438 Q224.6563,763.3438 225.25,763.0781 Q225.8438,762.7969 226.4688,762.2188 L226.4688,764.9375 Z " fill="#000000"/>
        <text fill="#000000" font-family="sans-serif" font-size="14" lengthAdjust="spacing" textLength="57.1895" x="237.5" y="764.1436">function</text>
        <line style="stroke:#181818;stroke-width:0.5;" x1="209.5" x2="296.6895" y1="775.2969" y2="775.2969"/>
        <line style="stroke:#181818;stroke-width:0.5;" x1="209.5" x2="296.6895" y1="783.2969" y2="783.2969"/>
      </g>
    </a>
    <a href="structclanguml_1_1sequence__diagram_1_1model_1_1method.html" target="_top" title="Participant model representing a method" xlink:actuate="onRequest" xlink:href="structclanguml_1_1sequence__diagram_1_1model_1_1method.html" xlink:show="new" xlink:title="Participant model representing a method" xlink:type="simple">
      <g id="elem_C_0006541327780382276039">
        <rect codeLine="73" fill="#F1F1F1" height="48" id="C_0006541327780382276039" rx="2.5" ry="2.5" style="stroke:#181818;stroke-width:0.5;" width="86.0654" x="46" y="851.2969"/>
        <ellipse cx="61" cy="867.2969" fill="#ADD1B2" rx="11" ry="11" style="stroke:#181818;stroke-width:1.0;"/>
        <path d="M63.9688,872.9375 Q63.3906,873.2344 62.75,873.375 Q62.1094,873.5313 61.4063,873.5313 Q58.9063,873.5313 57.5781,871.8906 Q56.2656,870.2344 56.2656,867.1094 Q56.2656,863.9844 57.5781,862.3281 Q58.9063,860.6719 61.4063,860.6719 Q62.1094,860.6719 62.75,860.8281 Q63.4063,860.9844 63.9688,861.2813 L63.9688,864 Q63.3438,863.4219 62.75,863.1563 Q62.1563,862.875 61.5313,862.875 Q60.1875,862.875 59.5,863.9531 Q58.8125,865.0156 58.8125,867.1094 Q58.8125,869.2031 59.5,870.2813 Q60.1875,871.3438 61.5313,871.3438 Q62.1563,871.3438 62.75,871.0781 Q63.3438,870.7969 63.9688,870.2188 L63.9688,872.9375 Z " fill="#000000"/>
        <text fill="#000000" font-family="sans-serif" font-size="14" lengthAdjust="spacing" textLength="54.0654" x="75" y="872.1436">method</text>
        <line style="stroke:#181818;stroke-width:0.5;" x1="47" x2="131.0654" y1="883.2969" y2="883.2969"/>
        <line style="stroke:#181818;stroke-width:0.5;" x1="47" x2="131.0654" y1="891.2969" y2="891.2969"/>
      </g>
    </a>
    <a href="structclanguml_1_1sequence__diagram_1_1model_1_1function__template.html" target="_top" title="Participant model representing a function template." xlink:actuate="onRequest" xlink:href="structclanguml_1_1sequence__diagram_1_1model_1_1function__template.html" xlink:show="new" xlink:title="Participant model representing a function template." xlink:type="simple">
      <g id="elem_C_0018241535739946484465">
        <rect codeLine="77" fill="#F1F1F1" height="48" id="C_0018241535739946484465" rx="2.5" ry="2.5" style="stroke:#181818;stroke-width:0.5;" width="159.3877" x="167.5" y="851.2969"/>
        <ellipse cx="182.5" cy="867.2969" fill="#ADD1B2" rx="11" ry="11" style="stroke:#181818;stroke-width:1.0;"/>
        <path d="M185.4688,872.9375 Q184.8906,873.2344 184.25,873.375 Q183.6094,873.5313 182.9063,873.5313 Q180.4063,873.5313 179.0781,871.8906 Q177.7656,870.2344 177.7656,867.1094 Q177.7656,863.9844 179.0781,862.3281 Q180.4063,860.6719 182.9063,860.6719 Q183.6094,860.6719 184.25,860.8281 Q184.9063,860.9844 185.4688,861.2813 L185.4688,864 Q184.8438,863.4219 184.25,863.1563 Q183.6563,862.875 183.0313,862.875 Q181.6875,862.875 181,863.9531 Q180.3125,865.0156 180.3125,867.1094 Q180.3125,869.2031 181,870.2813 Q181.6875,871.3438 183.0313,871.3438 Q183.6563,871.3438 184.25,871.0781 Q184.8438,870.7969 185.4688,870.2188 L185.4688,872.9375 Z " fill="#000000"/>
        <text fill="#000000" font-family="sans-serif" font-size="14" lengthAdjust="spacing" textLength="127.3877" x="196.5" y="872.1436">function_template</text>
        <line style="stroke:#181818;stroke-width:0.5;" x1="168.5" x2="325.8877" y1="883.2969" y2="883.2969"/>
        <line style="stroke:#181818;stroke-width:0.5;" x1="168.5" x2="325.8877" y1="891.2969" y2="891.2969"/>
      </g>
    </a>
    <a href="classclanguml_1_1sequence__diagram_1_1model_1_1message.html" target="_top" title="Model of a sequence diagram message." xlink:actuate="onRequest" xlink:href="classclanguml_1_1sequence__diagram_1_1model_1_1message.html" xlink:show="new" xlink:title="Model of a sequence diagram message." xlink:type="simple">
      <g id="elem_C_0017829224549649886549">
        <rect codeLine="81" fill="#F1F1F1" height="48" id="C_0017829224549649886549" rx="2.5" ry="2.5" style="stroke:#181818;stroke-width:0.5;" width="94.918" x="75.5" y="635.2969"/>
        <ellipse cx="90.5" cy="651.2969" fill="#ADD1B2" rx="11" ry="11" style="stroke:#181818;stroke-width:1.0;"/>
        <path d="M93.4688,656.9375 Q92.8906,657.2344 92.25,657.375 Q91.6094,657.5313 90.9063,657.5313 Q88.4063,657.5313 87.0781,655.8906 Q85.7656,654.2344 85.7656,651.1094 Q85.7656,647.9844 87.0781,646.3281 Q88.4063,644.6719 90.9063,644.6719 Q91.6094,644.6719 92.25,644.8281 Q92.9063,644.9844 93.4688,645.2813 L93.4688,648 Q92.8438,647.4219 92.25,647.1563 Q91.6563,646.875 91.0313,646.875 Q89.6875,646.875 89,647.9531 Q88.3125,649.0156 88.3125,651.1094 Q88.3125,653.2031 89,654.2813 Q89.6875,655.3438 91.0313,655.3438 Q91.6563,655.3438 92.25,655.0781 Q92.8438,654.7969 93.4688,654.2188 L93.4688,656.9375 Z " fill="#000000"/>
        <text fill="#000000" font-family="sans-serif" font-size="14" lengthAdjust="spacing" textLength="62.918" x="104.5" y="656.1436">message</text>
        <line style="stroke:#181818;stroke-width:0.5;" x1="76.5" x2="169.418" y1="667.2969" y2="667.2969"/>
        <line style="stroke:#181818;stroke-width:0.5;" x1="76.5" x2="169.418" y1="675.2969" y2="675.2969"/>
      </g>
    </a>
    <g id="link_C_0007162092657467521843_C_0008588005715032923314">
      <path codeLine="86" d="M425.7719,185.0887 C416.1119,202.7487 411.47,211.2369 401.76,228.9769 " fill="none" id="C_0007162092657467521843-backto-C_0008588005715032923314" style="stroke:#181818;stroke-width:1.0;"/>
      <polygon fill="none" points="434.41,169.2969,420.5079,182.2094,431.0358,187.9681,434.41,169.2969" style="stroke:#181818;stroke-width:1.0;"/>
    </g>
    <g id="link_C_0008588005715032923314_C_0016556163051475263500">
      <path codeLine="87" d="M377.9614,294.6592 C373.1314,312.3192 371.23,319.2369 366.38,336.9769 " fill="none" id="C_0008588005715032923314-backto-C_0016556163051475263500" style="stroke:#181818;stroke-width:1.0;"/>
      <polygon fill="none" points="382.71,277.2969,372.174,293.0764,383.7489,296.2421,382.71,277.2969" style="stroke:#181818;stroke-width:1.0;"/>
    </g>
    <g id="link_C_0016556163051475263500_C_0013384831159811298387">
      <path codeLine="88" d="M352.3247,402.9852 C348.9947,420.6452 347.75,427.2369 344.4,444.9769 " fill="none" id="C_0016556163051475263500-backto-C_0013384831159811298387" style="stroke:#181818;stroke-width:1.0;"/>
      <polygon fill="none" points="355.66,385.2969,346.4286,401.8734,358.2208,404.0969,355.66,385.2969" style="stroke:#181818;stroke-width:1.0;"/>
    </g>
    <g id="link_C_0008588005715032923314_C_0006285717704576425038">
      <path codeLine="89" d="M424.4462,290.0862 C441.9362,307.7462 453.33,319.2369 470.9,336.9769 " fill="none" id="C_0008588005715032923314-backto-C_0006285717704576425038" style="stroke:#181818;stroke-width:1.0;"/>
      <polygon fill="none" points="411.78,277.2969,420.1831,294.3083,428.7093,285.8641,411.78,277.2969" style="stroke:#181818;stroke-width:1.0;"/>
    </g>
    <g id="link_C_0016556163051475263500_C_0017146293478645494837">
      <path codeLine="90" d="M404.9775,396.1135 C428.4675,413.7735 446.38,427.2369 469.98,444.9769 " fill="none" id="C_0016556163051475263500-backto-C_0017146293478645494837" style="stroke:#181818;stroke-width:1.0;"/>
      <polygon fill="none" points="390.59,385.2969,401.3719,400.9094,408.583,391.3177,390.59,385.2969" style="stroke:#181818;stroke-width:1.0;"/>
    </g>
    <g id="link_C_0007162092657467521843_C_0004846934894930864299">
      <path codeLine="91" d="M476.747,183.3925 C525.997,244.8425 653,403.7469 766,549.2969 C788.9,578.7969 814.93,613.1069 831.64,635.2369 " fill="none" id="C_0007162092657467521843-backto-C_0004846934894930864299" style="stroke:#181818;stroke-width:1.0;"/>
      <polygon fill="none" points="465.49,169.3469,472.0652,187.1448,481.4289,179.6401,465.49,169.3469" style="stroke:#181818;stroke-width:1.0;"/>
    </g>
    <g id="link_C_0004846934894930864299_C_0014370262096868218046">
      <path codeLine="92" d="M798.0563,693.0266 C770.4763,710.7466 747.65,725.4069 720.02,743.1569 " fill="none" id="C_0004846934894930864299-backto-C_0014370262096868218046" style="stroke:#181818;stroke-width:1.0;"/>
      <polygon fill="none" points="813.2,683.2969,794.813,687.9787,801.2995,698.0745,813.2,683.2969" style="stroke:#181818;stroke-width:1.0;"/>
    </g>
    <g id="link_C_0004846934894930864299_C_0001633165731746789371">
      <path codeLine="93" d="M849.3831,701.2961 C849.5431,718.9561 849.61,725.2369 849.78,742.9769 " fill="none" id="C_0004846934894930864299-backto-C_0001633165731746789371" style="stroke:#181818;stroke-width:1.0;"/>
      <polygon fill="none" points="849.22,683.2969,843.3833,701.3505,855.3828,701.2418,849.22,683.2969" style="stroke:#181818;stroke-width:1.0;"/>
    </g>
    <g id="link_C_0013384831159811298387_C_0010336274859733225462">
      <path codeLine="94" d="M365.6479,508.2612 C390.0279,544.3412 426.85,598.8569 451.3,635.0569 " fill="none" id="C_0013384831159811298387-backto-C_0010336274859733225462" style="stroke:#181818;stroke-width:1.0;"/>
      <polygon fill="none" points="355.57,493.3469,360.6765,511.6205,370.6193,504.9019,355.57,493.3469" style="stroke:#181818;stroke-width:1.0;"/>
    </g>
    <g id="link_C_0016556163051475263500_C_0010998792414017796003">
      <path codeLine="95" d="M422.1541,385.7861 C480.7041,408.0561 558.92,438.5569 564,445.2969 C606.77,502.0269 598.52,592.6669 591.58,635.0469 " fill="none" id="C_0016556163051475263500-backto-C_0010998792414017796003" style="stroke:#181818;stroke-width:1.0;"/>
      <polygon fill="none" points="405.33,379.3869,420.021,391.3941,424.2872,380.178,405.33,379.3869" style="stroke:#181818;stroke-width:1.0;"/>
    </g>
    <g id="link_C_0016556163051475263500_C_0005795143816749204050">
      <path codeLine="96" d="M421.9567,385.0218 C427.9867,387.1918 417.17,383.2769 423,385.2969 C503.46,413.2369 540.83,389.2969 605,445.2969 C664.69,497.3869 693.41,591.5769 703.99,635.0969 " fill="none" id="C_0016556163051475263500-backto-C_0005795143816749204050" style="stroke:#181818;stroke-width:1.0;"/>
      <polygon fill="none" points="405.02,378.9269,419.925,390.6674,423.9883,379.3763,405.02,378.9269" style="stroke:#181818;stroke-width:1.0;"/>
    </g>
    <g id="link_C_0013384831159811298387_C_0011201726182739961811">
      <path codeLine="97" d="M323.1432,509.9102 C307.7932,545.9902 285.29,598.8569 269.89,635.0569 " fill="none" id="C_0013384831159811298387-backto-C_0011201726182739961811" style="stroke:#181818;stroke-width:1.0;"/>
      <polygon fill="none" points="330.19,493.3469,317.6221,507.5613,328.6644,512.2591,330.19,493.3469" style="stroke:#181818;stroke-width:1.0;"/>
    </g>
    <g id="link_C_0011201726182739961811_C_0007084118972955772881">
      <path codeLine="98" d="M219.4103,694.9958 C198.7603,712.6558 184.03,725.2369 163.28,742.9769 " fill="none" id="C_0011201726182739961811-backto-C_0007084118972955772881" style="stroke:#181818;stroke-width:1.0;"/>
      <polygon fill="none" points="233.09,683.2969,215.5106,690.4359,223.31,699.5557,233.09,683.2969" style="stroke:#181818;stroke-width:1.0;"/>
    </g>
    <g id="link_C_0011201726182739961811_C_0001861107648253454629">
      <path codeLine="99" d="M257.3002,701.2582 C256.1402,718.9182 255.71,725.2369 254.54,742.9769 " fill="none" id="C_0011201726182739961811-backto-C_0001861107648253454629" style="stroke:#181818;stroke-width:1.0;"/>
      <polygon fill="none" points="258.48,683.2969,251.3131,700.8649,263.2873,701.6514,258.48,683.2969" style="stroke:#181818;stroke-width:1.0;"/>
    </g>
    <g id="link_C_0001861107648253454629_C_0006541327780382276039">
      <path codeLine="100" d="M227.5067,806.1819 C216.3067,821.7919 210.16,827.0469 191,839.2969 C175,849.5269 168.01,845.2769 150,851.2969 C144.2,853.2369 138.14,855.3769 132.18,857.5569 " fill="none" id="C_0001861107648253454629-backto-C_0006541327780382276039" style="stroke:#181818;stroke-width:1.0;"/>
      <polygon fill="none" points="238,791.5569,222.6317,802.6841,232.3817,809.6796,238,791.5569" style="stroke:#181818;stroke-width:1.0;"/>
    </g>
    <g id="link_C_0001861107648253454629_C_0018241535739946484465">
      <path codeLine="101" d="M250.6824,809.2681 C249.6824,826.9281 249.32,833.2369 248.32,850.9769 " fill="none" id="C_0001861107648253454629-backto-C_0018241535739946484465" style="stroke:#181818;stroke-width:1.0;"/>
      <polygon fill="none" points="251.7,791.2969,244.692,808.9289,256.6728,809.6073,251.7,791.2969" style="stroke:#181818;stroke-width:1.0;"/>
    </g>
    <g id="link_C_0008588005715032923314_C_0017829224549649886549">
      <path codeLine="102" d="M344.8322,288.9315 C325.8722,304.4815 315.69,314.7569 298,337.2969 C218.86,438.1769 155.65,579.7169 132.51,634.9369 " fill="none" id="C_0008588005715032923314-backto-C_0017829224549649886549" style="stroke:#181818;stroke-width:1.0;"/>
      <polygon fill="none" points="358.75,277.5169,341.0273,284.2923,348.6371,293.5708,358.75,277.5169" style="stroke:#181818;stroke-width:1.0;"/>
    </g>
  </g>
</svg>
