<svg xmlns="http://www.w3.org/2000/svg" xmlns:xlink="http://www.w3.org/1999/xlink" contentStyleType="text/css" height="946px" preserveAspectRatio="none" style="width:1284px;height:946px;background:#FFFFFF;" version="1.1" viewBox="0 0 1284 946" width="1284px" zoomAndPan="magnify">
  <title>Source location model class hierarchy</title>
  <defs>
    <style type="text/css">a:hover { text-decoration: underline; }</style>
  </defs>
  <g>
    <text fill="#000000" font-family="sans-serif" font-size="14" font-weight="bold" lengthAdjust="spacing" textLength="299.7422" x="485.1289" y="22.9951">Source location model class hierarchy</text>
    <g id="cluster_C_0002532840279361781187">
      <path d="M460.5,43.2969 L528.1777,43.2969 A3.75,3.75 0 0 1 530.6777,45.7969 L537.6777,65.5938 L822.5,65.5938 A2.5,2.5 0 0 1 825,68.0938 L825,530.7969 A2.5,2.5 0 0 1 822.5,533.2969 L460.5,533.2969 A2.5,2.5 0 0 1 458,530.7969 L458,45.7969 A2.5,2.5 0 0 1 460.5,43.2969 " fill="none" style="stroke:#000000;stroke-width:1.5;"/>
      <line style="stroke:#000000;stroke-width:1.5;" x1="458" x2="537.6777" y1="65.5938" y2="65.5938"/>
      <text fill="#000000" font-family="sans-serif" font-size="14" font-weight="bold" lengthAdjust="spacing" textLength="66.6777" x="462" y="58.292">common</text>
    </g>
    <g id="cluster_C_0000669774451444102653">
      <path d="M484.5,86.2969 L534.0215,86.2969 A3.75,3.75 0 0 1 536.5215,88.7969 L543.5215,108.5938 L798.5,108.5938 A2.5,2.5 0 0 1 801,111.0938 L801,506.7969 A2.5,2.5 0 0 1 798.5,509.2969 L484.5,509.2969 A2.5,2.5 0 0 1 482,506.7969 L482,88.7969 A2.5,2.5 0 0 1 484.5,86.2969 " fill="none" style="stroke:#000000;stroke-width:1.5;"/>
      <line style="stroke:#000000;stroke-width:1.5;" x1="482" x2="543.5215" y1="108.5938" y2="108.5938"/>
      <text fill="#000000" font-family="sans-serif" font-size="14" font-weight="bold" lengthAdjust="spacing" textLength="48.5215" x="486" y="101.292">model</text>
    </g>
    <g id="cluster_C_0017921336289613804855">
      <path d="M549.5,557.2969 L661.9395,557.2969 A3.75,3.75 0 0 1 664.4395,559.7969 L671.4395,579.5938 L1274.5,579.5938 A2.5,2.5 0 0 1 1277,582.0938 L1277,936.7969 A2.5,2.5 0 0 1 1274.5,939.2969 L549.5,939.2969 A2.5,2.5 0 0 1 547,936.7969 L547,559.7969 A2.5,2.5 0 0 1 549.5,557.2969 " fill="none" style="stroke:#000000;stroke-width:1.5;"/>
      <line style="stroke:#000000;stroke-width:1.5;" x1="547" x2="671.4395" y1="579.5938" y2="579.5938"/>
      <text fill="#000000" font-family="sans-serif" font-size="14" font-weight="bold" lengthAdjust="spacing" textLength="111.4395" x="551" y="572.292">class_diagram</text>
    </g>
    <g id="cluster_C_0007176993879715460962">
      <path d="M573.5,600.2969 L623.0215,600.2969 A3.75,3.75 0 0 1 625.5215,602.7969 L632.5215,622.5938 L1250.5,622.5938 A2.5,2.5 0 0 1 1253,625.0938 L1253,912.7969 A2.5,2.5 0 0 1 1250.5,915.2969 L573.5,915.2969 A2.5,2.5 0 0 1 571,912.7969 L571,602.7969 A2.5,2.5 0 0 1 573.5,600.2969 " fill="none" style="stroke:#000000;stroke-width:1.5;"/>
      <line style="stroke:#000000;stroke-width:1.5;" x1="571" x2="632.5215" y1="622.5938" y2="622.5938"/>
      <text fill="#000000" font-family="sans-serif" font-size="14" font-weight="bold" lengthAdjust="spacing" textLength="48.5215" x="575" y="615.292">model</text>
    </g>
    <g id="cluster_C_0012174902727661033893">
      <path d="M8.5,557.2969 L156.8008,557.2969 A3.75,3.75 0 0 1 159.3008,559.7969 L166.3008,579.5938 L520.5,579.5938 A2.5,2.5 0 0 1 523,582.0938 L523,936.7969 A2.5,2.5 0 0 1 520.5,939.2969 L8.5,939.2969 A2.5,2.5 0 0 1 6,936.7969 L6,559.7969 A2.5,2.5 0 0 1 8.5,557.2969 " fill="none" style="stroke:#000000;stroke-width:1.5;"/>
      <line style="stroke:#000000;stroke-width:1.5;" x1="6" x2="166.3008" y1="579.5938" y2="579.5938"/>
      <text fill="#000000" font-family="sans-serif" font-size="14" font-weight="bold" lengthAdjust="spacing" textLength="147.3008" x="10" y="572.292">sequence_diagram</text>
    </g>
    <g id="cluster_C_0017655759046645114118">
      <path d="M32.5,600.2969 L82.0215,600.2969 A3.75,3.75 0 0 1 84.5215,602.7969 L91.5215,622.5938 L496.5,622.5938 A2.5,2.5 0 0 1 499,625.0938 L499,912.7969 A2.5,2.5 0 0 1 496.5,915.2969 L32.5,915.2969 A2.5,2.5 0 0 1 30,912.7969 L30,602.7969 A2.5,2.5 0 0 1 32.5,600.2969 " fill="none" style="stroke:#000000;stroke-width:1.5;"/>
      <line style="stroke:#000000;stroke-width:1.5;" x1="30" x2="91.5215" y1="622.5938" y2="622.5938"/>
      <text fill="#000000" font-family="sans-serif" font-size="14" font-weight="bold" lengthAdjust="spacing" textLength="48.5215" x="34" y="615.292">model</text>
    </g>
    <a href="classclanguml_1_1common_1_1model_1_1source__location.html" target="_top" title="Base class of all diagram elements that have source location." xlink:actuate="onRequest" xlink:href="classclanguml_1_1common_1_1model_1_1source__location.html" xlink:show="new" xlink:title="Base class of all diagram elements that have source location." xlink:type="simple">
      <g id="elem_C_0007162092657467521843">
        <rect codeLine="5" fill="#F1F1F1" height="48" id="C_0007162092657467521843" rx="2.5" ry="2.5" style="stroke:#181818;stroke-width:0.5;" width="141.3477" x="614.5" y="121.2969"/>
        <ellipse cx="629.5" cy="137.2969" fill="#ADD1B2" rx="11" ry="11" style="stroke:#181818;stroke-width:1.0;"/>
        <path d="M632.4688,142.9375 Q631.8906,143.2344 631.25,143.375 Q630.6094,143.5313 629.9063,143.5313 Q627.4063,143.5313 626.0781,141.8906 Q624.7656,140.2344 624.7656,137.1094 Q624.7656,133.9844 626.0781,132.3281 Q627.4063,130.6719 629.9063,130.6719 Q630.6094,130.6719 631.25,130.8281 Q631.9063,130.9844 632.4688,131.2813 L632.4688,134 Q631.8438,133.4219 631.25,133.1563 Q630.6563,132.875 630.0313,132.875 Q628.6875,132.875 628,133.9531 Q627.3125,135.0156 627.3125,137.1094 Q627.3125,139.2031 628,140.2813 Q628.6875,141.3438 630.0313,141.3438 Q630.6563,141.3438 631.25,141.0781 Q631.8438,140.7969 632.4688,140.2188 L632.4688,142.9375 Z " fill="#000000"/>
        <text fill="#000000" font-family="sans-serif" font-size="14" lengthAdjust="spacing" textLength="109.3477" x="643.5" y="142.1436">source_location</text>
        <line style="stroke:#181818;stroke-width:0.5;" x1="615.5" x2="754.8477" y1="153.2969" y2="153.2969"/>
        <line style="stroke:#181818;stroke-width:0.5;" x1="615.5" x2="754.8477" y1="161.2969" y2="161.2969"/>
      </g>
    </a>
    <a href="classclanguml_1_1common_1_1model_1_1diagram__element.html" target="_top" title="Base class for standalone diagram elements." xlink:actuate="onRequest" xlink:href="classclanguml_1_1common_1_1model_1_1diagram__element.html" xlink:show="new" xlink:title="Base class for standalone diagram elements." xlink:type="simple">
      <g id="elem_C_0008588005715032923314">
        <rect codeLine="9" fill="#F1F1F1" height="48" id="C_0008588005715032923314" rx="2.5" ry="2.5" style="stroke:#181818;stroke-width:0.5;" width="154.9443" x="549.5" y="229.2969"/>
        <ellipse cx="564.5" cy="245.2969" fill="#ADD1B2" rx="11" ry="11" style="stroke:#181818;stroke-width:1.0;"/>
        <path d="M567.4688,250.9375 Q566.8906,251.2344 566.25,251.375 Q565.6094,251.5313 564.9063,251.5313 Q562.4063,251.5313 561.0781,249.8906 Q559.7656,248.2344 559.7656,245.1094 Q559.7656,241.9844 561.0781,240.3281 Q562.4063,238.6719 564.9063,238.6719 Q565.6094,238.6719 566.25,238.8281 Q566.9063,238.9844 567.4688,239.2813 L567.4688,242 Q566.8438,241.4219 566.25,241.1563 Q565.6563,240.875 565.0313,240.875 Q563.6875,240.875 563,241.9531 Q562.3125,243.0156 562.3125,245.1094 Q562.3125,247.2031 563,248.2813 Q563.6875,249.3438 565.0313,249.3438 Q565.6563,249.3438 566.25,249.0781 Q566.8438,248.7969 567.4688,248.2188 L567.4688,250.9375 Z " fill="#000000"/>
        <text fill="#000000" font-family="sans-serif" font-size="14" lengthAdjust="spacing" textLength="122.9443" x="578.5" y="250.1436">diagram_element</text>
        <line style="stroke:#181818;stroke-width:0.5;" x1="550.5" x2="703.4443" y1="261.2969" y2="261.2969"/>
        <line style="stroke:#181818;stroke-width:0.5;" x1="550.5" x2="703.4443" y1="269.2969" y2="269.2969"/>
      </g>
    </a>
    <a href="classclanguml_1_1common_1_1model_1_1element.html" target="_top" title="Base class for any element qualified by namespace." xlink:actuate="onRequest" xlink:href="classclanguml_1_1common_1_1model_1_1element.html" xlink:show="new" xlink:title="Base class for any element qualified by namespace." xlink:type="simple">
      <g id="elem_C_0016556163051475263500">
        <rect codeLine="13" fill="#F1F1F1" height="48" id="C_0016556163051475263500" rx="2.5" ry="2.5" style="stroke:#181818;stroke-width:0.5;" width="89.7295" x="553" y="337.2969"/>
        <ellipse cx="568" cy="353.2969" fill="#ADD1B2" rx="11" ry="11" style="stroke:#181818;stroke-width:1.0;"/>
        <path d="M570.9688,358.9375 Q570.3906,359.2344 569.75,359.375 Q569.1094,359.5313 568.4063,359.5313 Q565.9063,359.5313 564.5781,357.8906 Q563.2656,356.2344 563.2656,353.1094 Q563.2656,349.9844 564.5781,348.3281 Q565.9063,346.6719 568.4063,346.6719 Q569.1094,346.6719 569.75,346.8281 Q570.4063,346.9844 570.9688,347.2813 L570.9688,350 Q570.3438,349.4219 569.75,349.1563 Q569.1563,348.875 568.5313,348.875 Q567.1875,348.875 566.5,349.9531 Q565.8125,351.0156 565.8125,353.1094 Q565.8125,355.2031 566.5,356.2813 Q567.1875,357.3438 568.5313,357.3438 Q569.1563,357.3438 569.75,357.0781 Q570.3438,356.7969 570.9688,356.2188 L570.9688,358.9375 Z " fill="#000000"/>
        <text fill="#000000" font-family="sans-serif" font-size="14" lengthAdjust="spacing" textLength="57.7295" x="582" y="358.1436">element</text>
        <line style="stroke:#181818;stroke-width:0.5;" x1="554" x2="641.7295" y1="369.2969" y2="369.2969"/>
        <line style="stroke:#181818;stroke-width:0.5;" x1="554" x2="641.7295" y1="377.2969" y2="377.2969"/>
      </g>
    </a>
    <a href="classclanguml_1_1common_1_1model_1_1template__element.html" target="_top" title="Base class for any element qualified by namespace." xlink:actuate="onRequest" xlink:href="classclanguml_1_1common_1_1model_1_1template__element.html" xlink:show="new" xlink:title="Base class for any element qualified by namespace." xlink:type="simple">
      <g id="elem_C_0013384831159811298387">
        <rect codeLine="17" fill="#F1F1F1" height="48" id="C_0013384831159811298387" rx="2.5" ry="2.5" style="stroke:#181818;stroke-width:0.5;" width="159.9277" x="498" y="445.2969"/>
        <ellipse cx="513" cy="461.2969" fill="#ADD1B2" rx="11" ry="11" style="stroke:#181818;stroke-width:1.0;"/>
        <path d="M515.9688,466.9375 Q515.3906,467.2344 514.75,467.375 Q514.1094,467.5313 513.4063,467.5313 Q510.9063,467.5313 509.5781,465.8906 Q508.2656,464.2344 508.2656,461.1094 Q508.2656,457.9844 509.5781,456.3281 Q510.9063,454.6719 513.4063,454.6719 Q514.1094,454.6719 514.75,454.8281 Q515.4063,454.9844 515.9688,455.2813 L515.9688,458 Q515.3438,457.4219 514.75,457.1563 Q514.1563,456.875 513.5313,456.875 Q512.1875,456.875 511.5,457.9531 Q510.8125,459.0156 510.8125,461.1094 Q510.8125,463.2031 511.5,464.2813 Q512.1875,465.3438 513.5313,465.3438 Q514.1563,465.3438 514.75,465.0781 Q515.3438,464.7969 515.9688,464.2188 L515.9688,466.9375 Z " fill="#000000"/>
        <text fill="#000000" font-family="sans-serif" font-size="14" lengthAdjust="spacing" textLength="127.9277" x="527" y="466.1436">template_element</text>
        <line style="stroke:#181818;stroke-width:0.5;" x1="499" x2="656.9277" y1="477.2969" y2="477.2969"/>
        <line style="stroke:#181818;stroke-width:0.5;" x1="499" x2="656.9277" y1="485.2969" y2="485.2969"/>
      </g>
    </a>
    <a href="classclanguml_1_1common_1_1model_1_1source__file.html" target="_top" title="Diagram element representing some file or directory." xlink:actuate="onRequest" xlink:href="classclanguml_1_1common_1_1model_1_1source__file.html" xlink:show="new" xlink:title="Diagram element representing some file or directory." xlink:type="simple">
      <g id="elem_C_0006285717704576425038">
        <rect codeLine="21" fill="#F1F1F1" height="48" id="C_0006285717704576425038" rx="2.5" ry="2.5" style="stroke:#181818;stroke-width:0.5;" width="107.1201" x="678.5" y="337.2969"/>
        <ellipse cx="693.5" cy="353.2969" fill="#ADD1B2" rx="11" ry="11" style="stroke:#181818;stroke-width:1.0;"/>
        <path d="M696.4688,358.9375 Q695.8906,359.2344 695.25,359.375 Q694.6094,359.5313 693.9063,359.5313 Q691.4063,359.5313 690.0781,357.8906 Q688.7656,356.2344 688.7656,353.1094 Q688.7656,349.9844 690.0781,348.3281 Q691.4063,346.6719 693.9063,346.6719 Q694.6094,346.6719 695.25,346.8281 Q695.9063,346.9844 696.4688,347.2813 L696.4688,350 Q695.8438,349.4219 695.25,349.1563 Q694.6563,348.875 694.0313,348.875 Q692.6875,348.875 692,349.9531 Q691.3125,351.0156 691.3125,353.1094 Q691.3125,355.2031 692,356.2813 Q692.6875,357.3438 694.0313,357.3438 Q694.6563,357.3438 695.25,357.0781 Q695.8438,356.7969 696.4688,356.2188 L696.4688,358.9375 Z " fill="#000000"/>
        <text fill="#000000" font-family="sans-serif" font-size="14" lengthAdjust="spacing" textLength="75.1201" x="707.5" y="358.1436">source_file</text>
        <line style="stroke:#181818;stroke-width:0.5;" x1="679.5" x2="784.6201" y1="369.2969" y2="369.2969"/>
        <line style="stroke:#181818;stroke-width:0.5;" x1="679.5" x2="784.6201" y1="377.2969" y2="377.2969"/>
      </g>
    </a>
    <a href="classclanguml_1_1common_1_1model_1_1package.html" target="_top" title="Diagram element representing namespace or directory package" xlink:actuate="onRequest" xlink:href="classclanguml_1_1common_1_1model_1_1package.html" xlink:show="new" xlink:title="Diagram element representing namespace or directory package" xlink:type="simple">
      <g id="elem_C_0017146293478645494837">
        <rect codeLine="25" fill="#F1F1F1" height="48" id="C_0017146293478645494837" rx="2.5" ry="2.5" style="stroke:#181818;stroke-width:0.5;" width="91.3496" x="693.5" y="445.2969"/>
        <ellipse cx="708.5" cy="461.2969" fill="#ADD1B2" rx="11" ry="11" style="stroke:#181818;stroke-width:1.0;"/>
        <path d="M711.4688,466.9375 Q710.8906,467.2344 710.25,467.375 Q709.6094,467.5313 708.9063,467.5313 Q706.4063,467.5313 705.0781,465.8906 Q703.7656,464.2344 703.7656,461.1094 Q703.7656,457.9844 705.0781,456.3281 Q706.4063,454.6719 708.9063,454.6719 Q709.6094,454.6719 710.25,454.8281 Q710.9063,454.9844 711.4688,455.2813 L711.4688,458 Q710.8438,457.4219 710.25,457.1563 Q709.6563,456.875 709.0313,456.875 Q707.6875,456.875 707,457.9531 Q706.3125,459.0156 706.3125,461.1094 Q706.3125,463.2031 707,464.2813 Q707.6875,465.3438 709.0313,465.3438 Q709.6563,465.3438 710.25,465.0781 Q710.8438,464.7969 711.4688,464.2188 L711.4688,466.9375 Z " fill="#000000"/>
        <text fill="#000000" font-family="sans-serif" font-size="14" lengthAdjust="spacing" textLength="59.3496" x="722.5" y="466.1436">package</text>
        <line style="stroke:#181818;stroke-width:0.5;" x1="694.5" x2="783.8496" y1="477.2969" y2="477.2969"/>
        <line style="stroke:#181818;stroke-width:0.5;" x1="694.5" x2="783.8496" y1="485.2969" y2="485.2969"/>
      </g>
    </a>
    <a href="classclanguml_1_1class__diagram_1_1model_1_1class__element.html" target="_top" title="Base class for class elements (e.g. member or method)." xlink:actuate="onRequest" xlink:href="classclanguml_1_1class__diagram_1_1model_1_1class__element.html" xlink:show="new" xlink:title="Base class for class elements (e.g. member or method)." xlink:type="simple">
      <g id="elem_C_0004846934894930864299">
        <rect codeLine="33" fill="#F1F1F1" height="48" id="C_0004846934894930864299" rx="2.5" ry="2.5" style="stroke:#181818;stroke-width:0.5;" width="131.4834" x="1105.5" y="635.2969"/>
        <ellipse cx="1120.5" cy="651.2969" fill="#ADD1B2" rx="11" ry="11" style="stroke:#181818;stroke-width:1.0;"/>
        <path d="M1123.4688,656.9375 Q1122.8906,657.2344 1122.25,657.375 Q1121.6094,657.5313 1120.9063,657.5313 Q1118.4063,657.5313 1117.0781,655.8906 Q1115.7656,654.2344 1115.7656,651.1094 Q1115.7656,647.9844 1117.0781,646.3281 Q1118.4063,644.6719 1120.9063,644.6719 Q1121.6094,644.6719 1122.25,644.8281 Q1122.9063,644.9844 1123.4688,645.2813 L1123.4688,648 Q1122.8438,647.4219 1122.25,647.1563 Q1121.6563,646.875 1121.0313,646.875 Q1119.6875,646.875 1119,647.9531 Q1118.3125,649.0156 1118.3125,651.1094 Q1118.3125,653.2031 1119,654.2813 Q1119.6875,655.3438 1121.0313,655.3438 Q1121.6563,655.3438 1122.25,655.0781 Q1122.8438,654.7969 1123.4688,654.2188 L1123.4688,656.9375 Z " fill="#000000"/>
        <text fill="#000000" font-family="sans-serif" font-size="14" lengthAdjust="spacing" textLength="99.4834" x="1134.5" y="656.1436">class_element</text>
        <line style="stroke:#181818;stroke-width:0.5;" x1="1106.5" x2="1235.9834" y1="667.2969" y2="667.2969"/>
        <line style="stroke:#181818;stroke-width:0.5;" x1="1106.5" x2="1235.9834" y1="675.2969" y2="675.2969"/>
      </g>
    </a>
    <a href="classclanguml_1_1class__diagram_1_1model_1_1class__member__base.html" target="_top" title="Generic class member model." xlink:actuate="onRequest" xlink:href="classclanguml_1_1class__diagram_1_1model_1_1class__member__base.html" xlink:show="new" xlink:title="Generic class member model." xlink:type="simple">
      <g id="elem_C_0014241292626575163322">
        <rect codeLine="37" fill="#F1F1F1" height="48" id="C_0014241292626575163322" rx="2.5" ry="2.5" style="stroke:#181818;stroke-width:0.5;" width="173.2715" x="766.5" y="743.2969"/>
        <ellipse cx="781.5" cy="759.2969" fill="#ADD1B2" rx="11" ry="11" style="stroke:#181818;stroke-width:1.0;"/>
        <path d="M784.4688,764.9375 Q783.8906,765.2344 783.25,765.375 Q782.6094,765.5313 781.9063,765.5313 Q779.4063,765.5313 778.0781,763.8906 Q776.7656,762.2344 776.7656,759.1094 Q776.7656,755.9844 778.0781,754.3281 Q779.4063,752.6719 781.9063,752.6719 Q782.6094,752.6719 783.25,752.8281 Q783.9063,752.9844 784.4688,753.2813 L784.4688,756 Q783.8438,755.4219 783.25,755.1563 Q782.6563,754.875 782.0313,754.875 Q780.6875,754.875 780,755.9531 Q779.3125,757.0156 779.3125,759.1094 Q779.3125,761.2031 780,762.2813 Q780.6875,763.3438 782.0313,763.3438 Q782.6563,763.3438 783.25,763.0781 Q783.8438,762.7969 784.4688,762.2188 L784.4688,764.9375 Z " fill="#000000"/>
        <text fill="#000000" font-family="sans-serif" font-size="14" lengthAdjust="spacing" textLength="141.2715" x="795.5" y="764.1436">class_member_base</text>
        <line style="stroke:#181818;stroke-width:0.5;" x1="767.5" x2="938.7715" y1="775.2969" y2="775.2969"/>
        <line style="stroke:#181818;stroke-width:0.5;" x1="767.5" x2="938.7715" y1="783.2969" y2="783.2969"/>
      </g>
    </a>
    <a href="classclanguml_1_1class__diagram_1_1model_1_1class__member.html" target="_top" title="Class member model." xlink:actuate="onRequest" xlink:href="classclanguml_1_1class__diagram_1_1model_1_1class__member.html" xlink:show="new" xlink:title="Class member model." xlink:type="simple">
      <g id="elem_C_0014370262096868218046">
        <rect codeLine="41" fill="#F1F1F1" height="48" id="C_0014370262096868218046" rx="2.5" ry="2.5" style="stroke:#181818;stroke-width:0.5;" width="132.8984" x="621.5" y="851.2969"/>
        <ellipse cx="636.5" cy="867.2969" fill="#ADD1B2" rx="11" ry="11" style="stroke:#181818;stroke-width:1.0;"/>
        <path d="M639.4688,872.9375 Q638.8906,873.2344 638.25,873.375 Q637.6094,873.5313 636.9063,873.5313 Q634.4063,873.5313 633.0781,871.8906 Q631.7656,870.2344 631.7656,867.1094 Q631.7656,863.9844 633.0781,862.3281 Q634.4063,860.6719 636.9063,860.6719 Q637.6094,860.6719 638.25,860.8281 Q638.9063,860.9844 639.4688,861.2813 L639.4688,864 Q638.8438,863.4219 638.25,863.1563 Q637.6563,862.875 637.0313,862.875 Q635.6875,862.875 635,863.9531 Q634.3125,865.0156 634.3125,867.1094 Q634.3125,869.2031 635,870.2813 Q635.6875,871.3438 637.0313,871.3438 Q637.6563,871.3438 638.25,871.0781 Q638.8438,870.7969 639.4688,870.2188 L639.4688,872.9375 Z " fill="#000000"/>
        <text fill="#000000" font-family="sans-serif" font-size="14" lengthAdjust="spacing" textLength="100.8984" x="650.5" y="872.1436">class_member</text>
        <line style="stroke:#181818;stroke-width:0.5;" x1="622.5" x2="753.3984" y1="883.2969" y2="883.2969"/>
        <line style="stroke:#181818;stroke-width:0.5;" x1="622.5" x2="753.3984" y1="891.2969" y2="891.2969"/>
      </g>
    </a>
    <a href="classclanguml_1_1class__diagram_1_1model_1_1class__method__base.html" target="_top" title="Class method model." xlink:actuate="onRequest" xlink:href="classclanguml_1_1class__diagram_1_1model_1_1class__method__base.html" xlink:show="new" xlink:title="Class method model." xlink:type="simple">
      <g id="elem_C_0018032026899693266441">
        <rect codeLine="45" fill="#F1F1F1" height="48" id="C_0018032026899693266441" rx="2.5" ry="2.5" style="stroke:#181818;stroke-width:0.5;" width="168.1924" x="1069" y="743.2969"/>
        <ellipse cx="1084" cy="759.2969" fill="#ADD1B2" rx="11" ry="11" style="stroke:#181818;stroke-width:1.0;"/>
        <path d="M1086.9688,764.9375 Q1086.3906,765.2344 1085.75,765.375 Q1085.1094,765.5313 1084.4063,765.5313 Q1081.9063,765.5313 1080.5781,763.8906 Q1079.2656,762.2344 1079.2656,759.1094 Q1079.2656,755.9844 1080.5781,754.3281 Q1081.9063,752.6719 1084.4063,752.6719 Q1085.1094,752.6719 1085.75,752.8281 Q1086.4063,752.9844 1086.9688,753.2813 L1086.9688,756 Q1086.3438,755.4219 1085.75,755.1563 Q1085.1563,754.875 1084.5313,754.875 Q1083.1875,754.875 1082.5,755.9531 Q1081.8125,757.0156 1081.8125,759.1094 Q1081.8125,761.2031 1082.5,762.2813 Q1083.1875,763.3438 1084.5313,763.3438 Q1085.1563,763.3438 1085.75,763.0781 Q1086.3438,762.7969 1086.9688,762.2188 L1086.9688,764.9375 Z " fill="#000000"/>
        <text fill="#000000" font-family="sans-serif" font-size="14" lengthAdjust="spacing" textLength="136.1924" x="1098" y="764.1436">class_method_base</text>
        <line style="stroke:#181818;stroke-width:0.5;" x1="1070" x2="1236.1924" y1="775.2969" y2="775.2969"/>
        <line style="stroke:#181818;stroke-width:0.5;" x1="1070" x2="1236.1924" y1="783.2969" y2="783.2969"/>
      </g>
    </a>
    <a href="classclanguml_1_1class__diagram_1_1model_1_1class__method.html" target="_top" title="Class method model." xlink:actuate="onRequest" xlink:href="classclanguml_1_1class__diagram_1_1model_1_1class__method.html" xlink:show="new" xlink:title="Class method model." xlink:type="simple">
      <g id="elem_C_0001633165731746789371">
        <rect codeLine="49" fill="#F1F1F1" height="48" id="C_0001633165731746789371" rx="2.5" ry="2.5" style="stroke:#181818;stroke-width:0.5;" width="127.8193" x="952" y="851.2969"/>
        <ellipse cx="967" cy="867.2969" fill="#ADD1B2" rx="11" ry="11" style="stroke:#181818;stroke-width:1.0;"/>
        <path d="M969.9688,872.9375 Q969.3906,873.2344 968.75,873.375 Q968.1094,873.5313 967.4063,873.5313 Q964.9063,873.5313 963.5781,871.8906 Q962.2656,870.2344 962.2656,867.1094 Q962.2656,863.9844 963.5781,862.3281 Q964.9063,860.6719 967.4063,860.6719 Q968.1094,860.6719 968.75,860.8281 Q969.4063,860.9844 969.9688,861.2813 L969.9688,864 Q969.3438,863.4219 968.75,863.1563 Q968.1563,862.875 967.5313,862.875 Q966.1875,862.875 965.5,863.9531 Q964.8125,865.0156 964.8125,867.1094 Q964.8125,869.2031 965.5,870.2813 Q966.1875,871.3438 967.5313,871.3438 Q968.1563,871.3438 968.75,871.0781 Q969.3438,870.7969 969.9688,870.2188 L969.9688,872.9375 Z " fill="#000000"/>
        <text fill="#000000" font-family="sans-serif" font-size="14" lengthAdjust="spacing" textLength="95.8193" x="981" y="872.1436">class_method</text>
        <line style="stroke:#181818;stroke-width:0.5;" x1="953" x2="1078.8193" y1="883.2969" y2="883.2969"/>
        <line style="stroke:#181818;stroke-width:0.5;" x1="953" x2="1078.8193" y1="891.2969" y2="891.2969"/>
      </g>
    </a>
    <a href="classclanguml_1_1class__diagram_1_1model_1_1class__.html" target="_top" title="Diagram element representing a class or class template." xlink:actuate="onRequest" xlink:href="classclanguml_1_1class__diagram_1_1model_1_1class__.html" xlink:show="new" xlink:title="Diagram element representing a class or class template." xlink:type="simple">
      <g id="elem_C_0010336274859733225462">
        <rect codeLine="53" fill="#F1F1F1" height="48" id="C_0010336274859733225462" rx="2.5" ry="2.5" style="stroke:#181818;stroke-width:0.5;" width="73.7539" x="587" y="635.2969"/>
        <ellipse cx="602" cy="651.2969" fill="#ADD1B2" rx="11" ry="11" style="stroke:#181818;stroke-width:1.0;"/>
        <path d="M604.9688,656.9375 Q604.3906,657.2344 603.75,657.375 Q603.1094,657.5313 602.4063,657.5313 Q599.9063,657.5313 598.5781,655.8906 Q597.2656,654.2344 597.2656,651.1094 Q597.2656,647.9844 598.5781,646.3281 Q599.9063,644.6719 602.4063,644.6719 Q603.1094,644.6719 603.75,644.8281 Q604.4063,644.9844 604.9688,645.2813 L604.9688,648 Q604.3438,647.4219 603.75,647.1563 Q603.1563,646.875 602.5313,646.875 Q601.1875,646.875 600.5,647.9531 Q599.8125,649.0156 599.8125,651.1094 Q599.8125,653.2031 600.5,654.2813 Q601.1875,655.3438 602.5313,655.3438 Q603.1563,655.3438 603.75,655.0781 Q604.3438,654.7969 604.9688,654.2188 L604.9688,656.9375 Z " fill="#000000"/>
        <text fill="#000000" font-family="sans-serif" font-size="14" lengthAdjust="spacing" textLength="41.7539" x="616" y="656.1436">class_</text>
        <line style="stroke:#181818;stroke-width:0.5;" x1="588" x2="659.7539" y1="667.2969" y2="667.2969"/>
        <line style="stroke:#181818;stroke-width:0.5;" x1="588" x2="659.7539" y1="675.2969" y2="675.2969"/>
      </g>
    </a>
    <a href="classclanguml_1_1class__diagram_1_1model_1_1concept__.html" target="_top" title="Model of C++ concept." xlink:actuate="onRequest" xlink:href="classclanguml_1_1class__diagram_1_1model_1_1concept__.html" xlink:show="new" xlink:title="Model of C++ concept." xlink:type="simple">
      <g id="elem_C_0010998792414017796003">
        <rect codeLine="57" fill="#F1F1F1" height="48" id="C_0010998792414017796003" rx="2.5" ry="2.5" style="stroke:#181818;stroke-width:0.5;" width="94.8223" x="861.5" y="635.2969"/>
        <ellipse cx="876.5" cy="651.2969" fill="#ADD1B2" rx="11" ry="11" style="stroke:#181818;stroke-width:1.0;"/>
        <path d="M879.4688,656.9375 Q878.8906,657.2344 878.25,657.375 Q877.6094,657.5313 876.9063,657.5313 Q874.4063,657.5313 873.0781,655.8906 Q871.7656,654.2344 871.7656,651.1094 Q871.7656,647.9844 873.0781,646.3281 Q874.4063,644.6719 876.9063,644.6719 Q877.6094,644.6719 878.25,644.8281 Q878.9063,644.9844 879.4688,645.2813 L879.4688,648 Q878.8438,647.4219 878.25,647.1563 Q877.6563,646.875 877.0313,646.875 Q875.6875,646.875 875,647.9531 Q874.3125,649.0156 874.3125,651.1094 Q874.3125,653.2031 875,654.2813 Q875.6875,655.3438 877.0313,655.3438 Q877.6563,655.3438 878.25,655.0781 Q878.8438,654.7969 879.4688,654.2188 L879.4688,656.9375 Z " fill="#000000"/>
        <text fill="#000000" font-family="sans-serif" font-size="14" lengthAdjust="spacing" textLength="62.8223" x="890.5" y="656.1436">concept_</text>
        <line style="stroke:#181818;stroke-width:0.5;" x1="862.5" x2="955.3223" y1="667.2969" y2="667.2969"/>
        <line style="stroke:#181818;stroke-width:0.5;" x1="862.5" x2="955.3223" y1="675.2969" y2="675.2969"/>
      </g>
    </a>
    <a href="classclanguml_1_1class__diagram_1_1model_1_1enum__.html" target="_top" title="Diagram element representing an enum." xlink:actuate="onRequest" xlink:href="classclanguml_1_1class__diagram_1_1model_1_1enum__.html" xlink:show="new" xlink:title="Diagram element representing an enum." xlink:type="simple">
      <g id="elem_C_0005795143816749204050">
        <rect codeLine="61" fill="#F1F1F1" height="48" id="C_0005795143816749204050" rx="2.5" ry="2.5" style="stroke:#181818;stroke-width:0.5;" width="78.9971" x="991.5" y="635.2969"/>
        <ellipse cx="1006.5" cy="651.2969" fill="#ADD1B2" rx="11" ry="11" style="stroke:#181818;stroke-width:1.0;"/>
        <path d="M1009.4688,656.9375 Q1008.8906,657.2344 1008.25,657.375 Q1007.6094,657.5313 1006.9063,657.5313 Q1004.4063,657.5313 1003.0781,655.8906 Q1001.7656,654.2344 1001.7656,651.1094 Q1001.7656,647.9844 1003.0781,646.3281 Q1004.4063,644.6719 1006.9063,644.6719 Q1007.6094,644.6719 1008.25,644.8281 Q1008.9063,644.9844 1009.4688,645.2813 L1009.4688,648 Q1008.8438,647.4219 1008.25,647.1563 Q1007.6563,646.875 1007.0313,646.875 Q1005.6875,646.875 1005,647.9531 Q1004.3125,649.0156 1004.3125,651.1094 Q1004.3125,653.2031 1005,654.2813 Q1005.6875,655.3438 1007.0313,655.3438 Q1007.6563,655.3438 1008.25,655.0781 Q1008.8438,654.7969 1009.4688,654.2188 L1009.4688,656.9375 Z " fill="#000000"/>
        <text fill="#000000" font-family="sans-serif" font-size="14" lengthAdjust="spacing" textLength="46.9971" x="1020.5" y="656.1436">enum_</text>
        <line style="stroke:#181818;stroke-width:0.5;" x1="992.5" x2="1069.4971" y1="667.2969" y2="667.2969"/>
        <line style="stroke:#181818;stroke-width:0.5;" x1="992.5" x2="1069.4971" y1="675.2969" y2="675.2969"/>
      </g>
    </a>
    <a href="classclanguml_1_1class__diagram_1_1model_1_1objc__member.html" target="_top" title="ObjC class member model." xlink:actuate="onRequest" xlink:href="classclanguml_1_1class__diagram_1_1model_1_1objc__member.html" xlink:show="new" xlink:title="ObjC class member model." xlink:type="simple">
      <g id="elem_C_0007364672229966928495">
        <rect codeLine="65" fill="#F1F1F1" height="48" id="C_0007364672229966928495" rx="2.5" ry="2.5" style="stroke:#181818;stroke-width:0.5;" width="127.1836" x="789.5" y="851.2969"/>
        <ellipse cx="804.5" cy="867.2969" fill="#ADD1B2" rx="11" ry="11" style="stroke:#181818;stroke-width:1.0;"/>
        <path d="M807.4688,872.9375 Q806.8906,873.2344 806.25,873.375 Q805.6094,873.5313 804.9063,873.5313 Q802.4063,873.5313 801.0781,871.8906 Q799.7656,870.2344 799.7656,867.1094 Q799.7656,863.9844 801.0781,862.3281 Q802.4063,860.6719 804.9063,860.6719 Q805.6094,860.6719 806.25,860.8281 Q806.9063,860.9844 807.4688,861.2813 L807.4688,864 Q806.8438,863.4219 806.25,863.1563 Q805.6563,862.875 805.0313,862.875 Q803.6875,862.875 803,863.9531 Q802.3125,865.0156 802.3125,867.1094 Q802.3125,869.2031 803,870.2813 Q803.6875,871.3438 805.0313,871.3438 Q805.6563,871.3438 806.25,871.0781 Q806.8438,870.7969 807.4688,870.2188 L807.4688,872.9375 Z " fill="#000000"/>
        <text fill="#000000" font-family="sans-serif" font-size="14" lengthAdjust="spacing" textLength="95.1836" x="818.5" y="872.1436">objc_member</text>
        <line style="stroke:#181818;stroke-width:0.5;" x1="790.5" x2="915.6836" y1="883.2969" y2="883.2969"/>
        <line style="stroke:#181818;stroke-width:0.5;" x1="790.5" x2="915.6836" y1="891.2969" y2="891.2969"/>
      </g>
    </a>
    <a href="classclanguml_1_1class__diagram_1_1model_1_1objc__method.html" target="_top" title="ObjC class method model." xlink:actuate="onRequest" xlink:href="classclanguml_1_1class__diagram_1_1model_1_1objc__method.html" xlink:show="new" xlink:title="ObjC class method model." xlink:type="simple">
      <g id="elem_C_0002175636676684225778">
        <rect codeLine="69" fill="#F1F1F1" height="48" id="C_0002175636676684225778" rx="2.5" ry="2.5" style="stroke:#181818;stroke-width:0.5;" width="122.1045" x="1115" y="851.2969"/>
        <ellipse cx="1130" cy="867.2969" fill="#ADD1B2" rx="11" ry="11" style="stroke:#181818;stroke-width:1.0;"/>
        <path d="M1132.9688,872.9375 Q1132.3906,873.2344 1131.75,873.375 Q1131.1094,873.5313 1130.4063,873.5313 Q1127.9063,873.5313 1126.5781,871.8906 Q1125.2656,870.2344 1125.2656,867.1094 Q1125.2656,863.9844 1126.5781,862.3281 Q1127.9063,860.6719 1130.4063,860.6719 Q1131.1094,860.6719 1131.75,860.8281 Q1132.4063,860.9844 1132.9688,861.2813 L1132.9688,864 Q1132.3438,863.4219 1131.75,863.1563 Q1131.1563,862.875 1130.5313,862.875 Q1129.1875,862.875 1128.5,863.9531 Q1127.8125,865.0156 1127.8125,867.1094 Q1127.8125,869.2031 1128.5,870.2813 Q1129.1875,871.3438 1130.5313,871.3438 Q1131.1563,871.3438 1131.75,871.0781 Q1132.3438,870.7969 1132.9688,870.2188 L1132.9688,872.9375 Z " fill="#000000"/>
        <text fill="#000000" font-family="sans-serif" font-size="14" lengthAdjust="spacing" textLength="90.1045" x="1144" y="872.1436">objc_method</text>
        <line style="stroke:#181818;stroke-width:0.5;" x1="1116" x2="1236.1045" y1="883.2969" y2="883.2969"/>
        <line style="stroke:#181818;stroke-width:0.5;" x1="1116" x2="1236.1045" y1="891.2969" y2="891.2969"/>
      </g>
    </a>
    <a href="classclanguml_1_1class__diagram_1_1model_1_1objc__interface.html" target="_top" title="Diagram element representing an ObjC interface." xlink:actuate="onRequest" xlink:href="classclanguml_1_1class__diagram_1_1model_1_1objc__interface.html" xlink:show="new" xlink:title="Diagram element representing an ObjC interface." xlink:type="simple">
      <g id="elem_C_0010166346108406727066">
        <rect codeLine="73" fill="#F1F1F1" height="48" id="C_0010166346108406727066" rx="2.5" ry="2.5" style="stroke:#181818;stroke-width:0.5;" width="130.4785" x="696" y="635.2969"/>
        <ellipse cx="711" cy="651.2969" fill="#ADD1B2" rx="11" ry="11" style="stroke:#181818;stroke-width:1.0;"/>
        <path d="M713.9688,656.9375 Q713.3906,657.2344 712.75,657.375 Q712.1094,657.5313 711.4063,657.5313 Q708.9063,657.5313 707.5781,655.8906 Q706.2656,654.2344 706.2656,651.1094 Q706.2656,647.9844 707.5781,646.3281 Q708.9063,644.6719 711.4063,644.6719 Q712.1094,644.6719 712.75,644.8281 Q713.4063,644.9844 713.9688,645.2813 L713.9688,648 Q713.3438,647.4219 712.75,647.1563 Q712.1563,646.875 711.5313,646.875 Q710.1875,646.875 709.5,647.9531 Q708.8125,649.0156 708.8125,651.1094 Q708.8125,653.2031 709.5,654.2813 Q710.1875,655.3438 711.5313,655.3438 Q712.1563,655.3438 712.75,655.0781 Q713.3438,654.7969 713.9688,654.2188 L713.9688,656.9375 Z " fill="#000000"/>
        <text fill="#000000" font-family="sans-serif" font-size="14" lengthAdjust="spacing" textLength="98.4785" x="725" y="656.1436">objc_interface</text>
        <line style="stroke:#181818;stroke-width:0.5;" x1="697" x2="825.4785" y1="667.2969" y2="667.2969"/>
        <line style="stroke:#181818;stroke-width:0.5;" x1="697" x2="825.4785" y1="675.2969" y2="675.2969"/>
      </g>
    </a>
    <a href="structclanguml_1_1sequence__diagram_1_1model_1_1participant.html" target="_top" title="Base class for various types of sequence diagram participants" xlink:actuate="onRequest" xlink:href="structclanguml_1_1sequence__diagram_1_1model_1_1participant.html" xlink:show="new" xlink:title="Base class for various types of sequence diagram participants" xlink:type="simple">
      <g id="elem_C_0011201726182739961811">
        <rect codeLine="81" fill="#F1F1F1" height="48" id="C_0011201726182739961811" rx="2.5" ry="2.5" style="stroke:#181818;stroke-width:0.5;" width="108.0156" x="363" y="635.2969"/>
        <ellipse cx="378" cy="651.2969" fill="#ADD1B2" rx="11" ry="11" style="stroke:#181818;stroke-width:1.0;"/>
        <path d="M380.9688,656.9375 Q380.3906,657.2344 379.75,657.375 Q379.1094,657.5313 378.4063,657.5313 Q375.9063,657.5313 374.5781,655.8906 Q373.2656,654.2344 373.2656,651.1094 Q373.2656,647.9844 374.5781,646.3281 Q375.9063,644.6719 378.4063,644.6719 Q379.1094,644.6719 379.75,644.8281 Q380.4063,644.9844 380.9688,645.2813 L380.9688,648 Q380.3438,647.4219 379.75,647.1563 Q379.1563,646.875 378.5313,646.875 Q377.1875,646.875 376.5,647.9531 Q375.8125,649.0156 375.8125,651.1094 Q375.8125,653.2031 376.5,654.2813 Q377.1875,655.3438 378.5313,655.3438 Q379.1563,655.3438 379.75,655.0781 Q380.3438,654.7969 380.9688,654.2188 L380.9688,656.9375 Z " fill="#000000"/>
        <text fill="#000000" font-family="sans-serif" font-size="14" lengthAdjust="spacing" textLength="76.0156" x="392" y="656.1436">participant</text>
        <line style="stroke:#181818;stroke-width:0.5;" x1="364" x2="470.0156" y1="667.2969" y2="667.2969"/>
        <line style="stroke:#181818;stroke-width:0.5;" x1="364" x2="470.0156" y1="675.2969" y2="675.2969"/>
      </g>
    </a>
    <a href="structclanguml_1_1sequence__diagram_1_1model_1_1class__.html" target="_top" title="Sequence diagram participant representing a class." xlink:actuate="onRequest" xlink:href="structclanguml_1_1sequence__diagram_1_1model_1_1class__.html" xlink:show="new" xlink:title="Sequence diagram participant representing a class." xlink:type="simple">
      <g id="elem_C_0007084118972955772881">
        <rect codeLine="85" fill="#F1F1F1" height="48" id="C_0007084118972955772881" rx="2.5" ry="2.5" style="stroke:#181818;stroke-width:0.5;" width="73.7539" x="250" y="743.2969"/>
        <ellipse cx="265" cy="759.2969" fill="#ADD1B2" rx="11" ry="11" style="stroke:#181818;stroke-width:1.0;"/>
        <path d="M267.9688,764.9375 Q267.3906,765.2344 266.75,765.375 Q266.1094,765.5313 265.4063,765.5313 Q262.9063,765.5313 261.5781,763.8906 Q260.2656,762.2344 260.2656,759.1094 Q260.2656,755.9844 261.5781,754.3281 Q262.9063,752.6719 265.4063,752.6719 Q266.1094,752.6719 266.75,752.8281 Q267.4063,752.9844 267.9688,753.2813 L267.9688,756 Q267.3438,755.4219 266.75,755.1563 Q266.1563,754.875 265.5313,754.875 Q264.1875,754.875 263.5,755.9531 Q262.8125,757.0156 262.8125,759.1094 Q262.8125,761.2031 263.5,762.2813 Q264.1875,763.3438 265.5313,763.3438 Q266.1563,763.3438 266.75,763.0781 Q267.3438,762.7969 267.9688,762.2188 L267.9688,764.9375 Z " fill="#000000"/>
        <text fill="#000000" font-family="sans-serif" font-size="14" lengthAdjust="spacing" textLength="41.7539" x="279" y="764.1436">class_</text>
        <line style="stroke:#181818;stroke-width:0.5;" x1="251" x2="322.7539" y1="775.2969" y2="775.2969"/>
        <line style="stroke:#181818;stroke-width:0.5;" x1="251" x2="322.7539" y1="783.2969" y2="783.2969"/>
      </g>
    </a>
    <a href="structclanguml_1_1sequence__diagram_1_1model_1_1function.html" target="_top" title="Participant mode representing a free function." xlink:actuate="onRequest" xlink:href="structclanguml_1_1sequence__diagram_1_1model_1_1function.html" xlink:show="new" xlink:title="Participant mode representing a free function." xlink:type="simple">
      <g id="elem_C_0001861107648253454629">
        <rect codeLine="89" fill="#F1F1F1" height="48" id="C_0001861107648253454629" rx="2.5" ry="2.5" style="stroke:#181818;stroke-width:0.5;" width="89.1895" x="359.5" y="743.2969"/>
        <ellipse cx="374.5" cy="759.2969" fill="#ADD1B2" rx="11" ry="11" style="stroke:#181818;stroke-width:1.0;"/>
        <path d="M377.4688,764.9375 Q376.8906,765.2344 376.25,765.375 Q375.6094,765.5313 374.9063,765.5313 Q372.4063,765.5313 371.0781,763.8906 Q369.7656,762.2344 369.7656,759.1094 Q369.7656,755.9844 371.0781,754.3281 Q372.4063,752.6719 374.9063,752.6719 Q375.6094,752.6719 376.25,752.8281 Q376.9063,752.9844 377.4688,753.2813 L377.4688,756 Q376.8438,755.4219 376.25,755.1563 Q375.6563,754.875 375.0313,754.875 Q373.6875,754.875 373,755.9531 Q372.3125,757.0156 372.3125,759.1094 Q372.3125,761.2031 373,762.2813 Q373.6875,763.3438 375.0313,763.3438 Q375.6563,763.3438 376.25,763.0781 Q376.8438,762.7969 377.4688,762.2188 L377.4688,764.9375 Z " fill="#000000"/>
        <text fill="#000000" font-family="sans-serif" font-size="14" lengthAdjust="spacing" textLength="57.1895" x="388.5" y="764.1436">function</text>
        <line style="stroke:#181818;stroke-width:0.5;" x1="360.5" x2="447.6895" y1="775.2969" y2="775.2969"/>
        <line style="stroke:#181818;stroke-width:0.5;" x1="360.5" x2="447.6895" y1="783.2969" y2="783.2969"/>
      </g>
    </a>
    <a href="structclanguml_1_1sequence__diagram_1_1model_1_1method.html" target="_top" title="Participant model representing a method" xlink:actuate="onRequest" xlink:href="structclanguml_1_1sequence__diagram_1_1model_1_1method.html" xlink:show="new" xlink:title="Participant model representing a method" xlink:type="simple">
      <g id="elem_C_0006541327780382276039">
        <rect codeLine="93" fill="#F1F1F1" height="48" id="C_0006541327780382276039" rx="2.5" ry="2.5" style="stroke:#181818;stroke-width:0.5;" width="86.0654" x="46" y="851.2969"/>
        <ellipse cx="61" cy="867.2969" fill="#ADD1B2" rx="11" ry="11" style="stroke:#181818;stroke-width:1.0;"/>
        <path d="M63.9688,872.9375 Q63.3906,873.2344 62.75,873.375 Q62.1094,873.5313 61.4063,873.5313 Q58.9063,873.5313 57.5781,871.8906 Q56.2656,870.2344 56.2656,867.1094 Q56.2656,863.9844 57.5781,862.3281 Q58.9063,860.6719 61.4063,860.6719 Q62.1094,860.6719 62.75,860.8281 Q63.4063,860.9844 63.9688,861.2813 L63.9688,864 Q63.3438,863.4219 62.75,863.1563 Q62.1563,862.875 61.5313,862.875 Q60.1875,862.875 59.5,863.9531 Q58.8125,865.0156 58.8125,867.1094 Q58.8125,869.2031 59.5,870.2813 Q60.1875,871.3438 61.5313,871.3438 Q62.1563,871.3438 62.75,871.0781 Q63.3438,870.7969 63.9688,870.2188 L63.9688,872.9375 Z " fill="#000000"/>
        <text fill="#000000" font-family="sans-serif" font-size="14" lengthAdjust="spacing" textLength="54.0654" x="75" y="872.1436">method</text>
        <line style="stroke:#181818;stroke-width:0.5;" x1="47" x2="131.0654" y1="883.2969" y2="883.2969"/>
        <line style="stroke:#181818;stroke-width:0.5;" x1="47" x2="131.0654" y1="891.2969" y2="891.2969"/>
      </g>
    </a>
    <a href="structclanguml_1_1sequence__diagram_1_1model_1_1objc__method.html" target="_top" title="objc_method" xlink:actuate="onRequest" xlink:href="structclanguml_1_1sequence__diagram_1_1model_1_1objc__method.html" xlink:show="new" xlink:title="objc_method" xlink:type="simple">
      <g id="elem_C_0013742559556936917396">
        <rect codeLine="97" fill="#F1F1F1" height="48" id="C_0013742559556936917396" rx="2.5" ry="2.5" style="stroke:#181818;stroke-width:0.5;" width="122.1045" x="167" y="851.2969"/>
        <ellipse cx="182" cy="867.2969" fill="#ADD1B2" rx="11" ry="11" style="stroke:#181818;stroke-width:1.0;"/>
        <path d="M184.9688,872.9375 Q184.3906,873.2344 183.75,873.375 Q183.1094,873.5313 182.4063,873.5313 Q179.9063,873.5313 178.5781,871.8906 Q177.2656,870.2344 177.2656,867.1094 Q177.2656,863.9844 178.5781,862.3281 Q179.9063,860.6719 182.4063,860.6719 Q183.1094,860.6719 183.75,860.8281 Q184.4063,860.9844 184.9688,861.2813 L184.9688,864 Q184.3438,863.4219 183.75,863.1563 Q183.1563,862.875 182.5313,862.875 Q181.1875,862.875 180.5,863.9531 Q179.8125,865.0156 179.8125,867.1094 Q179.8125,869.2031 180.5,870.2813 Q181.1875,871.3438 182.5313,871.3438 Q183.1563,871.3438 183.75,871.0781 Q184.3438,870.7969 184.9688,870.2188 L184.9688,872.9375 Z " fill="#000000"/>
        <text fill="#000000" font-family="sans-serif" font-size="14" lengthAdjust="spacing" textLength="90.1045" x="196" y="872.1436">objc_method</text>
        <line style="stroke:#181818;stroke-width:0.5;" x1="168" x2="288.1045" y1="883.2969" y2="883.2969"/>
        <line style="stroke:#181818;stroke-width:0.5;" x1="168" x2="288.1045" y1="891.2969" y2="891.2969"/>
      </g>
    </a>
    <a href="structclanguml_1_1sequence__diagram_1_1model_1_1function__template.html" target="_top" title="Participant model representing a function template." xlink:actuate="onRequest" xlink:href="structclanguml_1_1sequence__diagram_1_1model_1_1function__template.html" xlink:show="new" xlink:title="Participant model representing a function template." xlink:type="simple">
      <g id="elem_C_0018241535739946484465">
        <rect codeLine="101" fill="#F1F1F1" height="48" id="C_0018241535739946484465" rx="2.5" ry="2.5" style="stroke:#181818;stroke-width:0.5;" width="159.3877" x="324.5" y="851.2969"/>
        <ellipse cx="339.5" cy="867.2969" fill="#ADD1B2" rx="11" ry="11" style="stroke:#181818;stroke-width:1.0;"/>
        <path d="M342.4688,872.9375 Q341.8906,873.2344 341.25,873.375 Q340.6094,873.5313 339.9063,873.5313 Q337.4063,873.5313 336.0781,871.8906 Q334.7656,870.2344 334.7656,867.1094 Q334.7656,863.9844 336.0781,862.3281 Q337.4063,860.6719 339.9063,860.6719 Q340.6094,860.6719 341.25,860.8281 Q341.9063,860.9844 342.4688,861.2813 L342.4688,864 Q341.8438,863.4219 341.25,863.1563 Q340.6563,862.875 340.0313,862.875 Q338.6875,862.875 338,863.9531 Q337.3125,865.0156 337.3125,867.1094 Q337.3125,869.2031 338,870.2813 Q338.6875,871.3438 340.0313,871.3438 Q340.6563,871.3438 341.25,871.0781 Q341.8438,870.7969 342.4688,870.2188 L342.4688,872.9375 Z " fill="#000000"/>
        <text fill="#000000" font-family="sans-serif" font-size="14" lengthAdjust="spacing" textLength="127.3877" x="353.5" y="872.1436">function_template</text>
        <line style="stroke:#181818;stroke-width:0.5;" x1="325.5" x2="482.8877" y1="883.2969" y2="883.2969"/>
        <line style="stroke:#181818;stroke-width:0.5;" x1="325.5" x2="482.8877" y1="891.2969" y2="891.2969"/>
      </g>
    </a>
    <a href="classclanguml_1_1sequence__diagram_1_1model_1_1message.html" target="_top" title="Model of a sequence diagram message." xlink:actuate="onRequest" xlink:href="classclanguml_1_1sequence__diagram_1_1model_1_1message.html" xlink:show="new" xlink:title="Model of a sequence diagram message." xlink:type="simple">
      <g id="elem_C_0017829224549649886549">
        <rect codeLine="105" fill="#F1F1F1" height="48" id="C_0017829224549649886549" rx="2.5" ry="2.5" style="stroke:#181818;stroke-width:0.5;" width="94.918" x="232.5" y="635.2969"/>
        <ellipse cx="247.5" cy="651.2969" fill="#ADD1B2" rx="11" ry="11" style="stroke:#181818;stroke-width:1.0;"/>
        <path d="M250.4688,656.9375 Q249.8906,657.2344 249.25,657.375 Q248.6094,657.5313 247.9063,657.5313 Q245.4063,657.5313 244.0781,655.8906 Q242.7656,654.2344 242.7656,651.1094 Q242.7656,647.9844 244.0781,646.3281 Q245.4063,644.6719 247.9063,644.6719 Q248.6094,644.6719 249.25,644.8281 Q249.9063,644.9844 250.4688,645.2813 L250.4688,648 Q249.8438,647.4219 249.25,647.1563 Q248.6563,646.875 248.0313,646.875 Q246.6875,646.875 246,647.9531 Q245.3125,649.0156 245.3125,651.1094 Q245.3125,653.2031 246,654.2813 Q246.6875,655.3438 248.0313,655.3438 Q248.6563,655.3438 249.25,655.0781 Q249.8438,654.7969 250.4688,654.2188 L250.4688,656.9375 Z " fill="#000000"/>
        <text fill="#000000" font-family="sans-serif" font-size="14" lengthAdjust="spacing" textLength="62.918" x="261.5" y="656.1436">message</text>
        <line style="stroke:#181818;stroke-width:0.5;" x1="233.5" x2="326.418" y1="667.2969" y2="667.2969"/>
        <line style="stroke:#181818;stroke-width:0.5;" x1="233.5" x2="326.418" y1="675.2969" y2="675.2969"/>
      </g>
    </a>
    <g id="link_C_0007162092657467521843_C_0008588005715032923314">
      <path codeLine="110" d="M663.7719,185.0887 C654.1119,202.7487 649.47,211.2369 639.76,228.9769 " fill="none" id="C_0007162092657467521843-backto-C_0008588005715032923314" style="stroke:#181818;stroke-width:1.0;"/>
      <polygon fill="none" points="672.41,169.2969,658.5079,182.2094,669.0358,187.9681,672.41,169.2969" style="stroke:#181818;stroke-width:1.0;"/>
    </g>
    <g id="link_C_0008588005715032923314_C_0016556163051475263500">
      <path codeLine="112" d="M615.9614,294.6592 C611.1314,312.3192 609.23,319.2369 604.38,336.9769 " fill="none" id="C_0008588005715032923314-backto-C_0016556163051475263500" style="stroke:#181818;stroke-width:1.0;"/>
      <polygon fill="none" points="620.71,277.2969,610.174,293.0764,621.7489,296.2421,620.71,277.2969" style="stroke:#181818;stroke-width:1.0;"/>
    </g>
    <g id="link_C_0016556163051475263500_C_0013384831159811298387">
      <path codeLine="114" d="M590.3247,402.9852 C586.9947,420.6452 585.75,427.2369 582.4,444.9769 " fill="none" id="C_0016556163051475263500-backto-C_0013384831159811298387" style="stroke:#181818;stroke-width:1.0;"/>
      <polygon fill="none" points="593.66,385.2969,584.4286,401.8734,596.2208,404.0969,593.66,385.2969" style="stroke:#181818;stroke-width:1.0;"/>
    </g>
    <g id="link_C_0008588005715032923314_C_0006285717704576425038">
      <path codeLine="116" d="M662.4462,290.0862 C679.9362,307.7462 691.33,319.2369 708.9,336.9769 " fill="none" id="C_0008588005715032923314-backto-C_0006285717704576425038" style="stroke:#181818;stroke-width:1.0;"/>
      <polygon fill="none" points="649.78,277.2969,658.1831,294.3083,666.7093,285.8641,649.78,277.2969" style="stroke:#181818;stroke-width:1.0;"/>
    </g>
    <g id="link_C_0016556163051475263500_C_0017146293478645494837">
      <path codeLine="118" d="M642.9775,396.1135 C666.4675,413.7735 684.38,427.2369 707.98,444.9769 " fill="none" id="C_0016556163051475263500-backto-C_0017146293478645494837" style="stroke:#181818;stroke-width:1.0;"/>
      <polygon fill="none" points="628.59,385.2969,639.3719,400.9094,646.583,391.3177,628.59,385.2969" style="stroke:#181818;stroke-width:1.0;"/>
    </g>
    <g id="link_C_0007162092657467521843_C_0004846934894930864299">
      <path codeLine="120" d="M723.9804,181.8891 C789.6604,242.1791 954.54,396.5469 1088,549.2969 C1112.73,577.5969 1138.55,612.4869 1154.69,635.0469 " fill="none" id="C_0007162092657467521843-backto-C_0004846934894930864299" style="stroke:#181818;stroke-width:1.0;"/>
      <polygon fill="none" points="710.72,169.7169,719.923,186.3092,728.0378,177.4689,710.72,169.7169" style="stroke:#181818;stroke-width:1.0;"/>
    </g>
    <g id="link_C_0004846934894930864299_C_0014241292626575163322">
      <path codeLine="122" d="M1088.4237,687.819 C1034.9637,705.639 976.72,725.0569 922.27,743.2069 " fill="none" id="C_0004846934894930864299-backto-C_0014241292626575163322" style="stroke:#181818;stroke-width:1.0;"/>
      <polygon fill="none" points="1105.5,682.1269,1086.5263,682.1269,1090.3211,693.5111,1105.5,682.1269" style="stroke:#181818;stroke-width:1.0;"/>
    </g>
    <g id="link_C_0014241292626575163322_C_0014370262096868218046">
      <path codeLine="124" d="M802.0563,801.0266 C774.4763,818.7466 751.65,833.4069 724.02,851.1569 " fill="none" id="C_0014241292626575163322-backto-C_0014370262096868218046" style="stroke:#181818;stroke-width:1.0;"/>
      <polygon fill="none" points="817.2,791.2969,798.813,795.9787,805.2995,806.0745,817.2,791.2969" style="stroke:#181818;stroke-width:1.0;"/>
    </g>
    <g id="link_C_0004846934894930864299_C_0018032026899693266441">
      <path codeLine="126" d="M1164.0852,701.0443 C1161.0952,718.7043 1159.97,725.2369 1156.96,742.9769 " fill="none" id="C_0004846934894930864299-backto-C_0018032026899693266441" style="stroke:#181818;stroke-width:1.0;"/>
      <polygon fill="none" points="1167.09,683.2969,1158.1694,700.0427,1170.001,702.0459,1167.09,683.2969" style="stroke:#181818;stroke-width:1.0;"/>
    </g>
    <g id="link_C_0018032026899693266441_C_0001633165731746789371">
      <path codeLine="128" d="M1109.0348,802.3132 C1086.2148,819.9732 1069.07,833.2369 1046.14,850.9769 " fill="none" id="C_0018032026899693266441-backto-C_0001633165731746789371" style="stroke:#181818;stroke-width:1.0;"/>
      <polygon fill="none" points="1123.27,791.2969,1105.3627,797.5682,1112.7069,807.0583,1123.27,791.2969" style="stroke:#181818;stroke-width:1.0;"/>
    </g>
    <g id="link_C_0013384831159811298387_C_0010336274859733225462">
      <path codeLine="130" d="M587.9189,510.8309 C596.7489,546.9109 609.46,598.8569 618.31,635.0569 " fill="none" id="C_0013384831159811298387-backto-C_0010336274859733225462" style="stroke:#181818;stroke-width:1.0;"/>
      <polygon fill="none" points="583.64,493.3469,582.0909,512.2572,593.7469,509.4046,583.64,493.3469" style="stroke:#181818;stroke-width:1.0;"/>
    </g>
    <g id="link_C_0016556163051475263500_C_0010998792414017796003">
      <path codeLine="132" d="M659.9677,384.9867 C665.9977,387.1667 655.18,383.2369 661,385.2969 C738.51,412.7269 777.86,387.1569 836,445.2969 C889.07,498.3669 903.6,591.6469 907.54,634.9669 " fill="none" id="C_0016556163051475263500-backto-C_0010998792414017796003" style="stroke:#181818;stroke-width:1.0;"/>
      <polygon fill="none" points="643.04,378.8669,657.9278,390.6293,662.0077,379.3441,643.04,378.8669" style="stroke:#181818;stroke-width:1.0;"/>
    </g>
    <g id="link_C_0016556163051475263500_C_0005795143816749204050">
      <path codeLine="134" d="M660.2386,385.3257 C666.1786,387.4057 655.22,383.4869 661,385.2969 C760.56,416.5569 800.1,389.0569 888,445.2969 C960.79,491.8569 1005.38,590.1769 1022.71,635.0569 " fill="none" id="C_0016556163051475263500-backto-C_0005795143816749204050" style="stroke:#181818;stroke-width:1.0;"/>
      <polygon fill="none" points="643.25,379.3769,658.2556,390.9886,662.2215,379.6629,643.25,379.3769" style="stroke:#181818;stroke-width:1.0;"/>
    </g>
    <g id="link_C_0014241292626575163322_C_0007364672229966928495">
      <path codeLine="136" d="M853,809.2969 C853,826.9569 853,833.2369 853,850.9769 " fill="none" id="C_0014241292626575163322-backto-C_0007364672229966928495" style="stroke:#181818;stroke-width:1.0;"/>
      <polygon fill="none" points="853,791.2969,847,809.2969,859,809.2969,853,791.2969" style="stroke:#181818;stroke-width:1.0;"/>
    </g>
    <g id="link_C_0018032026899693266441_C_0002175636676684225778">
      <path codeLine="138" d="M1161.805,808.8879 C1165.635,826.5479 1167.09,833.2369 1170.94,850.9769 " fill="none" id="C_0018032026899693266441-backto-C_0002175636676684225778" style="stroke:#181818;stroke-width:1.0;"/>
      <polygon fill="none" points="1157.99,791.2969,1155.9414,810.1596,1167.6687,807.6163,1157.99,791.2969" style="stroke:#181818;stroke-width:1.0;"/>
    </g>
    <g id="link_C_0016556163051475263500_C_0010166346108406727066">
      <path codeLine="140" d="M660.2766,385.683 C718.9366,407.863 797.29,438.2969 802,445.2969 C842.04,504.8169 799.79,593.7069 775.54,635.2869 " fill="none" id="C_0016556163051475263500-backto-C_0010166346108406727066" style="stroke:#181818;stroke-width:1.0;"/>
      <polygon fill="none" points="643.44,379.3169,658.1546,391.2952,662.3987,380.0708,643.44,379.3169" style="stroke:#181818;stroke-width:1.0;"/>
    </g>
    <g id="link_C_0013384831159811298387_C_0011201726182739961811">
      <path codeLine="142" d="M546.5514,507.0183 C515.6514,543.0983 467.9,598.8569 436.9,635.0569 " fill="none" id="C_0013384831159811298387-backto-C_0011201726182739961811" style="stroke:#181818;stroke-width:1.0;"/>
      <polygon fill="none" points="558.26,493.3469,541.9942,503.1154,551.1085,510.9212,558.26,493.3469" style="stroke:#181818;stroke-width:1.0;"/>
    </g>
    <g id="link_C_0011201726182739961811_C_0007084118972955772881">
      <path codeLine="144" d="M374.8418,694.6744 C353.1918,712.3344 337.36,725.2369 315.6,742.9769 " fill="none" id="C_0011201726182739961811-backto-C_0007084118972955772881" style="stroke:#181818;stroke-width:1.0;"/>
      <polygon fill="none" points="388.79,683.2969,371.0493,690.0251,378.6344,699.3238,388.79,683.2969" style="stroke:#181818;stroke-width:1.0;"/>
    </g>
    <g id="link_C_0011201726182739961811_C_0001861107648253454629">
      <path codeLine="146" d="M411.9847,701.1625 C409.8147,718.8225 409.04,725.2369 406.86,742.9769 " fill="none" id="C_0011201726182739961811-backto-C_0001861107648253454629" style="stroke:#181818;stroke-width:1.0;"/>
      <polygon fill="none" points="414.18,683.2969,406.0295,700.4308,417.9399,701.8943,414.18,683.2969" style="stroke:#181818;stroke-width:1.0;"/>
    </g>
    <g id="link_C_0001861107648253454629_C_0006541327780382276039">
      <path codeLine="148" d="M342.4803,791.2989 C336.6403,793.4189 347.65,789.3669 342,791.2969 C257.39,820.1869 234.53,822.1769 150,851.2969 C144.22,853.2869 138.17,855.4569 132.21,857.6569 " fill="none" id="C_0001861107648253454629-backto-C_0006541327780382276039" style="stroke:#181818;stroke-width:1.0;"/>
      <polygon fill="none" points="359.4,785.1569,340.433,785.6591,344.5277,796.9388,359.4,785.1569" style="stroke:#181818;stroke-width:1.0;"/>
    </g>
    <g id="link_C_0001861107648253454629_C_0013742559556936917396">
      <path codeLine="150" d="M350.3909,800.584 C320.9709,818.304 295.9,833.4069 266.42,851.1569 " fill="none" id="C_0001861107648253454629-backto-C_0013742559556936917396" style="stroke:#181818;stroke-width:1.0;"/>
      <polygon fill="none" points="365.81,791.2969,347.2952,795.4443,353.4866,805.7237,365.81,791.2969" style="stroke:#181818;stroke-width:1.0;"/>
    </g>
    <g id="link_C_0001861107648253454629_C_0018241535739946484465">
      <path codeLine="152" d="M404,809.2969 C404,826.9569 404,833.2369 404,850.9769 " fill="none" id="C_0001861107648253454629-backto-C_0018241535739946484465" style="stroke:#181818;stroke-width:1.0;"/>
      <polygon fill="none" points="404,791.2969,398,809.2969,410,809.2969,404,791.2969" style="stroke:#181818;stroke-width:1.0;"/>
    </g>
    <g id="link_C_0008588005715032923314_C_0017829224549649886549">
      <path codeLine="154" d="M586.5563,289.4886 C568.0963,305.7586 556.77,316.3369 536,337.2969 C446.92,427.1569 421.32,447.6269 346,549.2969 C325.19,577.3869 304.93,612.3169 292.46,634.9569 " fill="none" id="C_0008588005715032923314-backto-C_0017829224549649886549" style="stroke:#181818;stroke-width:1.0;"/>
      <polygon fill="none" points="600.06,277.5869,582.5891,284.9873,590.5235,293.9898,600.06,277.5869" style="stroke:#181818;stroke-width:1.0;"/>
    </g>
  </g>
</svg>
