<svg xmlns="http://www.w3.org/2000/svg" xmlns:xlink="http://www.w3.org/1999/xlink" contentScriptType="application/ecmascript" contentStyleType="text/css" height="952px" preserveAspectRatio="none" style="width:948px;height:952px;" version="1.1" viewBox="0 0 948 952" width="948px" zoomAndPan="magnify">
  <defs>
    <filter height="300%" id="f12zfmltowvvm2" width="300%" x="-1" y="-1">
      <feGaussianBlur result="blurOut" stdDeviation="2.0"/>
      <feColorMatrix in="blurOut" result="blurOut2" type="matrix" values="0 0 0 0 0 0 0 0 0 0 0 0 0 0 0 0 0 0 .4 0"/>
      <feOffset dx="4.0" dy="4.0" in="blurOut2" result="blurOut3"/>
      <feBlend in="SourceGraphic" in2="blurOut3" mode="normal"/>
    </filter>
    <style type="text/css">a:hover { text-decoration: underline; }</style>
  </defs>
  <g>
    <text fill="#000000" font-family="sans-serif" font-size="18" lengthAdjust="spacingAndGlyphs" textLength="333" x="313.5" y="16.708">Source location model class hierarchy</text>
    <polygon fill="#FFFFFF" filter="url(#f12zfmltowvvm2)" points="228,44.9531,301,44.9531,308,67.25,575,67.25,575,534.9531,228,534.9531,228,44.9531" style="stroke: #000000; stroke-width: 1.5;"/>
    <line style="stroke: #000000; stroke-width: 1.5;" x1="228" x2="308" y1="67.25" y2="67.25"/>
    <text fill="#000000" font-family="sans-serif" font-size="14" font-weight="bold" lengthAdjust="spacingAndGlyphs" textLength="67" x="232" y="59.9482">common</text>
    <polygon fill="#FFFFFF" filter="url(#f12zfmltowvvm2)" points="252,87.9531,306,87.9531,313,110.25,551,110.25,551,510.9531,252,510.9531,252,87.9531" style="stroke: #000000; stroke-width: 1.5;"/>
    <line style="stroke: #000000; stroke-width: 1.5;" x1="252" x2="313" y1="110.25" y2="110.25"/>
    <text fill="#000000" font-family="sans-serif" font-size="14" font-weight="bold" lengthAdjust="spacingAndGlyphs" textLength="48" x="256" y="102.9482">model</text>
    <polygon fill="#FFFFFF" filter="url(#f12zfmltowvvm2)" points="387,558.9531,503,558.9531,510,581.25,926,581.25,926,832.9531,387,832.9531,387,558.9531" style="stroke: #000000; stroke-width: 1.5;"/>
    <line style="stroke: #000000; stroke-width: 1.5;" x1="387" x2="510" y1="581.25" y2="581.25"/>
    <text fill="#000000" font-family="sans-serif" font-size="14" font-weight="bold" lengthAdjust="spacingAndGlyphs" textLength="110" x="391" y="573.9482">class_diagram</text>
    <polygon fill="#FFFFFF" filter="url(#f12zfmltowvvm2)" points="411,601.9531,465,601.9531,472,624.25,902,624.25,902,808.9531,411,808.9531,411,601.9531" style="stroke: #000000; stroke-width: 1.5;"/>
    <line style="stroke: #000000; stroke-width: 1.5;" x1="411" x2="472" y1="624.25" y2="624.25"/>
    <text fill="#000000" font-family="sans-serif" font-size="14" font-weight="bold" lengthAdjust="spacingAndGlyphs" textLength="48" x="415" y="616.9482">model</text>
    <polygon fill="#FFFFFF" filter="url(#f12zfmltowvvm2)" points="22,558.9531,176,558.9531,183,581.25,363,581.25,363,940.9531,22,940.9531,22,558.9531" style="stroke: #000000; stroke-width: 1.5;"/>
    <line style="stroke: #000000; stroke-width: 1.5;" x1="22" x2="183" y1="581.25" y2="581.25"/>
    <text fill="#000000" font-family="sans-serif" font-size="14" font-weight="bold" lengthAdjust="spacingAndGlyphs" textLength="148" x="26" y="573.9482">sequence_diagram</text>
    <polygon fill="#FFFFFF" filter="url(#f12zfmltowvvm2)" points="46,601.9531,100,601.9531,107,624.25,339,624.25,339,916.9531,46,916.9531,46,601.9531" style="stroke: #000000; stroke-width: 1.5;"/>
    <line style="stroke: #000000; stroke-width: 1.5;" x1="46" x2="107" y1="624.25" y2="624.25"/>
    <text fill="#000000" font-family="sans-serif" font-size="14" font-weight="bold" lengthAdjust="spacingAndGlyphs" textLength="48" x="50" y="616.9482">model</text>
    <a href="classclanguml_1_1common_1_1model_1_1source__location.html" target="_top" title="Base class of all diagram elements that have source location." xlink:actuate="onRequest" xlink:href="classclanguml_1_1common_1_1model_1_1source__location.html" xlink:show="new" xlink:title="Base class of all diagram elements that have source location." xlink:type="simple">
      <rect fill="#FEFECE" filter="url(#f12zfmltowvvm2)" height="48" id="C_0000895261582183440230" style="stroke: #A80036; stroke-width: 1.5;" width="131" x="375.5" y="122.9531"/>
      <ellipse cx="390.5" cy="138.9531" fill="#ADD1B2" rx="11" ry="11" style="stroke: #A80036; stroke-width: 1.0;"/>
      <path d="M393.4688,144.5938 Q392.8906,144.8906 392.25,145.0313 Q391.6094,145.1875 390.9063,145.1875 Q388.4063,145.1875 387.0781,143.5469 Q385.7656,141.8906 385.7656,138.7656 Q385.7656,135.6406 387.0781,133.9844 Q388.4063,132.3281 390.9063,132.3281 Q391.6094,132.3281 392.25,132.4844 Q392.9063,132.6406 393.4688,132.9375 L393.4688,135.6563 Q392.8438,135.0781 392.25,134.8125 Q391.6563,134.5313 391.0313,134.5313 Q389.6875,134.5313 389,135.6094 Q388.3125,136.6719 388.3125,138.7656 Q388.3125,140.8594 389,141.9375 Q389.6875,143 391.0313,143 Q391.6563,143 392.25,142.7344 Q392.8438,142.4531 393.4688,141.875 L393.4688,144.5938 Z "/>
      <text fill="#000000" font-family="sans-serif" font-size="12" lengthAdjust="spacingAndGlyphs" textLength="99" x="404.5" y="143.1074">source_location</text>
      <line style="stroke: #A80036; stroke-width: 1.5;" x1="376.5" x2="505.5" y1="154.9531" y2="154.9531"/>
      <line style="stroke: #A80036; stroke-width: 1.5;" x1="376.5" x2="505.5" y1="162.9531" y2="162.9531"/>
    </a>
    <a href="classclanguml_1_1common_1_1model_1_1diagram__element.html" target="_top" title="Base class for standalone diagram elements." xlink:actuate="onRequest" xlink:href="classclanguml_1_1common_1_1model_1_1diagram__element.html" xlink:show="new" xlink:title="Base class for standalone diagram elements." xlink:type="simple">
      <rect fill="#FEFECE" filter="url(#f12zfmltowvvm2)" height="48" id="C_0001073500714379115414" style="stroke: #A80036; stroke-width: 1.5;" width="140" x="316" y="230.9531"/>
      <ellipse cx="331" cy="246.9531" fill="#ADD1B2" rx="11" ry="11" style="stroke: #A80036; stroke-width: 1.0;"/>
      <path d="M333.9688,252.5938 Q333.3906,252.8906 332.75,253.0313 Q332.1094,253.1875 331.4063,253.1875 Q328.9063,253.1875 327.5781,251.5469 Q326.2656,249.8906 326.2656,246.7656 Q326.2656,243.6406 327.5781,241.9844 Q328.9063,240.3281 331.4063,240.3281 Q332.1094,240.3281 332.75,240.4844 Q333.4063,240.6406 333.9688,240.9375 L333.9688,243.6563 Q333.3438,243.0781 332.75,242.8125 Q332.1563,242.5313 331.5313,242.5313 Q330.1875,242.5313 329.5,243.6094 Q328.8125,244.6719 328.8125,246.7656 Q328.8125,248.8594 329.5,249.9375 Q330.1875,251 331.5313,251 Q332.1563,251 332.75,250.7344 Q333.3438,250.4531 333.9688,249.875 L333.9688,252.5938 Z "/>
      <text fill="#000000" font-family="sans-serif" font-size="12" lengthAdjust="spacingAndGlyphs" textLength="108" x="345" y="251.1074">diagram_element</text>
      <line style="stroke: #A80036; stroke-width: 1.5;" x1="317" x2="455" y1="262.9531" y2="262.9531"/>
      <line style="stroke: #A80036; stroke-width: 1.5;" x1="317" x2="455" y1="270.9531" y2="270.9531"/>
    </a>
    <a href="classclanguml_1_1common_1_1model_1_1element.html" target="_top" title="Base class for any element qualified by namespace." xlink:actuate="onRequest" xlink:href="classclanguml_1_1common_1_1model_1_1element.html" xlink:show="new" xlink:title="Base class for any element qualified by namespace." xlink:type="simple">
      <rect fill="#FEFECE" filter="url(#f12zfmltowvvm2)" height="48" id="C_0002069520381434407937" style="stroke: #A80036; stroke-width: 1.5;" width="83" x="317.5" y="338.9531"/>
      <ellipse cx="332.5" cy="354.9531" fill="#ADD1B2" rx="11" ry="11" style="stroke: #A80036; stroke-width: 1.0;"/>
      <path d="M335.4688,360.5938 Q334.8906,360.8906 334.25,361.0313 Q333.6094,361.1875 332.9063,361.1875 Q330.4063,361.1875 329.0781,359.5469 Q327.7656,357.8906 327.7656,354.7656 Q327.7656,351.6406 329.0781,349.9844 Q330.4063,348.3281 332.9063,348.3281 Q333.6094,348.3281 334.25,348.4844 Q334.9063,348.6406 335.4688,348.9375 L335.4688,351.6563 Q334.8438,351.0781 334.25,350.8125 Q333.6563,350.5313 333.0313,350.5313 Q331.6875,350.5313 331,351.6094 Q330.3125,352.6719 330.3125,354.7656 Q330.3125,356.8594 331,357.9375 Q331.6875,359 333.0313,359 Q333.6563,359 334.25,358.7344 Q334.8438,358.4531 335.4688,357.875 L335.4688,360.5938 Z "/>
      <text fill="#000000" font-family="sans-serif" font-size="12" lengthAdjust="spacingAndGlyphs" textLength="51" x="346.5" y="359.1074">element</text>
      <line style="stroke: #A80036; stroke-width: 1.5;" x1="318.5" x2="399.5" y1="370.9531" y2="370.9531"/>
      <line style="stroke: #A80036; stroke-width: 1.5;" x1="318.5" x2="399.5" y1="378.9531" y2="378.9531"/>
    </a>
    <a href="classclanguml_1_1common_1_1model_1_1template__element.html" target="_top" title="Base class for any element qualified by namespace." xlink:actuate="onRequest" xlink:href="classclanguml_1_1common_1_1model_1_1template__element.html" xlink:show="new" xlink:title="Base class for any element qualified by namespace." xlink:type="simple">
      <rect fill="#FEFECE" filter="url(#f12zfmltowvvm2)" height="48" id="C_0001673103894976412298" style="stroke: #A80036; stroke-width: 1.5;" width="145" x="268.5" y="446.9531"/>
      <ellipse cx="283.5" cy="462.9531" fill="#ADD1B2" rx="11" ry="11" style="stroke: #A80036; stroke-width: 1.0;"/>
      <path d="M286.4688,468.5938 Q285.8906,468.8906 285.25,469.0313 Q284.6094,469.1875 283.9063,469.1875 Q281.4063,469.1875 280.0781,467.5469 Q278.7656,465.8906 278.7656,462.7656 Q278.7656,459.6406 280.0781,457.9844 Q281.4063,456.3281 283.9063,456.3281 Q284.6094,456.3281 285.25,456.4844 Q285.9063,456.6406 286.4688,456.9375 L286.4688,459.6563 Q285.8438,459.0781 285.25,458.8125 Q284.6563,458.5313 284.0313,458.5313 Q282.6875,458.5313 282,459.6094 Q281.3125,460.6719 281.3125,462.7656 Q281.3125,464.8594 282,465.9375 Q282.6875,467 284.0313,467 Q284.6563,467 285.25,466.7344 Q285.8438,466.4531 286.4688,465.875 L286.4688,468.5938 Z "/>
      <text fill="#000000" font-family="sans-serif" font-size="12" lengthAdjust="spacingAndGlyphs" textLength="113" x="297.5" y="467.1074">template_element</text>
      <line style="stroke: #A80036; stroke-width: 1.5;" x1="269.5" x2="412.5" y1="478.9531" y2="478.9531"/>
      <line style="stroke: #A80036; stroke-width: 1.5;" x1="269.5" x2="412.5" y1="486.9531" y2="486.9531"/>
    </a>
    <a href="classclanguml_1_1common_1_1model_1_1source__file.html" target="_top" title="Diagram element representing some file or directory." xlink:actuate="onRequest" xlink:href="classclanguml_1_1common_1_1model_1_1source__file.html" xlink:show="new" xlink:title="Diagram element representing some file or directory." xlink:type="simple">
      <rect fill="#FEFECE" filter="url(#f12zfmltowvvm2)" height="48" id="C_0000785714713072053129" style="stroke: #A80036; stroke-width: 1.5;" width="99" x="435.5" y="338.9531"/>
      <ellipse cx="450.5" cy="354.9531" fill="#ADD1B2" rx="11" ry="11" style="stroke: #A80036; stroke-width: 1.0;"/>
      <path d="M453.4688,360.5938 Q452.8906,360.8906 452.25,361.0313 Q451.6094,361.1875 450.9063,361.1875 Q448.4063,361.1875 447.0781,359.5469 Q445.7656,357.8906 445.7656,354.7656 Q445.7656,351.6406 447.0781,349.9844 Q448.4063,348.3281 450.9063,348.3281 Q451.6094,348.3281 452.25,348.4844 Q452.9063,348.6406 453.4688,348.9375 L453.4688,351.6563 Q452.8438,351.0781 452.25,350.8125 Q451.6563,350.5313 451.0313,350.5313 Q449.6875,350.5313 449,351.6094 Q448.3125,352.6719 448.3125,354.7656 Q448.3125,356.8594 449,357.9375 Q449.6875,359 451.0313,359 Q451.6563,359 452.25,358.7344 Q452.8438,358.4531 453.4688,357.875 L453.4688,360.5938 Z "/>
      <text fill="#000000" font-family="sans-serif" font-size="12" lengthAdjust="spacingAndGlyphs" textLength="67" x="464.5" y="359.1074">source_file</text>
      <line style="stroke: #A80036; stroke-width: 1.5;" x1="436.5" x2="533.5" y1="370.9531" y2="370.9531"/>
      <line style="stroke: #A80036; stroke-width: 1.5;" x1="436.5" x2="533.5" y1="378.9531" y2="378.9531"/>
    </a>
    <a href="classclanguml_1_1common_1_1model_1_1package.html" target="_top" title="Diagram element representing namespace or directory package" xlink:actuate="onRequest" xlink:href="classclanguml_1_1common_1_1model_1_1package.html" xlink:show="new" xlink:title="Diagram element representing namespace or directory package" xlink:type="simple">
      <rect fill="#FEFECE" filter="url(#f12zfmltowvvm2)" height="48" id="C_0002143286684830686854" style="stroke: #A80036; stroke-width: 1.5;" width="86" x="449" y="446.9531"/>
      <ellipse cx="464" cy="462.9531" fill="#ADD1B2" rx="11" ry="11" style="stroke: #A80036; stroke-width: 1.0;"/>
      <path d="M466.9688,468.5938 Q466.3906,468.8906 465.75,469.0313 Q465.1094,469.1875 464.4063,469.1875 Q461.9063,469.1875 460.5781,467.5469 Q459.2656,465.8906 459.2656,462.7656 Q459.2656,459.6406 460.5781,457.9844 Q461.9063,456.3281 464.4063,456.3281 Q465.1094,456.3281 465.75,456.4844 Q466.4063,456.6406 466.9688,456.9375 L466.9688,459.6563 Q466.3438,459.0781 465.75,458.8125 Q465.1563,458.5313 464.5313,458.5313 Q463.1875,458.5313 462.5,459.6094 Q461.8125,460.6719 461.8125,462.7656 Q461.8125,464.8594 462.5,465.9375 Q463.1875,467 464.5313,467 Q465.1563,467 465.75,466.7344 Q466.3438,466.4531 466.9688,465.875 L466.9688,468.5938 Z "/>
      <text fill="#000000" font-family="sans-serif" font-size="12" lengthAdjust="spacingAndGlyphs" textLength="54" x="478" y="467.1074">package</text>
      <line style="stroke: #A80036; stroke-width: 1.5;" x1="450" x2="534" y1="478.9531" y2="478.9531"/>
      <line style="stroke: #A80036; stroke-width: 1.5;" x1="450" x2="534" y1="486.9531" y2="486.9531"/>
    </a>
    <a href="classclanguml_1_1class__diagram_1_1model_1_1class__element.html" target="_top" title="Base class for class elements (e.g. member or method)." xlink:actuate="onRequest" xlink:href="classclanguml_1_1class__diagram_1_1model_1_1class__element.html" xlink:show="new" xlink:title="Base class for class elements (e.g. member or method)." xlink:type="simple">
      <rect fill="#FEFECE" filter="url(#f12zfmltowvvm2)" height="48" id="C_0000605866861866358037" style="stroke: #A80036; stroke-width: 1.5;" width="121" x="764.5" y="636.9531"/>
      <ellipse cx="779.5" cy="652.9531" fill="#ADD1B2" rx="11" ry="11" style="stroke: #A80036; stroke-width: 1.0;"/>
      <path d="M782.4688,658.5938 Q781.8906,658.8906 781.25,659.0313 Q780.6094,659.1875 779.9063,659.1875 Q777.4063,659.1875 776.0781,657.5469 Q774.7656,655.8906 774.7656,652.7656 Q774.7656,649.6406 776.0781,647.9844 Q777.4063,646.3281 779.9063,646.3281 Q780.6094,646.3281 781.25,646.4844 Q781.9063,646.6406 782.4688,646.9375 L782.4688,649.6563 Q781.8438,649.0781 781.25,648.8125 Q780.6563,648.5313 780.0313,648.5313 Q778.6875,648.5313 778,649.6094 Q777.3125,650.6719 777.3125,652.7656 Q777.3125,654.8594 778,655.9375 Q778.6875,657 780.0313,657 Q780.6563,657 781.25,656.7344 Q781.8438,656.4531 782.4688,655.875 L782.4688,658.5938 Z "/>
      <text fill="#000000" font-family="sans-serif" font-size="12" lengthAdjust="spacingAndGlyphs" textLength="89" x="793.5" y="657.1074">class_element</text>
      <line style="stroke: #A80036; stroke-width: 1.5;" x1="765.5" x2="884.5" y1="668.9531" y2="668.9531"/>
      <line style="stroke: #A80036; stroke-width: 1.5;" x1="765.5" x2="884.5" y1="676.9531" y2="676.9531"/>
    </a>
    <a href="classclanguml_1_1class__diagram_1_1model_1_1class__member.html" target="_top" title="Class member model." xlink:actuate="onRequest" xlink:href="classclanguml_1_1class__diagram_1_1model_1_1class__member.html" xlink:show="new" xlink:title="Class member model." xlink:type="simple">
      <rect fill="#FEFECE" filter="url(#f12zfmltowvvm2)" height="48" id="C_0001796282762108527255" style="stroke: #A80036; stroke-width: 1.5;" width="121" x="610.5" y="744.9531"/>
      <ellipse cx="625.5" cy="760.9531" fill="#ADD1B2" rx="11" ry="11" style="stroke: #A80036; stroke-width: 1.0;"/>
      <path d="M628.4688,766.5938 Q627.8906,766.8906 627.25,767.0313 Q626.6094,767.1875 625.9063,767.1875 Q623.4063,767.1875 622.0781,765.5469 Q620.7656,763.8906 620.7656,760.7656 Q620.7656,757.6406 622.0781,755.9844 Q623.4063,754.3281 625.9063,754.3281 Q626.6094,754.3281 627.25,754.4844 Q627.9063,754.6406 628.4688,754.9375 L628.4688,757.6563 Q627.8438,757.0781 627.25,756.8125 Q626.6563,756.5313 626.0313,756.5313 Q624.6875,756.5313 624,757.6094 Q623.3125,758.6719 623.3125,760.7656 Q623.3125,762.8594 624,763.9375 Q624.6875,765 626.0313,765 Q626.6563,765 627.25,764.7344 Q627.8438,764.4531 628.4688,763.875 L628.4688,766.5938 Z "/>
      <text fill="#000000" font-family="sans-serif" font-size="12" lengthAdjust="spacingAndGlyphs" textLength="89" x="639.5" y="765.1074">class_member</text>
      <line style="stroke: #A80036; stroke-width: 1.5;" x1="611.5" x2="730.5" y1="776.9531" y2="776.9531"/>
      <line style="stroke: #A80036; stroke-width: 1.5;" x1="611.5" x2="730.5" y1="784.9531" y2="784.9531"/>
    </a>
    <a href="classclanguml_1_1class__diagram_1_1model_1_1class__method.html" target="_top" title="Class method model." xlink:actuate="onRequest" xlink:href="classclanguml_1_1class__diagram_1_1model_1_1class__method.html" xlink:show="new" xlink:title="Class method model." xlink:type="simple">
      <rect fill="#FEFECE" filter="url(#f12zfmltowvvm2)" height="48" id="C_0000204145716468348671" style="stroke: #A80036; stroke-width: 1.5;" width="118" x="767" y="744.9531"/>
      <ellipse cx="782" cy="760.9531" fill="#ADD1B2" rx="11" ry="11" style="stroke: #A80036; stroke-width: 1.0;"/>
      <path d="M784.9688,766.5938 Q784.3906,766.8906 783.75,767.0313 Q783.1094,767.1875 782.4063,767.1875 Q779.9063,767.1875 778.5781,765.5469 Q777.2656,763.8906 777.2656,760.7656 Q777.2656,757.6406 778.5781,755.9844 Q779.9063,754.3281 782.4063,754.3281 Q783.1094,754.3281 783.75,754.4844 Q784.4063,754.6406 784.9688,754.9375 L784.9688,757.6563 Q784.3438,757.0781 783.75,756.8125 Q783.1563,756.5313 782.5313,756.5313 Q781.1875,756.5313 780.5,757.6094 Q779.8125,758.6719 779.8125,760.7656 Q779.8125,762.8594 780.5,763.9375 Q781.1875,765 782.5313,765 Q783.1563,765 783.75,764.7344 Q784.3438,764.4531 784.9688,763.875 L784.9688,766.5938 Z "/>
      <text fill="#000000" font-family="sans-serif" font-size="12" lengthAdjust="spacingAndGlyphs" textLength="86" x="796" y="765.1074">class_method</text>
      <line style="stroke: #A80036; stroke-width: 1.5;" x1="768" x2="884" y1="776.9531" y2="776.9531"/>
      <line style="stroke: #A80036; stroke-width: 1.5;" x1="768" x2="884" y1="784.9531" y2="784.9531"/>
    </a>
    <a href="classclanguml_1_1class__diagram_1_1model_1_1class__.html" target="_top" title="Diagram element representing a class or class template." xlink:actuate="onRequest" xlink:href="classclanguml_1_1class__diagram_1_1model_1_1class__.html" xlink:show="new" xlink:title="Diagram element representing a class or class template." xlink:type="simple">
      <rect fill="#FEFECE" filter="url(#f12zfmltowvvm2)" height="48" id="C_0001292034357466653182" style="stroke: #A80036; stroke-width: 1.5;" width="70" x="427" y="636.9531"/>
      <ellipse cx="442" cy="652.9531" fill="#ADD1B2" rx="11" ry="11" style="stroke: #A80036; stroke-width: 1.0;"/>
      <path d="M444.9688,658.5938 Q444.3906,658.8906 443.75,659.0313 Q443.1094,659.1875 442.4063,659.1875 Q439.9063,659.1875 438.5781,657.5469 Q437.2656,655.8906 437.2656,652.7656 Q437.2656,649.6406 438.5781,647.9844 Q439.9063,646.3281 442.4063,646.3281 Q443.1094,646.3281 443.75,646.4844 Q444.4063,646.6406 444.9688,646.9375 L444.9688,649.6563 Q444.3438,649.0781 443.75,648.8125 Q443.1563,648.5313 442.5313,648.5313 Q441.1875,648.5313 440.5,649.6094 Q439.8125,650.6719 439.8125,652.7656 Q439.8125,654.8594 440.5,655.9375 Q441.1875,657 442.5313,657 Q443.1563,657 443.75,656.7344 Q444.3438,656.4531 444.9688,655.875 L444.9688,658.5938 Z "/>
      <text fill="#000000" font-family="sans-serif" font-size="12" lengthAdjust="spacingAndGlyphs" textLength="38" x="456" y="657.1074">class_</text>
      <line style="stroke: #A80036; stroke-width: 1.5;" x1="428" x2="496" y1="668.9531" y2="668.9531"/>
      <line style="stroke: #A80036; stroke-width: 1.5;" x1="428" x2="496" y1="676.9531" y2="676.9531"/>
    </a>
    <a href="classclanguml_1_1class__diagram_1_1model_1_1concept__.html" target="_top" title="Model of C++ concept." xlink:actuate="onRequest" xlink:href="classclanguml_1_1class__diagram_1_1model_1_1concept__.html" xlink:show="new" xlink:title="Model of C++ concept." xlink:type="simple">
      <rect fill="#FEFECE" filter="url(#f12zfmltowvvm2)" height="48" id="C_0001374849051752224500" style="stroke: #A80036; stroke-width: 1.5;" width="89" x="532.5" y="636.9531"/>
      <ellipse cx="547.5" cy="652.9531" fill="#ADD1B2" rx="11" ry="11" style="stroke: #A80036; stroke-width: 1.0;"/>
      <path d="M550.4688,658.5938 Q549.8906,658.8906 549.25,659.0313 Q548.6094,659.1875 547.9063,659.1875 Q545.4063,659.1875 544.0781,657.5469 Q542.7656,655.8906 542.7656,652.7656 Q542.7656,649.6406 544.0781,647.9844 Q545.4063,646.3281 547.9063,646.3281 Q548.6094,646.3281 549.25,646.4844 Q549.9063,646.6406 550.4688,646.9375 L550.4688,649.6563 Q549.8438,649.0781 549.25,648.8125 Q548.6563,648.5313 548.0313,648.5313 Q546.6875,648.5313 546,649.6094 Q545.3125,650.6719 545.3125,652.7656 Q545.3125,654.8594 546,655.9375 Q546.6875,657 548.0313,657 Q548.6563,657 549.25,656.7344 Q549.8438,656.4531 550.4688,655.875 L550.4688,658.5938 Z "/>
      <text fill="#000000" font-family="sans-serif" font-size="12" lengthAdjust="spacingAndGlyphs" textLength="57" x="561.5" y="657.1074">concept_</text>
      <line style="stroke: #A80036; stroke-width: 1.5;" x1="533.5" x2="620.5" y1="668.9531" y2="668.9531"/>
      <line style="stroke: #A80036; stroke-width: 1.5;" x1="533.5" x2="620.5" y1="676.9531" y2="676.9531"/>
    </a>
    <a href="classclanguml_1_1class__diagram_1_1model_1_1enum__.html" target="_top" title="Diagram element representing an enum." xlink:actuate="onRequest" xlink:href="classclanguml_1_1class__diagram_1_1model_1_1enum__.html" xlink:show="new" xlink:title="Diagram element representing an enum." xlink:type="simple">
      <rect fill="#FEFECE" filter="url(#f12zfmltowvvm2)" height="48" id="C_0000724392977093650506" style="stroke: #A80036; stroke-width: 1.5;" width="73" x="656.5" y="636.9531"/>
      <ellipse cx="671.5" cy="652.9531" fill="#ADD1B2" rx="11" ry="11" style="stroke: #A80036; stroke-width: 1.0;"/>
      <path d="M674.4688,658.5938 Q673.8906,658.8906 673.25,659.0313 Q672.6094,659.1875 671.9063,659.1875 Q669.4063,659.1875 668.0781,657.5469 Q666.7656,655.8906 666.7656,652.7656 Q666.7656,649.6406 668.0781,647.9844 Q669.4063,646.3281 671.9063,646.3281 Q672.6094,646.3281 673.25,646.4844 Q673.9063,646.6406 674.4688,646.9375 L674.4688,649.6563 Q673.8438,649.0781 673.25,648.8125 Q672.6563,648.5313 672.0313,648.5313 Q670.6875,648.5313 670,649.6094 Q669.3125,650.6719 669.3125,652.7656 Q669.3125,654.8594 670,655.9375 Q670.6875,657 672.0313,657 Q672.6563,657 673.25,656.7344 Q673.8438,656.4531 674.4688,655.875 L674.4688,658.5938 Z "/>
      <text fill="#000000" font-family="sans-serif" font-size="12" lengthAdjust="spacingAndGlyphs" textLength="41" x="685.5" y="657.1074">enum_</text>
      <line style="stroke: #A80036; stroke-width: 1.5;" x1="657.5" x2="728.5" y1="668.9531" y2="668.9531"/>
      <line style="stroke: #A80036; stroke-width: 1.5;" x1="657.5" x2="728.5" y1="676.9531" y2="676.9531"/>
    </a>
    <a href="structclanguml_1_1sequence__diagram_1_1model_1_1participant.html" target="_top" title="Base class for various types of sequence diagram participants" xlink:actuate="onRequest" xlink:href="structclanguml_1_1sequence__diagram_1_1model_1_1participant.html" xlink:show="new" xlink:title="Base class for various types of sequence diagram participants" xlink:type="simple">
      <rect fill="#FEFECE" filter="url(#f12zfmltowvvm2)" height="48" id="C_0001400215772842495226" style="stroke: #A80036; stroke-width: 1.5;" width="100" x="212" y="636.9531"/>
      <ellipse cx="227" cy="652.9531" fill="#ADD1B2" rx="11" ry="11" style="stroke: #A80036; stroke-width: 1.0;"/>
      <path d="M229.9688,658.5938 Q229.3906,658.8906 228.75,659.0313 Q228.1094,659.1875 227.4063,659.1875 Q224.9063,659.1875 223.5781,657.5469 Q222.2656,655.8906 222.2656,652.7656 Q222.2656,649.6406 223.5781,647.9844 Q224.9063,646.3281 227.4063,646.3281 Q228.1094,646.3281 228.75,646.4844 Q229.4063,646.6406 229.9688,646.9375 L229.9688,649.6563 Q229.3438,649.0781 228.75,648.8125 Q228.1563,648.5313 227.5313,648.5313 Q226.1875,648.5313 225.5,649.6094 Q224.8125,650.6719 224.8125,652.7656 Q224.8125,654.8594 225.5,655.9375 Q226.1875,657 227.5313,657 Q228.1563,657 228.75,656.7344 Q229.3438,656.4531 229.9688,655.875 L229.9688,658.5938 Z "/>
      <text fill="#000000" font-family="sans-serif" font-size="12" lengthAdjust="spacingAndGlyphs" textLength="68" x="241" y="657.1074">participant</text>
      <line style="stroke: #A80036; stroke-width: 1.5;" x1="213" x2="311" y1="668.9531" y2="668.9531"/>
      <line style="stroke: #A80036; stroke-width: 1.5;" x1="213" x2="311" y1="676.9531" y2="676.9531"/>
    </a>
    <a href="structclanguml_1_1sequence__diagram_1_1model_1_1class__.html" target="_top" title="Sequence diagram participant representing a class." xlink:actuate="onRequest" xlink:href="structclanguml_1_1sequence__diagram_1_1model_1_1class__.html" xlink:show="new" xlink:title="Sequence diagram participant representing a class." xlink:type="simple">
      <rect fill="#FEFECE" filter="url(#f12zfmltowvvm2)" height="48" id="C_0000885514871619471610" style="stroke: #A80036; stroke-width: 1.5;" width="70" x="109" y="744.9531"/>
      <ellipse cx="124" cy="760.9531" fill="#ADD1B2" rx="11" ry="11" style="stroke: #A80036; stroke-width: 1.0;"/>
      <path d="M126.9688,766.5938 Q126.3906,766.8906 125.75,767.0313 Q125.1094,767.1875 124.4063,767.1875 Q121.9063,767.1875 120.5781,765.5469 Q119.2656,763.8906 119.2656,760.7656 Q119.2656,757.6406 120.5781,755.9844 Q121.9063,754.3281 124.4063,754.3281 Q125.1094,754.3281 125.75,754.4844 Q126.4063,754.6406 126.9688,754.9375 L126.9688,757.6563 Q126.3438,757.0781 125.75,756.8125 Q125.1563,756.5313 124.5313,756.5313 Q123.1875,756.5313 122.5,757.6094 Q121.8125,758.6719 121.8125,760.7656 Q121.8125,762.8594 122.5,763.9375 Q123.1875,765 124.5313,765 Q125.1563,765 125.75,764.7344 Q126.3438,764.4531 126.9688,763.875 L126.9688,766.5938 Z "/>
      <text fill="#000000" font-family="sans-serif" font-size="12" lengthAdjust="spacingAndGlyphs" textLength="38" x="138" y="765.1074">class_</text>
      <line style="stroke: #A80036; stroke-width: 1.5;" x1="110" x2="178" y1="776.9531" y2="776.9531"/>
      <line style="stroke: #A80036; stroke-width: 1.5;" x1="110" x2="178" y1="784.9531" y2="784.9531"/>
    </a>
    <a href="structclanguml_1_1sequence__diagram_1_1model_1_1function.html" target="_top" title="Participant mode representing a free function." xlink:actuate="onRequest" xlink:href="structclanguml_1_1sequence__diagram_1_1model_1_1function.html" xlink:show="new" xlink:title="Participant mode representing a free function." xlink:type="simple">
      <rect fill="#FEFECE" filter="url(#f12zfmltowvvm2)" height="48" id="C_0000232638456031681828" style="stroke: #A80036; stroke-width: 1.5;" width="83" x="214.5" y="744.9531"/>
      <ellipse cx="229.5" cy="760.9531" fill="#ADD1B2" rx="11" ry="11" style="stroke: #A80036; stroke-width: 1.0;"/>
      <path d="M232.4688,766.5938 Q231.8906,766.8906 231.25,767.0313 Q230.6094,767.1875 229.9063,767.1875 Q227.4063,767.1875 226.0781,765.5469 Q224.7656,763.8906 224.7656,760.7656 Q224.7656,757.6406 226.0781,755.9844 Q227.4063,754.3281 229.9063,754.3281 Q230.6094,754.3281 231.25,754.4844 Q231.9063,754.6406 232.4688,754.9375 L232.4688,757.6563 Q231.8438,757.0781 231.25,756.8125 Q230.6563,756.5313 230.0313,756.5313 Q228.6875,756.5313 228,757.6094 Q227.3125,758.6719 227.3125,760.7656 Q227.3125,762.8594 228,763.9375 Q228.6875,765 230.0313,765 Q230.6563,765 231.25,764.7344 Q231.8438,764.4531 232.4688,763.875 L232.4688,766.5938 Z "/>
      <text fill="#000000" font-family="sans-serif" font-size="12" lengthAdjust="spacingAndGlyphs" textLength="51" x="243.5" y="765.1074">function</text>
      <line style="stroke: #A80036; stroke-width: 1.5;" x1="215.5" x2="296.5" y1="776.9531" y2="776.9531"/>
      <line style="stroke: #A80036; stroke-width: 1.5;" x1="215.5" x2="296.5" y1="784.9531" y2="784.9531"/>
    </a>
    <a href="structclanguml_1_1sequence__diagram_1_1model_1_1method.html" target="_top" title="Participant model representing a method" xlink:actuate="onRequest" xlink:href="structclanguml_1_1sequence__diagram_1_1model_1_1method.html" xlink:show="new" xlink:title="Participant model representing a method" xlink:type="simple">
      <rect fill="#FEFECE" filter="url(#f12zfmltowvvm2)" height="48" id="C_0000817665972547784504" style="stroke: #A80036; stroke-width: 1.5;" width="80" x="62" y="852.9531"/>
      <ellipse cx="77" cy="868.9531" fill="#ADD1B2" rx="11" ry="11" style="stroke: #A80036; stroke-width: 1.0;"/>
      <path d="M79.9688,874.5938 Q79.3906,874.8906 78.75,875.0313 Q78.1094,875.1875 77.4063,875.1875 Q74.9063,875.1875 73.5781,873.5469 Q72.2656,871.8906 72.2656,868.7656 Q72.2656,865.6406 73.5781,863.9844 Q74.9063,862.3281 77.4063,862.3281 Q78.1094,862.3281 78.75,862.4844 Q79.4063,862.6406 79.9688,862.9375 L79.9688,865.6563 Q79.3438,865.0781 78.75,864.8125 Q78.1563,864.5313 77.5313,864.5313 Q76.1875,864.5313 75.5,865.6094 Q74.8125,866.6719 74.8125,868.7656 Q74.8125,870.8594 75.5,871.9375 Q76.1875,873 77.5313,873 Q78.1563,873 78.75,872.7344 Q79.3438,872.4531 79.9688,871.875 L79.9688,874.5938 Z "/>
      <text fill="#000000" font-family="sans-serif" font-size="12" lengthAdjust="spacingAndGlyphs" textLength="48" x="91" y="873.1074">method</text>
      <line style="stroke: #A80036; stroke-width: 1.5;" x1="63" x2="141" y1="884.9531" y2="884.9531"/>
      <line style="stroke: #A80036; stroke-width: 1.5;" x1="63" x2="141" y1="892.9531" y2="892.9531"/>
    </a>
    <a href="structclanguml_1_1sequence__diagram_1_1model_1_1function__template.html" target="_top" title="Participant model representing a function template." xlink:actuate="onRequest" xlink:href="structclanguml_1_1sequence__diagram_1_1model_1_1function__template.html" xlink:show="new" xlink:title="Participant model representing a function template." xlink:type="simple">
      <rect fill="#FEFECE" filter="url(#f12zfmltowvvm2)" height="48" id="C_0002280191967493310558" style="stroke: #A80036; stroke-width: 1.5;" width="145" x="177.5" y="852.9531"/>
      <ellipse cx="192.5" cy="868.9531" fill="#ADD1B2" rx="11" ry="11" style="stroke: #A80036; stroke-width: 1.0;"/>
      <path d="M195.4688,874.5938 Q194.8906,874.8906 194.25,875.0313 Q193.6094,875.1875 192.9063,875.1875 Q190.4063,875.1875 189.0781,873.5469 Q187.7656,871.8906 187.7656,868.7656 Q187.7656,865.6406 189.0781,863.9844 Q190.4063,862.3281 192.9063,862.3281 Q193.6094,862.3281 194.25,862.4844 Q194.9063,862.6406 195.4688,862.9375 L195.4688,865.6563 Q194.8438,865.0781 194.25,864.8125 Q193.6563,864.5313 193.0313,864.5313 Q191.6875,864.5313 191,865.6094 Q190.3125,866.6719 190.3125,868.7656 Q190.3125,870.8594 191,871.9375 Q191.6875,873 193.0313,873 Q193.6563,873 194.25,872.7344 Q194.8438,872.4531 195.4688,871.875 L195.4688,874.5938 Z "/>
      <text fill="#000000" font-family="sans-serif" font-size="12" lengthAdjust="spacingAndGlyphs" textLength="113" x="206.5" y="873.1074">function_template</text>
      <line style="stroke: #A80036; stroke-width: 1.5;" x1="178.5" x2="321.5" y1="884.9531" y2="884.9531"/>
      <line style="stroke: #A80036; stroke-width: 1.5;" x1="178.5" x2="321.5" y1="892.9531" y2="892.9531"/>
    </a>
    <a href="classclanguml_1_1sequence__diagram_1_1model_1_1message.html" target="_top" title="Model of a sequence diagram message." xlink:actuate="onRequest" xlink:href="classclanguml_1_1sequence__diagram_1_1model_1_1message.html" xlink:show="new" xlink:title="Model of a sequence diagram message." xlink:type="simple">
      <rect fill="#FEFECE" filter="url(#f12zfmltowvvm2)" height="48" id="C_0002228653068706235818" style="stroke: #A80036; stroke-width: 1.5;" width="89" x="87.5" y="636.9531"/>
      <ellipse cx="102.5" cy="652.9531" fill="#ADD1B2" rx="11" ry="11" style="stroke: #A80036; stroke-width: 1.0;"/>
      <path d="M105.4688,658.5938 Q104.8906,658.8906 104.25,659.0313 Q103.6094,659.1875 102.9063,659.1875 Q100.4063,659.1875 99.0781,657.5469 Q97.7656,655.8906 97.7656,652.7656 Q97.7656,649.6406 99.0781,647.9844 Q100.4063,646.3281 102.9063,646.3281 Q103.6094,646.3281 104.25,646.4844 Q104.9063,646.6406 105.4688,646.9375 L105.4688,649.6563 Q104.8438,649.0781 104.25,648.8125 Q103.6563,648.5313 103.0313,648.5313 Q101.6875,648.5313 101,649.6094 Q100.3125,650.6719 100.3125,652.7656 Q100.3125,654.8594 101,655.9375 Q101.6875,657 103.0313,657 Q103.6563,657 104.25,656.7344 Q104.8438,656.4531 105.4688,655.875 L105.4688,658.5938 Z "/>
      <text fill="#000000" font-family="sans-serif" font-size="12" lengthAdjust="spacingAndGlyphs" textLength="57" x="116.5" y="657.1074">message</text>
      <line style="stroke: #A80036; stroke-width: 1.5;" x1="88.5" x2="175.5" y1="668.9531" y2="668.9531"/>
      <line style="stroke: #A80036; stroke-width: 1.5;" x1="88.5" x2="175.5" y1="676.9531" y2="676.9531"/>
    </a>
    <path d="M419.68,189.0431 C412.36,203.1531 404.43,218.4331 398.1,230.6331 " fill="none" id="C_0000895261582183440230&lt;-C_0001073500714379115414" style="stroke: #A80036; stroke-width: 1.0;"/>
    <polygon fill="none" points="413.64,185.4831,429.07,170.9531,426.07,191.9331,413.64,185.4831" style="stroke: #A80036; stroke-width: 1.0;"/>
    <path d="M375.16,298.4931 C371.68,312.1831 367.94,326.8531 364.94,338.6331 " fill="none" id="C_0001073500714379115414&lt;-C_0002069520381434407937" style="stroke: #A80036; stroke-width: 1.0;"/>
    <polygon fill="none" points="368.42,296.6031,380.14,278.9531,381.99,300.0631,368.42,296.6031" style="stroke: #A80036; stroke-width: 1.0;"/>
    <path d="M351.69,406.9731 C349.39,420.5331 346.94,434.9931 344.96,446.6331 " fill="none" id="C_0002069520381434407937&lt;-C_0001673103894976412298" style="stroke: #A80036; stroke-width: 1.0;"/>
    <polygon fill="none" points="344.84,405.5031,355.09,386.9531,358.65,407.8431,344.84,405.5031" style="stroke: #A80036; stroke-width: 1.0;"/>
    <path d="M421.26,293.7031 C435.26,308.6931 450.92,325.4631 463.22,338.6331 " fill="none" id="C_0001073500714379115414&lt;-C_0000785714713072053129" style="stroke: #A80036; stroke-width: 1.0;"/>
    <polygon fill="none" points="416.02,298.3431,407.48,278.9531,426.25,288.7931,416.02,298.3431" style="stroke: #A80036; stroke-width: 1.0;"/>
    <path d="M403.71,399.5931 C423.18,415.1031 445.44,432.8431 462.74,446.6331 " fill="none" id="C_0002069520381434407937&lt;-C_0002143286684830686854" style="stroke: #A80036; stroke-width: 1.0;"/>
    <polygon fill="none" points="399.14,404.8931,387.86,386.9531,407.86,393.9431,399.14,404.8931" style="stroke: #A80036; stroke-width: 1.0;"/>
    <path d="M471.51,187.3631 C526.98,259.1831 647.79,416.3831 747,550.9531 C768.68,580.3631 793.1,614.6931 808.75,636.8531 " fill="none" id="C_0000895261582183440230&lt;-C_0000605866861866358037" style="stroke: #A80036; stroke-width: 1.0;"/>
    <polygon fill="none" points="465.86,191.5031,459.17,171.3931,476.94,182.9431,465.86,191.5031" style="stroke: #A80036; stroke-width: 1.0;"/>
    <path d="M774.86,696.4631 C751.84,712.3031 725.17,730.6631 704.62,744.8131 " fill="none" id="C_0000605866861866358037&lt;-C_0001796282762108527255" style="stroke: #A80036; stroke-width: 1.0;"/>
    <polygon fill="none" points="771.14,690.5231,791.58,684.9531,779.08,702.0631,771.14,690.5231" style="stroke: #A80036; stroke-width: 1.0;"/>
    <path d="M825.41,704.9731 C825.53,718.5331 825.67,732.9931 825.78,744.6331 " fill="none" id="C_0000605866861866358037&lt;-C_0000204145716468348671" style="stroke: #A80036; stroke-width: 1.0;"/>
    <polygon fill="none" points="818.41,705.0231,825.22,684.9531,832.41,704.8831,818.41,705.0231" style="stroke: #A80036; stroke-width: 1.0;"/>
    <path d="M366.79,512.0231 C391.2,549.9531 427.02,605.6031 447.04,636.7131 " fill="none" id="C_0001673103894976412298&lt;-C_0001292034357466653182" style="stroke: #A80036; stroke-width: 1.0;"/>
    <polygon fill="none" points="360.77,515.6131,355.84,495.0031,372.55,508.0331,360.77,515.6131" style="stroke: #A80036; stroke-width: 1.0;"/>
    <path d="M419.34,388.0631 C474.66,410.4231 548.65,441.1031 553,446.9531 C595.41,503.9931 587.9,594.4831 581.35,636.7631 " fill="none" id="C_0002069520381434407937&lt;-C_0001374849051752224500" style="stroke: #A80036; stroke-width: 1.0;"/>
    <polygon fill="none" points="416.64,394.5131,400.7,380.5531,421.87,381.5331,416.64,394.5131" style="stroke: #A80036; stroke-width: 1.0;"/>
    <path d="M419.99,387.0331 C500.94,412.3731 536.86,395.5931 594,446.9531 C652.38,499.4231 678.94,593.4231 688.52,636.8231 " fill="none" id="C_0002069520381434407937&lt;-C_0000724392977093650506" style="stroke: #A80036; stroke-width: 1.0;"/>
    <polygon fill="none" points="417.5,393.5831,400.82,380.5131,422,380.3231,417.5,393.5831" style="stroke: #A80036; stroke-width: 1.0;"/>
    <path d="M323.51,513.5831 C307.59,551.4731 284.66,606.0331 271.77,636.7131 " fill="none" id="C_0001673103894976412298&lt;-C_0001400215772842495226" style="stroke: #A80036; stroke-width: 1.0;"/>
    <polygon fill="none" points="317.11,510.7331,331.31,495.0031,330.02,516.1531,317.11,510.7331" style="stroke: #A80036; stroke-width: 1.0;"/>
    <path d="M221.29,698.5231 C204.27,713.8131 185,731.1231 169.96,744.6331 " fill="none" id="C_0001400215772842495226&lt;-C_0000885514871619471610" style="stroke: #A80036; stroke-width: 1.0;"/>
    <polygon fill="none" points="216.84,693.1131,236.4,684.9531,226.2,703.5231,216.84,693.1131" style="stroke: #A80036; stroke-width: 1.0;"/>
    <path d="M259.56,704.9731 C258.8,718.5331 257.98,732.9931 257.32,744.6331 " fill="none" id="C_0001400215772842495226&lt;-C_0000232638456031681828" style="stroke: #A80036; stroke-width: 1.0;"/>
    <polygon fill="none" points="252.58,704.5231,260.7,684.9531,266.56,705.3131,252.58,704.5231" style="stroke: #A80036; stroke-width: 1.0;"/>
    <path d="M229.83,809.3331 C220.59,820.8331 209.39,832.5531 197,840.9531 C182.69,850.6531 176.27,847.0931 160,852.9531 C154.19,855.0431 148.09,857.3431 142.12,859.6531 " fill="none" id="C_0000232638456031681828&lt;-C_0000817665972547784504" style="stroke: #A80036; stroke-width: 1.0;"/>
    <polygon fill="none" points="224.34,804.9831,241.85,793.0531,235.6,813.3031,224.34,804.9831" style="stroke: #A80036; stroke-width: 1.0;"/>
    <path d="M253.56,812.9731 C252.8,826.5331 251.98,840.9931 251.32,852.6331 " fill="none" id="C_0000232638456031681828&lt;-C_0002280191967493310558" style="stroke: #A80036; stroke-width: 1.0;"/>
    <polygon fill="none" points="246.58,812.5231,254.7,792.9531,260.56,813.3131,246.58,812.5231" style="stroke: #A80036; stroke-width: 1.0;"/>
    <path d="M342.59,292.7031 C328.01,306.3231 312.33,322.4831 300,338.9531 C223.85,440.6631 163.27,581.7231 141.11,636.7031 " fill="none" id="C_0001073500714379115414&lt;-C_0002228653068706235818" style="stroke: #A80036; stroke-width: 1.0;"/>
    <polygon fill="none" points="338.23,287.2131,357.78,279.0231,347.6,297.6131,338.23,287.2131" style="stroke: #A80036; stroke-width: 1.0;"/>
  </g>
</svg>
