<svg xmlns="http://www.w3.org/2000/svg" xmlns:xlink="http://www.w3.org/1999/xlink" contentStyleType="text/css" height="315px" preserveAspectRatio="none" style="width:1421px;height:315px;background:#FFFFFF;" version="1.1" viewBox="0 0 1421 315" width="1421px" zoomAndPan="magnify">
  <defs>
    <style type="text/css">a:hover { text-decoration: underline; }</style>
  </defs>
  <g>
    <text fill="#000000" font-family="sans-serif" font-size="14" font-weight="bold" lengthAdjust="spacing" textLength="261.6865" x="572.9854" y="22.9951">Source file model class hierarchy</text>
    <a href="classclanguml_1_1common_1_1model_1_1decorated__element.html" target="_top" title="Base class for decorated diagram elements" xlink:actuate="onRequest" xlink:href="classclanguml_1_1common_1_1model_1_1decorated__element.html" xlink:show="new" xlink:title="Base class for decorated diagram elements" xlink:type="simple">
      <g id="elem_C_0008936819060997384951">
        <rect codeLine="3" fill="#F1F1F1" height="48" id="C_0008936819060997384951" rx="2.5" ry="2.5" style="stroke:#181818;stroke-width:0.5;" width="291.2529" x="7" y="44.2969"/>
        <ellipse cx="22" cy="60.2969" fill="#ADD1B2" rx="11" ry="11" style="stroke:#181818;stroke-width:1.0;"/>
        <path d="M24.9688,65.9375 Q24.3906,66.2344 23.75,66.375 Q23.1094,66.5313 22.4063,66.5313 Q19.9063,66.5313 18.5781,64.8906 Q17.2656,63.2344 17.2656,60.1094 Q17.2656,56.9844 18.5781,55.3281 Q19.9063,53.6719 22.4063,53.6719 Q23.1094,53.6719 23.75,53.8281 Q24.4063,53.9844 24.9688,54.2813 L24.9688,57 Q24.3438,56.4219 23.75,56.1563 Q23.1563,55.875 22.5313,55.875 Q21.1875,55.875 20.5,56.9531 Q19.8125,58.0156 19.8125,60.1094 Q19.8125,62.2031 20.5,63.2813 Q21.1875,64.3438 22.5313,64.3438 Q23.1563,64.3438 23.75,64.0781 Q24.3438,63.7969 24.9688,63.2188 L24.9688,65.9375 Z " fill="#000000"/>
        <text fill="#000000" font-family="sans-serif" font-size="14" lengthAdjust="spacing" textLength="259.2529" x="36" y="65.1436">common::model::decorated_element</text>
        <line style="stroke:#181818;stroke-width:0.5;" x1="8" x2="297.2529" y1="76.2969" y2="76.2969"/>
        <line style="stroke:#181818;stroke-width:0.5;" x1="8" x2="297.2529" y1="84.2969" y2="84.2969"/>
      </g>
    </a>
    <a href="classclanguml_1_1common_1_1model_1_1stylable__element.html" target="_top" title="Diagram elements to which style can be applied." xlink:actuate="onRequest" xlink:href="classclanguml_1_1common_1_1model_1_1stylable__element.html" xlink:show="new" xlink:title="Diagram elements to which style can be applied." xlink:type="simple">
      <g id="elem_C_0016622768607835415521">
        <rect codeLine="7" fill="#F1F1F1" height="48" id="C_0016622768607835415521" rx="2.5" ry="2.5" style="stroke:#181818;stroke-width:0.5;" width="275.0928" x="483" y="152.2969"/>
        <ellipse cx="498" cy="168.2969" fill="#ADD1B2" rx="11" ry="11" style="stroke:#181818;stroke-width:1.0;"/>
        <path d="M500.9688,173.9375 Q500.3906,174.2344 499.75,174.375 Q499.1094,174.5313 498.4063,174.5313 Q495.9063,174.5313 494.5781,172.8906 Q493.2656,171.2344 493.2656,168.1094 Q493.2656,164.9844 494.5781,163.3281 Q495.9063,161.6719 498.4063,161.6719 Q499.1094,161.6719 499.75,161.8281 Q500.4063,161.9844 500.9688,162.2813 L500.9688,165 Q500.3438,164.4219 499.75,164.1563 Q499.1563,163.875 498.5313,163.875 Q497.1875,163.875 496.5,164.9531 Q495.8125,166.0156 495.8125,168.1094 Q495.8125,170.2031 496.5,171.2813 Q497.1875,172.3438 498.5313,172.3438 Q499.1563,172.3438 499.75,172.0781 Q500.3438,171.7969 500.9688,171.2188 L500.9688,173.9375 Z " fill="#000000"/>
        <text fill="#000000" font-family="sans-serif" font-size="14" lengthAdjust="spacing" textLength="243.0928" x="512" y="173.1436">common::model::stylable_element</text>
        <line style="stroke:#181818;stroke-width:0.5;" x1="484" x2="757.0928" y1="184.2969" y2="184.2969"/>
        <line style="stroke:#181818;stroke-width:0.5;" x1="484" x2="757.0928" y1="192.2969" y2="192.2969"/>
      </g>
    </a>
    <a href="classclanguml_1_1common_1_1model_1_1source__location.html" target="_top" title="Base class of all diagram elements that have source location." xlink:actuate="onRequest" xlink:href="classclanguml_1_1common_1_1model_1_1source__location.html" xlink:show="new" xlink:title="Base class of all diagram elements that have source location." xlink:type="simple">
      <g id="elem_C_0007162092657467521843">
        <rect codeLine="11" fill="#F1F1F1" height="48" id="C_0007162092657467521843" rx="2.5" ry="2.5" style="stroke:#181818;stroke-width:0.5;" width="264.7842" x="333" y="44.2969"/>
        <ellipse cx="348" cy="60.2969" fill="#ADD1B2" rx="11" ry="11" style="stroke:#181818;stroke-width:1.0;"/>
        <path d="M350.9688,65.9375 Q350.3906,66.2344 349.75,66.375 Q349.1094,66.5313 348.4063,66.5313 Q345.9063,66.5313 344.5781,64.8906 Q343.2656,63.2344 343.2656,60.1094 Q343.2656,56.9844 344.5781,55.3281 Q345.9063,53.6719 348.4063,53.6719 Q349.1094,53.6719 349.75,53.8281 Q350.4063,53.9844 350.9688,54.2813 L350.9688,57 Q350.3438,56.4219 349.75,56.1563 Q349.1563,55.875 348.5313,55.875 Q347.1875,55.875 346.5,56.9531 Q345.8125,58.0156 345.8125,60.1094 Q345.8125,62.2031 346.5,63.2813 Q347.1875,64.3438 348.5313,64.3438 Q349.1563,64.3438 349.75,64.0781 Q350.3438,63.7969 350.9688,63.2188 L350.9688,65.9375 Z " fill="#000000"/>
        <text fill="#000000" font-family="sans-serif" font-size="14" lengthAdjust="spacing" textLength="232.7842" x="362" y="65.1436">common::model::source_location</text>
        <line style="stroke:#181818;stroke-width:0.5;" x1="334" x2="596.7842" y1="76.2969" y2="76.2969"/>
        <line style="stroke:#181818;stroke-width:0.5;" x1="334" x2="596.7842" y1="84.2969" y2="84.2969"/>
      </g>
    </a>
    <a href="classclanguml_1_1common_1_1model_1_1diagram__element.html" target="_top" title="Base class for standalone diagram elements." xlink:actuate="onRequest" xlink:href="classclanguml_1_1common_1_1model_1_1diagram__element.html" xlink:show="new" xlink:title="Base class for standalone diagram elements." xlink:type="simple">
      <g id="elem_C_0008588005715032923314">
        <rect codeLine="15" fill="#F1F1F1" height="48" id="C_0008588005715032923314" rx="2.5" ry="2.5" style="stroke:#181818;stroke-width:0.5;" width="278.3809" x="169.5" y="152.2969"/>
        <ellipse cx="184.5" cy="168.2969" fill="#ADD1B2" rx="11" ry="11" style="stroke:#181818;stroke-width:1.0;"/>
        <path d="M187.4688,173.9375 Q186.8906,174.2344 186.25,174.375 Q185.6094,174.5313 184.9063,174.5313 Q182.4063,174.5313 181.0781,172.8906 Q179.7656,171.2344 179.7656,168.1094 Q179.7656,164.9844 181.0781,163.3281 Q182.4063,161.6719 184.9063,161.6719 Q185.6094,161.6719 186.25,161.8281 Q186.9063,161.9844 187.4688,162.2813 L187.4688,165 Q186.8438,164.4219 186.25,164.1563 Q185.6563,163.875 185.0313,163.875 Q183.6875,163.875 183,164.9531 Q182.3125,166.0156 182.3125,168.1094 Q182.3125,170.2031 183,171.2813 Q183.6875,172.3438 185.0313,172.3438 Q185.6563,172.3438 186.25,172.0781 Q186.8438,171.7969 187.4688,171.2188 L187.4688,173.9375 Z " fill="#000000"/>
        <text fill="#000000" font-family="sans-serif" font-size="14" lengthAdjust="spacing" textLength="246.3809" x="198.5" y="173.1436">common::model::diagram_element</text>
        <line style="stroke:#181818;stroke-width:0.5;" x1="170.5" x2="446.8809" y1="184.2969" y2="184.2969"/>
        <line style="stroke:#181818;stroke-width:0.5;" x1="170.5" x2="446.8809" y1="192.2969" y2="192.2969"/>
      </g>
    </a>
    <a href="classclanguml_1_1common_1_1model_1_1nested__trait.html" target="_top" title="nested_trait" xlink:actuate="onRequest" xlink:href="classclanguml_1_1common_1_1model_1_1nested__trait.html" xlink:show="new" xlink:title="nested_trait" xlink:type="simple">
      <g id="elem_C_0012891720332235399601">
        <rect codeLine="19" fill="#F1F1F1" height="48" id="C_0012891720332235399601" rx="2.5" ry="2.5" style="stroke:#181818;stroke-width:0.5;" width="618.1572" x="792.5" y="152.2969"/>
        <ellipse cx="807.5" cy="168.2969" fill="#ADD1B2" rx="11" ry="11" style="stroke:#181818;stroke-width:1.0;"/>
        <path d="M810.4688,173.9375 Q809.8906,174.2344 809.25,174.375 Q808.6094,174.5313 807.9063,174.5313 Q805.4063,174.5313 804.0781,172.8906 Q802.7656,171.2344 802.7656,168.1094 Q802.7656,164.9844 804.0781,163.3281 Q805.4063,161.6719 807.9063,161.6719 Q808.6094,161.6719 809.25,161.8281 Q809.9063,161.9844 810.4688,162.2813 L810.4688,165 Q809.8438,164.4219 809.25,164.1563 Q808.6563,163.875 808.0313,163.875 Q806.6875,163.875 806,164.9531 Q805.3125,166.0156 805.3125,168.1094 Q805.3125,170.2031 806,171.2813 Q806.6875,172.3438 808.0313,172.3438 Q808.6563,172.3438 809.25,172.0781 Q809.8438,171.7969 810.4688,171.2188 L810.4688,173.9375 Z " fill="#000000"/>
        <text fill="#000000" font-family="sans-serif" font-size="14" lengthAdjust="spacing" textLength="207.4092" x="821.5" y="173.1436">common::model::nested_trait</text>
        <rect fill="#FFFFFF" height="15.9688" style="stroke:#181818;stroke-width:1.0;stroke-dasharray:2.0,2.0;" width="376.748" x="1036.9092" y="149.2969"/>
        <text fill="#000000" font-family="sans-serif" font-size="12" font-style="italic" lengthAdjust="spacing" textLength="374.748" x="1037.9092" y="161.4355">common::model::source_file,common::model::filesystem_path</text>
        <line style="stroke:#181818;stroke-width:0.5;" x1="793.5" x2="1409.6572" y1="184.2969" y2="184.2969"/>
        <line style="stroke:#181818;stroke-width:0.5;" x1="793.5" x2="1409.6572" y1="192.2969" y2="192.2969"/>
      </g>
    </a>
    <a href="classclanguml_1_1common_1_1model_1_1source__file.html" target="_top" title="Diagram element representing some file or directory." xlink:actuate="onRequest" xlink:href="classclanguml_1_1common_1_1model_1_1source__file.html" xlink:show="new" xlink:title="Diagram element representing some file or directory." xlink:type="simple">
      <g id="elem_C_0006285717704576425038">
        <rect codeLine="23" fill="#F1F1F1" height="48" id="C_0006285717704576425038" rx="2.5" ry="2.5" style="stroke:#181818;stroke-width:0.5;" width="230.5566" x="745" y="260.2969"/>
        <ellipse cx="760" cy="276.2969" fill="#ADD1B2" rx="11" ry="11" style="stroke:#181818;stroke-width:1.0;"/>
        <path d="M762.9688,281.9375 Q762.3906,282.2344 761.75,282.375 Q761.1094,282.5313 760.4063,282.5313 Q757.9063,282.5313 756.5781,280.8906 Q755.2656,279.2344 755.2656,276.1094 Q755.2656,272.9844 756.5781,271.3281 Q757.9063,269.6719 760.4063,269.6719 Q761.1094,269.6719 761.75,269.8281 Q762.4063,269.9844 762.9688,270.2813 L762.9688,273 Q762.3438,272.4219 761.75,272.1563 Q761.1563,271.875 760.5313,271.875 Q759.1875,271.875 758.5,272.9531 Q757.8125,274.0156 757.8125,276.1094 Q757.8125,278.2031 758.5,279.2813 Q759.1875,280.3438 760.5313,280.3438 Q761.1563,280.3438 761.75,280.0781 Q762.3438,279.7969 762.9688,279.2188 L762.9688,281.9375 Z " fill="#000000"/>
        <text fill="#000000" font-family="sans-serif" font-size="14" lengthAdjust="spacing" textLength="198.5566" x="774" y="281.1436">common::model::source_file</text>
        <line style="stroke:#181818;stroke-width:0.5;" x1="746" x2="974.5566" y1="292.2969" y2="292.2969"/>
        <line style="stroke:#181818;stroke-width:0.5;" x1="746" x2="974.5566" y1="300.2969" y2="300.2969"/>
      </g>
    </a>
    <g id="link_C_0008936819060997384951_C_0008588005715032923314">
      <path codeLine="26" d="M201.2385,102.4128 C227.3185,120.1328 248.32,134.4069 274.45,152.1569 " fill="none" id="C_0008936819060997384951-backto-C_0008588005715032923314" style="stroke:#181818;stroke-width:1.0;"/>
      <polygon fill="none" points="186.35,92.2969,197.8665,107.3757,204.6105,97.45,186.35,92.2969" style="stroke:#181818;stroke-width:1.0;"/>
    </g>
    <g id="link_C_0007162092657467521843_C_0008588005715032923314">
      <path codeLine="27" d="M416.5128,102.3705 C390.2728,120.0905 369.07,134.4069 342.77,152.1569 " fill="none" id="C_0007162092657467521843-backto-C_0008588005715032923314" style="stroke:#181818;stroke-width:1.0;"/>
      <polygon fill="none" points="431.43,92.2969,413.155,97.3981,419.8707,107.3429,431.43,92.2969" style="stroke:#181818;stroke-width:1.0;"/>
    </g>
    <g id="link_C_0012891720332235399601_C_0006285717704576425038">
      <path codeLine="28" d="M1038.48,200.2969 C995.5,218.0169 945.4782,239.8505 907.7882,257.6005 " fill="none" id="C_0012891720332235399601-to-C_0006285717704576425038" style="stroke:#181818;stroke-width:1.0;stroke-dasharray:7.0,7.0;"/>
      <polygon fill="#181818" points="902.36,260.1569,912.2065,259.9411,906.8835,258.0266,908.798,252.7035,902.36,260.1569" style="stroke:#181818;stroke-width:1.0;"/>
    </g>
    <g id="link_C_0012891720332235399601_C_0006285717704576425038">
      <path codeLine="31" d="M1044.291,207.9989 C1006.861,225.7189 967.69,242.4069 924.49,260.1569 " fill="none" id="C_0012891720332235399601-backto-C_0006285717704576425038" style="stroke:#181818;stroke-width:1.0;"/>
      <polygon fill="none" points="1060.56,200.2969,1041.7237,202.5759,1046.8584,213.4219,1060.56,200.2969" style="stroke:#181818;stroke-width:1.0;"/>
    </g>
    <g id="link_C_0008588005715032923314_C_0006285717704576425038">
      <path codeLine="29" d="M445.9571,203.691 C539.8071,221.711 651.93,243.2469 744.74,261.0669 " fill="none" id="C_0008588005715032923314-backto-C_0006285717704576425038" style="stroke:#181818;stroke-width:1.0;"/>
      <polygon fill="none" points="428.28,200.2969,444.8257,209.5834,447.0885,197.7987,428.28,200.2969" style="stroke:#181818;stroke-width:1.0;"/>
    </g>
    <g id="link_C_0016622768607835415521_C_0006285717704576425038">
      <path codeLine="30" d="M689.0448,207.5708 C729.1548,225.2908 767.92,242.4069 808.11,260.1569 " fill="none" id="C_0016622768607835415521-backto-C_0006285717704576425038" style="stroke:#181818;stroke-width:1.0;"/>
      <polygon fill="none" points="672.58,200.2969,686.6202,213.0591,691.4695,202.0825,672.58,200.2969" style="stroke:#181818;stroke-width:1.0;"/>
    </g>
  </g>
</svg>
