<svg xmlns="http://www.w3.org/2000/svg" xmlns:xlink="http://www.w3.org/1999/xlink" contentScriptType="application/ecmascript" contentStyleType="text/css" height="796px" preserveAspectRatio="none" style="width:1271px;height:796px;" version="1.1" viewBox="0 0 1271 796" width="1271px" zoomAndPan="magnify">
  <defs>
    <filter height="300%" id="f1usmi3lrzqchw" width="300%" x="-1" y="-1">
      <feGaussianBlur result="blurOut" stdDeviation="2.0"/>
      <feColorMatrix in="blurOut" result="blurOut2" type="matrix" values="0 0 0 0 0 0 0 0 0 0 0 0 0 0 0 0 0 0 .4 0"/>
      <feOffset dx="4.0" dy="4.0" in="blurOut2" result="blurOut3"/>
      <feBlend in="SourceGraphic" in2="blurOut3" mode="normal"/>
    </filter>
    <style type="text/css">a:hover { text-decoration: underline; }</style>
  </defs>
  <g>
    <text fill="#000000" font-family="sans-serif" font-size="18" lengthAdjust="spacingAndGlyphs" textLength="333" x="475" y="16.708">Source location model class hierarchy</text>
    <polygon fill="#FFFFFF" filter="url(#f1usmi3lrzqchw)" points="387,44.9531,460,44.9531,467,67.25,685,67.25,685,568.9531,387,568.9531,387,44.9531" style="stroke: #000000; stroke-width: 1.5;"/>
    <line style="stroke: #000000; stroke-width: 1.5;" x1="387" x2="467" y1="67.25" y2="67.25"/>
    <text fill="#000000" font-family="sans-serif" font-size="14" font-weight="bold" lengthAdjust="spacingAndGlyphs" textLength="67" x="391" y="59.9482">common</text>
    <polygon fill="#FFFFFF" filter="url(#f1usmi3lrzqchw)" points="411,87.9531,465,87.9531,472,110.25,661,110.25,661,544.9531,411,544.9531,411,87.9531" style="stroke: #000000; stroke-width: 1.5;"/>
    <line style="stroke: #000000; stroke-width: 1.5;" x1="411" x2="472" y1="110.25" y2="110.25"/>
    <text fill="#000000" font-family="sans-serif" font-size="14" font-weight="bold" lengthAdjust="spacingAndGlyphs" textLength="48" x="415" y="102.9482">model</text>
    <polygon fill="#FFFFFF" filter="url(#f1usmi3lrzqchw)" points="709,402.9531,825,402.9531,832,425.25,1249,425.25,1249,676.9531,709,676.9531,709,402.9531" style="stroke: #000000; stroke-width: 1.5;"/>
    <line style="stroke: #000000; stroke-width: 1.5;" x1="709" x2="832" y1="425.25" y2="425.25"/>
    <text fill="#000000" font-family="sans-serif" font-size="14" font-weight="bold" lengthAdjust="spacingAndGlyphs" textLength="110" x="713" y="417.9482">class_diagram</text>
    <polygon fill="#FFFFFF" filter="url(#f1usmi3lrzqchw)" points="733,445.9531,787,445.9531,794,468.25,1225,468.25,1225,652.9531,733,652.9531,733,445.9531" style="stroke: #000000; stroke-width: 1.5;"/>
    <line style="stroke: #000000; stroke-width: 1.5;" x1="733" x2="794" y1="468.25" y2="468.25"/>
    <text fill="#000000" font-family="sans-serif" font-size="14" font-weight="bold" lengthAdjust="spacingAndGlyphs" textLength="48" x="737" y="460.9482">model</text>
    <polygon fill="#FFFFFF" filter="url(#f1usmi3lrzqchw)" points="22,402.9531,176,402.9531,183,425.25,363,425.25,363,784.9531,22,784.9531,22,402.9531" style="stroke: #000000; stroke-width: 1.5;"/>
    <line style="stroke: #000000; stroke-width: 1.5;" x1="22" x2="183" y1="425.25" y2="425.25"/>
    <text fill="#000000" font-family="sans-serif" font-size="14" font-weight="bold" lengthAdjust="spacingAndGlyphs" textLength="148" x="26" y="417.9482">sequence_diagram</text>
    <polygon fill="#FFFFFF" filter="url(#f1usmi3lrzqchw)" points="46,445.9531,100,445.9531,107,468.25,339,468.25,339,760.9531,46,760.9531,46,445.9531" style="stroke: #000000; stroke-width: 1.5;"/>
    <line style="stroke: #000000; stroke-width: 1.5;" x1="46" x2="107" y1="468.25" y2="468.25"/>
    <text fill="#000000" font-family="sans-serif" font-size="14" font-weight="bold" lengthAdjust="spacingAndGlyphs" textLength="48" x="50" y="460.9482">model</text>
    <a href="classclanguml_1_1common_1_1model_1_1source__location.html" target="_top" title="Base class of all diagram elements that have source location." xlink:actuate="onRequest" xlink:href="classclanguml_1_1common_1_1model_1_1source__location.html" xlink:show="new" xlink:title="Base class of all diagram elements that have source location." xlink:type="simple">
      <rect fill="#FEFECE" filter="url(#f1usmi3lrzqchw)" height="48" id="C_0000895261582183440230" style="stroke: #A80036; stroke-width: 1.5;" width="131" x="491.5" y="122.9531"/>
      <ellipse cx="506.5" cy="138.9531" fill="#ADD1B2" rx="11" ry="11" style="stroke: #A80036; stroke-width: 1.0;"/>
      <path d="M509.4688,144.5938 Q508.8906,144.8906 508.25,145.0313 Q507.6094,145.1875 506.9063,145.1875 Q504.4063,145.1875 503.0781,143.5469 Q501.7656,141.8906 501.7656,138.7656 Q501.7656,135.6406 503.0781,133.9844 Q504.4063,132.3281 506.9063,132.3281 Q507.6094,132.3281 508.25,132.4844 Q508.9063,132.6406 509.4688,132.9375 L509.4688,135.6563 Q508.8438,135.0781 508.25,134.8125 Q507.6563,134.5313 507.0313,134.5313 Q505.6875,134.5313 505,135.6094 Q504.3125,136.6719 504.3125,138.7656 Q504.3125,140.8594 505,141.9375 Q505.6875,143 507.0313,143 Q507.6563,143 508.25,142.7344 Q508.8438,142.4531 509.4688,141.875 L509.4688,144.5938 Z "/>
      <text fill="#000000" font-family="sans-serif" font-size="12" lengthAdjust="spacingAndGlyphs" textLength="99" x="520.5" y="143.1074">source_location</text>
      <line style="stroke: #A80036; stroke-width: 1.5;" x1="492.5" x2="621.5" y1="154.9531" y2="154.9531"/>
      <line style="stroke: #A80036; stroke-width: 1.5;" x1="492.5" x2="621.5" y1="162.9531" y2="162.9531"/>
    </a>
    <a href="classclanguml_1_1common_1_1model_1_1diagram__element.html" target="_top" title="Base class for standalone diagram elements." xlink:actuate="onRequest" xlink:href="classclanguml_1_1common_1_1model_1_1diagram__element.html" xlink:show="new" xlink:title="Base class for standalone diagram elements." xlink:type="simple">
      <rect fill="#FEFECE" filter="url(#f1usmi3lrzqchw)" height="48" id="C_0001073500714379115414" style="stroke: #A80036; stroke-width: 1.5;" width="140" x="466" y="230.9531"/>
      <ellipse cx="481" cy="246.9531" fill="#ADD1B2" rx="11" ry="11" style="stroke: #A80036; stroke-width: 1.0;"/>
      <path d="M483.9688,252.5938 Q483.3906,252.8906 482.75,253.0313 Q482.1094,253.1875 481.4063,253.1875 Q478.9063,253.1875 477.5781,251.5469 Q476.2656,249.8906 476.2656,246.7656 Q476.2656,243.6406 477.5781,241.9844 Q478.9063,240.3281 481.4063,240.3281 Q482.1094,240.3281 482.75,240.4844 Q483.4063,240.6406 483.9688,240.9375 L483.9688,243.6563 Q483.3438,243.0781 482.75,242.8125 Q482.1563,242.5313 481.5313,242.5313 Q480.1875,242.5313 479.5,243.6094 Q478.8125,244.6719 478.8125,246.7656 Q478.8125,248.8594 479.5,249.9375 Q480.1875,251 481.5313,251 Q482.1563,251 482.75,250.7344 Q483.3438,250.4531 483.9688,249.875 L483.9688,252.5938 Z "/>
      <text fill="#000000" font-family="sans-serif" font-size="12" lengthAdjust="spacingAndGlyphs" textLength="108" x="495" y="251.1074">diagram_element</text>
      <line style="stroke: #A80036; stroke-width: 1.5;" x1="467" x2="605" y1="262.9531" y2="262.9531"/>
      <line style="stroke: #A80036; stroke-width: 1.5;" x1="467" x2="605" y1="270.9531" y2="270.9531"/>
    </a>
    <a href="classclanguml_1_1common_1_1model_1_1element.html" target="_top" title="Base class for any element qualified by namespace." xlink:actuate="onRequest" xlink:href="classclanguml_1_1common_1_1model_1_1element.html" xlink:show="new" xlink:title="Base class for any element qualified by namespace." xlink:type="simple">
      <rect fill="#FEFECE" filter="url(#f1usmi3lrzqchw)" height="48" id="C_0002069520381434407937" style="stroke: #A80036; stroke-width: 1.5;" width="83" x="427.5" y="338.9531"/>
      <ellipse cx="442.5" cy="354.9531" fill="#ADD1B2" rx="11" ry="11" style="stroke: #A80036; stroke-width: 1.0;"/>
      <path d="M445.4688,360.5938 Q444.8906,360.8906 444.25,361.0313 Q443.6094,361.1875 442.9063,361.1875 Q440.4063,361.1875 439.0781,359.5469 Q437.7656,357.8906 437.7656,354.7656 Q437.7656,351.6406 439.0781,349.9844 Q440.4063,348.3281 442.9063,348.3281 Q443.6094,348.3281 444.25,348.4844 Q444.9063,348.6406 445.4688,348.9375 L445.4688,351.6563 Q444.8438,351.0781 444.25,350.8125 Q443.6563,350.5313 443.0313,350.5313 Q441.6875,350.5313 441,351.6094 Q440.3125,352.6719 440.3125,354.7656 Q440.3125,356.8594 441,357.9375 Q441.6875,359 443.0313,359 Q443.6563,359 444.25,358.7344 Q444.8438,358.4531 445.4688,357.875 L445.4688,360.5938 Z "/>
      <text fill="#000000" font-family="sans-serif" font-size="12" lengthAdjust="spacingAndGlyphs" textLength="51" x="456.5" y="359.1074">element</text>
      <line style="stroke: #A80036; stroke-width: 1.5;" x1="428.5" x2="509.5" y1="370.9531" y2="370.9531"/>
      <line style="stroke: #A80036; stroke-width: 1.5;" x1="428.5" x2="509.5" y1="378.9531" y2="378.9531"/>
    </a>
    <a href="classclanguml_1_1common_1_1model_1_1package.html" target="_top" title="Diagram element representing namespace or directory package" xlink:actuate="onRequest" xlink:href="classclanguml_1_1common_1_1model_1_1package.html" xlink:show="new" xlink:title="Diagram element representing namespace or directory package" xlink:type="simple">
      <rect fill="#FEFECE" filter="url(#f1usmi3lrzqchw)" height="48" id="C_0002143286684830686854" style="stroke: #A80036; stroke-width: 1.5;" width="86" x="427" y="480.9531"/>
      <ellipse cx="442" cy="496.9531" fill="#ADD1B2" rx="11" ry="11" style="stroke: #A80036; stroke-width: 1.0;"/>
      <path d="M444.9688,502.5938 Q444.3906,502.8906 443.75,503.0313 Q443.1094,503.1875 442.4063,503.1875 Q439.9063,503.1875 438.5781,501.5469 Q437.2656,499.8906 437.2656,496.7656 Q437.2656,493.6406 438.5781,491.9844 Q439.9063,490.3281 442.4063,490.3281 Q443.1094,490.3281 443.75,490.4844 Q444.4063,490.6406 444.9688,490.9375 L444.9688,493.6563 Q444.3438,493.0781 443.75,492.8125 Q443.1563,492.5313 442.5313,492.5313 Q441.1875,492.5313 440.5,493.6094 Q439.8125,494.6719 439.8125,496.7656 Q439.8125,498.8594 440.5,499.9375 Q441.1875,501 442.5313,501 Q443.1563,501 443.75,500.7344 Q444.3438,500.4531 444.9688,499.875 L444.9688,502.5938 Z "/>
      <text fill="#000000" font-family="sans-serif" font-size="12" lengthAdjust="spacingAndGlyphs" textLength="54" x="456" y="501.1074">package</text>
      <line style="stroke: #A80036; stroke-width: 1.5;" x1="428" x2="512" y1="512.9531" y2="512.9531"/>
      <line style="stroke: #A80036; stroke-width: 1.5;" x1="428" x2="512" y1="520.9531" y2="520.9531"/>
    </a>
    <a href="classclanguml_1_1common_1_1model_1_1source__file.html" target="_top" title="Diagram element representing some file or directory." xlink:actuate="onRequest" xlink:href="classclanguml_1_1common_1_1model_1_1source__file.html" xlink:show="new" xlink:title="Diagram element representing some file or directory." xlink:type="simple">
      <rect fill="#FEFECE" filter="url(#f1usmi3lrzqchw)" height="48" id="C_0000785714713072053129" style="stroke: #A80036; stroke-width: 1.5;" width="99" x="545.5" y="338.9531"/>
      <ellipse cx="560.5" cy="354.9531" fill="#ADD1B2" rx="11" ry="11" style="stroke: #A80036; stroke-width: 1.0;"/>
      <path d="M563.4688,360.5938 Q562.8906,360.8906 562.25,361.0313 Q561.6094,361.1875 560.9063,361.1875 Q558.4063,361.1875 557.0781,359.5469 Q555.7656,357.8906 555.7656,354.7656 Q555.7656,351.6406 557.0781,349.9844 Q558.4063,348.3281 560.9063,348.3281 Q561.6094,348.3281 562.25,348.4844 Q562.9063,348.6406 563.4688,348.9375 L563.4688,351.6563 Q562.8438,351.0781 562.25,350.8125 Q561.6563,350.5313 561.0313,350.5313 Q559.6875,350.5313 559,351.6094 Q558.3125,352.6719 558.3125,354.7656 Q558.3125,356.8594 559,357.9375 Q559.6875,359 561.0313,359 Q561.6563,359 562.25,358.7344 Q562.8438,358.4531 563.4688,357.875 L563.4688,360.5938 Z "/>
      <text fill="#000000" font-family="sans-serif" font-size="12" lengthAdjust="spacingAndGlyphs" textLength="67" x="574.5" y="359.1074">source_file</text>
      <line style="stroke: #A80036; stroke-width: 1.5;" x1="546.5" x2="643.5" y1="370.9531" y2="370.9531"/>
      <line style="stroke: #A80036; stroke-width: 1.5;" x1="546.5" x2="643.5" y1="378.9531" y2="378.9531"/>
    </a>
    <a href="classclanguml_1_1class__diagram_1_1model_1_1class__element.html" target="_top" title="Base class for class elements (e.g. member or method)." xlink:actuate="onRequest" xlink:href="classclanguml_1_1class__diagram_1_1model_1_1class__element.html" xlink:show="new" xlink:title="Base class for class elements (e.g. member or method)." xlink:type="simple">
      <rect fill="#FEFECE" filter="url(#f1usmi3lrzqchw)" height="48" id="C_0000605866861866358037" style="stroke: #A80036; stroke-width: 1.5;" width="121" x="1087.5" y="480.9531"/>
      <ellipse cx="1102.5" cy="496.9531" fill="#ADD1B2" rx="11" ry="11" style="stroke: #A80036; stroke-width: 1.0;"/>
      <path d="M1105.4688,502.5938 Q1104.8906,502.8906 1104.25,503.0313 Q1103.6094,503.1875 1102.9063,503.1875 Q1100.4063,503.1875 1099.0781,501.5469 Q1097.7656,499.8906 1097.7656,496.7656 Q1097.7656,493.6406 1099.0781,491.9844 Q1100.4063,490.3281 1102.9063,490.3281 Q1103.6094,490.3281 1104.25,490.4844 Q1104.9063,490.6406 1105.4688,490.9375 L1105.4688,493.6563 Q1104.8438,493.0781 1104.25,492.8125 Q1103.6563,492.5313 1103.0313,492.5313 Q1101.6875,492.5313 1101,493.6094 Q1100.3125,494.6719 1100.3125,496.7656 Q1100.3125,498.8594 1101,499.9375 Q1101.6875,501 1103.0313,501 Q1103.6563,501 1104.25,500.7344 Q1104.8438,500.4531 1105.4688,499.875 L1105.4688,502.5938 Z "/>
      <text fill="#000000" font-family="sans-serif" font-size="12" lengthAdjust="spacingAndGlyphs" textLength="89" x="1116.5" y="501.1074">class_element</text>
      <line style="stroke: #A80036; stroke-width: 1.5;" x1="1088.5" x2="1207.5" y1="512.9531" y2="512.9531"/>
      <line style="stroke: #A80036; stroke-width: 1.5;" x1="1088.5" x2="1207.5" y1="520.9531" y2="520.9531"/>
    </a>
    <a href="classclanguml_1_1class__diagram_1_1model_1_1class__member.html" target="_top" title="Class member model." xlink:actuate="onRequest" xlink:href="classclanguml_1_1class__diagram_1_1model_1_1class__member.html" xlink:show="new" xlink:title="Class member model." xlink:type="simple">
      <rect fill="#FEFECE" filter="url(#f1usmi3lrzqchw)" height="48" id="C_0001796282762108527255" style="stroke: #A80036; stroke-width: 1.5;" width="121" x="933.5" y="588.9531"/>
      <ellipse cx="948.5" cy="604.9531" fill="#ADD1B2" rx="11" ry="11" style="stroke: #A80036; stroke-width: 1.0;"/>
      <path d="M951.4688,610.5938 Q950.8906,610.8906 950.25,611.0313 Q949.6094,611.1875 948.9063,611.1875 Q946.4063,611.1875 945.0781,609.5469 Q943.7656,607.8906 943.7656,604.7656 Q943.7656,601.6406 945.0781,599.9844 Q946.4063,598.3281 948.9063,598.3281 Q949.6094,598.3281 950.25,598.4844 Q950.9063,598.6406 951.4688,598.9375 L951.4688,601.6563 Q950.8438,601.0781 950.25,600.8125 Q949.6563,600.5313 949.0313,600.5313 Q947.6875,600.5313 947,601.6094 Q946.3125,602.6719 946.3125,604.7656 Q946.3125,606.8594 947,607.9375 Q947.6875,609 949.0313,609 Q949.6563,609 950.25,608.7344 Q950.8438,608.4531 951.4688,607.875 L951.4688,610.5938 Z "/>
      <text fill="#000000" font-family="sans-serif" font-size="12" lengthAdjust="spacingAndGlyphs" textLength="89" x="962.5" y="609.1074">class_member</text>
      <line style="stroke: #A80036; stroke-width: 1.5;" x1="934.5" x2="1053.5" y1="620.9531" y2="620.9531"/>
      <line style="stroke: #A80036; stroke-width: 1.5;" x1="934.5" x2="1053.5" y1="628.9531" y2="628.9531"/>
    </a>
    <a href="classclanguml_1_1class__diagram_1_1model_1_1class__method.html" target="_top" title="Class method model." xlink:actuate="onRequest" xlink:href="classclanguml_1_1class__diagram_1_1model_1_1class__method.html" xlink:show="new" xlink:title="Class method model." xlink:type="simple">
      <rect fill="#FEFECE" filter="url(#f1usmi3lrzqchw)" height="48" id="C_0000204145716468348671" style="stroke: #A80036; stroke-width: 1.5;" width="118" x="1090" y="588.9531"/>
      <ellipse cx="1105" cy="604.9531" fill="#ADD1B2" rx="11" ry="11" style="stroke: #A80036; stroke-width: 1.0;"/>
      <path d="M1107.9688,610.5938 Q1107.3906,610.8906 1106.75,611.0313 Q1106.1094,611.1875 1105.4063,611.1875 Q1102.9063,611.1875 1101.5781,609.5469 Q1100.2656,607.8906 1100.2656,604.7656 Q1100.2656,601.6406 1101.5781,599.9844 Q1102.9063,598.3281 1105.4063,598.3281 Q1106.1094,598.3281 1106.75,598.4844 Q1107.4063,598.6406 1107.9688,598.9375 L1107.9688,601.6563 Q1107.3438,601.0781 1106.75,600.8125 Q1106.1563,600.5313 1105.5313,600.5313 Q1104.1875,600.5313 1103.5,601.6094 Q1102.8125,602.6719 1102.8125,604.7656 Q1102.8125,606.8594 1103.5,607.9375 Q1104.1875,609 1105.5313,609 Q1106.1563,609 1106.75,608.7344 Q1107.3438,608.4531 1107.9688,607.875 L1107.9688,610.5938 Z "/>
      <text fill="#000000" font-family="sans-serif" font-size="12" lengthAdjust="spacingAndGlyphs" textLength="86" x="1119" y="609.1074">class_method</text>
      <line style="stroke: #A80036; stroke-width: 1.5;" x1="1091" x2="1207" y1="620.9531" y2="620.9531"/>
      <line style="stroke: #A80036; stroke-width: 1.5;" x1="1091" x2="1207" y1="628.9531" y2="628.9531"/>
    </a>
    <a href="classclanguml_1_1class__diagram_1_1model_1_1class__.html" target="_top" title="Diagram element representing a class or class template." xlink:actuate="onRequest" xlink:href="classclanguml_1_1class__diagram_1_1model_1_1class__.html" xlink:show="new" xlink:title="Diagram element representing a class or class template." xlink:type="simple">
      <rect fill="#FEFECE" filter="url(#f1usmi3lrzqchw)" height="48" id="C_0001292034357466653182" style="stroke: #A80036; stroke-width: 1.5;" width="70" x="982" y="480.9531"/>
      <ellipse cx="997" cy="496.9531" fill="#ADD1B2" rx="11" ry="11" style="stroke: #A80036; stroke-width: 1.0;"/>
      <path d="M999.9688,502.5938 Q999.3906,502.8906 998.75,503.0313 Q998.1094,503.1875 997.4063,503.1875 Q994.9063,503.1875 993.5781,501.5469 Q992.2656,499.8906 992.2656,496.7656 Q992.2656,493.6406 993.5781,491.9844 Q994.9063,490.3281 997.4063,490.3281 Q998.1094,490.3281 998.75,490.4844 Q999.4063,490.6406 999.9688,490.9375 L999.9688,493.6563 Q999.3438,493.0781 998.75,492.8125 Q998.1563,492.5313 997.5313,492.5313 Q996.1875,492.5313 995.5,493.6094 Q994.8125,494.6719 994.8125,496.7656 Q994.8125,498.8594 995.5,499.9375 Q996.1875,501 997.5313,501 Q998.1563,501 998.75,500.7344 Q999.3438,500.4531 999.9688,499.875 L999.9688,502.5938 Z "/>
      <text fill="#000000" font-family="sans-serif" font-size="12" lengthAdjust="spacingAndGlyphs" textLength="38" x="1011" y="501.1074">class_</text>
      <line style="stroke: #A80036; stroke-width: 1.5;" x1="983" x2="1051" y1="512.9531" y2="512.9531"/>
      <line style="stroke: #A80036; stroke-width: 1.5;" x1="983" x2="1051" y1="520.9531" y2="520.9531"/>
    </a>
    <a href="classclanguml_1_1class__diagram_1_1model_1_1concept__.html" target="_top" title="Model of C++ concept." xlink:actuate="onRequest" xlink:href="classclanguml_1_1class__diagram_1_1model_1_1concept__.html" xlink:show="new" xlink:title="Model of C++ concept." xlink:type="simple">
      <rect fill="#FEFECE" filter="url(#f1usmi3lrzqchw)" height="48" id="C_0001374849051752224500" style="stroke: #A80036; stroke-width: 1.5;" width="89" x="857.5" y="480.9531"/>
      <ellipse cx="872.5" cy="496.9531" fill="#ADD1B2" rx="11" ry="11" style="stroke: #A80036; stroke-width: 1.0;"/>
      <path d="M875.4688,502.5938 Q874.8906,502.8906 874.25,503.0313 Q873.6094,503.1875 872.9063,503.1875 Q870.4063,503.1875 869.0781,501.5469 Q867.7656,499.8906 867.7656,496.7656 Q867.7656,493.6406 869.0781,491.9844 Q870.4063,490.3281 872.9063,490.3281 Q873.6094,490.3281 874.25,490.4844 Q874.9063,490.6406 875.4688,490.9375 L875.4688,493.6563 Q874.8438,493.0781 874.25,492.8125 Q873.6563,492.5313 873.0313,492.5313 Q871.6875,492.5313 871,493.6094 Q870.3125,494.6719 870.3125,496.7656 Q870.3125,498.8594 871,499.9375 Q871.6875,501 873.0313,501 Q873.6563,501 874.25,500.7344 Q874.8438,500.4531 875.4688,499.875 L875.4688,502.5938 Z "/>
      <text fill="#000000" font-family="sans-serif" font-size="12" lengthAdjust="spacingAndGlyphs" textLength="57" x="886.5" y="501.1074">concept_</text>
      <line style="stroke: #A80036; stroke-width: 1.5;" x1="858.5" x2="945.5" y1="512.9531" y2="512.9531"/>
      <line style="stroke: #A80036; stroke-width: 1.5;" x1="858.5" x2="945.5" y1="520.9531" y2="520.9531"/>
    </a>
    <a href="classclanguml_1_1class__diagram_1_1model_1_1enum__.html" target="_top" title="enum_" xlink:actuate="onRequest" xlink:href="classclanguml_1_1class__diagram_1_1model_1_1enum__.html" xlink:show="new" xlink:title="enum_" xlink:type="simple">
      <rect fill="#FEFECE" filter="url(#f1usmi3lrzqchw)" height="48" id="C_0000724392977093650506" style="stroke: #A80036; stroke-width: 1.5;" width="73" x="749.5" y="480.9531"/>
      <ellipse cx="764.5" cy="496.9531" fill="#ADD1B2" rx="11" ry="11" style="stroke: #A80036; stroke-width: 1.0;"/>
      <path d="M767.4688,502.5938 Q766.8906,502.8906 766.25,503.0313 Q765.6094,503.1875 764.9063,503.1875 Q762.4063,503.1875 761.0781,501.5469 Q759.7656,499.8906 759.7656,496.7656 Q759.7656,493.6406 761.0781,491.9844 Q762.4063,490.3281 764.9063,490.3281 Q765.6094,490.3281 766.25,490.4844 Q766.9063,490.6406 767.4688,490.9375 L767.4688,493.6563 Q766.8438,493.0781 766.25,492.8125 Q765.6563,492.5313 765.0313,492.5313 Q763.6875,492.5313 763,493.6094 Q762.3125,494.6719 762.3125,496.7656 Q762.3125,498.8594 763,499.9375 Q763.6875,501 765.0313,501 Q765.6563,501 766.25,500.7344 Q766.8438,500.4531 767.4688,499.875 L767.4688,502.5938 Z "/>
      <text fill="#000000" font-family="sans-serif" font-size="12" lengthAdjust="spacingAndGlyphs" textLength="41" x="778.5" y="501.1074">enum_</text>
      <line style="stroke: #A80036; stroke-width: 1.5;" x1="750.5" x2="821.5" y1="512.9531" y2="512.9531"/>
      <line style="stroke: #A80036; stroke-width: 1.5;" x1="750.5" x2="821.5" y1="520.9531" y2="520.9531"/>
    </a>
    <a href="structclanguml_1_1sequence__diagram_1_1model_1_1participant.html" target="_top" title="Base class for various types of sequence diagram participants" xlink:actuate="onRequest" xlink:href="structclanguml_1_1sequence__diagram_1_1model_1_1participant.html" xlink:show="new" xlink:title="Base class for various types of sequence diagram participants" xlink:type="simple">
      <rect fill="#FEFECE" filter="url(#f1usmi3lrzqchw)" height="48" id="C_0001400215772842495226" style="stroke: #A80036; stroke-width: 1.5;" width="100" x="217" y="480.9531"/>
      <ellipse cx="232" cy="496.9531" fill="#ADD1B2" rx="11" ry="11" style="stroke: #A80036; stroke-width: 1.0;"/>
      <path d="M234.9688,502.5938 Q234.3906,502.8906 233.75,503.0313 Q233.1094,503.1875 232.4063,503.1875 Q229.9063,503.1875 228.5781,501.5469 Q227.2656,499.8906 227.2656,496.7656 Q227.2656,493.6406 228.5781,491.9844 Q229.9063,490.3281 232.4063,490.3281 Q233.1094,490.3281 233.75,490.4844 Q234.4063,490.6406 234.9688,490.9375 L234.9688,493.6563 Q234.3438,493.0781 233.75,492.8125 Q233.1563,492.5313 232.5313,492.5313 Q231.1875,492.5313 230.5,493.6094 Q229.8125,494.6719 229.8125,496.7656 Q229.8125,498.8594 230.5,499.9375 Q231.1875,501 232.5313,501 Q233.1563,501 233.75,500.7344 Q234.3438,500.4531 234.9688,499.875 L234.9688,502.5938 Z "/>
      <text fill="#000000" font-family="sans-serif" font-size="12" lengthAdjust="spacingAndGlyphs" textLength="68" x="246" y="501.1074">participant</text>
      <line style="stroke: #A80036; stroke-width: 1.5;" x1="218" x2="316" y1="512.9531" y2="512.9531"/>
      <line style="stroke: #A80036; stroke-width: 1.5;" x1="218" x2="316" y1="520.9531" y2="520.9531"/>
    </a>
    <a href="structclanguml_1_1sequence__diagram_1_1model_1_1class__.html" target="_top" title="Sequence diagram participant representing a class." xlink:actuate="onRequest" xlink:href="structclanguml_1_1sequence__diagram_1_1model_1_1class__.html" xlink:show="new" xlink:title="Sequence diagram participant representing a class." xlink:type="simple">
      <rect fill="#FEFECE" filter="url(#f1usmi3lrzqchw)" height="48" id="C_0000885514871619471610" style="stroke: #A80036; stroke-width: 1.5;" width="70" x="109" y="588.9531"/>
      <ellipse cx="124" cy="604.9531" fill="#ADD1B2" rx="11" ry="11" style="stroke: #A80036; stroke-width: 1.0;"/>
      <path d="M126.9688,610.5938 Q126.3906,610.8906 125.75,611.0313 Q125.1094,611.1875 124.4063,611.1875 Q121.9063,611.1875 120.5781,609.5469 Q119.2656,607.8906 119.2656,604.7656 Q119.2656,601.6406 120.5781,599.9844 Q121.9063,598.3281 124.4063,598.3281 Q125.1094,598.3281 125.75,598.4844 Q126.4063,598.6406 126.9688,598.9375 L126.9688,601.6563 Q126.3438,601.0781 125.75,600.8125 Q125.1563,600.5313 124.5313,600.5313 Q123.1875,600.5313 122.5,601.6094 Q121.8125,602.6719 121.8125,604.7656 Q121.8125,606.8594 122.5,607.9375 Q123.1875,609 124.5313,609 Q125.1563,609 125.75,608.7344 Q126.3438,608.4531 126.9688,607.875 L126.9688,610.5938 Z "/>
      <text fill="#000000" font-family="sans-serif" font-size="12" lengthAdjust="spacingAndGlyphs" textLength="38" x="138" y="609.1074">class_</text>
      <line style="stroke: #A80036; stroke-width: 1.5;" x1="110" x2="178" y1="620.9531" y2="620.9531"/>
      <line style="stroke: #A80036; stroke-width: 1.5;" x1="110" x2="178" y1="628.9531" y2="628.9531"/>
    </a>
    <a href="structclanguml_1_1sequence__diagram_1_1model_1_1function.html" target="_top" title="Participant mode representing a free function." xlink:actuate="onRequest" xlink:href="structclanguml_1_1sequence__diagram_1_1model_1_1function.html" xlink:show="new" xlink:title="Participant mode representing a free function." xlink:type="simple">
      <rect fill="#FEFECE" filter="url(#f1usmi3lrzqchw)" height="48" id="C_0000232638456031681828" style="stroke: #A80036; stroke-width: 1.5;" width="83" x="214.5" y="588.9531"/>
      <ellipse cx="229.5" cy="604.9531" fill="#ADD1B2" rx="11" ry="11" style="stroke: #A80036; stroke-width: 1.0;"/>
      <path d="M232.4688,610.5938 Q231.8906,610.8906 231.25,611.0313 Q230.6094,611.1875 229.9063,611.1875 Q227.4063,611.1875 226.0781,609.5469 Q224.7656,607.8906 224.7656,604.7656 Q224.7656,601.6406 226.0781,599.9844 Q227.4063,598.3281 229.9063,598.3281 Q230.6094,598.3281 231.25,598.4844 Q231.9063,598.6406 232.4688,598.9375 L232.4688,601.6563 Q231.8438,601.0781 231.25,600.8125 Q230.6563,600.5313 230.0313,600.5313 Q228.6875,600.5313 228,601.6094 Q227.3125,602.6719 227.3125,604.7656 Q227.3125,606.8594 228,607.9375 Q228.6875,609 230.0313,609 Q230.6563,609 231.25,608.7344 Q231.8438,608.4531 232.4688,607.875 L232.4688,610.5938 Z "/>
      <text fill="#000000" font-family="sans-serif" font-size="12" lengthAdjust="spacingAndGlyphs" textLength="51" x="243.5" y="609.1074">function</text>
      <line style="stroke: #A80036; stroke-width: 1.5;" x1="215.5" x2="296.5" y1="620.9531" y2="620.9531"/>
      <line style="stroke: #A80036; stroke-width: 1.5;" x1="215.5" x2="296.5" y1="628.9531" y2="628.9531"/>
    </a>
    <a href="structclanguml_1_1sequence__diagram_1_1model_1_1method.html" target="_top" title="Participant model representing a method" xlink:actuate="onRequest" xlink:href="structclanguml_1_1sequence__diagram_1_1model_1_1method.html" xlink:show="new" xlink:title="Participant model representing a method" xlink:type="simple">
      <rect fill="#FEFECE" filter="url(#f1usmi3lrzqchw)" height="48" id="C_0000817665972547784504" style="stroke: #A80036; stroke-width: 1.5;" width="80" x="62" y="696.9531"/>
      <ellipse cx="77" cy="712.9531" fill="#ADD1B2" rx="11" ry="11" style="stroke: #A80036; stroke-width: 1.0;"/>
      <path d="M79.9688,718.5938 Q79.3906,718.8906 78.75,719.0313 Q78.1094,719.1875 77.4063,719.1875 Q74.9063,719.1875 73.5781,717.5469 Q72.2656,715.8906 72.2656,712.7656 Q72.2656,709.6406 73.5781,707.9844 Q74.9063,706.3281 77.4063,706.3281 Q78.1094,706.3281 78.75,706.4844 Q79.4063,706.6406 79.9688,706.9375 L79.9688,709.6563 Q79.3438,709.0781 78.75,708.8125 Q78.1563,708.5313 77.5313,708.5313 Q76.1875,708.5313 75.5,709.6094 Q74.8125,710.6719 74.8125,712.7656 Q74.8125,714.8594 75.5,715.9375 Q76.1875,717 77.5313,717 Q78.1563,717 78.75,716.7344 Q79.3438,716.4531 79.9688,715.875 L79.9688,718.5938 Z "/>
      <text fill="#000000" font-family="sans-serif" font-size="12" lengthAdjust="spacingAndGlyphs" textLength="48" x="91" y="717.1074">method</text>
      <line style="stroke: #A80036; stroke-width: 1.5;" x1="63" x2="141" y1="728.9531" y2="728.9531"/>
      <line style="stroke: #A80036; stroke-width: 1.5;" x1="63" x2="141" y1="736.9531" y2="736.9531"/>
    </a>
    <a href="structclanguml_1_1sequence__diagram_1_1model_1_1function__template.html" target="_top" title="Participant model representing a function template." xlink:actuate="onRequest" xlink:href="structclanguml_1_1sequence__diagram_1_1model_1_1function__template.html" xlink:show="new" xlink:title="Participant model representing a function template." xlink:type="simple">
      <rect fill="#FEFECE" filter="url(#f1usmi3lrzqchw)" height="48" id="C_0002280191967493310558" style="stroke: #A80036; stroke-width: 1.5;" width="145" x="177.5" y="696.9531"/>
      <ellipse cx="192.5" cy="712.9531" fill="#ADD1B2" rx="11" ry="11" style="stroke: #A80036; stroke-width: 1.0;"/>
      <path d="M195.4688,718.5938 Q194.8906,718.8906 194.25,719.0313 Q193.6094,719.1875 192.9063,719.1875 Q190.4063,719.1875 189.0781,717.5469 Q187.7656,715.8906 187.7656,712.7656 Q187.7656,709.6406 189.0781,707.9844 Q190.4063,706.3281 192.9063,706.3281 Q193.6094,706.3281 194.25,706.4844 Q194.9063,706.6406 195.4688,706.9375 L195.4688,709.6563 Q194.8438,709.0781 194.25,708.8125 Q193.6563,708.5313 193.0313,708.5313 Q191.6875,708.5313 191,709.6094 Q190.3125,710.6719 190.3125,712.7656 Q190.3125,714.8594 191,715.9375 Q191.6875,717 193.0313,717 Q193.6563,717 194.25,716.7344 Q194.8438,716.4531 195.4688,715.875 L195.4688,718.5938 Z "/>
      <text fill="#000000" font-family="sans-serif" font-size="12" lengthAdjust="spacingAndGlyphs" textLength="113" x="206.5" y="717.1074">function_template</text>
      <line style="stroke: #A80036; stroke-width: 1.5;" x1="178.5" x2="321.5" y1="728.9531" y2="728.9531"/>
      <line style="stroke: #A80036; stroke-width: 1.5;" x1="178.5" x2="321.5" y1="736.9531" y2="736.9531"/>
    </a>
    <a href="classclanguml_1_1sequence__diagram_1_1model_1_1message.html" target="_top" title="Model of a sequence diagram message." xlink:actuate="onRequest" xlink:href="classclanguml_1_1sequence__diagram_1_1model_1_1message.html" xlink:show="new" xlink:title="Model of a sequence diagram message." xlink:type="simple">
      <rect fill="#FEFECE" filter="url(#f1usmi3lrzqchw)" height="48" id="C_0002228653068706235818" style="stroke: #A80036; stroke-width: 1.5;" width="89" x="92.5" y="480.9531"/>
      <ellipse cx="107.5" cy="496.9531" fill="#ADD1B2" rx="11" ry="11" style="stroke: #A80036; stroke-width: 1.0;"/>
      <path d="M110.4688,502.5938 Q109.8906,502.8906 109.25,503.0313 Q108.6094,503.1875 107.9063,503.1875 Q105.4063,503.1875 104.0781,501.5469 Q102.7656,499.8906 102.7656,496.7656 Q102.7656,493.6406 104.0781,491.9844 Q105.4063,490.3281 107.9063,490.3281 Q108.6094,490.3281 109.25,490.4844 Q109.9063,490.6406 110.4688,490.9375 L110.4688,493.6563 Q109.8438,493.0781 109.25,492.8125 Q108.6563,492.5313 108.0313,492.5313 Q106.6875,492.5313 106,493.6094 Q105.3125,494.6719 105.3125,496.7656 Q105.3125,498.8594 106,499.9375 Q106.6875,501 108.0313,501 Q108.6563,501 109.25,500.7344 Q109.8438,500.4531 110.4688,499.875 L110.4688,502.5938 Z "/>
      <text fill="#000000" font-family="sans-serif" font-size="12" lengthAdjust="spacingAndGlyphs" textLength="57" x="121.5" y="501.1074">message</text>
      <line style="stroke: #A80036; stroke-width: 1.5;" x1="93.5" x2="180.5" y1="512.9531" y2="512.9531"/>
      <line style="stroke: #A80036; stroke-width: 1.5;" x1="93.5" x2="180.5" y1="520.9531" y2="520.9531"/>
    </a>
    <path d="M548.48,190.9731 C545.79,204.5331 542.93,218.9931 540.62,230.6331 " fill="none" id="C_0000895261582183440230&lt;-C_0001073500714379115414" style="stroke: #A80036; stroke-width: 1.0;"/>
    <polygon fill="none" points="541.69,189.2131,552.44,170.9531,555.42,191.9331,541.69,189.2131" style="stroke: #A80036; stroke-width: 1.0;"/>
    <path d="M510.63,296.0831 C501.55,310.4531 491.62,326.1631 483.74,338.6331 " fill="none" id="C_0001073500714379115414&lt;-C_0002069520381434407937" style="stroke: #A80036; stroke-width: 1.0;"/>
    <polygon fill="none" points="504.86,292.1231,521.46,278.9531,516.69,299.6031,504.86,292.1231" style="stroke: #A80036; stroke-width: 1.0;"/>
    <path d="M469.31,407.1531 C469.48,431.4531 469.69,460.8331 469.83,480.8031 " fill="none" id="C_0002069520381434407937&lt;-C_0002143286684830686854" style="stroke: #A80036; stroke-width: 1.0;"/>
    <polygon fill="none" points="462.31,407.1231,469.17,387.0731,476.31,407.0231,462.31,407.1231" style="stroke: #A80036; stroke-width: 1.0;"/>
    <path d="M558.61,296.5631 C566.53,310.8031 575.15,326.3031 582.02,338.6331 " fill="none" id="C_0001073500714379115414&lt;-C_0000785714713072053129" style="stroke: #A80036; stroke-width: 1.0;"/>
    <polygon fill="none" points="552.41,299.8331,548.8,278.9531,564.65,293.0231,552.41,299.8331" style="stroke: #A80036; stroke-width: 1.0;"/>
    <path d="M642.12,174.1631 C750.38,210.5931 938.95,284.7531 1070,394.9531 C1099.03,419.3631 1122.71,456.8831 1136.09,480.9131 " fill="none" id="C_0000895261582183440230&lt;-C_0000605866861866358037" style="stroke: #A80036; stroke-width: 1.0;"/>
    <polygon fill="none" points="639.67,180.7231,622.88,167.8031,644.06,167.4331,639.67,180.7231" style="stroke: #A80036; stroke-width: 1.0;"/>
    <path d="M1111.71,543.2531 C1099.17,554.9331 1084.6,567.2831 1070,576.9531 C1063.58,581.2031 1056.56,585.1931 1049.47,588.8531 " fill="none" id="C_0000605866861866358037&lt;-C_0001796282762108527255" style="stroke: #A80036; stroke-width: 1.0;"/>
    <polygon fill="none" points="1107.11,537.9631,1126.34,529.0631,1116.85,548.0131,1107.11,537.9631" style="stroke: #A80036; stroke-width: 1.0;"/>
    <path d="M1148.41,548.9731 C1148.53,562.5331 1148.67,576.9931 1148.78,588.6331 " fill="none" id="C_0000605866861866358037&lt;-C_0000204145716468348671" style="stroke: #A80036; stroke-width: 1.0;"/>
    <polygon fill="none" points="1141.41,549.0231,1148.22,528.9531,1155.41,548.8831,1141.41,549.0231" style="stroke: #A80036; stroke-width: 1.0;"/>
    <path d="M530.59,384.4231 C621.27,390.0331 945.48,383.1231 964,394.9531 C993.79,413.9831 1007.31,454.9731 1013.08,480.9131 " fill="none" id="C_0002069520381434407937&lt;-C_0001292034357466653182" style="stroke: #A80036; stroke-width: 1.0;"/>
    <polygon fill="none" points="529.81,391.3831,510.68,382.2731,531.31,377.4631,529.81,391.3831" style="stroke: #A80036; stroke-width: 1.0;"/>
    <path d="M530.58,384.5231 C604.08,389.5731 826.78,387.0331 840,394.9531 C871.38,413.7431 888.27,454.8131 896.18,480.8331 " fill="none" id="C_0002069520381434407937&lt;-C_0001374849051752224500" style="stroke: #A80036; stroke-width: 1.0;"/>
    <polygon fill="none" points="529.75,391.4731,510.69,382.2331,531.35,377.5731,529.75,391.4731" style="stroke: #A80036; stroke-width: 1.0;"/>
    <path d="M530.56,385.5231 C576.42,391.1231 637.24,385.2231 661,394.9531 C705.77,413.2831 745.61,454.4931 767.71,480.6631 " fill="none" id="C_0002069520381434407937&lt;-C_0000724392977093650506" style="stroke: #A80036; stroke-width: 1.0;"/>
    <polygon fill="none" points="529.21,392.4031,510.72,382.0531,531.63,378.6131,529.21,392.4031" style="stroke: #A80036; stroke-width: 1.0;"/>
    <path d="M410.23,396.1431 C359.82,429.0031 320.24,460.1131 294.74,480.8731 " fill="none" id="C_0002069520381434407937&lt;-C_0001400215772842495226" style="stroke: #A80036; stroke-width: 1.0;"/>
    <polygon fill="none" points="406.73,390.0731,427.35,385.1931,414.28,401.8631,406.73,390.0731" style="stroke: #A80036; stroke-width: 1.0;"/>
    <path d="M233.66,544.1131 C223.09,555.2631 211.02,567.0931 199,576.9531 C192.87,581.9731 185.99,586.8731 179.21,591.3331 " fill="none" id="C_0001400215772842495226&lt;-C_0000885514871619471610" style="stroke: #A80036; stroke-width: 1.0;"/>
    <polygon fill="none" points="228.77,539.0931,247.44,529.0731,239.09,548.5531,228.77,539.0931" style="stroke: #A80036; stroke-width: 1.0;"/>
    <path d="M262.54,548.9731 C261.13,562.5331 259.63,576.9931 258.42,588.6331 " fill="none" id="C_0001400215772842495226&lt;-C_0000232638456031681828" style="stroke: #A80036; stroke-width: 1.0;"/>
    <polygon fill="none" points="255.59,548.1231,264.61,528.9531,269.51,549.5731,255.59,548.1231" style="stroke: #A80036; stroke-width: 1.0;"/>
    <path d="M229.83,653.3331 C220.59,664.8331 209.39,676.5531 197,684.9531 C182.69,694.6531 176.27,691.0931 160,696.9531 C154.19,699.0431 148.09,701.3431 142.12,703.6531 " fill="none" id="C_0000232638456031681828&lt;-C_0000817665972547784504" style="stroke: #A80036; stroke-width: 1.0;"/>
    <polygon fill="none" points="224.34,648.9831,241.85,637.0531,235.6,657.3031,224.34,648.9831" style="stroke: #A80036; stroke-width: 1.0;"/>
    <path d="M253.56,656.9731 C252.8,670.5331 251.98,684.9931 251.32,696.6331 " fill="none" id="C_0000232638456031681828&lt;-C_0002280191967493310558" style="stroke: #A80036; stroke-width: 1.0;"/>
    <polygon fill="none" points="246.58,656.5231,254.7,636.9531,260.56,657.3131,246.58,656.5231" style="stroke: #A80036; stroke-width: 1.0;"/>
    <path d="M446.04,276.0231 C372.95,296.0531 270.74,332.9731 200,394.9531 C173.2,418.4331 154.99,456.2031 145.29,480.5431 " fill="none" id="C_0001073500714379115414&lt;-C_0002228653068706235818" style="stroke: #A80036; stroke-width: 1.0;"/>
    <polygon fill="none" points="444.71,269.1331,465.83,270.8131,448.27,282.6731,444.71,269.1331" style="stroke: #A80036; stroke-width: 1.0;"/>
  </g>
</svg>
