<?xml version="1.0" encoding="UTF-8" standalone="no"?><svg xmlns="http://www.w3.org/2000/svg" xmlns:xlink="http://www.w3.org/1999/xlink" contentScriptType="application/ecmascript" contentStyleType="text/css" height="283px" preserveAspectRatio="none" style="width:551px;height:283px;" version="1.1" viewBox="0 0 551 283" width="551px" zoomAndPan="magnify"><defs><filter height="300%" id="f19rchbyaznad4" width="300%" x="-1" y="-1"><feGaussianBlur result="blurOut" stdDeviation="2.0"/><feColorMatrix in="blurOut" result="blurOut2" type="matrix" values="0 0 0 0 0 0 0 0 0 0 0 0 0 0 0 0 0 0 .4 0"/><feOffset dx="4.0" dy="4.0" in="blurOut2" result="blurOut3"/><feBlend in="SourceGraphic" in2="blurOut3" mode="normal"/></filter></defs><g><!--MD5=[b75d17d3ee67ca210c766132488de4b0]
class C_0001117102382624673118--><a href="classclanguml_1_1common_1_1model_1_1decorated__element.html" target="_top" title="Base class for decorated diagram elements" xlink:actuate="onRequest" xlink:href="classclanguml_1_1common_1_1model_1_1decorated__element.html" xlink:show="new" xlink:title="Base class for decorated diagram elements" xlink:type="simple"><rect fill="#FEFECE" filter="url(#f19rchbyaznad4)" height="48" id="C_0001117102382624673118" style="stroke: #A80036; stroke-width: 1.5;" width="261" x="6" y="8"/><ellipse cx="21" cy="24" fill="#ADD1B2" rx="11" ry="11" style="stroke: #A80036; stroke-width: 1.0;"/><path d="M23.9688,29.6406 Q23.3906,29.9375 22.75,30.0781 Q22.1094,30.2344 21.4063,30.2344 Q18.9063,30.2344 17.5781,28.5938 Q16.2656,26.9375 16.2656,23.8125 Q16.2656,20.6875 17.5781,19.0313 Q18.9063,17.375 21.4063,17.375 Q22.1094,17.375 22.75,17.5313 Q23.4063,17.6875 23.9688,17.9844 L23.9688,20.7031 Q23.3438,20.125 22.75,19.8594 Q22.1563,19.5781 21.5313,19.5781 Q20.1875,19.5781 19.5,20.6563 Q18.8125,21.7188 18.8125,23.8125 Q18.8125,25.9063 19.5,26.9844 Q20.1875,28.0469 21.5313,28.0469 Q22.1563,28.0469 22.75,27.7813 Q23.3438,27.5 23.9688,26.9219 L23.9688,29.6406 Z "/><text fill="#000000" font-family="sans-serif" font-size="12" lengthAdjust="spacingAndGlyphs" textLength="229" x="35" y="28.1543">common::model::decorated_element</text><line style="stroke: #A80036; stroke-width: 1.5;" x1="7" x2="266" y1="40" y2="40"/><line style="stroke: #A80036; stroke-width: 1.5;" x1="7" x2="266" y1="48" y2="48"/></a><!--MD5=[39023b0134efb4261990e1927fe4a3ac]
class C_0002077846075979426940--><a href="classclanguml_1_1common_1_1model_1_1stylable__element.html" target="_top" title="Diagram elements to which style can be applied." xlink:actuate="onRequest" xlink:href="classclanguml_1_1common_1_1model_1_1stylable__element.html" xlink:show="new" xlink:title="Diagram elements to which style can be applied." xlink:type="simple"><rect fill="#FEFECE" filter="url(#f19rchbyaznad4)" height="48" id="C_0002077846075979426940" style="stroke: #A80036; stroke-width: 1.5;" width="244" x="295.5" y="116"/><ellipse cx="310.5" cy="132" fill="#ADD1B2" rx="11" ry="11" style="stroke: #A80036; stroke-width: 1.0;"/><path d="M313.4688,137.6406 Q312.8906,137.9375 312.25,138.0781 Q311.6094,138.2344 310.9063,138.2344 Q308.4063,138.2344 307.0781,136.5938 Q305.7656,134.9375 305.7656,131.8125 Q305.7656,128.6875 307.0781,127.0313 Q308.4063,125.375 310.9063,125.375 Q311.6094,125.375 312.25,125.5313 Q312.9063,125.6875 313.4688,125.9844 L313.4688,128.7031 Q312.8438,128.125 312.25,127.8594 Q311.6563,127.5781 311.0313,127.5781 Q309.6875,127.5781 309,128.6563 Q308.3125,129.7188 308.3125,131.8125 Q308.3125,133.9063 309,134.9844 Q309.6875,136.0469 311.0313,136.0469 Q311.6563,136.0469 312.25,135.7813 Q312.8438,135.5 313.4688,134.9219 L313.4688,137.6406 Z "/><text fill="#000000" font-family="sans-serif" font-size="12" lengthAdjust="spacingAndGlyphs" textLength="212" x="324.5" y="136.1543">common::model::stylable_element</text><line style="stroke: #A80036; stroke-width: 1.5;" x1="296.5" x2="538.5" y1="148" y2="148"/><line style="stroke: #A80036; stroke-width: 1.5;" x1="296.5" x2="538.5" y1="156" y2="156"/></a><!--MD5=[f862e5f61ea976202ee196a1ef68e0c4]
class C_0000895261582183440230--><a href="classclanguml_1_1common_1_1model_1_1source__location.html" target="_top" title="Base class of all diagram elements that have source location." xlink:actuate="onRequest" xlink:href="classclanguml_1_1common_1_1model_1_1source__location.html" xlink:show="new" xlink:title="Base class of all diagram elements that have source location." xlink:type="simple"><rect fill="#FEFECE" filter="url(#f19rchbyaznad4)" height="48" id="C_0000895261582183440230" style="stroke: #A80036; stroke-width: 1.5;" width="238" x="302.5" y="8"/><ellipse cx="317.5" cy="24" fill="#ADD1B2" rx="11" ry="11" style="stroke: #A80036; stroke-width: 1.0;"/><path d="M320.4688,29.6406 Q319.8906,29.9375 319.25,30.0781 Q318.6094,30.2344 317.9063,30.2344 Q315.4063,30.2344 314.0781,28.5938 Q312.7656,26.9375 312.7656,23.8125 Q312.7656,20.6875 314.0781,19.0313 Q315.4063,17.375 317.9063,17.375 Q318.6094,17.375 319.25,17.5313 Q319.9063,17.6875 320.4688,17.9844 L320.4688,20.7031 Q319.8438,20.125 319.25,19.8594 Q318.6563,19.5781 318.0313,19.5781 Q316.6875,19.5781 316,20.6563 Q315.3125,21.7188 315.3125,23.8125 Q315.3125,25.9063 316,26.9844 Q316.6875,28.0469 318.0313,28.0469 Q318.6563,28.0469 319.25,27.7813 Q319.8438,27.5 320.4688,26.9219 L320.4688,29.6406 Z "/><text fill="#000000" font-family="sans-serif" font-size="12" lengthAdjust="spacingAndGlyphs" textLength="206" x="331.5" y="28.1543">common::model::source_location</text><line style="stroke: #A80036; stroke-width: 1.5;" x1="303.5" x2="539.5" y1="40" y2="40"/><line style="stroke: #A80036; stroke-width: 1.5;" x1="303.5" x2="539.5" y1="48" y2="48"/></a><!--MD5=[c7954e9554acd525dcb4b1b7d8febda3]
class C_0001073500714379115414--><a href="classclanguml_1_1common_1_1model_1_1diagram__element.html" target="_top" title="Base class for standalone diagram elements." xlink:actuate="onRequest" xlink:href="classclanguml_1_1common_1_1model_1_1diagram__element.html" xlink:show="new" xlink:title="Base class for standalone diagram elements." xlink:type="simple"><rect fill="#FEFECE" filter="url(#f19rchbyaznad4)" height="48" id="C_0001073500714379115414" style="stroke: #A80036; stroke-width: 1.5;" width="247" x="13" y="116"/><ellipse cx="28" cy="132" fill="#ADD1B2" rx="11" ry="11" style="stroke: #A80036; stroke-width: 1.0;"/><path d="M30.9688,137.6406 Q30.3906,137.9375 29.75,138.0781 Q29.1094,138.2344 28.4063,138.2344 Q25.9063,138.2344 24.5781,136.5938 Q23.2656,134.9375 23.2656,131.8125 Q23.2656,128.6875 24.5781,127.0313 Q25.9063,125.375 28.4063,125.375 Q29.1094,125.375 29.75,125.5313 Q30.4063,125.6875 30.9688,125.9844 L30.9688,128.7031 Q30.3438,128.125 29.75,127.8594 Q29.1563,127.5781 28.5313,127.5781 Q27.1875,127.5781 26.5,128.6563 Q25.8125,129.7188 25.8125,131.8125 Q25.8125,133.9063 26.5,134.9844 Q27.1875,136.0469 28.5313,136.0469 Q29.1563,136.0469 29.75,135.7813 Q30.3438,135.5 30.9688,134.9219 L30.9688,137.6406 Z "/><text fill="#000000" font-family="sans-serif" font-size="12" lengthAdjust="spacingAndGlyphs" textLength="215" x="42" y="136.1543">common::model::diagram_element</text><line style="stroke: #A80036; stroke-width: 1.5;" x1="14" x2="259" y1="148" y2="148"/><line style="stroke: #A80036; stroke-width: 1.5;" x1="14" x2="259" y1="156" y2="156"/></a><!--MD5=[525da812764c4fe64f23950e964f77cd]
class C_0000785714713072053129--><a href="classclanguml_1_1common_1_1model_1_1source__file.html" target="_top" title="Diagram element representing some file or directory." xlink:actuate="onRequest" xlink:href="classclanguml_1_1common_1_1model_1_1source__file.html" xlink:show="new" xlink:title="Diagram element representing some file or directory." xlink:type="simple"><rect fill="#FEFECE" filter="url(#f19rchbyaznad4)" height="48" id="C_0000785714713072053129" style="stroke: #A80036; stroke-width: 1.5;" width="206" x="173.5" y="224"/><ellipse cx="188.5" cy="240" fill="#ADD1B2" rx="11" ry="11" style="stroke: #A80036; stroke-width: 1.0;"/><path d="M191.4688,245.6406 Q190.8906,245.9375 190.25,246.0781 Q189.6094,246.2344 188.9063,246.2344 Q186.4063,246.2344 185.0781,244.5938 Q183.7656,242.9375 183.7656,239.8125 Q183.7656,236.6875 185.0781,235.0313 Q186.4063,233.375 188.9063,233.375 Q189.6094,233.375 190.25,233.5313 Q190.9063,233.6875 191.4688,233.9844 L191.4688,236.7031 Q190.8438,236.125 190.25,235.8594 Q189.6563,235.5781 189.0313,235.5781 Q187.6875,235.5781 187,236.6563 Q186.3125,237.7188 186.3125,239.8125 Q186.3125,241.9063 187,242.9844 Q187.6875,244.0469 189.0313,244.0469 Q189.6563,244.0469 190.25,243.7813 Q190.8438,243.5 191.4688,242.9219 L191.4688,245.6406 Z "/><text fill="#000000" font-family="sans-serif" font-size="12" lengthAdjust="spacingAndGlyphs" textLength="174" x="202.5" y="244.1543">common::model::source_file</text><line style="stroke: #A80036; stroke-width: 1.5;" x1="174.5" x2="378.5" y1="256" y2="256"/><line style="stroke: #A80036; stroke-width: 1.5;" x1="174.5" x2="378.5" y1="264" y2="264"/></a><!--MD5=[b5b453d9e1a0ed2bc49634826bf1ff93]
link C_0001073500714379115414 to C_0001117102382624673118--><path d="M147.91,115.68 C150.45,99.6 150.68,78.15 148.58,61.13 " fill="none" id="C_0001073500714379115414-&gt;C_0001117102382624673118" style="stroke: #A80036; stroke-width: 1.0; stroke-dasharray: 7.0,7.0;"/><polygon fill="#A80036" points="147.86,56,145.1577,65.4709,148.5591,60.9509,153.0791,64.3523,147.86,56" style="stroke: #A80036; stroke-width: 1.0;"/><!--MD5=[51b77a83e925bfa56ce9003126dec6da]
reverse link C_0001117102382624673118 to C_0001073500714379115414--><path d="M123.95,76.02 C123.4,89.58 123.99,104.04 125.73,115.68 " fill="none" id="C_0001117102382624673118&lt;-C_0001073500714379115414" style="stroke: #A80036; stroke-width: 1.0;"/><polygon fill="none" points="116.99,75.28,125.77,56,130.93,76.55,116.99,75.28" style="stroke: #A80036; stroke-width: 1.0;"/><!--MD5=[ca2904572ba2305549e4f16921901e5a]
reverse link C_0000895261582183440230 to C_0001073500714379115414--><path d="M340.72,63.04 C295.66,79.8 240.38,100.36 198.71,115.86 " fill="none" id="C_0000895261582183440230&lt;-C_0001073500714379115414" style="stroke: #A80036; stroke-width: 1.0;"/><polygon fill="none" points="338.47,56.41,359.66,56,343.35,69.53,338.47,56.41" style="stroke: #A80036; stroke-width: 1.0;"/><!--MD5=[5ecb1d83165a712adbd5650cef34b86b]
reverse link C_0001073500714379115414 to C_0000785714713072053129--><path d="M182.95,176.17 C203.58,191.79 227.3,209.75 245.7,223.68 " fill="none" id="C_0001073500714379115414&lt;-C_0000785714713072053129" style="stroke: #A80036; stroke-width: 1.0;"/><polygon fill="none" points="178.6,181.65,166.88,164,187.05,170.49,178.6,181.65" style="stroke: #A80036; stroke-width: 1.0;"/><!--MD5=[4f221eabf3421229e7e20303bd40a63c]
reverse link C_0002077846075979426940 to C_0000785714713072053129--><path d="M370.72,176.17 C349.94,191.79 326.05,209.75 307.52,223.68 " fill="none" id="C_0002077846075979426940&lt;-C_0000785714713072053129" style="stroke: #A80036; stroke-width: 1.0;"/><polygon fill="none" points="366.71,170.42,386.91,164,375.13,181.61,366.71,170.42" style="stroke: #A80036; stroke-width: 1.0;"/><!--MD5=[7ac36e55fd2526b1d58f28a48954c66e]
@startuml
class "common::model::decorated_element" as C_0001117102382624673118
class C_0001117102382624673118 [[classclanguml_1_1common_1_1model_1_1decorated__element.html{Base class for decorated diagram elements}]] {
__
}
class "common::model::stylable_element" as C_0002077846075979426940
class C_0002077846075979426940 [[classclanguml_1_1common_1_1model_1_1stylable__element.html{Diagram elements to which style can be applied.}]] {
__
}
class "common::model::source_location" as C_0000895261582183440230
class C_0000895261582183440230 [[classclanguml_1_1common_1_1model_1_1source__location.html{Base class of all diagram elements that have source location.}]] {
__
}
class "common::model::diagram_element" as C_0001073500714379115414
class C_0001073500714379115414 [[classclanguml_1_1common_1_1model_1_1diagram__element.html{Base class for standalone diagram elements.}]] {
__
}
class "common::model::source_file" as C_0000785714713072053129
class C_0000785714713072053129 [[classclanguml_1_1common_1_1model_1_1source__file.html{Diagram element representing some file or directory.}]] {
__
}
C_0001073500714379115414 ..> C_0001117102382624673118
C_0001117102382624673118 <|- - C_0001073500714379115414
C_0000895261582183440230 <|- - C_0001073500714379115414
C_0001073500714379115414 <|- - C_0000785714713072053129
C_0002077846075979426940 <|- - C_0000785714713072053129

@enduml

PlantUML version 1.2020.02(Sun Mar 01 11:22:07 CET 2020)
(GPL source distribution)
Java Runtime: OpenJDK Runtime Environment
JVM: OpenJDK 64-Bit Server VM
Java Version: 11.0.19+7-post-Ubuntu-0ubuntu122.04.1
Operating System: Linux
Default Encoding: UTF-8
Language: en
Country: US
--></g></svg>