<?xml version="1.0" encoding="UTF-8" standalone="no"?><svg xmlns="http://www.w3.org/2000/svg" xmlns:xlink="http://www.w3.org/1999/xlink" contentScriptType="application/ecmascript" contentStyleType="text/css" height="776px" preserveAspectRatio="none" style="width:1384px;height:776px;" version="1.1" viewBox="0 0 1384 776" width="1384px" zoomAndPan="magnify"><defs><filter height="300%" id="f1awekxfls0c7n" width="300%" x="-1" y="-1"><feGaussianBlur result="blurOut" stdDeviation="2.0"/><feColorMatrix in="blurOut" result="blurOut2" type="matrix" values="0 0 0 0 0 0 0 0 0 0 0 0 0 0 0 0 0 0 .4 0"/><feOffset dx="4.0" dy="4.0" in="blurOut2" result="blurOut3"/><feBlend in="SourceGraphic" in2="blurOut3" mode="normal"/></filter></defs><g><!--MD5=[7ba9c127878a642fef3f451151dda753]
cluster C_0000316605034920222648--><polygon fill="#FFFFFF" filter="url(#f1awekxfls0c7n)" points="500,24,573,24,580,46.2969,798,46.2969,798,548,500,548,500,24" style="stroke: #000000; stroke-width: 1.5;"/><line style="stroke: #000000; stroke-width: 1.5;" x1="500" x2="580" y1="46.2969" y2="46.2969"/><text fill="#000000" font-family="sans-serif" font-size="14" font-weight="bold" lengthAdjust="spacingAndGlyphs" textLength="67" x="504" y="38.9951">common</text><!--MD5=[f7110622f5be760311cd0491b75bf8f9]
cluster C_0000083721806430512831--><polygon fill="#FFFFFF" filter="url(#f1awekxfls0c7n)" points="524,67,578,67,585,89.2969,774,89.2969,774,524,524,524,524,67" style="stroke: #000000; stroke-width: 1.5;"/><line style="stroke: #000000; stroke-width: 1.5;" x1="524" x2="585" y1="89.2969" y2="89.2969"/><text fill="#000000" font-family="sans-serif" font-size="14" font-weight="bold" lengthAdjust="spacingAndGlyphs" textLength="48" x="528" y="81.9951">model</text><!--MD5=[09e992b259734a9820adb2642bf347d2]
cluster C_0002240167036201725606--><polygon fill="#FFFFFF" filter="url(#f1awekxfls0c7n)" points="822,382,938,382,945,404.2969,1362,404.2969,1362,656,822,656,822,382" style="stroke: #000000; stroke-width: 1.5;"/><line style="stroke: #000000; stroke-width: 1.5;" x1="822" x2="945" y1="404.2969" y2="404.2969"/><text fill="#000000" font-family="sans-serif" font-size="14" font-weight="bold" lengthAdjust="spacingAndGlyphs" textLength="110" x="826" y="396.9951">class_diagram</text><!--MD5=[5d123d1ba3dda692cf099252127394e7]
cluster C_0000897124234964432620--><polygon fill="#FFFFFF" filter="url(#f1awekxfls0c7n)" points="846,425,900,425,907,447.2969,1338,447.2969,1338,632,846,632,846,425" style="stroke: #000000; stroke-width: 1.5;"/><line style="stroke: #000000; stroke-width: 1.5;" x1="846" x2="907" y1="447.2969" y2="447.2969"/><text fill="#000000" font-family="sans-serif" font-size="14" font-weight="bold" lengthAdjust="spacingAndGlyphs" textLength="48" x="850" y="439.9951">model</text><!--MD5=[2319765f5fef5e41f5b55adb85cd73ea]
cluster C_0001521862840957629236--><polygon fill="#FFFFFF" filter="url(#f1awekxfls0c7n)" points="22,382,176,382,183,404.2969,476,404.2969,476,764,22,764,22,382" style="stroke: #000000; stroke-width: 1.5;"/><line style="stroke: #000000; stroke-width: 1.5;" x1="22" x2="183" y1="404.2969" y2="404.2969"/><text fill="#000000" font-family="sans-serif" font-size="14" font-weight="bold" lengthAdjust="spacingAndGlyphs" textLength="148" x="26" y="396.9951">sequence_diagram</text><!--MD5=[aff6d1ed1f9fc56ba8376cf20ecae299]
cluster C_0002206969880830639264--><polygon fill="#FFFFFF" filter="url(#f1awekxfls0c7n)" points="46,425,100,425,107,447.2969,452,447.2969,452,740,46,740,46,425" style="stroke: #000000; stroke-width: 1.5;"/><line style="stroke: #000000; stroke-width: 1.5;" x1="46" x2="107" y1="447.2969" y2="447.2969"/><text fill="#000000" font-family="sans-serif" font-size="14" font-weight="bold" lengthAdjust="spacingAndGlyphs" textLength="48" x="50" y="439.9951">model</text><!--MD5=[f862e5f61ea976202ee196a1ef68e0c4]
class C_0000895261582183440230--><a href="classclanguml_1_1common_1_1model_1_1source__location.html" target="_top" title="Base class of all diagram elements that have source location." xlink:actuate="onRequest" xlink:href="classclanguml_1_1common_1_1model_1_1source__location.html" xlink:show="new" xlink:title="Base class of all diagram elements that have source location." xlink:type="simple"><rect fill="#FEFECE" filter="url(#f1awekxfls0c7n)" height="48" id="C_0000895261582183440230" style="stroke: #A80036; stroke-width: 1.5;" width="131" x="604.5" y="102"/><ellipse cx="619.5" cy="118" fill="#ADD1B2" rx="11" ry="11" style="stroke: #A80036; stroke-width: 1.0;"/><path d="M622.4688,123.6406 Q621.8906,123.9375 621.25,124.0781 Q620.6094,124.2344 619.9063,124.2344 Q617.4063,124.2344 616.0781,122.5938 Q614.7656,120.9375 614.7656,117.8125 Q614.7656,114.6875 616.0781,113.0313 Q617.4063,111.375 619.9063,111.375 Q620.6094,111.375 621.25,111.5313 Q621.9063,111.6875 622.4688,111.9844 L622.4688,114.7031 Q621.8438,114.125 621.25,113.8594 Q620.6563,113.5781 620.0313,113.5781 Q618.6875,113.5781 618,114.6563 Q617.3125,115.7188 617.3125,117.8125 Q617.3125,119.9063 618,120.9844 Q618.6875,122.0469 620.0313,122.0469 Q620.6563,122.0469 621.25,121.7813 Q621.8438,121.5 622.4688,120.9219 L622.4688,123.6406 Z "/><text fill="#000000" font-family="sans-serif" font-size="12" lengthAdjust="spacingAndGlyphs" textLength="99" x="633.5" y="122.1543">source_location</text><line style="stroke: #A80036; stroke-width: 1.5;" x1="605.5" x2="734.5" y1="134" y2="134"/><line style="stroke: #A80036; stroke-width: 1.5;" x1="605.5" x2="734.5" y1="142" y2="142"/></a><!--MD5=[c7954e9554acd525dcb4b1b7d8febda3]
class C_0001073500714379115414--><a href="classclanguml_1_1common_1_1model_1_1diagram__element.html" target="_top" title="Base class for standalone diagram elements." xlink:actuate="onRequest" xlink:href="classclanguml_1_1common_1_1model_1_1diagram__element.html" xlink:show="new" xlink:title="Base class for standalone diagram elements." xlink:type="simple"><rect fill="#FEFECE" filter="url(#f1awekxfls0c7n)" height="48" id="C_0001073500714379115414" style="stroke: #A80036; stroke-width: 1.5;" width="140" x="579" y="210"/><ellipse cx="594" cy="226" fill="#ADD1B2" rx="11" ry="11" style="stroke: #A80036; stroke-width: 1.0;"/><path d="M596.9688,231.6406 Q596.3906,231.9375 595.75,232.0781 Q595.1094,232.2344 594.4063,232.2344 Q591.9063,232.2344 590.5781,230.5938 Q589.2656,228.9375 589.2656,225.8125 Q589.2656,222.6875 590.5781,221.0313 Q591.9063,219.375 594.4063,219.375 Q595.1094,219.375 595.75,219.5313 Q596.4063,219.6875 596.9688,219.9844 L596.9688,222.7031 Q596.3438,222.125 595.75,221.8594 Q595.1563,221.5781 594.5313,221.5781 Q593.1875,221.5781 592.5,222.6563 Q591.8125,223.7188 591.8125,225.8125 Q591.8125,227.9063 592.5,228.9844 Q593.1875,230.0469 594.5313,230.0469 Q595.1563,230.0469 595.75,229.7813 Q596.3438,229.5 596.9688,228.9219 L596.9688,231.6406 Z "/><text fill="#000000" font-family="sans-serif" font-size="12" lengthAdjust="spacingAndGlyphs" textLength="108" x="608" y="230.1543">diagram_element</text><line style="stroke: #A80036; stroke-width: 1.5;" x1="580" x2="718" y1="242" y2="242"/><line style="stroke: #A80036; stroke-width: 1.5;" x1="580" x2="718" y1="250" y2="250"/></a><!--MD5=[61ee72164152887ec594509a8c6f7a5a]
class C_0002069520381434407937--><a href="classclanguml_1_1common_1_1model_1_1element.html" target="_top" title="Base class for any element qualified by namespace." xlink:actuate="onRequest" xlink:href="classclanguml_1_1common_1_1model_1_1element.html" xlink:show="new" xlink:title="Base class for any element qualified by namespace." xlink:type="simple"><rect fill="#FEFECE" filter="url(#f1awekxfls0c7n)" height="48" id="C_0002069520381434407937" style="stroke: #A80036; stroke-width: 1.5;" width="83" x="540.5" y="318"/><ellipse cx="555.5" cy="334" fill="#ADD1B2" rx="11" ry="11" style="stroke: #A80036; stroke-width: 1.0;"/><path d="M558.4688,339.6406 Q557.8906,339.9375 557.25,340.0781 Q556.6094,340.2344 555.9063,340.2344 Q553.4063,340.2344 552.0781,338.5938 Q550.7656,336.9375 550.7656,333.8125 Q550.7656,330.6875 552.0781,329.0313 Q553.4063,327.375 555.9063,327.375 Q556.6094,327.375 557.25,327.5313 Q557.9063,327.6875 558.4688,327.9844 L558.4688,330.7031 Q557.8438,330.125 557.25,329.8594 Q556.6563,329.5781 556.0313,329.5781 Q554.6875,329.5781 554,330.6563 Q553.3125,331.7188 553.3125,333.8125 Q553.3125,335.9063 554,336.9844 Q554.6875,338.0469 556.0313,338.0469 Q556.6563,338.0469 557.25,337.7813 Q557.8438,337.5 558.4688,336.9219 L558.4688,339.6406 Z "/><text fill="#000000" font-family="sans-serif" font-size="12" lengthAdjust="spacingAndGlyphs" textLength="51" x="569.5" y="338.1543">element</text><line style="stroke: #A80036; stroke-width: 1.5;" x1="541.5" x2="622.5" y1="350" y2="350"/><line style="stroke: #A80036; stroke-width: 1.5;" x1="541.5" x2="622.5" y1="358" y2="358"/></a><!--MD5=[41fe75f5c358e82f7c3b024ae1be5ac2]
class C_0002143286684830686854--><a href="classclanguml_1_1common_1_1model_1_1package.html" target="_top" title="Diagram element representing namespace or directory package" xlink:actuate="onRequest" xlink:href="classclanguml_1_1common_1_1model_1_1package.html" xlink:show="new" xlink:title="Diagram element representing namespace or directory package" xlink:type="simple"><rect fill="#FEFECE" filter="url(#f1awekxfls0c7n)" height="48" id="C_0002143286684830686854" style="stroke: #A80036; stroke-width: 1.5;" width="86" x="540" y="460"/><ellipse cx="555" cy="476" fill="#ADD1B2" rx="11" ry="11" style="stroke: #A80036; stroke-width: 1.0;"/><path d="M557.9688,481.6406 Q557.3906,481.9375 556.75,482.0781 Q556.1094,482.2344 555.4063,482.2344 Q552.9063,482.2344 551.5781,480.5938 Q550.2656,478.9375 550.2656,475.8125 Q550.2656,472.6875 551.5781,471.0313 Q552.9063,469.375 555.4063,469.375 Q556.1094,469.375 556.75,469.5313 Q557.4063,469.6875 557.9688,469.9844 L557.9688,472.7031 Q557.3438,472.125 556.75,471.8594 Q556.1563,471.5781 555.5313,471.5781 Q554.1875,471.5781 553.5,472.6563 Q552.8125,473.7188 552.8125,475.8125 Q552.8125,477.9063 553.5,478.9844 Q554.1875,480.0469 555.5313,480.0469 Q556.1563,480.0469 556.75,479.7813 Q557.3438,479.5 557.9688,478.9219 L557.9688,481.6406 Z "/><text fill="#000000" font-family="sans-serif" font-size="12" lengthAdjust="spacingAndGlyphs" textLength="54" x="569" y="480.1543">package</text><line style="stroke: #A80036; stroke-width: 1.5;" x1="541" x2="625" y1="492" y2="492"/><line style="stroke: #A80036; stroke-width: 1.5;" x1="541" x2="625" y1="500" y2="500"/></a><!--MD5=[525da812764c4fe64f23950e964f77cd]
class C_0000785714713072053129--><a href="classclanguml_1_1common_1_1model_1_1source__file.html" target="_top" title="Diagram element representing some file or directory." xlink:actuate="onRequest" xlink:href="classclanguml_1_1common_1_1model_1_1source__file.html" xlink:show="new" xlink:title="Diagram element representing some file or directory." xlink:type="simple"><rect fill="#FEFECE" filter="url(#f1awekxfls0c7n)" height="48" id="C_0000785714713072053129" style="stroke: #A80036; stroke-width: 1.5;" width="99" x="658.5" y="318"/><ellipse cx="673.5" cy="334" fill="#ADD1B2" rx="11" ry="11" style="stroke: #A80036; stroke-width: 1.0;"/><path d="M676.4688,339.6406 Q675.8906,339.9375 675.25,340.0781 Q674.6094,340.2344 673.9063,340.2344 Q671.4063,340.2344 670.0781,338.5938 Q668.7656,336.9375 668.7656,333.8125 Q668.7656,330.6875 670.0781,329.0313 Q671.4063,327.375 673.9063,327.375 Q674.6094,327.375 675.25,327.5313 Q675.9063,327.6875 676.4688,327.9844 L676.4688,330.7031 Q675.8438,330.125 675.25,329.8594 Q674.6563,329.5781 674.0313,329.5781 Q672.6875,329.5781 672,330.6563 Q671.3125,331.7188 671.3125,333.8125 Q671.3125,335.9063 672,336.9844 Q672.6875,338.0469 674.0313,338.0469 Q674.6563,338.0469 675.25,337.7813 Q675.8438,337.5 676.4688,336.9219 L676.4688,339.6406 Z "/><text fill="#000000" font-family="sans-serif" font-size="12" lengthAdjust="spacingAndGlyphs" textLength="67" x="687.5" y="338.1543">source_file</text><line style="stroke: #A80036; stroke-width: 1.5;" x1="659.5" x2="756.5" y1="350" y2="350"/><line style="stroke: #A80036; stroke-width: 1.5;" x1="659.5" x2="756.5" y1="358" y2="358"/></a><!--MD5=[b486570858fa145169115e7c774ba114]
class C_0000605866861866358037--><a href="classclanguml_1_1class__diagram_1_1model_1_1class__element.html" target="_top" title="class_element" xlink:actuate="onRequest" xlink:href="classclanguml_1_1class__diagram_1_1model_1_1class__element.html" xlink:show="new" xlink:title="class_element" xlink:type="simple"><rect fill="#FEFECE" filter="url(#f1awekxfls0c7n)" height="48" id="C_0000605866861866358037" style="stroke: #A80036; stroke-width: 1.5;" width="121" x="1200.5" y="460"/><ellipse cx="1215.5" cy="476" fill="#ADD1B2" rx="11" ry="11" style="stroke: #A80036; stroke-width: 1.0;"/><path d="M1218.4688,481.6406 Q1217.8906,481.9375 1217.25,482.0781 Q1216.6094,482.2344 1215.9063,482.2344 Q1213.4063,482.2344 1212.0781,480.5938 Q1210.7656,478.9375 1210.7656,475.8125 Q1210.7656,472.6875 1212.0781,471.0313 Q1213.4063,469.375 1215.9063,469.375 Q1216.6094,469.375 1217.25,469.5313 Q1217.9063,469.6875 1218.4688,469.9844 L1218.4688,472.7031 Q1217.8438,472.125 1217.25,471.8594 Q1216.6563,471.5781 1216.0313,471.5781 Q1214.6875,471.5781 1214,472.6563 Q1213.3125,473.7188 1213.3125,475.8125 Q1213.3125,477.9063 1214,478.9844 Q1214.6875,480.0469 1216.0313,480.0469 Q1216.6563,480.0469 1217.25,479.7813 Q1217.8438,479.5 1218.4688,478.9219 L1218.4688,481.6406 Z "/><text fill="#000000" font-family="sans-serif" font-size="12" lengthAdjust="spacingAndGlyphs" textLength="89" x="1229.5" y="480.1543">class_element</text><line style="stroke: #A80036; stroke-width: 1.5;" x1="1201.5" x2="1320.5" y1="492" y2="492"/><line style="stroke: #A80036; stroke-width: 1.5;" x1="1201.5" x2="1320.5" y1="500" y2="500"/></a><!--MD5=[a2b7048e31aebc0ffeb4eb6e2a1be8d2]
class C_0001796282762108527255--><a href="classclanguml_1_1class__diagram_1_1model_1_1class__member.html" target="_top" title="class_member" xlink:actuate="onRequest" xlink:href="classclanguml_1_1class__diagram_1_1model_1_1class__member.html" xlink:show="new" xlink:title="class_member" xlink:type="simple"><rect fill="#FEFECE" filter="url(#f1awekxfls0c7n)" height="48" id="C_0001796282762108527255" style="stroke: #A80036; stroke-width: 1.5;" width="121" x="1046.5" y="568"/><ellipse cx="1061.5" cy="584" fill="#ADD1B2" rx="11" ry="11" style="stroke: #A80036; stroke-width: 1.0;"/><path d="M1064.4688,589.6406 Q1063.8906,589.9375 1063.25,590.0781 Q1062.6094,590.2344 1061.9063,590.2344 Q1059.4063,590.2344 1058.0781,588.5938 Q1056.7656,586.9375 1056.7656,583.8125 Q1056.7656,580.6875 1058.0781,579.0313 Q1059.4063,577.375 1061.9063,577.375 Q1062.6094,577.375 1063.25,577.5313 Q1063.9063,577.6875 1064.4688,577.9844 L1064.4688,580.7031 Q1063.8438,580.125 1063.25,579.8594 Q1062.6563,579.5781 1062.0313,579.5781 Q1060.6875,579.5781 1060,580.6563 Q1059.3125,581.7188 1059.3125,583.8125 Q1059.3125,585.9063 1060,586.9844 Q1060.6875,588.0469 1062.0313,588.0469 Q1062.6563,588.0469 1063.25,587.7813 Q1063.8438,587.5 1064.4688,586.9219 L1064.4688,589.6406 Z "/><text fill="#000000" font-family="sans-serif" font-size="12" lengthAdjust="spacingAndGlyphs" textLength="89" x="1075.5" y="588.1543">class_member</text><line style="stroke: #A80036; stroke-width: 1.5;" x1="1047.5" x2="1166.5" y1="600" y2="600"/><line style="stroke: #A80036; stroke-width: 1.5;" x1="1047.5" x2="1166.5" y1="608" y2="608"/></a><!--MD5=[3fbd1476055f798f732379619b702fab]
class C_0000204145716468348671--><a href="classclanguml_1_1class__diagram_1_1model_1_1class__method.html" target="_top" title="class_method" xlink:actuate="onRequest" xlink:href="classclanguml_1_1class__diagram_1_1model_1_1class__method.html" xlink:show="new" xlink:title="class_method" xlink:type="simple"><rect fill="#FEFECE" filter="url(#f1awekxfls0c7n)" height="48" id="C_0000204145716468348671" style="stroke: #A80036; stroke-width: 1.5;" width="118" x="1203" y="568"/><ellipse cx="1218" cy="584" fill="#ADD1B2" rx="11" ry="11" style="stroke: #A80036; stroke-width: 1.0;"/><path d="M1220.9688,589.6406 Q1220.3906,589.9375 1219.75,590.0781 Q1219.1094,590.2344 1218.4063,590.2344 Q1215.9063,590.2344 1214.5781,588.5938 Q1213.2656,586.9375 1213.2656,583.8125 Q1213.2656,580.6875 1214.5781,579.0313 Q1215.9063,577.375 1218.4063,577.375 Q1219.1094,577.375 1219.75,577.5313 Q1220.4063,577.6875 1220.9688,577.9844 L1220.9688,580.7031 Q1220.3438,580.125 1219.75,579.8594 Q1219.1563,579.5781 1218.5313,579.5781 Q1217.1875,579.5781 1216.5,580.6563 Q1215.8125,581.7188 1215.8125,583.8125 Q1215.8125,585.9063 1216.5,586.9844 Q1217.1875,588.0469 1218.5313,588.0469 Q1219.1563,588.0469 1219.75,587.7813 Q1220.3438,587.5 1220.9688,586.9219 L1220.9688,589.6406 Z "/><text fill="#000000" font-family="sans-serif" font-size="12" lengthAdjust="spacingAndGlyphs" textLength="86" x="1232" y="588.1543">class_method</text><line style="stroke: #A80036; stroke-width: 1.5;" x1="1204" x2="1320" y1="600" y2="600"/><line style="stroke: #A80036; stroke-width: 1.5;" x1="1204" x2="1320" y1="608" y2="608"/></a><!--MD5=[ae47341ca1a22ddcd7d0b4ea2daf1996]
class C_0001292034357466653182--><a href="classclanguml_1_1class__diagram_1_1model_1_1class__.html" target="_top" title="Diagram element representing a class or class template." xlink:actuate="onRequest" xlink:href="classclanguml_1_1class__diagram_1_1model_1_1class__.html" xlink:show="new" xlink:title="Diagram element representing a class or class template." xlink:type="simple"><rect fill="#FEFECE" filter="url(#f1awekxfls0c7n)" height="48" id="C_0001292034357466653182" style="stroke: #A80036; stroke-width: 1.5;" width="70" x="1095" y="460"/><ellipse cx="1110" cy="476" fill="#ADD1B2" rx="11" ry="11" style="stroke: #A80036; stroke-width: 1.0;"/><path d="M1112.9688,481.6406 Q1112.3906,481.9375 1111.75,482.0781 Q1111.1094,482.2344 1110.4063,482.2344 Q1107.9063,482.2344 1106.5781,480.5938 Q1105.2656,478.9375 1105.2656,475.8125 Q1105.2656,472.6875 1106.5781,471.0313 Q1107.9063,469.375 1110.4063,469.375 Q1111.1094,469.375 1111.75,469.5313 Q1112.4063,469.6875 1112.9688,469.9844 L1112.9688,472.7031 Q1112.3438,472.125 1111.75,471.8594 Q1111.1563,471.5781 1110.5313,471.5781 Q1109.1875,471.5781 1108.5,472.6563 Q1107.8125,473.7188 1107.8125,475.8125 Q1107.8125,477.9063 1108.5,478.9844 Q1109.1875,480.0469 1110.5313,480.0469 Q1111.1563,480.0469 1111.75,479.7813 Q1112.3438,479.5 1112.9688,478.9219 L1112.9688,481.6406 Z "/><text fill="#000000" font-family="sans-serif" font-size="12" lengthAdjust="spacingAndGlyphs" textLength="38" x="1124" y="480.1543">class_</text><line style="stroke: #A80036; stroke-width: 1.5;" x1="1096" x2="1164" y1="492" y2="492"/><line style="stroke: #A80036; stroke-width: 1.5;" x1="1096" x2="1164" y1="500" y2="500"/></a><!--MD5=[dd3d40541e24383f89990969973b4760]
class C_0001374849051752224500--><a href="classclanguml_1_1class__diagram_1_1model_1_1concept__.html" target="_top" title="concept_" xlink:actuate="onRequest" xlink:href="classclanguml_1_1class__diagram_1_1model_1_1concept__.html" xlink:show="new" xlink:title="concept_" xlink:type="simple"><rect fill="#FEFECE" filter="url(#f1awekxfls0c7n)" height="48" id="C_0001374849051752224500" style="stroke: #A80036; stroke-width: 1.5;" width="89" x="970.5" y="460"/><ellipse cx="985.5" cy="476" fill="#ADD1B2" rx="11" ry="11" style="stroke: #A80036; stroke-width: 1.0;"/><path d="M988.4688,481.6406 Q987.8906,481.9375 987.25,482.0781 Q986.6094,482.2344 985.9063,482.2344 Q983.4063,482.2344 982.0781,480.5938 Q980.7656,478.9375 980.7656,475.8125 Q980.7656,472.6875 982.0781,471.0313 Q983.4063,469.375 985.9063,469.375 Q986.6094,469.375 987.25,469.5313 Q987.9063,469.6875 988.4688,469.9844 L988.4688,472.7031 Q987.8438,472.125 987.25,471.8594 Q986.6563,471.5781 986.0313,471.5781 Q984.6875,471.5781 984,472.6563 Q983.3125,473.7188 983.3125,475.8125 Q983.3125,477.9063 984,478.9844 Q984.6875,480.0469 986.0313,480.0469 Q986.6563,480.0469 987.25,479.7813 Q987.8438,479.5 988.4688,478.9219 L988.4688,481.6406 Z "/><text fill="#000000" font-family="sans-serif" font-size="12" lengthAdjust="spacingAndGlyphs" textLength="57" x="999.5" y="480.1543">concept_</text><line style="stroke: #A80036; stroke-width: 1.5;" x1="971.5" x2="1058.5" y1="492" y2="492"/><line style="stroke: #A80036; stroke-width: 1.5;" x1="971.5" x2="1058.5" y1="500" y2="500"/></a><!--MD5=[ad7c1a05bec632e2a3018185b58507d2]
class C_0000724392977093650506--><a href="classclanguml_1_1class__diagram_1_1model_1_1enum__.html" target="_top" title="enum_" xlink:actuate="onRequest" xlink:href="classclanguml_1_1class__diagram_1_1model_1_1enum__.html" xlink:show="new" xlink:title="enum_" xlink:type="simple"><rect fill="#FEFECE" filter="url(#f1awekxfls0c7n)" height="48" id="C_0000724392977093650506" style="stroke: #A80036; stroke-width: 1.5;" width="73" x="862.5" y="460"/><ellipse cx="877.5" cy="476" fill="#ADD1B2" rx="11" ry="11" style="stroke: #A80036; stroke-width: 1.0;"/><path d="M880.4688,481.6406 Q879.8906,481.9375 879.25,482.0781 Q878.6094,482.2344 877.9063,482.2344 Q875.4063,482.2344 874.0781,480.5938 Q872.7656,478.9375 872.7656,475.8125 Q872.7656,472.6875 874.0781,471.0313 Q875.4063,469.375 877.9063,469.375 Q878.6094,469.375 879.25,469.5313 Q879.9063,469.6875 880.4688,469.9844 L880.4688,472.7031 Q879.8438,472.125 879.25,471.8594 Q878.6563,471.5781 878.0313,471.5781 Q876.6875,471.5781 876,472.6563 Q875.3125,473.7188 875.3125,475.8125 Q875.3125,477.9063 876,478.9844 Q876.6875,480.0469 878.0313,480.0469 Q878.6563,480.0469 879.25,479.7813 Q879.8438,479.5 880.4688,478.9219 L880.4688,481.6406 Z "/><text fill="#000000" font-family="sans-serif" font-size="12" lengthAdjust="spacingAndGlyphs" textLength="41" x="891.5" y="480.1543">enum_</text><line style="stroke: #A80036; stroke-width: 1.5;" x1="863.5" x2="934.5" y1="492" y2="492"/><line style="stroke: #A80036; stroke-width: 1.5;" x1="863.5" x2="934.5" y1="500" y2="500"/></a><!--MD5=[505367997c2b7099e4ddff1763d1acb5]
class C_0001400215772842495226--><a href="structclanguml_1_1sequence__diagram_1_1model_1_1participant.html" target="_top" title="participant" xlink:actuate="onRequest" xlink:href="structclanguml_1_1sequence__diagram_1_1model_1_1participant.html" xlink:show="new" xlink:title="participant" xlink:type="simple"><rect fill="#FEFECE" filter="url(#f1awekxfls0c7n)" height="48" id="C_0001400215772842495226" style="stroke: #A80036; stroke-width: 1.5;" width="100" x="324" y="460"/><ellipse cx="339" cy="476" fill="#ADD1B2" rx="11" ry="11" style="stroke: #A80036; stroke-width: 1.0;"/><path d="M341.9688,481.6406 Q341.3906,481.9375 340.75,482.0781 Q340.1094,482.2344 339.4063,482.2344 Q336.9063,482.2344 335.5781,480.5938 Q334.2656,478.9375 334.2656,475.8125 Q334.2656,472.6875 335.5781,471.0313 Q336.9063,469.375 339.4063,469.375 Q340.1094,469.375 340.75,469.5313 Q341.4063,469.6875 341.9688,469.9844 L341.9688,472.7031 Q341.3438,472.125 340.75,471.8594 Q340.1563,471.5781 339.5313,471.5781 Q338.1875,471.5781 337.5,472.6563 Q336.8125,473.7188 336.8125,475.8125 Q336.8125,477.9063 337.5,478.9844 Q338.1875,480.0469 339.5313,480.0469 Q340.1563,480.0469 340.75,479.7813 Q341.3438,479.5 341.9688,478.9219 L341.9688,481.6406 Z "/><text fill="#000000" font-family="sans-serif" font-size="12" lengthAdjust="spacingAndGlyphs" textLength="68" x="353" y="480.1543">participant</text><line style="stroke: #A80036; stroke-width: 1.5;" x1="325" x2="423" y1="492" y2="492"/><line style="stroke: #A80036; stroke-width: 1.5;" x1="325" x2="423" y1="500" y2="500"/></a><!--MD5=[b4d475f36669eac2ac4b1a7424da64db]
class C_0000885514871619471610--><a href="structclanguml_1_1sequence__diagram_1_1model_1_1class__.html" target="_top" title="class_" xlink:actuate="onRequest" xlink:href="structclanguml_1_1sequence__diagram_1_1model_1_1class__.html" xlink:show="new" xlink:title="class_" xlink:type="simple"><rect fill="#FEFECE" filter="url(#f1awekxfls0c7n)" height="48" id="C_0000885514871619471610" style="stroke: #A80036; stroke-width: 1.5;" width="70" x="141" y="568"/><ellipse cx="156" cy="584" fill="#ADD1B2" rx="11" ry="11" style="stroke: #A80036; stroke-width: 1.0;"/><path d="M158.9688,589.6406 Q158.3906,589.9375 157.75,590.0781 Q157.1094,590.2344 156.4063,590.2344 Q153.9063,590.2344 152.5781,588.5938 Q151.2656,586.9375 151.2656,583.8125 Q151.2656,580.6875 152.5781,579.0313 Q153.9063,577.375 156.4063,577.375 Q157.1094,577.375 157.75,577.5313 Q158.4063,577.6875 158.9688,577.9844 L158.9688,580.7031 Q158.3438,580.125 157.75,579.8594 Q157.1563,579.5781 156.5313,579.5781 Q155.1875,579.5781 154.5,580.6563 Q153.8125,581.7188 153.8125,583.8125 Q153.8125,585.9063 154.5,586.9844 Q155.1875,588.0469 156.5313,588.0469 Q157.1563,588.0469 157.75,587.7813 Q158.3438,587.5 158.9688,586.9219 L158.9688,589.6406 Z "/><text fill="#000000" font-family="sans-serif" font-size="12" lengthAdjust="spacingAndGlyphs" textLength="38" x="170" y="588.1543">class_</text><line style="stroke: #A80036; stroke-width: 1.5;" x1="142" x2="210" y1="600" y2="600"/><line style="stroke: #A80036; stroke-width: 1.5;" x1="142" x2="210" y1="608" y2="608"/></a><!--MD5=[de5a82e666bdb24735685a0a35a357d3]
class C_0001701531547288995691--><a href="structclanguml_1_1sequence__diagram_1_1model_1_1lambda.html" target="_top" title="lambda" xlink:actuate="onRequest" xlink:href="structclanguml_1_1sequence__diagram_1_1model_1_1lambda.html" xlink:show="new" xlink:title="lambda" xlink:type="simple"><rect fill="#FEFECE" filter="url(#f1awekxfls0c7n)" height="48" id="C_0001701531547288995691" style="stroke: #A80036; stroke-width: 1.5;" width="78" x="62" y="676"/><ellipse cx="77" cy="692" fill="#ADD1B2" rx="11" ry="11" style="stroke: #A80036; stroke-width: 1.0;"/><path d="M79.9688,697.6406 Q79.3906,697.9375 78.75,698.0781 Q78.1094,698.2344 77.4063,698.2344 Q74.9063,698.2344 73.5781,696.5938 Q72.2656,694.9375 72.2656,691.8125 Q72.2656,688.6875 73.5781,687.0313 Q74.9063,685.375 77.4063,685.375 Q78.1094,685.375 78.75,685.5313 Q79.4063,685.6875 79.9688,685.9844 L79.9688,688.7031 Q79.3438,688.125 78.75,687.8594 Q78.1563,687.5781 77.5313,687.5781 Q76.1875,687.5781 75.5,688.6563 Q74.8125,689.7188 74.8125,691.8125 Q74.8125,693.9063 75.5,694.9844 Q76.1875,696.0469 77.5313,696.0469 Q78.1563,696.0469 78.75,695.7813 Q79.3438,695.5 79.9688,694.9219 L79.9688,697.6406 Z "/><text fill="#000000" font-family="sans-serif" font-size="12" lengthAdjust="spacingAndGlyphs" textLength="46" x="91" y="696.1543">lambda</text><line style="stroke: #A80036; stroke-width: 1.5;" x1="63" x2="139" y1="708" y2="708"/><line style="stroke: #A80036; stroke-width: 1.5;" x1="63" x2="139" y1="716" y2="716"/></a><!--MD5=[fea9086604aaaceeec1cf807579b2064]
class C_0000232638456031681828--><a href="structclanguml_1_1sequence__diagram_1_1model_1_1function.html" target="_top" title="function" xlink:actuate="onRequest" xlink:href="structclanguml_1_1sequence__diagram_1_1model_1_1function.html" xlink:show="new" xlink:title="function" xlink:type="simple"><rect fill="#FEFECE" filter="url(#f1awekxfls0c7n)" height="48" id="C_0000232638456031681828" style="stroke: #A80036; stroke-width: 1.5;" width="83" x="321.5" y="568"/><ellipse cx="336.5" cy="584" fill="#ADD1B2" rx="11" ry="11" style="stroke: #A80036; stroke-width: 1.0;"/><path d="M339.4688,589.6406 Q338.8906,589.9375 338.25,590.0781 Q337.6094,590.2344 336.9063,590.2344 Q334.4063,590.2344 333.0781,588.5938 Q331.7656,586.9375 331.7656,583.8125 Q331.7656,580.6875 333.0781,579.0313 Q334.4063,577.375 336.9063,577.375 Q337.6094,577.375 338.25,577.5313 Q338.9063,577.6875 339.4688,577.9844 L339.4688,580.7031 Q338.8438,580.125 338.25,579.8594 Q337.6563,579.5781 337.0313,579.5781 Q335.6875,579.5781 335,580.6563 Q334.3125,581.7188 334.3125,583.8125 Q334.3125,585.9063 335,586.9844 Q335.6875,588.0469 337.0313,588.0469 Q337.6563,588.0469 338.25,587.7813 Q338.8438,587.5 339.4688,586.9219 L339.4688,589.6406 Z "/><text fill="#000000" font-family="sans-serif" font-size="12" lengthAdjust="spacingAndGlyphs" textLength="51" x="350.5" y="588.1543">function</text><line style="stroke: #A80036; stroke-width: 1.5;" x1="322.5" x2="403.5" y1="600" y2="600"/><line style="stroke: #A80036; stroke-width: 1.5;" x1="322.5" x2="403.5" y1="608" y2="608"/></a><!--MD5=[78f12b5739bf72f527e2506c0e981f4b]
class C_0000817665972547784504--><a href="structclanguml_1_1sequence__diagram_1_1model_1_1method.html" target="_top" title="method" xlink:actuate="onRequest" xlink:href="structclanguml_1_1sequence__diagram_1_1model_1_1method.html" xlink:show="new" xlink:title="method" xlink:type="simple"><rect fill="#FEFECE" filter="url(#f1awekxfls0c7n)" height="48" id="C_0000817665972547784504" style="stroke: #A80036; stroke-width: 1.5;" width="80" x="175" y="676"/><ellipse cx="190" cy="692" fill="#ADD1B2" rx="11" ry="11" style="stroke: #A80036; stroke-width: 1.0;"/><path d="M192.9688,697.6406 Q192.3906,697.9375 191.75,698.0781 Q191.1094,698.2344 190.4063,698.2344 Q187.9063,698.2344 186.5781,696.5938 Q185.2656,694.9375 185.2656,691.8125 Q185.2656,688.6875 186.5781,687.0313 Q187.9063,685.375 190.4063,685.375 Q191.1094,685.375 191.75,685.5313 Q192.4063,685.6875 192.9688,685.9844 L192.9688,688.7031 Q192.3438,688.125 191.75,687.8594 Q191.1563,687.5781 190.5313,687.5781 Q189.1875,687.5781 188.5,688.6563 Q187.8125,689.7188 187.8125,691.8125 Q187.8125,693.9063 188.5,694.9844 Q189.1875,696.0469 190.5313,696.0469 Q191.1563,696.0469 191.75,695.7813 Q192.3438,695.5 192.9688,694.9219 L192.9688,697.6406 Z "/><text fill="#000000" font-family="sans-serif" font-size="12" lengthAdjust="spacingAndGlyphs" textLength="48" x="204" y="696.1543">method</text><line style="stroke: #A80036; stroke-width: 1.5;" x1="176" x2="254" y1="708" y2="708"/><line style="stroke: #A80036; stroke-width: 1.5;" x1="176" x2="254" y1="716" y2="716"/></a><!--MD5=[32d760b788d79d5e0bfcc0697e979e7d]
class C_0002280191967493310558--><a href="structclanguml_1_1sequence__diagram_1_1model_1_1function__template.html" target="_top" title="function_template" xlink:actuate="onRequest" xlink:href="structclanguml_1_1sequence__diagram_1_1model_1_1function__template.html" xlink:show="new" xlink:title="function_template" xlink:type="simple"><rect fill="#FEFECE" filter="url(#f1awekxfls0c7n)" height="48" id="C_0002280191967493310558" style="stroke: #A80036; stroke-width: 1.5;" width="145" x="290.5" y="676"/><ellipse cx="305.5" cy="692" fill="#ADD1B2" rx="11" ry="11" style="stroke: #A80036; stroke-width: 1.0;"/><path d="M308.4688,697.6406 Q307.8906,697.9375 307.25,698.0781 Q306.6094,698.2344 305.9063,698.2344 Q303.4063,698.2344 302.0781,696.5938 Q300.7656,694.9375 300.7656,691.8125 Q300.7656,688.6875 302.0781,687.0313 Q303.4063,685.375 305.9063,685.375 Q306.6094,685.375 307.25,685.5313 Q307.9063,685.6875 308.4688,685.9844 L308.4688,688.7031 Q307.8438,688.125 307.25,687.8594 Q306.6563,687.5781 306.0313,687.5781 Q304.6875,687.5781 304,688.6563 Q303.3125,689.7188 303.3125,691.8125 Q303.3125,693.9063 304,694.9844 Q304.6875,696.0469 306.0313,696.0469 Q306.6563,696.0469 307.25,695.7813 Q307.8438,695.5 308.4688,694.9219 L308.4688,697.6406 Z "/><text fill="#000000" font-family="sans-serif" font-size="12" lengthAdjust="spacingAndGlyphs" textLength="113" x="319.5" y="696.1543">function_template</text><line style="stroke: #A80036; stroke-width: 1.5;" x1="291.5" x2="434.5" y1="708" y2="708"/><line style="stroke: #A80036; stroke-width: 1.5;" x1="291.5" x2="434.5" y1="716" y2="716"/></a><!--MD5=[d938ea8dcef347175d1d053a93bab664]
class C_0002228653068706235818--><a href="classclanguml_1_1sequence__diagram_1_1model_1_1message.html" target="_top" title="message" xlink:actuate="onRequest" xlink:href="classclanguml_1_1sequence__diagram_1_1model_1_1message.html" xlink:show="new" xlink:title="message" xlink:type="simple"><rect fill="#FEFECE" filter="url(#f1awekxfls0c7n)" height="48" id="C_0002228653068706235818" style="stroke: #A80036; stroke-width: 1.5;" width="89" x="199.5" y="460"/><ellipse cx="214.5" cy="476" fill="#ADD1B2" rx="11" ry="11" style="stroke: #A80036; stroke-width: 1.0;"/><path d="M217.4688,481.6406 Q216.8906,481.9375 216.25,482.0781 Q215.6094,482.2344 214.9063,482.2344 Q212.4063,482.2344 211.0781,480.5938 Q209.7656,478.9375 209.7656,475.8125 Q209.7656,472.6875 211.0781,471.0313 Q212.4063,469.375 214.9063,469.375 Q215.6094,469.375 216.25,469.5313 Q216.9063,469.6875 217.4688,469.9844 L217.4688,472.7031 Q216.8438,472.125 216.25,471.8594 Q215.6563,471.5781 215.0313,471.5781 Q213.6875,471.5781 213,472.6563 Q212.3125,473.7188 212.3125,475.8125 Q212.3125,477.9063 213,478.9844 Q213.6875,480.0469 215.0313,480.0469 Q215.6563,480.0469 216.25,479.7813 Q216.8438,479.5 217.4688,478.9219 L217.4688,481.6406 Z "/><text fill="#000000" font-family="sans-serif" font-size="12" lengthAdjust="spacingAndGlyphs" textLength="57" x="228.5" y="480.1543">message</text><line style="stroke: #A80036; stroke-width: 1.5;" x1="200.5" x2="287.5" y1="492" y2="492"/><line style="stroke: #A80036; stroke-width: 1.5;" x1="200.5" x2="287.5" y1="500" y2="500"/></a><!--MD5=[ca2904572ba2305549e4f16921901e5a]
reverse link C_0000895261582183440230 to C_0001073500714379115414--><path d="M661.48,170.02 C658.79,183.58 655.93,198.04 653.62,209.68 " fill="none" id="C_0000895261582183440230&lt;-C_0001073500714379115414" style="stroke: #A80036; stroke-width: 1.0;"/><polygon fill="none" points="654.69,168.26,665.44,150,668.42,170.98,654.69,168.26" style="stroke: #A80036; stroke-width: 1.0;"/><!--MD5=[4f2a77547d39d73bea822e52b2f0976b]
reverse link C_0001073500714379115414 to C_0002069520381434407937--><path d="M623.63,275.13 C614.55,289.5 604.62,305.21 596.74,317.68 " fill="none" id="C_0001073500714379115414&lt;-C_0002069520381434407937" style="stroke: #A80036; stroke-width: 1.0;"/><polygon fill="none" points="617.86,271.17,634.46,258,629.69,278.65,617.86,271.17" style="stroke: #A80036; stroke-width: 1.0;"/><!--MD5=[3b5b148458d09c1202603fe4c86398e5]
reverse link C_0002069520381434407937 to C_0002143286684830686854--><path d="M582.31,386.2 C582.48,410.5 582.69,439.88 582.83,459.85 " fill="none" id="C_0002069520381434407937&lt;-C_0002143286684830686854" style="stroke: #A80036; stroke-width: 1.0;"/><polygon fill="none" points="575.31,386.17,582.17,366.12,589.31,386.07,575.31,386.17" style="stroke: #A80036; stroke-width: 1.0;"/><!--MD5=[5ecb1d83165a712adbd5650cef34b86b]
reverse link C_0001073500714379115414 to C_0000785714713072053129--><path d="M671.61,275.61 C679.53,289.85 688.15,305.35 695.02,317.68 " fill="none" id="C_0001073500714379115414&lt;-C_0000785714713072053129" style="stroke: #A80036; stroke-width: 1.0;"/><polygon fill="none" points="665.41,278.88,661.8,258,677.65,272.07,665.41,278.88" style="stroke: #A80036; stroke-width: 1.0;"/><!--MD5=[f0387d9954afcf30c87ff075e3f6770a]
reverse link C_0000895261582183440230 to C_0000605866861866358037--><path d="M755.12,153.21 C863.38,189.64 1051.95,263.8 1183,374 C1212.03,398.41 1235.71,435.93 1249.09,459.96 " fill="none" id="C_0000895261582183440230&lt;-C_0000605866861866358037" style="stroke: #A80036; stroke-width: 1.0;"/><polygon fill="none" points="752.67,159.77,735.88,146.85,757.06,146.48,752.67,159.77" style="stroke: #A80036; stroke-width: 1.0;"/><!--MD5=[d8e4acfe1535dd965012bd96698e8da6]
reverse link C_0000605866861866358037 to C_0001796282762108527255--><path d="M1224.71,522.3 C1212.17,533.98 1197.6,546.33 1183,556 C1176.58,560.25 1169.56,564.24 1162.47,567.9 " fill="none" id="C_0000605866861866358037&lt;-C_0001796282762108527255" style="stroke: #A80036; stroke-width: 1.0;"/><polygon fill="none" points="1220.11,517.01,1239.34,508.11,1229.85,527.06,1220.11,517.01" style="stroke: #A80036; stroke-width: 1.0;"/><!--MD5=[319ad9cfab865c6a4b42924a2f265e34]
reverse link C_0000605866861866358037 to C_0000204145716468348671--><path d="M1261.41,528.02 C1261.53,541.58 1261.67,556.04 1261.78,567.68 " fill="none" id="C_0000605866861866358037&lt;-C_0000204145716468348671" style="stroke: #A80036; stroke-width: 1.0;"/><polygon fill="none" points="1254.41,528.07,1261.22,508,1268.41,527.93,1254.41,528.07" style="stroke: #A80036; stroke-width: 1.0;"/><!--MD5=[4018109609f1a98320137cbe86d3b254]
reverse link C_0002069520381434407937 to C_0001292034357466653182--><path d="M643.59,363.47 C734.27,369.08 1058.48,362.17 1077,374 C1106.79,393.03 1120.31,434.02 1126.08,459.96 " fill="none" id="C_0002069520381434407937&lt;-C_0001292034357466653182" style="stroke: #A80036; stroke-width: 1.0;"/><polygon fill="none" points="642.81,370.43,623.68,361.32,644.31,356.51,642.81,370.43" style="stroke: #A80036; stroke-width: 1.0;"/><!--MD5=[cf69ebad9c135069927ecc8912486131]
reverse link C_0002069520381434407937 to C_0001374849051752224500--><path d="M643.58,363.57 C717.08,368.62 939.78,366.08 953,374 C984.38,392.79 1001.27,433.86 1009.18,459.88 " fill="none" id="C_0002069520381434407937&lt;-C_0001374849051752224500" style="stroke: #A80036; stroke-width: 1.0;"/><polygon fill="none" points="642.75,370.52,623.69,361.28,644.35,356.62,642.75,370.52" style="stroke: #A80036; stroke-width: 1.0;"/><!--MD5=[8c22089b7714b620a371fadcc922a5ed]
reverse link C_0002069520381434407937 to C_0000724392977093650506--><path d="M643.56,364.57 C689.42,370.17 750.24,364.27 774,374 C818.77,392.33 858.61,433.54 880.71,459.71 " fill="none" id="C_0002069520381434407937&lt;-C_0000724392977093650506" style="stroke: #A80036; stroke-width: 1.0;"/><polygon fill="none" points="642.21,371.45,623.72,361.1,644.63,357.66,642.21,371.45" style="stroke: #A80036; stroke-width: 1.0;"/><!--MD5=[62dc895dac1d0c2011f0b281560d3968]
reverse link C_0002069520381434407937 to C_0001400215772842495226--><path d="M523.22,375.1 C471.38,408.09 430.07,439.11 403.32,459.83 " fill="none" id="C_0002069520381434407937&lt;-C_0001400215772842495226" style="stroke: #A80036; stroke-width: 1.0;"/><polygon fill="none" points="519.75,369.01,540.41,364.33,527.18,380.88,519.75,369.01" style="stroke: #A80036; stroke-width: 1.0;"/><!--MD5=[b33f1614e5f0bf4794b27e69905bc927]
reverse link C_0001400215772842495226 to C_0000885514871619471610--><path d="M344.12,523.65 C333.25,535.51 320.13,547.62 306,556 C276.64,573.4 238.49,582.34 211.12,586.8 " fill="none" id="C_0001400215772842495226&lt;-C_0000885514871619471610" style="stroke: #A80036; stroke-width: 1.0;"/><polygon fill="none" points="339.13,518.71,357.43,508.02,349.79,527.78,339.13,518.71" style="stroke: #A80036; stroke-width: 1.0;"/><!--MD5=[2c90ee8d9e33f78746e08a7fd0729082]
reverse link C_0000885514871619471610 to C_0001701531547288995691--><path d="M147.94,632.66 C137.69,647.15 126.42,663.07 117.5,675.68 " fill="none" id="C_0000885514871619471610&lt;-C_0001701531547288995691" style="stroke: #A80036; stroke-width: 1.0;"/><polygon fill="none" points="142.46,628.28,159.73,616,153.89,636.37,142.46,628.28" style="stroke: #A80036; stroke-width: 1.0;"/><!--MD5=[cff630a429a41d6509e30ee5071e7c05]
reverse link C_0001400215772842495226 to C_0000232638456031681828--><path d="M369.54,528.02 C368.13,541.58 366.63,556.04 365.42,567.68 " fill="none" id="C_0001400215772842495226&lt;-C_0000232638456031681828" style="stroke: #A80036; stroke-width: 1.0;"/><polygon fill="none" points="362.59,527.17,371.61,508,376.51,528.62,362.59,527.17" style="stroke: #A80036; stroke-width: 1.0;"/><!--MD5=[aaa21626746a78046d7a511702c30bb7]
reverse link C_0000232638456031681828 to C_0000817665972547784504--><path d="M314.49,627.75 C292.44,643.53 266.96,661.78 247.31,675.86 " fill="none" id="C_0000232638456031681828&lt;-C_0000817665972547784504" style="stroke: #A80036; stroke-width: 1.0;"/><polygon fill="none" points="310.55,621.96,330.89,616,318.7,633.34,310.55,621.96" style="stroke: #A80036; stroke-width: 1.0;"/><!--MD5=[ed3960d209e9f24c5c41aa336e94c692]
reverse link C_0000232638456031681828 to C_0002280191967493310558--><path d="M363,636.02 C363,649.58 363,664.04 363,675.68 " fill="none" id="C_0000232638456031681828&lt;-C_0002280191967493310558" style="stroke: #A80036; stroke-width: 1.0;"/><polygon fill="none" points="356,636,363,616,370,636,356,636" style="stroke: #A80036; stroke-width: 1.0;"/><!--MD5=[a67a2b87f33292a603fe6541cbf2f274]
reverse link C_0001073500714379115414 to C_0002228653068706235818--><path d="M559.28,254.2 C484.78,273.89 379.62,310.77 307,374 C280.13,397.39 261.94,435.19 252.26,459.56 " fill="none" id="C_0001073500714379115414&lt;-C_0002228653068706235818" style="stroke: #A80036; stroke-width: 1.0;"/><polygon fill="none" points="557.85,247.34,578.95,249.21,561.29,260.91,557.85,247.34" style="stroke: #A80036; stroke-width: 1.0;"/><!--MD5=[37da21b6670073abf90f007eebb6bad5]
@startuml
package [common] as C_0000316605034920222648 {
package [model] as C_0000083721806430512831 {
class "source_location" as C_0000895261582183440230
class C_0000895261582183440230 [[classclanguml_1_1common_1_1model_1_1source__location.html{Base class of all diagram elements that have source location.}]] {
__
}
class "diagram_element" as C_0001073500714379115414
class C_0001073500714379115414 [[classclanguml_1_1common_1_1model_1_1diagram__element.html{Base class for standalone diagram elements.}]] {
__
}
class "element" as C_0002069520381434407937
class C_0002069520381434407937 [[classclanguml_1_1common_1_1model_1_1element.html{Base class for any element qualified by namespace.}]] {
__
}
class "package" as C_0002143286684830686854
class C_0002143286684830686854 [[classclanguml_1_1common_1_1model_1_1package.html{Diagram element representing namespace or directory package}]] {
__
}
class "source_file" as C_0000785714713072053129
class C_0000785714713072053129 [[classclanguml_1_1common_1_1model_1_1source__file.html{Diagram element representing some file or directory.}]] {
__
}
}
}
package [class_diagram] as C_0002240167036201725606 {
package [model] as C_0000897124234964432620 {
class "class_element" as C_0000605866861866358037
class C_0000605866861866358037 [[classclanguml_1_1class__diagram_1_1model_1_1class__element.html{class_element}]] {
__
}
class "class_member" as C_0001796282762108527255
class C_0001796282762108527255 [[classclanguml_1_1class__diagram_1_1model_1_1class__member.html{class_member}]] {
__
}
class "class_method" as C_0000204145716468348671
class C_0000204145716468348671 [[classclanguml_1_1class__diagram_1_1model_1_1class__method.html{class_method}]] {
__
}
class "class_" as C_0001292034357466653182
class C_0001292034357466653182 [[classclanguml_1_1class__diagram_1_1model_1_1class__.html{Diagram element representing a class or class template.}]] {
__
}
class "concept_" as C_0001374849051752224500
class C_0001374849051752224500 [[classclanguml_1_1class__diagram_1_1model_1_1concept__.html{concept_}]] {
__
}
class "enum_" as C_0000724392977093650506
class C_0000724392977093650506 [[classclanguml_1_1class__diagram_1_1model_1_1enum__.html{enum_}]] {
__
}
}
}
package [sequence_diagram] as C_0001521862840957629236 {
package [model] as C_0002206969880830639264 {
class "participant" as C_0001400215772842495226
class C_0001400215772842495226 [[structclanguml_1_1sequence__diagram_1_1model_1_1participant.html{participant}]] {
__
}
class "class_" as C_0000885514871619471610
class C_0000885514871619471610 [[structclanguml_1_1sequence__diagram_1_1model_1_1class__.html{class_}]] {
__
}
class "lambda" as C_0001701531547288995691
class C_0001701531547288995691 [[structclanguml_1_1sequence__diagram_1_1model_1_1lambda.html{lambda}]] {
__
}
class "function" as C_0000232638456031681828
class C_0000232638456031681828 [[structclanguml_1_1sequence__diagram_1_1model_1_1function.html{function}]] {
__
}
class "method" as C_0000817665972547784504
class C_0000817665972547784504 [[structclanguml_1_1sequence__diagram_1_1model_1_1method.html{method}]] {
__
}
class "function_template" as C_0002280191967493310558
class C_0002280191967493310558 [[structclanguml_1_1sequence__diagram_1_1model_1_1function__template.html{function_template}]] {
__
}
class "message" as C_0002228653068706235818
class C_0002228653068706235818 [[classclanguml_1_1sequence__diagram_1_1model_1_1message.html{message}]] {
__
}
}
}
C_0000895261582183440230 <|- - C_0001073500714379115414
C_0001073500714379115414 <|- - C_0002069520381434407937
C_0002069520381434407937 <|- - C_0002143286684830686854
C_0001073500714379115414 <|- - C_0000785714713072053129
C_0000895261582183440230 <|- - C_0000605866861866358037
C_0000605866861866358037 <|- - C_0001796282762108527255
C_0000605866861866358037 <|- - C_0000204145716468348671
C_0002069520381434407937 <|- - C_0001292034357466653182
C_0002069520381434407937 <|- - C_0001374849051752224500
C_0002069520381434407937 <|- - C_0000724392977093650506
C_0002069520381434407937 <|- - C_0001400215772842495226
C_0001400215772842495226 <|- - C_0000885514871619471610
C_0000885514871619471610 <|- - C_0001701531547288995691
C_0001400215772842495226 <|- - C_0000232638456031681828
C_0000232638456031681828 <|- - C_0000817665972547784504
C_0000232638456031681828 <|- - C_0002280191967493310558
C_0001073500714379115414 <|- - C_0002228653068706235818

@enduml

PlantUML version 1.2020.02(Sun Mar 01 11:22:07 CET 2020)
(GPL source distribution)
Java Runtime: OpenJDK Runtime Environment
JVM: OpenJDK 64-Bit Server VM
Java Version: 11.0.19+7-post-Ubuntu-0ubuntu122.04.1
Operating System: Linux
Default Encoding: UTF-8
Language: en
Country: US
--></g></svg>