<svg xmlns="http://www.w3.org/2000/svg" xmlns:xlink="http://www.w3.org/1999/xlink" contentStyleType="text/css" height="321px" preserveAspectRatio="none" style="width:1639px;height:321px;background:#FFFFFF;" version="1.1" viewBox="0 0 1639 321" width="1639px" zoomAndPan="magnify">
  <title>Source file model class hierarchy</title>
  <defs>
    <style type="text/css">a:hover { text-decoration: underline; }</style>
  </defs>
  <g>
    <text fill="#000000" font-family="sans-serif" font-size="14" font-weight="bold" lengthAdjust="spacing" textLength="229.1232" x="698.3292" y="24.9659">Source file model class hierarchy</text>
    <a href="classclanguml_1_1common_1_1model_1_1source__location.html" target="_top" title="Base class of all diagram elements that have source location." xlink:actuate="onRequest" xlink:href="classclanguml_1_1common_1_1model_1_1source__location.html" xlink:show="new" xlink:title="Base class of all diagram elements that have source location." xlink:type="simple">
      <g id="elem_C_0007162092657467521843">
        <rect codeLine="3" fill="#F1F1F1" height="48" id="C_0007162092657467521843" rx="2.5" ry="2.5" style="stroke:#181818;stroke-width:0.5;" width="250.0632" x="7" y="50.0839"/>
        <ellipse cx="22" cy="66.0839" fill="#ADD1B2" rx="11" ry="11" style="stroke:#181818;stroke-width:1.0;"/>
        <path d="M24.9688,71.7246 Q24.3906,72.0214 23.75,72.1621 Q23.1094,72.3183 22.4063,72.3183 Q19.9063,72.3183 18.5781,70.6777 Q17.2656,69.0214 17.2656,65.8964 Q17.2656,62.7714 18.5781,61.1152 Q19.9063,59.4589 22.4063,59.4589 Q23.1094,59.4589 23.75,59.6152 Q24.4063,59.7714 24.9688,60.0683 L24.9688,62.7871 Q24.3438,62.2089 23.75,61.9433 Q23.1563,61.6621 22.5313,61.6621 Q21.1875,61.6621 20.5,62.7402 Q19.8125,63.8027 19.8125,65.8964 Q19.8125,67.9902 20.5,69.0683 Q21.1875,70.1308 22.5313,70.1308 Q23.1563,70.1308 23.75,69.8652 Q24.3438,69.5839 24.9688,69.0058 L24.9688,71.7246 Z " fill="#000000"/>
        <text fill="#000000" font-family="sans-serif" font-size="14" lengthAdjust="spacing" textLength="218.0632" x="36" y="71.5159">common::model::source_location</text>
        <line style="stroke:#181818;stroke-width:0.5;" x1="8" x2="256.0632" y1="82.0839" y2="82.0839"/>
        <line style="stroke:#181818;stroke-width:0.5;" x1="8" x2="256.0632" y1="90.0839" y2="90.0839"/>
      </g>
    </a>
    <a href="classclanguml_1_1common_1_1model_1_1decorated__element.html" target="_top" title="Base class for decorated diagram elements" xlink:actuate="onRequest" xlink:href="classclanguml_1_1common_1_1model_1_1decorated__element.html" xlink:show="new" xlink:title="Base class for decorated diagram elements" xlink:type="simple">
      <g id="elem_C_0008936819060997384951">
        <rect codeLine="7" fill="#F1F1F1" height="48" id="C_0008936819060997384951" rx="2.5" ry="2.5" style="stroke:#181818;stroke-width:0.5;" width="274.3811" x="292" y="50.0839"/>
        <ellipse cx="307" cy="66.0839" fill="#ADD1B2" rx="11" ry="11" style="stroke:#181818;stroke-width:1.0;"/>
        <path d="M309.9688,71.7246 Q309.3906,72.0214 308.75,72.1621 Q308.1094,72.3183 307.4063,72.3183 Q304.9063,72.3183 303.5781,70.6777 Q302.2656,69.0214 302.2656,65.8964 Q302.2656,62.7714 303.5781,61.1152 Q304.9063,59.4589 307.4063,59.4589 Q308.1094,59.4589 308.75,59.6152 Q309.4063,59.7714 309.9688,60.0683 L309.9688,62.7871 Q309.3438,62.2089 308.75,61.9433 Q308.1563,61.6621 307.5313,61.6621 Q306.1875,61.6621 305.5,62.7402 Q304.8125,63.8027 304.8125,65.8964 Q304.8125,67.9902 305.5,69.0683 Q306.1875,70.1308 307.5313,70.1308 Q308.1563,70.1308 308.75,69.8652 Q309.3438,69.5839 309.9688,69.0058 L309.9688,71.7246 Z " fill="#000000"/>
        <text fill="#000000" font-family="sans-serif" font-size="14" lengthAdjust="spacing" textLength="242.3811" x="321" y="71.5159">common::model::decorated_element</text>
        <line style="stroke:#181818;stroke-width:0.5;" x1="293" x2="565.3811" y1="82.0839" y2="82.0839"/>
        <line style="stroke:#181818;stroke-width:0.5;" x1="293" x2="565.3811" y1="90.0839" y2="90.0839"/>
      </g>
    </a>
    <a href="classclanguml_1_1common_1_1model_1_1stylable__element.html" target="_top" title="Diagram elements to which style can be applied." xlink:actuate="onRequest" xlink:href="classclanguml_1_1common_1_1model_1_1stylable__element.html" xlink:show="new" xlink:title="Diagram elements to which style can be applied." xlink:type="simple">
      <g id="elem_C_0016622768607835415521">
        <rect codeLine="11" fill="#F1F1F1" height="48" id="C_0016622768607835415521" rx="2.5" ry="2.5" style="stroke:#181818;stroke-width:0.5;" width="257.9731" x="780" y="158.0839"/>
        <ellipse cx="795" cy="174.0839" fill="#ADD1B2" rx="11" ry="11" style="stroke:#181818;stroke-width:1.0;"/>
        <path d="M797.9688,179.7246 Q797.3906,180.0214 796.75,180.1621 Q796.1094,180.3183 795.4063,180.3183 Q792.9063,180.3183 791.5781,178.6777 Q790.2656,177.0214 790.2656,173.8964 Q790.2656,170.7714 791.5781,169.1152 Q792.9063,167.4589 795.4063,167.4589 Q796.1094,167.4589 796.75,167.6152 Q797.4063,167.7714 797.9688,168.0683 L797.9688,170.7871 Q797.3438,170.2089 796.75,169.9433 Q796.1563,169.6621 795.5313,169.6621 Q794.1875,169.6621 793.5,170.7402 Q792.8125,171.8027 792.8125,173.8964 Q792.8125,175.9902 793.5,177.0683 Q794.1875,178.1308 795.5313,178.1308 Q796.1563,178.1308 796.75,177.8652 Q797.3438,177.5839 797.9688,177.0058 L797.9688,179.7246 Z " fill="#000000"/>
        <text fill="#000000" font-family="sans-serif" font-size="14" lengthAdjust="spacing" textLength="225.9731" x="809" y="179.5159">common::model::stylable_element</text>
        <line style="stroke:#181818;stroke-width:0.5;" x1="781" x2="1036.9731" y1="190.0839" y2="190.0839"/>
        <line style="stroke:#181818;stroke-width:0.5;" x1="781" x2="1036.9731" y1="198.0839" y2="198.0839"/>
      </g>
    </a>
    <a href="classclanguml_1_1common_1_1model_1_1diagram__element.html" target="_top" title="Base class for standalone diagram elements." xlink:actuate="onRequest" xlink:href="classclanguml_1_1common_1_1model_1_1diagram__element.html" xlink:show="new" xlink:title="Base class for standalone diagram elements." xlink:type="simple">
      <g id="elem_C_0008588005715032923314">
        <rect codeLine="15" fill="#F1F1F1" height="48" id="C_0008588005715032923314" rx="2.5" ry="2.5" style="stroke:#181818;stroke-width:0.5;" width="262.9011" x="481.5" y="158.0839"/>
        <ellipse cx="496.5" cy="174.0839" fill="#ADD1B2" rx="11" ry="11" style="stroke:#181818;stroke-width:1.0;"/>
        <path d="M499.4688,179.7246 Q498.8906,180.0214 498.25,180.1621 Q497.6094,180.3183 496.9063,180.3183 Q494.4063,180.3183 493.0781,178.6777 Q491.7656,177.0214 491.7656,173.8964 Q491.7656,170.7714 493.0781,169.1152 Q494.4063,167.4589 496.9063,167.4589 Q497.6094,167.4589 498.25,167.6152 Q498.9063,167.7714 499.4688,168.0683 L499.4688,170.7871 Q498.8438,170.2089 498.25,169.9433 Q497.6563,169.6621 497.0313,169.6621 Q495.6875,169.6621 495,170.7402 Q494.3125,171.8027 494.3125,173.8964 Q494.3125,175.9902 495,177.0683 Q495.6875,178.1308 497.0313,178.1308 Q497.6563,178.1308 498.25,177.8652 Q498.8438,177.5839 499.4688,177.0058 L499.4688,179.7246 Z " fill="#000000"/>
        <text fill="#000000" font-family="sans-serif" font-size="14" lengthAdjust="spacing" textLength="230.9011" x="510.5" y="179.5159">common::model::diagram_element</text>
        <line style="stroke:#181818;stroke-width:0.5;" x1="482.5" x2="743.4011" y1="190.0839" y2="190.0839"/>
        <line style="stroke:#181818;stroke-width:0.5;" x1="482.5" x2="743.4011" y1="198.0839" y2="198.0839"/>
      </g>
    </a>
    <a href="classclanguml_1_1common_1_1model_1_1nested__trait.html" target="_top" title="nested_trait" xlink:actuate="onRequest" xlink:href="classclanguml_1_1common_1_1model_1_1nested__trait.html" xlink:show="new" xlink:title="nested_trait" xlink:type="simple">
      <g id="elem_C_0012891720332235399601">
        <rect codeLine="19" fill="#F1F1F1" height="48" id="C_0012891720332235399601" rx="2.5" ry="2.5" style="stroke:#181818;stroke-width:0.5;" width="555.2815" x="1073.5" y="158.0839"/>
        <ellipse cx="1088.5" cy="174.0839" fill="#ADD1B2" rx="11" ry="11" style="stroke:#181818;stroke-width:1.0;"/>
        <path d="M1091.4688,179.7246 Q1090.8906,180.0214 1090.25,180.1621 Q1089.6094,180.3183 1088.9063,180.3183 Q1086.4063,180.3183 1085.0781,178.6777 Q1083.7656,177.0214 1083.7656,173.8964 Q1083.7656,170.7714 1085.0781,169.1152 Q1086.4063,167.4589 1088.9063,167.4589 Q1089.6094,167.4589 1090.25,167.6152 Q1090.9063,167.7714 1091.4688,168.0683 L1091.4688,170.7871 Q1090.8438,170.2089 1090.25,169.9433 Q1089.6563,169.6621 1089.0313,169.6621 Q1087.6875,169.6621 1087,170.7402 Q1086.3125,171.8027 1086.3125,173.8964 Q1086.3125,175.9902 1087,177.0683 Q1087.6875,178.1308 1089.0313,178.1308 Q1089.6563,178.1308 1090.25,177.8652 Q1090.8438,177.5839 1091.4688,177.0058 L1091.4688,179.7246 Z " fill="#000000"/>
        <text fill="#000000" font-family="sans-serif" font-size="14" lengthAdjust="spacing" textLength="193.5633" x="1102.5" y="179.5159">common::model::nested_trait</text>
        <rect fill="#FFFFFF" height="18.3441" style="stroke:#181818;stroke-width:1.0;stroke-dasharray:2.0,2.0;" width="327.7182" x="1304.0633" y="155.0839"/>
        <text fill="#000000" font-family="sans-serif" font-size="12" font-style="italic" lengthAdjust="spacing" textLength="325.7182" x="1305.0633" y="168.912">common::model::source_file,common::model::filesystem_path</text>
        <line style="stroke:#181818;stroke-width:0.5;" x1="1074.5" x2="1627.7815" y1="190.0839" y2="190.0839"/>
        <line style="stroke:#181818;stroke-width:0.5;" x1="1074.5" x2="1627.7815" y1="198.0839" y2="198.0839"/>
      </g>
    </a>
    <a href="classclanguml_1_1common_1_1model_1_1source__file.html" target="_top" title="Diagram element representing some file or directory." xlink:actuate="onRequest" xlink:href="classclanguml_1_1common_1_1model_1_1source__file.html" xlink:show="new" xlink:title="Diagram element representing some file or directory." xlink:type="simple">
      <g id="elem_C_0006285717704576425038">
        <rect codeLine="23" fill="#F1F1F1" height="48" id="C_0006285717704576425038" rx="2.5" ry="2.5" style="stroke:#181818;stroke-width:0.5;" width="217.5553" x="1021" y="266.0839"/>
        <ellipse cx="1036" cy="282.0839" fill="#ADD1B2" rx="11" ry="11" style="stroke:#181818;stroke-width:1.0;"/>
        <path d="M1038.9688,287.7246 Q1038.3906,288.0214 1037.75,288.1621 Q1037.1094,288.3183 1036.4063,288.3183 Q1033.9063,288.3183 1032.5781,286.6777 Q1031.2656,285.0214 1031.2656,281.8964 Q1031.2656,278.7714 1032.5781,277.1152 Q1033.9063,275.4589 1036.4063,275.4589 Q1037.1094,275.4589 1037.75,275.6152 Q1038.4063,275.7714 1038.9688,276.0683 L1038.9688,278.7871 Q1038.3438,278.2089 1037.75,277.9433 Q1037.1563,277.6621 1036.5313,277.6621 Q1035.1875,277.6621 1034.5,278.7402 Q1033.8125,279.8027 1033.8125,281.8964 Q1033.8125,283.9902 1034.5,285.0683 Q1035.1875,286.1308 1036.5313,286.1308 Q1037.1563,286.1308 1037.75,285.8652 Q1038.3438,285.5839 1038.9688,285.0058 L1038.9688,287.7246 Z " fill="#000000"/>
        <text fill="#000000" font-family="sans-serif" font-size="14" lengthAdjust="spacing" textLength="185.5553" x="1050" y="287.5159">common::model::source_file</text>
        <line style="stroke:#181818;stroke-width:0.5;" x1="1022" x2="1237.5553" y1="298.0839" y2="298.0839"/>
        <line style="stroke:#181818;stroke-width:0.5;" x1="1022" x2="1237.5553" y1="306.0839" y2="306.0839"/>
      </g>
    </a>
    <a href="classclanguml_1_1util_1_1memoized.html" target="_top" title="memoized" xlink:actuate="onRequest" xlink:href="classclanguml_1_1util_1_1memoized.html" xlink:show="new" xlink:title="memoized" xlink:type="simple">
      <g id="elem_C_0015453306866783002016">
        <rect codeLine="27" fill="#F1F1F1" height="48" id="C_0015453306866783002016" rx="2.5" ry="2.5" style="stroke:#181818;stroke-width:0.5;" width="392.2074" x="601" y="50.0839"/>
        <ellipse cx="616" cy="66.0839" fill="#ADD1B2" rx="11" ry="11" style="stroke:#181818;stroke-width:1.0;"/>
        <path d="M618.9688,71.7246 Q618.3906,72.0214 617.75,72.1621 Q617.1094,72.3183 616.4063,72.3183 Q613.9063,72.3183 612.5781,70.6777 Q611.2656,69.0214 611.2656,65.8964 Q611.2656,62.7714 612.5781,61.1152 Q613.9063,59.4589 616.4063,59.4589 Q617.1094,59.4589 617.75,59.6152 Q618.4063,59.7714 618.9688,60.0683 L618.9688,62.7871 Q618.3438,62.2089 617.75,61.9433 Q617.1563,61.6621 616.5313,61.6621 Q615.1875,61.6621 614.5,62.7402 Q613.8125,63.8027 613.8125,65.8964 Q613.8125,67.9902 614.5,69.0683 Q615.1875,70.1308 616.5313,70.1308 Q617.1563,70.1308 617.75,69.8652 Q618.3438,69.5839 618.9688,69.0058 L618.9688,71.7246 Z " fill="#000000"/>
        <text fill="#000000" font-family="sans-serif" font-size="14" lengthAdjust="spacing" textLength="97.6776" x="630" y="71.5159">util::memoized</text>
        <rect fill="#FFFFFF" height="18.3441" style="stroke:#181818;stroke-width:1.0;stroke-dasharray:2.0,2.0;" width="260.5298" x="735.6776" y="47.0839"/>
        <text fill="#000000" font-family="sans-serif" font-size="12" font-style="italic" lengthAdjust="spacing" textLength="258.5298" x="736.6776" y="60.912">common::model::full_name_tag_t,std::string,bool</text>
        <line style="stroke:#181818;stroke-width:0.5;" x1="602" x2="992.2074" y1="82.0839" y2="82.0839"/>
        <line style="stroke:#181818;stroke-width:0.5;" x1="602" x2="992.2074" y1="90.0839" y2="90.0839"/>
      </g>
    </a>
    <a href="classclanguml_1_1util_1_1memoized.html" target="_top" title="memoized" xlink:actuate="onRequest" xlink:href="classclanguml_1_1util_1_1memoized.html" xlink:show="new" xlink:title="memoized" xlink:type="simple">
      <g id="elem_C_0011142327304907631799">
        <rect codeLine="31" fill="#F1F1F1" height="48" id="C_0011142327304907631799" rx="2.5" ry="2.5" style="stroke:#181818;stroke-width:0.5;" width="377.4833" x="1028.5" y="50.0839"/>
        <ellipse cx="1043.5" cy="66.0839" fill="#ADD1B2" rx="11" ry="11" style="stroke:#181818;stroke-width:1.0;"/>
        <path d="M1046.4688,71.7246 Q1045.8906,72.0214 1045.25,72.1621 Q1044.6094,72.3183 1043.9063,72.3183 Q1041.4063,72.3183 1040.0781,70.6777 Q1038.7656,69.0214 1038.7656,65.8964 Q1038.7656,62.7714 1040.0781,61.1152 Q1041.4063,59.4589 1043.9063,59.4589 Q1044.6094,59.4589 1045.25,59.6152 Q1045.9063,59.7714 1046.4688,60.0683 L1046.4688,62.7871 Q1045.8438,62.2089 1045.25,61.9433 Q1044.6563,61.6621 1044.0313,61.6621 Q1042.6875,61.6621 1042,62.7402 Q1041.3125,63.8027 1041.3125,65.8964 Q1041.3125,67.9902 1042,69.0683 Q1042.6875,70.1308 1044.0313,70.1308 Q1044.6563,70.1308 1045.25,69.8652 Q1045.8438,69.5839 1046.4688,69.0058 L1046.4688,71.7246 Z " fill="#000000"/>
        <text fill="#000000" font-family="sans-serif" font-size="14" lengthAdjust="spacing" textLength="97.6776" x="1057.5" y="71.5159">util::memoized</text>
        <rect fill="#FFFFFF" height="18.3441" style="stroke:#181818;stroke-width:1.0;stroke-dasharray:2.0,2.0;" width="245.8057" x="1163.1776" y="47.0839"/>
        <text fill="#000000" font-family="sans-serif" font-size="12" font-style="italic" lengthAdjust="spacing" textLength="243.8057" x="1164.1776" y="60.912">common::model::name_and_ns_tag,std::string</text>
        <line style="stroke:#181818;stroke-width:0.5;" x1="1029.5" x2="1404.9833" y1="82.0839" y2="82.0839"/>
        <line style="stroke:#181818;stroke-width:0.5;" x1="1029.5" x2="1404.9833" y1="90.0839" y2="90.0839"/>
      </g>
    </a>
    <g id="link_C_0008936819060997384951_C_0008588005715032923314">
      <path codeLine="34" d="M484.5258,107.0712 C515.2758,124.7912 542.02,140.1939 572.84,157.9439 " fill="none" id="C_0008936819060997384951-backto-C_0008588005715032923314" style="stroke:#181818;stroke-width:1.0;"/>
      <polygon fill="none" points="468.93,98.0839,481.5301,112.2698,487.5216,101.8726,468.93,98.0839" style="stroke:#181818;stroke-width:1.0;"/>
    </g>
    <g id="link_C_0007162092657467521843_C_0008588005715032923314">
      <path codeLine="36" d="M253.9482,101.9579 C334.4882,119.7079 427.82,140.2739 508.42,158.0339 " fill="none" id="C_0007162092657467521843-backto-C_0008588005715032923314" style="stroke:#181818;stroke-width:1.0;"/>
      <polygon fill="none" points="236.37,98.0839,252.6568,107.8173,255.2395,96.0986,236.37,98.0839" style="stroke:#181818;stroke-width:1.0;"/>
    </g>
    <g id="link_C_0015453306866783002016_C_0008588005715032923314">
      <path codeLine="38" d="M741.4742,107.0712 C710.7242,124.7912 683.98,140.1939 653.16,157.9439 " fill="none" id="C_0015453306866783002016-backto-C_0008588005715032923314" style="stroke:#181818;stroke-width:1.0;"/>
      <polygon fill="none" points="757.07,98.0839,738.4784,101.8726,744.4699,112.2698,757.07,98.0839" style="stroke:#181818;stroke-width:1.0;"/>
    </g>
    <g id="link_C_0011142327304907631799_C_0008588005715032923314">
      <path codeLine="40" d="M1068.2108,101.1947 C966.9908,118.9547 845.29,140.3139 744.06,158.0839 " fill="none" id="C_0011142327304907631799-backto-C_0008588005715032923314" style="stroke:#181818;stroke-width:1.0;"/>
      <polygon fill="none" points="1085.94,98.0839,1067.1739,95.285,1069.2478,107.1044,1085.94,98.0839" style="stroke:#181818;stroke-width:1.0;"/>
    </g>
    <g id="link_C_0012891720332235399601_C_0006285717704576425038">
      <path codeLine="42" d="M1292.32,206.0839 C1252.69,223.8039 1207.1601,245.4389 1172.8201,263.1889 " fill="none" id="C_0012891720332235399601-to-C_0006285717704576425038" style="stroke:#181818;stroke-width:1.0;stroke-dasharray:7.0,7.0;"/>
      <polygon fill="#181818" points="1167.49,265.9439,1177.3218,265.3647,1171.9317,263.6481,1173.6484,258.258,1167.49,265.9439" style="stroke:#181818;stroke-width:1.0;"/>
    </g>
    <g id="link_C_0012891720332235399601_C_0006285717704576425038">
      <path codeLine="47" d="M1298.4288,214.3858 C1264.3388,232.1058 1229.47,248.1939 1189.62,265.9439 " fill="none" id="C_0012891720332235399601-backto-C_0006285717704576425038" style="stroke:#181818;stroke-width:1.0;"/>
      <polygon fill="none" points="1314.4,206.0839,1295.6615,209.062,1301.1961,219.7095,1314.4,206.0839" style="stroke:#181818;stroke-width:1.0;"/>
    </g>
    <g id="link_C_0008588005715032923314_C_0006285717704576425038">
      <path codeLine="43" d="M742.8133,209.6988 C830.4233,227.6588 933.83,248.8639 1020.7,266.6739 " fill="none" id="C_0008588005715032923314-backto-C_0006285717704576425038" style="stroke:#181818;stroke-width:1.0;"/>
      <polygon fill="none" points="725.18,206.0839,741.6084,215.5765,744.0182,203.821,725.18,206.0839" style="stroke:#181818;stroke-width:1.0;"/>
    </g>
    <g id="link_C_0016622768607835415521_C_0006285717704576425038">
      <path codeLine="45" d="M973.1802,213.8674 C1010.1302,231.5874 1044.74,248.1939 1081.76,265.9439 " fill="none" id="C_0016622768607835415521-backto-C_0006285717704576425038" style="stroke:#181818;stroke-width:1.0;"/>
      <polygon fill="none" points="956.95,206.0839,970.5857,219.2774,975.7746,208.4573,956.95,206.0839" style="stroke:#181818;stroke-width:1.0;"/>
    </g>
  </g>
</svg>
