<?xml version="1.0" encoding="UTF-8" standalone="no"?><svg xmlns="http://www.w3.org/2000/svg" xmlns:xlink="http://www.w3.org/1999/xlink" contentScriptType="application/ecmascript" contentStyleType="text/css" height="776px" preserveAspectRatio="none" style="width:1271px;height:776px;" version="1.1" viewBox="0 0 1271 776" width="1271px" zoomAndPan="magnify"><defs><filter height="300%" id="f1x9hktvjvawvn" width="300%" x="-1" y="-1"><feGaussianBlur result="blurOut" stdDeviation="2.0"/><feColorMatrix in="blurOut" result="blurOut2" type="matrix" values="0 0 0 0 0 0 0 0 0 0 0 0 0 0 0 0 0 0 .4 0"/><feOffset dx="4.0" dy="4.0" in="blurOut2" result="blurOut3"/><feBlend in="SourceGraphic" in2="blurOut3" mode="normal"/></filter></defs><g><!--MD5=[7ba9c127878a642fef3f451151dda753]
cluster C_0000316605034920222648--><polygon fill="#FFFFFF" filter="url(#f1x9hktvjvawvn)" points="387,24,460,24,467,46.2969,685,46.2969,685,548,387,548,387,24" style="stroke: #000000; stroke-width: 1.5;"/><line style="stroke: #000000; stroke-width: 1.5;" x1="387" x2="467" y1="46.2969" y2="46.2969"/><text fill="#000000" font-family="sans-serif" font-size="14" font-weight="bold" lengthAdjust="spacingAndGlyphs" textLength="67" x="391" y="38.9951">common</text><!--MD5=[f7110622f5be760311cd0491b75bf8f9]
cluster C_0000083721806430512831--><polygon fill="#FFFFFF" filter="url(#f1x9hktvjvawvn)" points="411,67,465,67,472,89.2969,661,89.2969,661,524,411,524,411,67" style="stroke: #000000; stroke-width: 1.5;"/><line style="stroke: #000000; stroke-width: 1.5;" x1="411" x2="472" y1="89.2969" y2="89.2969"/><text fill="#000000" font-family="sans-serif" font-size="14" font-weight="bold" lengthAdjust="spacingAndGlyphs" textLength="48" x="415" y="81.9951">model</text><!--MD5=[09e992b259734a9820adb2642bf347d2]
cluster C_0002240167036201725606--><polygon fill="#FFFFFF" filter="url(#f1x9hktvjvawvn)" points="709,382,825,382,832,404.2969,1249,404.2969,1249,656,709,656,709,382" style="stroke: #000000; stroke-width: 1.5;"/><line style="stroke: #000000; stroke-width: 1.5;" x1="709" x2="832" y1="404.2969" y2="404.2969"/><text fill="#000000" font-family="sans-serif" font-size="14" font-weight="bold" lengthAdjust="spacingAndGlyphs" textLength="110" x="713" y="396.9951">class_diagram</text><!--MD5=[5d123d1ba3dda692cf099252127394e7]
cluster C_0000897124234964432620--><polygon fill="#FFFFFF" filter="url(#f1x9hktvjvawvn)" points="733,425,787,425,794,447.2969,1225,447.2969,1225,632,733,632,733,425" style="stroke: #000000; stroke-width: 1.5;"/><line style="stroke: #000000; stroke-width: 1.5;" x1="733" x2="794" y1="447.2969" y2="447.2969"/><text fill="#000000" font-family="sans-serif" font-size="14" font-weight="bold" lengthAdjust="spacingAndGlyphs" textLength="48" x="737" y="439.9951">model</text><!--MD5=[2319765f5fef5e41f5b55adb85cd73ea]
cluster C_0001521862840957629236--><polygon fill="#FFFFFF" filter="url(#f1x9hktvjvawvn)" points="22,382,176,382,183,404.2969,363,404.2969,363,764,22,764,22,382" style="stroke: #000000; stroke-width: 1.5;"/><line style="stroke: #000000; stroke-width: 1.5;" x1="22" x2="183" y1="404.2969" y2="404.2969"/><text fill="#000000" font-family="sans-serif" font-size="14" font-weight="bold" lengthAdjust="spacingAndGlyphs" textLength="148" x="26" y="396.9951">sequence_diagram</text><!--MD5=[aff6d1ed1f9fc56ba8376cf20ecae299]
cluster C_0002206969880830639264--><polygon fill="#FFFFFF" filter="url(#f1x9hktvjvawvn)" points="46,425,100,425,107,447.2969,339,447.2969,339,740,46,740,46,425" style="stroke: #000000; stroke-width: 1.5;"/><line style="stroke: #000000; stroke-width: 1.5;" x1="46" x2="107" y1="447.2969" y2="447.2969"/><text fill="#000000" font-family="sans-serif" font-size="14" font-weight="bold" lengthAdjust="spacingAndGlyphs" textLength="48" x="50" y="439.9951">model</text><!--MD5=[f862e5f61ea976202ee196a1ef68e0c4]
class C_0000895261582183440230--><a href="classclanguml_1_1common_1_1model_1_1source__location.html" target="_top" title="Base class of all diagram elements that have source location." xlink:actuate="onRequest" xlink:href="classclanguml_1_1common_1_1model_1_1source__location.html" xlink:show="new" xlink:title="Base class of all diagram elements that have source location." xlink:type="simple"><rect fill="#FEFECE" filter="url(#f1x9hktvjvawvn)" height="48" id="C_0000895261582183440230" style="stroke: #A80036; stroke-width: 1.5;" width="131" x="491.5" y="102"/><ellipse cx="506.5" cy="118" fill="#ADD1B2" rx="11" ry="11" style="stroke: #A80036; stroke-width: 1.0;"/><path d="M509.4688,123.6406 Q508.8906,123.9375 508.25,124.0781 Q507.6094,124.2344 506.9063,124.2344 Q504.4063,124.2344 503.0781,122.5938 Q501.7656,120.9375 501.7656,117.8125 Q501.7656,114.6875 503.0781,113.0313 Q504.4063,111.375 506.9063,111.375 Q507.6094,111.375 508.25,111.5313 Q508.9063,111.6875 509.4688,111.9844 L509.4688,114.7031 Q508.8438,114.125 508.25,113.8594 Q507.6563,113.5781 507.0313,113.5781 Q505.6875,113.5781 505,114.6563 Q504.3125,115.7188 504.3125,117.8125 Q504.3125,119.9063 505,120.9844 Q505.6875,122.0469 507.0313,122.0469 Q507.6563,122.0469 508.25,121.7813 Q508.8438,121.5 509.4688,120.9219 L509.4688,123.6406 Z "/><text fill="#000000" font-family="sans-serif" font-size="12" lengthAdjust="spacingAndGlyphs" textLength="99" x="520.5" y="122.1543">source_location</text><line style="stroke: #A80036; stroke-width: 1.5;" x1="492.5" x2="621.5" y1="134" y2="134"/><line style="stroke: #A80036; stroke-width: 1.5;" x1="492.5" x2="621.5" y1="142" y2="142"/></a><!--MD5=[c7954e9554acd525dcb4b1b7d8febda3]
class C_0001073500714379115414--><a href="classclanguml_1_1common_1_1model_1_1diagram__element.html" target="_top" title="Base class for standalone diagram elements." xlink:actuate="onRequest" xlink:href="classclanguml_1_1common_1_1model_1_1diagram__element.html" xlink:show="new" xlink:title="Base class for standalone diagram elements." xlink:type="simple"><rect fill="#FEFECE" filter="url(#f1x9hktvjvawvn)" height="48" id="C_0001073500714379115414" style="stroke: #A80036; stroke-width: 1.5;" width="140" x="466" y="210"/><ellipse cx="481" cy="226" fill="#ADD1B2" rx="11" ry="11" style="stroke: #A80036; stroke-width: 1.0;"/><path d="M483.9688,231.6406 Q483.3906,231.9375 482.75,232.0781 Q482.1094,232.2344 481.4063,232.2344 Q478.9063,232.2344 477.5781,230.5938 Q476.2656,228.9375 476.2656,225.8125 Q476.2656,222.6875 477.5781,221.0313 Q478.9063,219.375 481.4063,219.375 Q482.1094,219.375 482.75,219.5313 Q483.4063,219.6875 483.9688,219.9844 L483.9688,222.7031 Q483.3438,222.125 482.75,221.8594 Q482.1563,221.5781 481.5313,221.5781 Q480.1875,221.5781 479.5,222.6563 Q478.8125,223.7188 478.8125,225.8125 Q478.8125,227.9063 479.5,228.9844 Q480.1875,230.0469 481.5313,230.0469 Q482.1563,230.0469 482.75,229.7813 Q483.3438,229.5 483.9688,228.9219 L483.9688,231.6406 Z "/><text fill="#000000" font-family="sans-serif" font-size="12" lengthAdjust="spacingAndGlyphs" textLength="108" x="495" y="230.1543">diagram_element</text><line style="stroke: #A80036; stroke-width: 1.5;" x1="467" x2="605" y1="242" y2="242"/><line style="stroke: #A80036; stroke-width: 1.5;" x1="467" x2="605" y1="250" y2="250"/></a><!--MD5=[61ee72164152887ec594509a8c6f7a5a]
class C_0002069520381434407937--><a href="classclanguml_1_1common_1_1model_1_1element.html" target="_top" title="Base class for any element qualified by namespace." xlink:actuate="onRequest" xlink:href="classclanguml_1_1common_1_1model_1_1element.html" xlink:show="new" xlink:title="Base class for any element qualified by namespace." xlink:type="simple"><rect fill="#FEFECE" filter="url(#f1x9hktvjvawvn)" height="48" id="C_0002069520381434407937" style="stroke: #A80036; stroke-width: 1.5;" width="83" x="427.5" y="318"/><ellipse cx="442.5" cy="334" fill="#ADD1B2" rx="11" ry="11" style="stroke: #A80036; stroke-width: 1.0;"/><path d="M445.4688,339.6406 Q444.8906,339.9375 444.25,340.0781 Q443.6094,340.2344 442.9063,340.2344 Q440.4063,340.2344 439.0781,338.5938 Q437.7656,336.9375 437.7656,333.8125 Q437.7656,330.6875 439.0781,329.0313 Q440.4063,327.375 442.9063,327.375 Q443.6094,327.375 444.25,327.5313 Q444.9063,327.6875 445.4688,327.9844 L445.4688,330.7031 Q444.8438,330.125 444.25,329.8594 Q443.6563,329.5781 443.0313,329.5781 Q441.6875,329.5781 441,330.6563 Q440.3125,331.7188 440.3125,333.8125 Q440.3125,335.9063 441,336.9844 Q441.6875,338.0469 443.0313,338.0469 Q443.6563,338.0469 444.25,337.7813 Q444.8438,337.5 445.4688,336.9219 L445.4688,339.6406 Z "/><text fill="#000000" font-family="sans-serif" font-size="12" lengthAdjust="spacingAndGlyphs" textLength="51" x="456.5" y="338.1543">element</text><line style="stroke: #A80036; stroke-width: 1.5;" x1="428.5" x2="509.5" y1="350" y2="350"/><line style="stroke: #A80036; stroke-width: 1.5;" x1="428.5" x2="509.5" y1="358" y2="358"/></a><!--MD5=[41fe75f5c358e82f7c3b024ae1be5ac2]
class C_0002143286684830686854--><a href="classclanguml_1_1common_1_1model_1_1package.html" target="_top" title="Diagram element representing namespace or directory package" xlink:actuate="onRequest" xlink:href="classclanguml_1_1common_1_1model_1_1package.html" xlink:show="new" xlink:title="Diagram element representing namespace or directory package" xlink:type="simple"><rect fill="#FEFECE" filter="url(#f1x9hktvjvawvn)" height="48" id="C_0002143286684830686854" style="stroke: #A80036; stroke-width: 1.5;" width="86" x="427" y="460"/><ellipse cx="442" cy="476" fill="#ADD1B2" rx="11" ry="11" style="stroke: #A80036; stroke-width: 1.0;"/><path d="M444.9688,481.6406 Q444.3906,481.9375 443.75,482.0781 Q443.1094,482.2344 442.4063,482.2344 Q439.9063,482.2344 438.5781,480.5938 Q437.2656,478.9375 437.2656,475.8125 Q437.2656,472.6875 438.5781,471.0313 Q439.9063,469.375 442.4063,469.375 Q443.1094,469.375 443.75,469.5313 Q444.4063,469.6875 444.9688,469.9844 L444.9688,472.7031 Q444.3438,472.125 443.75,471.8594 Q443.1563,471.5781 442.5313,471.5781 Q441.1875,471.5781 440.5,472.6563 Q439.8125,473.7188 439.8125,475.8125 Q439.8125,477.9063 440.5,478.9844 Q441.1875,480.0469 442.5313,480.0469 Q443.1563,480.0469 443.75,479.7813 Q444.3438,479.5 444.9688,478.9219 L444.9688,481.6406 Z "/><text fill="#000000" font-family="sans-serif" font-size="12" lengthAdjust="spacingAndGlyphs" textLength="54" x="456" y="480.1543">package</text><line style="stroke: #A80036; stroke-width: 1.5;" x1="428" x2="512" y1="492" y2="492"/><line style="stroke: #A80036; stroke-width: 1.5;" x1="428" x2="512" y1="500" y2="500"/></a><!--MD5=[525da812764c4fe64f23950e964f77cd]
class C_0000785714713072053129--><a href="classclanguml_1_1common_1_1model_1_1source__file.html" target="_top" title="Diagram element representing some file or directory." xlink:actuate="onRequest" xlink:href="classclanguml_1_1common_1_1model_1_1source__file.html" xlink:show="new" xlink:title="Diagram element representing some file or directory." xlink:type="simple"><rect fill="#FEFECE" filter="url(#f1x9hktvjvawvn)" height="48" id="C_0000785714713072053129" style="stroke: #A80036; stroke-width: 1.5;" width="99" x="545.5" y="318"/><ellipse cx="560.5" cy="334" fill="#ADD1B2" rx="11" ry="11" style="stroke: #A80036; stroke-width: 1.0;"/><path d="M563.4688,339.6406 Q562.8906,339.9375 562.25,340.0781 Q561.6094,340.2344 560.9063,340.2344 Q558.4063,340.2344 557.0781,338.5938 Q555.7656,336.9375 555.7656,333.8125 Q555.7656,330.6875 557.0781,329.0313 Q558.4063,327.375 560.9063,327.375 Q561.6094,327.375 562.25,327.5313 Q562.9063,327.6875 563.4688,327.9844 L563.4688,330.7031 Q562.8438,330.125 562.25,329.8594 Q561.6563,329.5781 561.0313,329.5781 Q559.6875,329.5781 559,330.6563 Q558.3125,331.7188 558.3125,333.8125 Q558.3125,335.9063 559,336.9844 Q559.6875,338.0469 561.0313,338.0469 Q561.6563,338.0469 562.25,337.7813 Q562.8438,337.5 563.4688,336.9219 L563.4688,339.6406 Z "/><text fill="#000000" font-family="sans-serif" font-size="12" lengthAdjust="spacingAndGlyphs" textLength="67" x="574.5" y="338.1543">source_file</text><line style="stroke: #A80036; stroke-width: 1.5;" x1="546.5" x2="643.5" y1="350" y2="350"/><line style="stroke: #A80036; stroke-width: 1.5;" x1="546.5" x2="643.5" y1="358" y2="358"/></a><!--MD5=[b486570858fa145169115e7c774ba114]
class C_0000605866861866358037--><a href="classclanguml_1_1class__diagram_1_1model_1_1class__element.html" target="_top" title="Base class for class elements (e.g. member or method)." xlink:actuate="onRequest" xlink:href="classclanguml_1_1class__diagram_1_1model_1_1class__element.html" xlink:show="new" xlink:title="Base class for class elements (e.g. member or method)." xlink:type="simple"><rect fill="#FEFECE" filter="url(#f1x9hktvjvawvn)" height="48" id="C_0000605866861866358037" style="stroke: #A80036; stroke-width: 1.5;" width="121" x="1087.5" y="460"/><ellipse cx="1102.5" cy="476" fill="#ADD1B2" rx="11" ry="11" style="stroke: #A80036; stroke-width: 1.0;"/><path d="M1105.4688,481.6406 Q1104.8906,481.9375 1104.25,482.0781 Q1103.6094,482.2344 1102.9063,482.2344 Q1100.4063,482.2344 1099.0781,480.5938 Q1097.7656,478.9375 1097.7656,475.8125 Q1097.7656,472.6875 1099.0781,471.0313 Q1100.4063,469.375 1102.9063,469.375 Q1103.6094,469.375 1104.25,469.5313 Q1104.9063,469.6875 1105.4688,469.9844 L1105.4688,472.7031 Q1104.8438,472.125 1104.25,471.8594 Q1103.6563,471.5781 1103.0313,471.5781 Q1101.6875,471.5781 1101,472.6563 Q1100.3125,473.7188 1100.3125,475.8125 Q1100.3125,477.9063 1101,478.9844 Q1101.6875,480.0469 1103.0313,480.0469 Q1103.6563,480.0469 1104.25,479.7813 Q1104.8438,479.5 1105.4688,478.9219 L1105.4688,481.6406 Z "/><text fill="#000000" font-family="sans-serif" font-size="12" lengthAdjust="spacingAndGlyphs" textLength="89" x="1116.5" y="480.1543">class_element</text><line style="stroke: #A80036; stroke-width: 1.5;" x1="1088.5" x2="1207.5" y1="492" y2="492"/><line style="stroke: #A80036; stroke-width: 1.5;" x1="1088.5" x2="1207.5" y1="500" y2="500"/></a><!--MD5=[a2b7048e31aebc0ffeb4eb6e2a1be8d2]
class C_0001796282762108527255--><a href="classclanguml_1_1class__diagram_1_1model_1_1class__member.html" target="_top" title="Class member model." xlink:actuate="onRequest" xlink:href="classclanguml_1_1class__diagram_1_1model_1_1class__member.html" xlink:show="new" xlink:title="Class member model." xlink:type="simple"><rect fill="#FEFECE" filter="url(#f1x9hktvjvawvn)" height="48" id="C_0001796282762108527255" style="stroke: #A80036; stroke-width: 1.5;" width="121" x="933.5" y="568"/><ellipse cx="948.5" cy="584" fill="#ADD1B2" rx="11" ry="11" style="stroke: #A80036; stroke-width: 1.0;"/><path d="M951.4688,589.6406 Q950.8906,589.9375 950.25,590.0781 Q949.6094,590.2344 948.9063,590.2344 Q946.4063,590.2344 945.0781,588.5938 Q943.7656,586.9375 943.7656,583.8125 Q943.7656,580.6875 945.0781,579.0313 Q946.4063,577.375 948.9063,577.375 Q949.6094,577.375 950.25,577.5313 Q950.9063,577.6875 951.4688,577.9844 L951.4688,580.7031 Q950.8438,580.125 950.25,579.8594 Q949.6563,579.5781 949.0313,579.5781 Q947.6875,579.5781 947,580.6563 Q946.3125,581.7188 946.3125,583.8125 Q946.3125,585.9063 947,586.9844 Q947.6875,588.0469 949.0313,588.0469 Q949.6563,588.0469 950.25,587.7813 Q950.8438,587.5 951.4688,586.9219 L951.4688,589.6406 Z "/><text fill="#000000" font-family="sans-serif" font-size="12" lengthAdjust="spacingAndGlyphs" textLength="89" x="962.5" y="588.1543">class_member</text><line style="stroke: #A80036; stroke-width: 1.5;" x1="934.5" x2="1053.5" y1="600" y2="600"/><line style="stroke: #A80036; stroke-width: 1.5;" x1="934.5" x2="1053.5" y1="608" y2="608"/></a><!--MD5=[3fbd1476055f798f732379619b702fab]
class C_0000204145716468348671--><a href="classclanguml_1_1class__diagram_1_1model_1_1class__method.html" target="_top" title="Class method model." xlink:actuate="onRequest" xlink:href="classclanguml_1_1class__diagram_1_1model_1_1class__method.html" xlink:show="new" xlink:title="Class method model." xlink:type="simple"><rect fill="#FEFECE" filter="url(#f1x9hktvjvawvn)" height="48" id="C_0000204145716468348671" style="stroke: #A80036; stroke-width: 1.5;" width="118" x="1090" y="568"/><ellipse cx="1105" cy="584" fill="#ADD1B2" rx="11" ry="11" style="stroke: #A80036; stroke-width: 1.0;"/><path d="M1107.9688,589.6406 Q1107.3906,589.9375 1106.75,590.0781 Q1106.1094,590.2344 1105.4063,590.2344 Q1102.9063,590.2344 1101.5781,588.5938 Q1100.2656,586.9375 1100.2656,583.8125 Q1100.2656,580.6875 1101.5781,579.0313 Q1102.9063,577.375 1105.4063,577.375 Q1106.1094,577.375 1106.75,577.5313 Q1107.4063,577.6875 1107.9688,577.9844 L1107.9688,580.7031 Q1107.3438,580.125 1106.75,579.8594 Q1106.1563,579.5781 1105.5313,579.5781 Q1104.1875,579.5781 1103.5,580.6563 Q1102.8125,581.7188 1102.8125,583.8125 Q1102.8125,585.9063 1103.5,586.9844 Q1104.1875,588.0469 1105.5313,588.0469 Q1106.1563,588.0469 1106.75,587.7813 Q1107.3438,587.5 1107.9688,586.9219 L1107.9688,589.6406 Z "/><text fill="#000000" font-family="sans-serif" font-size="12" lengthAdjust="spacingAndGlyphs" textLength="86" x="1119" y="588.1543">class_method</text><line style="stroke: #A80036; stroke-width: 1.5;" x1="1091" x2="1207" y1="600" y2="600"/><line style="stroke: #A80036; stroke-width: 1.5;" x1="1091" x2="1207" y1="608" y2="608"/></a><!--MD5=[ae47341ca1a22ddcd7d0b4ea2daf1996]
class C_0001292034357466653182--><a href="classclanguml_1_1class__diagram_1_1model_1_1class__.html" target="_top" title="Diagram element representing a class or class template." xlink:actuate="onRequest" xlink:href="classclanguml_1_1class__diagram_1_1model_1_1class__.html" xlink:show="new" xlink:title="Diagram element representing a class or class template." xlink:type="simple"><rect fill="#FEFECE" filter="url(#f1x9hktvjvawvn)" height="48" id="C_0001292034357466653182" style="stroke: #A80036; stroke-width: 1.5;" width="70" x="982" y="460"/><ellipse cx="997" cy="476" fill="#ADD1B2" rx="11" ry="11" style="stroke: #A80036; stroke-width: 1.0;"/><path d="M999.9688,481.6406 Q999.3906,481.9375 998.75,482.0781 Q998.1094,482.2344 997.4063,482.2344 Q994.9063,482.2344 993.5781,480.5938 Q992.2656,478.9375 992.2656,475.8125 Q992.2656,472.6875 993.5781,471.0313 Q994.9063,469.375 997.4063,469.375 Q998.1094,469.375 998.75,469.5313 Q999.4063,469.6875 999.9688,469.9844 L999.9688,472.7031 Q999.3438,472.125 998.75,471.8594 Q998.1563,471.5781 997.5313,471.5781 Q996.1875,471.5781 995.5,472.6563 Q994.8125,473.7188 994.8125,475.8125 Q994.8125,477.9063 995.5,478.9844 Q996.1875,480.0469 997.5313,480.0469 Q998.1563,480.0469 998.75,479.7813 Q999.3438,479.5 999.9688,478.9219 L999.9688,481.6406 Z "/><text fill="#000000" font-family="sans-serif" font-size="12" lengthAdjust="spacingAndGlyphs" textLength="38" x="1011" y="480.1543">class_</text><line style="stroke: #A80036; stroke-width: 1.5;" x1="983" x2="1051" y1="492" y2="492"/><line style="stroke: #A80036; stroke-width: 1.5;" x1="983" x2="1051" y1="500" y2="500"/></a><!--MD5=[dd3d40541e24383f89990969973b4760]
class C_0001374849051752224500--><a href="classclanguml_1_1class__diagram_1_1model_1_1concept__.html" target="_top" title="Model of C++ concept." xlink:actuate="onRequest" xlink:href="classclanguml_1_1class__diagram_1_1model_1_1concept__.html" xlink:show="new" xlink:title="Model of C++ concept." xlink:type="simple"><rect fill="#FEFECE" filter="url(#f1x9hktvjvawvn)" height="48" id="C_0001374849051752224500" style="stroke: #A80036; stroke-width: 1.5;" width="89" x="857.5" y="460"/><ellipse cx="872.5" cy="476" fill="#ADD1B2" rx="11" ry="11" style="stroke: #A80036; stroke-width: 1.0;"/><path d="M875.4688,481.6406 Q874.8906,481.9375 874.25,482.0781 Q873.6094,482.2344 872.9063,482.2344 Q870.4063,482.2344 869.0781,480.5938 Q867.7656,478.9375 867.7656,475.8125 Q867.7656,472.6875 869.0781,471.0313 Q870.4063,469.375 872.9063,469.375 Q873.6094,469.375 874.25,469.5313 Q874.9063,469.6875 875.4688,469.9844 L875.4688,472.7031 Q874.8438,472.125 874.25,471.8594 Q873.6563,471.5781 873.0313,471.5781 Q871.6875,471.5781 871,472.6563 Q870.3125,473.7188 870.3125,475.8125 Q870.3125,477.9063 871,478.9844 Q871.6875,480.0469 873.0313,480.0469 Q873.6563,480.0469 874.25,479.7813 Q874.8438,479.5 875.4688,478.9219 L875.4688,481.6406 Z "/><text fill="#000000" font-family="sans-serif" font-size="12" lengthAdjust="spacingAndGlyphs" textLength="57" x="886.5" y="480.1543">concept_</text><line style="stroke: #A80036; stroke-width: 1.5;" x1="858.5" x2="945.5" y1="492" y2="492"/><line style="stroke: #A80036; stroke-width: 1.5;" x1="858.5" x2="945.5" y1="500" y2="500"/></a><!--MD5=[ad7c1a05bec632e2a3018185b58507d2]
class C_0000724392977093650506--><a href="classclanguml_1_1class__diagram_1_1model_1_1enum__.html" target="_top" title="enum_" xlink:actuate="onRequest" xlink:href="classclanguml_1_1class__diagram_1_1model_1_1enum__.html" xlink:show="new" xlink:title="enum_" xlink:type="simple"><rect fill="#FEFECE" filter="url(#f1x9hktvjvawvn)" height="48" id="C_0000724392977093650506" style="stroke: #A80036; stroke-width: 1.5;" width="73" x="749.5" y="460"/><ellipse cx="764.5" cy="476" fill="#ADD1B2" rx="11" ry="11" style="stroke: #A80036; stroke-width: 1.0;"/><path d="M767.4688,481.6406 Q766.8906,481.9375 766.25,482.0781 Q765.6094,482.2344 764.9063,482.2344 Q762.4063,482.2344 761.0781,480.5938 Q759.7656,478.9375 759.7656,475.8125 Q759.7656,472.6875 761.0781,471.0313 Q762.4063,469.375 764.9063,469.375 Q765.6094,469.375 766.25,469.5313 Q766.9063,469.6875 767.4688,469.9844 L767.4688,472.7031 Q766.8438,472.125 766.25,471.8594 Q765.6563,471.5781 765.0313,471.5781 Q763.6875,471.5781 763,472.6563 Q762.3125,473.7188 762.3125,475.8125 Q762.3125,477.9063 763,478.9844 Q763.6875,480.0469 765.0313,480.0469 Q765.6563,480.0469 766.25,479.7813 Q766.8438,479.5 767.4688,478.9219 L767.4688,481.6406 Z "/><text fill="#000000" font-family="sans-serif" font-size="12" lengthAdjust="spacingAndGlyphs" textLength="41" x="778.5" y="480.1543">enum_</text><line style="stroke: #A80036; stroke-width: 1.5;" x1="750.5" x2="821.5" y1="492" y2="492"/><line style="stroke: #A80036; stroke-width: 1.5;" x1="750.5" x2="821.5" y1="500" y2="500"/></a><!--MD5=[505367997c2b7099e4ddff1763d1acb5]
class C_0001400215772842495226--><a href="structclanguml_1_1sequence__diagram_1_1model_1_1participant.html" target="_top" title="Base class for various types of sequence diagram participants" xlink:actuate="onRequest" xlink:href="structclanguml_1_1sequence__diagram_1_1model_1_1participant.html" xlink:show="new" xlink:title="Base class for various types of sequence diagram participants" xlink:type="simple"><rect fill="#FEFECE" filter="url(#f1x9hktvjvawvn)" height="48" id="C_0001400215772842495226" style="stroke: #A80036; stroke-width: 1.5;" width="100" x="217" y="460"/><ellipse cx="232" cy="476" fill="#ADD1B2" rx="11" ry="11" style="stroke: #A80036; stroke-width: 1.0;"/><path d="M234.9688,481.6406 Q234.3906,481.9375 233.75,482.0781 Q233.1094,482.2344 232.4063,482.2344 Q229.9063,482.2344 228.5781,480.5938 Q227.2656,478.9375 227.2656,475.8125 Q227.2656,472.6875 228.5781,471.0313 Q229.9063,469.375 232.4063,469.375 Q233.1094,469.375 233.75,469.5313 Q234.4063,469.6875 234.9688,469.9844 L234.9688,472.7031 Q234.3438,472.125 233.75,471.8594 Q233.1563,471.5781 232.5313,471.5781 Q231.1875,471.5781 230.5,472.6563 Q229.8125,473.7188 229.8125,475.8125 Q229.8125,477.9063 230.5,478.9844 Q231.1875,480.0469 232.5313,480.0469 Q233.1563,480.0469 233.75,479.7813 Q234.3438,479.5 234.9688,478.9219 L234.9688,481.6406 Z "/><text fill="#000000" font-family="sans-serif" font-size="12" lengthAdjust="spacingAndGlyphs" textLength="68" x="246" y="480.1543">participant</text><line style="stroke: #A80036; stroke-width: 1.5;" x1="218" x2="316" y1="492" y2="492"/><line style="stroke: #A80036; stroke-width: 1.5;" x1="218" x2="316" y1="500" y2="500"/></a><!--MD5=[b4d475f36669eac2ac4b1a7424da64db]
class C_0000885514871619471610--><a href="structclanguml_1_1sequence__diagram_1_1model_1_1class__.html" target="_top" title="Sequence diagram participant representing a class." xlink:actuate="onRequest" xlink:href="structclanguml_1_1sequence__diagram_1_1model_1_1class__.html" xlink:show="new" xlink:title="Sequence diagram participant representing a class." xlink:type="simple"><rect fill="#FEFECE" filter="url(#f1x9hktvjvawvn)" height="48" id="C_0000885514871619471610" style="stroke: #A80036; stroke-width: 1.5;" width="70" x="109" y="568"/><ellipse cx="124" cy="584" fill="#ADD1B2" rx="11" ry="11" style="stroke: #A80036; stroke-width: 1.0;"/><path d="M126.9688,589.6406 Q126.3906,589.9375 125.75,590.0781 Q125.1094,590.2344 124.4063,590.2344 Q121.9063,590.2344 120.5781,588.5938 Q119.2656,586.9375 119.2656,583.8125 Q119.2656,580.6875 120.5781,579.0313 Q121.9063,577.375 124.4063,577.375 Q125.1094,577.375 125.75,577.5313 Q126.4063,577.6875 126.9688,577.9844 L126.9688,580.7031 Q126.3438,580.125 125.75,579.8594 Q125.1563,579.5781 124.5313,579.5781 Q123.1875,579.5781 122.5,580.6563 Q121.8125,581.7188 121.8125,583.8125 Q121.8125,585.9063 122.5,586.9844 Q123.1875,588.0469 124.5313,588.0469 Q125.1563,588.0469 125.75,587.7813 Q126.3438,587.5 126.9688,586.9219 L126.9688,589.6406 Z "/><text fill="#000000" font-family="sans-serif" font-size="12" lengthAdjust="spacingAndGlyphs" textLength="38" x="138" y="588.1543">class_</text><line style="stroke: #A80036; stroke-width: 1.5;" x1="110" x2="178" y1="600" y2="600"/><line style="stroke: #A80036; stroke-width: 1.5;" x1="110" x2="178" y1="608" y2="608"/></a><!--MD5=[fea9086604aaaceeec1cf807579b2064]
class C_0000232638456031681828--><a href="structclanguml_1_1sequence__diagram_1_1model_1_1function.html" target="_top" title="Participant mode representing a free function." xlink:actuate="onRequest" xlink:href="structclanguml_1_1sequence__diagram_1_1model_1_1function.html" xlink:show="new" xlink:title="Participant mode representing a free function." xlink:type="simple"><rect fill="#FEFECE" filter="url(#f1x9hktvjvawvn)" height="48" id="C_0000232638456031681828" style="stroke: #A80036; stroke-width: 1.5;" width="83" x="214.5" y="568"/><ellipse cx="229.5" cy="584" fill="#ADD1B2" rx="11" ry="11" style="stroke: #A80036; stroke-width: 1.0;"/><path d="M232.4688,589.6406 Q231.8906,589.9375 231.25,590.0781 Q230.6094,590.2344 229.9063,590.2344 Q227.4063,590.2344 226.0781,588.5938 Q224.7656,586.9375 224.7656,583.8125 Q224.7656,580.6875 226.0781,579.0313 Q227.4063,577.375 229.9063,577.375 Q230.6094,577.375 231.25,577.5313 Q231.9063,577.6875 232.4688,577.9844 L232.4688,580.7031 Q231.8438,580.125 231.25,579.8594 Q230.6563,579.5781 230.0313,579.5781 Q228.6875,579.5781 228,580.6563 Q227.3125,581.7188 227.3125,583.8125 Q227.3125,585.9063 228,586.9844 Q228.6875,588.0469 230.0313,588.0469 Q230.6563,588.0469 231.25,587.7813 Q231.8438,587.5 232.4688,586.9219 L232.4688,589.6406 Z "/><text fill="#000000" font-family="sans-serif" font-size="12" lengthAdjust="spacingAndGlyphs" textLength="51" x="243.5" y="588.1543">function</text><line style="stroke: #A80036; stroke-width: 1.5;" x1="215.5" x2="296.5" y1="600" y2="600"/><line style="stroke: #A80036; stroke-width: 1.5;" x1="215.5" x2="296.5" y1="608" y2="608"/></a><!--MD5=[78f12b5739bf72f527e2506c0e981f4b]
class C_0000817665972547784504--><a href="structclanguml_1_1sequence__diagram_1_1model_1_1method.html" target="_top" title="Participant model representing a method" xlink:actuate="onRequest" xlink:href="structclanguml_1_1sequence__diagram_1_1model_1_1method.html" xlink:show="new" xlink:title="Participant model representing a method" xlink:type="simple"><rect fill="#FEFECE" filter="url(#f1x9hktvjvawvn)" height="48" id="C_0000817665972547784504" style="stroke: #A80036; stroke-width: 1.5;" width="80" x="62" y="676"/><ellipse cx="77" cy="692" fill="#ADD1B2" rx="11" ry="11" style="stroke: #A80036; stroke-width: 1.0;"/><path d="M79.9688,697.6406 Q79.3906,697.9375 78.75,698.0781 Q78.1094,698.2344 77.4063,698.2344 Q74.9063,698.2344 73.5781,696.5938 Q72.2656,694.9375 72.2656,691.8125 Q72.2656,688.6875 73.5781,687.0313 Q74.9063,685.375 77.4063,685.375 Q78.1094,685.375 78.75,685.5313 Q79.4063,685.6875 79.9688,685.9844 L79.9688,688.7031 Q79.3438,688.125 78.75,687.8594 Q78.1563,687.5781 77.5313,687.5781 Q76.1875,687.5781 75.5,688.6563 Q74.8125,689.7188 74.8125,691.8125 Q74.8125,693.9063 75.5,694.9844 Q76.1875,696.0469 77.5313,696.0469 Q78.1563,696.0469 78.75,695.7813 Q79.3438,695.5 79.9688,694.9219 L79.9688,697.6406 Z "/><text fill="#000000" font-family="sans-serif" font-size="12" lengthAdjust="spacingAndGlyphs" textLength="48" x="91" y="696.1543">method</text><line style="stroke: #A80036; stroke-width: 1.5;" x1="63" x2="141" y1="708" y2="708"/><line style="stroke: #A80036; stroke-width: 1.5;" x1="63" x2="141" y1="716" y2="716"/></a><!--MD5=[32d760b788d79d5e0bfcc0697e979e7d]
class C_0002280191967493310558--><a href="structclanguml_1_1sequence__diagram_1_1model_1_1function__template.html" target="_top" title="Participant model representing a function template." xlink:actuate="onRequest" xlink:href="structclanguml_1_1sequence__diagram_1_1model_1_1function__template.html" xlink:show="new" xlink:title="Participant model representing a function template." xlink:type="simple"><rect fill="#FEFECE" filter="url(#f1x9hktvjvawvn)" height="48" id="C_0002280191967493310558" style="stroke: #A80036; stroke-width: 1.5;" width="145" x="177.5" y="676"/><ellipse cx="192.5" cy="692" fill="#ADD1B2" rx="11" ry="11" style="stroke: #A80036; stroke-width: 1.0;"/><path d="M195.4688,697.6406 Q194.8906,697.9375 194.25,698.0781 Q193.6094,698.2344 192.9063,698.2344 Q190.4063,698.2344 189.0781,696.5938 Q187.7656,694.9375 187.7656,691.8125 Q187.7656,688.6875 189.0781,687.0313 Q190.4063,685.375 192.9063,685.375 Q193.6094,685.375 194.25,685.5313 Q194.9063,685.6875 195.4688,685.9844 L195.4688,688.7031 Q194.8438,688.125 194.25,687.8594 Q193.6563,687.5781 193.0313,687.5781 Q191.6875,687.5781 191,688.6563 Q190.3125,689.7188 190.3125,691.8125 Q190.3125,693.9063 191,694.9844 Q191.6875,696.0469 193.0313,696.0469 Q193.6563,696.0469 194.25,695.7813 Q194.8438,695.5 195.4688,694.9219 L195.4688,697.6406 Z "/><text fill="#000000" font-family="sans-serif" font-size="12" lengthAdjust="spacingAndGlyphs" textLength="113" x="206.5" y="696.1543">function_template</text><line style="stroke: #A80036; stroke-width: 1.5;" x1="178.5" x2="321.5" y1="708" y2="708"/><line style="stroke: #A80036; stroke-width: 1.5;" x1="178.5" x2="321.5" y1="716" y2="716"/></a><!--MD5=[d938ea8dcef347175d1d053a93bab664]
class C_0002228653068706235818--><a href="classclanguml_1_1sequence__diagram_1_1model_1_1message.html" target="_top" title="Model of a sequence diagram message." xlink:actuate="onRequest" xlink:href="classclanguml_1_1sequence__diagram_1_1model_1_1message.html" xlink:show="new" xlink:title="Model of a sequence diagram message." xlink:type="simple"><rect fill="#FEFECE" filter="url(#f1x9hktvjvawvn)" height="48" id="C_0002228653068706235818" style="stroke: #A80036; stroke-width: 1.5;" width="89" x="92.5" y="460"/><ellipse cx="107.5" cy="476" fill="#ADD1B2" rx="11" ry="11" style="stroke: #A80036; stroke-width: 1.0;"/><path d="M110.4688,481.6406 Q109.8906,481.9375 109.25,482.0781 Q108.6094,482.2344 107.9063,482.2344 Q105.4063,482.2344 104.0781,480.5938 Q102.7656,478.9375 102.7656,475.8125 Q102.7656,472.6875 104.0781,471.0313 Q105.4063,469.375 107.9063,469.375 Q108.6094,469.375 109.25,469.5313 Q109.9063,469.6875 110.4688,469.9844 L110.4688,472.7031 Q109.8438,472.125 109.25,471.8594 Q108.6563,471.5781 108.0313,471.5781 Q106.6875,471.5781 106,472.6563 Q105.3125,473.7188 105.3125,475.8125 Q105.3125,477.9063 106,478.9844 Q106.6875,480.0469 108.0313,480.0469 Q108.6563,480.0469 109.25,479.7813 Q109.8438,479.5 110.4688,478.9219 L110.4688,481.6406 Z "/><text fill="#000000" font-family="sans-serif" font-size="12" lengthAdjust="spacingAndGlyphs" textLength="57" x="121.5" y="480.1543">message</text><line style="stroke: #A80036; stroke-width: 1.5;" x1="93.5" x2="180.5" y1="492" y2="492"/><line style="stroke: #A80036; stroke-width: 1.5;" x1="93.5" x2="180.5" y1="500" y2="500"/></a><!--MD5=[ca2904572ba2305549e4f16921901e5a]
reverse link C_0000895261582183440230 to C_0001073500714379115414--><path d="M548.48,170.02 C545.79,183.58 542.93,198.04 540.62,209.68 " fill="none" id="C_0000895261582183440230&lt;-C_0001073500714379115414" style="stroke: #A80036; stroke-width: 1.0;"/><polygon fill="none" points="541.69,168.26,552.44,150,555.42,170.98,541.69,168.26" style="stroke: #A80036; stroke-width: 1.0;"/><!--MD5=[4f2a77547d39d73bea822e52b2f0976b]
reverse link C_0001073500714379115414 to C_0002069520381434407937--><path d="M510.63,275.13 C501.55,289.5 491.62,305.21 483.74,317.68 " fill="none" id="C_0001073500714379115414&lt;-C_0002069520381434407937" style="stroke: #A80036; stroke-width: 1.0;"/><polygon fill="none" points="504.86,271.17,521.46,258,516.69,278.65,504.86,271.17" style="stroke: #A80036; stroke-width: 1.0;"/><!--MD5=[3b5b148458d09c1202603fe4c86398e5]
reverse link C_0002069520381434407937 to C_0002143286684830686854--><path d="M469.31,386.2 C469.48,410.5 469.69,439.88 469.83,459.85 " fill="none" id="C_0002069520381434407937&lt;-C_0002143286684830686854" style="stroke: #A80036; stroke-width: 1.0;"/><polygon fill="none" points="462.31,386.17,469.17,366.12,476.31,386.07,462.31,386.17" style="stroke: #A80036; stroke-width: 1.0;"/><!--MD5=[5ecb1d83165a712adbd5650cef34b86b]
reverse link C_0001073500714379115414 to C_0000785714713072053129--><path d="M558.61,275.61 C566.53,289.85 575.15,305.35 582.02,317.68 " fill="none" id="C_0001073500714379115414&lt;-C_0000785714713072053129" style="stroke: #A80036; stroke-width: 1.0;"/><polygon fill="none" points="552.41,278.88,548.8,258,564.65,272.07,552.41,278.88" style="stroke: #A80036; stroke-width: 1.0;"/><!--MD5=[f0387d9954afcf30c87ff075e3f6770a]
reverse link C_0000895261582183440230 to C_0000605866861866358037--><path d="M642.12,153.21 C750.38,189.64 938.95,263.8 1070,374 C1099.03,398.41 1122.71,435.93 1136.09,459.96 " fill="none" id="C_0000895261582183440230&lt;-C_0000605866861866358037" style="stroke: #A80036; stroke-width: 1.0;"/><polygon fill="none" points="639.67,159.77,622.88,146.85,644.06,146.48,639.67,159.77" style="stroke: #A80036; stroke-width: 1.0;"/><!--MD5=[d8e4acfe1535dd965012bd96698e8da6]
reverse link C_0000605866861866358037 to C_0001796282762108527255--><path d="M1111.71,522.3 C1099.17,533.98 1084.6,546.33 1070,556 C1063.58,560.25 1056.56,564.24 1049.47,567.9 " fill="none" id="C_0000605866861866358037&lt;-C_0001796282762108527255" style="stroke: #A80036; stroke-width: 1.0;"/><polygon fill="none" points="1107.11,517.01,1126.34,508.11,1116.85,527.06,1107.11,517.01" style="stroke: #A80036; stroke-width: 1.0;"/><!--MD5=[319ad9cfab865c6a4b42924a2f265e34]
reverse link C_0000605866861866358037 to C_0000204145716468348671--><path d="M1148.41,528.02 C1148.53,541.58 1148.67,556.04 1148.78,567.68 " fill="none" id="C_0000605866861866358037&lt;-C_0000204145716468348671" style="stroke: #A80036; stroke-width: 1.0;"/><polygon fill="none" points="1141.41,528.07,1148.22,508,1155.41,527.93,1141.41,528.07" style="stroke: #A80036; stroke-width: 1.0;"/><!--MD5=[4018109609f1a98320137cbe86d3b254]
reverse link C_0002069520381434407937 to C_0001292034357466653182--><path d="M530.59,363.47 C621.27,369.08 945.48,362.17 964,374 C993.79,393.03 1007.31,434.02 1013.08,459.96 " fill="none" id="C_0002069520381434407937&lt;-C_0001292034357466653182" style="stroke: #A80036; stroke-width: 1.0;"/><polygon fill="none" points="529.81,370.43,510.68,361.32,531.31,356.51,529.81,370.43" style="stroke: #A80036; stroke-width: 1.0;"/><!--MD5=[cf69ebad9c135069927ecc8912486131]
reverse link C_0002069520381434407937 to C_0001374849051752224500--><path d="M530.58,363.57 C604.08,368.62 826.78,366.08 840,374 C871.38,392.79 888.27,433.86 896.18,459.88 " fill="none" id="C_0002069520381434407937&lt;-C_0001374849051752224500" style="stroke: #A80036; stroke-width: 1.0;"/><polygon fill="none" points="529.75,370.52,510.69,361.28,531.35,356.62,529.75,370.52" style="stroke: #A80036; stroke-width: 1.0;"/><!--MD5=[8c22089b7714b620a371fadcc922a5ed]
reverse link C_0002069520381434407937 to C_0000724392977093650506--><path d="M530.56,364.57 C576.42,370.17 637.24,364.27 661,374 C705.77,392.33 745.61,433.54 767.71,459.71 " fill="none" id="C_0002069520381434407937&lt;-C_0000724392977093650506" style="stroke: #A80036; stroke-width: 1.0;"/><polygon fill="none" points="529.21,371.45,510.72,361.1,531.63,357.66,529.21,371.45" style="stroke: #A80036; stroke-width: 1.0;"/><!--MD5=[62dc895dac1d0c2011f0b281560d3968]
reverse link C_0002069520381434407937 to C_0001400215772842495226--><path d="M410.23,375.19 C359.82,408.05 320.24,439.16 294.74,459.92 " fill="none" id="C_0002069520381434407937&lt;-C_0001400215772842495226" style="stroke: #A80036; stroke-width: 1.0;"/><polygon fill="none" points="406.73,369.12,427.35,364.24,414.28,380.91,406.73,369.12" style="stroke: #A80036; stroke-width: 1.0;"/><!--MD5=[b33f1614e5f0bf4794b27e69905bc927]
reverse link C_0001400215772842495226 to C_0000885514871619471610--><path d="M233.66,523.16 C223.09,534.31 211.02,546.14 199,556 C192.87,561.02 185.99,565.92 179.21,570.38 " fill="none" id="C_0001400215772842495226&lt;-C_0000885514871619471610" style="stroke: #A80036; stroke-width: 1.0;"/><polygon fill="none" points="228.77,518.14,247.44,508.12,239.09,527.6,228.77,518.14" style="stroke: #A80036; stroke-width: 1.0;"/><!--MD5=[cff630a429a41d6509e30ee5071e7c05]
reverse link C_0001400215772842495226 to C_0000232638456031681828--><path d="M262.54,528.02 C261.13,541.58 259.63,556.04 258.42,567.68 " fill="none" id="C_0001400215772842495226&lt;-C_0000232638456031681828" style="stroke: #A80036; stroke-width: 1.0;"/><polygon fill="none" points="255.59,527.17,264.61,508,269.51,528.62,255.59,527.17" style="stroke: #A80036; stroke-width: 1.0;"/><!--MD5=[aaa21626746a78046d7a511702c30bb7]
reverse link C_0000232638456031681828 to C_0000817665972547784504--><path d="M229.83,632.38 C220.59,643.88 209.39,655.6 197,664 C182.69,673.7 176.27,670.14 160,676 C154.19,678.09 148.09,680.39 142.12,682.7 " fill="none" id="C_0000232638456031681828&lt;-C_0000817665972547784504" style="stroke: #A80036; stroke-width: 1.0;"/><polygon fill="none" points="224.34,628.03,241.85,616.1,235.6,636.35,224.34,628.03" style="stroke: #A80036; stroke-width: 1.0;"/><!--MD5=[ed3960d209e9f24c5c41aa336e94c692]
reverse link C_0000232638456031681828 to C_0002280191967493310558--><path d="M253.56,636.02 C252.8,649.58 251.98,664.04 251.32,675.68 " fill="none" id="C_0000232638456031681828&lt;-C_0002280191967493310558" style="stroke: #A80036; stroke-width: 1.0;"/><polygon fill="none" points="246.58,635.57,254.7,616,260.56,636.36,246.58,635.57" style="stroke: #A80036; stroke-width: 1.0;"/><!--MD5=[a67a2b87f33292a603fe6541cbf2f274]
reverse link C_0001073500714379115414 to C_0002228653068706235818--><path d="M446.04,255.07 C372.95,275.1 270.74,312.02 200,374 C173.2,397.48 154.99,435.25 145.29,459.59 " fill="none" id="C_0001073500714379115414&lt;-C_0002228653068706235818" style="stroke: #A80036; stroke-width: 1.0;"/><polygon fill="none" points="444.71,248.18,465.83,249.86,448.27,261.72,444.71,248.18" style="stroke: #A80036; stroke-width: 1.0;"/><!--MD5=[6061c3b4863762df56532c49ed4e9146]
@startuml
package [common] as C_0000316605034920222648 {
package [model] as C_0000083721806430512831 {
class "source_location" as C_0000895261582183440230
class C_0000895261582183440230 [[classclanguml_1_1common_1_1model_1_1source__location.html{Base class of all diagram elements that have source location.}]] {
__
}
class "diagram_element" as C_0001073500714379115414
class C_0001073500714379115414 [[classclanguml_1_1common_1_1model_1_1diagram__element.html{Base class for standalone diagram elements.}]] {
__
}
class "element" as C_0002069520381434407937
class C_0002069520381434407937 [[classclanguml_1_1common_1_1model_1_1element.html{Base class for any element qualified by namespace.}]] {
__
}
class "package" as C_0002143286684830686854
class C_0002143286684830686854 [[classclanguml_1_1common_1_1model_1_1package.html{Diagram element representing namespace or directory package}]] {
__
}
class "source_file" as C_0000785714713072053129
class C_0000785714713072053129 [[classclanguml_1_1common_1_1model_1_1source__file.html{Diagram element representing some file or directory.}]] {
__
}
}
}
package [class_diagram] as C_0002240167036201725606 {
package [model] as C_0000897124234964432620 {
class "class_element" as C_0000605866861866358037
class C_0000605866861866358037 [[classclanguml_1_1class__diagram_1_1model_1_1class__element.html{Base class for class elements (e.g. member or method).}]] {
__
}
class "class_member" as C_0001796282762108527255
class C_0001796282762108527255 [[classclanguml_1_1class__diagram_1_1model_1_1class__member.html{Class member model.}]] {
__
}
class "class_method" as C_0000204145716468348671
class C_0000204145716468348671 [[classclanguml_1_1class__diagram_1_1model_1_1class__method.html{Class method model.}]] {
__
}
class "class_" as C_0001292034357466653182
class C_0001292034357466653182 [[classclanguml_1_1class__diagram_1_1model_1_1class__.html{Diagram element representing a class or class template.}]] {
__
}
class "concept_" as C_0001374849051752224500
class C_0001374849051752224500 [[classclanguml_1_1class__diagram_1_1model_1_1concept__.html{Model of C++ concept.}]] {
__
}
class "enum_" as C_0000724392977093650506
class C_0000724392977093650506 [[classclanguml_1_1class__diagram_1_1model_1_1enum__.html{enum_}]] {
__
}
}
}
package [sequence_diagram] as C_0001521862840957629236 {
package [model] as C_0002206969880830639264 {
class "participant" as C_0001400215772842495226
class C_0001400215772842495226 [[structclanguml_1_1sequence__diagram_1_1model_1_1participant.html{Base class for various types of sequence diagram participants}]] {
__
}
class "class_" as C_0000885514871619471610
class C_0000885514871619471610 [[structclanguml_1_1sequence__diagram_1_1model_1_1class__.html{Sequence diagram participant representing a class.}]] {
__
}
class "function" as C_0000232638456031681828
class C_0000232638456031681828 [[structclanguml_1_1sequence__diagram_1_1model_1_1function.html{Participant mode representing a free function.}]] {
__
}
class "method" as C_0000817665972547784504
class C_0000817665972547784504 [[structclanguml_1_1sequence__diagram_1_1model_1_1method.html{Participant model representing a method}]] {
__
}
class "function_template" as C_0002280191967493310558
class C_0002280191967493310558 [[structclanguml_1_1sequence__diagram_1_1model_1_1function__template.html{Participant model representing a function template.}]] {
__
}
class "message" as C_0002228653068706235818
class C_0002228653068706235818 [[classclanguml_1_1sequence__diagram_1_1model_1_1message.html{Model of a sequence diagram message.}]] {
__
}
}
}
C_0000895261582183440230 <|- - C_0001073500714379115414
C_0001073500714379115414 <|- - C_0002069520381434407937
C_0002069520381434407937 <|- - C_0002143286684830686854
C_0001073500714379115414 <|- - C_0000785714713072053129
C_0000895261582183440230 <|- - C_0000605866861866358037
C_0000605866861866358037 <|- - C_0001796282762108527255
C_0000605866861866358037 <|- - C_0000204145716468348671
C_0002069520381434407937 <|- - C_0001292034357466653182
C_0002069520381434407937 <|- - C_0001374849051752224500
C_0002069520381434407937 <|- - C_0000724392977093650506
C_0002069520381434407937 <|- - C_0001400215772842495226
C_0001400215772842495226 <|- - C_0000885514871619471610
C_0001400215772842495226 <|- - C_0000232638456031681828
C_0000232638456031681828 <|- - C_0000817665972547784504
C_0000232638456031681828 <|- - C_0002280191967493310558
C_0001073500714379115414 <|- - C_0002228653068706235818

@enduml

PlantUML version 1.2020.02(Sun Mar 01 11:22:07 CET 2020)
(GPL source distribution)
Java Runtime: OpenJDK Runtime Environment
JVM: OpenJDK 64-Bit Server VM
Java Version: 11.0.19+7-post-Ubuntu-0ubuntu122.04.1
Operating System: Linux
Default Encoding: UTF-8
Language: en
Country: US
--></g></svg>