<?xml version="1.0" encoding="UTF-8" standalone="no"?><svg xmlns="http://www.w3.org/2000/svg" xmlns:xlink="http://www.w3.org/1999/xlink" contentScriptType="application/ecmascript" contentStyleType="text/css" height="560px" preserveAspectRatio="none" style="width:1371px;height:560px;" version="1.1" viewBox="0 0 1371 560" width="1371px" zoomAndPan="magnify"><defs><filter height="300%" id="flm412hacvf57" width="300%" x="-1" y="-1"><feGaussianBlur result="blurOut" stdDeviation="2.0"/><feColorMatrix in="blurOut" result="blurOut2" type="matrix" values="0 0 0 0 0 0 0 0 0 0 0 0 0 0 0 0 0 0 .4 0"/><feOffset dx="4.0" dy="4.0" in="blurOut2" result="blurOut3"/><feBlend in="SourceGraphic" in2="blurOut3" mode="normal"/></filter></defs><g><!--MD5=[7ba9c127878a642fef3f451151dda753]
cluster C_0000316605034920222648--><polygon fill="#FFFFFF" filter="url(#flm412hacvf57)" points="22,24,95,24,102,46.2969,464,46.2969,464,332,22,332,22,24" style="stroke: #000000; stroke-width: 1.5;"/><line style="stroke: #000000; stroke-width: 1.5;" x1="22" x2="102" y1="46.2969" y2="46.2969"/><text fill="#000000" font-family="sans-serif" font-size="14" font-weight="bold" lengthAdjust="spacingAndGlyphs" textLength="67" x="26" y="38.9951">common</text><!--MD5=[f7110622f5be760311cd0491b75bf8f9]
cluster C_0000083721806430512831--><polygon fill="#FFFFFF" filter="url(#flm412hacvf57)" points="46,67,100,67,107,89.2969,440,89.2969,440,308,46,308,46,67" style="stroke: #000000; stroke-width: 1.5;"/><line style="stroke: #000000; stroke-width: 1.5;" x1="46" x2="107" y1="89.2969" y2="89.2969"/><text fill="#000000" font-family="sans-serif" font-size="14" font-weight="bold" lengthAdjust="spacingAndGlyphs" textLength="48" x="50" y="81.9951">model</text><!--MD5=[09e992b259734a9820adb2642bf347d2]
cluster C_0002240167036201725606--><polygon fill="#FFFFFF" filter="url(#flm412hacvf57)" points="488,166,604,166,611,188.2969,871,188.2969,871,332,488,332,488,166" style="stroke: #000000; stroke-width: 1.5;"/><line style="stroke: #000000; stroke-width: 1.5;" x1="488" x2="611" y1="188.2969" y2="188.2969"/><text fill="#000000" font-family="sans-serif" font-size="14" font-weight="bold" lengthAdjust="spacingAndGlyphs" textLength="110" x="492" y="180.9951">class_diagram</text><!--MD5=[5d123d1ba3dda692cf099252127394e7]
cluster C_0000897124234964432620--><polygon fill="#FFFFFF" filter="url(#flm412hacvf57)" points="512,209,566,209,573,231.2969,847,231.2969,847,308,512,308,512,209" style="stroke: #000000; stroke-width: 1.5;"/><line style="stroke: #000000; stroke-width: 1.5;" x1="512" x2="573" y1="231.2969" y2="231.2969"/><text fill="#000000" font-family="sans-serif" font-size="14" font-weight="bold" lengthAdjust="spacingAndGlyphs" textLength="48" x="516" y="223.9951">model</text><!--MD5=[2319765f5fef5e41f5b55adb85cd73ea]
cluster C_0001521862840957629236--><polygon fill="#FFFFFF" filter="url(#flm412hacvf57)" points="895,166,1049,166,1056,188.2969,1349,188.2969,1349,548,895,548,895,166" style="stroke: #000000; stroke-width: 1.5;"/><line style="stroke: #000000; stroke-width: 1.5;" x1="895" x2="1056" y1="188.2969" y2="188.2969"/><text fill="#000000" font-family="sans-serif" font-size="14" font-weight="bold" lengthAdjust="spacingAndGlyphs" textLength="148" x="899" y="180.9951">sequence_diagram</text><!--MD5=[aff6d1ed1f9fc56ba8376cf20ecae299]
cluster C_0002206969880830639264--><polygon fill="#FFFFFF" filter="url(#flm412hacvf57)" points="919,209,973,209,980,231.2969,1325,231.2969,1325,524,919,524,919,209" style="stroke: #000000; stroke-width: 1.5;"/><line style="stroke: #000000; stroke-width: 1.5;" x1="919" x2="980" y1="231.2969" y2="231.2969"/><text fill="#000000" font-family="sans-serif" font-size="14" font-weight="bold" lengthAdjust="spacingAndGlyphs" textLength="48" x="923" y="223.9951">model</text><!--MD5=[39023b0134efb4261990e1927fe4a3ac]
class C_0002077846075979426940--><a href="classclanguml_1_1common_1_1model_1_1stylable__element.html" target="_top" title="Diagram elements to which style can be applied." xlink:actuate="onRequest" xlink:href="classclanguml_1_1common_1_1model_1_1stylable__element.html" xlink:show="new" xlink:title="Diagram elements to which style can be applied." xlink:type="simple"><rect fill="#FEFECE" filter="url(#flm412hacvf57)" height="48" id="C_0002077846075979426940" style="stroke: #A80036; stroke-width: 1.5;" width="137" x="286.5" y="102"/><ellipse cx="301.5" cy="118" fill="#ADD1B2" rx="11" ry="11" style="stroke: #A80036; stroke-width: 1.0;"/><path d="M304.4688,123.6406 Q303.8906,123.9375 303.25,124.0781 Q302.6094,124.2344 301.9063,124.2344 Q299.4063,124.2344 298.0781,122.5938 Q296.7656,120.9375 296.7656,117.8125 Q296.7656,114.6875 298.0781,113.0313 Q299.4063,111.375 301.9063,111.375 Q302.6094,111.375 303.25,111.5313 Q303.9063,111.6875 304.4688,111.9844 L304.4688,114.7031 Q303.8438,114.125 303.25,113.8594 Q302.6563,113.5781 302.0313,113.5781 Q300.6875,113.5781 300,114.6563 Q299.3125,115.7188 299.3125,117.8125 Q299.3125,119.9063 300,120.9844 Q300.6875,122.0469 302.0313,122.0469 Q302.6563,122.0469 303.25,121.7813 Q303.8438,121.5 304.4688,120.9219 L304.4688,123.6406 Z "/><text fill="#000000" font-family="sans-serif" font-size="12" lengthAdjust="spacingAndGlyphs" textLength="105" x="315.5" y="122.1543">stylable_element</text><line style="stroke: #A80036; stroke-width: 1.5;" x1="287.5" x2="422.5" y1="134" y2="134"/><line style="stroke: #A80036; stroke-width: 1.5;" x1="287.5" x2="422.5" y1="142" y2="142"/></a><!--MD5=[e8deacb898fc3c022fd97c095b285f76]
class C_0002046336758797367926--><a href="classclanguml_1_1common_1_1model_1_1relationship.html" target="_top" title="Class representing any relationship other than inheritance" xlink:actuate="onRequest" xlink:href="classclanguml_1_1common_1_1model_1_1relationship.html" xlink:show="new" xlink:title="Class representing any relationship other than inheritance" xlink:type="simple"><rect fill="#FEFECE" filter="url(#flm412hacvf57)" height="48" id="C_0002046336758797367926" style="stroke: #A80036; stroke-width: 1.5;" width="106" x="62" y="244"/><ellipse cx="77" cy="260" fill="#ADD1B2" rx="11" ry="11" style="stroke: #A80036; stroke-width: 1.0;"/><path d="M79.9688,265.6406 Q79.3906,265.9375 78.75,266.0781 Q78.1094,266.2344 77.4063,266.2344 Q74.9063,266.2344 73.5781,264.5938 Q72.2656,262.9375 72.2656,259.8125 Q72.2656,256.6875 73.5781,255.0313 Q74.9063,253.375 77.4063,253.375 Q78.1094,253.375 78.75,253.5313 Q79.4063,253.6875 79.9688,253.9844 L79.9688,256.7031 Q79.3438,256.125 78.75,255.8594 Q78.1563,255.5781 77.5313,255.5781 Q76.1875,255.5781 75.5,256.6563 Q74.8125,257.7188 74.8125,259.8125 Q74.8125,261.9063 75.5,262.9844 Q76.1875,264.0469 77.5313,264.0469 Q78.1563,264.0469 78.75,263.7813 Q79.3438,263.5 79.9688,262.9219 L79.9688,265.6406 Z "/><text fill="#000000" font-family="sans-serif" font-size="12" lengthAdjust="spacingAndGlyphs" textLength="74" x="91" y="264.1543">relationship</text><line style="stroke: #A80036; stroke-width: 1.5;" x1="63" x2="167" y1="276" y2="276"/><line style="stroke: #A80036; stroke-width: 1.5;" x1="63" x2="167" y1="284" y2="284"/></a><!--MD5=[41fe75f5c358e82f7c3b024ae1be5ac2]
class C_0002143286684830686854--><a href="classclanguml_1_1common_1_1model_1_1package.html" target="_top" title="Diagram element representing namespace or directory package" xlink:actuate="onRequest" xlink:href="classclanguml_1_1common_1_1model_1_1package.html" xlink:show="new" xlink:title="Diagram element representing namespace or directory package" xlink:type="simple"><rect fill="#FEFECE" filter="url(#flm412hacvf57)" height="48" id="C_0002143286684830686854" style="stroke: #A80036; stroke-width: 1.5;" width="86" x="203" y="244"/><ellipse cx="218" cy="260" fill="#ADD1B2" rx="11" ry="11" style="stroke: #A80036; stroke-width: 1.0;"/><path d="M220.9688,265.6406 Q220.3906,265.9375 219.75,266.0781 Q219.1094,266.2344 218.4063,266.2344 Q215.9063,266.2344 214.5781,264.5938 Q213.2656,262.9375 213.2656,259.8125 Q213.2656,256.6875 214.5781,255.0313 Q215.9063,253.375 218.4063,253.375 Q219.1094,253.375 219.75,253.5313 Q220.4063,253.6875 220.9688,253.9844 L220.9688,256.7031 Q220.3438,256.125 219.75,255.8594 Q219.1563,255.5781 218.5313,255.5781 Q217.1875,255.5781 216.5,256.6563 Q215.8125,257.7188 215.8125,259.8125 Q215.8125,261.9063 216.5,262.9844 Q217.1875,264.0469 218.5313,264.0469 Q219.1563,264.0469 219.75,263.7813 Q220.3438,263.5 220.9688,262.9219 L220.9688,265.6406 Z "/><text fill="#000000" font-family="sans-serif" font-size="12" lengthAdjust="spacingAndGlyphs" textLength="54" x="232" y="264.1543">package</text><line style="stroke: #A80036; stroke-width: 1.5;" x1="204" x2="288" y1="276" y2="276"/><line style="stroke: #A80036; stroke-width: 1.5;" x1="204" x2="288" y1="284" y2="284"/></a><!--MD5=[525da812764c4fe64f23950e964f77cd]
class C_0000785714713072053129--><a href="classclanguml_1_1common_1_1model_1_1source__file.html" target="_top" title="Diagram element representing some file or directory." xlink:actuate="onRequest" xlink:href="classclanguml_1_1common_1_1model_1_1source__file.html" xlink:show="new" xlink:title="Diagram element representing some file or directory." xlink:type="simple"><rect fill="#FEFECE" filter="url(#flm412hacvf57)" height="48" id="C_0000785714713072053129" style="stroke: #A80036; stroke-width: 1.5;" width="99" x="324.5" y="244"/><ellipse cx="339.5" cy="260" fill="#ADD1B2" rx="11" ry="11" style="stroke: #A80036; stroke-width: 1.0;"/><path d="M342.4688,265.6406 Q341.8906,265.9375 341.25,266.0781 Q340.6094,266.2344 339.9063,266.2344 Q337.4063,266.2344 336.0781,264.5938 Q334.7656,262.9375 334.7656,259.8125 Q334.7656,256.6875 336.0781,255.0313 Q337.4063,253.375 339.9063,253.375 Q340.6094,253.375 341.25,253.5313 Q341.9063,253.6875 342.4688,253.9844 L342.4688,256.7031 Q341.8438,256.125 341.25,255.8594 Q340.6563,255.5781 340.0313,255.5781 Q338.6875,255.5781 338,256.6563 Q337.3125,257.7188 337.3125,259.8125 Q337.3125,261.9063 338,262.9844 Q338.6875,264.0469 340.0313,264.0469 Q340.6563,264.0469 341.25,263.7813 Q341.8438,263.5 342.4688,262.9219 L342.4688,265.6406 Z "/><text fill="#000000" font-family="sans-serif" font-size="12" lengthAdjust="spacingAndGlyphs" textLength="67" x="353.5" y="264.1543">source_file</text><line style="stroke: #A80036; stroke-width: 1.5;" x1="325.5" x2="422.5" y1="276" y2="276"/><line style="stroke: #A80036; stroke-width: 1.5;" x1="325.5" x2="422.5" y1="284" y2="284"/></a><!--MD5=[ae47341ca1a22ddcd7d0b4ea2daf1996]
class C_0001292034357466653182--><a href="classclanguml_1_1class__diagram_1_1model_1_1class__.html" target="_top" title="Diagram element representing a class or class template." xlink:actuate="onRequest" xlink:href="classclanguml_1_1class__diagram_1_1model_1_1class__.html" xlink:show="new" xlink:title="Diagram element representing a class or class template." xlink:type="simple"><rect fill="#FEFECE" filter="url(#flm412hacvf57)" height="48" id="C_0001292034357466653182" style="stroke: #A80036; stroke-width: 1.5;" width="70" x="761" y="244"/><ellipse cx="776" cy="260" fill="#ADD1B2" rx="11" ry="11" style="stroke: #A80036; stroke-width: 1.0;"/><path d="M778.9688,265.6406 Q778.3906,265.9375 777.75,266.0781 Q777.1094,266.2344 776.4063,266.2344 Q773.9063,266.2344 772.5781,264.5938 Q771.2656,262.9375 771.2656,259.8125 Q771.2656,256.6875 772.5781,255.0313 Q773.9063,253.375 776.4063,253.375 Q777.1094,253.375 777.75,253.5313 Q778.4063,253.6875 778.9688,253.9844 L778.9688,256.7031 Q778.3438,256.125 777.75,255.8594 Q777.1563,255.5781 776.5313,255.5781 Q775.1875,255.5781 774.5,256.6563 Q773.8125,257.7188 773.8125,259.8125 Q773.8125,261.9063 774.5,262.9844 Q775.1875,264.0469 776.5313,264.0469 Q777.1563,264.0469 777.75,263.7813 Q778.3438,263.5 778.9688,262.9219 L778.9688,265.6406 Z "/><text fill="#000000" font-family="sans-serif" font-size="12" lengthAdjust="spacingAndGlyphs" textLength="38" x="790" y="264.1543">class_</text><line style="stroke: #A80036; stroke-width: 1.5;" x1="762" x2="830" y1="276" y2="276"/><line style="stroke: #A80036; stroke-width: 1.5;" x1="762" x2="830" y1="284" y2="284"/></a><!--MD5=[dd3d40541e24383f89990969973b4760]
class C_0001374849051752224500--><a href="classclanguml_1_1class__diagram_1_1model_1_1concept__.html" target="_top" title="concept_" xlink:actuate="onRequest" xlink:href="classclanguml_1_1class__diagram_1_1model_1_1concept__.html" xlink:show="new" xlink:title="concept_" xlink:type="simple"><rect fill="#FEFECE" filter="url(#flm412hacvf57)" height="48" id="C_0001374849051752224500" style="stroke: #A80036; stroke-width: 1.5;" width="89" x="636.5" y="244"/><ellipse cx="651.5" cy="260" fill="#ADD1B2" rx="11" ry="11" style="stroke: #A80036; stroke-width: 1.0;"/><path d="M654.4688,265.6406 Q653.8906,265.9375 653.25,266.0781 Q652.6094,266.2344 651.9063,266.2344 Q649.4063,266.2344 648.0781,264.5938 Q646.7656,262.9375 646.7656,259.8125 Q646.7656,256.6875 648.0781,255.0313 Q649.4063,253.375 651.9063,253.375 Q652.6094,253.375 653.25,253.5313 Q653.9063,253.6875 654.4688,253.9844 L654.4688,256.7031 Q653.8438,256.125 653.25,255.8594 Q652.6563,255.5781 652.0313,255.5781 Q650.6875,255.5781 650,256.6563 Q649.3125,257.7188 649.3125,259.8125 Q649.3125,261.9063 650,262.9844 Q650.6875,264.0469 652.0313,264.0469 Q652.6563,264.0469 653.25,263.7813 Q653.8438,263.5 654.4688,262.9219 L654.4688,265.6406 Z "/><text fill="#000000" font-family="sans-serif" font-size="12" lengthAdjust="spacingAndGlyphs" textLength="57" x="665.5" y="264.1543">concept_</text><line style="stroke: #A80036; stroke-width: 1.5;" x1="637.5" x2="724.5" y1="276" y2="276"/><line style="stroke: #A80036; stroke-width: 1.5;" x1="637.5" x2="724.5" y1="284" y2="284"/></a><!--MD5=[ad7c1a05bec632e2a3018185b58507d2]
class C_0000724392977093650506--><a href="classclanguml_1_1class__diagram_1_1model_1_1enum__.html" target="_top" title="enum_" xlink:actuate="onRequest" xlink:href="classclanguml_1_1class__diagram_1_1model_1_1enum__.html" xlink:show="new" xlink:title="enum_" xlink:type="simple"><rect fill="#FEFECE" filter="url(#flm412hacvf57)" height="48" id="C_0000724392977093650506" style="stroke: #A80036; stroke-width: 1.5;" width="73" x="528.5" y="244"/><ellipse cx="543.5" cy="260" fill="#ADD1B2" rx="11" ry="11" style="stroke: #A80036; stroke-width: 1.0;"/><path d="M546.4688,265.6406 Q545.8906,265.9375 545.25,266.0781 Q544.6094,266.2344 543.9063,266.2344 Q541.4063,266.2344 540.0781,264.5938 Q538.7656,262.9375 538.7656,259.8125 Q538.7656,256.6875 540.0781,255.0313 Q541.4063,253.375 543.9063,253.375 Q544.6094,253.375 545.25,253.5313 Q545.9063,253.6875 546.4688,253.9844 L546.4688,256.7031 Q545.8438,256.125 545.25,255.8594 Q544.6563,255.5781 544.0313,255.5781 Q542.6875,255.5781 542,256.6563 Q541.3125,257.7188 541.3125,259.8125 Q541.3125,261.9063 542,262.9844 Q542.6875,264.0469 544.0313,264.0469 Q544.6563,264.0469 545.25,263.7813 Q545.8438,263.5 546.4688,262.9219 L546.4688,265.6406 Z "/><text fill="#000000" font-family="sans-serif" font-size="12" lengthAdjust="spacingAndGlyphs" textLength="41" x="557.5" y="264.1543">enum_</text><line style="stroke: #A80036; stroke-width: 1.5;" x1="529.5" x2="600.5" y1="276" y2="276"/><line style="stroke: #A80036; stroke-width: 1.5;" x1="529.5" x2="600.5" y1="284" y2="284"/></a><!--MD5=[505367997c2b7099e4ddff1763d1acb5]
class C_0001400215772842495226--><a href="structclanguml_1_1sequence__diagram_1_1model_1_1participant.html" target="_top" title="participant" xlink:actuate="onRequest" xlink:href="structclanguml_1_1sequence__diagram_1_1model_1_1participant.html" xlink:show="new" xlink:title="participant" xlink:type="simple"><rect fill="#FEFECE" filter="url(#flm412hacvf57)" height="48" id="C_0001400215772842495226" style="stroke: #A80036; stroke-width: 1.5;" width="100" x="935" y="244"/><ellipse cx="950" cy="260" fill="#ADD1B2" rx="11" ry="11" style="stroke: #A80036; stroke-width: 1.0;"/><path d="M952.9688,265.6406 Q952.3906,265.9375 951.75,266.0781 Q951.1094,266.2344 950.4063,266.2344 Q947.9063,266.2344 946.5781,264.5938 Q945.2656,262.9375 945.2656,259.8125 Q945.2656,256.6875 946.5781,255.0313 Q947.9063,253.375 950.4063,253.375 Q951.1094,253.375 951.75,253.5313 Q952.4063,253.6875 952.9688,253.9844 L952.9688,256.7031 Q952.3438,256.125 951.75,255.8594 Q951.1563,255.5781 950.5313,255.5781 Q949.1875,255.5781 948.5,256.6563 Q947.8125,257.7188 947.8125,259.8125 Q947.8125,261.9063 948.5,262.9844 Q949.1875,264.0469 950.5313,264.0469 Q951.1563,264.0469 951.75,263.7813 Q952.3438,263.5 952.9688,262.9219 L952.9688,265.6406 Z "/><text fill="#000000" font-family="sans-serif" font-size="12" lengthAdjust="spacingAndGlyphs" textLength="68" x="964" y="264.1543">participant</text><line style="stroke: #A80036; stroke-width: 1.5;" x1="936" x2="1034" y1="276" y2="276"/><line style="stroke: #A80036; stroke-width: 1.5;" x1="936" x2="1034" y1="284" y2="284"/></a><!--MD5=[b4d475f36669eac2ac4b1a7424da64db]
class C_0000885514871619471610--><a href="structclanguml_1_1sequence__diagram_1_1model_1_1class__.html" target="_top" title="class_" xlink:actuate="onRequest" xlink:href="structclanguml_1_1sequence__diagram_1_1model_1_1class__.html" xlink:show="new" xlink:title="class_" xlink:type="simple"><rect fill="#FEFECE" filter="url(#flm412hacvf57)" height="48" id="C_0000885514871619471610" style="stroke: #A80036; stroke-width: 1.5;" width="70" x="940" y="352"/><ellipse cx="955" cy="368" fill="#ADD1B2" rx="11" ry="11" style="stroke: #A80036; stroke-width: 1.0;"/><path d="M957.9688,373.6406 Q957.3906,373.9375 956.75,374.0781 Q956.1094,374.2344 955.4063,374.2344 Q952.9063,374.2344 951.5781,372.5938 Q950.2656,370.9375 950.2656,367.8125 Q950.2656,364.6875 951.5781,363.0313 Q952.9063,361.375 955.4063,361.375 Q956.1094,361.375 956.75,361.5313 Q957.4063,361.6875 957.9688,361.9844 L957.9688,364.7031 Q957.3438,364.125 956.75,363.8594 Q956.1563,363.5781 955.5313,363.5781 Q954.1875,363.5781 953.5,364.6563 Q952.8125,365.7188 952.8125,367.8125 Q952.8125,369.9063 953.5,370.9844 Q954.1875,372.0469 955.5313,372.0469 Q956.1563,372.0469 956.75,371.7813 Q957.3438,371.5 957.9688,370.9219 L957.9688,373.6406 Z "/><text fill="#000000" font-family="sans-serif" font-size="12" lengthAdjust="spacingAndGlyphs" textLength="38" x="969" y="372.1543">class_</text><line style="stroke: #A80036; stroke-width: 1.5;" x1="941" x2="1009" y1="384" y2="384"/><line style="stroke: #A80036; stroke-width: 1.5;" x1="941" x2="1009" y1="392" y2="392"/></a><!--MD5=[de5a82e666bdb24735685a0a35a357d3]
class C_0001701531547288995691--><a href="structclanguml_1_1sequence__diagram_1_1model_1_1lambda.html" target="_top" title="lambda" xlink:actuate="onRequest" xlink:href="structclanguml_1_1sequence__diagram_1_1model_1_1lambda.html" xlink:show="new" xlink:title="lambda" xlink:type="simple"><rect fill="#FEFECE" filter="url(#flm412hacvf57)" height="48" id="C_0001701531547288995691" style="stroke: #A80036; stroke-width: 1.5;" width="78" x="935" y="460"/><ellipse cx="950" cy="476" fill="#ADD1B2" rx="11" ry="11" style="stroke: #A80036; stroke-width: 1.0;"/><path d="M952.9688,481.6406 Q952.3906,481.9375 951.75,482.0781 Q951.1094,482.2344 950.4063,482.2344 Q947.9063,482.2344 946.5781,480.5938 Q945.2656,478.9375 945.2656,475.8125 Q945.2656,472.6875 946.5781,471.0313 Q947.9063,469.375 950.4063,469.375 Q951.1094,469.375 951.75,469.5313 Q952.4063,469.6875 952.9688,469.9844 L952.9688,472.7031 Q952.3438,472.125 951.75,471.8594 Q951.1563,471.5781 950.5313,471.5781 Q949.1875,471.5781 948.5,472.6563 Q947.8125,473.7188 947.8125,475.8125 Q947.8125,477.9063 948.5,478.9844 Q949.1875,480.0469 950.5313,480.0469 Q951.1563,480.0469 951.75,479.7813 Q952.3438,479.5 952.9688,478.9219 L952.9688,481.6406 Z "/><text fill="#000000" font-family="sans-serif" font-size="12" lengthAdjust="spacingAndGlyphs" textLength="46" x="964" y="480.1543">lambda</text><line style="stroke: #A80036; stroke-width: 1.5;" x1="936" x2="1012" y1="492" y2="492"/><line style="stroke: #A80036; stroke-width: 1.5;" x1="936" x2="1012" y1="500" y2="500"/></a><!--MD5=[fea9086604aaaceeec1cf807579b2064]
class C_0000232638456031681828--><a href="structclanguml_1_1sequence__diagram_1_1model_1_1function.html" target="_top" title="function" xlink:actuate="onRequest" xlink:href="structclanguml_1_1sequence__diagram_1_1model_1_1function.html" xlink:show="new" xlink:title="function" xlink:type="simple"><rect fill="#FEFECE" filter="url(#flm412hacvf57)" height="48" id="C_0000232638456031681828" style="stroke: #A80036; stroke-width: 1.5;" width="83" x="1046.5" y="352"/><ellipse cx="1061.5" cy="368" fill="#ADD1B2" rx="11" ry="11" style="stroke: #A80036; stroke-width: 1.0;"/><path d="M1064.4688,373.6406 Q1063.8906,373.9375 1063.25,374.0781 Q1062.6094,374.2344 1061.9063,374.2344 Q1059.4063,374.2344 1058.0781,372.5938 Q1056.7656,370.9375 1056.7656,367.8125 Q1056.7656,364.6875 1058.0781,363.0313 Q1059.4063,361.375 1061.9063,361.375 Q1062.6094,361.375 1063.25,361.5313 Q1063.9063,361.6875 1064.4688,361.9844 L1064.4688,364.7031 Q1063.8438,364.125 1063.25,363.8594 Q1062.6563,363.5781 1062.0313,363.5781 Q1060.6875,363.5781 1060,364.6563 Q1059.3125,365.7188 1059.3125,367.8125 Q1059.3125,369.9063 1060,370.9844 Q1060.6875,372.0469 1062.0313,372.0469 Q1062.6563,372.0469 1063.25,371.7813 Q1063.8438,371.5 1064.4688,370.9219 L1064.4688,373.6406 Z "/><text fill="#000000" font-family="sans-serif" font-size="12" lengthAdjust="spacingAndGlyphs" textLength="51" x="1075.5" y="372.1543">function</text><line style="stroke: #A80036; stroke-width: 1.5;" x1="1047.5" x2="1128.5" y1="384" y2="384"/><line style="stroke: #A80036; stroke-width: 1.5;" x1="1047.5" x2="1128.5" y1="392" y2="392"/></a><!--MD5=[78f12b5739bf72f527e2506c0e981f4b]
class C_0000817665972547784504--><a href="structclanguml_1_1sequence__diagram_1_1model_1_1method.html" target="_top" title="method" xlink:actuate="onRequest" xlink:href="structclanguml_1_1sequence__diagram_1_1model_1_1method.html" xlink:show="new" xlink:title="method" xlink:type="simple"><rect fill="#FEFECE" filter="url(#flm412hacvf57)" height="48" id="C_0000817665972547784504" style="stroke: #A80036; stroke-width: 1.5;" width="80" x="1048" y="460"/><ellipse cx="1063" cy="476" fill="#ADD1B2" rx="11" ry="11" style="stroke: #A80036; stroke-width: 1.0;"/><path d="M1065.9688,481.6406 Q1065.3906,481.9375 1064.75,482.0781 Q1064.1094,482.2344 1063.4063,482.2344 Q1060.9063,482.2344 1059.5781,480.5938 Q1058.2656,478.9375 1058.2656,475.8125 Q1058.2656,472.6875 1059.5781,471.0313 Q1060.9063,469.375 1063.4063,469.375 Q1064.1094,469.375 1064.75,469.5313 Q1065.4063,469.6875 1065.9688,469.9844 L1065.9688,472.7031 Q1065.3438,472.125 1064.75,471.8594 Q1064.1563,471.5781 1063.5313,471.5781 Q1062.1875,471.5781 1061.5,472.6563 Q1060.8125,473.7188 1060.8125,475.8125 Q1060.8125,477.9063 1061.5,478.9844 Q1062.1875,480.0469 1063.5313,480.0469 Q1064.1563,480.0469 1064.75,479.7813 Q1065.3438,479.5 1065.9688,478.9219 L1065.9688,481.6406 Z "/><text fill="#000000" font-family="sans-serif" font-size="12" lengthAdjust="spacingAndGlyphs" textLength="48" x="1077" y="480.1543">method</text><line style="stroke: #A80036; stroke-width: 1.5;" x1="1049" x2="1127" y1="492" y2="492"/><line style="stroke: #A80036; stroke-width: 1.5;" x1="1049" x2="1127" y1="500" y2="500"/></a><!--MD5=[32d760b788d79d5e0bfcc0697e979e7d]
class C_0002280191967493310558--><a href="structclanguml_1_1sequence__diagram_1_1model_1_1function__template.html" target="_top" title="function_template" xlink:actuate="onRequest" xlink:href="structclanguml_1_1sequence__diagram_1_1model_1_1function__template.html" xlink:show="new" xlink:title="function_template" xlink:type="simple"><rect fill="#FEFECE" filter="url(#flm412hacvf57)" height="48" id="C_0002280191967493310558" style="stroke: #A80036; stroke-width: 1.5;" width="145" x="1163.5" y="460"/><ellipse cx="1178.5" cy="476" fill="#ADD1B2" rx="11" ry="11" style="stroke: #A80036; stroke-width: 1.0;"/><path d="M1181.4688,481.6406 Q1180.8906,481.9375 1180.25,482.0781 Q1179.6094,482.2344 1178.9063,482.2344 Q1176.4063,482.2344 1175.0781,480.5938 Q1173.7656,478.9375 1173.7656,475.8125 Q1173.7656,472.6875 1175.0781,471.0313 Q1176.4063,469.375 1178.9063,469.375 Q1179.6094,469.375 1180.25,469.5313 Q1180.9063,469.6875 1181.4688,469.9844 L1181.4688,472.7031 Q1180.8438,472.125 1180.25,471.8594 Q1179.6563,471.5781 1179.0313,471.5781 Q1177.6875,471.5781 1177,472.6563 Q1176.3125,473.7188 1176.3125,475.8125 Q1176.3125,477.9063 1177,478.9844 Q1177.6875,480.0469 1179.0313,480.0469 Q1179.6563,480.0469 1180.25,479.7813 Q1180.8438,479.5 1181.4688,478.9219 L1181.4688,481.6406 Z "/><text fill="#000000" font-family="sans-serif" font-size="12" lengthAdjust="spacingAndGlyphs" textLength="113" x="1192.5" y="480.1543">function_template</text><line style="stroke: #A80036; stroke-width: 1.5;" x1="1164.5" x2="1307.5" y1="492" y2="492"/><line style="stroke: #A80036; stroke-width: 1.5;" x1="1164.5" x2="1307.5" y1="500" y2="500"/></a><!--MD5=[9d476f3ed11f81b3c86253c8a660c2f2]
reverse link C_0002077846075979426940 to C_0002046336758797367926--><path d="M266.34,136.84 C232.93,141.87 199.69,148.89 186,158 C154.79,178.78 134.21,218.44 123.59,243.76 " fill="none" id="C_0002077846075979426940&lt;-C_0002046336758797367926" style="stroke: #A80036; stroke-width: 1.0;"/><polygon fill="none" points="265.66,129.87,286.44,134.04,267.6,143.73,265.66,129.87" style="stroke: #A80036; stroke-width: 1.0;"/><!--MD5=[8b57dc45e019868d19d5475e79e2f9cd]
reverse link C_0002077846075979426940 to C_0002143286684830686854--><path d="M301.99,165.16 C277.95,194.02 263.65,223.51 255.09,243.63 " fill="none" id="C_0002077846075979426940&lt;-C_0002143286684830686854" style="stroke: #A80036; stroke-width: 1.0;"/><polygon fill="none" points="296.89,160.36,315.47,150.17,307.3,169.72,296.89,160.36" style="stroke: #A80036; stroke-width: 1.0;"/><!--MD5=[4f221eabf3421229e7e20303bd40a63c]
reverse link C_0002077846075979426940 to C_0000785714713072053129--><path d="M360.86,170.2 C364.16,194.5 368.15,223.88 370.86,243.85 " fill="none" id="C_0002077846075979426940&lt;-C_0000785714713072053129" style="stroke: #A80036; stroke-width: 1.0;"/><polygon fill="none" points="353.89,170.88,358.14,150.12,367.76,169,353.89,170.88" style="stroke: #A80036; stroke-width: 1.0;"/><!--MD5=[1de74a5a0bafa25219efbd6fc8924314]
reverse link C_0002077846075979426940 to C_0001292034357466653182--><path d="M443.89,129.49 C550.78,133.19 718.91,141.55 743,158 C772.02,177.81 785.73,218.16 791.76,243.82 " fill="none" id="C_0002077846075979426940&lt;-C_0001292034357466653182" style="stroke: #A80036; stroke-width: 1.0;"/><polygon fill="none" points="443.47,136.48,423.72,128.82,443.94,122.48,443.47,136.48" style="stroke: #A80036; stroke-width: 1.0;"/><!--MD5=[306ac7020e3b65bfcf4fa2a5c5f508b9]
reverse link C_0002077846075979426940 to C_0001374849051752224500--><path d="M443.73,128.94 C508.95,131.92 590.91,139.38 619,158 C649.31,178.08 666.46,218.35 674.72,243.92 " fill="none" id="C_0002077846075979426940&lt;-C_0001374849051752224500" style="stroke: #A80036; stroke-width: 1.0;"/><polygon fill="none" points="443.37,135.93,423.66,128.14,443.93,121.94,443.37,135.93" style="stroke: #A80036; stroke-width: 1.0;"/><!--MD5=[51c9aec8324745136c18c88ab3ea6908]
reverse link C_0002077846075979426940 to C_0000724392977093650506--><path d="M441.12,159.93 C488.59,189.66 522.51,222.08 543.5,243.74 " fill="none" id="C_0002077846075979426940&lt;-C_0000724392977093650506" style="stroke: #A80036; stroke-width: 1.0;"/><polygon fill="none" points="437.33,165.82,423.76,149.55,444.51,153.81,437.33,165.82" style="stroke: #A80036; stroke-width: 1.0;"/><!--MD5=[0cbd70298f55c4689e25f50e6b8f6293]
reverse link C_0002077846075979426940 to C_0001400215772842495226--><path d="M443.99,126.29 C565.34,126.4 775.79,130.73 847,158 C894.9,176.34 939.36,217.55 964.27,243.72 " fill="none" id="C_0002077846075979426940&lt;-C_0001400215772842495226" style="stroke: #A80036; stroke-width: 1.0;"/><polygon fill="none" points="443.87,133.29,423.87,126.31,443.86,119.29,443.87,133.29" style="stroke: #A80036; stroke-width: 1.0;"/><!--MD5=[b33f1614e5f0bf4794b27e69905bc927]
reverse link C_0001400215772842495226 to C_0000885514871619471610--><path d="M980.94,312.02 C979.66,325.58 978.3,340.04 977.2,351.68 " fill="none" id="C_0001400215772842495226&lt;-C_0000885514871619471610" style="stroke: #A80036; stroke-width: 1.0;"/><polygon fill="none" points="973.98,311.25,982.83,292,987.92,312.57,973.98,311.25" style="stroke: #A80036; stroke-width: 1.0;"/><!--MD5=[2c90ee8d9e33f78746e08a7fd0729082]
reverse link C_0000885514871619471610 to C_0001701531547288995691--><path d="M974.59,420.02 C974.47,433.58 974.33,448.04 974.22,459.68 " fill="none" id="C_0000885514871619471610&lt;-C_0001701531547288995691" style="stroke: #A80036; stroke-width: 1.0;"/><polygon fill="none" points="967.59,419.93,974.78,400,981.59,420.07,967.59,419.93" style="stroke: #A80036; stroke-width: 1.0;"/><!--MD5=[cff630a429a41d6509e30ee5071e7c05]
reverse link C_0001400215772842495226 to C_0000232638456031681828--><path d="M1021.68,306.75 C1036.25,321.74 1052.55,338.51 1065.34,351.68 " fill="none" id="C_0001400215772842495226&lt;-C_0000232638456031681828" style="stroke: #A80036; stroke-width: 1.0;"/><polygon fill="none" points="1016.27,311.22,1007.35,292,1026.31,301.47,1016.27,311.22" style="stroke: #A80036; stroke-width: 1.0;"/><!--MD5=[aaa21626746a78046d7a511702c30bb7]
reverse link C_0000232638456031681828 to C_0000817665972547784504--><path d="M1088,420.02 C1088,433.58 1088,448.04 1088,459.68 " fill="none" id="C_0000232638456031681828&lt;-C_0000817665972547784504" style="stroke: #A80036; stroke-width: 1.0;"/><polygon fill="none" points="1081,420,1088,400,1095,420,1081,420" style="stroke: #A80036; stroke-width: 1.0;"/><!--MD5=[ed3960d209e9f24c5c41aa336e94c692]
reverse link C_0000232638456031681828 to C_0002280191967493310558--><path d="M1136.51,411.75 C1158.56,427.53 1184.04,445.78 1203.69,459.86 " fill="none" id="C_0000232638456031681828&lt;-C_0002280191967493310558" style="stroke: #A80036; stroke-width: 1.0;"/><polygon fill="none" points="1132.3,417.34,1120.11,400,1140.45,405.96,1132.3,417.34" style="stroke: #A80036; stroke-width: 1.0;"/><!--MD5=[babd53761514429538691bd4820d4668]
@startuml
package [common] as C_0000316605034920222648 {
package [model] as C_0000083721806430512831 {
class "stylable_element" as C_0002077846075979426940
class C_0002077846075979426940 [[classclanguml_1_1common_1_1model_1_1stylable__element.html{Diagram elements to which style can be applied.}]] {
__
}
class "relationship" as C_0002046336758797367926
class C_0002046336758797367926 [[classclanguml_1_1common_1_1model_1_1relationship.html{Class representing any relationship other than inheritance}]] {
__
}
class "package" as C_0002143286684830686854
class C_0002143286684830686854 [[classclanguml_1_1common_1_1model_1_1package.html{Diagram element representing namespace or directory package}]] {
__
}
class "source_file" as C_0000785714713072053129
class C_0000785714713072053129 [[classclanguml_1_1common_1_1model_1_1source__file.html{Diagram element representing some file or directory.}]] {
__
}
}
}
package [class_diagram] as C_0002240167036201725606 {
package [model] as C_0000897124234964432620 {
class "class_" as C_0001292034357466653182
class C_0001292034357466653182 [[classclanguml_1_1class__diagram_1_1model_1_1class__.html{Diagram element representing a class or class template.}]] {
__
}
class "concept_" as C_0001374849051752224500
class C_0001374849051752224500 [[classclanguml_1_1class__diagram_1_1model_1_1concept__.html{concept_}]] {
__
}
class "enum_" as C_0000724392977093650506
class C_0000724392977093650506 [[classclanguml_1_1class__diagram_1_1model_1_1enum__.html{enum_}]] {
__
}
}
}
package [sequence_diagram] as C_0001521862840957629236 {
package [model] as C_0002206969880830639264 {
class "participant" as C_0001400215772842495226
class C_0001400215772842495226 [[structclanguml_1_1sequence__diagram_1_1model_1_1participant.html{participant}]] {
__
}
class "class_" as C_0000885514871619471610
class C_0000885514871619471610 [[structclanguml_1_1sequence__diagram_1_1model_1_1class__.html{class_}]] {
__
}
class "lambda" as C_0001701531547288995691
class C_0001701531547288995691 [[structclanguml_1_1sequence__diagram_1_1model_1_1lambda.html{lambda}]] {
__
}
class "function" as C_0000232638456031681828
class C_0000232638456031681828 [[structclanguml_1_1sequence__diagram_1_1model_1_1function.html{function}]] {
__
}
class "method" as C_0000817665972547784504
class C_0000817665972547784504 [[structclanguml_1_1sequence__diagram_1_1model_1_1method.html{method}]] {
__
}
class "function_template" as C_0002280191967493310558
class C_0002280191967493310558 [[structclanguml_1_1sequence__diagram_1_1model_1_1function__template.html{function_template}]] {
__
}
}
}
C_0002077846075979426940 <|- - C_0002046336758797367926
C_0002077846075979426940 <|- - C_0002143286684830686854
C_0002077846075979426940 <|- - C_0000785714713072053129
C_0002077846075979426940 <|- - C_0001292034357466653182
C_0002077846075979426940 <|- - C_0001374849051752224500
C_0002077846075979426940 <|- - C_0000724392977093650506
C_0002077846075979426940 <|- - C_0001400215772842495226
C_0001400215772842495226 <|- - C_0000885514871619471610
C_0000885514871619471610 <|- - C_0001701531547288995691
C_0001400215772842495226 <|- - C_0000232638456031681828
C_0000232638456031681828 <|- - C_0000817665972547784504
C_0000232638456031681828 <|- - C_0002280191967493310558

@enduml

PlantUML version 1.2020.02(Sun Mar 01 11:22:07 CET 2020)
(GPL source distribution)
Java Runtime: OpenJDK Runtime Environment
JVM: OpenJDK 64-Bit Server VM
Java Version: 11.0.19+7-post-Ubuntu-0ubuntu122.04.1
Operating System: Linux
Default Encoding: UTF-8
Language: en
Country: US
--></g></svg>