<svg xmlns="http://www.w3.org/2000/svg" xmlns:xlink="http://www.w3.org/1999/xlink" contentStyleType="text/css" height="574px" preserveAspectRatio="none" style="width:1283px;height:574px;background:#FFFFFF;" version="1.1" viewBox="0 0 1283 574" width="1283px" zoomAndPan="magnify">
  <defs>
    <style type="text/css">a:hover { text-decoration: underline; }</style>
  </defs>
  <g>
    <text fill="#000000" font-family="sans-serif" font-size="14" font-weight="bold" lengthAdjust="spacing" textLength="327.8379" x="470.5811" y="22.9951">Stylable diagram element class hierarchy</text>
    <g id="cluster_C_0002532840279361781187">
      <path d="M8.5,43.2969 L76.1777,43.2969 A3.75,3.75 0 0 1 78.6777,45.7969 L85.6777,65.5938 L467.5,65.5938 A2.5,2.5 0 0 1 470,68.0938 L470,348.7969 A2.5,2.5 0 0 1 467.5,351.2969 L8.5,351.2969 A2.5,2.5 0 0 1 6,348.7969 L6,45.7969 A2.5,2.5 0 0 1 8.5,43.2969 " fill="none" style="stroke:#000000;stroke-width:1.5;"/>
      <line style="stroke:#000000;stroke-width:1.5;" x1="6" x2="85.6777" y1="65.5938" y2="65.5938"/>
      <text fill="#000000" font-family="sans-serif" font-size="14" font-weight="bold" lengthAdjust="spacing" textLength="66.6777" x="10" y="58.292">common</text>
    </g>
    <g id="cluster_C_0000669774451444102653">
      <path d="M32.5,86.2969 L82.0215,86.2969 A3.75,3.75 0 0 1 84.5215,88.7969 L91.5215,108.5938 L443.5,108.5938 A2.5,2.5 0 0 1 446,111.0938 L446,324.7969 A2.5,2.5 0 0 1 443.5,327.2969 L32.5,327.2969 A2.5,2.5 0 0 1 30,324.7969 L30,88.7969 A2.5,2.5 0 0 1 32.5,86.2969 " fill="none" style="stroke:#000000;stroke-width:1.5;"/>
      <line style="stroke:#000000;stroke-width:1.5;" x1="30" x2="91.5215" y1="108.5938" y2="108.5938"/>
      <text fill="#000000" font-family="sans-serif" font-size="14" font-weight="bold" lengthAdjust="spacing" textLength="48.5215" x="34" y="101.292">model</text>
    </g>
    <g id="cluster_C_0017921336289613804855">
      <path d="M496.5,185.2969 L608.9395,185.2969 A3.75,3.75 0 0 1 611.4395,187.7969 L618.4395,207.5938 L889.5,207.5938 A2.5,2.5 0 0 1 892,210.0938 L892,348.7969 A2.5,2.5 0 0 1 889.5,351.2969 L496.5,351.2969 A2.5,2.5 0 0 1 494,348.7969 L494,187.7969 A2.5,2.5 0 0 1 496.5,185.2969 " fill="none" style="stroke:#000000;stroke-width:1.5;"/>
      <line style="stroke:#000000;stroke-width:1.5;" x1="494" x2="618.4395" y1="207.5938" y2="207.5938"/>
      <text fill="#000000" font-family="sans-serif" font-size="14" font-weight="bold" lengthAdjust="spacing" textLength="111.4395" x="498" y="200.292">class_diagram</text>
    </g>
    <g id="cluster_C_0007176993879715460962">
      <path d="M520.5,228.2969 L570.0215,228.2969 A3.75,3.75 0 0 1 572.5215,230.7969 L579.5215,250.5938 L865.5,250.5938 A2.5,2.5 0 0 1 868,253.0938 L868,324.7969 A2.5,2.5 0 0 1 865.5,327.2969 L520.5,327.2969 A2.5,2.5 0 0 1 518,324.7969 L518,230.7969 A2.5,2.5 0 0 1 520.5,228.2969 " fill="none" style="stroke:#000000;stroke-width:1.5;"/>
      <line style="stroke:#000000;stroke-width:1.5;" x1="518" x2="579.5215" y1="250.5938" y2="250.5938"/>
      <text fill="#000000" font-family="sans-serif" font-size="14" font-weight="bold" lengthAdjust="spacing" textLength="48.5215" x="522" y="243.292">model</text>
    </g>
    <g id="cluster_C_0012174902727661033893">
      <path d="M918.5,185.2969 L1066.8008,185.2969 A3.75,3.75 0 0 1 1069.3008,187.7969 L1076.3008,207.5938 L1273.5,207.5938 A2.5,2.5 0 0 1 1276,210.0938 L1276,564.7969 A2.5,2.5 0 0 1 1273.5,567.2969 L918.5,567.2969 A2.5,2.5 0 0 1 916,564.7969 L916,187.7969 A2.5,2.5 0 0 1 918.5,185.2969 " fill="none" style="stroke:#000000;stroke-width:1.5;"/>
      <line style="stroke:#000000;stroke-width:1.5;" x1="916" x2="1076.3008" y1="207.5938" y2="207.5938"/>
      <text fill="#000000" font-family="sans-serif" font-size="14" font-weight="bold" lengthAdjust="spacing" textLength="147.3008" x="920" y="200.292">sequence_diagram</text>
    </g>
    <g id="cluster_C_0017655759046645114118">
      <path d="M942.5,228.2969 L992.0215,228.2969 A3.75,3.75 0 0 1 994.5215,230.7969 L1001.5215,250.5938 L1249.5,250.5938 A2.5,2.5 0 0 1 1252,253.0938 L1252,540.7969 A2.5,2.5 0 0 1 1249.5,543.2969 L942.5,543.2969 A2.5,2.5 0 0 1 940,540.7969 L940,230.7969 A2.5,2.5 0 0 1 942.5,228.2969 " fill="none" style="stroke:#000000;stroke-width:1.5;"/>
      <line style="stroke:#000000;stroke-width:1.5;" x1="940" x2="1001.5215" y1="250.5938" y2="250.5938"/>
      <text fill="#000000" font-family="sans-serif" font-size="14" font-weight="bold" lengthAdjust="spacing" textLength="48.5215" x="944" y="243.292">model</text>
    </g>
    <a href="classclanguml_1_1common_1_1model_1_1stylable__element.html" target="_top" title="Diagram elements to which style can be applied." xlink:actuate="onRequest" xlink:href="classclanguml_1_1common_1_1model_1_1stylable__element.html" xlink:show="new" xlink:title="Diagram elements to which style can be applied." xlink:type="simple">
      <g id="elem_C_0016622768607835415521">
        <rect codeLine="5" fill="#F1F1F1" height="48" id="C_0016622768607835415521" rx="2.5" ry="2.5" style="stroke:#181818;stroke-width:0.5;" width="151.6563" x="278" y="121.2969"/>
        <ellipse cx="293" cy="137.2969" fill="#ADD1B2" rx="11" ry="11" style="stroke:#181818;stroke-width:1.0;"/>
        <path d="M295.9688,142.9375 Q295.3906,143.2344 294.75,143.375 Q294.1094,143.5313 293.4063,143.5313 Q290.9063,143.5313 289.5781,141.8906 Q288.2656,140.2344 288.2656,137.1094 Q288.2656,133.9844 289.5781,132.3281 Q290.9063,130.6719 293.4063,130.6719 Q294.1094,130.6719 294.75,130.8281 Q295.4063,130.9844 295.9688,131.2813 L295.9688,134 Q295.3438,133.4219 294.75,133.1563 Q294.1563,132.875 293.5313,132.875 Q292.1875,132.875 291.5,133.9531 Q290.8125,135.0156 290.8125,137.1094 Q290.8125,139.2031 291.5,140.2813 Q292.1875,141.3438 293.5313,141.3438 Q294.1563,141.3438 294.75,141.0781 Q295.3438,140.7969 295.9688,140.2188 L295.9688,142.9375 Z " fill="#000000"/>
        <text fill="#000000" font-family="sans-serif" font-size="14" lengthAdjust="spacing" textLength="119.6563" x="307" y="142.1436">stylable_element</text>
        <line style="stroke:#181818;stroke-width:0.5;" x1="279" x2="428.6563" y1="153.2969" y2="153.2969"/>
        <line style="stroke:#181818;stroke-width:0.5;" x1="279" x2="428.6563" y1="161.2969" y2="161.2969"/>
      </g>
    </a>
    <a href="classclanguml_1_1common_1_1model_1_1relationship.html" target="_top" title="Class representing any relationship other than inheritance" xlink:actuate="onRequest" xlink:href="classclanguml_1_1common_1_1model_1_1relationship.html" xlink:show="new" xlink:title="Class representing any relationship other than inheritance" xlink:type="simple">
      <g id="elem_C_0016370694070378943411">
        <rect codeLine="9" fill="#F1F1F1" height="48" id="C_0016370694070378943411" rx="2.5" ry="2.5" style="stroke:#181818;stroke-width:0.5;" width="114.5986" x="46.5" y="263.2969"/>
        <ellipse cx="61.5" cy="279.2969" fill="#ADD1B2" rx="11" ry="11" style="stroke:#181818;stroke-width:1.0;"/>
        <path d="M64.4688,284.9375 Q63.8906,285.2344 63.25,285.375 Q62.6094,285.5313 61.9063,285.5313 Q59.4063,285.5313 58.0781,283.8906 Q56.7656,282.2344 56.7656,279.1094 Q56.7656,275.9844 58.0781,274.3281 Q59.4063,272.6719 61.9063,272.6719 Q62.6094,272.6719 63.25,272.8281 Q63.9063,272.9844 64.4688,273.2813 L64.4688,276 Q63.8438,275.4219 63.25,275.1563 Q62.6563,274.875 62.0313,274.875 Q60.6875,274.875 60,275.9531 Q59.3125,277.0156 59.3125,279.1094 Q59.3125,281.2031 60,282.2813 Q60.6875,283.3438 62.0313,283.3438 Q62.6563,283.3438 63.25,283.0781 Q63.8438,282.7969 64.4688,282.2188 L64.4688,284.9375 Z " fill="#000000"/>
        <text fill="#000000" font-family="sans-serif" font-size="14" lengthAdjust="spacing" textLength="82.5986" x="75.5" y="284.1436">relationship</text>
        <line style="stroke:#181818;stroke-width:0.5;" x1="47.5" x2="160.0986" y1="295.2969" y2="295.2969"/>
        <line style="stroke:#181818;stroke-width:0.5;" x1="47.5" x2="160.0986" y1="303.2969" y2="303.2969"/>
      </g>
    </a>
    <a href="classclanguml_1_1common_1_1model_1_1source__file.html" target="_top" title="Diagram element representing some file or directory." xlink:actuate="onRequest" xlink:href="classclanguml_1_1common_1_1model_1_1source__file.html" xlink:show="new" xlink:title="Diagram element representing some file or directory." xlink:type="simple">
      <g id="elem_C_0006285717704576425038">
        <rect codeLine="13" fill="#F1F1F1" height="48" id="C_0006285717704576425038" rx="2.5" ry="2.5" style="stroke:#181818;stroke-width:0.5;" width="107.1201" x="196.5" y="263.2969"/>
        <ellipse cx="211.5" cy="279.2969" fill="#ADD1B2" rx="11" ry="11" style="stroke:#181818;stroke-width:1.0;"/>
        <path d="M214.4688,284.9375 Q213.8906,285.2344 213.25,285.375 Q212.6094,285.5313 211.9063,285.5313 Q209.4063,285.5313 208.0781,283.8906 Q206.7656,282.2344 206.7656,279.1094 Q206.7656,275.9844 208.0781,274.3281 Q209.4063,272.6719 211.9063,272.6719 Q212.6094,272.6719 213.25,272.8281 Q213.9063,272.9844 214.4688,273.2813 L214.4688,276 Q213.8438,275.4219 213.25,275.1563 Q212.6563,274.875 212.0313,274.875 Q210.6875,274.875 210,275.9531 Q209.3125,277.0156 209.3125,279.1094 Q209.3125,281.2031 210,282.2813 Q210.6875,283.3438 212.0313,283.3438 Q212.6563,283.3438 213.25,283.0781 Q213.8438,282.7969 214.4688,282.2188 L214.4688,284.9375 Z " fill="#000000"/>
        <text fill="#000000" font-family="sans-serif" font-size="14" lengthAdjust="spacing" textLength="75.1201" x="225.5" y="284.1436">source_file</text>
        <line style="stroke:#181818;stroke-width:0.5;" x1="197.5" x2="302.6201" y1="295.2969" y2="295.2969"/>
        <line style="stroke:#181818;stroke-width:0.5;" x1="197.5" x2="302.6201" y1="303.2969" y2="303.2969"/>
      </g>
    </a>
    <a href="classclanguml_1_1common_1_1model_1_1package.html" target="_top" title="Diagram element representing namespace or directory package" xlink:actuate="onRequest" xlink:href="classclanguml_1_1common_1_1model_1_1package.html" xlink:show="new" xlink:title="Diagram element representing namespace or directory package" xlink:type="simple">
      <g id="elem_C_0017146293478645494837">
        <rect codeLine="17" fill="#F1F1F1" height="48" id="C_0017146293478645494837" rx="2.5" ry="2.5" style="stroke:#181818;stroke-width:0.5;" width="91.3496" x="338.5" y="263.2969"/>
        <ellipse cx="353.5" cy="279.2969" fill="#ADD1B2" rx="11" ry="11" style="stroke:#181818;stroke-width:1.0;"/>
        <path d="M356.4688,284.9375 Q355.8906,285.2344 355.25,285.375 Q354.6094,285.5313 353.9063,285.5313 Q351.4063,285.5313 350.0781,283.8906 Q348.7656,282.2344 348.7656,279.1094 Q348.7656,275.9844 350.0781,274.3281 Q351.4063,272.6719 353.9063,272.6719 Q354.6094,272.6719 355.25,272.8281 Q355.9063,272.9844 356.4688,273.2813 L356.4688,276 Q355.8438,275.4219 355.25,275.1563 Q354.6563,274.875 354.0313,274.875 Q352.6875,274.875 352,275.9531 Q351.3125,277.0156 351.3125,279.1094 Q351.3125,281.2031 352,282.2813 Q352.6875,283.3438 354.0313,283.3438 Q354.6563,283.3438 355.25,283.0781 Q355.8438,282.7969 356.4688,282.2188 L356.4688,284.9375 Z " fill="#000000"/>
        <text fill="#000000" font-family="sans-serif" font-size="14" lengthAdjust="spacing" textLength="59.3496" x="367.5" y="284.1436">package</text>
        <line style="stroke:#181818;stroke-width:0.5;" x1="339.5" x2="428.8496" y1="295.2969" y2="295.2969"/>
        <line style="stroke:#181818;stroke-width:0.5;" x1="339.5" x2="428.8496" y1="303.2969" y2="303.2969"/>
      </g>
    </a>
    <a href="classclanguml_1_1class__diagram_1_1model_1_1class__.html" target="_top" title="Diagram element representing a class or class template." xlink:actuate="onRequest" xlink:href="classclanguml_1_1class__diagram_1_1model_1_1class__.html" xlink:show="new" xlink:title="Diagram element representing a class or class template." xlink:type="simple">
      <g id="elem_C_0010336274859733225462">
        <rect codeLine="25" fill="#F1F1F1" height="48" id="C_0010336274859733225462" rx="2.5" ry="2.5" style="stroke:#181818;stroke-width:0.5;" width="73.7539" x="778" y="263.2969"/>
        <ellipse cx="793" cy="279.2969" fill="#ADD1B2" rx="11" ry="11" style="stroke:#181818;stroke-width:1.0;"/>
        <path d="M795.9688,284.9375 Q795.3906,285.2344 794.75,285.375 Q794.1094,285.5313 793.4063,285.5313 Q790.9063,285.5313 789.5781,283.8906 Q788.2656,282.2344 788.2656,279.1094 Q788.2656,275.9844 789.5781,274.3281 Q790.9063,272.6719 793.4063,272.6719 Q794.1094,272.6719 794.75,272.8281 Q795.4063,272.9844 795.9688,273.2813 L795.9688,276 Q795.3438,275.4219 794.75,275.1563 Q794.1563,274.875 793.5313,274.875 Q792.1875,274.875 791.5,275.9531 Q790.8125,277.0156 790.8125,279.1094 Q790.8125,281.2031 791.5,282.2813 Q792.1875,283.3438 793.5313,283.3438 Q794.1563,283.3438 794.75,283.0781 Q795.3438,282.7969 795.9688,282.2188 L795.9688,284.9375 Z " fill="#000000"/>
        <text fill="#000000" font-family="sans-serif" font-size="14" lengthAdjust="spacing" textLength="41.7539" x="807" y="284.1436">class_</text>
        <line style="stroke:#181818;stroke-width:0.5;" x1="779" x2="850.7539" y1="295.2969" y2="295.2969"/>
        <line style="stroke:#181818;stroke-width:0.5;" x1="779" x2="850.7539" y1="303.2969" y2="303.2969"/>
      </g>
    </a>
    <a href="classclanguml_1_1class__diagram_1_1model_1_1concept__.html" target="_top" title="Model of C++ concept." xlink:actuate="onRequest" xlink:href="classclanguml_1_1class__diagram_1_1model_1_1concept__.html" xlink:show="new" xlink:title="Model of C++ concept." xlink:type="simple">
      <g id="elem_C_0010998792414017796003">
        <rect codeLine="29" fill="#F1F1F1" height="48" id="C_0010998792414017796003" rx="2.5" ry="2.5" style="stroke:#181818;stroke-width:0.5;" width="94.8223" x="647.5" y="263.2969"/>
        <ellipse cx="662.5" cy="279.2969" fill="#ADD1B2" rx="11" ry="11" style="stroke:#181818;stroke-width:1.0;"/>
        <path d="M665.4688,284.9375 Q664.8906,285.2344 664.25,285.375 Q663.6094,285.5313 662.9063,285.5313 Q660.4063,285.5313 659.0781,283.8906 Q657.7656,282.2344 657.7656,279.1094 Q657.7656,275.9844 659.0781,274.3281 Q660.4063,272.6719 662.9063,272.6719 Q663.6094,272.6719 664.25,272.8281 Q664.9063,272.9844 665.4688,273.2813 L665.4688,276 Q664.8438,275.4219 664.25,275.1563 Q663.6563,274.875 663.0313,274.875 Q661.6875,274.875 661,275.9531 Q660.3125,277.0156 660.3125,279.1094 Q660.3125,281.2031 661,282.2813 Q661.6875,283.3438 663.0313,283.3438 Q663.6563,283.3438 664.25,283.0781 Q664.8438,282.7969 665.4688,282.2188 L665.4688,284.9375 Z " fill="#000000"/>
        <text fill="#000000" font-family="sans-serif" font-size="14" lengthAdjust="spacing" textLength="62.8223" x="676.5" y="284.1436">concept_</text>
        <line style="stroke:#181818;stroke-width:0.5;" x1="648.5" x2="741.3223" y1="295.2969" y2="295.2969"/>
        <line style="stroke:#181818;stroke-width:0.5;" x1="648.5" x2="741.3223" y1="303.2969" y2="303.2969"/>
      </g>
    </a>
    <a href="classclanguml_1_1class__diagram_1_1model_1_1enum__.html" target="_top" title="Diagram element representing an enum." xlink:actuate="onRequest" xlink:href="classclanguml_1_1class__diagram_1_1model_1_1enum__.html" xlink:show="new" xlink:title="Diagram element representing an enum." xlink:type="simple">
      <g id="elem_C_0005795143816749204050">
        <rect codeLine="33" fill="#F1F1F1" height="48" id="C_0005795143816749204050" rx="2.5" ry="2.5" style="stroke:#181818;stroke-width:0.5;" width="78.9971" x="533.5" y="263.2969"/>
        <ellipse cx="548.5" cy="279.2969" fill="#ADD1B2" rx="11" ry="11" style="stroke:#181818;stroke-width:1.0;"/>
        <path d="M551.4688,284.9375 Q550.8906,285.2344 550.25,285.375 Q549.6094,285.5313 548.9063,285.5313 Q546.4063,285.5313 545.0781,283.8906 Q543.7656,282.2344 543.7656,279.1094 Q543.7656,275.9844 545.0781,274.3281 Q546.4063,272.6719 548.9063,272.6719 Q549.6094,272.6719 550.25,272.8281 Q550.9063,272.9844 551.4688,273.2813 L551.4688,276 Q550.8438,275.4219 550.25,275.1563 Q549.6563,274.875 549.0313,274.875 Q547.6875,274.875 547,275.9531 Q546.3125,277.0156 546.3125,279.1094 Q546.3125,281.2031 547,282.2813 Q547.6875,283.3438 549.0313,283.3438 Q549.6563,283.3438 550.25,283.0781 Q550.8438,282.7969 551.4688,282.2188 L551.4688,284.9375 Z " fill="#000000"/>
        <text fill="#000000" font-family="sans-serif" font-size="14" lengthAdjust="spacing" textLength="46.9971" x="562.5" y="284.1436">enum_</text>
        <line style="stroke:#181818;stroke-width:0.5;" x1="534.5" x2="611.4971" y1="295.2969" y2="295.2969"/>
        <line style="stroke:#181818;stroke-width:0.5;" x1="534.5" x2="611.4971" y1="303.2969" y2="303.2969"/>
      </g>
    </a>
    <a href="structclanguml_1_1sequence__diagram_1_1model_1_1participant.html" target="_top" title="Base class for various types of sequence diagram participants" xlink:actuate="onRequest" xlink:href="structclanguml_1_1sequence__diagram_1_1model_1_1participant.html" xlink:show="new" xlink:title="Base class for various types of sequence diagram participants" xlink:type="simple">
      <g id="elem_C_0011201726182739961811">
        <rect codeLine="41" fill="#F1F1F1" height="48" id="C_0011201726182739961811" rx="2.5" ry="2.5" style="stroke:#181818;stroke-width:0.5;" width="108.0156" x="956" y="263.2969"/>
        <ellipse cx="971" cy="279.2969" fill="#ADD1B2" rx="11" ry="11" style="stroke:#181818;stroke-width:1.0;"/>
        <path d="M973.9688,284.9375 Q973.3906,285.2344 972.75,285.375 Q972.1094,285.5313 971.4063,285.5313 Q968.9063,285.5313 967.5781,283.8906 Q966.2656,282.2344 966.2656,279.1094 Q966.2656,275.9844 967.5781,274.3281 Q968.9063,272.6719 971.4063,272.6719 Q972.1094,272.6719 972.75,272.8281 Q973.4063,272.9844 973.9688,273.2813 L973.9688,276 Q973.3438,275.4219 972.75,275.1563 Q972.1563,274.875 971.5313,274.875 Q970.1875,274.875 969.5,275.9531 Q968.8125,277.0156 968.8125,279.1094 Q968.8125,281.2031 969.5,282.2813 Q970.1875,283.3438 971.5313,283.3438 Q972.1563,283.3438 972.75,283.0781 Q973.3438,282.7969 973.9688,282.2188 L973.9688,284.9375 Z " fill="#000000"/>
        <text fill="#000000" font-family="sans-serif" font-size="14" lengthAdjust="spacing" textLength="76.0156" x="985" y="284.1436">participant</text>
        <line style="stroke:#181818;stroke-width:0.5;" x1="957" x2="1063.0156" y1="295.2969" y2="295.2969"/>
        <line style="stroke:#181818;stroke-width:0.5;" x1="957" x2="1063.0156" y1="303.2969" y2="303.2969"/>
      </g>
    </a>
    <a href="structclanguml_1_1sequence__diagram_1_1model_1_1class__.html" target="_top" title="Sequence diagram participant representing a class." xlink:actuate="onRequest" xlink:href="structclanguml_1_1sequence__diagram_1_1model_1_1class__.html" xlink:show="new" xlink:title="Sequence diagram participant representing a class." xlink:type="simple">
      <g id="elem_C_0007084118972955772881">
        <rect codeLine="45" fill="#F1F1F1" height="48" id="C_0007084118972955772881" rx="2.5" ry="2.5" style="stroke:#181818;stroke-width:0.5;" width="73.7539" x="964" y="371.2969"/>
        <ellipse cx="979" cy="387.2969" fill="#ADD1B2" rx="11" ry="11" style="stroke:#181818;stroke-width:1.0;"/>
        <path d="M981.9688,392.9375 Q981.3906,393.2344 980.75,393.375 Q980.1094,393.5313 979.4063,393.5313 Q976.9063,393.5313 975.5781,391.8906 Q974.2656,390.2344 974.2656,387.1094 Q974.2656,383.9844 975.5781,382.3281 Q976.9063,380.6719 979.4063,380.6719 Q980.1094,380.6719 980.75,380.8281 Q981.4063,380.9844 981.9688,381.2813 L981.9688,384 Q981.3438,383.4219 980.75,383.1563 Q980.1563,382.875 979.5313,382.875 Q978.1875,382.875 977.5,383.9531 Q976.8125,385.0156 976.8125,387.1094 Q976.8125,389.2031 977.5,390.2813 Q978.1875,391.3438 979.5313,391.3438 Q980.1563,391.3438 980.75,391.0781 Q981.3438,390.7969 981.9688,390.2188 L981.9688,392.9375 Z " fill="#000000"/>
        <text fill="#000000" font-family="sans-serif" font-size="14" lengthAdjust="spacing" textLength="41.7539" x="993" y="392.1436">class_</text>
        <line style="stroke:#181818;stroke-width:0.5;" x1="965" x2="1036.7539" y1="403.2969" y2="403.2969"/>
        <line style="stroke:#181818;stroke-width:0.5;" x1="965" x2="1036.7539" y1="411.2969" y2="411.2969"/>
      </g>
    </a>
    <a href="structclanguml_1_1sequence__diagram_1_1model_1_1function.html" target="_top" title="Participant mode representing a free function." xlink:actuate="onRequest" xlink:href="structclanguml_1_1sequence__diagram_1_1model_1_1function.html" xlink:show="new" xlink:title="Participant mode representing a free function." xlink:type="simple">
      <g id="elem_C_0001861107648253454629">
        <rect codeLine="49" fill="#F1F1F1" height="48" id="C_0001861107648253454629" rx="2.5" ry="2.5" style="stroke:#181818;stroke-width:0.5;" width="89.1895" x="1073.5" y="371.2969"/>
        <ellipse cx="1088.5" cy="387.2969" fill="#ADD1B2" rx="11" ry="11" style="stroke:#181818;stroke-width:1.0;"/>
        <path d="M1091.4688,392.9375 Q1090.8906,393.2344 1090.25,393.375 Q1089.6094,393.5313 1088.9063,393.5313 Q1086.4063,393.5313 1085.0781,391.8906 Q1083.7656,390.2344 1083.7656,387.1094 Q1083.7656,383.9844 1085.0781,382.3281 Q1086.4063,380.6719 1088.9063,380.6719 Q1089.6094,380.6719 1090.25,380.8281 Q1090.9063,380.9844 1091.4688,381.2813 L1091.4688,384 Q1090.8438,383.4219 1090.25,383.1563 Q1089.6563,382.875 1089.0313,382.875 Q1087.6875,382.875 1087,383.9531 Q1086.3125,385.0156 1086.3125,387.1094 Q1086.3125,389.2031 1087,390.2813 Q1087.6875,391.3438 1089.0313,391.3438 Q1089.6563,391.3438 1090.25,391.0781 Q1090.8438,390.7969 1091.4688,390.2188 L1091.4688,392.9375 Z " fill="#000000"/>
        <text fill="#000000" font-family="sans-serif" font-size="14" lengthAdjust="spacing" textLength="57.1895" x="1102.5" y="392.1436">function</text>
        <line style="stroke:#181818;stroke-width:0.5;" x1="1074.5" x2="1161.6895" y1="403.2969" y2="403.2969"/>
        <line style="stroke:#181818;stroke-width:0.5;" x1="1074.5" x2="1161.6895" y1="411.2969" y2="411.2969"/>
      </g>
    </a>
    <a href="structclanguml_1_1sequence__diagram_1_1model_1_1method.html" target="_top" title="Participant model representing a method" xlink:actuate="onRequest" xlink:href="structclanguml_1_1sequence__diagram_1_1model_1_1method.html" xlink:show="new" xlink:title="Participant model representing a method" xlink:type="simple">
      <g id="elem_C_0006541327780382276039">
        <rect codeLine="53" fill="#F1F1F1" height="48" id="C_0006541327780382276039" rx="2.5" ry="2.5" style="stroke:#181818;stroke-width:0.5;" width="86.0654" x="956" y="479.2969"/>
        <ellipse cx="971" cy="495.2969" fill="#ADD1B2" rx="11" ry="11" style="stroke:#181818;stroke-width:1.0;"/>
        <path d="M973.9688,500.9375 Q973.3906,501.2344 972.75,501.375 Q972.1094,501.5313 971.4063,501.5313 Q968.9063,501.5313 967.5781,499.8906 Q966.2656,498.2344 966.2656,495.1094 Q966.2656,491.9844 967.5781,490.3281 Q968.9063,488.6719 971.4063,488.6719 Q972.1094,488.6719 972.75,488.8281 Q973.4063,488.9844 973.9688,489.2813 L973.9688,492 Q973.3438,491.4219 972.75,491.1563 Q972.1563,490.875 971.5313,490.875 Q970.1875,490.875 969.5,491.9531 Q968.8125,493.0156 968.8125,495.1094 Q968.8125,497.2031 969.5,498.2813 Q970.1875,499.3438 971.5313,499.3438 Q972.1563,499.3438 972.75,499.0781 Q973.3438,498.7969 973.9688,498.2188 L973.9688,500.9375 Z " fill="#000000"/>
        <text fill="#000000" font-family="sans-serif" font-size="14" lengthAdjust="spacing" textLength="54.0654" x="985" y="500.1436">method</text>
        <line style="stroke:#181818;stroke-width:0.5;" x1="957" x2="1041.0654" y1="511.2969" y2="511.2969"/>
        <line style="stroke:#181818;stroke-width:0.5;" x1="957" x2="1041.0654" y1="519.2969" y2="519.2969"/>
      </g>
    </a>
    <a href="structclanguml_1_1sequence__diagram_1_1model_1_1function__template.html" target="_top" title="Participant model representing a function template." xlink:actuate="onRequest" xlink:href="structclanguml_1_1sequence__diagram_1_1model_1_1function__template.html" xlink:show="new" xlink:title="Participant model representing a function template." xlink:type="simple">
      <g id="elem_C_0018241535739946484465">
        <rect codeLine="57" fill="#F1F1F1" height="48" id="C_0018241535739946484465" rx="2.5" ry="2.5" style="stroke:#181818;stroke-width:0.5;" width="159.3877" x="1077.5" y="479.2969"/>
        <ellipse cx="1092.5" cy="495.2969" fill="#ADD1B2" rx="11" ry="11" style="stroke:#181818;stroke-width:1.0;"/>
        <path d="M1095.4688,500.9375 Q1094.8906,501.2344 1094.25,501.375 Q1093.6094,501.5313 1092.9063,501.5313 Q1090.4063,501.5313 1089.0781,499.8906 Q1087.7656,498.2344 1087.7656,495.1094 Q1087.7656,491.9844 1089.0781,490.3281 Q1090.4063,488.6719 1092.9063,488.6719 Q1093.6094,488.6719 1094.25,488.8281 Q1094.9063,488.9844 1095.4688,489.2813 L1095.4688,492 Q1094.8438,491.4219 1094.25,491.1563 Q1093.6563,490.875 1093.0313,490.875 Q1091.6875,490.875 1091,491.9531 Q1090.3125,493.0156 1090.3125,495.1094 Q1090.3125,497.2031 1091,498.2813 Q1091.6875,499.3438 1093.0313,499.3438 Q1093.6563,499.3438 1094.25,499.0781 Q1094.8438,498.7969 1095.4688,498.2188 L1095.4688,500.9375 Z " fill="#000000"/>
        <text fill="#000000" font-family="sans-serif" font-size="14" lengthAdjust="spacing" textLength="127.3877" x="1106.5" y="500.1436">function_template</text>
        <line style="stroke:#181818;stroke-width:0.5;" x1="1078.5" x2="1235.8877" y1="511.2969" y2="511.2969"/>
        <line style="stroke:#181818;stroke-width:0.5;" x1="1078.5" x2="1235.8877" y1="519.2969" y2="519.2969"/>
      </g>
    </a>
    <g id="link_C_0016622768607835415521_C_0016370694070378943411">
      <path codeLine="62" d="M259.7091,156.279 C220.4891,161.359 195.41,166.7369 179,177.2969 C146.93,197.9269 124.92,237.6369 113.4,263.0069 " fill="none" id="C_0016622768607835415521-backto-C_0016370694070378943411" style="stroke:#181818;stroke-width:1.0;"/>
      <polygon fill="none" points="277.56,153.9669,258.9384,150.3287,260.4798,162.2293,277.56,153.9669" style="stroke:#181818;stroke-width:1.0;"/>
    </g>
    <g id="link_C_0016622768607835415521_C_0006285717704576425038">
      <path codeLine="63" d="M315.6083,182.3086 C292.5583,209.8386 276.14,240.2069 262.93,263.0669 " fill="none" id="C_0016622768607835415521-backto-C_0006285717704576425038" style="stroke:#181818;stroke-width:1.0;"/>
      <polygon fill="none" points="328.16,169.4069,311.3077,178.1247,319.9089,186.4925,328.16,169.4069" style="stroke:#181818;stroke-width:1.0;"/>
    </g>
    <g id="link_C_0016622768607835415521_C_0017146293478645494837">
      <path codeLine="64" d="M362.7225,187.0171 C368.2825,212.9571 373.48,237.1869 379.04,263.1469 " fill="none" id="C_0016622768607835415521-backto-C_0017146293478645494837" style="stroke:#181818;stroke-width:1.0;"/>
      <polygon fill="none" points="358.95,169.4169,356.8557,188.2746,368.5892,185.7596,358.95,169.4169" style="stroke:#181818;stroke-width:1.0;"/>
    </g>
    <g id="link_C_0016622768607835415521_C_0010336274859733225462">
      <path codeLine="65" d="M448.3623,148.6417 C558.4023,151.8517 733.34,159.4569 760,177.2969 C789.42,196.9869 803.86,237.3769 810.35,263.0769 " fill="none" id="C_0016622768607835415521-backto-C_0010336274859733225462" style="stroke:#181818;stroke-width:1.0;"/>
      <polygon fill="none" points="430.37,148.1169,448.1874,154.6392,448.5373,142.6443,430.37,148.1169" style="stroke:#181818;stroke-width:1.0;"/>
    </g>
    <g id="link_C_0016622768607835415521_C_0010998792414017796003">
      <path codeLine="66" d="M448.2902,147.9701 C518.3402,150.2801 597.98,156.6669 630,177.2969 C660.93,197.2269 679.17,237.5369 688.11,263.1569 " fill="none" id="C_0016622768607835415521-backto-C_0010998792414017796003" style="stroke:#181818;stroke-width:1.0;"/>
      <polygon fill="none" points="430.3,147.3769,448.0925,153.9669,448.488,141.9734,430.3,147.3769" style="stroke:#181818;stroke-width:1.0;"/>
    </g>
    <g id="link_C_0016622768607835415521_C_0005795143816749204050">
      <path codeLine="67" d="M446.7448,176.7708 C487.9148,200.1908 527.4,238.4969 551.2,262.8669 " fill="none" id="C_0016622768607835415521-backto-C_0005795143816749204050" style="stroke:#181818;stroke-width:1.0;"/>
      <polygon fill="none" points="430.32,169.4069,444.2902,182.2457,449.1994,171.2958,430.32,169.4069" style="stroke:#181818;stroke-width:1.0;"/>
    </g>
    <g id="link_C_0016622768607835415521_C_0011201726182739961811">
      <path codeLine="68" d="M448.3099,145.3925 C571.4299,144.9525 790.01,148.1669 868,177.2969 C916.91,195.5669 962.78,236.7969 988.54,262.9869 " fill="none" id="C_0016622768607835415521-backto-C_0011201726182739961811" style="stroke:#181818;stroke-width:1.0;"/>
      <polygon fill="none" points="430.31,145.4569,448.3313,151.3925,448.2884,139.3926,430.31,145.4569" style="stroke:#181818;stroke-width:1.0;"/>
    </g>
    <g id="link_C_0011201726182739961811_C_0007084118972955772881">
      <path codeLine="69" d="M1006.5266,329.2323 C1005.0266,346.8923 1004.49,353.2369 1002.98,370.9769 " fill="none" id="C_0011201726182739961811-backto-C_0007084118972955772881" style="stroke:#181818;stroke-width:1.0;"/>
      <polygon fill="none" points="1008.05,311.2969,1000.5481,328.7245,1012.5051,329.7401,1008.05,311.2969" style="stroke:#181818;stroke-width:1.0;"/>
    </g>
    <g id="link_C_0011201726182739961811_C_0001861107648253454629">
      <path codeLine="70" d="M1046.2787,323.9029 C1064.2787,341.5629 1076.17,353.2369 1094.24,370.9769 " fill="none" id="C_0011201726182739961811-backto-C_0001861107648253454629" style="stroke:#181818;stroke-width:1.0;"/>
      <polygon fill="none" points="1033.43,311.2969,1042.0767,328.1858,1050.4807,319.62,1033.43,311.2969" style="stroke:#181818;stroke-width:1.0;"/>
    </g>
    <g id="link_C_0001861107648253454629_C_0006541327780382276039">
      <path codeLine="71" d="M1078.7409,431.2714 C1058.9209,448.9314 1045.09,461.2369 1025.18,478.9769 " fill="none" id="C_0001861107648253454629-backto-C_0006541327780382276039" style="stroke:#181818;stroke-width:1.0;"/>
      <polygon fill="none" points="1092.18,419.2969,1074.7493,426.7917,1082.7324,435.7511,1092.18,419.2969" style="stroke:#181818;stroke-width:1.0;"/>
    </g>
    <g id="link_C_0001861107648253454629_C_0018241535739946484465">
      <path codeLine="72" d="M1132.6774,436.189 C1139.1774,453.849 1141.89,461.2369 1148.42,478.9769 " fill="none" id="C_0001861107648253454629-backto-C_0018241535739946484465" style="stroke:#181818;stroke-width:1.0;"/>
      <polygon fill="none" points="1126.46,419.2969,1127.0467,438.2615,1138.3081,434.1166,1126.46,419.2969" style="stroke:#181818;stroke-width:1.0;"/>
    </g>
  </g>
</svg>
