<svg xmlns="http://www.w3.org/2000/svg" xmlns:xlink="http://www.w3.org/1999/xlink" contentStyleType="text/css" height="589px" preserveAspectRatio="none" style="width:1563px;height:589px;background:#FFFFFF;" version="1.1" viewBox="0 0 1563 589" width="1563px" zoomAndPan="magnify">
  <title>Stylable diagram element class hierarchy</title>
  <defs>
    <style type="text/css">a:hover { text-decoration: underline; }</style>
  </defs>
  <g>
    <text fill="#000000" font-family="sans-serif" font-size="14" font-weight="bold" lengthAdjust="spacing" textLength="288.6789" x="630.1606" y="24.9659">Stylable diagram element class hierarchy</text>
    <g id="cluster_C_0002532840279361781187">
      <path d="M8.5,46.6699 L70.7218,46.6699 A3.75,3.75 0 0 1 73.2218,49.1699 L80.2218,71.7378 L454.5,71.7378 A2.5,2.5 0 0 1 457,74.2378 L457,364.1699 A2.5,2.5 0 0 1 454.5,366.6699 L8.5,366.6699 A2.5,2.5 0 0 1 6,364.1699 L6,49.1699 A2.5,2.5 0 0 1 8.5,46.6699 " fill="none" style="stroke:#000000;stroke-width:1.5;"/>
      <line style="stroke:#000000;stroke-width:1.5;" x1="6" x2="80.2218" y1="71.7378" y2="71.7378"/>
      <text fill="#000000" font-family="sans-serif" font-size="14" font-weight="bold" lengthAdjust="spacing" textLength="61.2218" x="10" y="63.6358">common</text>
    </g>
    <g id="cluster_C_0000669774451444102653">
      <path d="M32.5,92.6699 L77.3198,92.6699 A3.75,3.75 0 0 1 79.8198,95.1699 L86.8198,117.7378 L430.5,117.7378 A2.5,2.5 0 0 1 433,120.2378 L433,340.1699 A2.5,2.5 0 0 1 430.5,342.6699 L32.5,342.6699 A2.5,2.5 0 0 1 30,340.1699 L30,95.1699 A2.5,2.5 0 0 1 32.5,92.6699 " fill="none" style="stroke:#000000;stroke-width:1.5;"/>
      <line style="stroke:#000000;stroke-width:1.5;" x1="30" x2="86.8198" y1="117.7378" y2="117.7378"/>
      <text fill="#000000" font-family="sans-serif" font-size="14" font-weight="bold" lengthAdjust="spacing" textLength="43.8198" x="34" y="109.6358">model</text>
    </g>
    <g id="cluster_C_0017921336289613804855">
      <path d="M483.5,194.6699 L583.1016,194.6699 A3.75,3.75 0 0 1 585.6016,197.1699 L592.6016,219.7378 L1025.5,219.7378 A2.5,2.5 0 0 1 1028,222.2378 L1028,364.1699 A2.5,2.5 0 0 1 1025.5,366.6699 L483.5,366.6699 A2.5,2.5 0 0 1 481,364.1699 L481,197.1699 A2.5,2.5 0 0 1 483.5,194.6699 " fill="none" style="stroke:#000000;stroke-width:1.5;"/>
      <line style="stroke:#000000;stroke-width:1.5;" x1="481" x2="592.6016" y1="219.7378" y2="219.7378"/>
      <text fill="#000000" font-family="sans-serif" font-size="14" font-weight="bold" lengthAdjust="spacing" textLength="98.6016" x="485" y="211.6358">class_diagram</text>
    </g>
    <g id="cluster_C_0007176993879715460962">
      <path d="M507.5,240.6699 L552.3198,240.6699 A3.75,3.75 0 0 1 554.8198,243.1699 L561.8198,265.7378 L1001.5,265.7378 A2.5,2.5 0 0 1 1004,268.2378 L1004,340.1699 A2.5,2.5 0 0 1 1001.5,342.6699 L507.5,342.6699 A2.5,2.5 0 0 1 505,340.1699 L505,243.1699 A2.5,2.5 0 0 1 507.5,240.6699 " fill="none" style="stroke:#000000;stroke-width:1.5;"/>
      <line style="stroke:#000000;stroke-width:1.5;" x1="505" x2="561.8198" y1="265.7378" y2="265.7378"/>
      <text fill="#000000" font-family="sans-serif" font-size="14" font-weight="bold" lengthAdjust="spacing" textLength="43.8198" x="509" y="257.6358">model</text>
    </g>
    <g id="cluster_C_0012174902727661033893">
      <path d="M1054.5,194.6699 L1186.4975,194.6699 A3.75,3.75 0 0 1 1188.9975,197.1699 L1195.9975,219.7378 L1553.5,219.7378 A2.5,2.5 0 0 1 1556,222.2378 L1556,580.1699 A2.5,2.5 0 0 1 1553.5,582.6699 L1054.5,582.6699 A2.5,2.5 0 0 1 1052,580.1699 L1052,197.1699 A2.5,2.5 0 0 1 1054.5,194.6699 " fill="none" style="stroke:#000000;stroke-width:1.5;"/>
      <line style="stroke:#000000;stroke-width:1.5;" x1="1052" x2="1195.9975" y1="219.7378" y2="219.7378"/>
      <text fill="#000000" font-family="sans-serif" font-size="14" font-weight="bold" lengthAdjust="spacing" textLength="130.9975" x="1056" y="211.6358">sequence_diagram</text>
    </g>
    <g id="cluster_C_0017655759046645114118">
      <path d="M1078.5,240.6699 L1123.3198,240.6699 A3.75,3.75 0 0 1 1125.8198,243.1699 L1132.8198,265.7378 L1529.5,265.7378 A2.5,2.5 0 0 1 1532,268.2378 L1532,556.1699 A2.5,2.5 0 0 1 1529.5,558.6699 L1078.5,558.6699 A2.5,2.5 0 0 1 1076,556.1699 L1076,243.1699 A2.5,2.5 0 0 1 1078.5,240.6699 " fill="none" style="stroke:#000000;stroke-width:1.5;"/>
      <line style="stroke:#000000;stroke-width:1.5;" x1="1076" x2="1132.8198" y1="265.7378" y2="265.7378"/>
      <text fill="#000000" font-family="sans-serif" font-size="14" font-weight="bold" lengthAdjust="spacing" textLength="43.8198" x="1080" y="257.6358">model</text>
    </g>
    <a href="classclanguml_1_1common_1_1model_1_1stylable__element.html" target="_top" title="Diagram elements to which style can be applied." xlink:actuate="onRequest" xlink:href="classclanguml_1_1common_1_1model_1_1stylable__element.html" xlink:show="new" xlink:title="Diagram elements to which style can be applied." xlink:type="simple">
      <g id="elem_C_0016622768607835415521">
        <rect codeLine="5" fill="#F1F1F1" height="48" id="C_0016622768607835415521" rx="2.5" ry="2.5" style="stroke:#181818;stroke-width:0.5;" width="142.7956" x="273.5" y="130.6699"/>
        <ellipse cx="288.5" cy="146.6699" fill="#ADD1B2" rx="11" ry="11" style="stroke:#181818;stroke-width:1.0;"/>
        <path d="M291.4688,152.3105 Q290.8906,152.6074 290.25,152.748 Q289.6094,152.9043 288.9063,152.9043 Q286.4063,152.9043 285.0781,151.2636 Q283.7656,149.6074 283.7656,146.4824 Q283.7656,143.3574 285.0781,141.7011 Q286.4063,140.0449 288.9063,140.0449 Q289.6094,140.0449 290.25,140.2011 Q290.9063,140.3574 291.4688,140.6543 L291.4688,143.373 Q290.8438,142.7949 290.25,142.5293 Q289.6563,142.248 289.0313,142.248 Q287.6875,142.248 287,143.3261 Q286.3125,144.3886 286.3125,146.4824 Q286.3125,148.5761 287,149.6543 Q287.6875,150.7168 289.0313,150.7168 Q289.6563,150.7168 290.25,150.4511 Q290.8438,150.1699 291.4688,149.5918 L291.4688,152.3105 Z " fill="#000000"/>
        <text fill="#000000" font-family="sans-serif" font-size="14" lengthAdjust="spacing" textLength="110.7956" x="302.5" y="152.1019">stylable_element</text>
        <line style="stroke:#181818;stroke-width:0.5;" x1="274.5" x2="415.2956" y1="162.6699" y2="162.6699"/>
        <line style="stroke:#181818;stroke-width:0.5;" x1="274.5" x2="415.2956" y1="170.6699" y2="170.6699"/>
      </g>
    </a>
    <a href="classclanguml_1_1common_1_1model_1_1relationship.html" target="_top" title="Class representing any relationship other than inheritance" xlink:actuate="onRequest" xlink:href="classclanguml_1_1common_1_1model_1_1relationship.html" xlink:show="new" xlink:title="Class representing any relationship other than inheritance" xlink:type="simple">
      <g id="elem_C_0016370694070378943411">
        <rect codeLine="9" fill="#F1F1F1" height="48" id="C_0016370694070378943411" rx="2.5" ry="2.5" style="stroke:#181818;stroke-width:0.5;" width="110.5117" x="45.5" y="278.6699"/>
        <ellipse cx="60.5" cy="294.6699" fill="#ADD1B2" rx="11" ry="11" style="stroke:#181818;stroke-width:1.0;"/>
        <path d="M63.4688,300.3105 Q62.8906,300.6074 62.25,300.748 Q61.6094,300.9043 60.9063,300.9043 Q58.4063,300.9043 57.0781,299.2636 Q55.7656,297.6074 55.7656,294.4824 Q55.7656,291.3574 57.0781,289.7011 Q58.4063,288.0449 60.9063,288.0449 Q61.6094,288.0449 62.25,288.2011 Q62.9063,288.3574 63.4688,288.6543 L63.4688,291.373 Q62.8438,290.7949 62.25,290.5293 Q61.6563,290.248 61.0313,290.248 Q59.6875,290.248 59,291.3261 Q58.3125,292.3886 58.3125,294.4824 Q58.3125,296.5761 59,297.6543 Q59.6875,298.7168 61.0313,298.7168 Q61.6563,298.7168 62.25,298.4511 Q62.8438,298.1699 63.4688,297.5918 L63.4688,300.3105 Z " fill="#000000"/>
        <text fill="#000000" font-family="sans-serif" font-size="14" lengthAdjust="spacing" textLength="78.5117" x="74.5" y="300.1019">relationship</text>
        <line style="stroke:#181818;stroke-width:0.5;" x1="46.5" x2="155.0117" y1="310.6699" y2="310.6699"/>
        <line style="stroke:#181818;stroke-width:0.5;" x1="46.5" x2="155.0117" y1="318.6699" y2="318.6699"/>
      </g>
    </a>
    <a href="classclanguml_1_1common_1_1model_1_1source__file.html" target="_top" title="Diagram element representing some file or directory." xlink:actuate="onRequest" xlink:href="classclanguml_1_1common_1_1model_1_1source__file.html" xlink:show="new" xlink:title="Diagram element representing some file or directory." xlink:type="simple">
      <g id="elem_C_0006285717704576425038">
        <rect codeLine="13" fill="#F1F1F1" height="48" id="C_0006285717704576425038" rx="2.5" ry="2.5" style="stroke:#181818;stroke-width:0.5;" width="102.3777" x="192" y="278.6699"/>
        <ellipse cx="207" cy="294.6699" fill="#ADD1B2" rx="11" ry="11" style="stroke:#181818;stroke-width:1.0;"/>
        <path d="M209.9688,300.3105 Q209.3906,300.6074 208.75,300.748 Q208.1094,300.9043 207.4063,300.9043 Q204.9063,300.9043 203.5781,299.2636 Q202.2656,297.6074 202.2656,294.4824 Q202.2656,291.3574 203.5781,289.7011 Q204.9063,288.0449 207.4063,288.0449 Q208.1094,288.0449 208.75,288.2011 Q209.4063,288.3574 209.9688,288.6543 L209.9688,291.373 Q209.3438,290.7949 208.75,290.5293 Q208.1563,290.248 207.5313,290.248 Q206.1875,290.248 205.5,291.3261 Q204.8125,292.3886 204.8125,294.4824 Q204.8125,296.5761 205.5,297.6543 Q206.1875,298.7168 207.5313,298.7168 Q208.1563,298.7168 208.75,298.4511 Q209.3438,298.1699 209.9688,297.5918 L209.9688,300.3105 Z " fill="#000000"/>
        <text fill="#000000" font-family="sans-serif" font-size="14" lengthAdjust="spacing" textLength="70.3777" x="221" y="300.1019">source_file</text>
        <line style="stroke:#181818;stroke-width:0.5;" x1="193" x2="293.3777" y1="310.6699" y2="310.6699"/>
        <line style="stroke:#181818;stroke-width:0.5;" x1="193" x2="293.3777" y1="318.6699" y2="318.6699"/>
      </g>
    </a>
    <a href="classclanguml_1_1common_1_1model_1_1package.html" target="_top" title="Diagram element representing namespace or directory package" xlink:actuate="onRequest" xlink:href="classclanguml_1_1common_1_1model_1_1package.html" xlink:show="new" xlink:title="Diagram element representing namespace or directory package" xlink:type="simple">
      <g id="elem_C_0017146293478645494837">
        <rect codeLine="17" fill="#F1F1F1" height="48" id="C_0017146293478645494837" rx="2.5" ry="2.5" style="stroke:#181818;stroke-width:0.5;" width="87.0198" x="329.5" y="278.6699"/>
        <ellipse cx="344.5" cy="294.6699" fill="#ADD1B2" rx="11" ry="11" style="stroke:#181818;stroke-width:1.0;"/>
        <path d="M347.4688,300.3105 Q346.8906,300.6074 346.25,300.748 Q345.6094,300.9043 344.9063,300.9043 Q342.4063,300.9043 341.0781,299.2636 Q339.7656,297.6074 339.7656,294.4824 Q339.7656,291.3574 341.0781,289.7011 Q342.4063,288.0449 344.9063,288.0449 Q345.6094,288.0449 346.25,288.2011 Q346.9063,288.3574 347.4688,288.6543 L347.4688,291.373 Q346.8438,290.7949 346.25,290.5293 Q345.6563,290.248 345.0313,290.248 Q343.6875,290.248 343,291.3261 Q342.3125,292.3886 342.3125,294.4824 Q342.3125,296.5761 343,297.6543 Q343.6875,298.7168 345.0313,298.7168 Q345.6563,298.7168 346.25,298.4511 Q346.8438,298.1699 347.4688,297.5918 L347.4688,300.3105 Z " fill="#000000"/>
        <text fill="#000000" font-family="sans-serif" font-size="14" lengthAdjust="spacing" textLength="55.0198" x="358.5" y="300.1019">package</text>
        <line style="stroke:#181818;stroke-width:0.5;" x1="330.5" x2="415.5198" y1="310.6699" y2="310.6699"/>
        <line style="stroke:#181818;stroke-width:0.5;" x1="330.5" x2="415.5198" y1="318.6699" y2="318.6699"/>
      </g>
    </a>
    <a href="classclanguml_1_1class__diagram_1_1model_1_1class__.html" target="_top" title="Diagram element representing a class or class template." xlink:actuate="onRequest" xlink:href="classclanguml_1_1class__diagram_1_1model_1_1class__.html" xlink:show="new" xlink:title="Diagram element representing a class or class template." xlink:type="simple">
      <g id="elem_C_0010336274859733225462">
        <rect codeLine="25" fill="#F1F1F1" height="48" id="C_0010336274859733225462" rx="2.5" ry="2.5" style="stroke:#181818;stroke-width:0.5;" width="69.8139" x="918" y="278.6699"/>
        <ellipse cx="933" cy="294.6699" fill="#ADD1B2" rx="11" ry="11" style="stroke:#181818;stroke-width:1.0;"/>
        <path d="M935.9688,300.3105 Q935.3906,300.6074 934.75,300.748 Q934.1094,300.9043 933.4063,300.9043 Q930.9063,300.9043 929.5781,299.2636 Q928.2656,297.6074 928.2656,294.4824 Q928.2656,291.3574 929.5781,289.7011 Q930.9063,288.0449 933.4063,288.0449 Q934.1094,288.0449 934.75,288.2011 Q935.4063,288.3574 935.9688,288.6543 L935.9688,291.373 Q935.3438,290.7949 934.75,290.5293 Q934.1563,290.248 933.5313,290.248 Q932.1875,290.248 931.5,291.3261 Q930.8125,292.3886 930.8125,294.4824 Q930.8125,296.5761 931.5,297.6543 Q932.1875,298.7168 933.5313,298.7168 Q934.1563,298.7168 934.75,298.4511 Q935.3438,298.1699 935.9688,297.5918 L935.9688,300.3105 Z " fill="#000000"/>
        <text fill="#000000" font-family="sans-serif" font-size="14" lengthAdjust="spacing" textLength="37.8139" x="947" y="300.1019">class_</text>
        <line style="stroke:#181818;stroke-width:0.5;" x1="919" x2="986.8139" y1="310.6699" y2="310.6699"/>
        <line style="stroke:#181818;stroke-width:0.5;" x1="919" x2="986.8139" y1="318.6699" y2="318.6699"/>
      </g>
    </a>
    <a href="classclanguml_1_1class__diagram_1_1model_1_1concept__.html" target="_top" title="Model of C++ concept." xlink:actuate="onRequest" xlink:href="classclanguml_1_1class__diagram_1_1model_1_1concept__.html" xlink:show="new" xlink:title="Model of C++ concept." xlink:type="simple">
      <g id="elem_C_0010998792414017796003">
        <rect codeLine="29" fill="#F1F1F1" height="48" id="C_0010998792414017796003" rx="2.5" ry="2.5" style="stroke:#181818;stroke-width:0.5;" width="90.3378" x="793" y="278.6699"/>
        <ellipse cx="808" cy="294.6699" fill="#ADD1B2" rx="11" ry="11" style="stroke:#181818;stroke-width:1.0;"/>
        <path d="M810.9688,300.3105 Q810.3906,300.6074 809.75,300.748 Q809.1094,300.9043 808.4063,300.9043 Q805.9063,300.9043 804.5781,299.2636 Q803.2656,297.6074 803.2656,294.4824 Q803.2656,291.3574 804.5781,289.7011 Q805.9063,288.0449 808.4063,288.0449 Q809.1094,288.0449 809.75,288.2011 Q810.4063,288.3574 810.9688,288.6543 L810.9688,291.373 Q810.3438,290.7949 809.75,290.5293 Q809.1563,290.248 808.5313,290.248 Q807.1875,290.248 806.5,291.3261 Q805.8125,292.3886 805.8125,294.4824 Q805.8125,296.5761 806.5,297.6543 Q807.1875,298.7168 808.5313,298.7168 Q809.1563,298.7168 809.75,298.4511 Q810.3438,298.1699 810.9688,297.5918 L810.9688,300.3105 Z " fill="#000000"/>
        <text fill="#000000" font-family="sans-serif" font-size="14" lengthAdjust="spacing" textLength="58.3378" x="822" y="300.1019">concept_</text>
        <line style="stroke:#181818;stroke-width:0.5;" x1="794" x2="882.3378" y1="310.6699" y2="310.6699"/>
        <line style="stroke:#181818;stroke-width:0.5;" x1="794" x2="882.3378" y1="318.6699" y2="318.6699"/>
      </g>
    </a>
    <a href="classclanguml_1_1class__diagram_1_1model_1_1enum__.html" target="_top" title="Diagram element representing an enum." xlink:actuate="onRequest" xlink:href="classclanguml_1_1class__diagram_1_1model_1_1enum__.html" xlink:show="new" xlink:title="Diagram element representing an enum." xlink:type="simple">
      <g id="elem_C_0005795143816749204050">
        <rect codeLine="33" fill="#F1F1F1" height="48" id="C_0005795143816749204050" rx="2.5" ry="2.5" style="stroke:#181818;stroke-width:0.5;" width="76.5058" x="680.5" y="278.6699"/>
        <ellipse cx="695.5" cy="294.6699" fill="#ADD1B2" rx="11" ry="11" style="stroke:#181818;stroke-width:1.0;"/>
        <path d="M698.4688,300.3105 Q697.8906,300.6074 697.25,300.748 Q696.6094,300.9043 695.9063,300.9043 Q693.4063,300.9043 692.0781,299.2636 Q690.7656,297.6074 690.7656,294.4824 Q690.7656,291.3574 692.0781,289.7011 Q693.4063,288.0449 695.9063,288.0449 Q696.6094,288.0449 697.25,288.2011 Q697.9063,288.3574 698.4688,288.6543 L698.4688,291.373 Q697.8438,290.7949 697.25,290.5293 Q696.6563,290.248 696.0313,290.248 Q694.6875,290.248 694,291.3261 Q693.3125,292.3886 693.3125,294.4824 Q693.3125,296.5761 694,297.6543 Q694.6875,298.7168 696.0313,298.7168 Q696.6563,298.7168 697.25,298.4511 Q697.8438,298.1699 698.4688,297.5918 L698.4688,300.3105 Z " fill="#000000"/>
        <text fill="#000000" font-family="sans-serif" font-size="14" lengthAdjust="spacing" textLength="44.5058" x="709.5" y="300.1019">enum_</text>
        <line style="stroke:#181818;stroke-width:0.5;" x1="681.5" x2="756.0058" y1="310.6699" y2="310.6699"/>
        <line style="stroke:#181818;stroke-width:0.5;" x1="681.5" x2="756.0058" y1="318.6699" y2="318.6699"/>
      </g>
    </a>
    <a href="classclanguml_1_1class__diagram_1_1model_1_1objc__interface.html" target="_top" title="Diagram element representing an ObjC interface." xlink:actuate="onRequest" xlink:href="classclanguml_1_1class__diagram_1_1model_1_1objc__interface.html" xlink:show="new" xlink:title="Diagram element representing an ObjC interface." xlink:type="simple">
      <g id="elem_C_0010166346108406727066">
        <rect codeLine="37" fill="#F1F1F1" height="48" id="C_0010166346108406727066" rx="2.5" ry="2.5" style="stroke:#181818;stroke-width:0.5;" width="123.9096" x="521" y="278.6699"/>
        <ellipse cx="536" cy="294.6699" fill="#ADD1B2" rx="11" ry="11" style="stroke:#181818;stroke-width:1.0;"/>
        <path d="M538.9688,300.3105 Q538.3906,300.6074 537.75,300.748 Q537.1094,300.9043 536.4063,300.9043 Q533.9063,300.9043 532.5781,299.2636 Q531.2656,297.6074 531.2656,294.4824 Q531.2656,291.3574 532.5781,289.7011 Q533.9063,288.0449 536.4063,288.0449 Q537.1094,288.0449 537.75,288.2011 Q538.4063,288.3574 538.9688,288.6543 L538.9688,291.373 Q538.3438,290.7949 537.75,290.5293 Q537.1563,290.248 536.5313,290.248 Q535.1875,290.248 534.5,291.3261 Q533.8125,292.3886 533.8125,294.4824 Q533.8125,296.5761 534.5,297.6543 Q535.1875,298.7168 536.5313,298.7168 Q537.1563,298.7168 537.75,298.4511 Q538.3438,298.1699 538.9688,297.5918 L538.9688,300.3105 Z " fill="#000000"/>
        <text fill="#000000" font-family="sans-serif" font-size="14" lengthAdjust="spacing" textLength="91.9096" x="550" y="300.1019">objc_interface</text>
        <line style="stroke:#181818;stroke-width:0.5;" x1="522" x2="643.9096" y1="310.6699" y2="310.6699"/>
        <line style="stroke:#181818;stroke-width:0.5;" x1="522" x2="643.9096" y1="318.6699" y2="318.6699"/>
      </g>
    </a>
    <a href="structclanguml_1_1sequence__diagram_1_1model_1_1participant.html" target="_top" title="Base class for various types of sequence diagram participants" xlink:actuate="onRequest" xlink:href="structclanguml_1_1sequence__diagram_1_1model_1_1participant.html" xlink:show="new" xlink:title="Base class for various types of sequence diagram participants" xlink:type="simple">
      <g id="elem_C_0011201726182739961811">
        <rect codeLine="45" fill="#F1F1F1" height="48" id="C_0011201726182739961811" rx="2.5" ry="2.5" style="stroke:#181818;stroke-width:0.5;" width="103.4137" x="1098.5" y="278.6699"/>
        <ellipse cx="1113.5" cy="294.6699" fill="#ADD1B2" rx="11" ry="11" style="stroke:#181818;stroke-width:1.0;"/>
        <path d="M1116.4688,300.3105 Q1115.8906,300.6074 1115.25,300.748 Q1114.6094,300.9043 1113.9063,300.9043 Q1111.4063,300.9043 1110.0781,299.2636 Q1108.7656,297.6074 1108.7656,294.4824 Q1108.7656,291.3574 1110.0781,289.7011 Q1111.4063,288.0449 1113.9063,288.0449 Q1114.6094,288.0449 1115.25,288.2011 Q1115.9063,288.3574 1116.4688,288.6543 L1116.4688,291.373 Q1115.8438,290.7949 1115.25,290.5293 Q1114.6563,290.248 1114.0313,290.248 Q1112.6875,290.248 1112,291.3261 Q1111.3125,292.3886 1111.3125,294.4824 Q1111.3125,296.5761 1112,297.6543 Q1112.6875,298.7168 1114.0313,298.7168 Q1114.6563,298.7168 1115.25,298.4511 Q1115.8438,298.1699 1116.4688,297.5918 L1116.4688,300.3105 Z " fill="#000000"/>
        <text fill="#000000" font-family="sans-serif" font-size="14" lengthAdjust="spacing" textLength="71.4137" x="1127.5" y="300.1019">participant</text>
        <line style="stroke:#181818;stroke-width:0.5;" x1="1099.5" x2="1200.9137" y1="310.6699" y2="310.6699"/>
        <line style="stroke:#181818;stroke-width:0.5;" x1="1099.5" x2="1200.9137" y1="318.6699" y2="318.6699"/>
      </g>
    </a>
    <a href="structclanguml_1_1sequence__diagram_1_1model_1_1class__.html" target="_top" title="Sequence diagram participant representing a class." xlink:actuate="onRequest" xlink:href="structclanguml_1_1sequence__diagram_1_1model_1_1class__.html" xlink:show="new" xlink:title="Sequence diagram participant representing a class." xlink:type="simple">
      <g id="elem_C_0007084118972955772881">
        <rect codeLine="49" fill="#F1F1F1" height="48" id="C_0007084118972955772881" rx="2.5" ry="2.5" style="stroke:#181818;stroke-width:0.5;" width="69.8139" x="1115" y="386.6699"/>
        <ellipse cx="1130" cy="402.6699" fill="#ADD1B2" rx="11" ry="11" style="stroke:#181818;stroke-width:1.0;"/>
        <path d="M1132.9688,408.3105 Q1132.3906,408.6074 1131.75,408.748 Q1131.1094,408.9043 1130.4063,408.9043 Q1127.9063,408.9043 1126.5781,407.2636 Q1125.2656,405.6074 1125.2656,402.4824 Q1125.2656,399.3574 1126.5781,397.7011 Q1127.9063,396.0449 1130.4063,396.0449 Q1131.1094,396.0449 1131.75,396.2011 Q1132.4063,396.3574 1132.9688,396.6543 L1132.9688,399.373 Q1132.3438,398.7949 1131.75,398.5293 Q1131.1563,398.248 1130.5313,398.248 Q1129.1875,398.248 1128.5,399.3261 Q1127.8125,400.3886 1127.8125,402.4824 Q1127.8125,404.5761 1128.5,405.6543 Q1129.1875,406.7168 1130.5313,406.7168 Q1131.1563,406.7168 1131.75,406.4511 Q1132.3438,406.1699 1132.9688,405.5918 L1132.9688,408.3105 Z " fill="#000000"/>
        <text fill="#000000" font-family="sans-serif" font-size="14" lengthAdjust="spacing" textLength="37.8139" x="1144" y="408.1019">class_</text>
        <line style="stroke:#181818;stroke-width:0.5;" x1="1116" x2="1183.8139" y1="418.6699" y2="418.6699"/>
        <line style="stroke:#181818;stroke-width:0.5;" x1="1116" x2="1183.8139" y1="426.6699" y2="426.6699"/>
      </g>
    </a>
    <a href="structclanguml_1_1sequence__diagram_1_1model_1_1function.html" target="_top" title="Participant mode representing a free function." xlink:actuate="onRequest" xlink:href="structclanguml_1_1sequence__diagram_1_1model_1_1function.html" xlink:show="new" xlink:title="Participant mode representing a free function." xlink:type="simple">
      <g id="elem_C_0001861107648253454629">
        <rect codeLine="53" fill="#F1F1F1" height="48" id="C_0001861107648253454629" rx="2.5" ry="2.5" style="stroke:#181818;stroke-width:0.5;" width="86.6278" x="1223.5" y="386.6699"/>
        <ellipse cx="1238.5" cy="402.6699" fill="#ADD1B2" rx="11" ry="11" style="stroke:#181818;stroke-width:1.0;"/>
        <path d="M1241.4688,408.3105 Q1240.8906,408.6074 1240.25,408.748 Q1239.6094,408.9043 1238.9063,408.9043 Q1236.4063,408.9043 1235.0781,407.2636 Q1233.7656,405.6074 1233.7656,402.4824 Q1233.7656,399.3574 1235.0781,397.7011 Q1236.4063,396.0449 1238.9063,396.0449 Q1239.6094,396.0449 1240.25,396.2011 Q1240.9063,396.3574 1241.4688,396.6543 L1241.4688,399.373 Q1240.8438,398.7949 1240.25,398.5293 Q1239.6563,398.248 1239.0313,398.248 Q1237.6875,398.248 1237,399.3261 Q1236.3125,400.3886 1236.3125,402.4824 Q1236.3125,404.5761 1237,405.6543 Q1237.6875,406.7168 1239.0313,406.7168 Q1239.6563,406.7168 1240.25,406.4511 Q1240.8438,406.1699 1241.4688,405.5918 L1241.4688,408.3105 Z " fill="#000000"/>
        <text fill="#000000" font-family="sans-serif" font-size="14" lengthAdjust="spacing" textLength="54.6278" x="1252.5" y="408.1019">function</text>
        <line style="stroke:#181818;stroke-width:0.5;" x1="1224.5" x2="1309.1278" y1="418.6699" y2="418.6699"/>
        <line style="stroke:#181818;stroke-width:0.5;" x1="1224.5" x2="1309.1278" y1="426.6699" y2="426.6699"/>
      </g>
    </a>
    <a href="structclanguml_1_1sequence__diagram_1_1model_1_1method.html" target="_top" title="Participant model representing a method" xlink:actuate="onRequest" xlink:href="structclanguml_1_1sequence__diagram_1_1model_1_1method.html" xlink:show="new" xlink:title="Participant model representing a method" xlink:type="simple">
      <g id="elem_C_0006541327780382276039">
        <rect codeLine="57" fill="#F1F1F1" height="48" id="C_0006541327780382276039" rx="2.5" ry="2.5" style="stroke:#181818;stroke-width:0.5;" width="83.7718" x="1092" y="494.6699"/>
        <ellipse cx="1107" cy="510.6699" fill="#ADD1B2" rx="11" ry="11" style="stroke:#181818;stroke-width:1.0;"/>
        <path d="M1109.9688,516.3105 Q1109.3906,516.6074 1108.75,516.748 Q1108.1094,516.9043 1107.4063,516.9043 Q1104.9063,516.9043 1103.5781,515.2636 Q1102.2656,513.6074 1102.2656,510.4824 Q1102.2656,507.3574 1103.5781,505.7011 Q1104.9063,504.0449 1107.4063,504.0449 Q1108.1094,504.0449 1108.75,504.2011 Q1109.4063,504.3574 1109.9688,504.6543 L1109.9688,507.373 Q1109.3438,506.7949 1108.75,506.5293 Q1108.1563,506.248 1107.5313,506.248 Q1106.1875,506.248 1105.5,507.3261 Q1104.8125,508.3886 1104.8125,510.4824 Q1104.8125,512.5761 1105.5,513.6543 Q1106.1875,514.7168 1107.5313,514.7168 Q1108.1563,514.7168 1108.75,514.4511 Q1109.3438,514.1699 1109.9688,513.5918 L1109.9688,516.3105 Z " fill="#000000"/>
        <text fill="#000000" font-family="sans-serif" font-size="14" lengthAdjust="spacing" textLength="51.7718" x="1121" y="516.1019">method</text>
        <line style="stroke:#181818;stroke-width:0.5;" x1="1093" x2="1174.7718" y1="526.6699" y2="526.6699"/>
        <line style="stroke:#181818;stroke-width:0.5;" x1="1093" x2="1174.7718" y1="534.6699" y2="534.6699"/>
      </g>
    </a>
    <a href="structclanguml_1_1sequence__diagram_1_1model_1_1objc__method.html" target="_top" title="objc_method" xlink:actuate="onRequest" xlink:href="structclanguml_1_1sequence__diagram_1_1model_1_1objc__method.html" xlink:show="new" xlink:title="objc_method" xlink:type="simple">
      <g id="elem_C_0013742559556936917396">
        <rect codeLine="61" fill="#F1F1F1" height="48" id="C_0013742559556936917396" rx="2.5" ry="2.5" style="stroke:#181818;stroke-width:0.5;" width="117.3997" x="1211.5" y="494.6699"/>
        <ellipse cx="1226.5" cy="510.6699" fill="#ADD1B2" rx="11" ry="11" style="stroke:#181818;stroke-width:1.0;"/>
        <path d="M1229.4688,516.3105 Q1228.8906,516.6074 1228.25,516.748 Q1227.6094,516.9043 1226.9063,516.9043 Q1224.4063,516.9043 1223.0781,515.2636 Q1221.7656,513.6074 1221.7656,510.4824 Q1221.7656,507.3574 1223.0781,505.7011 Q1224.4063,504.0449 1226.9063,504.0449 Q1227.6094,504.0449 1228.25,504.2011 Q1228.9063,504.3574 1229.4688,504.6543 L1229.4688,507.373 Q1228.8438,506.7949 1228.25,506.5293 Q1227.6563,506.248 1227.0313,506.248 Q1225.6875,506.248 1225,507.3261 Q1224.3125,508.3886 1224.3125,510.4824 Q1224.3125,512.5761 1225,513.6543 Q1225.6875,514.7168 1227.0313,514.7168 Q1227.6563,514.7168 1228.25,514.4511 Q1228.8438,514.1699 1229.4688,513.5918 L1229.4688,516.3105 Z " fill="#000000"/>
        <text fill="#000000" font-family="sans-serif" font-size="14" lengthAdjust="spacing" textLength="85.3997" x="1240.5" y="516.1019">objc_method</text>
        <line style="stroke:#181818;stroke-width:0.5;" x1="1212.5" x2="1327.8997" y1="526.6699" y2="526.6699"/>
        <line style="stroke:#181818;stroke-width:0.5;" x1="1212.5" x2="1327.8997" y1="534.6699" y2="534.6699"/>
      </g>
    </a>
    <a href="structclanguml_1_1sequence__diagram_1_1model_1_1function__template.html" target="_top" title="Participant model representing a function template." xlink:actuate="onRequest" xlink:href="structclanguml_1_1sequence__diagram_1_1model_1_1function__template.html" xlink:show="new" xlink:title="Participant model representing a function template." xlink:type="simple">
      <g id="elem_C_0018241535739946484465">
        <rect codeLine="65" fill="#F1F1F1" height="48" id="C_0018241535739946484465" rx="2.5" ry="2.5" style="stroke:#181818;stroke-width:0.5;" width="151.9095" x="1364" y="494.6699"/>
        <ellipse cx="1379" cy="510.6699" fill="#ADD1B2" rx="11" ry="11" style="stroke:#181818;stroke-width:1.0;"/>
        <path d="M1381.9688,516.3105 Q1381.3906,516.6074 1380.75,516.748 Q1380.1094,516.9043 1379.4063,516.9043 Q1376.9063,516.9043 1375.5781,515.2636 Q1374.2656,513.6074 1374.2656,510.4824 Q1374.2656,507.3574 1375.5781,505.7011 Q1376.9063,504.0449 1379.4063,504.0449 Q1380.1094,504.0449 1380.75,504.2011 Q1381.4063,504.3574 1381.9688,504.6543 L1381.9688,507.373 Q1381.3438,506.7949 1380.75,506.5293 Q1380.1563,506.248 1379.5313,506.248 Q1378.1875,506.248 1377.5,507.3261 Q1376.8125,508.3886 1376.8125,510.4824 Q1376.8125,512.5761 1377.5,513.6543 Q1378.1875,514.7168 1379.5313,514.7168 Q1380.1563,514.7168 1380.75,514.4511 Q1381.3438,514.1699 1381.9688,513.5918 L1381.9688,516.3105 Z " fill="#000000"/>
        <text fill="#000000" font-family="sans-serif" font-size="14" lengthAdjust="spacing" textLength="119.9095" x="1393" y="516.1019">function_template</text>
        <line style="stroke:#181818;stroke-width:0.5;" x1="1365" x2="1514.9095" y1="526.6699" y2="526.6699"/>
        <line style="stroke:#181818;stroke-width:0.5;" x1="1365" x2="1514.9095" y1="534.6699" y2="534.6699"/>
      </g>
    </a>
    <g id="link_C_0016622768607835415521_C_0016370694070378943411">
      <path codeLine="70" d="M255.4719,165.3131 C216.6119,170.3931 191.14,175.8699 175,186.6699 C141.65,208.9799 120.08,251.9499 109.28,278.5799 " fill="none" id="C_0016622768607835415521-backto-C_0016370694070378943411" style="stroke:#181818;stroke-width:1.0;"/>
      <polygon fill="none" points="273.32,162.9799,254.6941,159.3637,256.2496,171.2625,273.32,162.9799" style="stroke:#181818;stroke-width:1.0;"/>
    </g>
    <g id="link_C_0016622768607835415521_C_0006285717704576425038">
      <path codeLine="72" d="M306.585,191.6759 C282.915,221.0359 266.98,254.2899 254.5,278.4199 " fill="none" id="C_0016622768607835415521-backto-C_0006285717704576425038" style="stroke:#181818;stroke-width:1.0;"/>
      <polygon fill="none" points="319.06,178.6999,302.2597,187.5175,310.9104,195.8342,319.06,178.6999" style="stroke:#181818;stroke-width:1.0;"/>
    </g>
    <g id="link_C_0016622768607835415521_C_0017146293478645494837">
      <path codeLine="74" d="M352.8282,196.4781 C358.0682,223.8181 363.35,251.3499 368.58,278.6399 " fill="none" id="C_0016622768607835415521-backto-C_0017146293478645494837" style="stroke:#181818;stroke-width:1.0;"/>
      <polygon fill="none" points="349.44,178.7999,346.9355,197.6075,358.721,195.3487,349.44,178.7999" style="stroke:#181818;stroke-width:1.0;"/>
    </g>
    <g id="link_C_0016622768607835415521_C_0010336274859733225462">
      <path codeLine="76" d="M434.6799,155.6196 C575.9299,156.0096 862,159.9399 901,186.6699 C931.72,207.7299 944.57,251.5299 949.74,278.5899 " fill="none" id="C_0016622768607835415521-backto-C_0010336274859733225462" style="stroke:#181818;stroke-width:1.0;"/>
      <polygon fill="none" points="416.68,155.5699,434.6634,161.6196,434.6965,149.6196,416.68,155.5699" style="stroke:#181818;stroke-width:1.0;"/>
    </g>
    <g id="link_C_0016622768607835415521_C_0010998792414017796003">
      <path codeLine="78" d="M434.8344,157.5806 C549.4144,160.4506 745.67,167.8399 775,186.6699 C807.57,207.5799 824.66,251.4299 832.47,278.5299 " fill="none" id="C_0016622768607835415521-backto-C_0010998792414017796003" style="stroke:#181818;stroke-width:1.0;"/>
      <polygon fill="none" points="416.84,157.1299,434.6841,163.5787,434.9846,151.5825,416.84,157.1299" style="stroke:#181818;stroke-width:1.0;"/>
    </g>
    <g id="link_C_0016622768607835415521_C_0005795143816749204050">
      <path codeLine="80" d="M434.5199,154.7652 C515.8799,155.0152 624.45,159.8799 663,186.6699 C693.82,208.0899 708.35,251.3499 714.67,278.2699 " fill="none" id="C_0016622768607835415521-backto-C_0005795143816749204050" style="stroke:#181818;stroke-width:1.0;"/>
      <polygon fill="none" points="416.52,154.7099,434.5015,160.7652,434.5384,148.7652,416.52,154.7099" style="stroke:#181818;stroke-width:1.0;"/>
    </g>
    <g id="link_C_0016622768607835415521_C_0010166346108406727066">
      <path codeLine="82" d="M433.394,186.0802 C481.294,212.0202 529.75,253.2599 558.18,278.6399 " fill="none" id="C_0016622768607835415521-backto-C_0010166346108406727066" style="stroke:#181818;stroke-width:1.0;"/>
      <polygon fill="none" points="416.91,178.8499,430.9839,191.5749,435.8041,180.5856,416.91,178.8499" style="stroke:#181818;stroke-width:1.0;"/>
    </g>
    <g id="link_C_0016622768607835415521_C_0011201726182739961811">
      <path codeLine="84" d="M434.608,156.8464 C593.978,159.2064 950.18,166.5899 1004,186.6699 C1055.69,205.9599 1103.47,250.7899 1129.5,278.4299 " fill="none" id="C_0016622768607835415521-backto-C_0011201726182739961811" style="stroke:#181818;stroke-width:1.0;"/>
      <polygon fill="none" points="416.61,156.5799,434.5192,162.8458,434.6969,150.8471,416.61,156.5799" style="stroke:#181818;stroke-width:1.0;"/>
    </g>
    <g id="link_C_0011201726182739961811_C_0007084118972955772881">
      <path codeLine="86" d="M1150,344.6699 C1150,362.3299 1150,368.6099 1150,386.3499 " fill="none" id="C_0011201726182739961811-backto-C_0007084118972955772881" style="stroke:#181818;stroke-width:1.0;"/>
      <polygon fill="none" points="1150,326.6699,1144,344.6699,1156,344.6699,1150,326.6699" style="stroke:#181818;stroke-width:1.0;"/>
    </g>
    <g id="link_C_0011201726182739961811_C_0001861107648253454629">
      <path codeLine="88" d="M1188.7287,338.7562 C1208.2187,356.4162 1221.68,368.6099 1241.26,386.3499 " fill="none" id="C_0011201726182739961811-backto-C_0001861107648253454629" style="stroke:#181818;stroke-width:1.0;"/>
      <polygon fill="none" points="1175.39,326.6699,1184.7,343.2024,1192.7575,334.31,1175.39,326.6699" style="stroke:#181818;stroke-width:1.0;"/>
    </g>
    <g id="link_C_0001861107648253454629_C_0006541327780382276039">
      <path codeLine="90" d="M1224.0658,445.8911 C1201.9158,463.5511 1185.52,476.6099 1163.26,494.3499 " fill="none" id="C_0001861107648253454629-backto-C_0006541327780382276039" style="stroke:#181818;stroke-width:1.0;"/>
      <polygon fill="none" points="1238.14,434.6699,1220.3254,441.1997,1227.8062,450.5826,1238.14,434.6699" style="stroke:#181818;stroke-width:1.0;"/>
    </g>
    <g id="link_C_0001861107648253454629_C_0013742559556936917396">
      <path codeLine="92" d="M1268.1594,452.6627 C1268.6594,470.3227 1268.84,476.6099 1269.34,494.3499 " fill="none" id="C_0001861107648253454629-backto-C_0013742559556936917396" style="stroke:#181818;stroke-width:1.0;"/>
      <polygon fill="none" points="1267.65,434.6699,1262.1618,452.8325,1274.157,452.4929,1267.65,434.6699" style="stroke:#181818;stroke-width:1.0;"/>
    </g>
    <g id="link_C_0001861107648253454629_C_0018241535739946484465">
      <path codeLine="94" d="M1319.888,444.074 C1348.808,461.794 1373.26,476.7799 1402.24,494.5299 " fill="none" id="C_0001861107648253454629-backto-C_0018241535739946484465" style="stroke:#181818;stroke-width:1.0;"/>
      <polygon fill="none" points="1304.54,434.6699,1316.7533,449.19,1323.0228,438.958,1304.54,434.6699" style="stroke:#181818;stroke-width:1.0;"/>
    </g>
  </g>
</svg>
