<svg xmlns="http://www.w3.org/2000/svg" xmlns:xlink="http://www.w3.org/1999/xlink" contentScriptType="application/ecmascript" contentStyleType="text/css" height="580px" preserveAspectRatio="none" style="width:1258px;height:580px;" version="1.1" viewBox="0 0 1258 580" width="1258px" zoomAndPan="magnify">
  <defs>
    <filter height="300%" id="f8tq8xnvwpqw1" width="300%" x="-1" y="-1">
      <feGaussianBlur result="blurOut" stdDeviation="2.0"/>
      <feColorMatrix in="blurOut" result="blurOut2" type="matrix" values="0 0 0 0 0 0 0 0 0 0 0 0 0 0 0 0 0 0 .4 0"/>
      <feOffset dx="4.0" dy="4.0" in="blurOut2" result="blurOut3"/>
      <feBlend in="SourceGraphic" in2="blurOut3" mode="normal"/>
    </filter>
    <style type="text/css">a:hover { text-decoration: underline; }</style>
  </defs>
  <g>
    <text fill="#000000" font-family="sans-serif" font-size="18" lengthAdjust="spacingAndGlyphs" textLength="364" x="453" y="16.708">Stylable diagram element class hierarchy</text>
    <polygon fill="#FFFFFF" filter="url(#f8tq8xnvwpqw1)" points="22,44.9531,95,44.9531,102,67.25,464,67.25,464,352.9531,22,352.9531,22,44.9531" style="stroke: #000000; stroke-width: 1.5;"/>
    <line style="stroke: #000000; stroke-width: 1.5;" x1="22" x2="102" y1="67.25" y2="67.25"/>
    <text fill="#000000" font-family="sans-serif" font-size="14" font-weight="bold" lengthAdjust="spacingAndGlyphs" textLength="67" x="26" y="59.9482">common</text>
    <polygon fill="#FFFFFF" filter="url(#f8tq8xnvwpqw1)" points="46,87.9531,100,87.9531,107,110.25,440,110.25,440,328.9531,46,328.9531,46,87.9531" style="stroke: #000000; stroke-width: 1.5;"/>
    <line style="stroke: #000000; stroke-width: 1.5;" x1="46" x2="107" y1="110.25" y2="110.25"/>
    <text fill="#000000" font-family="sans-serif" font-size="14" font-weight="bold" lengthAdjust="spacingAndGlyphs" textLength="48" x="50" y="102.9482">model</text>
    <polygon fill="#FFFFFF" filter="url(#f8tq8xnvwpqw1)" points="488,186.9531,604,186.9531,611,209.25,871,209.25,871,352.9531,488,352.9531,488,186.9531" style="stroke: #000000; stroke-width: 1.5;"/>
    <line style="stroke: #000000; stroke-width: 1.5;" x1="488" x2="611" y1="209.25" y2="209.25"/>
    <text fill="#000000" font-family="sans-serif" font-size="14" font-weight="bold" lengthAdjust="spacingAndGlyphs" textLength="110" x="492" y="201.9482">class_diagram</text>
    <polygon fill="#FFFFFF" filter="url(#f8tq8xnvwpqw1)" points="512,229.9531,566,229.9531,573,252.25,847,252.25,847,328.9531,512,328.9531,512,229.9531" style="stroke: #000000; stroke-width: 1.5;"/>
    <line style="stroke: #000000; stroke-width: 1.5;" x1="512" x2="573" y1="252.25" y2="252.25"/>
    <text fill="#000000" font-family="sans-serif" font-size="14" font-weight="bold" lengthAdjust="spacingAndGlyphs" textLength="48" x="516" y="244.9482">model</text>
    <polygon fill="#FFFFFF" filter="url(#f8tq8xnvwpqw1)" points="895,186.9531,1049,186.9531,1056,209.25,1236,209.25,1236,568.9531,895,568.9531,895,186.9531" style="stroke: #000000; stroke-width: 1.5;"/>
    <line style="stroke: #000000; stroke-width: 1.5;" x1="895" x2="1056" y1="209.25" y2="209.25"/>
    <text fill="#000000" font-family="sans-serif" font-size="14" font-weight="bold" lengthAdjust="spacingAndGlyphs" textLength="148" x="899" y="201.9482">sequence_diagram</text>
    <polygon fill="#FFFFFF" filter="url(#f8tq8xnvwpqw1)" points="919,229.9531,973,229.9531,980,252.25,1212,252.25,1212,544.9531,919,544.9531,919,229.9531" style="stroke: #000000; stroke-width: 1.5;"/>
    <line style="stroke: #000000; stroke-width: 1.5;" x1="919" x2="980" y1="252.25" y2="252.25"/>
    <text fill="#000000" font-family="sans-serif" font-size="14" font-weight="bold" lengthAdjust="spacingAndGlyphs" textLength="48" x="923" y="244.9482">model</text>
    <a href="classclanguml_1_1common_1_1model_1_1stylable__element.html" target="_top" title="Diagram elements to which style can be applied." xlink:actuate="onRequest" xlink:href="classclanguml_1_1common_1_1model_1_1stylable__element.html" xlink:show="new" xlink:title="Diagram elements to which style can be applied." xlink:type="simple">
      <rect fill="#FEFECE" filter="url(#f8tq8xnvwpqw1)" height="48" id="C_0002077846075979426940" style="stroke: #A80036; stroke-width: 1.5;" width="137" x="286.5" y="122.9531"/>
      <ellipse cx="301.5" cy="138.9531" fill="#ADD1B2" rx="11" ry="11" style="stroke: #A80036; stroke-width: 1.0;"/>
      <path d="M304.4688,144.5938 Q303.8906,144.8906 303.25,145.0313 Q302.6094,145.1875 301.9063,145.1875 Q299.4063,145.1875 298.0781,143.5469 Q296.7656,141.8906 296.7656,138.7656 Q296.7656,135.6406 298.0781,133.9844 Q299.4063,132.3281 301.9063,132.3281 Q302.6094,132.3281 303.25,132.4844 Q303.9063,132.6406 304.4688,132.9375 L304.4688,135.6563 Q303.8438,135.0781 303.25,134.8125 Q302.6563,134.5313 302.0313,134.5313 Q300.6875,134.5313 300,135.6094 Q299.3125,136.6719 299.3125,138.7656 Q299.3125,140.8594 300,141.9375 Q300.6875,143 302.0313,143 Q302.6563,143 303.25,142.7344 Q303.8438,142.4531 304.4688,141.875 L304.4688,144.5938 Z "/>
      <text fill="#000000" font-family="sans-serif" font-size="12" lengthAdjust="spacingAndGlyphs" textLength="105" x="315.5" y="143.1074">stylable_element</text>
      <line style="stroke: #A80036; stroke-width: 1.5;" x1="287.5" x2="422.5" y1="154.9531" y2="154.9531"/>
      <line style="stroke: #A80036; stroke-width: 1.5;" x1="287.5" x2="422.5" y1="162.9531" y2="162.9531"/>
    </a>
    <a href="classclanguml_1_1common_1_1model_1_1relationship.html" target="_top" title="Class representing any relationship other than inheritance" xlink:actuate="onRequest" xlink:href="classclanguml_1_1common_1_1model_1_1relationship.html" xlink:show="new" xlink:title="Class representing any relationship other than inheritance" xlink:type="simple">
      <rect fill="#FEFECE" filter="url(#f8tq8xnvwpqw1)" height="48" id="C_0002046336758797367926" style="stroke: #A80036; stroke-width: 1.5;" width="106" x="62" y="264.9531"/>
      <ellipse cx="77" cy="280.9531" fill="#ADD1B2" rx="11" ry="11" style="stroke: #A80036; stroke-width: 1.0;"/>
      <path d="M79.9688,286.5938 Q79.3906,286.8906 78.75,287.0313 Q78.1094,287.1875 77.4063,287.1875 Q74.9063,287.1875 73.5781,285.5469 Q72.2656,283.8906 72.2656,280.7656 Q72.2656,277.6406 73.5781,275.9844 Q74.9063,274.3281 77.4063,274.3281 Q78.1094,274.3281 78.75,274.4844 Q79.4063,274.6406 79.9688,274.9375 L79.9688,277.6563 Q79.3438,277.0781 78.75,276.8125 Q78.1563,276.5313 77.5313,276.5313 Q76.1875,276.5313 75.5,277.6094 Q74.8125,278.6719 74.8125,280.7656 Q74.8125,282.8594 75.5,283.9375 Q76.1875,285 77.5313,285 Q78.1563,285 78.75,284.7344 Q79.3438,284.4531 79.9688,283.875 L79.9688,286.5938 Z "/>
      <text fill="#000000" font-family="sans-serif" font-size="12" lengthAdjust="spacingAndGlyphs" textLength="74" x="91" y="285.1074">relationship</text>
      <line style="stroke: #A80036; stroke-width: 1.5;" x1="63" x2="167" y1="296.9531" y2="296.9531"/>
      <line style="stroke: #A80036; stroke-width: 1.5;" x1="63" x2="167" y1="304.9531" y2="304.9531"/>
    </a>
    <a href="classclanguml_1_1common_1_1model_1_1source__file.html" target="_top" title="Diagram element representing some file or directory." xlink:actuate="onRequest" xlink:href="classclanguml_1_1common_1_1model_1_1source__file.html" xlink:show="new" xlink:title="Diagram element representing some file or directory." xlink:type="simple">
      <rect fill="#FEFECE" filter="url(#f8tq8xnvwpqw1)" height="48" id="C_0000785714713072053129" style="stroke: #A80036; stroke-width: 1.5;" width="99" x="203.5" y="264.9531"/>
      <ellipse cx="218.5" cy="280.9531" fill="#ADD1B2" rx="11" ry="11" style="stroke: #A80036; stroke-width: 1.0;"/>
      <path d="M221.4688,286.5938 Q220.8906,286.8906 220.25,287.0313 Q219.6094,287.1875 218.9063,287.1875 Q216.4063,287.1875 215.0781,285.5469 Q213.7656,283.8906 213.7656,280.7656 Q213.7656,277.6406 215.0781,275.9844 Q216.4063,274.3281 218.9063,274.3281 Q219.6094,274.3281 220.25,274.4844 Q220.9063,274.6406 221.4688,274.9375 L221.4688,277.6563 Q220.8438,277.0781 220.25,276.8125 Q219.6563,276.5313 219.0313,276.5313 Q217.6875,276.5313 217,277.6094 Q216.3125,278.6719 216.3125,280.7656 Q216.3125,282.8594 217,283.9375 Q217.6875,285 219.0313,285 Q219.6563,285 220.25,284.7344 Q220.8438,284.4531 221.4688,283.875 L221.4688,286.5938 Z "/>
      <text fill="#000000" font-family="sans-serif" font-size="12" lengthAdjust="spacingAndGlyphs" textLength="67" x="232.5" y="285.1074">source_file</text>
      <line style="stroke: #A80036; stroke-width: 1.5;" x1="204.5" x2="301.5" y1="296.9531" y2="296.9531"/>
      <line style="stroke: #A80036; stroke-width: 1.5;" x1="204.5" x2="301.5" y1="304.9531" y2="304.9531"/>
    </a>
    <a href="classclanguml_1_1common_1_1model_1_1package.html" target="_top" title="Diagram element representing namespace or directory package" xlink:actuate="onRequest" xlink:href="classclanguml_1_1common_1_1model_1_1package.html" xlink:show="new" xlink:title="Diagram element representing namespace or directory package" xlink:type="simple">
      <rect fill="#FEFECE" filter="url(#f8tq8xnvwpqw1)" height="48" id="C_0002143286684830686854" style="stroke: #A80036; stroke-width: 1.5;" width="86" x="338" y="264.9531"/>
      <ellipse cx="353" cy="280.9531" fill="#ADD1B2" rx="11" ry="11" style="stroke: #A80036; stroke-width: 1.0;"/>
      <path d="M355.9688,286.5938 Q355.3906,286.8906 354.75,287.0313 Q354.1094,287.1875 353.4063,287.1875 Q350.9063,287.1875 349.5781,285.5469 Q348.2656,283.8906 348.2656,280.7656 Q348.2656,277.6406 349.5781,275.9844 Q350.9063,274.3281 353.4063,274.3281 Q354.1094,274.3281 354.75,274.4844 Q355.4063,274.6406 355.9688,274.9375 L355.9688,277.6563 Q355.3438,277.0781 354.75,276.8125 Q354.1563,276.5313 353.5313,276.5313 Q352.1875,276.5313 351.5,277.6094 Q350.8125,278.6719 350.8125,280.7656 Q350.8125,282.8594 351.5,283.9375 Q352.1875,285 353.5313,285 Q354.1563,285 354.75,284.7344 Q355.3438,284.4531 355.9688,283.875 L355.9688,286.5938 Z "/>
      <text fill="#000000" font-family="sans-serif" font-size="12" lengthAdjust="spacingAndGlyphs" textLength="54" x="367" y="285.1074">package</text>
      <line style="stroke: #A80036; stroke-width: 1.5;" x1="339" x2="423" y1="296.9531" y2="296.9531"/>
      <line style="stroke: #A80036; stroke-width: 1.5;" x1="339" x2="423" y1="304.9531" y2="304.9531"/>
    </a>
    <a href="classclanguml_1_1class__diagram_1_1model_1_1class__.html" target="_top" title="Diagram element representing a class or class template." xlink:actuate="onRequest" xlink:href="classclanguml_1_1class__diagram_1_1model_1_1class__.html" xlink:show="new" xlink:title="Diagram element representing a class or class template." xlink:type="simple">
      <rect fill="#FEFECE" filter="url(#f8tq8xnvwpqw1)" height="48" id="C_0001292034357466653182" style="stroke: #A80036; stroke-width: 1.5;" width="70" x="761" y="264.9531"/>
      <ellipse cx="776" cy="280.9531" fill="#ADD1B2" rx="11" ry="11" style="stroke: #A80036; stroke-width: 1.0;"/>
      <path d="M778.9688,286.5938 Q778.3906,286.8906 777.75,287.0313 Q777.1094,287.1875 776.4063,287.1875 Q773.9063,287.1875 772.5781,285.5469 Q771.2656,283.8906 771.2656,280.7656 Q771.2656,277.6406 772.5781,275.9844 Q773.9063,274.3281 776.4063,274.3281 Q777.1094,274.3281 777.75,274.4844 Q778.4063,274.6406 778.9688,274.9375 L778.9688,277.6563 Q778.3438,277.0781 777.75,276.8125 Q777.1563,276.5313 776.5313,276.5313 Q775.1875,276.5313 774.5,277.6094 Q773.8125,278.6719 773.8125,280.7656 Q773.8125,282.8594 774.5,283.9375 Q775.1875,285 776.5313,285 Q777.1563,285 777.75,284.7344 Q778.3438,284.4531 778.9688,283.875 L778.9688,286.5938 Z "/>
      <text fill="#000000" font-family="sans-serif" font-size="12" lengthAdjust="spacingAndGlyphs" textLength="38" x="790" y="285.1074">class_</text>
      <line style="stroke: #A80036; stroke-width: 1.5;" x1="762" x2="830" y1="296.9531" y2="296.9531"/>
      <line style="stroke: #A80036; stroke-width: 1.5;" x1="762" x2="830" y1="304.9531" y2="304.9531"/>
    </a>
    <a href="classclanguml_1_1class__diagram_1_1model_1_1concept__.html" target="_top" title="Model of C++ concept." xlink:actuate="onRequest" xlink:href="classclanguml_1_1class__diagram_1_1model_1_1concept__.html" xlink:show="new" xlink:title="Model of C++ concept." xlink:type="simple">
      <rect fill="#FEFECE" filter="url(#f8tq8xnvwpqw1)" height="48" id="C_0001374849051752224500" style="stroke: #A80036; stroke-width: 1.5;" width="89" x="636.5" y="264.9531"/>
      <ellipse cx="651.5" cy="280.9531" fill="#ADD1B2" rx="11" ry="11" style="stroke: #A80036; stroke-width: 1.0;"/>
      <path d="M654.4688,286.5938 Q653.8906,286.8906 653.25,287.0313 Q652.6094,287.1875 651.9063,287.1875 Q649.4063,287.1875 648.0781,285.5469 Q646.7656,283.8906 646.7656,280.7656 Q646.7656,277.6406 648.0781,275.9844 Q649.4063,274.3281 651.9063,274.3281 Q652.6094,274.3281 653.25,274.4844 Q653.9063,274.6406 654.4688,274.9375 L654.4688,277.6563 Q653.8438,277.0781 653.25,276.8125 Q652.6563,276.5313 652.0313,276.5313 Q650.6875,276.5313 650,277.6094 Q649.3125,278.6719 649.3125,280.7656 Q649.3125,282.8594 650,283.9375 Q650.6875,285 652.0313,285 Q652.6563,285 653.25,284.7344 Q653.8438,284.4531 654.4688,283.875 L654.4688,286.5938 Z "/>
      <text fill="#000000" font-family="sans-serif" font-size="12" lengthAdjust="spacingAndGlyphs" textLength="57" x="665.5" y="285.1074">concept_</text>
      <line style="stroke: #A80036; stroke-width: 1.5;" x1="637.5" x2="724.5" y1="296.9531" y2="296.9531"/>
      <line style="stroke: #A80036; stroke-width: 1.5;" x1="637.5" x2="724.5" y1="304.9531" y2="304.9531"/>
    </a>
    <a href="classclanguml_1_1class__diagram_1_1model_1_1enum__.html" target="_top" title="Diagram element representing an enum." xlink:actuate="onRequest" xlink:href="classclanguml_1_1class__diagram_1_1model_1_1enum__.html" xlink:show="new" xlink:title="Diagram element representing an enum." xlink:type="simple">
      <rect fill="#FEFECE" filter="url(#f8tq8xnvwpqw1)" height="48" id="C_0000724392977093650506" style="stroke: #A80036; stroke-width: 1.5;" width="73" x="528.5" y="264.9531"/>
      <ellipse cx="543.5" cy="280.9531" fill="#ADD1B2" rx="11" ry="11" style="stroke: #A80036; stroke-width: 1.0;"/>
      <path d="M546.4688,286.5938 Q545.8906,286.8906 545.25,287.0313 Q544.6094,287.1875 543.9063,287.1875 Q541.4063,287.1875 540.0781,285.5469 Q538.7656,283.8906 538.7656,280.7656 Q538.7656,277.6406 540.0781,275.9844 Q541.4063,274.3281 543.9063,274.3281 Q544.6094,274.3281 545.25,274.4844 Q545.9063,274.6406 546.4688,274.9375 L546.4688,277.6563 Q545.8438,277.0781 545.25,276.8125 Q544.6563,276.5313 544.0313,276.5313 Q542.6875,276.5313 542,277.6094 Q541.3125,278.6719 541.3125,280.7656 Q541.3125,282.8594 542,283.9375 Q542.6875,285 544.0313,285 Q544.6563,285 545.25,284.7344 Q545.8438,284.4531 546.4688,283.875 L546.4688,286.5938 Z "/>
      <text fill="#000000" font-family="sans-serif" font-size="12" lengthAdjust="spacingAndGlyphs" textLength="41" x="557.5" y="285.1074">enum_</text>
      <line style="stroke: #A80036; stroke-width: 1.5;" x1="529.5" x2="600.5" y1="296.9531" y2="296.9531"/>
      <line style="stroke: #A80036; stroke-width: 1.5;" x1="529.5" x2="600.5" y1="304.9531" y2="304.9531"/>
    </a>
    <a href="structclanguml_1_1sequence__diagram_1_1model_1_1participant.html" target="_top" title="Base class for various types of sequence diagram participants" xlink:actuate="onRequest" xlink:href="structclanguml_1_1sequence__diagram_1_1model_1_1participant.html" xlink:show="new" xlink:title="Base class for various types of sequence diagram participants" xlink:type="simple">
      <rect fill="#FEFECE" filter="url(#f8tq8xnvwpqw1)" height="48" id="C_0001400215772842495226" style="stroke: #A80036; stroke-width: 1.5;" width="100" x="935" y="264.9531"/>
      <ellipse cx="950" cy="280.9531" fill="#ADD1B2" rx="11" ry="11" style="stroke: #A80036; stroke-width: 1.0;"/>
      <path d="M952.9688,286.5938 Q952.3906,286.8906 951.75,287.0313 Q951.1094,287.1875 950.4063,287.1875 Q947.9063,287.1875 946.5781,285.5469 Q945.2656,283.8906 945.2656,280.7656 Q945.2656,277.6406 946.5781,275.9844 Q947.9063,274.3281 950.4063,274.3281 Q951.1094,274.3281 951.75,274.4844 Q952.4063,274.6406 952.9688,274.9375 L952.9688,277.6563 Q952.3438,277.0781 951.75,276.8125 Q951.1563,276.5313 950.5313,276.5313 Q949.1875,276.5313 948.5,277.6094 Q947.8125,278.6719 947.8125,280.7656 Q947.8125,282.8594 948.5,283.9375 Q949.1875,285 950.5313,285 Q951.1563,285 951.75,284.7344 Q952.3438,284.4531 952.9688,283.875 L952.9688,286.5938 Z "/>
      <text fill="#000000" font-family="sans-serif" font-size="12" lengthAdjust="spacingAndGlyphs" textLength="68" x="964" y="285.1074">participant</text>
      <line style="stroke: #A80036; stroke-width: 1.5;" x1="936" x2="1034" y1="296.9531" y2="296.9531"/>
      <line style="stroke: #A80036; stroke-width: 1.5;" x1="936" x2="1034" y1="304.9531" y2="304.9531"/>
    </a>
    <a href="structclanguml_1_1sequence__diagram_1_1model_1_1class__.html" target="_top" title="Sequence diagram participant representing a class." xlink:actuate="onRequest" xlink:href="structclanguml_1_1sequence__diagram_1_1model_1_1class__.html" xlink:show="new" xlink:title="Sequence diagram participant representing a class." xlink:type="simple">
      <rect fill="#FEFECE" filter="url(#f8tq8xnvwpqw1)" height="48" id="C_0000885514871619471610" style="stroke: #A80036; stroke-width: 1.5;" width="70" x="942" y="372.9531"/>
      <ellipse cx="957" cy="388.9531" fill="#ADD1B2" rx="11" ry="11" style="stroke: #A80036; stroke-width: 1.0;"/>
      <path d="M959.9688,394.5938 Q959.3906,394.8906 958.75,395.0313 Q958.1094,395.1875 957.4063,395.1875 Q954.9063,395.1875 953.5781,393.5469 Q952.2656,391.8906 952.2656,388.7656 Q952.2656,385.6406 953.5781,383.9844 Q954.9063,382.3281 957.4063,382.3281 Q958.1094,382.3281 958.75,382.4844 Q959.4063,382.6406 959.9688,382.9375 L959.9688,385.6563 Q959.3438,385.0781 958.75,384.8125 Q958.1563,384.5313 957.5313,384.5313 Q956.1875,384.5313 955.5,385.6094 Q954.8125,386.6719 954.8125,388.7656 Q954.8125,390.8594 955.5,391.9375 Q956.1875,393 957.5313,393 Q958.1563,393 958.75,392.7344 Q959.3438,392.4531 959.9688,391.875 L959.9688,394.5938 Z "/>
      <text fill="#000000" font-family="sans-serif" font-size="12" lengthAdjust="spacingAndGlyphs" textLength="38" x="971" y="393.1074">class_</text>
      <line style="stroke: #A80036; stroke-width: 1.5;" x1="943" x2="1011" y1="404.9531" y2="404.9531"/>
      <line style="stroke: #A80036; stroke-width: 1.5;" x1="943" x2="1011" y1="412.9531" y2="412.9531"/>
    </a>
    <a href="structclanguml_1_1sequence__diagram_1_1model_1_1function.html" target="_top" title="Participant mode representing a free function." xlink:actuate="onRequest" xlink:href="structclanguml_1_1sequence__diagram_1_1model_1_1function.html" xlink:show="new" xlink:title="Participant mode representing a free function." xlink:type="simple">
      <rect fill="#FEFECE" filter="url(#f8tq8xnvwpqw1)" height="48" id="C_0000232638456031681828" style="stroke: #A80036; stroke-width: 1.5;" width="83" x="1047.5" y="372.9531"/>
      <ellipse cx="1062.5" cy="388.9531" fill="#ADD1B2" rx="11" ry="11" style="stroke: #A80036; stroke-width: 1.0;"/>
      <path d="M1065.4688,394.5938 Q1064.8906,394.8906 1064.25,395.0313 Q1063.6094,395.1875 1062.9063,395.1875 Q1060.4063,395.1875 1059.0781,393.5469 Q1057.7656,391.8906 1057.7656,388.7656 Q1057.7656,385.6406 1059.0781,383.9844 Q1060.4063,382.3281 1062.9063,382.3281 Q1063.6094,382.3281 1064.25,382.4844 Q1064.9063,382.6406 1065.4688,382.9375 L1065.4688,385.6563 Q1064.8438,385.0781 1064.25,384.8125 Q1063.6563,384.5313 1063.0313,384.5313 Q1061.6875,384.5313 1061,385.6094 Q1060.3125,386.6719 1060.3125,388.7656 Q1060.3125,390.8594 1061,391.9375 Q1061.6875,393 1063.0313,393 Q1063.6563,393 1064.25,392.7344 Q1064.8438,392.4531 1065.4688,391.875 L1065.4688,394.5938 Z "/>
      <text fill="#000000" font-family="sans-serif" font-size="12" lengthAdjust="spacingAndGlyphs" textLength="51" x="1076.5" y="393.1074">function</text>
      <line style="stroke: #A80036; stroke-width: 1.5;" x1="1048.5" x2="1129.5" y1="404.9531" y2="404.9531"/>
      <line style="stroke: #A80036; stroke-width: 1.5;" x1="1048.5" x2="1129.5" y1="412.9531" y2="412.9531"/>
    </a>
    <a href="structclanguml_1_1sequence__diagram_1_1model_1_1method.html" target="_top" title="Participant model representing a method" xlink:actuate="onRequest" xlink:href="structclanguml_1_1sequence__diagram_1_1model_1_1method.html" xlink:show="new" xlink:title="Participant model representing a method" xlink:type="simple">
      <rect fill="#FEFECE" filter="url(#f8tq8xnvwpqw1)" height="48" id="C_0000817665972547784504" style="stroke: #A80036; stroke-width: 1.5;" width="80" x="935" y="480.9531"/>
      <ellipse cx="950" cy="496.9531" fill="#ADD1B2" rx="11" ry="11" style="stroke: #A80036; stroke-width: 1.0;"/>
      <path d="M952.9688,502.5938 Q952.3906,502.8906 951.75,503.0313 Q951.1094,503.1875 950.4063,503.1875 Q947.9063,503.1875 946.5781,501.5469 Q945.2656,499.8906 945.2656,496.7656 Q945.2656,493.6406 946.5781,491.9844 Q947.9063,490.3281 950.4063,490.3281 Q951.1094,490.3281 951.75,490.4844 Q952.4063,490.6406 952.9688,490.9375 L952.9688,493.6563 Q952.3438,493.0781 951.75,492.8125 Q951.1563,492.5313 950.5313,492.5313 Q949.1875,492.5313 948.5,493.6094 Q947.8125,494.6719 947.8125,496.7656 Q947.8125,498.8594 948.5,499.9375 Q949.1875,501 950.5313,501 Q951.1563,501 951.75,500.7344 Q952.3438,500.4531 952.9688,499.875 L952.9688,502.5938 Z "/>
      <text fill="#000000" font-family="sans-serif" font-size="12" lengthAdjust="spacingAndGlyphs" textLength="48" x="964" y="501.1074">method</text>
      <line style="stroke: #A80036; stroke-width: 1.5;" x1="936" x2="1014" y1="512.9531" y2="512.9531"/>
      <line style="stroke: #A80036; stroke-width: 1.5;" x1="936" x2="1014" y1="520.9531" y2="520.9531"/>
    </a>
    <a href="structclanguml_1_1sequence__diagram_1_1model_1_1function__template.html" target="_top" title="Participant model representing a function template." xlink:actuate="onRequest" xlink:href="structclanguml_1_1sequence__diagram_1_1model_1_1function__template.html" xlink:show="new" xlink:title="Participant model representing a function template." xlink:type="simple">
      <rect fill="#FEFECE" filter="url(#f8tq8xnvwpqw1)" height="48" id="C_0002280191967493310558" style="stroke: #A80036; stroke-width: 1.5;" width="145" x="1050.5" y="480.9531"/>
      <ellipse cx="1065.5" cy="496.9531" fill="#ADD1B2" rx="11" ry="11" style="stroke: #A80036; stroke-width: 1.0;"/>
      <path d="M1068.4688,502.5938 Q1067.8906,502.8906 1067.25,503.0313 Q1066.6094,503.1875 1065.9063,503.1875 Q1063.4063,503.1875 1062.0781,501.5469 Q1060.7656,499.8906 1060.7656,496.7656 Q1060.7656,493.6406 1062.0781,491.9844 Q1063.4063,490.3281 1065.9063,490.3281 Q1066.6094,490.3281 1067.25,490.4844 Q1067.9063,490.6406 1068.4688,490.9375 L1068.4688,493.6563 Q1067.8438,493.0781 1067.25,492.8125 Q1066.6563,492.5313 1066.0313,492.5313 Q1064.6875,492.5313 1064,493.6094 Q1063.3125,494.6719 1063.3125,496.7656 Q1063.3125,498.8594 1064,499.9375 Q1064.6875,501 1066.0313,501 Q1066.6563,501 1067.25,500.7344 Q1067.8438,500.4531 1068.4688,499.875 L1068.4688,502.5938 Z "/>
      <text fill="#000000" font-family="sans-serif" font-size="12" lengthAdjust="spacingAndGlyphs" textLength="113" x="1079.5" y="501.1074">function_template</text>
      <line style="stroke: #A80036; stroke-width: 1.5;" x1="1051.5" x2="1194.5" y1="512.9531" y2="512.9531"/>
      <line style="stroke: #A80036; stroke-width: 1.5;" x1="1051.5" x2="1194.5" y1="520.9531" y2="520.9531"/>
    </a>
    <path d="M266.34,157.7931 C232.93,162.8231 199.69,169.8431 186,178.9531 C154.79,199.7331 134.21,239.3931 123.59,264.7131 " fill="none" id="C_0002077846075979426940&lt;-C_0002046336758797367926" style="stroke: #A80036; stroke-width: 1.0;"/>
    <polygon fill="none" points="265.66,150.8231,286.44,154.9931,267.6,164.6831,265.66,150.8231" style="stroke: #A80036; stroke-width: 1.0;"/>
    <path d="M315.55,186.6231 C292.33,216.4431 275.72,245.0531 265.11,264.6031 " fill="none" id="C_0002077846075979426940&lt;-C_0000785714713072053129" style="stroke: #A80036; stroke-width: 1.0;"/>
    <polygon fill="none" points="310.24,182.0531,328.3,170.9631,321.1,190.8931,310.24,182.0531" style="stroke: #A80036; stroke-width: 1.0;"/>
    <path d="M362.95,190.7831 C367.48,215.1531 372.97,244.7231 376.7,264.8031 " fill="none" id="C_0002077846075979426940&lt;-C_0002143286684830686854" style="stroke: #A80036; stroke-width: 1.0;"/>
    <polygon fill="none" points="356.06,192.0131,359.29,171.0731,369.83,189.4531,356.06,192.0131" style="stroke: #A80036; stroke-width: 1.0;"/>
    <path d="M443.89,150.4431 C550.78,154.1431 718.91,162.5031 743,178.9531 C772.02,198.7631 785.73,239.1131 791.76,264.7731 " fill="none" id="C_0002077846075979426940&lt;-C_0001292034357466653182" style="stroke: #A80036; stroke-width: 1.0;"/>
    <polygon fill="none" points="443.47,157.4331,423.72,149.7731,443.94,143.4331,443.47,157.4331" style="stroke: #A80036; stroke-width: 1.0;"/>
    <path d="M443.73,149.8931 C508.95,152.8731 590.91,160.3331 619,178.9531 C649.31,199.0331 666.46,239.3031 674.72,264.8731 " fill="none" id="C_0002077846075979426940&lt;-C_0001374849051752224500" style="stroke: #A80036; stroke-width: 1.0;"/>
    <polygon fill="none" points="443.37,156.8831,423.66,149.0931,443.93,142.8931,443.37,156.8831" style="stroke: #A80036; stroke-width: 1.0;"/>
    <path d="M441.12,180.8831 C488.59,210.6131 522.51,243.0331 543.5,264.6931 " fill="none" id="C_0002077846075979426940&lt;-C_0000724392977093650506" style="stroke: #A80036; stroke-width: 1.0;"/>
    <polygon fill="none" points="437.33,186.7731,423.76,170.5031,444.51,174.7631,437.33,186.7731" style="stroke: #A80036; stroke-width: 1.0;"/>
    <path d="M443.99,147.2431 C565.34,147.3531 775.79,151.6831 847,178.9531 C894.9,197.2931 939.36,238.5031 964.27,264.6731 " fill="none" id="C_0002077846075979426940&lt;-C_0001400215772842495226" style="stroke: #A80036; stroke-width: 1.0;"/>
    <polygon fill="none" points="443.87,154.2431,423.87,147.2631,443.86,140.2431,443.87,154.2431" style="stroke: #A80036; stroke-width: 1.0;"/>
    <path d="M981.75,332.9731 C980.73,346.5331 979.64,360.9931 978.76,372.6331 " fill="none" id="C_0001400215772842495226&lt;-C_0000885514871619471610" style="stroke: #A80036; stroke-width: 1.0;"/>
    <polygon fill="none" points="974.78,332.3731,983.26,312.9531,988.74,333.4231,974.78,332.3731" style="stroke: #A80036; stroke-width: 1.0;"/>
    <path d="M1021.58,327.2331 C1036.4,342.3431 1053.07,359.3331 1066.12,372.6331 " fill="none" id="C_0001400215772842495226&lt;-C_0000232638456031681828" style="stroke: #A80036; stroke-width: 1.0;"/>
    <polygon fill="none" points="1016.58,332.1331,1007.57,312.9531,1026.57,322.3231,1016.58,332.1331" style="stroke: #A80036; stroke-width: 1.0;"/>
    <path d="M1049.41,434.7631 C1033.04,449.9931 1014.54,467.1931 1000.08,480.6331 " fill="none" id="C_0000232638456031681828&lt;-C_0000817665972547784504" style="stroke: #A80036; stroke-width: 1.0;"/>
    <polygon fill="none" points="1044.85,429.4431,1064.26,420.9531,1054.38,439.7031,1044.85,429.4431" style="stroke: #A80036; stroke-width: 1.0;"/>
    <path d="M1102.49,440.0131 C1106.93,453.8431 1111.7,468.7131 1115.52,480.6331 " fill="none" id="C_0000232638456031681828&lt;-C_0002280191967493310558" style="stroke: #A80036; stroke-width: 1.0;"/>
    <polygon fill="none" points="1095.82,442.1331,1096.38,420.9531,1109.15,437.8631,1095.82,442.1331" style="stroke: #A80036; stroke-width: 1.0;"/>
  </g>
</svg>
