<svg xmlns="http://www.w3.org/2000/svg" xmlns:xlink="http://www.w3.org/1999/xlink" contentScriptType="application/ecmascript" contentStyleType="text/css" height="806px" preserveAspectRatio="none" style="width:1027px;height:806px;" version="1.1" viewBox="0 0 1027 806" width="1027px" zoomAndPan="magnify">
  <defs>
    <filter height="300%" id="fxbjpfr5ctlfp" width="300%" x="-1" y="-1">
      <feGaussianBlur result="blurOut" stdDeviation="2.0"/>
      <feColorMatrix in="blurOut" result="blurOut2" type="matrix" values="0 0 0 0 0 0 0 0 0 0 0 0 0 0 0 0 0 0 .4 0"/>
      <feOffset dx="4.0" dy="4.0" in="blurOut2" result="blurOut3"/>
      <feBlend in="SourceGraphic" in2="blurOut3" mode="normal"/>
    </filter>
    <style type="text/css">a:hover { text-decoration: underline; }</style>
  </defs>
  <g>
    <text fill="#000000" font-family="sans-serif" font-size="18" lengthAdjust="spacingAndGlyphs" textLength="481" x="279" y="16.708">Template trait diagram element model class hierarchy</text>
    <polygon fill="#FFFFFF" filter="url(#fxbjpfr5ctlfp)" points="322,44.9531,395,44.9531,402,67.25,906,67.25,906,335.9531,322,335.9531,322,44.9531" style="stroke: #000000; stroke-width: 1.5;"/>
    <line style="stroke: #000000; stroke-width: 1.5;" x1="322" x2="402" y1="67.25" y2="67.25"/>
    <text fill="#000000" font-family="sans-serif" font-size="14" font-weight="bold" lengthAdjust="spacingAndGlyphs" textLength="67" x="326" y="59.9482">common</text>
    <polygon fill="#FFFFFF" filter="url(#fxbjpfr5ctlfp)" points="346,87.9531,400,87.9531,407,110.25,882,110.25,882,311.9531,346,311.9531,346,87.9531" style="stroke: #000000; stroke-width: 1.5;"/>
    <line style="stroke: #000000; stroke-width: 1.5;" x1="346" x2="407" y1="110.25" y2="110.25"/>
    <text fill="#000000" font-family="sans-serif" font-size="14" font-weight="bold" lengthAdjust="spacingAndGlyphs" textLength="48" x="350" y="102.9482">model</text>
    <polygon fill="#FFFFFF" filter="url(#fxbjpfr5ctlfp)" points="22,368.9531,138,368.9531,145,391.25,296,391.25,296,659.9531,22,659.9531,22,368.9531" style="stroke: #000000; stroke-width: 1.5;"/>
    <line style="stroke: #000000; stroke-width: 1.5;" x1="22" x2="145" y1="391.25" y2="391.25"/>
    <text fill="#000000" font-family="sans-serif" font-size="14" font-weight="bold" lengthAdjust="spacingAndGlyphs" textLength="110" x="26" y="383.9482">class_diagram</text>
    <polygon fill="#FFFFFF" filter="url(#fxbjpfr5ctlfp)" points="46,411.9531,100,411.9531,107,434.25,272,434.25,272,635.9531,46,635.9531,46,411.9531" style="stroke: #000000; stroke-width: 1.5;"/>
    <line style="stroke: #000000; stroke-width: 1.5;" x1="46" x2="107" y1="434.25" y2="434.25"/>
    <text fill="#000000" font-family="sans-serif" font-size="14" font-weight="bold" lengthAdjust="spacingAndGlyphs" textLength="48" x="50" y="426.9482">model</text>
    <polygon fill="#FFFFFF" filter="url(#fxbjpfr5ctlfp)" points="664,368.9531,818,368.9531,825,391.25,1005,391.25,1005,794.9531,664,794.9531,664,368.9531" style="stroke: #000000; stroke-width: 1.5;"/>
    <line style="stroke: #000000; stroke-width: 1.5;" x1="664" x2="825" y1="391.25" y2="391.25"/>
    <text fill="#000000" font-family="sans-serif" font-size="14" font-weight="bold" lengthAdjust="spacingAndGlyphs" textLength="148" x="668" y="383.9482">sequence_diagram</text>
    <polygon fill="#FFFFFF" filter="url(#fxbjpfr5ctlfp)" points="688,411.9531,742,411.9531,749,434.25,981,434.25,981,770.9531,688,770.9531,688,411.9531" style="stroke: #000000; stroke-width: 1.5;"/>
    <line style="stroke: #000000; stroke-width: 1.5;" x1="688" x2="749" y1="434.25" y2="434.25"/>
    <text fill="#000000" font-family="sans-serif" font-size="14" font-weight="bold" lengthAdjust="spacingAndGlyphs" textLength="48" x="692" y="426.9482">model</text>
    <a href="classclanguml_1_1common_1_1model_1_1template__parameter.html" target="_top" title="Represents template parameter, template arguments or concept         constraints" xlink:actuate="onRequest" xlink:href="classclanguml_1_1common_1_1model_1_1template__parameter.html" xlink:show="new" xlink:title="Represents template parameter, template arguments or concept         constraints" xlink:type="simple">
      <rect fill="#FEFECE" filter="url(#fxbjpfr5ctlfp)" height="48" id="C_0000178138562743079529" style="stroke: #A80036; stroke-width: 1.5;" width="160" x="362" y="247.9531"/>
      <ellipse cx="377" cy="263.9531" fill="#ADD1B2" rx="11" ry="11" style="stroke: #A80036; stroke-width: 1.0;"/>
      <path d="M379.9688,269.5938 Q379.3906,269.8906 378.75,270.0313 Q378.1094,270.1875 377.4063,270.1875 Q374.9063,270.1875 373.5781,268.5469 Q372.2656,266.8906 372.2656,263.7656 Q372.2656,260.6406 373.5781,258.9844 Q374.9063,257.3281 377.4063,257.3281 Q378.1094,257.3281 378.75,257.4844 Q379.4063,257.6406 379.9688,257.9375 L379.9688,260.6563 Q379.3438,260.0781 378.75,259.8125 Q378.1563,259.5313 377.5313,259.5313 Q376.1875,259.5313 375.5,260.6094 Q374.8125,261.6719 374.8125,263.7656 Q374.8125,265.8594 375.5,266.9375 Q376.1875,268 377.5313,268 Q378.1563,268 378.75,267.7344 Q379.3438,267.4531 379.9688,266.875 L379.9688,269.5938 Z "/>
      <text fill="#000000" font-family="sans-serif" font-size="12" lengthAdjust="spacingAndGlyphs" textLength="128" x="391" y="268.1074">template_parameter</text>
      <line style="stroke: #A80036; stroke-width: 1.5;" x1="363" x2="521" y1="279.9531" y2="279.9531"/>
      <line style="stroke: #A80036; stroke-width: 1.5;" x1="363" x2="521" y1="287.9531" y2="287.9531"/>
    </a>
    <a href="classclanguml_1_1common_1_1model_1_1template__trait.html" target="_top" title="Common interface for template diagram elements." xlink:actuate="onRequest" xlink:href="classclanguml_1_1common_1_1model_1_1template__trait.html" xlink:show="new" xlink:title="Common interface for template diagram elements." xlink:type="simple">
      <rect fill="#FEFECE" filter="url(#fxbjpfr5ctlfp)" height="48" id="C_0000464715462505216589" style="stroke: #A80036; stroke-width: 1.5;" width="120" x="372" y="122.9531"/>
      <ellipse cx="387" cy="138.9531" fill="#ADD1B2" rx="11" ry="11" style="stroke: #A80036; stroke-width: 1.0;"/>
      <path d="M389.9688,144.5938 Q389.3906,144.8906 388.75,145.0313 Q388.1094,145.1875 387.4063,145.1875 Q384.9063,145.1875 383.5781,143.5469 Q382.2656,141.8906 382.2656,138.7656 Q382.2656,135.6406 383.5781,133.9844 Q384.9063,132.3281 387.4063,132.3281 Q388.1094,132.3281 388.75,132.4844 Q389.4063,132.6406 389.9688,132.9375 L389.9688,135.6563 Q389.3438,135.0781 388.75,134.8125 Q388.1563,134.5313 387.5313,134.5313 Q386.1875,134.5313 385.5,135.6094 Q384.8125,136.6719 384.8125,138.7656 Q384.8125,140.8594 385.5,141.9375 Q386.1875,143 387.5313,143 Q388.1563,143 388.75,142.7344 Q389.3438,142.4531 389.9688,141.875 L389.9688,144.5938 Z "/>
      <text fill="#000000" font-family="sans-serif" font-size="12" lengthAdjust="spacingAndGlyphs" textLength="88" x="401" y="143.1074">template_trait</text>
      <line style="stroke: #A80036; stroke-width: 1.5;" x1="373" x2="491" y1="154.9531" y2="154.9531"/>
      <line style="stroke: #A80036; stroke-width: 1.5;" x1="373" x2="491" y1="162.9531" y2="162.9531"/>
    </a>
    <a href="classclanguml_1_1common_1_1model_1_1template__element.html" target="_top" title="Base class for any element qualified by namespace." xlink:actuate="onRequest" xlink:href="classclanguml_1_1common_1_1model_1_1template__element.html" xlink:show="new" xlink:title="Base class for any element qualified by namespace." xlink:type="simple">
      <rect fill="#FEFECE" filter="url(#fxbjpfr5ctlfp)" height="48" id="C_0001673103894976412298" style="stroke: #A80036; stroke-width: 1.5;" width="145" x="720.5" y="247.9531"/>
      <ellipse cx="735.5" cy="263.9531" fill="#ADD1B2" rx="11" ry="11" style="stroke: #A80036; stroke-width: 1.0;"/>
      <path d="M738.4688,269.5938 Q737.8906,269.8906 737.25,270.0313 Q736.6094,270.1875 735.9063,270.1875 Q733.4063,270.1875 732.0781,268.5469 Q730.7656,266.8906 730.7656,263.7656 Q730.7656,260.6406 732.0781,258.9844 Q733.4063,257.3281 735.9063,257.3281 Q736.6094,257.3281 737.25,257.4844 Q737.9063,257.6406 738.4688,257.9375 L738.4688,260.6563 Q737.8438,260.0781 737.25,259.8125 Q736.6563,259.5313 736.0313,259.5313 Q734.6875,259.5313 734,260.6094 Q733.3125,261.6719 733.3125,263.7656 Q733.3125,265.8594 734,266.9375 Q734.6875,268 736.0313,268 Q736.6563,268 737.25,267.7344 Q737.8438,267.4531 738.4688,266.875 L738.4688,269.5938 Z "/>
      <text fill="#000000" font-family="sans-serif" font-size="12" lengthAdjust="spacingAndGlyphs" textLength="113" x="749.5" y="268.1074">template_element</text>
      <line style="stroke: #A80036; stroke-width: 1.5;" x1="721.5" x2="864.5" y1="279.9531" y2="279.9531"/>
      <line style="stroke: #A80036; stroke-width: 1.5;" x1="721.5" x2="864.5" y1="287.9531" y2="287.9531"/>
    </a>
    <a href="classclanguml_1_1class__diagram_1_1model_1_1class__method.html" target="_top" title="Class method model." xlink:actuate="onRequest" xlink:href="classclanguml_1_1class__diagram_1_1model_1_1class__method.html" xlink:show="new" xlink:title="Class method model." xlink:type="simple">
      <rect fill="#FEFECE" filter="url(#fxbjpfr5ctlfp)" height="48" id="C_0000204145716468348671" style="stroke: #A80036; stroke-width: 1.5;" width="118" x="128" y="571.9531"/>
      <ellipse cx="143" cy="587.9531" fill="#ADD1B2" rx="11" ry="11" style="stroke: #A80036; stroke-width: 1.0;"/>
      <path d="M145.9688,593.5938 Q145.3906,593.8906 144.75,594.0313 Q144.1094,594.1875 143.4063,594.1875 Q140.9063,594.1875 139.5781,592.5469 Q138.2656,590.8906 138.2656,587.7656 Q138.2656,584.6406 139.5781,582.9844 Q140.9063,581.3281 143.4063,581.3281 Q144.1094,581.3281 144.75,581.4844 Q145.4063,581.6406 145.9688,581.9375 L145.9688,584.6563 Q145.3438,584.0781 144.75,583.8125 Q144.1563,583.5313 143.5313,583.5313 Q142.1875,583.5313 141.5,584.6094 Q140.8125,585.6719 140.8125,587.7656 Q140.8125,589.8594 141.5,590.9375 Q142.1875,592 143.5313,592 Q144.1563,592 144.75,591.7344 Q145.3438,591.4531 145.9688,590.875 L145.9688,593.5938 Z "/>
      <text fill="#000000" font-family="sans-serif" font-size="12" lengthAdjust="spacingAndGlyphs" textLength="86" x="157" y="592.1074">class_method</text>
      <line style="stroke: #A80036; stroke-width: 1.5;" x1="129" x2="245" y1="603.9531" y2="603.9531"/>
      <line style="stroke: #A80036; stroke-width: 1.5;" x1="129" x2="245" y1="611.9531" y2="611.9531"/>
    </a>
    <a href="classclanguml_1_1class__diagram_1_1model_1_1class__.html" target="_top" title="Diagram element representing a class or class template." xlink:actuate="onRequest" xlink:href="classclanguml_1_1class__diagram_1_1model_1_1class__.html" xlink:show="new" xlink:title="Diagram element representing a class or class template." xlink:type="simple">
      <rect fill="#FEFECE" filter="url(#fxbjpfr5ctlfp)" height="48" id="C_0001292034357466653182" style="stroke: #A80036; stroke-width: 1.5;" width="70" x="186" y="446.9531"/>
      <ellipse cx="201" cy="462.9531" fill="#ADD1B2" rx="11" ry="11" style="stroke: #A80036; stroke-width: 1.0;"/>
      <path d="M203.9688,468.5938 Q203.3906,468.8906 202.75,469.0313 Q202.1094,469.1875 201.4063,469.1875 Q198.9063,469.1875 197.5781,467.5469 Q196.2656,465.8906 196.2656,462.7656 Q196.2656,459.6406 197.5781,457.9844 Q198.9063,456.3281 201.4063,456.3281 Q202.1094,456.3281 202.75,456.4844 Q203.4063,456.6406 203.9688,456.9375 L203.9688,459.6563 Q203.3438,459.0781 202.75,458.8125 Q202.1563,458.5313 201.5313,458.5313 Q200.1875,458.5313 199.5,459.6094 Q198.8125,460.6719 198.8125,462.7656 Q198.8125,464.8594 199.5,465.9375 Q200.1875,467 201.5313,467 Q202.1563,467 202.75,466.7344 Q203.3438,466.4531 203.9688,465.875 L203.9688,468.5938 Z "/>
      <text fill="#000000" font-family="sans-serif" font-size="12" lengthAdjust="spacingAndGlyphs" textLength="38" x="215" y="467.1074">class_</text>
      <line style="stroke: #A80036; stroke-width: 1.5;" x1="187" x2="255" y1="478.9531" y2="478.9531"/>
      <line style="stroke: #A80036; stroke-width: 1.5;" x1="187" x2="255" y1="486.9531" y2="486.9531"/>
    </a>
    <a href="classclanguml_1_1class__diagram_1_1model_1_1concept__.html" target="_top" title="Model of C++ concept." xlink:actuate="onRequest" xlink:href="classclanguml_1_1class__diagram_1_1model_1_1concept__.html" xlink:show="new" xlink:title="Model of C++ concept." xlink:type="simple">
      <rect fill="#FEFECE" filter="url(#fxbjpfr5ctlfp)" height="48" id="C_0001374849051752224500" style="stroke: #A80036; stroke-width: 1.5;" width="89" x="61.5" y="446.9531"/>
      <ellipse cx="76.5" cy="462.9531" fill="#ADD1B2" rx="11" ry="11" style="stroke: #A80036; stroke-width: 1.0;"/>
      <path d="M79.4688,468.5938 Q78.8906,468.8906 78.25,469.0313 Q77.6094,469.1875 76.9063,469.1875 Q74.4063,469.1875 73.0781,467.5469 Q71.7656,465.8906 71.7656,462.7656 Q71.7656,459.6406 73.0781,457.9844 Q74.4063,456.3281 76.9063,456.3281 Q77.6094,456.3281 78.25,456.4844 Q78.9063,456.6406 79.4688,456.9375 L79.4688,459.6563 Q78.8438,459.0781 78.25,458.8125 Q77.6563,458.5313 77.0313,458.5313 Q75.6875,458.5313 75,459.6094 Q74.3125,460.6719 74.3125,462.7656 Q74.3125,464.8594 75,465.9375 Q75.6875,467 77.0313,467 Q77.6563,467 78.25,466.7344 Q78.8438,466.4531 79.4688,465.875 L79.4688,468.5938 Z "/>
      <text fill="#000000" font-family="sans-serif" font-size="12" lengthAdjust="spacingAndGlyphs" textLength="57" x="90.5" y="467.1074">concept_</text>
      <line style="stroke: #A80036; stroke-width: 1.5;" x1="62.5" x2="149.5" y1="478.9531" y2="478.9531"/>
      <line style="stroke: #A80036; stroke-width: 1.5;" x1="62.5" x2="149.5" y1="486.9531" y2="486.9531"/>
    </a>
    <a href="structclanguml_1_1sequence__diagram_1_1model_1_1participant.html" target="_top" title="Base class for various types of sequence diagram participants" xlink:actuate="onRequest" xlink:href="structclanguml_1_1sequence__diagram_1_1model_1_1participant.html" xlink:show="new" xlink:title="Base class for various types of sequence diagram participants" xlink:type="simple">
      <rect fill="#FEFECE" filter="url(#fxbjpfr5ctlfp)" height="48" id="C_0001400215772842495226" style="stroke: #A80036; stroke-width: 1.5;" width="100" x="743" y="446.9531"/>
      <ellipse cx="758" cy="462.9531" fill="#ADD1B2" rx="11" ry="11" style="stroke: #A80036; stroke-width: 1.0;"/>
      <path d="M760.9688,468.5938 Q760.3906,468.8906 759.75,469.0313 Q759.1094,469.1875 758.4063,469.1875 Q755.9063,469.1875 754.5781,467.5469 Q753.2656,465.8906 753.2656,462.7656 Q753.2656,459.6406 754.5781,457.9844 Q755.9063,456.3281 758.4063,456.3281 Q759.1094,456.3281 759.75,456.4844 Q760.4063,456.6406 760.9688,456.9375 L760.9688,459.6563 Q760.3438,459.0781 759.75,458.8125 Q759.1563,458.5313 758.5313,458.5313 Q757.1875,458.5313 756.5,459.6094 Q755.8125,460.6719 755.8125,462.7656 Q755.8125,464.8594 756.5,465.9375 Q757.1875,467 758.5313,467 Q759.1563,467 759.75,466.7344 Q760.3438,466.4531 760.9688,465.875 L760.9688,468.5938 Z "/>
      <text fill="#000000" font-family="sans-serif" font-size="12" lengthAdjust="spacingAndGlyphs" textLength="68" x="772" y="467.1074">participant</text>
      <line style="stroke: #A80036; stroke-width: 1.5;" x1="744" x2="842" y1="478.9531" y2="478.9531"/>
      <line style="stroke: #A80036; stroke-width: 1.5;" x1="744" x2="842" y1="486.9531" y2="486.9531"/>
    </a>
    <a href="structclanguml_1_1sequence__diagram_1_1model_1_1class__.html" target="_top" title="Sequence diagram participant representing a class." xlink:actuate="onRequest" xlink:href="structclanguml_1_1sequence__diagram_1_1model_1_1class__.html" xlink:show="new" xlink:title="Sequence diagram participant representing a class." xlink:type="simple">
      <rect fill="#FEFECE" filter="url(#fxbjpfr5ctlfp)" height="48" id="C_0000885514871619471610" style="stroke: #A80036; stroke-width: 1.5;" width="70" x="715" y="571.9531"/>
      <ellipse cx="730" cy="587.9531" fill="#ADD1B2" rx="11" ry="11" style="stroke: #A80036; stroke-width: 1.0;"/>
      <path d="M732.9688,593.5938 Q732.3906,593.8906 731.75,594.0313 Q731.1094,594.1875 730.4063,594.1875 Q727.9063,594.1875 726.5781,592.5469 Q725.2656,590.8906 725.2656,587.7656 Q725.2656,584.6406 726.5781,582.9844 Q727.9063,581.3281 730.4063,581.3281 Q731.1094,581.3281 731.75,581.4844 Q732.4063,581.6406 732.9688,581.9375 L732.9688,584.6563 Q732.3438,584.0781 731.75,583.8125 Q731.1563,583.5313 730.5313,583.5313 Q729.1875,583.5313 728.5,584.6094 Q727.8125,585.6719 727.8125,587.7656 Q727.8125,589.8594 728.5,590.9375 Q729.1875,592 730.5313,592 Q731.1563,592 731.75,591.7344 Q732.3438,591.4531 732.9688,590.875 L732.9688,593.5938 Z "/>
      <text fill="#000000" font-family="sans-serif" font-size="12" lengthAdjust="spacingAndGlyphs" textLength="38" x="744" y="592.1074">class_</text>
      <line style="stroke: #A80036; stroke-width: 1.5;" x1="716" x2="784" y1="603.9531" y2="603.9531"/>
      <line style="stroke: #A80036; stroke-width: 1.5;" x1="716" x2="784" y1="611.9531" y2="611.9531"/>
    </a>
    <a href="structclanguml_1_1sequence__diagram_1_1model_1_1function.html" target="_top" title="Participant mode representing a free function." xlink:actuate="onRequest" xlink:href="structclanguml_1_1sequence__diagram_1_1model_1_1function.html" xlink:show="new" xlink:title="Participant mode representing a free function." xlink:type="simple">
      <rect fill="#FEFECE" filter="url(#fxbjpfr5ctlfp)" height="48" id="C_0000232638456031681828" style="stroke: #A80036; stroke-width: 1.5;" width="83" x="820.5" y="571.9531"/>
      <ellipse cx="835.5" cy="587.9531" fill="#ADD1B2" rx="11" ry="11" style="stroke: #A80036; stroke-width: 1.0;"/>
      <path d="M838.4688,593.5938 Q837.8906,593.8906 837.25,594.0313 Q836.6094,594.1875 835.9063,594.1875 Q833.4063,594.1875 832.0781,592.5469 Q830.7656,590.8906 830.7656,587.7656 Q830.7656,584.6406 832.0781,582.9844 Q833.4063,581.3281 835.9063,581.3281 Q836.6094,581.3281 837.25,581.4844 Q837.9063,581.6406 838.4688,581.9375 L838.4688,584.6563 Q837.8438,584.0781 837.25,583.8125 Q836.6563,583.5313 836.0313,583.5313 Q834.6875,583.5313 834,584.6094 Q833.3125,585.6719 833.3125,587.7656 Q833.3125,589.8594 834,590.9375 Q834.6875,592 836.0313,592 Q836.6563,592 837.25,591.7344 Q837.8438,591.4531 838.4688,590.875 L838.4688,593.5938 Z "/>
      <text fill="#000000" font-family="sans-serif" font-size="12" lengthAdjust="spacingAndGlyphs" textLength="51" x="849.5" y="592.1074">function</text>
      <line style="stroke: #A80036; stroke-width: 1.5;" x1="821.5" x2="902.5" y1="603.9531" y2="603.9531"/>
      <line style="stroke: #A80036; stroke-width: 1.5;" x1="821.5" x2="902.5" y1="611.9531" y2="611.9531"/>
    </a>
    <a href="structclanguml_1_1sequence__diagram_1_1model_1_1method.html" target="_top" title="Participant model representing a method" xlink:actuate="onRequest" xlink:href="structclanguml_1_1sequence__diagram_1_1model_1_1method.html" xlink:show="new" xlink:title="Participant model representing a method" xlink:type="simple">
      <rect fill="#FEFECE" filter="url(#fxbjpfr5ctlfp)" height="48" id="C_0000817665972547784504" style="stroke: #A80036; stroke-width: 1.5;" width="80" x="704" y="706.9531"/>
      <ellipse cx="719" cy="722.9531" fill="#ADD1B2" rx="11" ry="11" style="stroke: #A80036; stroke-width: 1.0;"/>
      <path d="M721.9688,728.5938 Q721.3906,728.8906 720.75,729.0313 Q720.1094,729.1875 719.4063,729.1875 Q716.9063,729.1875 715.5781,727.5469 Q714.2656,725.8906 714.2656,722.7656 Q714.2656,719.6406 715.5781,717.9844 Q716.9063,716.3281 719.4063,716.3281 Q720.1094,716.3281 720.75,716.4844 Q721.4063,716.6406 721.9688,716.9375 L721.9688,719.6563 Q721.3438,719.0781 720.75,718.8125 Q720.1563,718.5313 719.5313,718.5313 Q718.1875,718.5313 717.5,719.6094 Q716.8125,720.6719 716.8125,722.7656 Q716.8125,724.8594 717.5,725.9375 Q718.1875,727 719.5313,727 Q720.1563,727 720.75,726.7344 Q721.3438,726.4531 721.9688,725.875 L721.9688,728.5938 Z "/>
      <text fill="#000000" font-family="sans-serif" font-size="12" lengthAdjust="spacingAndGlyphs" textLength="48" x="733" y="727.1074">method</text>
      <line style="stroke: #A80036; stroke-width: 1.5;" x1="705" x2="783" y1="738.9531" y2="738.9531"/>
      <line style="stroke: #A80036; stroke-width: 1.5;" x1="705" x2="783" y1="746.9531" y2="746.9531"/>
    </a>
    <a href="structclanguml_1_1sequence__diagram_1_1model_1_1function__template.html" target="_top" title="Participant model representing a function template." xlink:actuate="onRequest" xlink:href="structclanguml_1_1sequence__diagram_1_1model_1_1function__template.html" xlink:show="new" xlink:title="Participant model representing a function template." xlink:type="simple">
      <rect fill="#FEFECE" filter="url(#fxbjpfr5ctlfp)" height="48" id="C_0002280191967493310558" style="stroke: #A80036; stroke-width: 1.5;" width="145" x="819.5" y="706.9531"/>
      <ellipse cx="834.5" cy="722.9531" fill="#ADD1B2" rx="11" ry="11" style="stroke: #A80036; stroke-width: 1.0;"/>
      <path d="M837.4688,728.5938 Q836.8906,728.8906 836.25,729.0313 Q835.6094,729.1875 834.9063,729.1875 Q832.4063,729.1875 831.0781,727.5469 Q829.7656,725.8906 829.7656,722.7656 Q829.7656,719.6406 831.0781,717.9844 Q832.4063,716.3281 834.9063,716.3281 Q835.6094,716.3281 836.25,716.4844 Q836.9063,716.6406 837.4688,716.9375 L837.4688,719.6563 Q836.8438,719.0781 836.25,718.8125 Q835.6563,718.5313 835.0313,718.5313 Q833.6875,718.5313 833,719.6094 Q832.3125,720.6719 832.3125,722.7656 Q832.3125,724.8594 833,725.9375 Q833.6875,727 835.0313,727 Q835.6563,727 836.25,726.7344 Q836.8438,726.4531 837.4688,725.875 L837.4688,728.5938 Z "/>
      <text fill="#000000" font-family="sans-serif" font-size="12" lengthAdjust="spacingAndGlyphs" textLength="113" x="848.5" y="727.1074">function_template</text>
      <line style="stroke: #A80036; stroke-width: 1.5;" x1="820.5" x2="963.5" y1="738.9531" y2="738.9531"/>
      <line style="stroke: #A80036; stroke-width: 1.5;" x1="820.5" x2="963.5" y1="746.9531" y2="746.9531"/>
    </a>
    <path d="M535.17,261.5531 C548.24,263.2431 557,266.7131 557,271.9531 C557,278.7931 542.06,282.6131 522.08,283.4231 " fill="none" id="C_0000178138562743079529&lt;-C_0000178138562743079529" style="stroke: #A80036; stroke-width: 1.0;"/>
    <polygon fill="#FFFFFF" points="522.08,260.4831,527.7398,264.9516,534.0413,261.4458,528.3816,256.9774,522.08,260.4831" style="stroke: #A80036; stroke-width: 1.0;"/>
    <rect fill="none" height="6" style="stroke: #C82930; stroke-width: 1.0;" width="6" x="565" y="269.5195"/>
    <text fill="#000000" font-family="sans-serif" font-size="13" lengthAdjust="spacingAndGlyphs" textLength="121" x="575" y="276.52">template_params_</text>
    <path d="M434.94,184.1631 C436.62,204.7831 438.67,229.9931 440.13,247.9231 " fill="none" id="C_0000464715462505216589&lt;-C_0000178138562743079529" style="stroke: #A80036; stroke-width: 1.0;"/>
    <polygon fill="#FFFFFF" points="433.88,171.0931,430.3812,177.3985,434.8558,183.0534,438.3547,176.748,433.88,171.0931" style="stroke: #A80036; stroke-width: 1.0;"/>
    <rect fill="none" height="6" style="stroke: #C82930; stroke-width: 1.0;" width="6" x="440" y="207.0195"/>
    <text fill="#000000" font-family="sans-serif" font-size="13" lengthAdjust="spacingAndGlyphs" textLength="72" x="450" y="214.02">templates_</text>
    <path d="M511.05,174.8831 C575.19,196.7431 664.63,227.2131 725.46,247.9431 " fill="none" id="C_0000464715462505216589&lt;-C_0001673103894976412298" style="stroke: #A80036; stroke-width: 1.0;"/>
    <polygon fill="none" points="508.69,181.4831,492.02,168.4031,513.21,168.2231,508.69,181.4831" style="stroke: #A80036; stroke-width: 1.0;"/>
    <path d="M390.96,185.5031 C374.27,202.9331 356.29,224.8931 345,247.9531 C286.42,367.5631 366.44,435.0531 287,541.9531 C276.63,555.9131 261.48,566.5531 246.09,574.5031 " fill="none" id="C_0000464715462505216589&lt;-C_0000204145716468348671" style="stroke: #A80036; stroke-width: 1.0;"/>
    <polygon fill="none" points="386.27,180.2931,405.39,171.1531,396.15,190.2131,386.27,180.2931" style="stroke: #A80036; stroke-width: 1.0;"/>
    <path d="M209.92,507.9231 C208.23,513.6131 206.54,519.4331 205,524.9531 C200.64,540.5431 196.11,558.1931 192.68,571.8731 " fill="none" id="C_0001292034357466653182&lt;-C_0000204145716468348671" style="stroke: #A80036; stroke-width: 1.0;"/>
    <polygon fill="#FFFFFF" points="213.78,495.1131,208.2178,499.7025,210.3149,506.602,215.8771,502.0126,213.78,495.1131" style="stroke: #A80036; stroke-width: 1.0;"/>
    <rect fill="none" height="6" style="stroke: #C82930; stroke-width: 1.0;" width="6" x="208" y="531.0195"/>
    <text fill="#000000" font-family="sans-serif" font-size="13" lengthAdjust="spacingAndGlyphs" textLength="64" x="218" y="538.02">methods_</text>
    <path d="M753.76,309.6731 C738.8,322.0631 720.99,334.9931 703,343.9531 C546.97,421.6031 337.95,455.0831 256.02,465.8131 " fill="none" id="C_0001673103894976412298&lt;-C_0001292034357466653182" style="stroke: #A80036; stroke-width: 1.0;"/>
    <polygon fill="none" points="749.62,304.0031,769.31,296.1631,758.8,314.5631,749.62,304.0031" style="stroke: #A80036; stroke-width: 1.0;"/>
    <path d="M352.56,166.3831 C328.68,174.4131 303.42,185.6031 283,200.9531 C193.63,268.1431 135.87,394.5331 114.87,446.6131 " fill="none" id="C_0000464715462505216589&lt;-C_0001374849051752224500" style="stroke: #A80036; stroke-width: 1.0;"/>
    <polygon fill="none" points="350.55,159.6731,371.73,160.4731,354.67,173.0531,350.55,159.6731" style="stroke: #A80036; stroke-width: 1.0;"/>
    <path d="M793,316.5531 C793,356.8031 793,415.0231 793,446.9131 " fill="none" id="C_0001673103894976412298&lt;-C_0001400215772842495226" style="stroke: #A80036; stroke-width: 1.0;"/>
    <polygon fill="none" points="786,316.3231,793,296.3231,800,316.3231,786,316.3231" style="stroke: #A80036; stroke-width: 1.0;"/>
    <path d="M778.23,514.2031 C771.47,533.5431 763.72,555.7131 758.05,571.9231 " fill="none" id="C_0001400215772842495226&lt;-C_0000885514871619471610" style="stroke: #A80036; stroke-width: 1.0;"/>
    <polygon fill="none" points="771.7,511.6531,784.91,495.0931,784.92,516.2831,771.7,511.6531" style="stroke: #A80036; stroke-width: 1.0;"/>
    <path d="M815.84,512.6731 C826.89,532.3631 839.75,555.2831 849.08,571.9231 " fill="none" id="C_0001400215772842495226&lt;-C_0000232638456031681828" style="stroke: #A80036; stroke-width: 1.0;"/>
    <polygon fill="none" points="809.66,515.9531,805.98,495.0931,821.87,509.1031,809.66,515.9531" style="stroke: #A80036; stroke-width: 1.0;"/>
    <path d="M830.61,635.6831 C821.82,646.2731 812.16,657.6631 803,667.9531 C791.35,681.0531 777.9,695.2531 766.79,706.7531 " fill="none" id="C_0000232638456031681828&lt;-C_0000817665972547784504" style="stroke: #A80036; stroke-width: 1.0;"/>
    <polygon fill="none" points="825.41,630.9931,843.52,619.9831,836.22,639.8831,825.41,630.9931" style="stroke: #A80036; stroke-width: 1.0;"/>
    <path d="M871.66,639.7631 C876.66,661.9431 882.57,688.1631 886.73,706.6031 " fill="none" id="C_0000232638456031681828&lt;-C_0002280191967493310558" style="stroke: #A80036; stroke-width: 1.0;"/>
    <polygon fill="none" points="864.8,641.1731,867.23,620.1231,878.45,638.0931,864.8,641.1731" style="stroke: #A80036; stroke-width: 1.0;"/>
  </g>
</svg>
