<svg xmlns="http://www.w3.org/2000/svg" xmlns:xlink="http://www.w3.org/1999/xlink" contentStyleType="text/css" data-diagram-type="CLASS" height="819px" preserveAspectRatio="none" style="width:850px;height:819px;background:#FFFFFF;" version="1.1" viewBox="0 0 850 819" width="850px" zoomAndPan="magnify">
  <title>Template trait diagram element model class hierarchy</title>
  <defs>
    <style type="text/css">a:hover { text-decoration: underline; }</style>
  </defs>
  <g>
    <text fill="#000000" font-family="sans-serif" font-size="14" font-weight="bold" lengthAdjust="spacing" textLength="381.1906" x="227.5347" y="24.9659">Template trait diagram element model class hierarchy</text>
    <g id="cluster_C_0002532840279361781187">
      <path d="M196.5,46.6699 L258.7218,46.6699 A3.75,3.75 0 0 1 261.2218,49.1699 L268.2218,71.7378 L778.5,71.7378 A2.5,2.5 0 0 1 781,74.2378 L781,343.1699 A2.5,2.5 0 0 1 778.5,345.6699 L196.5,345.6699 A2.5,2.5 0 0 1 194,343.1699 L194,49.1699 A2.5,2.5 0 0 1 196.5,46.6699 " fill="transparent" style="stroke:#000000;stroke-width:1.5;"/>
      <line style="stroke:#000000;stroke-width:1.5;" x1="194" x2="268.2218" y1="71.7378" y2="71.7378"/>
      <text fill="#000000" font-family="sans-serif" font-size="14" font-weight="bold" lengthAdjust="spacing" textLength="61.2218" x="198" y="63.6358">common</text>
    </g>
    <g id="cluster_C_0000669774451444102653">
      <path d="M220.5,92.6699 L265.3198,92.6699 A3.75,3.75 0 0 1 267.8198,95.1699 L274.8198,117.7378 L754.5,117.7378 A2.5,2.5 0 0 1 757,120.2378 L757,319.1699 A2.5,2.5 0 0 1 754.5,321.6699 L220.5,321.6699 A2.5,2.5 0 0 1 218,319.1699 L218,95.1699 A2.5,2.5 0 0 1 220.5,92.6699 " fill="transparent" style="stroke:#000000;stroke-width:1.5;"/>
      <line style="stroke:#000000;stroke-width:1.5;" x1="218" x2="274.8198" y1="117.7378" y2="117.7378"/>
      <text fill="#000000" font-family="sans-serif" font-size="14" font-weight="bold" lengthAdjust="spacing" textLength="43.8198" x="222" y="109.6358">model</text>
    </g>
    <g id="cluster_C_0017921336289613804855">
      <path d="M536.5,378.6699 L636.1016,378.6699 A3.75,3.75 0 0 1 638.6016,381.1699 L645.6016,403.7378 L806.5,403.7378 A2.5,2.5 0 0 1 809,406.2378 L809,675.1699 A2.5,2.5 0 0 1 806.5,677.6699 L536.5,677.6699 A2.5,2.5 0 0 1 534,675.1699 L534,381.1699 A2.5,2.5 0 0 1 536.5,378.6699 " fill="transparent" style="stroke:#000000;stroke-width:1.5;"/>
      <line style="stroke:#000000;stroke-width:1.5;" x1="534" x2="645.6016" y1="403.7378" y2="403.7378"/>
      <text fill="#000000" font-family="sans-serif" font-size="14" font-weight="bold" lengthAdjust="spacing" textLength="98.6016" x="538" y="395.6358">class_diagram</text>
    </g>
    <g id="cluster_C_0007176993879715460962">
      <path d="M560.5,424.6699 L605.3198,424.6699 A3.75,3.75 0 0 1 607.8198,427.1699 L614.8198,449.7378 L782.5,449.7378 A2.5,2.5 0 0 1 785,452.2378 L785,651.1699 A2.5,2.5 0 0 1 782.5,653.6699 L560.5,653.6699 A2.5,2.5 0 0 1 558,651.1699 L558,427.1699 A2.5,2.5 0 0 1 560.5,424.6699 " fill="transparent" style="stroke:#000000;stroke-width:1.5;"/>
      <line style="stroke:#000000;stroke-width:1.5;" x1="558" x2="614.8198" y1="449.7378" y2="449.7378"/>
      <text fill="#000000" font-family="sans-serif" font-size="14" font-weight="bold" lengthAdjust="spacing" textLength="43.8198" x="562" y="441.6358">model</text>
    </g>
    <g id="cluster_C_0012174902727661033893">
      <path d="M8.5,378.6699 L140.4975,378.6699 A3.75,3.75 0 0 1 142.9975,381.1699 L149.9975,403.7378 L507.5,403.7378 A2.5,2.5 0 0 1 510,406.2378 L510,810.1699 A2.5,2.5 0 0 1 507.5,812.6699 L8.5,812.6699 A2.5,2.5 0 0 1 6,810.1699 L6,381.1699 A2.5,2.5 0 0 1 8.5,378.6699 " fill="transparent" style="stroke:#000000;stroke-width:1.5;"/>
      <line style="stroke:#000000;stroke-width:1.5;" x1="6" x2="149.9975" y1="403.7378" y2="403.7378"/>
      <text fill="#000000" font-family="sans-serif" font-size="14" font-weight="bold" lengthAdjust="spacing" textLength="130.9975" x="10" y="395.6358">sequence_diagram</text>
    </g>
    <g id="cluster_C_0017655759046645114118">
      <path d="M32.5,424.6699 L77.3198,424.6699 A3.75,3.75 0 0 1 79.8198,427.1699 L86.8198,449.7378 L483.5,449.7378 A2.5,2.5 0 0 1 486,452.2378 L486,786.1699 A2.5,2.5 0 0 1 483.5,788.6699 L32.5,788.6699 A2.5,2.5 0 0 1 30,786.1699 L30,427.1699 A2.5,2.5 0 0 1 32.5,424.6699 " fill="transparent" style="stroke:#000000;stroke-width:1.5;"/>
      <line style="stroke:#000000;stroke-width:1.5;" x1="30" x2="86.8198" y1="449.7378" y2="449.7378"/>
      <text fill="#000000" font-family="sans-serif" font-size="14" font-weight="bold" lengthAdjust="spacing" textLength="43.8198" x="34" y="441.6358">model</text>
    </g>
    <a href="classclanguml_1_1common_1_1model_1_1template__parameter.html" target="_top" title="Represents template parameter, template arguments or concept         constraints" xlink:actuate="onRequest" xlink:href="classclanguml_1_1common_1_1model_1_1template__parameter.html" xlink:show="new" xlink:title="Represents template parameter, template arguments or concept         constraints" xlink:type="simple">
      <g id="elem_C_0001425108501944636238">
        <rect codeLine="5" fill="#F1F1F1" height="48" id="C_0001425108501944636238" rx="2.5" ry="2.5" style="stroke:#181818;stroke-width:0.5;" width="167.0995" x="233.5" y="257.6699"/>
        <ellipse cx="248.5" cy="273.6699" fill="#ADD1B2" rx="11" ry="11" style="stroke:#181818;stroke-width:1;"/>
        <path d="M251.4688,279.3105 Q250.8906,279.6074 250.25,279.748 Q249.6094,279.9043 248.9063,279.9043 Q246.4063,279.9043 245.0781,278.2636 Q243.7656,276.6074 243.7656,273.4824 Q243.7656,270.3574 245.0781,268.7011 Q246.4063,267.0449 248.9063,267.0449 Q249.6094,267.0449 250.25,267.2011 Q250.9063,267.3574 251.4688,267.6543 L251.4688,270.373 Q250.8438,269.7949 250.25,269.5293 Q249.6563,269.248 249.0313,269.248 Q247.6875,269.248 247,270.3261 Q246.3125,271.3886 246.3125,273.4824 Q246.3125,275.5761 247,276.6543 Q247.6875,277.7168 249.0313,277.7168 Q249.6563,277.7168 250.25,277.4511 Q250.8438,277.1699 251.4688,276.5918 L251.4688,279.3105 Z " fill="#000000"/>
        <text fill="#000000" font-family="sans-serif" font-size="14" lengthAdjust="spacing" textLength="135.0995" x="262.5" y="279.1019">template_parameter</text>
        <line style="stroke:#181818;stroke-width:0.5;" x1="234.5" x2="399.5995" y1="289.6699" y2="289.6699"/>
        <line style="stroke:#181818;stroke-width:0.5;" x1="234.5" x2="399.5995" y1="297.6699" y2="297.6699"/>
      </g>
    </a>
    <a href="classclanguml_1_1common_1_1model_1_1template__trait.html" target="_top" title="Common interface for template diagram elements." xlink:actuate="onRequest" xlink:href="classclanguml_1_1common_1_1model_1_1template__trait.html" xlink:show="new" xlink:title="Common interface for template diagram elements." xlink:type="simple">
      <g id="elem_C_0003717723700041732716">
        <rect codeLine="9" fill="#F1F1F1" height="48" id="C_0003717723700041732716" rx="2.5" ry="2.5" style="stroke:#181818;stroke-width:0.5;" width="124.6377" x="602.5" y="130.6699"/>
        <ellipse cx="617.5" cy="146.6699" fill="#ADD1B2" rx="11" ry="11" style="stroke:#181818;stroke-width:1;"/>
        <path d="M620.4688,152.3105 Q619.8906,152.6074 619.25,152.748 Q618.6094,152.9043 617.9063,152.9043 Q615.4063,152.9043 614.0781,151.2636 Q612.7656,149.6074 612.7656,146.4824 Q612.7656,143.3574 614.0781,141.7011 Q615.4063,140.0449 617.9063,140.0449 Q618.6094,140.0449 619.25,140.2011 Q619.9063,140.3574 620.4688,140.6543 L620.4688,143.373 Q619.8438,142.7949 619.25,142.5293 Q618.6563,142.248 618.0313,142.248 Q616.6875,142.248 616,143.3261 Q615.3125,144.3886 615.3125,146.4824 Q615.3125,148.5761 616,149.6543 Q616.6875,150.7168 618.0313,150.7168 Q618.6563,150.7168 619.25,150.4511 Q619.8438,150.1699 620.4688,149.5918 L620.4688,152.3105 Z " fill="#000000"/>
        <text fill="#000000" font-family="sans-serif" font-size="14" lengthAdjust="spacing" textLength="92.6377" x="631.5" y="152.1019">template_trait</text>
        <line style="stroke:#181818;stroke-width:0.5;" x1="603.5" x2="726.1377" y1="162.6699" y2="162.6699"/>
        <line style="stroke:#181818;stroke-width:0.5;" x1="603.5" x2="726.1377" y1="170.6699" y2="170.6699"/>
      </g>
    </a>
    <a href="classclanguml_1_1common_1_1model_1_1template__element.html" target="_top" title="Base class for any element qualified by namespace." xlink:actuate="onRequest" xlink:href="classclanguml_1_1common_1_1model_1_1template__element.html" xlink:show="new" xlink:title="Base class for any element qualified by namespace." xlink:type="simple">
      <g id="elem_C_0013384831159811298387">
        <rect codeLine="13" fill="#F1F1F1" height="48" id="C_0013384831159811298387" rx="2.5" ry="2.5" style="stroke:#181818;stroke-width:0.5;" width="151.3775" x="589.5" y="257.6699"/>
        <ellipse cx="604.5" cy="273.6699" fill="#ADD1B2" rx="11" ry="11" style="stroke:#181818;stroke-width:1;"/>
        <path d="M607.4688,279.3105 Q606.8906,279.6074 606.25,279.748 Q605.6094,279.9043 604.9063,279.9043 Q602.4063,279.9043 601.0781,278.2636 Q599.7656,276.6074 599.7656,273.4824 Q599.7656,270.3574 601.0781,268.7011 Q602.4063,267.0449 604.9063,267.0449 Q605.6094,267.0449 606.25,267.2011 Q606.9063,267.3574 607.4688,267.6543 L607.4688,270.373 Q606.8438,269.7949 606.25,269.5293 Q605.6563,269.248 605.0313,269.248 Q603.6875,269.248 603,270.3261 Q602.3125,271.3886 602.3125,273.4824 Q602.3125,275.5761 603,276.6543 Q603.6875,277.7168 605.0313,277.7168 Q605.6563,277.7168 606.25,277.4511 Q606.8438,277.1699 607.4688,276.5918 L607.4688,279.3105 Z " fill="#000000"/>
        <text fill="#000000" font-family="sans-serif" font-size="14" lengthAdjust="spacing" textLength="119.3775" x="618.5" y="279.1019">template_element</text>
        <line style="stroke:#181818;stroke-width:0.5;" x1="590.5" x2="739.8775" y1="289.6699" y2="289.6699"/>
        <line style="stroke:#181818;stroke-width:0.5;" x1="590.5" x2="739.8775" y1="297.6699" y2="297.6699"/>
      </g>
    </a>
    <a href="classclanguml_1_1class__diagram_1_1model_1_1class__method.html" target="_top" title="Class method model." xlink:actuate="onRequest" xlink:href="classclanguml_1_1class__diagram_1_1model_1_1class__method.html" xlink:show="new" xlink:title="Class method model." xlink:type="simple">
      <g id="elem_C_0001633165731746789371">
        <rect codeLine="21" fill="#F1F1F1" height="48" id="C_0001633165731746789371" rx="2.5" ry="2.5" style="stroke:#181818;stroke-width:0.5;" width="121.5857" x="640" y="589.6699"/>
        <ellipse cx="655" cy="605.6699" fill="#ADD1B2" rx="11" ry="11" style="stroke:#181818;stroke-width:1;"/>
        <path d="M657.9688,611.3105 Q657.3906,611.6074 656.75,611.748 Q656.1094,611.9043 655.4063,611.9043 Q652.9063,611.9043 651.5781,610.2636 Q650.2656,608.6074 650.2656,605.4824 Q650.2656,602.3574 651.5781,600.7011 Q652.9063,599.0449 655.4063,599.0449 Q656.1094,599.0449 656.75,599.2011 Q657.4063,599.3574 657.9688,599.6543 L657.9688,602.373 Q657.3438,601.7949 656.75,601.5293 Q656.1563,601.248 655.5313,601.248 Q654.1875,601.248 653.5,602.3261 Q652.8125,603.3886 652.8125,605.4824 Q652.8125,607.5761 653.5,608.6543 Q654.1875,609.7168 655.5313,609.7168 Q656.1563,609.7168 656.75,609.4511 Q657.3438,609.1699 657.9688,608.5918 L657.9688,611.3105 Z " fill="#000000"/>
        <text fill="#000000" font-family="sans-serif" font-size="14" lengthAdjust="spacing" textLength="89.5857" x="669" y="611.1019">class_method</text>
        <line style="stroke:#181818;stroke-width:0.5;" x1="641" x2="760.5857" y1="621.6699" y2="621.6699"/>
        <line style="stroke:#181818;stroke-width:0.5;" x1="641" x2="760.5857" y1="629.6699" y2="629.6699"/>
      </g>
    </a>
    <a href="classclanguml_1_1class__diagram_1_1model_1_1class__.html" target="_top" title="Diagram element representing a class or class template." xlink:actuate="onRequest" xlink:href="classclanguml_1_1class__diagram_1_1model_1_1class__.html" xlink:show="new" xlink:title="Diagram element representing a class or class template." xlink:type="simple">
      <g id="elem_C_0010336274859733225462">
        <rect codeLine="25" fill="#F1F1F1" height="48" id="C_0010336274859733225462" rx="2.5" ry="2.5" style="stroke:#181818;stroke-width:0.5;" width="69.8139" x="699" y="462.6699"/>
        <ellipse cx="714" cy="478.6699" fill="#ADD1B2" rx="11" ry="11" style="stroke:#181818;stroke-width:1;"/>
        <path d="M716.9688,484.3105 Q716.3906,484.6074 715.75,484.748 Q715.1094,484.9043 714.4063,484.9043 Q711.9063,484.9043 710.5781,483.2636 Q709.2656,481.6074 709.2656,478.4824 Q709.2656,475.3574 710.5781,473.7011 Q711.9063,472.0449 714.4063,472.0449 Q715.1094,472.0449 715.75,472.2011 Q716.4063,472.3574 716.9688,472.6543 L716.9688,475.373 Q716.3438,474.7949 715.75,474.5293 Q715.1563,474.248 714.5313,474.248 Q713.1875,474.248 712.5,475.3261 Q711.8125,476.3886 711.8125,478.4824 Q711.8125,480.5761 712.5,481.6543 Q713.1875,482.7168 714.5313,482.7168 Q715.1563,482.7168 715.75,482.4511 Q716.3438,482.1699 716.9688,481.5918 L716.9688,484.3105 Z " fill="#000000"/>
        <text fill="#000000" font-family="sans-serif" font-size="14" lengthAdjust="spacing" textLength="37.8139" x="728" y="484.1019">class_</text>
        <line style="stroke:#181818;stroke-width:0.5;" x1="700" x2="767.8139" y1="494.6699" y2="494.6699"/>
        <line style="stroke:#181818;stroke-width:0.5;" x1="700" x2="767.8139" y1="502.6699" y2="502.6699"/>
      </g>
    </a>
    <a href="classclanguml_1_1class__diagram_1_1model_1_1concept__.html" target="_top" title="Model of C++ concept." xlink:actuate="onRequest" xlink:href="classclanguml_1_1class__diagram_1_1model_1_1concept__.html" xlink:show="new" xlink:title="Model of C++ concept." xlink:type="simple">
      <g id="elem_C_0010998792414017796003">
        <rect codeLine="29" fill="#F1F1F1" height="48" id="C_0010998792414017796003" rx="2.5" ry="2.5" style="stroke:#181818;stroke-width:0.5;" width="90.3378" x="574" y="462.6699"/>
        <ellipse cx="589" cy="478.6699" fill="#ADD1B2" rx="11" ry="11" style="stroke:#181818;stroke-width:1;"/>
        <path d="M591.9688,484.3105 Q591.3906,484.6074 590.75,484.748 Q590.1094,484.9043 589.4063,484.9043 Q586.9063,484.9043 585.5781,483.2636 Q584.2656,481.6074 584.2656,478.4824 Q584.2656,475.3574 585.5781,473.7011 Q586.9063,472.0449 589.4063,472.0449 Q590.1094,472.0449 590.75,472.2011 Q591.4063,472.3574 591.9688,472.6543 L591.9688,475.373 Q591.3438,474.7949 590.75,474.5293 Q590.1563,474.248 589.5313,474.248 Q588.1875,474.248 587.5,475.3261 Q586.8125,476.3886 586.8125,478.4824 Q586.8125,480.5761 587.5,481.6543 Q588.1875,482.7168 589.5313,482.7168 Q590.1563,482.7168 590.75,482.4511 Q591.3438,482.1699 591.9688,481.5918 L591.9688,484.3105 Z " fill="#000000"/>
        <text fill="#000000" font-family="sans-serif" font-size="14" lengthAdjust="spacing" textLength="58.3378" x="603" y="484.1019">concept_</text>
        <line style="stroke:#181818;stroke-width:0.5;" x1="575" x2="663.3378" y1="494.6699" y2="494.6699"/>
        <line style="stroke:#181818;stroke-width:0.5;" x1="575" x2="663.3378" y1="502.6699" y2="502.6699"/>
      </g>
    </a>
    <a href="structclanguml_1_1sequence__diagram_1_1model_1_1participant.html" target="_top" title="Base class for various types of sequence diagram participants" xlink:actuate="onRequest" xlink:href="structclanguml_1_1sequence__diagram_1_1model_1_1participant.html" xlink:show="new" xlink:title="Base class for various types of sequence diagram participants" xlink:type="simple">
      <g id="elem_C_0011201726182739961811">
        <rect codeLine="37" fill="#F1F1F1" height="48" id="C_0011201726182739961811" rx="2.5" ry="2.5" style="stroke:#181818;stroke-width:0.5;" width="103.4137" x="257.5" y="462.6699"/>
        <ellipse cx="272.5" cy="478.6699" fill="#ADD1B2" rx="11" ry="11" style="stroke:#181818;stroke-width:1;"/>
        <path d="M275.4688,484.3105 Q274.8906,484.6074 274.25,484.748 Q273.6094,484.9043 272.9063,484.9043 Q270.4063,484.9043 269.0781,483.2636 Q267.7656,481.6074 267.7656,478.4824 Q267.7656,475.3574 269.0781,473.7011 Q270.4063,472.0449 272.9063,472.0449 Q273.6094,472.0449 274.25,472.2011 Q274.9063,472.3574 275.4688,472.6543 L275.4688,475.373 Q274.8438,474.7949 274.25,474.5293 Q273.6563,474.248 273.0313,474.248 Q271.6875,474.248 271,475.3261 Q270.3125,476.3886 270.3125,478.4824 Q270.3125,480.5761 271,481.6543 Q271.6875,482.7168 273.0313,482.7168 Q273.6563,482.7168 274.25,482.4511 Q274.8438,482.1699 275.4688,481.5918 L275.4688,484.3105 Z " fill="#000000"/>
        <text fill="#000000" font-family="sans-serif" font-size="14" lengthAdjust="spacing" textLength="71.4137" x="286.5" y="484.1019">participant</text>
        <line style="stroke:#181818;stroke-width:0.5;" x1="258.5" x2="359.9137" y1="494.6699" y2="494.6699"/>
        <line style="stroke:#181818;stroke-width:0.5;" x1="258.5" x2="359.9137" y1="502.6699" y2="502.6699"/>
      </g>
    </a>
    <a href="structclanguml_1_1sequence__diagram_1_1model_1_1class__.html" target="_top" title="Sequence diagram participant representing a class." xlink:actuate="onRequest" xlink:href="structclanguml_1_1sequence__diagram_1_1model_1_1class__.html" xlink:show="new" xlink:title="Sequence diagram participant representing a class." xlink:type="simple">
      <g id="elem_C_0007084118972955772881">
        <rect codeLine="41" fill="#F1F1F1" height="48" id="C_0007084118972955772881" rx="2.5" ry="2.5" style="stroke:#181818;stroke-width:0.5;" width="69.8139" x="160" y="589.6699"/>
        <ellipse cx="175" cy="605.6699" fill="#ADD1B2" rx="11" ry="11" style="stroke:#181818;stroke-width:1;"/>
        <path d="M177.9688,611.3105 Q177.3906,611.6074 176.75,611.748 Q176.1094,611.9043 175.4063,611.9043 Q172.9063,611.9043 171.5781,610.2636 Q170.2656,608.6074 170.2656,605.4824 Q170.2656,602.3574 171.5781,600.7011 Q172.9063,599.0449 175.4063,599.0449 Q176.1094,599.0449 176.75,599.2011 Q177.4063,599.3574 177.9688,599.6543 L177.9688,602.373 Q177.3438,601.7949 176.75,601.5293 Q176.1563,601.248 175.5313,601.248 Q174.1875,601.248 173.5,602.3261 Q172.8125,603.3886 172.8125,605.4824 Q172.8125,607.5761 173.5,608.6543 Q174.1875,609.7168 175.5313,609.7168 Q176.1563,609.7168 176.75,609.4511 Q177.3438,609.1699 177.9688,608.5918 L177.9688,611.3105 Z " fill="#000000"/>
        <text fill="#000000" font-family="sans-serif" font-size="14" lengthAdjust="spacing" textLength="37.8139" x="189" y="611.1019">class_</text>
        <line style="stroke:#181818;stroke-width:0.5;" x1="161" x2="228.8139" y1="621.6699" y2="621.6699"/>
        <line style="stroke:#181818;stroke-width:0.5;" x1="161" x2="228.8139" y1="629.6699" y2="629.6699"/>
      </g>
    </a>
    <a href="structclanguml_1_1sequence__diagram_1_1model_1_1function.html" target="_top" title="Participant mode representing a free function." xlink:actuate="onRequest" xlink:href="structclanguml_1_1sequence__diagram_1_1model_1_1function.html" xlink:show="new" xlink:title="Participant mode representing a free function." xlink:type="simple">
      <g id="elem_C_0001861107648253454629">
        <rect codeLine="45" fill="#F1F1F1" height="48" id="C_0001861107648253454629" rx="2.5" ry="2.5" style="stroke:#181818;stroke-width:0.5;" width="86.6278" x="265.5" y="589.6699"/>
        <ellipse cx="280.5" cy="605.6699" fill="#ADD1B2" rx="11" ry="11" style="stroke:#181818;stroke-width:1;"/>
        <path d="M283.4688,611.3105 Q282.8906,611.6074 282.25,611.748 Q281.6094,611.9043 280.9063,611.9043 Q278.4063,611.9043 277.0781,610.2636 Q275.7656,608.6074 275.7656,605.4824 Q275.7656,602.3574 277.0781,600.7011 Q278.4063,599.0449 280.9063,599.0449 Q281.6094,599.0449 282.25,599.2011 Q282.9063,599.3574 283.4688,599.6543 L283.4688,602.373 Q282.8438,601.7949 282.25,601.5293 Q281.6563,601.248 281.0313,601.248 Q279.6875,601.248 279,602.3261 Q278.3125,603.3886 278.3125,605.4824 Q278.3125,607.5761 279,608.6543 Q279.6875,609.7168 281.0313,609.7168 Q281.6563,609.7168 282.25,609.4511 Q282.8438,609.1699 283.4688,608.5918 L283.4688,611.3105 Z " fill="#000000"/>
        <text fill="#000000" font-family="sans-serif" font-size="14" lengthAdjust="spacing" textLength="54.6278" x="294.5" y="611.1019">function</text>
        <line style="stroke:#181818;stroke-width:0.5;" x1="266.5" x2="351.1278" y1="621.6699" y2="621.6699"/>
        <line style="stroke:#181818;stroke-width:0.5;" x1="266.5" x2="351.1278" y1="629.6699" y2="629.6699"/>
      </g>
    </a>
    <a href="structclanguml_1_1sequence__diagram_1_1model_1_1method.html" target="_top" title="Participant model representing a method" xlink:actuate="onRequest" xlink:href="structclanguml_1_1sequence__diagram_1_1model_1_1method.html" xlink:show="new" xlink:title="Participant model representing a method" xlink:type="simple">
      <g id="elem_C_0006541327780382276039">
        <rect codeLine="49" fill="#F1F1F1" height="48" id="C_0006541327780382276039" rx="2.5" ry="2.5" style="stroke:#181818;stroke-width:0.5;" width="83.7718" x="46" y="724.6699"/>
        <ellipse cx="61" cy="740.6699" fill="#ADD1B2" rx="11" ry="11" style="stroke:#181818;stroke-width:1;"/>
        <path d="M63.9688,746.3105 Q63.3906,746.6074 62.75,746.748 Q62.1094,746.9043 61.4063,746.9043 Q58.9063,746.9043 57.5781,745.2636 Q56.2656,743.6074 56.2656,740.4824 Q56.2656,737.3574 57.5781,735.7011 Q58.9063,734.0449 61.4063,734.0449 Q62.1094,734.0449 62.75,734.2011 Q63.4063,734.3574 63.9688,734.6543 L63.9688,737.373 Q63.3438,736.7949 62.75,736.5293 Q62.1563,736.248 61.5313,736.248 Q60.1875,736.248 59.5,737.3261 Q58.8125,738.3886 58.8125,740.4824 Q58.8125,742.5761 59.5,743.6543 Q60.1875,744.7168 61.5313,744.7168 Q62.1563,744.7168 62.75,744.4511 Q63.3438,744.1699 63.9688,743.5918 L63.9688,746.3105 Z " fill="#000000"/>
        <text fill="#000000" font-family="sans-serif" font-size="14" lengthAdjust="spacing" textLength="51.7718" x="75" y="746.1019">method</text>
        <line style="stroke:#181818;stroke-width:0.5;" x1="47" x2="128.7718" y1="756.6699" y2="756.6699"/>
        <line style="stroke:#181818;stroke-width:0.5;" x1="47" x2="128.7718" y1="764.6699" y2="764.6699"/>
      </g>
    </a>
    <a href="structclanguml_1_1sequence__diagram_1_1model_1_1objc__method.html" target="_top" title="objc_method" xlink:actuate="onRequest" xlink:href="structclanguml_1_1sequence__diagram_1_1model_1_1objc__method.html" xlink:show="new" xlink:title="objc_method" xlink:type="simple">
      <g id="elem_C_0013742559556936917396">
        <rect codeLine="53" fill="#F1F1F1" height="48" id="C_0013742559556936917396" rx="2.5" ry="2.5" style="stroke:#181818;stroke-width:0.5;" width="117.3997" x="165.5" y="724.6699"/>
        <ellipse cx="180.5" cy="740.6699" fill="#ADD1B2" rx="11" ry="11" style="stroke:#181818;stroke-width:1;"/>
        <path d="M183.4688,746.3105 Q182.8906,746.6074 182.25,746.748 Q181.6094,746.9043 180.9063,746.9043 Q178.4063,746.9043 177.0781,745.2636 Q175.7656,743.6074 175.7656,740.4824 Q175.7656,737.3574 177.0781,735.7011 Q178.4063,734.0449 180.9063,734.0449 Q181.6094,734.0449 182.25,734.2011 Q182.9063,734.3574 183.4688,734.6543 L183.4688,737.373 Q182.8438,736.7949 182.25,736.5293 Q181.6563,736.248 181.0313,736.248 Q179.6875,736.248 179,737.3261 Q178.3125,738.3886 178.3125,740.4824 Q178.3125,742.5761 179,743.6543 Q179.6875,744.7168 181.0313,744.7168 Q181.6563,744.7168 182.25,744.4511 Q182.8438,744.1699 183.4688,743.5918 L183.4688,746.3105 Z " fill="#000000"/>
        <text fill="#000000" font-family="sans-serif" font-size="14" lengthAdjust="spacing" textLength="85.3997" x="194.5" y="746.1019">objc_method</text>
        <line style="stroke:#181818;stroke-width:0.5;" x1="166.5" x2="281.8997" y1="756.6699" y2="756.6699"/>
        <line style="stroke:#181818;stroke-width:0.5;" x1="166.5" x2="281.8997" y1="764.6699" y2="764.6699"/>
      </g>
    </a>
    <a href="structclanguml_1_1sequence__diagram_1_1model_1_1function__template.html" target="_top" title="Participant model representing a function template." xlink:actuate="onRequest" xlink:href="structclanguml_1_1sequence__diagram_1_1model_1_1function__template.html" xlink:show="new" xlink:title="Participant model representing a function template." xlink:type="simple">
      <g id="elem_C_0018241535739946484465">
        <rect codeLine="57" fill="#F1F1F1" height="48" id="C_0018241535739946484465" rx="2.5" ry="2.5" style="stroke:#181818;stroke-width:0.5;" width="151.9095" x="318" y="724.6699"/>
        <ellipse cx="333" cy="740.6699" fill="#ADD1B2" rx="11" ry="11" style="stroke:#181818;stroke-width:1;"/>
        <path d="M335.9688,746.3105 Q335.3906,746.6074 334.75,746.748 Q334.1094,746.9043 333.4063,746.9043 Q330.9063,746.9043 329.5781,745.2636 Q328.2656,743.6074 328.2656,740.4824 Q328.2656,737.3574 329.5781,735.7011 Q330.9063,734.0449 333.4063,734.0449 Q334.1094,734.0449 334.75,734.2011 Q335.4063,734.3574 335.9688,734.6543 L335.9688,737.373 Q335.3438,736.7949 334.75,736.5293 Q334.1563,736.248 333.5313,736.248 Q332.1875,736.248 331.5,737.3261 Q330.8125,738.3886 330.8125,740.4824 Q330.8125,742.5761 331.5,743.6543 Q332.1875,744.7168 333.5313,744.7168 Q334.1563,744.7168 334.75,744.4511 Q335.3438,744.1699 335.9688,743.5918 L335.9688,746.3105 Z " fill="#000000"/>
        <text fill="#000000" font-family="sans-serif" font-size="14" lengthAdjust="spacing" textLength="119.9095" x="347" y="746.1019">function_template</text>
        <line style="stroke:#181818;stroke-width:0.5;" x1="319" x2="468.9095" y1="756.6699" y2="756.6699"/>
        <line style="stroke:#181818;stroke-width:0.5;" x1="319" x2="468.9095" y1="764.6699" y2="764.6699"/>
      </g>
    </a>
    <a href="" target="_top" title="template_params_" xlink:actuate="onRequest" xlink:href="" xlink:show="new" xlink:title="template_params_" xlink:type="simple">
      <path codeLine="62" d="M412.5882,270.782 C432.6382,271.672 435.5,274.9499 435.5,281.6699 C435.5,288.3899 420.65,292.1999 400.6,293.0899 " fill="transparent" id="C_0001425108501944636238-backto-C_0001425108501944636238" style="stroke:#181818;stroke-width:1;"/>
      <polygon fill="transparent" points="400.6,270.2499,406.4167,274.512,412.5882,270.782,406.7715,266.5199,400.6,270.2499" style="stroke:#181818;stroke-width:1;"/>
      <rect fill="transparent" height="6" style="stroke:#C82930;stroke-width:1;" width="6" x="443.5" y="279.5229"/>
      <text fill="#000000" font-family="sans-serif" font-size="13" lengthAdjust="spacing" textLength="112.7231" x="453.5" y="287.0669">template_params_</text>
    </a>
    <a href="" target="_top" title="templates_" xlink:actuate="onRequest" xlink:href="" xlink:show="new" xlink:title="templates_" xlink:type="simple">
      <path codeLine="63" d="M591.0866,182.217 C528.5666,204.677 444.24,234.9699 381.18,257.6199 " fill="transparent" id="C_0003717723700041732716-backto-C_0001425108501944636238" style="stroke:#181818;stroke-width:1;"/>
      <polygon fill="transparent" points="602.38,178.1599,595.381,176.424,591.0866,182.217,598.0857,183.9529,602.38,178.1599" style="stroke:#181818;stroke-width:1;"/>
      <rect fill="transparent" height="6" style="stroke:#C82930;stroke-width:1;" width="6" x="514" y="216.0229"/>
      <text fill="#000000" font-family="sans-serif" font-size="13" lengthAdjust="spacing" textLength="66.8461" x="524" y="223.5669">templates_</text>
    </a>
    <g id="link_C_0003717723700041732716_C_0013384831159811298387">
      <path codeLine="64" d="M665,196.8899 C665,219.3399 665,235.1699 665,257.5799 " fill="transparent" id="C_0003717723700041732716-backto-C_0013384831159811298387" style="stroke:#181818;stroke-width:1;"/>
      <polygon fill="transparent" points="665,178.8899,659,196.8899,671,196.8899,665,178.8899" style="stroke:#181818;stroke-width:1;"/>
    </g>
    <g id="link_C_0003717723700041732716_C_0001633165731746789371">
      <path codeLine="65" d="M705.837,191.0731 C726.747,210.1831 741.37,226.8899 758,257.6699 C782.64,303.2899 778.55,319.5099 787,370.6699 C800.73,453.7399 843.26,487.4399 800,559.6699 C791.29,574.2199 777.06,584.9999 762.08,592.8999 " fill="transparent" id="C_0003717723700041732716-backto-C_0001633165731746789371" style="stroke:#181818;stroke-width:1;"/>
      <polygon fill="transparent" points="692.55,178.9299,701.7892,195.5021,709.8847,186.6441,692.55,178.9299" style="stroke:#181818;stroke-width:1;"/>
    </g>
    <a href="" target="_top" title="methods_" xlink:actuate="onRequest" xlink:href="" xlink:show="new" xlink:title="methods_" xlink:type="simple">
      <path codeLine="66" d="M724.8054,522.492 C718.8754,544.942 713.01,567.1699 707.1,589.5799 " fill="transparent" id="C_0010336274859733225462-backto-C_0001633165731746789371" style="stroke:#181818;stroke-width:1;"/>
      <polygon fill="transparent" points="727.87,510.8899,722.4703,515.6694,724.8054,522.492,730.2051,517.7125,727.87,510.8899" style="stroke:#181818;stroke-width:1;"/>
      <rect fill="transparent" height="6" style="stroke:#C82930;stroke-width:1;" width="6" x="722" y="548.0229"/>
      <text fill="#000000" font-family="sans-serif" font-size="13" lengthAdjust="spacing" textLength="60.0731" x="732" y="555.5669">methods_</text>
    </a>
    <g id="link_C_0013384831159811298387_C_0010336274859733225462">
      <path codeLine="67" d="M678.7139,323.0019 C692.0239,362.1519 712.93,423.6799 726.18,462.6499 " fill="transparent" id="C_0013384831159811298387-backto-C_0010336274859733225462" style="stroke:#181818;stroke-width:1;"/>
      <polygon fill="transparent" points="672.92,305.9599,673.0332,324.9332,684.3945,321.0707,672.92,305.9599" style="stroke:#181818;stroke-width:1;"/>
    </g>
    <g id="link_C_0013384831159811298387_C_0010998792414017796003">
      <path codeLine="68" d="M655.7426,323.515 C646.8726,362.665 633.05,423.6799 624.22,462.6499 " fill="transparent" id="C_0013384831159811298387-backto-C_0010998792414017796003" style="stroke:#181818;stroke-width:1;"/>
      <polygon fill="transparent" points="659.72,305.9599,649.891,322.1892,661.5943,324.8408,659.72,305.9599" style="stroke:#181818;stroke-width:1;"/>
    </g>
    <g id="link_C_0013384831159811298387_C_0011201726182739961811">
      <path codeLine="69" d="M623.515,317.1944 C605.505,331.8144 595.08,339.2399 572,353.6699 C501.82,397.5299 415.14,438.7399 360.95,463.0899 " fill="transparent" id="C_0013384831159811298387-backto-C_0011201726182739961811" style="stroke:#181818;stroke-width:1;"/>
      <polygon fill="transparent" points="637.49,305.8499,619.7335,312.5361,627.2965,321.8528,637.49,305.8499" style="stroke:#181818;stroke-width:1;"/>
    </g>
    <g id="link_C_0011201726182739961811_C_0007084118972955772881">
      <path codeLine="70" d="M275.6921,524.1908 C255.2221,546.6408 236.5,567.1699 216.06,589.5799 " fill="transparent" id="C_0011201726182739961811-backto-C_0007084118972955772881" style="stroke:#181818;stroke-width:1;"/>
      <polygon fill="transparent" points="287.82,510.8899,271.2585,520.1482,280.1258,528.2335,287.82,510.8899" style="stroke:#181818;stroke-width:1;"/>
    </g>
    <g id="link_C_0011201726182739961811_C_0001861107648253454629">
      <path codeLine="71" d="M309,528.8899 C309,551.3399 309,567.1699 309,589.5799 " fill="transparent" id="C_0011201726182739961811-backto-C_0001861107648253454629" style="stroke:#181818;stroke-width:1;"/>
      <polygon fill="transparent" points="309,510.8899,303,528.8899,315,528.8899,309,510.8899" style="stroke:#181818;stroke-width:1;"/>
    </g>
    <g id="link_C_0001861107648253454629_C_0006541327780382276039">
      <path codeLine="72" d="M283.1648,652.3358 C272.0348,667.6658 266.31,672.7199 248,685.6699 C246.71,686.5799 176.99,713.4699 130.02,731.5299 " fill="transparent" id="C_0001861107648253454629-backto-C_0006541327780382276039" style="stroke:#181818;stroke-width:1;"/>
      <polygon fill="transparent" points="293.74,637.7699,278.3095,648.8107,288.0201,655.8608,293.74,637.7699" style="stroke:#181818;stroke-width:1;"/>
    </g>
    <g id="link_C_0001861107648253454629_C_0013742559556936917396">
      <path codeLine="73" d="M284.4987,653.0083 C268.9987,677.2683 254.47,699.9899 238.92,724.3199 " fill="transparent" id="C_0001861107648253454629-backto-C_0013742559556936917396" style="stroke:#181818;stroke-width:1;"/>
      <polygon fill="transparent" points="294.19,637.8399,279.4426,649.7779,289.5549,656.2387,294.19,637.8399" style="stroke:#181818;stroke-width:1;"/>
    </g>
    <g id="link_C_0001861107648253454629_C_0018241535739946484465">
      <path codeLine="74" d="M333.5013,653.0083 C349.0013,677.2683 363.53,699.9899 379.08,724.3199 " fill="transparent" id="C_0001861107648253454629-backto-C_0018241535739946484465" style="stroke:#181818;stroke-width:1;"/>
      <polygon fill="transparent" points="323.81,637.8399,328.4451,656.2387,338.5574,649.7779,323.81,637.8399" style="stroke:#181818;stroke-width:1;"/>
    </g>
  </g>
</svg>
