<svg xmlns="http://www.w3.org/2000/svg" xmlns:xlink="http://www.w3.org/1999/xlink" contentStyleType="text/css" height="800px" preserveAspectRatio="none" style="width:1033px;height:800px;background:#FFFFFF;" version="1.1" viewBox="0 0 1033 800" width="1033px" zoomAndPan="magnify">
  <defs>
    <style type="text/css">a:hover { text-decoration: underline; }</style>
  </defs>
  <g>
    <text fill="#000000" font-family="sans-serif" font-size="14" font-weight="bold" lengthAdjust="spacing" textLength="430.2676" x="294.3662" y="22.9951">Template trait diagram element model class hierarchy</text>
    <g id="cluster_C_0002532840279361781187">
      <path d="M319.5,43.2969 L387.1777,43.2969 A3.75,3.75 0 0 1 389.6777,45.7969 L396.6777,65.5938 L927.5,65.5938 A2.5,2.5 0 0 1 930,68.0938 L930,331.7969 A2.5,2.5 0 0 1 927.5,334.2969 L319.5,334.2969 A2.5,2.5 0 0 1 317,331.7969 L317,45.7969 A2.5,2.5 0 0 1 319.5,43.2969 " fill="none" style="stroke:#000000;stroke-width:1.5;"/>
      <line style="stroke:#000000;stroke-width:1.5;" x1="317" x2="396.6777" y1="65.5938" y2="65.5938"/>
      <text fill="#000000" font-family="sans-serif" font-size="14" font-weight="bold" lengthAdjust="spacing" textLength="66.6777" x="321" y="58.292">common</text>
    </g>
    <g id="cluster_C_0000669774451444102653">
      <path d="M343.5,86.2969 L393.0215,86.2969 A3.75,3.75 0 0 1 395.5215,88.7969 L402.5215,108.5938 L903.5,108.5938 A2.5,2.5 0 0 1 906,111.0938 L906,307.7969 A2.5,2.5 0 0 1 903.5,310.2969 L343.5,310.2969 A2.5,2.5 0 0 1 341,307.7969 L341,88.7969 A2.5,2.5 0 0 1 343.5,86.2969 " fill="none" style="stroke:#000000;stroke-width:1.5;"/>
      <line style="stroke:#000000;stroke-width:1.5;" x1="341" x2="402.5215" y1="108.5938" y2="108.5938"/>
      <text fill="#000000" font-family="sans-serif" font-size="14" font-weight="bold" lengthAdjust="spacing" textLength="48.5215" x="345" y="101.292">model</text>
    </g>
    <g id="cluster_C_0017921336289613804855">
      <path d="M8.5,367.2969 L120.9395,367.2969 A3.75,3.75 0 0 1 123.4395,369.7969 L130.4395,389.5938 L288.5,389.5938 A2.5,2.5 0 0 1 291,392.0938 L291,655.7969 A2.5,2.5 0 0 1 288.5,658.2969 L8.5,658.2969 A2.5,2.5 0 0 1 6,655.7969 L6,369.7969 A2.5,2.5 0 0 1 8.5,367.2969 " fill="none" style="stroke:#000000;stroke-width:1.5;"/>
      <line style="stroke:#000000;stroke-width:1.5;" x1="6" x2="130.4395" y1="389.5938" y2="389.5938"/>
      <text fill="#000000" font-family="sans-serif" font-size="14" font-weight="bold" lengthAdjust="spacing" textLength="111.4395" x="10" y="382.292">class_diagram</text>
    </g>
    <g id="cluster_C_0007176993879715460962">
      <path d="M32.5,410.2969 L82.0215,410.2969 A3.75,3.75 0 0 1 84.5215,412.7969 L91.5215,432.5938 L264.5,432.5938 A2.5,2.5 0 0 1 267,435.0938 L267,631.7969 A2.5,2.5 0 0 1 264.5,634.2969 L32.5,634.2969 A2.5,2.5 0 0 1 30,631.7969 L30,412.7969 A2.5,2.5 0 0 1 32.5,410.2969 " fill="none" style="stroke:#000000;stroke-width:1.5;"/>
      <line style="stroke:#000000;stroke-width:1.5;" x1="30" x2="91.5215" y1="432.5938" y2="432.5938"/>
      <text fill="#000000" font-family="sans-serif" font-size="14" font-weight="bold" lengthAdjust="spacing" textLength="48.5215" x="34" y="425.292">model</text>
    </g>
    <g id="cluster_C_0012174902727661033893">
      <path d="M668.5,367.2969 L816.8008,367.2969 A3.75,3.75 0 0 1 819.3008,369.7969 L826.3008,389.5938 L1023.5,389.5938 A2.5,2.5 0 0 1 1026,392.0938 L1026,790.7969 A2.5,2.5 0 0 1 1023.5,793.2969 L668.5,793.2969 A2.5,2.5 0 0 1 666,790.7969 L666,369.7969 A2.5,2.5 0 0 1 668.5,367.2969 " fill="none" style="stroke:#000000;stroke-width:1.5;"/>
      <line style="stroke:#000000;stroke-width:1.5;" x1="666" x2="826.3008" y1="389.5938" y2="389.5938"/>
      <text fill="#000000" font-family="sans-serif" font-size="14" font-weight="bold" lengthAdjust="spacing" textLength="147.3008" x="670" y="382.292">sequence_diagram</text>
    </g>
    <g id="cluster_C_0017655759046645114118">
      <path d="M692.5,410.2969 L742.0215,410.2969 A3.75,3.75 0 0 1 744.5215,412.7969 L751.5215,432.5938 L999.5,432.5938 A2.5,2.5 0 0 1 1002,435.0938 L1002,766.7969 A2.5,2.5 0 0 1 999.5,769.2969 L692.5,769.2969 A2.5,2.5 0 0 1 690,766.7969 L690,412.7969 A2.5,2.5 0 0 1 692.5,410.2969 " fill="none" style="stroke:#000000;stroke-width:1.5;"/>
      <line style="stroke:#000000;stroke-width:1.5;" x1="690" x2="751.5215" y1="432.5938" y2="432.5938"/>
      <text fill="#000000" font-family="sans-serif" font-size="14" font-weight="bold" lengthAdjust="spacing" textLength="48.5215" x="694" y="425.292">model</text>
    </g>
    <a href="classclanguml_1_1common_1_1model_1_1template__parameter.html" target="_top" title="Represents template parameter, template arguments or concept         constraints" xlink:actuate="onRequest" xlink:href="classclanguml_1_1common_1_1model_1_1template__parameter.html" xlink:show="new" xlink:title="Represents template parameter, template arguments or concept         constraints" xlink:type="simple">
      <g id="elem_C_0001425108501944636238">
        <rect codeLine="5" fill="#F1F1F1" height="48" id="C_0001425108501944636238" rx="2.5" ry="2.5" style="stroke:#181818;stroke-width:0.5;" width="176.1084" x="357" y="246.2969"/>
        <ellipse cx="372" cy="262.2969" fill="#ADD1B2" rx="11" ry="11" style="stroke:#181818;stroke-width:1.0;"/>
        <path d="M374.9688,267.9375 Q374.3906,268.2344 373.75,268.375 Q373.1094,268.5313 372.4063,268.5313 Q369.9063,268.5313 368.5781,266.8906 Q367.2656,265.2344 367.2656,262.1094 Q367.2656,258.9844 368.5781,257.3281 Q369.9063,255.6719 372.4063,255.6719 Q373.1094,255.6719 373.75,255.8281 Q374.4063,255.9844 374.9688,256.2813 L374.9688,259 Q374.3438,258.4219 373.75,258.1563 Q373.1563,257.875 372.5313,257.875 Q371.1875,257.875 370.5,258.9531 Q369.8125,260.0156 369.8125,262.1094 Q369.8125,264.2031 370.5,265.2813 Q371.1875,266.3438 372.5313,266.3438 Q373.1563,266.3438 373.75,266.0781 Q374.3438,265.7969 374.9688,265.2188 L374.9688,267.9375 Z " fill="#000000"/>
        <text fill="#000000" font-family="sans-serif" font-size="14" lengthAdjust="spacing" textLength="144.1084" x="386" y="267.1436">template_parameter</text>
        <line style="stroke:#181818;stroke-width:0.5;" x1="358" x2="532.1084" y1="278.2969" y2="278.2969"/>
        <line style="stroke:#181818;stroke-width:0.5;" x1="358" x2="532.1084" y1="286.2969" y2="286.2969"/>
      </g>
    </a>
    <a href="classclanguml_1_1common_1_1model_1_1template__trait.html" target="_top" title="Common interface for template diagram elements." xlink:actuate="onRequest" xlink:href="classclanguml_1_1common_1_1model_1_1template__trait.html" xlink:show="new" xlink:title="Common interface for template diagram elements." xlink:type="simple">
      <g id="elem_C_0003717723700041732716">
        <rect codeLine="9" fill="#F1F1F1" height="48" id="C_0003717723700041732716" rx="2.5" ry="2.5" style="stroke:#181818;stroke-width:0.5;" width="131.4014" x="368.5" y="121.2969"/>
        <ellipse cx="383.5" cy="137.2969" fill="#ADD1B2" rx="11" ry="11" style="stroke:#181818;stroke-width:1.0;"/>
        <path d="M386.4688,142.9375 Q385.8906,143.2344 385.25,143.375 Q384.6094,143.5313 383.9063,143.5313 Q381.4063,143.5313 380.0781,141.8906 Q378.7656,140.2344 378.7656,137.1094 Q378.7656,133.9844 380.0781,132.3281 Q381.4063,130.6719 383.9063,130.6719 Q384.6094,130.6719 385.25,130.8281 Q385.9063,130.9844 386.4688,131.2813 L386.4688,134 Q385.8438,133.4219 385.25,133.1563 Q384.6563,132.875 384.0313,132.875 Q382.6875,132.875 382,133.9531 Q381.3125,135.0156 381.3125,137.1094 Q381.3125,139.2031 382,140.2813 Q382.6875,141.3438 384.0313,141.3438 Q384.6563,141.3438 385.25,141.0781 Q385.8438,140.7969 386.4688,140.2188 L386.4688,142.9375 Z " fill="#000000"/>
        <text fill="#000000" font-family="sans-serif" font-size="14" lengthAdjust="spacing" textLength="99.4014" x="397.5" y="142.1436">template_trait</text>
        <line style="stroke:#181818;stroke-width:0.5;" x1="369.5" x2="498.9014" y1="153.2969" y2="153.2969"/>
        <line style="stroke:#181818;stroke-width:0.5;" x1="369.5" x2="498.9014" y1="161.2969" y2="161.2969"/>
      </g>
    </a>
    <a href="classclanguml_1_1common_1_1model_1_1template__element.html" target="_top" title="Base class for any element qualified by namespace." xlink:actuate="onRequest" xlink:href="classclanguml_1_1common_1_1model_1_1template__element.html" xlink:show="new" xlink:title="Base class for any element qualified by namespace." xlink:type="simple">
      <g id="elem_C_0013384831159811298387">
        <rect codeLine="13" fill="#F1F1F1" height="48" id="C_0013384831159811298387" rx="2.5" ry="2.5" style="stroke:#181818;stroke-width:0.5;" width="159.9277" x="730" y="246.2969"/>
        <ellipse cx="745" cy="262.2969" fill="#ADD1B2" rx="11" ry="11" style="stroke:#181818;stroke-width:1.0;"/>
        <path d="M747.9688,267.9375 Q747.3906,268.2344 746.75,268.375 Q746.1094,268.5313 745.4063,268.5313 Q742.9063,268.5313 741.5781,266.8906 Q740.2656,265.2344 740.2656,262.1094 Q740.2656,258.9844 741.5781,257.3281 Q742.9063,255.6719 745.4063,255.6719 Q746.1094,255.6719 746.75,255.8281 Q747.4063,255.9844 747.9688,256.2813 L747.9688,259 Q747.3438,258.4219 746.75,258.1563 Q746.1563,257.875 745.5313,257.875 Q744.1875,257.875 743.5,258.9531 Q742.8125,260.0156 742.8125,262.1094 Q742.8125,264.2031 743.5,265.2813 Q744.1875,266.3438 745.5313,266.3438 Q746.1563,266.3438 746.75,266.0781 Q747.3438,265.7969 747.9688,265.2188 L747.9688,267.9375 Z " fill="#000000"/>
        <text fill="#000000" font-family="sans-serif" font-size="14" lengthAdjust="spacing" textLength="127.9277" x="759" y="267.1436">template_element</text>
        <line style="stroke:#181818;stroke-width:0.5;" x1="731" x2="888.9277" y1="278.2969" y2="278.2969"/>
        <line style="stroke:#181818;stroke-width:0.5;" x1="731" x2="888.9277" y1="286.2969" y2="286.2969"/>
      </g>
    </a>
    <a href="classclanguml_1_1class__diagram_1_1model_1_1class__method.html" target="_top" title="Class method model." xlink:actuate="onRequest" xlink:href="classclanguml_1_1class__diagram_1_1model_1_1class__method.html" xlink:show="new" xlink:title="Class method model." xlink:type="simple">
      <g id="elem_C_0001633165731746789371">
        <rect codeLine="21" fill="#F1F1F1" height="48" id="C_0001633165731746789371" rx="2.5" ry="2.5" style="stroke:#181818;stroke-width:0.5;" width="127.8193" x="116" y="570.2969"/>
        <ellipse cx="131" cy="586.2969" fill="#ADD1B2" rx="11" ry="11" style="stroke:#181818;stroke-width:1.0;"/>
        <path d="M133.9688,591.9375 Q133.3906,592.2344 132.75,592.375 Q132.1094,592.5313 131.4063,592.5313 Q128.9063,592.5313 127.5781,590.8906 Q126.2656,589.2344 126.2656,586.1094 Q126.2656,582.9844 127.5781,581.3281 Q128.9063,579.6719 131.4063,579.6719 Q132.1094,579.6719 132.75,579.8281 Q133.4063,579.9844 133.9688,580.2813 L133.9688,583 Q133.3438,582.4219 132.75,582.1563 Q132.1563,581.875 131.5313,581.875 Q130.1875,581.875 129.5,582.9531 Q128.8125,584.0156 128.8125,586.1094 Q128.8125,588.2031 129.5,589.2813 Q130.1875,590.3438 131.5313,590.3438 Q132.1563,590.3438 132.75,590.0781 Q133.3438,589.7969 133.9688,589.2188 L133.9688,591.9375 Z " fill="#000000"/>
        <text fill="#000000" font-family="sans-serif" font-size="14" lengthAdjust="spacing" textLength="95.8193" x="145" y="591.1436">class_method</text>
        <line style="stroke:#181818;stroke-width:0.5;" x1="117" x2="242.8193" y1="602.2969" y2="602.2969"/>
        <line style="stroke:#181818;stroke-width:0.5;" x1="117" x2="242.8193" y1="610.2969" y2="610.2969"/>
      </g>
    </a>
    <a href="classclanguml_1_1class__diagram_1_1model_1_1class__.html" target="_top" title="Diagram element representing a class or class template." xlink:actuate="onRequest" xlink:href="classclanguml_1_1class__diagram_1_1model_1_1class__.html" xlink:show="new" xlink:title="Diagram element representing a class or class template." xlink:type="simple">
      <g id="elem_C_0010336274859733225462">
        <rect codeLine="25" fill="#F1F1F1" height="48" id="C_0010336274859733225462" rx="2.5" ry="2.5" style="stroke:#181818;stroke-width:0.5;" width="73.7539" x="177" y="445.2969"/>
        <ellipse cx="192" cy="461.2969" fill="#ADD1B2" rx="11" ry="11" style="stroke:#181818;stroke-width:1.0;"/>
        <path d="M194.9688,466.9375 Q194.3906,467.2344 193.75,467.375 Q193.1094,467.5313 192.4063,467.5313 Q189.9063,467.5313 188.5781,465.8906 Q187.2656,464.2344 187.2656,461.1094 Q187.2656,457.9844 188.5781,456.3281 Q189.9063,454.6719 192.4063,454.6719 Q193.1094,454.6719 193.75,454.8281 Q194.4063,454.9844 194.9688,455.2813 L194.9688,458 Q194.3438,457.4219 193.75,457.1563 Q193.1563,456.875 192.5313,456.875 Q191.1875,456.875 190.5,457.9531 Q189.8125,459.0156 189.8125,461.1094 Q189.8125,463.2031 190.5,464.2813 Q191.1875,465.3438 192.5313,465.3438 Q193.1563,465.3438 193.75,465.0781 Q194.3438,464.7969 194.9688,464.2188 L194.9688,466.9375 Z " fill="#000000"/>
        <text fill="#000000" font-family="sans-serif" font-size="14" lengthAdjust="spacing" textLength="41.7539" x="206" y="466.1436">class_</text>
        <line style="stroke:#181818;stroke-width:0.5;" x1="178" x2="249.7539" y1="477.2969" y2="477.2969"/>
        <line style="stroke:#181818;stroke-width:0.5;" x1="178" x2="249.7539" y1="485.2969" y2="485.2969"/>
      </g>
    </a>
    <a href="classclanguml_1_1class__diagram_1_1model_1_1concept__.html" target="_top" title="Model of C++ concept." xlink:actuate="onRequest" xlink:href="classclanguml_1_1class__diagram_1_1model_1_1concept__.html" xlink:show="new" xlink:title="Model of C++ concept." xlink:type="simple">
      <g id="elem_C_0010998792414017796003">
        <rect codeLine="29" fill="#F1F1F1" height="48" id="C_0010998792414017796003" rx="2.5" ry="2.5" style="stroke:#181818;stroke-width:0.5;" width="94.8223" x="46.5" y="445.2969"/>
        <ellipse cx="61.5" cy="461.2969" fill="#ADD1B2" rx="11" ry="11" style="stroke:#181818;stroke-width:1.0;"/>
        <path d="M64.4688,466.9375 Q63.8906,467.2344 63.25,467.375 Q62.6094,467.5313 61.9063,467.5313 Q59.4063,467.5313 58.0781,465.8906 Q56.7656,464.2344 56.7656,461.1094 Q56.7656,457.9844 58.0781,456.3281 Q59.4063,454.6719 61.9063,454.6719 Q62.6094,454.6719 63.25,454.8281 Q63.9063,454.9844 64.4688,455.2813 L64.4688,458 Q63.8438,457.4219 63.25,457.1563 Q62.6563,456.875 62.0313,456.875 Q60.6875,456.875 60,457.9531 Q59.3125,459.0156 59.3125,461.1094 Q59.3125,463.2031 60,464.2813 Q60.6875,465.3438 62.0313,465.3438 Q62.6563,465.3438 63.25,465.0781 Q63.8438,464.7969 64.4688,464.2188 L64.4688,466.9375 Z " fill="#000000"/>
        <text fill="#000000" font-family="sans-serif" font-size="14" lengthAdjust="spacing" textLength="62.8223" x="75.5" y="466.1436">concept_</text>
        <line style="stroke:#181818;stroke-width:0.5;" x1="47.5" x2="140.3223" y1="477.2969" y2="477.2969"/>
        <line style="stroke:#181818;stroke-width:0.5;" x1="47.5" x2="140.3223" y1="485.2969" y2="485.2969"/>
      </g>
    </a>
    <a href="structclanguml_1_1sequence__diagram_1_1model_1_1participant.html" target="_top" title="Base class for various types of sequence diagram participants" xlink:actuate="onRequest" xlink:href="structclanguml_1_1sequence__diagram_1_1model_1_1participant.html" xlink:show="new" xlink:title="Base class for various types of sequence diagram participants" xlink:type="simple">
      <g id="elem_C_0011201726182739961811">
        <rect codeLine="37" fill="#F1F1F1" height="48" id="C_0011201726182739961811" rx="2.5" ry="2.5" style="stroke:#181818;stroke-width:0.5;" width="108.0156" x="756" y="445.2969"/>
        <ellipse cx="771" cy="461.2969" fill="#ADD1B2" rx="11" ry="11" style="stroke:#181818;stroke-width:1.0;"/>
        <path d="M773.9688,466.9375 Q773.3906,467.2344 772.75,467.375 Q772.1094,467.5313 771.4063,467.5313 Q768.9063,467.5313 767.5781,465.8906 Q766.2656,464.2344 766.2656,461.1094 Q766.2656,457.9844 767.5781,456.3281 Q768.9063,454.6719 771.4063,454.6719 Q772.1094,454.6719 772.75,454.8281 Q773.4063,454.9844 773.9688,455.2813 L773.9688,458 Q773.3438,457.4219 772.75,457.1563 Q772.1563,456.875 771.5313,456.875 Q770.1875,456.875 769.5,457.9531 Q768.8125,459.0156 768.8125,461.1094 Q768.8125,463.2031 769.5,464.2813 Q770.1875,465.3438 771.5313,465.3438 Q772.1563,465.3438 772.75,465.0781 Q773.3438,464.7969 773.9688,464.2188 L773.9688,466.9375 Z " fill="#000000"/>
        <text fill="#000000" font-family="sans-serif" font-size="14" lengthAdjust="spacing" textLength="76.0156" x="785" y="466.1436">participant</text>
        <line style="stroke:#181818;stroke-width:0.5;" x1="757" x2="863.0156" y1="477.2969" y2="477.2969"/>
        <line style="stroke:#181818;stroke-width:0.5;" x1="757" x2="863.0156" y1="485.2969" y2="485.2969"/>
      </g>
    </a>
    <a href="structclanguml_1_1sequence__diagram_1_1model_1_1class__.html" target="_top" title="Sequence diagram participant representing a class." xlink:actuate="onRequest" xlink:href="structclanguml_1_1sequence__diagram_1_1model_1_1class__.html" xlink:show="new" xlink:title="Sequence diagram participant representing a class." xlink:type="simple">
      <g id="elem_C_0007084118972955772881">
        <rect codeLine="41" fill="#F1F1F1" height="48" id="C_0007084118972955772881" rx="2.5" ry="2.5" style="stroke:#181818;stroke-width:0.5;" width="73.7539" x="729" y="570.2969"/>
        <ellipse cx="744" cy="586.2969" fill="#ADD1B2" rx="11" ry="11" style="stroke:#181818;stroke-width:1.0;"/>
        <path d="M746.9688,591.9375 Q746.3906,592.2344 745.75,592.375 Q745.1094,592.5313 744.4063,592.5313 Q741.9063,592.5313 740.5781,590.8906 Q739.2656,589.2344 739.2656,586.1094 Q739.2656,582.9844 740.5781,581.3281 Q741.9063,579.6719 744.4063,579.6719 Q745.1094,579.6719 745.75,579.8281 Q746.4063,579.9844 746.9688,580.2813 L746.9688,583 Q746.3438,582.4219 745.75,582.1563 Q745.1563,581.875 744.5313,581.875 Q743.1875,581.875 742.5,582.9531 Q741.8125,584.0156 741.8125,586.1094 Q741.8125,588.2031 742.5,589.2813 Q743.1875,590.3438 744.5313,590.3438 Q745.1563,590.3438 745.75,590.0781 Q746.3438,589.7969 746.9688,589.2188 L746.9688,591.9375 Z " fill="#000000"/>
        <text fill="#000000" font-family="sans-serif" font-size="14" lengthAdjust="spacing" textLength="41.7539" x="758" y="591.1436">class_</text>
        <line style="stroke:#181818;stroke-width:0.5;" x1="730" x2="801.7539" y1="602.2969" y2="602.2969"/>
        <line style="stroke:#181818;stroke-width:0.5;" x1="730" x2="801.7539" y1="610.2969" y2="610.2969"/>
      </g>
    </a>
    <a href="structclanguml_1_1sequence__diagram_1_1model_1_1function.html" target="_top" title="Participant mode representing a free function." xlink:actuate="onRequest" xlink:href="structclanguml_1_1sequence__diagram_1_1model_1_1function.html" xlink:show="new" xlink:title="Participant mode representing a free function." xlink:type="simple">
      <g id="elem_C_0001861107648253454629">
        <rect codeLine="45" fill="#F1F1F1" height="48" id="C_0001861107648253454629" rx="2.5" ry="2.5" style="stroke:#181818;stroke-width:0.5;" width="89.1895" x="838.5" y="570.2969"/>
        <ellipse cx="853.5" cy="586.2969" fill="#ADD1B2" rx="11" ry="11" style="stroke:#181818;stroke-width:1.0;"/>
        <path d="M856.4688,591.9375 Q855.8906,592.2344 855.25,592.375 Q854.6094,592.5313 853.9063,592.5313 Q851.4063,592.5313 850.0781,590.8906 Q848.7656,589.2344 848.7656,586.1094 Q848.7656,582.9844 850.0781,581.3281 Q851.4063,579.6719 853.9063,579.6719 Q854.6094,579.6719 855.25,579.8281 Q855.9063,579.9844 856.4688,580.2813 L856.4688,583 Q855.8438,582.4219 855.25,582.1563 Q854.6563,581.875 854.0313,581.875 Q852.6875,581.875 852,582.9531 Q851.3125,584.0156 851.3125,586.1094 Q851.3125,588.2031 852,589.2813 Q852.6875,590.3438 854.0313,590.3438 Q854.6563,590.3438 855.25,590.0781 Q855.8438,589.7969 856.4688,589.2188 L856.4688,591.9375 Z " fill="#000000"/>
        <text fill="#000000" font-family="sans-serif" font-size="14" lengthAdjust="spacing" textLength="57.1895" x="867.5" y="591.1436">function</text>
        <line style="stroke:#181818;stroke-width:0.5;" x1="839.5" x2="926.6895" y1="602.2969" y2="602.2969"/>
        <line style="stroke:#181818;stroke-width:0.5;" x1="839.5" x2="926.6895" y1="610.2969" y2="610.2969"/>
      </g>
    </a>
    <a href="structclanguml_1_1sequence__diagram_1_1model_1_1method.html" target="_top" title="Participant model representing a method" xlink:actuate="onRequest" xlink:href="structclanguml_1_1sequence__diagram_1_1model_1_1method.html" xlink:show="new" xlink:title="Participant model representing a method" xlink:type="simple">
      <g id="elem_C_0006541327780382276039">
        <rect codeLine="49" fill="#F1F1F1" height="48" id="C_0006541327780382276039" rx="2.5" ry="2.5" style="stroke:#181818;stroke-width:0.5;" width="86.0654" x="706" y="705.2969"/>
        <ellipse cx="721" cy="721.2969" fill="#ADD1B2" rx="11" ry="11" style="stroke:#181818;stroke-width:1.0;"/>
        <path d="M723.9688,726.9375 Q723.3906,727.2344 722.75,727.375 Q722.1094,727.5313 721.4063,727.5313 Q718.9063,727.5313 717.5781,725.8906 Q716.2656,724.2344 716.2656,721.1094 Q716.2656,717.9844 717.5781,716.3281 Q718.9063,714.6719 721.4063,714.6719 Q722.1094,714.6719 722.75,714.8281 Q723.4063,714.9844 723.9688,715.2813 L723.9688,718 Q723.3438,717.4219 722.75,717.1563 Q722.1563,716.875 721.5313,716.875 Q720.1875,716.875 719.5,717.9531 Q718.8125,719.0156 718.8125,721.1094 Q718.8125,723.2031 719.5,724.2813 Q720.1875,725.3438 721.5313,725.3438 Q722.1563,725.3438 722.75,725.0781 Q723.3438,724.7969 723.9688,724.2188 L723.9688,726.9375 Z " fill="#000000"/>
        <text fill="#000000" font-family="sans-serif" font-size="14" lengthAdjust="spacing" textLength="54.0654" x="735" y="726.1436">method</text>
        <line style="stroke:#181818;stroke-width:0.5;" x1="707" x2="791.0654" y1="737.2969" y2="737.2969"/>
        <line style="stroke:#181818;stroke-width:0.5;" x1="707" x2="791.0654" y1="745.2969" y2="745.2969"/>
      </g>
    </a>
    <a href="structclanguml_1_1sequence__diagram_1_1model_1_1function__template.html" target="_top" title="Participant model representing a function template." xlink:actuate="onRequest" xlink:href="structclanguml_1_1sequence__diagram_1_1model_1_1function__template.html" xlink:show="new" xlink:title="Participant model representing a function template." xlink:type="simple">
      <g id="elem_C_0018241535739946484465">
        <rect codeLine="53" fill="#F1F1F1" height="48" id="C_0018241535739946484465" rx="2.5" ry="2.5" style="stroke:#181818;stroke-width:0.5;" width="159.3877" x="827.5" y="705.2969"/>
        <ellipse cx="842.5" cy="721.2969" fill="#ADD1B2" rx="11" ry="11" style="stroke:#181818;stroke-width:1.0;"/>
        <path d="M845.4688,726.9375 Q844.8906,727.2344 844.25,727.375 Q843.6094,727.5313 842.9063,727.5313 Q840.4063,727.5313 839.0781,725.8906 Q837.7656,724.2344 837.7656,721.1094 Q837.7656,717.9844 839.0781,716.3281 Q840.4063,714.6719 842.9063,714.6719 Q843.6094,714.6719 844.25,714.8281 Q844.9063,714.9844 845.4688,715.2813 L845.4688,718 Q844.8438,717.4219 844.25,717.1563 Q843.6563,716.875 843.0313,716.875 Q841.6875,716.875 841,717.9531 Q840.3125,719.0156 840.3125,721.1094 Q840.3125,723.2031 841,724.2813 Q841.6875,725.3438 843.0313,725.3438 Q843.6563,725.3438 844.25,725.0781 Q844.8438,724.7969 845.4688,724.2188 L845.4688,726.9375 Z " fill="#000000"/>
        <text fill="#000000" font-family="sans-serif" font-size="14" lengthAdjust="spacing" textLength="127.3877" x="856.5" y="726.1436">function_template</text>
        <line style="stroke:#181818;stroke-width:0.5;" x1="828.5" x2="985.8877" y1="737.2969" y2="737.2969"/>
        <line style="stroke:#181818;stroke-width:0.5;" x1="828.5" x2="985.8877" y1="745.2969" y2="745.2969"/>
      </g>
    </a>
    <g id="link_C_0001425108501944636238_C_0001425108501944636238">
      <path codeLine="58" d="M545.1649,259.5394 C565.2549,260.5494 568,263.7269 568,270.2969 C568,276.8669 553.27,280.6469 533.18,281.6569 " fill="none" id="C_0001425108501944636238-backto-C_0001425108501944636238" style="stroke:#181818;stroke-width:1.0;"/>
      <polygon fill="none" points="533.18,258.9369,538.9716,263.2331,545.1649,259.5394,539.3733,255.2432,533.18,258.9369" style="stroke:#181818;stroke-width:1.0;"/>
      <rect fill="none" height="6" style="stroke:#C82930;stroke-width:1.0;" width="6" x="576" y="267.8633"/>
      <text fill="#000000" font-family="sans-serif" font-size="13" lengthAdjust="spacing" textLength="120.6499" x="586" y="274.8638">template_params_</text>
    </g>
    <g id="link_C_0003717723700041732716_C_0001425108501944636238">
      <path codeLine="59" d="M437.1407,181.389 C439.1107,203.379 440.98,224.3069 442.94,246.2669 " fill="none" id="C_0003717723700041732716-backto-C_0001425108501944636238" style="stroke:#181818;stroke-width:1.0;"/>
      <polygon fill="none" points="436.07,169.4369,432.6213,175.7699,437.1407,181.389,440.5894,175.056,436.07,169.4369" style="stroke:#181818;stroke-width:1.0;"/>
      <rect fill="none" height="6" style="stroke:#C82930;stroke-width:1.0;" width="6" x="443" y="205.3633"/>
      <text fill="#000000" font-family="sans-serif" font-size="13" lengthAdjust="spacing" textLength="71.957" x="453" y="212.3638">templates_</text>
    </g>
    <g id="link_C_0003717723700041732716_C_0013384831159811298387">
      <path codeLine="60" d="M517.0286,173.4611 C584.2186,195.4311 670.94,223.8069 739.68,246.2969 " fill="none" id="C_0003717723700041732716-backto-C_0013384831159811298387" style="stroke:#181818;stroke-width:1.0;"/>
      <polygon fill="none" points="499.92,167.8669,515.1639,179.164,518.8934,167.7582,499.92,167.8669" style="stroke:#181818;stroke-width:1.0;"/>
    </g>
    <g id="link_C_0003717723700041732716_C_0001633165731746789371">
      <path codeLine="61" d="M391.1807,181.2507 C369.8707,199.7607 355.68,215.7769 340,246.2969 C279.13,364.7569 361.88,433.7269 282,540.2969 C272.31,553.2269 258.53,563.2869 244.24,570.9869 " fill="none" id="C_0003717723700041732716-backto-C_0001633165731746789371" style="stroke:#181818;stroke-width:1.0;"/>
      <polygon fill="none" points="404.77,169.4469,387.2461,176.7209,395.1152,185.7805,404.77,169.4469" style="stroke:#181818;stroke-width:1.0;"/>
    </g>
    <g id="link_C_0010336274859733225462_C_0001633165731746789371">
      <path codeLine="62" d="M204.407,505.0043 C198.337,526.9943 192.44,548.3069 186.37,570.2669 " fill="none" id="C_0010336274859733225462-backto-C_0001633165731746789371" style="stroke:#181818;stroke-width:1.0;"/>
      <polygon fill="none" points="207.6,493.4369,202.1477,498.1562,204.407,505.0043,209.8593,500.2849,207.6,493.4369" style="stroke:#181818;stroke-width:1.0;"/>
      <rect fill="none" height="6" style="stroke:#C82930;stroke-width:1.0;" width="6" x="203" y="529.3633"/>
      <text fill="#000000" font-family="sans-serif" font-size="13" lengthAdjust="spacing" textLength="63.4766" x="213" y="536.3638">methods_</text>
    </g>
    <g id="link_C_0013384831159811298387_C_0010336274859733225462">
      <path codeLine="63" d="M770.3912,306.0552 C751.7912,321.6352 739.25,329.9469 713,342.2969 C550.68,418.6369 336.08,452.7269 251.01,463.8869 " fill="none" id="C_0013384831159811298387-backto-C_0010336274859733225462" style="stroke:#181818;stroke-width:1.0;"/>
      <polygon fill="none" points="784.19,294.4969,766.5385,301.4556,774.244,310.6548,784.19,294.4969" style="stroke:#181818;stroke-width:1.0;"/>
    </g>
    <g id="link_C_0003717723700041732716_C_0010998792414017796003">
      <path codeLine="64" d="M350.9943,163.933 C321.4043,172.003 304.59,179.9369 278,199.2969 C186.29,266.0769 125.37,393.2569 103.26,445.2669 " fill="none" id="C_0003717723700041732716-backto-C_0010998792414017796003" style="stroke:#181818;stroke-width:1.0;"/>
      <polygon fill="none" points="368.36,159.1969,349.4155,158.1444,352.573,169.7216,368.36,159.1969" style="stroke:#181818;stroke-width:1.0;"/>
    </g>
    <g id="link_C_0013384831159811298387_C_0011201726182739961811">
      <path codeLine="65" d="M810,312.6669 C810,350.6869 810,407.4569 810,445.2569 " fill="none" id="C_0013384831159811298387-backto-C_0011201726182739961811" style="stroke:#181818;stroke-width:1.0;"/>
      <polygon fill="none" points="810,294.6669,804,312.6669,816,312.6669,810,294.6669" style="stroke:#181818;stroke-width:1.0;"/>
    </g>
    <g id="link_C_0011201726182739961811_C_0007084118972955772881">
      <path codeLine="66" d="M795.6616,510.3867 C787.8016,532.3767 782.09,548.3069 774.24,570.2669 " fill="none" id="C_0011201726182739961811-backto-C_0007084118972955772881" style="stroke:#181818;stroke-width:1.0;"/>
      <polygon fill="none" points="801.72,493.4369,790.0116,508.3672,801.3115,512.4061,801.72,493.4369" style="stroke:#181818;stroke-width:1.0;"/>
    </g>
    <g id="link_C_0011201726182739961811_C_0001861107648253454629">
      <path codeLine="67" d="M832.9163,508.9163 C845.9663,530.9063 856.3,548.3069 869.33,570.2669 " fill="none" id="C_0011201726182739961811-backto-C_0001861107648253454629" style="stroke:#181818;stroke-width:1.0;"/>
      <polygon fill="none" points="823.73,493.4369,827.7565,511.9784,838.0761,505.8542,823.73,493.4369" style="stroke:#181818;stroke-width:1.0;"/>
    </g>
    <g id="link_C_0001861107648253454629_C_0006541327780382276039">
      <path codeLine="68" d="M852.7014,632.2321 C840.7914,646.4921 836.33,651.0769 821,666.2969 C807.42,679.7769 791.37,693.7769 777.87,705.0469 " fill="none" id="C_0001861107648253454629-backto-C_0006541327780382276039" style="stroke:#181818;stroke-width:1.0;"/>
      <polygon fill="none" points="864.24,618.4169,848.0964,628.386,857.3065,636.0783,864.24,618.4169" style="stroke:#181818;stroke-width:1.0;"/>
    </g>
    <g id="link_C_0001861107648253454629_C_0018241535739946484465">
      <path codeLine="69" d="M890.3781,636.1805 C894.7581,660.4405 898.4,680.6169 902.79,704.9469 " fill="none" id="C_0001861107648253454629-backto-C_0018241535739946484465" style="stroke:#181818;stroke-width:1.0;"/>
      <polygon fill="none" points="887.18,618.4669,884.4736,637.2465,896.2826,635.1145,887.18,618.4669" style="stroke:#181818;stroke-width:1.0;"/>
    </g>
  </g>
</svg>
