<svg xmlns="http://www.w3.org/2000/svg" xmlns:xlink="http://www.w3.org/1999/xlink" contentStyleType="text/css" height="819px" preserveAspectRatio="none" style="width:1142px;height:819px;background:#FFFFFF;" version="1.1" viewBox="0 0 1142 819" width="1142px" zoomAndPan="magnify">
  <title>Template trait diagram element model class hierarchy</title>
  <defs>
    <style type="text/css">a:hover { text-decoration: underline; }</style>
  </defs>
  <g>
    <text fill="#000000" font-family="sans-serif" font-size="14" font-weight="bold" lengthAdjust="spacing" textLength="381.1906" x="373.4047" y="24.9659">Template trait diagram element model class hierarchy</text>
    <g id="cluster_C_0002532840279361781187">
      <path d="M310.5,46.6699 L372.7218,46.6699 A3.75,3.75 0 0 1 375.2218,49.1699 L382.2218,71.7378 L892.5,71.7378 A2.5,2.5 0 0 1 895,74.2378 L895,343.1699 A2.5,2.5 0 0 1 892.5,345.6699 L310.5,345.6699 A2.5,2.5 0 0 1 308,343.1699 L308,49.1699 A2.5,2.5 0 0 1 310.5,46.6699 " fill="none" style="stroke:#000000;stroke-width:1.5;"/>
      <line style="stroke:#000000;stroke-width:1.5;" x1="308" x2="382.2218" y1="71.7378" y2="71.7378"/>
      <text fill="#000000" font-family="sans-serif" font-size="14" font-weight="bold" lengthAdjust="spacing" textLength="61.2218" x="312" y="63.6358">common</text>
    </g>
    <g id="cluster_C_0000669774451444102653">
      <path d="M334.5,92.6699 L379.3198,92.6699 A3.75,3.75 0 0 1 381.8198,95.1699 L388.8198,117.7378 L868.5,117.7378 A2.5,2.5 0 0 1 871,120.2378 L871,319.1699 A2.5,2.5 0 0 1 868.5,321.6699 L334.5,321.6699 A2.5,2.5 0 0 1 332,319.1699 L332,95.1699 A2.5,2.5 0 0 1 334.5,92.6699 " fill="none" style="stroke:#000000;stroke-width:1.5;"/>
      <line style="stroke:#000000;stroke-width:1.5;" x1="332" x2="388.8198" y1="117.7378" y2="117.7378"/>
      <text fill="#000000" font-family="sans-serif" font-size="14" font-weight="bold" lengthAdjust="spacing" textLength="43.8198" x="336" y="109.6358">model</text>
    </g>
    <g id="cluster_C_0017921336289613804855">
      <path d="M8.5,378.6699 L108.1016,378.6699 A3.75,3.75 0 0 1 110.6016,381.1699 L117.6016,403.7378 L278.5,403.7378 A2.5,2.5 0 0 1 281,406.2378 L281,675.1699 A2.5,2.5 0 0 1 278.5,677.6699 L8.5,677.6699 A2.5,2.5 0 0 1 6,675.1699 L6,381.1699 A2.5,2.5 0 0 1 8.5,378.6699 " fill="none" style="stroke:#000000;stroke-width:1.5;"/>
      <line style="stroke:#000000;stroke-width:1.5;" x1="6" x2="117.6016" y1="403.7378" y2="403.7378"/>
      <text fill="#000000" font-family="sans-serif" font-size="14" font-weight="bold" lengthAdjust="spacing" textLength="98.6016" x="10" y="395.6358">class_diagram</text>
    </g>
    <g id="cluster_C_0007176993879715460962">
      <path d="M32.5,424.6699 L77.3198,424.6699 A3.75,3.75 0 0 1 79.8198,427.1699 L86.8198,449.7378 L254.5,449.7378 A2.5,2.5 0 0 1 257,452.2378 L257,651.1699 A2.5,2.5 0 0 1 254.5,653.6699 L32.5,653.6699 A2.5,2.5 0 0 1 30,651.1699 L30,427.1699 A2.5,2.5 0 0 1 32.5,424.6699 " fill="none" style="stroke:#000000;stroke-width:1.5;"/>
      <line style="stroke:#000000;stroke-width:1.5;" x1="30" x2="86.8198" y1="449.7378" y2="449.7378"/>
      <text fill="#000000" font-family="sans-serif" font-size="14" font-weight="bold" lengthAdjust="spacing" textLength="43.8198" x="34" y="441.6358">model</text>
    </g>
    <g id="cluster_C_0012174902727661033893">
      <path d="M633.5,378.6699 L765.4975,378.6699 A3.75,3.75 0 0 1 767.9975,381.1699 L774.9975,403.7378 L1132.5,403.7378 A2.5,2.5 0 0 1 1135,406.2378 L1135,810.1699 A2.5,2.5 0 0 1 1132.5,812.6699 L633.5,812.6699 A2.5,2.5 0 0 1 631,810.1699 L631,381.1699 A2.5,2.5 0 0 1 633.5,378.6699 " fill="none" style="stroke:#000000;stroke-width:1.5;"/>
      <line style="stroke:#000000;stroke-width:1.5;" x1="631" x2="774.9975" y1="403.7378" y2="403.7378"/>
      <text fill="#000000" font-family="sans-serif" font-size="14" font-weight="bold" lengthAdjust="spacing" textLength="130.9975" x="635" y="395.6358">sequence_diagram</text>
    </g>
    <g id="cluster_C_0017655759046645114118">
      <path d="M657.5,424.6699 L702.3198,424.6699 A3.75,3.75 0 0 1 704.8198,427.1699 L711.8198,449.7378 L1108.5,449.7378 A2.5,2.5 0 0 1 1111,452.2378 L1111,786.1699 A2.5,2.5 0 0 1 1108.5,788.6699 L657.5,788.6699 A2.5,2.5 0 0 1 655,786.1699 L655,427.1699 A2.5,2.5 0 0 1 657.5,424.6699 " fill="none" style="stroke:#000000;stroke-width:1.5;"/>
      <line style="stroke:#000000;stroke-width:1.5;" x1="655" x2="711.8198" y1="449.7378" y2="449.7378"/>
      <text fill="#000000" font-family="sans-serif" font-size="14" font-weight="bold" lengthAdjust="spacing" textLength="43.8198" x="659" y="441.6358">model</text>
    </g>
    <a href="classclanguml_1_1common_1_1model_1_1template__parameter.html" target="_top" title="Represents template parameter, template arguments or concept         constraints" xlink:actuate="onRequest" xlink:href="classclanguml_1_1common_1_1model_1_1template__parameter.html" xlink:show="new" xlink:title="Represents template parameter, template arguments or concept         constraints" xlink:type="simple">
      <g id="elem_C_0001425108501944636238">
        <rect codeLine="5" fill="#F1F1F1" height="48" id="C_0001425108501944636238" rx="2.5" ry="2.5" style="stroke:#181818;stroke-width:0.5;" width="167.0995" x="347.5" y="257.6699"/>
        <ellipse cx="362.5" cy="273.6699" fill="#ADD1B2" rx="11" ry="11" style="stroke:#181818;stroke-width:1.0;"/>
        <path d="M365.4688,279.3105 Q364.8906,279.6074 364.25,279.748 Q363.6094,279.9043 362.9063,279.9043 Q360.4063,279.9043 359.0781,278.2636 Q357.7656,276.6074 357.7656,273.4824 Q357.7656,270.3574 359.0781,268.7011 Q360.4063,267.0449 362.9063,267.0449 Q363.6094,267.0449 364.25,267.2011 Q364.9063,267.3574 365.4688,267.6543 L365.4688,270.373 Q364.8438,269.7949 364.25,269.5293 Q363.6563,269.248 363.0313,269.248 Q361.6875,269.248 361,270.3261 Q360.3125,271.3886 360.3125,273.4824 Q360.3125,275.5761 361,276.6543 Q361.6875,277.7168 363.0313,277.7168 Q363.6563,277.7168 364.25,277.4511 Q364.8438,277.1699 365.4688,276.5918 L365.4688,279.3105 Z " fill="#000000"/>
        <text fill="#000000" font-family="sans-serif" font-size="14" lengthAdjust="spacing" textLength="135.0995" x="376.5" y="279.1019">template_parameter</text>
        <line style="stroke:#181818;stroke-width:0.5;" x1="348.5" x2="513.5995" y1="289.6699" y2="289.6699"/>
        <line style="stroke:#181818;stroke-width:0.5;" x1="348.5" x2="513.5995" y1="297.6699" y2="297.6699"/>
      </g>
    </a>
    <a href="classclanguml_1_1common_1_1model_1_1template__trait.html" target="_top" title="Common interface for template diagram elements." xlink:actuate="onRequest" xlink:href="classclanguml_1_1common_1_1model_1_1template__trait.html" xlink:show="new" xlink:title="Common interface for template diagram elements." xlink:type="simple">
      <g id="elem_C_0003717723700041732716">
        <rect codeLine="9" fill="#F1F1F1" height="48" id="C_0003717723700041732716" rx="2.5" ry="2.5" style="stroke:#181818;stroke-width:0.5;" width="124.6377" x="358.5" y="130.6699"/>
        <ellipse cx="373.5" cy="146.6699" fill="#ADD1B2" rx="11" ry="11" style="stroke:#181818;stroke-width:1.0;"/>
        <path d="M376.4688,152.3105 Q375.8906,152.6074 375.25,152.748 Q374.6094,152.9043 373.9063,152.9043 Q371.4063,152.9043 370.0781,151.2636 Q368.7656,149.6074 368.7656,146.4824 Q368.7656,143.3574 370.0781,141.7011 Q371.4063,140.0449 373.9063,140.0449 Q374.6094,140.0449 375.25,140.2011 Q375.9063,140.3574 376.4688,140.6543 L376.4688,143.373 Q375.8438,142.7949 375.25,142.5293 Q374.6563,142.248 374.0313,142.248 Q372.6875,142.248 372,143.3261 Q371.3125,144.3886 371.3125,146.4824 Q371.3125,148.5761 372,149.6543 Q372.6875,150.7168 374.0313,150.7168 Q374.6563,150.7168 375.25,150.4511 Q375.8438,150.1699 376.4688,149.5918 L376.4688,152.3105 Z " fill="#000000"/>
        <text fill="#000000" font-family="sans-serif" font-size="14" lengthAdjust="spacing" textLength="92.6377" x="387.5" y="152.1019">template_trait</text>
        <line style="stroke:#181818;stroke-width:0.5;" x1="359.5" x2="482.1377" y1="162.6699" y2="162.6699"/>
        <line style="stroke:#181818;stroke-width:0.5;" x1="359.5" x2="482.1377" y1="170.6699" y2="170.6699"/>
      </g>
    </a>
    <a href="classclanguml_1_1common_1_1model_1_1template__element.html" target="_top" title="Base class for any element qualified by namespace." xlink:actuate="onRequest" xlink:href="classclanguml_1_1common_1_1model_1_1template__element.html" xlink:show="new" xlink:title="Base class for any element qualified by namespace." xlink:type="simple">
      <g id="elem_C_0013384831159811298387">
        <rect codeLine="13" fill="#F1F1F1" height="48" id="C_0013384831159811298387" rx="2.5" ry="2.5" style="stroke:#181818;stroke-width:0.5;" width="151.3775" x="703.5" y="257.6699"/>
        <ellipse cx="718.5" cy="273.6699" fill="#ADD1B2" rx="11" ry="11" style="stroke:#181818;stroke-width:1.0;"/>
        <path d="M721.4688,279.3105 Q720.8906,279.6074 720.25,279.748 Q719.6094,279.9043 718.9063,279.9043 Q716.4063,279.9043 715.0781,278.2636 Q713.7656,276.6074 713.7656,273.4824 Q713.7656,270.3574 715.0781,268.7011 Q716.4063,267.0449 718.9063,267.0449 Q719.6094,267.0449 720.25,267.2011 Q720.9063,267.3574 721.4688,267.6543 L721.4688,270.373 Q720.8438,269.7949 720.25,269.5293 Q719.6563,269.248 719.0313,269.248 Q717.6875,269.248 717,270.3261 Q716.3125,271.3886 716.3125,273.4824 Q716.3125,275.5761 717,276.6543 Q717.6875,277.7168 719.0313,277.7168 Q719.6563,277.7168 720.25,277.4511 Q720.8438,277.1699 721.4688,276.5918 L721.4688,279.3105 Z " fill="#000000"/>
        <text fill="#000000" font-family="sans-serif" font-size="14" lengthAdjust="spacing" textLength="119.3775" x="732.5" y="279.1019">template_element</text>
        <line style="stroke:#181818;stroke-width:0.5;" x1="704.5" x2="853.8775" y1="289.6699" y2="289.6699"/>
        <line style="stroke:#181818;stroke-width:0.5;" x1="704.5" x2="853.8775" y1="297.6699" y2="297.6699"/>
      </g>
    </a>
    <a href="classclanguml_1_1class__diagram_1_1model_1_1class__method.html" target="_top" title="Class method model." xlink:actuate="onRequest" xlink:href="classclanguml_1_1class__diagram_1_1model_1_1class__method.html" xlink:show="new" xlink:title="Class method model." xlink:type="simple">
      <g id="elem_C_0001633165731746789371">
        <rect codeLine="21" fill="#F1F1F1" height="48" id="C_0001633165731746789371" rx="2.5" ry="2.5" style="stroke:#181818;stroke-width:0.5;" width="121.5857" x="112" y="589.6699"/>
        <ellipse cx="127" cy="605.6699" fill="#ADD1B2" rx="11" ry="11" style="stroke:#181818;stroke-width:1.0;"/>
        <path d="M129.9688,611.3105 Q129.3906,611.6074 128.75,611.748 Q128.1094,611.9043 127.4063,611.9043 Q124.9063,611.9043 123.5781,610.2636 Q122.2656,608.6074 122.2656,605.4824 Q122.2656,602.3574 123.5781,600.7011 Q124.9063,599.0449 127.4063,599.0449 Q128.1094,599.0449 128.75,599.2011 Q129.4063,599.3574 129.9688,599.6543 L129.9688,602.373 Q129.3438,601.7949 128.75,601.5293 Q128.1563,601.248 127.5313,601.248 Q126.1875,601.248 125.5,602.3261 Q124.8125,603.3886 124.8125,605.4824 Q124.8125,607.5761 125.5,608.6543 Q126.1875,609.7168 127.5313,609.7168 Q128.1563,609.7168 128.75,609.4511 Q129.3438,609.1699 129.9688,608.5918 L129.9688,611.3105 Z " fill="#000000"/>
        <text fill="#000000" font-family="sans-serif" font-size="14" lengthAdjust="spacing" textLength="89.5857" x="141" y="611.1019">class_method</text>
        <line style="stroke:#181818;stroke-width:0.5;" x1="113" x2="232.5857" y1="621.6699" y2="621.6699"/>
        <line style="stroke:#181818;stroke-width:0.5;" x1="113" x2="232.5857" y1="629.6699" y2="629.6699"/>
      </g>
    </a>
    <a href="classclanguml_1_1class__diagram_1_1model_1_1class__.html" target="_top" title="Diagram element representing a class or class template." xlink:actuate="onRequest" xlink:href="classclanguml_1_1class__diagram_1_1model_1_1class__.html" xlink:show="new" xlink:title="Diagram element representing a class or class template." xlink:type="simple">
      <g id="elem_C_0010336274859733225462">
        <rect codeLine="25" fill="#F1F1F1" height="48" id="C_0010336274859733225462" rx="2.5" ry="2.5" style="stroke:#181818;stroke-width:0.5;" width="69.8139" x="171" y="462.6699"/>
        <ellipse cx="186" cy="478.6699" fill="#ADD1B2" rx="11" ry="11" style="stroke:#181818;stroke-width:1.0;"/>
        <path d="M188.9688,484.3105 Q188.3906,484.6074 187.75,484.748 Q187.1094,484.9043 186.4063,484.9043 Q183.9063,484.9043 182.5781,483.2636 Q181.2656,481.6074 181.2656,478.4824 Q181.2656,475.3574 182.5781,473.7011 Q183.9063,472.0449 186.4063,472.0449 Q187.1094,472.0449 187.75,472.2011 Q188.4063,472.3574 188.9688,472.6543 L188.9688,475.373 Q188.3438,474.7949 187.75,474.5293 Q187.1563,474.248 186.5313,474.248 Q185.1875,474.248 184.5,475.3261 Q183.8125,476.3886 183.8125,478.4824 Q183.8125,480.5761 184.5,481.6543 Q185.1875,482.7168 186.5313,482.7168 Q187.1563,482.7168 187.75,482.4511 Q188.3438,482.1699 188.9688,481.5918 L188.9688,484.3105 Z " fill="#000000"/>
        <text fill="#000000" font-family="sans-serif" font-size="14" lengthAdjust="spacing" textLength="37.8139" x="200" y="484.1019">class_</text>
        <line style="stroke:#181818;stroke-width:0.5;" x1="172" x2="239.8139" y1="494.6699" y2="494.6699"/>
        <line style="stroke:#181818;stroke-width:0.5;" x1="172" x2="239.8139" y1="502.6699" y2="502.6699"/>
      </g>
    </a>
    <a href="classclanguml_1_1class__diagram_1_1model_1_1concept__.html" target="_top" title="Model of C++ concept." xlink:actuate="onRequest" xlink:href="classclanguml_1_1class__diagram_1_1model_1_1concept__.html" xlink:show="new" xlink:title="Model of C++ concept." xlink:type="simple">
      <g id="elem_C_0010998792414017796003">
        <rect codeLine="29" fill="#F1F1F1" height="48" id="C_0010998792414017796003" rx="2.5" ry="2.5" style="stroke:#181818;stroke-width:0.5;" width="90.3378" x="46" y="462.6699"/>
        <ellipse cx="61" cy="478.6699" fill="#ADD1B2" rx="11" ry="11" style="stroke:#181818;stroke-width:1.0;"/>
        <path d="M63.9688,484.3105 Q63.3906,484.6074 62.75,484.748 Q62.1094,484.9043 61.4063,484.9043 Q58.9063,484.9043 57.5781,483.2636 Q56.2656,481.6074 56.2656,478.4824 Q56.2656,475.3574 57.5781,473.7011 Q58.9063,472.0449 61.4063,472.0449 Q62.1094,472.0449 62.75,472.2011 Q63.4063,472.3574 63.9688,472.6543 L63.9688,475.373 Q63.3438,474.7949 62.75,474.5293 Q62.1563,474.248 61.5313,474.248 Q60.1875,474.248 59.5,475.3261 Q58.8125,476.3886 58.8125,478.4824 Q58.8125,480.5761 59.5,481.6543 Q60.1875,482.7168 61.5313,482.7168 Q62.1563,482.7168 62.75,482.4511 Q63.3438,482.1699 63.9688,481.5918 L63.9688,484.3105 Z " fill="#000000"/>
        <text fill="#000000" font-family="sans-serif" font-size="14" lengthAdjust="spacing" textLength="58.3378" x="75" y="484.1019">concept_</text>
        <line style="stroke:#181818;stroke-width:0.5;" x1="47" x2="135.3378" y1="494.6699" y2="494.6699"/>
        <line style="stroke:#181818;stroke-width:0.5;" x1="47" x2="135.3378" y1="502.6699" y2="502.6699"/>
      </g>
    </a>
    <a href="structclanguml_1_1sequence__diagram_1_1model_1_1participant.html" target="_top" title="Base class for various types of sequence diagram participants" xlink:actuate="onRequest" xlink:href="structclanguml_1_1sequence__diagram_1_1model_1_1participant.html" xlink:show="new" xlink:title="Base class for various types of sequence diagram participants" xlink:type="simple">
      <g id="elem_C_0011201726182739961811">
        <rect codeLine="37" fill="#F1F1F1" height="48" id="C_0011201726182739961811" rx="2.5" ry="2.5" style="stroke:#181818;stroke-width:0.5;" width="103.4137" x="727.5" y="462.6699"/>
        <ellipse cx="742.5" cy="478.6699" fill="#ADD1B2" rx="11" ry="11" style="stroke:#181818;stroke-width:1.0;"/>
        <path d="M745.4688,484.3105 Q744.8906,484.6074 744.25,484.748 Q743.6094,484.9043 742.9063,484.9043 Q740.4063,484.9043 739.0781,483.2636 Q737.7656,481.6074 737.7656,478.4824 Q737.7656,475.3574 739.0781,473.7011 Q740.4063,472.0449 742.9063,472.0449 Q743.6094,472.0449 744.25,472.2011 Q744.9063,472.3574 745.4688,472.6543 L745.4688,475.373 Q744.8438,474.7949 744.25,474.5293 Q743.6563,474.248 743.0313,474.248 Q741.6875,474.248 741,475.3261 Q740.3125,476.3886 740.3125,478.4824 Q740.3125,480.5761 741,481.6543 Q741.6875,482.7168 743.0313,482.7168 Q743.6563,482.7168 744.25,482.4511 Q744.8438,482.1699 745.4688,481.5918 L745.4688,484.3105 Z " fill="#000000"/>
        <text fill="#000000" font-family="sans-serif" font-size="14" lengthAdjust="spacing" textLength="71.4137" x="756.5" y="484.1019">participant</text>
        <line style="stroke:#181818;stroke-width:0.5;" x1="728.5" x2="829.9137" y1="494.6699" y2="494.6699"/>
        <line style="stroke:#181818;stroke-width:0.5;" x1="728.5" x2="829.9137" y1="502.6699" y2="502.6699"/>
      </g>
    </a>
    <a href="structclanguml_1_1sequence__diagram_1_1model_1_1class__.html" target="_top" title="Sequence diagram participant representing a class." xlink:actuate="onRequest" xlink:href="structclanguml_1_1sequence__diagram_1_1model_1_1class__.html" xlink:show="new" xlink:title="Sequence diagram participant representing a class." xlink:type="simple">
      <g id="elem_C_0007084118972955772881">
        <rect codeLine="41" fill="#F1F1F1" height="48" id="C_0007084118972955772881" rx="2.5" ry="2.5" style="stroke:#181818;stroke-width:0.5;" width="69.8139" x="700" y="589.6699"/>
        <ellipse cx="715" cy="605.6699" fill="#ADD1B2" rx="11" ry="11" style="stroke:#181818;stroke-width:1.0;"/>
        <path d="M717.9688,611.3105 Q717.3906,611.6074 716.75,611.748 Q716.1094,611.9043 715.4063,611.9043 Q712.9063,611.9043 711.5781,610.2636 Q710.2656,608.6074 710.2656,605.4824 Q710.2656,602.3574 711.5781,600.7011 Q712.9063,599.0449 715.4063,599.0449 Q716.1094,599.0449 716.75,599.2011 Q717.4063,599.3574 717.9688,599.6543 L717.9688,602.373 Q717.3438,601.7949 716.75,601.5293 Q716.1563,601.248 715.5313,601.248 Q714.1875,601.248 713.5,602.3261 Q712.8125,603.3886 712.8125,605.4824 Q712.8125,607.5761 713.5,608.6543 Q714.1875,609.7168 715.5313,609.7168 Q716.1563,609.7168 716.75,609.4511 Q717.3438,609.1699 717.9688,608.5918 L717.9688,611.3105 Z " fill="#000000"/>
        <text fill="#000000" font-family="sans-serif" font-size="14" lengthAdjust="spacing" textLength="37.8139" x="729" y="611.1019">class_</text>
        <line style="stroke:#181818;stroke-width:0.5;" x1="701" x2="768.8139" y1="621.6699" y2="621.6699"/>
        <line style="stroke:#181818;stroke-width:0.5;" x1="701" x2="768.8139" y1="629.6699" y2="629.6699"/>
      </g>
    </a>
    <a href="structclanguml_1_1sequence__diagram_1_1model_1_1function.html" target="_top" title="Participant mode representing a free function." xlink:actuate="onRequest" xlink:href="structclanguml_1_1sequence__diagram_1_1model_1_1function.html" xlink:show="new" xlink:title="Participant mode representing a free function." xlink:type="simple">
      <g id="elem_C_0001861107648253454629">
        <rect codeLine="45" fill="#F1F1F1" height="48" id="C_0001861107648253454629" rx="2.5" ry="2.5" style="stroke:#181818;stroke-width:0.5;" width="86.6278" x="805.5" y="589.6699"/>
        <ellipse cx="820.5" cy="605.6699" fill="#ADD1B2" rx="11" ry="11" style="stroke:#181818;stroke-width:1.0;"/>
        <path d="M823.4688,611.3105 Q822.8906,611.6074 822.25,611.748 Q821.6094,611.9043 820.9063,611.9043 Q818.4063,611.9043 817.0781,610.2636 Q815.7656,608.6074 815.7656,605.4824 Q815.7656,602.3574 817.0781,600.7011 Q818.4063,599.0449 820.9063,599.0449 Q821.6094,599.0449 822.25,599.2011 Q822.9063,599.3574 823.4688,599.6543 L823.4688,602.373 Q822.8438,601.7949 822.25,601.5293 Q821.6563,601.248 821.0313,601.248 Q819.6875,601.248 819,602.3261 Q818.3125,603.3886 818.3125,605.4824 Q818.3125,607.5761 819,608.6543 Q819.6875,609.7168 821.0313,609.7168 Q821.6563,609.7168 822.25,609.4511 Q822.8438,609.1699 823.4688,608.5918 L823.4688,611.3105 Z " fill="#000000"/>
        <text fill="#000000" font-family="sans-serif" font-size="14" lengthAdjust="spacing" textLength="54.6278" x="834.5" y="611.1019">function</text>
        <line style="stroke:#181818;stroke-width:0.5;" x1="806.5" x2="891.1278" y1="621.6699" y2="621.6699"/>
        <line style="stroke:#181818;stroke-width:0.5;" x1="806.5" x2="891.1278" y1="629.6699" y2="629.6699"/>
      </g>
    </a>
    <a href="structclanguml_1_1sequence__diagram_1_1model_1_1method.html" target="_top" title="Participant model representing a method" xlink:actuate="onRequest" xlink:href="structclanguml_1_1sequence__diagram_1_1model_1_1method.html" xlink:show="new" xlink:title="Participant model representing a method" xlink:type="simple">
      <g id="elem_C_0006541327780382276039">
        <rect codeLine="49" fill="#F1F1F1" height="48" id="C_0006541327780382276039" rx="2.5" ry="2.5" style="stroke:#181818;stroke-width:0.5;" width="83.7718" x="671" y="724.6699"/>
        <ellipse cx="686" cy="740.6699" fill="#ADD1B2" rx="11" ry="11" style="stroke:#181818;stroke-width:1.0;"/>
        <path d="M688.9688,746.3105 Q688.3906,746.6074 687.75,746.748 Q687.1094,746.9043 686.4063,746.9043 Q683.9063,746.9043 682.5781,745.2636 Q681.2656,743.6074 681.2656,740.4824 Q681.2656,737.3574 682.5781,735.7011 Q683.9063,734.0449 686.4063,734.0449 Q687.1094,734.0449 687.75,734.2011 Q688.4063,734.3574 688.9688,734.6543 L688.9688,737.373 Q688.3438,736.7949 687.75,736.5293 Q687.1563,736.248 686.5313,736.248 Q685.1875,736.248 684.5,737.3261 Q683.8125,738.3886 683.8125,740.4824 Q683.8125,742.5761 684.5,743.6543 Q685.1875,744.7168 686.5313,744.7168 Q687.1563,744.7168 687.75,744.4511 Q688.3438,744.1699 688.9688,743.5918 L688.9688,746.3105 Z " fill="#000000"/>
        <text fill="#000000" font-family="sans-serif" font-size="14" lengthAdjust="spacing" textLength="51.7718" x="700" y="746.1019">method</text>
        <line style="stroke:#181818;stroke-width:0.5;" x1="672" x2="753.7718" y1="756.6699" y2="756.6699"/>
        <line style="stroke:#181818;stroke-width:0.5;" x1="672" x2="753.7718" y1="764.6699" y2="764.6699"/>
      </g>
    </a>
    <a href="structclanguml_1_1sequence__diagram_1_1model_1_1objc__method.html" target="_top" title="objc_method" xlink:actuate="onRequest" xlink:href="structclanguml_1_1sequence__diagram_1_1model_1_1objc__method.html" xlink:show="new" xlink:title="objc_method" xlink:type="simple">
      <g id="elem_C_0013742559556936917396">
        <rect codeLine="53" fill="#F1F1F1" height="48" id="C_0013742559556936917396" rx="2.5" ry="2.5" style="stroke:#181818;stroke-width:0.5;" width="117.3997" x="790.5" y="724.6699"/>
        <ellipse cx="805.5" cy="740.6699" fill="#ADD1B2" rx="11" ry="11" style="stroke:#181818;stroke-width:1.0;"/>
        <path d="M808.4688,746.3105 Q807.8906,746.6074 807.25,746.748 Q806.6094,746.9043 805.9063,746.9043 Q803.4063,746.9043 802.0781,745.2636 Q800.7656,743.6074 800.7656,740.4824 Q800.7656,737.3574 802.0781,735.7011 Q803.4063,734.0449 805.9063,734.0449 Q806.6094,734.0449 807.25,734.2011 Q807.9063,734.3574 808.4688,734.6543 L808.4688,737.373 Q807.8438,736.7949 807.25,736.5293 Q806.6563,736.248 806.0313,736.248 Q804.6875,736.248 804,737.3261 Q803.3125,738.3886 803.3125,740.4824 Q803.3125,742.5761 804,743.6543 Q804.6875,744.7168 806.0313,744.7168 Q806.6563,744.7168 807.25,744.4511 Q807.8438,744.1699 808.4688,743.5918 L808.4688,746.3105 Z " fill="#000000"/>
        <text fill="#000000" font-family="sans-serif" font-size="14" lengthAdjust="spacing" textLength="85.3997" x="819.5" y="746.1019">objc_method</text>
        <line style="stroke:#181818;stroke-width:0.5;" x1="791.5" x2="906.8997" y1="756.6699" y2="756.6699"/>
        <line style="stroke:#181818;stroke-width:0.5;" x1="791.5" x2="906.8997" y1="764.6699" y2="764.6699"/>
      </g>
    </a>
    <a href="structclanguml_1_1sequence__diagram_1_1model_1_1function__template.html" target="_top" title="Participant model representing a function template." xlink:actuate="onRequest" xlink:href="structclanguml_1_1sequence__diagram_1_1model_1_1function__template.html" xlink:show="new" xlink:title="Participant model representing a function template." xlink:type="simple">
      <g id="elem_C_0018241535739946484465">
        <rect codeLine="57" fill="#F1F1F1" height="48" id="C_0018241535739946484465" rx="2.5" ry="2.5" style="stroke:#181818;stroke-width:0.5;" width="151.9095" x="943" y="724.6699"/>
        <ellipse cx="958" cy="740.6699" fill="#ADD1B2" rx="11" ry="11" style="stroke:#181818;stroke-width:1.0;"/>
        <path d="M960.9688,746.3105 Q960.3906,746.6074 959.75,746.748 Q959.1094,746.9043 958.4063,746.9043 Q955.9063,746.9043 954.5781,745.2636 Q953.2656,743.6074 953.2656,740.4824 Q953.2656,737.3574 954.5781,735.7011 Q955.9063,734.0449 958.4063,734.0449 Q959.1094,734.0449 959.75,734.2011 Q960.4063,734.3574 960.9688,734.6543 L960.9688,737.373 Q960.3438,736.7949 959.75,736.5293 Q959.1563,736.248 958.5313,736.248 Q957.1875,736.248 956.5,737.3261 Q955.8125,738.3886 955.8125,740.4824 Q955.8125,742.5761 956.5,743.6543 Q957.1875,744.7168 958.5313,744.7168 Q959.1563,744.7168 959.75,744.4511 Q960.3438,744.1699 960.9688,743.5918 L960.9688,746.3105 Z " fill="#000000"/>
        <text fill="#000000" font-family="sans-serif" font-size="14" lengthAdjust="spacing" textLength="119.9095" x="972" y="746.1019">function_template</text>
        <line style="stroke:#181818;stroke-width:0.5;" x1="944" x2="1093.9095" y1="756.6699" y2="756.6699"/>
        <line style="stroke:#181818;stroke-width:0.5;" x1="944" x2="1093.9095" y1="764.6699" y2="764.6699"/>
      </g>
    </a>
    <g id="link_C_0001425108501944636238_C_0001425108501944636238">
      <path codeLine="62" d="M526.5882,270.782 C546.6382,271.672 549.5,274.9499 549.5,281.6699 C549.5,288.3899 534.65,292.1999 514.6,293.0899 " fill="none" id="C_0001425108501944636238-backto-C_0001425108501944636238" style="stroke:#181818;stroke-width:1.0;"/>
      <polygon fill="none" points="514.6,270.2499,520.4167,274.512,526.5882,270.782,520.7715,266.5199,514.6,270.2499" style="stroke:#181818;stroke-width:1.0;"/>
      <rect fill="none" height="6" style="stroke:#C82930;stroke-width:1.0;" width="6" x="557.5" y="279.5229"/>
      <text fill="#000000" font-family="sans-serif" font-size="13" lengthAdjust="spacing" textLength="112.7231" x="567.5" y="287.0669">template_params_</text>
    </g>
    <g id="link_C_0003717723700041732716_C_0001425108501944636238">
      <path codeLine="63" d="M423.8138,190.8519 C425.6038,213.3019 427.36,235.1699 429.15,257.5799 " fill="none" id="C_0003717723700041732716-backto-C_0001425108501944636238" style="stroke:#181818;stroke-width:1.0;"/>
      <polygon fill="none" points="422.86,178.8899,419.3495,185.1888,423.8138,190.8519,427.3242,184.553,422.86,178.8899" style="stroke:#181818;stroke-width:1.0;"/>
      <rect fill="none" height="6" style="stroke:#C82930;stroke-width:1.0;" width="6" x="429" y="216.0229"/>
      <text fill="#000000" font-family="sans-serif" font-size="13" lengthAdjust="spacing" textLength="66.8461" x="439" y="223.5669">templates_</text>
    </g>
    <g id="link_C_0003717723700041732716_C_0013384831159811298387">
      <path codeLine="64" d="M500.7639,183.5234 C565.0339,205.9634 647.53,234.7699 712.97,257.6099 " fill="none" id="C_0003717723700041732716-backto-C_0013384831159811298387" style="stroke:#181818;stroke-width:1.0;"/>
      <polygon fill="none" points="483.77,177.5899,498.7861,189.188,502.7418,177.8587,483.77,177.5899" style="stroke:#181818;stroke-width:1.0;"/>
    </g>
    <g id="link_C_0003717723700041732716_C_0001633165731746789371">
      <path codeLine="66" d="M380.271,190.9427 C359.521,209.9627 345.35,226.6099 330,257.6699 C269.43,380.1899 353.02,449.5999 272,559.6699 C262.35,572.7799 248.46,582.9799 234.13,590.7699 " fill="none" id="C_0003717723700041732716-backto-C_0001633165731746789371" style="stroke:#181818;stroke-width:1.0;"/>
      <polygon fill="none" points="393.54,178.7799,376.2167,186.5196,384.3252,195.3657,393.54,178.7799" style="stroke:#181818;stroke-width:1.0;"/>
    </g>
    <g id="link_C_0010336274859733225462_C_0001633165731746789371">
      <path codeLine="68" d="M196.8054,522.492 C190.8754,544.942 185.01,567.1699 179.1,589.5799 " fill="none" id="C_0010336274859733225462-backto-C_0001633165731746789371" style="stroke:#181818;stroke-width:1.0;"/>
      <polygon fill="none" points="199.87,510.8899,194.4703,515.6694,196.8054,522.492,202.2051,517.7125,199.87,510.8899" style="stroke:#181818;stroke-width:1.0;"/>
      <rect fill="none" height="6" style="stroke:#C82930;stroke-width:1.0;" width="6" x="195" y="548.0229"/>
      <text fill="#000000" font-family="sans-serif" font-size="13" lengthAdjust="spacing" textLength="60.0731" x="205" y="555.5669">methods_</text>
    </g>
    <g id="link_C_0013384831159811298387_C_0010336274859733225462">
      <path codeLine="69" d="M740.7699,317.5873 C722.9799,333.1173 711.3,341.1299 686,353.6699 C530.16,430.9199 322.7,468.2899 241.09,480.7399 " fill="none" id="C_0013384831159811298387-backto-C_0010336274859733225462" style="stroke:#181818;stroke-width:1.0;"/>
      <polygon fill="none" points="754.33,305.7499,736.8241,313.0673,744.7157,322.1073,754.33,305.7499" style="stroke:#181818;stroke-width:1.0;"/>
    </g>
    <g id="link_C_0003717723700041732716_C_0010998792414017796003">
      <path codeLine="71" d="M340.9438,172.7545 C311.4538,180.7945 294.43,188.8499 268,208.6699 C176.23,277.4899 119.45,408.9999 99.29,462.3399 " fill="none" id="C_0003717723700041732716-backto-C_0010998792414017796003" style="stroke:#181818;stroke-width:1.0;"/>
      <polygon fill="none" points="358.31,168.0199,339.3656,166.9658,342.522,178.5432,358.31,168.0199" style="stroke:#181818;stroke-width:1.0;"/>
    </g>
    <g id="link_C_0013384831159811298387_C_0011201726182739961811">
      <path codeLine="73" d="M779,323.9599 C779,363.1099 779,423.6799 779,462.6499 " fill="none" id="C_0013384831159811298387-backto-C_0011201726182739961811" style="stroke:#181818;stroke-width:1.0;"/>
      <polygon fill="none" points="779,305.9599,773,323.9599,785,323.9599,779,305.9599" style="stroke:#181818;stroke-width:1.0;"/>
    </g>
    <g id="link_C_0011201726182739961811_C_0007084118972955772881">
      <path codeLine="75" d="M764.8483,527.8669 C756.9383,550.3169 751.02,567.1699 743.13,589.5799 " fill="none" id="C_0011201726182739961811-backto-C_0007084118972955772881" style="stroke:#181818;stroke-width:1.0;"/>
      <polygon fill="none" points="770.83,510.8899,759.1893,525.873,770.5073,529.8608,770.83,510.8899" style="stroke:#181818;stroke-width:1.0;"/>
    </g>
    <g id="link_C_0011201726182739961811_C_0001861107648253454629">
      <path codeLine="77" d="M800.7991,526.5926 C813.3791,549.0426 823.52,567.1699 836.07,589.5799 " fill="none" id="C_0011201726182739961811-backto-C_0001861107648253454629" style="stroke:#181818;stroke-width:1.0;"/>
      <polygon fill="none" points="792,510.8899,795.5649,529.5257,806.0334,523.6596,792,510.8899" style="stroke:#181818;stroke-width:1.0;"/>
    </g>
    <g id="link_C_0001861107648253454629_C_0006541327780382276039">
      <path codeLine="79" d="M819.3399,651.8841 C807.6799,666.1941 803.31,670.6499 788,685.6699 C774.01,699.3899 757.3,713.4099 743.21,724.6399 " fill="none" id="C_0001861107648253454629-backto-C_0006541327780382276039" style="stroke:#181818;stroke-width:1.0;"/>
      <polygon fill="none" points="830.71,637.9299,814.6885,648.0941,823.9913,655.6742,830.71,637.9299" style="stroke:#181818;stroke-width:1.0;"/>
    </g>
    <g id="link_C_0001861107648253454629_C_0013742559556936917396">
      <path codeLine="81" d="M849,655.8399 C849,680.0999 849,699.9899 849,724.3199 " fill="none" id="C_0001861107648253454629-backto-C_0013742559556936917396" style="stroke:#181818;stroke-width:1.0;"/>
      <polygon fill="none" points="849,637.8399,843,655.8399,855,655.8399,849,637.8399" style="stroke:#181818;stroke-width:1.0;"/>
    </g>
    <g id="link_C_0001861107648253454629_C_0018241535739946484465">
      <path codeLine="83" d="M892.7888,648.9287 C923.8988,673.2587 958.36,700.2299 989.44,724.5499 " fill="none" id="C_0001861107648253454629-backto-C_0018241535739946484465" style="stroke:#181818;stroke-width:1.0;"/>
      <polygon fill="none" points="878.61,637.8399,889.0926,653.6549,896.4851,644.2024,878.61,637.8399" style="stroke:#181818;stroke-width:1.0;"/>
    </g>
  </g>
</svg>
