<?xml version="1.0" encoding="UTF-8" standalone="no"?><svg xmlns="http://www.w3.org/2000/svg" xmlns:xlink="http://www.w3.org/1999/xlink" contentScriptType="application/ecmascript" contentStyleType="text/css" height="542px" preserveAspectRatio="none" style="width:1124px;height:542px;" version="1.1" viewBox="0 0 1124 542" width="1124px" zoomAndPan="magnify"><defs><filter height="300%" id="f1e3ty3hnsocau" width="300%" x="-1" y="-1"><feGaussianBlur result="blurOut" stdDeviation="2.0"/><feColorMatrix in="blurOut" result="blurOut2" type="matrix" values="0 0 0 0 0 0 0 0 0 0 0 0 0 0 0 0 0 0 .4 0"/><feOffset dx="4.0" dy="4.0" in="blurOut2" result="blurOut3"/><feBlend in="SourceGraphic" in2="blurOut3" mode="normal"/></filter></defs><g><!--MD5=[7ba9c127878a642fef3f451151dda753]
cluster C_0000316605034920222648--><polygon fill="#FFFFFF" filter="url(#f1e3ty3hnsocau)" points="22,24,95,24,102,46.2969,425,46.2969,425,379,22,379,22,24" style="stroke: #000000; stroke-width: 1.5;"/><line style="stroke: #000000; stroke-width: 1.5;" x1="22" x2="102" y1="46.2969" y2="46.2969"/><text fill="#000000" font-family="sans-serif" font-size="14" font-weight="bold" lengthAdjust="spacingAndGlyphs" textLength="67" x="26" y="38.9951">common</text><!--MD5=[f7110622f5be760311cd0491b75bf8f9]
cluster C_0000083721806430512831--><polygon fill="#FFFFFF" filter="url(#f1e3ty3hnsocau)" points="46,67,100,67,107,89.2969,401,89.2969,401,355,46,355,46,67" style="stroke: #000000; stroke-width: 1.5;"/><line style="stroke: #000000; stroke-width: 1.5;" x1="46" x2="107" y1="89.2969" y2="89.2969"/><text fill="#000000" font-family="sans-serif" font-size="14" font-weight="bold" lengthAdjust="spacingAndGlyphs" textLength="48" x="50" y="81.9951">model</text><!--MD5=[09e992b259734a9820adb2642bf347d2]
cluster C_0002240167036201725606--><polygon fill="#FFFFFF" filter="url(#f1e3ty3hnsocau)" points="449,213,565,213,572,235.2969,723,235.2969,723,530,449,530,449,213" style="stroke: #000000; stroke-width: 1.5;"/><line style="stroke: #000000; stroke-width: 1.5;" x1="449" x2="572" y1="235.2969" y2="235.2969"/><text fill="#000000" font-family="sans-serif" font-size="14" font-weight="bold" lengthAdjust="spacingAndGlyphs" textLength="110" x="453" y="227.9951">class_diagram</text><!--MD5=[5d123d1ba3dda692cf099252127394e7]
cluster C_0000897124234964432620--><polygon fill="#FFFFFF" filter="url(#f1e3ty3hnsocau)" points="473,256,527,256,534,278.2969,699,278.2969,699,506,473,506,473,256" style="stroke: #000000; stroke-width: 1.5;"/><line style="stroke: #000000; stroke-width: 1.5;" x1="473" x2="534" y1="278.2969" y2="278.2969"/><text fill="#000000" font-family="sans-serif" font-size="14" font-weight="bold" lengthAdjust="spacingAndGlyphs" textLength="48" x="477" y="270.9951">model</text><!--MD5=[2319765f5fef5e41f5b55adb85cd73ea]
cluster C_0001521862840957629236--><polygon fill="#FFFFFF" filter="url(#f1e3ty3hnsocau)" points="771,213,925,213,932,235.2969,1102,235.2969,1102,530,771,530,771,213" style="stroke: #000000; stroke-width: 1.5;"/><line style="stroke: #000000; stroke-width: 1.5;" x1="771" x2="932" y1="235.2969" y2="235.2969"/><text fill="#000000" font-family="sans-serif" font-size="14" font-weight="bold" lengthAdjust="spacingAndGlyphs" textLength="148" x="775" y="227.9951">sequence_diagram</text><!--MD5=[aff6d1ed1f9fc56ba8376cf20ecae299]
cluster C_0002206969880830639264--><polygon fill="#FFFFFF" filter="url(#f1e3ty3hnsocau)" points="795,256,849,256,856,278.2969,1078,278.2969,1078,506,795,506,795,256" style="stroke: #000000; stroke-width: 1.5;"/><line style="stroke: #000000; stroke-width: 1.5;" x1="795" x2="856" y1="278.2969" y2="278.2969"/><text fill="#000000" font-family="sans-serif" font-size="14" font-weight="bold" lengthAdjust="spacingAndGlyphs" textLength="48" x="799" y="270.9951">model</text><!--MD5=[913c6f233a96408f73aaa4779df4a12a]
class C_0000178138562743079529--><a href="classclanguml_1_1common_1_1model_1_1template__parameter.html" target="_top" title="Represents template parameter, template arguments or concept         constraints" xlink:actuate="onRequest" xlink:href="classclanguml_1_1common_1_1model_1_1template__parameter.html" xlink:show="new" xlink:title="Represents template parameter, template arguments or concept         constraints" xlink:type="simple"><rect fill="#FEFECE" filter="url(#f1e3ty3hnsocau)" height="48" id="C_0000178138562743079529" style="stroke: #A80036; stroke-width: 1.5;" width="160" x="62" y="291"/><ellipse cx="77" cy="307" fill="#ADD1B2" rx="11" ry="11" style="stroke: #A80036; stroke-width: 1.0;"/><path d="M79.9688,312.6406 Q79.3906,312.9375 78.75,313.0781 Q78.1094,313.2344 77.4063,313.2344 Q74.9063,313.2344 73.5781,311.5938 Q72.2656,309.9375 72.2656,306.8125 Q72.2656,303.6875 73.5781,302.0313 Q74.9063,300.375 77.4063,300.375 Q78.1094,300.375 78.75,300.5313 Q79.4063,300.6875 79.9688,300.9844 L79.9688,303.7031 Q79.3438,303.125 78.75,302.8594 Q78.1563,302.5781 77.5313,302.5781 Q76.1875,302.5781 75.5,303.6563 Q74.8125,304.7188 74.8125,306.8125 Q74.8125,308.9063 75.5,309.9844 Q76.1875,311.0469 77.5313,311.0469 Q78.1563,311.0469 78.75,310.7813 Q79.3438,310.5 79.9688,309.9219 L79.9688,312.6406 Z "/><text fill="#000000" font-family="sans-serif" font-size="12" lengthAdjust="spacingAndGlyphs" textLength="128" x="91" y="311.1543">template_parameter</text><line style="stroke: #A80036; stroke-width: 1.5;" x1="63" x2="221" y1="323" y2="323"/><line style="stroke: #A80036; stroke-width: 1.5;" x1="63" x2="221" y1="331" y2="331"/></a><!--MD5=[2827fdd5558f2165e3e9bb4d89032bc9]
class C_0000464715462505216589--><a href="classclanguml_1_1common_1_1model_1_1template__trait.html" target="_top" title="Common interface for template diagram elements." xlink:actuate="onRequest" xlink:href="classclanguml_1_1common_1_1model_1_1template__trait.html" xlink:show="new" xlink:title="Common interface for template diagram elements." xlink:type="simple"><rect fill="#FEFECE" filter="url(#f1e3ty3hnsocau)" height="48" id="C_0000464715462505216589" style="stroke: #A80036; stroke-width: 1.5;" width="120" x="265" y="102"/><ellipse cx="280" cy="118" fill="#ADD1B2" rx="11" ry="11" style="stroke: #A80036; stroke-width: 1.0;"/><path d="M282.9688,123.6406 Q282.3906,123.9375 281.75,124.0781 Q281.1094,124.2344 280.4063,124.2344 Q277.9063,124.2344 276.5781,122.5938 Q275.2656,120.9375 275.2656,117.8125 Q275.2656,114.6875 276.5781,113.0313 Q277.9063,111.375 280.4063,111.375 Q281.1094,111.375 281.75,111.5313 Q282.4063,111.6875 282.9688,111.9844 L282.9688,114.7031 Q282.3438,114.125 281.75,113.8594 Q281.1563,113.5781 280.5313,113.5781 Q279.1875,113.5781 278.5,114.6563 Q277.8125,115.7188 277.8125,117.8125 Q277.8125,119.9063 278.5,120.9844 Q279.1875,122.0469 280.5313,122.0469 Q281.1563,122.0469 281.75,121.7813 Q282.3438,121.5 282.9688,120.9219 L282.9688,123.6406 Z "/><text fill="#000000" font-family="sans-serif" font-size="12" lengthAdjust="spacingAndGlyphs" textLength="88" x="294" y="122.1543">template_trait</text><line style="stroke: #A80036; stroke-width: 1.5;" x1="266" x2="384" y1="134" y2="134"/><line style="stroke: #A80036; stroke-width: 1.5;" x1="266" x2="384" y1="142" y2="142"/></a><!--MD5=[3fbd1476055f798f732379619b702fab]
class C_0000204145716468348671--><a href="classclanguml_1_1class__diagram_1_1model_1_1class__method.html" target="_top" title="class_method" xlink:actuate="onRequest" xlink:href="classclanguml_1_1class__diagram_1_1model_1_1class__method.html" xlink:show="new" xlink:title="class_method" xlink:type="simple"><rect fill="#FEFECE" filter="url(#f1e3ty3hnsocau)" height="48" id="C_0000204145716468348671" style="stroke: #A80036; stroke-width: 1.5;" width="118" x="523" y="442"/><ellipse cx="538" cy="458" fill="#ADD1B2" rx="11" ry="11" style="stroke: #A80036; stroke-width: 1.0;"/><path d="M540.9688,463.6406 Q540.3906,463.9375 539.75,464.0781 Q539.1094,464.2344 538.4063,464.2344 Q535.9063,464.2344 534.5781,462.5938 Q533.2656,460.9375 533.2656,457.8125 Q533.2656,454.6875 534.5781,453.0313 Q535.9063,451.375 538.4063,451.375 Q539.1094,451.375 539.75,451.5313 Q540.4063,451.6875 540.9688,451.9844 L540.9688,454.7031 Q540.3438,454.125 539.75,453.8594 Q539.1563,453.5781 538.5313,453.5781 Q537.1875,453.5781 536.5,454.6563 Q535.8125,455.7188 535.8125,457.8125 Q535.8125,459.9063 536.5,460.9844 Q537.1875,462.0469 538.5313,462.0469 Q539.1563,462.0469 539.75,461.7813 Q540.3438,461.5 540.9688,460.9219 L540.9688,463.6406 Z "/><text fill="#000000" font-family="sans-serif" font-size="12" lengthAdjust="spacingAndGlyphs" textLength="86" x="552" y="462.1543">class_method</text><line style="stroke: #A80036; stroke-width: 1.5;" x1="524" x2="640" y1="474" y2="474"/><line style="stroke: #A80036; stroke-width: 1.5;" x1="524" x2="640" y1="482" y2="482"/></a><!--MD5=[ae47341ca1a22ddcd7d0b4ea2daf1996]
class C_0001292034357466653182--><a href="classclanguml_1_1class__diagram_1_1model_1_1class__.html" target="_top" title="Diagram element representing a class or class template." xlink:actuate="onRequest" xlink:href="classclanguml_1_1class__diagram_1_1model_1_1class__.html" xlink:show="new" xlink:title="Diagram element representing a class or class template." xlink:type="simple"><rect fill="#FEFECE" filter="url(#f1e3ty3hnsocau)" height="48" id="C_0001292034357466653182" style="stroke: #A80036; stroke-width: 1.5;" width="70" x="489" y="291"/><ellipse cx="504" cy="307" fill="#ADD1B2" rx="11" ry="11" style="stroke: #A80036; stroke-width: 1.0;"/><path d="M506.9688,312.6406 Q506.3906,312.9375 505.75,313.0781 Q505.1094,313.2344 504.4063,313.2344 Q501.9063,313.2344 500.5781,311.5938 Q499.2656,309.9375 499.2656,306.8125 Q499.2656,303.6875 500.5781,302.0313 Q501.9063,300.375 504.4063,300.375 Q505.1094,300.375 505.75,300.5313 Q506.4063,300.6875 506.9688,300.9844 L506.9688,303.7031 Q506.3438,303.125 505.75,302.8594 Q505.1563,302.5781 504.5313,302.5781 Q503.1875,302.5781 502.5,303.6563 Q501.8125,304.7188 501.8125,306.8125 Q501.8125,308.9063 502.5,309.9844 Q503.1875,311.0469 504.5313,311.0469 Q505.1563,311.0469 505.75,310.7813 Q506.3438,310.5 506.9688,309.9219 L506.9688,312.6406 Z "/><text fill="#000000" font-family="sans-serif" font-size="12" lengthAdjust="spacingAndGlyphs" textLength="38" x="518" y="311.1543">class_</text><line style="stroke: #A80036; stroke-width: 1.5;" x1="490" x2="558" y1="323" y2="323"/><line style="stroke: #A80036; stroke-width: 1.5;" x1="490" x2="558" y1="331" y2="331"/></a><!--MD5=[dd3d40541e24383f89990969973b4760]
class C_0001374849051752224500--><a href="classclanguml_1_1class__diagram_1_1model_1_1concept__.html" target="_top" title="concept_" xlink:actuate="onRequest" xlink:href="classclanguml_1_1class__diagram_1_1model_1_1concept__.html" xlink:show="new" xlink:title="concept_" xlink:type="simple"><rect fill="#FEFECE" filter="url(#f1e3ty3hnsocau)" height="48" id="C_0001374849051752224500" style="stroke: #A80036; stroke-width: 1.5;" width="89" x="594.5" y="291"/><ellipse cx="609.5" cy="307" fill="#ADD1B2" rx="11" ry="11" style="stroke: #A80036; stroke-width: 1.0;"/><path d="M612.4688,312.6406 Q611.8906,312.9375 611.25,313.0781 Q610.6094,313.2344 609.9063,313.2344 Q607.4063,313.2344 606.0781,311.5938 Q604.7656,309.9375 604.7656,306.8125 Q604.7656,303.6875 606.0781,302.0313 Q607.4063,300.375 609.9063,300.375 Q610.6094,300.375 611.25,300.5313 Q611.9063,300.6875 612.4688,300.9844 L612.4688,303.7031 Q611.8438,303.125 611.25,302.8594 Q610.6563,302.5781 610.0313,302.5781 Q608.6875,302.5781 608,303.6563 Q607.3125,304.7188 607.3125,306.8125 Q607.3125,308.9063 608,309.9844 Q608.6875,311.0469 610.0313,311.0469 Q610.6563,311.0469 611.25,310.7813 Q611.8438,310.5 612.4688,309.9219 L612.4688,312.6406 Z "/><text fill="#000000" font-family="sans-serif" font-size="12" lengthAdjust="spacingAndGlyphs" textLength="57" x="623.5" y="311.1543">concept_</text><line style="stroke: #A80036; stroke-width: 1.5;" x1="595.5" x2="682.5" y1="323" y2="323"/><line style="stroke: #A80036; stroke-width: 1.5;" x1="595.5" x2="682.5" y1="331" y2="331"/></a><!--MD5=[b4d475f36669eac2ac4b1a7424da64db]
class C_0000885514871619471610--><a href="structclanguml_1_1sequence__diagram_1_1model_1_1class__.html" target="_top" title="class_" xlink:actuate="onRequest" xlink:href="structclanguml_1_1sequence__diagram_1_1model_1_1class__.html" xlink:show="new" xlink:title="class_" xlink:type="simple"><rect fill="#FEFECE" filter="url(#f1e3ty3hnsocau)" height="48" id="C_0000885514871619471610" style="stroke: #A80036; stroke-width: 1.5;" width="70" x="811" y="291"/><ellipse cx="826" cy="307" fill="#ADD1B2" rx="11" ry="11" style="stroke: #A80036; stroke-width: 1.0;"/><path d="M828.9688,312.6406 Q828.3906,312.9375 827.75,313.0781 Q827.1094,313.2344 826.4063,313.2344 Q823.9063,313.2344 822.5781,311.5938 Q821.2656,309.9375 821.2656,306.8125 Q821.2656,303.6875 822.5781,302.0313 Q823.9063,300.375 826.4063,300.375 Q827.1094,300.375 827.75,300.5313 Q828.4063,300.6875 828.9688,300.9844 L828.9688,303.7031 Q828.3438,303.125 827.75,302.8594 Q827.1563,302.5781 826.5313,302.5781 Q825.1875,302.5781 824.5,303.6563 Q823.8125,304.7188 823.8125,306.8125 Q823.8125,308.9063 824.5,309.9844 Q825.1875,311.0469 826.5313,311.0469 Q827.1563,311.0469 827.75,310.7813 Q828.3438,310.5 828.9688,309.9219 L828.9688,312.6406 Z "/><text fill="#000000" font-family="sans-serif" font-size="12" lengthAdjust="spacingAndGlyphs" textLength="38" x="840" y="311.1543">class_</text><line style="stroke: #A80036; stroke-width: 1.5;" x1="812" x2="880" y1="323" y2="323"/><line style="stroke: #A80036; stroke-width: 1.5;" x1="812" x2="880" y1="331" y2="331"/></a><!--MD5=[de5a82e666bdb24735685a0a35a357d3]
class C_0001701531547288995691--><a href="structclanguml_1_1sequence__diagram_1_1model_1_1lambda.html" target="_top" title="lambda" xlink:actuate="onRequest" xlink:href="structclanguml_1_1sequence__diagram_1_1model_1_1lambda.html" xlink:show="new" xlink:title="lambda" xlink:type="simple"><rect fill="#FEFECE" filter="url(#f1e3ty3hnsocau)" height="48" id="C_0001701531547288995691" style="stroke: #A80036; stroke-width: 1.5;" width="78" x="811" y="442"/><ellipse cx="826" cy="458" fill="#ADD1B2" rx="11" ry="11" style="stroke: #A80036; stroke-width: 1.0;"/><path d="M828.9688,463.6406 Q828.3906,463.9375 827.75,464.0781 Q827.1094,464.2344 826.4063,464.2344 Q823.9063,464.2344 822.5781,462.5938 Q821.2656,460.9375 821.2656,457.8125 Q821.2656,454.6875 822.5781,453.0313 Q823.9063,451.375 826.4063,451.375 Q827.1094,451.375 827.75,451.5313 Q828.4063,451.6875 828.9688,451.9844 L828.9688,454.7031 Q828.3438,454.125 827.75,453.8594 Q827.1563,453.5781 826.5313,453.5781 Q825.1875,453.5781 824.5,454.6563 Q823.8125,455.7188 823.8125,457.8125 Q823.8125,459.9063 824.5,460.9844 Q825.1875,462.0469 826.5313,462.0469 Q827.1563,462.0469 827.75,461.7813 Q828.3438,461.5 828.9688,460.9219 L828.9688,463.6406 Z "/><text fill="#000000" font-family="sans-serif" font-size="12" lengthAdjust="spacingAndGlyphs" textLength="46" x="840" y="462.1543">lambda</text><line style="stroke: #A80036; stroke-width: 1.5;" x1="812" x2="888" y1="474" y2="474"/><line style="stroke: #A80036; stroke-width: 1.5;" x1="812" x2="888" y1="482" y2="482"/></a><!--MD5=[32d760b788d79d5e0bfcc0697e979e7d]
class C_0002280191967493310558--><a href="structclanguml_1_1sequence__diagram_1_1model_1_1function__template.html" target="_top" title="function_template" xlink:actuate="onRequest" xlink:href="structclanguml_1_1sequence__diagram_1_1model_1_1function__template.html" xlink:show="new" xlink:title="function_template" xlink:type="simple"><rect fill="#FEFECE" filter="url(#f1e3ty3hnsocau)" height="48" id="C_0002280191967493310558" style="stroke: #A80036; stroke-width: 1.5;" width="145" x="916.5" y="291"/><ellipse cx="931.5" cy="307" fill="#ADD1B2" rx="11" ry="11" style="stroke: #A80036; stroke-width: 1.0;"/><path d="M934.4688,312.6406 Q933.8906,312.9375 933.25,313.0781 Q932.6094,313.2344 931.9063,313.2344 Q929.4063,313.2344 928.0781,311.5938 Q926.7656,309.9375 926.7656,306.8125 Q926.7656,303.6875 928.0781,302.0313 Q929.4063,300.375 931.9063,300.375 Q932.6094,300.375 933.25,300.5313 Q933.9063,300.6875 934.4688,300.9844 L934.4688,303.7031 Q933.8438,303.125 933.25,302.8594 Q932.6563,302.5781 932.0313,302.5781 Q930.6875,302.5781 930,303.6563 Q929.3125,304.7188 929.3125,306.8125 Q929.3125,308.9063 930,309.9844 Q930.6875,311.0469 932.0313,311.0469 Q932.6563,311.0469 933.25,310.7813 Q933.8438,310.5 934.4688,309.9219 L934.4688,312.6406 Z "/><text fill="#000000" font-family="sans-serif" font-size="12" lengthAdjust="spacingAndGlyphs" textLength="113" x="945.5" y="311.1543">function_template</text><line style="stroke: #A80036; stroke-width: 1.5;" x1="917.5" x2="1060.5" y1="323" y2="323"/><line style="stroke: #A80036; stroke-width: 1.5;" x1="917.5" x2="1060.5" y1="331" y2="331"/></a><!--MD5=[8505caf16705ed6f5893bf86e39d9f72]
reverse link C_0000178138562743079529 to C_0000178138562743079529--><path d="M235.17,300.23 C248.24,302.64 257,307.57 257,315 C257,324.71 242.06,330.14 222.08,331.27 " fill="none" id="C_0000178138562743079529&lt;-C_0000178138562743079529" style="stroke: #A80036; stroke-width: 1.0;"/><polygon fill="#FFFFFF" points="222.08,298.73,227.5835,303.3895,234.0014,300.1015,228.4978,295.442,222.08,298.73" style="stroke: #A80036; stroke-width: 1.0;"/><rect fill="none" height="6" style="stroke: #C82930; stroke-width: 1.0;" width="6" x="265" y="312.5664"/><text fill="#000000" font-family="sans-serif" font-size="13" lengthAdjust="spacingAndGlyphs" textLength="121" x="275" y="319.5669">template_params_</text><!--MD5=[1421a7cb66ca20c748d686120e75df1f]
reverse link C_0000464715462505216589 to C_0000178138562743079529--><path d="M292.9,159.8 C256.1,197.4 196.73,258.08 164.52,290.99 " fill="none" id="C_0000464715462505216589&lt;-C_0000178138562743079529" style="stroke: #A80036; stroke-width: 1.0;"/><polygon fill="#FFFFFF" points="302.19,150.31,295.1336,151.7956,293.7909,158.8806,300.8473,157.395,302.19,150.31" style="stroke: #A80036; stroke-width: 1.0;"/><rect fill="none" height="6" style="stroke: #C82930; stroke-width: 1.0;" width="6" x="274" y="186.0664"/><text fill="#000000" font-family="sans-serif" font-size="13" lengthAdjust="spacingAndGlyphs" textLength="72" x="284" y="193.0669">templates_</text><!--MD5=[a1db1d9650f85b3167a87ae281cd12a2]
reverse link C_0000464715462505216589 to C_0000204145716468348671--><path d="M405.35,132.08 C504.49,140.23 664.46,160.11 701,205 C752.06,267.74 739.45,315.83 701,387 C687.79,411.45 663.21,429.47 639.8,442 " fill="none" id="C_0000464715462505216589&lt;-C_0000204145716468348671" style="stroke: #A80036; stroke-width: 1.0;"/><polygon fill="none" points="404.58,139.05,385.19,130.52,405.67,125.09,404.58,139.05" style="stroke: #A80036; stroke-width: 1.0;"/><!--MD5=[5772835d8c5fc770ec72554e912856e1]
reverse link C_0001292034357466653182 to C_0000204145716468348671--><path d="M537.9,351.72 C548.79,379.69 563.62,417.78 573,441.88 " fill="none" id="C_0001292034357466653182&lt;-C_0000204145716468348671" style="stroke: #A80036; stroke-width: 1.0;"/><polygon fill="#FFFFFF" points="533.06,339.28,531.5083,346.3222,537.4119,350.4631,538.9636,343.4209,533.06,339.28" style="stroke: #A80036; stroke-width: 1.0;"/><rect fill="none" height="6" style="stroke: #C82930; stroke-width: 1.0;" width="6" x="562" y="401.0664"/><text fill="#000000" font-family="sans-serif" font-size="13" lengthAdjust="spacingAndGlyphs" textLength="64" x="572" y="408.0669">methods_</text><!--MD5=[37b81943733c6f0afb346b14cdc09a31]
reverse link C_0000464715462505216589 to C_0001292034357466653182--><path d="M364.6,164.22 C404.82,202.01 465.83,259.34 499.51,290.99 " fill="none" id="C_0000464715462505216589&lt;-C_0001292034357466653182" style="stroke: #A80036; stroke-width: 1.0;"/><polygon fill="none" points="359.58,169.1,349.8,150.31,369.17,158.9,359.58,169.1" style="stroke: #A80036; stroke-width: 1.0;"/><!--MD5=[c4287a760a24872c540bdd439fc98865]
reverse link C_0000464715462505216589 to C_0001374849051752224500--><path d="M405.09,136.25 C458.55,145.9 527.8,165.47 577,205 C604.83,227.36 622.45,265.81 631.52,290.55 " fill="none" id="C_0000464715462505216589&lt;-C_0001374849051752224500" style="stroke: #A80036; stroke-width: 1.0;"/><polygon fill="none" points="403.69,143.11,385.09,132.96,405.96,129.3,403.69,143.11" style="stroke: #A80036; stroke-width: 1.0;"/><!--MD5=[419d091341342c34e8d2184e460395cb]
reverse link C_0000464715462505216589 to C_0000885514871619471610--><path d="M405.29,128.51 C515.18,131.96 705.39,143.21 763,180 C803.71,206 827.74,259.84 838.74,290.78 " fill="none" id="C_0000464715462505216589&lt;-C_0000885514871619471610" style="stroke: #A80036; stroke-width: 1.0;"/><polygon fill="none" points="404.89,135.51,385.1,127.94,405.29,121.51,404.89,135.51" style="stroke: #A80036; stroke-width: 1.0;"/><!--MD5=[2c90ee8d9e33f78746e08a7fd0729082]
reverse link C_0000885514871619471610 to C_0001701531547288995691--><path d="M847.17,359.54 C847.89,386.47 848.79,419.96 849.38,441.88 " fill="none" id="C_0000885514871619471610&lt;-C_0001701531547288995691" style="stroke: #A80036; stroke-width: 1.0;"/><polygon fill="none" points="840.16,359.46,846.62,339.28,854.16,359.09,840.16,359.46" style="stroke: #A80036; stroke-width: 1.0;"/><!--MD5=[43850a4dbbd6500b965033dc7940cfc7]
reverse link C_0000464715462505216589 to C_0002280191967493310558--><path d="M405.22,129.8 C543.21,135.94 818.44,154.31 899,205 C933.27,226.56 960.75,265.61 975.96,290.65 " fill="none" id="C_0000464715462505216589&lt;-C_0002280191967493310558" style="stroke: #A80036; stroke-width: 1.0;"/><polygon fill="none" points="404.79,136.79,385.1,128.95,405.38,122.8,404.79,136.79" style="stroke: #A80036; stroke-width: 1.0;"/><!--MD5=[ac1a73b8313e94179df84390770be75d]
@startuml
package [common] as C_0000316605034920222648 {
package [model] as C_0000083721806430512831 {
class "template_parameter" as C_0000178138562743079529
class C_0000178138562743079529 [[classclanguml_1_1common_1_1model_1_1template__parameter.html{Represents template parameter, template arguments or concept         constraints}]] {
__
}
class "template_trait" as C_0000464715462505216589
class C_0000464715462505216589 [[classclanguml_1_1common_1_1model_1_1template__trait.html{Common interface for template diagram elements.}]] {
__
}
}
}
package [class_diagram] as C_0002240167036201725606 {
package [model] as C_0000897124234964432620 {
class "class_method" as C_0000204145716468348671
class C_0000204145716468348671 [[classclanguml_1_1class__diagram_1_1model_1_1class__method.html{class_method}]] {
__
}
class "class_" as C_0001292034357466653182
class C_0001292034357466653182 [[classclanguml_1_1class__diagram_1_1model_1_1class__.html{Diagram element representing a class or class template.}]] {
__
}
class "concept_" as C_0001374849051752224500
class C_0001374849051752224500 [[classclanguml_1_1class__diagram_1_1model_1_1concept__.html{concept_}]] {
__
}
}
}
package [sequence_diagram] as C_0001521862840957629236 {
package [model] as C_0002206969880830639264 {
class "class_" as C_0000885514871619471610
class C_0000885514871619471610 [[structclanguml_1_1sequence__diagram_1_1model_1_1class__.html{class_}]] {
__
}
class "lambda" as C_0001701531547288995691
class C_0001701531547288995691 [[structclanguml_1_1sequence__diagram_1_1model_1_1lambda.html{lambda}]] {
__
}
class "function_template" as C_0002280191967493310558
class C_0002280191967493310558 [[structclanguml_1_1sequence__diagram_1_1model_1_1function__template.html{function_template}]] {
__
}
}
}
C_0000178138562743079529 o- - C_0000178138562743079529 : -template_params_
C_0000464715462505216589 o- - C_0000178138562743079529 : -templates_
C_0000464715462505216589 <|- - C_0000204145716468348671
C_0001292034357466653182 o- - C_0000204145716468348671 : -methods_
C_0000464715462505216589 <|- - C_0001292034357466653182
C_0000464715462505216589 <|- - C_0001374849051752224500
C_0000464715462505216589 <|- - C_0000885514871619471610
C_0000885514871619471610 <|- - C_0001701531547288995691
C_0000464715462505216589 <|- - C_0002280191967493310558

@enduml

PlantUML version 1.2020.02(Sun Mar 01 11:22:07 CET 2020)
(GPL source distribution)
Java Runtime: OpenJDK Runtime Environment
JVM: OpenJDK 64-Bit Server VM
Java Version: 11.0.19+7-post-Ubuntu-0ubuntu122.04.1
Operating System: Linux
Default Encoding: UTF-8
Language: en
Country: US
--></g></svg>